<svg width="208" height="216" viewBox="0 0 208 216" fill="none" xmlns="http://www.w3.org/2000/svg">
<path d="M188.288 116.262C188.288 116.262 188.719 121.161 190.172 121.43C191.625 121.698 196.955 116.8 196.686 109.372C196.418 101.944 193.726 93.6537 181.237 91.5552C184.089 97.53 188.719 100.436 188.288 116.262Z" fill="url(#paint0_radial_191_1175)"/>
<path style="mix-blend-mode:multiply" opacity="0.6" d="M192.325 107.596C190.147 101.375 187.071 95.1551 181.364 91.8198C184.226 97.6188 188.711 100.672 188.288 116.262C188.288 116.262 188.719 121.161 190.172 121.429C191.538 121.683 196.325 117.373 196.675 110.689C194.64 111.905 193.202 109.565 192.327 107.596H192.325Z" fill="url(#paint1_linear_191_1175)"/>
<path d="M190.294 121.683C190.236 121.683 190.18 121.677 190.128 121.667C188.539 121.373 188.093 116.803 188.046 116.282C188.379 103.98 185.693 99.5899 183.096 95.3465C182.352 94.131 181.65 92.9832 181.016 91.6576L180.815 91.2363L181.275 91.3136C191.428 93.0199 196.547 98.9233 196.926 109.36C197.138 115.217 193.975 118.968 192.999 119.978C191.986 121.028 190.951 121.679 190.292 121.679L190.294 121.683ZM181.664 91.8759C182.232 93.0044 182.854 94.0228 183.509 95.0953C186.143 99.4006 188.868 103.851 188.529 116.27C188.69 118.065 189.289 121.022 190.214 121.194C190.24 121.198 190.265 121.2 190.292 121.2C190.721 121.2 191.615 120.72 192.649 119.646C193.59 118.67 196.645 115.047 196.441 109.381C196.077 99.3716 191.243 93.6402 181.662 91.8759H181.664Z" fill="black"/>
<path d="M203.992 205.091C204.315 205.939 206.616 206.059 207.465 205.736C208.313 205.414 207.262 203.031 205.405 202.345C204.92 203.557 203.992 205.091 203.992 205.091Z" fill="url(#paint2_linear_191_1175)"/>
<path style="mix-blend-mode:multiply" opacity="0.6" d="M205.073 203.095C204.588 204.108 203.992 205.091 203.992 205.091C204.315 205.94 206.616 206.059 207.465 205.737C207.59 205.688 207.67 205.59 207.716 205.464C206.267 205.261 205.003 204.568 205.073 203.095Z" fill="url(#paint3_linear_191_1175)"/>
<path d="M206.276 206.144C205.24 206.144 204.037 205.891 203.764 205.178L203.722 205.068L203.784 204.968C203.793 204.952 204.707 203.435 205.179 202.258L205.266 202.04L205.486 202.123C207.038 202.697 207.996 204.301 208 205.199C208 205.578 207.836 205.858 207.546 205.969C207.244 206.083 206.781 206.148 206.272 206.148L206.276 206.144ZM204.27 205.099C204.51 205.429 205.318 205.659 206.276 205.659C206.721 205.659 207.132 205.603 207.378 205.511C207.412 205.497 207.521 205.456 207.519 205.198C207.515 204.515 206.73 203.215 205.536 202.662C205.115 203.646 204.481 204.74 204.27 205.099Z" fill="black"/>
<path d="M140.866 131.281C140.866 131.281 147.755 151.843 152.816 160.778C154.537 163.685 154.781 166.498 154.296 168.434C153.811 170.373 149.963 179.24 145.764 185.7C141.565 192.16 136.56 197.65 130.586 202.063C131.285 204.809 134.893 207.339 134.893 207.339C134.893 207.339 136.939 204.27 139.469 202.655C140.976 201.741 142.646 199.64 144.636 196.68C146.628 193.719 148.673 190.865 151.527 186.883C154.379 182.9 158.901 177.758 161.161 175.497C163.422 173.236 167.863 168.877 166.651 164.597C165.44 160.317 162.075 154.315 163.368 135.476C161.216 128.802 151.849 125.464 140.868 131.277L140.866 131.281Z" fill="url(#paint4_radial_191_1175)"/>
<path style="mix-blend-mode:multiply" opacity="0.7" d="M166.649 164.599C165.438 160.318 162.073 154.316 163.366 135.478C161.426 129.464 153.633 126.164 144.079 129.818C147.349 131.289 150.916 133.48 152.17 136.233C157.444 147.799 163.581 162.502 160.46 169.607C158.502 174.061 152.56 182.355 149.735 186.226C145.264 192.351 140.255 198.171 134.516 203.516C133.882 204.108 133.231 204.699 132.562 205.277C133.706 206.504 134.893 207.339 134.893 207.339C134.893 207.339 136.939 204.27 139.469 202.655C140.976 201.741 142.646 199.64 144.636 196.68C146.628 193.719 148.673 190.865 151.527 186.883C154.379 182.9 158.901 177.758 161.161 175.497C163.422 173.236 167.863 168.877 166.651 164.597L166.649 164.599Z" fill="url(#paint5_linear_191_1175)"/>
<path d="M134.955 207.679L134.752 207.536C134.601 207.429 131.063 204.921 130.35 202.123L130.309 201.965L130.441 201.868C136.217 197.601 141.304 192.117 145.561 185.566C149.739 179.139 153.565 170.359 154.062 168.374C154.615 166.162 154.072 163.369 152.609 160.9C147.592 152.042 140.707 131.561 140.638 131.356L140.572 131.161L140.754 131.064C144.485 129.089 148.303 128.044 151.795 128.044C157.612 128.044 162.133 130.863 163.598 135.402L163.612 135.447L163.608 135.493C162.512 151.482 164.742 158.088 166.218 162.459C166.477 163.226 166.702 163.889 166.883 164.533C168.116 168.888 163.764 173.236 161.428 175.572L161.331 175.669C159.15 177.851 154.595 183.012 151.722 187.023L151.61 187.18C148.818 191.08 146.8 193.897 144.835 196.815C142.553 200.208 140.986 202.017 139.592 202.861C137.14 204.426 135.113 207.441 135.092 207.472L134.955 207.679ZM130.862 202.158C131.519 204.365 134.097 206.438 134.833 206.994C135.345 206.266 137.146 203.849 139.335 202.451C140.669 201.642 142.191 199.878 144.433 196.546C146.4 193.621 148.419 190.801 151.216 186.9L151.328 186.745C154.217 182.712 158.794 177.524 160.988 175.331L161.084 175.234C163.351 172.967 167.571 168.751 166.416 164.668C166.238 164.038 166.016 163.379 165.759 162.618C164.273 158.214 162.025 151.561 163.121 135.511C161.708 131.205 157.374 128.533 151.793 128.533C148.437 128.533 144.765 129.524 141.161 131.4C141.882 133.526 148.298 152.311 153.026 160.66C155.225 164.368 154.81 167.375 154.531 168.494C154.029 170.502 150.174 179.364 145.967 185.833C141.712 192.38 136.63 197.874 130.862 202.16V202.158Z" fill="#6A401C"/>
<path d="M130.719 202.036C128.839 202.181 124.018 206.908 124.313 208.119C124.609 209.331 131.886 209.089 133.384 208.523C134.379 208.146 135.187 207.501 134.945 206.72C134.704 205.94 131.77 201.957 130.719 202.036Z" fill="url(#paint6_linear_191_1175)"/>
<path style="mix-blend-mode:multiply" opacity="0.6" d="M134.945 206.72C134.812 206.291 133.869 204.9 132.872 203.745C132.499 207.567 128.221 208.599 124.422 208.297C125.363 209.304 131.966 209.061 133.386 208.523C134.381 208.147 135.189 207.501 134.947 206.72H134.945Z" fill="url(#paint7_linear_191_1175)"/>
<path d="M128.684 209.231C126.702 209.231 124.292 209.047 124.079 208.176C123.989 207.803 124.213 207.25 124.765 206.487C126.076 204.68 129.144 201.913 130.702 201.793H130.752C131.985 201.793 134.92 205.824 135.177 206.645C135.43 207.461 134.792 208.247 133.471 208.748C132.733 209.026 130.721 209.229 128.686 209.229L128.684 209.231ZM130.752 202.278C129.471 202.377 126.518 204.892 125.156 206.773C124.648 207.474 124.508 207.899 124.549 208.062C124.617 208.338 125.772 208.748 128.684 208.748C130.636 208.748 132.619 208.554 133.297 208.297C134.112 207.988 134.91 207.432 134.713 206.792C134.45 205.946 131.631 202.278 130.752 202.278Z" fill="black"/>
<path d="M138.47 202.817C138.429 204.148 140.541 204.62 141.216 204.297C141.888 203.974 141.996 201.955 141.001 201.337C140.006 200.718 138.499 201.955 138.472 202.817H138.47Z" fill="url(#paint8_linear_191_1175)"/>
<path style="mix-blend-mode:multiply" opacity="0.6" d="M139.562 201.406C138.966 201.733 138.485 202.334 138.47 202.817C138.429 204.148 140.541 204.62 141.216 204.297C141.252 204.28 141.285 204.255 141.318 204.227C140.135 203.723 139.322 202.769 139.562 201.404V201.406Z" fill="url(#paint9_linear_191_1175)"/>
<path d="M140.663 204.637C140.035 204.637 139.169 204.399 138.653 203.868C138.363 203.568 138.215 203.203 138.228 202.811C138.253 202.007 139.33 200.929 140.398 200.929C140.665 200.929 140.912 200.996 141.129 201.132C141.809 201.555 142.01 202.453 141.973 203.153C141.936 203.818 141.687 204.341 141.322 204.517C141.156 204.596 140.93 204.639 140.665 204.639L140.663 204.637ZM140.398 201.412C139.621 201.412 138.73 202.254 138.713 202.824C138.705 203.085 138.802 203.323 139.001 203.53C139.569 204.117 140.744 204.254 141.111 204.078C141.272 204.001 141.459 203.669 141.488 203.124C141.517 202.589 141.374 201.852 140.872 201.541C140.732 201.454 140.572 201.41 140.396 201.41L140.398 201.412Z" fill="black"/>
<path d="M72.6128 135.263C72.6128 135.263 84.6708 137.31 87.0379 139.677C84.7771 143.768 76.1645 147.536 68.6283 152.919C65.5056 154.857 64.5375 155.934 64.6998 159.433C64.8621 162.933 65.8844 185.352 66.9336 189.145C67.6602 191.891 70.2843 193.385 71.7375 194.393C70.8486 197.462 69.2351 199.883 69.2351 199.883C69.2351 199.883 63.5694 197.381 62.2245 195.012C60.8795 192.643 60.5027 184.355 60.0718 178.432C59.6409 172.511 57.3259 156.767 58.5375 152.488C59.7491 148.208 65.6428 144.011 68.3887 140.861C71.1346 137.711 72.6148 135.263 72.6148 135.263H72.6128Z" fill="url(#paint10_radial_191_1175)"/>
<path style="mix-blend-mode:multiply" opacity="0.7" d="M68.6303 152.919C76.1665 147.536 84.7791 143.767 87.0399 139.677C85.5559 138.193 80.2651 136.834 76.5221 136.028C76.8641 137.536 76.8564 139.114 76.381 140.538C74.4429 147.321 65.4477 149.041 62.8158 154.697C60.4738 159.733 64.4313 177.678 64.4313 188.983C64.4313 191.037 64.698 194.42 62.5685 195.508C64.3366 197.717 69.2352 199.883 69.2352 199.883C69.2352 199.883 70.8506 197.46 71.7376 194.393C70.2844 193.385 67.6603 191.891 66.9337 189.145C65.8844 185.35 64.8622 162.931 64.6999 159.433C64.5376 155.934 65.5076 154.857 68.6284 152.919H68.6303Z" fill="url(#paint11_linear_191_1175)"/>
<path d="M69.324 200.187L69.1384 200.104C68.9046 199.999 63.3839 197.539 62.0138 195.13C60.8235 193.033 60.3887 186.62 60.0042 180.962C59.9462 180.094 59.8882 179.25 59.8302 178.45C59.7182 176.894 59.4766 174.685 59.1984 172.127C58.3964 164.772 57.3993 155.619 58.3056 152.423C59.1732 149.356 62.3365 146.384 65.1288 143.762C66.294 142.668 67.3935 141.634 68.207 140.703C70.9046 137.609 72.3925 135.163 72.408 135.14L72.493 134.999L72.6553 135.026C73.15 135.109 84.8157 137.111 87.2118 139.507L87.3413 139.636L87.2524 139.795C85.7548 142.504 81.5964 145.035 76.7809 147.965C74.1433 149.57 71.4148 151.23 68.7732 153.116C65.6196 155.074 64.7906 156.079 64.9452 159.422L64.951 159.563C65.7066 175.957 66.5162 186.716 67.1694 189.081C67.7954 191.447 69.8631 192.838 71.3723 193.852C71.552 193.972 71.722 194.086 71.8785 194.196L72.0215 194.295L71.9732 194.461C71.0843 197.53 69.4553 199.994 69.4399 200.019L69.3259 200.189L69.324 200.187ZM72.7326 135.53C72.3732 136.098 70.9278 138.316 68.5703 141.02C67.7413 141.971 66.6341 143.012 65.4592 144.115C62.7133 146.695 59.6022 149.617 58.7713 152.554C57.8921 155.661 58.9259 165.147 59.6795 172.075C59.9597 174.637 60.1993 176.852 60.3133 178.415C60.3713 179.217 60.4293 180.061 60.4873 180.931C60.8486 186.26 61.2988 192.892 62.4351 194.892C63.5906 196.925 68.1568 199.118 69.1442 199.576C69.5133 198.985 70.7172 196.952 71.4573 194.494C71.3433 194.417 71.2254 194.338 71.1017 194.254C69.6177 193.257 67.3742 191.748 66.7017 189.209C65.7935 185.928 64.9124 169.242 64.466 159.586L64.4602 159.445C64.2959 155.909 65.2756 154.718 68.5046 152.714C71.1481 150.827 73.8843 149.163 76.5297 147.551C81.1867 144.718 85.2215 142.262 86.7365 139.725C84.321 137.634 74.1394 135.779 72.7365 135.532L72.7326 135.53Z" fill="#6A401C"/>
<path d="M77.9945 202.871C78.1336 203.839 75.4921 203.638 73.3123 202.548C70.5665 201.174 69.3162 200.49 68.8718 199.723C68.4273 198.956 70.3655 193.223 71.778 193.547C73.1906 193.87 77.7529 201.178 77.9945 202.873V202.871Z" fill="url(#paint12_linear_191_1175)"/>
<path style="mix-blend-mode:multiply" opacity="0.6" d="M69.805 195.814C69.0997 197.4 68.6301 199.304 68.8717 199.723C69.3161 200.49 70.5664 201.176 73.3122 202.548C75.492 203.638 78.1335 203.839 77.9944 202.871C77.9847 202.798 77.9634 202.712 77.9383 202.62C74.2475 201.874 71.1519 200.036 69.805 195.814Z" fill="url(#paint13_linear_191_1175)"/>
<path d="M76.8545 203.735C75.8168 203.735 74.383 203.354 73.2042 202.765C70.4139 201.369 69.1424 200.672 68.6613 199.843C68.2806 199.186 69.1675 196.309 70.0815 194.72C70.6922 193.661 71.2893 193.186 71.8303 193.308C73.411 193.669 78.0004 201.201 78.2342 202.834C78.2632 203.033 78.211 203.215 78.0854 203.362C77.8709 203.609 77.4574 203.735 76.8545 203.735ZM71.6622 193.773C71.5192 193.773 71.1212 193.889 70.5028 194.962C69.4825 196.732 68.8835 199.259 69.0806 199.599C69.4922 200.311 70.7811 201.01 73.4207 202.33C74.5376 202.888 75.8864 203.25 76.8545 203.25C77.4922 203.25 77.6777 203.093 77.7202 203.045C77.7434 203.018 77.7666 202.979 77.755 202.904C77.5153 201.23 72.9801 194.067 71.7241 193.779C71.7028 193.775 71.6815 193.771 71.6603 193.771L71.6622 193.773Z" fill="black"/>
<path d="M66.4216 185.673C65.8612 185.866 66.0177 189.145 67.0399 189.737C68.0621 190.328 69.6003 188.923 69.6776 188.419C69.8399 187.37 67.2022 185.404 66.4216 185.673Z" fill="url(#paint14_linear_191_1175)"/>
<path style="mix-blend-mode:multiply" opacity="0.6" d="M66.1064 187.024C66.1296 188.065 66.4291 189.381 67.0417 189.735C68.0639 190.326 69.602 188.921 69.6793 188.417C69.6851 188.382 69.6793 188.344 69.6793 188.307C68.3653 188.688 67.148 188.523 66.1064 187.024Z" fill="url(#paint15_linear_191_1175)"/>
<path d="M67.5945 190.121C67.3491 190.121 67.1211 190.061 66.9201 189.946C66.0795 189.459 65.7723 187.553 65.8805 186.423C65.9365 185.851 66.0872 185.53 66.3423 185.443C67.036 185.204 68.5665 186.208 69.3433 187.113C69.7819 187.625 69.9771 188.077 69.9191 188.456C69.8399 188.975 68.6631 190.123 67.5945 190.123V190.121ZM66.5916 185.889C66.5452 185.889 66.5182 185.895 66.5027 185.901C66.4312 185.965 66.2921 186.494 66.3674 187.389C66.4544 188.442 66.7752 189.302 67.1636 189.526C67.2911 189.6 67.436 189.636 67.5945 189.636C68.4467 189.636 69.3974 188.661 69.4399 188.38C69.4747 188.158 69.3046 187.81 68.9761 187.428C68.3114 186.651 67.1288 185.889 66.5916 185.889Z" fill="black"/>
<path d="M40.5317 61.5188C40.5317 61.5188 42.1472 56.4058 44.5684 53.4975C46.9897 50.5913 47.637 44.4541 46.0216 42.7865C45.2139 42.0869 31.0844 51.5594 29.954 61.9768C33.4264 62.1391 40.5317 61.5188 40.5317 61.5188Z" fill="url(#paint16_radial_191_1175)"/>
<path style="mix-blend-mode:multiply" opacity="0.7" d="M46.0218 42.7883C45.9696 42.7419 45.8556 42.7419 45.6952 42.7805C45.6624 45.5747 45.2817 48.6027 43.4382 50.7554C40.4199 54.2375 38.2382 57.8897 36.2885 61.8259C38.6151 61.6887 40.532 61.5206 40.532 61.5206C40.532 61.5206 42.1474 56.4075 44.5687 53.4993C46.9899 50.5931 47.6373 44.4559 46.0218 42.7883Z" fill="url(#paint17_linear_191_1175)"/>
<path d="M31.2855 62.2454C30.7831 62.2454 30.3309 62.2358 29.9444 62.2184L29.6874 62.2068L29.7145 61.9498C30.3058 56.5005 34.3 51.5846 37.5463 48.4194C41.1927 44.8658 44.984 42.5063 45.8922 42.5063C46.012 42.5063 46.1106 42.5392 46.1821 42.603C47.9888 44.4677 47.1676 50.7595 44.756 53.6522C42.3927 56.4889 40.7792 61.5401 40.7637 61.5904L40.7154 61.7449L40.5531 61.7585C40.4971 61.7623 34.9396 62.2435 31.2855 62.2435V62.2454ZM30.2265 61.7449C30.5435 61.7546 30.899 61.7604 31.2855 61.7604C34.5724 61.7604 39.4149 61.3681 40.3521 61.2908C40.6478 60.3962 42.1666 56.0039 44.383 53.343C46.783 50.4638 47.3299 44.5914 45.8845 42.9933C44.3367 43.0745 31.5019 51.888 30.2265 61.7449Z" fill="#6A401C"/>
<path d="M14.1686 97.7445C14.1686 97.7445 23.6565 98.5522 31.0034 95.4025C33.2642 99.358 40.4236 116.1 68.6284 132.463C74.3347 136.123 77.3492 139.891 90.267 139.783C98.7713 139.783 107.546 139.244 119.656 138.921C131.768 138.599 149.046 138.113 155.99 130.04C160.512 136.5 169.556 146.512 178.597 151.679C187.641 156.846 192.97 159.348 194.261 162.256C195.554 165.163 198.352 170.142 198.997 184.137C199.643 198.133 199.159 200.123 198.352 202.169C197.544 204.214 194.584 209.058 194.584 209.058L199.913 213.418C199.913 213.418 202.86 207.592 204.112 205.613C205.364 203.634 205.996 202.113 206.104 197.377C206.213 192.641 205.942 190.38 205.673 185.967C205.405 181.553 204.705 173.909 205.028 168.958C205.351 164.005 206.373 159.511 202.821 156.282C199.27 153.053 185.65 139.246 185.111 131.601C184.897 124.819 189.015 120.029 189.633 111.901C190.133 105.339 187.911 91.7696 171.654 86.6025C160.244 82.9426 147.755 84.5561 130.638 87.7871C113.521 91.016 107.169 91.6634 102.433 90.9097C97.6969 90.1561 91.7762 87.0334 80.7946 93.0624C76.9182 94.7841 70.6748 95.0006 62.2787 88.5407C55.8188 83.588 54.3115 72.8228 49.2526 66.2567C44.1937 59.6905 42.0662 57.3755 31.328 59.7176C23.8189 59.5552 20.8314 62.705 18.5165 64.9659C16.2015 67.2267 15.3416 71.6402 15.3416 71.6402C15.3416 71.6402 3.87688 81.6789 1.7764 86.5233C-0.322145 91.3677 0.242105 95.5667 3.55224 96.5349C5.97349 98.7957 7.85755 99.4141 9.95802 99.4141C12.0585 99.4141 14.1706 97.7445 14.1706 97.7445H14.1686Z" fill="url(#paint18_radial_191_1175)"/>
<path style="mix-blend-mode:multiply" opacity="0.7" d="M205.675 185.969C205.407 181.555 204.707 173.911 205.03 168.96C205.353 164.007 206.375 159.513 202.823 156.284C199.271 153.055 185.652 139.248 185.113 131.604C184.899 124.821 189.016 120.031 189.635 111.903C190.015 106.894 188.81 97.8007 180.987 91.48C182.815 97.6404 184.85 103.826 183.928 110.504C183.283 115.671 181.668 120.193 180.699 125.36C180.348 126.945 180.164 128.436 180.325 129.878C181.83 143.474 195.967 153.559 199.54 160.458C203.211 167.545 202.419 175.69 203.308 184.492C203.909 190.452 204.514 195.091 202.985 201.205C202.201 204.342 199.271 208.796 197.656 211.298L199.917 213.422C199.917 213.422 202.864 207.596 204.116 205.617C205.368 203.638 206 202.117 206.108 197.381C206.216 192.645 205.946 190.384 205.677 185.971L205.675 185.969Z" fill="url(#paint19_linear_191_1175)"/>
<path d="M202.821 156.284C199.27 153.055 185.65 139.248 185.111 131.604C184.897 124.821 189.014 120.031 189.633 111.903C190.027 106.73 188.727 97.202 180.195 90.8696C179.952 90.8851 179.712 90.8889 179.472 90.887C184.734 103.832 180.705 108.609 179.811 118.124C179.244 124.128 179.376 128.234 181.505 132.819C189.15 149.264 203.275 156.699 202.821 156.286V156.284Z" fill="url(#paint20_radial_191_1175)"/>
<path style="mix-blend-mode:multiply" d="M202.821 156.284C199.269 153.055 185.65 139.248 185.111 131.604C184.897 124.821 189.014 120.031 189.633 111.903C190.013 106.894 188.808 97.8027 180.985 91.4819C185.003 95.5418 184.848 103.826 183.927 110.504C183.281 115.671 179.944 123.64 180.296 129.551C180.595 130.635 180.989 131.712 181.503 132.819C189.148 149.263 203.273 156.699 202.819 156.286L202.821 156.284Z" fill="url(#paint21_linear_191_1175)"/>
<path d="M180.195 90.8676C179.878 90.6318 179.548 90.4018 179.21 90.1738C179.299 90.4096 179.387 90.6473 179.472 90.8849C179.712 90.8869 179.952 90.883 180.195 90.8676Z" fill="#D48038"/>
<path d="M171.656 86.6026C160.245 82.9427 147.757 84.5562 130.64 87.7871C113.523 91.0161 107.171 91.6635 102.435 90.9098C97.6987 90.1562 91.7779 87.0335 80.7963 93.0625C76.92 94.7842 70.6765 95.0007 62.2804 88.5408C56.3983 84.0306 54.6225 74.7031 50.5316 68.1138C48.9316 69.2732 47.1925 70.6761 47.921 72.8654C52.12 86.7533 65.1867 102.108 75.0089 105.849C78.1606 107.049 89.5422 105.849 97.6967 103.721C108.174 100.987 118.466 97.5958 128.701 95.0007C148.968 89.8625 163.946 87.3195 179.21 90.1755C177.111 88.7688 174.618 87.5456 171.656 86.6045V86.6026Z" fill="url(#paint22_radial_191_1175)"/>
<path d="M53.1268 114.701C37.2293 102.12 38.6747 93.2811 42.8718 80.3613C40.1104 86.8058 37.3278 92.0289 31.1848 95.7313C33.6409 100.211 41.1365 116.516 68.6282 132.464C73.3586 135.499 76.2456 138.605 84.4562 139.517C83.2775 137.298 82.176 135.063 81.8707 132.464C81.8707 132.141 66.7519 125.484 53.1268 114.701Z" fill="url(#paint23_radial_191_1175)"/>
<path style="mix-blend-mode:multiply" d="M69.0476 132.736C73.5384 135.683 76.491 138.633 84.4582 139.518C83.2794 137.3 82.178 135.064 81.8726 132.465C81.8726 132.444 81.8089 132.396 81.6852 132.322C77.7258 135.974 73.0997 133.696 69.0476 132.736Z" fill="url(#paint24_linear_191_1175)"/>
<path d="M149.21 117.314C135.053 118.58 116.106 117.608 100.603 123.422C99.3103 124.068 95.463 125.281 95.463 126.574C95.463 131.235 98.8156 134.709 98.9741 139.635C104.991 139.451 111.583 139.14 119.66 138.926C131.772 138.603 149.049 138.118 155.994 130.044C156.203 130.342 156.423 130.649 156.649 130.96C155.187 127.733 153.894 124.342 154.137 119.82C154.226 118.176 151.15 117.144 149.212 117.318L149.21 117.314Z" fill="url(#paint25_radial_191_1175)"/>
<path style="mix-blend-mode:multiply" d="M144.848 126.651C129.347 131.173 112.553 134.724 97.0495 128.912C96.8582 129.536 96.5857 130.129 96.2495 130.69C97.2504 133.555 98.864 136.253 98.9722 139.635C104.99 139.451 111.581 139.14 119.658 138.925C131.77 138.603 149.047 138.118 155.992 130.044C156.201 130.342 156.421 130.649 156.647 130.96C155.312 128.015 154.124 124.931 154.11 120.981C151.845 124.104 148.35 125.381 144.85 126.653L144.848 126.651Z" fill="url(#paint26_linear_191_1175)"/>
<path d="M45.7781 62.087C43.3202 59.5903 40.8622 58.5082 36.2748 58.9121C36.8719 63.4589 28.2593 67.8705 25.3511 70.1314C18.5685 74.9758 11.0304 79.656 7.72219 87.1961C6.32509 90.3825 2.7966 92.5526 0.858438 90.3188C0.777279 90.2994 0.616893 90.6956 0.568584 91.0415C0.356024 93.799 1.3396 95.8878 3.55022 96.5352C5.97147 98.7961 7.85552 99.4144 9.956 99.4144C12.0565 99.4144 14.1686 97.7448 14.1686 97.7448C14.1686 97.7448 23.6565 98.5526 31.0033 95.4028C31.0613 95.5033 31.1212 95.6134 31.1849 95.7294C37.2158 92.0946 41.4999 85.8705 43.2815 79.2077C43.6274 77.913 45.2931 71.5323 42.7907 66.0425C43.7588 74.4405 39.0941 81.4241 36.7617 83.9671C30.9473 90.1043 23.6275 88.9739 15.2313 88.6492C14.2632 88.6492 10.6227 89.2038 10.7367 88.5681C11.2623 85.6618 18.4468 81.6251 22.9685 78.3942C23.4536 79.484 26.8912 79.7835 27.7724 79.6869C33.8555 79.0145 38.3482 68.1391 42.1453 64.2647C43.9076 62.4657 45.8863 62.1971 45.7781 62.085V62.087Z" fill="url(#paint27_radial_191_1175)"/>
<g style="mix-blend-mode:multiply">
<path d="M38.2708 87.25C32.35 95.6499 12.2728 95.8374 14.3172 92.0152C10.6226 93.2461 2.6361 95.4335 0.632236 92.9504C0.918226 94.7417 1.88634 96.0461 3.55204 96.533C5.97329 98.7939 7.85734 99.4122 9.95782 99.4122C12.0583 99.4122 14.1704 97.7427 14.1704 97.7427C14.1704 97.7427 23.6583 98.5504 31.0051 95.4007C31.0631 95.5011 38.4331 91.1495 38.2727 87.2461L38.2708 87.25Z" fill="url(#paint28_linear_191_1175)"/>
</g>
<path d="M199.994 213.799L194.269 209.115L194.379 208.935C194.408 208.886 197.337 204.085 198.127 202.083C198.939 200.027 199.385 197.795 198.757 184.15C198.166 171.335 195.797 166.185 194.383 163.109C194.261 162.842 194.145 162.593 194.041 162.357C193.014 160.048 189.246 157.94 183.005 154.444C181.646 153.685 180.108 152.823 178.477 151.891C168.775 146.348 159.857 135.92 155.969 130.433C148.8 138.388 131.289 138.856 119.662 139.165C114.908 139.292 110.58 139.455 106.76 139.6C100.684 139.83 95.4359 140.027 90.2649 140.027C90.0852 140.027 89.9055 140.029 89.7297 140.029C79.15 140.029 75.3741 137.403 70.9993 134.361C70.2012 133.806 69.378 133.234 68.4949 132.668C42.5568 117.621 34.4892 102.454 31.4515 96.7438C31.239 96.3457 31.0554 95.9998 30.895 95.71C25.954 97.7699 20.0738 98.079 16.984 98.079C15.5521 98.079 14.5414 98.0153 14.24 97.9921C13.8323 98.2974 11.9115 99.6539 9.95402 99.6539C7.54243 99.6539 5.64872 98.8114 3.42457 96.7476C2.25356 96.3901 1.36274 95.6153 0.840999 94.5042C-0.0807378 92.537 0.176266 89.5921 1.55018 86.423C3.58882 81.7158 14.1125 72.3902 15.1154 71.5071C15.2487 70.8714 16.1472 66.9313 18.3424 64.7883L18.5453 64.5912C20.8081 62.3748 23.9231 59.3255 31.3008 59.4704C34.0873 58.8637 36.2284 58.5815 38.0351 58.5815C43.3936 58.5815 45.6312 61.1612 49.4418 66.1062C51.5771 68.8772 53.1037 72.4327 54.58 75.8704C56.6148 80.6066 58.7172 85.5052 62.4235 88.3477C67.1732 91.9998 71.664 93.853 75.7761 93.853C77.5268 93.853 79.1828 93.5129 80.6939 92.8404C85.1635 90.3844 89.2756 89.1863 93.2446 89.1863C95.8688 89.1863 98.0504 89.6964 99.9751 90.1448C100.852 90.3496 101.681 90.5428 102.47 90.6684C103.66 90.8578 104.92 90.9505 106.321 90.9505C110.87 90.9505 117.447 90.0288 130.591 87.5477C141.036 85.5766 149.538 84.2646 157.084 84.2646C162.518 84.2646 167.308 84.9525 171.728 86.3708C190.398 92.3051 190.12 108.693 189.874 111.919C189.573 115.864 188.473 118.981 187.409 121.996C186.296 125.148 185.244 128.123 185.355 131.594C185.884 139.115 199.395 152.838 202.985 156.102C206.122 158.954 205.789 162.813 205.436 166.898C205.378 167.575 205.316 168.272 205.271 168.974C205.012 172.935 205.405 178.523 205.72 183.012C205.795 184.087 205.865 185.082 205.919 185.951C205.975 186.885 206.033 187.721 206.087 188.504C206.29 191.484 206.435 193.636 206.352 197.383C206.247 201.986 205.668 203.617 204.323 205.743C203.092 207.688 200.166 213.47 200.135 213.528L200 213.797L199.994 213.799ZM194.902 209.006L199.836 213.043C200.431 211.872 202.819 207.207 203.909 205.486C205.051 203.681 205.753 202.233 205.863 197.373C205.948 193.65 205.801 191.505 205.6 188.539C205.546 187.754 205.49 186.916 205.432 185.982C205.38 185.115 205.31 184.119 205.235 183.047C204.92 178.543 204.526 172.935 204.786 168.943C204.833 168.237 204.893 167.536 204.953 166.858C205.31 162.722 205.617 159.151 202.659 156.461C199.04 153.171 185.413 139.312 184.871 131.619C184.757 128.048 185.824 125.03 186.953 121.835C188.008 118.85 189.098 115.764 189.393 111.884C189.633 108.722 189.905 92.6588 171.583 86.8346C167.212 85.4337 162.472 84.7515 157.088 84.7515C149.579 84.7515 141.102 86.0597 130.684 88.0269C117.507 90.5138 110.904 91.4375 106.323 91.4375C104.897 91.4375 103.612 91.3428 102.394 91.1496C101.589 91.022 100.752 90.8269 99.8649 90.6182C97.9654 90.1757 95.8127 89.6733 93.2446 89.6733C89.3587 89.6733 85.3239 90.852 80.9104 93.2752C79.3181 93.9844 77.5983 94.338 75.778 94.338C71.5577 94.338 66.9645 92.452 62.1297 88.7322C58.323 85.8124 56.1935 80.8559 54.1356 76.0617C52.6708 72.6511 51.1578 69.1265 49.0592 66.4018C45.2428 61.4472 43.1791 59.0666 38.037 59.0666C36.2612 59.0666 34.1453 59.3468 31.3781 59.9516L31.3491 59.9574H31.3202C24.1279 59.8047 21.2139 62.6569 18.8854 64.9371L18.6825 65.1342C16.4506 67.3158 15.583 71.6385 15.5753 71.681L15.5598 71.7622L15.498 71.8163C15.384 71.9168 4.04872 81.8742 1.99655 86.6143C0.67868 89.6559 0.417812 92.4559 1.28158 94.2974C1.75694 95.31 2.54341 95.9843 3.6178 96.2993L3.67191 96.3148L3.71442 96.3534C5.85548 98.3534 7.66417 99.167 9.95402 99.167C11.9424 99.167 13.9946 97.567 14.0158 97.5496L14.0912 97.4897L14.1859 97.4974C14.1975 97.4974 15.2873 97.5901 16.984 97.5901C20.0796 97.5901 26.0023 97.2771 30.9047 95.1747L31.1037 95.0897L31.2119 95.2771C31.3994 95.6037 31.6177 96.0172 31.8805 96.51C34.8989 102.185 42.9201 117.264 68.7481 132.247C69.6486 132.823 70.4756 133.399 71.2756 133.955C75.6543 137.001 79.4321 139.631 90.263 139.534C95.4263 139.534 100.671 139.337 106.74 139.107C110.562 138.962 114.893 138.8 119.648 138.672C131.301 138.361 148.91 137.891 155.805 129.874L156.008 129.638L156.187 129.893C159.956 135.275 168.939 145.872 178.717 151.461C180.346 152.392 181.884 153.252 183.241 154.011C189.571 157.555 193.391 159.692 194.483 162.148C194.587 162.382 194.701 162.63 194.823 162.894C196.253 166.003 198.645 171.205 199.241 184.116C199.888 198.135 199.411 200.139 198.578 202.247C197.851 204.088 195.453 208.085 194.9 208.995L194.902 209.006Z" fill="#6A401C"/>
<path d="M2.82548 84.6123C2.82548 84.6123 0.201337 87.4509 0.241917 88.906C0.282497 90.3591 1.85737 91.449 3.22935 91.2886C4.60133 91.1282 6.9163 88.6799 6.9163 88.6799L2.82548 84.6142V84.6123Z" fill="url(#paint29_radial_191_1175)"/>
<path style="mix-blend-mode:multiply" opacity="0.7" d="M0.69985 87.2793C0.69985 87.2793 -0.279857 88.5836 0.371349 89.6677C1.02256 90.7517 2.04477 91.3701 3.01482 91.2368C3.98293 91.1015 5.35684 90.3208 6.80998 88.7073C4.19936 90.0252 0.512411 90.402 0.69985 87.2812V87.2793Z" fill="url(#paint30_linear_191_1175)"/>
<path d="M2.95317 91.5439C2.24592 91.5439 1.50969 91.2656 0.937714 90.769C0.352208 90.2627 0.0198433 89.6038 0.000519655 88.91C-0.0419923 87.3757 2.53771 84.5642 2.64786 84.4463L3.00341 84.7748C2.2923 85.5439 0.452692 87.7854 0.48361 88.8965C0.499069 89.4511 0.771531 89.9864 1.25269 90.4018C1.79955 90.8752 2.54737 91.1207 3.20051 91.0453C4.47973 90.8946 6.9976 88.626 7.02272 88.6028C7.02272 88.6028 4.69036 91.3564 3.25655 91.5265C3.15607 91.538 3.05365 91.5439 2.95123 91.5439H2.95317Z" fill="#6A401C"/>
<path d="M3.45953 96.7765L3.42862 96.2934C3.4576 96.2934 6.3716 96.0982 8.95517 95.4393C11.4846 94.7939 13.8344 92.6064 13.8344 92.6064C13.7513 92.7127 11.761 95.2229 9.07498 95.9088C6.44697 96.5794 3.48852 96.7746 3.45953 96.7765Z" fill="#6A401C"/>
<path d="M14.0526 98.1407L13.8033 97.7252C14.9782 97.0199 16.213 95.8817 16.2265 95.8721C16.2265 95.8721 15.2719 97.4102 14.0526 98.1407Z" fill="#6A401C"/>
<path d="M156.158 130.701C153.246 126.33 154.048 120.305 154.054 120.247C154.054 120.247 154.083 122.404 154.701 125.383C155.034 126.989 155.606 128.771 156.58 130.46L156.16 130.701H156.158Z" fill="#6A401C"/>
<path d="M59.5328 45.8027C51.9424 47.0935 49.6275 55.706 48.0139 59.0452C46.2381 61.1978 41.7705 64.2123 41.7705 64.2123L47.2062 71.2635C47.2062 71.2635 51.4052 67.9804 54.3115 62.705C60.7714 56.5679 60.7173 45.5341 59.5328 45.8027Z" fill="url(#paint31_radial_191_1175)"/>
<path style="mix-blend-mode:multiply" opacity="0.7" d="M59.6544 45.8203C56.5181 48.199 53.7839 50.9391 52.8447 54.6995C50.9375 60.1488 51.6737 65.6405 46.951 71.0898C47.6351 70.5294 51.6853 67.4705 54.3114 62.7033C60.5394 56.7864 60.7114 46.3208 59.6544 45.8184V45.8203Z" fill="url(#paint32_linear_191_1175)"/>
<path d="M47.0574 71.0723C47.0999 71.0394 51.2526 67.7544 54.099 62.5873L54.1434 62.5293C59.1617 57.7602 60.1627 49.9419 59.8497 47.1071C59.7685 46.3709 59.6236 46.1023 59.5598 46.0443C53.2622 47.1322 50.6188 53.4916 49.0381 57.2926C48.7386 58.0134 48.4796 58.6375 48.2304 59.1515L48.1994 59.1998C46.4217 61.3544 42.0874 64.2897 41.9038 64.4133C41.9038 64.4133 42.7598 63.2481 44.0777 62.2414C45.3975 61.2327 46.9337 59.9631 47.8072 58.9119C48.0468 58.4153 48.2999 57.8066 48.5917 57.1051C50.213 53.2056 52.926 46.682 59.4922 45.5632C59.6081 45.5361 59.8535 45.54 60.0468 45.9013C60.8757 47.4491 60.4332 57.194 54.5047 62.8539C53.1096 65.3776 51.4091 67.4568 50.0178 68.9389C48.5183 70.5331 47.0574 71.0723 47.0574 71.0723Z" fill="#6A401C"/>
<path d="M47.3917 62.7785C47.3917 62.7785 47.2738 60.2799 47.9231 58.6567L48.3733 58.8364C47.7453 60.4075 47.3956 62.7553 47.3917 62.7785Z" fill="#6A401C"/>
<path d="M54.4661 62.9235L54.0081 62.767C54.242 62.0868 54.4603 60.8192 54.4622 60.8057C54.4622 60.8057 54.7115 62.2066 54.4661 62.9235Z" fill="#6A401C"/>
<path d="M51.2873 62.8965C51.2951 62.8753 52.126 60.7497 52.4023 57.8357C52.727 54.4135 53.7782 50.0116 59.0844 46.3149C59.0844 46.3149 58.6748 47.2077 58.3598 47.4589C54.0796 50.8753 53.1753 54.7903 52.8835 57.8821C52.7907 58.8637 52.6381 59.7507 52.4757 60.5043C52.1414 62.0424 51.2873 62.8985 51.2873 62.8985V62.8965Z" fill="#6A401C"/>
<path d="M52.642 57.8589C52.5647 58.6821 52.443 59.4377 52.3077 60.1063C53.3512 59.7352 55.5927 58.7362 56.5976 56.7285C58.5318 52.5469 58.2246 48.8966 57.9831 47.4551C53.6391 51.0415 52.9009 55.115 52.6401 57.8589H52.642Z" fill="#8C5B32"/>
<path d="M51.9869 60.4772L52.0719 60.0579C52.2226 59.314 52.3328 58.5661 52.4023 57.8357C52.6922 54.7633 53.5733 50.7845 57.8323 47.2676L58.1569 46.999L58.2265 47.4145C58.2361 47.4705 58.2458 47.5324 58.2555 47.5961C58.4854 49.1266 58.7154 52.7362 56.8217 56.8309C55.7994 58.8753 53.6081 59.9033 52.3927 60.3343L51.9907 60.4772H51.9869ZM57.8091 47.9227C53.9714 51.256 53.1579 54.9835 52.8835 57.8821C52.8255 58.4889 52.7405 59.1072 52.6284 59.7256C53.6912 59.2927 55.525 58.3343 56.383 56.6203C58.1221 52.8599 58.0139 49.5227 57.8091 47.9227Z" fill="#6A401C"/>
<path d="M30.615 95.8141L30.4237 95.3696C33.3918 94.0904 35.2063 92.3609 36.3 90.8653C37.5676 89.13 38.3483 87.7793 38.3483 87.7793C38.3077 87.988 37.2778 92.9445 30.6169 95.8141H30.615Z" fill="#6A401C"/>
<path d="M24.8139 72.7148C24.8139 72.7148 22.6072 73.8743 19.1618 78.852C17.2487 81.6153 12.0565 85.3119 11.5173 86.7651C11.5173 87.2501 16.0391 83.5883 17.6545 83.1052C19.27 82.6201 21.583 81.2752 23.1444 80.0907C24.7057 78.9061 27.6661 78.9061 27.6661 78.9061L24.8139 72.7168V72.7148Z" fill="url(#paint33_radial_191_1175)"/>
<path style="mix-blend-mode:screen" d="M24.5454 61.2386C22.5647 61.9091 16.8488 66.742 17.1715 70.025C14.642 74.0076 6.25751 79.8492 1.99858 86.6182C1.02274 88.112 3.92901 89.6733 9.15025 87.5728C14.3715 85.4743 25.3531 83.0781 32.4584 79.3641C39.5637 75.6501 46.7502 64.2666 35.4458 60.0676C30.3599 58.4521 26.2942 60.6454 24.5454 61.2386Z" fill="url(#paint34_linear_191_1175)"/>
<path d="M29.8731 75.675C29.8731 77.5474 28.4026 79.0663 26.59 79.0663C24.7775 79.0663 23.3069 77.5474 23.3069 75.675C23.3069 73.8025 24.7775 72.2837 26.59 72.2837C28.4026 72.2837 29.8731 73.8025 29.8731 75.675Z" fill="white"/>
<path d="M30.0893 73.4994C30.0893 73.4994 30.9512 77.482 28.2323 78.8829C25.784 79.9322 23.2797 78.425 22.9029 78.1293C22.5261 77.8337 21.9618 73.8491 24.8681 72.2086C26.6439 71.2926 29.1463 72.2627 30.0893 73.5013V73.4994Z" fill="black"/>
<path d="M23.6507 76.8847C24.3039 78.5543 26.1705 79.3852 27.8208 78.7398C29.471 78.0944 30.2787 76.218 29.6256 74.5485C28.9725 72.8789 27.1058 72.048 25.4556 72.6934C23.8053 73.3388 22.9976 75.2151 23.6507 76.8847Z" fill="url(#paint35_linear_191_1175)"/>
<path d="M24.6401 77.078C25.3821 78.1446 26.8372 78.4152 27.8903 77.6828C28.9435 76.9504 29.1966 75.4915 28.4565 74.4248C27.7145 73.3582 26.2594 73.0876 25.2044 73.82C24.1512 74.5524 23.8981 76.0113 24.6401 77.078Z" fill="black"/>
<path d="M24.0256 74.5508C24.3657 74.2454 24.8758 74.2454 25.1696 74.5508C25.4652 74.8599 25.4324 75.3662 25.0903 75.6812C24.7464 76 24.2246 76 23.929 75.6812C23.6372 75.3662 23.6816 74.858 24.0256 74.5488V74.5508Z" fill="white"/>
<path d="M28.6537 75.6445C28.7928 75.5208 28.9996 75.5208 29.1194 75.6445C29.2392 75.7701 29.2256 75.9769 29.0865 76.1044C28.9474 76.2339 28.7348 76.2339 28.615 76.1044C28.4952 75.9749 28.5145 75.7701 28.6537 75.6445Z" fill="white"/>
<path d="M26.5899 79.3101C24.646 79.3101 23.0634 77.6792 23.0634 75.6773C23.0634 73.6754 24.646 72.0444 26.5899 72.0444C28.5339 72.0444 30.1145 73.6754 30.1145 75.6773C30.1145 77.6792 28.5339 79.3101 26.5899 79.3101ZM26.5899 72.5275C24.9126 72.5275 23.5484 73.9401 23.5484 75.6773C23.5484 77.4145 24.9126 78.827 26.5899 78.827C28.2672 78.827 29.6315 77.4145 29.6315 75.6773C29.6315 73.9401 28.2672 72.5275 26.5899 72.5275Z" fill="black"/>
<path d="M99.3644 194.581C99.2562 192.16 97.8572 175.339 97.9383 171.381C98.0195 167.425 98.6649 164.438 98.4234 160.32C98.1818 156.202 100.522 137.551 97.1325 129.315L81.6311 131.657C81.6311 131.657 86.7171 145.787 88.2514 156.123C88.6553 159.999 88.1702 164.036 89.0997 167.468C89.7045 169.688 91.4823 171.06 91.9248 172.676C92.3693 174.291 94.6301 191.327 94.064 195.203C93.4997 199.079 88.5335 206.749 88.5335 206.749L92.3693 209.251C92.3693 209.251 96.406 206.102 98.0214 202.819C99.6369 199.536 99.4746 197.006 99.3664 194.583L99.3644 194.581Z" fill="url(#paint36_radial_191_1175)"/>
<path style="mix-blend-mode:multiply" opacity="0.7" d="M99.3645 194.581C99.2563 192.16 97.8572 175.339 97.9384 171.381C98.0196 167.426 98.665 164.438 98.4234 160.32C98.1877 156.315 100.396 138.562 97.3954 130.015C95.3548 149.207 95.1558 169.329 96.4041 189.306C96.7075 195.393 97.2659 202.981 89.0805 205.872C88.7423 206.419 88.5317 206.747 88.5317 206.747L92.3674 209.25C92.3674 209.25 96.4041 206.1 98.0196 202.817C99.635 199.534 99.4727 197.004 99.3645 194.581Z" fill="url(#paint37_linear_191_1175)"/>
<path d="M96.7538 125.2C96.7538 125.2 98.3422 131.714 98.719 137.634C99.0958 143.555 98.6649 153.084 98.5045 158.411C98.3441 163.741 98.0195 167.938 98.0195 167.938C98.0195 167.938 97.5345 161.64 96.8079 152.032C96.0813 142.425 95.5886 140.197 94.9509 137.258C94.3132 134.319 92.8118 131.524 93.0533 128.981C93.2949 126.438 96.7538 125.2 96.7538 125.2Z" fill="url(#paint38_radial_191_1175)"/>
<path style="mix-blend-mode:multiply" d="M98.719 137.634C98.4988 134.17 97.863 130.504 97.3741 128.058C97.4959 136.158 96.6012 137.389 96.2418 145.372C96.9645 154.917 98.0176 167.938 98.0176 167.938C98.0176 167.938 98.3403 163.739 98.5026 158.411C98.6649 153.082 99.0939 143.555 98.7171 137.634H98.719Z" fill="url(#paint39_linear_191_1175)"/>
<path d="M92.379 209.547L88.1973 206.817L88.3287 206.614C88.379 206.538 93.2717 198.942 93.8224 195.165C94.3944 191.244 92.0969 174.222 91.6891 172.738C91.4959 172.036 91.0167 171.354 90.5104 170.633C89.8959 169.76 89.2002 168.77 88.8621 167.53C88.2824 165.391 88.2476 163.078 88.2089 160.631C88.1858 159.155 88.1626 157.628 88.008 156.148C86.4969 145.965 81.4515 131.882 81.4012 131.741C81.4012 131.741 82.6534 133.8 83.6853 137.031C85.3085 142.113 87.5597 149.827 88.4891 156.088C88.6476 157.601 88.6708 159.14 88.694 160.625C88.7326 163.043 88.7674 165.325 89.3316 167.406C89.6466 168.566 90.2882 169.478 90.9084 170.359C91.4398 171.114 91.9423 171.829 92.1568 172.612C92.5683 174.11 94.8794 191.277 94.3017 195.238C93.7799 198.815 89.6717 205.41 88.864 206.678L92.35 208.954C93.0611 208.376 96.3925 205.574 97.7993 202.712C99.3432 199.572 99.235 197.139 99.1287 194.786L99.121 194.594C99.0881 193.862 98.9355 191.794 98.7442 189.178C98.3036 183.192 97.6389 174.146 97.6949 171.379C97.7278 169.802 97.8495 168.367 97.9674 166.979C98.1509 164.83 98.3249 162.801 98.1799 160.336C98.1162 159.259 98.2263 157.223 98.3654 154.643C98.6514 149.333 99.0823 141.371 98.2727 135.138C97.9886 132.954 97.3548 129.225 97.3548 129.225C99.892 135.385 99.2389 147.456 98.8505 154.668C98.7113 157.232 98.6031 159.257 98.6649 160.307C98.8118 162.807 98.6379 164.853 98.4524 167.02C98.3345 168.399 98.2128 169.825 98.1799 171.387C98.1239 174.131 98.7886 183.163 99.2273 189.139C99.4205 191.762 99.5732 193.831 99.606 194.571L99.6157 194.763C99.7239 197.176 99.836 199.673 98.236 202.925C96.6147 206.22 92.6824 209.311 92.5162 209.441L92.379 209.547Z" fill="#6A401C"/>
<path d="M83.606 211.348C83.5114 212.11 87.4012 213.004 89.9036 212.316C92.406 211.631 93.9403 210.378 93.0534 208.724C92.408 207.876 89.9036 206.222 88.6128 206.342C87.322 206.463 83.6466 211.024 83.606 211.348Z" fill="url(#paint40_linear_191_1175)"/>
<path style="mix-blend-mode:multiply" opacity="0.6" d="M93.0534 208.724C92.6495 208.193 91.5171 207.346 90.4099 206.817C91.0031 207.431 91.4495 208.55 91.1017 209.306C90.3152 211.016 88.1143 211.889 83.7432 211.634C84.4505 212.307 87.7104 212.919 89.9036 212.318C92.406 211.632 93.9403 210.38 93.0534 208.726V208.724Z" fill="url(#paint41_linear_191_1175)"/>
<path d="M87.8399 212.805C85.9713 212.805 84.0332 212.332 83.5211 211.75C83.3704 211.58 83.3549 211.422 83.3684 211.319C83.4283 210.844 87.1732 206.235 88.5916 206.102C89.981 205.973 92.5839 207.706 93.2486 208.579L93.2699 208.612C93.5964 209.219 93.6409 209.806 93.4051 210.357C92.9008 211.532 91.2602 212.199 89.9713 212.552C89.3568 212.72 88.6399 212.805 87.8418 212.805H87.8399ZM83.8515 211.387C83.9481 211.675 85.6602 212.32 87.8399 212.32C88.5955 212.32 89.2679 212.241 89.8418 212.085C91.5172 211.625 92.6244 210.945 92.9587 210.166C93.1346 209.756 93.0998 209.327 92.8505 208.858C92.2708 208.116 89.9887 206.579 88.7539 206.579C88.7133 206.579 88.6747 206.579 88.6361 206.585C87.5269 206.69 84.1201 210.834 83.8515 211.389V211.387Z" fill="black"/>
<path d="M99.5542 200.328C99.0421 200.086 97.4151 202.266 97.7378 203.356C98.0605 204.445 99.5948 205.294 100.161 204.89C100.725 204.486 100.928 200.975 99.5561 200.328H99.5542Z" fill="url(#paint42_linear_191_1175)"/>
<path style="mix-blend-mode:multiply" opacity="0.6" d="M99.2006 200.405C98.5339 200.813 97.4692 202.453 97.7358 203.354C98.0218 204.316 99.2489 205.087 99.9213 204.979C99.1445 203.655 98.874 201.926 99.1986 200.405H99.2006Z" fill="url(#paint43_linear_191_1175)"/>
<path d="M99.7897 205.234C98.9975 205.234 97.8033 204.426 97.5057 203.423C97.2873 202.687 97.7975 201.64 98.3018 200.963C98.553 200.627 99.0361 200.065 99.467 200.065C99.5347 200.065 99.6004 200.078 99.6583 200.107C100.512 200.509 100.746 201.734 100.808 202.428C100.905 203.489 100.74 204.772 100.302 205.085C100.165 205.184 99.9926 205.232 99.7917 205.232L99.7897 205.234ZM99.4496 200.546C99.3859 200.55 99.0806 200.728 98.6883 201.253C98.2323 201.864 97.8129 202.761 97.9675 203.284C98.1975 204.059 99.1772 204.747 99.7878 204.747C99.8844 204.747 99.9637 204.728 100.018 204.689C100.182 204.573 100.427 203.617 100.323 202.469C100.232 201.464 99.9134 200.763 99.4496 200.544V200.546Z" fill="black"/>
<path d="M194.868 208.643C193.664 208.504 189.782 213.528 190.023 214.819C190.265 216.11 196.28 215.464 198.137 214.941C199.994 214.415 200.116 213.366 200.075 212.921C200.035 212.477 196.603 208.844 194.868 208.641V208.643Z" fill="url(#paint44_linear_191_1175)"/>
<path style="mix-blend-mode:multiply" opacity="0.6" d="M200.077 212.923C200.056 212.695 199.14 211.624 198.017 210.61C196.649 213.934 193.252 214.819 190.023 214.585C190.014 214.672 190.014 214.753 190.025 214.82C190.267 216.111 196.282 215.466 198.139 214.942C199.996 214.417 200.118 213.367 200.077 212.923Z" fill="url(#paint45_linear_191_1175)"/>
<path d="M192.779 215.818C190.885 215.818 189.907 215.507 189.787 214.865C189.629 214.019 190.862 212.061 192.073 210.6C192.64 209.916 194.091 208.311 194.899 208.403C196.68 208.61 200.265 212.303 200.319 212.902C200.363 213.393 200.247 214.598 198.205 215.176C197.105 215.487 194.663 215.82 192.779 215.82V215.818ZM194.839 208.884C194.471 208.884 193.604 209.511 192.444 210.91C191.136 212.486 190.157 214.22 190.261 214.776C190.309 215.033 190.997 215.335 192.777 215.335C194.557 215.335 197.003 215.012 198.071 214.709C199.764 214.231 199.867 213.315 199.834 212.944C199.704 212.539 196.481 209.074 194.839 208.884Z" fill="black"/>
<path d="M153.247 105.121C148.188 101.783 135.807 105.874 128.808 107.49C121.811 109.105 115.565 111.366 104.694 112.873C93.8206 114.38 89.9443 117.395 90.6979 121.055C91.4515 124.715 98.4486 124.715 98.4486 124.715L152.06 118.04C155.289 117.072 158.304 108.46 153.245 105.123L153.247 105.121Z" fill="url(#paint46_radial_191_1175)"/>
<path d="M15.212 71.4334L15.4671 71.845C15.8169 71.6286 16.8777 70.8073 19.7531 67.5513C17.0149 69.8856 15.2352 71.4199 15.212 71.4334Z" fill="#6A401C"/>
<path d="M32.4024 61.5612C30.0275 61.4569 26.2942 61.5535 24.4372 60.711C25.0826 58.0192 25.6217 55.9207 25.8362 51.9902C26.0507 48.0618 27.612 36.8637 31.8111 30.3246C32.6188 29.5169 33.6275 29.3971 34.1531 28.3053C34.6787 27.2154 34.3946 25.6 35.3241 24.5101C36.2536 23.4203 38.5144 22.1275 38.9975 21.2C39.4825 20.2724 39.3801 18.7981 39.8652 17.9903C40.3502 17.1826 41.6623 16.6512 42.1183 15.5478C42.5763 14.4444 41.9424 13.1652 42.5492 11.9556C43.154 10.744 43.8014 10.5024 44.6477 9.04929C45.4961 7.59615 46.4506 0.369122 47.1502 0.262842C47.8497 0.15463 48.0796 0.411633 48.24 1.54206C48.4023 2.6725 47.4729 6.22418 47.4729 7.11307C47.4729 8.00195 47.9579 8.92948 47.7144 9.77779C47.4729 10.6261 46.7869 10.9488 46.6246 11.8377C46.4642 12.7266 47.1502 13.3314 46.7463 14.6628C46.3424 15.9942 45.4555 15.8744 45.0516 17.2869C44.6477 18.6995 44.8487 20.1526 44.2845 21.1633C43.7183 22.172 42.3057 22.172 41.8226 23.6251C41.3376 25.0782 40.9337 26.2087 40.0874 27.542C39.2391 28.8734 38.4719 28.9546 37.8265 29.8434C37.1811 30.7323 37.2623 32.0231 36.6555 33.113C36.0507 34.2029 35.726 34.4444 35.2024 35.455C34.6768 36.4637 35.1212 37.2309 34.8391 38.3613C34.557 39.4917 33.7956 39.7004 33.5077 41.4299C31.7589 51.8859 32.6729 61.5748 32.4043 61.5632L32.4024 61.5612Z" fill="url(#paint47_radial_191_1175)"/>
<path style="mix-blend-mode:multiply" opacity="0.5" d="M48.2419 1.54197C48.0796 0.411536 47.8516 0.156465 47.1521 0.262745C47.1134 0.268542 47.0729 0.299461 47.0323 0.34777C47.9598 0.923614 46.9028 4.82505 46.4661 7.14002C46.2767 8.14292 46.0487 10.3033 45.8613 11.055C45.4574 12.6704 45.6989 13.2869 44.7308 14.9023C43.7395 16.3187 43.2004 17.9555 42.3482 19.3719C41.7936 20.2936 40.9183 20.9931 40.3463 21.9149C39.7936 22.8057 39.2584 24.5351 38.6342 25.426C37.556 26.9023 36.5685 27.5419 35.7338 29.026C35.27 29.8491 35.0768 30.9757 34.6787 31.8047C34.2652 32.6646 33.6468 33.2288 33.2951 34.0984C32.8429 35.2134 33.0922 36.7515 32.727 37.8878C32.3347 39.1148 31.3376 39.9438 31.0265 41.2037C29.5231 47.3022 28.8487 53.8529 27.8285 61.3563C29.1579 61.5302 31.8439 61.5341 32.4043 61.5573C32.6729 61.5689 31.7589 51.88 33.5077 41.424C33.7975 39.6945 34.5569 39.4858 34.8391 38.3554C35.1212 37.225 34.6768 36.4578 35.2024 35.4491C35.728 34.4404 36.0507 34.197 36.6555 33.1071C37.2603 32.0173 37.1811 30.7245 37.8265 29.8375C38.4719 28.9487 39.2391 28.8694 40.0874 27.5361C40.9357 26.2047 41.3395 25.0743 41.8226 23.6192C42.3077 22.1661 43.7202 22.1661 44.2845 21.1574C44.8487 20.1487 44.6477 18.6956 45.0516 17.2811C45.4555 15.8685 46.3424 15.9883 46.7463 14.6569C47.1501 13.3255 46.4642 12.7188 46.6245 11.8318C46.7869 10.9429 47.4729 10.6202 47.7144 9.7719C47.9559 8.9236 47.4729 7.99606 47.4729 7.10718C47.4729 6.21829 48.4023 2.6666 48.24 1.53617L48.2419 1.54197Z" fill="url(#paint48_linear_191_1175)"/>
<path d="M32.4042 61.8047H32.3946C31.9405 61.7853 31.4381 61.7718 30.9067 61.7583C28.669 61.7023 25.8864 61.6327 24.3386 60.9332L24.1569 60.8501L24.2883 60.3051C24.9047 57.7409 25.3936 55.7139 25.5985 51.9786C25.7917 48.4559 27.3105 36.8946 31.612 30.1951L31.6448 30.1545C31.9811 29.8183 32.3405 29.5999 32.6864 29.3893C33.2042 29.0743 33.6506 28.8038 33.9385 28.2028C34.1356 27.7912 34.2129 27.285 34.2922 26.7497C34.4178 25.9168 34.5472 25.055 35.1424 24.3555C35.5772 23.8453 36.2806 23.3024 36.9608 22.7768C37.7395 22.1758 38.5434 21.5536 38.7849 21.0898C39.0052 20.6666 39.0999 20.0927 39.1907 19.5381C39.2931 18.9101 39.3897 18.3169 39.6603 17.8685C39.8902 17.4859 40.2632 17.1787 40.6612 16.8521C41.152 16.4483 41.6603 16.0328 41.8979 15.457C42.0912 14.9913 42.068 14.4734 42.0448 13.9246C42.0158 13.2483 41.9849 12.5507 42.3366 11.8492C42.6593 11.2058 42.9936 10.8212 43.3472 10.4154C43.6873 10.0251 44.0371 9.62316 44.4429 8.92944C44.8216 8.27823 45.2602 6.24733 45.6467 4.45603C46.3849 1.03381 46.6496 0.0966132 47.1192 0.0251158C47.2293 0.00772449 47.3259 0 47.4148 0C48.2052 0 48.3714 0.713041 48.4854 1.50917C48.5878 2.22608 48.2941 3.77004 48.0351 5.13235C47.8728 5.98066 47.7221 6.78065 47.7221 7.11495C47.7221 7.44925 47.7955 7.78549 47.8728 8.14491C47.9926 8.70336 48.1163 9.27921 47.9559 9.84539C47.8303 10.286 47.6023 10.5893 47.3839 10.8831C47.1598 11.1826 46.9472 11.4647 46.8718 11.8821C46.8139 12.2029 46.8854 12.4889 46.9704 12.8212C47.0979 13.3256 47.2409 13.8956 46.9878 14.7343C46.7714 15.4473 46.4293 15.7797 46.097 16.1004C45.7801 16.4058 45.4825 16.6956 45.2931 17.3545C45.125 17.9401 45.0651 18.5371 45.0071 19.1149C44.9279 19.9111 44.8506 20.6628 44.5047 21.283C44.2303 21.7719 43.7878 22.0463 43.3607 22.3091C42.8197 22.6434 42.3076 22.9584 42.0603 23.7043C41.5675 25.1806 41.154 26.3304 40.2999 27.6734C39.7955 28.4676 39.3105 28.8424 38.8835 29.1729C38.5646 29.4202 38.2902 29.6328 38.0313 29.9864C37.7182 30.4173 37.5868 30.97 37.4477 31.5574C37.3144 32.1139 37.1791 32.6898 36.8757 33.2328C36.5801 33.7661 36.3521 34.0946 36.1337 34.4154C35.9057 34.7458 35.6912 35.0569 35.4265 35.569C35.1559 36.0869 35.1714 36.5332 35.1868 37.0492C35.1984 37.4492 35.2139 37.9033 35.0825 38.4212C34.953 38.941 34.725 39.2869 34.5047 39.6231C34.2129 40.0675 33.9115 40.5255 33.755 41.4704C32.4835 49.0743 32.6226 56.1931 32.6902 59.6134C32.7269 61.4626 32.7212 61.6018 32.5956 61.7293L32.524 61.8027L32.412 61.8066L32.4042 61.8047ZM24.7212 60.5699C26.2149 61.1573 28.8139 61.223 30.9163 61.2752C31.3724 61.2868 31.8071 61.2965 32.2091 61.3119C32.2226 61.0143 32.2091 60.3593 32.1955 59.6211C32.1279 56.1854 31.9888 49.0376 33.268 41.3893C33.4439 40.3439 33.7878 39.8183 34.0912 39.3564C34.3076 39.0279 34.4951 38.7419 34.6033 38.3033C34.7173 37.8492 34.7038 37.4492 34.6922 37.0627C34.6748 36.5274 34.6593 35.9728 34.9859 35.3429C35.2661 34.8057 35.4883 34.4811 35.724 34.1371C35.9366 33.8279 36.1569 33.5072 36.4429 32.9951C36.7115 32.5101 36.8409 31.9671 36.9666 31.4434C37.1115 30.8366 37.2603 30.2086 37.6294 29.7004C37.9289 29.2888 38.2438 29.0453 38.5762 28.7883C38.9917 28.4676 39.4207 28.1352 39.8806 27.4125C40.7076 26.1139 41.0941 25.0395 41.5907 23.5497C41.8941 22.6396 42.5318 22.2454 43.096 21.8975C43.4883 21.6541 43.8593 21.426 44.0718 21.0454C44.3694 20.512 44.4409 19.8106 44.5163 19.0666C44.5762 18.4676 44.638 17.8492 44.8177 17.2212C45.0419 16.4386 45.4187 16.0734 45.7491 15.7526C46.0506 15.4608 46.3346 15.1864 46.5144 14.5932C46.7288 13.884 46.609 13.4029 46.4912 12.9391C46.4023 12.5855 46.3095 12.2183 46.3868 11.7951C46.4834 11.2676 46.7385 10.9236 46.9878 10.5932C47.1907 10.3227 47.382 10.0676 47.4825 9.71205C47.61 9.26375 47.5057 8.76906 47.3916 8.24732C47.3124 7.87824 47.2293 7.49756 47.2293 7.11495C47.2293 6.73235 47.3781 5.95167 47.552 5.04346C47.7916 3.78356 48.0892 2.21642 47.9984 1.57874C47.8535 0.560382 47.6776 0.485019 47.4071 0.485019C47.3491 0.485019 47.2834 0.490819 47.2158 0.500481C46.9279 0.778741 46.4583 2.96037 46.1124 4.56037C45.6989 6.47727 45.2718 8.45795 44.8545 9.17485C44.4255 9.90915 44.0429 10.3478 43.7047 10.7343C43.3569 11.1343 43.0554 11.4782 42.7617 12.0676C42.4661 12.657 42.4931 13.2637 42.5221 13.9053C42.5472 14.483 42.5723 15.0801 42.3385 15.6444C42.0545 16.3304 41.4728 16.8077 40.9607 17.2289C40.5975 17.5265 40.2535 17.8086 40.068 18.1198C39.8458 18.4888 39.7569 19.0376 39.6603 19.6193C39.5636 20.2125 39.4632 20.8251 39.2062 21.3178C38.9163 21.8743 38.1047 22.5004 37.2487 23.1632C36.5878 23.6734 35.9057 24.2009 35.5018 24.6724C34.9955 25.2656 34.8777 26.0579 34.7617 26.8251C34.6786 27.3738 34.5936 27.94 34.3637 28.4154C34.012 29.1439 33.4612 29.4801 32.926 29.8048C32.6091 29.998 32.2825 30.197 31.9926 30.4811C27.7588 37.0975 26.2613 48.5216 26.07 52.0057C25.8632 55.7854 25.3473 57.9322 24.7482 60.4192L24.7115 60.568L24.7212 60.5699Z" fill="#231910"/>
<path d="M47.4302 10.2104C46.7346 9.45099 44.8641 8.31477 44.8467 8.30317L45.0979 7.88965C45.1771 7.93796 47.0476 9.07418 47.7877 9.88384L47.4302 10.2104Z" fill="#231910"/>
<path d="M46.7406 14.2417C44.8836 13.5151 42.5725 12.0755 42.4758 12.0156L42.7328 11.604C42.756 11.6195 45.1039 13.0803 46.9183 13.7914L46.7425 14.2417H46.7406Z" fill="#231910"/>
<path d="M44.0971 21.3141C43.0768 20.0349 39.7821 18.2243 39.7493 18.2069L39.9811 17.7817C40.1203 17.8571 43.3937 19.6581 44.4758 21.0127L44.0971 21.3141Z" fill="#231910"/>
<path d="M40.0971 27.3796C38.7096 25.5806 35.3338 24.6492 35.301 24.6395L35.4285 24.1719C35.5734 24.2105 38.9956 25.1574 40.4816 27.0839L40.099 27.3796H40.0971Z" fill="#231910"/>
<path d="M36.4932 33.2926C34.2941 31.3139 31.5154 30.9738 31.4883 30.9719L31.5424 30.4907C31.6622 30.5042 34.499 30.8463 36.8178 32.9332L36.4932 33.2926Z" fill="#231910"/>
<path d="M34.7695 37.5014C33.355 36.1913 29.4091 35.3893 29.3705 35.3816L29.4652 34.9062C29.6333 34.9391 33.5869 35.743 35.0999 37.1459L34.7714 37.5014H34.7695Z" fill="#231910"/>
<path d="M34.329 40.249C31.9618 39.5785 28.1628 39.3717 28.1242 39.3698L28.1493 38.8867C28.3077 38.8944 32.0391 39.0973 34.4604 39.7833L34.329 40.249Z" fill="#231910"/>
<path d="M33.0865 43.8896C31.2314 42.6143 27.328 42.6007 27.2894 42.6007V42.1157C27.4556 42.1157 31.3841 42.1312 33.3609 43.4896L33.0865 43.8896Z" fill="#231910"/>
<path d="M32.787 46.3421C29.7165 45.3586 26.7677 45.5035 26.7368 45.5054L26.7097 45.0223C26.8334 45.0165 29.7783 44.8697 32.9338 45.8803L32.787 46.3421Z" fill="#231910"/>
<path d="M32.64 48.91C30.8371 48.4597 26.2342 48.6124 26.1878 48.6143L26.1704 48.1293C26.3617 48.1216 30.8893 47.9708 32.7579 48.4385L32.64 48.908V48.91Z" fill="#231910"/>
<path d="M32.4951 51.9243C28.9356 51.8837 25.8922 51.6828 25.8613 51.6808L25.8941 51.1978C25.925 51.1997 28.9569 51.4007 32.5008 51.4393L32.4951 51.9243Z" fill="#231910"/>
<path d="M32.4391 54.6297C30.2459 54.4693 25.7454 54.1891 25.6991 54.1852L25.73 53.7021C25.7764 53.7041 30.2788 53.9862 32.4739 54.1466L32.4391 54.6297Z" fill="#231910"/>
<path d="M31.8574 57.2675C29.6217 57.2675 25.4671 56.6723 25.2777 56.6452L25.3473 56.166C25.3975 56.1737 30.3927 56.8868 32.3637 56.7689L32.3927 57.252C32.2323 57.2617 32.0526 57.2655 31.8594 57.2655L31.8574 57.2675Z" fill="#231910"/>
<path d="M28.9859 61.4128C28.9859 61.4128 34.0719 64.6823 38.7965 61.6543C39.1598 61.2504 38.2709 49.7857 40.7482 41.8186C41.0168 41.1191 42.9955 41.4283 42.0661 37.6737C41.8245 36.5433 44.124 36.7056 44.4487 35.5346C44.7714 34.3636 44.4487 32.8698 44.611 32.3462C44.7733 31.8206 46.5086 32.1838 46.7907 31.4573C47.0728 30.7307 46.6148 29.2235 46.7772 28.8196C46.9395 28.4157 48.2844 29.3046 49.3066 28.1742C49.8458 27.4476 49.496 25.5365 49.7916 25.1597C50.0873 24.7829 51.5945 25.1597 52.1066 24.4331C52.6187 23.7066 52.3211 21.9848 53.1288 21.1771C53.9366 20.3694 55.2544 20.638 55.4979 20.209C55.7395 19.7781 55.9829 18.2438 56.8969 17.1675C57.8129 16.0911 65.0786 6.77908 64.7559 4.24962C64.5935 2.74238 63.3568 2.79649 63.0341 2.9047C62.7114 3.01291 61.5269 7.03609 60.2747 8.32691C59.0225 9.61966 58.0274 9.01289 57.4631 9.63125C56.8969 10.2496 57.1404 11.9192 56.468 12.6457C55.7955 13.3723 54.9607 13.0496 54.5298 13.6139C54.0989 14.1781 54.18 14.9047 53.6139 15.3897C53.0496 15.8747 52.5646 15.6853 52.0255 16.1433C51.4863 16.6013 51.6351 17.7723 50.6264 18.4583C49.6177 19.1443 47.5578 19.5481 46.7907 20.5568C46.0235 21.5655 46.1047 22.9781 45.6603 23.6254C45.2158 24.2708 43.1578 24.151 42.4719 24.837C41.7859 25.523 42.1492 26.008 41.7047 26.5723C41.2603 27.1385 40.7752 27.0167 40.5743 27.5404C40.3733 28.066 41.2062 28.98 40.4796 29.7336C39.753 30.4872 38.1917 30.4872 37.6004 31.3761C37.0091 32.265 37.8149 33.5558 37.3318 34.578C36.8468 35.6003 35.4071 36.0177 35.0033 36.9471C34.5994 37.8766 35.3666 38.8041 34.7212 39.693C34.0757 40.5819 33.5791 40.7539 33.1869 41.7123C30.6303 47.9558 29.1502 60.1219 28.9878 61.4128H28.9859Z" fill="url(#paint49_radial_191_1175)"/>
<path style="mix-blend-mode:multiply" opacity="0.5" d="M64.2671 3.17139C64.4564 5.56752 59.5096 11.5984 57.0825 14.9743C55.4864 17.1945 54.0738 19.4341 52.4391 19.8998C51.8342 20.3849 51.1869 21.3646 50.5415 22.6573C50.5415 23.3027 48.7386 23.6544 48.6033 24.2747C49.3029 27.5076 46.2613 26.8853 45.9657 27.5307C45.5618 28.1762 45.7241 29.2254 45.212 30.0602C44.6787 30.9317 43.355 30.2361 43.0729 31.2448C42.9918 35.4438 39.5599 35.5655 39.9232 36.8969C41.1212 39.8843 38.5918 40.893 38.2671 42.5085C36.729 49.5809 36.1995 55.7297 34.9976 62.7751C36.4256 62.7944 37.2526 62.6418 38.7927 61.6563C39.156 61.2524 38.2671 49.7877 40.7444 41.8206C41.013 41.1211 42.9918 41.4302 42.0623 37.6756C41.8207 36.5452 44.1203 36.7075 44.4449 35.5365C44.7676 34.3655 44.4449 32.8718 44.6072 32.3481C44.7695 31.8225 46.5048 32.1858 46.7869 31.4592C47.069 30.7327 46.6111 29.2254 46.7734 28.8216C46.9357 28.4177 48.2806 29.3066 49.3029 28.1762C49.842 27.4496 49.4922 25.5385 49.7879 25.1617C50.0835 24.7849 51.5908 25.1617 52.1028 24.4351C52.6149 23.7085 52.3173 21.9868 53.1251 21.1791C53.9328 20.3713 55.2507 20.6399 55.4941 20.211C55.7357 19.78 55.9792 18.2457 56.8932 17.1694C57.8091 16.0931 65.0748 6.78104 64.7521 4.25158C64.696 3.72018 64.5028 3.38588 64.2671 3.17718V3.17139Z" fill="url(#paint50_linear_191_1175)"/>
<path d="M34.3753 63.1827C31.326 63.1827 28.955 61.6793 28.8545 61.6155L28.727 61.5324L28.756 61.2967C29.2623 57.231 30.6845 47.175 32.9608 41.6175C33.2197 40.9856 33.5309 40.661 33.8613 40.317C34.068 40.1006 34.2825 39.8784 34.5222 39.5499C34.8178 39.1441 34.7598 38.7248 34.6922 38.2417C34.6342 37.8166 34.5666 37.3354 34.7772 36.8504C35.0033 36.3325 35.4941 35.9692 35.9695 35.6175C36.4217 35.2832 36.8893 34.9393 37.1077 34.4755C37.3105 34.0446 37.2506 33.5441 37.1869 33.0146C37.1135 32.406 37.0381 31.776 37.3936 31.2407C37.7569 30.6958 38.4062 30.4581 39.0342 30.2282C39.5328 30.0446 40.0043 29.8726 40.2999 29.5654C40.6535 29.1982 40.5357 28.7808 40.412 28.3422C40.3231 28.0272 40.2381 27.7277 40.3424 27.4533C40.4816 27.09 40.7386 26.9567 40.9666 26.8388C41.1463 26.7441 41.3318 26.6475 41.5096 26.4234C41.6661 26.2243 41.697 26.0427 41.7357 25.8108C41.7898 25.4958 41.8555 25.1055 42.296 24.6649C42.6883 24.2726 43.4033 24.1238 44.0951 23.9809C44.6555 23.8649 45.2893 23.7335 45.4574 23.4881C45.6197 23.2504 45.7086 22.864 45.8091 22.4176C45.9559 21.7683 46.1221 21.0301 46.5956 20.4098C47.1076 19.7374 48.0854 19.3374 49.0303 18.9509C49.5907 18.7229 50.1183 18.5065 50.4873 18.2553C51.0129 17.8978 51.183 17.3954 51.3492 16.9103C51.4748 16.5393 51.5946 16.1896 51.867 15.9577C52.1723 15.6968 52.4699 15.6157 52.7327 15.5461C52.9878 15.4765 53.21 15.4166 53.4554 15.206C53.7221 14.978 53.8187 14.6823 53.9289 14.3403C54.0236 14.0485 54.1221 13.7471 54.3347 13.4669C54.5917 13.1287 54.9511 13.0456 55.2989 12.9664C55.6525 12.8852 55.9849 12.8079 56.2883 12.4814C56.5897 12.1567 56.6844 11.5596 56.7772 10.9818C56.8738 10.3828 56.9627 9.81664 57.2834 9.46688C57.5733 9.14997 57.9385 9.092 58.325 9.0321C58.8371 8.95094 59.4187 8.86012 60.1008 8.15674C60.8409 7.39346 61.5714 5.59442 62.1047 4.28235C62.6245 3.00119 62.7462 2.74226 62.9569 2.6727C63.0709 2.63405 63.2274 2.61279 63.3859 2.61279C63.724 2.61279 64.8371 2.72873 64.9974 4.22245C65.3607 7.06302 57.1656 17.2253 57.0825 17.3239C56.4738 18.0408 56.1685 19.0012 55.9656 19.6388C55.8709 19.9403 55.7955 20.176 55.7105 20.3287C55.5501 20.6147 55.1791 20.6804 54.7501 20.7577C54.2612 20.8466 53.7066 20.9451 53.3028 21.349C52.9028 21.749 52.8081 22.4427 52.7153 23.1132C52.6381 23.6775 52.5627 24.2108 52.3076 24.5741C51.9443 25.09 51.2313 25.1461 50.6574 25.1905C50.4274 25.2079 50.0429 25.2388 49.9849 25.3123C49.9096 25.4108 49.898 25.9093 49.8922 26.2746C49.8767 27.0089 49.8612 27.8436 49.5057 28.3209C49.0767 28.7982 48.5608 29.0205 47.9154 29.0205C47.7009 29.0205 47.5057 28.9973 47.3356 28.9779C47.1985 28.9605 47.0574 28.947 46.9956 28.9528C46.9685 29.1055 47.0129 29.4746 47.0497 29.776C47.1231 30.3866 47.2042 31.0765 47.0207 31.548C46.8158 32.0736 46.1569 32.1605 45.5753 32.2359C45.3472 32.2649 44.8738 32.3267 44.8448 32.4195C44.7907 32.5972 44.8062 32.9818 44.8236 33.3915C44.8506 34.0543 44.8854 34.8774 44.6844 35.6021C44.4989 36.2745 43.8187 36.5605 43.2178 36.8137C42.5241 37.1055 42.2284 37.2697 42.3057 37.6272C43.0342 40.5702 42.0216 41.1885 41.3531 41.5982C41.1733 41.7083 41.0168 41.803 40.9762 41.9093C39.2043 47.6117 39.1714 55.0668 39.154 59.0726C39.1444 61.2523 39.1308 61.6542 38.9801 61.8204L38.9299 61.8629C37.5598 62.7421 36.0275 63.1866 34.3792 63.1866L34.3753 63.1827ZM29.2449 61.2851C29.7724 61.5904 31.8613 62.6977 34.3753 62.6977C35.9038 62.6977 37.326 62.2919 38.6014 61.4919C38.6574 61.2271 38.6613 60.1759 38.6671 59.0668C38.6845 55.0358 38.7192 47.5344 40.5163 41.747C40.6207 41.4726 40.8526 41.3315 41.098 41.1808C41.6796 40.8253 42.4758 40.3364 41.8323 37.7315C41.6622 36.9373 42.3888 36.632 43.0303 36.3634C43.554 36.1431 44.0931 35.9151 44.2168 35.4687C44.3965 34.8175 44.3637 34.0349 44.3386 33.4069C44.3173 32.9161 44.3018 32.5277 44.3811 32.2726C44.5009 31.8823 44.9917 31.8185 45.5115 31.7509C45.9598 31.6929 46.4661 31.6272 46.5666 31.3683C46.7057 31.0108 46.6284 30.3557 46.5666 29.8301C46.5086 29.3432 46.4622 28.9606 46.555 28.7287C46.6265 28.5528 46.7869 28.462 47.0342 28.462C47.1327 28.462 47.2545 28.4755 47.3898 28.491C47.5482 28.5103 47.726 28.5316 47.9115 28.5316C48.4197 28.5316 48.8062 28.3654 49.1269 28.0098C49.3743 27.6736 49.3917 26.8891 49.4033 26.2591C49.4168 25.604 49.4323 25.2214 49.6004 25.0069C49.7898 24.7654 50.1724 24.7364 50.6168 24.7016C51.1134 24.663 51.6757 24.6205 51.9076 24.29C52.097 24.0234 52.1627 23.5461 52.2323 23.0417C52.3308 22.3268 52.4429 21.5152 52.9569 21.0012C53.469 20.4891 54.1569 20.3654 54.6612 20.2746C54.9163 20.2282 55.2351 20.1722 55.2854 20.0833C55.3453 19.9751 55.4187 19.749 55.5018 19.4842C55.7163 18.8118 56.039 17.7934 56.7115 17.0031C58.1588 15.3007 64.8061 6.55481 64.5144 4.27269C64.4042 3.24467 63.7588 3.09202 63.3839 3.09202C63.2854 3.09202 63.2023 3.10361 63.1482 3.11521C63.0361 3.26786 62.7791 3.89974 62.553 4.4582C62.0042 5.80699 61.2545 7.65626 60.4487 8.48717C59.6545 9.30649 58.9298 9.42051 58.4004 9.5036C58.0603 9.5577 57.8148 9.59634 57.6409 9.78765C57.4187 10.0292 57.3376 10.549 57.2564 11.0514C57.1521 11.6988 57.0458 12.3693 56.6438 12.8021C56.24 13.2389 55.7781 13.3451 55.4091 13.4302C55.1095 13.4997 54.8738 13.5538 54.7211 13.7529C54.5569 13.9674 54.4757 14.2166 54.3907 14.4814C54.267 14.8582 54.1414 15.2485 53.7723 15.5654C53.4438 15.8475 53.1347 15.9306 52.8622 16.006C52.6187 16.0717 52.4081 16.1297 52.1839 16.321C52.012 16.4659 51.9192 16.7422 51.811 17.0611C51.639 17.5693 51.4226 18.2031 50.7637 18.6514C50.354 18.9297 49.8013 19.1557 49.2178 19.3934C48.3327 19.7548 47.4168 20.1297 46.9859 20.6958C46.5782 21.233 46.4236 21.9152 46.2864 22.5161C46.1743 23.0127 46.0777 23.4398 45.8613 23.7548C45.583 24.1586 44.9105 24.2997 44.1975 24.4466C43.5753 24.576 42.9337 24.7094 42.6439 24.9992C42.3134 25.3296 42.269 25.5866 42.2188 25.8823C42.1762 26.1335 42.1279 26.4156 41.896 26.7132C41.6545 27.0205 41.4014 27.1538 41.1965 27.2601C40.9801 27.3741 40.8719 27.4359 40.8004 27.6195C40.7521 27.7432 40.8159 27.9654 40.8835 28.2011C41.0188 28.6765 41.2023 29.3258 40.6555 29.8939C40.2825 30.2804 39.7357 30.4813 39.2081 30.6746C38.6284 30.8871 38.0796 31.0881 37.8033 31.5016C37.5463 31.8861 37.6081 32.4021 37.6738 32.9489C37.7434 33.5229 37.8149 34.118 37.5502 34.6745C37.2796 35.2485 36.7618 35.6291 36.2613 35.9982C35.8168 36.3267 35.3975 36.6359 35.2236 37.0359C35.0671 37.3953 35.1193 37.7702 35.1734 38.1683C35.2449 38.6823 35.3241 39.2639 34.9144 39.8282C34.6555 40.1837 34.4197 40.4291 34.211 40.6475C33.8883 40.9837 33.6313 41.2504 33.4091 41.7972C31.1096 47.4107 29.6526 58.0349 29.2468 61.2793L29.2449 61.2851Z" fill="#231910"/>
<path d="M35.0555 60.0578C31.4072 60.0578 29.3144 59.0607 29.2023 59.0066L29.4149 58.5718C29.4497 58.5892 32.9782 60.2587 38.7946 59.2365L38.8777 59.7138C37.4632 59.9631 36.184 60.0578 35.0555 60.0578Z" fill="#231910"/>
<path d="M35.4806 56.5528C32.4893 56.5528 29.927 55.4804 29.7782 55.4185L29.9675 54.9722C30.0159 54.9934 34.8545 57.0147 38.8699 55.4939L39.0419 55.9461C37.867 56.3905 36.64 56.5528 35.4786 56.5528H35.4806Z" fill="#231910"/>
<path d="M35.8324 52.5703C32.9145 52.5703 30.6228 51.4785 30.4933 51.4167L30.7039 50.98C30.7464 50.9993 34.9068 52.9761 39.0382 51.5751L39.1947 52.0331C38.0411 52.4254 36.8952 52.5703 35.8305 52.5703H35.8324Z" fill="#231910"/>
<path d="M36.9569 49.198C33.7879 49.198 31.3898 48.1236 31.2661 48.0675L31.4671 47.627C31.5038 47.6443 35.1656 49.2811 39.3144 48.4985L39.4052 48.9738C38.5569 49.1342 37.7337 49.198 36.9569 49.198Z" fill="#231910"/>
<path d="M37.4457 45.9537C34.609 45.9537 32.294 45.0918 32.1704 45.0454L32.3423 44.5933C32.381 44.6068 36.1588 46.0116 39.8766 45.229L39.9771 45.7024C39.1172 45.8841 38.2612 45.9537 37.4477 45.9537H37.4457Z" fill="#231910"/>
<path d="M40.3792 43.1229C35.8594 42.518 33.5966 41.1693 33.5038 41.1113L33.755 40.6978C33.7782 40.7113 36.0352 42.0523 40.4449 42.6436L40.3811 43.1229H40.3792Z" fill="#231910"/>
<path d="M42.2633 39.2077C38.5223 39.1266 35.2102 36.9991 35.0711 36.9082L35.3358 36.5024C35.3687 36.5237 38.6749 38.6454 42.273 38.7247L42.2633 39.2097V39.2077Z" fill="#231910"/>
<path d="M43.9618 36.1101C41.6256 32.4908 37.5908 31.6232 37.5502 31.6135L37.6468 31.1382C37.8208 31.173 41.9193 32.0503 44.3695 35.8454L43.9618 36.1082V36.1101Z" fill="#231910"/>
<path d="M46.5743 31.6984C44.6574 28.7979 40.5569 27.7873 40.5163 27.7776L40.6284 27.3062C40.8043 27.3487 44.9569 28.3728 46.9782 31.4317L46.5743 31.6984Z" fill="#231910"/>
<path d="M48.7655 28.6052C47.2177 25.4844 44.1742 24.4583 44.1433 24.4487L44.294 23.9888C44.4274 24.0313 47.5578 25.0805 49.2003 28.3907L48.7655 28.6052Z" fill="#231910"/>
<path d="M51.583 24.8178C50.2052 21.2854 47.6738 19.9791 47.6487 19.9675L47.867 19.5347C47.9772 19.5907 50.5917 20.9376 52.0351 24.6419L51.583 24.8178Z" fill="#231910"/>
<path d="M55.266 20.286C54.209 17.1923 52.3501 16.0677 52.3307 16.0561L52.5761 15.6387C52.6592 15.687 54.6051 16.8522 55.724 20.1295L55.266 20.286Z" fill="#231910"/>
<path d="M57.4574 16.1936C56.327 13.8071 54.9608 13.5598 54.9473 13.5578L55.0188 13.0786C55.0845 13.0883 56.6419 13.3433 57.8941 15.9868L57.4555 16.1936H57.4574Z" fill="#231910"/>
<path d="M60.0005 12.7675C59.3184 10.4467 57.413 9.86895 57.3937 9.86316L57.529 9.39746C57.6179 9.42258 59.7106 10.0564 60.4662 12.6303L60.0005 12.7675Z" fill="#231910"/>
<path style="mix-blend-mode:screen" d="M154.808 119.225C154.736 125.389 156.8 133.65 170.363 143.232C178.006 148.83 179.513 134.405 179.299 125.146C179.084 115.888 173.652 105.888 164.443 107.49C157.015 108.782 154.862 114.595 154.808 119.225Z" fill="url(#paint51_linear_191_1175)"/>
<path style="mix-blend-mode:screen" d="M179.196 95.3001C178.868 100.195 168.719 103.499 156.528 102.68C144.336 101.861 133.055 98.2277 133.386 93.333C133.714 88.4383 146.466 84.8828 157.718 84.9562C169.936 85.0354 179.525 90.4055 179.196 95.3001Z" fill="url(#paint52_linear_191_1175)"/>
<path style="mix-blend-mode:screen" d="M106.721 99.1574C107.295 104.935 101.307 110.259 93.3452 111.049C85.3839 111.84 78.466 107.797 77.894 102.019C77.3201 96.2415 83.3085 90.9178 91.2698 90.1275C99.2312 89.3372 106.149 93.3797 106.723 99.1574H106.721Z" fill="url(#paint53_linear_191_1175)"/>
<defs>
<radialGradient id="paint0_radial_191_1175" cx="0" cy="0" r="1" gradientUnits="userSpaceOnUse" gradientTransform="translate(175.962 88.0054) scale(35.5478 35.5477)">
<stop stop-color="#403B3F"/>
<stop offset="0.7" stop-color="#2F2A2E"/>
<stop offset="0.72" stop-color="#2F2A2E"/>
<stop offset="0.92" stop-color="#282327"/>
<stop offset="1" stop-color="#252024"/>
</radialGradient>
<linearGradient id="paint1_linear_191_1175" x1="190.928" y1="102.668" x2="179.409" y2="112.249" gradientUnits="userSpaceOnUse">
<stop stop-color="#403B3F"/>
<stop offset="0.7" stop-color="#2F2A2E"/>
<stop offset="0.72" stop-color="#2F2A2E"/>
<stop offset="0.92" stop-color="#282327"/>
<stop offset="1" stop-color="#252024"/>
</linearGradient>
<linearGradient id="paint2_linear_191_1175" x1="206.576" y1="202.643" x2="205.608" y2="206.194" gradientUnits="userSpaceOnUse">
<stop stop-color="#454044"/>
<stop offset="0.57" stop-color="#342F33"/>
<stop offset="1" stop-color="#252024"/>
</linearGradient>
<linearGradient id="paint3_linear_191_1175" x1="206.358" y1="203.43" x2="205.621" y2="206.133" gradientUnits="userSpaceOnUse">
<stop stop-color="#454044"/>
<stop offset="0.57" stop-color="#342F33"/>
<stop offset="1" stop-color="#252024"/>
</linearGradient>
<radialGradient id="paint4_radial_191_1175" cx="0" cy="0" r="1" gradientUnits="userSpaceOnUse" gradientTransform="translate(136.775 167.669) scale(39.1844 39.1844)">
<stop stop-color="#E6A862"/>
<stop offset="0.6" stop-color="#D17D36"/>
<stop offset="1" stop-color="#BE6920"/>
</radialGradient>
<linearGradient id="paint5_linear_191_1175" x1="139.436" y1="166.376" x2="174.477" y2="176.388" gradientUnits="userSpaceOnUse">
<stop stop-color="#E6A862"/>
<stop offset="0.6" stop-color="#D17D36"/>
<stop offset="1" stop-color="#BE6920"/>
</linearGradient>
<linearGradient id="paint6_linear_191_1175" x1="129.316" y1="201.859" x2="129.747" y2="209.232" gradientUnits="userSpaceOnUse">
<stop stop-color="#454044"/>
<stop offset="0.57" stop-color="#342F33"/>
<stop offset="1" stop-color="#252024"/>
</linearGradient>
<linearGradient id="paint7_linear_191_1175" x1="129.459" y1="203.428" x2="129.774" y2="208.84" gradientUnits="userSpaceOnUse">
<stop stop-color="#454044"/>
<stop offset="0.57" stop-color="#342F33"/>
<stop offset="1" stop-color="#252024"/>
</linearGradient>
<linearGradient id="paint8_linear_191_1175" x1="141.279" y1="200.875" x2="139.585" y2="204.063" gradientUnits="userSpaceOnUse">
<stop stop-color="#454044"/>
<stop offset="0.57" stop-color="#342F33"/>
<stop offset="1" stop-color="#252024"/>
</linearGradient>
<linearGradient id="paint9_linear_191_1175" x1="141.591" y1="201.451" x2="139.169" y2="204.115" gradientUnits="userSpaceOnUse">
<stop stop-color="#454044"/>
<stop offset="0.57" stop-color="#342F33"/>
<stop offset="1" stop-color="#252024"/>
</linearGradient>
<radialGradient id="paint10_radial_191_1175" cx="0" cy="0" r="1" gradientUnits="userSpaceOnUse" gradientTransform="translate(52.6419 164.709) scale(37.4337 37.4337)">
<stop stop-color="#E6A862"/>
<stop offset="0.6" stop-color="#D17D36"/>
<stop offset="1" stop-color="#BE6920"/>
</radialGradient>
<linearGradient id="paint11_linear_191_1175" x1="54.4932" y1="166.455" x2="80.8699" y2="168.608" gradientUnits="userSpaceOnUse">
<stop stop-color="#E6A862"/>
<stop offset="0.6" stop-color="#D17D36"/>
<stop offset="1" stop-color="#BE6920"/>
</linearGradient>
<linearGradient id="paint12_linear_191_1175" x1="74.1104" y1="192.85" x2="73.2486" y2="202.916" gradientUnits="userSpaceOnUse">
<stop stop-color="#454044"/>
<stop offset="0.57" stop-color="#342F33"/>
<stop offset="1" stop-color="#252024"/>
</linearGradient>
<linearGradient id="paint13_linear_191_1175" x1="73.892" y1="198.848" x2="72.7074" y2="204.015" gradientUnits="userSpaceOnUse">
<stop stop-color="#454044"/>
<stop offset="0.57" stop-color="#342F33"/>
<stop offset="1" stop-color="#252024"/>
</linearGradient>
<linearGradient id="paint14_linear_191_1175" x1="67.4032" y1="185.238" x2="68.3191" y2="190.137" gradientUnits="userSpaceOnUse">
<stop stop-color="#454044"/>
<stop offset="0.57" stop-color="#342F33"/>
<stop offset="1" stop-color="#252024"/>
</linearGradient>
<linearGradient id="paint15_linear_191_1175" x1="67.6426" y1="186.564" x2="68.2919" y2="190.035" gradientUnits="userSpaceOnUse">
<stop stop-color="#454044"/>
<stop offset="0.57" stop-color="#342F33"/>
<stop offset="1" stop-color="#252024"/>
</linearGradient>
<radialGradient id="paint16_radial_191_1175" cx="0" cy="0" r="1" gradientUnits="userSpaceOnUse" gradientTransform="translate(37.3008 47.3121) scale(18.7227)">
<stop stop-color="#E6A862"/>
<stop offset="0.6" stop-color="#D17D36"/>
<stop offset="1" stop-color="#BE6920"/>
</radialGradient>
<linearGradient id="paint17_linear_191_1175" x1="40.474" y1="51.9051" x2="46.3426" y2="55.3505" gradientUnits="userSpaceOnUse">
<stop stop-color="#E6A862"/>
<stop offset="0.6" stop-color="#D17D36"/>
<stop offset="1" stop-color="#BE6920"/>
</linearGradient>
<radialGradient id="paint18_radial_191_1175" cx="0" cy="0" r="1" gradientUnits="userSpaceOnUse" gradientTransform="translate(63.3318 44.4364) scale(157.449)">
<stop stop-color="#E6A862"/>
<stop offset="0.6" stop-color="#D17D36"/>
<stop offset="1" stop-color="#BE6920"/>
</radialGradient>
<linearGradient id="paint19_linear_191_1175" x1="171.847" y1="157.273" x2="206.726" y2="148.23" gradientUnits="userSpaceOnUse">
<stop stop-color="#E6A862"/>
<stop offset="0.6" stop-color="#D17D36"/>
<stop offset="1" stop-color="#BE6920"/>
</linearGradient>
<radialGradient id="paint20_radial_191_1175" cx="0" cy="0" r="1" gradientUnits="userSpaceOnUse" gradientTransform="translate(63.3316 44.4369) scale(157.449 157.449)">
<stop stop-color="#FDF4ED"/>
<stop offset="0.23" stop-color="#FAEFE6"/>
<stop offset="0.55" stop-color="#F3E4D5"/>
<stop offset="0.57" stop-color="#F3E3D4"/>
<stop offset="1" stop-color="#DBC9B4"/>
</radialGradient>
<linearGradient id="paint21_linear_191_1175" x1="165.001" y1="130.865" x2="199.88" y2="121.824" gradientUnits="userSpaceOnUse">
<stop stop-color="#F3E3D4"/>
<stop offset="1" stop-color="#DBC9B4"/>
</linearGradient>
<radialGradient id="paint22_radial_191_1175" cx="0" cy="0" r="1" gradientUnits="userSpaceOnUse" gradientTransform="translate(63.3316 44.4365) scale(157.447 157.447)">
<stop stop-color="#C77138"/>
<stop offset="0.48" stop-color="#B2642E"/>
<stop offset="1" stop-color="#975523"/>
</radialGradient>
<radialGradient id="paint23_radial_191_1175" cx="0" cy="0" r="1" gradientUnits="userSpaceOnUse" gradientTransform="translate(63.3316 44.4368) scale(157.447 157.447)">
<stop stop-color="#FDF4ED"/>
<stop offset="0.23" stop-color="#FAEFE6"/>
<stop offset="0.55" stop-color="#F3E4D5"/>
<stop offset="0.57" stop-color="#F3E3D4"/>
<stop offset="1" stop-color="#DBC9B4"/>
</radialGradient>
<linearGradient id="paint24_linear_191_1175" x1="74.692" y1="123.596" x2="78.5683" y2="147.172" gradientUnits="userSpaceOnUse">
<stop stop-color="#F3E3D4"/>
<stop offset="1" stop-color="#DBC9B4"/>
</linearGradient>
<radialGradient id="paint25_radial_191_1175" cx="0" cy="0" r="1" gradientUnits="userSpaceOnUse" gradientTransform="translate(63.3317 44.4369) scale(157.449 157.449)">
<stop stop-color="#FDF4ED"/>
<stop offset="0.23" stop-color="#FAEFE6"/>
<stop offset="0.55" stop-color="#F3E4D5"/>
<stop offset="0.57" stop-color="#F3E3D4"/>
<stop offset="1" stop-color="#DBC9B4"/>
</radialGradient>
<linearGradient id="paint26_linear_191_1175" x1="123.931" y1="115.503" x2="127.805" y2="139.078" gradientUnits="userSpaceOnUse">
<stop stop-color="#F3E3D4"/>
<stop offset="1" stop-color="#DBC9B4"/>
</linearGradient>
<radialGradient id="paint27_radial_191_1175" cx="0" cy="0" r="1" gradientUnits="userSpaceOnUse" gradientTransform="translate(63.3317 44.4368) scale(157.449 157.449)">
<stop stop-color="#FDF4ED"/>
<stop offset="0.23" stop-color="#FAEFE6"/>
<stop offset="0.55" stop-color="#F3E4D5"/>
<stop offset="0.57" stop-color="#F3E3D4"/>
<stop offset="1" stop-color="#DBC9B4"/>
</radialGradient>
<linearGradient id="paint28_linear_191_1175" x1="18.9182" y1="83.4297" x2="20.209" y2="99.5784" gradientUnits="userSpaceOnUse">
<stop stop-color="#F3E3D4"/>
<stop offset="1" stop-color="#DBC9B4"/>
</linearGradient>
<radialGradient id="paint29_radial_191_1175" cx="0" cy="0" r="1" gradientUnits="userSpaceOnUse" gradientTransform="translate(63.3316 44.4385) scale(157.445 157.445)">
<stop stop-color="#E6A862"/>
<stop offset="0.6" stop-color="#D17D36"/>
<stop offset="1" stop-color="#BE6920"/>
</radialGradient>
<linearGradient id="paint30_linear_191_1175" x1="3.56361" y1="88.2435" x2="2.48729" y2="93.6271" gradientUnits="userSpaceOnUse">
<stop stop-color="#E6A862"/>
<stop offset="0.6" stop-color="#D17D36"/>
<stop offset="1" stop-color="#BE6920"/>
</linearGradient>
<radialGradient id="paint31_radial_191_1175" cx="0" cy="0" r="1" gradientUnits="userSpaceOnUse" gradientTransform="translate(63.3318 44.4365) scale(157.447 157.447)">
<stop stop-color="#E6A862"/>
<stop offset="0.6" stop-color="#D17D36"/>
<stop offset="1" stop-color="#BE6920"/>
</radialGradient>
<linearGradient id="paint32_linear_191_1175" x1="49.5153" y1="56.3594" x2="59.635" y2="61.9575" gradientUnits="userSpaceOnUse">
<stop stop-color="#E6A862"/>
<stop offset="0.6" stop-color="#D17D36"/>
<stop offset="1" stop-color="#BE6920"/>
</linearGradient>
<radialGradient id="paint33_radial_191_1175" cx="0" cy="0" r="1" gradientUnits="userSpaceOnUse" gradientTransform="translate(63.3317 44.4367) scale(157.447 157.447)">
<stop stop-color="#403B3F"/>
<stop offset="0.7" stop-color="#2F2A2E"/>
<stop offset="0.72" stop-color="#2F2A2E"/>
<stop offset="0.92" stop-color="#282327"/>
<stop offset="1" stop-color="#252024"/>
</radialGradient>
<linearGradient id="paint34_linear_191_1175" x1="15.2217" y1="67.1883" x2="24.5879" y2="80.5371" gradientUnits="userSpaceOnUse">
<stop offset="0.01" stop-color="#E6B881"/>
<stop offset="0.07" stop-color="#D1A775"/>
<stop offset="0.26" stop-color="#927552"/>
<stop offset="0.45" stop-color="#5E4B34"/>
<stop offset="0.62" stop-color="#352A1D"/>
<stop offset="0.77" stop-color="#18130D"/>
<stop offset="0.9" stop-color="#060503"/>
<stop offset="1"/>
</linearGradient>
<linearGradient id="paint35_linear_191_1175" x1="25.929" y1="72.2741" x2="27.3029" y2="78.9485" gradientUnits="userSpaceOnUse">
<stop stop-color="#0F0A0A"/>
<stop offset="0.42" stop-color="#350900"/>
<stop offset="0.97" stop-color="#8F4400"/>
</linearGradient>
<radialGradient id="paint36_radial_191_1175" cx="0" cy="0" r="1" gradientUnits="userSpaceOnUse" gradientTransform="translate(63.3317 44.4364) scale(157.447 157.447)">
<stop stop-color="#E6A862"/>
<stop offset="0.6" stop-color="#D17D36"/>
<stop offset="1" stop-color="#BE6920"/>
</radialGradient>
<linearGradient id="paint37_linear_191_1175" x1="85.3491" y1="170.342" x2="100.528" y2="169.211" gradientUnits="userSpaceOnUse">
<stop stop-color="#E6A862"/>
<stop offset="0.6" stop-color="#D17D36"/>
<stop offset="1" stop-color="#BE6920"/>
</linearGradient>
<radialGradient id="paint38_radial_191_1175" cx="0" cy="0" r="1" gradientUnits="userSpaceOnUse" gradientTransform="translate(63.3317 44.4367) scale(157.449 157.449)">
<stop stop-color="#FDF4ED"/>
<stop offset="0.23" stop-color="#FAEFE6"/>
<stop offset="0.55" stop-color="#F3E4D5"/>
<stop offset="0.57" stop-color="#F3E3D4"/>
<stop offset="1" stop-color="#DBC9B4"/>
</radialGradient>
<linearGradient id="paint39_linear_191_1175" x1="83.7606" y1="149.035" x2="98.9413" y2="147.905" gradientUnits="userSpaceOnUse">
<stop stop-color="#F3E3D4"/>
<stop offset="1" stop-color="#DBC9B4"/>
</linearGradient>
<linearGradient id="paint40_linear_191_1175" x1="87.5075" y1="206.562" x2="88.9606" y2="212.483" gradientUnits="userSpaceOnUse">
<stop stop-color="#454044"/>
<stop offset="0.57" stop-color="#342F33"/>
<stop offset="1" stop-color="#252024"/>
</linearGradient>
<linearGradient id="paint41_linear_191_1175" x1="87.7626" y1="207.428" x2="89.0031" y2="212.483" gradientUnits="userSpaceOnUse">
<stop stop-color="#454044"/>
<stop offset="0.57" stop-color="#342F33"/>
<stop offset="1" stop-color="#252024"/>
</linearGradient>
<linearGradient id="paint42_linear_191_1175" x1="100.399" y1="199.966" x2="98.501" y2="205.052" gradientUnits="userSpaceOnUse">
<stop stop-color="#454044"/>
<stop offset="0.57" stop-color="#342F33"/>
<stop offset="1" stop-color="#252024"/>
</linearGradient>
<linearGradient id="paint43_linear_191_1175" x1="100.192" y1="200.13" x2="98.3812" y2="204.986" gradientUnits="userSpaceOnUse">
<stop stop-color="#454044"/>
<stop offset="0.57" stop-color="#342F33"/>
<stop offset="1" stop-color="#252024"/>
</linearGradient>
<linearGradient id="paint44_linear_191_1175" x1="193.608" y1="208.388" x2="195.492" y2="215.547" gradientUnits="userSpaceOnUse">
<stop stop-color="#454044"/>
<stop offset="0.57" stop-color="#342F33"/>
<stop offset="1" stop-color="#252024"/>
</linearGradient>
<linearGradient id="paint45_linear_191_1175" x1="194.358" y1="211.238" x2="195.5" y2="215.582" gradientUnits="userSpaceOnUse">
<stop stop-color="#454044"/>
<stop offset="0.57" stop-color="#342F33"/>
<stop offset="1" stop-color="#252024"/>
</linearGradient>
<radialGradient id="paint46_radial_191_1175" cx="0" cy="0" r="1" gradientUnits="userSpaceOnUse" gradientTransform="translate(63.3318 44.4367) scale(157.449 157.449)">
<stop stop-color="#403B3F"/>
<stop offset="0.7" stop-color="#2F2A2E"/>
<stop offset="0.72" stop-color="#2F2A2E"/>
<stop offset="0.92" stop-color="#282327"/>
<stop offset="1" stop-color="#252024"/>
</radialGradient>
<radialGradient id="paint47_radial_191_1175" cx="0" cy="0" r="1" gradientUnits="userSpaceOnUse" gradientTransform="translate(25.3531 25.8879) scale(32.57 32.57)">
<stop stop-color="#74614D"/>
<stop offset="0.61" stop-color="#513E34"/>
<stop offset="1" stop-color="#46311F"/>
</radialGradient>
<linearGradient id="paint48_linear_191_1175" x1="33.7608" y1="29.1148" x2="44.3366" y2="33.6366" gradientUnits="userSpaceOnUse">
<stop stop-color="#6B5748"/>
<stop offset="0.61" stop-color="#513E34"/>
<stop offset="1" stop-color="#46311F"/>
</linearGradient>
<radialGradient id="paint49_radial_191_1175" cx="0" cy="0" r="1" gradientUnits="userSpaceOnUse" gradientTransform="translate(26.4835 20.3443) scale(38.6357 38.6357)">
<stop stop-color="#74614D"/>
<stop offset="0.61" stop-color="#513E34"/>
<stop offset="1" stop-color="#46311F"/>
</radialGradient>
<linearGradient id="paint50_linear_191_1175" x1="40.9531" y1="28.7269" x2="63.2371" y2="39.6273" gradientUnits="userSpaceOnUse">
<stop stop-color="#6B5748"/>
<stop offset="0.61" stop-color="#513E34"/>
<stop offset="1" stop-color="#46311F"/>
</linearGradient>
<linearGradient id="paint51_linear_191_1175" x1="149.171" y1="127.592" x2="175.356" y2="125.445" gradientUnits="userSpaceOnUse">
<stop offset="0.01" stop-color="#E6B881"/>
<stop offset="0.07" stop-color="#D1A775"/>
<stop offset="0.26" stop-color="#927552"/>
<stop offset="0.45" stop-color="#5E4B34"/>
<stop offset="0.62" stop-color="#352A1D"/>
<stop offset="0.77" stop-color="#18130D"/>
<stop offset="0.9" stop-color="#060503"/>
<stop offset="1"/>
</linearGradient>
<linearGradient id="paint52_linear_191_1175" x1="158.503" y1="81.3697" x2="155.488" y2="99.0238" gradientUnits="userSpaceOnUse">
<stop offset="0.01" stop-color="#E6B881"/>
<stop offset="0.07" stop-color="#D1A775"/>
<stop offset="0.26" stop-color="#927552"/>
<stop offset="0.45" stop-color="#5E4B34"/>
<stop offset="0.62" stop-color="#352A1D"/>
<stop offset="0.77" stop-color="#18130D"/>
<stop offset="0.9" stop-color="#060503"/>
<stop offset="1"/>
</linearGradient>
<linearGradient id="paint53_linear_191_1175" x1="91.8921" y1="87.4241" x2="92.2863" y2="99.9516" gradientUnits="userSpaceOnUse">
<stop offset="0.01" stop-color="#E6B881"/>
<stop offset="0.07" stop-color="#D1A775"/>
<stop offset="0.26" stop-color="#927552"/>
<stop offset="0.45" stop-color="#5E4B34"/>
<stop offset="0.62" stop-color="#352A1D"/>
<stop offset="0.77" stop-color="#18130D"/>
<stop offset="0.9" stop-color="#060503"/>
<stop offset="1"/>
</linearGradient>
</defs>
</svg>
