<svg width="176" height="153" viewBox="0 0 176 153" fill="none" xmlns="http://www.w3.org/2000/svg">
<path d="M113.709 108.553C113.709 108.553 111.09 114.826 112.399 116.19C113.709 117.551 118.829 130.225 118.829 130.225C118.829 130.225 119.093 130.669 115.626 131.182C112.353 131.67 110.092 134.058 110.092 135.962C110.092 137.867 111.09 138.549 112.142 137.458C113.187 136.367 112.665 133.637 116.072 133.637C119.479 133.637 119.925 132.544 121.936 133.91C123.945 135.271 128.357 135.757 129.67 138.112C130.979 140.47 131.025 141.189 130.241 143.001C129.448 144.82 131.811 145.553 132.601 143.001C133.387 140.454 133.792 138.493 131.432 136.041C129.074 133.588 128.662 133.362 128.662 133.362C128.662 133.362 133.909 134.455 136.011 137.456C138.112 140.454 135.481 142.832 137.585 143.001C138.803 143.103 139.949 139.742 139.161 137.456C137.959 133.968 133.124 131.998 133.124 131.998C133.124 131.998 136.884 132.585 138.576 134.042C139.878 135.165 139.133 136.408 141.138 136.27C142.263 136.194 142.64 134.12 139.57 131.663C136.766 129.421 127.137 129.435 127.137 129.435C127.137 129.435 124.465 129.109 123.154 126.603C121.839 124.095 118.171 116.733 117.648 115.374C117.123 114.008 120.533 105.555 120.533 105.555L113.707 108.555L113.709 108.553Z" fill="#B58359"/>
<path d="M110.101 136.284C110.101 136.284 109.495 137.883 110.101 139.037C110.707 140.188 111.548 140.572 111.548 140.572C111.548 140.572 110.51 139.538 110.688 138.729C110.868 137.923 111.548 136.661 111.548 136.661C111.548 136.661 111.389 136.196 111.09 135.972C110.85 135.796 110.515 135.778 110.101 136.286V136.284Z" fill="#C6A991"/>
<path d="M130.666 143.202C130.666 143.202 130.278 143.821 129.053 144.649C127.83 145.481 126.98 145.481 126.98 145.481C126.98 145.481 128.362 145.71 129.36 145.481C130.357 145.252 132.046 144.075 132.046 144.075C132.046 144.075 131.917 143.521 131.526 143.167C131.244 142.915 131.256 142.964 130.666 143.199V143.202Z" fill="#C6A991"/>
<path d="M136.725 142.372C136.725 142.372 136.577 143.831 135.883 144.235L135.195 144.638C135.195 144.638 136.498 144.829 137.035 144.235C137.573 143.639 138.576 142.372 138.576 142.372C138.576 142.372 138.156 141.954 137.707 141.799C137.326 141.667 136.921 141.725 136.725 142.372Z" fill="#C6A991"/>
<path d="M142.014 135.858C142.014 135.858 141.799 137.696 141.336 138.211C140.879 138.727 140.261 138.956 140.261 138.956C140.261 138.956 140.865 137.908 140.8 137.405C140.733 136.91 140.261 135.856 140.261 135.856C140.261 135.856 140.278 135.118 141.137 135.038C141.995 134.959 142.014 135.856 142.014 135.856V135.858Z" fill="#C6A991"/>
<path d="M125.304 95.9624C124.506 96.3161 123.482 96.0734 122.625 96.2282C121.037 96.5172 119.534 97.1528 118.062 97.8116C116.686 98.4288 115.057 99.2956 114.095 100.391L113.76 100.842C113.822 101.841 110.859 111.835 112.958 112.182C112.993 111.787 113.171 111.454 113.483 111.211C114.322 112.841 114.081 111.588 115.459 110.772C116.171 110.351 115.611 110.372 116.002 110.959C116.182 111.225 116.201 111.625 116.24 111.949C117.114 112.166 117.257 111.334 117.784 111.084C117.775 111.382 117.944 111.662 117.932 111.963C118.861 111.336 119.213 109.385 119.853 108.401C120.516 107.381 121.356 106.45 121.811 105.315C122.273 104.173 122.523 103.197 123.253 102.155C124.569 100.283 125.542 98.2855 125.304 95.9647V95.9624Z" fill="#EFB614"/>
<path d="M94.0314 115.182C94.0314 115.182 91.4033 121.453 92.7185 122.815C94.0314 124.179 99.149 136.852 99.149 136.852C99.149 136.852 99.4079 137.301 95.9453 137.812C92.6676 138.299 90.4139 140.68 90.4139 142.59C90.4139 144.499 91.4102 145.176 92.4573 144.081C93.5067 142.994 92.9797 140.267 96.3938 140.267C99.8078 140.267 100.242 139.176 102.253 140.539C104.262 141.901 108.675 142.382 109.99 144.744C111.298 147.106 111.347 147.82 110.561 149.633C109.77 151.445 112.133 152.185 112.921 149.633C113.705 147.085 114.111 145.123 111.749 142.673C109.389 140.216 108.987 139.998 108.987 139.998C108.987 139.998 114.232 141.085 116.33 144.081C118.427 147.085 115.801 149.459 117.904 149.633C119.12 149.73 120.265 146.374 119.479 144.081C118.277 140.595 113.443 138.635 113.443 138.635C113.443 138.635 117.204 139.212 118.896 140.673C120.198 141.799 119.453 143.036 121.455 142.899C122.581 142.825 122.96 140.75 119.892 138.295C117.089 136.046 107.45 136.069 107.45 136.069C107.45 136.069 104.787 135.743 103.474 133.233C102.161 130.727 98.4926 123.363 97.9656 122.003C97.4385 120.637 100.85 112.187 100.85 112.187L94.0291 115.185L94.0314 115.182Z" fill="#C68E5C"/>
<path d="M90.4184 142.909C90.4184 142.909 89.8174 144.508 90.4184 145.664C91.0263 146.817 91.8677 147.199 91.8677 147.199C91.8677 147.199 90.8298 146.166 91.0101 145.359C91.1904 144.55 91.8677 143.283 91.8677 143.283C91.8677 143.283 91.7082 142.818 91.4077 142.599C91.165 142.421 90.8368 142.405 90.4184 142.911V142.909Z" fill="#C6A991"/>
<path d="M110.984 149.834C110.984 149.834 110.6 150.447 109.373 151.279C108.141 152.111 107.302 152.111 107.302 152.111C107.302 152.111 108.677 152.34 109.678 152.111C110.674 151.877 112.361 150.701 112.361 150.701C112.361 150.701 112.232 150.151 111.844 149.797C111.559 149.545 111.576 149.598 110.984 149.832V149.834Z" fill="#C6A991"/>
<path d="M117.042 149.007C117.042 149.007 116.894 150.461 116.206 150.867L115.512 151.267C115.512 151.267 116.823 151.459 117.357 150.867C117.893 150.271 118.896 149.007 118.896 149.007C118.896 149.007 118.478 148.581 118.027 148.429C117.648 148.297 117.246 148.352 117.042 149.007Z" fill="#C6A991"/>
<path d="M122.333 142.486C122.333 142.486 122.116 144.323 121.656 144.841C121.194 145.356 120.579 145.583 120.579 145.583C120.579 145.583 121.178 144.529 121.12 144.032C121.053 143.537 120.579 142.483 120.579 142.483C120.579 142.483 120.597 141.748 121.455 141.667C122.315 141.591 122.333 142.483 122.333 142.483V142.486Z" fill="#C6A991"/>
<path d="M165.688 9.50813C165.688 9.50813 162.419 1.34162 151.641 0.689783C140.867 0.0356306 131.48 4.28416 124.906 14.0803C118.33 23.8787 117.678 25.5129 114.081 28.1249C110.492 30.7392 92.8527 43.1473 86.9792 50.3337C81.0941 57.5178 63.4621 74.5073 58.8876 78.4229C54.3178 82.3409 42.0785 90.3341 43.5393 92.4676C46.6922 97.0697 52.0318 92.4676 52.0318 92.4676C52.0318 92.4676 19.3681 121.206 12.1816 126.763C4.99753 132.313 0.751321 139.171 4.02208 140.475C4.02208 140.475 -1.01466 149.353 2.90101 148.371C6.8213 147.393 52.6836 112.06 59.5418 110.754C66.4023 109.45 74.5665 109.122 75.5466 109.45C76.5243 109.776 74.5665 112.06 74.5665 112.06L80.4423 111.08L86.9792 110.754L91.868 110.437C91.868 110.437 92.4505 116.454 93.1047 117.755C93.3173 118.181 93.7311 118.081 94.1957 117.76C94.7551 117.372 94.8683 118.507 95.3052 117.963C95.6288 117.566 97.3278 116.394 97.3278 116.394L98.4488 116.17L98.814 117.785C98.814 117.785 103.731 108.109 106.349 106.478C108.959 104.846 117.766 102.592 124.908 98.667C132.046 94.749 154.907 80.709 158.169 68.294C161.437 55.8859 159.146 50.3314 159.8 41.1894C160.457 32.0452 163.61 23.3262 163.61 23.3262C163.61 23.3262 167.396 12.2611 165.688 9.51044V9.50813Z" fill="#FFD815"/>
<path d="M49.2765 100.68C49.2765 100.68 58.0163 94.9221 63.3651 91.3786C70.4475 86.6817 85.5138 77.9997 85.5138 77.9997C85.5138 77.9997 83.9859 83.9911 86.6626 83.5611C93.6595 82.4308 100.703 78.4666 100.703 78.4666L129.661 59.6279C129.661 59.6279 115.605 75.279 98.2871 83.8755C86.3575 89.8021 60.3139 101.145 49.6348 104.073C44.8061 105.395 49.2742 100.68 49.2742 100.68H49.2765Z" fill="#F9E555"/>
<path d="M161.107 16.8793C160.614 19.4543 158.365 20.0784 157.302 22.0616C156.174 24.1512 155.973 27.1816 155.314 29.2504C156.939 27.9652 156.606 33.3117 156.449 36.5732C156.664 35.3273 158.268 33.6676 158.268 33.6676C158.268 33.6676 158.566 39.7052 158.504 42.7518C158.603 41.6192 158.874 40.5466 159.139 39.3724C159.234 40.0289 159.528 40.9581 159.535 41.8526C159.484 36.5709 162.11 25.2815 166.141 21.9391C164.111 20.6632 162.553 18.6291 161.107 16.877V16.8793Z" fill="#FCC017"/>
<path d="M156.289 13.1021C156.516 13.0535 156.738 12.8293 156.953 12.7762C156.604 12.582 156.229 12.4133 155.838 12.2699C155.991 12.2399 156.063 12.1983 156.197 12.159C155.647 11.8608 155.092 11.5349 154.632 11.0888C154.824 11.135 155.041 11.0749 155.237 11.098C154.713 10.7605 154.123 10.0694 153.758 9.67183L153.998 9.54932C152.239 8.98531 148.899 9.25576 147.182 9.75736C146.179 10.0509 145.453 10.8807 144.542 11.3592C143.444 11.9278 141.117 12.3578 140.384 13.1691C140.52 13.1899 140.689 13.2154 140.837 13.2431C140.559 13.7285 139.563 14.2717 138.997 14.6531C140.331 14.6739 141.429 14.0544 142.732 14.2185C142.677 14.3711 142.686 14.6184 142.642 14.7479C143.9 14.8264 144.558 14.8588 145.642 15.5037C147.002 16.3197 147.885 16.8814 149.51 16.7797C151.699 16.6456 157.431 14.0868 158.226 14.1816C157.526 13.9781 156.657 13.784 156.289 13.1044V13.1021Z" fill="#FCC017"/>
<path d="M151.861 12.9246C151.861 14.2051 150.67 15.2383 149.195 15.2383C147.721 15.2383 146.533 14.2028 146.533 12.9246C146.533 11.6463 147.723 10.6177 149.195 10.6177C150.668 10.6177 151.861 11.6509 151.861 12.9246Z" fill="#070600"/>
<path d="M149.195 12.0646C149.195 12.5384 148.8 12.9244 148.317 12.9244C147.834 12.9244 147.441 12.5384 147.441 12.0646C147.441 11.5907 147.831 11.1978 148.317 11.1978C148.802 11.1978 149.195 11.5861 149.195 12.0646Z" fill="#FFFFFD"/>
<path d="M171.289 12.2751C168.563 10.4998 165.129 9.5498 165.129 9.5498C163.016 9.98899 162.144 12.1456 161.793 14.1058C161.601 15.1667 161.13 18.1416 160.864 19.5031C160.864 19.5031 160.864 21.8724 162.052 22.6976C163.231 23.5274 163.587 23.4095 165.723 23.0559C167.856 22.6976 170.93 22.6745 172.83 21.6828C174.724 20.6889 175.082 19.3852 173.78 19.5031C172.477 19.621 167.156 17.5522 165.374 17.5291C166.384 17.5476 167.465 17.5707 168.448 17.61C171.409 17.7279 175.556 19.0316 175.674 18.5577C175.791 18.0862 174.014 14.0549 171.291 12.2751H171.289Z" fill="#B79C8A"/>
<path d="M168.325 14.6465C168.325 15.0418 167.875 15.3584 167.318 15.3584C166.76 15.3584 166.31 15.0418 166.31 14.6465C166.31 14.2512 166.763 13.9346 167.318 13.9346C167.872 13.9346 168.325 14.2559 168.325 14.6465Z" fill="#C1A795"/>
<path d="M157.699 1.83147C153.957 -0.200335 147.448 -0.572479 143.271 0.869892C142.263 1.21893 141.528 1.41309 140.49 1.61881C139.089 1.89157 138.054 2.85778 136.81 3.49113C133.854 5.00978 131.334 7.19413 129.642 10.1159C130.713 8.74514 134.071 7.88296 135.451 7.53161C135.248 7.7905 135.162 8.1326 134.97 8.38687C136.057 7.95693 137.122 7.46458 138.218 7.08087C138.717 7.80437 140.502 5.76795 141.429 5.657C141.336 5.84885 141.327 6.19095 141.188 6.40592C142.127 5.95055 143.255 5.85577 144.152 5.35649C144.163 5.75869 144.17 6.17939 144.182 6.58159C145.319 6.78963 146.017 5.73789 146.986 5.31951C147.924 4.91269 148.652 5.02595 149.651 4.90806C151.32 4.70927 152.616 4.1707 154.338 4.23542C154.345 4.38105 154.373 4.54054 154.368 4.68385C155.721 4.79712 157.235 4.03201 158.728 4.3926C159.939 4.68385 161.319 4.63993 162.47 5.11147C161.298 3.90256 159.135 2.61045 157.702 1.82685L157.699 1.83147Z" fill="#F9E555"/>
<path d="M48.0376 102.012C48.0376 102.012 47.3626 104.654 50.1665 103.694C56.9322 101.381 72.7104 92.3079 80.1142 90.3339C90.5829 87.5417 100.397 83.448 106.283 79.5185C112.667 75.2584 129.661 59.6304 129.661 59.6304C129.661 59.6304 118.496 73.5872 104.655 82.6598C100.363 85.4728 86.7412 89.9849 79.4115 93.1262C72.084 96.2698 42.0762 108.13 42.0762 108.13L48.0353 102.014L48.0376 102.012Z" fill="#EFB614"/>
<path d="M52.5449 108.128C52.5449 108.128 3.69617 147.562 2.29541 147.211C0.901576 146.864 2.29541 144.421 2.29541 144.421C2.29541 144.421 -2.42929 148.614 1.67823 150.352C5.78807 152.099 52.5449 108.13 52.5449 108.13V108.128Z" fill="#EFB614"/>
<path d="M118.896 30.4871C118.896 30.4871 129.897 28.3952 132.046 39.3886C134.203 50.3821 132.086 58.2296 120.579 64.5145C109.075 70.7949 102.794 75.6791 104.362 71.4051C105.936 67.1335 107.302 65.0369 107.302 65.0369C107.302 65.0369 100.178 68.176 101.223 63.9852C102.272 59.8014 103.842 59.628 103.842 59.628C103.842 59.628 92.3072 67.6512 91.0081 64.5145C89.7091 61.3732 95.9894 51.6742 95.9894 51.6742C95.9894 51.6742 92.5961 57.3096 91.8657 51.6742C91.1353 46.0388 104.105 34.6755 118.894 30.4871H118.896Z" fill="#F9E555"/>
<path d="M165.371 17.5264H163.457C163.457 17.5264 166.568 19.3686 168.267 19.5166C169.969 19.6691 173.778 19.5004 173.778 19.5004C173.778 19.5004 167.438 18.2568 165.371 17.5264Z" fill="#C1A795"/>
<path d="M52.0342 92.4651L76.2772 71.4028C76.2772 71.4028 50.7282 93.251 47.3257 91.4689C43.9371 89.6798 47.8389 87.0169 47.8389 87.0169C47.8389 87.0169 42.0786 90.5605 42.0786 94.6264C42.0786 98.0081 52.0319 92.4651 52.0319 92.4651H52.0342Z" fill="#F9E555"/>
<path d="M85.8719 69.5905L52.5448 97.5873L96.5718 63.9204L85.8719 69.5905Z" fill="#EFB614"/>
<path d="M107.302 65.0347L85.5161 78.0021L102.55 66.1442L107.302 65.0347Z" fill="#EFB614"/>
</svg>
