<svg width="173" height="190" viewBox="0 0 173 190" fill="none" xmlns="http://www.w3.org/2000/svg">
<path d="M172.682 45.0709C172.26 42.8946 170.644 41.2619 168.854 40.0796C164.899 37.472 159.474 36.969 154.922 37.9535C147.737 39.5052 142.248 44.5393 138.399 50.5865C136.635 53.3586 135.126 56.6956 134.461 59.9254C133.512 64.5234 133.891 69.2953 134.921 73.8456C136.377 80.2837 139.85 85.9518 143.406 91.4269C147.997 98.4943 154.4 105.566 153.358 114.605C153.093 116.91 152.345 119.291 151.108 121.265C149.42 123.953 146.522 126.22 143.385 126.911C142.122 127.19 140.689 127.255 139.423 126.969C135.469 126.08 132.568 123.799 129.672 121.079C129.069 120.512 128.178 119.811 127.718 119.131C127.508 118.819 127.42 118.35 127.308 117.992L126.566 115.697C126.018 114.164 125.382 112.648 124.648 111.194C119.485 100.971 110.024 93.7414 98.9739 90.9574C96.6404 90.371 94.2329 90.0755 91.8613 89.6845C86.7937 88.8455 81.3067 87.8849 76.8279 85.2511C74.6255 83.9544 72.6137 82.2978 70.621 80.7056L67.7011 78.3458C67.2292 77.974 66.4974 77.564 66.1876 77.0634C65.3247 75.6571 64.8313 73.8932 64.4666 72.2962C66.5475 71.3881 68.6355 70.4609 70.6306 69.3763C74.84 67.0881 78.7443 64.2421 82.2578 60.9909C82.9228 60.3759 83.5258 59.718 84.1456 59.0578C84.5031 58.6788 84.9655 58.2736 85.2325 57.8326C83.7117 58.438 82.0218 58.8933 80.3795 58.9005L82.7583 57.6372C85.4351 56.0687 87.7805 54.0022 89.1177 51.1609C87.1775 52.05 85.1228 52.6864 83.0086 51.9213C82.7011 51.8093 82.3913 51.6806 82.1171 51.4994C84.9131 50.2528 87.9808 48.5557 89.1678 45.5452L89.2774 45.2139C86.839 46.0291 84.6628 46.2507 82.2768 45.0589C80.625 44.2342 78.7896 42.4942 78.1198 40.7566C78.9517 39.6005 79.7788 38.4445 80.4653 37.1907C82.1982 34.0253 83.3923 30.4904 84.1932 26.9794C85.4875 21.3064 85.8045 15.5119 84.8749 9.75555C84.4578 7.18127 83.9501 4.61415 83.0181 2.17096C82.7964 1.58937 82.4413 0.624013 81.924 0.25694C81.4688 -0.0648448 80.9301 -0.0028727 80.4033 0.0209632C73.8961 1.73238 68.1874 6.23022 63.301 10.7018C61.0629 12.7517 59.1798 14.9875 57.2396 17.3092C57.2324 17.3187 57.0965 17.4808 57.0965 17.4808C56.9726 17.5046 56.4244 17.2567 56.298 17.2114L53.5975 16.3533C51.5881 15.8146 49.5954 15.5906 47.5288 15.4261C43.8724 15.1353 39.9609 15.4905 36.3736 16.2389C35.2152 16.4797 34.021 17.0017 32.8769 17.1661C27.807 10.4754 21.2688 4.69519 13.4506 1.45589C12.1897 0.93388 10.6999 0.261707 9.3389 0.0781707C9.01235 0.0352661 8.73824 0.0900856 8.48081 0.302225C7.87061 0.805163 7.40104 1.82296 7.08164 2.5428C5.55376 5.98471 4.93164 9.83183 4.75287 13.5717C4.59078 16.9969 4.59795 20.4531 5.06752 23.8569C5.49895 26.9937 6.32128 29.9756 7.29379 32.9789C7.94212 34.9787 8.68819 36.9118 9.58919 38.8092C9.70598 39.0523 10.9597 41.4454 10.9478 41.5813C10.9431 41.6385 10.7333 41.9293 10.6904 41.9936C10.2995 42.5967 9.82039 43.1783 9.29124 43.6645C6.88858 45.8789 3.8471 46.2293 0.722206 46.0815L0 46.0267C1.78293 48.7797 4.04972 50.2671 6.96485 51.6233C4.70997 52.0166 2.59094 52.0357 0.307464 51.9904C1.90685 54.2429 4.09976 56.2761 6.47143 57.6848C7.28662 58.1687 8.1638 58.5191 8.99329 58.9743C7.36291 58.7527 5.83502 58.2521 4.30714 57.6586C8.80259 64.1229 15.2812 68.9068 22.4177 72.0817C21.7693 73.7193 21.3474 75.4068 20.9613 77.123C20.2248 80.4028 19.779 83.7804 19.5526 87.1365C19.2141 92.1659 19.0497 97.3287 19.729 102.334C20.6276 108.944 22.9635 115.16 25.0301 121.467L29.3849 136.31C32.4597 148.09 34.4357 160.306 34.3666 172.502C33.3893 172.512 32.486 172.526 31.5278 172.743C29.1466 173.282 27.5257 174.638 26.2505 176.693C25.5307 177.851 24.8299 179.346 25.1254 180.74C25.328 181.686 26.0074 182.404 26.8154 182.888C27.8999 183.538 29.1442 183.82 30.3717 184.065C33.0962 184.606 35.854 184.666 38.619 184.482C40.1373 184.38 41.6533 184.237 43.1287 183.848C44.2442 183.553 45.0594 183.059 45.9771 182.371C45.6553 183.581 45.5671 184.652 46.2131 185.793C47.1737 187.493 49.1401 188.396 50.9541 188.866C54.3102 189.736 58.4004 189.714 61.7565 188.871C62.8553 188.594 63.9661 188.244 64.9433 187.655C66.3187 186.825 67.377 185.522 67.787 183.96C68.0825 182.84 67.98 181.596 67.7798 180.468C67.6869 179.939 67.52 179.408 67.4938 178.871C67.4294 177.508 67.6821 176.042 67.8585 174.691L73.5386 142.6L80.4844 143.318C81.0111 144.44 81.6714 145.504 82.2864 146.579L84.5269 150.461L88.3693 156.644L90.1522 159.514C90.586 160.236 91.0413 160.911 91.1652 161.757L91.1915 161.91C91.3154 162.73 91.2558 163.616 91.251 164.444C91.2391 166.298 91.1891 168.205 90.9197 170.04C88.7721 169.838 87.0726 170.219 85.4041 171.618C83.6641 173.075 82.2458 175.477 82.0814 177.77C82.0289 178.497 82.1719 179.265 82.6653 179.827C83.7904 181.11 86.2598 181.186 87.864 181.241C90.586 181.331 93.3081 181.315 96.0182 181.033C97.0694 180.924 98.5567 180.833 99.3481 180.073C100.216 179.241 100.804 177.97 101.398 176.929L105.729 168.727L107.283 165.516C107.619 164.789 108.039 164 108.046 163.183C108.06 161.795 106.976 160.279 106.563 158.947C105.669 156.044 105.388 152.907 105.538 149.88C107.51 152.781 109.578 155.41 111.924 158.013L115.611 162.022C116.655 163.125 117.971 164.217 118.696 165.564C120.276 168.5 120.536 172.364 120.343 175.637C117.285 175.644 114.398 176.59 112.212 178.817C110.868 180.185 109.834 181.944 109.876 183.913C109.9 184.926 110.327 185.853 111.083 186.53C112.231 187.557 114.019 187.796 115.495 187.91C117.487 188.063 119.461 188.01 121.451 187.848L122.2 187.779C124.259 187.541 129.043 186.964 130.421 185.326C131.171 184.432 131.541 182.811 131.903 181.696C133.362 177.196 134.666 172.419 135.233 167.719C135.328 166.937 135.498 166.045 135.421 165.261C134.611 164.289 133.853 163.323 133.236 162.215C129.748 155.975 129.837 148.218 129.746 141.261L129.493 132.62C130.797 133.531 132.061 134.394 133.503 135.082C137.416 136.951 142.193 137.607 146.467 136.861C152.14 135.871 157.62 132.21 160.904 127.484C164.742 121.961 165.936 115.175 164.725 108.586C164.158 105.495 163.147 102.501 161.667 99.7242C159.019 94.7544 155.389 90.3925 152.602 85.5133C150.4 81.6566 148.858 77.6522 148.498 73.1972C148.174 69.2071 149.089 65.4386 151.346 62.1112C152.929 59.7776 155.038 57.916 157.529 56.6074C158.762 55.9591 160.087 55.6111 161.398 55.1677C165.161 53.8925 170.053 52.3742 172.05 48.6153C172.644 47.4997 172.922 46.3365 172.679 45.0804L172.682 45.0709ZM54.1838 167.869L53.7119 175.196C52.1506 175.594 50.935 176.14 49.6311 177.091C48.9256 177.692 48.3536 178.337 47.7648 179.045C47.7481 177.613 47.4621 176.226 47.207 174.824C47.0712 174.085 47.2785 173.272 47.3834 172.531L47.7934 169.413L48.9423 159.038C49.6025 151.462 50.0888 143.852 50.0006 136.246L51.4975 136.906L52.4724 142.576C53.6713 150.876 54.365 159.481 54.1838 167.869Z" fill="black"/>
<path d="M26.5246 179.589L27.6139 179.584C27.4828 180.08 27.4924 181.107 27.2659 181.467C27.1468 181.379 27.018 181.291 26.9155 181.181C26.4936 180.728 26.527 180.168 26.5223 179.591L26.5246 179.589Z" fill="#AFAEAE"/>
<path d="M47.188 183.674L48.6062 184.02C48.487 184.78 48.5442 185.588 48.5538 186.358C48.1891 185.905 47.6576 185.388 47.4502 184.845C47.3095 184.482 47.2547 184.058 47.188 183.674Z" fill="#AFAEAE"/>
<path d="M111.342 183.067C111.686 182.967 112.017 182.955 112.346 182.785C113.101 182.397 113.416 181.548 114.162 181.205C113.671 182.075 113.111 182.859 112.908 183.858C112.772 184.53 112.822 185.181 112.882 185.855C112.157 185.486 111.678 185.038 111.237 184.354L111.34 183.067H111.342Z" fill="#5F5E5E"/>
<path d="M84.2813 175.516C84.8629 175.447 85.218 175.33 85.7138 175.022C85.8521 174.936 86.0547 175.003 86.2167 175.022C85.2705 176.574 85.013 177.616 85.0941 179.434C84.6126 179.267 84.0429 179.103 83.7974 178.612C83.4971 178.009 83.6472 177.234 83.8403 176.622C83.9619 176.235 84.0691 175.866 84.2813 175.518V175.516Z" fill="#403E38"/>
<path d="M11.3031 32.8955L12.34 35.1957C12.4019 35.3196 12.7451 35.8845 12.738 35.9918C12.7261 36.2135 12.4925 36.6473 12.4186 36.8761C12.1016 37.8629 11.7798 38.9308 11.6296 39.9605L9.83002 36.0275L9.95159 35.9465C10.1423 35.8083 11.4199 34.8858 11.4413 34.7881C11.4747 34.6284 11.3317 34.1374 11.3031 33.9562C11.2506 33.6153 11.2053 33.3222 11.2816 32.9789L11.3031 32.9003V32.8955Z" fill="#5F5E5E"/>
<path d="M84.2814 175.515C85.0871 174.102 86.2788 172.581 87.7853 171.875C89.4633 171.089 91.2105 171.596 92.8623 172.164L89.8089 172.567L89.7541 172.524C88.1833 172.884 87.2728 173.908 86.2169 175.022C86.0548 175.003 85.8522 174.938 85.7139 175.022C85.2182 175.327 84.8654 175.446 84.2814 175.515Z" fill="url(#paint0_linear_191_2387)"/>
<path d="M28.5935 179.903C29.945 180.08 31.1415 180.187 32.5121 180.106C32.3548 180.985 32.3739 181.727 32.6504 182.578C32.7052 182.749 32.7624 182.854 32.7481 183.035C31.3036 182.864 29.9736 182.642 28.6221 182.089C28.4671 181.312 28.491 180.68 28.5959 179.903H28.5935Z" fill="#AFAEAE"/>
<path d="M49.7647 184.227C50.0579 184.651 50.7968 184.801 51.283 184.894C52.563 185.135 53.8406 185.221 55.1421 185.207C55.042 186.286 55.2088 186.994 55.8333 187.9L55.912 188.012C54.1958 187.976 51.5977 187.886 50.0865 187.059C49.5573 186.375 49.6765 185.049 49.7647 184.229V184.227Z" fill="#AFAEAE"/>
<path d="M114.513 182.221C116.11 183.186 118.05 183.498 119.902 183.51C119.416 184.509 119.068 185.408 118.929 186.521C117.895 186.566 116.856 186.559 115.821 186.487C115.399 186.459 114.892 186.447 114.496 186.306C114.193 186.199 114.007 185.944 113.902 185.648C113.545 184.654 114.067 183.129 114.513 182.218V182.221Z" fill="#5F5E5E"/>
<path d="M111.342 183.067L111.7 181.958C112.577 179.999 114.618 178.369 116.613 177.677C119.44 176.695 122.364 177.279 124.981 178.528C124.614 178.876 124.409 178.938 123.925 179.026L123.787 179.055C122.96 179.222 122.019 179.081 121.182 179.01C120.078 178.917 118.96 178.872 117.857 179.003C117.325 179.067 116.72 179.15 116.284 179.484L116.257 179.541C115.395 179.961 114.82 180.514 114.167 181.203C113.419 181.546 113.104 182.397 112.351 182.783C112.022 182.952 111.691 182.964 111.347 183.064L111.342 183.067Z" fill="url(#paint1_linear_191_2387)"/>
<path d="M16.1322 32.1062L16.2085 31.937C16.926 30.564 18.0939 29.2673 19.1475 28.1375C22.1269 24.9435 25.5784 22.1571 29.4994 20.1882C31.3014 19.2825 33.1916 18.6794 35.0913 18.0239C35.4083 18.5412 35.8207 19.0942 36.0567 19.6472L31.6995 21.299C28.7319 22.5241 25.8763 24.1807 23.2949 26.0876C21.5716 27.3581 20.0008 28.7549 18.4157 30.1874C17.7912 30.7523 17.1405 31.5317 16.4635 31.9965C16.3563 32.0704 16.2585 32.0824 16.1322 32.1038V32.1062Z" fill="#5F5E5E"/>
<path d="M127.477 180.447C128.504 181.563 129.193 182.628 129.572 184.116C127.358 186.046 123.091 186.368 120.297 186.435C120.493 185.481 120.846 184.385 121.401 183.579C122.114 182.366 123.298 181.301 124.528 180.628C124.988 181.022 126.097 181.405 126.709 181.548C127.002 181.196 127.246 180.843 127.479 180.45L127.477 180.447Z" fill="#5F5E5E"/>
<path d="M124.526 180.628C124.986 181.021 126.094 181.405 126.707 181.548C125.248 182.623 123.253 183.605 121.401 183.581C122.114 182.368 123.298 181.302 124.528 180.63L124.526 180.628Z" fill="#878686"/>
<path d="M124.981 178.528C125.951 179.038 126.714 179.668 127.477 180.447C127.243 180.84 126.998 181.193 126.707 181.546C126.094 181.405 124.986 181.022 124.526 180.626C123.978 180.378 123.756 180.364 123.194 180.573C121.866 181.067 120.703 182.39 119.899 183.51C118.045 183.498 116.107 183.186 114.51 182.221C114.956 181.181 115.7 180.495 116.253 179.544L116.279 179.487C116.715 179.153 117.32 179.069 117.852 179.005C118.956 178.872 120.073 178.917 121.177 179.012C122.014 179.084 122.955 179.224 123.782 179.057L123.921 179.029C124.407 178.941 124.609 178.879 124.977 178.531L124.981 178.528Z" fill="#918F8F"/>
<path d="M8.63354 60.7026C8.82184 60.7408 8.95769 60.7646 9.12454 60.8671C9.50115 61.0959 9.81102 61.5107 10.1733 61.78C11.1935 62.5404 12.3043 63.2388 13.4031 63.8824C17.8485 66.4852 22.7158 68.6901 27.6546 70.1727C28.1051 70.3085 29.1801 70.7519 29.5496 70.5397C30.5697 71.6195 31.6686 72.5181 32.8413 73.4215C28.5413 72.3703 24.3366 71.219 20.3012 69.3527C15.9035 67.3195 11.8395 64.3424 8.63354 60.705V60.7026Z" fill="#5F5E5E"/>
<path d="M152.879 121.441L153.148 121.949C153.329 122.487 153.527 123.031 153.672 123.581C153.775 123.977 153.899 125.331 154.152 125.555L154.109 125.762C150.881 128.627 146.562 130.587 142.164 130.298C141.037 130.224 139.793 129.955 138.73 129.581C138.63 129.3 138.649 128.923 138.632 128.623L138.818 128.47C140.637 128.787 142.584 128.675 144.367 128.201C148.045 127.224 150.993 124.685 152.883 121.441H152.879Z" fill="#918F8F"/>
<path d="M148.278 87.6012L148.522 87.5273L148.631 87.6751L148.8 87.6608C150.038 87.5559 151.306 87.6727 152.431 88.2162C153.27 89.2578 153.935 90.5235 154.678 91.6414C156.07 93.7295 157.622 95.7484 158.816 97.9603C159.121 98.5252 159.317 99.145 159.584 99.7313C158.08 99.2022 157.169 98.5157 155.51 98.8446L155.358 98.8732L155.374 98.6563L150.743 91.4984C149.952 90.2518 149.263 88.681 148.276 87.6036L148.278 87.6012Z" fill="#23211F"/>
<path d="M12.3615 2.61426C18.3252 5.10034 23.4404 8.74963 27.8739 13.431L31.5208 17.5927L31.5303 17.6738L29.5805 18.4151C29.1991 18.5724 28.8011 18.7988 28.3959 18.8775C28.2123 18.0218 27.6617 17.1232 27.2231 16.3676C26.1243 14.4774 24.6369 12.7112 22.9947 11.2667C22.108 10.4873 21.1712 9.7412 20.2106 9.05711C18.2346 7.64602 16.2109 6.34219 14.3208 4.80954C13.6414 4.25893 12.5974 3.48665 12.3615 2.61902V2.61426Z" fill="#5F5E5E"/>
<path d="M142.35 72.785C142.734 72.7421 143.137 72.8613 143.504 72.7826C144.901 73.2117 146.043 73.7241 147.06 74.8158C147.728 79.521 149.639 83.8425 152.238 87.7945C151.217 87.4489 149.568 87.0913 148.521 87.5299L148.278 87.6038L148.214 87.5919C148.05 87.1414 147.694 86.6575 147.454 86.238L146.15 83.8473C144.417 80.4363 143.185 76.6798 142.605 72.897L142.35 72.785Z" fill="#5F5E5E"/>
<path d="M128.821 164.615C129.424 164.737 133.589 165.752 133.865 165.628C134.037 165.812 134.075 165.802 134.065 166.053C134.022 167.225 133.653 168.558 133.422 169.718C132.607 173.821 131.746 178.085 130.237 181.996C129.718 180.893 129.179 180.087 128.373 179.172C129.105 174.366 129.553 169.452 128.821 164.615Z" fill="#23211F"/>
<path d="M145.728 57.194C146.298 56.6744 146.76 55.9426 147.323 55.3872C149.041 53.6877 150.841 52.4197 152.974 51.3065C153.615 50.9728 154.283 50.5748 154.986 50.396C155.451 51.328 155.765 52.3339 156.018 53.3421C156.163 53.9285 156.185 54.8748 156.49 55.3682C153.112 57.1082 151.077 59.5967 149.032 62.7335C148.35 60.7932 147.525 58.5097 145.752 57.2846L145.728 57.194Z" fill="#5F5E5E"/>
<path d="M64.2234 170.887L67.4007 168.765C67.0527 171.878 66.4592 174.984 66.3257 178.118C66.2947 178.874 66.5044 179.582 66.6284 180.318C66.7738 181.179 66.7929 182.187 66.6189 183.043C66.3734 184.237 65.6607 185.31 64.7144 186.065C63.1817 187.29 61.22 187.66 59.3108 187.872C58.7506 187.934 58.0904 188.041 57.5278 187.97C57.2847 187.939 57.1489 187.798 57.0011 187.605C56.4886 186.935 56.3408 186.101 56.3003 185.281C56.6936 185.357 57.0821 185.384 57.4825 185.403C59.4323 185.496 61.2606 185.193 62.7384 183.827C64.1948 182.48 64.7883 180.817 64.3568 178.855C64.1852 178.08 63.9278 177.391 63.9087 176.586C63.8634 174.717 64.159 172.767 64.2257 170.887H64.2234Z" fill="#AFAEAE"/>
<path d="M148.216 87.5893L148.281 87.6012C149.268 88.681 149.957 90.2494 150.748 91.496L155.379 98.6539L155.363 98.8708L155.408 99.0925L154.743 99.5025C154.063 99.9125 153.42 100.53 152.948 101.169C152.721 101.502 152.471 101.836 152.285 102.194C151.878 101.674 151.57 101.061 151.215 100.501L148.476 96.094L146.276 92.8642C145.828 92.2182 145.323 91.5747 144.977 90.8667L145.206 90.1159C146.019 88.9432 146.97 88.24 148.216 87.5869V87.5893Z" fill="#403E38"/>
<path d="M136.046 134.375C133.681 133.779 131.426 132.043 129.474 130.654L128.294 121.87L128.335 121.834C129.71 123.153 131.004 124.404 132.551 125.529C133.221 126.015 134.084 126.351 134.692 126.878C135.848 127.536 137.483 128.28 138.818 128.468L138.632 128.621C138.649 128.921 138.632 129.3 138.73 129.579C138.646 130.365 138.534 131.023 138.181 131.745L138.117 131.881C137.645 132.854 136.909 133.595 136.07 134.26L136.046 134.375Z" fill="#23211F"/>
<path d="M134.69 126.878C135.846 127.536 137.481 128.279 138.816 128.468L138.63 128.62C138.518 128.792 138.539 129.066 138.523 129.273L138.344 129.402L137.538 128.971C136.885 128.606 134.873 127.529 134.687 126.878H134.69Z" fill="#5F5E5E"/>
<path d="M99.0027 128.223C99.4365 128.382 99.5771 128.835 99.763 129.238L102.912 136.577C104.633 140.417 106.58 144.214 108.692 147.856C110.697 151.313 112.947 154.609 115.228 157.884L117.945 161.729C118.119 161.998 118.267 162.191 118.26 162.525C114.734 158.907 111.209 155.174 108.258 151.06C105.19 146.779 102.804 142.205 101.022 137.256C99.999 134.42 99.0599 131.247 99.0003 128.223H99.0027Z" fill="#AFAEAE"/>
<path d="M143.299 56.1377C144.198 56.3641 144.927 56.7407 145.728 57.1936L145.752 57.2842C145.778 57.5106 145.738 57.5297 145.909 57.6966C147.375 59.1053 148.51 61.1099 148.853 63.1192C147.237 66.7018 146.403 70.5608 147.061 74.4985C146.181 73.7048 145.333 73.0922 144.153 72.8252L143.924 72.7561C143.759 72.706 143.659 72.6822 143.488 72.7227L143.507 72.7847C143.14 72.8634 142.737 72.7466 142.353 72.7871C140.685 73.1136 139.815 73.6881 138.661 74.9204L138.647 74.8012C138.811 74.2935 139.667 73.588 140.134 73.321L140.241 73.2638C140.975 72.8371 141.681 72.6536 142.508 72.5058C142.541 72.3723 142.541 72.4176 142.532 72.2913C142.062 66.8996 143.383 62.1944 145.707 57.3772L144.532 56.8146C144.181 56.6359 143.728 56.5167 143.433 56.2616L143.302 56.1425L143.299 56.1377Z" fill="#23211F"/>
<path d="M92.8623 172.162C95.0386 172.972 96.5497 173.973 97.7034 176.04L98.6187 178.657C98.5377 178.8 98.5377 178.826 98.4209 178.936C97.4078 179.896 92.1496 179.813 90.6313 179.789C90.9531 177.67 91.7492 176.19 93.0649 174.531L92.3117 174.979C90.729 176.04 90.0116 177.961 89.6755 179.751L86.3384 179.675C86.1096 179.126 86.1573 178.09 86.2288 177.487L86.2503 177.315C86.4338 175.88 87.2871 174.5 88.4074 173.596C88.8031 173.277 89.2989 173.013 89.6445 172.641L89.7517 172.519L89.8066 172.562L92.86 172.159L92.8623 172.162Z" fill="#403E38"/>
<path d="M53.2877 98.6967C53.4498 97.7314 53.8621 96.8113 54.1911 95.896C55.123 93.3169 56.3172 90.7022 57.7617 88.3686C58.6055 87.0052 59.5899 85.7347 60.541 84.4476C62.0212 82.443 63.4823 80.56 65.2819 78.8247L71.0216 83.2677C71.6366 83.7397 72.2563 84.2164 72.8307 84.7384C72.9761 84.8695 73.2717 85.0864 73.3718 85.2413C73.4529 85.3701 73.6388 87.7942 73.6888 88.1875L73.5268 88.0993C71.0645 86.7406 68.6857 84.5096 65.8778 83.99C65.3582 84.1449 64.9315 84.2927 64.4715 84.5882L64.3404 84.6717C62.7195 85.7204 61.3752 87.2579 60.1286 88.7119C57.8451 91.3719 55.7904 94.1727 54.1791 97.2928C54.0909 97.4644 54.0886 97.6122 53.9789 97.791C53.6834 98.282 53.5856 98.8898 53.3306 99.388L53.2305 99.5381L53.395 98.7587L53.2901 98.6967H53.2877Z" fill="#23211F"/>
<path d="M10.5806 8.52811C10.7189 7.70577 10.819 6.84768 11.1026 6.06348C13.727 7.21952 16.2989 8.53764 18.6276 10.2228C21.1042 12.0129 23.3877 14.3298 25.2874 16.7181C25.9596 17.5619 26.9249 18.6298 27.2801 19.65L27.3015 19.7286L23.6022 22.3506L23.3686 21.7547C22.8895 20.7273 22.2316 19.7691 21.5928 18.8371C19.6192 15.953 17.157 13.3382 14.473 11.1048C13.2288 10.0679 12.1061 9.11924 10.5806 8.53049V8.52811Z" fill="#B77C5C"/>
<path d="M27.0324 111.125C27.6068 111.351 27.9906 111.974 28.3601 112.45C30.4338 115.144 32.4598 117.678 34.9674 119.994C39.3365 124.03 44.404 127.488 49.9721 129.629C50.0221 130.237 50.2438 130.914 50.3749 131.514L51.0638 134.963H50.9565C48.1915 133.321 45.4218 131.781 42.8237 129.874C37.6656 126.092 33.1177 121.131 29.6639 115.749C28.7152 114.269 27.7618 112.727 27.0348 111.125H27.0324Z" fill="#AFAEAE"/>
<path d="M82.4391 4.80951C84.9109 12.9685 84.1219 21.7855 81.6549 29.8301C80.8611 32.4187 79.953 34.962 78.6658 37.3527L77.4574 39.374L76.4873 37.3122C78.0557 33.9751 79.1473 30.5285 80.0245 26.9531C80.8302 23.6733 81.4213 20.3815 81.5595 17.0016C81.6143 15.662 81.5333 14.3391 81.4785 13.0019L81.6143 13.1425C82.0577 10.7804 81.2497 7.95347 80.7253 5.64854C81.2139 5.43163 81.9123 5.24333 82.3199 4.90724L82.4343 4.80713L82.4391 4.80951Z" fill="#5F5E5E"/>
<path d="M55.6234 78.4625L55.7068 78.5102L56.4981 75.8382C56.5792 75.545 56.6078 75.2351 56.746 74.9586L62.8623 72.9302C63.2771 74.5629 63.6799 76.2005 64.364 77.7474C63.7157 78.3743 63.1174 79.0083 62.5501 79.7115L60.1212 82.8841C59.8185 83.306 59.2822 84.2904 58.9008 84.5407C57.4254 84.6741 55.9952 85.015 54.5031 85.096C53.9739 85.1246 53.061 84.9625 52.6057 85.2057C52.9061 84.0806 53.7093 82.8459 54.2075 81.7733L55.6258 78.4601L55.6234 78.4625Z" fill="#5F5E5E"/>
<path d="M167.288 41.0376C168.842 41.9457 170.513 43.1876 171.023 45.0134C171.321 46.0813 171.056 47.1634 170.505 48.0978C168.732 51.1011 164.537 52.3025 161.441 53.3989C159.753 53.9972 158.113 54.6098 156.488 55.3678C156.182 54.8744 156.163 53.9281 156.016 53.3417C155.765 52.3334 155.448 51.3276 154.983 50.3956L154.993 50.3384C156.421 50.0071 157.815 49.3921 159.238 49.0012C161.124 48.4839 163.35 48.329 165.111 47.4757C166.446 46.8297 167.54 45.6904 167.976 44.2578C168.363 42.9921 167.838 42.1245 167.288 41.0376Z" fill="#AFAEAE"/>
<path d="M27.266 67.2932C28.7033 68.0869 30.0477 69.1071 31.4778 69.9366C35.549 72.2987 40.5259 74.0435 45.2812 73.3761C49.6432 72.7635 53.7191 70.7899 57.4637 68.5494C58.8796 67.7008 60.1787 66.7783 61.6613 66.0347C61.4944 66.3016 61.3133 66.5424 61.2537 66.8594C58.441 70.6398 55.0396 73.0114 50.7206 74.8134C48.8351 75.6 46.8782 76.2555 44.8545 76.563C40.9145 77.1613 34.8602 74.2223 31.7639 71.9007C31.0393 71.3572 30.2908 70.7947 29.6496 70.1535C28.9036 69.4098 28.2266 68.5398 27.4376 67.8486L27.266 67.2956V67.2932Z" fill="#AFAEAE"/>
<path d="M142.35 72.7852L142.605 72.8972C143.187 76.6799 144.417 80.4365 146.15 83.8474L147.454 86.2382C147.694 86.6577 148.05 87.1415 148.214 87.592C146.967 88.2451 146.014 88.9483 145.204 90.121L144.975 90.8719C142.305 86.9675 139.96 82.9178 138.108 78.5606C137.872 78.0052 137.407 77.202 137.45 76.6061C137.7 76.3486 137.905 76.0483 138.12 75.7599L138.661 74.9185C139.814 73.6861 140.684 73.1117 142.353 72.7852H142.35Z" fill="#918F8F"/>
<path d="M138.12 75.7573C139.228 78.5747 140.672 81.3206 142.134 83.9712C143.216 85.9329 144.655 87.9399 145.204 90.1185L144.975 90.8693C142.305 86.965 139.96 82.9153 138.108 78.558C137.872 78.0027 137.407 77.1994 137.45 76.6035C137.7 76.3461 137.905 76.0457 138.12 75.7573Z" fill="#AFAEAE"/>
<path d="M138.728 129.581C139.791 129.955 141.035 130.225 142.162 130.299C146.56 130.587 150.879 128.628 154.107 125.763C154.185 128.103 153.909 130.23 153.303 132.484C148.901 135.264 143.628 136.236 138.544 135.083L136.041 134.377L136.065 134.263C136.904 133.598 137.641 132.859 138.113 131.884L138.177 131.748C138.527 131.026 138.639 130.368 138.725 129.581H138.728Z" fill="#5F5E5E"/>
<path d="M26.5245 179.589C26.8892 178.032 27.845 176.543 28.9939 175.444C30.7983 173.721 33.2033 173.694 35.5416 173.735L35.8157 166.93C37.5581 167.807 39.229 168.203 41.155 168.429L41.1383 168.512C40.776 170.264 40.652 172.147 40.366 173.923C40.0824 175.687 39.7653 177.92 38.1135 178.984C37.2006 179.57 36.0279 179.715 34.9696 179.83C34.6359 179.865 34.2259 179.956 33.8969 179.896L33.6967 179.834C34.2426 178.483 35.0673 177.46 36.2758 176.636C36.5999 176.414 37.0504 176.197 37.3007 175.904C35.5464 176.397 33.8945 177.248 32.9912 178.917C32.7862 179.296 32.6265 179.691 32.5121 180.109C31.1439 180.19 29.9449 180.082 28.5934 179.906C29.4134 177.992 30.2238 176.876 31.878 175.594L30.9031 175.944C29.2203 176.695 28.2669 177.892 27.6162 179.587L26.5269 179.591L26.5245 179.589Z" fill="#FDFDFD"/>
<path d="M36.3449 166.927L35.9254 166.691C35.6394 166.205 35.7633 164.915 35.7419 164.317L35.5583 161.023C35.2532 156.046 34.4309 151.102 33.4655 146.216C31.8232 137.895 29.3586 129.714 26.751 121.648C25.1063 116.557 23.2018 111.442 22.0648 106.21C21.6644 104.372 21.3307 102.525 21.1138 100.656L20.8468 97.5908L20.9183 97.6719C21.5977 101.757 22.8729 105.883 24.5628 109.657C24.4794 109.866 24.4103 110.028 24.4436 110.257C24.6367 111.547 25.3566 113.015 25.7928 114.252L29.6447 124.676C32.7886 132.646 34.5167 141.389 35.3605 149.901L35.718 155.512L36.1137 160.825L36.3854 165.189C36.4093 165.716 36.5022 166.329 36.364 166.839L36.3449 166.922V166.927Z" fill="#AFAEAE"/>
<path d="M81.4809 13.0019C81.4499 11.9626 81.2592 10.8543 81.0613 9.83408C80.8206 8.5827 80.1627 5.80343 78.9924 5.08835C78.5967 4.84761 78.3321 4.90005 77.9055 5.03115C76.7256 5.39583 75.4766 6.32544 74.4707 7.03098C69.4675 10.5396 65.4274 14.9469 62.6266 20.3862C62.1285 20.2599 61.4468 19.7093 60.982 19.4328L58.4863 18.0861C60.8342 14.8849 63.6468 12.108 66.693 9.57665C69.7917 7.00237 73.1001 4.69983 76.7399 2.95742C77.9341 2.38536 79.45 1.63929 80.7682 1.47244C81.0733 1.4343 81.1662 1.47244 81.4117 1.64883C81.9004 2.60703 82.1411 3.77022 82.4367 4.80709L82.3223 4.9072C81.9147 5.2409 81.2139 5.4292 80.7276 5.64849C81.252 7.95343 82.0577 10.7804 81.6167 13.1425L81.4809 13.0019Z" fill="url(#paint2_linear_191_2387)"/>
<path d="M119.339 163.719L128.74 164.596L128.819 164.613C129.55 169.449 129.102 174.364 128.371 179.17C127.169 177.93 125.584 176.893 123.954 176.321C123.637 176.209 121.925 175.895 121.809 175.742C121.763 175.682 121.832 175.597 121.842 175.523L121.947 174.641C122.273 171.104 121.444 166.622 119.339 163.719Z" fill="#403E38"/>
<path d="M41.1552 168.429C43.0692 168.431 44.8164 167.947 46.585 167.247L46.1655 172.347C46.0868 173.239 45.9558 174.176 45.9629 175.07C45.9724 176.435 46.4563 177.675 46.2132 179.072C46.0702 179.894 45.7031 180.742 45.0667 181.303C43.7652 182.447 42.0085 182.747 40.3472 182.959C38.3164 183.219 36.2641 183.302 34.2189 183.2C33.5992 182.204 33.3608 181.315 33.5873 180.161C33.6111 180.042 33.6517 179.944 33.6969 179.832L33.8972 179.894C34.2261 179.954 34.6361 179.863 34.9698 179.827C36.0281 179.715 37.2008 179.57 38.1137 178.981C39.7655 177.918 40.085 175.687 40.3662 173.921C40.6523 172.142 40.7762 170.259 41.1385 168.51L41.1552 168.426V168.429Z" fill="#AFAEAE"/>
<path d="M9.83231 36.0249L7.89683 30.4092C6.32604 25.1176 5.77066 19.5781 6.1282 14.0768C6.41899 9.61473 7.12215 5.51495 9.27691 1.5415L12.3637 2.6165C12.5997 3.48413 13.6413 4.25641 14.323 4.80702C16.2132 6.33967 18.2368 7.64588 20.2128 9.05458C21.1734 9.73868 22.1102 10.4847 22.9969 11.2642C24.6392 12.711 26.1265 14.4749 27.2254 16.3651C27.664 17.1207 28.217 18.0193 28.3981 18.875L28.1359 19.0275C27.4256 18.1814 26.8798 17.1898 26.1837 16.3174C23.0755 12.425 19.4453 9.19283 15.0619 6.78064C14.0441 6.22049 12.4471 5.26229 11.272 5.18601C11.0169 5.16933 10.8263 5.14311 10.6308 5.31473C9.25309 6.54228 8.85503 12.7468 8.8169 14.6632C8.73109 19.2373 9.02189 23.8138 9.98248 28.2973C10.2018 29.3175 10.4926 30.3305 10.8048 31.3245C10.9478 31.7821 11.2577 32.4352 11.303 32.8953L11.2815 32.9739C11.2076 33.3172 11.2505 33.6104 11.303 33.9512C11.3316 34.1324 11.4746 34.621 11.4412 34.7831C11.4198 34.8808 10.1422 35.8033 9.95149 35.9415L9.82992 36.0226L9.83231 36.0249Z" fill="url(#paint3_linear_191_2387)"/>
<path d="M155.532 99.0449C156.876 98.7898 158.681 99.3929 159.822 100.125C160.29 100.423 160.642 101.376 160.857 101.869C161.803 104.055 162.628 106.343 162.993 108.706C163.493 111.942 163.546 115.086 163.088 118.333C162.788 117.832 162.604 117.258 162.33 116.738C161.572 115.306 160.511 114.131 159.296 113.07L159.093 112.932C158.042 112.279 157.074 111.99 155.875 111.709L155.024 111.649C154.9 110.312 154.767 109.027 154.428 107.721C153.93 105.795 153.091 104.003 152.281 102.194C152.469 101.836 152.717 101.502 152.943 101.169C153.415 100.53 154.059 99.9125 154.738 99.5025L155.403 99.0925L155.527 99.0425L155.532 99.0449Z" fill="#5F5E5E"/>
<path d="M155.408 99.0925L155.532 99.0425C157.479 102.792 158.84 106.882 159.119 111.123C159.15 111.609 159.295 112.405 159.138 112.853L159.095 112.932C158.044 112.279 157.076 111.99 155.877 111.709L155.026 111.649C154.902 110.312 154.769 109.027 154.43 107.721C153.932 105.795 153.093 104.003 152.283 102.194C152.471 101.836 152.719 101.502 152.945 101.169C153.417 100.53 154.061 99.9125 154.74 99.5025L155.405 99.0925H155.408Z" fill="#918F8F"/>
<path d="M152.945 101.171C154.054 103.247 154.991 105.502 155.453 107.814C155.71 109.101 155.796 110.405 155.877 111.711L155.026 111.652C154.902 110.314 154.769 109.03 154.43 107.723C153.932 105.797 153.093 104.005 152.283 102.196C152.471 101.838 152.719 101.505 152.945 101.171Z" fill="#AFAEAE"/>
<path d="M155.027 111.652L155.878 111.711C157.074 111.993 158.042 112.281 159.095 112.934L159.298 113.072C160.511 114.131 161.574 115.308 162.332 116.741C162.606 117.258 162.79 117.835 163.09 118.335C162.13 123.76 158.871 128.68 154.354 131.815C154.161 131.948 153.83 132.246 153.604 132.277L153.802 131.405C154.085 130.401 154.729 126.564 154.314 125.756C154.276 125.682 154.207 125.615 154.149 125.558C153.894 125.334 153.773 123.98 153.67 123.584C153.525 123.034 153.33 122.49 153.146 121.951L152.877 121.444C152.86 121.351 153.332 120.512 153.403 120.361C153.794 119.539 154.095 118.693 154.335 117.813C154.896 115.771 155.046 113.768 155.024 111.657L155.027 111.652Z" fill="#23211F"/>
<path d="M155.026 111.652L155.877 111.711C157.074 111.993 158.042 112.281 159.095 112.934L159.298 113.072L159.25 113.177C159.148 113.463 159.162 113.785 159.119 114.085L158.814 115.778C158.094 119.213 156.854 123.019 154.333 125.579L153.992 123.737L153.799 123.038L153.758 122.864C153.677 122.538 153.494 122.116 153.265 121.868L153.148 121.949L152.879 121.441C152.862 121.348 153.334 120.509 153.405 120.359C153.796 119.537 154.097 118.691 154.337 117.811C154.898 115.768 155.048 113.766 155.026 111.654V111.652Z" fill="#403E38"/>
<path d="M75.419 35.179C75.1521 34.8786 74.928 34.297 74.7278 33.9252L73.1904 31.2079C70.6685 27.0914 67.4793 23.721 63.5583 20.9179L63.5678 20.8107C63.7275 20.3387 64.1065 19.8024 64.3496 19.3638C66.5831 15.3403 69.9058 11.9914 73.4883 9.14537C75.0233 7.92736 76.7371 6.66167 78.6106 6.03955C79.1184 6.82614 79.402 7.67708 79.6928 8.56139C76.3772 10.218 73.0188 12.573 71.7793 16.2652C71.4909 17.1233 71.2978 18.1124 71.4265 19.0158C71.6529 20.6033 72.6111 22.3386 73.1832 23.8545C74.2225 26.6099 74.8136 29.2009 75.1306 32.128C75.2069 32.8407 75.4834 33.8108 75.2307 34.4806L75.3785 34.5926L75.5787 34.4353L75.7575 34.4806C75.7289 34.85 75.7313 34.8953 75.4548 35.1599L75.4166 35.179H75.419Z" fill="#B77C5C"/>
<path d="M138.069 56.9649C138.446 56.7337 138.844 56.543 139.256 56.3809C140.41 55.928 142.112 55.6158 143.299 56.1354L143.43 56.2546C143.726 56.5096 144.179 56.6288 144.529 56.8075L145.704 57.3701C143.38 62.1873 142.059 66.8925 142.529 72.2842C142.541 72.4105 142.539 72.3629 142.505 72.4987C141.678 72.6465 140.973 72.8301 140.238 73.2567L140.131 73.3139C139.664 73.5833 138.808 74.2864 138.644 74.7941L138.658 74.9133L138.117 75.7547C137.903 76.0431 137.698 76.3435 137.447 76.6009L137.426 76.4913C136.303 72.8897 135.538 69.1236 135.526 65.3313C135.526 64.5876 135.464 63.7891 135.674 63.0693L136.541 58.4761C136.582 58.2949 136.632 58.1304 136.699 57.9564L136.794 58.0303L138.065 56.9625L138.069 56.9649Z" fill="#403E38"/>
<path d="M136.546 58.4807L137.095 58.0684L137.159 58.178L136.179 61.2791C136.027 61.8559 135.989 62.5233 135.729 63.0644L135.676 63.0715L136.544 58.4783L136.546 58.4807Z" fill="#878686"/>
<path d="M64.1925 170.533C64.9076 163.006 66.1923 155.586 67.7607 148.197C69.3673 140.626 71.236 133.192 73.6816 125.848C74.6184 123.035 75.486 120.037 76.8827 117.41C76.1176 122.895 74.821 128.341 73.715 133.766L68.5593 160.806C68.4472 161.478 67.3341 168.526 67.2554 168.586C66.2901 169.31 65.2818 170.011 64.1925 170.538V170.533Z" fill="#5F5E5E"/>
<path d="M92.431 160.548C97.1743 160.863 101.577 162.958 105.395 165.723C104.316 168.436 102.974 171.012 101.589 173.577C100.666 175.286 99.7319 177.062 98.6164 178.656L97.7011 176.039C97.7488 175.462 97.2411 174.707 96.9098 174.254L96.8144 174.125C95.5702 172.433 94.3641 171.31 92.4262 170.478L92.7123 164.596C92.7432 163.232 92.7599 161.881 92.4286 160.548H92.431Z" fill="#23211F"/>
<path d="M75.4192 35.1791L75.4573 35.16C75.7362 34.8955 75.7314 34.8525 75.76 34.4807L75.5813 34.4354L75.3811 34.5927L75.2333 34.4807C75.4859 33.8109 75.2094 32.8384 75.1332 32.1281C74.8161 29.201 74.225 26.6101 73.1858 23.8546C72.6137 22.3387 71.6555 20.6034 71.429 19.016C71.3003 18.1126 71.4934 17.1234 71.7818 16.2653C73.0213 12.5731 76.3798 10.2181 79.6954 8.56152C81.3162 16.1843 80.2102 23.6163 77.8814 30.9697C77.3165 32.7574 76.7588 34.5856 75.9912 36.297L75.4216 35.1815L75.4192 35.1791Z" fill="#E5AE88"/>
<path d="M47.1879 183.674C47.2117 182.656 47.8291 181.517 48.3845 180.685C50.022 178.232 51.9241 177.043 54.7773 176.466L55.4137 170.76C57.056 171.422 58.9223 171.956 60.7124 171.811C61.9257 171.713 63.0984 171.332 64.221 170.888C64.1543 172.767 63.8611 174.719 63.904 176.588C63.9231 177.393 64.1805 178.085 64.3522 178.857C64.7836 180.819 64.1901 182.482 62.7337 183.829C61.2535 185.197 59.4277 185.498 57.4779 185.405C57.0798 185.385 56.6889 185.359 56.2956 185.283C56.5983 183.216 57.6924 181.891 58.9938 180.337L58.8961 180.392C56.9273 181.522 55.7212 183.028 55.1396 185.207C53.8381 185.221 52.5629 185.135 51.2805 184.894C50.7943 184.802 50.0554 184.651 49.7622 184.227C50.3581 182.008 51.7501 180.459 53.4448 178.976C52.8656 179.143 52.3079 179.331 51.7787 179.622C50.0578 180.573 49.1424 182.184 48.6014 184.017L47.1831 183.672L47.1879 183.674Z" fill="#FDFDFD"/>
<path d="M22.9326 74.782L23.4975 72.4985C26.1671 73.5092 28.8463 74.3863 31.6327 75.0204L35.9971 75.8689C36.5882 76.0072 37.165 76.3051 37.7371 76.5101C38.9336 76.9439 40.1588 77.3372 41.4054 77.6042C42.3136 77.7996 43.3171 77.976 44.2491 77.9307C46.4539 77.8211 48.4942 76.9368 50.6013 76.3814C51.3283 76.1907 52.0935 76.1168 52.83 75.9524L56.5603 74.9512L55.6283 78.4647L54.2101 81.7779C53.7143 82.8481 52.9087 84.0828 52.6083 85.2102L52.5607 85.2007C52.389 84.898 49.8076 84.7335 49.3333 84.6692C46.8591 84.3283 44.3611 83.7014 41.9561 83.0364C36.5024 81.5252 31.0392 79.4419 26.0456 76.7723C25.3782 76.4148 24.706 76.0286 24.0839 75.5972C23.7478 75.366 23.4546 75.0776 23.0994 74.8774L22.935 74.7868L22.9326 74.782Z" fill="#AFAEAE"/>
<path d="M10.5807 8.52821C12.1062 9.11695 13.2288 10.0656 14.4731 11.1025C17.1546 13.3359 19.6193 15.9507 21.5929 18.8349C22.2317 19.7692 22.8895 20.725 23.3686 21.7524L23.6023 22.3483C19.2379 25.8379 15.8198 29.859 13.3575 34.8764C12.8546 33.8181 12.335 32.7598 11.9536 31.649C11.1432 29.2845 10.7237 26.7436 10.3733 24.2718C9.62487 18.9755 9.67969 13.7983 10.5783 8.52344L10.5807 8.52821Z" fill="#E5AE88"/>
<path d="M53.2876 98.697L53.3925 98.759L53.228 99.5384L53.3281 99.3882C53.5832 98.8901 53.6833 98.2822 53.9764 97.7912C54.0837 97.6101 54.0885 97.4623 54.1766 97.2931C55.788 94.1729 57.8426 91.3722 60.1261 88.7121C61.3751 87.2581 62.7171 85.7207 64.3379 84.6719L64.469 84.5885C64.929 84.2929 65.3581 84.1428 65.8753 83.9902C68.6832 84.5099 71.062 86.7409 73.5243 88.0995L73.6864 88.1877L73.9462 90.3687C72.4302 90.6643 71.031 90.9837 69.5985 91.5987C65.8658 93.1957 62.3166 96.3444 59.8687 99.5479L59.8592 99.7887L57.6638 102.816L57.4875 102.864C55.4328 106.215 53.7953 109.936 53.0993 113.83L52.4366 116.839C51.3092 111.988 51.4737 106.792 52.5057 101.934C52.7346 100.857 52.9419 99.7529 53.2828 98.7041L53.2876 98.697Z" fill="#403E38"/>
<path d="M24.563 109.659L28.9273 117.749L28.9535 117.849C29.1299 118.488 29.4613 119.084 29.7091 119.701C30.5792 121.858 31.6684 123.901 33.0009 125.81C34.2499 127.6 35.6681 129.286 36.8266 131.14C39.6511 135.667 40.7094 140.865 41.3601 146.088C42.0752 151.837 42.2135 157.522 41.7558 163.3C41.6271 164.913 41.5175 166.548 41.2696 168.15C39.489 168 37.9659 167.723 36.3474 166.927L36.3665 166.844C36.5048 166.334 36.4118 165.721 36.3879 165.195L36.1162 160.83L35.7206 155.517L35.363 149.906C34.5192 141.394 32.7911 132.651 29.6472 124.681L25.7953 114.257C25.3567 113.02 24.6368 111.552 24.4462 110.262C24.4128 110.033 24.4819 109.871 24.5653 109.662L24.563 109.659Z" fill="#878686"/>
<path d="M28.9273 117.749C29.4303 118.271 29.795 118.907 30.2264 119.489L32.6291 122.54C36.6359 127.271 41.434 131.402 46.809 134.506C47.0808 134.663 48.7064 135.466 48.785 135.628C48.8089 135.678 48.7803 136.038 48.7803 136.1L48.766 136.887L46.6017 166.856C44.8068 167.633 43.2265 168.014 41.2672 168.152C41.5175 166.551 41.6247 164.916 41.7534 163.302C42.2111 157.524 42.0729 151.839 41.3578 146.09C40.7071 140.867 39.6487 135.669 36.8242 131.142C35.6681 129.288 34.2475 127.603 32.9985 125.813C31.6685 123.903 30.5768 121.861 29.7068 119.704C29.4589 119.089 29.1276 118.493 28.9512 117.852L28.9249 117.751L28.9273 117.749Z" fill="#5F5E5E"/>
<path d="M136.704 57.9614C137.507 55.5921 138.525 53.4135 139.857 51.2921C143.418 45.631 148.7 41.014 155.353 39.5314C159.145 38.6876 163.941 38.8998 167.285 41.0379C167.838 42.1248 168.36 42.9924 167.974 44.2581C167.536 45.693 166.444 46.83 165.109 47.4759C163.348 48.3293 161.121 48.4842 159.236 49.0014C157.813 49.3923 156.418 50.0073 154.991 50.3386L154.981 50.3958C154.278 50.5746 153.613 50.9703 152.969 51.3064C150.834 52.4171 149.034 53.6876 147.318 55.3871C146.755 55.9425 146.293 56.6742 145.723 57.1938C144.925 56.741 144.193 56.3644 143.294 56.1379C142.11 55.6183 140.408 55.9282 139.252 56.3834C138.839 56.5455 138.441 56.7338 138.065 56.9674L136.794 58.0353L136.699 57.9614H136.704Z" fill="url(#paint4_linear_191_2387)"/>
<path d="M138.07 56.9651C138.854 54.8366 139.862 52.8868 141.114 50.9919C142.191 49.3591 143.423 47.7883 145.104 46.7395C146.653 45.7718 148.31 45.3308 150.119 45.8099C152.478 46.4368 153.854 48.3199 154.993 50.3364L154.984 50.3936C154.28 50.5724 153.615 50.968 152.972 51.3041C150.836 52.4149 149.037 53.6853 147.32 55.3848C146.758 55.9402 146.295 56.672 145.726 57.1916C144.927 56.7387 144.195 56.3621 143.297 56.1357C142.112 55.616 140.41 55.9259 139.254 56.3812C138.842 56.5433 138.444 56.7316 138.067 56.9651H138.07Z" fill="#918F8F"/>
<path d="M90.2737 129.571C93.973 128.615 97.7558 126.565 100.437 123.851C100.039 124.637 99.3361 125.433 99.1096 126.277L99.0786 126.406L98.7211 127.681C98.7211 129.276 98.6639 130.901 98.7855 132.491C98.9666 134.903 99.4839 137.244 100.268 139.53C93.1292 141.365 85.9618 142.164 78.6012 141.561C77.0352 141.432 75.4477 141.322 73.9103 140.984C73.8793 140.443 74.0915 139.749 74.1868 139.201L75.0401 134.562L75.8386 129.674L77.9243 129.988C78.2532 130.034 78.6179 130.029 78.8992 130.217L79.0207 130.158L79.2281 130.153L79.2376 130.172C83.0228 130.751 86.5767 130.577 90.2713 129.571H90.2737Z" fill="#AFAEAE"/>
<path d="M90.2737 129.571C93.973 128.615 97.7558 126.565 100.437 123.851C100.039 124.637 99.3361 125.433 99.1097 126.277L99.0787 126.406L98.7211 127.681L98.6043 128.317C98.54 128.577 98.1848 128.901 98.0061 129.114C96.0849 131.395 93.1436 133.394 90.4549 134.641C88.3549 135.614 85.4827 136.617 83.1873 135.8C82.7344 135.637 82.3363 135.406 81.9478 135.13L81.8406 135.056C80.3008 133.947 79.5881 132.081 79.1066 130.32L79.2424 130.172C83.0276 130.751 86.5815 130.577 90.2761 129.571H90.2737Z" fill="#FDFDFD"/>
<path d="M92.431 160.549L82.2435 143.397C86.6031 143.582 90.9198 143.153 95.2031 142.348C97.0528 142 98.9072 141.63 100.709 141.082C101.441 142.91 102.282 144.707 103.257 146.419C103.424 146.712 104.344 148.099 104.299 148.338C103.615 151.837 104.118 156.187 105.264 159.538L106.273 162.096C106.354 162.298 106.609 162.861 106.597 163.061C106.587 163.211 106.432 163.524 106.373 163.674C106.099 164.372 105.71 165.037 105.398 165.724C101.579 162.959 97.1744 160.863 92.4334 160.549H92.431Z" fill="#5F5E5E"/>
<path d="M53.9241 18.1504C55.6831 18.8202 57.4446 19.4685 59.1227 20.3242C65.7586 23.7018 71.186 29.2913 74.2418 36.1036C76.0724 40.1843 77.9507 45.2924 82.489 47.0491L84.8345 47.7093C83.9215 48.6079 82.7607 49.2467 81.6285 49.8307C80.1674 50.5839 78.6085 51.2799 77.0592 51.8305C76.4657 52.0403 75.7029 52.1047 75.1595 52.3597C76.5324 52.8841 78.8183 52.4693 80.2389 52.1809C81.905 53.4276 83.278 53.7064 85.335 53.685C83.2184 55.3464 81.1089 56.7932 78.6395 57.8992C76.2202 58.9837 73.5386 59.6559 70.9405 60.1421C72.3087 60.5855 74.1679 60.4258 75.5766 60.2279C76.3012 60.1278 77.0544 59.9205 77.7766 60.0635C78.6991 60.2494 79.6263 60.3805 80.5679 60.39C78.4536 62.0347 76.4538 63.7676 74.2418 65.2907C68.2018 69.4524 61.3227 71.9171 54.2983 73.8168C56.4554 72.3223 58.4529 70.6585 60.1286 68.6277C60.5314 68.1391 61.0915 67.4812 61.2536 66.8591C61.3132 66.5445 61.4919 66.3013 61.6612 66.0344C62.2428 65.2216 62.5121 64.1204 62.7672 63.1669L62.8268 63.2503C62.9769 63.5411 62.4096 64.957 62.2881 65.3121C63.1891 64.8283 64.133 63.9463 64.9172 63.2766C68.638 60.1064 71.6317 56.6097 73.4886 52.0451C74.1917 50.3146 75.0117 47.9882 74.9449 46.1075C74.8877 44.4533 74.2585 42.7419 73.6125 41.2283C71.8892 37.1905 69.6319 32.9358 66.7144 29.6274C62.9436 25.3512 58.0882 22.448 52.8467 20.3385L53.9241 18.1504Z" fill="#5F5E5E"/>
<path d="M74.9283 91.0028C75.1619 89.4511 75.2525 87.9375 75.1762 86.3691C76.6183 87.3559 78.2201 88.0472 79.8719 88.605C81.3473 89.1031 82.8562 89.5274 84.3745 89.8754L86.9583 90.4141C87.1085 90.4451 87.5304 90.4832 87.6305 90.5571C87.7354 90.6358 87.7973 90.7573 87.8808 90.8574C87.8975 91.1101 87.8665 91.2293 88.019 91.4438L88.0786 91.3938C88.4409 92.4044 88.4791 93.8107 88.4648 94.8857C88.3122 96.5614 88.0571 98.1417 87.4851 99.7316C85.993 103.886 82.9873 107.173 79.6431 109.952C75.1905 113.657 70.154 115.904 64.2737 115.37C63.5848 115.308 62.7124 115.239 62.1761 114.765C61.9592 114.55 62.0069 114.455 61.995 114.159C62.4073 113.554 63.3679 113.051 64.0139 112.713C64.4453 112.689 64.9292 112.229 65.27 111.962C68.9932 109.066 71.8916 104.215 73.267 99.7506C73.5673 98.7781 73.8939 97.7055 74.0083 96.6949L74.1989 95.5484L74.9331 91.0028H74.9283Z" fill="#403E38"/>
<path d="M74.9283 91.0028C75.1619 89.4511 75.2525 87.9375 75.1762 86.3691C76.6182 87.3559 78.22 88.0472 79.8718 88.605C81.3473 89.1031 82.8561 89.5274 84.3744 89.8754L86.9583 90.4141C87.1084 90.4451 87.5303 90.4832 87.6304 90.5571C87.7353 90.6358 87.7973 90.7573 87.8807 90.8574C87.8974 91.1101 87.8664 91.2293 88.019 91.4438L88.0786 91.3938C88.4409 92.4044 88.479 93.8107 88.4647 94.8857C88.3122 96.5614 88.0571 98.1417 87.485 99.7316C85.9929 103.886 82.9872 107.173 79.643 109.952C75.1905 113.657 70.1539 115.904 64.2736 115.37C63.5847 115.308 62.7124 115.239 62.1761 114.765L62.2642 114.703C62.6838 114.839 63.089 114.92 63.5109 115.029C63.928 115.139 64.3022 115.065 64.7074 115.139C65.2938 115.246 66.3497 115.325 66.9265 115.175C67.3317 115.07 67.7703 115.156 68.1851 115.072C69.5676 114.793 70.7903 114.577 72.1418 114.128C72.4779 114.016 72.7664 113.871 73.0905 113.735L73.3908 113.621C78.0555 111.602 82.5653 107.59 85.3779 103.395C85.807 102.754 86.3218 101.979 86.5817 101.25L87.2443 99.7125C87.3516 99.4431 87.466 99.1714 87.5303 98.8901L87.8735 97.4957L87.926 97.1954C88.131 96.4589 88.1381 95.6246 88.1596 94.8547L74.933 91.0052L74.9283 91.0028Z" fill="#23211F"/>
<path d="M110.699 97.9106C116.433 102.013 121.194 107.199 124.016 113.742C125.403 116.96 126.29 120.488 126.859 123.939C127.72 129.152 127.877 134.372 128.039 139.643C128.306 148.24 127.737 158.769 133.862 165.626C133.588 165.75 129.422 164.735 128.819 164.613L128.74 164.596C128.769 164.494 128.785 164.463 128.776 164.344C128.747 163.977 128.502 163.457 128.378 163.1L126.557 158.347C125.849 156.387 125.25 154.385 124.829 152.345C122.988 143.468 122.721 134.26 120.304 125.508C118.874 120.331 116.543 115.337 113.309 111.037C111.702 108.904 109.864 106.983 107.977 105.102C109.359 102.845 110.441 100.576 110.699 97.9106Z" fill="#5F5E5E"/>
<path d="M22.9325 74.7821L23.0969 74.8727C23.4521 75.0729 23.7453 75.3613 24.0813 75.5925C24.7035 76.024 25.3757 76.4101 26.0431 76.7676C31.0343 79.4373 36.4999 81.5229 41.9535 83.0317C44.3586 83.6967 46.8566 84.3236 49.3307 84.6645C49.8027 84.7288 52.3865 84.8933 52.5581 85.196C50.6656 89.0622 48.6586 92.9904 47.3261 97.0901C45.5003 102.711 45.0117 108.748 46.4943 114.514L46.5324 114.543L49.9719 129.624C44.4038 127.486 39.3363 124.025 34.9672 119.989C32.4597 117.675 30.4336 115.141 28.3599 112.445C27.9928 111.969 27.6091 111.346 27.0322 111.12L26.9893 111.084C26.6461 110.624 26.3887 109.897 26.1503 109.37L24.5604 105.547C20.9326 95.5646 20.4249 85.0959 22.9325 74.7773V74.7821Z" fill="#FDFDFD"/>
<path d="M35.0913 18.0241C39.1434 16.9586 43.4219 16.675 47.5956 16.9467C49.6979 17.085 51.9504 17.3829 53.9264 18.148L52.849 20.3362C58.0905 22.4481 62.9459 25.3513 66.7167 29.625C69.6343 32.9335 71.8915 37.1882 73.6149 41.226C74.2608 42.7396 74.8901 44.451 74.9473 46.1052C75.014 47.9859 74.1941 50.3122 73.4909 52.0427C71.6341 56.6073 68.6403 60.104 64.9195 63.2742C64.1353 63.944 63.1914 64.8259 62.2904 65.3098C62.412 64.9547 62.9769 63.5388 62.8291 63.248L62.7695 63.1646C62.5169 64.1156 62.2451 65.2168 61.6635 66.032C60.181 66.7733 58.8819 67.6982 57.466 68.5467C53.7214 70.7873 49.6431 72.7609 45.2835 73.3735C40.5282 74.0409 35.5513 72.2961 31.4801 69.934C30.05 69.1045 28.708 68.0819 27.2683 67.2906L27.4399 67.8436C27.8499 68.8399 28.832 69.7361 29.5494 70.5346C29.18 70.7468 28.1074 70.3034 27.6545 70.1676C22.7157 68.685 17.8507 66.4801 13.403 63.8773C12.3041 63.2337 11.1934 62.5353 10.1732 61.7749C9.81088 61.5056 9.501 61.0908 9.1244 60.862C8.95755 60.7595 8.8217 60.7357 8.63339 60.6976C8.47846 60.5927 8.44509 60.5998 8.3712 60.4187C11.4437 60.8358 14.6639 60.1541 17.6148 59.3103C16.5111 59.153 15.3337 59.5224 14.1943 59.4152C13.0573 59.3055 11.999 58.9218 10.9407 58.5142C8.27107 57.4869 5.31543 55.8088 3.45147 53.5849L3.48722 53.4657L3.85189 53.4133C7.0316 53.194 10.3615 52.5767 13.3529 51.4826C14.4065 51.0964 15.5267 50.6531 16.4182 49.9571C15.2503 50.1359 14.2182 50.839 12.993 50.9582C9.58684 51.2895 6.1616 50.1883 3.56349 48.0002L2.91039 47.4424L5.09854 47.0872C7.37963 46.5652 9.18638 45.6666 10.8287 43.9814C11.3674 43.4284 11.8584 42.8564 12.1778 42.1484C12.7761 40.8232 13.0383 39.3501 13.4745 37.9676C14.1228 35.9082 14.9737 33.9322 16.1322 32.1064C16.2561 32.0825 16.3562 32.0706 16.4635 31.9991C17.1404 31.5343 17.7912 30.7549 18.4157 30.19C20.0031 28.7574 21.5739 27.3606 23.2949 26.0902C25.8763 24.1857 28.7318 22.5267 31.6994 21.3015L36.0566 19.6497C35.8183 19.0967 35.4083 18.5437 35.0913 18.0265V18.0241Z" fill="#918F8F"/>
<path d="M28.5458 29.6822C30.5981 29.5868 32.238 29.8729 34.1186 30.669C29.9617 30.1947 26.3648 30.1232 22.6941 32.4329C21.4165 33.248 20.3677 34.3969 19.369 35.522C19.7075 34.7473 20.2509 34.0156 20.8039 33.3839C22.8752 31.017 25.4471 29.9277 28.5458 29.6846V29.6822Z" fill="black"/>
<path d="M58.1121 29.7777C59.7139 29.6394 61.3204 29.7634 62.8602 30.2425C65.5155 31.0696 67.9277 32.6022 69.253 35.1122C68.8144 34.726 68.4426 34.2731 68.004 33.887C67.5201 33.4627 66.9695 33.1219 66.4308 32.7762C63.5252 31.0934 60.2049 30.1495 56.8297 30.4642C55.7094 30.569 54.6082 30.867 53.5189 31.1316C54.6964 30.3045 56.7034 29.9684 58.1121 29.7753V29.7777Z" fill="black"/>
<path d="M3.56317 48C5.67027 48.205 7.71062 48.9677 9.82249 49.2323C11.4457 49.4349 13.0141 49.5183 14.6469 49.4921C15.5193 49.4778 16.3964 49.3706 17.2664 49.4159C17.0114 49.6328 16.7611 49.9069 16.4203 49.9593C15.2523 50.1381 14.2202 50.8412 12.9951 50.9604C9.58891 51.2917 6.16367 50.1905 3.56556 48.0024L3.56317 48Z" fill="#5F5E5E"/>
<path d="M17.6149 59.315C16.5113 59.1577 15.3338 59.5271 14.1945 59.4199C13.0575 59.3102 11.9992 58.9265 10.9409 58.5189C8.27125 57.4915 5.31561 55.8135 3.45164 53.5896L3.4874 53.4704L3.85207 53.418L3.68523 53.5634L4.15479 53.7636C4.97713 54.1164 5.79472 54.686 6.58607 55.1222C8.04483 55.9255 9.59653 56.5977 11.1816 57.1078C12.4259 57.5082 13.6987 57.8038 14.9859 58.035L17.696 58.4545C18.137 58.5165 18.6756 58.5236 19.0761 58.7262C18.9545 58.9646 18.6113 59.0409 18.3634 59.1219L17.6149 59.315Z" fill="#5F5E5E"/>
<path d="M35.0913 18.0241C39.1434 16.9586 43.422 16.675 47.5956 16.9467C49.698 17.085 51.9505 17.3829 53.9265 18.148L52.8491 20.3362L42.8928 36.4493C41.6295 32.2827 40.2733 28.1806 38.4617 24.2143C37.7729 22.7055 37.0411 21.1156 36.1186 19.7355L36.0567 19.6473C35.8183 19.0943 35.4083 18.5413 35.0913 18.0241Z" fill="#403E38"/>
<path d="M27.0993 35.5628C28.7082 35.4961 30.1908 36.0181 31.4279 37.0526C33.8329 39.0619 35.07 42.4848 35.3203 45.5405C35.4419 47.016 35.859 49.1874 34.8102 50.384C33.2776 52.1312 30.7104 52.4601 28.5247 52.5626C26.5511 52.4625 24.8444 52.0072 23.2522 50.7797C21.5121 49.4353 20.3299 47.2925 20.0653 45.1115C19.784 42.797 20.511 40.2704 21.9555 38.447C23.2927 36.7594 24.966 35.8083 27.0993 35.5628Z" fill="black"/>
<path d="M25.9788 42.6802C25.8215 42.0891 25.719 41.6314 26.0384 41.076C26.3102 40.5993 26.8631 40.2156 27.3994 40.1059C27.8333 40.0177 28.3743 40.0487 28.739 40.3252C29.2062 40.678 29.4708 41.1857 29.5161 41.7649C29.5566 42.2941 29.3635 42.8709 29.0084 43.2642C28.6651 43.6408 28.186 43.8601 27.676 43.8792C27.378 43.8911 27.0395 43.7671 26.763 43.6551C26.4436 43.3524 26.2148 43.0497 25.9788 42.6778V42.6802Z" fill="#FDFDFD"/>
<path d="M26.7631 43.6575C27.03 45.0686 27.5521 46.8181 28.4864 47.9217C28.7391 48.2197 28.9345 48.3436 29.3302 48.3794C29.8713 48.2244 30.298 47.9289 30.6865 47.5213C32.2167 45.91 32.1071 44.27 32.0618 42.2178C32.7578 43.6146 33.5492 44.997 33.0915 46.6012C32.7673 47.7358 31.7233 49.0062 30.7079 49.5616C30.0596 49.9144 29.3517 49.9263 28.658 49.6975C27.5235 49.3256 26.6344 48.3484 26.1529 47.2805C25.5379 45.9171 25.4545 44.0937 25.9789 42.6826C26.2149 43.0544 26.4437 43.3571 26.7631 43.6598V43.6575Z" fill="#554B22"/>
<path d="M26.0813 38.3394C27.3732 38.1868 28.3695 38.3942 29.5923 38.7875C29.3086 38.9066 28.5435 38.7303 28.1717 38.7922C27.1706 38.9591 26.1909 39.7075 25.6379 40.5466C24.6654 42.0268 24.3174 44.3007 24.725 46.0074C24.9657 47.0132 25.2732 47.9238 25.8453 48.7986C26.5341 49.8521 27.5662 50.6458 28.8319 50.8651C29.8569 51.0415 30.796 50.8079 31.6207 50.1644C33.3274 48.8319 33.6969 47.2111 33.94 45.1707C34.0854 45.4782 34.0925 45.943 34.1426 46.2839C34.2808 47.2707 34.6312 48.9797 34.1521 49.8855C33.754 50.6411 32.8507 51.1726 32.0522 51.4205C31.4515 51.6064 30.7579 51.6589 30.1357 51.728C28.1216 51.952 26.0884 51.8686 24.2888 50.8556C22.8825 50.0642 21.7646 48.5816 21.3451 47.0299C20.8588 45.2303 21.1568 42.9707 22.0887 41.3546C23.004 39.7671 24.3389 38.8185 26.0836 38.3417L26.0813 38.3394Z" fill="#FDFDFD"/>
<path d="M60.0763 35.5506C61.802 35.3694 63.4491 35.7722 64.8077 36.8639C66.6121 38.3131 67.6513 40.9113 67.8587 43.1709C68.0637 45.4139 67.873 48.2742 66.338 50.0738C64.6695 52.0307 62.2239 52.2953 59.8308 52.4693C58.6342 52.4836 57.4496 52.3835 56.2816 52.1237C54.7108 51.7733 52.68 50.9223 51.7886 49.5303C51.6789 48.4053 51.8458 47.3136 52.0269 46.2052C52.4417 43.6548 53.264 41.1377 54.7561 38.9996C56.079 37.1023 57.819 35.9701 60.0787 35.5506H60.0763Z" fill="black"/>
<path d="M59.2849 39.7149C59.5852 39.7101 59.8093 39.734 60.0858 39.8579C60.5553 40.0677 61.0941 40.5325 61.2609 41.0354C61.454 41.6123 61.3038 42.3822 60.9796 42.8899C60.584 43.512 60.1192 43.6741 59.4303 43.8361C59.1371 43.7932 58.801 43.7623 58.5293 43.6455C58.1074 43.4667 57.6617 42.959 57.4829 42.5419C57.2803 42.0628 57.2851 41.5646 57.5091 41.0926C57.8762 40.318 58.5388 40.0176 59.2849 39.7173V39.7149Z" fill="#FDFDFD"/>
<path d="M64.7122 43.66C64.7837 43.7506 64.7932 43.7506 64.8409 43.8769C65.1508 44.6707 64.8576 46.3011 64.5287 47.059C64.0472 48.1674 63.1152 49.2186 61.9663 49.65C61.1869 49.9432 60.4218 49.9289 59.6805 49.5475C58.2598 48.8205 57.509 47.3451 57.0704 45.8887L56.9131 44.1296C57.366 44.623 57.888 45.1259 58.286 45.6646C58.982 46.6062 59.4183 47.705 60.5862 48.1746C60.9628 48.3271 61.3394 48.339 61.7041 48.1531C63.4704 47.2616 64.1068 45.3715 64.7146 43.6553L64.7122 43.66Z" fill="#554B22"/>
<path d="M58.6318 38.6711L58.8606 38.6592C58.6961 38.8117 58.7629 38.7641 58.608 38.8666C58.2147 39.1287 57.8547 39.4172 57.5353 39.7675C56.2101 41.2287 55.8263 43.1666 55.9288 45.0853C56.0194 46.7705 56.651 48.5392 57.9429 49.669C58.8535 50.4651 59.9594 51.0038 61.187 50.9108C62.5051 50.8107 63.5587 50.0528 64.3762 49.0588C65.9065 47.202 65.9351 45.1568 65.6968 42.8734L65.7373 42.9806C66.2378 44.1271 66.2998 45.5764 66.3213 46.8111C66.2927 47.9313 65.9041 49.1541 65.1962 50.0337C64.2285 51.2326 62.7101 51.5377 61.2609 51.7093C59.826 51.881 58.2361 51.8619 56.8131 51.6188C55.4235 51.3828 53.3283 50.7368 52.4821 49.5522C52.3415 49.0278 52.3939 48.4891 52.4297 47.9552C52.5608 46.0435 53.1757 43.9317 54.0887 42.2465C55.1136 40.3587 56.5914 39.267 58.6318 38.6663V38.6711Z" fill="#FDFDFD"/>
<path d="M39.1815 52.7393C41.7725 51.7549 45.436 51.5785 47.9984 52.7298L48.1557 52.8013C49.1282 52.2721 52.5677 53.0921 53.6809 53.421C56.5173 54.26 60.6195 55.745 62.1569 58.4837C63.0246 60.0307 62.965 61.4632 62.76 63.1532L62.7647 63.1699C62.5121 64.1209 62.2403 65.2222 61.6587 66.0374C60.1762 66.7786 58.8771 67.7035 57.4612 68.552C53.7166 70.7926 49.6383 72.7662 45.2787 73.3788C40.5234 74.0462 35.5465 72.3014 31.4753 69.9393C30.0452 69.1098 28.7032 68.0872 27.2635 67.2959C27.0347 67.2053 26.7224 66.8811 26.5532 66.6928C26.1551 66.2471 25.8358 65.6298 25.5664 65.0958C24.7894 63.556 24.427 62.338 24.5724 60.6004C24.7012 59.051 25.5998 57.8402 26.763 56.8701C29.4445 54.6295 35.6824 52.4342 39.1791 52.7441L39.1815 52.7393Z" fill="#FDFDFD"/>
<path d="M39.1812 52.7393C41.7721 51.7549 45.4357 51.5785 47.9981 52.7298L48.1554 52.8013C48.42 53.011 48.6869 53.3042 48.8371 53.6093C48.9825 53.9073 49.0087 54.4221 48.88 54.7344C48.2412 56.2813 45.5716 57.3444 44.139 57.9188L44.0651 60.8483C44.0747 61.2392 44.0341 61.4418 44.3416 61.7159C45.9196 63.1198 48.0004 64.1662 50.1576 63.9779C53.4756 63.6871 55.8591 61.2392 57.8685 58.8556C57.4871 59.759 57.0295 60.66 56.4312 61.4418C55.0869 63.2033 52.6246 64.6906 50.4103 64.9433C47.6477 65.2579 45.6145 63.966 43.5288 62.3452C42.6016 63.1437 41.6172 63.8063 40.4826 64.2783C38.6592 65.0362 36.9406 65.0815 35.1124 64.3283C32.724 63.3439 30.7361 61.325 29.7469 58.9486C30.3523 59.5754 30.8719 60.2667 31.4988 60.8793C33.0053 62.3571 34.9241 63.5179 37.0455 63.7872C39.3051 64.0733 41.3049 62.81 43.0068 61.4847L43.045 58.7865C43.045 58.6292 43.1046 58.1429 43.0569 58.0309C43.0426 57.9951 42.2822 57.6233 42.2179 57.5899C41.0213 56.9702 39.8581 56.3409 38.9404 55.3326C38.5948 54.9536 38.2992 54.4793 38.3445 53.9454C38.3898 53.4043 38.795 53.0635 39.1836 52.7369L39.1812 52.7393Z" fill="black"/>
<path d="M39.3746 54.2689C39.5534 53.8803 39.7703 53.6372 40.1612 53.4465C42.2015 52.4573 45.2144 52.853 47.2738 53.5752C47.5861 53.7707 47.8268 53.8637 47.9198 54.257L47.9341 54.3857C47.6051 54.4167 47.2571 54.3475 46.9282 54.3046C45.4003 54.0853 43.8105 54.0138 42.2659 54.0925C41.3244 54.1402 40.3018 54.3857 39.3722 54.2689H39.3746Z" fill="#FFB7AC"/>
<path d="M39.3746 54.2689C40.3042 54.3856 41.3268 54.1401 42.2683 54.0925C43.8129 54.0138 45.4004 54.0853 46.9306 54.3046C47.2596 54.3475 47.6052 54.4166 47.9365 54.3856L47.9151 54.6169C47.2167 55.8635 45.0047 56.7549 43.7557 57.3318C42.6211 56.9289 41.5008 56.3235 40.495 55.6656C40.1017 55.4106 39.6488 55.115 39.4032 54.7074C39.2721 54.4929 39.3246 54.4929 39.377 54.2665L39.3746 54.2689Z" fill="#AC4835"/>
<path d="M52.606 85.2085C53.0636 84.9654 53.9765 85.1274 54.5033 85.0988C55.9954 85.0202 57.4256 84.6793 58.901 84.5435C52.7681 93.2197 49.841 103.548 51.6358 114.131C51.7789 114.98 51.9433 116.574 52.4796 117.246L52.6584 117.175C52.8753 116.615 52.9254 115.957 53.0231 115.363L53.4974 113.018C54.3269 109.378 55.7618 106.015 57.6663 102.811L59.8616 99.7841C63.5467 95.3078 68.085 91.5083 73.9606 90.5525C74.0654 92.1757 74.1989 93.8871 74.0392 95.5104C73.5458 100.528 70.8142 105.824 67.513 109.562C66.4689 110.744 65.289 111.795 64.0067 112.71C63.3607 113.049 62.4001 113.552 61.9878 114.157C62.0021 114.455 61.952 114.548 62.1689 114.763C62.7076 115.237 63.58 115.306 64.2665 115.368C70.1468 115.904 75.181 113.654 79.6359 109.95C82.9801 107.171 85.9858 103.884 87.4779 99.7293C88.0476 98.1395 88.305 96.5591 88.4576 94.8835C88.4719 93.8109 88.4361 92.4046 88.0714 91.3915L87.988 90.736C88.2407 90.6383 88.5195 90.7456 88.7841 90.7932L90.722 91.1579L96.1518 92.0637C101.527 92.9575 106.12 94.9979 110.694 97.9083C110.437 100.573 109.355 102.842 107.972 105.1C109.862 106.98 111.7 108.899 113.304 111.035C116.539 115.335 118.872 120.328 120.3 125.505C122.717 134.258 122.984 143.468 124.824 152.342C125.246 154.383 125.844 156.385 126.552 158.344L128.373 163.097C128.495 163.455 128.743 163.974 128.771 164.341C128.781 164.463 128.764 164.492 128.736 164.594L119.335 163.717C118.92 163.366 118.593 162.94 118.255 162.52C118.264 162.187 118.117 161.994 117.94 161.724L115.223 157.879C112.942 154.604 110.692 151.305 108.687 147.852C106.575 144.212 104.628 140.412 102.907 136.573L99.7582 129.233C99.5723 128.831 99.4316 128.38 98.9978 128.218C98.9192 127.877 98.9597 127.567 99.0097 127.224C99.0503 126.943 99.0717 126.688 99.0741 126.404L99.1051 126.275C99.3315 125.432 100.035 124.635 100.433 123.849C97.7512 126.564 93.9684 128.614 90.2691 129.57C86.5745 130.575 83.0206 130.749 79.2354 130.17L79.2259 130.151L79.0186 130.156L78.897 130.215C78.6157 130.027 78.2486 130.034 77.9221 129.987L75.8364 129.672L77.5121 116.741L77.3238 115.978C77.0425 116.338 77.0139 116.967 76.8805 117.406C75.486 120.035 74.6161 123.034 73.6793 125.844C71.2337 133.188 69.3626 140.625 67.7585 148.193C66.1901 155.584 64.9053 163.004 64.1902 170.529L64.0806 170.598C62.2404 171.726 59.5398 171.692 57.5162 171.239C56.7772 171.075 56.1194 170.76 55.4329 170.451C55.6236 167.929 55.5139 165.328 55.502 162.799C55.4591 154.709 54.7607 146.498 53.2972 138.537C52.0863 131.951 50.2867 125.327 48.2893 118.939C47.8769 117.621 47.2167 116.426 46.7924 115.132C46.7209 114.913 46.6446 114.741 46.5302 114.539L46.492 114.51C45.0094 108.742 45.4981 102.706 47.3239 97.0859C48.6563 92.9861 50.6633 89.058 52.5559 85.1918L52.6036 85.2013L52.606 85.2085Z" fill="#918F8F"/>
<path d="M77.5146 116.743C78.5229 121.072 78.5419 125.605 79.021 130.015C81.6239 130.227 84.3055 130.582 86.906 130.137C87.5853 130.02 89.7901 129.443 90.274 129.572C86.5794 130.578 83.0255 130.752 79.2403 130.172L79.2308 130.153L79.0234 130.158L78.9019 130.218C78.6206 130.029 78.2535 130.036 77.927 129.989L75.8413 129.674L77.517 116.743H77.5146Z" fill="#5F5E5E"/>
<path d="M88.0762 91.3935L87.9928 90.738C88.2454 90.6403 88.5243 90.7475 88.7889 90.7952L90.7268 91.1599L96.1566 92.0657C96.7191 93.758 97.0027 95.5624 97.1386 97.3358C96.2233 97.2166 95.0887 96.6279 94.171 96.3537L88.4623 94.8831C88.4766 93.8104 88.4409 92.4041 88.0762 91.3911V91.3935Z" fill="#5F5E5E"/>
<path d="M96.1565 92.0679C101.531 92.9617 106.125 95.0021 110.699 97.9124C110.441 100.577 109.359 102.846 107.977 105.104C106.806 106.598 105.629 108.107 104.28 109.444C101.002 112.688 97.0027 115.315 92.7551 117.093C90.7386 117.937 88.5933 118.645 86.4147 118.914C86.1621 118.945 86.1478 118.898 85.9285 118.755L85.8641 118.545C85.9881 118.194 86.2717 118.009 86.5458 117.777L88.4742 116.035C92.6717 112.159 95.5797 107.521 96.6833 101.876C96.9764 100.375 97.0742 98.8683 97.1362 97.3404C97.0027 95.567 96.7166 93.7626 96.1541 92.0703L96.1565 92.0679Z" fill="#403E38"/>
<path d="M96.1566 92.0679C101.532 92.9617 106.125 95.0021 110.699 97.9124C110.441 100.577 109.359 102.846 107.977 105.104C106.807 106.598 105.629 108.107 104.28 109.444C101.002 112.688 97.0028 115.315 92.7552 117.093C90.7387 117.937 88.5935 118.645 86.4149 118.914C86.1622 118.945 86.1479 118.898 85.9286 118.755C86.2552 118.509 87.2301 118.528 87.6829 118.442L87.8045 118.418L89.3515 118.066L89.7209 117.961L90.1476 117.818C91.2035 117.513 92.3119 117.019 93.3297 116.586L93.4918 116.514C94.5834 116.061 95.8086 115.463 96.7978 114.812L97.787 114.216L101.51 111.556L101.729 111.373C102.38 110.901 102.9 110.259 103.531 109.778C104.254 109.225 104.819 108.543 105.426 107.869C106.261 106.946 107.114 105.962 107.779 104.911C107.295 104.351 106.633 103.86 106.075 103.368C103.438 101.042 100.65 98.9398 97.4437 97.4596L97.0648 101.185L96.8216 102.482C96.5308 104.043 95.9683 105.488 95.432 106.972C94.7098 108.97 93.3845 110.76 92.1402 112.459C91.6254 113.163 90.9556 113.821 90.3502 114.455C90.0594 114.76 89.7662 115.179 89.4229 115.42C88.4218 116.121 87.6496 117.21 86.6222 117.932L86.5483 117.775L88.4767 116.033C92.6742 112.157 95.5822 107.518 96.6858 101.874C96.979 100.372 97.0767 98.8659 97.1386 97.338C97.0051 95.5646 96.7191 93.7602 96.1566 92.0679Z" fill="#23211F"/>
<defs>
<linearGradient id="paint0_linear_191_2387" x1="87.8913" y1="175.225" x2="89.8922" y2="169.971" gradientUnits="userSpaceOnUse">
<stop stop-color="#59585A"/>
<stop offset="1" stop-color="#797878"/>
</linearGradient>
<linearGradient id="paint1_linear_191_2387" x1="117.382" y1="183.276" x2="119.742" y2="175.613" gradientUnits="userSpaceOnUse">
<stop stop-color="#999798"/>
<stop offset="1" stop-color="#B6B4B3"/>
</linearGradient>
<linearGradient id="paint2_linear_191_2387" x1="72.5889" y1="15.2558" x2="68.7982" y2="4.3502" gradientUnits="userSpaceOnUse">
<stop stop-color="#838282"/>
<stop offset="1" stop-color="#ABA9A9"/>
</linearGradient>
<linearGradient id="paint3_linear_191_2387" x1="1.97758" y1="26.64" x2="20.3466" y2="7.39691" gradientUnits="userSpaceOnUse">
<stop stop-color="#858383"/>
<stop offset="1" stop-color="#9D9C9C"/>
</linearGradient>
<linearGradient id="paint4_linear_191_2387" x1="150.958" y1="58.8192" x2="155.313" y2="36.6227" gradientUnits="userSpaceOnUse">
<stop stop-color="#CECDCC"/>
<stop offset="1" stop-color="#F2F1F1"/>
</linearGradient>
</defs>
</svg>
