<svg width="103" height="155" viewBox="0 0 103 155" fill="none" xmlns="http://www.w3.org/2000/svg">
<path d="M31.9601 15.4176C30.7461 14.6507 29.4827 13.9345 28.1725 13.2651C21.9177 10.0558 14.9611 12.8023 14.2812 20.3127C14.2604 20.5415 14.3475 20.7651 14.51 20.9171L16.3025 22.5926C16.374 22.7707 16.4039 22.9475 16.3883 23.1307C16.0984 22.9839 15.8748 23.0345 15.7279 23.2724C15.6409 23.4102 15.52 23.5012 15.3731 23.5519L14.5152 23.8365C14.3527 23.8924 14.2656 24.0653 14.3124 24.2278C14.3787 24.4462 14.5152 24.5072 14.7336 24.4202L13.0984 24.6593C12.9255 24.684 12.7942 24.619 12.7072 24.467C12.3874 23.8885 12.26 23.2685 12.3263 22.603C12.3419 22.4353 12.3978 22.2781 12.494 22.1403C12.8137 21.6736 12.7631 21.246 12.3419 20.856C11.7934 20.3439 11.3826 20.2516 11.1032 20.5818C10.1335 19.1754 10.5897 17.8457 12.4693 16.5913C13.0074 16.2313 13.0945 15.4748 12.6526 15.0016C11.7128 14.0008 10.9615 12.8634 10.4078 11.6C10.2154 11.1581 10.5651 10.6706 11.0421 10.7161L16.0997 11.1737C16.2518 11.1893 16.3636 11.0268 16.2921 10.889C15.5356 9.4527 14.8753 7.954 14.3124 6.39551C14.0031 5.55323 13.9056 4.9787 14.0122 4.66935C14.1903 4.15202 14.4944 4.06493 14.9208 4.41588L19.374 8.06188C19.6326 8.27506 20.0239 8.11258 20.0538 7.78242L20.7752 0.313639C20.796 0.116065 20.9727 -0.0269152 21.1716 0.00428058C21.3796 0.0341765 21.5265 0.166759 21.6135 0.405926C22.396 2.54414 23.2331 4.66025 24.1261 6.75296C24.2275 6.99213 24.3952 7.16371 24.6239 7.27029C24.7565 7.33138 24.9138 7.27029 24.9645 7.13381L26.6699 2.75731C27.0806 1.69665 27.4212 1.72135 27.6902 2.8236L29.1681 8.89637C29.3306 9.57098 29.7361 9.78545 30.3861 9.53588L31.8743 8.97176C32.2552 8.83008 32.662 9.10434 32.6659 9.50989C32.6958 11.5051 32.4632 13.4756 31.9601 15.4202V15.4176Z" fill="#F01A1E"/>
<path d="M31.9603 15.4176C32.8078 16.2963 33.6462 17.1893 34.4729 18.0991C43.4651 27.8933 40.378 41.3335 45.3992 52.6107C46.6483 55.4184 48.2887 57.9517 50.3242 60.2173C52.6392 62.7962 55.2791 65.0254 58.2505 66.9049C59.7843 67.8746 64.0283 71.6831 65.5061 68.9248C66.5824 66.9088 66.9685 63.1263 67.1413 60.2628C67.7613 50.1788 68.4256 42.9492 70.6704 34.6368C71.1526 32.8391 71.8376 31.1286 72.7215 29.509C72.8385 29.2958 73.0113 29.1229 73.2245 29.0059C75.0937 28.0051 75.0989 32.7884 75.0469 33.4279C74.9195 34.9968 75.2496 35.093 76.0269 33.7269C78.9918 28.5172 86.5828 20.327 93.3315 20.0073C96.2912 19.8708 97.526 23.0086 96.195 25.3132C95.7322 26.1099 95.0017 27.0796 93.997 28.217C91.1127 31.4873 88.2999 34.7213 85.8328 38.3257C85.7977 38.3816 85.7769 38.4375 85.7717 38.4934C85.7665 38.5753 85.7769 38.6402 85.812 38.6857C85.903 38.817 86.0811 38.8534 86.2175 38.7663C90.0416 36.4357 98.1798 34.8422 101.531 38.8937C103.531 41.3101 100.104 41.8794 98.662 42.4734C98.2916 42.6255 98.2409 43.1233 98.5711 43.3521C99.0585 43.6823 99.5914 43.976 100.166 44.2256C100.638 44.4232 100.856 44.7234 100.826 45.1147C100.811 45.2927 100.688 45.4448 100.522 45.5059C98.5464 46.1805 95.9974 46.1155 93.9164 46.1961C93.104 46.226 92.3228 46.5159 91.5195 46.6887C91.3622 46.7238 91.3063 46.8161 91.3414 46.9734C91.3518 47.0085 91.3713 47.0488 91.4077 47.0852C91.448 47.1203 91.5039 47.1463 91.5754 47.1567C97.1868 47.9028 100.852 50.8326 102.573 55.9357C103.081 57.4279 103.153 59.2008 102.695 60.6372C102.386 61.6068 102.091 61.6016 101.822 60.6164C101.146 58.1337 99.6187 56.4127 97.227 55.4522C97.0542 55.3859 96.9281 55.4314 96.8514 55.599C96.8163 55.6848 96.8007 55.7719 96.8163 55.8681C96.8319 55.95 96.8826 56.0306 96.9684 56.1125C98.146 57.1835 100.239 59.453 100.634 61.0167C100.863 61.9149 100.599 62.0982 99.8371 61.5756C99.4562 61.3118 99.0299 61.0024 98.5529 60.6411C97.6339 59.9508 96.4354 59.5492 95.2981 58.859C93.1508 57.554 90.7084 56.9756 87.9606 57.112C87.9047 57.1172 87.8592 57.1627 87.8592 57.2186L87.854 57.3655C87.854 57.528 87.9359 57.6138 88.0932 57.6294C92.6478 58.0557 95.9129 59.9807 97.877 63.4019C100.482 67.9409 101.324 76.0453 98.2578 80.8026C97.6027 81.823 97.1919 81.732 97.0295 80.5284C96.6837 78.0002 95.6686 75.4616 94.8003 72.9075C94.6027 72.3135 94.2569 71.6935 93.7643 71.0435C93.3432 70.4898 92.9727 69.901 92.6478 69.2719C92.5815 69.1445 92.4801 69.0691 92.3436 69.0379C91.6677 68.8962 91.4857 68.1137 90.6876 68.2463C90.4238 68.2918 90.3224 68.6168 90.5148 68.8052C91.3726 69.6332 91.8445 70.5873 91.9368 71.6688C90.7643 69.3785 89.4281 67.7745 87.9359 66.8607C87.1131 66.3577 86.5295 66.0028 86.1785 65.7949C86.1227 65.765 86.1019 65.6935 86.1279 65.6376C86.1525 65.5817 86.2188 65.5518 86.2799 65.5713C86.6348 65.6883 87.0013 65.7286 87.3718 65.6935C87.494 65.6831 87.6149 65.7143 87.7123 65.7806C88.1491 66.0795 88.7119 66.3343 89.3982 66.5423C90.9515 67.0141 92.1304 68.284 93.3081 69.4357C93.7292 69.8516 93.9944 70.6588 94.5624 70.9695C95.2981 71.3711 95.6893 71.6038 95.7452 71.6649C96.5979 72.5331 97.0607 73.6094 97.1361 74.8936C97.1465 75.0262 97.2179 75.086 97.3492 75.0821L97.4909 75.0769C97.5468 75.0769 97.5715 75.0522 97.5715 74.995C97.5559 74.1774 97.5611 73.5119 97.2166 72.7307C96.75 71.6792 96.4095 70.4716 95.8713 69.5773C94.6677 67.5925 92.805 66.0795 90.286 65.0436C87.4069 63.8607 84.559 64.0336 81.7306 65.5518C80.9234 65.9833 80.9741 66.1406 81.8826 66.0145C84.7318 65.6129 87.0663 66.6241 88.9004 69.0457C89.2604 69.5279 89.4125 70.2285 89.987 70.7316C90.1183 70.8486 90.1898 70.9902 90.2054 71.1683C90.3523 72.8737 90.7032 74.5401 91.2608 76.1648C91.3271 76.3481 91.2713 76.5561 91.1192 76.6822C90.9307 76.8395 90.7539 76.7888 90.5966 76.5405C89.9727 75.55 89.2565 74.6414 88.4441 73.8083C87.7539 73.0973 85.6469 72.1081 84.737 71.8234C81.6045 70.859 78.9892 70.1428 75.958 71.8897C75.663 72.0574 75.6682 72.1133 75.9788 72.047C76.0646 72.0314 76.1413 71.9703 76.2076 71.8637C77.9845 71.3867 79.8536 71.128 81.3809 72.3915C82.3207 73.174 84.2496 75.8542 84.2899 77.3516C84.3107 78.2459 83.5893 78.9764 82.929 79.4742C82.7717 79.5912 82.721 79.7381 82.7769 79.9265C83.3046 81.7294 84.9047 85.2116 83.8792 86.9183C81.3757 91.0764 77.7505 93.7372 73.0139 94.8901L74.1006 93.9048C74.2228 93.7931 74.293 93.6566 74.319 93.4993C74.5425 91.9655 72.8567 92.1228 71.9169 92.4022C71.7336 92.4581 71.5724 92.5439 71.4295 92.6713C71.2319 92.8494 70.9927 92.956 70.7236 92.9859C70.5768 93.0015 70.4494 93.0677 70.3532 93.1795C69.186 94.5301 64.712 94.7835 62.9403 95.0019C62.7674 95.0227 62.6452 95.1137 62.5803 95.2709C62.4737 95.5244 62.4945 95.8351 62.6361 96.2055C62.3164 96.043 62.2553 95.5907 62.4477 94.855C62.514 94.6106 62.4373 94.4183 62.2189 94.2818C60.4615 93.1496 58.8277 91.9811 56.8818 91.0881C53.3827 89.4841 49.6613 87.5903 45.8541 86.8585C43.5287 86.4165 41.1826 86.2697 38.8117 86.4165C36.6436 86.5478 34.3481 87.3615 32.0786 87.8126C31.8251 87.8633 31.5613 87.7723 31.3936 87.5747L29.3217 85.1934C28.8745 84.6761 28.7069 84.7515 28.8186 85.4274C28.9967 86.5296 29.2554 87.6163 29.5959 88.6821C29.6622 88.8797 29.566 89.0929 29.3776 89.18L27.2758 90.1392C27.0678 90.2354 26.8897 90.2003 26.7324 90.0327L25.118 88.3013C24.7632 87.9204 24.2953 87.7632 23.9703 87.9152C23.8637 87.9607 23.8689 88.1596 23.9755 88.4989C24.2095 89.245 24.5188 89.9612 24.9101 90.6423C25.0375 90.8606 25.0479 91.0478 24.9504 91.2012C24.8191 91.3988 24.6709 91.4144 24.5032 91.2415L19.6549 86.271C19.4521 86.0682 19.1064 86.1748 19.0609 86.4594C18.914 87.3836 19.7771 88.8667 19.9292 89.8975C19.9954 90.3394 19.8889 90.3901 19.599 90.0496L13.1311 82.352C13.0089 82.2051 12.771 82.2857 12.7606 82.4794C12.7203 83.4698 12.862 84.4239 13.1922 85.3533C13.4612 86.1202 14.2021 86.7493 14.2892 87.745C14.3048 87.9321 14.2437 87.9633 14.1059 87.8412C12.3642 86.3386 11.0904 84.4902 10.2832 82.3013C9.98421 81.4837 9.71904 80.9716 9.50067 80.7636C8.72858 80.0318 8.47511 80.154 8.74417 81.1237L9.35899 83.3633C9.57216 84.1406 9.34859 84.2978 8.68828 83.8299C7.51974 82.9967 6.46428 80.7272 5.38283 79.4131C3.92573 77.631 2.54402 75.5032 1.2403 73.031C1.39757 71.7415 1.78882 70.0765 2.41274 68.0306C3.88024 63.2225 5.52971 58.4794 7.36376 53.7988C8.06957 51.9868 8.92745 50.249 9.93221 48.5787C10.0492 48.3811 10.0596 48.0666 9.95301 47.6246C10.0388 47.8989 10.1415 48.1069 10.2533 48.2446L9.97381 49.1948C9.92831 49.3521 9.93351 49.5042 9.99461 49.6562C10.6445 51.3473 10.482 53.1541 12.4214 54.0535C13.8681 54.7243 16.2442 54.1848 18.0977 54.5059C19.6159 54.7646 20.5856 54.8711 21.0119 54.8256C25.5613 54.3174 27.1809 48.4591 26.5661 44.5687C26.4192 44.5375 26.3529 44.4115 26.3737 44.1879C26.4699 43.0713 26.3841 41.8365 26.115 40.4808C25.6328 34.8396 23.2307 31.4587 19.6159 27.4982C19.1233 26.9756 19.1792 26.0515 18.7177 25.3547C18.0418 24.35 17.2398 23.431 16.3065 22.5978L14.5141 20.9223C14.3516 20.7703 14.2658 20.5467 14.2853 20.3179C14.9651 12.8089 21.9218 10.061 28.1765 13.2703C29.4868 13.941 30.7502 14.6559 31.9642 15.4228L31.9603 15.4176Z" fill="white"/>
<path d="M22.5924 25.1298L23.6127 25.018C23.6374 25.0739 23.6686 25.1194 23.6985 25.1649C23.7804 25.2767 23.8909 25.3326 24.0287 25.3378C27.8567 25.3833 27.9074 19.8642 23.77 20.1541C23.4503 20.1788 23.2774 20.2815 23.2527 20.4686C23.1409 20.5245 23.0187 20.5297 22.8926 20.4894C22.8978 20.3218 22.9329 20.1645 22.9992 20.0072C23.0551 19.885 23.1617 19.794 23.2891 19.7589C26.5685 18.8296 28.2401 22.4145 26.5685 24.9075C25.6691 26.2529 24.3445 26.3243 22.5924 25.1311V25.1298Z" fill="#B98671"/>
<path d="M23.6128 25.018C27.3237 24.5059 26.9286 20.3322 23.6375 20.5999C23.4295 20.5895 23.3021 20.544 23.2514 20.4687C23.2761 20.2802 23.449 20.1788 23.7687 20.1541C27.9074 19.8642 27.8567 25.3833 24.0274 25.3378C23.8896 25.3326 23.7778 25.2767 23.6972 25.1649C23.6673 25.1194 23.6362 25.0739 23.6115 25.018H23.6128Z" fill="white"/>
<path d="M11.1019 20.5805C11.3814 20.2504 11.7921 20.3413 12.3406 20.8548C12.7618 21.246 12.8125 21.6724 12.4927 22.139C12.3965 22.2755 12.3406 22.4341 12.325 22.6017C12.2587 23.2672 12.3861 23.886 12.7059 24.4657C12.793 24.6178 12.9243 24.6841 13.0971 24.6581L14.7323 24.4189C15.9918 24.3123 16.5456 23.8808 16.3883 23.1295C16.4039 22.9462 16.3727 22.7694 16.3025 22.5913C17.2371 23.4245 18.0391 24.3435 18.7137 25.3483C19.1751 26.0437 19.1205 26.9678 19.6118 27.4917C18.8554 29.0151 17.7479 29.8067 16.296 29.8678C15.1898 29.9132 14.1383 29.7872 13.1374 29.4869C10.4663 29.6949 7.87704 29.6338 5.36449 29.3036C5.13572 29.2737 4.97324 29.0593 5.00963 28.8318C5.45677 25.8318 6.86318 23.3933 9.22886 21.5203C9.83328 21.0433 10.4572 20.7287 11.1032 20.5805H11.1019Z" fill="#FEC725"/>
<path d="M22.8914 20.4895C23.0187 20.5298 23.1396 20.5246 23.2514 20.4688C23.3021 20.5454 23.4295 20.5909 23.6375 20.6C23.3996 20.6858 23.3177 20.7885 23.3996 20.9003C22.7497 20.8093 22.283 21.2148 21.9984 22.1143C21.9633 22.0376 21.8762 22.0376 21.7397 22.1091C21.9282 21.4644 22.309 20.9211 22.8927 20.4895H22.8914Z" fill="#71878D"/>
<path d="M23.6375 20.6013C26.9273 20.3323 27.3238 24.506 23.6128 25.0194L22.5924 25.1312C21.7033 24.1407 21.42 23.1308 21.7397 22.1104C21.8762 22.0389 21.9633 22.0389 21.9984 22.1156C22.014 22.2781 22.0751 22.4354 22.1765 22.5875C22.2623 22.7187 22.3948 22.8058 22.5729 22.8513C23.9533 23.1919 24.715 21.4345 23.4009 20.9016C23.319 20.7898 23.4009 20.6884 23.6388 20.6013H23.6375Z" fill="#010101"/>
<path d="M23.3997 20.9002C24.7151 21.4331 23.9534 23.1905 22.5717 22.8499C22.3936 22.8044 22.2623 22.7174 22.1753 22.5861C22.0739 22.434 22.0128 22.2767 21.9972 22.1142C22.2818 21.2148 22.7485 20.8092 23.3984 20.9002H23.3997Z" fill="#DAE0D7"/>
<path d="M16.387 23.1294C16.5442 23.8807 15.9905 24.3122 14.731 24.4188C14.5126 24.5059 14.3761 24.4448 14.3098 24.2264C14.2643 24.0639 14.3501 23.8911 14.5126 23.8352L15.3705 23.5505C15.5174 23.4998 15.6396 23.4088 15.7253 23.2711C15.8722 23.0319 16.0958 22.9812 16.3857 23.1294H16.387Z" fill="#AA0A11"/>
<path d="M90.3249 27.1407C79.9562 36.2095 73.7573 48.5176 69.2937 61.3169C69.2586 61.4131 69.1975 61.4443 69.1 61.4131L68.9779 61.378C68.9623 61.3728 68.9519 61.3624 68.9571 61.3481C72.1156 48.6592 78.9241 34.473 90.0389 26.8469C90.0844 26.817 90.1507 26.8209 90.191 26.8625L90.3288 27.0094C90.3743 27.0549 90.3691 27.0952 90.3236 27.142L90.3249 27.1407Z" fill="white"/>
<path d="M19.6106 27.4917C23.2254 31.4522 25.6275 34.8331 26.1097 40.4743C26.1201 43.8148 26.2059 46.5731 24.485 49.3339C23.4542 50.9795 20.332 52.4366 18.3667 51.1263C17.7012 50.6792 17.397 50.3088 16.5495 50.3802C13.8225 50.6194 11.9235 51.1211 10.248 48.2368C10.1362 48.1004 10.0348 47.8911 9.94774 47.6168C8.90658 41.1177 13.9694 36.2031 13.1362 29.4856C14.1358 29.7858 15.1873 29.9119 16.2948 29.8664C17.7467 29.8053 18.8541 29.0137 19.6106 27.4904V27.4917Z" fill="#F01A1E"/>
<path d="M17.9663 30.9388C19.7081 34.7563 19.8862 38.8898 18.6565 42.9413C18.6409 42.9816 18.6162 42.9972 18.5746 42.992L18.4434 42.9621C18.3615 42.9413 18.3264 42.8906 18.3368 42.8048C18.9009 38.9301 18.9867 34.8122 17.0019 31.1272C16.9109 30.9544 16.9967 30.7464 17.1851 30.6905L17.3229 30.6502C17.5816 30.5735 17.8558 30.6957 17.9676 30.9401L17.9663 30.9388Z" fill="#AA0A11"/>
<path d="M26.1096 40.4742C26.3787 41.83 26.4645 43.0635 26.3683 44.1813C26.3475 44.4049 26.4138 44.531 26.5607 44.5622C27.1755 48.4513 25.5559 54.3109 21.0065 54.8191C20.5802 54.8646 19.6105 54.758 18.0923 54.4993C16.2388 54.1796 13.8627 54.7177 12.416 54.047C10.4767 53.1488 10.6392 51.3408 9.98924 49.6497C9.92815 49.4976 9.92295 49.3455 9.96844 49.1883L10.2479 48.2381C11.9234 51.1224 13.8224 50.6194 16.5494 50.3815C17.3969 50.31 17.7024 50.6805 18.3666 51.1276C20.3319 52.4378 23.4541 50.9807 24.4849 49.3351C26.2058 46.573 26.12 43.8161 26.1096 40.4755V40.4742Z" fill="white"/>
<path d="M70.4258 68.5985C73.548 59.2866 78.1949 51.7411 85.6689 45.9127C88.0449 44.0591 91.8586 42.0444 94.9457 42.5215C95.5449 42.6124 95.58 42.8061 95.0523 43.1051C94.3062 43.5262 93.4782 43.9279 92.58 44.2983C90.4275 45.1926 88.5688 46.213 86.5683 47.1969C86.3552 47.3035 86.2642 47.4465 86.2889 47.6285C86.3149 47.7857 86.4617 47.8871 86.619 47.8624C88.0865 47.5934 89.5176 47.1267 90.9045 46.4612C90.9708 46.4313 91.0514 46.456 91.0878 46.5171L91.1736 46.6744C91.2191 46.7459 91.2035 46.807 91.1333 46.8525C89.4786 47.9079 87.6706 48.2589 85.9444 49.1116C78.9943 52.5392 73.3881 61.5314 70.7378 68.5985C70.7079 68.6804 70.652 68.7051 70.5701 68.6804L70.4479 68.6349C70.4323 68.6297 70.4232 68.6141 70.4271 68.5998L70.4258 68.5985Z" fill="white"/>
<path d="M90.451 54.9296C90.4159 55.0154 90.3652 55.0765 90.2937 55.1025C85.9328 56.8846 82.1191 57.9712 79.1542 62.1749C79.0775 62.2866 78.9813 62.3074 78.8643 62.236L78.7421 62.1645C78.7071 62.1385 78.6967 62.1086 78.7123 62.0735C81.165 56.9912 85.3739 53.9951 90.9592 53.8586C91.2075 53.8534 91.3504 54.1433 91.188 54.3356C91.0411 54.5137 90.8578 54.6398 90.6498 54.7269C90.5588 54.762 90.4822 54.8387 90.4523 54.9296H90.451Z" fill="white"/>
<path d="M39.2562 58.0115C38.9052 57.5344 38.566 56.9807 38.2358 56.3516C38.0837 56.0617 38.2709 55.7121 38.6011 55.6757C39.6669 55.5691 40.9316 57.3212 41.5413 58.092C42.1054 58.8082 42.6331 59.4374 43.1257 59.9755C44.8883 61.8901 46.4 63.9711 47.6647 66.2159C47.7713 66.4031 47.6595 66.6371 47.4464 66.6735C47.2683 66.7034 47.1006 66.6631 46.9381 66.5565C43.79 64.4092 41.4854 61.053 39.2562 58.0115Z" fill="white"/>
<path d="M46.4962 58.2142C48.4355 59.9963 50.3242 62.5608 51.7059 64.0075C53.3761 65.7545 55.1335 67.3793 56.9858 68.8871C57.4381 69.2575 57.3718 69.4356 56.7882 69.4304C55.6911 69.42 53.9351 67.9577 53.0772 67.3078C51.234 65.917 49.5534 63.7996 47.8675 62.037C46.4403 60.5435 45.2367 58.8277 43.9017 57.2082C43.5924 56.8377 43.5105 56.4816 43.6483 56.1319C43.79 55.7667 44.2371 55.6341 44.5568 55.8629C45.4355 56.492 45.78 57.5539 46.4962 58.2142Z" fill="white"/>
<path d="M91.9341 71.67C93.1066 73.6354 93.4783 75.6865 93.0507 77.8234C92.3397 81.368 91.695 84.8203 90.3795 88.2064C90.1508 88.79 89.7608 89.0435 89.1967 88.9629C88.795 88.9018 88.4298 89.1917 88.3947 89.5972C88.1204 92.7298 87.2015 96.1626 84.9528 98.3255C84.2262 99.0261 83.6932 99.5538 83.2773 100.539C82.3791 102.646 81.2314 104.601 79.8354 106.413L79.825 106.083C79.8198 105.87 79.6066 105.728 79.4038 105.798C77.6374 106.438 76.0477 107.682 74.6166 108.342C72.2249 109.444 70.2193 110.206 68.5893 110.627C65.1877 111.506 63.0495 112.009 62.1812 112.14C57.4238 112.861 52.3714 112.638 47.0252 111.469C46.5326 111.363 46.0296 111.525 45.4966 111.174C45.3602 111.083 45.2068 111.033 45.0391 111.017C43.7237 110.895 42.4447 110.631 41.2059 110.22C39.9113 109.794 38.9416 109.509 38.2917 109.373C36.8242 109.058 33.5903 108.382 32.7324 107.463C31.3559 105.985 29.8377 104.671 28.1726 103.513C28.0452 103.422 27.9646 103.452 27.9295 103.609C27.7008 104.65 29.011 105.66 29.7727 106.026C30.1743 106.223 30.1691 106.396 29.748 106.548C29.5348 106.625 29.245 106.599 28.8745 106.462C17.1761 102.096 5.72595 93.9165 0.379777 82.3195C0.334283 82.2129 0.182204 82.2233 0.140609 82.3299L0.0847168 82.4924C0.119812 79.6743 0.50586 76.521 1.23766 73.0232C2.54268 75.4954 3.92309 77.6232 5.3802 79.4053C6.46165 80.7207 7.51841 82.9902 8.68565 83.8221C9.34596 84.29 9.56953 84.1314 9.35636 83.3554L8.74154 81.1159C8.47248 80.1462 8.72594 80.024 9.49804 80.7558C9.71641 80.9638 9.98027 81.4772 10.2805 82.2935C11.0877 84.4824 12.3615 86.3294 14.1033 87.8333C14.2398 87.9555 14.3009 87.9243 14.2866 87.7372C14.2008 86.7415 13.4586 86.1124 13.1895 85.3455C12.8594 84.4161 12.7177 83.462 12.758 82.4716C12.7684 82.2792 13.0063 82.1973 13.1284 82.3442L19.5964 90.0417C19.8862 90.3823 19.9928 90.3316 19.9265 89.8897C19.7744 88.8589 18.9114 87.3771 19.0582 86.4516C19.1037 86.167 19.4495 86.0604 19.6523 86.2631L24.5006 91.2337C24.6683 91.4065 24.8152 91.3909 24.9477 91.1934C25.0439 91.0413 25.0335 90.8528 24.9074 90.6345C24.5162 89.9533 24.2068 89.2384 23.9729 88.491C23.8663 88.1505 23.8611 87.9529 23.9677 87.9074C24.2926 87.7553 24.7593 87.9126 25.1154 88.2935L26.7298 90.0248C26.8871 90.1925 27.0651 90.2276 27.2731 90.1314L29.3749 89.1722C29.5634 89.0864 29.6596 88.8732 29.5933 88.6743C29.2528 87.6085 28.9941 86.5218 28.816 85.4196C28.7042 84.7437 28.8719 84.6683 29.319 85.1856L31.391 87.5669C31.5586 87.7644 31.8225 87.8567 32.076 87.8047C34.3455 87.3524 36.6409 86.54 38.8091 86.4087C41.1799 86.2618 43.5261 86.4087 45.8515 86.8507C49.66 87.5812 53.3814 89.4763 56.8792 91.0803C58.8237 91.9733 60.4589 93.1418 62.2163 94.274C62.4346 94.4104 62.5113 94.6041 62.445 94.8472C62.2527 95.5829 62.3138 96.0352 62.6335 96.1977C63.7761 97.8836 68.9649 96.056 70.3661 95.4763C70.7977 95.2982 71.6764 95.1006 73.0113 94.8823C77.7492 93.7293 81.3744 91.0699 83.8765 86.9105C84.9021 85.2038 83.3033 81.7216 82.7743 79.9187C82.7184 79.7302 82.7691 79.5834 82.9263 79.4664C83.5867 78.9685 84.3068 78.238 84.2873 77.3438C84.247 75.8464 82.3167 73.1648 81.3783 72.3836C79.8497 71.1189 77.9818 71.3789 76.205 71.8559C76.1387 71.9625 76.0633 72.0236 75.9762 72.0392C75.6668 72.1055 75.6616 72.0496 75.9554 71.8819C78.9866 70.1349 81.6018 70.8511 84.7344 71.8156C85.643 72.1003 87.7513 73.0907 88.4415 73.8004C89.2539 74.6336 89.9701 75.5422 90.594 76.5327C90.7513 76.7809 90.9294 76.8329 91.1165 76.6744C91.2686 76.547 91.3245 76.339 91.2582 76.157C90.6993 74.5322 90.3496 72.8672 90.2028 71.1605C90.1872 70.9824 90.1157 70.8407 89.9844 70.7238C89.4099 70.2207 89.2578 69.5201 88.8977 69.0379C87.065 66.6163 84.7292 65.6051 81.88 66.0067C80.9714 66.1341 80.9207 65.9755 81.7279 65.544C84.5563 64.0258 87.4042 63.8529 90.2833 65.0357C92.8024 66.0717 94.665 67.5847 95.8687 69.5695C96.4068 70.4638 96.7474 71.6713 97.214 72.7229C97.5598 73.5054 97.5546 74.1696 97.5689 74.9872C97.5689 75.0431 97.5442 75.0691 97.4883 75.0691L97.3466 75.0743C97.214 75.0795 97.1438 75.0184 97.1334 74.8858C97.058 73.6016 96.5953 72.5253 95.7426 71.657C95.6867 71.5959 95.2955 71.362 94.5598 70.9616C93.9917 70.6523 93.7266 69.8451 93.3054 69.4278C92.1278 68.2749 90.9502 67.0063 89.3956 66.5344C88.7106 66.3265 88.1464 66.0717 87.7097 65.7727C87.6135 65.7064 87.4913 65.6765 87.3691 65.6856C86.9987 65.7207 86.6321 65.6805 86.2773 65.5635C86.2162 65.5427 86.1499 65.5739 86.1252 65.6298C86.1005 65.6856 86.12 65.7571 86.1759 65.787C86.5256 65.995 87.1105 66.3512 87.9333 66.8529C89.4255 67.7667 90.7617 69.3719 91.9341 71.6609V71.67Z" fill="white"/>
<path d="M65.3137 74.8936C62.4047 72.9438 59.4697 70.8017 57.195 68.1098C57.1235 68.024 57.1599 67.8862 57.2665 67.8511C57.3328 67.8303 57.3939 67.8056 57.4498 67.7744C57.5667 67.7081 57.6785 67.7082 57.7851 67.7848C58.1504 68.024 58.5975 68.1657 58.9069 68.4399C60.1963 69.5721 61.253 70.4248 62.9025 71.3386C64.5832 72.2783 65.9649 73.4248 67.0412 74.7714C67.3362 75.1418 67.2491 75.3602 66.7825 75.4317C66.4224 75.4876 65.9298 75.3043 65.315 74.8936H65.3137Z" fill="white"/>
<path d="M65.857 81.6982C66.746 81.6735 67.2894 81.6982 67.4765 81.78C68.9336 82.3845 68.8882 82.8407 67.3401 83.1514C64.9185 83.6388 62.2682 83.0448 59.389 81.3745C59.029 81.1613 58.8197 80.8468 58.7651 80.4295L58.7456 80.2619C58.7144 80.0279 58.9432 79.8459 59.1668 79.9265C62.5333 81.1405 64.7625 81.7294 65.8583 81.6982H65.857Z" fill="white"/>
<path d="M79.834 106.414C75.1572 112.538 67.3076 116.056 59.8596 117.183C59.5139 117.234 59.2396 117.508 59.1889 117.859C58.6001 121.895 56.5074 126.816 51.9944 127.781C51.8267 127.816 51.7045 127.908 51.6291 128.066C51.5889 128.146 51.5629 128.233 51.5577 128.319C51.0598 127.648 50.4307 127.694 49.6638 128.461C49.7496 128.232 49.7353 128.034 49.6235 127.867C49.5468 127.76 49.3947 127.673 49.166 127.613C46.5507 126.937 44.5555 125.491 43.1699 123.272C42.9671 122.947 42.546 122.84 42.2106 123.029C39.1794 124.76 35.9455 125.948 32.5178 126.603C32.371 126.629 32.254 126.71 32.1773 126.848C32.0655 127.04 32.0499 127.228 32.137 127.406C31.7769 127.066 30.9178 126.991 29.5672 127.178C27.2822 126.827 25.4598 125.969 24.1041 124.599C21.8541 122.329 20.1435 119.643 18.9711 116.536C18.8437 116.196 18.5291 115.921 18.0365 115.718C16.8641 115.231 15.7371 114.647 14.6648 113.966C3.81515 107.075 -0.68354 94.9798 0.0833553 82.495L0.139248 82.3325C0.179542 82.2259 0.332921 82.2155 0.378415 82.3221C5.72459 93.9191 17.1747 102.099 28.8731 106.465C29.2436 106.602 29.5335 106.628 29.7466 106.551C30.1678 106.399 30.173 106.226 29.7713 106.028C29.0096 105.663 27.6994 104.652 27.9282 103.612C27.9633 103.455 28.0452 103.423 28.1712 103.516C29.8363 104.674 31.3545 105.988 32.731 107.466C33.5889 108.385 36.8229 109.061 38.2904 109.375C38.9403 109.512 39.9099 109.796 41.2046 110.223C42.4433 110.634 43.7236 110.899 45.0377 111.02C45.2054 111.035 45.3575 111.086 45.4953 111.177C46.0282 111.527 46.5312 111.365 47.0239 111.472C52.37 112.64 57.4225 112.863 62.1798 112.143C63.0481 112.01 65.185 111.508 68.5879 110.63C70.2179 110.209 72.2235 109.447 74.6152 108.345C76.0476 107.684 77.636 106.44 79.4025 105.801C79.6052 105.729 79.8184 105.872 79.8236 106.085L79.834 106.416V106.414Z" fill="white"/>
<path d="M72.3055 90.1158C71.6192 90.7917 68.8168 91.0958 67.8679 91.1309C67.4467 91.1465 67.2024 90.6591 67.4662 90.3289C68.3345 89.2371 73.5741 87.9736 74.961 87.7397C75.3016 87.6786 75.6161 87.9373 75.6265 88.283C75.6564 89.3593 73.4883 89.705 72.7279 89.8818C72.5706 89.9221 72.4238 90.004 72.3068 90.1158H72.3055Z" fill="white"/>
<path d="M43.058 98.7128C43.1035 98.7284 43.1451 98.7479 43.1854 98.7843C46.2374 101.491 48.8721 103.521 52.9744 104.415C53.5684 104.543 53.7309 104.253 54.1468 104.069C55.8275 103.323 57.3054 102.282 58.5844 100.947C58.7729 100.755 58.8794 100.657 58.9093 100.652C59.2798 100.617 59.3305 100.748 59.0666 101.054C57.8838 102.43 56.4878 103.547 54.8773 104.394C54.1819 104.76 54.2274 104.988 55.0047 105.085C56.1823 105.226 57.538 105.237 58.5493 104.44C59.7425 103.495 61.2295 101.22 62.7334 100.895C64.2815 100.56 65.8361 100.219 67.3946 99.8696C67.7455 99.7929 68.2629 99.4329 68.7802 99.4589C68.9479 99.4693 69.1104 99.4381 69.2624 99.3679C70.1606 98.952 71.1004 98.7336 72.0909 98.7128C72.512 98.7076 72.5432 98.809 72.1779 99.0222C71.7256 99.2808 71.2434 99.3874 70.7312 99.3419C70.5493 99.3263 70.3764 99.3575 70.2087 99.4381L69.2442 99.9099C69.0714 99.9957 68.8894 100.017 68.7009 99.9762C68.4267 99.9151 68.2031 99.997 68.0302 100.224C67.9444 100.341 67.817 100.417 67.6754 100.443C66.0454 100.752 64.4414 101.159 62.8621 101.652C61.314 102.134 60.3132 103.627 59.2317 104.749C59.0185 104.973 59.038 105.17 59.298 105.343C59.4956 105.474 59.801 105.521 60.2222 105.485C64.5532 105.074 69.2247 104.377 74.2356 103.399C76.1697 103.018 77.8257 102.541 79.0839 101.103C79.0995 101.088 79.1138 101.088 79.1346 101.103L79.236 101.205C79.2867 101.255 79.2971 101.337 79.2568 101.397C77.6424 103.829 74.2499 105.424 71.58 106.332C70.184 106.804 68.3305 107.185 66.0298 107.465C62.8569 107.856 60.5822 107.968 59.1953 107.805C58.0931 107.678 56.9869 107.546 55.8795 107.419C54.824 107.297 53.7932 106.876 52.717 106.647C51.7473 106.449 50.5593 105.941 49.1529 105.134C43.6949 101.981 38.2058 95.02 37.6572 88.5716C37.652 88.556 37.6624 88.5469 37.678 88.5469H37.8093C37.8392 88.5469 37.86 88.5625 37.8756 88.5924C39.191 92.1214 40.8769 95.4619 42.9332 98.6153C42.9644 98.6608 43.0047 98.6959 43.0606 98.7115L43.058 98.7128Z" fill="#D9823D"/>
<path d="M53.5997 101.764C51.5083 101.454 49.903 101.134 48.1925 99.793C47.1513 98.9858 46.1413 98.1331 45.1613 97.244C44.8766 96.9854 44.9832 96.7917 44.7596 96.5226C43.0893 94.517 41.7336 92.3086 40.6873 89.9013C40.6522 89.8155 40.6717 89.7545 40.7588 89.709L40.8809 89.6479C40.916 89.6323 40.942 89.6375 40.9576 89.6726C41.9572 91.6275 43.1556 93.4499 44.5581 95.1305C45.7306 96.5369 47.0811 97.4767 48.6604 98.6192C50.4632 99.9347 52.4936 100.757 54.754 101.097C54.9723 101.132 55.0074 101.229 54.8605 101.392C54.5707 101.722 54.1495 101.844 53.601 101.762L53.5997 101.764Z" fill="#D9823D"/>
<path d="M54.3718 96.2043C50.8792 96.2341 46.8121 94.4326 44.3034 92.0864C44.1864 91.9798 44.1461 91.8121 44.202 91.6601L44.2631 91.4872C44.2982 91.3806 44.3645 91.3598 44.4555 91.4261C47.796 93.8178 50.9494 94.6861 54.4173 95.9248C54.936 96.1081 54.9204 96.1991 54.3718 96.2043Z" fill="#D9823D"/>
<path d="M73.0112 94.8887C71.6762 95.1071 70.7976 95.3047 70.366 95.4828C68.9648 96.0612 63.7759 97.8887 62.6334 96.2042C62.4917 95.8337 62.4709 95.5231 62.5775 95.2696C62.6438 95.1123 62.766 95.0213 62.9375 95.0005C64.7092 94.7822 69.1832 94.5287 70.3504 93.1782C70.4466 93.0664 70.574 93.0001 70.7209 92.9845C70.9899 92.9546 71.2291 92.848 71.4267 92.6699C71.5684 92.5426 71.7308 92.4568 71.9141 92.4009C72.8539 92.1214 74.5397 91.9641 74.3162 93.4979C74.2902 93.6552 74.22 93.793 74.0978 93.9035L73.0112 94.8887Z" fill="white"/>
<path d="M32.1369 127.405L32.0602 130.634L31.903 130.74C31.8211 130.791 31.7509 130.781 31.695 130.705L31.5884 130.564C31.5481 130.513 31.4922 130.487 31.4311 130.482L29.4918 130.354L29.5685 127.176C30.919 126.988 31.7769 127.065 32.1382 127.405H32.1369Z" fill="#AA0A11"/>
<path d="M51.559 128.319L51.5343 133.148C51.4069 133.438 51.2145 133.544 50.9455 133.468C50.5698 133.366 50.2605 133.386 50.0213 133.523C49.7119 133.707 49.4377 133.716 49.1985 133.559L49.6652 128.461C50.432 127.694 51.0612 127.648 51.559 128.319Z" fill="#AA0A11"/>
<path d="M32.0617 130.634L32.1981 134.498L32.3151 140.078C32.3255 140.713 32.8481 141.216 33.4837 141.211C34.7679 141.2 36.1899 141.282 37.7432 141.459C38.6414 141.565 39.2354 142.037 39.5252 142.881C39.6318 143.195 39.4187 143.531 39.0885 143.566C38.5855 143.622 38.124 143.789 37.621 143.774C34.2961 143.657 31.8277 143.276 28.8173 145.044C26.1618 146.597 23.3035 148.029 20.2359 149.34C19.8446 149.507 19.4235 149.182 19.4794 148.761C19.586 147.994 19.9109 147.355 20.4542 146.838C20.6323 146.67 20.5101 146.371 20.2658 146.366L19.9252 146.355C20.2099 146.112 20.5491 145.934 20.9508 145.822C21.1029 145.777 21.1899 145.681 21.2094 145.523C21.2549 145.163 21.3771 144.847 21.5747 144.578C21.7021 144.411 21.6657 144.289 21.4785 144.208C20.397 143.74 18.1731 144.381 17.3867 144.472C19.1843 143.268 17.5283 140.78 20.7376 140.674C23.1189 140.597 25.4495 140.415 27.7242 140.12C28.3286 140.043 28.6743 139.699 28.7549 139.094L29.3138 134.789L29.4919 130.357L31.4312 130.484C31.4923 130.49 31.5482 130.514 31.5885 130.566L31.6951 130.708C31.751 130.785 31.8225 130.794 31.9031 130.743L32.0604 130.637L32.0617 130.634Z" fill="#D9823D"/>
<path d="M51.5329 133.148L51.5225 134.311L51.3809 143.791C51.3757 144.161 51.685 144.451 52.0503 144.425C53.7309 144.303 55.3765 144.46 56.9857 144.892C57.5082 145.033 57.8189 145.369 57.9151 145.902L57.9411 146.039C57.997 146.344 57.7383 146.613 57.4276 146.572C51.6694 145.806 48.2834 147.614 44.2318 151.737C43.3935 152.117 42.2106 152.909 40.682 154.102C40.1738 154.504 39.6305 154.59 39.0468 154.361C38.8948 154.3 38.7934 154.193 38.7414 154.036C38.406 152.99 38.5737 152.224 39.2444 151.735C40.8848 151.12 42.3159 150.233 43.5403 149.075C43.7691 148.861 43.7288 148.78 43.4181 148.826C41.9506 149.05 40.3051 150.152 39.0364 150.909C37.7262 151.386 33.741 152.757 32.5022 152.392C32.4775 151.925 32.523 151.686 32.6439 151.67C34.8731 150.386 36.5746 149.619 37.7366 149.38C39.026 149.116 39.8748 148.898 40.2856 148.73C40.3259 148.715 40.3519 148.685 40.3675 148.644C40.3831 148.583 40.3779 148.538 40.3519 148.508C40.3259 148.473 40.2752 148.462 40.1998 148.468C37.5442 148.777 34.9849 149.453 32.523 150.498L31.7002 149.747C31.335 149.406 31.3961 148.812 31.8276 148.559C33.6812 147.472 35.6413 146.635 37.7015 146.05C37.8536 146.004 37.9654 145.913 38.0317 145.77C38.1786 145.471 38.1071 145.227 37.8289 145.04C37.6716 144.933 37.656 144.806 37.7834 144.659C37.9056 144.528 38.0681 144.435 38.276 144.39C39.2717 144.166 40.0633 143.918 41.1344 144.03C43.2362 144.243 45.3133 144.046 47.3592 143.436C47.5217 143.385 47.6387 143.284 47.7089 143.132C48.8215 140.841 48.9684 137.572 49.0958 135.048L49.1972 133.56C49.4363 133.717 49.7106 133.707 50.02 133.525C50.2591 133.387 50.5685 133.367 50.9441 133.469C51.2132 133.546 51.4069 133.439 51.5329 133.149V133.148Z" fill="#D9823D"/>
<path d="M19.9264 146.354C18.7436 146.654 17.54 146.953 16.3168 147.257C15.6825 147.415 15.1847 147.38 14.8194 147.156C14.3931 146.897 14.3567 146.593 14.7129 146.242C15.5148 145.456 16.4091 144.862 17.3892 144.471C18.1756 144.38 20.3996 143.74 21.481 144.207C21.6695 144.287 21.7046 144.409 21.5772 144.577C21.3796 144.846 21.2575 145.161 21.212 145.522C21.1912 145.679 21.1054 145.776 20.9533 145.821C20.553 145.933 20.2124 146.111 19.9277 146.354H19.9264Z" fill="#C75712"/>
<path d="M32.6453 151.67C32.6557 151.026 32.6154 150.634 32.5231 150.498C34.9863 149.451 37.5456 148.777 40.1999 148.467C40.2765 148.462 40.3272 148.473 40.3519 148.508C40.3766 148.538 40.3818 148.584 40.3675 148.644C40.3519 148.685 40.3272 148.716 40.2856 148.73C39.8749 148.898 39.0261 149.116 37.7367 149.38C36.5734 149.619 34.8732 150.386 32.644 151.67H32.6453Z" fill="white"/>
<path d="M39.2458 151.735C39.4186 151.293 39.3471 151.019 39.0378 150.907C40.3077 150.151 41.952 149.048 43.4195 148.825C43.7288 148.779 43.7704 148.86 43.5417 149.073C42.3172 150.231 40.8861 151.119 39.2458 151.734V151.735Z" fill="white"/>
</svg>
