<svg width="198" height="155" viewBox="0 0 198 155" fill="none" xmlns="http://www.w3.org/2000/svg">
<path d="M96.5169 101.476C96.0496 106.364 102.14 119.13 102.803 120.683C106.053 128.294 102.489 137.76 102.489 137.76C102.489 137.76 117.495 141.38 117.425 140.938C118.937 136.095 113.979 131.23 115.003 131.299C118.515 131.54 119.88 130.915 117.646 128.331C115.104 125.391 115.201 127.807 115.131 127.772C114.755 127.582 114.274 125.504 114.026 124.734C113.144 121.998 112.42 118.006 112.63 115.212C113.793 110.533 112.506 110.174 112.118 108.693C111.786 107.425 111.513 105.131 111.513 105.131L96.5188 101.476H96.5169Z" fill="url(#paint0_radial_102_13690)"/>
<path d="M117.291 141.256C115.798 141.256 102.968 138.163 102.423 138.033L102.117 137.96L102.227 137.663C102.262 137.57 105.713 128.211 102.545 120.794C102.475 120.629 102.341 120.334 102.161 119.935C100.591 116.46 95.8149 105.889 96.2376 101.451L96.2686 101.129L111.765 104.906L111.788 105.098C111.79 105.121 112.064 107.388 112.387 108.623C112.473 108.951 112.61 109.228 112.758 109.519C113.25 110.504 113.807 111.622 112.907 115.256C112.7 118.112 113.479 122.122 114.293 124.649C114.353 124.837 114.427 125.1 114.511 125.395C114.633 125.829 114.846 126.586 115.034 127.076C115.152 126.824 115.36 126.591 115.74 126.591C116.267 126.591 116.94 127.086 117.857 128.147C118.862 129.308 119.199 130.13 118.922 130.739C118.644 131.344 117.795 131.625 116.248 131.625C115.938 131.625 115.591 131.613 115.21 131.592C115.313 131.807 115.513 132.145 115.697 132.453C116.76 134.247 118.732 137.574 117.712 140.957L117.721 141.021L117.634 141.134C117.531 141.254 117.371 141.254 117.295 141.254L117.291 141.256ZM102.853 137.562C107.425 138.662 115.786 140.608 117.204 140.696C118.08 137.582 116.221 134.44 115.214 132.742C114.689 131.858 114.474 131.491 114.633 131.21C114.701 131.09 114.827 131.022 114.982 131.022H115.022C115.476 131.055 115.889 131.071 116.248 131.071C117.826 131.071 118.297 130.766 118.414 130.51C118.532 130.252 118.456 129.698 117.435 128.517C116.372 127.288 115.895 127.154 115.74 127.154C115.585 127.154 115.496 127.322 115.433 127.714C115.418 127.807 115.381 128.053 115.133 128.053H115.067L115.007 128.022C114.668 127.85 114.423 127.152 113.973 125.546C113.892 125.259 113.82 125.001 113.762 124.819C112.928 122.237 112.133 118.122 112.352 115.19L112.36 115.144C113.219 111.69 112.709 110.669 112.259 109.767C112.108 109.462 111.949 109.146 111.85 108.762C111.569 107.69 111.334 105.939 111.263 105.356L96.7805 101.825C96.6758 104.797 98.6574 110.808 102.677 119.702C102.859 120.106 102.995 120.404 103.067 120.573C105.998 127.441 103.427 135.881 102.861 137.56L102.853 137.562Z" fill="#676667"/>
<path d="M152.819 118.029C152.816 119.059 152.455 124.084 155.185 123.774C157.944 123.46 157.839 117.507 157.944 116.144L152.819 118.029Z" fill="url(#paint1_radial_102_13690)"/>
<path d="M156.959 116.507L152.819 118.029C152.817 118.783 152.623 121.684 153.595 123.057C155.805 122.01 156.689 118.977 156.959 116.507Z" fill="url(#paint2_radial_102_13690)"/>
<path d="M154.95 124.067C154.421 124.067 153.967 123.877 153.602 123.503C152.441 122.312 152.507 119.534 152.536 118.345C152.538 118.217 152.542 118.108 152.542 118.027V117.833L158.258 115.731L158.225 116.166C158.213 116.321 158.203 116.536 158.192 116.796C158.103 118.876 157.895 123.747 155.217 124.051C155.124 124.061 155.035 124.067 154.95 124.067ZM153.096 118.227C153.096 118.269 153.096 118.314 153.094 118.36C153.069 119.38 153.005 122.093 154.002 123.113C154.262 123.379 154.572 123.508 154.95 123.508C155.016 123.508 155.084 123.505 155.155 123.497C157.358 123.247 157.552 118.709 157.633 116.772C157.637 116.697 157.639 116.623 157.643 116.553L153.096 118.225V118.227Z" fill="#7C484E"/>
<path d="M147.38 118.17C147.377 119.2 147.016 124.226 149.746 123.916C152.505 123.602 152.4 117.649 152.505 116.286L147.38 118.17Z" fill="url(#paint3_radial_102_13690)"/>
<path d="M151.52 116.648L147.38 118.17C147.378 118.925 147.185 121.825 148.156 123.198C150.366 122.151 151.251 119.119 151.52 116.648Z" fill="url(#paint4_radial_102_13690)"/>
<path d="M149.509 124.208C148.98 124.208 148.526 124.018 148.162 123.644C147 122.454 147.066 119.675 147.095 118.486C147.099 118.359 147.101 118.25 147.101 118.168V117.975L152.817 115.873L152.784 116.307C152.773 116.462 152.763 116.677 152.751 116.937C152.662 119.018 152.455 123.888 149.777 124.193C149.684 124.203 149.595 124.208 149.509 124.208ZM147.656 118.366C147.656 118.409 147.656 118.454 147.654 118.5C147.629 119.52 147.565 122.233 148.561 123.252C148.821 123.518 149.131 123.648 149.509 123.648C149.575 123.648 149.643 123.644 149.715 123.636C151.918 123.386 152.112 118.849 152.193 116.912C152.197 116.834 152.199 116.763 152.203 116.693L147.656 118.364V118.366Z" fill="#7C484E"/>
<path d="M147.128 117.583C146.812 120.802 146.203 123.214 144.421 123.214C141.78 123.214 141.266 118.865 141.138 116.579L141.173 116.404L147.128 117.583Z" fill="url(#paint5_radial_102_13690)"/>
<path d="M145.292 117.22L141.173 116.404L141.138 116.579C141.239 118.388 141.583 121.484 143.029 122.7C144.648 122.469 145.753 119.605 145.292 117.218V117.22Z" fill="url(#paint6_radial_102_13690)"/>
<path d="M144.423 123.493C142.975 123.493 141.183 122.297 140.862 116.594V116.559L140.957 116.076L147.433 117.358L147.408 117.61C147.107 120.666 146.537 123.493 144.423 123.493ZM141.43 116.739C141.61 119.607 142.281 122.934 144.423 122.934C145.725 122.934 146.448 121.397 146.826 117.808L141.43 116.739Z" fill="#7C484E"/>
<path d="M141.771 115.512C140.91 116.887 139.814 121.461 137.633 121.024C135.397 120.501 135.624 112.159 135.624 112.159C135.622 112.262 141.771 115.512 141.771 115.512Z" fill="url(#paint7_radial_102_13690)"/>
<path d="M140.807 115.002C139.078 114.083 135.622 112.239 135.624 112.161C135.624 112.161 135.514 116.303 136.229 118.932C137.546 121.633 140.543 116.567 140.807 115.004V115.002Z" fill="url(#paint8_radial_102_13690)"/>
<path d="M137.92 121.333C137.808 121.333 137.691 121.321 137.577 121.298C135.18 120.736 135.32 113.028 135.343 112.152L135.622 112.158L135.812 111.958C136.064 112.158 139.679 114.091 141.899 115.264L142.164 115.403L142.005 115.657C141.796 115.993 141.565 116.542 141.298 117.178C140.522 119.027 139.558 121.331 137.918 121.331L137.92 121.333ZM135.894 112.656C135.863 115.807 136.303 120.425 137.695 120.753C137.765 120.767 137.844 120.774 137.92 120.774C139.188 120.774 140.111 118.574 140.784 116.964C141.001 116.445 141.197 115.979 141.383 115.624C138.063 113.87 136.567 113.063 135.892 112.656H135.894Z" fill="#7C484E"/>
<path d="M163.8 113.559C144.336 129.205 127.76 105.272 127.76 105.272C127.76 105.272 142.38 93.1652 152.344 98.1019C154.859 99.1257 163.146 109.09 163.798 113.561L163.8 113.559Z" fill="url(#paint9_radial_102_13690)"/>
<path d="M155.596 111.624C157.335 103.421 146.673 102.486 140.611 98.8949C133.588 101.134 127.76 105.272 127.76 105.272C127.76 105.272 135.655 116.67 146.946 118.591C151.92 119.066 154.63 115.84 155.594 111.624H155.596Z" fill="url(#paint10_radial_102_13690)"/>
<path d="M150.145 119.146C137.177 119.146 127.624 105.569 127.529 105.431L127.384 105.22L127.581 105.057C127.684 104.974 137.854 96.64 146.975 96.64C148.997 96.64 150.845 97.0471 152.468 97.8518C155.125 98.9338 163.429 109.1 164.075 113.521L164.098 113.68L163.974 113.781C159.544 117.342 154.89 119.148 150.145 119.148V119.146ZM128.142 105.323C129.404 107.037 138.354 118.585 150.145 118.585C154.716 118.585 159.206 116.856 163.497 113.443C162.681 108.929 154.46 99.2634 152.239 98.3598C150.675 97.5862 148.91 97.1984 146.975 97.1984C138.76 97.1984 129.613 104.159 128.14 105.325L128.142 105.323Z" fill="#7C484E"/>
<path d="M45.0835 58.6262C45.0835 58.6262 58.6641 67.8422 61.846 82.9605C62.9629 88.2694 62.3114 109.78 86.3373 106.242C88.8521 106.242 98.2814 101.282 111.761 107.266C114.305 108.396 130.201 113.086 143.051 102.889C146.88 99.8509 149.884 100.497 153.992 100.142C158.69 99.7365 176.956 104.305 185.192 86.2994C191.928 71.5767 194.339 35.0559 178.274 33.8693C164.664 32.8629 157.707 34.8175 153.455 35.6997C146.494 37.1423 141.563 36.3744 138.579 36.0254C135.136 35.6221 121.817 35.7928 114.553 33.0452C110.986 31.6957 102.679 23.4065 91.0859 28.5758C81.2862 27.8604 68.3862 17.9599 68.3862 17.9599L45.0816 58.6282L45.0835 58.6262Z" fill="url(#paint11_radial_102_13690)"/>
<path d="M178.464 33.6444C164.854 32.638 157.897 34.5925 153.645 35.4748C146.684 36.9174 141.753 36.1495 138.767 35.8005C135.324 35.3972 122.005 35.5678 114.741 32.8203C111.174 31.4708 102.867 23.1816 91.2738 28.3509C81.4742 27.6355 68.5741 17.735 68.5741 17.735L68.2503 18.2992C70.5868 22.3013 70.6585 26.1153 72.0255 30.6099C74.8196 38.7109 74.7265 45.9084 71.0948 53.7303C69.1965 57.5268 64.6244 59.5182 60.0232 60.4876C56.882 61.6123 56.5059 64.0612 58.2005 67.3555C58.3343 67.689 58.4662 68.0206 58.6 68.3541C60.5331 71.2529 62.3364 74.968 63.4106 79.573C66.6972 93.685 68.3821 96.132 70.8136 98.1524C74.0924 100.877 78.0208 101.656 82.2672 101.662C88.0919 101.668 98.5818 91.554 104.757 91.1662C106.888 91.0324 100.567 99.69 110.485 102.856C117.223 105.009 125.543 109.119 138.823 101.674C141.032 100.435 142.775 100.167 144.955 99.2111C145.146 99.1277 145.338 99.0424 145.528 98.9571C154.692 94.8736 161.998 90.158 171.577 88.5156C177.698 89.4735 181.807 84.9925 184.578 78.6443C180.44 80.8741 175.976 82.7123 171.515 83.1815C164.732 83.4646 158.045 82.4292 151.264 80.4514C142.222 77.9075 137.042 71.8772 130.259 65.944C126.303 62.2696 120.651 63.9662 115.565 63.6831C118.39 60.5749 123.195 58.5971 126.868 60.0087C136.192 63.6831 143.822 69.6164 152.864 74.4192C153.994 74.9835 155.689 76.1139 156.819 76.6801C163.036 78.9409 170.099 78.9409 176.316 76.9632C179.443 76.1818 182.809 73.9597 186.195 74.2835C188.999 65.4553 189.898 54.8801 190.243 49.7379C188.857 40.9388 185.229 34.1485 178.462 33.6482L178.464 33.6444Z" fill="url(#paint12_radial_102_13690)"/>
<path d="M92.8154 60.9666C96.7244 62.0931 97.7268 63.5163 98.7525 66.3453C99.9799 69.7288 102.241 72.8137 105.458 72.4221C109.155 71.9722 110.443 66.6342 110.906 65.0889C111.74 62.3006 112.605 56.4507 114.957 49.7224C115.236 48.9216 116.091 46.1082 118.868 45.3229C124.149 43.8279 127.318 46.4203 129.344 46.3699C133.953 46.2555 136.714 44.524 138.191 42.9709C139.698 41.3848 140.922 37.8539 141.449 36.1515C140.224 36.0429 139.167 35.9033 138.285 35.8005C134.841 35.3972 121.522 35.5678 114.259 32.8203C110.691 31.4708 102.384 23.1816 90.7911 28.351C89.9224 29.0664 86.8317 28.9656 83.2581 28.5487L81.3618 36.452C79.6865 42.808 83.737 58.3489 92.8173 60.9666H92.8154Z" fill="url(#paint13_radial_102_13690)"/>
<path d="M174.976 38.6159C167.712 42.4571 165.477 50.5581 167.712 53.3871C169.448 55.5859 171.23 58.3354 171.018 59.6384C170.807 60.9414 169.207 65.1703 174.138 68.486C178.797 71.6174 183.548 77.3219 186.786 81.7079C190.377 70.5335 193.435 53.2766 186.664 40.0353C182.276 39.3741 175.346 38.4298 174.976 38.6159Z" fill="url(#paint14_radial_102_13690)"/>
<path d="M187.973 42.9651C187.583 41.9704 187.151 40.9932 186.662 40.0372C182.274 39.376 175.344 38.4317 174.974 38.6179C167.71 42.459 165.475 50.5601 167.71 53.3891C169.446 55.5879 171.228 58.3374 171.016 59.6403C170.805 60.9433 169.205 65.1723 174.136 68.4879C177.432 70.7042 181.723 75.3577 184.545 78.7723C187.639 75.3073 190.187 51.0293 187.973 42.967V42.9651Z" fill="url(#paint15_radial_102_13690)"/>
<path d="M123.556 109.381C117.452 109.381 112.725 107.876 111.42 107.297C107.04 105.354 102.59 104.367 98.1905 104.367C94.0605 104.367 90.7894 105.22 88.6236 105.786C87.5028 106.079 86.6904 106.29 86.132 106.296C84.3656 106.556 82.669 106.688 81.0926 106.688C64.3824 106.688 62.5811 92.2482 61.7144 85.3105C61.5883 84.2964 61.4778 83.42 61.346 82.7937C58.2242 67.9643 44.8355 58.7251 44.6998 58.6339L44.4846 58.4885L68.0781 17.3181L68.3321 17.512C68.4601 17.6109 81.2167 27.3252 90.8127 28.0659C93.3275 26.9549 95.887 26.3906 98.4193 26.3906C104.085 26.3906 108.646 29.1827 111.663 31.0325C112.764 31.7073 113.714 32.289 114.428 32.5585C119.892 34.6255 128.945 35.0346 134.356 35.2789C136.138 35.3603 137.544 35.4224 138.39 35.5213L139.043 35.5988C140.656 35.7947 142.663 36.037 145.17 36.037C147.836 36.037 150.454 35.7617 153.178 35.1975C153.595 35.1102 154.039 35.0133 154.512 34.9105C157.845 34.1814 162.885 33.082 170.784 33.082C173.095 33.082 175.552 33.1111 178.075 33.3632C182.038 33.7587 184.683 35.688 186.849 39.471C193.127 50.432 191.328 74.4347 185.451 86.3944C178.612 100.312 165 100.312 160.527 100.312C159.162 100.312 157.927 100.264 156.835 100.223C155.509 100.171 154.437 100.138 153.793 100.194C152.932 100.27 152.123 100.299 151.34 100.328C148.453 100.436 145.961 100.531 142.998 102.882C137.565 107.194 131.023 109.379 123.558 109.379L123.556 109.381ZM98.1905 103.808C102.668 103.808 107.197 104.811 111.647 106.787C112.923 107.353 117.549 108.823 123.556 108.823C130.893 108.823 137.317 106.678 142.649 102.447C145.754 99.9828 148.333 99.8858 151.317 99.7733C152.092 99.7443 152.893 99.7132 153.742 99.6395C154.417 99.5814 155.505 99.6143 156.852 99.6667C157.938 99.7093 159.17 99.7559 160.523 99.7559C164.911 99.7559 178.261 99.7559 184.944 86.15C190.761 74.3106 192.557 50.5736 186.358 39.7502C184.289 36.1379 181.487 34.1776 178.026 33.9216C175.513 33.7355 173.074 33.6424 170.778 33.6424C162.939 33.6424 157.936 34.736 154.627 35.4592C154.151 35.5639 153.706 35.6609 153.287 35.7481C150.526 36.3201 147.871 36.5993 145.166 36.5993C142.626 36.5993 140.6 36.3531 138.971 36.1573L138.32 36.0797C137.496 35.9827 136.098 35.9207 134.327 35.8393C128.885 35.593 119.773 35.18 114.228 33.082C113.464 32.7931 112.492 32.1978 111.37 31.5095C108.405 29.6946 103.926 26.951 98.4174 26.951C95.9413 26.951 93.4361 27.5074 90.9736 28.6049L90.9096 28.634L90.8398 28.6282C81.8294 27.9709 70.116 19.5324 68.2468 18.146L45.2253 58.3198C46.9703 59.5782 58.9416 68.6604 61.8928 82.6773C62.0285 83.3249 62.1409 84.213 62.2689 85.2387C63.1162 92.0194 64.8769 106.125 81.0926 106.127C82.6476 106.127 84.3229 105.997 86.0699 105.74L86.1106 105.736C86.5973 105.736 87.4292 105.519 88.482 105.243C90.675 104.671 93.9868 103.806 98.1905 103.806V103.808Z" fill="#676667"/>
<path d="M181.332 87.6702L166.221 90.8365C166.221 90.8365 172.787 116.703 174.603 117.61C182.495 126.83 178.468 140.845 178.468 140.845C178.468 140.845 192.355 146.396 192.822 145.884C194.918 142.532 189.83 137.306 190.947 136.818C195.207 135.98 191.727 132.35 190.97 130.997C189.644 128.621 189.338 123.908 190.203 119.332C192.134 109.1 187.742 106.059 186.012 104.152C181.764 99.4669 181.427 88.5989 181.427 88.5989L181.334 87.6682L181.332 87.6702Z" fill="url(#paint16_radial_102_13690)"/>
<path d="M192.685 146.196C191.149 146.196 179.668 141.624 178.365 141.105L178.131 141.012L178.2 140.769C178.241 140.63 182.084 126.822 174.419 117.825C172.523 116.48 167.042 95.2012 165.952 90.9064L165.88 90.6233L181.58 87.3328L181.704 88.5738C181.708 88.6998 182.09 99.4127 186.22 103.965C186.395 104.157 186.602 104.367 186.821 104.588C188.847 106.635 192.239 110.06 190.478 119.384C189.621 123.923 189.918 128.536 191.215 130.861C191.333 131.07 191.525 131.346 191.746 131.666C192.566 132.841 193.687 134.452 193.181 135.709C192.908 136.385 192.192 136.847 191.058 137.081C190.998 137.285 191.484 138.202 191.841 138.873C192.882 140.833 194.459 143.796 193.059 146.034L193.03 146.074C192.917 146.198 192.745 146.198 192.687 146.198L192.685 146.196ZM178.8 140.678C182.437 142.128 191.31 145.566 192.642 145.638C193.761 143.68 192.31 140.952 191.345 139.135C190.713 137.946 190.391 137.304 190.538 136.878C190.589 136.732 190.689 136.624 190.833 136.562L190.891 136.544C191.862 136.354 192.458 136.001 192.661 135.499C193.055 134.524 191.99 132.996 191.287 131.986C191.056 131.654 190.856 131.369 190.726 131.134C189.369 128.705 189.047 123.941 189.927 119.281C191.634 110.246 188.37 106.951 186.422 104.981C186.199 104.755 185.987 104.541 185.805 104.342C181.537 99.6357 181.161 89.0585 181.146 88.6106L181.086 88.0076L166.565 91.0499C169.103 101.02 173.5 116.745 174.728 117.36L174.778 117.385L174.815 117.428C182.14 125.985 179.286 138.753 178.802 140.676L178.8 140.678Z" fill="#676667"/>
<path d="M187.048 81.5003C185.103 87.4491 183.372 89.5432 181.739 92.5002C179.337 96.8474 176.981 102.414 178.144 105.629C180.101 111.031 177.475 114.649 176.795 116.012C174.652 120.295 174.259 125.096 174.039 126.396C172.862 133.403 174.96 137.153 175.292 137.896C177.041 141.832 172.18 142.64 171.556 142.923C170.251 143.517 169.88 149.489 169.88 149.489L158.023 142.801C158.023 142.801 157.432 142.439 157.589 141.7C164.957 133.599 162.972 118.139 162.475 116.418C157.515 99.2013 143.694 98.893 143.694 98.893L186.938 81.7078L187.046 81.4984L187.048 81.5003Z" fill="url(#paint17_radial_102_13690)"/>
<path d="M171.903 122.849C172.446 119.161 180.401 109.495 174.278 104.272C172.275 103.248 181.483 84.4903 182.98 81.5701L143.103 99.0578C143.103 99.0578 157.517 99.2731 162.477 116.489C162.974 118.211 164.959 133.671 157.591 141.772C157.432 142.51 158.025 142.873 158.025 142.873L167.559 148.17C169.285 143.978 167.666 143.501 171.811 140.032C173.954 138.239 169.529 138.96 171.905 122.849H171.903Z" fill="url(#paint18_radial_102_13690)"/>
<path d="M170.132 149.952L157.888 143.046C157.847 143.022 157.12 142.563 157.318 141.642L157.333 141.568L157.383 141.512C164.591 133.587 162.72 118.273 162.208 116.495C159.677 107.711 155.059 103.63 151.629 101.753C149.882 100.797 148.259 100.299 147.025 100.041C145.633 99.7481 144.706 99.2013 144.706 99.2013C144.836 99.2013 148.026 99.1547 151.869 101.247C155.402 103.172 160.156 107.353 162.745 116.34C163.292 118.238 165.277 133.577 157.851 141.828C157.785 142.301 158.13 142.538 158.173 142.565L169.632 149.029C169.756 147.426 170.196 143.234 171.441 142.669C171.538 142.625 171.689 142.58 171.901 142.516C172.775 142.252 174.596 141.706 175.195 140.403C175.501 139.736 175.449 138.931 175.038 138.008C175.017 137.962 174.987 137.899 174.954 137.828C173.427 134.611 173.027 130.749 173.766 126.347C173.797 126.167 173.83 125.917 173.873 125.608C174.136 123.66 174.687 119.605 176.546 115.884C176.624 115.731 176.723 115.551 176.839 115.341C177.729 113.74 179.581 110.409 177.884 105.72C176.651 102.315 179.168 96.5759 181.497 92.3605C181.879 91.6703 182.266 91.0246 182.679 90.3421C183.99 88.1685 185.441 85.7583 186.926 81.2211L187.48 81.3142C185.978 85.9134 184.485 88.4302 183.158 90.629C182.749 91.3077 182.363 91.9495 181.987 92.6301C178.774 98.4451 177.504 103.027 178.412 105.528C180.196 110.455 178.26 113.938 177.33 115.611C177.219 115.811 177.122 115.985 177.049 116.132C175.23 119.77 174.689 123.762 174.429 125.682C174.386 125.996 174.351 126.252 174.32 126.438C173.601 130.723 173.985 134.475 175.463 137.585C175.499 137.663 175.53 137.727 175.554 137.779C176.031 138.853 176.083 139.815 175.707 140.633C175.003 142.167 173.019 142.762 172.065 143.049C171.891 143.102 171.74 143.148 171.676 143.175C170.881 143.536 170.313 147.092 170.163 149.504L170.136 149.95L170.132 149.952Z" fill="#676667"/>
<path d="M28.0688 17.8727C28.0688 17.8727 24.1579 11.2607 6.88351 13.8706C5.59408 14.0645 2.68172 14.4504 1.30117 13.9113C-0.0774478 13.9269 -0.498218 16.37 2.88918 21.1903C3.54262 22.121 13.3306 34.7748 23.8767 28.2792C24.2955 27.5812 28.0669 17.8727 28.0669 17.8727H28.0688Z" fill="url(#paint19_linear_102_13690)"/>
<path d="M6.88373 13.8706C5.59431 14.0645 2.68195 14.4504 1.30139 13.9113C0.293121 13.923 -0.199387 15.2337 0.93104 17.8203C4.11873 21.7855 15.264 29.9157 25.1412 24.8743C26.3046 22.0841 28.069 17.8727 28.069 17.8727C28.069 17.8727 24.1581 11.2607 6.88373 13.8706Z" fill="url(#paint20_linear_102_13690)"/>
<path d="M17.6294 30.4063C9.26076 30.4063 2.7264 21.4423 2.66241 21.3512C0.467481 18.2295 -0.449663 15.5963 0.209591 14.3108C0.430635 13.8784 0.818429 13.6379 1.29736 13.6321H1.35165L1.40207 13.6515C2.31533 14.0083 4.21358 13.9908 6.8409 13.5953C9.53221 13.1881 12.0684 12.9826 14.3777 12.9826C25.3718 12.9826 28.1949 17.5372 28.3093 17.7311L28.3791 17.8475L28.3307 17.9735C28.1755 18.371 24.5458 27.713 24.1192 28.4227L24.0843 28.4808L24.0261 28.5157C21.9921 29.7683 19.8398 30.4043 17.6294 30.4043V30.4063ZM1.25471 14.1925C1.00845 14.2099 0.824236 14.334 0.705958 14.5648C0.291016 15.3733 0.673008 17.5527 3.11807 21.0293C3.18011 21.1166 9.54191 29.8459 17.6275 29.8459C19.7099 29.8459 21.742 29.2506 23.6693 28.0795C24.1076 27.2302 26.698 20.626 27.7548 17.9095C27.2564 17.2309 24.0862 13.541 14.3777 13.541C12.0975 13.541 9.58845 13.7446 6.92429 14.1479C4.2291 14.5551 2.29206 14.5725 1.25471 14.1944V14.1925Z" fill="#676667"/>
<path d="M18.9229 17.4034C18.4091 17.2968 17.905 17.2425 17.4183 17.2347C18.5293 17.3705 19.4969 17.578 20.3306 17.832C19.8924 17.6536 19.4212 17.5081 18.9229 17.4034Z" fill="#E7949C"/>
<path d="M20.3302 17.8319C19.4965 17.5779 18.5289 17.3705 17.4179 17.2347C15.3781 16.9846 12.8458 16.9827 9.70073 17.4189C9.21598 17.4868 6.13882 17.8203 3.44945 16.3719C2.85806 16.0539 1.9448 15.9919 3.7655 18.5164C4.85909 20.0327 4.91725 20.5271 5.8945 21.6944C7.7346 23.8893 15.2889 29.1188 23.5645 27.2321C24.0182 27.0576 25.3115 21.2252 25.3115 21.2252C25.3115 21.2252 24.2761 19.0341 20.3322 17.8319H20.3302Z" fill="url(#paint21_radial_102_13690)"/>
<path d="M16.6635 19.0323C12.1554 17.9349 7.04035 20.3974 2.88899 16.2208C2.55354 16.2732 2.52058 16.7909 3.76541 18.5166C4.859 20.0329 4.91716 20.5273 5.89441 21.6946C7.62398 23.7576 12.0604 26.8872 18.6432 27.5018C21.6273 26.6021 21.8232 20.2888 16.6635 19.0343V19.0323Z" fill="url(#paint22_radial_102_13690)"/>
<path d="M19.9482 27.9147C13.061 27.9147 7.26534 23.7652 5.67926 21.8747C5.12858 21.2174 4.86101 20.7676 4.55078 20.246C4.30259 19.8291 4.02338 19.356 3.53669 18.6832C2.32677 17.0059 2.33065 16.4805 2.47025 16.209C2.55751 16.0384 2.73201 15.9395 2.94918 15.9395C3.19155 15.9395 3.44943 16.0578 3.57934 16.1295C5.2585 17.035 7.09665 17.225 8.34342 17.225C9.03951 17.225 9.5262 17.1649 9.65805 17.1475C11.3721 16.909 13.0009 16.7888 14.4997 16.7888C23.4132 16.7888 25.4763 20.9343 25.5577 21.1108L25.5984 21.198L25.5771 21.2911C24.2528 27.269 23.8049 27.4415 23.6594 27.4978L23.6207 27.5094C22.4282 27.7809 21.1911 27.9185 19.9444 27.9185L19.9482 27.9147ZM2.96662 16.496C2.9705 16.622 3.06939 17.0777 3.99041 18.3535C4.49067 19.0477 4.77763 19.5324 5.03164 19.959C5.32831 20.4593 5.5862 20.8917 6.10779 21.5141C7.64152 23.3445 13.2568 27.3543 19.9482 27.3543C21.1291 27.3543 22.3002 27.2263 23.4307 26.9743C23.7196 26.5574 24.4486 23.8059 25.0129 21.2659C24.6832 20.7094 22.3623 17.3414 14.5016 17.3414C13.028 17.3414 11.4245 17.4596 9.73562 17.6943C9.59407 17.7137 9.07635 17.7777 8.34342 17.7777C7.03266 17.7777 5.09563 17.576 3.31371 16.6162C3.15859 16.5328 3.03642 16.4999 2.96468 16.494L2.96662 16.496Z" fill="#676667"/>
<path d="M36.0304 7.22182C36.0304 7.22182 27.8944 9.28294 26.3219 4.77674C25.2128 1.59681 26.2521 -0.0765305 24.4004 0.34229C23.493 0.656405 19.3125 3.39232 21.6878 9.07353C22.6689 11.4216 26.3898 14.5686 29.8838 15.2201C30.4888 15.0805 36.0304 7.22374 36.0304 7.22374V7.22182Z" fill="url(#paint23_radial_102_13690)"/>
<path d="M26.3236 4.77674C25.2145 1.59681 26.2538 -0.0765305 24.4021 0.34229C23.7041 0.584663 21.0709 2.26189 20.974 5.61052C21.3133 8.00516 23.2271 10.2311 25.517 10.935C28.8579 11.9626 31.9564 10.7876 35.0006 8.67024C35.6152 7.8132 36.0321 7.22374 36.0321 7.22374C36.0321 7.22374 27.8961 9.28488 26.3236 4.77868V4.77674Z" fill="url(#paint24_radial_102_13690)"/>
<path d="M29.8916 15.5052L29.8335 15.4935C26.256 14.8265 22.4479 11.6097 21.4318 9.18019C20.5108 6.9775 20.443 4.97065 21.2302 3.21199C22.0581 1.3622 23.6636 0.301575 24.3112 0.0785916L24.3403 0.0708518C25.7926 -0.258775 25.8643 0.605992 25.9846 1.74805C26.0602 2.47711 26.1649 3.47569 26.5876 4.68756C27.3748 6.94259 30.0002 7.41572 32.0633 7.41572C34.1264 7.41572 35.9451 6.95812 35.9626 6.95424L36.6936 6.77002L36.2592 7.38663C34.1671 10.3533 30.5644 15.352 29.9478 15.4954L29.8916 15.509V15.5052ZM24.4799 0.611812C23.9196 0.813466 22.4808 1.79073 21.7401 3.4408C21.0188 5.0521 21.0886 6.90964 21.9476 8.96496C22.8996 11.2413 26.4596 14.2506 29.8393 14.9254C30.3977 14.4969 33.0017 11.0106 35.3906 7.64451C34.6518 7.78411 33.4148 7.97027 32.0633 7.97027C28.8426 7.97027 26.7679 6.89801 26.0602 4.86789C25.6162 3.59592 25.5076 2.55855 25.43 1.80235C25.3156 0.706825 25.2497 0.555597 24.8832 0.555597C24.7746 0.555597 24.6409 0.573028 24.4799 0.60793V0.611812Z" fill="#676667"/>
<path d="M18.0114 57.0556C19.1981 64.3889 22.9423 61.1973 26.0194 62.1784C31.7937 64.0185 32.7496 63.9545 35.4254 62.923C39.4857 61.3582 43.9938 59.966 52.886 59.3611C66.1719 58.4575 69.633 52.4079 70.9515 49.0244C73.094 43.5293 72.7218 25.2776 72.5356 24.7192C72.3088 20.8878 67.6106 14.2894 67.6106 14.2894C67.6106 14.2894 54.887 -2.88609 32.9571 10.4987C32.261 11.7784 19.7565 22.1714 23.6674 30.9356C22.6902 31.9128 19.1283 37.5708 19.5471 40.0857C19.9659 42.6005 18.0114 57.0576 18.0114 57.0576V57.0556Z" fill="url(#paint25_radial_102_13690)"/>
<path d="M72.5724 24.7173C72.3475 20.8858 67.6474 14.2875 67.6474 14.2875C67.6474 14.2875 65.9488 11.9975 62.7262 9.74055C62.3152 9.84332 61.9022 9.91119 61.4892 9.91119C62.0476 11.5884 64.2832 10.7488 65.1209 12.1468C63.4456 12.7052 61.2623 13.8473 59.3059 13.5681C59.62 14.0044 60.1959 13.9869 61.1576 14.3534C58.032 15.0766 54.4177 15.86 51.9028 13.6263C52.182 14.4639 52.3217 16.6104 51.9726 16.7984C51.1175 17.3258 48.4456 16.525 46.9429 14.2545C44.9283 18.1887 42.2118 18.4097 40.0809 17.7699C40.0809 17.7699 42.4251 15.8871 42.683 12.6258C41.2869 13.7426 40.5113 16.4514 40.0867 17.3278C39.4875 17.3181 37.8627 16.2749 38.3164 13.5875C36.0807 14.1459 34.3415 16.3176 30.4402 15.8057C29.9439 15.6835 28.6079 15.7301 32.3113 13.4653C33.149 12.9069 32.9493 13.064 34.4248 11.8598C33.4903 12.1914 32.7224 12.5559 31.5086 12.1449C28.1348 15.6738 20.5359 23.8389 23.7042 30.9375C34.0429 28.1047 23.7333 36.8921 24.1521 39.407C24.443 41.1521 19.0216 49.3326 18.4709 53.7574C18.6493 54.1316 18.8316 54.5078 19.0235 54.8937C19.8612 56.2897 20.3498 58.1376 21.4666 58.9752C22.3043 59.5336 24.8036 59.4735 26.1997 59.7527C29.5522 60.5904 31.3651 61.6898 34.5354 60.5303C45.605 56.4797 55.0634 58.2481 64.004 52.6599C69.6038 49.3927 70.3271 40.9388 71.4517 34.2377C71.6475 28.5623 72.6693 25.0178 72.5724 24.7231V24.7173Z" fill="url(#paint26_radial_102_13690)"/>
<path d="M32.3385 63.9215C31.0162 63.9215 29.401 63.5492 25.9341 62.444C25.5114 62.3102 25.0383 62.2462 24.445 62.2462C24.0727 62.2462 23.6887 62.2715 23.3184 62.2947C22.948 62.318 22.5661 62.3432 22.1977 62.3432C20.028 62.3432 18.4399 61.4513 17.7361 57.1002L17.7303 57.0595L17.7361 57.0188C17.7555 56.8753 19.6809 42.5753 19.2737 40.1302C18.8471 37.5649 22.221 32.161 23.3417 30.8793C20.2219 23.4918 28.1116 15.2511 31.4951 11.7164C32.0942 11.0901 32.612 10.551 32.7128 10.363L32.7477 10.297L32.8117 10.2582C38.4037 6.84564 43.9026 5.11412 49.1553 5.11412C61.0258 5.11412 67.7696 14.0315 67.8355 14.1207C68.0314 14.396 72.5802 20.8238 72.8148 24.692C73.0203 26.0202 73.3345 43.6824 71.2132 49.1232C68.7158 55.5296 62.7282 58.9694 52.9053 59.6383C43.7378 60.2627 39.2937 61.7305 35.5262 63.1828C34.2562 63.6714 33.4127 63.9215 32.3385 63.9215ZM24.4469 61.6878C25.0984 61.6878 25.6258 61.7596 26.1047 61.9108C29.5096 62.9947 31.0821 63.3612 32.3385 63.3612C33.3255 63.3612 34.1185 63.1246 35.3246 62.6612C39.1327 61.1953 43.6234 59.7101 52.8666 59.0818C62.4509 58.4303 68.2815 55.1069 70.6916 48.9216C72.842 43.4032 72.4115 25.4172 72.268 24.7948L72.2564 24.7328C72.0373 21.0254 67.4303 14.5143 67.3837 14.4484C67.3217 14.365 60.7369 5.67255 49.1553 5.67255C44.0267 5.67255 38.6441 7.36335 33.1607 10.6984C32.9978 10.9466 32.6139 11.3518 31.8965 12.1022C28.5634 15.5827 20.7609 23.7322 23.9234 30.8192L24.0009 30.9957L23.8652 31.1314C22.9073 32.0912 19.4308 37.691 19.8224 40.0372C20.2374 42.521 18.4302 56.0318 18.2926 57.0517C19.008 61.4164 20.6135 61.7828 22.1957 61.7828C22.5467 61.7828 22.9035 61.7596 23.2816 61.7363C23.6616 61.7111 24.0533 61.6878 24.445 61.6878H24.4469Z" fill="#676667"/>
<path d="M54.9354 16.9982C50.2315 17.0796 45.2774 21.1573 45.3472 33.1926C45.3762 38.1699 48.8121 46.1837 59.4048 41.4798C62.1504 40.2601 72.3572 34.8892 66.1098 24.1763C63.4456 19.61 60.4751 16.9012 54.9354 16.9962V16.9982Z" fill="url(#paint27_radial_102_13690)"/>
<path d="M66.8795 16.8954C70.5694 17.7331 74.6083 13.2715 74.5152 8.72456C74.4434 5.18591 71.9034 1.65501 68.3686 2.15914C67.7171 2.53143 68.1592 3.95272 68.2523 5.30225C68.3454 6.65178 67.4612 9.81812 61.4542 9.21316C58.569 12.6936 64.8164 16.4281 66.8795 16.8954Z" fill="url(#paint28_radial_102_13690)"/>
<path d="M71.7659 9.42647C72.6656 6.50249 71.5933 3.4001 69.1231 2.11456C68.8768 2.11068 68.6267 2.12231 68.3688 2.15915C67.7173 2.53143 68.1594 3.95272 68.2525 5.30225C68.3455 6.65179 67.4614 9.81813 61.4544 9.21317C59.7985 11.2123 61.1519 13.2928 62.9959 14.7916C66.7924 14.9855 70.7053 13.2366 71.764 9.42647H71.7659Z" fill="url(#paint29_radial_102_13690)"/>
<path d="M67.7968 17.2774C67.4652 17.2774 67.1356 17.2405 66.8176 17.1688C65.1598 16.7926 61.4641 14.685 60.609 12.1682C60.2289 11.0532 60.4422 9.99845 61.2411 9.03478L61.3361 8.92036L61.4835 8.93589C64.1437 9.20347 66.0653 8.74975 67.1298 7.60963C67.9965 6.6828 67.9946 5.6241 67.9732 5.32162C67.95 4.97648 67.9015 4.62165 67.8549 4.28039C67.7095 3.21007 67.5854 2.28516 68.2292 1.91676L68.2757 1.88963L68.328 1.88187C68.5665 1.84697 68.805 1.83145 69.0397 1.83145C72.5066 1.83145 74.7267 5.40694 74.7946 8.71872C74.8411 11.0397 73.8503 13.4634 72.142 15.2066C70.8332 16.5425 69.2898 17.2774 67.7948 17.2774H67.7968ZM61.5785 9.50594C60.9871 10.2777 60.8397 11.1134 61.1364 11.9878C61.9294 14.3224 65.6116 16.3215 66.9398 16.624C68.5084 16.9807 70.2806 16.3079 71.7426 14.8149C73.3462 13.1784 74.2788 10.902 74.2342 8.7284C74.1722 5.67838 72.1672 2.38794 69.0397 2.38794C68.8516 2.38794 68.6616 2.39956 68.4696 2.42477C68.1982 2.64775 68.3048 3.43693 68.4095 4.20282C68.456 4.55378 68.5064 4.91638 68.5317 5.28091C68.5569 5.63962 68.5588 6.89607 67.5389 7.98772C66.3697 9.2403 64.3551 9.758 61.5785 9.504V9.50594Z" fill="#676667"/>
<path d="M24.1386 25.997C23.0392 28.8938 23.4347 31.7305 25.0227 32.3335C26.6108 32.9366 28.7902 31.0771 29.8896 28.1803C30.989 25.2834 30.5934 22.4467 29.0054 21.8437C27.4174 21.2406 25.238 23.1001 24.1386 25.997Z" fill="#050505"/>
<path d="M24.0283 26.2005C22.9987 28.9112 23.369 31.5657 24.8562 32.128C26.3415 32.6923 28.3813 30.953 29.409 28.2423C30.4386 25.5316 30.0682 22.8771 28.581 22.3129C27.0957 21.7486 25.0559 23.4879 24.0283 26.1986V26.2005Z" fill="url(#paint30_radial_102_13690)"/>
<path d="M25.4455 32.5158C25.2051 32.5158 24.9744 32.4731 24.7572 32.3917C23.9389 32.0815 23.3941 31.2361 23.2234 30.0106C23.0606 28.8453 23.2545 27.457 23.7683 26.1036C24.701 23.6469 26.4383 21.9309 27.9934 21.9309C28.2338 21.9309 28.4645 21.9736 28.6836 22.055C30.3376 22.6832 30.7738 25.4463 29.6725 28.3431C28.7399 30.7998 27.0025 32.5158 25.4494 32.5158H25.4455ZM27.9914 22.4893C26.6845 22.4893 25.1275 24.0929 24.2899 26.3014C23.809 27.5695 23.6268 28.8589 23.7761 29.9331C23.9176 30.9472 24.3364 31.6355 24.955 31.8701C25.1081 31.9283 25.273 31.9574 25.4455 31.9574C26.7524 31.9574 28.3094 30.3538 29.147 28.1453C30.103 25.6266 29.7985 23.0768 28.482 22.5766C28.3288 22.5184 28.1621 22.4893 27.9914 22.4893Z" fill="#020202"/>
<path d="M25.1739 26.7745C24.3886 28.6243 24.6581 30.509 25.7769 30.9821C26.8957 31.4572 28.4372 30.3423 29.2225 28.4925C30.0078 26.6427 29.7383 24.758 28.6195 24.2849C27.5007 23.8098 25.9592 24.9247 25.1739 26.7745Z" fill="#050505"/>
<path style="mix-blend-mode:screen" d="M26.4401 26.7435C26.4401 27.3717 26.9985 27.8817 27.6868 27.8817C28.3752 27.8817 28.9336 27.3717 28.9336 26.7435C28.9336 26.1153 28.3752 25.6053 27.6868 25.6053C26.9985 25.6053 26.4401 26.1153 26.4401 26.7435Z" fill="url(#paint31_radial_102_13690)"/>
<path d="M29.6026 22.1675C29.6026 22.1675 30.6865 32.8339 19.5257 39.3741C17.0341 40.33 16.5687 39.153 15.4965 41.7609C15.543 42.5986 18.3642 51.4578 24.3673 53.0051C26.1667 53.4685 25.5773 54.4012 32.0496 57.8933C38.5452 62.1532 45.161 52.8984 47.2047 50.7055L30.2269 22.0589L29.6026 22.1656V22.1675Z" fill="url(#paint32_radial_102_13690)"/>
<path d="M35.6134 59.2874C34.3938 59.2874 33.1451 58.9462 31.8983 58.1279C28.1619 56.1133 26.7503 54.9266 25.9069 54.2189C25.3019 53.7109 24.9994 53.4569 24.2995 53.2746C18.0269 51.6556 15.2599 42.4958 15.2192 41.7745L15.2153 41.7125L15.2386 41.6543C15.9812 39.8452 16.4892 39.7056 17.5693 39.5602C18.0346 39.4982 18.6124 39.4206 19.4055 39.1181C29.9438 33.1868 29.5929 22.3362 29.591 22.2373C29.591 22.2373 31.146 32.8339 19.6633 39.6145L19.6265 39.6319C18.7617 39.9635 18.1432 40.0469 17.6449 40.1128C16.7568 40.2311 16.4175 40.2776 15.7834 41.7978C15.9405 42.7576 18.6803 51.2465 24.4371 52.7317C25.2612 52.945 25.6393 53.2611 26.2656 53.7885C27.0916 54.4826 28.476 55.646 32.1834 57.6451C37.7599 61.3001 43.3228 54.8026 45.9967 51.6808C46.3341 51.2852 46.6268 50.9459 46.8615 50.6919L47.2706 51.0719C47.0437 51.3163 46.7548 51.6536 46.4213 52.0434C44.3951 54.4089 40.2204 59.2816 35.6134 59.2836V59.2874Z" fill="#676667"/>
<path d="M39.3131 47.6613C39.063 45.6816 38.6848 40.9214 33.7947 41.8986C33.0967 42.108 27.4349 44.078 23.1788 42.4919C20.8966 41.6427 14.401 38.453 14.3429 44.6849C14.339 45.0126 14.3428 46.6123 15.2503 47.9036C16.784 50.0869 12.6579 57.4958 17.1718 58.3994C18.8355 58.7329 20.7299 57.837 22.3237 57.2806C24.5361 56.5069 26.9618 57.0401 30.0234 58.4459C30.8009 58.8027 36.0381 62.8047 41.8415 56.3634C42.7955 55.3047 39.6156 50.0462 39.3131 47.6593V47.6613Z" fill="url(#paint33_radial_102_13690)"/>
<path d="M37.857 55.4851C38.3688 54.8917 38.8458 54.027 38.8458 53.1796C39.4101 50.0714 38.14 47.2909 37.857 44.1828C37.7775 43.5468 37.537 42.934 37.1744 42.3931C36.395 41.8463 35.313 41.5981 33.7967 41.9006C33.0987 42.11 27.4368 44.08 23.1808 42.4939C20.8986 41.6446 14.403 38.455 14.3448 44.6869C14.341 45.0146 14.3448 46.6142 15.2523 47.9075C16.786 50.0908 12.6599 57.4997 17.1738 58.4032C17.8563 58.539 18.5776 58.4672 19.3009 58.2985C21.8293 57.075 23.9738 54.9208 26.8358 54.9208C30.5101 54.6378 34.4657 59.4425 37.857 55.4851Z" fill="url(#paint34_radial_102_13690)"/>
<path style="mix-blend-mode:screen" d="M37.857 55.4851C38.3688 54.8917 38.8458 54.027 38.8458 53.1796C39.4101 50.0714 38.14 47.2909 37.857 44.1828C37.7775 43.5468 37.537 42.934 37.1744 42.3931C36.395 41.8463 35.313 41.5981 33.7967 41.9006C33.0987 42.11 27.4368 44.08 23.1808 42.4939C20.8986 41.6446 14.403 38.455 14.3448 44.6869C14.341 45.0146 14.3448 46.6142 15.2523 47.9075C16.786 50.0908 12.6599 57.4997 17.1738 58.4032C17.8563 58.539 18.5776 58.4672 19.3009 58.2985C21.8293 57.075 23.9738 54.9208 26.8358 54.9208C30.5101 54.6378 34.4657 59.4425 37.857 55.4851Z" fill="url(#paint35_radial_102_13690)"/>
<path style="mix-blend-mode:screen" d="M37.857 55.4851C38.3688 54.8917 38.8458 54.027 38.8458 53.1796C39.4101 50.0714 38.14 47.2909 37.857 44.1828C37.7775 43.5468 37.537 42.934 37.1744 42.3931C36.395 41.8463 35.313 41.5981 33.7967 41.9006C33.0987 42.11 27.4368 44.08 23.1808 42.4939C20.8986 41.6446 14.403 38.455 14.3448 44.6869C14.341 45.0146 14.3448 46.6142 15.2523 47.9075C16.786 50.0908 12.6599 57.4997 17.1738 58.4032C17.8563 58.539 18.5776 58.4672 19.3009 58.2985C21.8293 57.075 23.9738 54.9208 26.8358 54.9208C30.5101 54.6378 34.4657 59.4425 37.857 55.4851Z" fill="url(#paint36_radial_102_13690)"/>
<path d="M34.8767 60.2821C32.643 60.2821 30.9289 59.2874 30.196 58.8628C30.068 58.7891 29.971 58.7309 29.907 58.7018C26.5933 57.1817 24.4023 56.8501 22.4148 57.5462C22.155 57.6373 21.8874 57.7362 21.614 57.839C20.4661 58.2675 19.1651 58.7522 17.9338 58.7522C17.6488 58.7522 17.3754 58.727 17.1175 58.6747C14.0946 58.0697 14.5968 54.8898 15.0389 52.0841C15.3046 50.4069 15.5547 48.8227 15.0234 48.0665C14.1412 46.812 14.0597 45.2821 14.0655 44.683C14.0966 41.3421 15.9774 40.6402 17.5499 40.6402C19.2717 40.6402 21.2689 41.4352 22.5912 41.9606C22.8472 42.0634 23.0799 42.1545 23.2796 42.2302C24.3383 42.6238 25.585 42.8255 26.985 42.8255C28.9434 42.8255 31.1499 42.4415 33.5446 41.6853L33.7191 41.631C38.7333 40.615 39.3053 45.2666 39.5632 47.3801L39.5942 47.6264C39.7144 48.5765 40.333 50.0559 40.9302 51.4869C41.8977 53.802 42.7315 55.7992 42.0528 56.5534C39.823 59.0276 37.409 60.2821 34.8786 60.2821H34.8767ZM24.4701 56.6484C26.0388 56.6484 27.842 57.139 30.1417 58.1957C30.2153 58.2306 30.3297 58.2947 30.4771 58.38C31.1693 58.7813 32.7923 59.7237 34.8767 59.7237C37.2422 59.7237 39.5147 58.5312 41.634 56.1792C42.0761 55.6887 41.1512 53.4782 40.4105 51.7021C39.7978 50.2362 39.1657 48.72 39.0358 47.6962L39.0047 47.448C38.774 45.5594 38.3435 42.0479 35.0259 42.0479C34.6614 42.0479 34.2659 42.0906 33.849 42.1739L33.7075 42.2185C31.2585 42.9922 28.9957 43.3839 26.9792 43.3839C25.5133 43.3839 24.2006 43.1725 23.0779 42.7537C22.8763 42.6781 22.6397 42.585 22.378 42.4803C21.0963 41.9704 19.1593 41.1986 17.5441 41.1986C15.5974 41.1986 14.6414 42.3388 14.6182 44.6869C14.6123 45.2317 14.686 46.622 15.4752 47.7427C16.1364 48.6831 15.8688 50.3758 15.5857 52.1694C15.163 54.853 14.7248 57.6257 17.2222 58.1259C17.4433 58.1705 17.6818 58.1919 17.9299 58.1919C19.0604 58.1919 20.2567 57.7459 21.4143 57.3135C21.6916 57.2108 21.963 57.108 22.2267 57.0169C22.9403 56.7667 23.6732 56.6446 24.4663 56.6446L24.4701 56.6484Z" fill="#6E3C43"/>
<path d="M30.8631 50.4612C30.8631 50.4612 30.8806 50.401 30.9135 50.2963C31.2218 49.3152 33.7988 43.7154 36.2768 45.5303C37.3762 46.335 36.1546 49.7379 30.8631 50.4612Z" fill="url(#paint37_radial_102_13690)"/>
<path d="M36.232 45.6951C35.0279 42.868 31.1771 49.4781 30.8688 50.4611C30.8358 50.5678 30.9638 50.3836 30.9638 50.3836C31.2003 50.6279 36.7032 46.8042 36.232 45.697V45.6951Z" fill="url(#paint38_radial_102_13690)"/>
<path d="M30.481 50.7966L30.5954 50.3875C30.5954 50.3875 30.6129 50.3255 30.6478 50.213C30.8669 49.515 32.8679 44.8924 35.2529 44.8924C35.6678 44.8924 36.0672 45.032 36.4434 45.3054C36.8777 45.6234 37.0309 46.2245 36.8564 46.9128C36.4919 48.3516 34.7138 50.2169 30.9037 50.7384L30.483 50.7966H30.481ZM35.2509 45.4508C33.5233 45.4508 31.7724 48.8227 31.2721 50.116C34.2989 49.5886 35.98 48.0859 36.3115 46.7771C36.4279 46.3156 36.3523 45.9356 36.1099 45.7572C35.8287 45.5517 35.5476 45.4508 35.2509 45.4508Z" fill="#6E3C43"/>
<path d="M21.5599 49.065C21.5599 49.065 21.5425 49.0049 21.5095 48.9002C21.2012 47.9191 18.6243 42.3193 16.1463 44.1342C15.0469 44.9388 16.2684 48.3417 21.5599 49.065Z" fill="url(#paint39_radial_102_13690)"/>
<path d="M15.8456 44.299C16.8694 46.3524 19.2465 47.9501 21.4822 48.8188C21.0866 47.6825 19.1981 42.0517 15.8456 44.299Z" fill="url(#paint40_radial_102_13690)"/>
<path d="M21.9418 49.3986L21.521 49.3404C17.7109 48.8208 15.9329 46.9555 15.5683 45.5167C15.3938 44.8265 15.549 44.2254 15.9813 43.9093C16.3556 43.634 16.7569 43.4963 17.1719 43.4963C19.5568 43.4963 21.5579 48.1188 21.777 48.8169C21.8119 48.9293 21.8293 48.9914 21.8293 48.9914L21.9437 49.4005L21.9418 49.3986ZM17.1699 44.0547C16.8733 44.0547 16.5921 44.1556 16.311 44.3611C16.0686 44.5395 15.993 44.9215 16.1093 45.381C16.4409 46.6879 18.122 48.1925 21.1487 48.7199C20.6504 47.4266 18.8976 44.0547 17.1699 44.0547Z" fill="#6E3C43"/>
<path d="M47.5034 52.2799C47.1777 50.7365 45.9483 50.0792 45.9134 50.0714C45.9134 50.0714 46.5591 49.7922 47.0148 50.1645C47.2397 50.3467 47.4976 50.6415 47.6333 51.0913C47.7904 51.6187 47.5034 52.2818 47.5034 52.2818V52.2799Z" fill="#676667"/>
<path d="M51.4124 30.1193C51.4124 33.2624 53.7528 35.8102 56.64 35.8102C59.5271 35.8102 61.8674 33.2624 61.8674 30.1193C61.8674 26.9762 59.5271 24.4284 56.64 24.4284C53.7528 24.4284 51.4124 26.9762 51.4124 30.1193Z" fill="#050505"/>
<path d="M51.3502 30.6079C51.3502 33.6037 53.58 36.0332 56.3334 36.0332C59.0868 36.0332 61.3166 33.6056 61.3166 30.6079C61.3166 27.6103 59.0868 25.1826 56.3334 25.1826C53.58 25.1826 51.3502 27.6122 51.3502 30.6079Z" fill="url(#paint41_radial_102_13690)"/>
<path d="M56.3337 36.3124C53.4329 36.3124 51.0713 33.7529 51.0713 30.6079C51.0713 27.4629 53.431 24.9034 56.3337 24.9034C59.2363 24.9034 61.5961 27.4629 61.5961 30.6079C61.5961 33.7529 59.2363 36.3124 56.3337 36.3124ZM56.3337 25.4638C53.7412 25.4638 51.6316 27.7712 51.6316 30.6079C51.6316 33.4446 53.7412 35.754 56.3337 35.754C58.9261 35.754 61.0357 33.4466 61.0357 30.6079C61.0357 27.7692 58.9261 25.4638 56.3337 25.4638Z" fill="#020202"/>
<path d="M52.6553 31.6608C52.6553 33.782 54.2821 35.5019 56.287 35.5019C58.292 35.5019 59.9188 33.782 59.9188 31.6608C59.9188 29.5396 58.292 27.8197 56.287 27.8197C54.2821 27.8197 52.6553 29.5396 52.6553 31.6608Z" fill="#050505"/>
<path d="M76.5881 46.6491C76.5881 46.6491 79.5218 50.688 78.3565 52.4117C77.5654 53.2959 75.0738 53.4239 74.4106 52.4001C73.7591 51.0506 76.1247 47.2463 76.5881 46.6491Z" fill="url(#paint42_radial_102_13690)"/>
<path d="M81.639 62.1551C80.5202 63.3573 78.6607 66.4907 78.0073 67.6308C75.9908 71.1423 73.5147 76.523 75.7716 78.2894C77.0843 79.3151 78.4668 79.0398 80.9895 78.4639C82.9866 78.0082 85.5635 77.6418 88.0648 78.08C90.8589 78.5686 95.5842 74.8128 92.5691 70.3279C91.4095 68.6022 89.17 66.543 88.4487 65.6492C87.2776 64.1969 83.7913 59.8458 81.639 62.157V62.1551Z" fill="url(#paint43_radial_102_13690)"/>
<path d="M95.398 85.1515C95.398 86.1443 96.226 86.9509 97.2498 86.9509C98.2735 86.9509 99.1015 86.1462 99.1015 85.1515C99.1015 84.1568 98.2735 83.3541 97.2498 83.3541C96.226 83.3541 95.398 84.1588 95.398 85.1515Z" fill="url(#paint44_radial_102_13690)"/>
<path d="M82.7753 79.9996C81.7088 79.9996 81.0321 83.6992 80.9914 83.8756C80.9584 84.0191 82.4088 86.1113 84.784 84.6086C86.2111 83.705 86.4613 83.2823 87.3687 84.085C88.1017 84.3642 86.915 79.9957 82.7772 79.9996H82.7753Z" fill="url(#paint45_radial_102_13690)"/>
<path d="M114.844 71.594C114.478 74.6189 115.885 77.2772 117.985 77.5312C120.085 77.7852 122.086 75.5379 122.451 72.5131C122.817 69.4883 121.41 66.83 119.31 66.576C117.21 66.322 115.209 68.5692 114.844 71.594Z" fill="url(#paint46_radial_102_13690)"/>
<path d="M174.581 86.8907C173.638 88.6513 173.76 90.5496 174.604 91.0188C175.947 91.7673 176.698 90.4352 177.939 88.8685C179.405 87.0168 178.676 84.9789 177.826 84.5252C176.975 84.0714 175.523 85.1301 174.581 86.8907Z" fill="url(#paint47_radial_102_13690)"/>
<path d="M152.206 87.3911C152.206 87.3911 155.361 101.964 162.357 99.4515C163.462 99.054 165.523 96.2852 163.8 90.6505C163.334 88.7871 163.707 87.9378 164.23 87.3911C164.754 86.8443 165.178 86.5243 163.741 85.0274C162.766 84.0114 156.943 79.767 152.205 87.3911H152.206Z" fill="url(#paint48_radial_102_13690)"/>
<path d="M161.88 48.7897C161.007 48.7858 158.747 48.0122 158.223 48.78C157.699 49.5478 158.758 52.0627 160.017 52.4815C161.354 52.5281 161.7 52.7394 162.066 52.7142C163.807 52.5921 163.968 48.7974 161.882 48.7897H161.88Z" fill="url(#paint49_radial_102_13690)"/>
<path d="M161.366 57.4492C155.885 59.6345 154.626 65.2284 161.331 67.9876C161.331 67.9876 162.308 68.5111 162.937 65.2982C163.057 64.6836 162.946 64.1853 163.97 63.7432C164.994 63.3011 164.682 60.8618 164.17 60.1173C163.658 59.3727 161.736 57.2999 161.364 57.4492H161.366Z" fill="url(#paint50_radial_102_13690)"/>
<path d="M79.6633 91.0285C79.6633 96.3684 83.9931 110.259 84.598 111.981C84.8637 112.737 80.9837 118.764 85.3426 123.25C87.0644 125.023 84.7764 135.982 81.4704 139.8C81.4704 139.8 92.1407 146.578 94.3763 146.671C94.7021 146.765 95.7685 145.297 94.9464 142.912C94.4054 141.341 94.388 140.083 94.5974 139.734C94.8068 139.385 97.7482 141.504 98.4365 139.222C98.8922 137.731 97.1684 136.178 97.0754 135.559C96.9823 134.939 95.4001 126.564 97.215 124.036C97.7734 123.462 100.694 120.412 98.5122 114.684C98.1922 113.055 101.238 104.879 102.431 102.996C104.199 100.202 105.824 94.9375 105.264 91.1661L79.6614 91.0304L79.6633 91.0285Z" fill="url(#paint51_radial_102_13690)"/>
<path d="M93.3972 138.45C93.6764 137.613 94.421 138.09 95.5398 137.81C96.7962 137.019 91.908 129.672 97.0289 120.825C98.6615 118.006 95.3051 113.655 97.2616 109.744C99.7764 104.995 102.268 100.314 104.502 95.2865C105.08 94.1309 105.477 91.87 105.378 90.7978L79.6634 90.6427C79.6634 95.9826 83.9931 110.261 84.5981 111.985C84.8637 112.741 80.9838 118.768 85.3426 123.254C87.0644 125.027 84.7764 135.986 81.4705 139.804C81.4705 139.804 88.8095 144.116 92.6972 145.919C94.9464 143.974 92.2241 141.19 93.3972 138.452V138.45Z" fill="url(#paint52_radial_102_13690)"/>
<path d="M94.407 146.765C94.3818 146.765 94.3586 146.763 94.3372 146.759C92.0046 146.617 81.7552 140.124 81.3189 139.846L81.0455 139.674L81.2569 139.429C84.5279 135.652 86.7384 124.904 85.1407 123.258C81.6641 119.679 83.2482 115.153 84.0083 112.978C84.1673 112.522 84.3495 112.004 84.3301 111.875C83.9443 110.777 81.1405 102.143 79.9868 95.7228C79.4982 93.0082 79.9403 90.8404 79.9403 90.8404C79.9403 96.2056 84.3592 110.275 84.8595 111.702C84.9487 111.958 84.8324 112.313 84.5357 113.162C83.7562 115.39 82.3058 119.537 85.542 122.869C87.4209 124.804 85.0069 135.6 81.887 139.546C85.0282 141.527 92.6658 146.132 94.3876 146.204H94.3896C94.632 146.061 95.3823 144.849 94.6824 142.815C94.1899 141.384 94.0503 139.916 94.3586 139.402C94.5389 139.102 94.8995 139.235 95.4483 139.437C96.0707 139.666 97.013 140.011 97.6102 139.712C97.8739 139.581 98.0562 139.332 98.1706 138.954C98.4421 138.066 97.7886 137.091 97.3116 136.377C97.0479 135.984 96.8405 135.674 96.8017 135.414C96.7959 135.373 96.7823 135.295 96.7648 135.187C96.0649 131.059 95.5375 125.711 96.9917 123.685L97.0189 123.654C98.031 122.613 100.179 119.648 98.2559 114.597L98.2423 114.55C97.9011 112.805 101.12 104.516 102.198 102.66C105.405 97.1421 105.271 90.8016 105.271 90.8016C105.868 94.8308 104.385 100.248 102.669 102.959C101.448 104.89 98.5216 112.86 98.7853 114.422C100.798 119.735 98.5255 122.9 97.4338 124.028C96.3984 125.5 96.3557 129.428 97.3155 135.096C97.3349 135.208 97.3485 135.29 97.3543 135.332C97.3756 135.47 97.5792 135.774 97.775 136.069C98.3141 136.876 99.0528 137.979 98.7058 139.119C98.5468 139.645 98.2617 140.015 97.8604 140.217C97.046 140.624 95.9699 140.226 95.2563 139.965C95.0993 139.906 94.915 139.839 94.7968 139.807C94.7018 140.188 94.7309 141.237 95.2137 142.636C95.9194 144.684 95.297 146.076 94.8705 146.528C94.6901 146.718 94.5331 146.772 94.4109 146.772L94.407 146.765Z" fill="#676667"/>
<path d="M171.602 39.2092C177.842 40.933 189.21 38.5616 191.876 51.6691C192.985 57.1235 191.888 64.4296 182.423 71.8307C179.49 74.1245 166.326 81.7176 148.072 71.567C146.244 70.2465 145.693 74.4212 145.693 74.4212C145.693 74.4212 166.173 88.6164 186.241 75.7416C188.985 73.981 203.748 61.4009 194.389 44.4038C192.109 40.264 186.395 34.4103 178.121 33.5571L171.602 39.2054V39.2092Z" fill="url(#paint53_radial_102_13690)"/>
<path d="M194.278 44.4057C191.998 40.266 186.445 34.3715 178.173 33.5183L170.757 39.1879C176.081 40.2738 183.03 39.6843 188.186 44.2293C188.764 44.619 193.928 51.8185 191.738 58.4769C191.481 59.3398 191.42 61.1779 190.728 61.6995C189.33 64.9376 186.736 68.3735 182.315 71.8307C179.381 74.1245 166.218 81.7176 147.964 71.567C146.135 70.2466 146.508 72.9572 146.508 72.9572C146.508 72.9572 170.154 89.0721 191.296 68.7186C195.11 63.9158 199.975 54.7405 194.282 44.4038L194.278 44.4057Z" fill="url(#paint54_radial_102_13690)"/>
<path d="M167.831 81.4131C164.256 81.4131 161.004 80.8818 158.282 80.1896C150.692 78.2603 145.494 74.6965 145.444 74.6596L145.304 74.5627L145.325 74.394C145.362 74.1128 145.721 71.6271 146.876 71.1288C147.148 71.0105 147.586 70.9542 148.131 71.3401C155.856 75.633 163.501 77.2346 170.858 76.0984C177.466 75.0785 181.431 72.1874 182.16 71.6193C189.829 65.622 192.976 58.9325 191.51 51.7331C189.46 41.6543 181.72 40.7216 175.502 39.9732C173.764 39.7638 172.124 39.566 170.757 39.1879C170.757 39.1879 173.853 39.2111 175.569 39.4186C181.966 40.1884 189.93 41.1482 192.059 51.6226C193.569 59.045 190.354 65.9226 182.505 72.0594C181.759 72.6431 177.691 75.6097 170.945 76.651C163.461 77.8047 155.687 76.1798 147.848 71.821L147.821 71.8035C147.412 71.5088 147.177 71.6077 147.099 71.6426C146.485 71.9082 146.058 73.3431 145.905 74.297C146.783 74.8749 151.637 77.9268 158.439 79.6545C165.339 81.4054 175.725 82.1092 185.999 75.5186C187.411 74.6131 191.694 71.0783 194.515 65.6686C198.12 58.758 197.965 51.6536 194.054 44.5511C191.541 39.9887 185.323 34.6894 177.64 33.8964L177.745 33.3438C185.627 34.1562 191.962 39.5951 194.542 44.2816C198.492 51.4558 198.655 58.9403 195.01 65.9284C192.132 71.4448 187.746 75.061 186.3 75.9898C179.903 80.0927 173.468 81.417 167.829 81.417L167.831 81.4131Z" fill="#676667"/>
<path d="M145.476 74.6829C138.259 69.8413 128.574 56.9916 114.35 60.4779C114.705 59.8924 117.097 57.0789 121.706 55.9155C120.671 55.2291 116.77 55.5432 115.513 56.3343C116.13 55.1477 119.796 51.5858 129.528 53.0749C128.888 52.4641 126.356 51.2232 121.567 52.2373C122.918 50.8645 134.465 47.4421 143.033 57.0343C143.219 57.3135 141.48 52.8151 138.075 51.26C138.546 50.9808 146.386 52.9973 148.389 63.0296C149.027 65.7888 149.007 67.4796 148.97 67.9895C148.924 68.6236 148.695 70.7759 148.767 71.8326C148.846 72.9902 147.425 75.9297 145.476 74.6868V74.6829Z" fill="url(#paint55_radial_102_13690)"/>
<path d="M141.843 68.484C142.407 67.0705 141.843 65.6589 142.126 64.2454C142.973 65.3758 144.67 67.3536 145.798 65.6589C147.582 63.1886 147.497 60.0552 146.262 57.3523C144.255 53.9843 141.065 51.5547 138.073 51.26C141.089 52.4506 143.219 57.3135 143.031 57.0343C134.465 47.4421 122.916 50.8645 121.565 52.2373C126.356 51.2251 128.887 52.4641 129.526 53.0749C119.795 51.5858 116.128 55.1477 115.511 56.3343C116.768 55.5432 120.669 55.2291 121.705 55.9155C117.096 57.0789 114.703 59.8943 114.348 60.4779C114.395 60.4663 114.441 60.4566 114.488 60.4469C123.938 54.8219 136.204 59.3572 141.841 68.484H141.843Z" fill="url(#paint56_radial_102_13690)"/>
<path d="M146.415 75.2665C146.05 75.2665 145.684 75.1502 145.325 74.9214C143.677 73.8162 141.893 72.2902 140.004 70.675C134.533 65.9943 127.723 60.1696 119.157 60.1696C117.592 60.1696 115.998 60.3655 114.418 60.7533L113.755 60.9161L114.107 60.3325C114.501 59.6829 116.713 57.1739 120.739 55.898C120.413 55.8476 120.021 55.8205 119.581 55.8205C118.032 55.8205 116.347 56.1443 115.666 56.5747L114.784 57.1293L115.265 56.2044C115.942 54.9014 118.873 52.435 125.119 52.435C126.061 52.435 127.054 52.4913 128.084 52.6018C127.351 52.3439 126.321 52.1364 124.985 52.1364C123.944 52.1364 122.813 52.2644 121.627 52.5145L120.71 52.7084L121.367 52.0395C122.115 51.2794 125.113 50.2246 128.795 50.2246C132.477 50.2246 137.457 51.196 142.052 55.6091C141.275 54.2712 139.886 52.3982 137.957 51.5179L135.533 50.403C135.533 50.403 138.097 50.9536 138.225 50.9536C139.279 50.9536 146.713 53.1951 148.666 62.9734C149.356 65.9594 149.275 67.691 149.252 68.0089C149.242 68.133 149.226 68.3134 149.207 68.5325C149.125 69.4477 148.99 70.9814 149.048 71.8113C149.094 72.4919 148.687 73.7192 147.945 74.5142C147.485 75.0067 146.956 75.2685 146.413 75.2685L146.415 75.2665ZM119.157 59.6034C127.932 59.6034 134.829 65.5038 140.371 70.2446C142.248 71.8481 144.018 73.3644 145.633 74.4483C146.291 74.8671 146.942 74.7585 147.532 74.1284C148.14 73.4769 148.522 72.4046 148.484 71.8501C148.424 70.9756 148.561 69.4147 148.643 68.482C148.662 68.2668 148.678 68.0884 148.687 67.9682C148.709 67.6657 148.786 66.0079 148.111 63.0936C146.646 55.7546 142.062 52.8248 139.64 51.8902C142.077 53.7749 143.371 56.8792 143.322 57.106L143.274 57.329H142.894L142.81 57.2107C138.064 51.9057 132.569 50.7908 128.793 50.7908C126.509 50.7908 124.529 51.2154 123.24 51.6769C123.843 51.6071 124.425 51.5722 124.985 51.5722C127.479 51.5722 129.098 52.2722 129.726 52.8732L130.375 53.4937L129.489 53.358C127.95 53.1214 126.48 53.0032 125.121 53.0032C119.961 53.0032 117.475 54.6416 116.425 55.6654C117.373 55.3978 118.592 55.2582 119.583 55.2582C120.332 55.2582 121.336 55.3319 121.865 55.6828L122.399 56.0357L121.778 56.1928C118.241 57.0866 116.01 58.981 115.061 60.032C116.43 59.7489 117.805 59.6073 119.158 59.6073L119.157 59.6034Z" fill="#35100C"/>
<path d="M142.618 56.9509L143.025 56.5689C143.08 56.6271 144.361 58.0038 144.511 59.1264C144.511 59.1264 142.63 56.9625 142.616 56.9509H142.618Z" fill="#35100C"/>
<path d="M71.095 24.4284C71.095 24.4284 71.7233 18.212 92.5363 23.5907C95.4816 24.3508 97.3896 23.1835 98.5084 23.8118C99.5438 24.3702 101.617 29.5977 90.7214 36.0933C87.2235 38.1796 79.2329 40.9446 71.4809 34.5188L71.095 24.4284Z" fill="url(#paint57_radial_102_13690)"/>
<path d="M86.0405 35.8936C91.9175 34.8252 100.022 27.6548 98.9619 24.3004C98.8164 24.0541 98.6535 23.8874 98.5101 23.8118C97.3932 23.1835 95.4833 24.3508 92.538 23.5907C71.725 18.212 70.676 24.4109 70.676 24.4109L71.3643 34.4257C76.5065 36.0332 81.1465 36.7836 86.0385 35.8936H86.0405Z" fill="url(#paint58_radial_102_13690)"/>
<path d="M82.0365 38.6159C78.9632 38.6159 75.5409 37.8054 72.2117 35.5174C71.7308 35.1878 71.1317 34.0011 71.1317 34.0011C78.5386 40.1399 86.7502 38.0594 90.4362 35.8625C97.9381 31.3912 98.9929 27.7304 98.9561 25.9485C98.9309 24.8084 98.4597 24.1898 98.2348 24.0677C97.8063 23.8253 97.1761 23.9048 96.3772 24.0037C95.3127 24.1356 93.9904 24.3004 92.3248 23.8699C78.876 20.3953 74.0305 21.8534 72.3377 23.0323C71.3295 23.7342 70.6741 24.4109 70.6741 24.4109C70.678 24.3721 70.7866 23.4336 72.0178 22.5747C74.1798 21.0681 79.4829 19.9764 92.4625 23.3309C94.0253 23.7342 95.2895 23.5771 96.3055 23.4511C97.2052 23.3386 97.9149 23.2514 98.5004 23.5791C98.9658 23.8292 99.4835 24.6765 99.5106 25.9369C99.5514 27.8409 98.4636 31.7267 90.7193 36.3434C88.7861 37.4952 85.6508 38.6178 82.0327 38.6178L82.0365 38.6159Z" fill="#676667"/>
<path d="M72.1437 29.4814C71.9711 30.986 79.1939 39.4555 90.6959 32.4015C91.3125 32.0234 91.5335 31.8954 94.6534 29.6074C95.745 28.8085 96.5691 27.3717 96.2879 26.3945C96.0087 25.4172 95.6209 27.8739 88.6929 26.8599C85.4839 26.3906 72.4811 26.536 72.1437 29.4814Z" fill="url(#paint59_radial_102_13690)"/>
<path d="M94.9504 26.6524C90.2037 30.0592 82.0309 27.1739 76.2857 28.9229C74.3235 29.5124 73.9977 31.1915 74.6434 32.7311C77.6721 35.054 83.299 36.9387 90.6943 32.4015C91.3109 32.0234 91.5319 31.8954 94.6518 29.6074C95.7434 28.8085 96.5675 27.3717 96.2863 26.3945C96.1448 25.9 95.9741 26.284 94.9484 26.6524H94.9504Z" fill="url(#paint60_radial_102_13690)"/>
<path d="M81.9298 35.4495C76.8361 35.4495 73.823 32.512 73.0183 31.6123C72.2524 30.7533 71.8103 29.9254 71.8665 29.4484C72.202 26.5244 82.5193 26.377 84.5843 26.377C86.3023 26.377 87.8534 26.4546 88.7337 26.5826C89.8564 26.7474 90.886 26.8288 91.7973 26.8288C94.0931 26.8288 95.1208 26.3034 95.6133 26.0513C95.8188 25.9466 95.9526 25.8768 96.1019 25.8768C96.4315 25.8768 96.5265 26.2064 96.5575 26.315C96.8891 27.4745 95.9332 29.0121 94.8183 29.8304C91.7411 32.0854 91.4696 32.2521 90.8724 32.6186L90.8414 32.638C87.8011 34.5033 84.8015 35.4476 81.9298 35.4476V35.4495ZM84.5843 26.9354C78.8682 26.9354 72.6247 27.7421 72.423 29.5124C72.3997 29.714 72.6538 30.3616 73.4371 31.24C74.2011 32.097 77.0708 34.8892 81.9298 34.8892C84.6987 34.8892 87.5975 33.972 90.5506 32.161L90.5816 32.1416C91.1652 31.7829 91.4309 31.62 94.4886 29.3805C95.5473 28.6049 96.2473 27.2748 96.0224 26.474C95.9778 26.4953 95.9215 26.5244 95.8692 26.5515C95.3379 26.823 94.2288 27.3892 91.7973 27.3892C90.8589 27.3892 89.8021 27.3039 88.6523 27.1352C87.7953 27.0111 86.2751 26.9354 84.5824 26.9354H84.5843Z" fill="#676667"/>
<path d="M46.2994 5.26536C46.2994 5.26536 49.1304 1.81591 55.8334 5.68418C55.9691 5.76174 61.4216 8.79238 64.1458 7.98964C63.6669 8.59654 62.3639 10.679 56.5683 9.98098C56.7952 10.3067 60.5607 12.3679 62.5055 12.3213C62.2612 12.6471 60.772 13.8822 55.2246 11.5884C54.893 11.5884 54.9357 12.8972 58.3851 13.9985C57.7123 14.1905 55.1024 14.8013 50.4237 11.5535C50.6311 12.6316 51.7499 15.604 51.4358 16.0927C51.1217 16.5813 47.3853 15.1852 46.8967 12.0072C46.8385 11.6 45.3261 17.6303 41.5179 17.3161C42.4486 16.4203 43.9281 13.9636 43.3696 10.8205C43.4743 10.5064 39.6681 14.6617 39.7379 16.653C39.4936 16.6414 38.7258 14.2079 39.2842 12.3233C39.3715 12.0266 33.2423 15.6408 31.0784 15.222C32.9185 13.9656 35.2453 13.2637 36.527 9.59898C35.701 10.2175 33.9074 12.9166 28.7749 11.2762C30.7313 10.5743 32.2767 9.87046 35.6544 6.49275C36.8585 5.28864 41.801 1.56772 46.3053 5.27118L46.2994 5.26536Z" fill="url(#paint61_radial_102_13690)"/>
<path style="mix-blend-mode:screen" d="M64.1437 7.98964C61.4195 8.79238 55.9671 5.76369 55.8313 5.68419C49.1283 1.81592 46.2973 5.26536 46.2973 5.26536C46.2489 5.22465 46.1985 5.18975 46.15 5.15097C45.0583 6.96974 44.1451 8.8777 43.3695 10.8535C43.9105 13.9792 42.4407 16.4203 41.5139 17.3142C45.3201 17.6283 46.8345 11.5981 46.8926 12.0053C47.3812 15.1833 51.1177 16.5793 51.4318 16.0907C51.7459 15.6021 50.6252 12.6296 50.4196 11.5516C55.0984 14.7994 57.7102 14.1886 58.3811 13.9966C54.9316 12.8972 54.889 11.5864 55.2205 11.5864C60.768 13.8803 62.2571 12.6451 62.5014 12.3194C60.5586 12.3659 56.7911 10.3048 56.5643 9.97904C62.3618 10.6771 63.6648 8.59461 64.1418 7.9877L64.1437 7.98964Z" fill="url(#paint62_radial_102_13690)"/>
<path style="mix-blend-mode:screen" d="M35.6465 6.48887C32.2688 9.86658 30.7235 10.5724 28.767 11.2723C33.9015 12.9146 35.6931 10.2137 36.5191 9.59512C35.2393 13.2598 32.9106 13.9598 31.0705 15.2182C33.2364 15.637 39.3655 12.0227 39.2763 12.3194C38.7179 14.206 39.4857 16.6375 39.73 16.6491C39.6602 14.6578 43.4665 10.5026 43.3618 10.8167C43.3637 10.8283 43.3656 10.8399 43.3676 10.8516C44.1451 8.87576 45.0564 6.96779 46.1481 5.14902C41.6826 1.64722 36.8371 5.29251 35.6446 6.48499L35.6465 6.48887Z" fill="url(#paint63_radial_102_13690)"/>
<path d="M41.7756 17.5877C41.6748 17.5877 41.5721 17.5838 41.4673 17.5741L40.8507 17.5236L41.2967 17.0951C42.1014 16.3215 43.4529 14.1712 43.1388 11.348C42.2255 12.3272 39.9394 15.1988 39.9898 16.624L39.9995 16.9264C39.9995 16.9264 39.7339 17.0719 39.3946 16.7229C38.9874 16.3021 38.5802 14.3651 38.8691 12.7344C38.6539 12.8352 38.3805 12.969 38.1129 13.1008C36.2689 14.0044 33.1821 15.5149 31.4409 15.5149C31.2799 15.5149 31.1306 15.5013 30.9968 15.4761L30.3395 15.3481L30.8921 14.97C31.2508 14.7257 31.6173 14.5066 32.0051 14.2759C33.3643 13.4654 34.7643 12.6335 35.7667 10.6073C34.9795 11.2685 33.7327 12.0557 31.755 12.0557C30.8107 12.0557 29.7695 11.8754 28.6604 11.5206L27.8751 11.2704L28.6507 10.9912C30.5896 10.2951 32.1079 9.59129 35.4274 6.27175C36.5055 5.19367 39.1037 3.36716 42.0006 3.36716C43.5324 3.36716 44.9614 3.87323 46.2527 4.86987C46.6948 4.45687 47.9067 3.55135 50.0357 3.55135C51.806 3.55135 53.7954 4.18153 55.9496 5.42441C55.9903 5.44768 60.2444 7.82682 63.0676 7.82682C63.436 7.82682 63.7637 7.7861 64.0429 7.70272L64.8844 7.45452L64.2737 8.23012C63.7792 8.87386 62.6236 10.3824 58.734 10.3824C58.383 10.3824 58.0166 10.3708 57.6346 10.3456C58.8581 11.0145 61.0763 12.0228 62.4142 12.0228L63.0502 12.0092L62.7031 12.4707C62.5732 12.6432 62.0322 13.2056 60.5179 13.2056C59.1955 13.2056 57.4775 12.7848 55.4048 11.9549C55.6025 12.3175 56.3296 13.0388 58.4412 13.7116L59.3215 13.9928L58.4334 14.2468C58.2745 14.2914 57.7897 14.431 57.0451 14.431C55.7809 14.431 53.7043 14.0257 50.8423 12.1701C50.9141 12.4261 50.9994 12.7111 51.0886 13.0039C51.6548 14.8983 51.8952 15.8329 51.6431 16.2245C51.5481 16.3738 51.3736 16.4475 51.1273 16.4475C50.1171 16.4475 47.5906 15.1833 46.7879 12.8216C46.1616 14.3204 44.6124 17.5857 41.7776 17.5877H41.7756ZM43.6293 10.8187C44.1024 13.6108 43.0185 15.862 42.1208 17.0098C44.6007 16.7248 45.9522 13.3975 46.4098 12.2729C46.596 11.8134 46.6696 11.5613 46.881 11.5535C47.0613 11.5477 47.102 11.6893 47.102 11.6893L47.1466 11.9491C47.5441 14.5337 50.2606 15.891 51.1273 15.891C51.1526 15.891 51.17 15.891 51.1855 15.8872C51.2612 15.5246 50.8036 14.0005 50.5554 13.1648C50.3692 12.5463 50.1947 11.9607 50.123 11.5865L49.9931 10.9137L50.5554 11.3034C53.7721 13.5352 55.9923 13.9113 57.2371 13.8687C55.1973 13.0272 54.7222 12.1158 54.794 11.664C54.8289 11.4411 54.9917 11.2898 55.1992 11.2898H55.2555L55.3059 11.3112C57.4504 12.1973 59.2052 12.6471 60.5198 12.6471C61.0084 12.6471 61.3691 12.5831 61.6308 12.5017C59.5697 12.1178 56.5817 10.5045 56.3161 10.1226L55.9593 9.61067L56.5778 9.68435C57.3457 9.77743 58.0728 9.82396 58.7359 9.82396C61.5377 9.82396 62.7923 9.00959 63.4205 8.3736C63.3061 8.38136 63.1898 8.38525 63.0695 8.38525C60.1029 8.38525 55.715 5.93243 55.6723 5.90722C53.6054 4.71475 51.709 4.10978 50.0376 4.10978C47.6003 4.10978 46.5048 5.41084 46.4932 5.42247L46.3167 5.6377L46.1015 5.4593C44.8605 4.4394 43.482 3.92364 42.0025 3.92364C38.6035 3.92364 35.9354 6.55097 35.8249 6.66343C32.8835 9.60486 31.311 10.5472 29.6396 11.2142C30.3919 11.4004 31.1015 11.4934 31.7569 11.4934C34.0275 11.4934 35.2083 10.3843 35.9141 9.72118C36.0731 9.57188 36.2088 9.44393 36.3329 9.35085L37.0658 8.80211L36.7634 9.66691C35.695 12.7266 33.8859 13.8028 32.2921 14.7529C32.2126 14.7994 32.1331 14.8479 32.0555 14.8944C33.756 14.6074 36.3794 13.3238 37.8686 12.5948C38.8788 12.1003 39.0902 12.0034 39.2395 12.0034H39.3791L39.5633 12.2322L39.5245 12.3776C39.1871 13.5158 39.3694 14.8867 39.5885 15.7049C40.174 13.8881 42.2216 11.4934 42.844 10.8497C43.1213 10.5627 43.2085 10.5007 43.3384 10.5007H43.482L43.6293 10.8148V10.8187Z" fill="#3F1C12"/>
<path d="M39.3674 12.554L38.9136 12.2283C39.8715 10.8962 40.4493 9.71922 40.4493 9.71922C40.4493 9.77351 40.4377 11.0668 39.3674 12.554Z" fill="#3F1C12"/>
<path d="M45.0214 6.81266C45.0408 6.77 45.4926 5.74816 46.243 4.92215L46.656 5.29832C45.9676 6.05647 45.0195 6.8146 45.0195 6.8146L45.0214 6.81266Z" fill="#3F1C12"/>
<path style="mix-blend-mode:screen" d="M53.9312 30.0611C53.9312 30.6893 54.4896 31.1993 55.1779 31.1993C55.8663 31.1993 56.4247 30.6893 56.4247 30.0611C56.4247 29.4329 55.8663 28.9229 55.1779 28.9229C54.4896 28.9229 53.9312 29.4329 53.9312 30.0611Z" fill="url(#paint64_radial_102_13690)"/>
<path style="mix-blend-mode:screen" d="M56.446 33.5261C56.446 33.9604 56.8531 34.3114 57.3553 34.3114C57.8575 34.3114 58.2647 33.9604 58.2647 33.5261C58.2647 33.0917 57.8575 32.7408 57.3553 32.7408C56.8531 32.7408 56.446 33.0917 56.446 33.5261Z" fill="url(#paint65_radial_102_13690)"/>
<path d="M158.252 140.924C158.252 140.924 152.942 146.336 153.137 148.39C153.254 149.597 153.928 150.555 155.931 151.009C156.025 151.277 155.769 154.955 164.056 153.419C164.754 153.289 172.333 152.537 170.074 146.623C168.641 145.365 160.253 140.575 158.25 140.926L158.252 140.924Z" fill="url(#paint66_radial_102_13690)"/>
<path d="M158.185 151.416C162.881 153.503 169.504 149.578 168.853 145.745C166.041 143.918 159.926 140.632 158.252 140.924C158.252 140.924 152.942 146.336 153.137 148.39C153.188 148.911 156.024 150.055 156.699 148.659C156.699 149.776 157.066 150.858 158.185 151.416Z" fill="url(#paint67_radial_102_13690)"/>
<path d="M160.498 154.071C158.483 154.071 156.024 153.576 155.683 151.236C153.899 150.788 153 149.886 152.86 148.415C152.658 146.293 157.5 141.293 158.053 140.729L158.115 140.665L158.204 140.649C158.289 140.634 158.384 140.626 158.487 140.626C160.975 140.626 168.907 145.221 170.26 146.41L170.313 146.456L170.338 146.52C170.947 148.114 170.918 149.499 170.255 150.635C169.351 152.182 167.344 153.202 164.288 153.662C164.209 153.673 164.147 153.683 164.108 153.691C162.753 153.943 161.539 154.069 160.5 154.069L160.498 154.071ZM158.384 141.19C156.887 142.728 153.267 146.809 153.416 148.362C153.498 149.214 153.864 150.253 155.993 150.736L156.145 150.771L156.195 150.916C156.212 150.964 156.218 151.015 156.228 151.092C156.428 152.698 157.864 153.51 160.498 153.51C161.504 153.51 162.683 153.386 164.005 153.14C164.048 153.132 164.116 153.122 164.205 153.109C167.086 152.675 168.959 151.748 169.772 150.354C170.336 149.386 170.359 148.184 169.84 146.784C168.238 145.431 160.676 141.184 158.487 141.184C158.45 141.184 158.417 141.184 158.384 141.188V141.19Z" fill="#1A0A05"/>
<path d="M156.209 151.046L155.654 150.972C155.987 148.486 158.991 144.985 159.119 144.837C159.119 144.837 156.519 148.725 156.209 151.046Z" fill="#1A0A05"/>
<path d="M178.879 139.03C178.879 139.03 192.243 140.659 193.026 145.339C192.902 146.456 189.658 149.937 184.287 150.765C181.427 151.205 178.606 151.137 178.28 149.834C178.012 149.636 173.741 150.85 173.95 148.438C174.043 147.356 176.663 141.43 178.879 139.032V139.03Z" fill="url(#paint68_radial_102_13690)"/>
<path d="M181.427 151.288C179.535 151.288 178.408 150.887 178.073 150.092C177.95 150.098 177.77 150.117 177.565 150.14C177.142 150.187 176.614 150.245 176.077 150.245C175.087 150.245 174.416 150.039 174.028 149.617C173.749 149.312 173.628 148.907 173.671 148.411C173.774 147.23 176.409 141.289 178.672 138.84L178.769 138.735L178.91 138.753C179.465 138.821 192.491 140.463 193.299 145.293L193.305 145.332L193.301 145.37C193.16 146.637 189.84 150.191 184.328 151.04C183.261 151.205 182.284 151.288 181.425 151.288H181.427ZM178.138 149.53C178.239 149.53 178.354 149.539 178.447 149.607L178.528 149.667L178.553 149.764C178.709 150.387 179.73 150.728 181.429 150.728C182.247 150.728 183.222 150.644 184.246 150.485C189.388 149.692 192.565 146.365 192.745 145.341C191.977 141.2 180.413 139.515 178.99 139.323C176.762 141.822 174.313 147.513 174.231 148.455C174.202 148.793 174.272 149.047 174.445 149.235C174.718 149.531 175.269 149.683 176.083 149.683C176.591 149.683 177.099 149.626 177.508 149.58C177.78 149.551 177.995 149.526 178.142 149.526L178.138 149.53Z" fill="#1A0A05"/>
<path d="M178.005 149.873C177.658 147.523 180.39 142.648 180.506 142.442C180.506 142.442 178.239 147.629 178.557 149.791L178.005 149.873Z" fill="#1A0A05"/>
<path d="M102.803 145.898C99.6252 145.863 99.4468 144.572 99.4856 143.872C99.5088 143.451 102.229 136.486 103.383 135.703C107.972 134.582 117.702 138.594 117.702 138.594C119.393 143.383 115.503 145.974 108.719 147.139C104.55 147.854 103.255 147.453 102.803 145.898Z" fill="url(#paint69_radial_102_13690)"/>
<path d="M105.541 147.759C103.891 147.759 102.997 147.282 102.598 146.173C101.182 146.132 100.197 145.826 99.6681 145.26C99.1581 144.715 99.1931 144.069 99.2047 143.858C99.2241 143.482 101.95 136.339 103.224 135.474L103.265 135.445L103.313 135.433C103.872 135.297 104.531 135.228 105.272 135.228C110.206 135.228 117.497 138.21 117.803 138.336L117.92 138.384L117.962 138.503C118.573 140.234 118.5 141.768 117.741 143.057C116.522 145.136 113.501 146.602 108.764 147.414C107.405 147.647 106.35 147.761 105.539 147.761L105.541 147.759ZM103.501 135.963C102.435 136.8 99.8465 143.325 99.7631 143.897C99.7495 144.155 99.7651 144.546 100.075 144.878C100.521 145.355 101.44 145.603 102.805 145.619H103.013L103.071 145.82C103.319 146.673 103.818 147.203 105.541 147.203C106.319 147.203 107.343 147.092 108.671 146.863C113.239 146.08 116.128 144.703 117.261 142.774C117.914 141.661 117.988 140.325 117.478 138.805C116.512 138.419 109.766 135.786 105.274 135.786C104.601 135.786 104.004 135.846 103.5 135.963H103.501Z" fill="#1A0A05"/>
<path d="M102.528 145.952C102.241 144.494 104.558 138.491 104.824 137.81C104.824 137.81 102.859 144.744 103.076 145.844L102.528 145.952Z" fill="#1A0A05"/>
<path d="M95.0586 145.619C95.0586 145.619 88.342 138.588 81.6506 139.53C81.1057 139.495 76.9854 144.754 76.2621 146.2C75.6106 147.503 74.8195 149.46 79.2889 149.553C80.1265 149.832 79.6612 153.475 87.7642 152.068C88.5456 151.932 94.8065 149.739 95.0605 145.621L95.0586 145.619Z" fill="url(#paint70_radial_102_13690)"/>
<path d="M79.7562 148.263C85.1253 152.56 91.1051 149.568 93.5792 144.374C91.2912 142.4 86.3953 138.842 81.511 139.53C81.098 139.503 78.6258 142.524 77.1425 144.614C74.0808 149.31 79.19 148.595 79.7582 148.263H79.7562Z" fill="url(#paint71_radial_102_13690)"/>
<path d="M84.4759 152.669C80.8306 152.669 79.9697 151.102 79.5082 150.261C79.4113 150.084 79.3027 149.886 79.2251 149.832C77.3094 149.786 76.1538 149.392 75.6943 148.63C75.1688 147.761 75.7175 146.664 76.0122 146.076C76.6036 144.893 80.7569 139.34 81.6256 139.253C82.0444 139.195 82.4768 139.166 82.9111 139.166C89.207 139.166 95.0182 145.173 95.2625 145.429L95.3478 145.516L95.34 145.638C95.0763 149.941 88.668 152.196 87.8129 152.343C86.5661 152.56 85.4435 152.669 84.4778 152.669H84.4759ZM81.6741 139.809C81.04 140.093 77.2183 144.911 76.5125 146.324C76.146 147.057 75.8513 147.808 76.1732 148.339C76.5261 148.923 77.5751 149.237 79.2949 149.272L79.3783 149.285C79.6653 149.38 79.8185 149.661 79.9988 149.989C80.4331 150.782 81.1622 152.108 84.4778 152.108C85.4124 152.108 86.5021 152.002 87.7179 151.79C88.3985 151.672 94.4151 149.568 94.7738 145.723C94.0254 144.975 88.5672 139.722 82.9131 139.722C82.5001 139.722 82.089 139.751 81.6915 139.806H81.676L81.6741 139.809Z" fill="#1A0A05"/>
<path d="M79.7426 149.721L79.19 149.636C79.7639 145.925 82.0209 143.631 82.1178 143.534C82.1178 143.534 80.2874 146.196 79.7426 149.721Z" fill="#1A0A05"/>
<defs>
<radialGradient id="paint0_radial_102_13690" cx="0" cy="0" r="1" gradientUnits="userSpaceOnUse" gradientTransform="translate(107.53 28.9231) scale(139.971 139.971)">
<stop stop-color="#E0E3E0"/>
<stop offset="1" stop-color="#BAC1BA"/>
</radialGradient>
<radialGradient id="paint1_radial_102_13690" cx="0" cy="0" r="1" gradientUnits="userSpaceOnUse" gradientTransform="translate(153.324 119.751) scale(4.70592 4.70591)">
<stop stop-color="#FF9AA2"/>
<stop offset="1" stop-color="#FF818A"/>
</radialGradient>
<radialGradient id="paint2_radial_102_13690" cx="0" cy="0" r="1" gradientUnits="userSpaceOnUse" gradientTransform="translate(153.393 119.964) scale(4.24445 4.24442)">
<stop stop-color="#FFC2C6"/>
<stop offset="1" stop-color="#FF929A"/>
</radialGradient>
<radialGradient id="paint3_radial_102_13690" cx="0" cy="0" r="1" gradientUnits="userSpaceOnUse" gradientTransform="translate(147.877 120.082) scale(4.07185 4.07186)">
<stop stop-color="#FF9AA2"/>
<stop offset="1" stop-color="#FF818A"/>
</radialGradient>
<radialGradient id="paint4_radial_102_13690" cx="0" cy="0" r="1" gradientUnits="userSpaceOnUse" gradientTransform="translate(147.877 120.012) scale(3.61426 3.61425)">
<stop stop-color="#FFC2C6"/>
<stop offset="1" stop-color="#FF929A"/>
</radialGradient>
<radialGradient id="paint5_radial_102_13690" cx="0" cy="0" r="1" gradientUnits="userSpaceOnUse" gradientTransform="translate(142.075 119.041) scale(4.77572 4.77571)">
<stop stop-color="#FF9AA2"/>
<stop offset="1" stop-color="#FF818A"/>
</radialGradient>
<radialGradient id="paint6_radial_102_13690" cx="0" cy="0" r="1" gradientUnits="userSpaceOnUse" gradientTransform="translate(141.933 118.993) scale(3.87022 3.87021)">
<stop stop-color="#FFC2C6"/>
<stop offset="1" stop-color="#FF929A"/>
</radialGradient>
<radialGradient id="paint7_radial_102_13690" cx="0" cy="0" r="1" gradientUnits="userSpaceOnUse" gradientTransform="translate(136.109 115.962) scale(5.22749 5.22749)">
<stop stop-color="#FF9AA2"/>
<stop offset="1" stop-color="#FF818A"/>
</radialGradient>
<radialGradient id="paint8_radial_102_13690" cx="0" cy="0" r="1" gradientUnits="userSpaceOnUse" gradientTransform="translate(136.559 116.388) scale(4.03696 4.03696)">
<stop stop-color="#FFC2C6"/>
<stop offset="1" stop-color="#FF929A"/>
</radialGradient>
<radialGradient id="paint9_radial_102_13690" cx="0" cy="0" r="1" gradientUnits="userSpaceOnUse" gradientTransform="translate(136.724 113.381) scale(22.3041 22.3041)">
<stop stop-color="#FF9AA2"/>
<stop offset="1" stop-color="#FF818A"/>
</radialGradient>
<radialGradient id="paint10_radial_102_13690" cx="0" cy="0" r="1" gradientUnits="userSpaceOnUse" gradientTransform="translate(138.145 113.098) scale(16.8711 16.8711)">
<stop stop-color="#FFC2C6"/>
<stop offset="1" stop-color="#FF929A"/>
</radialGradient>
<radialGradient id="paint11_radial_102_13690" cx="0" cy="0" r="1" gradientUnits="userSpaceOnUse" gradientTransform="translate(107.53 28.9229) scale(139.971 139.971)">
<stop stop-color="#E0E3E0"/>
<stop offset="1" stop-color="#BAC1BA"/>
</radialGradient>
<radialGradient id="paint12_radial_102_13690" cx="0" cy="0" r="1" gradientUnits="userSpaceOnUse" gradientTransform="translate(107.53 28.9229) scale(139.973 139.973)">
<stop stop-color="white"/>
<stop offset="1" stop-color="#D6DAD6"/>
</radialGradient>
<radialGradient id="paint13_radial_102_13690" cx="0" cy="0" r="1" gradientUnits="userSpaceOnUse" gradientTransform="translate(108.667 30.0592) scale(88.0938 88.0938)">
<stop stop-color="#7B442D"/>
<stop offset="1" stop-color="#611F03"/>
</radialGradient>
<radialGradient id="paint14_radial_102_13690" cx="0" cy="0" r="1" gradientUnits="userSpaceOnUse" gradientTransform="translate(163.505 45.9705) scale(39.0841 39.0841)">
<stop stop-color="#68290F"/>
<stop offset="1" stop-color="#611F03"/>
</radialGradient>
<radialGradient id="paint15_radial_102_13690" cx="0" cy="0" r="1" gradientUnits="userSpaceOnUse" gradientTransform="translate(108.666 30.0592) scale(88.0939 88.0938)">
<stop stop-color="#7B442D"/>
<stop offset="1" stop-color="#611F03"/>
</radialGradient>
<radialGradient id="paint16_radial_102_13690" cx="0" cy="0" r="1" gradientUnits="userSpaceOnUse" gradientTransform="translate(107.53 28.9228) scale(139.973 139.973)">
<stop stop-color="#E0E3E0"/>
<stop offset="1" stop-color="#BAC1BA"/>
</radialGradient>
<radialGradient id="paint17_radial_102_13690" cx="0" cy="0" r="1" gradientUnits="userSpaceOnUse" gradientTransform="translate(107.53 28.9229) scale(139.973 139.973)">
<stop stop-color="#E0E3E0"/>
<stop offset="1" stop-color="#BAC1BA"/>
</radialGradient>
<radialGradient id="paint18_radial_102_13690" cx="0" cy="0" r="1" gradientUnits="userSpaceOnUse" gradientTransform="translate(107.53 28.9229) scale(139.971 139.971)">
<stop stop-color="white"/>
<stop offset="1" stop-color="#D6DAD6"/>
</radialGradient>
<linearGradient id="paint19_linear_102_13690" x1="15.2095" y1="13.2773" x2="10.521" y2="27.4144" gradientUnits="userSpaceOnUse">
<stop stop-color="#E0E3E0"/>
<stop offset="1" stop-color="#BAC1BA"/>
</linearGradient>
<linearGradient id="paint20_linear_102_13690" x1="14.7075" y1="13.1532" x2="12.7899" y2="25.1574" gradientUnits="userSpaceOnUse">
<stop stop-color="white"/>
<stop offset="1" stop-color="#D6DAD6"/>
</linearGradient>
<radialGradient id="paint21_radial_102_13690" cx="0" cy="0" r="1" gradientUnits="userSpaceOnUse" gradientTransform="translate(7.6551 23.6663) scale(15.1105 15.1105)">
<stop stop-color="#E58B93"/>
<stop offset="1" stop-color="#DE6D77"/>
</radialGradient>
<radialGradient id="paint22_radial_102_13690" cx="0" cy="0" r="1" gradientUnits="userSpaceOnUse" gradientTransform="translate(7.65501 23.6665) scale(15.1105 15.1105)">
<stop stop-color="#EBA8AE"/>
<stop offset="1" stop-color="#E27E87"/>
</radialGradient>
<radialGradient id="paint23_radial_102_13690" cx="0" cy="0" r="1" gradientUnits="userSpaceOnUse" gradientTransform="translate(30.1029 2.16688) scale(11.4012 11.4012)">
<stop stop-color="#B6B6B6"/>
<stop offset="1" stop-color="#979797"/>
</radialGradient>
<radialGradient id="paint24_radial_102_13690" cx="0" cy="0" r="1" gradientUnits="userSpaceOnUse" gradientTransform="translate(29.4861 3.39813) scale(8.4404)">
<stop stop-color="#EAEAEA"/>
<stop offset="1" stop-color="#A8A8A8"/>
</radialGradient>
<radialGradient id="paint25_radial_102_13690" cx="0" cy="0" r="1" gradientUnits="userSpaceOnUse" gradientTransform="translate(27.972 20.9673) scale(43.3498 43.3498)">
<stop stop-color="#E0E3E0"/>
<stop offset="1" stop-color="#BAC1BA"/>
</radialGradient>
<radialGradient id="paint26_radial_102_13690" cx="0" cy="0" r="1" gradientUnits="userSpaceOnUse" gradientTransform="translate(27.9719 20.9673) scale(43.3498 43.3498)">
<stop stop-color="white"/>
<stop offset="1" stop-color="#D6DAD6"/>
</radialGradient>
<radialGradient id="paint27_radial_102_13690" cx="0" cy="0" r="1" gradientUnits="userSpaceOnUse" gradientTransform="translate(47.672 22.6716) scale(24.1539 24.1539)">
<stop stop-color="#7B442D"/>
<stop offset="1" stop-color="#611F03"/>
</radialGradient>
<radialGradient id="paint28_radial_102_13690" cx="0" cy="0" r="1" gradientUnits="userSpaceOnUse" gradientTransform="translate(64.1281 6.44042) scale(11.1259 11.1259)">
<stop stop-color="#B6B6B6"/>
<stop offset="1" stop-color="#979797"/>
</radialGradient>
<radialGradient id="paint29_radial_102_13690" cx="0" cy="0" r="1" gradientUnits="userSpaceOnUse" gradientTransform="translate(64.8379 6.72352) scale(7.39141 7.3914)">
<stop stop-color="#EAEAEA"/>
<stop offset="1" stop-color="#A8A8A8"/>
</radialGradient>
<radialGradient id="paint30_radial_102_13690" cx="0" cy="0" r="1" gradientUnits="userSpaceOnUse" gradientTransform="translate(23.5668 25.9388) scale(6.55764)">
<stop stop-color="white"/>
<stop offset="0.37" stop-color="#FCFCFC"/>
<stop offset="0.53" stop-color="#F5F5F5"/>
<stop offset="0.65" stop-color="#E9E9E9"/>
<stop offset="0.74" stop-color="#D7D7D7"/>
<stop offset="0.83" stop-color="#C0C0C0"/>
<stop offset="0.91" stop-color="#A4A4A4"/>
<stop offset="0.92" stop-color="#A1A1A1"/>
<stop offset="1" stop-color="white"/>
</radialGradient>
<radialGradient id="paint31_radial_102_13690" cx="0" cy="0" r="1" gradientUnits="userSpaceOnUse" gradientTransform="translate(27.2195 25.6092) scale(2.32484)">
<stop stop-color="white"/>
<stop offset="1"/>
</radialGradient>
<radialGradient id="paint32_radial_102_13690" cx="0" cy="0" r="1" gradientUnits="userSpaceOnUse" gradientTransform="translate(27.9719 20.9673) scale(43.3498)">
<stop stop-color="white"/>
<stop offset="1" stop-color="#D6DAD6"/>
</radialGradient>
<radialGradient id="paint33_radial_102_13690" cx="0" cy="0" r="1" gradientUnits="userSpaceOnUse" gradientTransform="translate(24.9413 41.8036) scale(19.5954 19.5954)">
<stop stop-color="#E58B93"/>
<stop offset="1" stop-color="#DE6D77"/>
</radialGradient>
<radialGradient id="paint34_radial_102_13690" cx="0" cy="0" r="1" gradientUnits="userSpaceOnUse" gradientTransform="translate(25.366 40.0992) scale(17.8542 17.8542)">
<stop stop-color="#EBA8AE"/>
<stop offset="1" stop-color="#E27E87"/>
</radialGradient>
<radialGradient id="paint35_radial_102_13690" cx="0" cy="0" r="1" gradientUnits="userSpaceOnUse" gradientTransform="translate(23.8517 34.7477) scale(22.8664 22.8664)">
<stop stop-color="#EBA8AE"/>
<stop offset="1"/>
</radialGradient>
<radialGradient id="paint36_radial_102_13690" cx="0" cy="0" r="1" gradientUnits="userSpaceOnUse" gradientTransform="translate(23.8517 34.7477) scale(22.8664 22.8664)">
<stop stop-color="#EBA8AE"/>
<stop offset="1"/>
</radialGradient>
<radialGradient id="paint37_radial_102_13690" cx="0" cy="0" r="1" gradientUnits="userSpaceOnUse" gradientTransform="translate(35.5186 48.7936) scale(3.45333 3.45334)">
<stop stop-color="#E58B93"/>
<stop offset="1" stop-color="#DE6D77"/>
</radialGradient>
<radialGradient id="paint38_radial_102_13690" cx="0" cy="0" r="1" gradientUnits="userSpaceOnUse" gradientTransform="translate(35.5185 48.7936) scale(3.45333 3.45334)">
<stop stop-color="#E07680"/>
<stop offset="1" stop-color="#DB616C"/>
</radialGradient>
<radialGradient id="paint39_radial_102_13690" cx="0" cy="0" r="1" gradientUnits="userSpaceOnUse" gradientTransform="translate(16.6291 47.2249) scale(3.78684 3.78682)">
<stop stop-color="#E58B93"/>
<stop offset="1" stop-color="#DE6D77"/>
</radialGradient>
<radialGradient id="paint40_radial_102_13690" cx="0" cy="0" r="1" gradientUnits="userSpaceOnUse" gradientTransform="translate(16.6289 47.2249) scale(3.78683 3.78683)">
<stop stop-color="#E07680"/>
<stop offset="1" stop-color="#DB616C"/>
</radialGradient>
<radialGradient id="paint41_radial_102_13690" cx="0" cy="0" r="1" gradientUnits="userSpaceOnUse" gradientTransform="translate(52.0095 33.148) rotate(0.650001) scale(9.47727 7.31674)">
<stop stop-color="white"/>
<stop offset="0.37" stop-color="#FCFCFC"/>
<stop offset="0.53" stop-color="#F5F5F5"/>
<stop offset="0.65" stop-color="#E9E9E9"/>
<stop offset="0.74" stop-color="#D7D7D7"/>
<stop offset="0.83" stop-color="#C0C0C0"/>
<stop offset="0.91" stop-color="#A4A4A4"/>
<stop offset="0.92" stop-color="#A1A1A1"/>
<stop offset="1" stop-color="white"/>
</radialGradient>
<radialGradient id="paint42_radial_102_13690" cx="0" cy="0" r="1" gradientUnits="userSpaceOnUse" gradientTransform="translate(108.667 30.0591) scale(88.0942 88.0938)">
<stop stop-color="#7B442D"/>
<stop offset="1" stop-color="#611F03"/>
</radialGradient>
<radialGradient id="paint43_radial_102_13690" cx="0" cy="0" r="1" gradientUnits="userSpaceOnUse" gradientTransform="translate(108.666 30.0591) scale(88.0938 88.0938)">
<stop stop-color="#7B442D"/>
<stop offset="1" stop-color="#611F03"/>
</radialGradient>
<radialGradient id="paint44_radial_102_13690" cx="0" cy="0" r="1" gradientUnits="userSpaceOnUse" gradientTransform="translate(108.666 30.0591) scale(88.0918 88.0921)">
<stop stop-color="#7B442D"/>
<stop offset="1" stop-color="#611F03"/>
</radialGradient>
<radialGradient id="paint45_radial_102_13690" cx="0" cy="0" r="1" gradientUnits="userSpaceOnUse" gradientTransform="translate(108.667 30.0591) scale(88.0938 88.0939)">
<stop stop-color="#7B442D"/>
<stop offset="1" stop-color="#611F03"/>
</radialGradient>
<radialGradient id="paint46_radial_102_13690" cx="0" cy="0" r="1" gradientUnits="userSpaceOnUse" gradientTransform="translate(108.667 30.0591) scale(88.0938 88.0938)">
<stop stop-color="#7B442D"/>
<stop offset="1" stop-color="#611F03"/>
</radialGradient>
<radialGradient id="paint47_radial_102_13690" cx="0" cy="0" r="1" gradientUnits="userSpaceOnUse" gradientTransform="translate(108.666 30.0591) scale(88.0942 88.0938)">
<stop stop-color="#7B442D"/>
<stop offset="1" stop-color="#611F03"/>
</radialGradient>
<radialGradient id="paint48_radial_102_13690" cx="0" cy="0" r="1" gradientUnits="userSpaceOnUse" gradientTransform="translate(108.667 30.0592) scale(88.0938 88.0938)">
<stop stop-color="#7B442D"/>
<stop offset="1" stop-color="#611F03"/>
</radialGradient>
<radialGradient id="paint49_radial_102_13690" cx="0" cy="0" r="1" gradientUnits="userSpaceOnUse" gradientTransform="translate(108.666 30.0591) scale(88.0941 88.094)">
<stop stop-color="#7B442D"/>
<stop offset="1" stop-color="#611F03"/>
</radialGradient>
<radialGradient id="paint50_radial_102_13690" cx="0" cy="0" r="1" gradientUnits="userSpaceOnUse" gradientTransform="translate(108.667 30.0592) scale(88.0937 88.0938)">
<stop stop-color="#7B442D"/>
<stop offset="1" stop-color="#611F03"/>
</radialGradient>
<radialGradient id="paint51_radial_102_13690" cx="0" cy="0" r="1" gradientUnits="userSpaceOnUse" gradientTransform="translate(107.53 28.9229) scale(139.973 139.973)">
<stop stop-color="#E0E3E0"/>
<stop offset="1" stop-color="#BAC1BA"/>
</radialGradient>
<radialGradient id="paint52_radial_102_13690" cx="0" cy="0" r="1" gradientUnits="userSpaceOnUse" gradientTransform="translate(107.53 28.9229) scale(139.971 139.971)">
<stop stop-color="white"/>
<stop offset="1" stop-color="#D6DAD6"/>
</radialGradient>
<radialGradient id="paint53_radial_102_13690" cx="0" cy="0" r="1" gradientUnits="userSpaceOnUse" gradientTransform="translate(107.53 28.9229) scale(139.971 139.971)">
<stop stop-color="#E0E3E0"/>
<stop offset="1" stop-color="#BAC1BA"/>
</radialGradient>
<radialGradient id="paint54_radial_102_13690" cx="0" cy="0" r="1" gradientUnits="userSpaceOnUse" gradientTransform="translate(107.528 28.923) scale(139.971 139.971)">
<stop stop-color="white"/>
<stop offset="1" stop-color="#D6DAD6"/>
</radialGradient>
<radialGradient id="paint55_radial_102_13690" cx="0" cy="0" r="1" gradientUnits="userSpaceOnUse" gradientTransform="translate(124.719 46.397) scale(36.7457 36.7457)">
<stop stop-color="#68290F"/>
<stop offset="1" stop-color="#611F03"/>
</radialGradient>
<radialGradient id="paint56_radial_102_13690" cx="0" cy="0" r="1" gradientUnits="userSpaceOnUse" gradientTransform="translate(124.72 46.397) scale(36.7456 36.7457)">
<stop stop-color="#7B442D"/>
<stop offset="1" stop-color="#611F03"/>
</radialGradient>
<radialGradient id="paint57_radial_102_13690" cx="0" cy="0" r="1" gradientUnits="userSpaceOnUse" gradientTransform="translate(86.2191 20.9673) scale(19.1378 19.1378)">
<stop stop-color="#E0E3E0"/>
<stop offset="1" stop-color="#BAC1BA"/>
</radialGradient>
<radialGradient id="paint58_radial_102_13690" cx="0" cy="0" r="1" gradientUnits="userSpaceOnUse" gradientTransform="translate(86.4748 20.1141) scale(17.7165 17.7165)">
<stop stop-color="white"/>
<stop offset="1" stop-color="#D6DAD6"/>
</radialGradient>
<radialGradient id="paint59_radial_102_13690" cx="0" cy="0" r="1" gradientUnits="userSpaceOnUse" gradientTransform="translate(87.9232 33.941) scale(13.6621 13.6621)">
<stop stop-color="#E58B93"/>
<stop offset="1" stop-color="#DE6D77"/>
</radialGradient>
<radialGradient id="paint60_radial_102_13690" cx="0" cy="0" r="1" gradientUnits="userSpaceOnUse" gradientTransform="translate(87.9235 33.941) scale(13.6621 13.6621)">
<stop stop-color="#EBA8AE"/>
<stop offset="1" stop-color="#E27E87"/>
</radialGradient>
<radialGradient id="paint61_radial_102_13690" cx="0" cy="0" r="1" gradientUnits="userSpaceOnUse" gradientTransform="translate(45.8729 -1.83519) scale(18.6298 18.6297)">
<stop stop-color="#7B442D"/>
<stop offset="1" stop-color="#611F03"/>
</radialGradient>
<radialGradient id="paint62_radial_102_13690" cx="0" cy="0" r="1" gradientUnits="userSpaceOnUse" gradientTransform="translate(51.4124 0.93562) scale(11.6029 11.6029)">
<stop stop-color="#7B442D"/>
<stop offset="1"/>
</radialGradient>
<radialGradient id="paint63_radial_102_13690" cx="0" cy="0" r="1" gradientUnits="userSpaceOnUse" gradientTransform="translate(37.0155 1.69182) scale(10.7071 10.7071)">
<stop stop-color="#7B442D"/>
<stop offset="1"/>
</radialGradient>
<radialGradient id="paint64_radial_102_13690" cx="0" cy="0" r="1" gradientUnits="userSpaceOnUse" gradientTransform="translate(54.2782 28.9462) scale(2.60408 2.60405)">
<stop stop-color="white"/>
<stop offset="1"/>
</radialGradient>
<radialGradient id="paint65_radial_102_13690" cx="0" cy="0" r="1" gradientUnits="userSpaceOnUse" gradientTransform="translate(57.3553 33.5261) scale(0.849275 0.849272)">
<stop stop-color="white"/>
<stop offset="1"/>
</radialGradient>
<radialGradient id="paint66_radial_102_13690" cx="0" cy="0" r="1" gradientUnits="userSpaceOnUse" gradientTransform="translate(158.39 143.571) scale(13.6388 13.6388)">
<stop stop-color="#431E0E"/>
<stop offset="1" stop-color="#3A1403"/>
</radialGradient>
<radialGradient id="paint67_radial_102_13690" cx="0" cy="0" r="1" gradientUnits="userSpaceOnUse" gradientTransform="translate(159.385 144.139) scale(9.15006 9.15006)">
<stop stop-color="#4D2A1A"/>
<stop offset="1" stop-color="#3E1807"/>
</radialGradient>
<radialGradient id="paint68_radial_102_13690" cx="0" cy="0" r="1" gradientUnits="userSpaceOnUse" gradientTransform="translate(179.629 142.648) scale(12.4541 12.4541)">
<stop stop-color="#431E0E"/>
<stop offset="1" stop-color="#3A1403"/>
</radialGradient>
<radialGradient id="paint69_radial_102_13690" cx="0" cy="0" r="1" gradientUnits="userSpaceOnUse" gradientTransform="translate(104.31 139.214) scale(11.7987)">
<stop stop-color="#431E0E"/>
<stop offset="1" stop-color="#3A1403"/>
</radialGradient>
<radialGradient id="paint70_radial_102_13690" cx="0" cy="0" r="1" gradientUnits="userSpaceOnUse" gradientTransform="translate(80.2991 140.54) scale(13.6582 13.6582)">
<stop stop-color="#431E0E"/>
<stop offset="1" stop-color="#3A1403"/>
</radialGradient>
<radialGradient id="paint71_radial_102_13690" cx="0" cy="0" r="1" gradientUnits="userSpaceOnUse" gradientTransform="translate(81.8852 141.795) scale(9.28579 9.28578)">
<stop stop-color="#5A392A"/>
<stop offset="1" stop-color="#3E1807"/>
</radialGradient>
</defs>
</svg>
