<svg width="179" height="212" viewBox="0 0 179 212" fill="none" xmlns="http://www.w3.org/2000/svg">
<path d="M47.2945 201.536C40.5948 202.086 26.2223 201.775 18.4344 197.168C16.2347 195.867 13.6608 192.403 13.9026 189.763C14.3 185.41 20.5937 182.672 22.0879 181.278C24.4862 179.041 34.0075 169.995 33.1984 162.383C30.9614 161.902 17.4267 157.226 17.2798 157.917C15.2126 167.611 7.53694 174.368 4.58586 177.826C1.20866 181.785 -0.70881 187.06 0.244175 192.268C1.18564 197.419 4.60887 201.682 8.7807 204.677C17.6541 211.048 29.6859 212.502 40.3069 211.494C45.5584 210.996 50.738 209.876 55.7563 208.264C60.2822 206.81 64.7678 204.599 67.0625 200.191C60.5096 198.418 53.8387 201.003 47.2945 201.541V201.536Z" fill="#4F392B"/>
<path d="M148.043 188.85C146.103 188.182 145.397 186.25 145.104 184.22C142.699 167.645 143.365 143.524 145.19 117.391L118.011 117.869L129.153 172.537C129.188 174.538 132.312 177.967 132.352 178.934L133.463 192.011C133.63 195.872 136.806 198.915 140.67 198.915H153.781L153.099 194.827C152.638 192.057 150.695 189.766 148.04 188.853L148.043 188.85Z" fill="#DEC6B0"/>
<path d="M98.8681 178.405L82.0483 179.499C80.6203 179.591 80.0186 177.74 81.2134 176.948C85.5378 174.089 91.0859 169.255 96.3057 161.251C107.033 144.803 92.9688 142.183 92.9688 142.183L60.5501 148.856L55.0682 189.619H109.875C111.859 189.619 113.002 187.362 111.827 185.761L110.356 183.76C107.693 180.132 103.362 178.114 98.871 178.405H98.8681Z" fill="#DEC6B0"/>
<path d="M152.558 39.6812C152.558 39.6812 152.477 72.8139 150.015 80.9992C158.598 98.4812 153.194 115.96 143.261 124.304C140.952 126.244 122.523 145.281 101.785 148.379C97.06 149.084 70.6356 160.373 67.935 164.11C64.8371 168.4 50.7727 190.33 50.7727 190.33L39.7284 190.014C25.425 190.65 18.7857 176.131 18.7857 176.131C12.8721 155.637 21.7339 138.63 38.1391 123.27C47.1622 114.823 65.9081 98.6971 75.3257 90.6932C84.8613 82.5885 91.8517 72.4195 91.8517 72.4195C97.9382 64.1939 109.567 60.1459 109.567 60.1459L116.206 40.519L152.558 39.684V39.6812Z" fill="#F8DDC5"/>
<path d="M138.539 105.04L132.533 115.246L125.045 184.221C124.823 186.262 126.044 188.183 127.984 188.851C130.639 189.763 132.579 192.058 133.043 194.825L133.725 198.913H120.611C116.747 198.913 113.569 195.87 113.405 192.009L112.812 178.232C112.771 177.265 112.423 176.335 111.815 175.578C110.566 174.015 109.866 172.08 109.834 170.079L105.121 117.863L99.6511 101.386C95.3526 91.9888 98.3095 80.861 106.711 74.8437C114.954 68.9358 126.205 69.6095 133.685 76.4618C142.746 84.7593 144.767 94.4475 138.539 105.037V105.04Z" fill="#F8DDC5"/>
<path d="M152.394 51.0705C152.483 47.3075 152.526 44.0858 152.543 42.0387L135.076 41.4802V41.3247L132.669 41.4024L130.259 41.3247V41.4802L115.725 41.9466L112.518 51.4275C116.606 56.1435 122.719 60.3844 131.543 61.8067H133.792C142.265 60.4391 148.305 55.6224 152.394 51.0734V51.0705Z" fill="#DEC6B0"/>
<path d="M132.176 44.4226C150.386 44.4226 165.148 35.3234 165.148 24.099C165.148 12.8746 150.386 3.77539 132.176 3.77539C113.967 3.77539 99.2048 12.8746 99.2048 24.099C99.2048 35.3234 113.967 44.4226 132.176 44.4226Z" fill="#4F392B"/>
<path d="M141.928 2.42238C142.115 2.37631 143.575 1.74579 145.314 0.979949C149.31 -0.776307 153.951 -0.140022 157.323 2.63256C165.462 9.3236 179.117 19.4897 178.999 24.937C178.876 30.7183 173.135 39.3729 172.93 45.6061C172.873 47.3307 174.652 55.9421 170.469 58.0323C166.285 60.1255 152.463 55.5937 159.396 29.2441C163.504 13.6279 141.925 2.42238 141.925 2.42238H141.928Z" fill="#A35331"/>
<path d="M161.359 29.244C164.863 15.9281 149.693 5.82244 145.15 3.13623H143.189C147.732 5.82244 162.902 15.9281 159.398 29.244C153.047 53.3882 164.114 59.2069 169.231 58.4065C163.763 57.632 155.736 50.6156 161.359 29.244Z" fill="#824727"/>
<path d="M122.428 2.42238C122.241 2.37631 120.781 1.74579 119.042 0.979949C115.046 -0.776307 110.405 -0.140022 107.033 2.63256C98.8938 9.3236 85.2382 19.4897 85.3563 24.937C85.4801 30.7183 91.221 39.3729 91.4255 45.6061C91.483 47.3307 89.7038 55.9421 93.8871 58.0323C98.0704 60.1255 111.893 55.5937 104.96 29.2441C100.852 13.6279 122.431 2.42238 122.431 2.42238H122.428Z" fill="#A35331"/>
<path d="M102.997 29.244C99.4927 15.9281 114.663 5.82244 119.206 3.13623H121.167C116.623 5.82244 101.453 15.9281 104.957 29.244C111.309 53.3882 100.241 59.2069 95.1252 58.4065C100.593 57.632 108.619 50.6156 102.997 29.244Z" fill="#824727"/>
<path d="M158.702 33.9602C158.374 29.368 155.912 25.5935 154.927 21.986C153.943 18.3785 154.271 5.08852 141.64 1.15278C138.629 0.214187 135.583 0.885016 133.783 1.48675C132.729 1.84088 131.601 1.838 130.544 1.48675C128.75 0.885016 125.716 0.217064 122.707 1.15565C110.077 5.09139 110.405 18.3785 109.42 21.9889C108.435 25.5964 105.974 29.3709 105.648 33.9631C105.32 38.5553 111.225 56.7656 131.074 60.0449H133.271C153.119 56.7627 159.024 38.5553 158.696 33.9631L158.702 33.9602Z" fill="#CE783E"/>
<path d="M115.42 42.9487C114.375 42.9487 113.698 44.0342 114.176 44.9526C116.266 48.9603 120.787 57.7877 121.351 60.2349C121.65 61.5363 122.134 63.4854 122.603 65.3424C123.648 69.4912 127.083 72.6439 131.35 73.3176C131.802 73.3895 132.551 73.3895 133 73.3176C137.267 72.6467 140.701 69.4912 141.749 65.3424C142.219 63.4854 142.699 61.5363 143.002 60.2349C143.566 57.7877 148.086 48.9603 150.177 44.9526C150.654 44.0342 149.978 42.9487 148.933 42.9487H115.42Z" fill="#F8DDC5"/>
<path d="M116.733 44.1118C115.771 44.1118 115.146 45.0878 115.587 45.9113C117.513 49.5101 121.679 57.4363 122.2 59.6331C122.477 60.802 122.923 62.5525 123.355 64.2195C124.319 67.9451 127.483 70.1505 131.416 70.7522C131.831 70.8155 132.522 70.8155 132.937 70.7522C136.869 70.1476 140.034 67.9422 140.998 64.2195C141.43 62.5525 141.876 60.802 142.153 59.6331C142.674 57.4363 146.84 49.5101 148.766 45.9113C149.206 45.0878 148.582 44.1118 147.62 44.1118H116.733Z" fill="#4F392B"/>
<path d="M153.41 21.4099C153.574 21.3955 150.853 18.0961 150.853 18.0961C149.989 16.5558 148.227 15.5884 146.336 15.5884C143.549 15.5884 141.292 17.8456 141.292 20.6326C141.292 20.6498 141.119 25.838 141.119 25.838L142.081 25.0866C142.59 24.6892 143.281 24.672 143.84 24.9973C144.574 25.4263 145.426 25.6768 146.339 25.6768C147.942 25.6768 149.35 24.9167 150.274 23.7507C150.761 23.3706 151.017 21.6403 153.413 21.4099H153.41Z" fill="#824727"/>
<path d="M150.257 20.6294C150.257 18.4643 148.501 16.7109 146.339 16.7109C144.176 16.7109 142.42 18.4672 142.42 20.6294C142.42 22.7916 144.176 24.5479 146.339 24.5479C148.501 24.5479 150.257 22.7916 150.257 20.6294Z" fill="#36271D"/>
<path d="M147.217 20.6296C147.217 20.143 146.822 19.7485 146.336 19.7485C145.849 19.7485 145.455 20.143 145.455 20.6296C145.455 21.1161 145.849 21.5106 146.336 21.5106C146.822 21.5106 147.217 21.1161 147.217 20.6296Z" fill="#FFE6C3"/>
<path d="M110.943 21.4099C110.779 21.3955 113.5 18.0961 113.5 18.0961C114.363 16.5558 116.125 15.5884 118.017 15.5884C120.804 15.5884 123.061 17.8456 123.061 20.6326C123.061 20.6498 123.234 25.838 123.234 25.838L122.272 25.0866C121.763 24.6892 121.072 24.672 120.513 24.9973C119.779 25.4263 118.927 25.6768 118.014 25.6768C116.41 25.6768 115.003 24.9167 114.078 23.7507C113.592 23.3706 113.336 21.6403 110.94 21.4099H110.943Z" fill="#824727"/>
<path d="M114.099 20.6294C114.099 18.4643 115.852 16.7109 118.017 16.7109C120.182 16.7109 121.936 18.4672 121.936 20.6294C121.936 22.7916 120.182 24.5479 118.017 24.5479C115.852 24.5479 114.099 22.7916 114.099 20.6294Z" fill="#36271D"/>
<path d="M117.136 20.6296C117.136 20.143 117.531 19.7485 118.017 19.7485C118.504 19.7485 118.898 20.143 118.898 20.6296C118.898 21.1161 118.504 21.5106 118.017 21.5106C117.531 21.5106 117.136 21.1161 117.136 20.6296Z" fill="#FFE6C3"/>
<path d="M137.468 28.1558C137.457 28.1328 137.448 28.1126 137.436 28.0896C131.966 17.4599 133.098 5.88301 133.817 1.4751C133.809 1.47798 133.797 1.48086 133.789 1.48373C132.735 1.83786 131.606 1.83499 130.55 1.48373C130.55 1.48373 130.544 1.48373 130.541 1.48373C131.258 5.89741 132.387 17.4685 126.919 28.0924C126.908 28.1155 126.899 28.1356 126.887 28.1587H137.471L137.468 28.1558Z" fill="#F8DDC5"/>
<path d="M142.322 11.9381C142.858 13.1991 142.377 14.6128 141.246 15.0907C140.117 15.5686 138.767 14.9352 138.231 13.6713C137.696 12.4074 138.177 10.9966 139.308 10.5187C140.437 10.0407 141.787 10.6741 142.322 11.9381Z" fill="#F8DDC5"/>
<path d="M122.031 11.9381C121.495 13.1991 121.976 14.6128 123.107 15.0907C124.236 15.5686 125.586 14.9352 126.122 13.6713C126.657 12.4074 126.177 10.9966 125.045 10.5187C123.916 10.0407 122.566 10.6741 122.031 11.9381Z" fill="#F8DDC5"/>
<path d="M125.388 46.7578C125.388 46.7578 124.59 60.5027 124.944 61.9998C125.736 65.3453 128.33 67.8876 131.555 68.4289C131.756 68.4634 132.6 68.4634 132.801 68.4289C136.026 67.8876 138.623 65.3453 139.412 61.9998C139.766 60.5027 138.968 46.7578 138.968 46.7578H125.385H125.388Z" fill="#F2A0A0"/>
<path d="M131.045 50.5723L132.13 62.1175L133.216 50.5723H131.045Z" fill="#D68080"/>
<path d="M139.959 28.8068C138.476 26.1148 135.712 24.4132 132.669 24.2347V24.2002H132.202C132.194 24.2002 132.185 24.2002 132.176 24.2002C132.168 24.2002 132.159 24.2002 132.151 24.2002H131.684V24.2347C128.641 24.4132 125.877 26.1119 124.394 28.8068C121.452 34.1533 117.044 39.5804 116.799 43.3319C116.687 45.068 119.629 52.3723 122.212 52.8646C123.959 53.1986 128.065 52.1822 130.541 51.4884C131.615 51.1889 132.738 51.1889 133.812 51.4884C136.288 52.1822 140.396 53.1986 142.141 52.8646C144.724 52.3723 147.669 45.068 147.554 43.3319C147.309 39.5804 142.901 34.1533 139.959 28.8068Z" fill="#F8DDC5"/>
<path d="M142.397 51.4942C140.606 51.8281 136.394 50.8118 133.855 50.118C132.755 49.8185 131.601 49.8185 130.501 50.118C127.961 50.8118 123.749 51.8281 121.959 51.4942C120.001 51.1314 117.844 47.0517 116.9 44.2417C117.433 46.8185 119.96 52.4356 122.215 52.8646C123.962 53.1986 128.068 52.1823 130.544 51.4884C131.618 51.189 132.741 51.189 133.815 51.4884C136.291 52.1823 140.399 53.1986 142.144 52.8646C144.398 52.4356 146.926 46.8185 147.459 44.2417C146.512 47.0488 144.358 51.1285 142.4 51.4942H142.397Z" fill="#4F392B"/>
<path d="M135.326 33.9603C134.082 33.8048 132.795 34.2626 132.176 34.5246C131.56 34.2597 130.27 33.8048 129.027 33.9603C127.057 34.2079 124.023 36.1744 124.515 40.3577C124.714 42.0506 126.41 43.9105 128.154 45.3961C130.472 47.3654 133.878 47.3654 136.193 45.3961C137.937 43.9134 139.633 42.0506 139.832 40.3577C140.324 36.1744 137.29 34.205 135.32 33.9603H135.326Z" fill="#4F392B"/>
<path d="M138.657 41.0947C138.657 40.0986 137.848 39.2896 136.852 39.2896C135.856 39.2896 135.047 40.0986 135.047 41.0947C135.047 42.0909 135.856 42.8999 136.852 42.8999C137.848 42.8999 138.657 42.0938 138.657 41.0947Z" fill="#36271D"/>
<path d="M129.306 41.0947C129.306 40.0986 128.497 39.2896 127.501 39.2896C126.504 39.2896 125.695 40.0986 125.695 41.0947C125.695 42.0909 126.504 42.8999 127.501 42.8999C128.497 42.8999 129.306 42.0938 129.306 41.0947Z" fill="#36271D"/>
<path d="M132.177 38.8374C131.797 38.8374 131.491 39.1455 131.491 39.5226V51.183C131.491 51.2291 131.509 51.2694 131.517 51.3126C131.958 51.2579 132.398 51.2607 132.839 51.3039C132.847 51.2636 132.862 51.2262 132.862 51.1859V39.5255C132.862 39.1455 132.554 38.8403 132.177 38.8403V38.8374Z" fill="#36271D"/>
<path d="M151.852 41.4689C151.682 41.4689 151.512 41.3998 151.389 41.2674C150.473 40.2741 149.022 41.0687 149.007 41.0745C148.705 41.2443 148.319 41.1349 148.15 40.8297C147.98 40.5246 148.089 40.1416 148.394 39.9746C149.2 39.5255 151.052 39.0476 152.313 40.4123C152.549 40.6685 152.534 41.0658 152.278 41.3019C152.157 41.4142 152.005 41.4689 151.849 41.4689H151.852Z" fill="#B86B37"/>
<path d="M112.503 41.4689C112.673 41.4689 112.843 41.3998 112.967 41.2674C113.882 40.2741 115.334 41.0687 115.348 41.0745C115.65 41.2443 116.036 41.1349 116.206 40.8297C116.376 40.5246 116.266 40.1416 115.961 39.9746C115.155 39.5255 113.304 39.0476 112.043 40.4123C111.807 40.6685 111.821 41.0658 112.077 41.3019C112.198 41.4142 112.351 41.4689 112.506 41.4689H112.503Z" fill="#B86B37"/>
<path d="M91.8545 72.4194C91.8545 72.4194 84.8611 82.5913 75.3284 90.696C65.9108 98.6999 47.1649 114.826 38.1418 123.273C21.7338 138.633 12.8748 155.64 18.7885 176.133C18.7885 176.133 25.4277 190.653 39.7311 190.017L41.0238 190.054C44.686 184.221 44.6285 164.551 59.119 147.904C75.3198 129.293 97.2441 124.995 110.407 109.862C113.603 106.191 121.915 95.9647 113.102 83.9675C107.943 76.9453 101.623 68.8003 102.176 63.6611C98.6895 65.688 94.6789 68.6017 91.8545 72.4194Z" fill="#4F392B"/>
<path d="M96.3171 193.771L94.0656 191.188C92.0128 188.833 89.0128 187.523 85.8889 187.618L66.5874 186.357C62.7323 186.475 60.1641 183.962 62.4329 180.838C62.882 180.222 63.334 179.591 63.786 178.958H35.5823V188.053C37.7301 188.879 39.8203 189.49 41.6629 189.916L41.6169 189.985C39.9643 192.576 41.735 195.985 44.8041 196.126L94.0944 198.375C96.5388 198.487 97.9265 195.614 96.3171 193.768V193.771Z" fill="#F8DDC5"/>
<path d="M62.4329 180.841C73.8975 165.063 87.723 143.611 68.8907 132.644C62.3667 128.847 48.8838 132.938 37.7762 137.83C20.4728 145.454 14.6224 167.292 26.1101 182.309C26.2511 182.493 26.3605 182.709 26.539 182.859C30.9095 186.582 36.4058 188.594 40.7734 189.691C40.7734 189.691 56.8906 188.738 62.43 180.835L62.4329 180.841Z" fill="#CE783E"/>
<path d="M133.213 198.875H119.986C116.048 198.875 112.878 195.792 112.765 191.853L112.354 177.276L109.872 172.929C109.837 172.871 109.817 172.805 109.811 172.739L106.518 139.056C106.241 136.557 105.199 134.248 103.509 132.382L101.666 130.344C101.548 130.214 101.511 130.03 101.571 129.863L105.023 120.088C105.113 119.838 105.383 119.711 105.634 119.798C105.881 119.887 106.014 120.157 105.925 120.408L102.565 129.912L104.217 131.74C106.043 133.755 107.168 136.252 107.468 138.955L110.75 172.543L113.24 176.905C113.281 176.971 113.301 177.049 113.304 177.126L113.718 191.824C113.813 195.242 116.566 197.916 119.983 197.916H133.21C133.475 197.916 133.688 198.129 133.688 198.394C133.688 198.659 133.475 198.872 133.21 198.872L133.213 198.875Z" fill="#DEC6B0"/>
<path d="M130.311 138.846C130.293 138.846 130.279 138.846 130.262 138.846C130 138.82 129.81 138.587 129.836 138.325L130.789 128.789C130.803 128.66 130.866 128.542 130.967 128.461C131.114 128.346 145.498 116.763 137.834 102.201C137.71 101.968 137.799 101.68 138.035 101.559C138.269 101.438 138.559 101.527 138.677 101.76C146.261 116.173 133.325 127.727 131.719 129.08L130.786 138.42C130.763 138.665 130.553 138.849 130.311 138.849V138.846Z" fill="#DEC6B0"/>
<path d="M128.088 197.643C128.051 197.643 128.016 197.64 127.979 197.629C127.72 197.568 127.561 197.312 127.622 197.056C128.169 194.727 124.541 192.51 124.504 192.49C124.276 192.354 124.207 192.061 124.339 191.836C124.478 191.609 124.774 191.539 124.993 191.672C125.166 191.776 129.257 194.269 128.549 197.275C128.497 197.493 128.301 197.643 128.085 197.643H128.088Z" fill="#DEC6B0"/>
<path d="M88.2009 197.643C88.1519 197.643 88.1001 197.634 88.0512 197.617C87.8007 197.534 87.6654 197.263 87.7489 197.015C88.5492 194.606 85.4427 193.212 85.3103 193.152C85.0684 193.045 84.9561 192.766 85.0626 192.524C85.1692 192.282 85.4514 192.173 85.6903 192.276C87.0924 192.887 89.5166 194.724 88.6557 197.315C88.5866 197.516 88.4024 197.643 88.2009 197.643Z" fill="#DEC6B0"/>
<path d="M93.602 197.644C93.5531 197.644 93.5012 197.635 93.4523 197.618C93.2018 197.534 93.0665 197.264 93.15 197.016C93.9532 194.606 90.8438 193.213 90.7114 193.155C90.4695 193.049 90.3572 192.766 90.4637 192.527C90.5703 192.286 90.8496 192.176 91.0914 192.28C92.4936 192.89 94.9177 194.73 94.0569 197.318C93.9878 197.52 93.8035 197.646 93.602 197.646V197.644Z" fill="#DEC6B0"/>
</svg>
