<svg width="148" height="128" viewBox="0 0 148 128" fill="none" xmlns="http://www.w3.org/2000/svg">
<path fill-rule="evenodd" clip-rule="evenodd" d="M55.1603 96.6489C54.5619 97.5192 54.0559 99.2957 54.0106 100.632C53.9634 101.969 54.375 102.868 54.1126 104.214C53.8502 105.56 52.9157 107.355 52.0831 108.731C51.2506 110.106 50.5218 111.059 49.6232 111.574C48.7246 112.088 47.6598 112.163 45.8966 111.909C44.1333 111.654 41.6734 111.067 39.3683 110.821C37.0633 110.576 34.913 110.668 34.0748 110.812C33.2384 110.955 33.7142 111.148 34.1257 111.452C34.5373 111.756 34.8828 112.171 34.8091 112.564C34.7336 112.956 34.239 113.328 33.3404 113.56C32.4418 113.794 31.1429 113.891 30.0291 114.04C28.9171 114.189 27.9902 114.393 27.7145 114.606C27.4389 114.82 27.8127 115.044 28.734 115.271C29.6553 115.497 31.124 115.724 32.1699 115.865C33.2177 116.005 33.8444 116.058 34.1937 116.337C34.5448 116.617 34.6185 117.121 34.1371 117.451C33.6557 117.78 32.6173 117.933 32.2152 118.144C31.8131 118.356 32.0472 118.627 33.0572 118.96C34.0672 119.292 35.8531 119.685 38.2186 119.581C40.5841 119.479 43.5311 118.878 45.5737 118.218C47.6164 117.557 48.7586 116.834 49.6459 116.417C50.5351 115.999 51.1694 115.886 51.7867 115.709C52.4041 115.531 53.0025 115.288 53.5726 115.025C54.1428 114.763 54.6865 114.484 55.1528 114.342C55.621 114.202 56.0137 114.202 56.2194 113.566C56.4252 112.93 56.4441 111.657 56.5102 110.583C56.5762 109.507 56.6876 108.629 57.1275 107.553C57.5674 106.477 58.3338 105.207 58.904 104.102C59.4741 102.998 59.8479 102.063 60.0348 101.316C60.2217 100.568 60.2217 100.005 60.2217 99.1748C60.2217 98.3442 60.2217 97.2398 59.7082 96.6413C59.1947 96.0429 58.1658 95.9485 57.305 95.8843C56.4441 95.8182 55.7531 95.7823 55.1547 96.6508L55.1603 96.6489Z" fill="#E2320A" stroke="#E2320A" stroke-width="0.26" stroke-miterlimit="22.93"/>
<path fill-rule="evenodd" clip-rule="evenodd" d="M54.8109 97.2775C54.3748 98.2195 54.0463 99.5656 54.0105 100.632C53.9633 101.969 54.3748 102.867 54.1124 104.213C53.8972 105.325 53.2213 106.741 52.5247 107.976C52.8872 108.544 53.2685 108.59 53.7292 108.771C54.3805 109.028 55.1866 109.56 55.6737 110.138C56.1589 110.715 56.325 111.338 56.4081 112.118C56.4137 112.171 56.4194 112.222 56.4232 112.277C56.4628 111.735 56.4855 111.134 56.5176 110.585C56.5836 109.509 56.695 108.631 57.1349 107.555C57.5748 106.479 58.3412 105.208 58.9114 104.104C59.4815 103 59.8553 102.065 60.0422 101.317C60.2291 100.57 60.2291 100.007 60.2291 99.1766C60.2291 99.0275 60.2291 98.8708 60.2253 98.7103C60.1347 98.4838 60.0177 98.2761 59.8685 98.1025C59.1927 97.3152 57.8409 97.1925 56.7101 97.1075C55.9965 97.0528 55.3716 97.0132 54.809 97.2794L54.8109 97.2775Z" fill="#B52707" stroke="#B52707" stroke-width="0.26" stroke-miterlimit="22.93"/>
<path fill-rule="evenodd" clip-rule="evenodd" d="M33.9993 111.361C34.0428 111.389 34.0862 111.421 34.1277 111.452C34.5393 111.756 34.8847 112.171 34.8111 112.564C34.7356 112.956 34.241 113.328 33.3424 113.56C33.0856 113.626 32.7949 113.683 32.4853 113.732C33.6652 113.642 34.6205 113.617 35.4643 113.583C36.5178 113.542 37.3975 113.485 38.4509 113.436C39.5044 113.387 40.7334 113.345 41.4998 113.317C42.2682 113.289 42.574 113.275 42.7704 113.198C42.9667 113.121 43.0498 112.981 42.54 112.758C42.0303 112.535 40.9278 112.228 39.3647 111.963C37.8015 111.699 35.7777 111.474 34.0541 111.363L33.9975 111.359L33.9993 111.361Z" fill="#B52707" stroke="#B52707" stroke-width="0.26" stroke-miterlimit="22.93"/>
<path fill-rule="evenodd" clip-rule="evenodd" d="M33.8862 116.167C34.0089 116.213 34.1128 116.269 34.1996 116.337C34.5507 116.617 34.6244 117.121 34.143 117.451C33.8673 117.64 33.4105 117.77 32.9933 117.887C33.0537 117.899 33.116 117.912 33.1764 117.923C34.5659 118.186 36.1082 118.289 37.5128 118.24C38.9193 118.191 40.1898 117.989 41.2149 117.685C42.24 117.381 43.0216 116.977 43.3916 116.662C43.7616 116.349 43.7201 116.124 43.4615 116.062C43.2028 115.999 42.729 116.096 41.6359 116.198C40.5428 116.3 38.8343 116.403 37.1145 116.371C36.0327 116.352 34.9491 116.279 33.8843 116.166L33.8862 116.167Z" fill="#B52707" stroke="#B52707" stroke-width="0.26" stroke-miterlimit="22.93"/>
<path fill-rule="evenodd" clip-rule="evenodd" d="M65.5115 104.639C64.9112 105.511 64.4034 107.295 64.358 108.637C64.3108 109.979 64.7243 110.88 64.4619 112.232C64.1995 113.583 63.2612 115.384 62.4249 116.764C61.5904 118.144 60.8579 119.101 59.9574 119.617C59.0569 120.132 57.9865 120.208 56.2176 119.951C54.4486 119.694 51.9812 119.107 49.6667 118.86C47.354 118.612 45.1943 118.707 44.3542 118.85C43.5141 118.994 43.9936 119.188 44.4052 119.494C44.8186 119.8 45.166 120.215 45.0905 120.61C45.015 121.004 44.5185 121.376 43.618 121.61C42.7174 121.844 41.4129 121.943 40.2953 122.092C39.1777 122.243 38.2489 122.445 37.9732 122.66C37.6957 122.875 38.0714 123.1 38.9965 123.326C39.9215 123.553 41.394 123.781 42.4456 123.923C43.4971 124.065 44.1258 124.117 44.4769 124.397C44.8281 124.676 44.9036 125.184 44.4203 125.514C43.937 125.845 42.8949 125.998 42.4909 126.211C42.0869 126.424 42.3229 126.696 43.3348 127.029C44.3486 127.361 46.1401 127.755 48.5151 127.653C50.89 127.55 53.8464 126.949 55.8966 126.287C57.9468 125.624 59.0928 124.897 59.9839 124.478C60.8749 124.059 61.513 123.946 62.1323 123.768C62.7515 123.591 63.3518 123.345 63.9238 123.083C64.4959 122.821 65.0415 122.539 65.5096 122.398C65.9797 122.256 66.3724 122.256 66.5801 121.618C66.7858 120.98 66.8047 119.704 66.8708 118.624C66.9369 117.544 67.0483 116.662 67.49 115.582C67.9318 114.503 68.7001 113.226 69.2741 112.12C69.8461 111.012 70.2218 110.074 70.4105 109.324C70.5974 108.573 70.5975 108.01 70.5975 107.176C70.5975 106.341 70.5974 105.233 70.0821 104.633C69.5667 104.032 68.534 103.938 67.6694 103.872C66.8066 103.806 66.1119 103.768 65.5115 104.642V104.639Z" fill="#E2320A" stroke="#E2320A" stroke-width="0.26" stroke-miterlimit="22.93"/>
<path fill-rule="evenodd" clip-rule="evenodd" d="M44.2751 119.401C44.3185 119.432 44.3619 119.462 44.4035 119.492C44.8169 119.798 45.1643 120.213 45.0887 120.608C45.0132 121.002 44.5167 121.374 43.6162 121.608C43.3576 121.676 43.0668 121.731 42.7572 121.78C43.9428 121.689 44.9 121.665 45.7457 121.631C46.8029 121.589 47.6865 121.533 48.7437 121.484C49.8009 121.435 51.0336 121.393 51.8039 121.365C52.5741 121.336 52.8819 121.323 53.0782 121.246C53.2745 121.168 53.3576 121.029 52.8479 120.804C52.3363 120.579 51.23 120.272 49.6612 120.006C48.0923 119.739 46.061 119.515 44.3317 119.403L44.2751 119.4V119.401Z" fill="#B52707" stroke="#B52707" stroke-width="0.26" stroke-miterlimit="22.93"/>
<path fill-rule="evenodd" clip-rule="evenodd" d="M44.1617 124.223C44.2844 124.268 44.3883 124.325 44.4751 124.393C44.8263 124.672 44.9018 125.18 44.4185 125.511C44.1429 125.699 43.6822 125.83 43.265 125.949C43.3254 125.96 43.3877 125.973 43.4481 125.984C44.8414 126.247 46.3894 126.353 47.8015 126.304C49.2118 126.254 50.488 126.051 51.5169 125.747C52.5458 125.443 53.3311 125.035 53.7011 124.721C54.073 124.406 54.0296 124.182 53.771 124.119C53.5123 124.057 53.0347 124.155 51.9397 124.255C50.8429 124.357 49.1287 124.461 47.4013 124.431C46.3158 124.412 45.2265 124.336 44.1598 124.225L44.1617 124.223Z" fill="#B52707" stroke="#B52707" stroke-width="0.26" stroke-miterlimit="22.93"/>
<path fill-rule="evenodd" clip-rule="evenodd" d="M65.5117 104.638C64.9114 105.511 64.4035 107.295 64.3582 108.637C64.311 109.96 64.7131 110.855 64.4715 112.175C64.749 112.609 65.0397 112.643 65.3909 112.781C65.8874 112.977 66.5047 113.383 66.8747 113.825C67.2467 114.266 67.3713 114.742 67.4354 115.337C67.4468 115.437 67.4543 115.543 67.4656 115.645C67.4732 115.624 67.4826 115.603 67.4921 115.58C67.9338 114.501 68.7022 113.224 69.2761 112.118C69.8481 111.01 70.2238 110.072 70.4126 109.322C70.5995 108.571 70.5995 108.008 70.5995 107.174C70.5995 106.339 70.5995 105.231 70.0841 104.631C69.5687 104.03 68.5361 103.936 67.6714 103.87C66.8087 103.804 66.1139 103.766 65.5136 104.64L65.5117 104.638Z" fill="#B52707" stroke="#B52707" stroke-width="0.26" stroke-miterlimit="22.93"/>
<path fill-rule="evenodd" clip-rule="evenodd" d="M107.771 96.8584C110.867 95.5445 114.679 93.5169 117.635 91.6026C120.592 89.6883 122.693 87.8854 124.064 85.7087C125.434 83.532 126.072 80.9795 125.059 80.2093C124.045 79.439 121.379 80.4528 116.725 82.4804C112.07 84.508 105.427 87.5475 101.222 90.721C97.018 93.8926 95.2529 97.1963 95.4417 98.6613C95.6286 100.126 97.7694 99.7506 100.031 99.2617C102.293 98.7727 104.677 98.1724 107.773 96.8584H107.771Z" fill="#1B4218" stroke="#1B4218" stroke-width="0.26" stroke-miterlimit="22.93"/>
<path fill-rule="evenodd" clip-rule="evenodd" d="M93.8636 82.3011C99.0061 80.349 109.029 77.9458 117.101 76.596C125.172 75.2442 131.29 74.9441 135.495 75.0196C139.699 75.0951 141.989 75.5444 143.565 75.939C145.142 76.3335 146.006 76.6715 146.342 76.9339C146.68 77.1963 146.493 77.3851 145.967 77.4965C145.442 77.6097 144.577 77.6475 144.353 77.7022C144.128 77.7589 144.54 77.8344 145.104 77.8891C145.667 77.9457 146.38 77.9835 146.737 78.0572C147.094 78.1327 147.094 78.2441 146.699 78.3007C146.305 78.3573 145.517 78.3573 145.499 78.3951C145.48 78.4329 146.231 78.5084 146.08 79.2012C145.929 79.896 144.879 81.2099 143.547 82.4483C142.214 83.6868 140.6 84.8516 139.304 85.4897C138.009 86.1278 137.033 86.241 136.752 86.3524C136.471 86.4657 136.884 86.5771 137.315 86.7093C137.747 86.8414 138.196 86.9906 138.177 87.0849C138.159 87.1793 137.671 87.2171 136.412 87.1604C135.155 87.1038 133.127 86.9547 131.105 87.1963C129.084 87.4379 127.065 88.0723 124.889 88.448C122.712 88.8237 120.375 88.9407 118.136 88.9992C115.897 89.0577 113.758 89.0577 110.735 88.9067C107.713 88.7557 103.809 88.4555 99.9047 88.1553C96.0006 87.8552 92.0965 87.555 90.2766 86.6545C88.4567 85.754 88.7191 84.2512 93.8617 82.2992L93.8636 82.3011Z" fill="#70421B" stroke="#70421B" stroke-width="0.26" stroke-miterlimit="22.93"/>
<path fill-rule="evenodd" clip-rule="evenodd" d="M145.51 77.5701C145.198 77.6097 144.868 77.6361 144.63 77.6626C144.028 77.6135 143.373 77.5795 142.627 77.5437C141.275 77.4776 139.623 77.4021 137.25 77.7777C134.875 78.1534 131.779 78.9784 129.423 79.7392C127.067 80.5 125.453 81.1948 124.092 81.8517C122.731 82.5087 121.624 83.128 121.606 82.9127C121.587 82.6975 122.657 81.646 124.815 80.6322C126.973 79.6184 130.22 78.6424 133.093 77.9854C135.965 77.3284 138.462 76.9905 140.592 76.9905C142.57 76.9905 144.232 77.2812 145.512 77.572L145.51 77.5701Z" fill="#915F32" stroke="#915F32" stroke-width="0.26" stroke-miterlimit="22.93"/>
<path fill-rule="evenodd" clip-rule="evenodd" d="M117.598 65.6708C118.302 65.952 119.578 66.4958 120.703 67.2188C121.83 67.9419 122.806 68.8424 123.505 69.9203C124.203 70.9983 124.626 72.2519 125.312 73.0014C125.997 73.7527 126.945 74 127.728 73.9264C128.512 73.8528 129.131 73.4601 129.591 72.9712C130.052 72.4841 130.352 71.9007 130.422 71.2683C130.492 70.634 130.333 69.9505 130.024 69.4899C129.714 69.0293 129.253 68.7952 129.174 68.6404C129.095 68.4856 129.395 68.41 129.859 68.4988C130.324 68.5875 130.953 68.8405 131.525 69.405C132.097 69.9675 132.614 70.8416 132.735 71.7837C132.857 72.7276 132.584 73.7395 132.182 74.4626C131.778 75.1856 131.243 75.616 130.741 75.8615C130.239 76.105 129.769 76.1616 129.686 76.2466C129.601 76.3315 129.901 76.4429 130.577 76.4052C131.253 76.3674 132.304 76.1805 133.199 75.818C134.096 75.4575 134.836 74.9213 135.391 74.2266C135.944 73.5318 136.31 72.6785 136.465 71.8667C136.62 71.055 136.563 70.2847 136.367 69.6372C136.171 68.9896 135.833 68.4648 135.514 68.0797C135.195 67.6946 134.894 67.451 134.964 67.3717C135.034 67.2924 135.476 67.3755 136.038 67.6492C136.601 67.9211 137.286 68.3817 137.817 69.0198C138.347 69.6579 138.723 70.4754 138.925 71.5024C139.127 72.5294 139.155 73.7697 138.748 75.0138C138.34 76.2598 137.494 77.5096 136.575 78.3232C135.655 79.1369 134.66 79.5126 133.337 79.7089C132.014 79.9053 130.362 79.9242 128.997 79.726C127.632 79.5277 126.552 79.1105 125.753 79.5145C124.955 79.9185 124.439 81.1418 123.796 82.2595C123.152 83.3771 122.384 84.3908 121.228 85.499C120.075 86.6072 118.534 87.8079 115.991 89.1502C113.448 90.4924 109.901 91.9744 108.432 91.561C106.963 91.1456 107.573 88.8349 106.884 87.0867C106.195 85.3405 104.205 84.1568 103.529 82.0839C102.854 80.0091 103.492 77.0433 105.801 74.1341C108.109 71.2249 112.089 68.3723 114.171 66.9168C116.256 65.4612 116.442 65.4065 116.603 65.3876C116.763 65.3687 116.894 65.3876 117.598 65.6689V65.6708Z" fill="#255C21" stroke="#255C21" stroke-width="0.26" stroke-miterlimit="22.93"/>
<path fill-rule="evenodd" clip-rule="evenodd" d="M1.07489 24.3643C1.1504 23.8527 1.29955 22.8672 2.13587 22.097C2.97031 21.3267 4.49193 20.7736 6.47608 20.1638C8.46022 19.554 10.9107 18.8876 12.9326 18.0947C14.9545 17.3018 16.5497 16.3824 17.7523 15.4913C18.953 14.6002 19.761 13.7356 20.7276 12.0195C21.6942 10.3016 22.8212 7.73029 23.8992 5.94815C24.9791 4.16411 26.0117 3.17112 27.6617 2.38199C29.3136 1.59286 31.5847 1.01139 34.2976 1.00195C37.0104 0.992508 40.1631 1.55509 43.2139 3.07671C46.2647 4.59644 49.2117 7.07521 51.0882 10.0127C52.9648 12.9502 53.7728 16.3484 54.1013 20.5187C54.4298 24.6909 54.2787 29.6352 53.7256 34.0377C53.1724 38.4383 52.2153 42.2971 51.7546 44.3851C51.294 46.4731 51.3318 46.7921 51.4167 46.8582C51.5017 46.9243 51.6319 46.7355 53.3688 46.3051C55.1056 45.8728 58.4452 45.1969 64.1334 45.3574C69.8215 45.5178 77.8544 46.5109 84.696 48.6611C91.5377 50.8095 97.188 54.1133 100.116 55.7463C103.044 57.3793 103.25 57.3415 105.1 57.67C106.948 57.9985 110.441 58.6933 112.955 59.4711C115.47 60.2507 117.011 61.1135 117.817 61.5553C118.625 61.997 118.698 62.0159 119.506 61.9875C120.314 61.9592 121.853 61.8837 123.129 62.1008C124.405 62.3161 125.419 62.8239 125.925 63.1146C126.431 63.4053 126.431 63.4808 124.798 65.7142C123.165 67.9475 119.899 72.3406 117.309 75.0422C114.719 77.7456 112.804 78.7593 111.481 79.3502C110.158 79.9411 109.425 80.1111 109.059 80.1942C108.815 80.2508 108.871 80.3791 109.227 80.5792C109.761 80.8794 110.832 81.4798 111.723 82.4841C112.614 83.4885 113.327 84.8968 113.646 86.6223C113.965 88.3497 113.89 90.3943 113.018 92.2538C112.146 94.1115 110.475 95.7822 107.462 97.2095C104.449 98.6367 100.095 99.8185 96.9313 100.485C93.7691 101.151 91.7982 101.3 88.6171 101.922C85.4361 102.541 81.043 103.63 77.8903 104.935C74.7375 106.239 72.8232 107.759 70.6352 108.342C68.449 108.924 65.9892 108.567 63.8691 107.891C61.749 107.215 59.965 106.22 58.3508 105.478C56.7367 104.736 55.2906 104.249 52.9742 103.93C50.6559 103.611 47.4654 103.46 43.5047 102.429C39.5439 101.397 34.8148 99.4825 31.1071 97.8117C27.3993 96.1409 24.7166 94.7156 21.8433 92.2935C18.9719 89.8713 15.9116 86.4562 13.9313 83.2657C11.9509 80.0752 11.0504 77.1094 10.5425 73.749C10.0366 70.3886 9.92332 66.6355 10.4293 63.6225C10.9352 60.6094 12.0623 58.3383 13.6575 56.2088C15.2528 54.0793 17.3181 52.0895 19.8233 49.6485C22.3285 47.2075 25.2754 44.3171 27.6126 41.7836C29.9498 39.2501 31.6772 37.0715 32.6532 35.5707C33.6292 34.0698 33.8539 33.2429 33.835 31.995C33.8161 30.7472 33.5537 29.0764 31.8452 27.5C30.1367 25.9237 26.984 24.4398 25.3793 23.6998C23.7746 22.9578 23.718 22.9578 22.0661 23.2542C20.4142 23.5506 17.1671 24.1415 14.1163 24.5965C11.0655 25.0515 8.21291 25.3705 6.0683 25.4177C3.92368 25.4649 2.4889 25.2403 1.76585 25.127C1.0428 25.0137 1.03336 25.0137 1.02392 25.0043C1.01448 24.9948 1.00504 24.9759 1.00127 24.9476C0.99749 24.9193 0.997489 24.8816 1.07112 24.37L1.07489 24.3643Z" fill="#D1A745" stroke="#D1A745" stroke-width="0.26" stroke-miterlimit="22.93"/>
<path fill-rule="evenodd" clip-rule="evenodd" d="M115.442 76.8092C113.771 78.2345 112.463 78.9067 111.479 79.3446C110.156 79.9355 109.423 80.1055 109.057 80.1885C108.813 80.2452 108.869 80.3735 109.225 80.5737C109.759 80.8738 110.83 81.4741 111.721 82.4785C112.612 83.4828 113.325 84.8912 113.645 86.6167C113.964 88.3441 113.888 90.3886 113.016 92.2482C112.144 94.1058 110.473 95.7766 107.46 97.2038C104.447 98.6311 100.093 99.8129 96.9294 100.479C93.7672 101.146 91.7963 101.295 88.6152 101.916C85.4341 102.535 81.0411 103.624 77.8884 104.929C74.7356 106.234 72.8213 107.753 70.6333 108.337C68.4471 108.918 65.9872 108.561 63.8672 107.885C62.4871 107.446 61.2506 106.872 60.1103 106.32C61.1184 106.596 62.1096 106.849 63.1158 107.06C64.7299 107.398 66.3818 107.623 68.147 107.436C69.9121 107.249 71.7887 106.647 73.214 105.879C74.6412 105.108 75.6172 104.17 76.0854 103.064C76.5555 101.956 76.5178 100.679 77.2672 99.8921C78.0186 99.103 79.5572 98.8029 81.5282 98.6915C83.4991 98.5782 85.9023 98.6537 88.5114 98.2214C91.1204 97.7891 93.9352 96.8508 96.0005 95.7993C98.0659 94.7477 99.3798 93.5848 99.9424 92.1198C100.505 90.6548 100.318 88.8916 98.4227 88.329C96.5272 87.7664 92.9233 88.4045 88.3811 88.7047C83.8389 89.0048 78.3584 88.9671 73.4217 88.3101C68.4849 87.6531 64.0937 86.3769 59.8139 84.6873C55.5341 82.9976 51.3676 80.8964 48.0072 78.8311C44.6468 76.7658 42.0944 74.7401 40.4048 73.1807C38.7151 71.6232 37.8901 70.5339 39.391 71.004C40.8918 71.4741 44.7223 73.4998 51.9472 75.6595C59.1739 77.8174 69.797 80.1073 77.4183 79.9204C85.0396 79.7335 89.6554 77.0678 96.4329 75.7161C102.64 74.4777 110.66 74.3437 115.44 76.8111L115.442 76.8092Z" fill="#C08E1E" stroke="#C08E1E" stroke-width="0.26" stroke-miterlimit="22.93"/>
<path fill-rule="evenodd" clip-rule="evenodd" d="M114.615 77.4776C113.333 78.4574 112.293 78.9822 111.479 79.3447C110.156 79.9356 109.423 80.1055 109.057 80.1886C108.813 80.2452 108.869 80.3736 109.225 80.5737C109.759 80.8739 110.83 81.4742 111.721 82.4785C112.612 83.4829 113.326 84.8912 113.645 86.6168C113.964 88.3442 113.888 90.3887 113.016 92.2482C112.144 94.1059 110.473 95.7766 107.46 97.2039C106.084 97.8552 104.426 98.4574 102.731 98.9804C104.054 98.4348 105.149 97.8741 105.912 97.3436C106.964 96.6111 107.375 95.9352 107.713 95.4482C108.051 94.9611 108.313 94.659 108.651 94.2663C108.989 93.8718 109.403 93.3847 109.571 92.8769C109.739 92.371 109.665 91.8442 109.946 91.3572C110.228 90.8682 110.866 90.4189 111.055 90.0432C111.241 89.6675 110.979 89.3673 111.017 89.0861C111.055 88.8048 111.392 88.5424 111.674 88.2422C111.955 87.942 112.18 87.6041 111.73 87.3228C111.279 87.0415 110.154 86.8169 109.684 86.5148C109.214 86.2146 109.403 85.8389 109.627 85.5199C109.852 85.2008 110.116 84.9384 109.365 84.4494C108.613 83.9605 106.85 83.2488 104.804 82.892C102.757 82.5351 100.43 82.5352 99.1912 82.724C97.9527 82.9109 97.8017 83.2865 97.0522 82.9675C96.3008 82.6484 94.9491 81.6346 96.5821 79.777C98.2151 77.9193 102.833 75.2159 106.586 74.6911C109.824 74.238 112.418 75.4028 114.611 77.4776H114.615Z" fill="#F6F4AF" stroke="#F6F4AF" stroke-width="0.26" stroke-miterlimit="22.93"/>
<path fill-rule="evenodd" clip-rule="evenodd" d="M14.5486 17.3943C15.8267 16.7827 16.8915 16.1295 17.7523 15.4895C18.953 14.5984 19.761 13.7338 20.7276 12.0177C21.6942 10.2997 22.8213 7.72848 23.8992 5.94634C24.9791 4.16231 26.0118 3.16929 27.6618 2.38016C29.3136 1.59103 31.5847 1.00956 34.2976 1.00012C37.0105 0.990677 40.1632 1.55326 43.214 3.07488C46.2648 4.59461 49.2117 7.07338 51.0883 10.0109C52.9648 12.9484 53.7728 16.3466 54.1013 20.5169C54.4298 24.6891 54.2788 29.6334 53.7256 34.0359C53.2555 37.772 52.4947 41.1154 51.9944 43.3185C51.3752 43.4545 50.8787 43.4488 50.3652 43.4393C49.3137 43.4204 48.1885 43.3827 46.6291 43.1392C45.0716 42.8956 43.0818 42.4444 41.2242 41.8252C39.3665 41.206 37.6391 40.4169 36.0061 39.3672C34.6072 38.4667 33.2782 37.3736 32.0643 36.4297C32.2851 36.122 32.4815 35.8331 32.6552 35.565C33.6312 34.0642 33.8558 33.2373 33.837 31.9894C33.8181 30.7416 33.5557 29.0708 31.8471 27.4944C30.1386 25.9181 26.9859 24.4342 25.3812 23.6941C23.7765 22.9522 23.7199 22.9522 22.068 23.2486C20.9655 23.4468 19.1513 23.7753 17.1614 24.1076C16.5177 23.0334 15.9513 21.9309 15.5096 20.8605C15.0244 19.6862 14.6865 18.5497 14.5486 17.3962V17.3943Z" fill="#255C21" stroke="#255C21" stroke-width="0.26" stroke-miterlimit="22.93"/>
<path fill-rule="evenodd" clip-rule="evenodd" d="M52.253 12.1914C53.3196 14.6098 53.8482 17.3377 54.0993 20.5169C54.4278 24.6891 54.2768 29.6334 53.7236 34.0359C53.2535 37.772 52.4927 41.1154 51.9924 43.3185C51.3732 43.4545 50.8767 43.4488 50.3632 43.4393C49.3117 43.4205 48.1865 43.3827 46.6271 43.1392C46.5724 43.1297 46.5157 43.1222 46.461 43.1128C46.6252 42.7654 47.3087 42.4218 48.0355 41.9763C49.0115 41.3759 50.063 40.5868 50.888 39.1237C51.713 37.6587 52.3153 35.5198 52.7457 33.1543C53.178 30.7888 53.4404 28.1986 53.516 25.6274C53.5915 23.0561 53.4782 20.5037 53.2913 18.2703C53.1044 16.0521 52.8439 14.1491 52.253 12.1933V12.1914Z" fill="#1F4D1C" stroke="#1F4D1C" stroke-width="0.26" stroke-miterlimit="22.93"/>
<path fill-rule="evenodd" clip-rule="evenodd" d="M32.8932 35.1856C33.6672 33.915 33.8541 33.1278 33.8371 31.9875C33.8182 30.7397 33.5558 29.0689 31.8473 27.4925C30.1388 25.9161 26.9861 24.4323 25.3814 23.6923C23.7767 22.9503 23.72 22.9503 22.0682 23.2467C20.9657 23.4449 19.1514 23.7734 17.1616 24.1057C16.7652 23.4449 16.3989 22.7729 16.0704 22.1027C16.4612 20.8907 17.2428 19.8486 17.9998 18.9953C19.1778 17.6681 20.2936 16.794 20.7353 16.8034C21.1771 16.8129 20.9411 17.7039 20.9751 18.3704C21.0072 19.0368 21.3092 19.4785 21.7453 19.8202C22.1814 20.162 22.7535 20.4074 23.182 20.4772C23.6106 20.5471 23.89 20.4451 23.9843 20.4357C24.0787 20.4263 23.9844 20.5112 23.9806 20.7547C23.9768 20.9983 24.0599 21.4023 24.5148 21.8856C24.9698 22.3689 25.7967 22.9314 27.4391 23.6073C29.0816 24.2832 31.5396 25.0704 33.6899 25.2498C35.8383 25.4272 37.6789 24.9968 39.2081 24.5267C40.7373 24.0566 41.9587 23.5507 42.5307 23.4752C43.1028 23.3996 43.0291 23.7564 42.0984 24.4417C41.1696 25.127 39.3856 26.1408 38.081 27.164C36.7765 28.1873 35.9515 29.2199 35.4248 30.2337C34.9 31.2475 34.6734 32.2424 34.4488 32.9843C34.2241 33.7263 33.9976 34.2133 33.4444 34.74C33.2878 34.8873 33.1065 35.0383 32.8951 35.1875L32.8932 35.1856Z" fill="#1F4D1C" stroke="#1F4D1C" stroke-width="0.26" stroke-miterlimit="22.93"/>
<path fill-rule="evenodd" clip-rule="evenodd" d="M52.0116 43.2335C51.9153 43.6583 51.8265 44.0434 51.7529 44.3813C51.4263 45.8652 51.3508 46.4542 51.364 46.6958C47.9621 48.7215 46.6859 52.9201 45.0887 53.8452C44.0089 54.4701 43.486 55.3291 42.3853 55.9294C41.3527 56.492 41.4943 57.8437 40.7806 58.7442C40.067 59.6447 38.5567 60.3206 38.2754 60.8832C37.7846 61.8648 36.8274 61.5703 36.2479 62.4312C35.5531 63.4639 34.0145 64.4777 33.3575 65.2838C32.7006 66.0918 32.9252 66.6921 32.4382 67.3491C31.9492 68.0061 30.7485 68.7197 30.2237 69.32C29.6989 69.9204 29.848 70.4093 30.505 70.4641C31.162 70.5207 32.3249 70.145 33.3764 69.7882C34.428 69.4314 35.3662 69.0935 35.3662 69.5447C35.3662 69.9959 34.428 71.2343 34.2392 72.0971C34.0523 72.9598 34.6149 73.4488 35.1208 73.7301C35.6268 74.0114 36.078 74.0869 36.5103 73.8811C36.9426 73.6753 37.3542 73.1864 37.5241 73.1486C37.6921 73.1109 37.6185 73.5243 37.4486 74.1624C37.2805 74.8005 37.0162 75.6633 37.0351 76.0389C37.054 76.4146 37.3542 76.3014 37.9167 75.4197C38.4793 74.5381 39.3062 72.8862 39.6819 72.4916C40.0576 72.0971 39.9821 72.9617 39.6819 73.8622C39.3817 74.7627 38.8569 75.701 38.2735 76.3768C37.6921 77.0527 37.054 77.4661 36.7161 78.0854C36.3781 78.7046 36.3404 79.5315 36.2271 80.1885C36.1138 80.8454 35.9269 81.3325 35.3455 81.6346C34.764 81.9347 33.788 82.048 33.1876 82.6484C32.5873 83.2487 32.3626 84.338 31.4602 85.1441C30.5597 85.9521 28.9834 86.4769 27.3126 86.8337C25.6418 87.1906 23.8786 87.3775 23.2952 88.1099C22.7138 88.8424 23.3141 90.1186 23.6709 91.1135C24.0277 92.1084 24.141 92.8221 24.158 93.2166C24.1731 93.5262 24.1297 93.6376 23.9749 93.934C23.2631 93.4337 22.5571 92.8919 21.8397 92.2878C18.9682 89.8656 15.908 86.4505 13.9276 83.26C11.9473 80.0695 11.0467 77.1037 10.5389 73.7433C10.033 70.3829 9.91969 66.6298 10.4256 63.6168C10.9316 60.6037 12.0586 58.3326 13.6539 56.2031C15.2491 54.0736 17.3145 52.0838 19.8197 49.6428C22.3249 47.2018 25.2718 44.3115 27.609 41.7779C29.6309 39.5861 31.1959 37.6605 32.2135 36.2087C32.6251 36.6316 33.0536 37.0809 33.5407 37.5265C35.1359 38.9915 37.3504 40.4168 39.7914 41.3739C42.2324 42.3311 44.8962 42.82 46.9426 43.1391C48.9891 43.4581 50.4144 43.6092 51.8605 43.2713C51.9096 43.2599 51.9587 43.2486 52.0059 43.2354L52.0116 43.2335Z" fill="#B45900" stroke="#B45900" stroke-width="0.26" stroke-miterlimit="22.93"/>
<path fill-rule="evenodd" clip-rule="evenodd" d="M51.4526 45.8766C51.3771 46.3202 51.3563 46.5619 51.3657 46.6959C47.9638 48.7216 46.6876 52.9202 45.0905 53.8453C44.0106 54.4701 43.4877 55.3291 42.387 55.9295C41.3544 56.4921 41.496 57.8438 40.7823 58.7443C40.0687 59.6448 38.5585 60.3206 38.2772 60.8832C37.7863 61.8649 36.8292 61.5704 36.2496 62.4313C35.5549 63.4639 34.0162 64.4777 33.3593 65.2839C32.7023 66.0919 32.9269 66.6922 32.4399 67.3492C31.9509 68.0061 30.7502 68.7197 30.2254 69.3201C29.7006 69.9204 29.8497 70.4094 30.5067 70.4641C31.1637 70.5208 32.3266 70.1451 33.3781 69.7883C34.4297 69.4315 35.368 69.0935 35.368 69.5447C35.368 69.9959 34.4297 71.2344 34.2409 72.0971C34.054 72.9599 34.6166 73.4489 35.1225 73.7302C35.6285 74.0115 36.0797 74.0869 36.512 73.8812C36.9443 73.6754 37.3559 73.1864 37.5258 73.1487C37.6938 73.1109 37.6202 73.5244 37.4503 74.1624C37.2823 74.8005 37.018 75.6633 37.0368 76.039C37.0557 76.4147 37.3559 76.3014 37.9185 75.4198C38.481 74.5382 39.3079 72.8863 39.6836 72.4917C40.0593 72.0972 39.9838 72.9618 39.6836 73.8623C39.3834 74.7628 38.8586 75.7011 38.2753 76.3769C37.6938 77.0528 37.0557 77.4662 36.7178 78.0854C36.3799 78.7047 36.3421 79.5316 36.2288 80.1885C36.1155 80.8455 35.9286 81.3326 35.3472 81.6346C34.7657 81.9348 33.7897 82.0481 33.1894 82.6484C32.589 83.2488 32.3644 84.3381 31.462 85.1442C30.5615 85.9522 28.9851 86.477 27.3143 86.8338C25.6436 87.1906 23.8803 87.3775 23.2969 88.11C22.7155 88.8425 23.3158 90.1187 23.6726 91.1136C24.0294 92.1085 24.1427 92.8221 24.1597 93.2167C24.1748 93.5263 24.1314 93.6377 23.9766 93.9341C23.2648 93.4338 22.5588 92.892 21.8414 92.2878C18.9699 89.8657 15.9097 86.4506 13.9293 83.2601C11.949 80.0696 11.0485 77.1038 10.5406 73.7433C10.2386 71.7422 10.0762 69.5995 10.1026 67.5587C10.3764 71.2174 11.9112 73.4904 13.9105 74.9818C16.68 77.0471 20.3387 77.6097 22.8722 76.4373C25.4057 75.265 26.814 72.3558 27.3766 69.1634C27.9392 65.9729 27.6579 62.4992 30.3802 58.8877C33.1025 55.2744 38.8265 51.5213 42.9553 49.2219C46.5385 47.2264 48.919 46.3278 51.4488 45.8785L51.4526 45.8766Z" fill="#984B02" stroke="#984B02" stroke-width="0.26" stroke-miterlimit="22.93"/>
<path fill-rule="evenodd" clip-rule="evenodd" d="M49.5912 45.7784C49.5912 45.7784 49.5969 45.7841 49.6007 45.786C49.6932 45.8577 49.8367 45.6519 51.7377 45.1799C53.6388 44.708 57.2975 43.9679 63.5256 44.1416C69.7536 44.3172 78.5492 45.4065 86.0403 47.7588C93.5313 50.113 99.7179 53.7301 102.923 55.5179C106.129 57.3057 106.356 57.2642 108.379 57.6248C110.403 57.9854 114.288 58.5649 116.98 59.5976C123.048 61.9272 121.581 61.3684 128.121 62.4747C129.518 62.7107 130.628 63.2657 131.183 63.5848C131.738 63.9038 131.738 63.985 129.95 66.4317C128.162 68.8783 124.587 73.6867 121.749 76.6469C118.914 79.6071 116.816 80.7171 115.368 81.3628C113.92 82.0103 113.118 82.1953 112.718 82.2878C112.518 82.3331 112.418 82.3577 112.44 82.4087C110.7 82.8259 108.876 83.2356 106.973 83.6339C95.9251 85.9465 82.2173 87.8986 70.4295 86.1523C58.6417 84.406 48.7776 78.9595 42.8176 74.7968C36.8576 70.6341 34.8017 67.757 35.1623 64.0983C35.5229 60.4396 38.2961 56.0012 42.0889 51.8687C44.1391 49.6353 46.4876 47.4926 49.5912 45.7765V45.7784Z" fill="#543016" stroke="#543016" stroke-width="0.26" stroke-miterlimit="22.93"/>
<path fill-rule="evenodd" clip-rule="evenodd" d="M49.5912 45.7784C49.5912 45.7784 49.5968 45.7841 49.6006 45.786C49.6931 45.8577 49.8366 45.6519 51.7377 45.1799C53.6388 44.708 57.2974 43.9679 63.5255 44.1416C69.7536 44.3172 78.5491 45.4065 86.0402 47.7588C93.5312 50.113 99.7178 53.7301 102.923 55.5179C106.129 57.3057 106.356 57.2642 108.379 57.6248C110.403 57.9854 114.288 58.5649 116.98 59.5976C120.726 61.0361 121.602 61.3741 123.259 61.6818C122.693 61.7233 122.046 61.7479 121.545 61.7781C120.579 61.8347 120.165 61.9102 119.808 62.4162C119.452 62.9221 119.151 63.8623 118.832 64.406C118.513 64.9497 118.175 65.1007 118.194 64.7628C118.213 64.4249 118.589 63.5999 118.551 62.8485C118.513 62.0971 118.062 61.4212 117.181 60.8587C116.299 60.2961 114.985 59.8449 113.22 59.4503C111.455 59.0558 109.24 58.7178 107.477 58.7273C105.712 58.7367 104.398 59.0935 103.629 59.9563C102.859 60.819 102.635 62.1896 101.959 63.0259C101.283 63.8604 100.158 64.1624 99.8197 64.1247C99.4818 64.0869 99.933 63.7113 100.195 62.8674C100.458 62.0235 100.533 60.7096 100.009 59.2823C99.4837 57.8551 98.3566 56.3165 96.3291 54.9081C94.3015 53.4998 91.3734 52.2236 87.5071 50.853C83.6407 49.4824 78.8361 48.0193 73.618 46.9866C68.4 45.954 62.7685 45.3536 58.6775 45.2781C54.5865 45.2026 52.0322 45.6538 50.1556 46.2353C48.2791 46.8167 47.0765 47.5303 45.7815 48.3931C45.6852 48.4573 45.587 48.5234 45.4907 48.5894C46.7103 47.5756 48.0582 46.6242 49.5893 45.7784H49.5912Z" fill="#70421B" stroke="#70421B" stroke-width="0.26" stroke-miterlimit="22.93"/>
<path fill-rule="evenodd" clip-rule="evenodd" d="M125.933 71.7403C124.549 73.4923 123.069 75.2687 121.751 76.645C118.915 79.6052 116.818 80.7152 115.37 81.3628C113.922 82.0103 113.12 82.1953 112.719 82.2878C112.519 82.3331 112.419 82.3577 112.442 82.4086C110.701 82.8259 108.878 83.2355 106.975 83.6339C95.9269 85.9465 82.2191 87.8985 70.4313 86.1522C58.6434 84.406 48.7793 78.9595 42.8193 74.7968C36.8593 70.634 34.8035 67.7569 35.164 64.0982C35.4982 60.7001 37.9147 56.6298 41.2958 52.7578C40.7653 53.5998 40.3009 54.438 39.9403 55.2347C38.4395 58.5573 38.7397 61.1853 40.7653 63.0052C42.7929 64.8251 46.546 65.8388 48.1035 66.8903C49.661 67.9419 49.0229 69.0293 49.0984 70.2885C49.1739 71.5458 49.9611 72.9731 52.27 74.6627C54.5788 76.3524 58.4074 78.3044 61.9547 79.9374C65.502 81.5704 68.768 82.8844 73.3291 83.5602C77.8902 84.2361 83.7464 84.2739 89.678 83.9737C95.6097 83.6735 101.615 83.0354 106.271 82.0971C110.926 81.1588 114.23 79.9204 117.513 78.0061C120.573 76.2221 123.618 73.8509 125.933 71.7441V71.7403Z" fill="#482E1B" stroke="#482E1B" stroke-width="0.26" stroke-miterlimit="22.93"/>
<path fill-rule="evenodd" clip-rule="evenodd" d="M23.803 23.09C23.3612 23.0182 22.9346 23.0919 22.068 23.2467C20.4161 23.5431 17.169 24.134 14.1182 24.589C11.6036 24.9646 9.22299 25.2459 7.26338 25.3611C7.37477 25.346 7.49182 25.3309 7.61453 25.3158C8.4584 25.2119 9.50051 25.11 10.6125 24.9457C11.7244 24.7815 12.9062 24.5568 13.8973 24.3397C14.8866 24.1245 15.6852 23.9169 16.5951 23.6223C17.5051 23.326 18.5283 22.9427 19.6459 22.45C20.7635 21.9573 21.9736 21.3569 22.7005 21.0228C23.4273 20.6905 23.6727 20.6244 23.803 20.5904C23.9351 20.5584 23.954 20.5584 23.9257 20.6188C23.8974 20.6792 23.8219 20.8019 23.7426 21.0077C23.6633 21.2134 23.5783 21.5042 23.5406 21.8194C23.5028 22.1347 23.5122 22.4708 23.6293 22.7672C23.6746 22.8804 23.735 22.988 23.8011 23.0881L23.803 23.09Z" fill="#CA6E03" stroke="#CA6E03" stroke-width="0.26" stroke-miterlimit="22.93"/>
<path fill-rule="evenodd" clip-rule="evenodd" d="M1.0747 24.3643C1.15021 23.8527 1.29936 22.8672 2.13568 22.097C2.97012 21.3267 4.49174 20.7736 6.47588 20.1638C8.46003 19.554 10.9105 18.8876 12.9324 18.0947C14.9543 17.3018 16.5495 16.3824 17.7521 15.4913C18.4355 14.9835 18.9905 14.487 19.521 13.8357C19.6702 13.7941 19.808 13.7507 19.9288 13.6998C20.482 13.4657 20.7085 13.0711 21.0087 12.7653C21.3088 12.4594 21.6845 12.2442 21.896 12.2499C22.1074 12.2536 22.1546 12.4802 21.9847 12.8842C21.8167 13.2882 21.4316 13.8697 21.2145 14.4511C20.9992 15.0326 20.952 15.614 21.0276 16.2389C21.1031 16.8638 21.2994 17.5302 21.5769 18.1211C21.8544 18.712 22.2112 19.2293 22.6001 19.6125C22.989 19.9977 23.4119 20.2506 23.7027 20.3488C23.9934 20.447 24.1539 20.3903 23.9991 20.5319C23.8442 20.6735 23.3742 21.0115 22.4227 21.5835C21.4693 22.1555 20.0345 22.9635 17.7483 23.6582C16.3947 24.0698 14.7428 24.4417 12.938 24.7626C10.3385 25.1251 7.93709 25.3724 6.07377 25.4121C3.92915 25.4593 2.49437 25.2346 1.77132 25.1213C1.65427 25.1025 1.0275 25.0741 1.00674 24.9439C1.00296 24.9156 1.00296 24.8778 1.07659 24.3662L1.0747 24.3643Z" fill="#FAAC19" stroke="#FAAC19" stroke-width="0.26" stroke-miterlimit="22.93"/>
<path fill-rule="evenodd" clip-rule="evenodd" d="M21.0089 15.3517C20.9824 15.6405 20.99 15.9331 21.0259 16.2371C21.1014 16.862 21.2977 17.5284 21.5752 18.1193C21.8527 18.7102 22.2096 19.2275 22.5985 19.6107C22.9874 19.9958 23.4102 20.2488 23.701 20.347C23.9917 20.4451 24.1522 20.3885 23.9974 20.5301C23.8426 20.6717 23.3725 21.0096 22.421 21.5816L22.4002 21.5948C22.572 21.4702 22.7117 21.3532 22.8099 21.2437C23.0062 21.0285 23.0534 20.8397 23.0308 20.6623C23.0081 20.4848 22.9137 20.3149 22.7061 20.0808C22.5003 19.8467 22.1812 19.5465 21.9075 19.1841C21.6356 18.8235 21.411 18.4006 21.2505 17.9362C21.0919 17.4717 20.9975 16.9639 20.9636 16.4957C20.9352 16.0804 20.9541 15.6934 21.007 15.3517H21.0089Z" fill="#DB9300" stroke="#DB9300" stroke-width="0.26" stroke-miterlimit="22.93"/>
<path fill-rule="evenodd" clip-rule="evenodd" d="M52.389 41.5477C52.1416 42.6785 51.9151 43.6413 51.7527 44.3814C51.698 44.6306 51.6508 44.8534 51.6093 45.0535C51.1713 45.1195 50.6748 45.163 50.1103 45.1781C48.0355 45.2385 45.0433 44.9478 42.2228 44.1605C39.4023 43.3714 36.7555 42.0858 34.9205 40.9172C33.0855 39.7486 32.0623 38.697 31.5941 37.8022C31.5092 37.6417 31.4431 37.485 31.3921 37.3321C31.8981 36.6714 32.3209 36.0786 32.6551 35.5632C32.7514 35.414 32.842 35.2725 32.9232 35.1346C32.9609 35.2309 33.0043 35.3291 33.0534 35.4272C33.4235 36.1635 34.1465 36.9055 35.6153 37.8437C37.084 38.782 39.2985 39.9185 41.513 40.6774C43.7274 41.4382 45.9419 41.8233 47.5749 41.9442C49.2079 42.0669 50.2594 41.9253 51.1637 41.7931C51.5998 41.7289 52.0038 41.6685 52.3871 41.5458L52.389 41.5477Z" fill="#F6F4AF" stroke="#F6F4AF" stroke-width="0.26" stroke-miterlimit="22.93"/>
<path fill-rule="evenodd" clip-rule="evenodd" d="M52.389 41.5477C52.1417 42.6786 51.9151 43.6414 51.7528 44.3814C51.698 44.6306 51.6508 44.8534 51.6093 45.0535C51.1713 45.1196 50.6748 45.163 50.1103 45.1781C48.0356 45.2385 45.0433 44.9478 42.2228 44.1605C42.017 44.1039 41.8131 44.0435 41.6111 43.9812C41.9849 44.0812 42.3512 44.1718 42.708 44.2455C44.8092 44.6797 46.4894 44.5683 47.4144 44.3569C48.3395 44.1473 48.5075 43.8377 48.6057 43.5168C48.7039 43.194 48.7322 42.8579 48.0865 42.0593C48.0639 42.031 48.0393 42.0027 48.0167 41.9725C49.4043 42.0405 50.3463 41.914 51.1694 41.795C51.6055 41.7308 52.0095 41.6704 52.3927 41.5477H52.389Z" fill="#DDD483" stroke="#DDD483" stroke-width="0.26" stroke-miterlimit="22.93"/>
<path fill-rule="evenodd" clip-rule="evenodd" d="M27.6408 11.9724C27.552 11.8195 27.535 11.7515 27.5898 11.4042C27.6445 11.0549 27.7729 10.4281 28.1524 9.94106C28.5318 9.45399 29.1662 9.1104 29.8666 9.02167C30.567 8.93294 31.3372 9.09719 31.8601 9.40113C32.385 9.70508 32.6644 10.1468 32.8097 10.3847C32.9532 10.6226 32.9627 10.6566 32.9325 10.8472C32.9022 11.0379 32.8343 11.3872 32.5662 11.795C32.2981 12.2027 31.8318 12.6709 31.2825 12.9635C30.735 13.2562 30.1063 13.3751 29.5532 13.2864C29.0019 13.1976 28.5262 12.8993 28.2071 12.6313C27.8881 12.3632 27.7276 12.1253 27.6389 11.9724H27.6408Z" fill="#1B3815" stroke="#1B3815" stroke-width="0.26" stroke-miterlimit="22.93"/>
<path fill-rule="evenodd" clip-rule="evenodd" d="M28.1128 11.8685C28.0845 11.6722 28.1128 11.372 28.2356 11.0284C28.3583 10.6867 28.5735 10.3016 29.0001 10.0656C29.4268 9.83151 30.0649 9.74655 30.5916 9.89191C31.1164 10.0373 31.5299 10.413 31.7187 10.6905C31.9056 10.968 31.8697 11.1455 31.7224 11.4456C31.5771 11.7458 31.3241 12.1687 30.9295 12.4349C30.535 12.703 30.0007 12.8143 29.5401 12.7577C29.0794 12.7011 28.6962 12.4764 28.4602 12.3159C28.2261 12.1574 28.1412 12.063 28.1128 11.8647V11.8685Z" fill="black" stroke="black" stroke-width="0.26" stroke-miterlimit="22.93"/>
<path fill-rule="evenodd" clip-rule="evenodd" d="M28.9718 11.0134C29.2739 11.0134 29.5212 10.7661 29.5212 10.464C29.5212 10.162 29.2739 9.91467 28.9718 9.91467C28.6698 9.91467 28.4225 10.162 28.4225 10.464C28.4225 10.7661 28.6698 11.0134 28.9718 11.0134Z" fill="white" stroke="white" stroke-width="0.26" stroke-miterlimit="22.93"/>
<path fill-rule="evenodd" clip-rule="evenodd" d="M17.6071 16.6732C17.4145 16.7487 17.1332 16.9922 16.7009 17.1602C16.2686 17.3283 15.6871 17.4227 15.4436 17.6114C15.2001 17.7983 15.2926 18.0815 15.538 18.2307C15.7815 18.3817 16.1761 18.3987 16.5423 18.3288C16.9086 18.259 17.2465 18.0985 17.4863 17.8267C17.726 17.5548 17.8657 17.1697 17.8846 16.9299C17.9035 16.6902 17.7997 16.5977 17.6071 16.6713V16.6732Z" fill="#501917" stroke="#501917" stroke-width="0.26" stroke-miterlimit="22.93"/>
<path fill-rule="evenodd" clip-rule="evenodd" d="M23.7483 18.1608C23.7955 18.4005 23.954 18.7668 24.1145 18.8744C24.275 18.982 24.4336 18.8328 24.3864 18.6629C24.3392 18.4949 24.0862 18.3061 23.9597 18.1419C23.8332 17.9776 23.8332 17.836 23.7992 17.8228C23.7672 17.8096 23.7011 17.921 23.7483 18.1608ZM33.6596 20.2015C33.7256 20.3884 33.7917 20.5772 33.9465 20.6811C34.1013 20.7849 34.3449 20.8038 34.528 20.766C34.7111 20.7283 34.8338 20.6339 34.8659 20.5508C34.898 20.4659 34.8433 20.3922 34.7526 20.3866C34.6639 20.3828 34.5412 20.447 34.4336 20.4753C34.326 20.5036 34.2316 20.4942 34.1901 20.4375C34.1485 20.3809 34.158 20.2771 34.0957 20.2129C34.0353 20.1468 33.9031 20.1185 33.8181 20.1241C33.7332 20.1279 33.6954 20.1657 33.6577 20.2034L33.6596 20.2015ZM33.4198 24.5946C33.4897 24.7268 33.6312 24.857 33.8465 24.9137C34.0617 24.9703 34.3524 24.9514 34.494 24.8721C34.6356 24.7928 34.6262 24.6513 34.5412 24.6097C34.4562 24.5682 34.2977 24.6229 34.1617 24.6229C34.0258 24.6229 33.9125 24.5663 33.8427 24.487C33.7728 24.4077 33.7445 24.3039 33.669 24.2529C33.5935 24.2019 33.4727 24.2019 33.4104 24.2661C33.35 24.3322 33.35 24.4625 33.4198 24.5946ZM41.5716 22.9843C41.7226 22.8389 42.0964 22.6879 42.3041 22.4972C42.5099 22.3046 42.5476 22.0705 42.6194 22.0139C42.6911 21.9573 42.7931 22.08 42.7647 22.2914C42.7364 22.5029 42.5778 22.803 42.357 23.005C42.1361 23.207 41.8548 23.3108 41.6773 23.292C41.4999 23.2731 41.4244 23.1315 41.5735 22.9861L41.5716 22.9843ZM36.9577 20.8113C37.0842 20.7453 37.3843 20.8113 37.609 20.7226C37.8336 20.6339 37.9847 20.3903 38.0979 20.3242C38.2112 20.2582 38.2848 20.3714 38.2339 20.5583C38.1829 20.7452 38.0035 21.0096 37.7638 21.1398C37.524 21.272 37.2239 21.272 37.0502 21.1719C36.8765 21.0737 36.8293 20.8755 36.9558 20.8113H36.9577ZM36.9161 23.4109C37.103 23.4109 37.3957 23.4109 37.5693 23.3448C37.743 23.2788 37.7997 23.1485 37.894 23.0824C37.9884 23.0163 38.1187 23.0164 38.0998 23.1428C38.081 23.2693 37.9129 23.5223 37.6203 23.6677C37.3296 23.813 36.9161 23.8508 36.7198 23.7904C36.5235 23.73 36.5423 23.5695 36.5933 23.4902C36.6443 23.4109 36.7292 23.4109 36.918 23.4109H36.9161ZM29.595 19.4842C29.5856 19.6295 29.5667 19.8164 29.7498 19.9637C29.9329 20.109 30.318 20.2129 30.5842 20.1978C30.8523 20.1846 31.0015 20.0524 31.0354 19.9259C31.0675 19.7994 30.9845 19.6767 30.8391 19.6729C30.6937 19.6692 30.488 19.7805 30.3275 19.7994C30.167 19.8183 30.0556 19.7428 30.0028 19.6163C29.9518 19.4898 29.9612 19.3105 29.9046 19.2217C29.848 19.133 29.7271 19.133 29.6648 19.184C29.6044 19.235 29.6044 19.3388 29.595 19.4842ZM31.9416 22.2763C31.8095 22.163 31.6509 21.9856 31.5187 21.9573C31.3866 21.9289 31.2846 22.0516 31.2978 22.2574C31.3111 22.4632 31.4432 22.7539 31.6962 22.9182C31.9492 23.0824 32.3249 23.1202 32.5778 22.9975C32.8308 22.8748 32.9629 22.5935 32.8931 22.4821C32.8232 22.3688 32.5514 22.4255 32.3626 22.4311C32.1757 22.4349 32.0719 22.3896 31.9397 22.2763H31.9416ZM26.9916 20.7094C27.052 20.9152 27.2031 21.1511 27.4655 21.2493C27.7279 21.3475 28.1036 21.3097 28.3094 21.1455C28.5151 20.9812 28.5529 20.6905 28.4774 20.6112C28.4019 20.5319 28.215 20.6622 27.9846 20.7094C27.7543 20.7566 27.4825 20.7188 27.3088 20.6112C27.1351 20.5036 27.0596 20.3242 27.0086 20.3242C26.9576 20.3242 26.9293 20.5017 26.9897 20.7094H26.9916Z" fill="#1F4D1C" stroke="#1F4D1C" stroke-width="0.26" stroke-miterlimit="22.93"/>
<path fill-rule="evenodd" clip-rule="evenodd" d="M26.8744 92.7843C26.8744 93.0524 27.3501 93.3243 27.5559 93.4545C27.8391 93.6358 28.1128 93.7811 28.462 93.9C29.2172 94.1587 30.3291 94.1644 31.2674 94.1644C31.7658 94.1644 31.7922 93.4885 31.3222 93.4337C30.6916 93.362 29.6892 93.5489 28.6527 93.2034C28.4734 93.143 28.3186 93.0637 28.1524 92.9712C27.8277 92.7938 27.4256 92.4181 27.2425 92.4181C27.048 92.4181 26.8762 92.5899 26.8762 92.7843H26.8744Z" fill="#F0BE54" stroke="#F0BE54" stroke-width="0.1" stroke-miterlimit="22.93"/>
<path fill-rule="evenodd" clip-rule="evenodd" d="M39.9384 98.3025C39.9384 98.6046 40.3179 98.7179 40.5387 98.8273C41.022 99.069 41.5903 99.3748 42.1019 99.5447C42.7891 99.7713 43.2648 99.8317 43.952 99.5579C44.1823 99.4654 44.4995 99.3899 44.4995 99.0916C44.4995 98.8972 44.3277 98.7254 44.1332 98.7254C43.7991 98.7254 43.4517 99.2955 42.2303 98.8255C42.117 98.782 42.0094 98.7405 41.9093 98.6952L40.9616 98.2364C40.8465 98.1779 40.7502 98.1307 40.6426 98.0779C40.5501 98.0307 40.4255 97.9363 40.3046 97.9363C40.1102 97.9363 39.9384 98.1081 39.9384 98.3025Z" fill="#F0BE54" stroke="#F0BE54" stroke-width="0.1" stroke-miterlimit="22.93"/>
<path fill-rule="evenodd" clip-rule="evenodd" d="M36.897 88.0551C36.897 88.3138 37.3539 88.6536 37.5106 88.8216C37.571 88.8877 37.5974 88.9462 37.6654 89.0047L38.2299 89.5107C38.8585 90.0185 39.3154 90.2243 40.3896 90.2243C40.888 90.2243 40.9144 89.5485 40.4443 89.4937C39.8119 89.4201 39.5514 89.6126 38.7736 89.0255C38.4715 88.7971 37.9995 88.2949 37.6956 87.9928C37.5767 87.8739 37.4766 87.6908 37.267 87.6908C37.0726 87.6908 36.9008 87.8626 36.9008 88.057L36.897 88.0551Z" fill="#F0BE54" stroke="#F0BE54" stroke-width="0.1" stroke-miterlimit="22.93"/>
<path fill-rule="evenodd" clip-rule="evenodd" d="M44.7807 89.2937C44.7807 89.5448 45.0696 89.7128 45.2112 89.8487C45.3981 90.0299 45.534 90.1753 45.7379 90.3358C46.459 90.8984 46.982 91.0607 47.9391 90.819C48.0732 90.785 48.1827 90.7851 48.2846 90.7152C48.5867 90.5057 48.3922 90.0545 48.1015 90.0545C47.9788 90.0545 47.8202 90.113 47.705 90.1375C46.7101 90.3433 46.3628 89.9922 45.6303 89.2597C45.5151 89.1445 45.349 88.9293 45.1451 88.9293C44.9412 88.9293 44.7788 89.1011 44.7788 89.2956L44.7807 89.2937Z" fill="#F0BE54" stroke="#F0BE54" stroke-width="0.1" stroke-miterlimit="22.93"/>
<path fill-rule="evenodd" clip-rule="evenodd" d="M36.2212 94.8119C36.2212 95.1347 36.6328 95.2328 36.8593 95.3555L37.6466 95.7501C38.2752 96.0522 38.8416 96.19 39.7119 96.19C40.1669 96.19 40.2405 95.6142 39.8573 95.4802C39.7251 95.433 39.4438 95.4669 39.2607 95.4575C38.1318 95.399 36.8499 94.4437 36.5856 94.4437C36.3911 94.4437 36.2193 94.6155 36.2193 94.81L36.2212 94.8119Z" fill="#F0BE54" stroke="#F0BE54" stroke-width="0.1" stroke-miterlimit="22.93"/>
<path fill-rule="evenodd" clip-rule="evenodd" d="M45.9059 94.3607C45.9059 94.6004 46.2703 94.8232 46.5138 94.9912C46.7706 95.1668 46.982 95.3254 47.2463 95.4991C47.7862 95.8521 48.3035 96.0787 49.1719 96.0787C49.6401 96.0787 49.6968 95.4764 49.2965 95.3632C49.0322 95.2876 48.6226 95.4915 47.7862 94.9875L47.0481 94.4872C46.8498 94.3456 46.4402 93.9963 46.2722 93.9963C46.0777 93.9963 45.9059 94.1681 45.9059 94.3626V94.3607Z" fill="#F0BE54" stroke="#F0BE54" stroke-width="0.1" stroke-miterlimit="22.93"/>
<path fill-rule="evenodd" clip-rule="evenodd" d="M52.9458 94.304C52.9458 94.5023 53.1497 94.6646 53.263 94.776C53.4008 94.9138 53.5197 95.046 53.6802 95.1479C54.407 95.6104 55.1055 95.4707 55.9041 95.4594C56.0419 95.4575 56.1212 95.4329 56.2024 95.3631C56.3987 95.1894 56.3534 94.8647 56.0985 94.7571C55.8173 94.6382 54.5939 94.9912 53.969 94.4645C53.8746 94.3852 53.7595 94.2625 53.6726 94.1699C53.5745 94.0661 53.5141 93.9377 53.3139 93.9377C53.1138 93.9377 52.9477 94.1096 52.9477 94.304H52.9458Z" fill="#F0BE54" stroke="#F0BE54" stroke-width="0.1" stroke-miterlimit="22.93"/>
<path fill-rule="evenodd" clip-rule="evenodd" d="M42.81 83.3242C42.81 83.5867 43.4934 84.1814 43.7332 84.3437C44.056 84.5608 44.3977 84.659 44.7772 84.7345C44.8659 84.7515 45.1226 84.8157 45.2019 84.8157C45.5569 84.8157 45.7079 84.3362 45.3945 84.1436C45.2944 84.0813 45.151 84.0775 45.0113 84.0492C44.5166 83.951 44.0428 83.7925 43.7181 83.3998C43.5746 83.2261 43.3839 82.958 43.1744 82.958C42.9799 82.958 42.8081 83.1298 42.8081 83.3242H42.81Z" fill="#F0BE54" stroke="#F0BE54" stroke-width="0.1" stroke-miterlimit="22.93"/>
<path fill-rule="evenodd" clip-rule="evenodd" d="M31.7451 89.4334C31.9396 89.4334 32.1114 89.2616 32.1114 89.0671C32.1114 88.8085 31.8811 88.7273 31.6979 88.6367C30.8899 88.2365 31.243 87.4813 31.0259 87.1679C30.8767 86.9527 30.5463 86.9621 30.4142 87.2019C30.2858 87.436 30.4897 88.2685 30.586 88.5083C30.7842 89.0029 31.5205 89.4334 31.7451 89.4334Z" fill="#F0BE54" stroke="#F0BE54" stroke-width="0.1" stroke-miterlimit="22.93"/>
<path fill-rule="evenodd" clip-rule="evenodd" d="M62.8551 100.105C62.8551 100.389 63.1931 100.509 63.4555 100.63C64.0992 100.929 64.3919 100.968 65.0469 100.749C65.8587 100.477 65.4113 99.9638 65.1338 99.9638C64.7996 99.9638 64.6297 100.4 63.7443 99.9733C63.6216 99.9148 63.3441 99.7391 63.2195 99.7391C63.025 99.7391 62.8532 99.911 62.8532 100.105H62.8551Z" fill="#F0BE54" stroke="#F0BE54" stroke-width="0.1" stroke-miterlimit="22.93"/>
<path fill-rule="evenodd" clip-rule="evenodd" d="M38.8116 79.2143C38.8116 79.4541 39.3137 79.9317 39.5101 80.0922C39.8801 80.3905 41.2318 80.702 41.2318 80.0601C41.2318 79.5088 40.4729 79.792 40.067 79.5919C39.8688 79.4937 39.7744 79.3578 39.6347 79.2087C39.5101 79.0746 39.4176 78.85 39.1778 78.85C38.9834 78.85 38.8116 79.0218 38.8116 79.2162V79.2143Z" fill="#F0BE54" stroke="#F0BE54" stroke-width="0.1" stroke-miterlimit="22.93"/>
<path fill-rule="evenodd" clip-rule="evenodd" d="M57.6183 92.503C57.6183 92.8183 57.9487 92.8711 58.1526 92.9542C58.7265 93.1826 59.1041 93.2242 59.6704 93.0354C60.2085 92.8561 59.9668 92.3067 59.6176 92.3067C59.2683 92.3067 59.3287 92.6069 58.5094 92.318C58.3942 92.2784 58.0846 92.1387 57.9846 92.1387C57.7901 92.1387 57.6183 92.3105 57.6183 92.5049V92.503Z" fill="#F0BE54" stroke="#F0BE54" stroke-width="0.1" stroke-miterlimit="22.93"/>
<path fill-rule="evenodd" clip-rule="evenodd" d="M53.7331 100.273C53.7331 100.479 54.0087 100.698 54.205 100.872C54.5071 101.142 54.7129 101.202 55.1131 101.202C55.2566 101.202 55.485 101.157 55.5888 101.114C55.9872 100.947 55.7984 100.413 55.4793 100.413C55.1263 100.413 55.0508 100.706 54.5581 100.209C54.4505 100.1 54.2956 99.9072 54.1012 99.9072C53.9067 99.9072 53.735 100.079 53.735 100.273H53.7331Z" fill="#F0BE54" stroke="#F0BE54" stroke-width="0.1" stroke-miterlimit="22.93"/>
<path fill-rule="evenodd" clip-rule="evenodd" d="M72.0341 98.9218C72.0341 99.1314 72.2097 99.288 72.4287 99.2899C72.5627 99.2899 72.625 99.2597 72.795 99.2597C73.0725 99.2597 73.5161 99.1993 73.7408 99.0521C74.3996 98.6197 73.8805 98.0062 73.484 98.2893C73.3821 98.363 73.4255 98.3856 73.333 98.4479C73.2235 98.5235 72.9988 98.5159 72.8233 98.5291C72.5174 98.5518 72.0323 98.5027 72.0323 98.9218H72.0341Z" fill="#F0BE54" stroke="#F0BE54" stroke-width="0.1" stroke-miterlimit="22.93"/>
<path fill-rule="evenodd" clip-rule="evenodd" d="M64.1505 96.5015C64.1505 96.9999 65.2001 97.0565 65.6475 96.8998C66.0647 96.7526 65.8911 96.1919 65.5588 96.1919C65.4002 96.1919 65.2077 96.2844 65.034 96.2655C64.8603 96.2466 64.63 96.1353 64.5167 96.1353C64.3222 96.1353 64.1505 96.307 64.1505 96.5015Z" fill="#F0BE54" stroke="#F0BE54" stroke-width="0.1" stroke-miterlimit="22.93"/>
<path fill-rule="evenodd" clip-rule="evenodd" d="M60.6599 74.9629L61.0091 75.1762C61.1394 75.2536 61.247 75.3046 61.3867 75.3612L61.7756 75.5349C63.1273 76.1673 65.9043 77.0282 67.3165 77.4284C67.6204 77.5153 67.8828 77.5946 68.1887 77.6814C68.5002 77.7702 68.7758 77.8475 69.0873 77.9382C71.0771 78.514 73.4029 79.1143 75.406 79.5863L77.2542 80.0186C77.5827 80.0903 77.8734 80.1621 78.1981 80.23C78.8098 80.3584 79.4649 80.5114 80.0898 80.619C83.1047 81.1306 87.5412 81.5232 90.6165 81.5232L94.3167 81.4232C94.4187 81.4081 94.4828 81.4137 94.5867 81.4119C94.8887 81.41 95.6741 81.3118 95.9931 81.2986C96.7313 81.2665 97.4411 81.1551 98.1566 81.0682C101.453 80.6642 105.212 79.8525 108.206 78.5593L110.241 77.6097C110.377 77.5417 110.479 77.4775 110.626 77.4039L112.127 76.5129C112.48 76.2769 112.859 76.039 113.197 75.7822L114.609 74.5193L116.512 72.5087C116.611 72.4048 116.69 72.301 116.782 72.1858C117.201 71.6667 118.096 70.5774 118.096 69.8959C117.968 69.9827 117.334 70.7586 117.16 70.9304L116.48 71.6856C116.392 71.8007 116.299 71.8649 116.205 71.9725L113.643 74.591C113.286 74.944 112.769 75.3329 112.353 75.5821L111.464 76.0994C110.25 76.7469 109.029 77.3511 107.734 77.8325C105.472 78.6707 103.097 79.2351 100.433 79.6825C99.2931 79.8732 98.032 79.9978 96.8672 80.0866C95.2248 80.2112 93.639 80.2848 91.8851 80.2848C91.4887 80.2848 91.1904 80.3131 90.7864 80.3131C90.3824 80.3131 90.0634 80.2848 89.6594 80.2848C89.3177 80.2848 88.8627 80.3112 88.5342 80.2848C88.3605 80.2697 88.2133 80.2583 87.998 80.2583L87.4354 80.23C87.0919 80.2206 86.6727 80.2357 86.3537 80.1866L85.2682 80.1168C84.9133 80.1149 84.5319 80.0601 84.1959 80.0356L82.1117 79.8392C79.6933 79.6052 77.7054 79.1577 75.3569 78.5706L71.7133 77.6531C69.8953 77.1962 68.0829 76.6941 66.2687 76.2278C65.6684 76.073 65.0718 75.9219 64.4488 75.7671C63.5388 75.5387 62.5892 75.3008 61.6661 75.1158C61.3716 75.0573 60.9827 74.9685 60.6599 74.9685V74.9629Z" fill="#7C5330" stroke="#7C5330" stroke-width="0.1" stroke-miterlimit="22.93"/>
<path fill-rule="evenodd" clip-rule="evenodd" d="M79.3535 74.3153L79.9746 74.4531C80.1822 74.4947 80.4258 74.5324 80.6278 74.5589C80.8675 74.591 81.0639 74.6061 81.3074 74.64L82.7309 74.7647C82.9404 74.7647 83.2632 74.7873 83.4426 74.8119C83.5634 74.8289 83.6804 74.8118 83.8013 74.8194L84.5338 74.8741C84.6584 74.8836 84.8018 74.8704 84.9264 74.8741C85.0699 74.8779 85.1001 74.9044 85.2625 74.9044C85.8628 74.9044 86.5292 74.9591 87.122 74.9591L91.9361 75.0157C92.2079 75.0157 92.3986 74.9855 92.6403 74.9874C92.8838 74.9874 93.1311 74.9912 93.3746 74.9874L95.4305 74.7911C96.6218 74.6268 97.9886 74.3418 99.0986 74.0114C100.201 73.6829 101.275 73.2732 102.299 72.7616C103.909 71.9555 104.126 71.6799 105.376 70.6302C105.463 70.5566 105.489 70.5415 105.57 70.4603L105.965 70.0941C106.042 70.0186 106.086 69.9997 106.163 69.926C106.627 69.4786 107.732 68.3497 107.732 67.7512C107.511 67.8683 107.326 68.057 107.124 68.2137C106.648 68.5856 106.106 69.0784 105.631 69.4522C105.059 69.9015 104.443 70.4641 103.833 70.921C103.005 71.5402 103.073 71.4515 102.072 71.8913C101.398 72.1877 100.352 72.5426 99.6348 72.7465C97.9999 73.2109 95.8477 73.5678 94.0769 73.7207C93.5219 73.7679 92.089 73.883 91.5151 73.8906C91.3414 73.8925 91.1507 73.8792 90.9789 73.8906L89.9217 73.9302C89.58 73.9812 89.1987 73.9113 88.8438 73.951C88.5304 73.9869 88.1283 73.9755 87.7696 73.9755C87.5562 73.9755 87.4505 74.0039 87.2636 74.0039C85.9931 74.0039 84.7546 74.0567 83.4898 74.0586C83.3029 74.0586 83.1972 74.0888 82.9838 74.0869C82.795 74.0869 82.6081 74.0869 82.4194 74.0869C82.2192 74.0869 82.1286 74.1171 81.9134 74.1152C81.7492 74.1152 81.5094 74.102 81.3546 74.119C80.7694 74.1851 80.2521 74.1492 79.5592 74.2379C79.4271 74.2549 79.4082 74.2342 79.3516 74.3116L79.3535 74.3153Z" fill="#7C5330" stroke="#7C5330" stroke-width="0.1" stroke-miterlimit="22.93"/>
<path fill-rule="evenodd" clip-rule="evenodd" d="M87.2371 69.8657V69.9223C87.3259 69.9299 87.441 69.9808 87.6845 70.0091C87.8224 70.0242 88.03 70.0507 88.1678 70.062L89.2081 70.0922C89.782 70.0922 90.286 70.0733 90.8694 70.0658C91.0317 70.0639 91.0808 70.0356 91.2621 70.0356L92.0795 70.0091C92.2607 70.0091 92.3098 69.9808 92.4722 69.979C93.9447 69.9639 95.4003 69.7279 96.752 69.1917C97.4467 68.9161 97.796 68.765 98.3642 68.2704C98.4567 68.1911 98.4831 68.1326 98.5624 68.0458C98.7493 67.8362 99.0891 67.2548 99.1779 66.9716C99.2402 66.7734 99.2175 66.8281 99.2024 66.6299C99.0665 66.6412 99.0212 66.7413 98.9419 66.8206L98.2339 67.5474C97.845 67.8476 97.4467 68.0061 96.9464 68.1741C96.0516 68.4762 95.0397 68.5007 94.0901 68.6404C93.9447 68.6612 93.8088 68.6914 93.6804 68.7084L90.3917 69.22C89.8556 69.3106 89.3081 69.3956 88.7852 69.4994L87.6053 69.7543C87.475 69.7883 87.3693 69.8373 87.239 69.8676L87.2371 69.8657Z" fill="#7C5330" stroke="#7C5330" stroke-width="0.1" stroke-miterlimit="22.93"/>
</svg>
