<svg width="196" height="208" viewBox="0 0 196 208" fill="none" xmlns="http://www.w3.org/2000/svg">
<path d="M118.757 124.692C118.757 124.692 117.883 128.633 121.824 135.79C124.964 141.493 130.076 147 133.424 150.736C136.769 154.471 138.583 156.536 139.614 159.825C140.585 162.925 140.005 171.624 139.112 174.229C138.22 176.835 134.019 179.566 132.475 182.802C131.171 185.536 133.386 194.105 146.082 195.795C159.946 197.642 164.596 193.286 165.767 190.609C167.052 187.672 164.428 182.856 164.707 178.116C164.924 174.442 166.986 167.074 166.716 161.162C166.269 151.459 159.632 139.057 154.39 127.579C149.148 116.101 145.943 99.219 149.818 88.8752C140.114 88.6624 129.409 93.1855 129.409 93.1855L118.755 124.688L118.757 124.692Z" fill="#BCBCBC"/>
<path d="M140.046 175.306C141.72 171.291 142.389 162.98 141.05 158.637C140.036 155.341 137.538 152.552 134.19 148.816C130.845 145.08 125.479 139.823 122.34 134.121C118.4 126.963 118.757 124.692 118.757 124.692C118.757 124.692 117.883 128.633 121.824 135.79C124.964 141.493 130.076 147 133.424 150.736C136.769 154.471 138.583 156.536 139.614 159.825C140.585 162.925 140.005 171.624 139.112 174.229C138.22 176.835 134.019 179.566 132.475 182.802C134.019 179.568 138.986 177.847 140.044 175.306H140.046Z" fill="#CECECE"/>
<path d="M165.769 190.609C167.055 187.672 164.43 182.856 164.709 178.116C164.926 174.442 166.989 167.074 166.718 161.162C166.272 151.459 159.635 139.057 154.392 127.579C149.15 116.101 145.946 99.219 149.82 88.8752C140.117 88.6624 129.411 93.1855 129.411 93.1855L129.101 94.1029L128.411 111.48L130.12 116.326C140.046 111.251 142.945 118.807 149.08 130.965C155.215 143.123 158.845 148.031 160.655 156.73C162.465 165.429 160.151 173.832 159.244 178.61C158.426 182.918 161.521 187.955 162.054 194.268C164.18 193.138 165.28 191.724 165.769 190.604V190.609Z" fill="#A4A4A4"/>
<path d="M152.287 196.378C150.462 196.378 148.398 196.243 146.065 195.931C137.695 194.817 134.36 190.805 133.118 188.513C131.825 186.127 131.8 183.893 132.349 182.74C133.124 181.114 134.54 179.641 135.905 178.213C137.261 176.8 138.54 175.465 138.978 174.182C139.86 171.603 140.447 162.953 139.478 159.864C138.437 156.542 136.509 154.391 133.316 150.826C133.064 150.543 132.8 150.252 132.529 149.95C129.186 146.233 124.609 141.14 121.698 135.856C119.652 132.141 118.923 129.302 118.671 127.577C118.396 125.692 118.607 124.702 118.617 124.661L118.621 124.647L129.295 93.0842L129.353 93.0594C129.38 93.049 132.083 91.9126 135.934 90.8195C139.493 89.8091 144.788 88.6272 149.82 88.7388L150.016 88.7429L149.948 88.9268C146.086 99.2417 149.324 116.152 154.516 127.523C155.372 129.395 156.281 131.331 157.161 133.201C161.742 142.939 166.478 153.01 166.854 161.158C167.028 164.929 166.245 169.346 165.614 172.896C165.245 174.987 164.924 176.793 164.846 178.126C164.722 180.248 165.174 182.35 165.614 184.381C166.152 186.869 166.617 189.015 165.895 190.666C165.245 192.154 162.486 196.38 152.285 196.38L152.287 196.378ZM118.892 124.727C118.873 124.816 118.693 125.795 118.954 127.558C119.204 129.259 119.927 132.054 121.946 135.722C124.841 140.978 129.407 146.057 132.74 149.764C133.011 150.066 133.275 150.359 133.527 150.64C136.744 154.234 138.687 156.401 139.747 159.782C140.728 162.91 140.137 171.665 139.245 174.272C138.786 175.613 137.484 176.971 136.108 178.407C134.757 179.818 133.358 181.275 132.601 182.86C132.083 183.949 132.116 186.079 133.362 188.379C134.579 190.625 137.852 194.555 146.1 195.654C152.177 196.464 157.066 196.165 160.635 194.766C163.955 193.464 165.197 191.565 165.641 190.551C166.327 188.982 165.871 186.875 165.344 184.434C164.922 182.48 164.443 180.267 164.569 178.105C164.647 176.756 164.97 174.944 165.342 172.845C165.968 169.309 166.749 164.908 166.577 161.168C166.205 153.077 161.48 143.032 156.911 133.319C156.031 131.447 155.122 129.513 154.264 127.639C151.529 121.646 149.497 114.609 148.549 107.823C147.499 100.322 147.871 93.8239 149.619 89.0115C144.685 88.9372 139.509 90.0943 136.017 91.084C132.488 92.0862 129.932 93.1214 129.521 93.2908L118.89 124.727H118.892Z" fill="#3F4140"/>
<path d="M143.255 195.268C143.191 192.439 142.394 188.304 140.005 186.147C137.375 183.771 134.261 184.069 132.155 184.759C132.289 188.034 135.044 193.264 143.255 195.268Z" fill="#FFFDE1"/>
<path d="M140.433 186.573C141.048 188.893 140.408 192.35 137.563 192.931C139.071 193.888 140.947 194.706 143.253 195.268C143.193 192.615 142.489 188.815 140.431 186.573H140.433Z" fill="#E8E4C5"/>
<path d="M143.398 195.446L143.222 195.402C139.55 194.505 136.558 192.84 134.571 190.582C133.025 188.827 132.095 186.707 132.015 184.765L132.01 184.66L132.11 184.627C133.868 184.048 137.244 183.465 140.098 186.044C142.422 188.145 143.323 192.135 143.394 195.266L143.398 195.448V195.446ZM132.298 184.86C132.403 186.711 133.304 188.724 134.779 190.4C136.697 192.578 139.575 194.198 143.111 195.09C143.011 192.092 142.125 188.253 139.912 186.253C137.217 183.817 134.025 184.315 132.3 184.862L132.298 184.86Z" fill="#897E64"/>
<path d="M151.688 189.243C147.32 189.243 145.007 192.869 143.896 195.415C144.588 195.563 145.317 195.692 146.084 195.795C152.556 196.657 157.019 196.167 160.06 195.127C158.643 192.809 155.752 189.243 151.69 189.243H151.688Z" fill="#FFFDE1"/>
<path d="M152.434 189.282C154.587 190.825 155.252 193.466 154.38 196.171C156.674 196.026 158.544 195.644 160.058 195.125C158.73 192.952 156.105 189.681 152.434 189.282Z" fill="#E8E4C5"/>
<path d="M152.275 196.378C150.365 196.378 148.293 196.229 146.065 195.933C145.313 195.834 144.573 195.704 143.867 195.553L143.699 195.518L143.768 195.361C145.016 192.507 147.402 189.104 151.686 189.104C155.907 189.104 158.816 192.834 160.176 195.055L160.267 195.204L160.102 195.26C157.924 196.004 155.304 196.378 152.272 196.378H152.275ZM144.092 195.313C144.741 195.45 145.414 195.563 146.1 195.654C151.731 196.404 156.355 196.2 159.847 195.049C158.484 192.863 155.682 189.381 151.688 189.379C147.632 189.379 145.326 192.567 144.094 195.311L144.092 195.313Z" fill="#3F4140"/>
<path d="M161.308 189.344C160.182 191.108 160.192 193.58 160.327 195.032C163.616 193.84 165.162 191.997 165.771 190.608C166.315 189.364 166.158 187.782 165.817 186.013C164.385 186.509 162.662 187.228 161.31 189.346L161.308 189.344Z" fill="#FFFDE1"/>
<path d="M165.815 186.013C164.41 186.499 162.724 187.201 161.383 189.23C162.978 189.507 163.904 191.001 164.41 192.555C165.075 191.881 165.509 191.203 165.77 190.61C166.313 189.367 166.156 187.784 165.815 186.015V186.013Z" fill="#E8E4C5"/>
<path d="M160.203 195.227L160.186 195.047C160.056 193.633 160.027 191.092 161.191 189.269C162.554 187.133 164.269 186.399 165.769 185.881L165.922 185.829L165.953 185.986C166.269 187.629 166.482 189.331 165.898 190.664C165.412 191.774 164.05 193.832 160.374 195.165L160.205 195.227H160.203ZM165.707 186.197C164.288 186.699 162.695 187.43 161.424 189.418C160.352 191.098 160.339 193.464 160.447 194.838C163.897 193.54 165.181 191.602 165.639 190.553C166.174 189.331 165.997 187.745 165.705 186.197H165.707Z" fill="#897E64"/>
<path d="M142.732 186.089C141.714 184.565 140.193 183.531 138.213 183.019C138.213 183.019 139.036 182.93 139.92 183.335C140.681 183.695 141.352 184.151 141.931 184.703C142.555 185.308 142.732 186.089 142.732 186.089Z" fill="#3F4140"/>
<path d="M154.587 188.209C152.541 186.635 149.621 186.831 148.299 187.579C148.299 187.579 148.78 186.912 150.165 186.771C150.479 186.74 150.801 186.728 151.122 186.74C151.715 186.761 152.481 186.862 153.275 187.164C154.461 187.643 154.587 188.209 154.587 188.209Z" fill="#3F4140"/>
<path d="M161.66 186.54C161.66 186.54 161.61 185.738 162.753 185.019C163.668 184.443 164.414 184.583 164.414 184.583C162.928 184.999 161.945 185.889 161.66 186.54Z" fill="#3F4140"/>
<path d="M153.735 154.73C153.735 154.73 154.062 154.01 155.62 153.273C158.168 152.112 161.668 151.618 165.222 152.748L165.137 153.015C160.585 151.566 156.13 152.833 153.735 154.73Z" fill="#3F4140"/>
<path d="M160.748 163.9C159.777 163.9 158.791 163.792 157.802 163.577C156.085 163.205 154.423 162.503 153.134 161.639C151.942 160.881 151.675 159.997 151.675 159.997C153.785 162.557 160.796 165.516 166.672 162.046L166.815 162.286C165.432 163.102 163.901 163.615 162.265 163.809C161.767 163.869 161.261 163.898 160.752 163.898L160.748 163.9Z" fill="#3F4140"/>
<path d="M156.161 158.538C156.161 158.538 156.581 158.029 157.86 157.701C159.564 157.321 161.616 157.226 163.339 157.364C164.709 157.513 165.149 157.914 165.149 157.914C162.769 157.347 158.494 157.463 156.163 158.536L156.161 158.538Z" fill="#3F4140"/>
<path d="M71.299 129.823C72.0056 134.581 75.2766 142.464 77.378 149.062C79.3058 155.12 79.7542 159.558 79.4153 162.999C78.5392 171.925 74.5906 175.171 75.2022 180.18C75.8138 185.189 79.3575 186.864 85.0459 187.366C90.7344 187.869 94.6666 185.527 94.6666 185.527C94.6666 185.527 95.2802 169.336 93.1602 157.441C91.0402 145.547 85.7898 130.936 85.7898 130.936L71.299 129.821V129.823Z" fill="#BCBCBC"/>
<path d="M80.5663 164.049C81.4527 158.635 80.6965 154.085 78.7665 148.027C76.9813 142.417 74.4397 134.997 73.2826 129.976L71.2969 129.823C72.0036 134.581 75.2745 142.464 77.3759 149.062C79.3038 155.12 79.7522 159.559 79.4133 162.999C78.5372 171.925 74.5885 175.171 75.2001 180.18C74.5885 175.171 79.1137 172.901 80.5642 164.049H80.5663Z" fill="#CECECE"/>
<path d="M86.631 187.575C86.1165 187.575 85.5834 187.555 85.0337 187.505C81.8992 187.228 79.711 186.616 78.1427 185.579C76.3698 184.406 75.3615 182.645 75.0639 180.197C74.7561 177.676 75.5702 175.638 76.5992 173.062C77.6489 170.435 78.837 167.46 79.2771 162.984C79.6552 159.129 78.9919 154.589 77.2439 149.103C76.5517 146.931 75.7231 144.59 74.9214 142.326C73.2312 137.553 71.636 133.046 71.1608 129.841L71.136 129.668L71.3095 129.682L85.8892 130.804L85.9202 130.889C85.9718 131.036 91.1995 145.646 93.2968 157.416C95.3941 169.187 94.8114 185.368 94.8052 185.532V185.608L94.737 185.647C94.6957 185.672 93.7204 186.247 92.0302 186.767C90.7615 187.158 88.8832 187.573 86.631 187.573V187.575ZM71.4645 129.974C71.9666 133.141 73.5308 137.559 75.1859 142.233C75.9876 144.499 76.8182 146.843 77.5104 149.018C79.2688 154.542 79.9362 159.118 79.554 163.011C79.1097 167.526 77.8617 170.652 76.8575 173.165C75.8429 175.704 75.0412 177.711 75.3408 180.161C75.8843 184.618 78.6985 186.664 85.0586 187.226C90.2449 187.685 93.9952 185.738 94.5304 185.443C94.5717 184.211 95.0407 168.789 93.024 157.463C91.0136 146.184 86.1227 132.284 85.6908 131.067L71.4666 129.971L71.4645 129.974Z" fill="#3F4140"/>
<path d="M84.0687 181.602C81.2089 181.302 78.3926 183.265 77.1301 184.569C78.8203 186.294 81.5209 187.057 85.046 187.367C86.9552 187.536 88.6661 187.383 90.096 187.108C89.4658 184.959 87.759 181.988 84.0707 181.604L84.0687 181.602Z" fill="#FFFDE1"/>
<path d="M90.0958 187.108C89.5131 185.12 88.0068 182.428 84.864 181.732C86.5934 182.5 87.4799 185.176 86.6224 187.437C87.9035 187.437 89.073 187.304 90.0978 187.108H90.0958Z" fill="#E8E4C5"/>
<path d="M86.6454 187.577C86.1081 187.577 85.5688 187.555 85.0337 187.507C81.0809 187.158 78.6137 186.282 77.031 184.668L76.9359 184.571L77.031 184.474C78.2563 183.211 81.1243 181.155 84.0853 181.465C85.7713 181.641 87.2012 182.36 88.3335 183.602C89.4059 184.778 89.9576 186.137 90.2304 187.071L90.2738 187.218L90.1229 187.247C88.9761 187.468 87.8108 187.579 86.6474 187.579L86.6454 187.577ZM77.3265 184.569C78.8638 186.071 81.2565 186.893 85.0564 187.228C86.6785 187.371 88.3129 187.294 89.9163 186.999C89.4307 185.443 87.9513 182.147 84.0543 181.74C81.273 181.449 78.5662 183.335 77.3265 184.567V184.569Z" fill="#897E64"/>
<path d="M19.3797 87.0486C19.045 96.5287 13.6644 110.46 10.9597 116.493C12.4102 117.609 12.9681 117.441 12.9681 117.441C15.8113 112.144 20.3303 105.897 21.6671 100.488C22.2808 94.1297 19.3797 87.0486 19.3797 87.0486Z" fill="#BCBCBC"/>
<path d="M11.7839 117.055C12.6249 117.543 12.9658 117.441 12.9658 117.441C15.809 112.144 20.328 105.897 21.6648 100.488C21.8591 98.469 21.7 96.3778 21.3921 94.4624C20.1069 101.783 14.6787 112.951 11.7839 117.055Z" fill="#A4A4A4"/>
<path d="M12.8729 117.59C12.6187 117.59 12.0009 117.473 10.8748 116.605L10.788 116.539L10.8335 116.437C13.8048 109.807 18.9209 96.1547 19.2433 87.0445L19.266 86.3977L19.5119 86.997C19.5201 87.0156 20.2475 88.807 20.8921 91.3506C21.4872 93.702 22.1278 97.1982 21.8096 100.502L21.8054 100.523C20.8529 104.372 18.3299 108.59 15.8917 112.67C14.8792 114.363 13.9226 115.962 13.094 117.508L13.0671 117.559L13.0113 117.576C12.9969 117.58 12.9535 117.59 12.877 117.59H12.8729ZM11.131 116.45C12.1828 117.241 12.7179 117.311 12.8791 117.311C13.7035 115.78 14.6478 114.199 15.6479 112.528C18.0737 108.47 20.5843 104.271 21.5285 100.467C22.0245 95.3034 20.1648 89.5943 19.4871 87.7284C19.2494 91.8052 18.1419 96.973 16.1914 103.108C14.1437 109.544 11.8542 114.83 11.131 116.452V116.45Z" fill="#3F4140"/>
<path d="M12.7802 115.522C9.58362 114.735 4.41171 119.39 2.24005 127.231C-0.0101258 135.36 1.77513 140.714 3.44675 146.44C5.12044 152.165 5.34361 154.322 4.48817 157.407C3.63273 160.492 2.07062 162.687 0.584961 163.988C3.70711 163.021 6.05028 160.085 7.20326 155.959C6.71975 160.308 7.24044 163.321 7.24044 163.321C7.64957 160.496 9.13729 158.339 10.1394 156.405C11.1416 154.471 13.7079 149.936 15.1956 146.442C16.6833 142.948 17.9087 137.557 17.8715 132.128C17.8343 126.7 16.7929 116.514 12.7781 115.524L12.7802 115.522Z" fill="#484A49"/>
<path d="M0.58474 163.988C3.70689 163.021 6.05006 160.085 7.20304 155.959C6.71953 160.308 7.24022 163.321 7.24022 163.321C7.64934 160.496 9.13707 158.339 10.1392 156.405C11.1434 154.471 13.7077 149.936 15.1954 146.442C16.6831 142.948 17.9084 137.557 17.8713 132.129C17.8341 126.7 16.7926 116.514 12.7779 115.524C12.1001 115.356 11.3335 115.435 10.5256 115.737C12.0753 116.148 13.6168 117.437 14.5652 120.628C15.7368 124.56 17.21 134.147 14.8441 143.086C14.3792 138.327 13.966 135.044 12.5857 132.228C12.7799 137.831 12.251 142.6 11.2199 147.927C10.3934 152.192 8.64323 154.926 8.64323 154.926C9.44908 151.076 9.19906 147.896 8.64323 145.696C8.23618 148.679 7.35802 154.231 4.36398 157.833C3.48787 160.699 2.00221 162.753 0.582672 163.993L0.58474 163.988Z" fill="#2F302F"/>
<path d="M0 164.317L0.493844 163.885C1.50839 162.999 3.3577 160.972 4.35571 157.372C5.19462 154.347 4.99005 152.211 3.3143 146.481C3.24198 146.231 3.1676 145.983 3.09528 145.735C1.47532 140.22 -0.0558017 135.009 2.10553 127.196C3.11594 123.547 4.86196 120.297 7.02535 118.045C8.00064 117.028 9.03996 116.249 10.0318 115.79C11.036 115.326 11.9968 115.187 12.813 115.388C14.6396 115.838 16.0323 118.107 16.9538 122.13C17.9002 126.265 18.0035 130.827 18.0117 132.127C18.051 137.97 16.6501 143.379 15.3235 146.495C14.185 149.173 12.3873 152.51 11.1972 154.717C10.8232 155.414 10.4988 156.013 10.2632 156.467C10.0628 156.854 9.84788 157.242 9.61852 157.651C8.71969 159.267 7.70102 161.098 7.37661 163.338L7.25057 164.208L7.1018 163.342C7.09767 163.315 6.68235 160.854 6.94477 157.226C6.38687 158.786 5.64713 160.135 4.74003 161.247C3.57879 162.668 2.19437 163.637 0.626064 164.121L0 164.315V164.317ZM12.0526 115.576C10.6165 115.576 8.86847 116.528 7.22784 118.237C5.09751 120.456 3.37424 123.665 2.37622 127.271C0.235556 135.007 1.75425 140.181 3.36389 145.657C3.4362 145.904 3.5106 146.152 3.58292 146.402C5.27521 152.194 5.47978 154.362 4.62434 157.447C3.75237 160.592 2.23983 162.563 1.17156 163.633C3.90525 162.515 5.98601 159.806 7.07081 155.922L7.34354 155.976C7.01914 158.891 7.15138 161.22 7.26916 162.416C7.70514 160.525 8.5854 158.941 9.37678 157.519C9.60407 157.11 9.81896 156.724 10.0173 156.341C10.2549 155.885 10.5794 155.283 10.9534 154.587C12.1415 152.382 13.935 149.053 15.0694 146.388C16.3835 143.299 17.7741 137.931 17.7349 132.131C17.6956 126.461 16.6026 116.611 12.7469 115.66C12.5258 115.607 12.2923 115.58 12.0526 115.58V115.576Z" fill="black"/>
<path d="M7.33541 156.005L7.07092 155.914C7.93876 153.407 8.63716 148.919 8.64543 148.874C8.64543 148.874 8.66197 150.585 8.26731 152.44C8.00696 153.672 7.68461 154.996 7.33334 156.005H7.33541Z" fill="black"/>
<path d="M12.1932 152.862L11.9328 152.765C14.0528 147.099 13.404 138.439 12.8296 133.782C12.8296 133.782 13.2181 134.429 13.4288 136.85C13.8317 141.673 13.9227 148.242 12.1953 152.862H12.1932Z" fill="black"/>
<path d="M23.1527 53.7073C21.479 57.5547 18.1337 70.3532 18.8858 87.5013C19.6379 104.649 23.9048 113.181 26.748 124.223C29.5912 135.265 34.6949 151.994 34.6102 161.363C34.5276 170.731 32.4261 175.554 31.0335 178.955C29.6387 182.356 28.2729 183.389 28.3576 185.53C28.432 187.443 32.0377 194.179 45.2557 194.96C59.513 195.803 64.003 189.718 64.8399 187.445C66.0569 184.143 61.0937 181.99 60.9263 178.12C60.2569 162.613 62.8005 153.752 63.972 145.973C65.1436 138.193 66.3979 128.992 60.7941 121.632C55.1904 114.272 23.1527 53.7114 23.1527 53.7114V53.7073Z" fill="#BCBCBC"/>
<path d="M60.9263 178.116C60.2569 162.608 62.8005 153.748 63.972 145.969C65.1436 138.189 66.3979 128.988 60.7941 121.628C59.7692 120.283 57.8621 117.158 55.428 112.954C61.5049 131.046 59.2671 139.722 58.7237 146.031C58.0501 153.868 55.428 169.359 56.9508 178.616C58.0108 185.054 62.2529 185.067 63.3108 189.832C64.1456 188.904 64.6188 188.042 64.8378 187.445C66.0548 184.143 61.0916 181.99 60.9243 178.12L60.9263 178.116Z" fill="#A4A4A4"/>
<path d="M28.8453 122.744C26.0021 111.702 22.1257 104.197 21.3715 87.0488C20.7806 73.5932 23.0349 63.0944 25.0785 57.3377C23.8573 55.0421 23.1527 53.7073 23.1527 53.7073C21.479 57.5547 18.1337 70.3532 18.8858 87.5013C19.6379 104.649 23.9048 113.181 26.748 124.223C29.5912 135.265 34.6949 151.994 34.6102 161.363C34.5276 170.731 32.4261 175.554 31.0335 178.955C32.4282 175.554 36.5422 170.901 36.6269 161.532C36.7095 152.163 31.6885 133.786 28.8453 122.744Z" fill="#CECECE"/>
<path d="M47.8984 195.179C47.0409 195.179 46.1565 195.152 45.2474 195.099C42.1748 194.917 39.4019 194.398 37.0029 193.557C34.9862 192.848 33.232 191.915 31.7918 190.778C29.0415 188.611 28.2522 186.4 28.2192 185.534C28.1654 184.176 28.6841 183.244 29.4011 181.953C29.8577 181.131 30.3743 180.199 30.9074 178.901L31.0355 178.587C32.453 175.138 34.3932 170.417 34.4738 161.36C34.542 153.74 31.1223 141.059 28.3741 130.87C27.7398 128.517 27.1406 126.296 26.6157 124.256C25.8698 121.361 25.0082 118.58 24.1734 115.888C21.7786 108.162 19.3032 100.172 18.7473 87.5054C18.4209 80.073 18.8444 72.4959 19.9726 65.5925C20.9231 59.78 22.1712 55.6123 23.0245 53.6494L23.1403 53.3828L23.2766 53.639C23.5969 54.2444 55.3722 114.274 60.9057 121.541C63.4265 124.853 64.7882 128.808 65.063 133.631C65.2944 137.666 64.7675 141.615 64.1105 145.987C63.8646 147.624 63.5567 149.306 63.2323 151.087C62.0318 157.674 60.5378 165.871 61.0647 178.108C61.1412 179.86 62.2239 181.25 63.2715 182.596C64.4948 184.164 65.6478 185.645 64.97 187.489C64.7221 188.162 63.6393 190.516 60.1473 192.489C56.9839 194.276 52.8719 195.177 47.8984 195.177V195.179ZM23.1671 54.0317C22.3261 56.0752 21.1525 60.1044 20.2475 65.6379C19.1234 72.5228 18.6998 80.0792 19.0263 87.493C19.58 100.122 22.0513 108.096 24.4399 115.805C25.2747 118.5 26.1384 121.285 26.8844 124.186C27.4092 126.223 28.0084 128.445 28.6428 130.798C31.395 141.003 34.8209 153.703 34.7507 161.363C34.6701 170.473 32.7175 175.223 31.2917 178.692L31.1636 179.007C30.6243 180.321 30.0809 181.3 29.6428 182.089C28.9217 183.387 28.4464 184.244 28.496 185.523C28.5332 186.478 29.4879 188.606 31.9633 190.559C34.137 192.272 38.2076 194.402 45.2618 194.82C46.1648 194.873 47.045 194.9 47.8984 194.9C52.8244 194.9 56.8888 194.012 60.0089 192.249C62.7178 190.718 64.2117 188.739 64.7076 187.396C65.3316 185.699 64.2241 184.278 63.0505 182.771C61.976 181.391 60.8643 179.965 60.7837 178.124C60.2548 165.857 61.7528 157.641 62.9554 151.041C63.2798 149.262 63.5856 147.582 63.8315 145.95C64.9576 138.474 66.3565 129.172 60.6804 121.715C55.3205 114.675 25.4586 58.3667 23.165 54.0337L23.1671 54.0317Z" fill="#3F4140"/>
<path d="M42.9516 194.754C42.1395 191.857 40.2881 187.216 37.2073 186.519C34.0066 185.796 31.4568 187.984 30.3059 189.206C32.3391 191.456 36.199 193.933 42.9516 194.752V194.754Z" fill="#FFFDE1"/>
<path d="M37.9451 186.77C40.0816 189.212 39.3564 192.119 38.0236 193.741C39.4638 194.177 41.0982 194.526 42.9517 194.752C42.2058 192.094 40.5858 187.97 37.9451 186.77Z" fill="#E8E4C5"/>
<path d="M43.1419 194.917L42.9352 194.892C35.8066 194.026 32.0769 191.373 30.2028 189.301L30.1161 189.206L30.2049 189.113C31.4571 187.784 34.0358 185.662 37.2385 186.385C40.6231 187.15 42.4559 192.466 43.0861 194.716L43.1419 194.917ZM30.4962 189.208C32.3476 191.21 35.9595 193.723 42.7596 194.588C42.0943 192.286 40.3193 187.365 37.1765 186.656C34.1825 185.98 31.7381 187.92 30.4962 189.208Z" fill="#897E64"/>
<path d="M50.3303 187.404C46.7308 187.784 44.3877 192.076 43.2739 194.789C43.9083 194.859 44.5695 194.917 45.2555 194.958C51.537 195.33 55.9216 194.357 58.9343 192.956C57.3246 190.635 54.5992 186.953 50.3303 187.404Z" fill="#FFFDE1"/>
<path d="M51.508 187.383C54.4711 188.697 54.8058 193.791 53.3036 194.623C55.5683 194.251 57.4238 193.658 58.9343 192.956C57.4775 190.857 55.1075 187.643 51.508 187.383Z" fill="#E8E4C5"/>
<path d="M47.8819 195.177C47.0285 195.177 46.1503 195.15 45.2474 195.097C44.5758 195.057 43.9064 194.999 43.2596 194.927L43.0757 194.906L43.146 194.735C44.2204 192.113 46.5822 187.658 50.316 187.263C54.8225 186.788 57.6761 190.9 59.0481 192.875L59.1431 193.012L58.9923 193.082C55.9941 194.475 52.2665 195.177 47.8819 195.177ZM43.4745 194.671C44.0593 194.733 44.6605 194.782 45.2639 194.818C50.6776 195.138 55.2048 194.491 58.7236 192.898C57.3475 190.921 54.587 187.094 50.3449 187.542C46.8343 187.912 44.5572 192.088 43.4745 194.671Z" fill="#897E64"/>
<path d="M59.1823 192.838C62.8292 191.072 64.381 188.687 64.8397 187.441C65.0918 186.757 65.0774 186.123 64.8976 185.511C63.4925 185.528 61.6556 185.741 60.2939 187.073C58.926 188.412 58.9756 190.822 59.1823 192.836V192.838Z" fill="#FFFDE1"/>
<path d="M64.8975 185.513C63.6536 185.528 62.0749 185.697 60.7835 186.658C62.1844 186.071 63.6433 187.228 64.1867 188.699C64.5008 188.218 64.7115 187.786 64.8396 187.443C65.0917 186.759 65.0772 186.125 64.8975 185.513Z" fill="#E8E4C5"/>
<path d="M59.0645 193.051L59.0439 192.853C58.8393 190.844 58.7835 188.361 60.1968 186.976C61.6308 185.571 63.5669 185.389 64.8976 185.373H65.003L65.0319 185.472C65.2365 186.164 65.2158 186.823 64.972 187.489C64.3872 189.078 62.5751 191.348 59.2443 192.962L59.0645 193.049V193.051ZM64.7922 185.656C63.5153 185.679 61.7176 185.879 60.3911 187.177C59.1079 188.433 59.1182 190.716 59.3001 192.625C63.3582 190.598 64.5153 187.918 64.7075 187.396C64.9183 186.821 64.9472 186.251 64.7902 185.656H64.7922Z" fill="#897E64"/>
<path d="M39.9638 185.173C39.2758 183.865 38.3253 183.375 37.6496 183.193C36.6661 182.929 35.7858 183.168 35.2899 183.478C35.2899 183.478 35.5916 182.937 36.6268 182.805C36.9905 182.788 37.3624 182.825 37.7199 182.922C38.0629 183.015 38.472 183.181 38.8873 183.476C39.8109 184.172 39.9618 185.17 39.9618 185.17L39.9638 185.173Z" fill="#3F4140"/>
<path d="M55.3204 185.441C53.7645 184.24 51.8904 184.087 50.911 184.104C49.5658 184.125 48.2661 184.488 47.7496 184.984C47.7496 184.984 47.9025 184.41 49.3675 183.992C49.8448 183.893 50.3696 183.833 50.9069 183.825C51.5825 183.815 52.6735 183.883 53.8079 184.3C55.0435 184.815 55.3204 185.443 55.3204 185.443V185.441Z" fill="#3F4140"/>
<path d="M59.6391 185.015C59.6391 185.015 59.6391 184.228 60.5359 183.676C61.2488 183.211 62.2178 182.86 63.3522 182.798L63.3667 183.077C61.4781 183.178 60.0359 184.152 59.6391 185.015Z" fill="#3F4140"/>
<path d="M47.3694 146.029C47.3694 146.029 47.5264 145.272 49.1939 144.568C50.413 144.061 51.9834 143.652 53.5971 143.458C55.1406 143.272 57.7214 143.161 60.2505 143.954C62.0957 144.59 62.6908 145.388 62.6908 145.388C59.5749 143.375 55.6758 143.489 53.6302 143.737C50.4812 144.117 48.0967 145.179 47.3694 146.031V146.029Z" fill="#3F4140"/>
<path d="M57.6243 149.829C56.3969 149.829 55.1365 149.727 53.9215 149.533C52.4421 149.293 51.6486 148.758 51.6486 148.758C53.5351 149.283 55.7109 149.564 57.7793 149.548C59.7423 149.533 61.3705 149.25 62.2507 148.771C62.2507 148.771 61.6143 149.455 60.1576 149.657C59.4488 149.763 58.6451 149.82 57.7793 149.827C57.7276 149.827 57.6739 149.827 57.6222 149.827L57.6243 149.829Z" fill="#3F4140"/>
<path d="M58.2629 155.137C57.2442 155.137 56.0892 154.978 54.7998 154.662C53.3204 154.298 51.8595 153.767 50.6301 153.236C49.2766 152.661 48.8345 152.062 48.8345 152.062C50.2106 152.81 52.5166 153.814 54.8659 154.391C57.7401 155.098 60.0027 154.988 61.4078 154.075C61.4078 154.075 61.1061 154.74 59.8188 154.992C59.3436 155.089 58.8229 155.137 58.2629 155.137Z" fill="#3F4140"/>
<path d="M134.191 112.299C130.742 119.686 121.266 128.372 108.048 130.269C95.2764 132.945 80.8538 136.85 80.8538 136.85C72.07 131.497 60.534 130.492 44.7518 115.437C29.9076 101.275 22.0144 81.0276 21.0598 67.0079C19.8055 48.6056 30.6763 34.4599 38.4951 28.2156C66.0551 28.7735 136.323 33.7759 136.323 33.7759L138.443 95.3614L134.191 112.303V112.299Z" fill="#BCBCBC"/>
<path d="M41.6544 28.2921C40.5489 28.2611 39.4951 28.2343 38.4951 28.2136C30.6763 34.46 19.8055 48.6037 21.0598 67.006C21.6983 76.3765 25.4382 88.5304 32.2797 99.7896C27.4322 90.5781 23.7893 76.2588 23.1819 66.8882C22.1528 51.0171 32.0855 35.3712 41.6544 28.29V28.2921Z" fill="#CECECE"/>
<path d="M44.7536 115.435C60.5359 130.49 72.0719 131.494 80.8556 136.848C80.8556 136.848 95.2783 132.945 108.05 130.267C121.266 128.37 130.922 119.675 134.372 112.286L138.445 95.3571L137.205 59.3005C136.406 59.5196 135.598 59.7613 134.786 60.0258C143.257 101.199 127.349 66.3879 104.953 68.4231C93.8381 72.2003 81.1863 116.08 73.9377 115.433C54.6594 120.082 39.092 107.497 32.4138 99.998C35.7839 105.507 39.8999 110.796 44.7598 115.433L44.7536 115.435Z" fill="#A4A4A4"/>
<path d="M80.8349 136.999L80.7833 136.968C78.0785 135.319 75.0411 134.055 71.826 132.718C68.1996 131.209 64.0919 129.498 59.5833 126.889C54.4031 123.888 49.5205 120.175 44.6585 115.537C37.7757 108.972 31.8682 100.564 27.5724 91.2268C23.787 82.9968 21.4253 74.399 20.9232 67.0162C20.6256 62.6626 20.9955 58.2924 22.0224 54.0276C22.9295 50.2566 24.3532 46.5414 26.2541 42.9854C29.3205 37.2494 33.7527 31.8254 38.4101 28.104L38.4493 28.073H38.4989C65.747 28.6247 135.631 33.5838 136.333 33.6334L136.459 33.6417L136.463 33.7677L138.583 95.3532L138.304 95.3635L136.191 33.9041C132.827 33.6665 65.2738 28.8995 38.5464 28.354C29.7978 35.3629 20.0222 49.6739 21.2021 66.9976C22.1381 80.7218 29.8123 100.99 44.8507 115.336C55.7358 125.721 64.718 129.457 71.9334 132.462C75.1382 133.796 78.1674 135.057 80.8783 136.702C81.8908 136.429 95.801 132.697 108.023 130.135H108.031C120.913 128.286 130.453 119.845 134.193 112.301C134.193 112.301 133.911 113.712 132.577 115.582C130.591 118.471 127.93 121.206 124.845 123.502C119.939 127.149 114.141 129.538 108.077 130.41C95.458 133.055 81.0395 136.949 80.8949 136.987L80.837 137.003L80.8349 136.999Z" fill="#3F4140"/>
<path d="M70.2143 103.585C69.332 106.879 69.4456 112.759 72.0719 119.661C74.9047 127.108 81.6222 139.53 84.7175 147.308C87.8128 155.087 90.3667 170.38 91.5982 175.363C92.8297 180.347 93.2368 185.645 91.8772 189.827C90.5155 194.01 87.8231 196.911 88.6538 200.423C89.4844 203.936 94.084 207.199 106.548 207.199C120.987 207.199 124.524 201.037 124.723 199.586C125.122 196.685 122.357 194.15 121.77 189.968C121.185 185.786 122.528 173.469 120.557 163.914C117.987 151.448 111.191 142.053 109.808 134.676C108.771 129.151 109.862 124.667 109.862 124.667L70.2122 103.583L70.2143 103.585Z" fill="#BCBCBC"/>
<path d="M93.7513 173.851C92.5198 168.867 89.2613 152.857 86.166 145.078C83.0707 137.298 77.2334 126.814 74.0162 119.524C71.4623 113.737 70.1957 107.47 70.2143 103.585C69.332 106.879 69.4456 112.759 72.0719 119.661C74.9047 127.107 81.6222 139.528 84.7175 147.307C87.8128 155.087 90.3667 170.38 91.5982 175.363C92.8297 180.347 93.2368 185.645 91.8772 189.827C94.7369 185.647 94.9828 178.835 93.7513 173.851Z" fill="#A4A4A4"/>
<path d="M121.772 189.968C121.187 185.786 122.53 173.469 120.559 163.914C117.989 151.448 111.193 142.053 109.81 134.676C108.773 129.151 109.864 124.667 109.864 124.667L105.477 122.334C104.021 126.67 104.231 133.019 104.948 136.848C106.333 144.225 113.023 153.163 115.594 165.629C117.565 175.184 117.534 186.579 118.119 190.761C118.6 194.206 121.638 199.188 122.367 202.919C124.022 201.518 124.644 200.171 124.723 199.586C125.122 196.685 122.357 194.15 121.77 189.968H121.772Z" fill="#A4A4A4"/>
<path d="M106.548 207.339C100.775 207.339 96.2785 206.639 93.1811 205.256C90.5632 204.089 88.9949 202.473 88.5176 200.457C87.9555 198.082 88.9494 196.026 90.1003 193.644C90.683 192.437 91.2864 191.191 91.743 189.786C93.2803 185.059 92.4394 179.354 91.462 175.399C91.1231 174.031 90.681 171.857 90.1665 169.343C88.7572 162.445 86.8294 152.998 84.5854 147.361C83.0936 143.613 80.7215 138.704 78.4258 133.953C75.9587 128.85 73.4089 123.572 71.9398 119.712C69.8714 114.276 69.4623 109.916 69.5532 106.964C69.5408 104.523 70.2144 103.585 70.2144 103.585C69.7702 105.664 69.0718 111.387 72.2022 119.611C73.6672 123.461 76.2149 128.732 78.6779 133.831C80.9756 138.586 83.3519 143.502 84.8458 147.258C87.098 152.918 89.03 162.379 90.4392 169.287C90.9516 171.799 91.3959 173.969 91.7327 175.333C92.7183 179.323 93.5675 185.083 92.0096 189.873C91.5467 191.297 90.9392 192.553 90.3524 193.766C89.2242 196.101 88.251 198.115 88.7882 200.393C89.2449 202.32 90.7595 203.872 93.2948 205.002C96.355 206.368 100.814 207.06 106.548 207.06C114.189 207.06 118.572 205.298 120.9 203.82C123.686 202.054 124.504 200.153 124.584 199.57C124.789 198.074 124.128 196.669 123.359 195.043C122.679 193.605 121.911 191.974 121.632 189.989C121.421 188.489 121.456 186.019 121.502 182.893C121.58 177.486 121.685 170.08 120.421 163.945C118.993 157.025 116.274 151.081 113.875 145.837C111.949 141.627 110.288 137.993 109.67 134.705C109.104 131.691 109.133 128.955 109.273 127.095C109.389 125.57 109.86 124.672 109.86 124.672C109.85 124.717 108.926 129.224 109.945 134.654C110.556 137.908 112.212 141.528 114.129 145.721C116.534 150.977 119.26 156.937 120.694 163.888C121.964 170.053 121.859 177.475 121.781 182.897C121.737 185.889 121.7 188.472 121.907 189.952C122.179 191.896 122.94 193.506 123.609 194.925C124.396 196.591 125.074 198.031 124.859 199.609C124.754 200.378 123.822 202.3 121.049 204.058C119.512 205.033 117.64 205.806 115.485 206.352C112.898 207.009 109.889 207.341 106.546 207.341L106.548 207.339Z" fill="#3F4140"/>
<path d="M101.698 207.011C101.141 204.901 99.6693 199.366 95.576 198.269C92.6006 197.471 90.0528 198.833 88.5548 199.903C88.5796 200.077 88.6126 200.25 88.654 200.426C89.3668 203.44 92.8527 206.269 101.698 207.011Z" fill="#FFFDE1"/>
<path d="M96.5512 198.632C98.9274 201.124 97.6257 205.313 96.7248 206.263C98.1546 206.596 99.8035 206.852 101.7 207.011C101.19 205.077 99.911 200.271 96.5533 198.634L96.5512 198.632Z" fill="#E8E4C5"/>
<path d="M101.884 207.166L101.688 207.149C97.5534 206.802 94.3135 205.974 92.0592 204.69C90.1127 203.583 88.9226 202.157 88.5197 200.457C88.4783 200.283 88.4453 200.103 88.4184 199.921L88.406 199.837L88.4742 199.787C90.8835 198.064 93.2866 197.508 95.6111 198.132C99.7933 199.254 101.275 204.862 101.833 206.974L101.882 207.164L101.884 207.166ZM88.7056 199.967C88.7283 200.112 88.7552 200.254 88.7883 200.393C89.1726 202.015 90.3173 203.378 92.1935 204.449C94.3775 205.693 97.5121 206.503 101.51 206.856C100.928 204.659 99.4441 199.452 95.5388 198.405C93.3196 197.81 91.0198 198.335 88.7056 199.969V199.967Z" fill="#897E64"/>
<path d="M108.738 200.61C105.331 201.194 103.163 204.971 102.13 207.044C103.479 207.145 104.949 207.199 106.548 207.199C111.507 207.199 115.181 206.472 117.875 205.459C115.511 202.897 112.172 200.021 108.736 200.61H108.738Z" fill="#FFFDE1"/>
<path d="M110.406 200.583C112.422 201.88 113.315 204.064 112.298 206.827C114.509 206.517 116.35 206.036 117.877 205.461C115.898 203.316 113.237 200.953 110.408 200.585L110.406 200.583Z" fill="#E8E4C5"/>
<path d="M106.548 207.339C104.986 207.339 103.496 207.288 102.12 207.184L101.913 207.168L102.006 206.982C103.944 203.093 106.201 200.903 108.715 200.473C111.474 200 114.505 201.599 117.981 205.364L118.121 205.517L117.927 205.589C114.842 206.751 111.013 207.339 106.55 207.339H106.548ZM102.349 206.92C103.661 207.013 105.073 207.06 106.55 207.06C110.885 207.06 114.613 206.503 117.633 205.401C114.288 201.82 111.385 200.298 108.763 200.748C106.381 201.157 104.225 203.234 102.351 206.922L102.349 206.92Z" fill="#897E64"/>
<path d="M118.702 198.64C117.412 200.397 117.931 203.463 118.251 205.314C123.101 203.376 124.597 200.517 124.725 199.589C124.901 198.312 124.463 197.103 123.867 195.795C122.433 196.14 119.991 196.884 118.704 198.64H118.702Z" fill="#FFFDE1"/>
<path d="M123.865 195.795C122.872 196.033 121.394 196.465 120.152 197.291C122.039 197.903 123.047 199.944 123.432 201.88C124.301 200.887 124.665 200.025 124.725 199.587C124.901 198.31 124.463 197.101 123.868 195.793L123.865 195.795Z" fill="#E8E4C5"/>
<path d="M118.144 205.507L118.115 205.337C117.795 203.482 117.256 200.376 118.59 198.558C119.557 197.237 121.322 196.262 123.835 195.659L123.946 195.632L123.994 195.737C124.659 197.198 125.035 198.353 124.864 199.607C124.793 200.118 124.357 201.095 123.361 202.167C122.151 203.473 120.4 204.606 118.303 205.445L118.144 205.509V205.507ZM123.787 195.958C121.359 196.557 119.77 197.421 118.814 198.723C117.588 200.395 118.045 203.294 118.359 205.12C123.08 203.184 124.471 200.401 124.587 199.57C124.746 198.413 124.401 197.324 123.787 195.958Z" fill="#897E64"/>
<path d="M100.02 198.078C99.4872 196.704 98.4892 196.065 97.7474 195.77C96.8507 195.415 95.9808 195.417 95.551 195.572C95.551 195.572 95.894 195.045 97.2763 195.324C97.9479 195.489 98.6711 195.83 99.2765 196.427C100.08 197.241 100.018 198.076 100.018 198.076L100.02 198.078Z" fill="#3F4140"/>
<path d="M106.283 199.367C106.283 199.367 106.614 198.574 107.849 198.099C108.513 197.859 109.294 197.719 110.118 197.805C111.486 197.964 111.939 198.721 111.939 198.721C109.552 197.256 107.056 198.551 106.285 199.367H106.283Z" fill="#3F4140"/>
<path d="M116.681 197.595C116.681 197.595 116.578 196.832 117.212 195.958C117.666 195.417 118.243 195.01 118.813 194.716C119.753 194.247 120.472 194.427 120.472 194.427C119.293 194.65 117.166 195.568 116.679 197.595H116.681Z" fill="#3F4140"/>
<path d="M104.949 165.629C104.949 165.629 105.581 164.778 106.852 164.049C108.193 163.263 109.889 162.544 112.116 162.474C114.11 162.41 116.082 162.945 117.605 163.693C119.16 164.458 119.567 165.386 119.567 165.386C118.28 164.034 115.232 162.652 112.125 162.751C109.007 162.85 106.945 164.264 105.438 165.295C105.269 165.41 105.106 165.522 104.949 165.627V165.629Z" fill="#3F4140"/>
<path d="M114.96 169.601C114.433 169.601 113.904 169.58 113.377 169.541C111.885 169.477 110.996 168.946 110.996 168.946C114.079 169.526 117.088 169.435 120.196 168.669C120.196 168.669 119.569 169.115 117.885 169.398C116.906 169.532 115.935 169.601 114.962 169.601H114.96Z" fill="#3F4140"/>
<path d="M113.466 175.907C112.391 175.907 111.269 175.814 110.118 175.624C108.362 175.335 106.618 174.828 105.161 174.204C103.308 173.477 102.837 172.578 102.837 172.578C104.37 173.783 107.246 174.87 110.162 175.347C113.689 175.925 116.937 175.597 119.307 174.421C119.307 174.421 118.673 175.07 117.247 175.465C116.09 175.756 114.815 175.905 113.464 175.905L113.466 175.907Z" fill="#3F4140"/>
<path d="M132.457 10.2182C134.651 9.75331 137.257 9.16647 140.422 8.1354C144.102 6.93695 151.188 4.08548 157.32 3.89745C164.617 3.6743 170.214 7.51759 173.966 11.3981C179.078 16.6857 181.628 23.8288 184.004 30.2198C187.182 38.7701 196.406 57.9886 195.66 64.4601C194.823 71.7107 186.013 71.3202 183.725 73.1592C181.684 74.804 180.269 79.1824 177.033 81.4677C173.799 83.7551 166.408 82.5277 164.079 84.534C161.753 86.5425 161.139 90.5015 157.513 92.2867C153.886 94.072 149.816 90.613 146.08 92.2867C142.344 93.9604 140.447 98.812 135.875 99.2026C131.302 99.5931 129.349 93.0678 127.176 87.6025C125 82.1372 121.822 78.5129 121.822 78.5129L127.895 10.2265L132.455 10.2162L132.457 10.2182Z" fill="#BCBCBC"/>
<path d="M140.772 9.30279C144.452 8.10434 151.609 5.21359 157.167 4.99043C163.255 4.74661 168.069 6.87901 171.995 9.52798C168.354 6.3769 163.435 3.7114 157.322 3.89736C151.19 4.08539 144.107 6.93686 140.424 8.13531C137.259 9.16638 134.653 9.75322 132.459 10.2181L127.899 10.2285C129.638 12.6853 137.608 10.3339 140.774 9.30279H140.772Z" fill="#CECECE"/>
<path d="M127.178 87.6067C129.353 93.072 131.304 99.5973 135.877 99.2067C140.449 98.8162 142.346 93.9646 146.082 92.2909C149.818 90.6172 153.89 94.0762 157.515 92.2909C161.139 90.5056 161.753 86.5466 164.081 84.5382C166.408 82.5298 173.799 83.7572 177.035 81.4719C180.269 79.1845 181.684 74.8061 183.728 73.1634C186.015 71.3223 194.826 71.7128 195.662 64.4643C196.408 57.9907 187.186 38.7743 184.006 30.224C181.63 23.833 179.08 16.6919 173.968 11.4022C173.359 10.772 172.7 10.1418 171.995 9.53223C179.023 18.4648 179.814 25.0046 182.134 32.7469C184.606 40.9934 190.629 53.1204 191.354 60.2842C191.693 63.6233 191.195 66.7599 188.222 67.8117C184.664 69.07 181.762 66.2269 180.359 62.0406C178.919 66.0037 179.756 69.5742 179.105 72.3637C178.675 74.2068 176.429 76.9157 174.171 78.3456C171.913 79.7754 167.09 80.945 164.189 80.2776C161.29 79.6081 155 71.3781 154.095 69.6548C154.512 74.7234 157.583 80.3623 158.097 82.8708C158.612 85.3792 156.957 87.9517 155.525 88.8836C154.095 89.8155 150.163 89.8341 147.82 88.7369C145.477 87.6397 141.294 79.6329 137.333 77.8104C139.36 81.974 142.028 88.2575 141.441 90.6007C140.856 92.9418 138.534 95.2519 135.689 94.7498C132.845 94.2477 132.009 90.5263 129.081 83.5629C126.153 76.5996 123.142 75.0932 123.142 75.0932C123.142 75.0932 122.683 75.1056 121.993 75.1304L121.826 78.5233C121.826 78.5233 125.004 82.1475 127.18 87.6129L127.178 87.6067Z" fill="#A4A4A4"/>
<path d="M135.486 99.3615C131.569 99.3615 129.622 94.3157 127.74 89.431C127.514 88.8442 127.279 88.2388 127.047 87.6561C124.907 82.2775 121.75 78.643 121.719 78.6058L121.681 78.5624V78.5066L125.151 8.52167L132.457 10.0734C134.627 9.61473 137.203 9.03617 140.379 8.00096C140.997 7.80053 141.726 7.54638 142.499 7.27777C146.359 5.93675 152.192 3.91178 157.316 3.75475C160.668 3.65143 163.939 4.4015 167.036 5.98014C169.512 7.24263 171.878 9.03203 174.068 11.2967C179.041 16.4417 181.63 23.4154 183.914 29.5688L184.135 30.166C184.943 32.3356 186.168 35.2635 187.466 38.3629C191.429 47.8285 196.361 59.6084 195.799 64.4724C195.195 69.698 190.501 71.0308 187.073 72.004C185.67 72.4028 184.459 72.7458 183.812 73.2645C182.955 73.9546 182.186 75.1758 181.372 76.4672C180.254 78.2421 178.986 80.2547 177.113 81.5792C175.423 82.7735 172.681 83.0214 170.03 83.2611C167.582 83.4822 165.27 83.6909 164.17 84.6393C163.257 85.4286 162.61 86.5258 161.926 87.687C160.875 89.4744 159.788 91.3217 157.575 92.4106C155.703 93.3322 153.698 92.8858 151.758 92.4519C149.884 92.0345 147.948 91.6027 146.138 92.4127C144.619 93.0925 143.377 94.3384 142.175 95.5431C140.429 97.2953 138.623 99.1053 135.887 99.3388C135.751 99.3512 135.616 99.3553 135.484 99.3553L135.486 99.3615ZM121.967 78.4673C122.33 78.8951 125.275 82.447 127.308 87.5548C127.539 88.1396 127.775 88.745 128 89.3318C129.909 94.2847 131.887 99.407 135.866 99.0661C138.501 98.8408 140.27 97.068 141.981 95.3509C143.2 94.1277 144.46 92.8631 146.026 92.1626C147.921 91.3134 149.905 91.7576 151.822 92.1853C153.802 92.6275 155.67 93.0429 157.455 92.1647C159.591 91.113 160.658 89.3008 161.689 87.5507C162.385 86.3688 163.042 85.2509 163.991 84.4327C165.158 83.4264 167.514 83.2136 170.008 82.9883C172.621 82.7528 175.326 82.509 176.954 81.3581C178.781 80.0666 180.033 78.0788 181.139 76.3266C181.965 75.0125 182.748 73.7728 183.641 73.0537C184.331 72.4979 185.567 72.1486 186.999 71.7416C190.35 70.7911 194.941 69.4873 195.524 64.4476C195.77 62.3255 194.956 58.6331 193.036 53.1637C191.373 48.4236 189.162 43.1381 187.209 38.4765C185.912 35.375 184.684 32.4451 183.874 30.2693L183.653 29.6721C181.378 23.5456 178.8 16.6008 173.867 11.4971C170.456 7.96789 164.815 3.8085 157.325 4.03785C152.244 4.19282 146.433 6.20951 142.59 7.54432C141.815 7.81294 141.086 8.06709 140.466 8.26959C137.263 9.31306 134.668 9.89365 132.486 10.3544L132.457 10.3606L125.413 8.86466L121.967 78.4673Z" fill="#3F4140"/>
<path d="M176.008 33.8172C170.439 27.0191 167.094 21.8327 158.06 20.2706C147.985 18.5287 137.873 25.7359 135.038 21.5868C136.643 21.5868 138.912 20.5372 141.538 19.3243C143.91 18.2271 146.597 16.9852 149.51 16.1567C152.89 15.1958 155.926 14.9851 158.792 15.5099C163.536 16.3798 167.268 18.4564 170.196 21.8575C172.125 24.0995 173.745 26.955 175.202 30.7136C175.901 32.5753 176.01 33.8172 176.01 33.8172H176.008Z" fill="#A4A4A4"/>
<path d="M176.008 33.8172C173.32 25.6037 169.367 17.7332 158.74 15.7847C152.38 14.6193 146.433 17.3675 141.654 19.5764C140.123 20.2851 138.714 20.936 137.474 21.3616C135.844 21.9092 135.038 21.5868 135.038 21.5868C136.643 21.5868 138.912 20.5372 141.538 19.3243C143.91 18.2271 146.597 16.9852 149.51 16.1567C152.89 15.1958 155.926 14.9851 158.792 15.5099C163.536 16.3798 167.268 18.4564 170.196 21.8575C172.125 24.0995 173.745 26.955 175.202 30.7136C175.901 32.5753 176.01 33.8172 176.01 33.8172H176.008Z" fill="#3F4140"/>
<path d="M183.374 73.4051C183.358 73.3617 182.091 70.1238 181.192 67.0182C180.624 65.1482 180.779 64.175 180.779 64.175C181.438 67.6898 183.614 73.246 183.635 73.3018L183.374 73.403V73.4051Z" fill="#3F4140"/>
<path d="M163.978 84.6332C162.23 82.7239 158.932 78.4488 156.529 74.9299C155.297 73.2232 154.996 72.0496 154.996 72.0496C155.456 72.8162 156.031 73.7026 156.673 74.6469C159.077 78.1761 162.42 82.5194 164.184 84.4452L163.98 84.6332H163.978Z" fill="#3F4140"/>
<path d="M146.202 92.2598C144.972 90.0737 141.158 83.412 138.325 78.8889C138.325 78.8889 139.292 79.767 140.402 81.7445C142.856 85.8192 145.466 90.3877 146.443 92.1255L146.2 92.2619L146.202 92.2598Z" fill="#3F4140"/>
<path d="M93.8299 6.35203C88.4948 5.87885 85.2734 4.88498 75.3883 2.33726C64.1581 -0.559668 58.5771 -0.353046 53.899 1.5562C45.4025 5.02342 42.1874 15.3858 36.722 26.428C31.2567 37.4702 27.2419 44.4522 27.2419 49.4939C27.2419 56.4655 31.4799 56.4077 34.5276 59.8129C37.3915 63.0115 35.662 66.4704 38.3751 70.1856C40.0033 72.4151 44.3053 71.8283 46.0699 73.0516C48.4316 74.6881 48.411 79.6347 50.5868 81.2671C52.7626 82.8995 55.5211 81.3931 57.3621 82.5647C59.2032 83.7363 59.2528 87.1002 62.2964 88.3296C65.34 89.5591 68.3196 88.3296 68.3196 88.3296L82.6493 72.1197L93.8278 6.35203H93.8299Z" fill="#BCBCBC"/>
<path d="M54.6098 2.81453C59.2879 0.905286 63.7469 0.853633 74.9772 3.74849C83.2629 5.88503 88.7778 7.61039 93.6109 7.63931L93.8299 6.35203C88.4948 5.87885 85.2734 4.88498 75.3883 2.33726C64.1581 -0.559668 58.5771 -0.353046 53.899 1.5562C45.4025 5.02342 42.1874 15.3858 36.722 26.428C31.2567 37.4702 27.2419 44.4522 27.2419 49.4939C27.897 44.6402 32.2713 38.0715 37.7366 27.0293C43.2019 15.9871 46.1112 6.28175 54.6098 2.81453Z" fill="#CECECE"/>
<path d="M71.1442 83.9017C69.1089 85.8544 63.3358 84.0401 62.8626 81.8106C62.3894 79.5811 66.6831 71.9111 66.3339 68.3715C65.2884 71.6342 59.011 79.3043 57.7589 79.358C56.1554 79.4282 53.4321 78.86 52.4527 78.0108C50.7604 76.5416 50.343 73.531 50.7046 71.9421C51.0662 70.3531 56.1968 64.3857 58.011 62.3504C54.0788 63.8836 47.7498 69.851 45.5368 69.4791C44.202 69.2539 42.0407 69.4584 40.5261 68.1505C38.2676 66.1978 37.9887 60.4473 38.3978 59.0133C38.8069 57.5793 40.5364 53.8642 42.5614 51.707C39.1417 52.9716 37.2262 56.5586 35.379 56.8644C33.6061 57.1578 31.3518 55.4573 29.5665 53.9014C28.1883 52.6988 27.6821 50.8722 27.2399 49.554C27.2626 56.4677 31.4861 56.4181 34.5256 59.8151C37.3895 63.0137 35.66 66.4726 38.373 70.1878C40.0012 72.4173 44.3032 71.8305 46.0678 73.0538C48.4296 74.6903 48.411 79.6369 50.5847 81.2693C52.7605 82.9016 55.519 81.3953 57.3601 82.5669C59.2011 83.7384 59.2507 87.1024 62.2943 88.3318C65.338 89.5613 68.3176 88.3318 68.3176 88.3318L71.7042 84.5009C71.5182 84.2736 71.3302 84.0712 71.1401 83.9017H71.1442Z" fill="#A4A4A4"/>
<path d="M65.2036 89.0117C64.2965 89.0117 63.2737 88.8732 62.2467 88.46C60.4243 87.7244 59.6432 86.2367 58.9551 84.9246C58.4758 84.0134 58.0253 83.1517 57.2897 82.6827C56.4798 82.1682 55.4673 82.193 54.3969 82.2219C53.0807 82.2549 51.7211 82.2901 50.5061 81.3788C49.4131 80.5585 48.8552 78.9221 48.3159 77.3393C47.7518 75.6863 47.1691 73.9795 45.9934 73.1654C45.3012 72.686 44.1771 72.4897 42.9869 72.2831C41.2409 71.9794 39.2635 71.6364 38.2655 70.2664C36.9224 68.4295 36.6538 66.6648 36.3934 64.9581C36.1228 63.1873 35.8665 61.5157 34.4263 59.9061C33.5213 58.8936 32.5047 58.189 31.5253 57.5092C29.2524 55.9326 27.1055 54.4428 27.1055 49.4941C27.1055 45.2438 29.8661 39.7661 34.0441 31.472C34.8603 29.85 35.7054 28.1742 36.6001 26.3662C37.6167 24.3123 38.5568 22.2812 39.4639 20.3162C43.4436 11.706 46.8819 4.27146 53.8473 1.42826C56.3888 0.390983 59.0399 -0.0615079 62.1909 0.00667939C65.6974 0.0810655 69.9023 0.779444 75.4234 2.20311C76.8429 2.56884 78.1468 2.9098 79.2956 3.20941C86.3602 5.05047 89.284 5.81087 93.8402 6.21586L93.991 6.22822L93.9662 6.37699L82.7814 72.1839L82.7546 72.2128L68.4042 88.4476L68.3753 88.46C68.3546 88.4682 67.0054 89.0117 65.2036 89.0117ZM55.1098 81.9306C55.957 81.9306 56.7504 82.0091 57.4385 82.4471C58.2361 82.9554 58.7051 83.848 59.201 84.7944C59.8994 86.1271 60.6226 87.5033 62.3501 88.2017C65.1499 89.3319 67.9249 88.3339 68.239 88.2141L82.5211 72.0599L93.6666 6.47823C89.1724 6.06911 86.228 5.30257 79.2253 3.47804C78.0765 3.17843 76.7727 2.83954 75.3531 2.47381C63.4886 -0.586355 58.2175 -0.053267 53.9506 1.68654C47.0864 4.48842 43.6688 11.8774 39.7139 20.4339C38.8048 22.401 37.8646 24.4342 36.8459 26.4922C35.9512 28.3002 35.1061 29.9781 34.2879 31.6001C30.1285 39.8569 27.3803 45.3119 27.3783 49.4962C27.3783 54.2982 29.3701 55.6805 31.6782 57.2819C32.6721 57.972 33.7011 58.6849 34.6288 59.7222C36.1248 61.3938 36.3872 63.1067 36.6641 64.9189C36.9203 66.5925 37.1848 68.322 38.4866 70.1052C39.4205 71.3822 41.2554 71.7025 43.0324 72.0103C44.2536 72.2232 45.4066 72.4236 46.1504 72.9381C47.4026 73.8039 47.9997 75.5561 48.5783 77.2525C49.1279 78.8662 49.6486 80.3912 50.6714 81.1578C51.8079 82.0111 53.12 81.9781 54.3866 81.945C54.6304 81.9388 54.8722 81.9326 55.1077 81.9326L55.1098 81.9306Z" fill="#3F4140"/>
<path d="M45.0779 27.0316C45.8052 25.7154 46.4189 24.3186 47.0677 22.8391C48.9645 18.5165 50.9254 14.045 55.8514 11.9126C62.1743 9.17478 69.1686 10.9848 75.3406 12.5841C79.7707 13.7309 83.5975 14.7228 86.3125 13.8053L86.5832 18.7665C83.7917 19.7087 78.2313 18.0226 73.4954 16.4605C67.4846 14.4789 61.3002 13.078 56.8681 14.9728C49.1691 18.2664 50.2601 24.955 45.0779 27.0295V27.0316Z" fill="#A4A4A4"/>
<path d="M45.0779 27.0316C45.8052 25.7154 46.4189 24.3186 47.0677 22.8391C48.9645 18.5165 50.9254 14.045 55.8514 11.9126C62.1743 9.17478 69.1686 10.9848 75.3406 12.5841C79.7707 13.7309 83.5975 14.7228 86.3125 13.8053L86.4014 14.0698C83.6099 15.012 79.7459 14.012 75.2703 12.8548C69.1417 11.2679 62.197 9.47026 55.963 12.1709C51.1383 14.2599 49.198 18.6797 47.3239 22.9528C47.1297 23.397 46.9313 23.8454 46.7309 24.2938C45.8093 26.3249 45.0779 27.0337 45.0779 27.0337V27.0316Z" fill="#3F4140"/>
<path d="M35.6415 61.274L35.3832 61.1686C36.0444 59.5404 38.0714 56.3356 39.6914 54.1908C40.3774 53.2816 41.5717 52.4509 41.5717 52.4509C40.2307 53.5378 36.5734 58.9804 35.6435 61.274H35.6415Z" fill="#3F4140"/>
<path d="M46.8304 73.7232L46.6072 73.5558C48.4193 71.13 50.9423 68.1918 53.3247 65.8569C55.0562 64.0199 56.9097 63.1252 56.9097 63.1252C53.8929 65.2659 49.5558 70.0762 46.8304 73.7232Z" fill="#3F4140"/>
<path d="M58.3827 83.5567L58.1616 83.3853C59.8125 81.2591 64.6084 73.8618 65.999 70.1404C65.999 70.1404 65.7903 71.5289 64.7241 73.5002C62.7012 77.2918 59.6369 81.9409 58.3806 83.5567H58.3827Z" fill="#3F4140"/>
<path d="M132.457 10.2183C130.337 8.80493 124.316 2.22588 113.408 1.42623C102.175 0.60385 94.7947 1.96346 88.1454 8.70366C81.0353 15.9088 79.8865 22.0415 78.9194 25.61C77.9524 29.1784 77.471 30.3975 76.7623 32.0051C74.1588 34.7925 72.8591 37.3589 72.6731 40.4066C72.3404 45.8575 73.9377 48.7337 74.4584 52.825C74.9791 56.9141 74.4501 61.367 75.1278 64.6854C75.7828 67.8923 76.7705 68.7643 79.7811 69.5991C90.2365 74.618 120.935 80.976 120.935 80.976C124.198 79.2196 128.012 80.4945 131.977 76.1243C135.879 71.8244 135.155 65.8363 134.571 59.2284C133.986 52.6204 134.161 50.521 134.705 48.6407C134.705 48.6407 127.423 17.2209 127.896 10.2307C129.897 10.6625 132.269 10.2555 132.457 10.2203V10.2183Z" fill="#BCBCBC"/>
<path d="M80.0189 58.999C85.5193 58.9928 86.507 54.2383 86.507 49.4466C86.507 44.6549 84.7693 40.2434 81.5273 39.6215C78.0394 38.952 74.7933 42.3303 74.0143 49.1677C73.9812 49.4549 73.9543 49.7338 73.9337 50.0066C74.1444 50.9096 74.3346 51.8311 74.4606 52.825C74.5908 53.8437 74.723 54.1825 74.7581 55.2219C75.7499 57.3192 77.5352 58.999 80.021 58.997L80.0189 58.999Z" fill="#A4A4A4"/>
<path d="M81.5272 39.6215C80.1944 39.3653 78.8968 39.7 77.7603 40.5926C77.998 40.479 78.8679 40.0265 79.9423 39.8653C81.1532 39.6835 82.147 39.7909 83.4943 40.5864C82.9178 40.0967 82.2607 39.762 81.5272 39.6215Z" fill="#3F4140"/>
<path d="M73.514 40.9335C73.9707 37.9126 74.5926 35.4414 77.1941 32.654C78.2024 31.6642 79.5848 30.0318 79.5848 28.6536C79.593 28.6102 78.6529 29.8603 78.6715 29.8211C80.1861 26.6845 81.5498 17.0122 88.5896 9.87942C95.2389 3.14127 102.103 1.88704 113.127 2.59164C122.129 3.16813 128.194 7.9722 130.688 10.4063C131.639 10.3588 132.355 10.2369 132.457 10.2183C130.337 8.80493 124.316 2.22588 113.408 1.42623C102.175 0.60385 94.7947 1.96346 88.1454 8.70366C81.0353 15.9088 79.8864 22.0415 78.9194 25.61C77.9524 29.1784 77.471 30.3975 76.7622 32.0051C74.1587 34.7925 72.859 37.3589 72.6731 40.4066C72.4375 44.283 73.1752 46.8576 73.8095 49.4941C74.0678 50.5645 72.9479 44.6693 73.514 40.9314V40.9335Z" fill="#CECECE"/>
<path d="M134.571 59.2285C133.986 52.6205 134.162 50.5212 134.705 48.6409C133.157 49.4632 132.062 52.509 132.294 59.1397C132.517 65.5555 131.854 70.8307 128.081 73.1883C123.872 75.8166 122.076 73.8123 118.813 75.5707C118.813 75.5707 119.344 80.6497 116.766 80.0814C119.344 80.6497 120.935 80.9782 120.935 80.9782C124.198 79.2218 128.012 80.4967 131.978 76.1265C135.879 71.8266 135.156 65.8385 134.571 59.2306V59.2285Z" fill="#A4A4A4"/>
<path d="M120.958 81.1227L120.909 81.1124C120.832 81.0959 113.129 79.4966 104.248 77.3042C96.0532 75.2814 85.1494 72.3266 79.7337 69.7293C76.7789 68.9069 75.6776 68.0639 74.9937 64.7123C74.6279 62.9209 74.6114 60.8215 74.5928 58.6023C74.5784 56.6993 74.5618 54.7322 74.3221 52.8436C74.1424 51.4241 73.8365 50.1761 73.5142 48.8578C72.9274 46.4547 72.3199 43.969 72.5369 40.4005C72.7208 37.3961 73.9874 34.7844 76.6467 31.9288C77.3244 30.3873 77.81 29.1785 78.7874 25.5749C78.8638 25.296 78.9403 25.0005 79.0208 24.6885C79.5064 22.8247 80.1098 20.5043 81.426 17.7747C82.984 14.5451 85.1494 11.5449 88.0484 8.60663C91.3338 5.27578 94.8217 3.20744 99.0245 2.09578C102.835 1.08743 107.275 0.837431 113.42 1.28788C117.361 1.57716 121.134 2.664 124.634 4.51952C127.566 6.07336 129.725 7.84831 131.155 9.02195C131.732 9.49513 132.188 9.87119 132.535 10.1026L132.821 10.2927L132.482 10.3547C131.736 10.4931 131.058 10.5655 130.399 10.5903C128.622 10.5841 127.895 10.2266 127.895 10.2266C129.36 10.3527 130.595 10.3816 132.102 10.1378C131.79 9.90635 131.418 9.60052 130.975 9.23685C128.205 6.96188 122.44 2.22599 113.395 1.56478C103.025 0.806455 95.1998 1.7507 88.2427 8.80085C81.7173 15.415 80.2544 21.0374 79.2853 24.7567C79.2047 25.0687 79.1262 25.3642 79.0518 25.6452C78.0662 29.2839 77.5765 30.4968 76.8885 32.0589L76.8781 32.0796L76.8616 32.0961C74.2374 34.9063 72.9894 37.4705 72.8096 40.4109C72.5947 43.938 73.1981 46.401 73.7787 48.7854C74.0886 50.0541 74.4089 51.3663 74.5928 52.8023C74.8346 54.7074 74.8511 56.6828 74.8656 58.5941C74.8821 60.8009 74.8986 62.8857 75.2602 64.6503C75.9214 67.8882 76.9277 68.6569 79.8143 69.4586L79.837 69.4669C89.9639 74.3268 119.51 80.5297 120.911 80.8211C122.084 80.1991 123.312 79.9615 124.609 79.7115C126.944 79.259 129.36 78.792 131.87 76.0232C135.569 71.9443 135.073 66.4315 134.5 60.0446C134.476 59.7739 134.453 59.5032 134.428 59.2326C134.093 55.4554 133.98 53.1618 134.029 51.5481C134.056 49.4549 134.701 48.6325 134.701 48.6325C134.219 50.4798 134.106 52.4449 134.705 59.2078C134.73 59.4805 134.753 59.7512 134.777 60.0198C135.06 63.1812 135.329 66.1649 135.058 68.8986C134.753 71.9795 133.806 74.302 132.077 76.2092C129.502 79.0482 126.932 79.5441 124.661 79.9842C123.369 80.2342 122.148 80.4698 120.997 81.0897L120.952 81.1145L120.958 81.1227Z" fill="#3F4140"/>
<path d="M76.8636 32.1023L76.6632 31.9081C77.9732 30.5485 79.5684 28.6702 79.5849 28.6516C79.5849 28.6516 78.9423 30.0009 76.8636 32.1002V32.1023Z" fill="#3F4140"/>
<path d="M120.214 37.5553C116.745 38.2227 114.885 42.9504 114.885 48.0871C114.885 53.2239 115.941 58.3214 121.828 58.3276C126.504 58.3318 129.087 55.1001 128.254 47.7896C127.419 40.4585 123.946 36.8383 120.212 37.5553H120.214Z" fill="#A4A4A4"/>
<path d="M124.818 39.1026C123.473 37.7719 121.869 37.2367 120.216 37.5549C119.105 37.7698 118.156 38.4 117.383 39.3298C118.65 38.398 119.904 37.8855 121.272 37.8938C122.454 37.9 123.355 38.2286 124.818 39.1026Z" fill="black"/>
<path d="M120.214 40.0346C116.745 40.6214 114.885 44.787 114.885 49.3101C114.885 53.8332 115.941 58.3233 121.828 58.3274C126.504 58.3315 129.087 55.4862 128.254 49.0477C127.419 42.5926 123.946 39.4044 120.212 40.0346H120.214Z" fill="black"/>
<path d="M120.256 40.7371C116.883 41.3012 115.077 45.3057 115.077 49.6573C115.077 54.0089 116.104 58.3233 121.826 58.3295C126.372 58.3336 128.88 55.5978 128.072 49.4052C127.262 43.1981 123.886 40.1317 120.258 40.7392L120.256 40.7371Z" fill="white"/>
<path d="M115.17 51.7173C115.524 55.2734 117.016 58.3232 121.824 58.3274C125.952 58.3315 128.401 56.073 128.209 51.0168C126.593 55.7383 118.462 56.5938 115.168 51.7173H115.17Z" fill="#DBDBDB"/>
<path d="M121.834 58.4679H121.824C119.183 58.4659 117.286 57.5319 116.185 55.6929C115.334 54.2693 114.937 52.3518 114.937 49.6553C114.937 47.4216 115.414 45.3099 116.278 43.7106C117.231 41.948 118.596 40.8736 120.231 40.5987C121.729 40.3487 123.183 40.7083 124.44 41.6381C126.407 43.0948 127.744 45.8471 128.207 49.3846C128.63 52.6266 128.163 55.0441 126.82 56.5732C125.717 57.8295 124.037 58.4659 121.832 58.4659L121.834 58.4679ZM120.256 40.7372L120.278 40.8756C116.782 41.4604 115.216 45.7087 115.216 49.6573C115.216 52.3001 115.6 54.1742 116.425 55.5503C117.487 57.3232 119.253 58.1869 121.824 58.189H121.834C123.956 58.189 125.564 57.5835 126.611 56.3892C127.899 54.9242 128.343 52.579 127.932 49.4217C127.479 45.9587 126.182 43.2745 124.274 41.8633C123.08 40.9789 121.698 40.6359 120.276 40.8756L120.254 40.7372H120.256Z" fill="black"/>
<path d="M122.801 56.0959C124.377 56.0959 125.655 54.2817 125.655 52.0439C125.655 49.806 124.377 47.9919 122.801 47.9919C121.225 47.9919 119.948 49.806 119.948 52.0439C119.948 54.2817 121.225 56.0959 122.801 56.0959Z" fill="#542416"/>
<path d="M125.655 52.0437C125.655 54.2815 124.378 56.0957 122.801 56.0957C121.225 56.0957 119.948 54.2815 119.948 52.0437C121.253 54.8456 124.737 54.5108 125.655 52.0437Z" fill="#A74F45"/>
<path d="M122.847 55.4863C123.901 55.4863 124.756 54.3437 124.756 52.9344C124.756 51.525 123.901 50.3826 122.847 50.3826C121.792 50.3826 120.938 51.525 120.938 52.9344C120.938 54.3437 121.792 55.4863 122.847 55.4863Z" fill="black"/>
<path d="M123.105 50.4217C123.105 50.9816 122.652 51.4341 122.092 51.4341C121.532 51.4341 121.08 50.9816 121.08 50.4217C121.08 49.8617 121.532 49.4092 122.092 49.4092C122.652 49.4092 123.105 49.8617 123.105 50.4217Z" fill="white"/>
<path d="M123.979 54.6433C124.215 54.6433 124.407 54.4517 124.407 54.2155C124.407 53.9793 124.215 53.7878 123.979 53.7878C123.743 53.7878 123.551 53.9793 123.551 54.2155C123.551 54.4517 123.743 54.6433 123.979 54.6433Z" fill="white"/>
<path d="M122.801 56.2362C121.15 56.2362 119.809 54.3559 119.809 52.0438C119.809 49.7316 121.152 47.8513 122.801 47.8513C124.45 47.8513 125.793 49.7316 125.793 52.0438C125.793 54.3559 124.45 56.2362 122.801 56.2362ZM122.801 48.1323C121.305 48.1323 120.088 49.8886 120.088 52.0458C120.088 54.203 121.305 55.9594 122.801 55.9594C124.297 55.9594 125.514 54.203 125.514 52.0458C125.514 49.8886 124.297 48.1323 122.801 48.1323Z" fill="#200705"/>
<path d="M81.4362 42.0326C84.4571 42.5781 86.0771 46.4401 86.0771 50.6346C86.0771 54.8291 85.1576 58.9927 80.0311 58.9989C75.9585 59.003 73.7104 56.3623 74.4357 50.3907C75.163 44.4027 78.186 41.4458 81.4383 42.0326H81.4362Z" fill="black"/>
<path d="M81.3888 42.6712C84.2961 43.196 85.8541 46.9112 85.8541 50.9487C85.8541 54.9862 84.9697 58.9927 80.0354 58.9969C76.1157 59.001 73.9523 56.4615 74.6507 50.7131C75.3491 44.9523 78.2605 42.105 81.3888 42.6691V42.6712Z" fill="white"/>
<path d="M74.5266 52.3394C74.4026 56.943 76.5082 59.0031 80.0353 58.999C84.1637 58.9948 85.4572 56.1888 85.7692 52.9055C83.5377 56.631 77.221 58.251 74.5266 52.3394Z" fill="#DBDBDB"/>
<path d="M80.0271 59.1374C78.1964 59.1374 76.7851 58.5919 75.8284 57.5133C74.5783 56.102 74.1341 53.8105 74.5122 50.6987C74.9255 47.2997 76.1363 44.7003 77.9257 43.3799C78.9754 42.6051 80.1821 42.3117 81.4136 42.5348C84.5771 43.1051 85.9925 47.1716 85.9925 50.9508C85.9925 54.4635 85.3747 59.1333 80.0354 59.1395H80.0271V59.1374ZM80.6181 42.7414C79.7254 42.7414 78.8638 43.0349 78.091 43.6052C76.3657 44.878 75.192 47.4113 74.7891 50.7339C74.4213 53.763 74.8408 55.9822 76.0371 57.3294C76.938 58.3439 78.2811 58.8605 80.0271 58.8605H80.0354C82.2442 58.8584 83.7609 58.0609 84.6721 56.4203C85.3829 55.1412 85.7135 53.4035 85.7135 50.9508C85.7135 47.2894 84.3684 43.351 81.364 42.8096C81.114 42.7642 80.864 42.7414 80.6181 42.7414Z" fill="black"/>
<path d="M83.1591 53.1088C83.2583 51.0343 82.2383 49.2998 80.8807 49.2349C79.5231 49.1699 78.3421 50.799 78.2428 52.8735C78.1435 54.9481 79.1635 56.6826 80.5211 56.7475C81.8787 56.8125 83.0598 55.1834 83.1591 53.1088Z" fill="#542416"/>
<path d="M78.2357 52.856C78.1365 54.9305 79.1552 56.6662 80.5127 56.7302C81.8702 56.7943 83.0501 55.166 83.1493 53.0915C82.1409 54.697 79.8536 55.5896 78.2336 52.856H78.2357Z" fill="#A74F45"/>
<path d="M80.6202 55.9326C81.5662 55.9326 82.3331 54.9076 82.3331 53.6432C82.3331 52.3787 81.5662 51.3538 80.6202 51.3538C79.6742 51.3538 78.9073 52.3787 78.9073 53.6432C78.9073 54.9076 79.6742 55.9326 80.6202 55.9326Z" fill="black"/>
<path d="M80.8515 51.3869C80.8515 51.889 80.4444 52.2961 79.9423 52.2961C79.4402 52.2961 79.0332 51.889 79.0332 51.3869C79.0332 50.8848 79.4402 50.4778 79.9423 50.4778C80.4444 50.4778 80.8515 50.8848 80.8515 51.3869Z" fill="white"/>
<path d="M81.6367 55.1764C81.849 55.1764 82.021 55.0043 82.021 54.792C82.021 54.5798 81.849 54.4077 81.6367 54.4077C81.4244 54.4077 81.2524 54.5798 81.2524 54.792C81.2524 55.0043 81.4244 55.1764 81.6367 55.1764Z" fill="white"/>
<path d="M80.5911 56.8729C80.5622 56.8729 80.5333 56.8729 80.5044 56.8708C79.0724 56.8026 77.9918 54.9988 78.093 52.8499C78.1426 51.8188 78.4525 50.8621 78.967 50.1533C79.4939 49.426 80.1717 49.0458 80.8763 49.0789C81.5809 49.112 82.2194 49.5583 82.674 50.3311C83.1182 51.0853 83.3352 52.0688 83.2856 53.0999C83.236 54.1309 82.926 55.0876 82.4115 55.7964C81.9074 56.4927 81.2606 56.8729 80.587 56.8729H80.5911ZM80.7937 49.3557C80.211 49.3557 79.6448 49.6946 79.1944 50.3166C78.7129 50.9819 78.4215 51.8869 78.374 52.8643C78.279 54.8582 79.2419 56.5319 80.5188 56.5919C81.1263 56.6208 81.7194 56.2799 82.1905 55.6311C82.6719 54.9657 82.9632 54.0607 83.0108 53.0833C83.0583 52.106 82.8537 51.1782 82.4363 50.4695C82.0313 49.7794 81.4735 49.3826 80.8639 49.3537C80.8391 49.3537 80.8164 49.3537 80.7916 49.3537L80.7937 49.3557Z" fill="#200705"/>
<path d="M122.037 62.0364C122.016 62.0364 121.993 62.0364 121.973 62.0364C120.962 62.026 120.144 61.8277 119.508 61.5756C118.373 61.1272 117.989 60.28 117.989 60.28C117.995 60.2883 119.71 61.1396 121.551 61.2305C123.349 61.3194 125.275 60.6478 125.279 60.6437C125.279 60.6437 124.901 61.3896 123.907 61.7306C123.4 61.9041 122.774 62.0343 122.037 62.0343V62.0364Z" fill="#A4A4A4"/>
<path d="M122.037 62.0364C122.016 62.0364 121.993 62.0364 121.973 62.0364C120.962 62.026 120.144 61.8277 119.508 61.5756C118.373 61.1272 117.989 60.28 117.989 60.28C118.001 60.2945 119.297 61.7285 121.975 61.7574C121.995 61.7574 122.016 61.7574 122.035 61.7574C124.103 61.7574 125.266 60.6561 125.277 60.6437C125.277 60.6437 124.898 61.3896 123.905 61.7306C123.398 61.9041 122.772 62.0343 122.035 62.0343L122.037 62.0364Z" fill="#3F4140"/>
<path d="M114.547 33.8731C114.908 32.7304 115.73 29.9761 118.534 29.8583C121.824 29.7199 124.502 31.4204 126.231 36.2989C122.801 32.5073 117.727 31.4741 114.549 33.8731H114.547Z" fill="#484A49"/>
<path d="M114.547 33.8731C116.809 29.5091 123.204 30.5691 126.229 36.2989C122.799 32.5073 117.724 31.4742 114.547 33.8731Z" fill="#2F302F"/>
<path d="M126.595 36.9105L126.128 36.3939C124.491 34.5839 122.411 33.3441 120.268 32.9019C118.142 32.4639 116.139 32.8482 114.633 33.9847L114.284 34.2471L114.435 33.7698C114.807 32.5941 115.679 29.8397 118.53 29.7178C122.19 29.5628 124.752 31.6994 126.363 36.2514L126.597 36.9084L126.595 36.9105ZM118.58 32.4474C119.146 32.4474 119.729 32.5073 120.322 32.6292C122.32 33.0424 124.264 34.1273 125.859 35.7121C124.285 31.7262 121.886 29.8583 118.538 29.9988C116.106 30.1021 115.23 32.2304 114.805 33.5218C115.889 32.8131 117.185 32.4474 118.58 32.4474Z" fill="black"/>
<path d="M84.0996 36.5117C83.926 35.4786 83.5458 32.9929 81.5126 32.7036C79.124 32.3647 77.037 33.6912 75.3882 37.8879C78.19 34.7636 81.9734 34.1851 84.0996 36.5117Z" fill="#484A49"/>
<path d="M84.0996 36.5117C82.5478 32.3151 77.752 33.311 75.3882 37.8878C78.19 34.7636 81.9734 34.1851 84.0996 36.5117Z" fill="#2F302F"/>
<path d="M74.977 38.5572L75.2601 37.8382C76.8036 33.9102 78.8554 32.1869 81.5333 32.5671C83.6327 32.8646 84.0521 35.3669 84.2298 36.4372L84.3166 36.9579L83.9984 36.6087C83.176 35.7078 82.0788 35.2326 80.8246 35.2326C80.8163 35.2326 80.8081 35.2326 80.8019 35.2326C78.9897 35.2409 77.0557 36.243 75.4957 37.9849L74.9791 38.5614L74.977 38.5572ZM80.8122 32.7923C79.87 32.7923 79.0311 33.094 78.2603 33.7035C77.345 34.4309 76.5185 35.6232 75.8015 37.2576C77.316 35.7905 79.1054 34.9578 80.7977 34.9495C80.806 34.9495 80.8143 34.9495 80.8225 34.9495C82.0024 34.9495 83.0541 35.3463 83.8868 36.1025C83.6781 34.9785 83.1802 33.0795 81.492 32.8399C81.2585 32.8068 81.0333 32.7903 80.8122 32.7903V32.7923Z" fill="black"/>
<path d="M73.5286 76.2295C72.1339 79.9095 68.9539 84.038 65.0528 90.0033C61.4864 95.4563 58.4386 100.492 57.1885 106.065C56.0541 111.121 57.7484 114.439 60.0317 116.884C62.1517 119.152 65.9433 120.192 66.836 119.394C67.9414 118.402 63.7138 116.03 63.5464 110.862C65.6664 105.955 72.4686 96.0844 80.2771 92.5697C81.0024 87.9412 81.1697 77.7358 81.1697 77.7358L73.5286 76.2295Z" fill="#FFFDE1"/>
<path d="M64.3213 104.602C63.1704 107.282 63.5486 110.912 63.5465 110.86C65.6665 105.953 72.4687 96.0824 80.2772 92.5677C80.5375 90.9002 82.0025 84.7447 82.1368 82.3665C76.874 86.6127 66.679 97.252 64.3213 104.6V104.602Z" fill="#E8E4C5"/>
<path d="M65.8359 119.799C65.2862 119.799 64.6023 119.673 63.8522 119.421C62.3377 118.913 60.9078 118.024 59.9325 116.979C58.6039 115.557 57.7092 114.09 57.1967 112.497C56.5748 110.559 56.5273 108.385 57.0542 106.036C58.3311 100.339 61.5111 95.1671 64.937 89.9291C65.9557 88.3711 66.9062 86.9661 67.8257 85.6065C70.3672 81.852 72.3736 78.8848 73.3984 76.1801L73.4398 76.0706L81.3102 77.6223V77.7381C81.3061 77.8393 81.1325 88.0054 80.4135 92.5925L80.4011 92.6669L80.3329 92.6979C72.9025 96.0412 66.0156 105.517 63.6849 110.889C63.7902 113.84 65.2552 115.89 66.2264 117.247C66.9558 118.266 67.4827 119.004 66.9269 119.5C66.7016 119.702 66.3194 119.801 65.8317 119.801L65.8359 119.799ZM73.6175 76.3888C72.5698 79.0935 70.5738 82.0421 68.0571 85.7614C67.1376 87.119 66.1871 88.524 65.1705 90.0799C61.7591 95.2952 58.5935 100.444 57.3269 106.096C56.3785 110.325 57.2711 113.722 60.137 116.789C61.7653 118.533 64.3957 119.524 65.8503 119.524C66.2553 119.524 66.5694 119.448 66.745 119.289C67.0984 118.973 66.7326 118.425 66.0032 117.407C65.0093 116.018 63.5072 113.917 63.408 110.865V110.834L63.4204 110.805C64.3791 108.583 66.526 104.868 69.6729 101.102C72.0512 98.2542 75.7953 94.4543 80.1511 92.4727C80.8164 88.1397 81.0065 78.9882 81.0272 77.8496L73.6175 76.3888Z" fill="#897E64"/>
<path d="M63.408 110.871C63.3047 109.435 63.3956 108.106 63.5382 107.038C63.7407 105.521 64.3213 104.6 64.3213 104.6C64.3131 104.629 63.4411 107.432 63.687 110.85L63.408 110.871Z" fill="#897E64"/>
<path d="M77.8407 61.0466C77.5225 62.6211 77.2952 64.9911 75.6133 68.105C74.4086 70.3366 71.9146 72.3533 72.082 75.5044C72.2246 78.1864 75.6133 80.2631 78.4399 81.2673C80.1508 74.5002 82.9754 62.679 82.9754 62.679L77.8428 61.0487L77.8407 61.0466Z" fill="#BCBCBC"/>
<path d="M73.1815 75.5829C73.0141 72.4319 75.5082 70.4152 76.7128 68.1836C78.3059 65.235 78.5952 62.9518 78.8906 61.3814L77.8389 61.0466C77.5207 62.6211 77.2934 64.9911 75.6115 68.105C74.4068 70.3366 71.9128 72.3533 72.0802 75.5044C72.2228 78.1864 75.6115 80.2631 78.4381 81.2673C78.465 81.1598 78.4919 81.0524 78.5187 80.9449C75.9565 79.8415 73.3076 77.9488 73.1815 75.5829Z" fill="#CECECE"/>
<path d="M78.5354 81.4491L78.3908 81.3974C75.3657 80.3229 72.0844 78.2133 71.9398 75.5106C71.8179 73.2335 73.0329 71.5702 74.2065 69.9606C74.6859 69.3035 75.1384 68.6836 75.4876 68.0389C76.9072 65.4106 77.2853 63.3133 77.5601 61.7822C77.6097 61.5115 77.6551 61.2574 77.7027 61.0198L77.9754 61.0756C77.9279 61.3091 77.8824 61.5632 77.8349 61.8318C77.556 63.3815 77.1758 65.5036 75.7335 68.1711C75.3761 68.8324 74.9173 69.4605 74.4318 70.1258C73.287 71.6941 72.101 73.3182 72.2167 75.4961C72.2787 76.678 72.9936 77.8248 74.3367 78.9055C75.3905 79.7526 76.8059 80.5234 78.337 81.0833C80.0314 74.37 82.8064 62.7616 82.8353 62.6459L83.106 62.71C83.0771 62.8278 80.2607 74.6117 78.5705 81.3003L78.5333 81.4491H78.5354Z" fill="#3F4140"/>
<path d="M79.4257 61.5075C79.0765 61.5075 78.7604 61.4682 78.4773 61.4041C78.1012 61.3194 77.783 61.1934 77.5227 61.057C76.9772 60.7739 76.8677 60.2429 76.8677 60.2429C76.8801 60.2574 78.1136 61.5901 80.3804 61.1293C80.3804 61.1293 80.2626 61.4475 79.4278 61.5075H79.4257Z" fill="#3F4140"/>
<path d="M83.6824 40.7185C85.1701 44.5845 85.7425 49.4402 84.0998 55.2961C82.4571 61.1519 79.2171 64.2761 77.5207 73.281C75.7292 82.7941 77.1881 86.0795 78.8597 102.641C80.5334 119.202 82.5397 124.723 83.2939 138.441C84.0481 152.159 84.3188 168.888 80.4445 174.771C79.9424 172.762 77.3968 169.867 73.7146 171.128C69.6441 172.522 67.8133 180.376 72.7538 183.779C77.1137 186.782 83.0418 185.871 88.4803 181.438C93.9167 177.004 97.1793 169.894 99.4378 159.523C101.696 149.151 103.203 125.227 104.792 120.46C108.137 117.03 108.891 116.361 109.893 108.583C110.897 100.804 117.881 63.8319 117.881 63.8319L83.6803 40.7226L83.6824 40.7185Z" fill="#BCBCBC"/>
<path d="M74.5473 176.2C74.8531 178.911 78.0187 178.667 79.994 176.756C83.3208 173.535 83.8146 167.871 84.2237 165.491C85.5358 157.833 85.1556 147.256 84.67 138.387C83.9179 124.669 82.3269 118.811 80.6552 102.25C78.9816 85.6889 78.0207 80.9241 79.558 73.1879C81.3433 64.2016 83.641 61.4287 85.2837 55.5729C86.9264 49.717 86.2177 44.2517 83.6844 40.7205C85.1721 44.5865 85.7445 49.4422 84.1018 55.298C82.4591 61.1539 79.2192 64.2781 77.5228 73.2829C75.7313 82.7961 77.1901 86.0815 78.8617 102.643C80.5354 119.204 82.5418 124.725 83.296 138.443C84.0481 152.161 84.3208 168.89 80.4465 174.772C80.4341 174.723 80.4197 174.673 80.4052 174.624C80.4011 174.704 77.0909 180.05 74.5473 176.202V176.2Z" fill="#CECECE"/>
<path d="M107.924 82.3684C103.266 86.2158 103.936 95.9191 102.376 107.966C102.012 110.778 100.979 117.01 100.223 124.465C98.9273 137.251 97.8177 152.696 96.3754 159.319C94.117 169.692 92.0673 174.33 87.6454 178.614C83.8063 182.331 77.7314 184.713 73.3716 181.711C70.6151 179.812 69.7742 177.171 70.2763 174.967C69.2369 177.893 69.708 181.68 72.7558 183.779C77.1157 186.782 83.0438 185.87 88.4823 181.438C93.9186 177.004 97.1813 169.894 99.4398 159.523C101.698 149.151 103.205 125.227 104.793 120.46C108.139 117.03 108.893 116.361 109.895 108.583C110.368 104.912 112.176 94.733 113.951 85.0112C112.323 85.255 110.488 83.2218 107.924 82.3725V82.3684Z" fill="#A4A4A4"/>
<path d="M78.4794 185.666C76.3594 185.666 74.3779 185.065 72.6753 183.893C70.4168 182.337 69.3093 179.637 69.7184 176.669C69.8982 175.366 70.3548 174.142 71.0408 173.13C71.7537 172.078 72.6628 171.338 73.6712 170.993C75.1279 170.495 76.564 170.592 77.8265 171.281C79.2068 172.031 80.1283 173.353 80.492 174.436C82.1161 171.754 83.1162 166.745 83.4674 159.538C83.734 154.031 83.6327 147.134 83.1575 138.449C82.7422 130.893 81.9508 125.857 81.0354 120.024C80.304 115.367 79.4754 110.09 78.7233 102.655C78.2852 98.3202 77.8554 94.8344 77.5083 92.0304C76.5123 83.9761 76.0598 80.2981 77.3864 73.2542C78.4071 67.8343 80.0188 64.4683 81.4404 61.5011C82.4033 59.4886 83.3145 57.5876 83.9675 55.2589C85.2548 50.6718 85.0481 46.9132 84.6204 44.506C84.4055 43.291 83.8476 41.1793 83.6844 40.7185C83.6844 40.7185 84.6514 42.1029 84.9118 44.506C85.0585 45.3407 85.1701 46.3098 85.2135 47.407C85.3126 50.0023 84.982 52.6699 84.2361 55.3333C83.5769 57.6868 82.6616 59.5981 81.6925 61.621C80.2089 64.7183 78.6757 67.9211 77.6612 73.3058C76.3429 80.3064 76.7954 83.9699 77.7872 91.9953C78.1344 94.7992 78.5642 98.2892 79.0022 102.626C79.7523 110.053 80.5809 115.328 81.3123 119.981C82.2297 125.82 83.0211 130.864 83.4364 138.435C84.1328 151.136 84.5936 168.731 80.5643 174.849L80.3887 175.113L80.3122 174.806C80.0457 173.737 79.1324 172.31 77.6963 171.528C76.5041 170.882 75.1445 170.789 73.7642 171.262C71.8715 171.911 70.3569 174.101 69.9994 176.711C69.6068 179.57 70.6668 182.172 72.8385 183.666C77.1488 186.633 82.9633 185.761 88.3976 181.331C93.5736 177.112 96.9375 170.376 99.3075 159.494C100.45 154.246 101.415 145.382 102.266 137.559C103.13 129.631 103.876 122.783 104.663 120.417L104.674 120.386L104.843 120.212C108.021 116.956 108.777 116.183 109.759 108.565C110.751 100.87 117.679 64.1749 117.749 63.8051L118.024 63.8567C117.954 64.2266 111.027 100.913 110.036 108.6C109.042 116.309 108.273 117.096 105.041 120.407L104.915 120.535C104.139 122.903 103.364 130.038 102.541 137.59C101.688 145.419 100.723 154.292 99.5761 159.554C97.1917 170.504 93.7989 177.285 88.5712 181.548C85.8788 183.742 82.9963 185.123 80.2378 185.538C79.6448 185.627 79.058 185.672 78.4836 185.672L78.4794 185.666Z" fill="#3F4140"/>
<path d="M76.4379 177.771C75.9648 177.771 75.5556 177.614 75.2188 177.3C74.32 176.467 74.3427 175.68 74.5225 175.165C74.6423 174.818 74.8676 174.508 75.1362 174.26C75.7747 173.647 76.44 173.907 76.44 173.907C75.8635 173.952 75.0432 174.519 74.7849 175.258C74.568 175.882 74.7849 176.517 75.4069 177.095C75.7623 177.426 76.2169 177.55 76.7582 177.467C78.1736 177.246 79.7647 175.692 80.3226 174.705L80.5664 174.841C79.9816 175.878 78.3059 177.508 76.8037 177.742C76.6776 177.761 76.5578 177.771 76.44 177.771H76.4379Z" fill="#3F4140"/>
<path d="M98.4665 50.932C95.2142 49.7707 90.5795 49.6715 87.912 50.7067C87.912 50.7067 88.4699 50.153 90.1539 49.874C91.9267 49.6281 93.9972 49.6715 95.9188 49.998C97.7103 50.3245 98.4665 50.934 98.4665 50.934V50.932Z" fill="#3F4140"/>
<path d="M82.7359 59.3459L82.5685 59.1227C83.8434 58.1681 85.9923 57.4553 88.4636 57.166C90.3873 56.9407 92.4867 56.9697 94.6666 57.2425C97.4271 57.664 98.4809 58.2404 98.4809 58.2404C94.9621 57.3664 91.5093 57.0916 88.4967 57.4429C86.0729 57.726 83.9736 58.4202 82.7359 59.3459Z" fill="#3F4140"/>
<path d="M96.5863 73.1857C93.6563 72.4956 90.0362 72.0142 86.6537 71.8633C83.9861 71.7435 80.2689 71.7765 77.7253 72.6072L77.6385 72.3427C80.2234 71.4976 83.9737 71.4645 86.6661 71.5844C88.8667 71.6836 91.1685 71.9212 93.3175 72.2642C95.3589 72.5803 96.5863 73.1857 96.5863 73.1857Z" fill="#3F4140"/>
<path d="M87.5731 93.7909C87.3004 93.7909 87.0235 93.7888 86.7445 93.7805C83.1699 93.6999 80.0994 93.0904 77.6219 91.9705L77.7376 91.7163C83.4364 94.293 90.8792 93.5491 94.8092 92.8776C94.8092 92.8776 93.462 93.4292 91.2532 93.6214C90.1188 93.7227 88.8749 93.7909 87.5752 93.7909H87.5731Z" fill="#3F4140"/>
<path d="M90.0795 113.481C86.387 113.481 82.4632 112.923 79.8224 111.501L79.9547 111.255C83.8248 113.338 90.5134 113.538 95.0902 112.842C95.0902 112.842 93.7512 113.383 91.1105 113.466C90.7696 113.476 90.4245 113.481 90.0795 113.481Z" fill="#3F4140"/>
<path d="M90.0752 128.453C87.1928 128.285 84.0624 127.711 82.1387 126.93L82.244 126.672C84.8661 127.736 89.7591 128.411 93.1519 128.178C93.1519 128.178 92.2221 128.502 90.0773 128.453H90.0752Z" fill="#3F4140"/>
<path d="M90.5175 143.877C88.0111 143.669 85.1762 143.086 83.4178 142.22L83.5417 141.97C86.1349 143.247 91.1064 143.896 93.8174 143.625C93.8174 143.625 92.7429 143.999 90.5196 143.877H90.5175Z" fill="#3F4140"/>
<path d="M88.4926 156.92C86.9759 156.492 85.3869 155.86 83.6657 154.698L83.8207 154.467C86.5585 156.314 88.9657 156.804 91.2944 157.277L91.625 157.345C91.625 157.345 90.3832 157.451 88.4905 156.92H88.4926Z" fill="#3F4140"/>
<path d="M86.2321 168.357C85.2796 168.055 84.1121 167.611 82.86 166.962L82.9881 166.714C86.0834 168.315 88.6455 168.661 88.6724 168.665C88.6724 168.665 87.6702 168.811 86.2321 168.355V168.357Z" fill="#3F4140"/>
<path d="M83.5046 175.839C82.5211 175.473 81.4404 174.932 80.7523 174.171L80.9589 173.983C82.395 175.57 85.7796 176.188 85.8147 176.194C85.8147 176.194 84.6659 176.268 83.5067 175.837L83.5046 175.839Z" fill="#3F4140"/>
<path d="M78.3078 178.917C78.0578 178.465 77.8553 177.893 77.8015 177.19L78.0805 177.169C78.2355 179.182 79.7191 180.052 79.7335 180.06C79.7335 180.06 78.8264 179.851 78.3099 178.917H78.3078Z" fill="#3F4140"/>
<path d="M108.973 84.9906C108.137 90.7617 108.192 96.7539 107.992 103.556C107.825 109.271 107.818 112.947 106.18 114.904C103.014 118.683 93.9206 118.729 93.8896 120.638C93.8731 121.679 97.6585 123.167 105.316 122.386C112.468 121.657 115.914 118.83 117.811 114.514C120.54 108.296 120.129 83.571 119.947 80.7671C113.492 80.8911 109.31 81.3105 109.31 81.3105L108.976 84.9906H108.973Z" fill="#FFFDE1"/>
<path d="M119.947 80.7671C118.852 80.7878 117.821 80.8188 116.867 80.8518C117.03 87.5135 117.596 108.176 115.203 113.625C113.306 117.944 105.891 123.301 93.8917 120.638C93.8751 121.679 97.6606 123.167 105.318 122.386C112.47 121.657 115.916 118.83 117.813 114.514C120.543 108.296 120.131 83.571 119.95 80.7671H119.947Z" fill="#E8E4C5"/>
<path d="M101.279 122.744C99.9708 122.744 98.7662 122.667 97.702 122.512C95.9911 122.264 94.6729 121.812 94.086 121.272C93.8608 121.066 93.7472 120.853 93.7513 120.64C93.7678 119.683 95.5304 119.216 97.9727 118.568C100.814 117.816 104.349 116.877 106.075 114.817C107.587 113.011 107.682 109.635 107.827 104.527C107.835 104.209 107.845 103.885 107.854 103.554C107.895 102.137 107.926 100.744 107.955 99.3988C108.066 94.3343 108.172 89.5509 108.835 84.9761L109.18 81.1845L109.294 81.1721C109.335 81.1679 113.557 80.7526 119.943 80.6287H120.076L120.084 80.7588C120.175 82.1721 120.322 89.1128 120.109 96.3654C119.919 102.849 119.386 111.272 117.937 114.569C115.817 119.398 111.928 121.853 105.329 122.525C103.905 122.669 102.541 122.742 101.277 122.742L101.279 122.744ZM109.439 81.4386L109.114 85.0112C108.453 89.5715 108.347 94.3467 108.236 99.4029C108.207 100.748 108.176 102.141 108.135 103.56C108.124 103.891 108.116 104.215 108.108 104.533C107.961 109.701 107.866 113.115 106.289 114.995C104.506 117.123 100.923 118.072 98.045 118.836C95.8982 119.404 94.0447 119.896 94.0323 120.642C94.0302 120.77 94.115 120.917 94.2761 121.066C95.3651 122.066 99.2807 122.863 105.304 122.25C111.79 121.589 115.608 119.185 117.685 114.46C119.115 111.201 119.642 102.818 119.834 96.3592C120.041 89.3215 119.91 82.5834 119.817 80.9118C114.096 81.0275 110.149 81.3746 109.439 81.4407V81.4386Z" fill="#897E64"/>
<path d="M108.182 88.3773C108.796 86.344 109.854 84.4513 113.069 83.6476C116.972 82.6723 119.371 83.786 120.877 82.476C123.619 80.0894 121.578 67.2661 118.088 62.7595C110.079 69.4088 106.244 77.6388 108.184 88.3773H108.182Z" fill="#BCBCBC"/>
<path d="M108.182 88.3773C108.796 86.344 109.854 84.4513 113.069 83.6476C116.972 82.6723 119.371 83.786 120.877 82.476C123.619 80.0894 121.578 67.2661 118.088 62.7595C119.303 68.3426 120.873 74.9402 118.536 78.3413C116.439 81.3953 110.798 79.6348 107.585 82.6702C107.498 84.3108 107.686 87.1375 108.182 88.3773Z" fill="#A4A4A4"/>
<path d="M108.182 88.3773C108.182 88.3773 108.042 87.5383 108.796 86.344C109.007 86.001 109.25 85.6683 109.544 85.3625C110.366 84.4988 111.509 83.8934 113.036 83.5112C114.856 83.0566 116.365 83.0524 117.577 83.0483C118.993 83.0442 120.016 83.0421 120.786 82.3706C121.995 81.3168 122.353 77.9198 121.716 73.5C121.096 69.1898 119.671 64.9725 118.088 62.7595C118.088 62.7595 118.819 63.3525 119.58 64.8485C120.648 67.1793 121.537 70.2973 121.991 73.4608C122.65 78.0397 122.268 81.449 120.968 82.5813C120.119 83.3211 118.997 83.3232 117.577 83.3273C116.381 83.3314 114.891 83.3355 113.102 83.7819C110.06 84.5422 108.994 86.0424 108.18 88.3773H108.182Z" fill="#3F4140"/>
</svg>
