<svg width="196" height="152" viewBox="0 0 196 152" fill="none" xmlns="http://www.w3.org/2000/svg">
<path d="M164.787 91.6355C164.787 91.6355 163.903 96.9518 155.684 101.376C147.466 105.801 143.781 108.559 140.732 119.418C137.682 130.278 131.677 133.565 132.5 134.56C133.322 135.556 151.356 135.105 160.808 116.267C170.261 97.4324 169.107 91.227 169.107 91.227C169.107 91.227 166.068 88.7144 164.787 91.6355Z" fill="#FFD19F"/>
<path d="M149.773 105.499C149.773 105.499 146.625 107.886 144.633 113.514C142.641 119.143 143.42 125.813 140.996 128.497C140.996 128.497 142.555 129.968 149.137 125.466C155.719 120.961 159.444 114.206 162.301 108.751C165.158 103.296 165.775 97.5898 165.775 97.5898C165.775 97.5898 162.189 101.291 149.773 105.496V105.499Z" fill="#FFAA4D"/>
<path d="M150.956 105.203C150.956 105.203 146.886 109.013 145.845 113.517C144.806 118.022 145.065 123.13 144.545 124.516C144.024 125.901 151.762 122.177 156.899 113.862C162.039 105.547 162.125 100.004 162.125 100.004C162.125 100.004 156.104 104.076 150.953 105.2L150.956 105.203Z" fill="#FF740D"/>
<path d="M161.727 99.9695C161.671 100.098 161.617 100.226 161.561 100.354C161.524 100.439 161.529 100.552 161.569 100.64C159.93 108.653 155.762 116.223 149.759 121.79C149.754 121.792 149.759 121.8 149.765 121.795C156.512 116.436 161.078 108.898 162.573 100.397C162.661 99.8947 161.991 99.342 161.724 99.9668L161.727 99.9695Z" fill="#ED6000"/>
<path d="M158.878 101.433C157.967 103.486 157.278 105.63 156.368 107.686C155.444 109.771 154.408 111.806 153.281 113.787C151.103 117.616 148.625 121.779 145.057 124.484C145.047 124.492 145.057 124.505 145.068 124.497C148.918 122.059 151.612 118.188 153.962 114.356C156.315 110.522 158.63 106.236 159.748 101.855C159.885 101.321 159.148 100.829 158.881 101.43L158.878 101.433Z" fill="#ED6000"/>
<path d="M154.44 103.569C154.4 103.318 154.221 103.093 153.941 103.205C153.257 103.48 153.11 104.1 152.825 104.743C152.443 105.603 152.08 106.468 151.706 107.331C150.916 109.16 150.197 111.018 149.455 112.866C148.059 116.334 146.638 119.798 145.311 123.293C145.3 123.322 145.34 123.33 145.351 123.306C146.993 120.078 148.555 116.81 150.147 113.558C150.977 111.859 151.834 110.172 152.619 108.45C153.014 107.579 153.412 106.711 153.805 105.841C154.146 105.085 154.571 104.415 154.44 103.571V103.569Z" fill="#ED6000"/>
<path d="M151.039 103.686C147.159 107.974 144.943 113.861 145.266 119.664C145.266 119.701 145.327 119.688 145.33 119.658C145.816 113.992 147.947 108.756 151.714 104.471C152.117 104.011 151.514 103.162 151.039 103.688V103.686Z" fill="#ED6000"/>
<path d="M156.298 102.111C155.767 102.749 155.545 103.633 155.244 104.397C154.833 105.443 154.421 106.49 154.01 107.537C153.201 109.601 152.411 111.67 151.618 113.739C151.583 113.827 151.711 113.841 151.743 113.766C152.616 111.822 153.495 109.884 154.352 107.934C154.787 106.946 155.222 105.956 155.655 104.965C156.042 104.081 156.565 103.208 156.688 102.247C156.718 102.02 156.424 101.956 156.296 102.108L156.298 102.111Z" fill="#ED6000"/>
<path d="M127.058 104.634C127.058 104.634 122.54 107.681 113.625 104.885C104.709 102.089 100.143 101.374 90.0582 106.711C79.9731 112.046 73.4206 110.044 73.2551 111.317C73.0895 112.594 85.85 125.122 106.207 118.831C126.567 112.54 130.332 107.427 130.332 107.427C130.332 107.427 130.083 103.526 127.055 104.631L127.058 104.634Z" fill="#FFD19F"/>
<path d="M128.692 104.505C128.692 104.505 126.03 109.192 116.789 110.513C107.547 111.835 103.139 113.154 96.5329 122.297C89.9271 131.439 83.1583 132.454 83.5882 133.674C84.0181 134.894 101.102 140.683 116.465 126.259C131.829 111.835 132.887 105.614 132.887 105.614C132.887 105.614 130.9 102.209 128.692 104.508V104.505Z" fill="#FFD19F"/>
<path d="M128.177 106.068C128.177 106.068 125.058 109.966 120.295 111.09C115.531 112.217 109.47 112.044 105.224 116.286C100.982 120.529 98.5544 128.326 94.5706 130.489C94.5706 130.489 94.2235 131.354 98.0337 131.442C101.844 131.528 108.266 129.92 116.394 123.995C124.524 118.067 130.329 106.605 130.329 106.605C130.329 106.605 129.384 106.586 128.171 106.068H128.177Z" fill="#FFAA4D"/>
<path d="M126.791 105.812C126.791 105.812 124.799 107.974 116.487 107.627C108.172 107.28 101.331 103.47 93.5372 108.754C85.7432 114.038 83.2226 113.691 83.5723 114.556C83.9248 115.421 93.3664 119.755 100.728 117.242C100.728 117.242 102.952 114.684 107.729 112.54C112.506 110.399 116.885 110.919 119.913 109.889C122.941 108.855 125.226 107.945 127.44 105.99L126.794 105.814L126.791 105.812Z" fill="#FFAA4D"/>
<path d="M128.177 106.068C128.177 106.068 127.397 108.319 121.421 111.913C115.446 115.507 113.368 112.997 109.037 117.325C104.706 121.656 103.841 126.072 102.196 127.199C100.552 128.326 111.398 128.259 120.297 119.037C129.197 109.814 129.76 106.468 129.76 106.468C129.76 106.468 128.786 106.415 128.179 106.068H128.177Z" fill="#FF740D"/>
<path d="M127.437 105.988C127.437 105.988 124.065 108.319 118.933 108.775C113.801 109.229 106.266 107.088 101.265 108.19C96.2635 109.296 92.4318 113.192 90.6776 113.84C88.9233 114.489 97.4971 117.803 102.303 115.723C102.303 115.723 104.253 113.707 107.724 112.537C111.195 111.371 115.705 110.716 117.224 110.457C118.743 110.201 124.508 109.368 127.435 105.985L127.437 105.988Z" fill="#FF740D"/>
<path d="M129.186 105.865C129.165 105.908 129.138 105.95 129.117 105.993C129.058 106.001 128.997 106.036 128.94 106.102C127.645 107.667 126.268 109.162 124.826 110.594C123.325 111.83 121.718 112.941 120.089 113.918C116.81 115.886 113.264 117.055 109.579 117.99C109.55 117.998 109.537 118.054 109.577 118.051C113.545 117.76 117.454 116.201 120.85 114.185C120.943 114.129 121.032 114.073 121.122 114.017C120.174 114.828 119.203 115.613 118.215 116.374C116.081 118.011 113.841 119.496 111.539 120.882C109.299 122.23 106.856 123.266 104.65 124.657C104.621 124.676 104.618 124.735 104.666 124.721C107.12 124.088 109.531 122.689 111.721 121.448C113.988 120.163 116.159 118.703 118.241 117.138C121.76 114.492 124.957 111.475 127.859 108.177C125.146 112.546 121.536 116.447 117.622 119.723C115.411 121.571 113.024 123.194 110.533 124.641C107.857 126.195 105.029 127.968 101.833 127.247C101.825 127.247 101.815 127.258 101.823 127.263C104.335 128.887 107.825 127.229 110.172 126.059C112.885 124.705 115.422 123.034 117.785 121.135C120.233 119.167 122.551 116.949 124.497 114.473C126.476 111.958 128.169 109.066 129.653 106.233C129.84 105.878 129.402 105.472 129.194 105.865H129.186Z" fill="#ED6000"/>
<path d="M127.33 105.723C125.939 107.039 124.321 107.92 122.58 108.553C122.292 108.612 122.006 108.668 121.718 108.724C115.445 109.426 109.152 109.461 102.936 108.158C102.917 108.153 102.896 108.185 102.92 108.193C106.984 109.317 111.224 109.907 115.435 109.787C113.427 110.081 111.414 110.35 109.403 110.641C106.957 110.994 104.511 111.373 102.06 111.699C99.7291 112.008 97.4088 112.059 95.1525 111.304C95.1232 111.293 95.0858 111.344 95.1178 111.36C99.3794 113.341 104.514 112.038 108.952 111.44C109.019 111.432 109.085 111.424 109.149 111.413C103.304 113.223 96.6078 118.024 90.899 113.576C90.8723 113.557 90.8296 113.6 90.8536 113.624C92.931 115.95 96.1832 116.363 99.123 115.918C102.669 115.378 105.849 113.442 109.2 112.278C113.771 110.687 118.949 110.727 123.272 108.751C123.573 108.633 123.875 108.508 124.171 108.374C124.217 108.353 124.236 108.305 124.228 108.27C125.368 107.645 126.438 106.852 127.405 105.811C127.461 105.75 127.392 105.667 127.328 105.726L127.33 105.723Z" fill="#ED6000"/>
<path d="M148.336 33.5979C148.336 33.5979 153.642 23.4888 148.336 14.656C143.031 5.82321 120.167 -11.1962 96.6534 10.7576C73.1403 32.7114 60.5373 23.3579 59.7603 25.1763C58.9806 26.9946 67.5971 34.7887 83.6205 26.9946C99.644 19.2005 106.658 13.094 110.816 14.3943C114.973 15.6947 85.0944 25.1763 78.4672 35.1786C71.8426 45.1809 72.3499 51.0631 73.5301 51.4183C76.1282 52.1979 85.4069 40.5642 109.542 41.9634C133.677 43.3625 148.336 33.5952 148.336 33.5952V33.5979Z" fill="#FFD19F"/>
<path d="M145.428 33.1144C145.428 33.1144 147.578 23.3578 143.768 15.7373C139.957 8.11673 124.802 0.755196 114.063 3.69767C103.323 6.64282 99.9456 13.5718 89.727 19.4594C79.5085 25.3497 75.0894 26.2148 72.1469 26.562C72.1469 26.562 71.5408 28.2068 75.8717 27.5152C80.2027 26.8236 93.2783 19.8065 100.554 15.6492C107.83 11.4918 118.655 9.49986 120.821 14.3488C122.986 19.1978 105.577 21.7958 96.4851 26.4738C87.3907 31.1519 83.6098 39.3786 84.3307 39.8966C85.0516 40.4172 98.0445 31.726 108.351 32.4763C118.658 33.2266 120.303 35.1838 120.303 35.1838C120.303 35.1838 130.9 30.6579 145.434 33.1118L145.428 33.1144Z" fill="#FFAA4D"/>
<path d="M142.446 32.7005C142.446 32.7005 144.198 23.0346 140.04 15.8893C135.883 8.74409 121.333 2.4426 110.874 7.37966C100.416 12.3167 99.3769 14.2659 97.1046 15.6944C97.1046 15.6944 97.4304 15.6303 108.081 10.8241C118.735 6.01789 128.738 10.3034 130.492 15.0456C132.246 19.7877 126.075 23.1654 119.125 23.3604C112.175 23.5553 100.354 27.0638 98.469 29.9209C96.5866 32.7779 118.228 22.6314 124.716 33.8112C124.716 33.8112 133.255 33.4614 142.443 32.7031L142.446 32.7005Z" fill="#FF740D"/>
<path d="M142.737 26.5087C142.617 24.4714 142.24 22.4368 141.594 20.4983C140.31 16.6426 138.006 13.1367 134.887 10.52C128.019 4.75787 118.719 4.36804 110.589 7.46271C105.807 9.28374 101.508 12.2289 97.5051 15.3716C97.4998 15.3743 97.5051 15.3823 97.5105 15.377C104.664 10.221 113.27 5.99147 122.332 6.81654C130.345 7.54549 137.271 12.6828 140.022 20.2847C140.721 22.2178 141.18 24.2258 141.383 26.2737C141.485 27.3151 141.498 28.3564 141.493 29.4031C141.487 30.4872 141.597 31.5099 141.423 32.5939C141.357 33.0051 141.971 33.0852 142.051 32.6874C142.254 31.6727 142.62 30.6501 142.721 29.6248C142.822 28.5968 142.804 27.5394 142.742 26.5087H142.737Z" fill="#ED6000"/>
<path d="M137.469 23.9934C136.793 21.2352 135.581 18.5357 133.803 16.3088C130.532 12.2128 125.662 9.41451 120.45 8.81641C120.436 8.81641 120.426 8.83776 120.442 8.84311C125.307 9.92184 129.83 12.5439 132.85 16.5544C134.449 18.6772 135.688 21.0509 136.396 23.6169C136.745 24.8879 136.983 26.1909 137.079 27.5073C137.178 28.8637 137.036 30.1934 137.026 31.5498C137.023 32.0144 137.669 32.3536 137.816 31.7715C138.43 29.3043 138.067 26.4312 137.469 23.9961V23.9934Z" fill="#ED6000"/>
<path d="M134.174 32.2546C133.413 29.2427 130.793 26.7461 128.083 25.4084C124.943 23.8597 121.317 23.5713 117.867 23.6221C110.952 23.7235 103.905 26.1266 98.2099 30.0063C98.2019 30.0117 98.2099 30.025 98.2179 30.0197C103.248 27.1626 108.821 25.363 114.61 24.9838C117.56 24.7916 120.535 24.7836 123.459 25.2775C124.866 25.5152 126.273 25.8837 127.597 26.423C130.858 27.7527 132.545 29.5364 133.688 32.4655C133.821 32.8073 134.257 32.559 134.176 32.2492L134.174 32.2546Z" fill="#ED6000"/>
<path d="M128.462 32.708C128.446 32.6519 128.428 32.5958 128.412 32.5398C128.377 32.4303 128.294 32.3769 128.203 32.3662C125.8 29.7601 121.966 28.4091 118.546 27.9418C114.076 27.333 109.459 28.2542 105.067 29.0312C105.061 29.0312 105.061 29.0419 105.067 29.0392C109.382 28.4625 113.713 28.0539 118.041 28.7375C119.865 29.0259 121.659 29.4825 123.349 30.2328C125.055 30.9884 126.414 32.0538 127.835 33.2367C128.19 33.533 128.575 33.0711 128.462 32.7026V32.708Z" fill="#ED6000"/>
<path d="M135.464 29.2829C135.135 28.084 134.631 26.9332 134.006 25.8571C132.751 23.6863 131.029 21.8653 128.949 20.4715C128.941 20.4661 128.927 20.4795 128.935 20.4848C130.788 22.0281 132.292 23.9533 133.325 26.1348C133.851 27.2456 134.241 28.4177 134.537 29.6113C134.713 30.3162 134.657 31.6566 135.263 32.1319C135.381 32.2227 135.504 32.196 135.605 32.0918C136.209 31.4804 135.659 29.9931 135.464 29.2802V29.2829Z" fill="#ED6000"/>
<path d="M128.751 21.1577C128.751 21.1577 128.732 21.1767 128.746 21.1767C128.757 21.1767 128.765 21.1577 128.751 21.1577Z" fill="#ED6000"/>
<path d="M138.048 32.2865C138.182 30.9621 137.976 29.627 137.605 28.3454C137.597 28.3214 137.557 28.3374 137.56 28.3614C137.704 29.328 137.712 30.2679 137.656 31.2131C137.594 31.1223 137.498 31.0609 137.378 31.0689C137.151 31.0849 137.036 31.3092 137.02 31.5095C136.996 31.7685 136.975 32.0275 136.951 32.2892C136.929 32.4761 137.087 32.6763 137.279 32.6656C137.354 32.663 137.415 32.6336 137.466 32.5936C137.496 32.5802 137.52 32.5615 137.544 32.5428C137.533 32.6576 137.52 32.7725 137.509 32.8873C137.477 33.1836 137.909 33.1676 137.957 32.906C137.973 32.8205 137.981 32.7324 137.995 32.647C138.016 32.6096 138.03 32.5642 138.035 32.5081C138.04 32.4333 138.04 32.3586 138.046 32.2865H138.048Z" fill="#ED6000"/>
<path d="M132.228 28.2068C130.591 26.6608 128.318 25.55 126.081 25.275C126.054 25.2724 126.028 25.3151 126.054 25.3311C127.523 26.2042 129.12 26.829 130.465 27.9078C131.208 28.5032 131.875 29.2028 132.406 29.9931C133.082 30.9998 133.266 32.0758 133.731 33.1839C133.944 33.6886 134.465 33.4162 134.548 32.997C134.887 31.3015 133.378 29.2909 132.228 28.2041V28.2068Z" fill="#ED6000"/>
<path d="M135.987 31.6217C135.947 31.4562 135.909 31.2933 135.869 31.1278C135.843 30.9943 135.813 30.8634 135.776 30.7299C135.704 30.4816 135.485 30.5216 135.351 30.6712C135.183 30.6285 134.962 30.7593 134.937 30.9863C134.871 31.595 134.916 32.1905 135.052 32.7859C135.119 33.0743 135.48 32.9701 135.581 32.7592C135.618 32.7645 135.656 32.7592 135.693 32.7485C135.698 32.7539 135.701 32.7592 135.704 32.7646C135.848 32.9301 136.088 32.7459 136.123 32.583C136.195 32.2626 136.062 31.9341 135.984 31.6217H135.987Z" fill="#ED6000"/>
<path d="M142.609 28.8261C142.601 28.7674 142.529 28.7968 142.518 28.8368C142.168 30.1505 142.115 31.6031 141.973 32.9515C141.973 32.9515 141.979 32.9461 141.981 32.9461C141.949 33.376 142.561 33.4187 142.577 32.9728C142.622 31.6244 142.785 30.1665 142.606 28.8261H142.609Z" fill="#ED6000"/>
<path d="M128.967 32.722C128.511 31.6353 126.983 30.9277 125.987 30.407C124.735 29.7502 123.437 29.2001 122.054 28.8957C122.038 28.893 122.014 28.9171 122.036 28.9278C123.347 29.5739 124.639 30.2334 125.822 31.1012C126.369 31.5044 126.898 31.9316 127.408 32.3802C127.822 32.7434 128.099 33.1118 128.647 33.2213C128.887 33.2694 129.047 32.9089 128.967 32.7247V32.722Z" fill="#ED6000"/>
<path d="M83.671 67.4899C83.671 67.4899 51.0555 64.6703 42.3509 79.0916C33.6463 93.5103 38.0626 96.629 25.5931 106.113C13.121 115.598 0 110.268 0 111.763C0 113.259 9.87412 121.312 28.581 120.794C47.2879 120.273 48.4494 106.904 55.082 94.0443C61.7146 81.185 84.1757 73.4096 84.1757 73.4096C84.1757 73.4096 86.6669 69.6634 83.671 67.4926V67.4899Z" fill="#FFD19F"/>
<path d="M95.2889 83.5717C95.2889 83.5717 92.2369 81.4276 87.0409 92.3404C81.8448 103.253 78.8569 128.975 61.5786 141.706C44.3002 154.437 19.0542 153.267 20.0074 149.11C20.723 145.986 39.753 145.601 44.3002 127.805C48.8474 110.009 43.897 97.5525 54.1743 87.1443C64.4516 76.7362 83.6204 71.5562 83.6204 71.5562C83.6204 71.5562 97.0432 72.5948 95.2916 83.5717H95.2889Z" fill="#FFD19F"/>
<path d="M84.571 63.2417C84.571 63.2417 80.0238 64.1522 73.3992 57.525C66.7746 50.9004 61.3169 38.1692 43.5205 33.1013C25.7241 28.0361 8.83556 33.881 4.80634 39.3361C0.779788 44.7911 19.0968 33.1013 27.4116 47.779C35.7264 62.4593 33.1284 72.2721 48.9755 76.1331C64.8254 79.9967 83.6177 71.5511 83.6177 71.5511C83.6177 71.5511 87.8179 65.7062 84.571 63.2364V63.2417Z" fill="#FFD19F"/>
<path d="M83.6179 71.5562C83.6179 71.5562 62.0086 77.7482 55.0823 92.2122C48.1533 106.676 54.5616 116.548 49.8863 130.579C45.2082 144.611 38.7999 144.955 39.3206 145.994C39.8412 147.033 53.0076 149.601 66.3422 133.177C79.6768 116.753 83.3563 87.2031 91.6497 82.218C91.6497 82.218 87.5137 80.6533 83.6206 71.5588L83.6179 71.5562Z" fill="#FFAA4D"/>
<path d="M84.3254 64.542C84.3254 64.542 77.4258 65.9705 71.4501 59.0842C65.4743 52.198 57.8084 39.077 41.8304 35.5711C25.8523 32.0626 21.5641 36.9996 22.0848 37.3895C22.6055 37.7793 32.9976 39.5977 35.8546 50.2515C38.7117 60.9053 40.5327 70.3869 49.4963 73.3747C58.4599 76.3626 77.0119 74.3547 83.5698 69.8288C83.5698 69.8288 83.495 67.3376 84.3254 64.542Z" fill="#FFAA4D"/>
<path d="M48.9755 76.1354C48.9755 76.1354 44.8742 78.9577 42.5726 87.2725C40.2709 95.5873 30.29 113.007 17.0168 114.099C17.0168 114.099 16.5442 115.464 22.042 116.372C27.5398 117.282 42.2014 116.42 46.8875 107.173C46.8875 107.173 46.3241 97.3789 52.3479 89.2083C58.3717 81.0377 74.5927 74.6802 74.5927 74.6802C74.5927 74.6802 60.5345 79.6359 48.9729 76.1354H48.9755Z" fill="#FFAA4D"/>
<path d="M84.1757 73.4062C84.1757 73.4062 67.9414 79.0909 61.8375 88.8342C55.7309 98.5775 56.839 105.44 57.7148 116.884C58.5906 128.328 55.3437 133.914 53.6535 135.991C51.966 138.069 62.2273 137.145 70.5421 120.59C78.8568 104.035 76.2588 93.7713 89.249 80.912C89.249 80.912 85.7297 78.4207 84.1784 73.4089L84.1757 73.4062Z" fill="#FF740D"/>
<path d="M84.2478 65.6178C84.2478 65.6178 80.256 67.9168 73.2549 63.8902C66.2538 59.8637 61.7921 48.3608 53.1862 42.3263C44.5778 36.2918 33.7771 38.2997 34.9466 38.8178C36.1161 39.3384 43.1306 42.9191 43.9102 51.4555C44.6899 59.9919 46.7673 68.5656 56.1207 70.9047C65.4742 73.2437 83.6257 68.3493 83.6257 68.3493C83.6257 68.3493 84.1677 66.6939 84.2451 65.6178H84.2478Z" fill="#FF740D"/>
<path d="M55.958 77.321C55.958 77.321 51.0984 78.4398 48.3268 83.983C45.5552 89.5262 43.5633 98.7087 40.1856 102.735C36.8079 106.762 33.2566 107.974 33.3447 108.492C33.4302 109.013 43.3978 108.58 47.4644 100.698C47.4644 100.698 49.0985 93.6569 52.3507 89.2084C55.6029 84.7627 69.5169 76.229 73.2551 75.0381C73.2551 75.0381 65.2367 77.1528 55.958 77.3184V77.321Z" fill="#FF740D"/>
<path d="M83.7458 73.1721C80.515 73.6634 77.3429 75.0038 74.4858 76.5524C71.4899 78.1785 68.673 80.2078 66.2752 82.635C61.2126 87.7643 58.1954 94.6238 57.1033 101.705C57.1006 101.729 57.1354 101.726 57.138 101.705C58.8175 94.8054 62.7533 88.6161 67.896 83.7538C70.2003 81.5776 72.7422 79.6792 75.5352 78.1759C78.3335 76.6699 81.2573 75.8342 84.2344 74.8008C85.1823 74.4724 84.6724 73.0279 83.7458 73.1694V73.1721Z" fill="#ED6000"/>
<path d="M89.0353 80.3327C88.7682 80.0897 88.4585 79.8334 88.1301 79.6064C87.9272 79.3394 87.6842 79.0911 87.4305 78.8615C86.9819 78.234 86.6241 77.5371 86.2129 76.8829C86.2477 76.2074 85.4653 75.5238 84.7657 75.8362C78.9262 78.4396 73.6206 82.3807 69.3564 87.1335C64.7131 92.3055 61.5437 98.5964 59.6933 105.28C58.6519 109.045 57.9069 112.956 57.9283 116.876C57.9283 116.903 57.971 116.895 57.9737 116.873C58.756 110.014 60.4542 103.579 63.9548 97.5737C67.1883 92.0279 71.5646 87.0027 76.6432 83.0749C78.5257 81.6197 80.5122 80.338 82.5816 79.1952C82.0128 79.6812 81.4761 80.1912 80.9742 80.6264C79.4495 81.9535 78.005 83.374 76.6566 84.8799C74.0292 87.8144 71.7409 91.0639 69.8825 94.5378C65.6503 102.447 64.366 111.328 61.7947 119.819C60.3047 124.74 58.2968 129.546 54.9671 133.522C54.9244 133.572 54.9992 133.628 55.0419 133.583C61.1084 127.319 63.5382 118.737 65.7171 110.532C66.8946 106.102 68.1629 101.691 70.1334 97.539C71.861 93.8969 74.0505 90.4685 76.6379 87.3765C78.0397 85.7023 79.5537 84.1189 81.1664 82.6477C81.9728 81.9108 82.8059 81.2032 83.6603 80.525C84.4426 79.9028 85.3318 79.3982 85.9406 78.6185C86.002 78.6986 86.0661 78.776 86.1275 78.8561C86.1328 78.8615 86.1382 78.8695 86.1435 78.8748C86.1489 78.9549 86.1569 79.035 86.1569 79.1178C72.2509 91.2108 73.1694 111.544 64.3286 126.585C61.8988 130.718 58.4516 134.865 53.4852 135.781C53.4745 135.781 53.4745 135.799 53.4852 135.797C57.3329 135.452 60.3608 132.846 62.6518 129.912C65.4874 126.275 67.5247 122.04 69.1909 117.76C72.4965 109.269 74.3309 100.225 78.3574 92.0118C80.5282 87.5848 83.3452 83.4461 87.1181 80.2339C87.1742 80.1859 87.2142 80.1324 87.2489 80.0737C87.5293 80.4021 87.7803 80.7466 87.9031 81.0617C87.03 81.5022 86.253 82.386 85.6335 83.0162C84.5041 84.1643 83.5321 85.454 82.6777 86.8184C80.9635 89.566 79.6872 92.5592 78.531 95.5765C77.0945 99.3333 75.941 103.186 74.7982 107.039C74.2374 108.935 73.6981 110.836 73.1827 112.743C72.6754 114.622 72.0346 116.537 71.7435 118.465C71.7435 118.475 71.7569 118.478 71.7596 118.467C72.4404 116.905 72.8837 115.199 73.4124 113.581C73.9838 111.83 74.5552 110.081 75.1373 108.332C76.3628 104.647 77.754 101.029 79.1905 97.4215C80.4108 94.3535 81.655 91.2295 83.3506 88.3885C84.1222 87.0935 84.9874 85.8519 85.994 84.7277C86.488 84.1723 87.0193 83.6517 87.5854 83.1711C88.1087 82.7251 88.6908 82.3967 89.07 81.8547C89.1367 81.8173 89.1928 81.7612 89.2302 81.7105C89.5479 81.2352 89.4518 80.7092 89.0353 80.3327Z" fill="#ED6000"/>
<path d="M75.4766 74.2506C73.6049 74.9902 71.669 75.5349 69.8186 76.3279C68.0563 77.0836 66.3288 77.8953 64.6359 78.7951C61.2101 80.6215 57.9713 82.7869 55.1409 85.4544C52.4815 87.9617 50.3187 90.9148 49.0103 94.3433C48.3481 96.0788 47.8435 97.8812 46.9009 99.4966C45.9477 101.131 44.853 102.735 43.4618 104.03C40.6795 106.618 36.8746 108.177 33.0777 108.212C33.0724 108.212 33.0697 108.22 33.0777 108.22C39.3258 108.81 45.1413 105.208 47.3388 99.3257C48.7647 95.5154 50.5083 91.836 53.093 88.6639C55.4881 85.7268 58.4359 83.3236 61.6454 81.3317C63.899 79.9326 66.27 78.7524 68.6598 77.6042C70.9401 76.5095 73.1776 75.3133 75.4953 74.2986C75.5274 74.2853 75.5113 74.2372 75.4766 74.2532V74.2506Z" fill="#ED6000"/>
<path d="M68.924 75.9165C67.6637 76.074 66.4167 76.317 65.1911 76.6401C60.9643 76.584 56.3156 76.7042 52.6255 78.883C49.2718 80.8643 47.0877 84.4529 46.794 88.3246C46.794 88.3406 46.818 88.3353 46.8207 88.3246C47.5256 84.5677 49.7952 81.3796 53.1462 79.5238C56.6681 77.5747 60.5611 77.1074 64.4916 76.835C59.7895 78.2048 55.4505 80.7788 52.0675 84.3327C49.8032 86.7118 48.097 89.43 46.6471 92.3645C44.7246 96.2575 43.0718 100.279 40.0225 103.472C40.0119 103.483 40.0279 103.499 40.0412 103.488C45.3094 98.7701 46.9248 91.3311 51.4961 86.0363C55.2289 81.7133 60.1686 78.4585 65.605 76.7629C65.7599 76.7523 65.9174 76.7442 66.0723 76.7336C66.1177 76.7309 66.1417 76.6561 66.0856 76.6535C66.0456 76.6535 66.0055 76.6535 65.9655 76.6535C66.9374 76.3624 67.9253 76.1221 68.9266 75.9352C68.9373 75.9352 68.9373 75.9165 68.9266 75.9192L68.924 75.9165Z" fill="#ED6000"/>
<path d="M84.0742 67.7405C84.1249 67.4708 84.0421 67.1717 83.8472 67.0249C84.1676 66.9021 84.213 66.4508 83.9967 66.2372C84.1142 65.9996 84.0848 65.6845 83.7858 65.6498C80.4455 65.2813 77.1532 64.8701 74.0478 63.4977C70.9185 62.1119 68.1789 60.0185 66.0108 57.3697C63.8026 54.6702 62.1097 51.5969 60.0831 48.7666C58.0965 45.9896 55.7361 43.5518 52.7963 41.7815C49.6509 39.8884 46.1077 38.7776 42.4523 38.4893C42.4416 38.4893 42.4362 38.5053 42.4496 38.5079C45.9181 39.0019 49.237 40.2782 52.1421 42.2354C55.2929 44.3609 57.696 47.2072 59.744 50.3793C61.6024 53.2524 63.3139 56.2349 65.5462 58.8463C67.6609 61.3215 70.3097 63.3294 73.2682 64.6939C74.7394 65.3747 76.3281 65.9462 77.9542 66.3066C73.4337 66.4214 68.9399 66.2986 64.6143 64.6138C63.9681 64.3628 63.3326 64.0797 62.7132 63.7727C62.4088 63.6231 62.107 63.4629 61.808 63.2947C61.6104 63.1826 61.4128 63.0678 61.2179 62.9476C59.6318 61.5965 58.0431 60.2454 56.4571 58.8944C55.4798 57.8343 54.5933 56.6728 53.7709 55.4899C51.8404 52.713 50.3318 49.6797 48.8178 46.6625C48.8045 46.6385 48.7644 46.6598 48.7751 46.6839C51.7363 53.4019 54.9538 60.6139 61.5009 64.5684C66.6623 67.6871 73.0866 68.3493 79.1291 67.7538C75.8475 68.2371 72.5312 68.416 69.2042 68.1517C64.9214 67.8126 60.4409 66.8834 56.6066 64.8808C52.8898 62.9396 50.3638 59.9971 48.8018 56.1228C47.2692 52.3258 46.5829 48.1444 44.4709 44.5905C42.503 41.2849 39.0932 38.4812 35.0427 38.8684C35.0079 38.8711 34.9866 38.9298 35.032 38.9298C39.7554 38.8898 42.9729 42.7615 44.6978 46.748C46.2064 50.2351 46.8526 54.0214 48.3078 57.5299C49.8885 61.3375 52.5507 64.2773 56.2087 66.1865C59.8615 68.0956 63.9708 69.0595 68.0454 69.5134C70.7449 69.8152 73.4925 69.8766 76.2133 69.6523C74.8996 70.0234 73.5779 70.3599 72.2428 70.6429C68.51 71.4279 64.6463 71.775 60.8521 71.2597C54.11 70.3412 47.3279 66.2559 45.4561 59.3536C45.4561 59.3483 45.4455 59.3536 45.4481 59.3563C46.2999 64.0584 49.4907 67.9728 53.6134 70.2824C59.2927 73.4626 66.2644 73.3424 72.4618 72.0661C74.443 71.6576 76.3949 71.1289 78.3307 70.5441C80.2238 69.97 82.1837 69.4547 83.9246 68.5015C84.213 68.3439 84.229 67.9781 84.0742 67.7378V67.7405Z" fill="#ED6000"/>
<path d="M84.571 63.2415C87.0382 63.1107 91.0674 60.5127 96.1326 55.8373C101.198 51.1592 106.885 43.8858 111.966 39.8592C117.048 35.8327 126.922 30.8956 144.328 32.973C161.735 35.0503 174.079 44.9245 174.079 44.9245C174.079 44.9245 161.738 46.2248 157.839 59.733C153.941 73.2438 164.074 82.9871 168.231 85.5851C172.389 88.1832 175.897 88.7038 175.897 88.7038C175.897 88.7038 164.466 101.435 150.956 105.203C137.445 108.97 125.624 107.152 117.763 101.371C109.902 95.5901 105.876 87.796 103.15 84.9363C100.421 82.0793 97.174 82.9871 95.2916 83.5719C95.2916 83.5719 86.7178 81.4277 84.5737 74.8032C82.4296 68.1786 84.5737 63.2415 84.5737 63.2415H84.571Z" fill="url(#paint0_linear_191_2483)"/>
<path d="M193.696 63.7596C193.696 63.7596 194.65 61.6823 193.696 59.5168C192.743 57.3513 189.929 56.7879 188.284 57.9574C188.284 57.9574 181.788 49.4691 174.082 44.9219C174.082 44.9219 164.077 45.6508 158.969 56.633C153.861 67.6126 159.756 76.8406 161.465 78.9847C163.174 81.1288 167.761 87.1018 175.903 88.7039C175.903 88.7039 189.371 77.5321 192.703 72.0317C196.038 66.5312 195.17 64.2803 193.699 63.7596H193.696Z" fill="#FFD071"/>
<path d="M174.079 44.9243C174.079 44.9243 166.814 44.6893 160.01 54.6356C153.207 64.5818 158.576 79.4784 166.458 84.4155C174.341 89.3525 175.897 88.7037 175.897 88.7037C175.897 88.7037 183.828 82.1539 187.448 78.2128C191.069 74.2717 193.849 71.5775 194.714 67.7512C195.579 63.9249 193.696 63.762 193.696 63.762C193.696 63.762 191.229 62.8195 189.149 65.3534C187.072 67.8874 185.902 68.9261 183.336 68.1784C183.336 68.1784 185.059 69.38 187.168 68.6003C189.28 67.8206 190.351 65.7753 191.488 65.4496C192.626 65.1238 193.955 66.7152 191.488 70.1917C189.021 73.6655 180.049 81.3742 173.099 81.3101C166.149 81.246 159.692 74.1862 159.174 65.9702C158.654 57.7543 164.728 46.7427 174.082 44.9243H174.079Z" fill="#F49E21"/>
<path d="M188.281 57.9572C188.281 57.9572 191.549 56.8758 192.46 59.5699C193.37 62.2668 191.36 63.7754 191.36 63.7754C191.36 63.7754 193.034 63.4096 193.694 63.7594C193.694 63.7594 194.823 61.1506 193.429 59.0279C192.035 56.9051 188.81 57.3163 188.279 57.9545L188.281 57.9572Z" fill="#F49E21"/>
<path d="M84.5709 63.2417C84.5709 63.2417 82.7072 68.104 84.2558 73.7273C85.8045 79.3506 92.0392 83.054 95.2888 83.572C95.2888 83.572 98.5116 81.4626 102.421 84.2716C106.33 87.0806 108.3 94.1591 117.763 101.371C127.226 108.58 140.39 107.974 150.956 105.203C161.521 102.431 173.646 91.6919 175.897 88.704C175.897 88.704 165.591 100.789 142.726 102.736C119.862 104.682 111.98 86.5813 107.131 81.6469C102.282 76.7098 94.3089 82.026 89.1155 77.1504C83.9247 72.2747 83.8313 65.8851 84.5682 63.2444L84.5709 63.2417Z" fill="#E55110"/>
<path d="M86.9099 63.778C86.9099 63.778 94.3356 61.1639 101.796 52.3285C109.256 43.4957 118.481 35.8859 129.771 34.2704C141.06 32.655 153.036 35.6562 157.885 37.3892C162.733 39.1221 168.899 42.9323 169.15 43.3649C169.403 43.7975 157.885 55.6635 141.343 55.7489C124.802 55.8344 112.85 57.2202 102.37 62.8515C91.8897 68.4801 86.9099 63.778 86.9099 63.778Z" fill="url(#paint1_linear_191_2483)"/>
<path d="M187.654 58.2407C187.654 58.2407 177.651 47.133 173.817 45.7686C173.817 45.7686 168.49 47.0689 164.205 52.6548C159.917 58.2407 160.373 64.0189 161.217 67.2684C162.061 70.518 177.585 72.5045 183.107 65.6209C183.107 65.6209 188.498 66.8305 190.783 62.334C192.722 58.5211 188.821 58.1125 187.654 58.2407Z" fill="#FFE8A9"/>
<path d="M174.079 44.9245C174.079 44.9245 166.675 40.0542 163.556 42.4573C160.437 44.8604 163.556 48.0432 163.556 48.0432C163.556 48.0432 157.06 46.0299 155.631 49.1486C154.203 52.2673 158.034 54.8654 158.034 54.8654C158.034 54.8654 152.643 54.4622 151.669 58.0108C150.694 61.5594 155.957 62.857 155.957 62.857C155.957 62.857 151.017 63.4418 150.694 67.2094C150.371 70.9769 156.347 70.9128 156.347 70.9128C156.347 70.9128 151.994 73.1851 152.838 76.173C153.682 79.1608 159.009 78.3812 159.009 78.3812C159.009 78.3812 154.779 81.5639 156.926 84.8776C159.073 88.1912 164.01 84.8776 164.01 84.8776C164.01 84.8776 161.933 88.4502 163.946 90.6584C165.959 92.8666 170.57 88.1912 170.57 88.1912C170.57 88.1912 168.995 92.1003 170.984 93.5234C170.984 93.5234 173.622 91.633 175.897 88.7092C175.897 88.7092 169.697 87.7026 163.735 82.2288C157.775 76.7577 155.14 65.7461 158.341 57.7171C161.543 49.6907 169.465 45.058 174.076 44.9272L174.079 44.9245Z" fill="url(#paint2_linear_191_2483)"/>
<path d="M177.667 65.4961C180.174 64.2384 181.187 61.1865 179.93 58.6795C178.672 56.1724 175.62 55.1595 173.113 56.4172C170.606 57.6748 169.593 60.7267 170.851 63.2338C172.108 65.7408 175.16 66.7537 177.667 65.4961Z" fill="#E27113"/>
<path d="M179.269 61.5469C179.758 59.2402 178.285 56.9738 175.978 56.4848C173.671 55.9957 171.405 57.4692 170.916 59.7759C170.427 62.0827 171.9 64.3491 174.207 64.8381C176.514 65.3272 178.78 63.8537 179.269 61.5469Z" fill="black"/>
<path d="M176.196 59.4841C176.342 58.3669 175.555 57.3428 174.438 57.1965C173.321 57.0502 172.297 57.8372 172.15 58.9543C172.004 60.0714 172.791 61.0956 173.908 61.2419C175.025 61.3882 176.05 60.6012 176.196 59.4841Z" fill="white"/>
<path d="M176.88 64.179C177.405 64.179 177.83 63.7534 177.83 63.2284C177.83 62.7034 177.405 62.2778 176.88 62.2778C176.355 62.2778 175.929 62.7034 175.929 63.2284C175.929 63.7534 176.355 64.179 176.88 64.179Z" fill="white"/>
<path d="M171.171 43.3943C168.976 42.2275 166.186 40.855 163.724 42.0592C161.495 43.1487 161.067 46.0724 162.429 47.9095C159.967 47.3675 157.065 46.6839 155.548 49.1217C155.54 49.1057 155.53 49.0897 155.514 49.0763C155.369 48.9508 155.22 48.8414 155.068 48.7399C155.105 48.7586 155.137 48.7826 155.174 48.8013C155.524 48.9749 155.655 48.3981 155.372 48.2272C153.377 47.015 153.049 44.174 155.166 42.8656C157.081 41.6828 159.385 42.7962 161.166 43.6747C161.465 43.8215 161.642 43.3543 161.46 43.1567C160.015 41.5813 159.567 39.4826 160.146 37.3919C160.168 37.3144 160.058 37.2984 160.029 37.3625C159.27 39.0714 159.447 41.0126 160.349 42.5933C158.128 41.624 155.372 40.9965 153.778 43.3062C152.587 45.0311 153.068 47.4235 154.769 48.5637C152.339 47.2633 149.14 48.8147 148.197 51.3726C147.717 52.6757 147.808 54.1202 148.446 55.3538C148.729 55.8985 149.327 56.7823 150.013 57.2736C147.471 57.3484 145.113 59.594 144.724 62.0798C144.326 64.6004 146.024 67.3774 148.555 67.8153C146.529 69.121 145.426 71.986 146.128 74.2476C146.665 75.9725 148.691 77.4891 150.451 77.1287C149.8 77.9164 149.343 78.963 149.143 79.8415C148.857 81.1125 148.998 82.501 149.735 83.5984C150.448 84.6638 151.629 85.382 152.91 85.4888C153.388 85.5289 153.81 85.4888 154.192 85.3713C153.105 86.9307 153.311 89.1843 154.873 90.6155C156.667 92.2629 159.529 92.319 161.577 91.0934C161.34 91.5981 161.185 92.1535 161.118 92.5753C160.934 93.7529 161.27 95.0319 162.168 95.8436C164.365 97.8382 167.041 96.0145 168.883 94.5299C168.942 94.4818 168.899 94.3964 168.829 94.4364C167.206 95.3443 164.509 96.7167 162.734 95.3149C161.906 94.6634 161.671 93.5927 161.788 92.5834C161.879 91.801 162.32 91.1175 162.512 90.3832C162.662 90.2416 162.803 90.0921 162.934 89.9319C163.035 89.8091 162.961 89.4994 162.758 89.5955C160.862 90.4926 159.046 91.5607 156.875 90.8932C155.719 90.538 154.774 89.7183 154.323 88.5782C153.762 87.1577 154.344 85.8359 155.252 84.7679C155.428 84.613 155.594 84.4341 155.754 84.2339C155.781 84.2072 155.807 84.1805 155.834 84.1538C155.847 84.1404 155.85 84.1244 155.85 84.1084C155.925 84.0096 155.863 83.8574 155.73 83.9295C153.746 84.9682 150.95 84.8934 150.083 82.4636C149.695 81.3849 149.834 80.234 150.211 79.1713C150.528 78.2768 151.116 77.4972 151.498 76.64C151.645 76.5279 151.783 76.3971 151.92 76.2449C152.061 76.0847 151.925 75.6467 151.669 75.7749C149.324 76.9498 146.806 75.6948 146.699 72.9686C146.611 70.683 148.179 69.3906 149.546 67.8607C149.562 67.8607 149.578 67.8607 149.597 67.8607C150.064 67.8233 149.885 67.1317 149.487 67.1024C146.569 66.8834 144.681 64.288 145.607 61.4283C146.465 58.7849 148.91 58.064 151.372 57.6448C151.458 57.6314 151.49 57.4819 151.396 57.4525C151.362 57.4418 151.324 57.4338 151.289 57.4231C151.297 57.3484 151.279 57.271 151.231 57.2149C150.574 56.4619 149.666 56.1175 149.143 55.1802C148.521 54.0641 148.459 52.7584 148.945 51.5809C149.42 50.4274 150.342 49.5196 151.532 49.1271C152.854 48.6918 154.072 48.9802 155.343 49.4234C155.353 49.4288 155.364 49.4261 155.377 49.4261C154.229 51.6477 156.045 53.7357 157.997 54.6569C158.101 54.8865 156.902 54.8064 156.798 54.8118C156.432 54.8278 156.069 54.8625 155.708 54.9212C154.91 55.0521 154.101 55.2897 153.402 55.7089C152.464 56.2696 151.674 57.1668 151.399 58.2402C150.798 60.5819 152.766 61.9971 154.667 62.8435C152.486 63.746 149.994 65.2039 150.31 67.8633C150.454 69.0729 151.276 70.0876 152.293 70.707C153.402 71.3826 154.547 71.5081 155.754 71.4947C153.778 72.6108 151.471 74.4105 152.745 76.8456C153.882 79.0191 156.408 79.0565 158.536 78.5892C157.054 80.4049 155.415 82.7493 156.942 84.9842C158.603 87.4113 161.687 86.3219 163.764 85.0776C163.158 85.9241 162.907 87.2565 162.931 88.159C162.958 89.2297 163.404 90.3698 164.306 90.9973C165.286 91.6782 166.581 91.5954 167.601 91.0454C168.557 90.53 169.15 89.6756 169.745 88.8158C169.564 90.3992 169.644 92.3244 170.53 93.6167C170.701 93.865 170.966 93.5553 170.923 93.3497C170.733 92.4338 170.301 91.5927 170.154 90.6609C170.031 89.8678 170.026 89.0748 170.1 88.2764C170.116 88.1162 169.954 88.0548 169.852 88.175C168.736 89.5127 166.52 91.6221 164.659 90.3858C163.868 89.8625 163.564 88.8639 163.596 87.9534C163.633 86.8372 164.346 85.7852 164.338 84.6931C164.453 84.5036 164.317 84.1324 164.077 84.2472C162.28 85.107 159.596 86.5782 157.815 84.8961C155.604 82.808 157.919 79.7854 159.596 78.2822C159.804 78.0953 159.634 77.652 159.343 77.7027C157.505 78.0125 154.619 78.6106 153.468 76.5893C152.09 74.1675 155.113 72.269 156.843 71.4466C157.02 71.3639 157.014 70.9954 156.79 70.982C154.766 70.8833 151.605 70.4881 151.033 68.101C150.35 65.252 153.77 63.9009 155.855 63.2387C156.162 63.1399 156.058 62.6139 155.799 62.5204C153.77 61.7835 150.793 60.2428 152.347 57.6127C153.559 55.5594 156.104 55.3725 158.213 54.9559C158.24 54.9506 158.256 54.9106 158.237 54.8919C158.176 54.8278 158.114 54.761 158.053 54.6969C158.165 54.7477 158.274 54.7957 158.387 54.8385C158.44 54.8598 158.496 54.7877 158.456 54.7423C157.121 53.2978 154.731 51.4314 156.475 49.3514C158.181 47.3114 161.252 47.7733 163.382 48.8173C163.756 49.0016 163.973 48.5076 163.714 48.2433C162.752 47.2633 162.178 46.003 162.613 44.6332C162.961 43.5412 163.804 42.6547 164.883 42.2755C167.075 41.5039 169.179 42.5586 171.104 43.5438C171.182 43.5839 171.254 43.445 171.171 43.4023V43.3943Z" fill="#FFD071"/>
<path d="M161.887 96.7512C161.866 96.7565 161.847 96.7672 161.826 96.7752C161.815 96.7218 161.764 96.6871 161.706 96.7378C161.636 96.7965 161.564 96.866 161.489 96.9354C161.15 97.1437 160.872 97.4481 160.557 97.7124C160.082 98.1076 159.585 98.4894 159.057 98.8072C157.727 99.6028 156.176 99.9046 154.758 99.1382C152.499 97.9153 152.187 94.9381 153.783 93.2399C154.224 92.9622 154.646 92.6632 155.046 92.3641C155.329 92.1532 155.118 91.5631 154.761 91.758C154.659 91.8141 154.56 91.8728 154.464 91.9342C153.105 92.7486 151.679 93.6298 150.077 93.798C148.376 93.9742 146.892 93.1251 146.091 91.6352C144.646 88.9544 146.061 86.2282 147.813 84.1028C148.192 83.9479 148.528 83.7316 148.747 83.4246C148.849 83.283 148.79 83.0748 148.606 83.0694C147.759 83.0427 146.929 83.5153 146.077 83.6355C145.244 83.7557 144.382 83.7343 143.567 83.5047C141.984 83.0588 140.71 81.8919 140.353 80.2578C140.011 78.6984 140.467 77.0777 141.338 75.772C142.32 74.3007 143.682 73.5745 144.913 72.4103C144.924 72.3996 144.929 72.3889 144.937 72.3756C145.095 72.2875 145.255 72.1913 145.41 72.0765C145.458 72.0418 145.439 71.959 145.372 71.9804C145.204 72.0338 145.033 72.0792 144.865 72.1139C144.849 72.1112 144.83 72.1139 144.809 72.1192C144.788 72.1246 144.764 72.1326 144.742 72.1379C141.781 72.704 138.841 70.664 138.742 67.5133C138.633 63.9941 141.469 61.8526 144.451 60.7392C144.617 60.6778 144.646 60.4668 144.585 60.3253C144.563 60.2238 144.494 60.1411 144.363 60.1384C141.1 60.0743 139.204 56.8568 140.491 53.9197C141.762 51.0199 145.023 50.0106 147.957 50.4272C148.366 50.4859 148.416 49.8905 148.133 49.7062C146.318 48.5207 145.735 45.7972 147.22 44.1016C148.689 42.4221 150.819 42.7425 152.667 43.4421C152.75 43.4741 152.822 43.4154 152.838 43.3406C153.033 43.4501 153.289 43.2659 153.228 43.0122C152.931 41.7653 152.272 40.6572 152.05 39.3648C151.781 37.7814 152.077 36.4037 152.088 34.8496C152.088 34.8496 152.085 34.8496 152.082 34.8496C151.45 36.0565 151.407 37.7093 151.508 39.0444C151.602 40.2647 151.829 41.7466 152.475 42.852C150.801 41.282 147.631 42.083 146.395 43.8533C145.175 45.5969 145.511 48.0374 146.876 49.5727C143.845 49.5727 140.804 50.9932 139.754 53.949C139.73 53.8636 139.682 53.7835 139.602 53.7274C137.685 52.3737 134.35 50.4005 135.923 47.5594C137.423 44.8439 140.745 44.9774 143.474 45.5141C143.882 45.6743 144.328 45.7758 144.812 45.8105C145.372 45.8479 145.268 44.9934 144.801 44.892C144.563 44.8412 144.318 44.7905 144.067 44.7425C142.801 44.3526 141.829 43.3086 141.442 42.0056C140.969 40.4115 141.573 38.764 142.633 37.5491C144.972 34.871 148.667 34.9084 151.925 35.0632C151.992 35.0659 152.072 34.9538 151.984 34.9191C148.221 33.4612 143.359 34.2061 141.215 37.9363C141.215 37.939 141.212 37.9416 141.21 37.9443C141.178 37.931 141.143 37.9203 141.108 37.9149C138.182 37.445 135.688 35.2181 134.761 32.4172C134.727 32.3103 134.585 32.3905 134.601 32.4839C135.018 34.6307 136.243 36.417 137.944 37.5945C134.777 37.453 131.445 37.987 129.789 40.9295C128.994 42.342 128.831 44.1791 129.6 45.6396C129.992 46.3846 130.572 46.9453 131.239 47.3939C127.811 47.5835 124.593 49.5033 123.651 53.0786C123.646 52.9291 123.573 52.7875 123.424 52.7502C121.475 52.2775 119.384 51.5539 118.15 49.8718C117.045 48.3658 116.976 46.4567 118.166 44.9748C119.87 42.852 122.449 42.5583 124.981 42.8734C126.126 43.37 127.432 43.5409 128.671 43.6584C129.213 43.7091 129.143 42.8734 128.689 42.7639C127.747 42.5369 126.7 42.31 125.629 42.1551C124.903 41.8988 124.236 41.5223 123.707 40.9295C122.34 39.3915 123.125 37.2928 124.532 36.0939C125.808 35.0045 127.504 34.588 129.093 34.1901C130.93 33.7309 132.729 33.1915 134.521 32.5774C134.58 32.556 134.593 32.4492 134.513 32.4572C132.011 32.7269 129.448 33.05 127.031 33.7789C125.373 34.2809 123.779 35.122 122.85 36.6012C120.652 36.5478 118.516 37.0151 116.452 37.8055C114.474 38.5638 112.084 39.6051 110.749 41.33C109.646 42.7559 109.809 44.5689 110.901 45.952C111.545 46.7691 112.375 47.2764 113.288 47.6182C109.753 47.9039 106.087 49.0921 104.952 52.6914C104.891 52.6434 104.818 52.606 104.733 52.59C103.243 52.3069 102.22 51.2682 102.122 49.8344C102.122 49.8157 102.092 49.821 102.092 49.8344C101.967 50.9692 102.445 52.1467 103.297 52.8943C99.8894 53.8716 96.6025 56.1973 96.4129 59.9648C95.8041 60.0182 95.2301 60.1197 94.6159 60.0022C93.8736 59.8634 93.2675 59.5109 92.6214 59.1398C92.6107 59.1344 92.5973 59.1451 92.6027 59.1585C93.0005 59.7859 93.6761 60.2959 94.4317 60.6083C94.0312 60.7819 93.6387 60.9822 93.2568 61.1878C92.2342 61.7405 91.2703 62.424 90.4238 63.217C88.8672 64.6749 87.7457 66.6669 87.5481 68.811C87.1236 73.4062 91.5747 77.2673 96.0365 75.4596C96.0792 75.4436 96.1139 75.4195 96.1433 75.3928C97.4303 78.7145 100.728 80.2391 104.122 80.7224C102.987 81.4033 102.055 82.5007 101.977 83.5821C101.977 83.5874 101.983 83.5874 101.985 83.5848C102.722 82.9519 103.28 82.2364 104.172 81.7798C104.696 81.5128 105.254 81.3098 105.825 81.1736C106.218 81.0802 106.546 81.0829 106.853 80.936C106.853 81.3472 106.891 81.7584 106.96 82.1643C107.376 84.5674 108.893 86.6047 110.837 88.0172C111.972 88.8422 113.264 89.451 114.599 89.8783C115.141 90.0518 115.806 90.2788 116.482 90.431C115.624 91.0291 114.938 92.0864 114.69 92.8821C114.025 95.0076 115.016 97.2104 116.364 98.8365C119.379 102.473 124.326 104.244 128.919 103.346C129.034 103.72 129.194 104.081 129.397 104.412C130.572 106.51 132.967 107.178 135.338 107.202C135.434 107.202 135.528 107.02 135.405 106.994C133.346 106.553 130.735 105.547 129.896 103.429C129.429 102.249 129.659 101.037 130.054 99.8298C130.534 98.7244 131.287 97.7044 131.982 96.7645C131.99 96.7538 131.995 96.7431 132 96.7325C132.198 97.1864 132.436 97.627 132.721 98.0408C133.808 99.6215 135.442 100.807 137.269 101.384C138.598 101.803 140.489 102.043 142.061 101.667C141.746 102.054 141.482 102.465 141.282 102.844C140.604 104.129 140.462 105.405 140.836 106.812C140.857 106.895 140.977 106.863 140.991 106.791C141.175 105.624 141.65 104.273 142.23 103.234C142.796 102.222 143.631 101.48 144.342 100.596C144.424 100.674 144.51 100.754 144.601 100.828C145.776 101.806 147.29 102.262 148.806 102.206C149.645 102.174 150.673 101.99 151.634 101.645C151.199 102.559 150.841 103.782 151.375 104.7C151.45 104.826 151.618 104.772 151.685 104.676C151.96 104.286 151.976 103.918 152.053 103.459C152.16 102.823 152.379 102.201 152.667 101.624C152.793 101.376 152.982 101.13 153.172 100.879C153.548 100.623 153.874 100.332 154.122 100.001C154.245 99.8352 154.176 99.472 153.914 99.5147C153.874 99.5227 153.837 99.5308 153.797 99.5388C153.498 99.4533 153.198 99.5788 152.921 99.8058C152.024 100.161 151.161 100.698 150.227 100.941C148.854 101.298 147.383 101.296 146.091 100.668C144.918 100.099 143.957 99.0795 143.797 97.7471C143.605 96.1477 144.617 94.591 145.658 93.4055C145.746 93.3815 145.818 93.3094 145.869 93.2346C145.92 93.1598 145.968 93.0851 146.019 93.0103C146.043 92.9729 146.059 92.9329 146.069 92.8875C146.937 93.9315 148.165 94.6044 149.556 94.6418C150.659 94.6685 151.722 94.3374 152.715 93.8407C151.789 95.627 152.021 97.8833 153.842 99.3385C155.025 100.284 156.558 100.564 158.002 100.121C158.624 99.9286 159.337 99.5788 159.999 99.1276C159.708 99.8245 159.577 100.543 159.783 101.135C159.842 101.309 160.023 101.306 160.13 101.181C160.52 100.716 160.48 99.8592 160.651 99.2771C160.752 98.9326 160.88 98.6069 161.027 98.2865C161.468 97.8539 161.826 97.376 162.021 96.8847C162.055 96.7965 161.973 96.7218 161.89 96.7485L161.887 96.7512ZM139.202 54.3683C139.234 54.3843 139.266 54.4003 139.295 54.4136C139.421 54.4724 139.527 54.4564 139.608 54.4056C139.586 54.4831 139.565 54.5605 139.546 54.6406C138.993 57.025 140.395 59.9381 142.745 60.603C140.542 61.4227 138.78 63.2811 138.166 65.516C138.062 65.4306 137.933 65.3799 137.803 65.4066C134.155 66.1221 130.502 63.4867 130.719 59.6124C130.818 57.8608 131.669 56.2026 133.127 55.204C134.905 53.9838 137.063 54.0024 139.111 54.3923C139.143 54.3976 139.175 54.3923 139.202 54.3736V54.3683ZM122.596 83.793C122.543 83.7476 122.479 83.7129 122.404 83.7049C118.22 83.1789 114.749 80.2765 114.701 75.8147C114.655 71.4571 117.851 68.8617 121.541 67.3477C121.512 67.6334 121.496 67.9218 121.499 68.2182C121.525 71.9724 124.492 75.1926 128.145 75.2566C127.571 75.5717 127.026 75.9589 126.604 76.2499C125.525 76.9922 124.527 77.876 123.79 78.9655C122.818 80.4046 122.42 82.1109 122.594 83.793H122.596ZM118.636 67.5453C116.089 68.6668 114.292 71.4944 113.841 74.3061C109.411 74.2019 105 71.4998 104.736 66.6962C104.501 62.4294 108.161 59.5697 112.204 59.866C112.188 60.0316 112.177 60.1971 112.172 60.3627C112.079 64.2023 115.114 67.1315 118.634 67.5427L118.636 67.5453ZM125.443 78.629C126.129 77.8734 126.927 77.2406 127.736 76.6211C128.353 76.1485 129.143 75.6999 129.669 75.1018C129.771 75.0751 129.84 75.0163 129.883 74.9389C129.912 75.3047 129.966 75.6785 130.057 76.0577C130.513 77.9668 131.747 79.6543 133.504 80.5622C134.363 81.0054 135.309 81.2698 136.275 81.3419C136.622 81.3686 137.082 81.3872 137.546 81.3552C136.086 82.3378 135.148 83.9265 134.833 85.6675C134.238 86.4258 133.755 87.3176 133.253 88.1614C132.468 88.4925 131.752 88.9704 130.866 89.136C129.798 89.3335 128.673 89.2748 127.637 88.941C125.581 88.2762 124.142 86.5299 123.688 84.4419C123.218 82.2844 123.993 80.2284 125.448 78.629H125.443ZM129.859 74.4316C129.773 74.2794 129.621 74.1699 129.426 74.2073C125.451 74.9496 122.07 71.5372 122.46 67.6147C122.831 63.8846 126.089 61.396 129.648 61.0809C129.752 61.0756 129.859 61.0703 129.966 61.0596C130.556 64.0875 133.231 66.4105 136.299 66.5147C132.89 67.8684 129.854 70.7495 129.862 74.4342L129.859 74.4316ZM124.9 52.5873C126.436 49.0654 130.524 47.8371 134.056 48.7049C134.748 48.8758 134.86 47.8905 134.27 47.6796C132.868 47.1749 131.175 46.6035 130.436 45.1964C129.693 43.7839 130.174 41.9762 131.178 40.8254C133.549 38.1019 137.552 38.5024 140.782 38.9029C140.155 40.7987 140.579 43.0176 141.877 44.422C139.14 44.1711 136.289 44.5956 135.084 47.4206C134.083 49.7676 135.629 51.9571 137.544 53.3723C135.939 52.9825 134.126 53.3963 132.743 54.2855C130.927 55.455 129.886 57.535 129.843 59.6711C129.843 59.7833 129.843 59.8981 129.843 60.0102C129.822 60.0102 129.8 60.0049 129.776 60.0076C125.734 60.3734 123.389 56.0504 124.898 52.59L124.9 52.5873ZM123.338 53.4791C123.451 53.4791 123.533 53.4204 123.587 53.3349C123.587 53.3403 123.584 53.3456 123.581 53.3536C122.914 56.3068 124.479 59.3881 127.071 60.5763C124.428 61.5536 122.31 63.6923 121.688 66.4639C121.622 66.4399 121.547 66.4372 121.464 66.4639C117.253 67.8711 112.573 64.6376 112.845 60.109C112.97 58.0103 114.065 55.9677 115.886 54.8702C118.094 53.5432 120.829 53.4337 123.338 53.4764V53.4791ZM111.446 45.3299C109.777 43.1698 111.638 41.3968 113.438 40.286C116.284 38.5264 119.4 37.5865 122.644 36.9564C122.612 37.0151 122.58 37.0739 122.553 37.1353C121.843 38.6412 122.033 40.3715 123.168 41.6157C123.288 41.7466 123.413 41.8667 123.544 41.9815C120.871 41.9228 118.316 42.6411 116.997 45.3219C116.642 46.0428 116.503 46.8091 116.543 47.5674C114.749 47.231 112.629 46.8599 111.448 45.3326L111.446 45.3299ZM105.713 52.5419C107.486 48.4165 112.741 48.1308 116.559 48.3204C116.588 48.3204 116.615 48.3178 116.642 48.3097C116.789 49.004 117.082 49.6742 117.499 50.2776C118.353 51.5086 119.576 52.3016 120.925 52.8223C118.882 52.9424 116.855 53.2869 115.147 54.5071C113.667 55.5645 112.698 57.2093 112.335 58.9769C112.332 58.9769 112.327 58.9769 112.324 58.9769C110.535 58.798 108.637 58.9742 107.061 57.9275C105.302 56.758 104.912 54.4163 105.716 52.5472L105.713 52.5419ZM97.3902 59.9595C97.7427 56.216 101.492 54.3789 104.728 53.6313C104.485 55.2734 104.941 57.0357 106.204 58.1652C106.874 58.7633 107.718 59.1531 108.621 59.3881C107.67 59.6952 106.781 60.2265 106.047 60.9021C104.621 62.2104 103.897 64.0448 103.831 65.9406C103.809 65.9326 103.788 65.9272 103.764 65.9246C102.949 65.8231 102.154 65.9059 101.347 65.6789C100.656 65.484 99.9936 65.1609 99.4222 64.723C97.9776 63.6122 97.2193 61.7698 97.3902 59.9595ZM95.8335 74.4342C95.7534 74.4049 95.668 74.3969 95.5799 74.4236C93.5853 75.0137 91.4785 74.7573 89.9726 73.2167C88.5067 71.7161 88.2584 69.5613 88.8832 67.6254C89.4519 65.8605 90.6428 64.3919 92.1007 63.2758C92.8003 62.7391 93.5639 62.2798 94.3383 61.858C94.7441 61.6363 95.158 61.4361 95.5532 61.1984C95.676 61.1237 95.7935 61.0409 95.9056 60.9555C96.0818 60.9635 96.2554 60.9608 96.4236 60.9421C96.5838 62.643 97.3955 64.2717 98.7066 65.3799C99.2887 65.8712 100.122 66.3625 101.008 66.6669C97.6626 67.7776 94.9524 70.7228 95.8282 74.4342H95.8335ZM106.915 79.8946C106.463 79.9748 105.67 79.8573 105.422 79.8439C104.909 79.8172 104.399 79.7718 103.892 79.6971C102.859 79.5475 101.836 79.2859 100.88 78.8586C99.0857 78.0549 97.489 76.6585 96.8802 74.7413C96.2501 72.7601 96.8108 70.7735 98.3461 69.3877C99.8254 68.0527 101.721 67.7082 103.449 66.8805C103.582 66.8457 103.716 66.8057 103.841 66.7523C103.847 66.8351 103.849 66.9152 103.857 66.9979C104.22 70.9711 107.254 73.9109 110.906 74.9229C110.225 75.1498 109.606 75.4756 109.232 75.7613C107.9 76.7706 107.139 78.2846 106.917 79.8946H106.915ZM115.512 89.0745C114.356 88.7434 113.221 88.3136 112.185 87.6968C110.402 86.6367 108.834 85.04 108.202 83.0267C107.566 81.0001 107.894 78.5623 109.473 77.0456C110.129 76.4155 110.962 75.9669 111.833 75.7052C112.45 75.5183 113.128 75.5877 113.737 75.4436C113.729 75.6892 113.731 75.9322 113.747 76.1698C114.03 80.3753 117.36 84.1401 121.576 84.6261C120.359 85.2135 119.453 86.7142 119.069 87.8757C118.845 88.5512 118.743 89.2615 118.749 89.9717C118.743 89.969 118.741 89.9637 118.733 89.9584C117.777 89.4163 116.562 89.3736 115.512 89.0719V89.0745ZM129.317 98.1877C129.082 98.8632 128.956 99.5681 128.954 100.276C128.721 101.069 128.631 101.896 128.77 102.754C128.783 102.836 128.804 102.916 128.823 102.997C125.018 103.047 121.021 101.867 118.172 99.3011C116.741 98.0115 115.36 96.1824 115.502 94.1531C115.566 93.2399 115.98 92.3588 116.607 91.6966C117.187 91.0878 117.907 90.9329 118.575 90.487C118.58 90.4817 118.586 90.4764 118.591 90.471C118.615 90.463 118.639 90.4577 118.663 90.4497C118.703 90.4363 118.735 90.4069 118.765 90.3749C118.842 91.5417 119.21 92.6926 119.833 93.6778C121.963 97.0609 126.139 97.7017 129.824 97.0903C129.611 97.4587 129.44 97.8406 129.32 98.185L129.317 98.1877ZM131.536 95.3146C131.485 95.328 131.432 95.36 131.376 95.4134C131.349 95.4401 131.325 95.4668 131.298 95.4935C131.298 95.4935 131.293 95.4989 131.293 95.5015C131.242 95.5523 131.194 95.6057 131.146 95.6591C131.052 95.7125 130.959 95.7739 130.871 95.8406C127.48 96.6123 123.424 96.6337 120.989 93.7339C119.712 92.2146 119.32 90.1052 119.897 88.2121C120.348 86.7355 121.371 85.8277 122.273 84.6768C122.316 84.6768 122.359 84.6822 122.404 84.6822C122.548 84.6822 122.647 84.6154 122.706 84.514C122.788 84.9198 122.903 85.3203 123.053 85.7129C123.894 87.9077 125.691 89.5712 127.987 90.1266C129.109 90.3989 130.305 90.4096 131.432 90.1479C131.749 90.0732 132.115 89.977 132.478 89.8462C131.402 91.4056 131.114 93.4135 131.536 95.312V95.3146ZM144.003 100.252C143.989 100.254 143.976 100.257 143.96 100.262C143.92 100.204 143.864 100.164 143.778 100.166C142.732 100.212 141.709 100.572 140.654 100.639C139.776 100.695 138.9 100.647 138.04 100.447C136.323 100.049 134.793 99.0768 133.741 97.6617C131.616 94.7993 132.201 90.7701 134.847 88.431C134.911 88.7461 134.994 89.0585 135.098 89.3656C135.784 91.3548 137.261 93.0183 139.207 93.8434C140.454 94.3694 142.401 94.7032 143.933 94.292C142.737 96.1664 142.435 98.4627 144 100.252H144.003ZM145.586 92.4282C145.452 92.5377 145.324 92.6552 145.199 92.7727C145.124 92.7353 145.039 92.7166 144.953 92.7326C144.029 92.8902 143.218 93.28 142.256 93.32C141.453 93.3521 140.641 93.248 139.877 92.9943C138.158 92.4256 136.815 91.1305 136.123 89.4644C134.724 86.0974 136.625 82.5648 139.538 80.7357C139.632 80.677 139.637 80.4981 139.511 80.5088C139.517 80.3726 139.49 80.2231 139.482 80.1003C139.482 80.0896 139.477 80.0816 139.474 80.0736C139.471 80.0602 139.469 80.0495 139.463 80.0362C139.455 80.0201 139.447 80.0068 139.434 79.9935C139.426 79.9854 139.421 79.9774 139.413 79.9694C139.399 79.9587 139.386 79.9534 139.373 79.9481C139.365 79.9427 139.357 79.9374 139.346 79.9347C139.341 79.9347 139.338 79.9347 139.333 79.9347C139.333 79.9347 139.33 79.9347 139.327 79.9347C139.3 79.932 139.274 79.9347 139.247 79.9454C139.247 79.9454 139.242 79.9481 139.239 79.9481C139.18 79.9721 139.132 80.0255 139.111 80.0842C138.39 79.9694 137.642 80.3459 136.897 80.3673C135.939 80.3966 134.97 80.2124 134.096 79.8119C132.283 78.9815 131.066 77.2619 130.801 75.294C130.206 70.8616 134.243 68.8243 137.362 66.7016C137.487 66.7817 137.645 66.787 137.797 66.6482C137.861 66.5894 137.923 66.528 137.987 66.4693C137.923 67.006 137.923 67.556 138.003 68.1141C138.366 70.7148 140.681 72.979 143.145 72.8936C142.091 73.5851 141.167 74.5891 140.55 75.5557C139.621 77.0163 139.255 78.8586 139.68 80.5488C140.12 82.2951 141.455 83.6195 143.137 84.2069C144.045 84.5247 145.033 84.6128 145.986 84.506C146.229 84.4793 146.499 84.4445 146.774 84.3938C144.764 86.5166 143.997 89.7821 145.685 92.3748C145.653 92.3882 145.621 92.4042 145.589 92.4336L145.586 92.4282Z" fill="#FFD071"/>
<path d="M158.966 56.633C158.966 56.633 156.4 61.2337 157.174 68.9904C157.949 76.7471 164.782 87.0164 175.897 88.7012C175.897 88.7012 184.767 80.8351 188.492 77.0782C192.214 73.324 197.549 65.7355 193.696 63.7569C193.696 63.7569 191.814 62.9986 190.482 64.1735C189.149 65.3483 187.673 67.0145 187.673 67.0145C187.673 67.0145 190.116 64.6541 191.667 64.3791C193.218 64.104 194.404 64.4699 193.857 67.3002C193.309 70.1279 191.894 72.547 186.556 77.6576C181.219 82.7682 176.746 85.5452 171.911 85.182C167.075 84.8189 158.496 74.3707 157.676 68.4857C156.857 62.6008 158.229 58.3152 158.966 56.6304V56.633Z" fill="#E07000"/>
<path d="M173.919 45.7681C173.919 45.7681 177.061 47.3087 181.579 51.9334C186.1 56.5554 187.654 58.2402 187.654 58.2402C187.654 58.2402 190.468 58.064 191.205 59.6848C191.205 59.6848 190.503 59.8557 188.281 59.8076C186.409 59.7649 181.827 58.3844 176.88 54.211C171.932 50.0376 171.067 47.0017 173.919 45.7707V45.7681Z" fill="#FFF4C5"/>
<defs>
<linearGradient id="paint0_linear_191_2483" x1="129.758" y1="32.4817" x2="129.758" y2="107.176" gradientUnits="userSpaceOnUse">
<stop offset="0.09" stop-color="#FBB03B"/>
<stop offset="0.32" stop-color="#FCA03B"/>
<stop offset="0.66" stop-color="#FF813B"/>
<stop offset="0.96" stop-color="#F15A24"/>
</linearGradient>
<linearGradient id="paint1_linear_191_2483" x1="128.033" y1="33.8085" x2="128.033" y2="65.6177" gradientUnits="userSpaceOnUse">
<stop offset="0.01" stop-color="#FFD371"/>
<stop offset="0.19" stop-color="#FECD68"/>
<stop offset="0.48" stop-color="#FCBE51"/>
<stop offset="0.7" stop-color="#FBB03B"/>
</linearGradient>
<linearGradient id="paint2_linear_191_2483" x1="150.681" y1="67.6526" x2="175.897" y2="67.6526" gradientUnits="userSpaceOnUse">
<stop stop-color="#FBB03B"/>
<stop offset="0.26" stop-color="#FCA03B"/>
<stop offset="0.66" stop-color="#FF813B"/>
<stop offset="0.96" stop-color="#F15A24"/>
</linearGradient>
</defs>
</svg>
