<svg width="114" height="154" viewBox="0 0 114 154" fill="none" xmlns="http://www.w3.org/2000/svg">
<path d="M32.5106 0.0174374C34.4524 -0.0531299 36.3066 0.0807082 38.1876 0.599013C42.5944 1.80839 45.9378 4.56295 48.1619 8.54148C51.8752 15.187 51.1063 22.1196 48.78 29.0036C48.0476 31.1717 47.1229 33.2717 46.495 35.4739C44.0106 44.212 43.5726 56.4956 48.106 64.6352C56.8709 59.8731 67.4584 61.8441 76.5129 64.5646C80.1241 65.6499 83.8617 67.0807 87.6261 67.4822C93.1084 68.0638 98.0092 65.4017 101.275 61.0752C101.983 60.1384 102.706 58.4301 103.601 57.7658C103.847 57.5833 104.156 57.4641 104.462 57.5201C104.764 57.5736 105.032 57.868 105.185 58.1138C105.531 58.6662 105.669 59.384 105.811 60.0118C106.426 62.7664 106.392 65.4966 105.815 68.2536C106.504 67.7037 107.168 67.1245 107.808 66.5162C108.482 65.8689 109.809 64.2021 110.565 63.8784C110.799 63.7787 111.101 63.8298 111.317 63.9441C111.758 64.1753 111.95 64.645 112.101 65.0951C113.077 68.0249 111.539 71.8696 110.261 74.483C110.887 74.2518 111.505 73.9988 112.183 74.1691C112.566 74.264 112.86 74.5073 113.042 74.8553C113.522 75.7654 113.266 77.1986 112.994 78.1501C112.154 81.0677 110.225 83.1238 107.621 84.5741C107.633 85.1654 107.631 85.7543 107.609 86.3456C107.589 86.9369 107.553 87.5258 107.502 88.1147C107.451 88.7035 107.383 89.29 107.297 89.874C107.215 90.458 107.115 91.042 106.998 91.6211C106.881 92.2003 106.752 92.777 106.604 93.3488C106.458 93.9207 106.295 94.4876 106.117 95.0522C105.939 95.6167 105.745 96.1739 105.538 96.7263C105.329 97.2787 105.107 97.8262 104.869 98.3664C100.523 108.005 92.5585 115.035 82.8981 119.152C81.387 119.797 79.8345 120.4 78.2698 120.904C77.148 121.264 75.9849 121.539 74.885 121.963L74.7706 122.006C74.391 122.958 74.0309 123.746 73.3715 124.544C73.5564 125.91 75.3011 132.565 75.9119 133.584C76.7758 135.03 79.0996 135.485 79.36 137.349C79.4232 137.801 79.2942 138.213 79.0898 138.614C78.1384 140.476 76.6419 142.152 75.4131 143.839C73.9701 145.817 72.6244 148.146 70.8481 149.834C69.8845 150.752 68.882 150.92 67.8186 151.574C66.945 152.112 66.3634 152.937 65.7478 153.737C65.6894 152.917 65.5872 152.102 65.064 151.433C63.9763 150.039 60.8908 149.98 59.2799 149.593C58.2141 149.34 57.1921 148.919 56.0971 148.8C54.3767 148.613 54.4083 149.924 53.4715 150.686C53.4423 150.645 53.4058 150.606 53.3815 150.559C52.8851 149.535 55.1651 147.433 55.406 146.415C55.6421 145.413 55.4206 144.019 54.8658 143.155C54.5981 142.739 54.2307 142.444 53.7367 142.361C52.7147 142.189 51.9092 142.992 51.1598 143.559L51.1841 143.471L51.2255 143.325C51.3836 142.741 51.5954 142.269 51.9579 141.785C52.5079 141.047 53.2525 140.519 54.0944 140.164C56.4548 139.166 61.9079 138.809 64.7257 138.395C66.2052 138.179 71.8092 137.093 72.5928 136.042L72.5466 135.811C70.87 132.65 69.6655 129.107 68.4561 125.742C67.1834 125.27 66.1225 124.654 65.373 123.491C63.9155 123.535 62.4579 123.6 61.0003 123.537C58.1849 123.415 55.372 122.931 52.6052 122.415C52.1672 123.072 51.6927 123.644 51.1379 124.209C50.9773 126.727 50.1962 132.667 50.6877 134.825C50.9311 135.889 52.34 136.315 52.3522 137.539C52.357 138.113 52.0333 138.648 51.6464 139.047C50.4663 140.264 48.741 141.038 47.3516 141.994C44.7966 143.751 41.4458 146.605 38.6402 147.703C37.6011 148.109 36.6497 148.082 35.562 148.131C34.377 148.182 33.6543 148.783 32.8877 149.613C32.9802 148.71 33.2357 147.795 33.3987 146.9C32.1163 145.418 28.5734 143.323 26.634 142.909C25.41 142.649 24.5072 143.398 23.5534 144.04C24.4951 141.206 26.0646 141.999 26.9942 140.714C27.6512 139.806 27.6098 138.198 27.4249 137.13C27.3129 136.49 27.0647 135.816 26.4977 135.448C25.7507 134.964 24.7555 135.312 23.9598 135.485C24.2201 135.156 24.4926 134.828 24.8187 134.56C25.2591 134.2 25.7385 133.981 26.2909 133.857C28.8094 133.287 31.7173 133.818 34.2455 134.154C37.1801 134.543 40.144 135.074 43.0908 135.331C43.8184 135.395 45.6702 135.516 46.2055 134.911C46.9769 134.037 46.7189 125.352 46.478 123.668C45.2078 122.68 44.7138 121.542 44.2369 120.04C38.3117 118.415 30.4811 113.585 25.8724 109.509C12.8612 97.9941 10.552 84.343 17.6282 68.733C19.3048 65.0318 21.4607 61.6179 23.4439 58.0822C27.0233 51.6971 29.7463 44.5551 29.9993 37.1626C30.048 35.7245 29.9434 34.2864 29.8582 32.8483C28.8021 33.2473 27.7899 33.7535 26.7386 34.1623C25.4027 34.666 24.04 35.0675 22.6433 35.3668C19.7817 38.3136 16.375 40.7713 12.2407 41.4916C10.4619 41.8006 8.30354 41.7787 6.78513 40.6642C5.68768 39.8588 5.03068 38.591 4.83844 37.2624C3.53173 36.9144 2.13496 36.5883 1.04238 35.7464C0.482712 35.3157 0.0739087 34.7414 0.00820807 34.0236C-0.00639207 33.8703 -0.0015111 33.717 0.0228225 33.5661C0.280758 31.9869 2.41967 31.325 3.72638 30.9186C10.2283 28.8965 13.034 26.2806 17.3873 21.3458C16.7303 20.2484 16.5697 18.9295 16.4723 17.6763C16.1998 14.1528 16.8714 10.3373 19.2366 7.59491C20.0518 6.65077 21.0129 5.87939 22.1566 5.37326C22.7139 5.12749 23.31 4.92552 23.8211 4.59458C24.4489 4.18578 24.9015 3.47524 25.4514 2.9618C27.381 1.15868 29.9142 0.204808 32.5203 0.0198731L32.5106 0.0174374Z" fill="#030303"/>
<path d="M44.8306 120.254C45.0764 120.335 45.3149 120.437 45.5558 120.532C45.8867 121.162 46.3953 121.86 47.062 122.162C47.0766 122.169 47.0912 122.167 47.1058 122.169L47.5754 122.457C47.7725 122.629 48.0183 122.785 48.0743 123.053C48.0037 123.281 47.8991 123.435 47.7628 123.625L47.6265 123.564C46.1397 122.875 45.3805 121.746 44.833 120.252L44.8306 120.254Z" fill="#D1D8DB"/>
<path d="M47.573 122.459C48.1108 122.5 48.5829 122.775 49.0987 122.812C49.9017 122.868 50.8751 122.345 51.6124 122.819C50.9943 123.486 50.3179 123.88 49.3859 123.926C48.7995 123.956 48.303 123.819 47.7579 123.627C47.8942 123.437 47.9989 123.284 48.0694 123.055C48.0135 122.788 47.7677 122.632 47.5706 122.459H47.573Z" fill="#B8BABC"/>
<path d="M21.6092 10.8751L21.8769 10.9116C22.1835 11.1014 22.3319 11.4129 22.4049 11.7584C22.4584 12.0139 22.3952 12.1575 22.2516 12.3643C21.9474 12.3643 21.6432 12.3789 21.3512 12.469C20.9327 12.6004 20.5993 12.8997 20.4095 13.2939C19.9886 14.1748 20.1735 15.4742 20.4825 16.3721C20.5531 16.5132 20.5896 16.5181 20.5482 16.6762C20.3876 16.6178 20.3316 16.5059 20.2611 16.3575C19.7087 15.2138 19.6893 13.6857 20.1248 12.4982C20.4168 11.7049 20.8402 11.2207 21.6067 10.8751H21.6092Z" fill="#FCFCFC"/>
<path d="M45.5534 120.529C46.5389 120.86 47.5244 121.189 48.5294 121.464C49.1232 121.627 49.8045 121.731 50.3739 121.95C50.9262 122.045 51.4689 122.16 52.0139 122.294L51.6125 122.819C50.8752 122.342 49.9018 122.868 49.0988 122.812C48.5829 122.775 48.1108 122.5 47.5731 122.459L47.1035 122.172C47.0889 122.17 47.0718 122.172 47.0597 122.165C46.3929 121.863 45.8844 121.165 45.5534 120.534V120.529Z" fill="#B8BABC"/>
<path d="M50.3739 121.95C50.9262 122.045 51.4689 122.16 52.0139 122.294L51.6125 122.819C50.8752 122.342 49.9018 122.868 49.0988 122.812C48.5829 122.775 48.1108 122.5 47.5731 122.459L47.1035 122.172C47.6266 122.006 49.2862 122.778 50.2011 122.371C50.3812 122.291 50.2766 122.315 50.481 122.284C50.6027 122.264 50.7024 122.245 50.8216 122.208L50.8046 122.143C50.6805 122.111 50.5929 122.079 50.4785 122.016C50.4445 121.997 50.4104 121.975 50.3763 121.955L50.3739 121.95Z" fill="#9C9A9B"/>
<path d="M5.57584 37.3451C6.33018 37.4862 7.08691 37.5933 7.84612 37.6979C7.86802 37.749 7.88992 37.8001 7.91426 37.8488C8.24519 38.5472 9.34506 38.5034 9.24043 39.4597C9.08226 39.7006 8.91923 39.7784 8.64426 39.8393C8.09676 39.9585 7.42276 39.8928 6.86066 39.888C6.14038 39.1068 5.82647 38.3647 5.57827 37.3451H5.57584Z" fill="#FE8F49"/>
<path d="M65.8815 123.384C67.6335 123.282 69.3539 123.021 71.084 122.736C71.1643 122.822 71.2179 122.834 71.2057 122.963C71.1619 123.44 70.6047 123.875 70.2396 124.133C69.9647 124.328 69.6702 124.488 69.3734 124.649V124.737C69.5729 124.846 69.7773 124.939 69.933 125.109L69.9087 125.223L69.6337 125.352C69.5997 125.35 69.5656 125.345 69.5291 125.343C68.1421 125.189 66.755 124.471 65.8815 123.384Z" fill="#D1D8DB"/>
<path d="M71.0842 122.737L74.2767 121.985C73.7876 123.333 73.0869 124.308 71.7583 124.946C71.1159 125.253 70.3494 125.43 69.6339 125.352L69.9089 125.223L69.9332 125.109C69.7775 124.939 69.5707 124.846 69.3711 124.737V124.649C69.6704 124.491 69.9649 124.328 70.2398 124.133C70.6049 123.875 71.1621 123.44 71.2059 122.963C71.2181 122.834 71.1645 122.822 71.0842 122.737Z" fill="#B8BABC"/>
<path d="M35.0485 26.1346L35.1118 26.1857C35.085 26.3585 35.1094 26.3123 35.0315 26.4461C31.9777 31.7922 28.3471 33.167 22.7649 34.812L22.7285 34.7341C23.2638 34.3667 23.8673 34.082 24.4221 33.7437C25.1496 33.3009 25.848 32.7947 26.5415 32.3032C28.0599 31.2252 29.5078 30.0742 30.9557 28.9062C31.9777 28.0813 33.0167 27.1567 34.1506 26.4875C34.4426 26.3147 34.72 26.2149 35.0485 26.1322V26.1346Z" fill="#F26D13"/>
<path d="M101.289 84.1604L101.635 84.2091C101.742 84.3916 101.771 84.4329 101.725 84.6544C101.637 85.0778 101.258 85.5499 101.005 85.8978C100.812 86.1631 100.611 86.421 100.404 86.6741C100.197 86.9271 99.9803 87.1753 99.7589 87.4162C99.5374 87.6571 99.3087 87.8907 99.0726 88.1195C98.8366 88.3458 98.5957 88.5672 98.3451 88.7813C98.0969 88.9955 97.8413 89.1999 97.581 89.3994C97.3206 89.5989 97.0529 89.7888 96.7828 89.9713C96.5103 90.1538 96.2329 90.329 95.9531 90.4969C95.6708 90.6648 95.3837 90.8229 95.0941 90.9714C93.4735 91.7914 91.4295 92.6674 89.5874 92.7088C88.5727 92.7307 87.5288 92.5847 86.5189 92.4971C85.9009 92.4435 85.0662 92.2635 84.4701 92.4046C84.3046 92.4484 84.2146 92.4168 84.0515 92.3681L84.0613 92.3097C84.4725 92.1467 85.1125 92.1783 85.5651 92.1053C86.0347 92.0299 86.5068 91.9033 86.9691 91.7938C89.5826 91.1879 92.0378 90.2292 94.4152 88.9882C96.0504 88.1341 97.6759 87.1437 99.1213 85.9976C99.7637 85.489 100.445 84.613 101.148 84.2383C101.197 84.2115 101.246 84.1896 101.294 84.1628L101.289 84.1604Z" fill="#D1D8DB"/>
<path d="M9.07984 37.8245C13.7786 37.9705 17.7304 37.2892 21.9377 35.104C19.0931 38.17 14.9004 40.8224 10.6129 41.0049C9.79525 41.039 8.99221 40.9538 8.20624 40.7153C7.7001 40.4939 7.27918 40.2457 6.85577 39.888C7.41788 39.8928 8.09188 39.9585 8.63938 39.8393C8.91435 39.7785 9.07744 39.7006 9.2356 39.4597C9.34267 38.501 8.24031 38.5472 7.90938 37.8488C7.88504 37.8002 7.86557 37.7491 7.84124 37.698C8.24761 37.7393 8.67346 37.7588 9.07496 37.8245H9.07984Z" fill="#CD3F18"/>
<path d="M7.84599 37.698C8.25236 37.7394 8.67822 37.7588 9.07972 37.8245C9.09189 37.8659 9.10165 37.9097 9.11625 37.9511C9.21359 38.2285 9.38877 38.3501 9.64671 38.4621C10.1042 38.6616 10.8244 38.7273 11.0142 39.2602C11.0994 39.4987 11.0386 39.8564 10.8853 40.051C10.2915 40.8103 8.96533 40.3455 8.20856 40.7178C7.70242 40.4964 7.2815 40.2482 6.85809 39.8905C7.4202 39.8953 8.0942 39.961 8.6417 39.8418C8.91667 39.781 9.07975 39.7031 9.23792 39.4622C9.34499 38.5034 8.24263 38.5497 7.9117 37.8513C7.88736 37.8026 7.86789 37.7515 7.84355 37.7004L7.84599 37.698Z" fill="#F26D13"/>
<path d="M112.344 74.9794C112.806 75.7434 112.75 76.5197 112.541 77.3592C111.869 80.0748 109.979 82.4303 107.589 83.8416C105.888 84.8466 103.786 85.6204 101.825 85.8686C102.039 85.3844 102.55 84.5278 102.348 84.0047C102.272 83.81 102.119 83.7078 101.927 83.6421C101.812 83.6032 101.683 83.5886 101.564 83.5667C102.102 83.2187 102.973 83.1287 103.589 82.8975C105.219 82.2916 106.935 81.4302 108.341 80.396C109.448 79.5833 111.417 77.3081 112.028 76.0817C112.208 75.7191 112.281 75.3711 112.344 74.9745V74.9794Z" fill="#D1D8DB"/>
<path d="M59.0948 97.7507C60.2725 97.9892 61.4259 98.5537 62.5525 98.9698C63.7498 99.4127 64.9738 99.7874 66.171 100.228C69.692 101.525 72.3152 102.535 76.1891 102.221C76.739 102.177 77.7927 102.196 78.2647 101.917C78.384 101.846 78.3718 101.844 78.4764 101.737C79.0604 102.043 79.5885 102.433 80.0922 102.853C78.2477 103.956 76.0869 104.155 73.9771 104.172C68.013 104.226 63.2728 101.849 59.0948 97.7507Z" fill="#D1D8DB"/>
<path d="M92.9893 93.6067C93.8069 93.7478 94.6245 93.8792 95.4202 94.1177C94.6902 94.9426 93.763 95.5728 92.8262 96.1422C89.0667 98.4247 84.6307 99.4029 80.2798 99.6657C78.9318 99.746 76.7368 99.9286 75.4934 99.4808C74.778 99.2253 74.082 98.763 73.4226 98.3907C72.8775 98.0816 72.167 97.5706 71.5611 97.4344C71.3616 97.3711 71.3567 97.3906 71.2618 97.2081L71.0793 97.2592L71.235 97.3078C71.2107 97.2591 71.184 97.2129 71.1669 97.1643C72.1598 96.9185 73.6149 97.3322 74.649 97.4222C80.2628 97.9016 88.5168 97.3662 92.9893 93.6067Z" fill="#D1D8DB"/>
<path d="M41.3972 85.4647C41.9496 85.7981 42.4411 87.3846 42.7647 88.0051C43.5531 89.5187 44.4535 91.0639 45.495 92.4168C48.7825 96.6874 54.5349 100.603 59.7058 102.114C60.7546 102.42 62.1562 102.798 63.2488 102.506C63.4483 102.452 63.5651 102.355 63.7135 102.218C64.5019 102.785 65.3025 103.343 66.0617 103.948C65.6918 104.141 65.339 104.296 64.9302 104.391C60.9784 105.306 55.6494 103.007 52.3303 100.904C52.1575 100.797 51.9872 100.688 51.8193 100.576C51.6514 100.464 51.4835 100.352 51.3156 100.235C51.1501 100.121 50.9846 100.002 50.8216 99.8824C50.6586 99.7631 50.4955 99.6415 50.3374 99.5174C50.1768 99.3933 50.0186 99.2692 49.8604 99.1402C49.7023 99.0137 49.5465 98.8823 49.3932 98.7509C49.2399 98.6195 49.0866 98.4856 48.9357 98.3518C48.7849 98.2155 48.6364 98.0792 48.488 97.9405C48.342 97.8018 48.196 97.6607 48.0524 97.5196C47.9088 97.376 47.7677 97.2324 47.6266 97.0864C47.4854 96.9404 47.3492 96.792 47.2105 96.6436C47.0718 96.4951 46.9404 96.3443 46.8066 96.191C46.6727 96.0377 46.5437 95.8844 46.4148 95.7286C46.2858 95.5729 46.1593 95.4147 46.0352 95.2565C45.9111 95.0984 45.787 94.9378 45.6653 94.7747C45.5437 94.6117 45.4244 94.4487 45.3076 94.2832C45.1908 94.1177 45.0764 93.9523 44.9621 93.7844C44.8477 93.6165 44.7382 93.4461 44.6312 93.2758C44.5216 93.1055 44.417 92.9327 44.3124 92.7599C44.2077 92.5872 44.1055 92.412 44.0058 92.2368C43.906 92.0616 43.8087 91.8839 43.7113 91.7063C43.6164 91.5287 43.5215 91.3486 43.4315 91.1685C43.3414 90.9884 43.2514 90.8059 43.1638 90.6234C43.0762 90.4409 42.9935 90.256 42.9108 90.0711C42.828 89.8861 42.7477 89.7012 42.6723 89.5138C42.5944 89.3265 42.519 89.1391 42.446 88.9493C42.373 88.7595 42.3024 88.5697 42.2343 88.3799C42.1661 88.1901 42.1004 87.9978 42.0372 87.8056C41.9739 87.6134 41.9131 87.4211 41.8547 87.2265C41.7963 87.0318 41.7403 86.8396 41.6868 86.6425C41.6332 86.4478 41.5822 86.2507 41.5335 86.056C41.4848 85.8589 41.4386 85.6618 41.3948 85.4647H41.3972Z" fill="#D1D8DB"/>
<path d="M47.0961 124.639C47.0499 124.401 47.0231 124.211 47.0499 123.965C47.2373 123.96 47.2835 123.99 47.4538 124.06C48.4637 124.486 49.3129 124.586 50.3909 124.381C50.3228 126.639 49.0039 134.465 50.313 135.923C50.7851 136.448 51.5662 136.95 51.5467 137.738C51.5394 138.076 51.2304 138.32 50.9944 138.536C49.8069 139.619 48.2544 140.434 46.9209 141.339C44.9572 142.668 40.2609 146.157 38.1341 146.897C36.7812 147.367 35.3722 147.184 34.0339 147.634C34.0777 147.221 34.0899 146.853 34.0582 146.437C34.7882 146.289 35.4549 146.14 36.1509 145.863C39.1123 144.685 45.1008 141.072 47.3054 138.821C47.7726 138.342 48.3249 137.682 48.4855 137.023C48.6413 136.388 48.4394 135.679 48.4077 135.035C48.3761 134.407 48.381 133.767 48.4077 133.139C48.5124 130.62 49.0233 128.18 48.9868 125.639C48.3566 125.313 47.7483 124.917 47.0961 124.639Z" fill="#F26D13"/>
<path d="M43.5603 28.9233C43.8085 28.2663 44.6116 27.6409 45.0058 27.0179C44.597 28.5656 43.7745 29.8333 42.8376 31.1182C41.8472 32.476 40.6817 33.7121 39.5599 34.9629C37.6886 37.0531 35.7931 39.1239 34.0362 41.3139C33.2843 42.2702 32.5494 43.2411 31.834 44.2266C31.1575 45.1708 29.5199 47.9594 28.712 48.4972C28.6876 48.5118 28.6634 48.5264 28.639 48.5385C30.1769 43.3944 31.2573 37.9899 30.1671 32.6463C30.6538 32.4103 31.104 32.128 31.5615 31.8433C33.4668 32.6463 35.4329 33.0308 37.4867 32.639C39.5842 32.2375 42.3436 30.6972 43.5628 28.9208L43.5603 28.9233Z" fill="#D1D8DB"/>
<path d="M47.0962 124.639C47.7484 124.917 48.3567 125.313 48.9869 125.64C49.0234 128.178 48.5125 130.621 48.4078 133.139C48.3811 133.767 48.3786 134.407 48.4078 135.035C48.4395 135.68 48.6414 136.388 48.4857 137.023C48.3251 137.682 47.7752 138.342 47.3055 138.821C45.1009 141.072 39.1124 144.685 36.151 145.863C35.4551 146.141 34.7884 146.289 34.0583 146.437C34.0364 146.381 34.017 146.328 33.9926 146.272C33.3381 144.763 29.194 142.846 27.6489 142.216C29.3108 141.785 31.0629 141.644 32.7492 141.303C35.6084 140.726 38.3556 139.789 41.1199 138.879C42.3195 138.485 43.6554 138.149 44.7699 137.551C43.5824 137.67 42.4413 138.035 41.2976 138.356C39.3582 138.899 37.4383 139.5 35.4989 140.043C32.7711 140.804 29.9654 141.279 27.1744 141.753C27.2912 141.627 27.4079 141.498 27.5126 141.359C28.4129 140.196 28.4665 138.573 28.2645 137.171C28.1112 136.115 27.7487 135.312 26.8799 134.66C31.2454 134.336 35.7543 135.388 40.0857 135.867C41.244 135.996 42.412 136.147 43.5776 136.144C44.5461 136.144 45.9087 136.01 46.6022 135.256C47.5342 134.241 47.2033 126.46 47.0938 124.639H47.0962Z" fill="#F9A014"/>
<path d="M31.7538 136.232C33.1165 136.113 35.5499 136.468 37.0586 136.519C39.0636 136.587 41.8912 136.307 43.7941 136.658L43.7527 136.721C41.222 137.176 34.0899 137.139 31.7538 136.232Z" fill="#030303"/>
<path d="M71.2081 125.924C71.7338 125.742 72.2058 125.53 72.6876 125.255C73.1987 127.345 74.2595 133.18 75.5565 134.546C76.3303 135.361 77.985 136.144 78.4328 137.108C78.6737 137.629 78.1919 138.483 77.9194 138.928C76.8536 140.661 75.5176 142.252 74.3082 143.887C73.0015 145.654 71.4515 148.311 69.7749 149.669C68.7821 150.474 67.4048 150.754 66.3341 151.504C65.1929 149.934 63.9787 149.581 62.1609 149.194C61.8689 149.131 61.4066 149.09 61.1486 148.951C59.7057 148.876 58.1994 148.313 56.827 147.888C60.0731 146.009 70.3954 140.855 72.4151 138.439C71.1351 139.05 69.9233 139.95 68.692 140.665C65.8766 142.303 63.0321 143.887 60.1559 145.418C58.7007 146.209 57.2601 147.107 55.7344 147.754C56.1286 146.992 56.3452 146.265 56.3306 145.401C56.3111 144.311 56.041 142.958 55.2088 142.194C54.6321 141.663 54.0141 141.546 53.2573 141.568C53.963 141.152 54.6808 140.799 55.4692 140.568C56.6202 140.23 57.9293 140.137 59.1193 139.977C62.2704 139.553 65.519 139.286 68.5972 138.468C69.6094 138.198 72.4054 137.376 72.9139 136.409C73.0356 136.178 73.0185 136.008 72.9504 135.767C72.6243 134.594 72.0014 133.434 71.5415 132.302C70.7093 130.226 69.9209 128.134 69.1714 126.026C69.86 126.058 70.5341 126.104 71.2081 125.924Z" fill="#F9A014"/>
<path d="M68.9719 139.259L69.0887 139.32C68.7602 139.595 68.001 139.729 67.58 139.85C64.1003 140.858 60.6815 141.245 57.0777 141.395C56.9584 141.393 57.0217 141.408 56.8952 141.327C57.4402 141.038 59.7884 140.889 60.5233 140.777C62.0636 140.546 63.5991 140.286 65.1272 139.994C66.3999 139.741 67.6823 139.417 68.9695 139.254L68.9719 139.259Z" fill="#030303"/>
<path d="M71.2084 125.924C71.734 125.742 72.2061 125.53 72.6879 125.255C73.1989 127.345 74.2598 133.18 75.5568 134.546C76.3306 135.361 77.9853 136.144 78.433 137.108C78.6739 137.629 78.1921 138.483 77.9196 138.928C76.8538 140.661 75.5178 142.252 74.3085 143.887C73.0018 145.654 71.4517 148.311 69.7751 149.669C68.7823 150.474 67.405 150.754 66.3344 151.504C65.1931 149.934 63.9789 149.581 62.1612 149.194C61.8692 149.131 61.4068 149.09 61.1489 148.951L61.2146 148.873C61.8326 148.846 62.4556 149.041 63.0372 149.224C63.4411 149.35 63.901 149.404 64.2855 149.554C65.0617 149.856 65.8453 150.625 66.4828 151.163C67.4756 150.628 68.7629 150.231 69.6462 149.55C70.2132 149.114 70.7338 148.442 71.1791 147.885C72.0649 146.778 78.4111 138.152 78.4063 137.626C78.3965 136.694 76.9827 136.035 76.3549 135.497C75.878 135.088 75.4424 134.616 74.9874 134.181C74.7976 134.188 74.7659 134.215 74.6053 134.319C74.5567 134.65 75.5057 136.178 75.6687 136.638C76.097 137.845 75.5251 138.974 74.9776 140.04C74.8268 140.332 72.9263 143.225 72.8022 143.301C72.7584 143.328 72.7024 143.33 72.6513 143.347C72.7049 142.938 73.4957 142.135 73.7439 141.76C74.2939 140.926 74.8316 140.052 75.2818 139.162C75.5665 138.6 75.8512 137.974 75.749 137.329C75.5519 136.103 74.2135 134.059 73.6636 132.73C72.7462 130.523 71.9408 128.197 71.2059 125.922L71.2084 125.924Z" fill="#F26D13"/>
<path d="M23.1811 16.2795C23.9354 16.3063 24.6922 16.6591 25.3102 17.0825C28.476 19.2555 28.7948 22.7425 31.1771 24.9423C31.9193 25.6285 32.7247 25.9765 33.6761 26.2831C32.5203 27.2467 31.2525 28.1008 30.0553 29.0157C24.3174 33.3958 18.7061 37.0117 11.2138 37.2356C8.36193 37.2867 4.44178 36.9071 1.95246 35.5201C1.44145 35.2354 0.925624 34.8314 0.779622 34.2377C0.692022 33.8849 0.740667 33.5247 0.940203 33.2181C1.81378 31.8774 6.16703 30.9137 7.79738 30.2008C8.97756 29.6873 10.0653 29.0084 11.1189 28.2736C13.764 26.4315 16.1 24.0687 18.0321 21.4918C19.0833 20.0902 20.1126 18.4793 21.3512 17.2456C21.8865 16.7127 22.4486 16.4499 23.1786 16.2795H23.1811Z" fill="#FCBF11"/>
<path d="M22.0617 23.7378C22.3391 23.7232 22.6238 23.7597 22.8307 23.969C22.9548 24.0955 22.9985 24.2732 22.9888 24.4435C22.9523 24.9788 22.6263 25.3049 22.2369 25.6285C21.9474 25.648 21.6651 25.6285 21.4558 25.3974C21.322 25.2489 21.3074 25.0518 21.3293 24.862C21.3877 24.3656 21.7016 24.0469 22.0617 23.7378Z" fill="#030303"/>
<path d="M18.9008 21.2922C18.969 21.3555 18.9276 21.3093 18.9884 21.4577C18.4312 22.9761 16.577 25.6942 15.4771 26.8938C12.9415 29.663 8.90703 31.6024 5.14019 31.7557L5.08423 31.6705C5.47357 31.2787 7.77791 30.5122 8.44952 30.2299C8.71719 30.1156 8.97999 29.9939 9.2428 29.8698C9.5056 29.7433 9.76602 29.6143 10.024 29.478C10.2819 29.3418 10.5374 29.2031 10.788 29.0595C11.0411 28.9159 11.2893 28.7651 11.5375 28.6118C11.7833 28.4585 12.029 28.3003 12.2699 28.1373C12.5108 27.9742 12.7493 27.8063 12.9829 27.6336C13.2165 27.4608 13.4477 27.2856 13.6764 27.1055C13.9052 26.9254 14.129 26.7405 14.3504 26.5507C14.5718 26.3609 14.7885 26.1687 15.0026 25.9716C15.2167 25.7745 15.426 25.5725 15.6328 25.3681C15.8396 25.1637 16.0416 24.9544 16.2411 24.7427C16.4407 24.531 16.6329 24.3145 16.8252 24.093C17.015 23.874 17.2024 23.6502 17.3849 23.4239C17.5674 23.1976 17.745 22.9664 17.9177 22.7328C18.0905 22.4992 18.2609 22.2631 18.4239 22.0222C18.5894 21.7813 18.7475 21.5404 18.9033 21.2947L18.9008 21.2922Z" fill="#FEEF7C"/>
<path d="M101.577 86.1558C103.548 85.9879 105.314 85.5231 107.139 84.7882C107.052 93.9595 102.944 102.564 96.4496 108.93C95.7731 109.582 95.0747 110.212 94.3544 110.818C93.6366 111.424 92.8969 112.005 92.1401 112.563C91.3833 113.12 90.6071 113.653 89.8162 114.156C89.0254 114.66 88.2151 115.142 87.3902 115.594C80.915 119.208 70.6219 122.693 63.1393 122.62C57.8565 122.568 50.3691 121.164 45.4635 119.276C46.5317 119.035 48.8726 119.588 50.0722 119.738C51.1015 119.875 52.1357 119.975 53.1723 120.033C62.879 120.539 74.5032 117.986 82.7717 112.752C87.7698 109.587 92.4807 105.189 95.4421 100.023C96.1551 98.7824 96.7975 97.5122 97.1139 96.1082C92.4418 101.848 82.4651 104.778 75.4327 106.121C69.2957 107.292 61.8935 107.448 56.0656 104.939C54.5253 104.275 53.0458 103.304 51.6637 102.352C51.2257 102.05 48.6828 99.875 48.5611 99.5441C48.5295 99.4565 48.5271 99.3616 48.51 99.2715C52.9996 102.795 58.4649 105.941 64.4096 105.209C65.0958 105.124 66.035 104.924 66.4998 104.382C66.6045 104.257 66.5607 103.951 66.5631 103.785C67.5583 103.88 68.5609 104.411 69.5659 104.598C72.2061 105.097 78.0656 105.279 80.2799 103.481C80.4454 103.347 80.6084 103.165 80.6255 102.943C80.6498 102.622 80.4308 102.35 80.2118 102.143C79.4721 101.437 78.4379 100.975 77.574 100.437C83.6355 100.751 90.792 99.2253 95.3837 95.0448C95.7122 94.7455 95.9872 94.4681 96.0553 94.0155C95.975 93.7551 95.9045 93.6383 95.6587 93.5069C94.7584 93.0251 93.4079 92.9278 92.4004 92.8694C96.3619 91.385 99.0192 89.5576 101.572 86.1582L101.577 86.1558Z" fill="#D1D8DB"/>
<path d="M48.3225 64.9127C56.6689 61.8101 64.0882 62.3649 72.5636 64.6158C79.1312 66.3605 87.0518 70.1249 93.8262 67.7329C96.773 66.6914 99.3718 64.6085 101.328 62.1995C101.759 61.669 102.192 61.1215 102.574 60.5545C103.002 59.9194 103.46 58.7222 104.175 58.3961C104.397 58.4351 104.402 58.4935 104.545 58.6735C106.003 61.9221 105.952 66.7596 104.689 70.0616C104.385 70.8549 103.956 71.6384 103.698 72.4463C104.523 71.4657 105.051 70.2466 105.56 69.0834C106.923 68.4142 109.008 66.0588 110.139 64.9127C110.339 64.7326 110.463 64.6328 110.726 64.5695C110.935 64.6109 111.098 64.6352 111.23 64.825C111.996 65.9639 111.519 69.0299 111.181 70.2758C110.558 72.5656 109.551 74.702 108.103 76.583C107.631 77.1962 107.042 77.7656 106.609 78.3983C108.193 77.3617 109.351 75.5099 111.222 74.904C111.655 74.7629 111.943 74.7702 112.342 74.9819C112.278 75.3785 112.205 75.7265 112.025 76.0891C111.417 77.3155 109.446 79.5906 108.339 80.4034C106.932 81.4351 105.217 82.299 103.586 82.9049C102.968 83.1336 102.1 83.2236 101.562 83.574C98.6613 83.4767 95.8848 83.2455 93.0865 82.4109C87.845 80.8463 83.4528 77.8581 78.8343 75.0403C72.5051 71.1785 64.8595 68.2098 57.3599 68.0979C55.4254 68.0687 53.5274 68.3023 51.6197 68.5846C50.2911 67.6599 49.0038 66.4092 48.32 64.9175L48.3225 64.9127Z" fill="#FCFCFC"/>
<path d="M110.139 64.9101C110.339 64.7301 110.463 64.6303 110.726 64.567C110.935 64.6084 111.098 64.6327 111.23 64.8225C111.996 65.9613 111.519 69.0274 111.181 70.2732C110.558 72.563 109.55 74.6995 108.103 76.5805C107.631 77.1937 107.042 77.7631 106.609 78.3958C106.338 78.846 105.409 79.3594 104.944 79.6149C104.467 79.8777 103.416 80.5104 102.876 80.3522C102.924 80.0456 106.246 75.8456 106.733 75.1302C107.025 74.6995 107.302 74.2566 107.562 73.8065C107.823 73.3539 108.066 72.894 108.295 72.4268C108.524 71.9595 108.733 71.4802 108.925 70.9984C109.117 70.5141 109.295 70.025 109.453 69.5262C109.738 68.6137 110.577 65.7472 110.139 64.9101Z" fill="#D1D8DB"/>
<path d="M104.543 58.6735C106 61.922 105.949 66.7595 104.686 70.0616C104.382 70.8548 103.954 71.6384 103.696 72.4462C103.694 72.4706 103.696 72.4974 103.686 72.5217C103.302 73.4512 101.684 74.9356 100.747 75.2446C102.027 72.6409 103.277 70.0859 103.99 67.2583C102.341 69.1053 100.297 70.5872 98.1892 71.8671C99.8707 69.2342 101.63 66.8544 102.796 63.9173C103.158 63.0097 103.477 62.085 103.754 61.1482C103.993 60.3379 104.158 59.4278 104.543 58.6759V58.6735Z" fill="#D1D8DB"/>
<path d="M20.1125 8.7435C20.8596 8.33957 21.8962 7.69229 22.7844 7.95753C22.8695 7.98186 22.923 8.01106 23.0082 8.04512L23.2881 8.16193C23.5144 7.59982 23.5995 6.98905 23.8477 6.43668C24.7845 4.35616 26.8651 2.58467 28.9383 1.7038C32.3328 0.263252 36.7104 0.720725 40.0514 2.10044C44.1151 3.77945 46.8575 7.19102 48.4976 11.1866C50.9553 17.1678 50.0501 23.1295 48.0036 29.0401C47.0376 31.8312 45.928 34.5565 45.2321 37.4376C43.1905 45.9106 42.6454 58.8317 47.9477 66.2632C48.6728 67.2779 49.5464 68.0857 50.4833 68.8985C48.595 69.4022 46.9865 70.0446 45.3294 71.0983C46.7967 70.5945 48.2664 70.086 49.7873 69.7648C58.1313 68.0006 66.4679 70.0422 73.9943 73.7409C76.7489 75.0938 79.3477 76.7436 81.983 78.3107C88.5239 82.2065 93.6339 84.0924 101.287 84.1532C101.238 84.1775 101.19 84.2019 101.141 84.2286C100.44 84.6009 99.7562 85.4794 99.1138 85.988C97.6684 87.1341 96.0429 88.1244 94.4077 88.9785C92.0303 90.2196 89.5727 91.1759 86.9617 91.7842C86.4969 91.8913 86.0273 92.0202 85.5576 92.0957C85.105 92.1687 84.4651 92.137 84.0538 92.3001L84.0441 92.3585C84.2071 92.4096 84.2971 92.4412 84.4626 92.395C87.2683 92.9546 90.164 93.0982 92.9891 93.5995C88.5166 97.359 80.2626 97.8944 74.6489 97.415C73.6147 97.3274 72.1596 96.9137 71.1668 97.1571C71.1838 97.2082 71.2105 97.2544 71.2349 97.3006L71.0792 97.252L71.2617 97.2009C71.3566 97.3834 71.3614 97.3639 71.561 97.4272C73.7558 99.0015 76.2378 100.204 78.4765 101.729C78.3719 101.836 78.3817 101.841 78.2649 101.909C77.7928 102.189 76.7391 102.17 76.1892 102.214C72.3153 102.527 69.6922 101.518 66.1711 100.221C64.9739 99.7802 63.7499 99.4031 62.5527 98.9626C61.4285 98.5465 60.2751 97.982 59.0949 97.7435L58.871 97.5805C58.8954 98.0282 61.0099 99.8897 61.443 100.281C62.1901 100.938 62.9469 101.581 63.7158 102.211C63.5674 102.35 63.4506 102.445 63.2511 102.498C62.1609 102.79 60.7593 102.413 59.7081 102.107C54.5372 100.598 48.7847 96.6801 45.4973 92.4096C44.4558 91.0566 43.5554 89.5115 42.767 87.9979C42.4434 87.3774 41.9519 85.7933 41.3995 85.4575C40.8204 82.8733 40.7668 80.4423 40.7522 77.8119C39.7302 83.7006 41.3216 90.3339 44.7819 95.2152C45.8525 96.7239 47.1447 98.0258 48.5147 99.2619C48.5317 99.3519 48.5341 99.4493 48.5657 99.5344C48.6874 99.8654 51.2278 102.041 51.6683 102.343C53.048 103.294 54.5275 104.265 56.0702 104.929C61.8981 107.44 69.3004 107.285 75.4373 106.112C82.4721 104.769 92.4489 101.839 97.1185 96.0985C96.8046 97.5026 96.1597 98.7728 95.4468 100.014C92.4854 105.177 87.7744 109.577 82.7763 112.743C74.5078 117.979 62.8836 120.532 53.1769 120.023C52.1403 119.965 51.1062 119.868 50.0769 119.729C48.8772 119.578 46.5363 119.026 45.4681 119.267C45.2637 119.201 45.0593 119.133 44.8549 119.06C36.124 116.006 28.3786 111.275 22.4023 104.138C20.5481 101.924 18.8326 99.4785 17.5867 96.8699C12.8514 86.9613 14.8054 76.8726 19.4385 67.363C21.5628 63.0025 24.13 58.8755 26.2275 54.5028C27.1571 52.5609 27.9285 50.5607 28.6415 48.5313C28.6658 48.5167 28.6925 48.5045 28.7144 48.4899C29.5223 47.9522 31.16 45.1611 31.8364 44.2194C32.5518 43.2339 33.2867 42.263 34.0386 41.3067C35.7931 39.1167 37.6886 37.0434 39.5623 34.9556C40.6841 33.7049 41.8497 32.4687 42.84 31.1109C43.7769 29.8261 44.5994 28.5583 45.0082 27.0107C44.614 27.6336 43.8134 28.259 43.5627 28.916C40.6306 31.016 38.0804 32.4152 34.3525 31.7776C33.5982 31.6487 32.8682 31.4418 32.1406 31.2058C34.0216 29.3954 34.7857 28.0084 36.1581 25.8816C36.579 25.7137 37.0779 25.6115 37.4307 25.3268L37.4502 25.1784C36.7737 24.7379 34.3817 25.8841 32.2574 24.592C29.077 22.6574 27.9698 14.5787 22.3634 15.7589L22.2855 15.7759C22.7235 14.3937 23.4438 12.34 22.7551 10.9457C22.5921 10.6148 22.3317 10.3593 21.9692 10.2644C21.5409 10.1524 21.0883 10.3154 20.7306 10.549C19.7402 11.2012 19.1367 12.4933 18.9372 13.6345C18.7985 14.4351 18.8228 15.2965 18.9932 16.0922L18.3386 16.4572L20.2318 17.8224L17.8617 20.7351C16.5817 18.3334 16.9151 14.221 17.6767 11.6903C18.4651 9.06714 20.0079 6.89415 22.4461 5.58987C22.8963 5.34897 23.3562 5.12754 23.8161 4.90367C23.344 5.79428 22.9912 6.56565 22.7649 7.54872C21.9667 7.51466 21.2903 7.60713 20.6698 8.16436C20.4727 8.342 20.295 8.54883 20.115 8.74107L20.1125 8.7435Z" fill="#FCFCFC"/>
<path d="M36.4404 6.18845C37.2313 6.13248 38.0294 6.21278 38.7351 6.60455C39.7693 7.17882 40.1878 8.1327 40.4944 9.21311C40.256 8.7897 40.0029 8.37846 39.7474 7.96479C39.4967 7.64359 39.2266 7.38566 38.8835 7.16179C37.5573 6.30525 36.1849 6.53885 34.7468 6.86005C35.3065 6.57048 35.8199 6.32228 36.4404 6.18601V6.18845Z" fill="#030303"/>
<path d="M35.9416 10.4954C36.4454 10.4541 36.859 10.4662 37.3213 10.6926C39.0442 11.5345 39.8058 14.2623 39.8253 16.0411C39.8301 16.5302 39.6208 17.1726 39.6768 17.6154C39.7133 17.9026 40.015 17.888 40.0929 18.1119C38.8665 17.9732 37.7788 18.0997 36.5986 18.4501C35.8881 18.6691 35.197 18.9416 34.5303 19.2701C33.9584 18.7202 33.5861 18.0535 33.3428 17.304C32.8391 15.7515 32.8926 13.8948 33.6494 12.4348C34.158 11.4542 34.8904 10.824 35.9392 10.4979L35.9416 10.4954Z" fill="#030303"/>
<path d="M37.6572 14.6832C37.9176 14.7416 38.1463 14.8244 38.3094 15.0482C38.4432 15.2332 38.4822 15.4351 38.4335 15.659C38.3653 15.968 38.1926 16.0994 37.9444 16.2698C37.7813 16.2406 37.6499 16.226 37.521 16.1116C37.3798 15.9875 37.2922 15.8001 37.2752 15.6128C37.2411 15.2137 37.3968 14.9704 37.6572 14.6857V14.6832Z" fill="#FCFCFC"/>
<path d="M35.8977 11.0697C36.197 11.0332 36.4963 11.021 36.7859 11.1208C37.6546 11.4201 38.0853 12.2475 38.4478 13.0261C38.0755 12.8242 37.7081 12.6879 37.2847 12.6344C36.6228 12.5516 35.9999 12.7293 35.4913 13.1624C34.7102 13.8316 34.4596 14.7587 34.3768 15.7418C34.3525 16.5034 34.5204 17.2553 34.6518 17.9999C34.5107 17.7785 34.3671 17.5546 34.2552 17.3186C33.6736 16.0751 33.5617 14.3134 34.0581 13.0237C34.4061 12.1161 35.0046 11.4542 35.8953 11.0697H35.8977Z" fill="#FCFCFC"/>
</svg>
