<svg width="162" height="146" viewBox="0 0 162 146" fill="none" xmlns="http://www.w3.org/2000/svg">
<path d="M25.9257 55.4746C25.9785 55.9675 25.9785 56.4905 26.0564 56.9733C26.2878 58.4016 26.9541 60.1493 27.7764 61.2909L26.7631 61.9397C26.0942 59.7495 25.8804 57.7579 25.9257 55.4746Z" fill="#B9430E"/>
<path d="M114.46 49.603C119.51 50.6969 124.448 52.2886 129.141 54.5795L129.188 54.67C128.743 54.5619 128.306 54.3154 127.881 54.1369L125.58 53.1813C123.098 52.1906 120.543 51.4462 117.963 50.8075C116.945 50.5561 115.77 50.2015 114.729 50.204C114.51 50.0054 114.526 49.8972 114.463 49.6055L114.46 49.603Z" fill="#FBF8F4"/>
<path d="M27.7764 61.2902C32.7201 58.5392 37.953 57.3548 43.5329 57.556L43.7794 57.7195C41.1566 57.7421 38.5289 57.9257 35.9665 58.5619C33.2507 59.2358 30.716 60.3799 28.2567 61.768L26.9943 62.545C25.815 63.405 24.6331 64.2373 23.5191 65.1929C21.1705 67.2121 18.9979 69.6262 17.1748 72.1886C16.1765 73.5892 15.2762 75.098 14.4816 76.6419C14.2955 77.004 13.8907 78.1155 13.6166 78.3066C13.6166 78.2236 13.6141 78.201 13.6367 78.1105C13.8278 77.3863 14.3408 76.5388 14.6727 75.8624C16.6668 71.8063 19.4706 68.2205 22.6918 65.2155C23.9617 64.0311 25.3171 62.8669 26.7655 61.944L27.7789 61.2952L27.7764 61.2902Z" fill="#FBF8F4"/>
<path d="M26.0489 53.4879C32.1343 51.9464 38.3856 52.3965 44.3654 54.1945L44.4131 54.4032C42.3159 53.8374 40.2087 53.3219 38.0536 53.088C33.9448 52.643 29.9692 53.1534 25.9558 54.0989L20.8663 55.7209C15.5831 57.6848 10.5538 60.652 6.09795 64.258C4.82053 65.289 3.6135 66.408 2.43918 67.5697C1.88848 68.1129 1.33275 68.8572 0.711639 69.2922L0.746848 69.169C0.844918 68.9528 1.21708 68.6435 1.37802 68.4649L3.36457 66.3778C8.48181 61.2228 14.9469 57.1416 21.6181 54.7653C23.0691 54.2473 24.5628 53.8726 26.0489 53.4904V53.4879Z" fill="#FBF8F4"/>
<path d="M26.7254 12.7661C26.4186 16.4576 26.6123 19.5782 28.9458 22.5404C30.9877 25.1305 34.3523 27.283 37.5383 27.5948C37.9305 27.6325 38.4486 27.6979 38.8358 27.6074L39.3639 27.6501L38.0487 30.1748L36.4947 29.7925C32.7957 28.6886 29.1495 25.1657 27.3214 21.605C25.9534 18.942 25.9534 15.6303 26.7254 12.7661Z" fill="#A63106"/>
<path d="M28.297 47.0708C33.5852 47.6592 38.7351 48.9693 43.6085 51.2803C44.2044 51.5619 45.1399 51.8812 45.6126 52.3414L44.6872 54.1168L44.3629 54.1972C38.3831 52.3993 32.1318 51.9491 26.0464 53.4906C26.3456 51.1696 27.1151 49.0372 28.297 47.0708Z" fill="#FFA52E"/>
<path d="M25.9557 54.099C29.969 53.1535 33.9446 52.643 38.0535 53.0881C40.2086 53.3219 42.3158 53.8374 44.413 54.4032C44.4054 54.8885 44.1967 55.3714 44.0936 55.8416C43.983 56.347 43.9478 56.8927 43.8874 57.4082C43.7642 57.5088 43.6838 57.5289 43.5304 57.554C37.9504 57.3529 32.72 58.5372 27.7738 61.2882C26.9515 60.1466 26.2826 58.399 26.0538 56.9707C25.9758 56.4878 25.9784 55.9623 25.923 55.4719L25.9532 54.099H25.9557Z" fill="#FFA52E"/>
<path d="M28.297 47.0706C21.2334 46.4847 14.2277 47.2215 7.42818 49.379C4.91859 50.1761 2.52214 51.2071 0.113145 52.2959L0 52.2381L5.52208 49.7436C10.066 47.9658 15.0952 46.7638 19.9208 46.4042C22.8352 46.1854 25.7245 46.2885 28.6339 46.5299C34.5734 47.3422 40.4576 49.0898 45.7484 52.1501C46.9881 50.7193 48.092 49.985 49.895 49.6204C49.9905 51.265 50.9134 52.4116 52.0248 53.4602C52.8169 54.207 53.6719 54.8533 54.5998 55.3965C54.9418 55.5976 55.3039 55.8441 55.6911 55.9245L55.6258 59.2665C55.661 59.787 55.8445 60.7274 55.5805 61.1675C55.6861 61.3033 55.7314 61.3964 55.8822 61.4693C54.9041 62.9881 53.1765 63.8531 51.5169 64.185C51.0567 64.2781 50.6141 64.3284 50.1464 64.3208L48.5974 64.1473C47.4005 63.7525 46.3267 63.32 45.429 62.3418C44.4508 61.2731 43.9052 59.8197 43.9177 58.3285C43.9177 58.0695 43.875 57.9488 43.7719 57.7225L43.5254 57.559C43.6763 57.5339 43.7568 57.5113 43.8825 57.4132C43.9429 56.8977 43.9781 56.352 44.0887 55.8466C44.1918 55.3764 44.4005 54.891 44.4081 54.4082L44.3603 54.1995L44.6847 54.119L45.6101 52.3437C45.1373 51.8836 44.2019 51.5642 43.6059 51.2826C38.7326 48.9716 33.5827 47.6615 28.2944 47.0731L28.297 47.0706Z" fill="#FBF8F4"/>
<path d="M44.6873 54.1143C44.5364 55.4671 44.2397 57.2474 44.6546 58.5601L44.6974 58.7009C45.0645 59.8828 45.9069 60.8082 46.9404 61.3463C48.4115 62.1132 50.2396 62.2943 51.7961 61.6958C53.2546 61.135 54.4038 60.2449 55.6309 59.2642C55.6661 59.7847 55.8497 60.7252 55.5857 61.1652C55.6913 61.301 55.7365 61.3941 55.8874 61.467C54.9092 62.9858 53.1817 63.8508 51.522 64.1827C51.0619 64.2758 50.6193 64.3261 50.1516 64.3185L48.6026 64.1451C47.4056 63.7503 46.3319 63.3177 45.4342 62.3395C44.456 61.2708 43.9103 59.8174 43.9229 58.3262C43.9229 58.0672 43.8801 57.9465 43.777 57.7202L43.5306 57.5567C43.6815 57.5316 43.7619 57.509 43.8877 57.4109C43.948 56.8954 43.9832 56.3498 44.0939 55.8443C44.197 55.3741 44.4057 54.8887 44.4132 54.4059L44.3655 54.1972L44.6898 54.1168L44.6873 54.1143Z" fill="#D9AD8C"/>
<path d="M48.6023 64.1474C47.4053 63.7526 46.3316 63.3201 45.4339 62.3419C44.4557 61.2732 43.91 59.8198 43.9226 58.3286C44.3576 60.3101 45.1069 61.7988 46.7691 62.9027C48.2477 63.8859 50.1211 64.0041 51.7883 63.5866C53.2593 63.217 54.5669 62.352 55.5828 61.1676C55.6885 61.3034 55.7337 61.3964 55.8846 61.4694C54.9064 62.9882 53.1789 63.8532 51.5192 64.1851C51.059 64.2782 50.6165 64.3285 50.1488 64.3209L48.5998 64.1474H48.6023Z" fill="#A63106"/>
<path d="M28.2542 61.7658C30.7135 60.3777 33.2483 59.2336 35.9641 58.5597C38.5264 57.9235 41.1542 57.7424 43.7769 57.7173C43.88 57.9436 43.9228 58.0643 43.9228 58.3233C43.9102 59.8145 44.4534 61.2679 45.4341 62.3366C46.3318 63.3148 47.4055 63.7473 48.6025 64.1421L48.5547 64.2176C47.7928 65.3919 46.8926 66.3475 45.7886 67.1597C43.7644 68.6458 40.0855 68.8696 37.7067 68.3818C33.8568 67.5922 30.447 65.2485 28.2568 61.7633L28.2542 61.7658Z" fill="#FFA52E"/>
<path d="M26.5617 72.9736L26.7981 72.3223C27.3639 73.7028 27.7562 75.1412 28.2767 76.5418C30.4041 82.2801 33.0369 87.5659 38.0787 90.9254L38.0862 90.9983C39.2731 91.725 40.5204 92.4266 41.8355 92.8465C41.8581 90.4602 42.1976 88.0336 42.7005 85.7126C42.8062 85.2197 43.2261 83.0521 43.5681 82.8258C43.133 84.8777 42.61 87.0479 42.61 89.1652C42.6402 89.9548 42.5371 90.7745 42.6025 91.5541C42.6553 92.1827 42.7936 92.834 42.8766 93.4626C43.3594 97.1164 44.1816 100.559 45.6099 103.933C46.0249 104.914 46.5479 105.835 47.0458 106.765C47.3299 107.296 47.692 107.778 47.7675 108.399C48.1623 108.943 48.5822 109.473 48.8588 110.099C48.4816 110.552 48.2176 110.668 47.6493 110.705C47.0055 110.748 46.3844 110.592 45.7709 110.401C46.9653 112.189 48.0516 114.037 48.6627 116.149L48.7708 117.553C48.5973 117.711 48.4313 117.769 48.2226 117.847C48.1799 117.915 48.0265 118.113 48.0164 118.181C47.9259 118.835 48.5973 119.667 47.7524 119.967C47.3249 119.886 45.9318 119.265 45.6778 119.383C45.6275 119.76 45.6351 119.974 45.4062 120.286C44.1816 120.791 42.5044 120.346 41.3426 119.793C40.9026 119.584 40.1306 119.285 39.8716 118.865L39.688 119.147C39.2253 119.215 38.8004 119.273 38.3327 119.22C37.5054 118.629 36.6956 117.96 35.9764 117.221C35.5867 116.818 35.2824 116.348 34.8323 116.016C34.0025 114.741 33.409 113.157 32.8257 111.734C32.9086 112.898 33.7636 114.477 34.2389 115.521L38.222 122.295L38.2824 122.348C38.7048 122.735 38.9839 123.253 39.331 123.713L41.2069 126.037C42.6276 127.661 44.1565 129.374 45.7759 130.774C47.5915 132.344 49.5679 133.613 51.5897 134.846C52.5955 135.459 53.6466 136.171 54.743 136.581C55.3289 136.812 56.1386 137.109 56.5284 137.637L56.6063 137.737L54.2602 137.184C52.8495 137.016 51.3533 136.561 50.0407 136.002L49.9476 135.824C46.646 134.846 43.6812 133.591 40.6134 131.964C39.4215 131.129 38.2245 130.292 37.1231 129.321C34.4903 127.008 32.2397 124.123 30.5499 120.96C27.5651 115.377 26.0236 109.093 25.4251 102.731C25.2868 101.276 25.4126 99.7466 25.2416 98.3133C25.1762 97.7651 24.9348 97.2169 24.7814 96.6914C24.535 95.8465 24.3439 94.9714 24.1804 94.1038C23.2173 88.9464 23.2575 83.6582 24.545 78.5636C24.9599 76.6952 25.6062 74.6131 26.5718 72.9786L26.5617 72.9736Z" fill="#A63106"/>
<path d="M42.6076 89.1656C42.6378 89.9552 42.5347 90.775 42.6 91.5545C42.6529 92.1831 42.7912 92.8344 42.8741 93.4631C43.3569 97.1168 44.1792 100.559 45.6075 103.934C46.0224 104.915 46.5455 105.835 47.0434 106.765C47.3275 107.296 47.6896 107.779 47.765 108.4C47.3702 108.008 47.0358 107.482 46.714 107.022C43.6461 102.659 42.3813 97.3557 42.4819 91.9493C42.4995 91.0214 42.4844 90.0834 42.6076 89.1631V89.1656Z" fill="#D9AD8C"/>
<path d="M39.1225 115.855C40.2943 116.62 41.4184 117.387 42.6706 117.995C43.337 118.319 44.2674 118.48 44.8508 118.88C45.1022 119.054 45.3084 119.117 45.5976 119.169L45.7259 119.013C45.7007 118.692 45.751 118.543 45.4996 118.33L45.3512 118.229L45.3939 118.146C45.7862 117.316 45.4543 116.33 45.228 115.498C45.922 115.913 47.4308 116.856 48.2455 116.609C48.4165 116.469 48.5674 116.363 48.6579 116.147L48.766 117.55C48.5925 117.708 48.4266 117.766 48.2178 117.844C48.1751 117.912 48.0217 118.111 48.0117 118.179C47.9211 118.832 48.5925 119.665 47.7476 119.964C47.3201 119.884 45.927 119.262 45.6731 119.381C45.6228 119.758 45.6303 119.972 45.4015 120.283C44.1769 120.789 42.4996 120.344 41.3379 119.79C40.8978 119.582 40.1258 119.283 39.8668 118.863C40.2214 117.897 39.4544 116.851 39.1552 115.953L39.1225 115.853V115.855Z" fill="#D9AD8C"/>
<path d="M32.8206 111.734C32.8282 111.626 32.7125 111.364 32.6748 111.251C32.5013 110.733 32.2347 110.235 32.197 109.679C32.9816 110.499 33.7561 111.354 34.5909 112.118C36.0494 113.456 37.5908 114.63 39.1247 115.855L39.1574 115.956C39.4567 116.853 40.2211 117.899 39.8691 118.865L39.6855 119.147C39.2228 119.215 38.7979 119.272 38.3301 119.22C37.5028 118.629 36.6931 117.96 35.9739 117.221C35.5842 116.818 35.2799 116.348 34.8298 116.016C34 114.741 33.4065 113.157 32.8231 111.734H32.8206Z" fill="#FBF8F4"/>
<path d="M34.2365 115.521L38.2196 122.295C37.4376 123.645 36.213 125.335 34.674 125.7L34.5659 125.722C32.9892 124.158 31.7294 121.993 30.7261 119.976C30.3187 119.159 29.8811 118.39 29.5693 117.522C30.0622 117.65 30.6858 117.836 31.1862 117.781C32.5467 117.628 33.4318 116.584 34.2365 115.523V115.521Z" fill="#DE6511"/>
<path d="M29.5668 117.52C26.8485 111.666 25.9458 105.048 25.3347 98.6152C25.6038 99.0251 25.7648 99.6085 25.9458 100.071L26.9039 102.204C28.3271 105.002 30.193 107.343 32.1946 109.68C32.2349 110.235 32.4989 110.733 32.6724 111.251C32.7101 111.364 32.8283 111.626 32.8182 111.734C32.9012 112.898 33.7562 114.477 34.2315 115.521C33.4268 116.582 32.5416 117.626 31.1812 117.779C30.6783 117.837 30.0547 117.651 29.5643 117.52H29.5668Z" fill="#FFA52E"/>
<path d="M38.2171 122.295L38.2775 122.348C38.6999 122.735 38.9791 123.253 39.3261 123.713L41.202 126.037C42.6227 127.661 44.1516 129.374 45.771 130.774C47.5866 132.343 49.5631 133.613 51.5848 134.845C52.5907 135.459 53.6418 136.171 54.7382 136.58L54.7834 136.794L53.7223 136.684C53.4104 136.513 52.9477 136.455 52.6057 136.367L50.1364 135.713C49.9906 135.663 49.8372 135.612 49.7039 135.529C48.4717 134.765 46.885 134.34 45.5397 133.789C44.1541 133.221 42.7284 132.617 41.4233 131.858C38.8684 130.367 36.4041 128.124 34.5634 125.72L34.6715 125.697C36.2105 125.333 37.4351 123.645 38.2171 122.292V122.295Z" fill="#B9430E"/>
<path d="M33.13 109.372L33.726 109.357C34.1962 109.305 34.5156 108.948 34.6539 108.485C34.8098 107.972 34.7922 107.378 34.8173 106.84L34.9833 104.512C35.3932 100.519 36.1249 96.46 37.4074 92.678C37.5884 92.1424 37.7468 91.4408 38.0838 90.9932C39.2707 91.7199 40.518 92.4215 41.8331 92.8414C42.0795 97.5136 42.6755 101.904 45.1373 105.895L47.9914 110.127C46.5304 109.85 45.3712 109.453 44.0535 108.724C44.6822 110.318 47.9989 114.555 47.7475 115.908C47.0182 116.041 45.2957 114.565 44.6645 114.087L43.113 112.858C43.7869 114.108 44.481 115.289 44.8255 116.7C44.8909 116.967 45.0091 117.351 44.9286 117.62C44.8808 117.779 44.7325 117.879 44.6193 117.993C43.3318 117.635 41.8758 116.768 40.7418 116.024C38.627 114.638 36.5977 112.848 34.7318 111.105C34.2465 110.652 33.4997 110.054 33.1778 109.46L33.13 109.367V109.372Z" fill="#DE6511"/>
<path d="M26.5618 72.9736L26.7981 72.3223C27.3639 73.7028 27.7562 75.1412 28.2767 76.5418C30.4041 82.2801 33.0369 87.5659 38.0787 90.9254L38.0862 90.9983C37.7518 91.4434 37.5909 92.1475 37.4098 92.6831C36.1274 96.4651 35.3956 100.524 34.9857 104.517L34.8198 106.845C34.7946 107.384 34.8122 107.974 34.6563 108.49C34.5155 108.953 34.1987 109.31 33.7284 109.363L33.1325 109.378C31.415 107.612 29.9213 105.716 28.5886 103.604C25.1159 98.0996 23.8007 91.3302 24.1804 84.757C24.3112 82.4864 24.6859 80.3615 25.0907 78.1386L26.5643 72.9761L26.5618 72.9736Z" fill="#FFA52E"/>
<path d="M43.1205 140.906L44.9863 141.117L44.9712 141.892L44.7324 141.829C44.1515 141.66 43.4398 141.489 43.1205 140.903V140.906Z" fill="#B9430E"/>
<path d="M112.285 137.043C112.914 136.608 114.03 136.307 114.767 136.208C116.633 137.685 118.71 138.871 121.031 139.241C121.964 139.389 122.909 139.397 123.837 139.528C120.204 142.196 116.092 143.868 111.835 144.969C110.613 145.286 109.318 145.643 108.058 145.648L107.995 145.666C107.543 145.746 106.924 145.651 106.547 145.372C106.356 145.231 105.194 145.495 104.862 145.495C104.394 145.495 103.736 145.477 103.298 145.304C103.021 145.193 102.75 144.972 102.461 144.907C101.935 144.791 101.415 144.851 100.891 144.648C100.426 144.466 100.044 144.175 99.853 143.672C99.6543 143.146 99.8228 142.611 100.039 142.133C100.627 141.039 101.427 140.561 102.332 139.817C102.606 139.578 103.064 139.515 103.406 139.44L105.664 138.907C107.875 138.301 110.045 137.506 112.285 137.043Z" fill="#DE6511"/>
<path d="M112.285 137.043C112.914 136.608 114.03 136.307 114.767 136.208C116.633 137.685 118.71 138.871 121.031 139.241C121.964 139.389 122.909 139.397 123.837 139.528C120.204 142.196 116.092 143.868 111.835 144.969C110.613 145.286 109.318 145.643 108.058 145.648L107.995 145.666C107.543 145.746 106.924 145.651 106.547 145.372C106.356 145.231 105.194 145.495 104.862 145.495C104.394 145.495 103.736 145.477 103.298 145.304C103.021 145.193 102.75 144.972 102.461 144.907C101.935 144.791 101.415 144.851 100.891 144.648C100.426 144.466 100.044 144.175 99.853 143.672C99.6543 143.146 99.8228 142.611 100.039 142.133C100.094 142.827 100.23 143.539 100.776 143.999C101.073 144.25 101.749 144.399 102.124 144.351L102.29 144.306C102.32 143.013 102.715 141.876 103.59 140.961C103.891 140.647 104.251 140.398 104.606 140.159C103.715 141.343 102.83 142.296 102.991 143.928C103.021 144.22 103.099 144.386 103.263 144.617C104.057 145.015 105.219 144.876 106.084 144.849C106.112 143.355 106.431 142.422 107.457 141.381C107.776 141.057 108.146 140.823 108.528 140.591C107.633 141.643 106.663 142.696 106.74 144.25C106.748 144.391 106.783 144.534 106.821 144.67C106.891 144.736 106.937 144.783 107.027 144.824C107.575 145.067 108.689 144.854 109.275 144.748C113.075 144.057 116.937 142.525 120.289 140.501C118.876 140.063 117.553 139.472 116.236 138.776C114.845 138.039 113.864 137.255 112.285 137.038V137.043Z" fill="#A63106"/>
<path d="M141.346 81.9707C142.038 82.9137 142.601 84.0604 143.122 85.1215C144.459 87.8574 145.563 90.8976 146.189 93.9126L147.349 101.406L147.605 101.411C151.116 101.436 154.4 99.7591 156.95 97.2269C157.767 96.4147 158.493 95.4842 159.291 94.6469C159.57 94.4331 159.771 94.2747 160.115 94.2144C160.55 94.3476 160.759 94.5639 160.98 94.9838C162.172 97.2369 161.051 102.568 160.362 104.952C158.805 110.343 155.124 115.141 150.449 117.774C149.275 118.435 148.05 118.915 146.745 119.184C146.222 119.293 145.689 119.358 145.153 119.386C145.093 119.388 144.608 119.386 144.585 119.401C144.49 119.479 143.107 122.806 142.85 123.313C141.294 126.389 139.335 129.308 137.109 131.868C134.258 134.76 131.313 137.305 127.506 138.607C126.875 138.824 126.234 138.997 125.58 139.115C125.009 139.218 124.365 139.264 123.837 139.525C122.907 139.392 121.961 139.387 121.031 139.239C118.71 138.869 116.633 137.682 114.767 136.206C114.03 136.304 112.914 136.606 112.285 137.041C110.044 137.503 107.874 138.296 105.664 138.904L103.406 139.437C103.064 139.513 102.604 139.575 102.332 139.814C101.623 139.809 100.874 140.063 100.17 140.187L94.5217 141.152C89.583 141.811 84.5262 141.866 79.5573 141.708C75.4685 141.577 71.342 141.152 67.3086 140.42L63.6725 139.643C63.3531 139.565 62.5736 139.254 62.3121 139.294C62.0883 139.329 61.6281 139.646 61.3993 139.757L59.4655 140.576C57.2803 141.436 55.0499 142.155 52.7766 142.706C51.7708 142.95 50.6618 143.244 49.6283 143.234C48.8941 143.229 48.4088 142.792 47.682 142.761L47.5739 142.756C46.5077 142.86 45.7936 142.57 44.9688 141.889L44.9839 141.114L43.118 140.903C43.035 140.72 43.0401 140.637 43.03 140.438C44.1213 137.891 47.7902 136.933 50.0307 135.997C51.3458 136.558 52.8395 137.011 54.2502 137.179L56.5963 137.732L56.5184 137.632C56.1286 137.104 55.3164 136.807 54.733 136.576C53.6367 136.163 52.5855 135.454 51.5797 134.84C49.5579 133.608 47.5815 132.341 45.7659 130.769C44.1465 129.369 42.6201 127.659 41.1968 126.032L39.3209 123.708C38.9739 123.251 38.6948 122.73 38.2723 122.343L38.212 122.29L34.2289 115.516C33.7536 114.472 32.8961 112.893 32.8156 111.729C33.399 113.149 33.9925 114.734 34.8223 116.011C35.4132 117.414 36.321 118.737 37.1106 120.022C41.9236 127.88 48.6854 133.598 56.878 136.933C61.7287 138.907 67.1804 139.92 72.3278 140.506C84.1967 141.856 96.0355 141.064 107.573 137.72L114.106 135.472C111.832 133.027 110.115 129.846 110.127 126.306L110.14 125.765C110.437 126.095 110.429 126.683 110.505 127.116C110.618 127.774 110.786 128.431 110.982 129.067C111.802 131.727 113.502 134.373 115.604 136.06C118.29 138.215 121.722 139.188 125.039 138.668C131.014 137.73 135.97 132.882 139.438 127.885C144.024 121.272 147.1 112.787 146.946 104.466C146.904 102.233 146.718 99.9829 146.411 97.7751L145.873 94.5036C145.599 93.8799 145.503 92.9847 145.335 92.3083C145.284 92.1046 145.254 91.833 145.126 91.6721C144.897 91.3804 144.889 91.0862 144.839 90.7165C144.291 88.6395 143.461 86.6026 142.584 84.6588C142.194 83.7988 141.578 82.8885 141.346 81.9732V81.9707Z" fill="#942B09"/>
<path d="M50.0332 136C51.3483 136.56 52.842 137.013 54.2527 137.182L56.5989 137.735L61.4043 139.002L61.4772 139.057C59.2291 140.312 56.5435 141.092 54.0842 141.735C52.3969 142.176 50.6644 142.658 48.9167 142.568L48.708 142.369C48.796 140.747 49.9175 139.628 50.9711 138.6C49.9477 139.153 48.7055 139.978 48.3308 141.21C48.2302 141.539 48.1749 141.874 48.1322 142.216L46.3015 142.135L46.1582 142.153C45.9922 142.171 45.8942 142.138 45.7408 142.065L45.5672 142.133C45.7106 142.236 45.8212 142.309 45.9822 142.367L46.1205 142.422C46.3066 142.492 46.4926 142.475 46.6737 142.545C46.7919 142.593 46.8749 142.568 46.9956 142.558C47.3049 142.533 47.6418 142.633 47.9385 142.525L47.9863 142.646L47.5714 142.754C46.5052 142.857 45.791 142.568 44.9663 141.886L44.9814 141.112L43.1155 140.901C43.0325 140.717 43.0376 140.634 43.0275 140.435C44.1188 137.888 47.7877 136.93 50.0282 135.995L50.0332 136Z" fill="#DE6511"/>
<path d="M44.9865 141.117C45.6679 139.467 46.5078 138.932 48.0115 138.253C47.1616 138.894 45.7408 140.031 45.5548 141.215C45.5271 141.391 45.5472 141.567 45.5724 141.743C45.8087 141.977 45.9973 142.045 46.3041 142.138L46.1608 142.156C45.9948 142.173 45.8968 142.141 45.7434 142.068L45.5698 142.135C45.7132 142.239 45.8238 142.312 45.9848 142.369L46.1231 142.425C46.3092 142.495 46.4952 142.477 46.6763 142.548C46.7945 142.596 46.8775 142.571 46.9982 142.56C47.3074 142.535 47.6444 142.636 47.9411 142.528L47.9889 142.648L47.574 142.757C46.5078 142.86 45.7936 142.571 44.9688 141.889L44.9839 141.115L44.9865 141.117Z" fill="#A63106"/>
<path d="M146.986 111.009C149.162 111.115 150.939 110.65 152.828 109.503C156.004 107.577 158.463 104.373 159.844 100.777C160.276 99.6507 160.548 98.4638 160.85 97.292C161.023 98.411 160.839 99.6683 160.674 100.78C160.125 104.398 159.062 107.803 157.047 110.806C156.343 111.857 155.498 112.747 154.628 113.639C152.403 115.933 149.73 118.105 146.584 118.634L144.909 118.787L144.962 118.674C146.021 116.363 146.559 113.529 146.992 111.009H146.986Z" fill="#B9430E"/>
<path d="M159.291 94.6494C159.796 94.745 160.08 94.8003 160.41 95.2655C160.787 95.8011 160.845 96.6435 160.85 97.2948C160.548 98.4666 160.276 99.6535 159.844 100.78C158.463 104.376 156.007 107.577 152.828 109.506C150.937 110.652 149.162 111.118 146.987 111.012C147.356 107.768 147.573 104.678 147.349 101.411L147.605 101.416C151.116 101.441 154.4 99.7641 156.95 97.2319C157.767 96.4197 158.494 95.4893 159.291 94.6519V94.6494Z" fill="#DE6511"/>
<path d="M144.839 90.7141C144.89 91.0837 144.895 91.378 145.126 91.6697C145.257 91.8306 145.284 92.1047 145.335 92.3059C145.503 92.9848 145.601 93.88 145.873 94.5011L146.411 97.7726C146.718 99.9805 146.904 102.234 146.946 104.464C147.102 112.787 144.027 121.269 139.438 127.883C135.973 132.879 131.014 137.73 125.039 138.665C121.722 139.186 118.287 138.213 115.604 136.058C113.502 134.37 111.802 131.725 110.982 129.064C110.786 128.428 110.618 127.772 110.505 127.113C110.429 126.681 110.439 126.092 110.14 125.763L110.12 125.205L110.15 125.081C110.452 125.25 110.615 125.755 110.794 126.067C111.035 126.487 111.319 126.864 111.639 127.216C112.909 128.612 114.817 129.203 116.603 129.203C119.15 129.203 121.639 128.265 123.905 127.096C127.813 125.079 131.137 122.386 134.182 119.112C139.249 113.67 143.061 106.413 144.314 98.7986C144.759 96.0878 144.839 93.45 144.834 90.7065L144.839 90.7141Z" fill="#B9430E"/>
<path d="M126.636 64.5425C127.554 64.9876 128.572 66.3379 129.314 67.0898C133.03 70.8667 136.629 74.5909 139.601 79.1021C140.187 79.9898 140.863 80.9453 141.326 81.9084L141.346 81.9738C141.575 82.8891 142.194 83.7969 142.583 84.6594C143.461 86.6007 144.291 88.64 144.839 90.7171C144.844 93.4605 144.764 96.0959 144.319 98.8091C143.066 106.423 139.254 113.681 134.187 119.122C131.139 122.396 127.815 125.089 123.91 127.106C121.644 128.275 119.152 129.213 116.607 129.213C114.822 129.213 112.914 128.622 111.644 127.227C111.322 126.875 111.04 126.498 110.799 126.078C110.62 125.766 110.457 125.26 110.155 125.092C110.246 124.001 110.615 122.859 110.985 121.843C112.78 116.922 116.336 112.677 119.386 108.588L122.889 103.506C126.774 97.2903 129.389 90.0733 129.676 82.5421C129.865 77.5883 129.271 72.6773 127.996 67.9146C127.803 67.1879 127.634 66.0035 127.287 65.3723C127.124 65.0756 126.857 64.799 126.636 64.545V64.5425Z" fill="#DE6511"/>
<path d="M32.1445 0.909765C33.8017 -0.143858 35.7228 -0.191642 37.566 0.306252C41.8987 1.47555 44.6698 5.03374 47.9941 7.89537C49.5054 9.19794 51.2229 10.2943 52.958 11.2197C53.4936 11.5063 54.414 12.1149 54.9823 12.2105C55.1885 12.2457 55.9479 11.8861 56.2119 11.8031C57.5044 11.3932 58.8045 10.9959 60.1271 10.7142C64.1782 9.84921 68.3248 9.48963 72.4513 9.68829C77.2341 9.91963 81.8082 10.7595 86.2666 12.6706C86.4074 12.731 86.6538 12.8869 86.7871 12.8341C87.5163 12.5424 88.2883 12.3739 89.0251 12.1048C90.984 11.3957 92.8372 10.4829 94.6151 9.35134C99.3048 6.36901 103.079 1.90054 108.516 0.389254C110.422 -0.14133 112.512 -0.118693 114.327 0.77148C114.714 0.960076 115.104 1.17882 115.454 1.44034C116.625 2.18216 117.9 3.50486 118.524 4.82252C119.522 6.15275 119.646 7.8853 120.06 9.45442C120.815 11.3932 121.303 13.2968 121.567 15.3763C122.072 18.4366 120.81 21.7132 119.185 24.1825C116.819 27.7809 113.487 30.4992 109.358 31.2435L107.271 31.5076C108.584 34.4623 109.977 37.3742 111.088 40.4269C112.175 43.4067 112.964 46.726 114.4 49.5248L114.46 49.6027C114.523 49.8944 114.508 50.0026 114.727 50.2012L106.519 49.1476C101.487 48.6296 96.5136 48.5416 91.4642 48.7528C83.6564 49.0797 76.1 50.1912 68.6517 52.7913C68.873 53.4878 69.567 54.2221 69.6047 54.9538L69.7581 55.2103L70.2686 55.1701C70.3994 56.0879 70.598 56.9831 70.5452 57.9135L70.1831 58.0191L70.4924 58.1876C70.3516 59.797 69.826 61.2354 68.6291 62.289C67.9954 62.8472 67.153 63.3476 66.3961 63.6871C65.2318 64.1925 64.1732 64.4289 62.9134 64.4113L62.8228 64.4566C61.9477 64.3987 61.0953 64.2428 60.2478 64.0014C59.1842 63.6795 58.1356 63.1867 57.2303 62.5027C56.7802 62.1658 56.3929 61.693 55.8825 61.4667C55.7316 61.3938 55.6864 61.3007 55.5807 61.1649C55.8448 60.7274 55.6612 59.7844 55.626 59.2639L55.6914 55.922C55.3041 55.839 54.942 55.5926 54.6 55.3939C53.6721 54.8507 52.8172 54.2045 52.0251 53.4577C50.9136 52.4065 49.9882 51.2624 49.8952 49.6178C48.0897 49.9825 46.9883 50.7167 45.7486 52.1475C40.4579 49.0898 34.5737 47.3396 28.6341 46.5274C29.5444 45.1594 30.8118 44.0706 31.6718 42.6901C32.6625 41.1033 33.4144 39.3129 34.2392 37.6231L38.0438 30.1723L39.359 27.6477L38.8309 27.6049C38.4437 27.6954 37.9256 27.63 37.5334 27.5923C34.3473 27.2805 30.9828 25.128 28.9409 22.538C26.6074 19.5757 26.4163 16.4551 26.7205 12.7637L27.2059 10.4075C27.4975 9.26583 27.8999 8.17952 28.3123 7.08315C28.1865 6.32625 28.35 5.68252 28.6869 5.01866L28.7121 4.93315C29.2351 3.41432 30.7439 1.5686 32.1395 0.912282L32.1445 0.909765Z" fill="#FFA52E"/>
<path d="M41.041 29.9359C40.8398 29.2091 41.1164 28.6836 41.4408 28.0474C42.5422 25.8924 44.6017 24.0366 46.8196 23.3451C47.9989 22.9779 49.4825 22.8647 50.6015 23.5035C51.6803 24.122 52.1807 25.4573 52.4799 26.6492C53.008 28.7515 52.6786 31.5075 52.1857 33.5996C52.0801 34.0497 52.0147 34.5879 51.7985 34.9902C51.7406 35.0983 51.6652 35.1864 51.5898 35.2794C51.7432 34.3892 51.7658 33.4161 51.6753 32.5158C51.4867 30.6676 50.6694 28.8646 49.2814 27.7079C48.2831 26.8756 47.0182 26.4657 45.7584 26.6467C43.7115 26.9409 42.2706 28.2335 41.0435 29.9333L41.041 29.9359Z" fill="#DE6511"/>
<path d="M115.451 1.44051C116.623 2.18233 117.897 3.50503 118.521 4.82269L118.393 5.01884C117.037 3.46229 115.534 2.42375 113.489 2.34328C110.628 2.23264 108.264 3.70367 106.237 5.74805C104.661 7.33728 103.569 9.56273 102.523 11.5719C101.12 14.2726 99.8803 17.5064 96.8451 18.4393C96.3699 18.5852 95.8267 18.736 95.3313 18.721C94.9642 18.7109 93.7119 18.4795 93.4177 18.2557C92.8042 17.7905 92.4697 16.9532 91.7531 16.5785C91.6625 16.6011 91.4966 16.3975 91.4211 16.3245C90.3575 15.3162 89.3793 14.4712 88.1496 13.7043C88.308 13.5635 88.8361 13.9683 89.0423 14.0865C91.5343 15.5324 93.7849 16.2818 96.5032 15.0144C98.0974 14.2701 99.2516 12.8619 100.313 11.4411C103.24 7.52588 105.681 3.25358 110.449 1.71715C111.578 1.35253 112.765 1.31229 113.934 1.4003C114.417 1.43551 114.898 1.56123 115.378 1.45813L115.448 1.44051H115.451Z" fill="#DE6511"/>
<path d="M28.6916 5.01898L28.7168 4.93346C29.2398 3.41464 30.7486 1.56891 32.1442 0.912598C32.8156 0.967919 33.4971 0.917635 34.1634 1.01571C36.58 1.36775 38.7602 3.08524 40.3117 5.01646C41.2848 6.22599 42.0292 7.61153 42.7207 9.01971C43.2236 10.0406 43.6964 11.1571 44.3979 12.0423C45.4314 13.3448 47.0081 14.1998 48.6049 14.3331C49.3115 14.3909 50.1866 14.4312 50.8705 14.2099C51.3659 14.0489 51.8739 13.7246 52.3391 13.4756L52.3718 13.5988C51.3533 14.1873 50.3274 14.7958 49.3844 15.52L46.9779 17.5317C46.4624 18.017 45.9444 18.5979 45.3887 19.0203L45.4415 18.8016C44.7927 18.2106 44.1087 17.7505 43.5656 17.0263C42.1323 15.1126 41.6218 12.7388 40.9202 10.4631C40.118 7.8655 38.8155 5.67278 36.6831 4.10617C35.5515 3.27384 34.3998 2.80109 33.0193 3.10033C31.2063 3.49261 29.8886 4.63173 28.8626 6.24611L28.317 7.09102C28.1912 6.33412 28.3547 5.69036 28.6916 5.0265V5.01898Z" fill="#B9430E"/>
<path d="M28.6916 5.01865L28.8123 4.99599C29.1694 4.91553 29.7603 4.03542 30.0596 3.74624C30.8341 2.9994 31.9908 2.31542 32.9941 2.01115L33.1023 1.97846C33.7183 1.80495 34.4979 1.90053 35.1014 2.09415L35.2397 2.13688C37.9354 3.00442 39.8766 5.34806 41.139 7.94063C42.605 10.9506 43.0652 14.5817 45.5094 16.953C45.7281 17.1642 46.0852 17.5364 46.3719 17.6269C46.6108 17.7023 46.7491 17.4811 46.9804 17.5288C46.4649 18.0142 45.9469 18.595 45.3912 19.0175L45.444 18.7987C44.7952 18.2078 44.1112 17.7476 43.5681 17.0234C42.1348 15.1098 41.6243 12.736 40.9227 10.4602C40.1205 7.86265 38.818 5.66993 36.6856 4.10332C35.554 3.27099 34.4023 2.79824 33.0218 3.09748C31.2087 3.48976 29.8911 4.62888 28.8651 6.24326L28.3195 7.08817C28.1937 6.33127 28.3572 5.68751 28.6941 5.02365L28.6916 5.01865Z" fill="#A63106"/>
<path d="M28.8627 6.23848C29.8887 4.6241 31.2064 3.48498 33.0194 3.0927C34.3999 2.79346 35.5541 3.26621 36.6832 4.09854C38.8131 5.66766 40.1181 7.86041 40.9203 10.4555C41.6244 12.7312 42.1323 15.105 43.5657 17.0186C44.1088 17.7428 44.7928 18.203 45.4416 18.7939L45.3888 19.0127C42.9999 21.5424 41.036 24.5323 39.3638 27.6454L38.8357 27.6026L40.1081 25.4023C39.0092 24.4996 37.8726 23.3202 37.1081 22.0805C35.8785 20.094 35.7201 17.6599 36.5046 15.447C36.7838 14.6549 37.1987 13.8779 37.3496 13.043L37.3772 12.8871C37.4853 12.2937 37.4778 11.6575 37.4175 11.059C37.2515 9.40939 36.2833 7.87549 35.0713 6.89228C33.8995 5.94175 32.1921 5.5017 30.7462 5.73304L30.6003 5.75818C30.0019 5.85625 29.4411 6.04737 28.8627 6.23596V6.23848Z" fill="#EA6E53"/>
<path d="M41.041 29.9358C42.2681 28.2359 43.709 26.9409 45.7559 26.6492C47.0132 26.4681 48.2806 26.878 49.2789 27.7104C50.6669 28.8671 51.4842 30.6675 51.6728 32.5183C51.7658 33.4185 51.7407 34.3917 51.5873 35.2818C51.3484 36.1343 51.0416 36.9465 50.5915 37.6984C49.5932 39.3656 47.9713 40.6179 46.1507 41.0101C44.8506 41.2918 43.2564 41.0026 42.1499 40.1929C40.8926 39.2725 39.8692 37.6003 39.6127 35.9859C39.2732 33.8535 39.8943 31.6834 41.0385 29.9358H41.041Z" fill="#020202"/>
<path d="M49.9526 36.5064C50.2267 35.9884 50.4731 35.5056 50.6516 34.9398L50.6969 34.804C50.9106 34.1452 50.9509 33.4361 50.9785 32.7471C51.0791 34.2986 51.0439 35.4277 50.3826 36.8459L49.9501 36.5064H49.9526Z" fill="#272D2D"/>
<path d="M45.6376 33.9491C45.8313 33.8989 46.0425 33.9039 46.2336 33.9718C46.4951 34.0673 46.7139 34.3163 46.8346 34.5753C46.9302 34.779 46.9427 35.0003 46.8648 35.214C46.7315 35.5786 46.5077 35.7672 46.1833 35.9231C46.0601 35.9508 45.9193 35.9885 45.7935 35.981C45.4918 35.9609 45.2253 35.7823 45.0517 35.5183C44.9034 35.2919 44.9235 34.8946 44.9939 34.6432C45.0945 34.2886 45.3434 34.1076 45.6376 33.9517V33.9491Z" fill="#FBF8F4"/>
<path d="M49.9528 36.5063L50.3853 36.8458C49.4448 38.4954 48.1272 39.8156 46.3292 40.2833C45.4441 40.5121 44.4181 40.5775 43.543 40.2581C43.7492 40.243 43.9378 40.326 44.1315 40.3084C44.8682 40.2405 45.258 39.6974 45.7358 39.1743L45.6679 38.9556C45.8665 38.8625 46.3795 38.9279 46.6209 38.8977C48.1297 38.7142 49.0626 37.731 49.9503 36.5063H49.9528Z" fill="url(#paint0_linear_191_2681)"/>
<path d="M47.3552 28.5504C48.2856 28.6434 49.1054 28.8773 49.724 29.687C50.1213 30.205 50.4784 30.9241 50.4231 31.6132C50.3702 32.2669 49.9654 32.9912 49.475 33.3734C48.9394 33.7883 48.2328 33.8461 47.5991 33.7254C46.9101 33.5972 46.201 33.1395 45.7962 32.5184C45.4265 31.9501 45.2782 31.0826 45.424 30.4087C45.4994 30.0566 45.6805 29.7322 45.8439 29.4204C46.3192 28.9653 46.7568 28.7566 47.3527 28.5479L47.3552 28.5504Z" fill="#FBF8F4"/>
<path d="M40.0353 35.7474L40.0579 34.7063C40.1635 32.4985 41.3705 30.3007 42.8994 28.8624C44.0888 27.7434 45.3738 27.4441 46.9128 27.5673C46.8398 27.673 45.6404 27.6176 45.3688 27.6981L45.2581 27.7333C44.5943 27.9345 43.8173 28.2312 43.3093 28.7467C43.2339 28.8247 43.1685 28.8976 43.0805 28.9579C42.6354 29.2672 42.2456 29.7374 41.9439 30.2026L43.1584 30.9193L43.2339 30.8942L43.3319 30.6603C43.5582 30.6603 43.9355 30.1373 44.1643 29.9738C44.4887 29.7425 44.8583 29.579 45.2104 29.4055C45.3336 29.3452 45.3839 29.3225 45.5272 29.31C45.8466 29.2798 46.1584 28.8397 46.4576 28.6763L46.5808 28.6235L46.6789 28.5179L47.3629 28.5531C46.7644 28.7618 46.3268 28.9705 45.8541 29.4256C45.233 29.3552 44.4409 29.9009 43.9807 30.3083C43.5331 30.7031 43.166 31.1532 42.907 31.7064C42.3512 32.8983 42.2205 34.2487 42.4393 35.5538C42.7134 36.7733 43.2817 37.7817 44.3051 38.4481C44.7225 38.7197 45.2028 38.858 45.6781 38.9611L45.746 39.1798C45.2657 39.7054 44.8784 40.2485 44.1417 40.3139C43.948 40.3315 43.7619 40.2485 43.5532 40.2636C43.0503 40.2988 42.135 39.6526 41.7528 39.3383C40.7017 38.4732 40.2088 37.1153 40.0428 35.7524L40.0353 35.7474Z" fill="url(#paint1_linear_191_2681)"/>
<path d="M28.8628 6.23836C29.4412 6.04977 30.0019 5.85865 30.6004 5.76058L30.7462 5.73544C32.1921 5.5041 33.8995 5.94415 35.0714 6.89467C36.2834 7.8804 37.2515 9.41179 37.4175 11.0614C37.4779 11.6599 37.4854 12.2986 37.3773 12.8895L37.3496 13.0454C37.1987 13.8803 36.7863 14.6573 36.5047 15.4494C35.7227 17.6623 35.8785 20.0964 37.1082 22.0829C37.8751 23.3226 39.0093 24.4995 40.1081 25.4047L38.8358 27.605C38.4485 27.6956 37.9305 27.6302 37.5382 27.5924C34.3522 27.2806 30.9876 25.1281 28.9458 22.5381C26.6122 19.5759 26.4211 16.4552 26.7254 12.7638L27.2107 10.4076C27.5024 9.26595 27.9047 8.17964 28.3171 7.08327L28.8628 6.23836Z" fill="#FA987E"/>
<path d="M91.7558 16.5809C92.4725 16.9556 92.8044 17.7929 93.4205 18.2581C93.7147 18.4819 94.967 18.7133 95.3341 18.7234C95.832 18.7385 96.3727 18.5876 96.8479 18.4417C99.8805 17.5063 101.12 14.275 102.526 11.5743C103.572 9.56514 104.661 7.33969 106.24 5.75046C108.267 3.70608 110.628 2.23505 113.492 2.34569C115.539 2.42616 117.043 3.46215 118.396 5.02121L118.524 4.8251C119.522 6.15533 119.645 7.88788 120.06 9.457C120.815 11.3958 121.303 13.2993 121.567 15.3789C122.072 18.4392 120.81 21.7158 119.185 24.1851C116.819 27.7835 113.487 30.5018 109.358 31.2461L107.271 31.5102L107.241 31.5227C105.501 31.6812 103.426 31.3316 101.902 30.3886C101.462 30.1171 101.103 29.7374 100.668 29.4582L100.61 29.423L98.5528 26.0811C98.1254 25.3896 97.5294 24.6428 97.2829 23.8557C97.2301 23.6168 96.9058 23.1818 96.7323 23.0183C96.169 22.6361 95.573 21.4919 95.1455 20.896C94.5621 20.0838 93.9385 19.2766 93.2646 18.5473C92.9125 17.8458 92.2437 17.1844 91.7483 16.5834L91.7558 16.5809Z" fill="#FA987E"/>
<path d="M121.566 15.3765C122.072 18.4367 120.809 21.7133 119.185 24.1826C116.819 27.7811 113.487 30.4993 109.358 31.2437L107.271 31.5077L107.241 31.5203C105.501 31.6787 103.426 31.3292 101.902 30.3862C101.462 30.1146 101.102 29.7349 100.667 29.4558L100.61 29.4206L98.5527 26.0787C98.1252 25.3872 97.5292 24.6403 97.2828 23.8532C97.8611 24.5623 98.3037 25.4173 98.8242 26.1767C99.297 26.7048 99.8075 27.1273 100.401 27.4944C103.33 29.3049 107.002 29.6192 110.228 28.6612C114.83 27.2957 118.338 23.7552 120.659 19.3973C121.622 18.0696 121.564 16.9732 121.561 15.379L121.566 15.3765Z" fill="#A63106"/>
<path d="M91.7558 16.5809C92.4725 16.9556 92.8044 17.7929 93.4205 18.2581C93.7147 18.4819 94.967 18.7133 95.3341 18.7234C95.832 18.7385 96.3727 18.5876 96.8479 18.4417C99.8805 17.5063 101.12 14.275 102.526 11.5743C103.572 9.56514 104.661 7.33969 106.24 5.75046C108.267 3.70608 110.628 2.23505 113.492 2.34569C115.539 2.42616 117.043 3.46215 118.396 5.02121L118.524 4.8251C119.522 6.15533 119.645 7.88788 120.06 9.457C120.815 11.3958 121.303 13.2993 121.567 15.3789C121.567 16.9732 121.627 18.0696 120.664 19.3973C121.074 15.6983 120.03 10.8023 117.82 7.83508C117.055 6.80912 115.944 6.05726 114.709 5.9265C113.744 5.8234 112.866 6.17291 112.036 6.66326C111.408 7.03291 110.814 7.75964 110.429 8.40087L110.351 8.5266C109.439 10.0454 109.461 11.8937 109.459 13.6338C109.456 17.2548 109.705 21.2656 107.527 24.3209C106.705 25.4726 105.672 26.2798 104.369 26.6947C103.054 27.1121 101.344 26.9059 100.024 26.5011C99.6492 26.3854 99.2167 26.1364 98.8244 26.1817C98.3039 25.4223 97.8613 24.5673 97.2829 23.8582C97.2301 23.6193 96.9058 23.1843 96.7323 23.0208C96.169 22.6386 95.573 21.4944 95.1455 20.8985C94.5621 20.0863 93.9385 19.2791 93.2646 18.5498C92.9125 17.8483 92.2437 17.1869 91.7483 16.5859L91.7558 16.5809Z" fill="#EA6E53"/>
<path d="M91.7556 16.5809C92.4723 16.9556 92.8042 17.7929 93.4203 18.2581C93.7145 18.4819 94.9668 18.7133 95.3339 18.7234C95.8318 18.7385 96.3725 18.5876 96.8477 18.4417C99.8803 17.5063 101.12 14.275 102.526 11.5743C103.572 9.56513 104.661 7.33969 106.24 5.75046C108.267 3.70608 110.628 2.23505 113.492 2.34569C115.539 2.42616 117.043 3.46215 118.395 5.02121L118.524 4.8251C119.522 6.15533 119.645 7.88788 120.06 9.45699C118.579 7.14607 117.226 4.03801 114.372 3.43199C112.398 3.01205 110.414 3.8821 108.817 5.06146C107.474 6.05473 106.29 7.2869 105.355 8.72023C102.963 12.3941 101.341 18.7585 96.644 19.7342C95.95 19.8776 95.2157 19.8197 94.5167 19.7694C95.3037 20.7828 96.1386 21.8641 96.7371 23.0158C96.1738 22.6336 95.5778 21.4894 95.1504 20.8935C94.567 20.0813 93.9433 19.274 93.2694 18.5448C92.9174 17.8432 92.2485 17.1819 91.7531 16.5809H91.7556Z" fill="#A63106"/>
<path d="M93.2696 18.5449C93.9435 19.2742 94.5671 20.0814 95.1505 20.8936C95.578 21.4896 96.174 22.6312 96.7372 23.0159C96.9132 23.1794 97.2351 23.6169 97.2879 23.8533C97.5344 24.6403 98.1329 25.3872 98.5578 26.0787L100.615 29.4206L100.673 29.4558C101.105 29.735 101.465 30.1147 101.907 30.3863C103.431 31.3292 105.506 31.6787 107.246 31.5203L107.276 31.5078C108.589 34.4624 109.982 37.3744 111.093 40.4271C112.179 43.4069 112.969 46.7262 114.405 49.525L114.465 49.6029C114.528 49.8946 114.513 50.0027 114.732 50.2014L106.524 49.1478C101.492 48.6298 96.5185 48.5417 91.4691 48.753C83.6613 49.0799 76.1048 50.1913 68.6566 52.7915C68.8778 53.488 69.5719 54.2223 69.6096 54.954L69.763 55.2105L70.2734 55.1703C70.4042 56.0881 70.6029 56.9833 70.5501 57.9137L70.188 58.0193L70.4972 58.1878C70.3564 59.7972 69.8309 61.2355 68.6339 62.2892C68.0003 62.8474 67.1579 63.3478 66.401 63.6873C65.2367 64.1927 64.178 64.4291 62.9182 64.4115L62.8277 64.4567C61.9526 64.3989 61.1001 64.243 60.2527 64.0016C59.189 63.6797 58.1404 63.1869 57.2352 62.5029C56.7851 62.1659 56.3978 61.6932 55.8873 61.4669C55.7365 61.3939 55.6912 61.3009 55.5856 61.1651C55.8496 60.7276 55.6661 59.7846 55.6309 59.2641L55.6962 55.9221C55.309 55.8392 54.9469 55.5927 54.6049 55.3941C53.677 54.8509 52.822 54.2047 52.0299 53.4578C50.9185 52.4067 49.9931 51.2626 49.9001 49.618L50.0937 48.9667C50.2068 48.6172 50.4608 48.2526 50.6997 47.986C52.0651 46.4672 54.4138 46.2761 56.2645 46.2208C57.4514 45.5117 58.495 44.5385 59.4606 43.5226C62.3977 40.4321 64.2459 36.4616 66.157 32.6067C67.4822 29.9336 68.8552 27.2078 70.8242 25.0025C71.7168 24.0016 72.6146 23.0109 73.6782 22.2138C77.674 19.2264 82.4668 19.1208 86.9906 20.6773C88.6679 21.2557 90.6569 22.2816 92.4322 22.2163C92.9628 22.1961 93.169 22.0302 93.5311 21.6203C93.8756 20.7553 93.4582 19.4326 93.2696 18.5474V18.5449Z" fill="#DE6511"/>
<path d="M68.3572 52.5296C69.1266 52.3133 69.9489 51.7953 70.7159 51.5011C72.3906 50.8624 74.1332 50.3796 75.8583 49.932C79.1046 49.0896 82.4868 48.6068 85.8111 48.2723C92.7112 47.5733 99.6314 47.6688 106.532 48.3402L114.402 49.5296L114.463 49.6076C114.525 49.8993 114.51 50.0074 114.729 50.2061L106.521 49.1524C101.49 48.6344 96.5158 48.5464 91.4665 48.7577C83.6586 49.0846 76.1022 50.196 68.6539 52.7961L68.3546 52.5346L68.3572 52.5296Z" fill="#FEC894"/>
<path d="M100.612 29.4233L100.67 29.4585C101.103 29.7377 101.462 30.1174 101.905 30.3889C103.429 31.3319 105.503 31.6815 107.243 31.523L107.274 31.5105C108.586 34.4652 109.979 37.3771 111.091 40.4298C112.177 43.4096 112.967 46.7289 114.402 49.5277L106.532 48.3383C106.532 41.4558 103.854 35.2145 100.615 29.4233H100.612Z" fill="#B9430E"/>
<path d="M81.3752 26.511C82.9041 26.3928 84.3349 26.6342 85.6601 27.4992C87.443 28.6635 88.7657 30.5369 89.2158 32.7296C89.6282 34.7363 89.3566 37.1704 88.2879 38.9055C87.1488 40.7562 85.547 41.7596 83.5478 42.1946C81.7046 42.4335 79.8463 41.928 78.3376 40.7688C76.7936 39.5819 75.7274 37.7538 75.4407 35.7421C75.1214 33.484 75.5011 31.2309 76.7911 29.3776C77.9403 27.728 79.5018 26.8077 81.3777 26.516L81.3752 26.511Z" fill="#020202"/>
<path d="M86.6508 40.5601C86.5125 40.6205 86.3842 40.6733 86.2384 40.7059C85.4639 40.882 84.7472 41.2189 83.9577 41.3572L83.8118 41.3849C82.0591 41.6741 80.2788 41.1686 78.8656 40.0446C77.3719 38.8577 76.4012 37.1302 76.1498 35.1487C75.8857 33.0892 76.527 31.4748 77.6007 29.8202C77.9628 29.262 78.4456 28.7942 78.9335 28.3617C79.9896 27.4288 81.6316 27.2427 82.9417 27.3785C84.7397 27.5621 86.2309 28.5478 87.365 30.0314C88.665 31.7313 89.1302 33.5494 88.9114 35.727C88.8385 36.4563 88.5267 38.0379 87.9232 38.478L87.8427 38.5208L87.4957 39.0161C87.6214 39.0363 87.7497 38.8954 87.8528 38.82C87.9257 38.9935 87.9232 38.9683 87.8654 39.1318C87.6642 39.6951 87.0758 40.1905 86.6458 40.5601H86.6508Z" fill="url(#paint2_linear_191_2681)"/>
<path d="M86.6511 40.5598C86.5279 40.434 86.4399 40.2857 86.3418 40.1373C85.9898 40.3309 85.7459 40.4818 85.3335 40.4265C85.1298 40.1147 85.0996 39.8582 85.0644 39.486C85.2027 39.1013 85.3561 38.8146 85.6579 38.5481C86.1457 38.1156 86.2991 37.9647 86.9328 38.0451C87.3125 38.0929 87.5991 38.2011 87.8431 38.5229L87.496 39.0183C87.6218 39.0384 87.75 38.8976 87.8531 38.8222C87.926 38.9957 87.9235 38.9705 87.8657 39.134C87.6645 39.6972 87.0761 40.1926 86.6461 40.5623L86.6511 40.5598Z" fill="#FBF8F4"/>
<path d="M79.5978 30.4261C79.9473 29.5158 80.4225 28.8344 81.3127 28.4723C82.047 28.173 82.9422 28.3164 83.6362 28.6785C84.3001 29.023 84.6949 29.5561 85.0218 30.2375L85.1701 30.5217L85.3713 30.4236C85.8843 30.9718 86.2112 31.5124 86.4626 32.2417C86.9304 33.5996 86.9807 35.1989 86.3872 36.5216C85.8617 37.6934 84.8608 38.9004 83.684 39.3103C82.5348 39.7101 81.0386 39.3279 80.0051 38.7168C78.871 38.0454 77.9306 36.3858 77.6439 35.053C77.4025 33.929 77.7319 32.4957 78.3052 31.5326C78.612 31.0171 79.0244 30.5544 79.6003 30.4261H79.5978Z" fill="#020202"/>
<path d="M79.2381 33.7403C79.4443 33.6648 79.6203 33.6171 79.8391 33.6548C80.1358 33.7076 80.4351 33.9012 80.6036 34.1677C80.7796 34.4444 80.8097 34.7461 80.7494 35.0705C80.6714 35.4879 80.4124 35.6916 80.0906 35.9003C79.8668 36.011 79.5499 36.021 79.3085 35.9758C79.0571 35.928 78.8433 35.7243 78.7075 35.503C78.524 35.2013 78.4963 34.814 78.5919 34.4695C78.6874 34.1275 78.9716 33.9213 79.2381 33.7378V33.7403Z" fill="#FBF8F4"/>
<path d="M79.5976 30.4261C79.9472 29.5158 80.4224 28.8344 81.3126 28.4723C82.0469 28.173 82.9421 28.3164 83.6361 28.6785C84.3 29.023 84.6948 29.5561 85.0217 30.2375L85.17 30.5217C85.2153 30.8008 85.2354 31.0799 85.2404 31.3616C85.253 32.0883 84.9965 32.6365 84.5288 33.1445C83.9932 33.7228 83.186 34.0899 82.419 34.0774C81.5138 34.0598 80.7468 33.6323 80.1534 32.9156C79.5046 32.1336 79.5247 31.3943 79.6002 30.4236L79.5976 30.4261Z" fill="#FBF8F4"/>
<path d="M56.2645 46.2179C57.0466 46.2657 57.8261 46.3084 58.6006 46.4317C58.842 46.4694 59.1438 46.4794 59.355 46.6102C60.562 46.7862 62.2996 47.3646 63.0464 48.471C63.2954 48.8407 63.4689 49.2279 63.4588 49.6856L63.5745 49.3888C65.3976 49.5649 66.7404 50.4274 67.9097 51.9487L68.1838 52.3536L68.3573 52.522L68.6566 52.7836C68.8778 53.4801 69.5719 54.2144 69.6096 54.9461L69.763 55.2026L70.2734 55.1624C70.4042 56.0802 70.6029 56.9754 70.5501 57.9058L70.188 58.0115L70.4972 58.1799C70.3564 59.7893 69.8309 61.2277 68.6339 62.2813C68.0003 62.8395 67.1579 63.3399 66.401 63.6794C65.2367 64.1848 64.178 64.4212 62.9182 64.4036L62.8277 64.4489C61.9526 64.391 61.1001 64.2351 60.2527 63.9937C59.189 63.6718 58.1404 63.179 57.2352 62.495C56.7851 62.1581 56.3978 61.6853 55.8873 61.459C55.7365 61.3861 55.6912 61.293 55.5856 61.1573C55.8496 60.7197 55.6661 59.7767 55.6309 59.2562L55.6962 55.9143C55.309 55.8313 54.9469 55.5848 54.6049 55.3862C53.677 54.843 52.822 54.1968 52.0299 53.45C50.9185 52.3988 49.9931 51.2547 49.9001 49.6101L50.0937 48.9589C50.2068 48.6093 50.4608 48.2447 50.6997 47.9782C52.0651 46.4593 54.4138 46.2682 56.2645 46.2129V46.2179Z" fill="#FBF8F4"/>
<path d="M68.1835 52.359L68.357 52.5275L68.6563 52.789C68.8776 53.4856 69.5716 54.2198 69.6093 54.9516L69.7627 55.2081L70.2732 55.1678C70.4039 56.0857 70.6026 56.9809 70.5498 57.9113L70.1877 58.0169L70.497 58.1854C70.3562 59.7947 69.8306 61.2331 68.6337 62.2867C68 62.845 67.1576 63.3454 66.4007 63.6848C65.2364 64.1903 64.1778 64.4266 62.9179 64.409L62.8274 64.4543C61.9523 64.3965 61.0999 64.2406 60.2524 63.9992C59.1888 63.6773 58.1402 63.1844 57.2349 62.5005C56.7848 62.1635 56.3976 61.6908 55.8871 61.4644C55.7362 61.3915 55.691 61.2985 55.5853 61.1627C55.8494 60.7251 55.6658 59.7822 55.6306 59.2616L55.696 55.9197L55.9801 56.0304V59.073C56.8401 60.4309 58.457 61.6002 59.9507 62.0026C61.9398 62.5407 64.5348 62.4879 66.3428 61.3312C67.6177 60.5139 68.4023 59.2239 68.7569 57.7051C68.9807 56.747 68.9807 55.6079 68.8323 54.6347C68.7116 53.8477 68.4325 53.1034 68.1861 52.354L68.1835 52.359Z" fill="#D9AD8C"/>
<path d="M69.7629 55.2077L70.2734 55.1675C70.4041 56.0853 70.6028 56.9805 70.55 57.9109L70.1879 58.0165L70.115 58.0694C70.0999 57.0736 69.944 56.1784 69.7629 55.2052V55.2077Z" fill="#A63106"/>
<path d="M55.696 55.9245L55.9801 56.0351V59.0778C55.9902 59.636 55.9374 60.325 56.1159 60.8456C57.5367 62.382 58.9448 62.9805 60.8082 63.6997C61.8165 63.8807 62.8148 64.0115 63.8383 63.9913C65.3873 63.8958 67.0998 63.3602 68.2841 62.2588C69.466 61.1599 70.0167 59.7065 70.1148 58.0694L70.1877 58.0166L70.497 58.1851C70.3562 59.7945 69.8306 61.2328 68.6337 62.2865C68 62.8447 67.1576 63.3451 66.4007 63.6846C65.2364 64.19 64.1778 64.4264 62.9179 64.4088L62.8274 64.454C61.9523 64.3962 61.0999 64.2403 60.2524 63.9989C59.1888 63.677 58.1402 63.1842 57.2349 62.5002C56.7848 62.1632 56.3976 61.6905 55.8871 61.4642C55.7362 61.3912 55.691 61.2982 55.5853 61.1624C55.8494 60.7249 55.6658 59.7819 55.6306 59.2614L55.696 55.9194V55.9245Z" fill="#942B09"/>
<path d="M56.2645 46.2178C57.0466 46.2656 57.8261 46.3083 58.6006 46.4315C58.842 46.4692 59.1438 46.4793 59.355 46.61C60.562 46.7861 62.2996 47.3644 63.0464 48.4709C63.2954 48.8405 63.4689 49.2278 63.4588 49.6854C63.2401 51.1087 61.7464 52.3861 60.7129 53.1807C59.7372 53.9326 58.7087 54.6216 57.64 55.2075C57.1472 55.4791 56.4079 55.6778 55.9804 56.0323L55.6962 55.9217C55.309 55.8387 54.9469 55.5922 54.6049 55.3936C53.677 54.8504 52.822 54.2042 52.0299 53.4574C50.9185 52.4062 49.9931 51.2621 49.9001 49.6175L50.0937 48.9662C50.2068 48.6167 50.4608 48.2521 50.6997 47.9856C52.0651 46.4667 54.4138 46.2756 56.2645 46.2203V46.2178Z" fill="#942B09"/>
<path d="M54.8186 47.0782C55.7565 47.048 57.0038 46.9525 57.7481 47.6893C58.0725 48.0111 58.2485 48.3833 58.251 48.8586C58.256 49.4118 58.0247 49.7865 57.6626 50.1561C56.8202 51.0161 55.6434 51.3883 54.4992 51.3506C53.6367 51.3204 52.8169 50.8426 52.2436 50.1636C51.9066 49.7638 51.7331 49.4495 51.7608 48.8938C51.7683 48.768 51.7935 48.6549 51.8236 48.5342C51.9167 48.3104 52.0273 48.1142 52.1807 47.9281C52.7943 47.1888 53.9611 47.1385 54.8186 47.0782Z" fill="#EA6E53"/>
<path d="M54.8186 47.0781C55.2914 47.141 55.7566 47.0882 56.0734 47.5333C56.2394 47.7646 56.1991 47.9608 56.1489 48.2248C55.6308 48.8409 54.9292 49.2307 54.1472 49.2709C53.3878 49.3111 52.5555 49.2684 51.9671 48.685L51.8262 48.5341C51.9193 48.3103 52.0299 48.1141 52.1833 47.9281C52.7969 47.1888 53.9636 47.1385 54.8211 47.0781H54.8186Z" fill="#ECD2BA"/>
<path d="M59.3574 46.6104C60.5644 46.7864 62.302 47.3647 63.0488 48.4712C63.2978 48.8408 63.4713 49.2281 63.4612 49.6857C63.2424 51.109 61.7487 52.3864 60.7152 53.181C59.7396 53.9329 58.7111 54.6219 57.6424 55.2078C57.1495 55.4794 56.4102 55.6781 55.9828 56.0326L55.6986 55.922C55.3114 55.839 54.9493 55.5926 54.6073 55.3939C53.6794 54.8508 52.8244 54.2045 52.0323 53.4577C50.9208 52.4066 49.9954 51.2624 49.9024 49.6178L50.096 48.9665L50.1866 49.12C50.1916 49.467 50.179 49.7863 50.3601 50.0906C51.6903 52.3311 53.5109 53.7695 55.8218 54.6898C57.6399 54.0435 60.2199 52.1752 61.0849 50.3043C61.6432 49.0973 61.1654 47.9507 60.1595 47.2491C59.8754 47.0504 59.4705 46.9523 59.3599 46.6104H59.3574Z" fill="#741D12"/>
<path d="M68.654 52.7887C76.0997 50.1861 83.6587 49.0771 91.4665 48.7502C96.5159 48.539 101.49 48.627 106.522 49.145L114.729 50.1986C116.18 53.5079 118.614 56.2035 120.998 58.7684L122.399 60.2722C122.65 60.5438 122.987 60.8304 123.161 61.1649L125.643 63.6393C125.929 63.9159 126.294 64.3836 126.636 64.5395C126.855 64.7934 127.121 65.0676 127.287 65.3668C127.634 65.998 127.8 67.1823 127.996 67.9091C129.271 72.6717 129.865 77.5828 129.676 82.5365C129.387 90.0678 126.772 97.2847 122.889 103.501L119.386 108.583C116.336 112.672 112.78 116.916 110.985 121.837C110.615 122.851 110.243 123.995 110.155 125.086L110.125 125.21L110.145 125.768L110.133 126.308C110.12 129.852 111.837 133.03 114.111 135.474L107.578 137.722C96.0406 141.067 84.2018 141.859 72.3329 140.508C67.1829 139.923 61.7312 138.909 56.8831 136.935C48.6904 133.601 41.9261 127.883 37.1157 120.024C36.3286 118.737 35.4208 117.417 34.8274 116.014C35.275 116.346 35.5793 116.818 35.9716 117.218C36.6882 117.957 37.4979 118.626 38.3277 119.217C38.7955 119.273 39.2204 119.212 39.6831 119.144L39.8667 118.863C40.1257 119.283 40.8977 119.582 41.3377 119.791C42.4995 120.344 44.1767 120.791 45.4014 120.283C45.6302 119.972 45.6226 119.758 45.6729 119.381C45.9269 119.262 47.32 119.881 47.7475 119.964C48.5924 119.665 47.921 118.83 48.0115 118.179C48.0216 118.113 48.175 117.912 48.2177 117.844C48.4264 117.769 48.5949 117.708 48.7659 117.55L48.6578 116.147C48.0467 114.032 46.9604 112.186 45.766 110.398C46.382 110.59 47.0006 110.743 47.6444 110.703C48.2127 110.668 48.4767 110.549 48.8539 110.097C48.5798 109.471 48.1574 108.94 47.7626 108.397C47.6871 107.778 47.325 107.293 47.0409 106.762C46.543 105.829 46.0199 104.909 45.605 103.931C44.1767 100.559 43.3519 97.1138 42.8716 93.46C42.7887 92.8289 42.6478 92.1801 42.5976 91.5515C42.5322 90.7719 42.6378 89.9522 42.6051 89.1626C42.6051 87.0453 43.1281 84.8751 43.5632 82.8232C43.2237 83.052 42.8038 85.2196 42.6956 85.71C42.1927 88.031 41.8532 90.4576 41.8306 92.8439C40.5154 92.424 39.2682 91.7249 38.0813 90.9957L38.0738 90.9228C33.032 87.5633 30.3992 82.2775 28.2718 76.5392C27.7538 75.1386 27.359 73.7002 26.7932 72.3197L28.7244 67.7532C28.8401 67.381 28.9181 67.0214 28.9859 66.6367C28.1461 65.3617 27.4495 64.024 26.9868 62.5404L28.2492 61.7633C30.4419 65.2511 33.8492 67.5947 37.6991 68.3818C40.0779 68.8696 43.7568 68.6433 45.7811 67.1597C46.885 66.35 47.7877 65.3944 48.5471 64.2176L48.5949 64.1422L50.1439 64.3157C50.6116 64.3207 51.0567 64.2704 51.5144 64.1799C53.174 63.8479 54.9015 62.9829 55.8797 61.4641C56.3902 61.6904 56.78 62.1607 57.2276 62.5001C58.1353 63.1841 59.1814 63.677 60.2451 63.9988C61.09 64.2402 61.945 64.3961 62.8201 64.454L62.9106 64.4087C64.1704 64.4238 65.2266 64.1874 66.3933 63.6845C67.1528 63.345 67.9926 62.8446 68.6263 62.2864C69.8233 61.2328 70.3488 59.7944 70.4896 58.185L70.1803 58.0166L70.5424 57.911C70.5978 56.9805 70.3966 56.0828 70.2659 55.1675L69.7554 55.2077L69.602 54.9513C69.5643 54.2195 68.8702 53.4852 68.6489 52.7887H68.654Z" fill="url(#paint3_linear_191_2681)"/>
<path d="M70.4969 58.1851L77.5706 59.9604L82.0843 61.6477C85.0616 63.1238 87.9056 64.5068 90.6918 66.3802C91.4713 66.9032 92.2911 67.4212 93.0128 68.0323C88.1521 69.9308 83.2184 70.2502 78.1338 69.3248C74.8523 68.7263 71.1457 67.6802 68.3822 65.6233C67.6907 65.1103 66.8885 64.4213 66.4007 63.6845C67.1601 63.345 68 62.8447 68.6336 62.2864C69.8306 61.2328 70.3561 59.7944 70.4969 58.1851Z" fill="#DE6511"/>
<path d="M70.2733 55.1675C76.248 54.3729 82.1398 54.808 88.0567 55.8389C93.1463 56.7266 98.1629 58.0543 103.041 59.8472C101.485 62.7239 98.9626 64.9016 96.2619 66.4858C95.2912 67.0541 94.2753 67.4841 93.2946 68.0147L94.4865 69.0407L94.4538 69.1413L93.0155 68.0298C92.2938 67.4187 91.474 66.9007 90.6945 66.3777C87.9083 64.5068 85.0643 63.1213 82.087 61.6452L77.5732 59.9579L70.4996 58.1825L70.1903 58.0141L70.5524 57.9085C70.6077 56.9781 70.4066 56.0803 70.2758 55.165L70.2733 55.1675Z" fill="#DE6511"/>
<path d="M70.5499 57.9111C72.9791 58.2305 75.2321 58.7887 77.5883 59.4928C79.1851 60.0108 80.9604 60.5339 82.4466 61.3436C85.1473 62.4274 87.7901 64.0468 90.2067 65.7265C91.2477 66.4507 92.3315 67.1724 93.2946 68.0174L94.4865 69.0433L94.4538 69.1439L93.0155 68.0325C92.2938 67.4214 91.474 66.9034 90.6945 66.3803C87.9083 64.5095 85.0643 63.1239 82.087 61.6478L77.5732 59.9605L70.4996 58.1852L70.1903 58.0167L70.5524 57.9111H70.5499Z" fill="#FEC894"/>
<path d="M68.6538 52.7887C76.0996 50.1861 83.6585 49.0771 91.4664 48.7502C96.5157 48.539 101.49 48.627 106.521 49.145C106.34 51.7552 105.986 54.3503 104.917 56.7417C104.457 57.7726 103.868 58.6528 103.245 59.5731L107.837 61.7457C107.565 61.8262 103.604 60.0735 103.041 59.8472C98.1628 58.0518 93.1462 56.7266 88.0566 55.8389C82.1397 54.8079 76.248 54.3729 70.2732 55.1675L69.7628 55.2077L69.6094 54.9513C69.5717 54.2195 68.8776 53.4852 68.6564 52.7887H68.6538Z" fill="#DE6511"/>
<path d="M69.6069 54.9513C75.5464 53.7191 81.8279 54.1215 87.7599 55.1776C93.0557 56.1206 98.2106 57.579 103.242 59.5756L107.834 61.7483C107.562 61.8287 103.602 60.076 103.039 59.8497C98.1603 58.0543 93.1437 56.7291 88.0541 55.8415C82.1372 54.8105 76.2455 54.3754 70.2707 55.17L69.7603 55.2103L69.6069 54.9538V54.9513Z" fill="#FEC894"/>
<path d="M109.941 77.7642C111.483 78.7348 112.71 80.3919 113.15 82.2578L113.366 83.4346L113.391 83.6031C114.176 89.1201 111.613 94.851 108.611 99.156C105.757 103.247 101.734 106.727 97.5493 109.152C95.4144 110.389 93.1311 111.4 90.8327 112.24C89.7892 112.622 88.6903 112.881 87.6769 113.331C87.2645 113.514 86.2159 114.007 85.9846 114.392L83.8471 115.851C83.817 114.52 83.7742 113.14 83.9678 111.822L83.8949 111.807L80.7717 114.01C80.8296 112.074 81.1188 110.389 81.8933 108.621C81.1439 108.872 80.4197 109.25 79.688 109.556C79.3912 109.68 79.0518 109.876 78.7299 109.868L78.5866 109.858C81.7223 105.832 83.5655 100.783 85.4389 96.0077L85.64 96.0001C86.8873 95.8317 88.4036 94.9918 89.5729 94.4662C94.1696 92.4017 98.4092 89.5653 102.274 86.2032C104.238 84.4958 106.159 82.6501 107.826 80.6107C108.551 79.7256 109.199 78.7398 109.863 77.8019L109.939 77.7692L109.941 77.7642Z" fill="#FFA52E"/>
<path d="M66.3103 70.3056C66.9365 70.63 67.6053 70.8135 68.2617 71.0524L71.068 72.1035C73.6681 73.0339 76.3034 73.821 79.0192 74.2636C86.0023 75.4027 92.8672 74.4974 99.5057 72.0306C105.121 69.9435 111.493 65.915 114.161 59.9806C114.45 59.3368 114.666 58.6478 114.807 57.9488C114.893 57.5263 114.915 56.9529 115.094 56.5732C115.3 58.2706 115.275 60.0434 115.164 61.7458C114.915 65.6007 114.189 69.5336 112.632 73.0465C111.883 74.7413 110.95 76.235 109.944 77.7614L109.868 77.7941C106.489 75.6516 102.259 76.4588 98.6709 77.4471C95.7011 78.2643 92.8294 79.499 89.9301 80.5627C85.3686 82.2399 80.3896 83.4142 75.5515 83.0924C74.005 82.9893 72.4535 82.6774 70.9422 82.3179C69.8383 82.0538 68.7671 81.7269 67.7009 81.317L64.7764 80.1126C63.7857 79.6801 62.7647 79.1394 61.6684 79.1696C60.2426 79.2073 58.8973 80.0145 57.5821 80.5325C54.6727 81.6792 51.361 82.1343 48.2755 81.6817C46.8875 81.478 45.5572 81.0505 44.2144 80.6381L43.7769 82.2877C43.7266 82.4813 43.6486 82.6473 43.5606 82.8233C43.2211 83.0521 42.8012 85.2197 42.6931 85.7101C42.1902 88.0311 41.8507 90.4577 41.828 92.844C40.5129 92.4241 39.2657 91.725 38.0788 90.9958L38.0712 90.9229C33.0294 87.5634 30.3966 82.2776 28.2693 76.5393C27.7513 75.1386 27.3565 73.7003 26.7907 72.3198L28.7219 67.7532C28.8376 67.3811 28.9155 67.0215 28.9834 66.6367C28.1435 65.3618 27.447 64.0241 26.9843 62.5404L28.2466 61.7634C30.4394 65.2512 33.8467 67.5948 37.6966 68.3819C40.0754 68.8697 43.7543 68.6434 45.7785 67.1598C46.8824 66.3501 47.7852 65.3945 48.5446 64.2177L48.5924 64.1423L50.1414 64.3157C50.6091 64.3208 51.0542 64.2705 51.5118 64.1799C53.1715 63.848 54.899 62.983 55.8772 61.4642C56.3877 61.6905 56.7774 62.1607 57.225 62.5002C58.1328 63.1842 59.1789 63.677 60.2426 63.9989C61.0875 64.2403 61.9425 64.3962 62.8176 64.4541C63.6951 66.687 64.877 68.4372 66.2978 70.3031L66.3103 70.3056Z" fill="#ECD2BA"/>
<path d="M55.8874 61.4692C56.3979 61.6956 56.7877 62.1658 57.2353 62.5053C58.143 63.1892 59.1891 63.6821 60.2528 64.004C61.0977 64.2454 61.9527 64.4013 62.8278 64.4591C63.7054 66.6921 64.8873 68.4422 66.308 70.3081C63.6727 72.3198 59.7574 72.8026 56.6343 72.2368C55.7516 72.0759 54.0769 71.6811 53.4131 71.0323C51.9797 68.9049 50.8507 66.8656 50.1516 64.3208C50.6193 64.3258 51.0644 64.2755 51.5221 64.185C53.1817 63.8531 54.9093 62.9881 55.8874 61.4692Z" fill="#D9AD8C"/>
<path d="M55.852 62.6612L57.0339 62.7568C57.3457 63.1717 57.7028 63.6645 58.0951 63.9914C58.6357 64.439 59.5108 64.771 59.9081 65.3543C59.8779 65.46 59.8502 65.553 59.7849 65.641C59.2467 66.3753 58.1277 66.5664 57.3256 66.7072L56.4404 66.7122C55.4069 66.7047 53.9409 66.4331 53.1865 65.6134C53.189 65.5077 53.1714 65.3996 53.1966 65.299C53.262 65.0501 55.5201 62.9956 55.852 62.6587V62.6612Z" fill="#FBF8F4"/>
<path d="M28.2541 61.7661C30.4469 65.2539 33.8542 67.5975 37.7041 68.3846C40.0829 68.8724 43.7618 68.6461 45.786 67.1625C46.8899 66.3528 47.7927 65.3972 48.5521 64.2204L48.5999 64.145L50.1489 64.3185C50.848 66.8632 51.977 68.9001 53.4103 71.0299C49.5932 72.2772 45.7307 73.7684 41.6797 73.5597C36.5272 73.2931 32.3806 70.6477 28.9884 66.6394C28.1485 65.3645 27.452 64.0267 26.9893 62.5431L28.2516 61.7661H28.2541Z" fill="#B9430E"/>
<path d="M26.7981 72.3224L28.7293 67.7559C29.0461 68.1783 29.5214 68.6687 29.6698 69.1892C29.803 69.6544 30.2934 70.2227 30.5725 70.6175C33.0569 74.1027 36.5422 76.7632 40.1582 78.7472L43.0727 80.2233L42.9947 80.3214C42.3786 81.1059 42.0165 82.0313 41.5815 82.929L38.8883 88.9565C38.6545 89.5072 38.134 90.327 38.0786 90.923C33.0368 87.5635 30.404 82.2777 28.2767 76.5394C27.7586 75.1387 27.3639 73.7004 26.7981 72.3199V72.3224Z" fill="#FBF8F4"/>
<path d="M43.5656 82.8258C43.6536 82.6498 43.7316 82.4838 43.7819 82.2902L44.2194 80.6406C45.5622 81.053 46.8924 81.478 48.2805 81.6842C51.3634 82.1394 54.6777 81.6817 57.5871 80.535C58.9022 80.017 60.2475 79.2098 61.6733 79.1721C62.7697 79.1419 63.7906 79.6851 64.7814 80.1151L67.7059 81.3196C68.7696 81.7295 69.8433 82.0589 70.9472 82.3204C72.4585 82.68 74.01 82.9918 75.5565 83.0949C80.3946 83.4168 85.3736 82.2424 89.9351 80.5652C92.8319 79.499 95.7061 78.2668 98.6759 77.4496C102.264 76.4613 106.494 75.6541 109.873 77.7966C109.21 78.7346 108.561 79.7203 107.837 80.6054C106.169 82.6473 104.248 84.4905 102.284 86.1979C98.4194 89.56 94.1797 92.3965 89.583 94.4609C88.4137 94.9865 86.8974 95.8264 85.6502 95.9949L85.449 96.0024L87.086 90.8525C87.169 90.5558 87.4883 89.7209 87.4104 89.4418C85.3459 95.2254 83.0928 100.924 80.0677 106.219C79.3284 107.512 78.481 108.736 77.6135 109.933C77.2111 110.489 76.6428 111.078 76.336 111.689C76.2204 111.917 76.2355 112.01 76.2581 112.267C76.5221 112.571 76.849 112.679 77.2312 112.697C77.5757 112.715 77.9404 112.662 78.2798 112.727C77.6713 113.829 76.5875 116.019 76.8792 117.341L77.2338 117.734C76.6755 118.531 74.772 119.159 73.9069 119.469C67.9272 121.604 61.0899 121.063 55.4497 118.058C53.091 116.801 50.6945 115.161 48.8815 113.104C48.625 112.813 48.2327 112.458 48.1372 112.066C48.1045 111.925 48.1573 111.91 48.2277 111.802C48.6401 111.746 48.8714 111.711 49.1682 111.384C49.2009 110.869 49.143 110.63 48.9041 110.182L48.8589 110.097C48.5848 109.471 48.1623 108.94 47.7675 108.397C47.6921 107.778 47.33 107.293 47.0458 106.762C46.5479 105.83 46.0249 104.909 45.61 103.931C44.1817 100.559 43.3569 97.1139 42.8766 93.4601C42.7936 92.829 42.6528 92.1802 42.6025 91.5516C42.5371 90.772 42.6427 89.9523 42.61 89.1627C42.61 87.0454 43.1331 84.8752 43.5681 82.8233L43.5656 82.8258Z" fill="#FBF8F4"/>
<path d="M122.064 83.9267C122.794 81.749 123.148 79.3953 123.38 77.102C123.737 73.5413 123.757 69.9656 123.558 66.3923L123.271 63.1007C123.211 62.4544 123.1 61.8207 123.163 61.1694L125.645 63.6438C125.932 63.9204 126.296 64.3881 126.638 64.5441C126.857 64.798 127.124 65.0721 127.29 65.3713C127.637 66.0025 127.803 67.1869 127.999 67.9136C129.274 72.6763 129.867 77.5873 129.679 82.5411C129.389 90.0724 126.774 97.2893 122.892 103.505L119.389 108.588C116.339 112.676 112.783 116.921 110.988 121.842C110.618 122.855 110.246 124 110.158 125.091L110.127 125.214L110.148 125.772L110.135 126.313C110.122 129.856 111.84 133.035 114.113 135.479L107.58 137.727C96.0431 141.071 84.2044 141.863 72.3354 140.513C67.1855 139.927 61.7338 138.914 56.8856 136.94C48.693 133.605 41.9287 127.887 37.1182 120.029C36.3311 118.742 35.4234 117.421 34.8299 116.018C35.2775 116.35 35.5818 116.823 35.9741 117.223C36.6908 117.962 37.5005 118.631 38.3303 119.222C38.798 119.277 39.2229 119.217 39.6856 119.149L39.8692 118.867C40.1282 119.287 40.9002 119.586 41.3403 119.795C42.502 120.348 44.1793 120.796 45.4039 120.288C45.6327 119.976 45.6252 119.762 45.6755 119.385C45.9294 119.267 47.3225 119.886 47.75 119.969C48.5949 119.669 47.9235 118.835 48.0141 118.183C48.0241 118.118 48.1775 117.917 48.2202 117.849C48.429 117.773 48.5974 117.713 48.7684 117.555L48.6603 116.151C48.0492 114.037 46.9629 112.191 45.7685 110.403C46.3846 110.594 47.0032 110.748 47.6469 110.707C48.2152 110.672 48.4793 110.554 48.8564 110.101L48.9017 110.187C49.1406 110.634 49.1984 110.873 49.1657 111.389C48.869 111.716 48.6352 111.751 48.2253 111.806C48.1549 111.912 48.0995 111.929 48.1348 112.07C48.2303 112.463 48.6226 112.817 48.8791 113.109C50.6921 115.166 53.091 116.805 55.4472 118.063C61.0875 121.07 67.9248 121.611 73.9045 119.473C74.7695 119.164 76.6731 118.535 77.2313 117.738L76.8768 117.346C76.5851 116.023 77.6689 113.833 78.2774 112.732C77.9379 112.666 77.5758 112.716 77.2288 112.701C76.8466 112.684 76.5197 112.576 76.2557 112.271C76.233 112.012 76.218 111.922 76.3336 111.693C76.6404 111.082 77.2087 110.494 77.611 109.938C78.4761 108.741 79.326 107.514 80.0653 106.224C83.0904 100.928 85.341 95.2299 87.408 89.4463C87.4859 89.7254 87.1666 90.5602 87.0836 90.857L85.4466 96.0069C83.5732 100.782 81.7325 105.831 78.5943 109.857L78.7376 109.867C79.0595 109.875 79.3989 109.679 79.6957 109.556C80.4274 109.249 81.1516 108.872 81.901 108.62C81.1265 110.388 80.8373 112.073 80.7794 114.009L83.9026 111.806L83.9755 111.821C83.7819 113.139 83.8246 114.519 83.8548 115.85L85.9922 114.391L85.9495 114.459C85.61 114.98 84.8758 115.384 84.3779 115.726C84.3351 115.757 84.0208 115.935 84.0007 115.975C83.9227 116.124 83.9428 116.672 83.978 116.851C84.061 117.278 84.0761 117.7 84.149 118.13C84.2421 118.689 84.3804 119.141 84.5489 119.679C84.6092 119.871 84.6947 120.042 84.7852 120.22C84.9386 120.067 85.0166 119.981 85.1021 119.775L85.2705 119.468C85.6276 118.895 85.9394 118.138 86.201 117.502L86.1532 117.346L86.2186 117.283C86.3242 117.17 86.3418 117.072 86.3946 116.926L86.4323 116.835C86.5002 116.667 86.5304 116.493 86.5631 116.317C86.5907 116.169 86.636 116.159 86.6863 116.038L86.7341 115.83L86.8321 115.568L86.9453 115.591L87.7173 115.696C88.2227 115.804 88.9545 115.623 89.47 115.525C92.666 114.917 95.676 113.521 98.5678 111.99C107.283 107.373 114.973 99.555 119.487 90.3088C120.5 88.2342 121.265 86.0893 121.964 83.8739L122.064 83.9267Z" fill="#ECD2BA"/>
<path d="M84.7625 121.488L85.0718 121.385C85.3912 121.217 85.6149 120.839 85.806 120.53C86.5277 119.371 86.9703 118.091 87.3726 116.778L88.7381 116.678C88.2829 118.541 87.6216 121.443 86.1455 122.688C85.8136 122.753 85.5948 122.798 85.3031 122.595C85.0341 122.406 84.7373 122.011 84.7323 121.647L84.7625 121.488Z" fill="#D9AD8C"/>
<path d="M87.7171 115.697C88.2225 115.805 88.9543 115.624 89.4698 115.526C92.6659 114.917 95.6759 113.522 98.5677 111.99C107.283 107.374 114.973 99.5556 119.487 90.3094C120.5 88.2348 121.265 86.0899 121.964 83.8745L122.064 83.9273C121.506 86.11 120.661 88.2525 119.753 90.2943C115.72 99.3595 109.003 106.72 100.884 111.691C98.193 113.338 95.2811 114.817 92.3113 115.79C91.132 116.175 89.9702 116.534 88.7381 116.678L87.3726 116.778C86.9703 118.091 86.5302 119.371 85.806 120.53C85.6124 120.839 85.3911 121.217 85.0718 121.385L84.7624 121.488C84.5588 121.051 84.1665 120.583 83.9075 120.163C83.1632 120.646 81.5085 122.082 80.6335 121.873C80.5203 121.845 80.5203 121.79 80.4725 121.684C80.3066 121.3 80.3292 120.867 80.1783 120.492C79.8263 119.911 79.7835 119.27 79.7382 118.601C79.2932 118.775 78.8129 118.898 78.3426 118.81C78.1742 118.372 78.5639 117.837 78.403 117.414L78.3577 117.309C77.983 117.49 77.636 117.651 77.2287 117.739L76.8741 117.347C76.5824 116.024 77.6662 113.834 78.2747 112.732C77.9353 112.667 77.5732 112.717 77.2261 112.702C76.8439 112.684 76.517 112.576 76.253 112.272C76.2304 112.013 76.2153 111.923 76.331 111.694C76.6377 111.083 77.206 110.494 77.6084 109.938C78.4734 108.742 79.3233 107.514 80.0626 106.224C83.0877 100.929 85.3383 95.2305 87.4053 89.4469C87.4832 89.726 87.1639 90.5609 87.0809 90.8576L85.4439 96.0075C83.5705 100.783 81.7298 105.832 78.5916 109.858L78.7349 109.868C79.0568 109.876 79.3963 109.679 79.693 109.556C80.4247 109.249 81.149 108.872 81.8983 108.621C81.1238 110.389 80.8346 112.073 80.7768 114.01L83.8999 111.807L83.9729 111.822C83.7792 113.14 83.822 114.52 83.8521 115.85L85.9896 114.392L85.9468 114.46C85.6074 114.98 84.8731 115.385 84.3752 115.727C84.3325 115.757 84.0181 115.936 83.998 115.976C83.9201 116.124 83.9402 116.673 83.9754 116.851C84.0583 117.279 84.0734 117.701 84.1464 118.131C84.2394 118.689 84.3777 119.142 84.5462 119.68C84.6065 119.871 84.692 120.042 84.7826 120.221C84.936 120.067 85.0139 119.982 85.0994 119.776L85.2679 119.469C85.6249 118.896 85.9368 118.139 86.1983 117.502L86.1505 117.347L86.2159 117.284C86.3215 117.171 86.3391 117.072 86.3919 116.927L86.4296 116.836C86.4975 116.668 86.5277 116.494 86.5604 116.318C86.588 116.17 86.6333 116.16 86.6836 116.039L86.7314 115.83L86.8295 115.569L86.9426 115.591L87.7146 115.697H87.7171Z" fill="#A63106"/>
<path d="M78.3579 117.306L80.1558 115.993L79.7384 118.598C79.2933 118.772 78.813 118.895 78.3428 118.807C78.1743 118.369 78.5641 117.834 78.4031 117.411L78.3579 117.306Z" fill="#D9AD8C"/>
<path d="M80.1783 120.49C81.4054 120.05 82.3032 118.923 83.2009 117.978C83.3769 118.75 83.5982 119.433 83.9075 120.16C83.1632 120.643 81.5085 122.079 80.6335 121.87C80.5203 121.842 80.5203 121.787 80.4725 121.682C80.3066 121.297 80.3292 120.864 80.1783 120.49Z" fill="#D9AD8C"/>
<path d="M78.5893 109.853L78.7326 109.863C79.0545 109.871 79.3939 109.674 79.6907 109.551C80.4224 109.244 81.1466 108.867 81.896 108.616C81.1215 110.383 80.8323 112.068 80.7745 114.005L83.8976 111.802L83.9705 111.817C83.7769 113.134 83.8196 114.515 83.8498 115.845L85.9872 114.387L85.9445 114.455C85.605 114.975 84.8708 115.38 84.3729 115.722C84.3301 115.752 84.0158 115.931 83.9957 115.971C83.9177 116.119 83.9379 116.668 83.9731 116.846C84.056 117.274 84.0711 117.696 84.144 118.126C84.2371 118.684 84.3754 119.137 84.5439 119.675C84.6042 119.866 84.6897 120.037 84.7802 120.216C84.9336 120.062 85.0116 119.977 85.0971 119.771L85.2655 119.464C85.6226 118.89 85.9345 118.134 86.196 117.497L86.1482 117.341L86.2136 117.279C86.3192 117.165 86.3368 117.067 86.3896 116.921L86.4273 116.831C86.4952 116.662 86.5254 116.489 86.5581 116.313C86.5857 116.165 86.631 116.155 86.6813 116.034L86.7291 115.825L86.8271 115.564L86.9403 115.586L87.7123 115.692C87.5363 115.704 87.0006 115.704 86.9051 115.848C86.7517 116.077 86.6461 116.673 86.548 116.959C86.2312 117.88 85.8112 118.775 85.3511 119.622C85.1851 119.926 85.004 120.346 84.745 120.568C84.0661 118.941 83.8825 117.626 83.7945 115.863C83.098 116.552 82.5598 117.402 81.906 118.134C81.4609 118.631 80.9505 119.049 80.43 119.446C80.4149 118.32 80.4853 117.226 80.7015 116.119C80.7845 115.694 80.9656 115.315 81.0209 114.882C80.9203 114.678 80.8449 114.505 80.6739 114.362C79.6605 115.3 78.72 116.187 77.5558 116.919C77.7217 116.046 77.855 115.093 78.1517 114.256C78.5365 113.17 79.1877 112.159 79.746 111.166C78.7326 111.515 77.8852 111.953 76.819 112.181L78.5893 109.848V109.853Z" fill="#DE6511"/>
<path d="M38.3252 119.22C40.7342 121.513 43.4952 123.087 46.3845 124.569C56.0959 129.558 67.0848 132.122 77.875 131.423C85.185 130.951 92.5277 129.045 98.7966 124.893C102.629 122.353 106.074 118.958 109.049 115.35L116.361 105.088C113.54 110.804 109.685 116.597 109.748 123.329C109.755 124.005 109.708 125.029 109.906 125.662L109.992 125.854L110.12 125.207L110.14 125.766L110.127 126.306C110.115 129.849 111.832 133.028 114.106 135.472L107.573 137.72C96.0356 141.064 84.1968 141.857 72.3278 140.506C67.1779 139.92 61.7262 138.907 56.878 136.933C48.6854 133.599 41.9211 127.88 37.1106 120.022C36.3235 118.735 35.4158 117.415 34.8223 116.011C35.2699 116.343 35.5742 116.816 35.9665 117.216C36.6832 117.955 37.4929 118.624 38.3227 119.215L38.3252 119.22Z" fill="#D9AD8C"/>
<defs>
<linearGradient id="paint0_linear_191_2681" x1="50.1917" y1="38.4813" x2="45.0116" y2="38.6413" gradientUnits="userSpaceOnUse">
<stop stop-color="#2D2C2C"/>
<stop offset="1" stop-color="#63696A"/>
</linearGradient>
<linearGradient id="paint1_linear_191_2681" x1="42.9879" y1="27.9988" x2="45.0037" y2="40.1354" gradientUnits="userSpaceOnUse">
<stop stop-color="#070E0F"/>
<stop offset="1" stop-color="#8D8E8E"/>
</linearGradient>
<linearGradient id="paint2_linear_191_2681" x1="77.2487" y1="30.5213" x2="87.7235" y2="38.393" gradientUnits="userSpaceOnUse">
<stop stop-color="#020706"/>
<stop offset="1" stop-color="#164549"/>
</linearGradient>
<linearGradient id="paint3_linear_191_2681" x1="59.1508" y1="69.7865" x2="102.519" y2="111.938" gradientUnits="userSpaceOnUse">
<stop stop-color="#B83F09"/>
<stop offset="1" stop-color="#E36A13"/>
</linearGradient>
</defs>
</svg>
