<svg width="259" height="186" viewBox="0 0 259 186" fill="none" xmlns="http://www.w3.org/2000/svg">
<path d="M28.3474 174.812C28.5792 174.893 28.7425 174.957 28.9412 175.103C29.1752 175.275 29.4202 175.33 29.6983 175.399L31.5194 175.911C31.7402 176.247 31.7512 176.255 31.7049 176.653L30.2745 176.406C29.354 176.141 28.8043 175.631 28.3474 174.812Z" fill="#4B180A"/>
<path d="M84.6403 167.702L85.1768 168.02L84.7154 168.85L85.0377 169.591C83.7486 168.742 82.636 168.327 81.0688 168.662C79.996 168.894 78.8857 169.711 78.1285 170.485C77.9078 170.711 77.2081 171.715 77.0116 171.772L76.9409 171.549L77.2544 171.117C76.9233 171.117 76.6474 171.401 76.3781 171.591C76.9476 170.569 77.9321 169.636 78.8768 168.96C80.071 168.106 81.6118 167.521 83.0731 167.971C83.4991 168.104 83.9097 168.38 84.3446 168.452L84.6426 167.7L84.6403 167.702Z" fill="#4B180A"/>
<path d="M30.5017 164.819C31.3074 163.954 32.3604 163.281 33.495 162.943C34.698 162.585 36.0467 162.857 37.1328 163.431C37.1791 163.612 37.2321 163.764 37.2188 163.952L37.1615 163.905C36.965 163.771 36.7023 163.696 36.4794 163.61L36.2873 163.753C34.6892 163.371 33.5678 163.488 32.1463 164.356C31.6121 164.682 31.111 165.126 30.6828 165.581C29.0382 167.72 28.1354 170.404 28.4489 173.119C28.5548 174.048 29.0316 174.775 29.7004 175.401C29.4223 175.333 29.1773 175.276 28.9433 175.106C28.7447 174.96 28.5813 174.896 28.3495 174.814C27.8065 174.055 27.6807 173.137 27.6321 172.225C27.4953 169.592 28.7778 166.748 30.5017 164.821V164.819Z" fill="#4B180A"/>
<path d="M30.6828 165.578C31.1132 165.124 31.6121 164.68 32.1463 164.353C33.5679 163.486 34.6892 163.367 36.2874 163.751L37.8369 164.629C36.8326 164.905 35.9165 165.179 35.0976 165.848C33.261 167.038 31.9057 169.521 31.462 171.618C31.1596 173.053 31.2125 174.481 31.5194 175.909L29.6983 175.397C29.0316 174.772 28.5549 174.046 28.4467 173.115C28.1355 170.399 29.0361 167.715 30.6806 165.576L30.6828 165.578Z" fill="#F4CB7F"/>
<path d="M37.1328 163.428L37.8392 163.87L37.859 163.978L38.2828 164.552C38.4329 164.548 39.0532 164.57 39.1526 164.506C40.775 164.777 42.6358 165.462 43.6667 166.843L43.8035 167.082L43.7329 167.243C43.0442 166.724 42.2826 166.172 41.4858 165.841C39.7772 165.133 37.912 165.15 36.2079 165.843C34.0137 167.563 32.5392 169.724 32.1639 172.554C32.0072 173.737 31.9697 175.571 32.7445 176.545C33.7687 177.832 35.954 178.132 37.486 178.236C38.4285 178.3 39.4351 178.253 40.3711 178.125C39.5013 175.971 39.4307 173.843 40.36 171.68C41.126 169.898 42.3842 168.737 43.883 167.57C45.2759 167.024 46.5186 166.636 47.9755 167.261C49.0682 167.728 50.8694 168.971 51.461 170.042C50.0505 168.896 48.0837 167.53 46.1743 167.706C44.5276 167.859 43.1502 168.914 42.1568 170.181C40.892 171.795 40.4152 173.788 40.647 175.805C40.7375 176.596 41.084 177.854 41.7485 178.344C43.3268 179.507 47.1014 178.984 48.9026 178.62C50.1277 178.373 51.3065 177.911 52.4124 177.331C53.2843 176.803 53.973 176.178 54.6794 175.452L56.8581 172.607L56.8515 173.245C57.0501 173.055 57.1715 172.883 57.304 172.644C57.4298 172.417 57.6461 172.34 57.8669 172.207C56.7058 174.249 54.9354 176.682 52.8627 177.852C52.2601 178.225 51.5957 178.538 50.9334 178.79C47.8718 179.951 43.8322 180.163 40.8456 178.77L40.2673 178.916C38.093 179.306 35.0755 179.083 33.1838 177.891C32.6827 177.576 32.3472 177.072 31.8615 176.748L31.7114 176.651C31.7578 176.253 31.749 176.245 31.526 175.909C31.2192 174.481 31.1662 173.053 31.4686 171.618C31.9101 169.521 33.2676 167.035 35.1042 165.848C35.9231 165.179 36.837 164.905 37.8436 164.629L36.294 163.751L36.486 163.607C36.709 163.693 36.9717 163.768 37.1681 163.903L37.2255 163.949C37.2366 163.762 37.1858 163.609 37.1394 163.428H37.1328Z" fill="#4B180A"/>
<path d="M36.2058 165.845C37.9099 165.152 39.7773 165.135 41.4836 165.843C42.2827 166.174 43.0443 166.726 43.7308 167.245L43.8786 167.574C42.3798 168.741 41.1216 169.903 40.3557 171.684C39.4263 173.847 39.497 175.973 40.3667 178.13C39.4308 178.258 38.4264 178.304 37.4816 178.24C35.9497 178.136 33.7644 177.836 32.7401 176.549C31.9653 175.576 32.0029 173.741 32.1596 172.558C32.5348 169.728 34.0094 167.567 36.2036 165.848L36.2058 165.845Z" fill="#F4CB7F"/>
<path d="M52.4079 177.331C51.3042 177.911 50.1233 178.373 48.8982 178.62C47.097 178.984 43.3245 179.507 41.744 178.344C41.0796 177.854 40.733 176.598 40.6425 175.805C40.4108 173.788 40.8875 171.792 42.1524 170.181C43.1457 168.914 44.5231 167.859 46.1698 167.706C48.0792 167.53 50.046 168.896 51.4566 170.042L51.5493 170.181C51.887 170.682 52.3285 171.115 52.6773 171.618C53.505 172.814 54.165 174.09 54.6749 175.452C53.9686 176.178 53.2799 176.803 52.4079 177.331Z" fill="#F4CB7F"/>
<path d="M77.0073 171.772C77.2038 171.715 77.9035 170.711 78.1242 170.485C78.8814 169.711 79.9917 168.894 81.0645 168.662C82.6317 168.324 83.7465 168.742 85.0334 169.591L85.3512 169.949C87.5454 169.196 89.7197 169.329 91.8145 170.366C92.6776 170.794 93.4436 171.351 94.1632 171.989L94.2493 171.956C96.0417 171.289 98.11 171.521 99.8207 172.331C101.103 172.936 102.512 174.024 103.28 175.242C103.496 175.428 103.717 175.666 103.984 175.768C103.836 176.443 104.286 177.359 104.253 178.134C104.202 179.35 103.377 180.408 102.509 181.193C100.194 183.29 96.3595 185.288 93.2184 185.083C92.0816 185.01 91.1236 184.255 90.4172 183.423L90.2936 183.275C89.1458 183.845 88.0465 184.271 86.775 184.467C84.976 184.747 82.9408 184.374 81.6848 182.968C81.5876 182.858 81.1881 182.275 81.0954 182.24C80.9519 182.185 80.3228 182.293 80.1396 182.302C78.8769 182.359 77.1795 182.264 76.1221 181.476C75.1376 180.743 74.5107 179.485 74.3694 178.275C74.0957 175.955 74.9721 173.419 76.3716 171.591C76.6409 171.399 76.9168 171.117 77.2479 171.117L76.9344 171.549L77.0051 171.772H77.0073Z" fill="#4B180A"/>
<path d="M77.0073 171.772C77.2038 171.715 77.9035 170.711 78.1242 170.485C78.8814 169.711 79.9917 168.894 81.0645 168.662C82.6318 168.324 83.7465 168.742 85.0334 169.591L85.3512 169.949C82.8216 171.428 81.4685 173.56 80.7378 176.375C80.2831 178.132 80.3228 179.803 80.8018 181.547C79.356 181.522 77.3428 181.664 76.2612 180.538C75.2657 179.503 75.1288 178.326 75.1818 176.946C75.2568 175.035 76.1001 173.41 77.0051 171.77L77.0073 171.772Z" fill="#F4CB7F"/>
<path d="M87.3819 170.236C89.6908 170.029 91.4457 171.062 93.2447 172.362C92.4721 173.097 91.7812 173.772 91.2404 174.706C89.8233 177.154 89.1544 179.931 89.8983 182.692L87.5761 183.469L87.2075 183.549C85.8257 183.812 84.2959 183.816 83.0995 182.99C82.1239 182.317 81.5544 181.419 81.3579 180.247C80.9451 177.783 81.6978 174.834 83.1503 172.832C84.265 171.296 85.5277 170.534 87.3841 170.236H87.3819Z" fill="#F4CB7F"/>
<path d="M95.7061 172.353C96.7348 172.276 97.8053 172.346 98.792 172.651C100.335 173.125 102.174 174.582 102.933 176.03C103.364 176.849 103.631 177.825 103.319 178.734C102.538 181.019 99.6397 182.394 97.5979 183.385L95.7701 184.039C94.5494 184.372 93.1566 184.5 92.033 183.805C91.3068 183.357 90.8344 182.602 90.6534 181.778C90.1722 179.571 90.9359 176.673 92.1346 174.807C93.0639 173.362 94.0439 172.717 95.7039 172.355L95.7061 172.353Z" fill="#F4CB7F"/>
<path d="M251.102 88.2091C246.922 87.3946 242.842 86.6286 239.185 84.2822C234.503 81.2779 230.816 76.5099 229.653 70.9958C228.953 67.6671 229.134 64.1507 231.055 61.2347C231.344 62.6055 231.679 63.9211 232.253 65.208C232.286 64.2191 232.238 63.1 232.461 62.1354C232.81 60.6365 233.741 59.5593 234.79 58.4954C234.73 60.056 234.701 61.4091 235.337 62.866C237.377 67.5325 242.745 67.6406 246.844 69.316C250.617 70.859 254.155 73.8279 255.744 77.6335C257.093 80.8607 256.853 83.7723 255.555 86.9355C255.208 86.664 254.954 86.2247 254.676 85.8781C253.895 84.9047 253.146 84.2601 251.901 84.0637L251.279 84.0018C250.948 84.4742 250.917 84.9113 251.034 85.4587C251.27 86.5624 251.93 87.7544 252.305 88.8493C252.171 88.7345 252.054 88.6197 251.943 88.4828L251.831 88.3416L251.497 88.5137L251.105 88.2047L251.102 88.2091Z" fill="#4B180A"/>
<path d="M251.102 88.2091C251.44 87.6175 250.27 86.9663 250.217 86.2313C250.153 85.3924 250.367 84.5029 250.941 83.876L251.279 84.0018C250.948 84.4742 250.917 84.9112 251.034 85.4587C251.27 86.5624 251.93 87.7544 252.305 88.8492C252.171 88.7345 252.054 88.6196 251.943 88.4828L251.831 88.3415L251.497 88.5137L251.104 88.2047L251.102 88.2091Z" fill="#722D0E"/>
<path d="M233.832 60.9632C234.211 62.0492 234.339 63.0359 234.916 64.08C237.021 67.8988 240.904 68.4838 244.712 69.5897C248.507 70.6912 252.29 73.1347 254.208 76.6776C255.72 79.4678 256.067 82.7965 255.171 85.8185C254.091 84.8031 252.897 83.5404 251.403 83.1916C251.041 83.1078 250.648 83.1696 250.343 83.3859C249.506 83.9841 249.495 85.9575 249.418 86.8868C246.745 86.2224 244.259 85.6529 241.752 84.4697C238.339 82.6994 235.814 80.5759 233.589 77.4171C231.311 74.1833 229.741 69.1504 230.477 65.1859C230.585 64.6098 230.669 64.0557 230.863 63.5017C231.039 63.6385 231.103 63.9652 231.185 64.1794C231.499 65.0049 231.755 65.8614 232.123 66.6627C233.158 68.8988 234.432 70.8987 235.933 72.8478C236.489 73.5696 237.178 74.5078 237.975 74.9581L235.75 71.5454C233.834 68.1416 232.73 64.804 233.832 60.9565V60.9632Z" fill="#722D0E"/>
<path d="M110.323 72.4153C122.135 76.3378 135.695 76.4107 147.831 74.0024C152.575 73.062 157.668 71.3778 162.531 71.7685C165.881 72.0378 168.998 73.0686 172.051 74.4284C172.908 74.8103 173.718 75.3511 174.594 75.6712C175.711 76.0796 176.896 76.3113 178.026 76.6976C181.245 77.7969 184.432 79.1655 187.45 80.7327C192.059 83.1256 196.127 86.2314 199.886 89.8007L214.011 104.548C219.201 109.528 225.179 113.663 232.163 115.625C236.478 116.837 240.505 116.983 244.604 114.93C248.343 113.058 251.29 109.407 252.579 105.456C254.466 99.6744 253.325 94.1294 251.495 88.5182L251.829 88.346L251.941 88.4873C252.054 88.6242 252.171 88.739 252.303 88.8538C251.928 87.7567 251.268 86.5669 251.032 85.4632C250.915 84.9135 250.946 84.4765 251.277 84.0063L251.899 84.0681C253.146 84.2645 253.892 84.9092 254.674 85.8826C254.952 86.2292 255.206 86.6684 255.552 86.9399C258.868 91.7962 259.618 99.6148 258.541 105.294C257.497 110.811 254.557 115.698 249.866 118.83C246.957 120.773 243.447 122.417 239.951 122.898C237.386 123.252 234.514 122.991 231.991 122.47C223.099 120.638 214.866 115.512 208.361 109.29C203.032 104.191 197.913 98.4824 191.218 95.1338C192.165 98.0652 193.054 101.005 193.743 104.01L196.308 118.148C196.836 121.329 196.84 124.607 197.842 127.686C199.109 131.573 201.531 134.834 204.656 137.436C205.919 138.489 207.33 139.412 208.173 140.86C208.87 142.059 209.243 143.412 209.601 144.741L211.124 151.771L212.981 162.685C213.486 165.985 214.058 169.406 213.972 172.752C213.939 174.011 213.702 175.291 213.131 176.421C212.117 178.419 210.102 179.849 207.994 180.5C206.539 180.951 204.716 181.198 203.239 180.681C203.003 180.598 202.405 180.249 202.193 180.249C201.568 180.249 200.712 180.609 200.063 180.712C197.851 181.068 194.701 181.002 192.712 179.911C192.233 179.648 191.673 179.006 191.22 178.832C191.085 178.781 190.262 178.973 190.061 178.986C187.801 179.145 185.803 178.072 185.176 175.847C184.624 173.898 185.333 171.452 186.306 169.755C187.381 167.879 189.225 166.362 191.335 165.826C191.933 165.673 192.562 165.653 193.178 165.634C193.383 165.627 193.776 165.676 193.946 165.616C194.202 165.525 194.82 164.757 194.977 164.508C196.586 161.91 195.754 157.215 195.032 154.42C193.648 149.058 190.006 145.306 185.344 142.569L177.987 138.721C172.42 135.485 167.31 130.474 163.436 125.349C160.985 129.777 159.193 135.805 160.65 140.834C161.303 143.094 162.751 144.721 162.952 147.175C163.036 148.208 162.97 149.188 162.687 150.184C161.76 153.46 159.93 156.619 158.398 159.638L152.891 170.335C151.516 172.885 148.889 174.388 146.18 175.203C143.986 175.863 140.324 176.651 138.227 175.498C137.576 175.141 137.126 174.71 136.719 174.088C135.007 174.465 132.971 174.633 131.402 173.669C130.916 173.371 130.433 172.68 129.969 172.461C129.79 172.377 129.152 172.421 128.921 172.399C127.398 172.258 126.51 171.013 126.201 169.609C125.777 167.684 126.804 165.117 127.85 163.537C128.866 162.002 130.309 160.557 132.172 160.175C133.62 159.877 135.106 160.003 136.355 160.852L137.139 161.462C140.306 159.219 143.324 156.025 144.035 152.047C144.472 149.61 143.392 147.427 141.975 145.522L133.839 135.69C127.896 137.745 121.274 138.88 114.992 138.887C114.595 140.059 114.129 141.074 113.118 141.838L112.963 141.928C112.584 142.147 112.29 142.33 111.835 142.308C111.606 142.134 111.409 141.975 111.226 141.754C110.955 142.222 110.957 142.968 110.871 143.509L110.337 146.387L108.156 158.407C107.346 162.925 106.604 167.51 105.39 171.94C105.076 173.081 104.664 174.823 103.986 175.774C103.719 175.673 103.496 175.434 103.282 175.249L103.469 174.88C105.006 171.664 105.489 167.466 106.151 163.982L108.825 149.149C109.496 145.211 110.566 141.012 110.659 137.019C110.716 134.529 110.213 132.536 109.383 130.201C111.674 132.187 112.191 135.297 112.027 138.198C111.981 139.015 111.716 140.641 112.191 141.31L112.502 141.233L112.915 140.783C114.707 138.637 114.866 134.28 114.634 131.651C114.193 126.642 110.968 123.589 107.361 120.561C110.059 121.477 112.533 123.223 114.694 125.044L114.804 125.126C115.063 125.327 115.257 125.651 115.305 125.971L115.59 126.183C115.584 125.909 115.564 125.631 115.601 125.36L114.771 123.267C120.027 123.958 125.632 124.929 130.936 124.532C135.984 124.152 140.717 122.616 145.518 121.128L153.708 118.287C154.648 117.927 155.604 117.649 156.515 117.212L150.584 110.93C152.006 111.612 153.383 113.029 154.524 114.113C156.798 116.274 158.988 118.53 161.034 120.91C164.435 124.872 167.687 129.141 171.61 132.609C174.519 135.178 177.678 137.43 181.093 139.273C183.982 140.834 186.984 142.101 189.606 144.116C193.679 147.242 196.502 152.252 197.109 157.345C197.381 159.621 197.268 162.79 196.01 164.768C195.701 165.254 195.22 165.574 194.862 166.024L195.588 166.439C198.171 165.711 200.937 166.152 203.058 167.839C203.233 167.978 203.913 168.709 204.058 168.739C204.656 168.865 205.727 168.508 206.429 168.561C209.296 168.777 211.294 170.391 213.06 172.49C212.877 168.954 212.325 165.475 211.782 161.978C210.967 156.729 210.003 151.407 208.658 146.266C208.259 144.734 207.787 142.339 206.853 141.081C206.093 140.056 204.89 139.339 203.902 138.551C200.665 135.975 198.491 133.081 197.156 129.15C195.984 125.704 195.633 121.936 195.03 118.356C193.946 111.914 192.825 105.164 190.931 98.9062C189.253 93.3569 186.684 87.803 182.671 83.5361C180.04 80.7349 176.854 78.5408 173.479 76.7329C169.616 74.6624 165.508 73.2209 161.096 72.9803C158.979 72.8656 156.776 73.2982 154.708 73.7L146.189 75.4085C141.037 76.3312 135.647 76.702 130.411 76.5939C126.234 76.5078 122.084 76.1149 117.972 75.3688C117.122 75.2142 112.793 73.9936 112.257 74.1569L112.447 74.6757C112.246 74.722 112.1 74.6911 111.899 74.6536C111.617 74.2055 111.416 73.934 110.935 73.6713L109.577 72.9781L110.105 72.8258L110.317 72.4263L110.323 72.4153Z" fill="#722D0E"/>
<path d="M132.369 161.007C133.724 160.949 134.395 161.069 135.651 161.57C134.199 162.013 133.19 162.548 132.201 163.735C130.49 165.79 129.448 168.428 129.691 171.11L129.662 171.362C129.272 171.536 128.631 171.424 128.25 171.251C127.709 171.009 127.265 170.366 127.082 169.821C126.55 168.232 127.148 166.664 127.85 165.236C128.815 163.272 130.278 161.718 132.369 161.009V161.007Z" fill="#F4CB7F"/>
<path d="M191.803 166.534C192.67 166.433 193.787 166.344 194.582 166.764C194.705 166.83 194.661 166.793 194.714 166.947C193.807 167.804 193.041 168.656 192.421 169.744C191.032 172.174 190.116 175.079 190.878 177.852C190.392 178.207 189.88 178.136 189.286 178.181C188.715 178.059 188.081 177.918 187.56 177.649C186.772 177.245 186.278 176.507 186.026 175.68C185.527 174.039 186.105 171.903 186.885 170.43C187.984 168.353 189.611 167.194 191.801 166.534H191.803Z" fill="#F4CB7F"/>
<path d="M136.099 162.287C136.655 162.312 137.214 162.338 137.744 162.524C139.026 162.976 139.578 163.799 140.126 164.98L139.077 165.888C137.148 167.865 136.382 170.53 136.424 173.225L134.605 173.519C133.614 173.488 132.68 173.408 131.812 172.876C131.137 172.463 130.817 171.907 130.645 171.143C130.217 169.225 131.133 166.786 132.172 165.203C133.168 163.689 134.296 162.656 136.095 162.287H136.099Z" fill="#F4CB7F"/>
<path d="M205.188 169.366C205.89 169.337 206.542 169.349 207.23 169.507C209.235 169.969 211.526 171.366 212.594 173.181C213.045 173.942 213.034 174.245 212.782 175.088C212.137 177.247 210.473 178.45 208.581 179.45C207.199 180.019 205.078 180.498 203.634 179.895C202.652 179.487 201.908 178.776 201.502 177.794C200.846 176.207 201.635 173.883 202.277 172.395C202.908 170.938 203.705 169.947 205.188 169.366Z" fill="#F4CB7F"/>
<path d="M151.043 171.32C150.734 171.715 150.339 172.055 149.946 172.364C147.507 174.273 143.456 175.47 140.371 175.07C139.39 174.944 138.448 174.781 137.81 173.933C137.285 173.236 137.324 172.187 137.446 171.357C137.711 169.523 138.766 167.13 140.311 166.024C141.596 165.106 142.66 165.02 144.185 165.269L144.278 165.316C144.518 165.435 144.739 165.526 144.997 165.605C146.973 166.214 149.567 168.254 150.511 170.119C150.708 170.508 150.904 170.909 151.043 171.322V171.32Z" fill="#F4CB7F"/>
<path d="M197.01 166.978L198.365 166.929C200.304 166.914 202.045 168.055 203.372 169.36C202.041 170.845 201.151 172.452 200.674 174.397C200.156 176.516 200.368 177.748 201.456 179.571C200.743 179.955 199.469 179.966 198.655 180.028C197.083 180.222 194.712 179.988 193.319 179.231C192.527 178.803 191.856 178.068 191.62 177.187C191.015 174.916 192.006 172.13 193.134 170.185C194.116 168.492 195.109 167.488 197.01 166.978Z" fill="#F4CB7F"/>
<path d="M156.515 117.203L159.725 120.967C160.253 121.596 160.773 122.393 161.396 122.914C160.008 123.177 158.595 123.415 157.246 123.845C151.2 125.784 145.924 129.271 140.267 132.044C132.499 135.851 123.766 137.655 115.169 138.141C116.01 134.704 116.142 129.724 114.242 126.609L113.326 125.183C114.288 125.625 114.71 127.227 115.802 127.545C116.1 126.964 115.849 126.101 115.648 125.494L115.599 125.351L114.769 123.258C120.025 123.949 125.63 124.92 130.934 124.523C135.982 124.143 140.715 122.607 145.516 121.119L153.705 118.278C154.646 117.919 155.602 117.64 156.513 117.203H156.515Z" fill="#F4CB7F"/>
<path d="M251.902 84.066C255.065 85.9843 256.515 90.2203 257.363 93.666C258.954 100.127 258.232 107.054 254.771 112.791C252.175 117.093 246.348 120.592 241.544 121.731C233.938 123.539 224.892 119.967 218.464 115.969C214.974 113.797 211.742 111.16 208.749 108.345C205.829 105.599 203.078 102.643 200.012 100.059C197.97 98.3368 195.812 96.7828 193.529 95.3988C192.721 94.9087 191.651 94.5533 190.913 94.0125C190.715 93.8668 190.549 93.3989 190.439 93.1715L189.196 90.5227L187.801 87.9643C186.468 85.7171 184.938 83.6268 183.119 81.7438C182.346 80.9448 181.463 80.2362 180.583 79.5607L178.347 77.9603C178.188 77.8478 177.83 77.669 177.762 77.5078C183.675 79.5232 189.673 82.395 194.558 86.322C207.195 96.4826 215.619 112.076 232.178 116.574C236.419 117.727 240.818 117.755 244.825 115.795C248.694 113.901 251.943 110.089 253.343 106.014C254.782 101.831 254.606 97.4208 253.639 93.1539C253.316 91.7301 252.937 90.1761 252.305 88.8539C251.93 87.7568 251.27 86.567 251.034 85.4633C250.917 84.9136 250.948 84.4766 251.279 84.0064L251.902 84.0682V84.066Z" fill="#F4A33E"/>
<path d="M161.661 123.216C162.049 123.737 162.433 124.234 162.893 124.695C159.961 129.373 158.465 135.196 159.727 140.692C160.098 142.308 160.974 143.54 161.539 145.045C161.866 145.915 162.007 146.959 162.043 147.884C162.153 150.743 160.158 154.12 158.913 156.632L154.745 164.724C153.754 166.576 152.842 168.517 151.758 170.313L151.045 171.322C150.906 170.907 150.71 170.508 150.514 170.119C149.569 168.254 146.975 166.214 144.999 165.605C144.743 165.525 144.52 165.437 144.28 165.316L144.187 165.269C144.026 165.073 143.913 165.013 143.679 164.941L143.554 164.903C142.547 164.587 141.883 164.819 140.907 164.729C140.536 163.424 139.722 162.61 138.611 161.863L138.452 161.757C141.485 159.415 144.315 156.025 144.999 152.138C145.79 147.646 142.214 144.187 139.545 141.056C137.982 139.224 136.404 137.383 135.042 135.397C135.256 135.143 136.06 134.938 136.393 134.81L140.126 133.269C144.635 131.172 148.812 128.415 153.368 126.391C156.081 125.185 158.917 124.329 161.665 123.219L161.661 123.216Z" fill="#D17C2A"/>
<path d="M85.1746 168.02L85.8876 166.708C87.6689 163.102 87.9449 158.601 87.936 154.638C87.9206 148.564 87.2782 142.454 84.7375 136.867C83.8281 134.862 82.7089 132.953 81.592 131.061C80.7465 129.626 79.8592 128.253 79.3316 126.658C78.5016 124.148 78.6848 121.516 79.442 119.018C80.1174 116.786 81.0953 114.645 82.3778 112.694C84.753 109.08 87.7396 106.122 89.7351 102.222L90.1942 104.859L91.2736 104.197C97.0746 100.511 101.388 94.0785 102.946 87.4232C103.189 86.3902 103.359 85.3085 103.472 84.2534C103.505 83.9444 103.489 82.9797 103.613 82.7524C103.907 82.2115 104.882 81.4875 105.335 81.0063C107.509 78.6952 108.593 76.2295 109.275 73.1546L109.586 72.967L110.944 73.6601C111.425 73.925 111.626 74.1943 111.908 74.6424C112.109 74.6799 112.255 74.7108 112.456 74.6645L112.266 74.1457C112.802 73.9846 117.129 75.2031 117.981 75.3576C122.093 76.1037 126.243 76.4966 130.42 76.5827C135.653 76.6909 141.044 76.32 146.198 75.3974L154.716 73.6888C156.787 73.2871 158.988 72.8544 161.105 72.9692C165.517 73.2098 169.625 74.6513 173.488 76.7218C176.863 78.5297 180.046 80.7238 182.68 83.5249C186.691 87.7896 189.262 93.3457 190.94 98.8951C192.834 105.153 193.953 111.903 195.039 118.344C195.642 121.925 195.993 125.693 197.165 129.139C198.5 133.07 200.674 135.964 203.91 138.54C204.902 139.328 206.102 140.045 206.862 141.07C207.795 142.326 208.266 144.721 208.667 146.255C210.012 151.398 210.976 156.718 211.791 161.967C212.334 165.464 212.886 168.942 213.069 172.479C211.303 170.377 209.308 168.766 206.438 168.549C205.736 168.497 204.663 168.854 204.067 168.728C203.921 168.697 203.242 167.967 203.067 167.828C200.946 166.141 198.18 165.7 195.597 166.428L194.871 166.013C195.229 165.565 195.708 165.245 196.019 164.757C197.277 162.779 197.39 159.612 197.118 157.334C196.511 152.241 193.686 147.23 189.615 144.105C186.993 142.089 183.991 140.822 181.101 139.262C177.687 137.419 174.528 135.167 171.618 132.598C167.696 129.132 164.444 124.861 161.043 120.898C158.999 118.517 156.809 116.263 154.533 114.102C153.392 113.016 152.015 111.601 150.593 110.919L156.524 117.201C155.613 117.638 154.657 117.916 153.716 118.276L145.527 121.117C140.726 122.605 135.993 124.141 130.945 124.521C125.638 124.92 120.036 123.947 114.78 123.256L115.61 125.348C115.573 125.622 115.593 125.898 115.599 126.172L115.314 125.96C115.264 125.64 115.072 125.315 114.813 125.115L114.703 125.033C112.54 123.212 110.065 121.468 107.37 120.55C110.977 123.58 114.202 126.631 114.643 131.64C114.875 134.271 114.714 138.626 112.924 140.772L112.511 141.222L112.2 141.299C111.725 140.63 111.99 139.003 112.036 138.187C112.2 135.286 111.683 132.176 109.392 130.189C110.222 132.523 110.725 134.518 110.668 137.008C110.575 141.001 109.504 145.202 108.833 149.138L106.16 163.971C105.498 167.455 105.015 171.653 103.478 174.869L103.291 175.238C102.52 174.019 101.114 172.933 99.8317 172.326C98.121 171.518 96.0526 171.284 94.2602 171.951L94.1741 171.984C93.4545 171.346 92.6885 170.79 91.8255 170.362C89.7328 169.322 87.5563 169.19 85.3622 169.945L85.0443 169.587L84.722 168.845L85.1834 168.015L85.1746 168.02Z" fill="#F4A33E"/>
<path d="M110.942 73.6602C111.423 73.925 111.624 74.1943 111.906 74.6424C112.107 74.68 112.253 74.7109 112.454 74.6645C113.365 76.3422 113.767 78.437 113.674 80.3353C112.99 77.8939 112.22 75.8609 110.942 73.6602Z" fill="#4B180A"/>
<path d="M114.694 125.04C114.052 123.274 112.725 121.762 111.432 120.444C109.089 118.058 106.039 115.462 104.622 112.393C104.11 111.287 103.915 110.166 103.717 108.974C104.363 110.049 104.725 111.259 105.408 112.329C107.277 115.27 109.979 117.444 112.314 119.987C113.255 121.011 114.032 122.088 114.774 123.26L115.604 125.353C115.566 125.627 115.586 125.903 115.592 126.176L115.308 125.964C115.257 125.644 115.065 125.32 114.807 125.119L114.696 125.037L114.694 125.04Z" fill="#4B180A"/>
<path d="M12.9729 94.1183L12.8559 94.0411C12.1076 93.4142 11.3769 92.4054 10.803 91.6108C8.36602 88.2423 6.97978 84.3131 6.66633 80.172C6.59569 79.2383 6.5979 78.3156 6.64205 77.3797C6.65971 76.9978 6.7789 76.3885 6.71488 76.0287C6.69281 75.9118 6.36171 75.5299 6.28445 75.4129C5.90699 74.8566 5.5825 74.2827 5.28891 73.6779C4.37284 71.7906 3.66206 69.8701 3.24928 67.8062C2.25154 62.8197 3.1345 57.4138 5.95997 53.1579C5.70833 53.0122 5.1984 53.0431 4.89378 53.0188C4.19183 52.9659 3.48546 52.893 2.79896 52.723C1.77694 52.4692 0.871921 51.9439 0 51.3721C1.83876 50.8225 3.59585 50.0389 5.21608 49.0058C8.77661 46.7344 11.0017 42.6816 12.6418 38.9026C13.4166 37.1146 14.1163 35.3597 14.5291 33.4525C13.8426 32.4812 12.7963 31.8499 12.1186 30.7882C10.6198 28.4417 10.4851 25.4507 11.0789 22.7974C11.6859 20.0823 13.0347 17.535 15.4496 16.0361C17.8799 14.5263 20.9217 15.0362 23.5441 15.6609C23.8134 15.3562 23.8818 15.1642 23.8929 14.7448C23.9083 14.0362 23.2947 13.246 22.7936 12.7868C21.979 12.0407 21.2086 12.2196 20.1844 12.2549C21.3654 11.2858 22.8267 10.3698 24.2063 9.70974C26.5925 8.57072 29.5173 7.97694 32.1507 8.33454C33.3626 8.50009 34.6782 8.96142 35.8282 9.36537C35.4839 8.82015 34.9342 8.34777 34.4839 7.88201C33.1286 6.48252 31.8307 5.37219 30.1023 4.4495C31.3362 4.08086 32.5458 3.78288 33.8394 3.75419C37.0026 3.68576 39.5963 4.85789 41.8522 7.0101C41.1414 4.75855 40.2254 2.88226 38.6625 1.1031C40.051 1.06778 41.4284 1.1958 42.7506 1.63949C45.724 2.63944 47.1345 4.76517 48.4347 7.44716C49.7216 5.78499 51.1763 4.21111 52.9113 3.00367C56.8647 0.253252 61.3546 -0.521545 66.0387 0.326095C66.0387 0.43205 64.0343 1.41654 63.6525 1.6439C61.913 2.68138 60.5555 4.16696 59.1979 5.64371C58.7344 6.22867 58.1825 6.82247 57.8271 7.47806C61.8292 4.37667 67.1622 2.50038 72.2635 3.13611C74.7976 3.45176 77.1728 4.30382 79.1263 5.98144L73.9544 7.19551C79.2896 7.97251 84.7066 9.21529 88.1457 13.8265L89.6136 16.0494L85.6249 14.9964C86.3997 15.4423 87.2385 15.8794 87.9338 16.4489C90.7659 18.7711 92.7261 22.5921 93.6819 26.0776C93.8497 26.689 93.9755 27.3181 94.0593 27.9495C94.0903 28.1879 94.0748 28.6823 94.1631 28.8876C94.3838 29.4019 95.3396 30.2341 95.7612 30.6469C99.2997 34.128 103.646 36.5782 105.728 41.3152C106.198 42.3836 106.454 43.5491 106.792 44.6639L100.911 41.7655C101.796 42.5205 102.752 43.2732 103.553 44.1142C106.575 47.284 109.714 52.6656 110.036 57.0826C110.103 57.9965 109.977 59.0472 109.831 59.9523L106.114 57.1688C107.081 58.3718 108.067 59.5616 108.805 60.9258C110.204 63.5128 110.591 66.4906 110.27 69.3867C110.198 70.0556 109.75 71.7817 110.045 72.2695L110.332 72.4153L110.12 72.8148L109.593 72.9671L109.282 73.1547C108.599 76.2274 107.516 78.6931 105.341 81.0064C104.887 81.4876 103.913 82.2117 103.62 82.7525C103.496 82.9798 103.511 83.9445 103.478 84.2535C103.366 85.3086 103.196 86.3903 102.953 87.4233C101.395 94.0787 97.0813 100.511 91.2802 104.197L90.2008 104.86L89.7417 102.222C87.7484 106.122 84.7596 109.08 82.3844 112.694C81.1019 114.645 80.124 116.786 79.4486 119.018C78.6936 121.514 78.5082 124.148 79.3382 126.658C79.8658 128.254 80.7532 129.627 81.5986 131.061C82.7155 132.955 83.8347 134.865 84.7441 136.867C87.2826 142.454 87.925 148.564 87.9427 154.639C87.9537 158.601 87.6778 163.102 85.8942 166.709L85.1812 168.02L84.6448 167.702C85.168 166.384 85.7441 165.049 86.0553 163.662C86.7462 160.587 86.8478 157.44 86.8191 154.301C86.7705 148.776 86.265 143.22 84.0532 138.094L83.9958 137.964C78.8747 138.262 73.5173 137.924 68.5242 136.697C67.7383 142.889 65.9084 148.767 64.8003 154.881C64.5045 156.508 64.286 158.137 64.158 159.786C64.0895 160.671 64.2043 161.647 63.9681 162.508C63.6922 163.517 63.2066 164.439 62.3545 165.08C62.0168 165.333 61.3148 165.589 61.0632 165.872C60.9131 166.04 60.7542 166.854 60.6482 167.108C60.1184 168.388 59.4496 169.671 58.7432 170.861C58.4916 171.285 58.2112 171.867 57.8647 172.209C57.6439 172.342 57.4276 172.419 57.3018 172.646C57.1716 172.885 57.0479 173.055 56.8493 173.247L56.8559 172.609L54.6772 175.454C54.1673 174.092 53.5073 172.816 52.6795 171.62C52.3307 171.117 51.8914 170.686 51.5515 170.183L51.4588 170.044C50.8672 168.973 49.066 167.731 47.9733 167.263C46.5164 166.64 45.2737 167.026 43.8808 167.572L43.7329 167.243L43.8036 167.082L43.6667 166.843C42.6381 165.461 40.775 164.777 39.1526 164.506C39.0532 164.57 38.4352 164.548 38.2829 164.552L37.8591 163.978C38.6824 163.689 39.519 163.406 40.2386 162.899C42.8213 161.069 43.6159 158.294 44.117 155.34C44.7329 151.718 44.2715 147.705 43.936 144.063L41.85 127.722L41.4085 125.11C41.382 124.958 41.3445 124.435 41.2717 124.327C41.179 124.185 36.9673 121.929 36.3382 121.494C33.3228 119.411 30.8726 116.749 28.7513 113.784C22.4691 111.089 17.8998 106.46 15.6283 99.9746C15.295 99.021 15.0677 98.0211 14.8602 97.0322C14.7917 96.7055 14.7454 96.0432 14.6063 95.7761C14.3569 95.2971 13.3857 94.5664 12.9729 94.1161V94.1183Z" fill="#B4511A"/>
<path d="M42.042 25.7244L42.3223 25.4485C42.1788 25.1218 42.031 24.7178 41.7771 24.4618L41.6866 24.3845L41.6645 23.8569C42.9095 25.5434 43.6468 27.8104 43.6446 29.914C42.9227 28.7243 42.6468 27.0312 42.0442 25.7244H42.042Z" fill="#4B180A"/>
<path d="M17.5422 61.1972L17.8711 60.8926L18.1647 60.9986C17.8733 62.4643 17.7387 63.7843 17.8292 65.2787C17.8799 66.0999 18.0742 66.91 18.1205 67.7245C18.2331 67.9519 18.3435 68.1329 18.3655 68.3889L18.2 68.5876L18.0168 68.5214C17.0257 66.2632 17.1139 63.568 17.5422 61.1972Z" fill="#4B180A"/>
<path d="M44.2538 29.7285C44.4326 28.0089 44.5452 26.2805 44.3973 24.5543C44.1103 21.23 43.1633 18.1242 42.4216 14.8948L42.7616 15.6078C44.7902 19.8769 45.3045 24.9671 44.5518 29.5916L44.2538 29.7285Z" fill="#4B180A"/>
<path d="M16.7518 52.0124C15.679 52.1846 14.8071 52.8093 13.9396 53.4185C14.0654 52.8578 14.5069 52.189 14.8115 51.7012C15.785 50.1405 17.1911 48.7212 18.6568 47.6131C19.6788 46.8405 21.0055 46.1672 21.7163 45.0723C22.3255 44.132 22.4624 43.0018 22.6036 41.9158C22.8575 39.96 22.8531 37.9469 23.1864 36.011C23.619 33.5034 24.6675 31.1635 26.3937 29.285C28.0647 27.4684 30.9365 26.1086 33.4044 26.0181C37.8192 25.857 40.7815 27.7465 43.894 30.6227L44.0926 30.519L44.2538 29.7287L44.5518 29.5919C44.49 30.0665 44.2957 30.658 44.5186 31.0819L46.8055 29.8192C47.1609 29.6647 47.8474 27.7443 48.1167 27.2874L48.1851 27.1726L48.3463 27.3602C48.5251 27.2476 48.6862 27.135 48.8871 27.0644L47.7017 29.2696C51.9642 27.2189 56.6351 26.0932 61.2507 27.7068C64.862 28.9672 67.182 31.53 68.789 34.9249C70.2635 38.0418 71.0692 41.3993 72.4577 44.5448C73.5945 47.1208 75.25 49.2576 76.6186 51.6879C77.5744 53.3854 78.2985 55.1337 78.7775 57.0254C78.9894 57.8576 79.2476 58.6743 79.1792 59.544L79.0092 59.6853C78.2432 59.2195 77.6075 58.1887 77.0446 57.4912C77.9298 61.1444 77.4795 64.6078 75.7842 67.9851L75.6429 68.0491C75.4641 67.696 75.4068 67.1353 75.1088 66.9145C74.8483 68.2191 74.5525 69.3559 73.9742 70.5656C73.4024 71.7642 72.5989 72.8767 71.9787 74.0621C68.2548 72.7332 64.2572 71.8856 60.5179 73.6559C59.2045 74.2784 58.0831 75.104 57.0412 76.1106C56.4298 76.7021 56.0214 78.6424 55.6528 79.5011C55.304 80.3112 54.8824 81.0816 54.3857 81.8122C53.4829 83.1345 52.2092 84.4081 50.8782 85.3021C50.3307 85.6686 49.62 85.9931 49.1409 86.4368C48.514 87.0173 48.0703 87.8252 47.6355 88.5536C46.5252 90.41 45.2957 92.5556 45.3398 94.774C45.3486 95.2332 45.4237 95.7122 45.5495 96.1515C46.0418 93.4408 46.9777 91.2754 48.9401 89.302C47.2051 94.5114 47.5141 99.7716 49.9797 104.727C51.1475 107.071 52.7942 108.826 54.538 110.736C53.3703 106.943 53.1893 103.71 54.7058 99.9857C54.2444 104.873 54.4718 109.089 56.5137 113.647C51.8627 110.014 47.8077 105.365 47.0527 99.2971C46.8629 97.7695 46.7614 96.2111 46.9181 94.6769C47.0042 93.8447 47.2382 93.0413 47.3375 92.2157C46.4788 93.9353 46.0285 95.5952 45.7879 97.4936C45.4634 97.4472 45.2802 97.1206 45.0904 96.8601C44.9094 96.6084 44.8012 96.3369 44.6864 96.0521L44.618 95.8888C43.9646 94.1803 44.6842 91.8868 45.4369 90.3416C46.0219 89.1386 46.7371 88.0636 47.5273 86.993C43.2472 88.079 38.9317 88.2005 34.6472 87.0283C33.2013 86.6332 31.7334 86.1586 30.4443 85.3772C29.2081 84.6289 27.7579 83.4082 27.4202 81.9248C27.0184 80.1655 28.515 76.9405 29.0492 75.2077C29.089 75.0753 29.345 74.4219 29.3207 74.3248C29.3053 74.2585 28.983 73.9407 28.9212 73.87C28.504 73.391 28.0846 72.9142 27.7049 72.4043C26.3783 70.6163 25.2106 68.718 24.2548 66.7048C22.3829 66.5878 20.436 66.5481 18.9239 67.8659L18.414 68.3405L18.361 68.3913C18.3389 68.1352 18.2286 67.9542 18.116 67.7269C18.5199 67.3229 18.9283 66.9167 19.4051 66.5989C20.9194 65.5835 22.4116 65.6828 24.1179 66.0073C23.6764 64.4533 23.4336 62.7205 23.7426 61.1157C24.5196 57.0739 27.6255 53.4031 30.9807 51.1537L31.6385 50.9219C30.0072 52.5554 28.2855 54.1558 26.9765 56.0674L27.195 56.6523C26.3981 57.9128 25.513 59.3277 25.8463 60.8971C26.3121 63.0891 28.674 64.7314 30.3935 65.9499C30.8549 66.4201 31.3074 66.9344 31.8438 67.3207C32.4067 67.8593 33.1219 68.4752 33.9011 68.6429C34.2212 68.5767 34.4927 68.4862 34.8061 68.623L35.0202 71.8503C34.8216 72.0313 34.6891 72.1262 34.4331 72.2255C33.3007 72.9231 32.1286 73.5102 30.8505 73.8965L31.1418 74.2475L30.1551 74.3998C29.6474 75.1636 28.3848 80.2008 28.3605 81.203C28.3384 82.0661 28.7711 82.7129 29.3605 83.3111C32.0049 85.9842 37.4086 86.8782 41.0354 86.9025C45.1566 86.929 49.1983 86.1211 52.2203 83.1036C55.3261 80.0044 57.1869 74.1084 57.2266 69.7819C57.5842 71.528 57.3657 73.2895 57.0103 75.0201C57.8006 74.1989 58.5643 73.5102 59.5863 72.9937C63.6833 70.9165 67.2968 71.5743 71.4445 72.9253C71.4732 70.7245 70.1708 68.7908 69.1046 66.9785C70.7911 68.1926 71.8219 69.6075 72.3738 71.603C72.6475 71.4021 72.983 70.5457 73.1398 70.2014C74.4598 67.2898 74.2832 64.3363 73.2104 61.4093C74.4399 62.7801 75.1087 64.2899 75.7599 65.9874C76.0933 64.716 76.4663 63.418 76.5921 62.1068C76.9321 58.5948 75.7754 56.6347 73.5879 54.0189C75.5083 54.8908 76.6959 55.8709 78.124 57.4073C77.5214 55.6568 76.9144 53.9571 75.9961 52.3413C74.6209 49.9264 72.8969 47.7852 71.7226 45.2445C69.9523 41.4169 69.2128 37.2074 67.0098 33.5497C65.4006 30.8766 62.8974 28.9628 59.8468 28.2321C53.995 26.8282 49.0482 29.2652 44.1986 32.243C42.4172 29.9274 39.6624 28.029 36.859 27.2454C34.2234 26.5103 31.5966 26.7819 29.2059 28.1681C27.7888 28.9915 26.6432 30.1415 25.758 31.5189C24.0053 34.2428 23.8861 37.1677 23.6654 40.2889C23.5462 41.9732 23.4424 43.8494 22.5595 45.335C21.8045 46.6065 20.5905 47.229 19.4139 48.0391C18.5244 48.6505 17.7098 49.3657 16.9726 50.1538C16.5819 50.5732 16.1448 50.9882 15.9903 51.5511C16.2618 51.9153 16.3015 51.9042 16.7474 52.0146L16.7518 52.0124Z" fill="#4B180A"/>
<path d="M26.9832 56.0649L27.2017 56.6499C26.4049 57.9103 25.5197 59.3252 25.853 60.8947C26.3188 63.0866 28.6807 64.729 30.4002 65.9475C30.8616 66.4176 31.3141 66.9319 31.8505 67.3182C32.4134 67.8568 33.1286 68.4727 33.9078 68.6405C34.2279 68.5743 34.4994 68.4837 34.8128 68.6206L35.0269 71.8478C34.8283 72.0288 34.6959 72.1237 34.4398 72.2231C33.3074 72.9206 32.1353 73.5078 30.8572 73.8941L30.0625 73.9139C27.7801 71.5012 25.363 67.954 24.7008 64.6694C24.0408 61.409 25.2085 58.7403 26.9832 56.0649Z" fill="#F4CB7F"/>
<path d="M33.9079 68.6405C34.2279 68.5743 34.4994 68.4838 34.8129 68.6206L35.027 71.8479C34.8283 72.0289 34.6959 72.1238 34.4399 72.2231L33.9079 68.6405Z" fill="#4B180A"/>
<path d="M48.1853 27.1748C48.6445 26.049 49.4347 24.8659 50.1941 23.9079C54.0151 19.1068 60.2929 17.7912 65.8909 20.1796C66.158 20.2943 67.8819 21.3495 67.9768 21.3341C68.1777 21.3031 69.4205 20.0957 69.7538 19.8507C71.5749 18.513 73.9192 17.6764 76.153 17.4358C80.2743 16.9965 84.5522 18.1929 87.1591 21.5923C87.9163 22.5812 88.3842 23.8549 89.3665 24.6231L89.5122 24.7356L89.2076 25.0447L89.1723 25.1815C89.0928 25.5391 89.318 26.0821 89.3886 26.4419C89.4945 26.9872 89.5365 27.5456 89.5475 28.1019C89.6358 32.658 87.3975 36.7748 83.7178 39.4016L83.06 39.8585C87.8169 43.0438 90.4945 47.4873 91.6092 53.0874L91.9801 55.9659C91.6688 55.1116 91.4547 54.2242 91.1082 53.3854C89.8786 50.4076 88.201 47.878 85.8214 45.6993C85.0864 45.026 83.539 43.9775 83.0754 43.1299C85.4263 44.2446 87.3026 45.8074 89.0001 47.7698C88.0487 46.026 86.9582 44.3748 85.519 42.9886C83.4926 41.0373 81.0954 39.5738 79.2346 37.4171C74.3099 31.711 71.8906 22.7468 63.8733 20.4003C60.8293 19.5085 56.9354 19.9456 54.174 21.4753C51.9004 22.7357 50.2139 24.8835 48.8807 27.0644C48.682 27.1351 48.5187 27.2499 48.3399 27.3602L48.1787 27.1726L48.1853 27.1748Z" fill="#4B180A"/>
<path d="M72.705 25.8921C71.4976 24.3756 70.1599 23.0357 68.6478 21.8194C71.5704 19.3273 75.0338 18.0028 78.9144 18.3052C81.6096 18.5149 84.3733 19.6694 86.1591 21.7598C88.0883 24.0202 88.8234 26.6978 88.5696 29.627C88.3003 32.7019 86.5917 35.9269 84.2011 37.9069C83.6559 38.3594 83.0489 38.7634 82.4198 39.0923C81.3558 38.2954 80.464 37.4345 79.6119 36.4147L77.3648 33.108L77.3361 33.1036L72.705 25.8943V25.8921Z" fill="#F4A33E"/>
<path d="M76.5944 24.0179C78.4905 23.5875 80.7354 23.7332 82.4042 24.806C83.36 25.4196 84.0112 26.5586 84.243 27.6557C84.6757 29.7042 84.1172 32.0617 82.9583 33.7857C82.0886 35.0792 81.0599 35.8761 79.6097 36.4125L77.3625 33.1058C78.4221 32.5517 79.4441 32.1412 80.1416 31.1015C80.7972 30.1258 81.3116 28.7153 81.0754 27.541C80.8833 26.5852 80.6736 25.7861 79.8966 25.1172C78.9254 24.2784 77.8703 23.912 76.5944 24.0179Z" fill="#B4511A"/>
<path d="M76.5945 24.0179C77.8704 23.9098 78.9255 24.2784 79.8967 25.1172C80.6738 25.786 80.8834 26.5851 81.0755 27.5409C81.3117 28.7175 80.7974 30.128 80.1418 31.1015C79.4442 32.1412 78.4222 32.5517 77.3627 33.1058L77.334 33.1014L72.7029 25.892C73.9478 24.9627 75.0802 24.3799 76.5945 24.0179Z" fill="#722D0E"/>
<path d="M12.9729 94.1183L12.8559 94.0411C12.1076 93.4142 11.3769 92.4054 10.803 91.6108C8.36602 88.2423 6.97978 84.3131 6.66633 80.172C6.59569 79.2383 6.5979 78.3156 6.64205 77.3797C6.65971 76.9978 6.7789 76.3885 6.71488 76.0287C6.69281 75.9117 6.36171 75.5299 6.28445 75.4129C5.90699 74.8566 5.5825 74.2827 5.28891 73.6779C4.37284 71.7906 3.66206 69.8701 3.24928 67.8062C2.25154 62.8197 3.1345 57.4138 5.95997 53.1579C5.70833 53.0122 5.1984 53.0431 4.89378 53.0188C4.19183 52.9659 3.48546 52.893 2.79896 52.723C1.77694 52.4692 0.871922 51.9438 0 51.3721C1.83876 50.8225 3.59585 50.0389 5.21608 49.0058C8.77661 46.7344 11.0017 42.6816 12.6418 38.9026C13.4166 37.1146 14.1163 35.3597 14.5291 33.4525C13.8426 32.4812 12.7963 31.8499 12.1186 30.7882C10.6198 28.4417 10.4851 25.4507 11.0789 22.7974C11.6859 20.0823 13.0347 17.535 15.4496 16.0361C17.8799 14.5263 20.9217 15.0362 23.5441 15.6609C23.8134 15.3562 23.8818 15.1642 23.8929 14.7448C23.9083 14.0362 23.2947 13.246 22.7936 12.7868C21.979 12.0407 21.2087 12.2196 20.1844 12.2549C21.3654 11.2858 22.8267 10.3698 24.2063 9.70974C26.5925 8.57072 29.5173 7.97694 32.1507 8.33453C33.3626 8.50009 34.6782 8.96142 35.8282 9.36537C35.4839 8.82014 34.9342 8.34777 34.4839 7.88201C33.1286 6.48252 31.8307 5.37219 30.1023 4.4495C31.3362 4.08086 32.5458 3.78288 33.8394 3.75419C37.0026 3.68576 39.5963 4.85789 41.8522 7.0101C41.1414 4.75855 40.2254 2.88226 38.6626 1.1031C40.051 1.06778 41.4284 1.1958 42.7506 1.63948C45.724 2.63944 47.1345 4.76517 48.4347 7.44716C49.7216 5.78499 51.1763 4.21111 52.9113 3.00367C56.8647 0.253252 61.3546 -0.521545 66.0387 0.326095C66.0387 0.43205 64.0344 1.41654 63.6525 1.6439C61.913 2.68138 60.5555 4.16696 59.1979 5.6437C58.7829 5.69006 58.7366 5.80927 58.443 6.09402L58.368 5.98144L58.7918 5.4892L58.6925 5.21327L58.7852 5.08304C60.0301 3.34362 61.5356 2.08979 63.2905 0.891174C62.2022 0.891174 61.072 0.844825 59.9948 1.00817C56.7985 1.4938 53.5382 3.23102 51.2602 5.50243C48.4391 8.31907 46.5915 11.4403 46.5032 15.5373L46.3531 15.449C46.2405 13.065 46.6202 10.277 47.9557 8.24623C46.7416 5.58191 45.4657 3.58863 42.5939 2.50479L40.4285 1.91762C41.2275 3.35022 41.956 4.68571 42.3533 6.29711C42.5454 7.07853 42.5983 7.90409 42.85 8.66564C42.0068 7.95928 41.2099 7.17785 40.2982 6.55978C38.3204 5.21768 35.8106 4.46716 33.4222 4.67907L32.1551 4.79607C33.3184 5.65254 34.3934 6.55535 35.3404 7.65243C35.8636 8.25946 36.2786 8.9504 36.7841 9.57288C37.2586 10.1578 37.8679 10.6236 38.3513 11.1975C39.0334 12.0032 39.4462 13.4071 39.6007 14.4358C39.6316 14.6411 39.7684 15.1355 39.6846 15.3099C39.3534 14.8154 39.3424 14.1334 39.093 13.5793C38.7972 12.9237 38.4153 12.0893 37.8833 11.5882C36.6626 10.4404 34.4707 9.72297 32.8505 9.39628C30.2413 8.87092 27.4931 9.31681 25.0385 10.2748C24.4005 10.5243 23.6456 10.8002 23.0805 11.1909L22.9415 11.2902C26.5792 11.4448 31.5327 12.3034 34.0712 15.1708L34.5833 15.8794L34.4199 15.928C32.1838 13.5462 27.8375 12.2129 24.661 12.1114L23.3807 12.0849C24.3189 13.1709 24.6919 13.9413 24.5771 15.4004L24.4734 16.0317C25.736 16.6586 26.9942 17.2966 28.1509 18.1045C28.7933 18.5526 29.6122 19.4995 30.2788 19.7887C30.451 19.8638 31.9167 19.6364 32.2876 19.6408C35.3713 19.685 39.9583 21.0094 41.6646 23.8547L41.6867 24.3823L41.7772 24.4595C42.031 24.7156 42.1789 25.1174 42.3224 25.4463L42.0421 25.7222C40.424 23.0844 38.071 21.5215 35.0667 20.8218C32.0757 20.1242 29.0758 20.5458 26.4711 22.1749C22.0828 24.9165 19.6988 29.8125 18.5907 34.7284C18.1956 36.4832 17.9483 38.3088 17.3678 40.0151C16.1824 43.5006 13.1804 47.6902 10.0657 49.6614C8.63754 50.5642 7.57799 50.6392 5.90699 50.4604C5.71054 50.4384 5.25139 50.3192 5.0748 50.3589C4.16315 50.562 3.0197 51.2596 2.11026 51.6017C3.76801 51.871 6.06371 52.0123 7.69498 51.573C8.42342 51.3765 9.1055 51.0101 9.84056 50.8402C8.78763 51.7253 7.76562 52.6061 6.92239 53.7032C4.98209 56.2284 4.23156 59.3673 3.95343 62.4798C3.58921 66.5259 4.73707 71.3116 6.9246 74.7264C7.40361 71.4904 8.63975 68.3492 10.5381 65.6783C10.7677 65.3538 11.0988 64.7578 11.3946 64.5414L11.5491 64.462C11.4299 65.0735 10.7633 65.7908 10.4542 66.3603C9.98405 67.2278 9.5779 68.1704 9.24679 69.102C6.69724 76.2694 7.12547 84.3793 11.4718 90.7697C11.8692 91.3525 12.3173 91.9021 12.7698 92.443C12.8603 92.5511 13.432 93.2089 13.4298 93.2332L13.4695 93.337C13.6528 93.7807 13.8713 93.9815 14.2289 94.2795L14.4055 94.8468L14.2995 95.0234C13.8779 94.6481 13.5181 94.3104 12.9751 94.1206L12.9729 94.1183Z" fill="#4B180A"/>
<path d="M15.4274 34.042L17.5421 35.1744C16.7805 38.6466 16.0168 41.5581 14.0941 44.611C12.6439 46.9133 10.7389 49.4916 7.95976 50.1185L5.46981 50.0257C10.9508 46.0657 13.2995 40.2271 15.4274 34.042Z" fill="#B4511A"/>
<path d="M18.083 32.7485C17.9417 33.2231 17.9439 33.9382 17.6724 34.34C16.7431 33.7881 15.7873 33.2495 14.9441 32.5697C13.123 31.1017 11.995 29.2873 11.7433 26.943C11.4189 23.9145 12.1252 20.7226 14.0987 18.3452C15.2487 16.959 16.8557 16.0893 18.6547 15.9502C22.6611 15.6367 26.2504 17.5329 29.1884 20.0846C27.9876 20.4378 26.7029 20.8705 25.6698 21.5923C22.0144 24.3802 19.4427 28.3469 18.083 32.7507V32.7485Z" fill="#F4A33E"/>
<path d="M18.083 32.7483C17.2662 31.9073 16.5753 31.031 16.0787 29.9604C15.2995 28.2783 14.9065 26.3314 15.5997 24.5456C16.1228 23.1947 17.1912 22.1749 18.5046 21.5943C20.7561 20.5988 23.4094 20.7158 25.6676 21.5921C22.0121 24.3801 19.4405 28.3468 18.0808 32.7505L18.083 32.7483Z" fill="#722D0E"/>
<path d="M59.1957 5.64834C58.7321 6.2333 58.1803 6.8271 57.8249 7.4827C61.8269 4.38131 67.16 2.50501 72.2613 3.14074C74.7954 3.4564 77.1705 4.30846 79.124 5.98608L73.9521 7.20015C79.2874 7.97715 84.7043 9.2199 88.1435 13.8311L89.6114 16.054L85.6226 15.0011C86.3974 15.447 87.2362 15.884 87.9316 16.4535C90.7637 18.7757 92.7238 22.5967 93.6796 26.0822C93.8474 26.6936 93.9732 27.3228 94.0571 27.9541C94.088 28.1925 94.0725 28.6869 94.1608 28.8922C94.3816 29.4066 95.3374 30.2387 95.759 30.6515C99.2974 34.1326 103.644 36.5828 105.725 41.3199C106.196 42.3882 106.452 43.5537 106.789 44.6685L100.909 41.7702C101.794 42.5251 102.75 43.2778 103.551 44.1188C106.573 47.2886 109.712 52.6703 110.034 57.0873C110.1 58.0011 109.975 59.0519 109.829 59.9569L106.112 57.1734C107.079 58.3764 108.065 59.5662 108.803 60.9304C110.202 63.5175 110.588 66.4952 110.268 69.3913C110.195 70.0601 109.747 71.7863 110.043 72.2742L110.33 72.4199L110.118 72.8194L109.591 72.9717L109.279 73.1593C108.597 76.232 107.513 78.6977 105.339 81.0111C104.884 81.4923 103.911 82.2163 103.617 82.7571C103.494 82.9845 103.509 83.9491 103.476 84.2581C103.363 85.3133 103.194 86.3949 102.951 87.428C101.392 94.0833 97.079 100.516 91.278 104.202L90.1986 104.864L89.7394 102.226C87.7461 106.127 84.7573 109.085 82.3822 112.698C81.0997 114.65 80.1218 116.791 79.4463 119.022C78.6914 121.519 78.506 124.152 79.3359 126.662C79.8635 128.258 80.7509 129.631 81.5963 131.066C82.7133 132.96 83.8324 134.869 84.7419 136.871C87.2804 142.458 87.9227 148.568 87.9404 154.643C87.9514 158.605 87.6755 163.106 85.8919 166.713L85.1789 168.024L84.6425 167.707C85.1657 166.389 85.7418 165.053 86.0531 163.667C86.744 160.592 86.8455 157.444 86.8168 154.305C86.7683 148.78 86.2628 143.224 84.051 138.099L83.9936 137.969C78.8724 138.267 73.5151 137.929 68.5219 136.701C67.7361 142.893 65.9062 148.771 64.798 154.886C64.5023 156.513 64.2837 158.142 64.1557 159.791C64.0873 160.676 64.202 161.652 63.9658 162.513C63.6899 163.521 63.2043 164.444 62.3523 165.084C62.0145 165.338 61.3126 165.594 61.0609 165.877C60.9108 166.044 60.7519 166.859 60.6459 167.113C60.1162 168.393 59.4473 169.676 58.741 170.865C58.4893 171.289 58.209 171.872 57.8624 172.214C57.6417 172.346 57.4253 172.424 57.2995 172.651C57.1693 172.889 57.0457 173.059 56.847 173.251L56.8536 172.614C57.2223 171.852 57.7388 171.137 58.156 170.395C58.9904 168.918 59.7387 167.369 60.2817 165.762C59.0412 165.113 58.4761 164.384 57.9441 163.086C57.1185 161.076 57.0655 159.131 57.8999 157.129C57.7101 159.338 57.7631 161.363 58.8469 163.362C59.3237 164.243 59.8491 164.744 60.8137 165.027C61.136 164.989 61.3744 164.91 61.6282 164.711C62.1602 164.294 62.7408 163.649 62.9152 162.987C63.2794 161.601 63.1646 159.881 63.275 158.435C63.4008 156.776 63.6634 155.12 63.9658 153.484C65.0188 147.785 67.0386 142.346 67.7537 136.56C60.1669 134.622 52.472 132.203 45.9182 127.779C44.7085 126.962 43.596 125.996 42.4746 125.066C43.6755 131.249 44.5055 137.445 45.0088 143.728C45.3774 148.321 45.8785 153.484 44.5231 157.963C43.6004 161.011 41.9493 163.031 39.1503 164.515C39.051 164.579 38.4329 164.557 38.2806 164.561L37.8568 163.987C38.6801 163.698 39.5167 163.415 40.2363 162.908C42.819 161.078 43.6137 158.303 44.1148 155.35C44.7306 151.727 44.2693 147.714 43.9337 144.072L41.8478 127.731L41.4063 125.119C41.3798 124.967 41.3423 124.444 41.2694 124.336C41.1767 124.194 36.965 121.938 36.3359 121.504C33.3206 119.42 30.8704 116.758 28.7491 113.793C22.4668 111.098 17.8975 106.469 15.6261 99.9836C15.2928 99.03 15.0654 98.0301 14.8579 97.0411C14.7895 96.7145 14.7431 96.0522 14.6041 95.7851C14.3546 95.3061 13.3834 94.5755 12.9706 94.1252C13.5114 94.315 13.8712 94.655 14.295 95.028L14.401 94.8514L14.2244 94.2841C13.8668 93.9839 13.6483 93.783 13.4651 93.3416L13.4253 93.2378L14.2597 93.9552C14.4716 93.7919 14.3877 92.7147 14.3966 92.3858C14.4518 89.6619 14.9418 87.0461 16.2861 84.6577C16.0477 85.9049 15.6769 87.1145 15.487 88.3727C14.9705 91.8052 15.401 95.2709 16.423 98.5709C18.2176 104.363 22.5463 109.376 27.8749 112.204C26.0913 109.317 24.7206 105.014 24.9435 101.586C25.1974 101.975 25.2106 102.542 25.2923 102.995C26.2238 108.1 29.3914 113.477 33.0866 117.073C35.3668 119.294 37.998 121.124 40.6006 122.938C39.7066 121.409 38.7199 119.87 38.0532 118.223C36.8966 115.363 36.6824 112.438 36.859 109.398C37.7795 115.069 39.2629 120.451 43.6468 124.49C45.8829 126.55 48.6421 128.062 51.3418 129.424C58.3679 132.969 66.0364 135.289 73.8109 136.47C77.0888 136.969 80.3381 137.331 83.6603 137.185L79.996 130.508C77.4464 126.263 74.7269 121.952 74.1618 116.919C73.6144 112.029 74.9852 107.012 78.0623 103.173L78.2411 103.217C77.5038 104.33 76.9343 105.566 76.4642 106.813C75.1574 110.281 74.7666 114.85 75.5834 118.473C76.1396 120.943 77.1727 123.25 78.2036 125.55C77.3868 119.751 79.8702 114.385 83.3314 109.879C86.0796 106.306 89.0132 103.054 90.0772 98.5356C90.5716 96.4363 90.6599 94.3371 90.4259 92.2003C90.32 91.2357 90.1103 90.3064 90.1125 89.3351C91.1124 92.2622 91.5848 95.1031 91.0727 98.1846C90.9402 98.9837 90.2824 100.553 90.459 101.282L90.9071 103.268C90.9998 103.255 91.0153 103.257 91.1146 103.213C92.0395 102.802 93.1211 101.716 93.854 101.003C96.8561 98.0853 99.2555 95.0943 100.829 91.1695C103.529 84.437 103.235 77.2122 100.333 70.5922C99.6396 69.0117 98.5469 67.6276 97.8847 66.0802C102.136 70.1197 103.359 75.8656 103.697 81.5033C105.538 79.5233 107.646 77.1547 108.138 74.3822C108.257 73.7068 108.067 72.815 107.964 72.1285C107.429 68.6099 106.213 65.6365 104.178 62.7139L104.262 62.7515C104.814 63.0583 105.359 63.7558 105.734 64.2569C107.429 66.5084 108.259 68.9565 108.92 71.6583C109.668 69.5039 109.624 66.2017 109.043 64.0318C107.871 59.6545 104.544 56.4648 100.732 54.2706C104.059 54.7209 106.319 56.2286 108.889 58.2197C108.997 58.3036 108.935 58.2859 109.076 58.2727C109.076 56.5796 108.855 55.1382 108.248 53.5444C107.522 51.6373 106.509 49.8448 105.41 48.1319C103.507 45.1696 101.551 42.9202 98.4675 41.1587C97.4675 40.587 96.3925 40.1875 95.344 39.7173C99.0613 40.1323 102.231 41.3154 105.478 43.1211C104.825 41.055 103.748 39.214 102.277 37.618C100.202 35.3621 97.5426 33.6712 95.3727 31.5102C94.2911 30.433 93.3728 29.2145 92.3419 28.0954C91.3685 27.038 90.2692 26.0226 89.203 25.058L89.5076 24.7489C90.7968 25.4906 91.9159 26.5612 93.0174 27.5501C92.6201 24.5414 90.8806 20.95 88.9227 18.6146C86.3864 15.5905 82.5897 14.8002 78.8525 14.4559C82.0025 13.9746 84.6271 13.9371 87.7572 14.6148C85.7175 12.1646 83.1923 10.5488 80.2255 9.42519C75.0801 7.47606 70.3254 7.99481 65.3808 10.2066C68.4336 7.65045 73.1729 6.56441 76.9564 5.50486C76.314 5.13622 75.5414 4.91328 74.8395 4.67929C70.5196 3.24228 65.425 4.08108 61.4252 6.10526C59.4253 7.11846 57.0788 8.76078 55.7786 10.626C55.059 11.6591 54.5888 12.8864 54.207 14.0828L54.1606 14.2329C54.1407 14.1601 54.1076 14.0607 54.101 13.9813C54.0723 13.5729 54.2953 13.021 54.4078 12.6237C55.1716 9.94172 56.9088 7.35024 58.6836 5.23114L58.7829 5.50706L58.3591 5.99931L58.4341 6.11189C58.7277 5.82713 58.7719 5.70795 59.1891 5.6616L59.1957 5.64834Z" fill="url(#paint0_linear_191_2287)"/>
<path d="M47.3287 58.2812L47.375 58.2084C48.024 57.0959 47.1587 54.7781 48.8275 54.2969C49.3021 54.16 49.8981 54.3565 50.2999 54.6081C52.7412 56.14 56.8382 62.2634 57.3834 64.9476C57.5644 65.8416 57.5313 66.8261 57.4253 67.7311C57.3635 68.2521 57.0854 69.3204 57.2311 69.7795C57.1936 74.106 55.3305 80.002 52.2247 83.1012C49.2028 86.1187 45.161 86.9266 41.0398 86.9001C37.4131 86.8758 32.0093 85.9818 29.3649 83.3087C28.7733 82.7127 28.3429 82.0659 28.365 81.2006C28.3892 80.1984 29.6519 75.1612 30.1596 74.3974L31.1463 74.2451L30.8549 73.8942C32.1308 73.5079 33.3029 72.9207 34.4375 72.2231C34.6958 72.1238 34.826 72.0289 35.0247 71.8479L34.8105 68.6207C36.6184 68.0931 38.1768 66.2301 39.5211 64.9608L42.6314 63.0801C42.3643 63.7755 41.4062 64.1904 41.1281 64.9432C41.0376 65.1882 41.1281 65.2698 41.2275 65.495C41.5917 65.729 41.9559 65.8283 42.3907 65.7886C43.5209 65.6826 44.5849 64.9718 45.278 64.0999C45.7747 63.4752 46.2338 62.5261 46.1323 61.7093C46.0175 60.7778 47.0682 59.2768 47.3265 58.2768L47.3287 58.2812Z" fill="#F4CB7F"/>
<path d="M35.0269 71.8481C35.2432 72.4552 35.5743 72.5192 36.1173 72.8415C35.8127 72.7885 35.475 72.698 35.1682 72.7311L35.0953 72.8724L35.1991 72.932C35.5169 73.1196 35.667 73.2344 35.8436 73.5589L34.5854 73.0048C33.5987 73.4286 32.2125 74.1681 31.1507 74.2476L30.8593 73.8966C32.1352 73.5103 33.3073 72.9231 34.4419 72.2256C34.7002 72.1263 34.8304 72.0314 35.0291 71.8504L35.0269 71.8481Z" fill="#4B180A"/>
<path d="M36.1152 72.8414C40.0444 74.1724 44.0088 76.0973 48.1168 74.1084C49.6973 73.3424 52.0283 71.486 52.781 69.8217L52.5757 69.4817L52.6662 69.3713C53.536 69.7488 54.7081 70.2146 55.4056 70.8591L53.3704 70.3448C51.5692 72.9628 49.119 75.1525 45.8895 75.7286C43.2363 76.2032 40.1746 75.3092 37.6913 74.3644C37.0953 74.1371 36.3624 73.9208 35.8415 73.5588C35.6671 73.2321 35.517 73.1195 35.1969 72.9318L35.0932 72.8722L35.166 72.731C35.4728 72.6979 35.8128 72.7884 36.1152 72.8414Z" fill="#4B180A"/>
<path d="M39.1526 164.505C41.9516 163.022 43.6027 161.002 44.5254 157.954C45.8807 153.477 45.3796 148.312 45.011 143.718C44.5077 137.436 43.6778 131.242 42.4769 125.057C43.5983 125.989 44.7108 126.955 45.9205 127.77C52.4742 132.194 60.1692 134.613 67.756 136.551C67.0386 142.334 65.0211 147.773 63.9681 153.475C63.6657 155.111 63.403 156.769 63.2772 158.426C63.1668 159.872 63.2816 161.592 62.9174 162.978C62.743 163.64 62.1603 164.287 61.6305 164.702C61.3767 164.901 61.1361 164.982 60.816 165.018C59.8514 164.733 59.326 164.234 58.8492 163.353C57.7654 161.351 57.7124 159.329 57.9022 157.12C57.0678 159.122 57.1208 161.066 57.9464 163.077C58.4784 164.373 59.0457 165.104 60.284 165.753C59.741 167.36 58.9927 168.909 58.1583 170.386C57.7411 171.125 57.2245 171.841 56.8559 172.604L54.6772 175.45C54.1673 174.088 53.5073 172.812 52.6795 171.616C52.3308 171.112 51.8915 170.682 51.5515 170.178L51.4588 170.039C50.8673 168.969 49.066 167.726 47.9733 167.258C46.5165 166.636 45.2737 167.022 43.8808 167.567L43.733 167.238L43.8036 167.077L43.6667 166.839C42.6381 165.457 40.775 164.773 39.1526 164.501V164.505Z" fill="#D17C2A"/>
<path d="M15.997 51.5488C16.1515 50.9837 16.5863 50.5687 16.9793 50.1515C17.7165 49.3635 18.5333 48.6483 19.4206 48.0368C20.5972 47.2267 21.8135 46.6042 22.5662 45.3328C23.4491 43.845 23.5529 41.9709 23.6721 40.2867C23.8928 37.1676 24.012 34.2406 25.7647 31.5167C26.6499 30.1393 27.7955 28.9892 29.2127 28.1659C31.6033 26.7796 34.2301 26.5059 36.8657 27.2432C39.6691 28.0268 42.4239 29.9252 44.2053 32.2407C49.0527 29.2607 54.0017 26.826 59.8535 28.2299C62.9042 28.9606 65.4073 30.8744 67.0165 33.5475C69.2195 37.2052 69.9568 41.4169 71.7293 45.2423C72.9036 47.7808 74.6276 49.9242 76.0028 52.3391C76.9233 53.9549 77.5281 55.6546 78.1308 57.4051C76.7026 55.8709 75.515 54.8886 73.5946 54.0167C75.7821 56.6325 76.9388 58.5904 76.5988 62.1046C76.473 63.4158 76.1 64.7137 75.7666 65.9852C75.1155 64.2877 74.4466 62.7801 73.2171 61.4071C74.2899 64.3319 74.4643 67.2876 73.1465 70.1991C72.9897 70.5457 72.652 71.4021 72.3805 71.6008C71.8287 69.6053 70.7978 68.1904 69.1113 66.9763C70.1775 68.7886 71.4799 70.7222 71.4512 72.923C67.3035 71.5743 63.69 70.9143 59.593 72.9915C58.571 73.5102 57.8073 74.1989 57.017 75.0178C57.3724 73.2894 57.5909 71.5257 57.2333 69.7797C57.0898 69.3206 57.3658 68.2522 57.4276 67.7313C57.5357 66.8262 57.5689 65.8417 57.3857 64.9477C56.8404 62.2635 52.7435 56.1402 50.3021 54.6083C49.8982 54.3544 49.3022 54.1602 48.8298 54.297C47.161 54.7782 48.0263 57.096 47.3773 58.2085L47.331 58.2814C47.0727 59.2813 46.022 60.7824 46.1368 61.7139C46.2383 62.5306 45.7814 63.4798 45.2825 64.1045C44.5894 64.9764 43.5254 65.6872 42.3952 65.7932C41.9604 65.8329 41.5961 65.7336 41.2319 65.4996C41.1326 65.2722 41.0421 65.1905 41.1326 64.9477C41.4107 64.195 42.3687 63.78 42.6358 63.0847L39.5256 64.9654C38.1813 66.2347 36.6229 68.0977 34.815 68.6252C34.5016 68.4884 34.2301 68.5789 33.91 68.6451C33.1308 68.4774 32.4156 67.8615 31.8527 67.3229C31.3185 66.9366 30.8638 66.4223 30.4024 65.9521C28.6851 64.7358 26.321 63.0935 25.8552 60.8993C25.5219 59.3299 26.4093 57.9149 27.2039 56.6545L26.9854 56.0696C28.2944 54.1558 30.0162 52.5576 31.6474 50.9241L30.9896 51.1559C27.6344 53.403 24.5286 57.0761 23.7516 61.1179C23.4425 62.7226 23.6853 64.4555 24.1268 66.0095C22.4205 65.685 20.9283 65.5879 19.414 66.6011C18.9372 66.9189 18.5289 67.3273 18.1249 67.7291C18.0763 66.9145 17.8821 66.1022 17.8335 65.2833C17.743 63.7888 17.8777 62.4688 18.169 61.0031L17.8755 60.8971L17.5466 61.2018C17.253 61.2746 17.1625 61.5086 17.0146 61.7625L15.6173 64.504L15.1361 62.747C14.401 60.065 15.1515 56.6678 16.2133 54.1756C16.4958 53.5156 17.0963 52.6835 17.2066 51.9992L16.7585 52.0168C16.3126 51.9064 16.2729 51.9175 16.0014 51.5533L15.997 51.5488Z" fill="#F4A33E"/>
<path d="M15.551 62.0338L15.7364 62.5525C16.083 62.1265 16.2044 61.5857 16.4958 61.1221C17.2816 59.8683 18.4891 58.8529 19.6612 57.9744C19.0343 58.9743 18.5597 59.886 18.1646 60.9985L17.871 60.8925L17.5421 61.1972C17.2485 61.27 17.158 61.504 17.0101 61.7579L15.6128 64.4994L15.1316 62.7424C15.3678 62.5084 15.4517 62.3495 15.551 62.0338Z" fill="#4B180A"/>
<path d="M35.6075 37.7302C36.4772 41.0899 36.5213 45.4473 34.8062 48.5553C34.6671 48.3081 34.7245 48.1381 34.7466 47.86L34.506 47.7032L34.4685 47.3412L34.091 47.253L34.1815 47.0697L33.9541 46.8115L34.3868 46.5466C34.9828 46.0852 35.2852 45.0014 35.358 44.284C35.4795 43.0699 35.2896 42.1826 34.5259 41.2245C34.7885 41.3327 35.0556 41.4342 35.3051 41.5733L35.6207 42.1649C35.8238 40.814 35.6031 39.2997 35.506 37.9355L35.6097 37.7324L35.6075 37.7302Z" fill="#4B180A"/>
<path d="M34.5037 47.7034L34.7444 47.8601C34.7245 48.1383 34.6649 48.3082 34.8039 48.5554L31.643 50.9196L30.9852 51.1513C30.4134 50.5178 29.877 50.03 29.8704 49.125C30.1706 48.7718 30.9741 48.8181 31.4487 48.7696L30.0536 48.582C31.6496 48.5731 33.091 48.5024 34.5015 47.7034H34.5037Z" fill="#D17C2A"/>
<path d="M15.997 51.5487C16.9219 51.2838 17.8512 51.0631 18.8203 51.1161C16.0809 54.1446 15.39 58.1069 15.5511 62.036C15.4518 62.3517 15.3701 62.5128 15.1317 62.7446C14.3966 60.0626 15.1471 56.6654 16.2089 54.1733C16.4914 53.5133 17.0919 52.6811 17.2022 51.9968L16.7541 52.0144C16.3082 51.9041 16.2685 51.9151 15.997 51.5509V51.5487Z" fill="#4B180A"/>
<path d="M62.1382 48.9307C61.9904 49.626 61.2619 50.2882 60.7432 50.7496C59.2907 51.0586 58.0921 51.8974 56.5425 52.1226C54.3594 52.4382 52.408 51.9018 50.6532 50.5818L51.077 50.2772C53.6309 50.9747 57.3372 50.9504 59.8514 50.1624C60.8535 49.9637 61.3899 49.6194 62.1405 48.9307H62.1382Z" fill="#F4CB7F"/>
<path d="M25.8994 39.1101C25.5881 37.4678 25.3321 35.6136 26.2525 34.1258C26.9412 33.0133 28.1421 32.2253 29.4158 31.9538C30.5393 31.7132 32.2765 32.0818 33.2323 32.7197C34.7201 33.7131 35.272 36.0926 35.6075 37.7305L35.5037 37.9336C34.5877 36.4282 33.0381 34.8587 31.2699 34.426C30.1949 34.1634 29.1729 34.2119 28.2105 34.8035C26.5395 35.8321 26.5572 37.4833 25.8972 39.1079L25.8994 39.1101Z" fill="#4B180A"/>
<path d="M50.6245 40.1607C51.7326 37.5803 53.174 35.5362 55.856 34.4701C57.2224 33.927 58.6506 33.7769 60.0258 34.3707C60.6483 34.64 61.3878 35.1875 61.6195 35.8409C61.7917 36.3243 61.8491 36.8629 62.0632 37.3286C62.4053 38.0681 62.9263 38.7546 63.3303 39.4632C64.264 41.1011 64.7827 42.9023 65.0432 44.7587L64.8953 44.3857C64.0852 42.2225 62.8512 40.0261 61.1869 38.4125C60.0986 37.3573 58.6395 36.6112 57.0965 36.6576C54.5227 36.7348 52.5251 38.4345 50.8276 40.1938L50.6267 40.1607H50.6245Z" fill="#4B180A"/>
<path d="M29.6387 41.5117C30.1222 41.1276 30.6387 40.7634 31.2545 40.6375C31.7976 40.525 32.6695 40.5051 33.1308 40.8097C33.5922 40.9731 34.0403 41.1452 34.5259 41.2225C35.2874 42.1805 35.4795 43.0678 35.3581 44.2819C35.2852 44.9993 34.985 46.0832 34.3868 46.5445L33.9542 46.8094L34.1816 47.0677L34.091 47.2509L34.4685 47.3392L34.506 47.7012C33.0933 48.5002 31.6541 48.5709 30.0581 48.5798C29.4621 48.5555 28.29 48.4914 27.8265 48.1162L27.3717 47.9528L27.3342 47.7166C27.7757 46.8535 27.9898 45.9905 28.034 45.0236L28.2812 45.2775C28.0053 43.6594 28.0958 42.7081 28.939 41.2688C29.195 41.3108 29.4511 41.313 29.6409 41.5094L29.6387 41.5117Z" fill="#0C0A08"/>
<path d="M33.4994 41.9643L33.8063 41.929C34.1859 42.1055 34.2279 42.1651 34.4552 42.5205C34.4552 42.9642 34.4111 43.0128 34.1594 43.3814C33.9321 43.4587 33.7003 43.4344 33.4641 43.4256L33.1528 43.0062C33.1219 42.4036 33.0999 42.4124 33.4994 41.9621V41.9643Z" fill="#FEFEFE"/>
<path d="M34.091 47.253C33.9078 47.3171 33.7113 47.3391 33.5347 47.4076C33.1683 47.5488 32.7555 47.6548 32.3626 47.5334C31.824 47.3678 31.281 46.6945 31.005 46.2199C30.6143 45.5467 30.5922 44.4651 30.7997 43.73L30.8417 43.5976C30.9741 43.1605 31.1618 42.8978 31.4576 42.5491C31.1198 43.3857 30.7423 44.2311 31.1308 45.1295C31.4112 45.7741 32.1264 46.5025 32.7798 46.7718C33.1352 46.9197 33.5811 46.8535 33.9519 46.8138L34.1793 47.072L34.0888 47.2553L34.091 47.253Z" fill="#5C5956"/>
<path d="M28.0317 45.0259L28.2789 45.2797L28.3738 45.6263C29.0448 47.0545 29.5768 47.3768 30.76 48.2951L27.8242 48.1162L27.3694 47.9529L27.3319 47.7167C27.7734 46.8536 27.9875 45.9905 28.0317 45.0237V45.0259Z" fill="#FEFEFE"/>
<path d="M29.6387 41.5117C30.1221 41.1276 30.6386 40.7634 31.2545 40.6375C31.7975 40.525 32.6694 40.5051 33.1308 40.8097C32.6297 41.1563 32.2633 41.6397 31.7136 41.92C30.9256 42.4851 30.4775 43.112 30.3318 44.0921C30.1751 45.1472 30.2678 46.0898 30.9344 46.9463C31.3671 47.5025 31.941 47.8403 32.3957 48.3546C30.8086 47.7741 29.7667 47.1714 29.0184 45.5887L28.9478 45.4364L28.7226 44.4453C28.5681 43.1959 28.8882 42.4763 29.6387 41.5117Z" fill="#FEFEFE"/>
<path d="M25.8993 39.11C26.5593 37.4854 26.5417 35.832 28.2127 34.8056C29.1751 34.214 30.1971 34.1632 31.2721 34.4281C33.0403 34.8608 34.5899 36.4302 35.5059 37.9357C35.6031 39.2976 35.8216 40.8119 35.6207 42.1651L35.305 41.5735C35.0556 41.4344 34.7885 41.3329 34.5258 41.2247C34.0402 41.1452 33.5921 40.9753 33.1308 40.8119C32.6716 40.5073 31.7975 40.5272 31.2545 40.6397C30.6386 40.7678 30.1221 41.132 29.6387 41.5139C29.4488 41.3174 29.1928 41.3152 28.9367 41.2733C28.0935 42.7125 28.003 43.6639 28.2789 45.2819L28.0317 45.0281C26.5108 43.7213 26.1775 40.962 25.8993 39.1122V39.11Z" fill="#D17C2A"/>
<path d="M28.9346 41.271C29.7315 40.355 30.5328 39.7104 31.802 39.6376C32.7402 39.5824 33.7688 39.8428 34.4774 40.4852C34.8173 40.7942 35.1374 41.1342 35.3007 41.569C35.0513 41.43 34.7842 41.3284 34.5215 41.2203C34.0359 41.1408 33.5878 40.9708 33.1264 40.8075C32.6673 40.5029 31.7932 40.5227 31.2502 40.6353C30.6343 40.7633 30.1178 41.1276 29.6344 41.5094C29.4445 41.313 29.1885 41.3108 28.9324 41.2688L28.9346 41.271Z" fill="#2F292E"/>
<path d="M27.204 56.65L27.513 56.3079C27.5991 56.6125 27.4578 56.8906 27.3696 57.1842C27.2989 57.4204 26.8773 58.8773 26.9855 59.0605C27.1554 59.3519 27.811 59.769 28.1134 59.9368C30.7049 61.3804 33.8505 61.1928 36.6936 60.9897L36.7355 60.9346C39.6493 60.5306 42.3776 60.109 45.2517 60.9323L46.5938 59.1443C46.7571 58.9059 46.9778 58.4799 47.2229 58.3387L47.3288 58.2813C47.0706 59.2812 46.0198 60.7823 46.1346 61.7138C46.2362 62.5305 45.7792 63.4797 45.2804 64.1043C44.5872 64.9763 43.5233 65.6871 42.3931 65.793C41.9582 65.8328 41.594 65.7334 41.2298 65.4994C41.1304 65.2721 41.04 65.1904 41.1305 64.9476C41.4086 64.1949 42.3666 63.7799 42.6337 63.0846L39.5235 64.9653C38.1792 66.2345 36.6207 68.0975 34.8129 68.6251C34.4994 68.4882 34.2279 68.5788 33.9079 68.645C33.1287 68.4772 32.4134 67.8614 31.8506 67.3227C31.3164 66.9365 30.8617 66.4221 30.4003 65.952C28.683 64.7357 26.3188 63.0934 25.8531 60.8992C25.5198 59.3297 26.4071 57.9148 27.2018 56.6544L27.204 56.65Z" fill="#2F292E"/>
<path d="M27.2039 56.65L27.5129 56.3079C27.599 56.6125 27.4577 56.8906 27.3694 57.1842C27.2988 57.4204 26.8772 58.8773 26.9854 59.0605C27.1553 59.3519 27.8109 59.769 28.1133 59.9368C30.7048 61.3804 33.8504 61.1928 36.6935 60.9897L36.7354 60.9346C39.6492 60.5306 42.3775 60.109 45.2516 60.9323L46.5936 59.1443C46.757 58.9059 46.9777 58.4799 47.2227 58.3387L47.3287 58.2813C47.0704 59.2812 46.0197 60.7823 46.1345 61.7138C46.2361 62.5305 45.7791 63.4797 45.2803 64.1043C44.5871 64.9763 43.5231 65.6871 42.393 65.793C41.9581 65.8328 41.5939 65.7334 41.2297 65.4994C41.1303 65.2721 41.0398 65.1904 41.1303 64.9476C41.4085 64.1949 42.3665 63.7799 42.6336 63.0846L39.5233 64.9653C38.179 66.2345 36.6206 68.0975 34.8128 68.6251C34.4993 68.4882 34.2278 68.5788 33.9077 68.645C33.1285 68.4772 32.4133 67.8614 31.8504 67.3227C32.4994 67.2609 33.1307 67.8216 33.7554 68.0114C34.3911 68.2035 34.9849 67.8658 35.5191 67.5634C37.2873 66.5568 38.6007 64.7953 40.2915 63.6298C40.4019 63.4444 40.8059 63.2192 40.9935 63.0956C42.1126 62.3539 43.2914 61.9058 44.5496 61.4709C43.3399 61.2149 42.1788 60.9897 40.9339 61.0581C39.7088 61.1244 38.4726 61.4312 37.252 61.4334H37.1592L36.9716 61.4665C33.6429 62.0449 30.0271 61.7314 27.0405 60.1068C27.2878 60.7425 27.5173 61.429 27.8595 62.0206C28.323 62.8241 28.9279 63.6077 29.4974 64.3428C29.8748 64.8306 30.3825 65.3052 30.4024 65.9542C28.685 64.7379 26.3209 63.0956 25.8552 60.9014C25.5219 59.332 26.4092 57.917 27.2039 56.6566V56.65Z" fill="#0C0A08"/>
<path d="M50.6244 40.1607L50.8253 40.1938C52.5228 38.4345 54.5205 36.7348 57.0943 36.6576C58.6373 36.6112 60.0964 37.3573 61.1846 38.4125C62.849 40.0261 64.0829 42.2246 64.8931 44.3857L65.041 44.7587C65.2463 45.4805 64.9019 46.5423 64.5443 47.1758C63.8401 48.4274 62.1426 50.3478 60.7387 50.7518C61.2575 50.2882 61.9859 49.6282 62.1338 48.9329C61.3833 49.6194 60.8469 49.966 59.8447 50.1646C57.3305 50.9527 53.6243 50.977 51.0703 50.2794L50.6465 50.584L50.5626 50.7761C50.2381 50.8202 49.8364 50.8997 49.545 50.7054C49.1477 50.4405 49.0418 50.1757 48.9226 49.7276C48.1787 46.9131 49.2581 42.6484 50.6178 40.1607H50.6244Z" fill="#D17C2A"/>
<path d="M51.4986 46.4256C52.3551 44.6111 53.8385 42.7546 55.7876 42.0549L56.5293 41.8364C57.399 41.6178 58.6462 41.6686 59.4828 41.9887C60.794 42.492 61.7255 43.3881 62.3149 44.6662C62.8756 45.8847 62.8623 47.154 62.3745 48.3923L62.1361 48.9287C61.3856 49.6152 60.8492 49.9618 59.847 50.1605C57.3328 50.9485 53.6266 50.9728 51.0726 50.2752L50.5384 50.1869L50.5826 50.0037L50.7503 50.1141C51.1587 50.1141 51.7459 50.2267 52.0637 49.9728L51.247 48.4453L51.0682 48.5535C50.8298 47.9575 51.2757 46.9906 51.4942 46.4211L51.4986 46.4256Z" fill="#0C0A08"/>
<path d="M56.8934 43.6662C57.1539 43.6021 57.3945 43.6507 57.655 43.6882C58.028 44.0568 58.0103 44.0613 58.0346 44.5888C57.7896 45.0325 57.5865 45.1892 57.1318 45.4056C56.7786 45.4563 56.6042 45.4674 56.282 45.3062C55.9818 44.8935 55.9619 44.8162 55.9266 44.3063C56.2069 43.9509 56.4784 43.8317 56.8934 43.6684V43.6662Z" fill="#FEFEFE"/>
<path d="M55.5911 44.3306L55.6087 44.4895C55.7787 46.0501 55.0503 47.3547 56.4939 48.5599C57.0126 48.9926 57.5998 49.1736 58.2731 49.0941C58.7984 49.0323 59.3172 48.8491 59.7807 48.5952L60.3855 49.1382C59.7984 49.5576 59.1715 49.8645 58.4585 49.9903C57.7124 50.1205 56.772 49.9837 56.1584 49.5312C55.441 49.0036 54.9774 48.0368 54.8383 47.1759C54.6595 46.0611 54.9421 45.2268 55.5933 44.3328L55.5911 44.3306Z" fill="#5C5956"/>
<path d="M58.0214 42.7742C59.3039 42.8536 60.2001 43.2708 61.0632 44.2465C61.8093 45.0919 62.1293 46.0985 62.0631 47.2309C62.0543 47.3942 61.9925 47.487 61.9483 47.6349L61.9152 47.8644C61.8269 48.4406 61.4009 49.1336 60.9241 49.4714C60.7784 49.5729 60.6393 49.6171 60.4694 49.6634C60.7961 49.169 61.3347 48.5818 61.242 47.9616C61.019 48.4229 60.721 48.7606 60.3855 49.1381L59.7807 48.595C60.2266 48.1271 60.5312 47.7805 60.6791 47.1271C60.9109 46.1095 60.3877 44.8955 59.5401 44.3171C58.9728 43.9308 58.5401 43.8889 58.1715 43.2465L58.1008 43.1207L56.8912 43.0147C57.2819 42.8757 57.6064 42.794 58.0214 42.7764V42.7742Z" fill="url(#paint1_linear_191_2287)"/>
<path d="M58.0214 42.7744C57.6065 42.7921 57.282 42.8737 56.8913 43.0128C56.41 43.1209 55.7611 43.3284 55.4542 43.7412L55.3615 43.8383C54.5028 44.7566 54.1695 45.8868 54.2424 47.1384C54.3064 48.2598 54.7986 49.1163 55.6441 49.8381L56.207 50.2906C54.9995 50.3701 53.9091 50.3325 52.7104 50.1648C52.1012 49.2906 51.492 48.5401 51.7039 47.421L51.8893 46.7941C52.344 46.0458 52.8495 45.3085 53.4786 44.6948C54.7413 43.4631 56.2511 42.7413 58.0237 42.7722L58.0214 42.7744Z" fill="#FEFEFE"/>
<path d="M51.4984 46.4256C52.3549 44.6111 53.8383 42.7546 55.7874 42.0549L56.5291 41.8364C57.3988 41.6178 58.646 41.6686 59.4826 41.9887C60.7938 42.492 61.7253 43.3881 62.3147 44.6662C62.8754 45.8847 62.8621 47.154 62.3743 48.3923L62.1359 48.9287C61.3854 49.6152 60.849 49.9618 59.8468 50.1605C60.0698 49.8713 60.0962 49.7256 60.4671 49.6616C60.6371 49.6152 60.7761 49.5711 60.9218 49.4695C61.4008 49.1318 61.8246 48.4409 61.9129 47.8626L61.9461 47.633C61.9924 47.4851 62.052 47.3902 62.0609 47.229C62.1249 46.0988 61.807 45.0901 61.0609 44.2446C60.1978 43.269 59.3038 42.8496 58.0191 42.7723C56.2488 42.7414 54.7389 43.4654 53.4741 44.6949C52.845 45.3086 52.3395 46.0459 51.8847 46.7942C51.8009 46.5646 51.6927 46.547 51.494 46.4233L51.4984 46.4256Z" fill="#4B180A"/>
<defs>
<linearGradient id="paint0_linear_191_2287" x1="73.9097" y1="3.82901" x2="47.9569" y2="172.034" gradientUnits="userSpaceOnUse">
<stop stop-color="#451408"/>
<stop offset="1" stop-color="#62270D"/>
</linearGradient>
<linearGradient id="paint1_linear_191_2287" x1="58.2991" y1="46.3678" x2="61.1801" y2="46.6605" gradientUnits="userSpaceOnUse">
<stop stop-color="#4E5045"/>
<stop offset="1" stop-color="#656762"/>
</linearGradient>
</defs>
</svg>
