<svg width="92" height="220" viewBox="0 0 92 220" fill="none" xmlns="http://www.w3.org/2000/svg">
<path d="M46.2975 88.0868C44.7167 87.5783 41.7835 87.1313 39.5805 88.7781C37.3791 90.4234 36.8116 93.8323 36.8557 95.1673C36.8998 96.5007 38.5581 99.7713 39.7038 100.44C40.8494 101.108 42.2871 99.8082 41.9357 98.9187C41.5827 98.0292 39.6505 96.7588 39.5181 95.3209C39.4101 94.1395 39.9153 91.6355 41.7059 90.9826C43.4966 90.3297 45.7634 90.9887 46.3507 92.2331C46.9379 93.479 47.79 93.3007 48.2007 92.8261C48.6115 92.3514 48.9934 91.4035 48.6997 90.6907C48.4061 89.9794 48.0638 88.6568 46.299 88.0884L46.2975 88.0868Z" fill="#54504B"/>
<path d="M47.4234 90.7831C45.8427 90.2746 42.9095 89.8276 40.7065 91.4744C38.5051 93.1197 37.9376 96.5286 37.9817 97.8636C38.0258 99.197 39.6841 102.468 40.8297 103.136C41.9754 103.803 43.4131 102.504 43.0616 101.615C42.7087 100.726 40.7765 99.4551 40.6441 98.0172C40.5361 96.8358 41.0412 94.3318 42.8319 93.6789C44.6226 93.026 46.8894 93.685 47.4767 94.9294C48.0639 96.1752 48.9159 95.997 49.3267 95.5223C49.7375 95.0477 50.1193 94.0998 49.8257 93.387C49.5321 92.6757 49.1898 91.353 47.4249 90.7846L47.4234 90.7831Z" fill="#635F5A"/>
<path d="M42.5518 102.736L41.6679 103.111C41.9843 103.491 44.1249 105.916 46.1803 102.882C46.2336 102.804 46.1377 102.707 46.0601 102.762C44.2192 104.071 43.0523 103.272 42.5518 102.736Z" fill="#423E39"/>
<path d="M49.8514 94.2949C49.8514 94.2949 50.7126 98.8652 46.6383 97.7714C46.544 97.7468 46.5562 97.607 46.6535 97.5978C49.7921 97.3213 48.9219 94.7005 48.9219 94.7005L49.8514 94.2949Z" fill="#423E39"/>
<path d="M91.0186 209.164C91.0186 209.164 91.0186 209.158 91.0186 209.154C91.014 209.121 91.0095 209.086 91.0049 209.054C90.585 206.018 85.7957 171.032 84.9589 162.236C84.3199 157.973 81.5966 128.735 78.9083 110.378C78.9114 110.368 78.9084 110.359 78.9008 110.35L75.7347 98.3675C81.1585 103.096 79.7512 92.3424 77.352 82.6059C72.5626 63.1619 65.8001 41.4259 54.8887 33.5252C54.3182 33.1119 54.6635 32.6464 54.236 32.2701C53.1102 31.2777 52.3039 30.4112 51.674 29.6155C50.6729 28.3496 50.1191 27.2635 49.4406 26.1375C44.9859 18.7421 36.1087 5.63967 26.5178 2.1417C16.927 -1.35474 9.39913 0.176878 5.72954 1.51493C2.06147 2.85297 0.238876 6.09901 2.52857 8.94716C2.35665 9.26055 2.19383 9.57087 2.04169 9.87658C0.625279 12.7263 0.0471631 15.2979 0 17.5761H12.6656V26.0484C12.7066 26.0484 12.7477 26.0484 12.7888 26.053C13.0337 26.0699 13.2513 26.2281 13.335 26.4601C13.4095 26.6613 13.5008 26.8595 13.6058 27.0592C14.759 29.2237 17.639 31.3545 17.9067 34.6881C18.1121 37.252 18.2019 40.5487 18.1684 43.9315C18.0756 53.1089 24.5263 75.7743 40.7017 85.0838C40.7017 85.0838 42.2322 86.0501 43.1359 86.6584C43.4235 86.852 43.7141 87.0547 44.0107 87.2652C45.9885 88.359 48.7362 91.075 48.9324 91.2532H48.94V91.2594C49.6931 91.9445 50.4401 92.662 51.1704 93.407C51.2541 93.9002 52.3571 94.6606 52.3571 94.6606C52.6964 95.0308 53.0295 95.4041 53.3566 95.7851C56.7113 99.6856 64.405 103.588 64.8066 107.605C66.2991 121.291 74.7489 142.179 78.4398 143.551C79.9414 154.392 87.206 203.989 87.028 202.6C87.0356 202.648 87.0432 202.692 87.0523 202.741C87.3642 204.42 89.1306 211.395 90.3203 215.607H91.8539C91.615 214.096 91.5678 213.151 91.0186 209.163V209.164Z" fill="#E32D29"/>
<path d="M90.7202 218.632C90.0249 217.039 87.0354 202.649 87.0278 202.603C85.8974 196.054 80.7353 164.385 79.0542 152.447C77.863 143.988 76.6276 131.262 75.9551 124.806C79.1729 153.25 89.8423 213.128 90.5468 214.785C91.2801 216.512 91.2786 211.121 91.0184 209.164C91.598 213.37 91.6178 214.192 91.8947 215.862C92.3253 218.742 91.3364 220.355 90.7202 218.63V218.632Z" fill="#BA1919"/>
<path d="M71.0699 140.523C67.5601 139.503 65.1913 119.311 63.1709 107.385C62.6125 103.882 59.9653 100.186 56.6533 96.9326C56.527 95.9924 56.4098 95.0661 56.3033 94.1582L66.1741 100.948C66.1741 100.948 72.7419 140.054 71.0684 140.523H71.0699Z" fill="#0C4E91"/>
<path d="M71.3469 139.923C67.8371 138.903 65.4683 118.711 63.4479 106.785C62.8895 103.282 60.2423 99.5862 56.9302 96.3325C56.804 95.3923 56.6868 94.466 56.5804 93.5581L66.4511 100.348C66.4511 100.348 73.0189 139.454 71.3454 139.923H71.3469Z" fill="#186AB5"/>
<path d="M64.575 107.004C69.3415 138.357 79.4162 198.9 82.2855 203.396C85.1549 207.891 79.8118 170.229 78.3284 159.638C76.8451 149.049 70.3061 112.291 70.3061 112.291L64.5766 107.004H64.575Z" fill="#BA1919"/>
<path d="M65.2841 105.775C70.0506 137.128 79.4163 196.902 82.2856 201.397C85.155 205.892 79.8119 168.23 78.3285 157.64C76.8451 147.051 70.3062 110.292 70.3062 110.292L65.2841 105.775Z" fill="#E32D29"/>
<path d="M65.7088 101.61C70.4753 132.963 80.5499 193.505 83.4192 198.002C86.2886 202.497 80.9454 164.835 79.4621 154.244C77.9787 143.655 71.4398 106.896 71.4398 106.896L65.7102 101.61H65.7088Z" fill="#BA1919"/>
<path d="M66.4163 100.381C71.1828 131.734 80.5484 191.508 83.4178 196.003C86.2871 200.498 80.944 162.836 79.4606 152.246C77.9773 141.657 71.4384 104.898 71.4384 104.898L66.4163 100.381Z" fill="#E32D29"/>
<path d="M68.6128 107.181L65.068 104.393L64.5766 107.989C64.8474 108.795 65.5381 113.693 65.6538 114.486C67.7609 128.078 70.2757 151.084 73.7947 152.274C76.877 151.264 68.6128 107.181 68.6128 107.181Z" fill="#0C4E91"/>
<path d="M68.8868 106.499L65.0681 103.496L64.8079 107.605C65.2187 108.665 65.7755 112.762 65.9277 113.804C68.0348 127.396 70.5496 150.403 74.0686 151.592C75.7406 151.069 68.8868 106.499 68.8868 106.499Z" fill="#186AB5"/>
<path d="M51.674 29.6155L51.1537 30.4804C51.1537 30.4804 40.4021 10.763 28.9916 4.95606C20.478 0.623921 10.4824 1.24301 6.93456 2.35831C3.14326 3.55042 2.51035 7.48622 3.49925 8.91337C3.49925 8.91337 2.35823 9.26055 2.53014 8.94716C0.240453 6.09901 2.06152 2.85297 5.73111 1.51493C9.39918 0.176878 16.9286 -1.35474 26.5194 2.1417C36.1102 5.63967 44.986 18.7421 49.4421 26.1375C50.1207 27.2635 50.6745 28.3496 51.6755 29.6155H51.674Z" fill="#ED4343"/>
<path d="M31.3681 75.1891C23.9346 66.915 20.4993 54.2919 19.658 49.5465C18.8167 44.8011 19.2122 39.5057 18.8669 34.9601C18.52 30.4144 15.9975 28.5663 13.9148 25.5338L12.6672 25.0791V26.0515C12.7083 26.0515 12.7494 26.0515 12.7889 26.0546C13.0339 26.0715 13.2515 26.2297 13.3351 26.4617C13.4097 26.6629 13.5009 26.8611 13.6059 27.0608C14.7591 29.2254 17.6391 31.3561 17.9069 34.6897C18.1123 37.2536 18.202 40.5504 18.1686 43.9331C18.0757 53.1105 24.5265 75.7759 40.7019 85.0854C40.7019 85.0854 42.2324 86.0517 43.1361 86.66L44.1752 85.6308C44.1752 85.6308 38.8031 83.4631 31.3681 75.1906V75.1891Z" fill="#ED4343"/>
<path d="M9.41885 12.4005C9.41885 12.4005 8.32652 6.18031 14.1945 4.89449C23.7777 2.79294 28.4514 24.0481 12.7888 26.0544C12.3491 21.1538 11.2826 15.1088 10.5158 14.1011C9.74751 13.0933 9.41885 12.402 9.41885 12.402V12.4005Z" fill="#F9F0ED"/>
<path d="M7.44718 24.4337C7.5126 24.4798 7.57803 24.5274 7.64649 24.5766C8.39958 25.1235 9.27285 25.8071 11.097 26.0713C11.2263 26.0898 11.3526 26.0975 11.4758 26.099V25.1819L13.5617 24.8332C13.6849 23.4859 14.2706 21.3229 13.1311 18.3595C12.9911 17.9924 12.8329 17.6191 12.6549 17.2396C12.1787 16.2226 11.5641 15.1673 10.7745 14.0965C10.4352 13.6372 10.1051 13.2163 9.78405 12.8276C9.78405 12.8276 9.78405 12.8276 9.78405 12.8261C5.69304 7.8825 3.05953 8.45244 2.53313 8.94556C-1.53963 16.3486 0.0273839 21.962 2.17559 25.5321C3.25881 27.3357 4.49114 28.6169 5.21989 29.3466C7.39091 31.5203 10.3378 32.3007 9.92401 31.7185C8.30221 29.4894 7.68606 27.9732 7.46241 26.5998C7.33918 25.8425 7.33614 25.1296 7.34831 24.3631C7.38178 24.3861 7.41523 24.4092 7.44871 24.4322L7.44718 24.4337Z" fill="#F2DFD6"/>
<path d="M1.37233 13.9317C1.06957 15.2452 1.11825 16.3789 1.48186 16.4649C1.84547 16.551 2.38556 15.5555 2.68831 14.242C2.99107 12.9286 2.94239 11.7948 2.57878 11.7088C2.21516 11.6228 1.67508 12.6182 1.37233 13.9317Z" fill="white"/>
<path d="M12.8132 26.054C13.545 26.0755 14.1612 25.4979 14.2068 24.7605C14.2905 23.4393 14.2022 21.1473 13.1312 18.3591C12.9912 17.9919 12.833 17.6186 12.655 17.2392C12.1788 16.2222 11.5641 15.1668 10.7745 14.0961C10.4353 13.6367 10.1051 13.2158 9.78412 12.8271C11.2462 16.0256 9.49809 20.5282 8.13797 21.7495L7.78047 22.6497L7.44878 24.4318C7.5142 24.4778 7.57962 24.5255 7.64809 24.5746C8.40117 25.1215 9.27444 25.8051 11.0986 26.0694C11.7193 26.16 12.2807 26.0141 12.7919 26.0509C12.7995 26.0509 12.8071 26.0509 12.8162 26.0509L12.8132 26.054Z" fill="#70553F"/>
<path d="M12.982 17.9781C13.0474 18.1394 13.0124 18.3253 12.8907 18.4513C12.6031 18.7508 12.1589 19.1303 11.6538 19.5374C10.3226 20.6097 9.57709 20.8247 8.41779 22.1075C7.70121 22.8986 7.75445 23.9632 7.64491 24.5746C7.54298 24.5009 7.44409 24.4302 7.34672 24.3626C7.24175 21.6927 8.69924 21.3839 10.849 19.3684C11.4773 18.7785 11.92 18.2792 12.2319 17.869C12.4358 17.6002 12.8496 17.6555 12.9774 17.9689C12.9774 17.972 12.9804 17.9751 12.982 17.9781Z" fill="#3A281B"/>
<path d="M5.21691 29.3477C4.48816 28.6179 3.25584 27.3367 2.17261 25.5332C2.93178 26.6301 4.20061 27.9266 5.89392 29.0957C6.67287 29.6334 7.72112 28.9759 7.58572 28.0342C7.51421 27.538 7.47769 27.0449 7.45943 26.6009C7.68308 27.9743 8.29923 29.4905 9.92103 31.7196C10.3348 32.3018 7.38641 31.5214 5.21691 29.3477Z" fill="#70553F"/>
<path d="M15.3859 10.763C16.1093 10.763 16.6958 10.1709 16.6958 9.44036C16.6958 8.70986 16.1093 8.11768 15.3859 8.11768C14.6624 8.11768 14.076 8.70986 14.076 9.44036C14.076 10.1709 14.6624 10.763 15.3859 10.763Z" fill="#D6B363"/>
<path d="M15.3859 10.8013C14.6435 10.8013 14.0379 10.1914 14.0379 9.44019C14.0379 8.68898 14.6419 8.0791 15.3859 8.0791C16.1299 8.0791 16.7338 8.68898 16.7338 9.44019C16.7338 10.1914 16.1299 10.8013 15.3859 10.8013ZM15.3859 8.15745C14.6845 8.15745 14.1155 8.73353 14.1155 9.44019C14.1155 10.1469 14.6861 10.7229 15.3859 10.7229C16.0857 10.7229 16.6562 10.1469 16.6562 9.44019C16.6562 8.73353 16.0857 8.15745 15.3859 8.15745Z" fill="#664C00"/>
<path d="M16.1694 9.44057C16.1694 9.87686 15.818 10.2317 15.3859 10.2317C14.9539 10.2317 14.6024 9.87686 14.6024 9.44057C14.6024 9.00428 14.9539 8.64941 15.3859 8.64941C15.818 8.64941 16.1694 9.00428 16.1694 9.44057Z" fill="#1E1A11"/>
<path d="M14.992 9.44058C14.992 9.63414 14.8718 9.79084 14.7227 9.79084C14.5736 9.79084 14.4535 9.63414 14.4535 9.44058C14.4535 9.24701 14.5736 9.09033 14.7227 9.09033C14.8718 9.09033 14.992 9.24701 14.992 9.44058Z" fill="white"/>
<path d="M15.8438 11.9275C15.8438 11.9275 15.964 11.909 16.174 11.8783C16.2272 11.8706 16.285 11.8614 16.3489 11.8522C16.4098 11.8368 16.4767 11.8199 16.5482 11.803C16.6182 11.7861 16.6928 11.7677 16.7719 11.7477C16.8479 11.7201 16.9286 11.6909 17.0138 11.6617C17.0549 11.6463 17.0974 11.631 17.1416 11.6156C17.1842 11.5972 17.2252 11.5757 17.2694 11.5557C17.3546 11.5111 17.4458 11.4773 17.531 11.4236C17.6162 11.3713 17.706 11.3176 17.7958 11.2623C17.8825 11.2008 17.9707 11.1363 18.0605 11.0718C18.1472 11.0026 18.237 10.932 18.3267 10.8598C18.4165 10.7845 18.5062 10.7092 18.5991 10.6324C18.7831 10.4788 18.9718 10.319 19.1696 10.1654L19.3171 10.0487L19.4693 9.93804C19.5712 9.86583 19.6701 9.78596 19.7751 9.7199C19.8801 9.65231 19.9835 9.58317 20.0855 9.51711C20.1874 9.44798 20.2954 9.39422 20.3973 9.33277C20.5008 9.2744 20.6027 9.21295 20.7031 9.15918C20.8051 9.10849 20.9055 9.05779 21.0029 9.01017C21.1002 8.96255 21.1961 8.91338 21.2889 8.86883C21.3832 8.82889 21.4745 8.78895 21.5612 8.75208C21.7362 8.67988 21.8959 8.60461 22.0405 8.55238C22.185 8.50015 22.3113 8.45406 22.4147 8.41566C22.6231 8.34038 22.7418 8.29736 22.7418 8.29736L23.043 9.52634C23.043 9.52634 22.9289 9.54785 22.7281 9.58625C22.6277 9.60469 22.5045 9.62772 22.3645 9.65384C22.223 9.67842 22.0709 9.72296 21.9005 9.7629C21.8153 9.78441 21.727 9.80593 21.6342 9.82743C21.5429 9.85201 21.4517 9.88274 21.3558 9.91193C21.26 9.94112 21.1611 9.97184 21.0607 10.0026C20.9602 10.0364 20.8629 10.0763 20.7594 10.1132C20.6575 10.1531 20.551 10.1869 20.449 10.233C20.3456 10.2791 20.2422 10.3252 20.1372 10.3713C20.0307 10.4158 19.9288 10.4742 19.8238 10.5249L19.6655 10.6048L19.5104 10.6908C19.3019 10.8045 19.095 10.9289 18.8881 11.0503C18.7847 11.1117 18.6812 11.1732 18.5793 11.2331C18.4743 11.2915 18.3709 11.3498 18.2689 11.4067C18.1639 11.4589 18.059 11.5111 17.957 11.5618C17.8521 11.6064 17.7471 11.6479 17.6482 11.6878C17.5478 11.7293 17.4443 11.7523 17.347 11.783C17.2983 11.7969 17.2511 11.8122 17.204 11.8245C17.1553 11.8337 17.1096 11.8414 17.0625 11.8506C16.9712 11.8675 16.8829 11.8829 16.7992 11.8983C16.714 11.9044 16.635 11.9121 16.5589 11.9167C16.4843 11.9228 16.4143 11.9274 16.3504 11.9336C16.2865 11.9336 16.2272 11.9321 16.174 11.9305C15.961 11.9275 15.8393 11.9244 15.8393 11.9244L15.8438 11.9275Z" fill="#E32D29"/>
<path d="M15.2745 13.5965C15.2745 13.5965 15.4084 13.5766 15.6411 13.5428C15.6989 13.5336 15.7644 13.5243 15.8343 13.5136C15.9028 13.4967 15.9758 13.4782 16.0549 13.4598C16.1325 13.4398 16.2162 13.4199 16.3029 13.3984C16.3881 13.3676 16.4779 13.3354 16.5707 13.3031C16.6163 13.2862 16.6635 13.2693 16.7122 13.2524C16.7594 13.2325 16.805 13.2079 16.8537 13.1864C16.948 13.1372 17.0484 13.0988 17.1442 13.0389C17.2401 12.9805 17.3375 12.9206 17.4379 12.8591C17.5337 12.79 17.6311 12.7194 17.7315 12.6487C17.8289 12.5719 17.9262 12.4935 18.0267 12.4136C18.1255 12.3307 18.226 12.2462 18.3279 12.1617C18.5318 11.9912 18.7402 11.8145 18.9593 11.644L19.122 11.515L19.2909 11.3921C19.405 11.3122 19.5131 11.2246 19.6302 11.1509C19.7458 11.0756 19.8615 11.0003 19.974 10.9251C20.0866 10.8482 20.2068 10.7883 20.3194 10.7207C20.435 10.6562 20.5461 10.5886 20.6587 10.5287C20.7728 10.4719 20.8838 10.4166 20.9918 10.3628C21.0999 10.309 21.2064 10.2553 21.3098 10.2076C21.4148 10.1631 21.5152 10.1201 21.6111 10.0786C21.8058 9.99871 21.9823 9.91423 22.142 9.85739C22.3018 9.79901 22.4417 9.7483 22.5574 9.70682C22.7886 9.62233 22.9209 9.57471 22.9209 9.57471L23.2542 10.9373C23.2542 10.9373 23.1279 10.9619 22.9042 11.0034C22.7932 11.0249 22.6578 11.0495 22.5011 11.0787C22.3444 11.1063 22.1755 11.1555 21.9868 11.2C21.8925 11.2231 21.7936 11.2477 21.6932 11.2722C21.5928 11.2999 21.4909 11.3337 21.3844 11.3659C21.2779 11.3982 21.1698 11.432 21.0572 11.4658C20.9462 11.5027 20.8367 11.5472 20.7241 11.5887C20.6115 11.6332 20.4928 11.6701 20.3802 11.7223C20.2661 11.773 20.1505 11.8237 20.0334 11.876C19.9147 11.9251 19.8037 11.9897 19.6865 12.0465L19.5115 12.1341L19.3396 12.2293C19.1084 12.3553 18.8802 12.4935 18.6504 12.6287C18.5348 12.6963 18.4207 12.7639 18.3066 12.8315C18.191 12.896 18.0753 12.9605 17.9628 13.0235C17.8456 13.0819 17.73 13.1387 17.6174 13.1956C17.5003 13.2447 17.3846 13.2908 17.2751 13.3354C17.164 13.3815 17.0484 13.406 16.9419 13.4398C16.8872 13.4552 16.8354 13.4721 16.7837 13.4844C16.7304 13.4936 16.6787 13.5044 16.627 13.5136C16.525 13.532 16.4277 13.5489 16.3349 13.5658C16.2406 13.5735 16.1523 13.5796 16.0686 13.5873C15.9865 13.5935 15.9089 13.5996 15.8374 13.6057C15.7659 13.6057 15.7005 13.6042 15.6426 13.6027C15.4068 13.5996 15.2714 13.5965 15.2714 13.5965H15.2745Z" fill="#E32D29"/>
<path d="M14.6873 15.5188C14.6873 15.5188 14.8409 15.4958 15.1087 15.4559C15.1756 15.4451 15.2502 15.4343 15.3308 15.4221C15.4099 15.4021 15.4936 15.3821 15.5849 15.3591C15.6746 15.3376 15.7705 15.313 15.8709 15.2884C15.9683 15.2531 16.0717 15.2162 16.1782 15.1778C16.2315 15.1594 16.2862 15.1394 16.341 15.1194C16.3958 15.0964 16.449 15.0687 16.5038 15.0426C16.5586 15.0165 16.6133 14.9888 16.6696 14.9627C16.7259 14.9351 16.7837 14.9105 16.837 14.8736C16.9465 14.806 17.0591 14.7369 17.1747 14.6678C17.2843 14.5879 17.3969 14.508 17.5125 14.4251C17.6235 14.336 17.7376 14.2453 17.8518 14.1547C17.9659 14.0594 18.0815 13.9626 18.1986 13.8659C18.4344 13.6692 18.6733 13.4664 18.9259 13.2698L19.113 13.1223L19.3062 12.981C19.437 12.8888 19.5618 12.7874 19.6957 12.7029C19.8295 12.6154 19.9619 12.5294 20.0928 12.4433C20.2221 12.3558 20.3605 12.2866 20.4913 12.2083C20.6237 12.133 20.753 12.0562 20.8823 11.9871C21.0132 11.9226 21.141 11.858 21.2657 11.7966C21.3905 11.7351 21.5122 11.6721 21.6309 11.6168C21.751 11.5661 21.8667 11.5155 21.9777 11.4678C22.0888 11.4202 22.1968 11.3741 22.2988 11.3311C22.4007 11.2881 22.4981 11.2451 22.5893 11.2143C22.7734 11.1468 22.9347 11.0884 23.0671 11.0408C23.3333 10.944 23.4839 10.8887 23.4839 10.8887L23.8673 12.4571C23.8673 12.4571 23.7213 12.4848 23.4657 12.5324C23.3379 12.557 23.1812 12.5862 23.0032 12.62C22.9119 12.6354 22.8206 12.6584 22.7217 12.683C22.6228 12.7075 22.5194 12.7321 22.4114 12.7598C22.3033 12.7859 22.1892 12.8136 22.0721 12.8427C21.9565 12.875 21.8393 12.9134 21.7176 12.9503C21.5959 12.9871 21.4696 13.0271 21.3418 13.0655C21.214 13.107 21.0893 13.1592 20.9584 13.2068C20.8291 13.2575 20.6922 13.3005 20.5628 13.3604C20.432 13.4188 20.2981 13.4772 20.1643 13.5371C20.0289 13.594 19.8995 13.6677 19.7641 13.7338L19.5633 13.8351L19.3655 13.9458C19.0993 14.0902 18.8361 14.2499 18.5729 14.4051C18.4405 14.4834 18.3082 14.5618 18.1788 14.6386C18.045 14.7139 17.9126 14.7876 17.7833 14.8598C17.6479 14.9274 17.5155 14.9919 17.3862 15.0564C17.2523 15.1133 17.1199 15.1655 16.9921 15.2177C16.9298 15.2454 16.8628 15.2638 16.7989 15.2823C16.735 15.3007 16.6711 15.3207 16.6088 15.3376C16.5464 15.3545 16.487 15.376 16.4262 15.3898C16.3653 15.4005 16.3045 15.4128 16.2467 15.4236C16.1295 15.4451 16.0185 15.4651 15.912 15.485C15.804 15.4942 15.702 15.5019 15.6047 15.5096C15.5088 15.5173 15.4206 15.5234 15.3384 15.5296C15.2563 15.5296 15.1817 15.5265 15.1133 15.5265C14.8424 15.5219 14.6873 15.5204 14.6873 15.5204V15.5188Z" fill="#E32D29"/>
<path d="M77.7386 93.7697L74.1679 85.8842C74.1679 85.8842 71.2971 64.6952 64.3824 47.6569C62.5765 43.2065 60.4937 39.0418 58.1158 35.6084C53.188 28.4972 46.9838 24.5368 39.3221 27.7414C36.6657 28.8521 34.449 30.4175 32.634 32.307C27.5267 37.6223 25.5885 45.5139 25.9384 53.132C25.9536 53.4731 25.9749 53.8141 25.9993 54.1536C26.2899 58.134 27.1981 62.0037 28.5978 65.3542C31.2709 71.748 39.8485 80.9898 50.912 93.7681H77.7417L77.7386 93.7697Z" fill="#D32929"/>
<path d="M69.8819 55.6309H59.2657C63.6047 68.7394 69.1897 81.9202 72.056 84.7146C75.645 88.2156 76.967 87.0097 77.5801 83.0278C75.3544 73.9902 73.4755 64.0401 69.8835 55.6324L69.8819 55.6309Z" fill="#186AB5"/>
<path d="M39.2152 80.1401C66.4343 109.931 82.8912 133.424 86.2519 141.466C86.9016 142.672 88.5051 138.854 87.0978 134.277C85.6905 129.697 76.8239 113.621 56.5103 91.8215C47.137 81.7624 39.2136 80.1401 39.2136 80.1401H39.2152Z" fill="#0C4E91"/>
<path d="M38.3801 79.0112C65.8868 108.53 82.5719 131.859 86.0118 139.869C86.6736 141.067 88.2391 137.236 86.7876 132.671C85.3362 128.107 76.3144 112.118 55.7894 90.5206C46.3187 80.5551 38.3801 79.0112 38.3801 79.0112Z" fill="#186AB5"/>
<path d="M38.5704 74.4438C65.7896 104.234 82.2464 127.728 85.6072 135.77C86.2568 136.976 87.8604 133.158 86.4531 128.58C85.0458 124.001 76.1791 107.924 55.8655 86.1253C46.4923 76.0661 38.5689 74.4438 38.5689 74.4438H38.5704Z" fill="#0C4E91"/>
<path d="M37.7352 73.3149C65.242 102.833 81.927 126.162 85.3669 134.172C86.0287 135.371 87.5942 131.539 86.1428 126.975C84.6914 122.411 75.6695 106.422 55.1445 84.8243C45.6738 74.8588 37.7352 73.3149 37.7352 73.3149Z" fill="#186AB5"/>
<path d="M38.0288 69.1973C65.248 98.9877 81.7048 122.481 85.0656 130.523C85.7152 131.729 87.3187 127.912 85.9115 123.334C84.5042 118.754 75.6376 102.678 55.324 80.8787C45.9507 70.8195 38.0273 69.1973 38.0273 69.1973H38.0288Z" fill="#0C4E91"/>
<path d="M37.1919 68.0688C64.6986 97.5873 81.3837 120.916 84.8235 128.926C85.4853 130.124 87.0508 126.293 85.5994 121.729C84.148 117.165 75.1262 101.176 54.6011 79.5782C45.1305 69.6128 37.1919 68.0688 37.1919 68.0688Z" fill="#186AB5"/>
<path d="M52.0574 81.2406C61.5554 92.73 77.3475 114.13 81.3426 118.105C85.3378 122.081 83.0207 111.155 79.5109 106.338C75.9995 101.52 44.1264 62.5586 44.1264 62.5586L39.9472 65.4559L52.0574 81.2406Z" fill="#0C4E91"/>
<path d="M52.0544 79.9915C61.5524 91.4809 77.3444 112.88 81.3396 116.856C85.3348 120.832 83.0177 109.906 79.5078 105.089C75.9965 100.271 44.1234 61.3096 44.1234 61.3096L39.9441 64.2069L52.0544 79.9915Z" fill="#186AB5"/>
<path d="M50.4933 75.098C59.9913 86.5874 75.7833 107.987 79.7785 111.963C83.7736 115.938 81.4566 105.013 77.9467 100.195C74.4353 95.3776 42.5622 56.416 42.5622 56.416L38.383 59.3133L50.4933 75.098Z" fill="#0C4E91"/>
<path d="M50.4904 73.849C59.9884 85.3384 75.7804 106.738 79.7756 110.714C83.7708 114.689 81.4537 103.764 77.9438 98.9462C74.4325 94.1286 42.5594 55.167 42.5594 55.167L38.3801 58.0643L50.4904 73.849Z" fill="#186AB5"/>
<path d="M48.5627 82.2505C46.4161 79.0491 43.4037 75.4881 40.8965 72.6968H36.4525L36.4646 73.0148C36.4646 73.0148 36.3475 72.8965 36.1482 72.6968H33.1876C33.5071 73.1638 33.8631 73.6754 34.2602 74.2361C43.0781 86.6687 50.3595 95.6264 53.9028 96.4345C57.4477 97.2425 52.9246 88.758 48.5612 82.2521L48.5627 82.2505Z" fill="#0C4E91"/>
<path d="M33.7157 73.6849C42.8212 85.904 49.815 95.0752 53.3599 95.8832C56.9047 96.6913 52.3816 88.2067 48.0183 81.7009C43.6565 75.195 35.7178 67.2051 35.7178 67.2051L34.8583 72.6817C34.8583 72.6817 30.1602 68.9149 33.7157 73.6864V73.6849Z" fill="#186AB5"/>
<path d="M38.3329 75.0921C47.1509 87.5247 54.4323 96.4824 57.9771 97.2905C61.5219 98.0985 56.9988 89.614 52.6355 83.1081C48.2737 76.6022 40.3351 68.6123 40.3351 68.6123L38.3329 74.8033C38.3329 74.8033 29.5149 62.6594 38.3329 75.0921Z" fill="#0C4E91"/>
<path d="M37.8963 74.4759C46.7142 86.9085 53.9956 95.8662 57.5404 96.6742C61.0853 97.4823 56.5622 88.9978 52.1988 82.4919C47.837 75.986 39.8984 67.9961 39.8984 67.9961L37.8963 74.1871C37.8963 74.1871 29.0783 62.0432 37.8963 74.4759Z" fill="#186AB5"/>
<path d="M44.0564 74.3046C51.8991 87.3871 58.4746 96.884 61.9479 97.9655C65.4197 99.047 61.5584 90.2352 57.7048 83.4098C53.8526 76.5844 46.5484 68 46.5484 68L44.0792 74.0174C44.0792 74.0174 36.2136 61.2237 44.0579 74.3046H44.0564Z" fill="#0C4E91"/>
<path d="M57.3366 82.6955C53.4844 75.87 46.1802 67.2856 46.1802 67.2856L43.711 73.303L43.6897 73.5903C51.5325 86.6728 58.1079 96.1696 61.5812 97.2511C65.0531 98.3326 61.1918 89.5209 57.3381 82.6955H57.3366Z" fill="#186AB5"/>
<path d="M50.4524 75.5677C57.7627 88.9605 63.9486 98.7216 67.3748 99.9445C70.801 101.167 67.2972 92.205 63.7219 85.2259C60.1467 78.2484 53.1954 69.3706 53.1954 69.3706L50.4858 75.282C50.4858 75.282 43.1421 62.175 50.4524 75.5677Z" fill="#0C4E91"/>
<path d="M63.3599 84.5028C59.7847 77.5253 52.8334 68.6475 52.8334 68.6475L50.1238 74.5588L50.0904 74.8446C57.4007 88.2373 63.5866 97.9985 67.0128 99.2213C70.439 100.444 66.9352 91.4818 63.3599 84.5028Z" fill="#186AB5"/>
<path d="M57.7764 75.6511C64.078 89.557 69.5276 99.7559 72.8534 101.232C76.1791 102.71 73.3463 93.5081 70.2974 86.2802C67.247 79.0523 60.9698 69.6767 60.9698 69.6767L57.8312 75.3669C57.8312 75.3669 51.4748 61.7437 57.7764 75.6495V75.6511Z" fill="#0C4E91"/>
<path d="M57.4233 74.9538C63.7249 88.8597 69.1746 99.0586 72.5003 100.535C75.8261 102.013 72.9932 92.8108 69.9444 85.5829C66.894 78.355 60.6167 68.9795 60.6167 68.9795L57.4781 74.6696C57.4781 74.6696 51.1217 61.0464 57.4233 74.9523V74.9538Z" fill="#186AB5"/>
<path d="M65.2842 81.7495C71.3941 95.7414 76.7038 106.016 80.0097 107.54C83.3157 109.063 80.6091 99.8231 77.6576 92.5522C74.7077 85.2828 68.5582 75.8212 68.5582 75.8212L65.342 81.4668C65.342 81.4668 59.1728 67.7561 65.2842 81.7495Z" fill="#0C4E91"/>
<path d="M77.3141 91.8506C74.3641 84.5812 68.2147 75.1196 68.2147 75.1196H60.9546L64.9406 81.0479C71.0505 95.0398 76.3602 105.314 79.6662 106.838C82.9721 108.362 80.2656 99.1215 77.3141 91.8506Z" fill="#186AB5"/>
<path d="M64.1479 71.958C70.2578 85.9499 75.5674 96.2241 78.8734 97.7481C82.1794 99.272 79.4728 90.0316 76.5214 82.7607C73.5714 75.4913 67.4219 66.0297 67.4219 66.0297L64.2057 71.6753C64.2057 71.6753 58.0365 57.9646 64.1479 71.958Z" fill="#0C4E91"/>
<path d="M63.8058 71.2563C69.9157 85.2482 75.2253 95.5225 78.5313 97.0464C81.8373 98.5703 79.1307 89.33 76.1792 82.059C73.2293 74.7896 67.0798 65.3281 67.0798 65.3281L63.8636 70.9737C63.8636 70.9737 57.6944 57.2629 63.8058 71.2563Z" fill="#186AB5"/>
<path d="M62.8442 64.3066C68.9541 78.2985 74.2638 88.5728 77.5697 90.0967C80.8757 91.6206 78.1692 82.3803 75.2177 75.1093C72.2677 67.8399 66.1182 58.3784 66.1182 58.3784L62.902 64.024C62.902 64.024 56.7328 50.3132 62.8442 64.3066Z" fill="#0C4E91"/>
<path d="M62.5001 63.6059C68.61 77.5978 73.9197 87.8721 77.2257 89.396C80.5316 90.9199 77.8251 81.6796 74.8736 74.4086C71.9236 67.1392 65.7742 57.6777 65.7742 57.6777L62.5579 63.3233C62.5579 63.3233 56.3887 49.6125 62.5001 63.6059Z" fill="#186AB5"/>
<path d="M61.6801 56.7143C67.79 70.7062 73.0997 80.9805 76.4056 82.5044C79.7116 84.0283 77.0051 74.788 74.0536 67.517C71.1036 60.2477 64.9541 50.7861 64.9541 50.7861L61.7379 56.4317C61.7379 56.4317 55.5687 42.7209 61.6801 56.7143Z" fill="#0C4E91"/>
<path d="M73.7113 66.8149C70.7613 59.5456 64.6118 50.084 64.6118 50.084L61.3956 55.7296L61.3378 56.0123C67.4477 70.0041 72.7574 80.2784 76.0633 81.8023C79.3693 83.3263 76.6628 74.0859 73.7113 66.8149Z" fill="#186AB5"/>
<path d="M27.4151 56.5836C40.3241 78.4564 47.6694 84.5536 49.0173 81.4028C51.2188 76.258 38.7434 59.3811 34.4896 56.5836C30.2358 53.7862 27.4151 56.5836 27.4151 56.5836Z" fill="#EA8D32"/>
<path d="M26.7565 55.3398C40.0809 77.2386 47.4048 83.4219 48.7543 80.2696C50.9557 75.1248 38.4803 58.2478 34.2265 55.4504C29.9727 52.6529 26.7581 55.3398 26.7581 55.3398H26.7565Z" fill="#F4AD31"/>
<path d="M34.3742 57.1642C47.2832 79.0369 54.6285 85.1342 55.9764 81.9834C58.1779 76.8386 45.7025 59.9617 41.4487 57.1642C37.1949 54.3668 34.3742 57.1642 34.3742 57.1642Z" fill="#EA8D32"/>
<path d="M33.7155 55.9203C47.0399 77.8192 54.3638 84.0025 55.7133 80.8501C57.9147 75.7053 45.4393 58.8284 41.1855 56.031C36.9317 53.2335 33.7171 55.9203 33.7171 55.9203H33.7155Z" fill="#F4AD31"/>
<path d="M42.2077 56.6681C55.1166 78.5408 62.4619 84.6381 63.8099 81.4873C66.0113 76.3425 53.5359 59.4656 49.2821 56.6681C45.0283 53.8707 42.2077 56.6681 42.2077 56.6681Z" fill="#EA8D32"/>
<path d="M41.5489 55.4238C54.8732 77.3226 62.1972 83.5059 63.5466 80.3535C65.7481 75.2087 53.2727 58.3318 49.0189 55.5344C44.7651 52.7369 41.5504 55.4238 41.5504 55.4238H41.5489Z" fill="#F4AD31"/>
<path d="M46.9988 53.1901C59.9078 75.0628 67.253 81.1601 68.601 78.0093C70.8024 72.8645 58.3271 55.9875 54.0733 53.1901C49.8194 50.3926 46.9988 53.1901 46.9988 53.1901Z" fill="#EA8D32"/>
<path d="M46.3398 51.9477C59.6641 73.8465 66.988 80.0298 68.3375 76.8775C70.539 71.7327 58.0636 54.8558 53.8098 52.0583C49.556 49.2608 46.3413 51.9477 46.3413 51.9477H46.3398Z" fill="#F4AD31"/>
<path d="M51.5002 49.2458C64.4092 71.1185 71.7544 77.2157 73.1024 74.0649C75.3038 68.9201 62.8285 52.0432 58.5747 49.2458C54.3209 46.4483 51.5002 49.2458 51.5002 49.2458Z" fill="#EA8D32"/>
<path d="M50.8416 48.0009C64.166 69.8997 71.4899 76.083 72.8394 72.9307C75.0409 67.7859 62.5655 50.909 58.3117 48.1115C54.0579 45.3141 50.8432 48.0009 50.8432 48.0009H50.8416Z" fill="#F4AD31"/>
<path d="M51.5002 43.7448C64.4092 65.6175 71.7544 71.7147 73.1024 68.5639C75.3038 63.4191 62.8285 46.5422 58.5747 43.7448C54.3209 40.9473 51.5002 43.7448 51.5002 43.7448Z" fill="#EA8D32"/>
<path d="M50.8416 42.5009C64.166 64.3997 71.4899 70.583 72.8394 67.4307C75.0409 62.2859 62.5655 45.409 58.3117 42.6115C54.0579 39.8141 50.8432 42.5009 50.8432 42.5009H50.8416Z" fill="#F4AD31"/>
<path d="M68.3851 58.5397C69.6661 64.6278 67.5985 65.4881 61.8599 61.7412C61.8599 61.7412 61.8599 61.7443 61.8629 61.752C63.7403 67.244 63.8377 72.6269 55.5278 65.4881C59.8273 76.1771 53.2032 75.9282 47.4143 69.3716C50.4814 78.5982 44.0505 76.0281 40.1786 71.8818V71.8849C41.6862 77.8024 39.4635 80.288 37.4522 78.6642C37.4522 78.6642 37.4507 78.6627 37.4492 78.6627C37.2377 78.4922 37.0308 78.2771 36.8285 78.0159C34.8948 75.5088 28.8716 68.4038 26.5576 57.3753C26.556 57.3707 26.5545 57.3645 26.553 57.3599C26.3233 56.2615 26.13 55.1247 25.9809 53.9495C25.9809 53.9495 33.381 46.5741 41.7577 43.5094C50.1345 40.4446 63.1272 42.6905 66.2141 47.9275C67.9013 50.791 69.9293 54.776 70.5789 57.2094C71.1175 59.2264 70.7098 60.1773 68.382 58.5397H68.3851Z" fill="#F4AD31"/>
<path d="M37.4521 78.6639C37.4521 78.6639 37.4507 78.6624 37.4491 78.6624C37.2377 78.4919 37.0307 78.2768 36.8284 78.0157C34.8947 75.5085 28.8715 68.4035 26.5575 57.375C27.0413 59.3859 33.2014 74.0138 36.976 77.1523C40.7597 80.2985 40.177 71.8831 40.177 71.8831V71.8861C41.6847 77.8037 39.4619 80.2893 37.4506 78.6655L37.4521 78.6639Z" fill="#EA8D32"/>
<path d="M40.1784 71.8816C38.0485 69.267 31.3696 56.0647 30.8919 52.5498C30.8919 52.5498 37.9237 71.221 44.3546 73.6698C45.7163 74.1798 48.4213 75.2352 47.4142 69.3714C50.4813 78.598 44.0504 76.0279 40.1784 71.8816Z" fill="#EA8D32"/>
<path d="M47.4158 69.3716C44.2741 65.6386 36.3173 53.2336 35.3953 50.4023C35.3953 50.4023 46.007 67.4344 50.953 70.7696C55.9006 74.1047 56.1562 70.7327 56.0725 69.5498C55.9097 67.2055 55.5278 65.4865 55.5278 65.4865C59.8273 76.1755 53.2032 75.9266 47.4143 69.3701L47.4158 69.3716Z" fill="#EA8D32"/>
<path d="M55.5279 65.4879C50.8785 61.1849 41.8399 47.9289 41.5585 47.5156C41.913 47.9857 54.6759 64.8964 59.2492 66.7276C63.786 68.5434 61.9436 62.036 61.8615 61.7518C63.7388 67.2438 63.8362 72.6267 55.5264 65.4879H55.5279Z" fill="#EA8D32"/>
<path d="M61.8598 61.7426C61.8598 61.7426 61.8598 61.7457 61.8628 61.7534C57.072 58.343 47.2438 45.4387 47.0719 45.2129C47.2955 45.4771 61.6666 62.3556 66.4939 62.672C67.6654 62.672 68.7927 62.0837 68.385 58.5427C69.666 64.6307 67.5985 65.491 61.8598 61.7442V61.7426Z" fill="#EA8D32"/>
<path d="M68.3851 58.5392C65.1582 56.0644 55.6374 45.5735 54.898 44.7578C55.7286 45.6442 67.7674 58.4778 70.1879 58.9617C70.6839 59.0785 70.5804 57.2089 70.5804 57.2089C71.119 59.2259 70.7113 60.1769 68.3835 58.5392H68.3851Z" fill="#EA8D32"/>
<path d="M64.3807 47.6567C64.1084 48.0884 63.4071 47.9624 62.0911 46.9731C62.692 51.8829 60.5301 52.247 55.2144 48.5016C55.2144 48.5016 55.2144 48.5032 55.2159 48.5093C56.4787 53.0443 55.9766 57.2335 48.4686 50.4788C51.5722 59.3996 44.9815 58.2367 39.929 52.3023C41.9646 59.9096 35.8258 56.9739 32.4179 53.1902V53.1933C33.2653 58.0047 30.7672 59.6055 28.937 58.0523C28.937 58.0523 28.937 58.0508 28.9354 58.0508C28.7437 57.8864 28.5597 57.6898 28.3878 57.4578C27.8659 56.7542 26.9881 55.6359 25.9961 54.1534C25.418 46.225 27.2954 37.8587 32.6309 32.3053C34.096 31.9289 35.6204 31.6171 37.1601 31.4127C43.9516 30.5171 49.7283 29.4464 54.653 32.5173C56.0451 33.3853 57.3002 34.5267 60.556 38.7451C62.8442 41.7085 64.0537 44.277 64.431 46.2588C64.5512 46.8917 64.5496 47.3833 64.3792 47.6537L64.3807 47.6567Z" fill="#D32929"/>
<path d="M28.9386 58.054C28.9386 58.054 28.9386 58.0525 28.9371 58.0525C28.7454 57.8881 28.5614 57.6915 28.3894 57.4595C27.8676 56.7559 26.9898 55.6376 25.9978 54.1551C25.9735 53.8156 26.0085 54.4255 25.9933 54.0829C27.1343 55.4394 27.7763 56.0631 28.6344 56.8112C32.0651 59.8068 32.4211 53.1919 32.4211 53.1919V53.195C33.2685 58.0064 30.7704 59.6072 28.9402 58.054H28.9386Z" fill="#BA1919"/>
<path d="M39.9308 52.3039C40.2822 57.0002 37.705 55.934 36.4011 55.3395C33.8041 54.1413 30.8922 50.5342 29.0072 46.9395C30.3201 49.7277 31.659 52.2225 32.4212 53.1919C35.8276 56.9756 41.9679 59.9098 39.9323 52.3039H39.9308Z" fill="#BA1919"/>
<path d="M48.4702 50.4798C48.4702 50.4798 48.6589 51.8686 48.5615 53.7105C48.5128 54.6399 47.8814 57.2177 43.3096 53.9072C40.9834 52.2219 36.7997 47.5718 34.0246 43.4102C36.1226 46.9004 38.534 50.5828 39.9306 52.3049C44.9832 58.2378 51.5739 59.4022 48.4702 50.4798Z" fill="#BA1919"/>
<path d="M55.2159 48.5089C55.2661 48.7424 56.3798 54.0592 52.0499 51.9869C49.5533 50.7917 44.4126 45.3811 40.8555 40.8877C43.3248 44.3918 46.3386 48.4275 48.4686 50.4814C55.9751 57.2361 56.4787 53.0453 55.2144 48.5104L55.2159 48.5089Z" fill="#BA1919"/>
<path d="M62.091 46.9728C62.1032 49.7795 60.9104 50.0714 59.7405 49.8993C57.0978 49.3739 51.4291 44.5072 47.4583 40.2119C50.0583 43.4165 53.0965 46.8991 55.2158 48.509C55.2158 48.5029 55.2143 48.5014 55.2143 48.5014C60.5301 52.2482 62.692 51.8826 62.091 46.9728Z" fill="#BA1919"/>
<path d="M62.0911 46.9727C59.1427 44.5808 50.7978 35.0486 50.1512 34.3081C50.8815 35.1177 61.481 46.836 63.8453 47.5642C64.3291 47.727 64.4325 46.263 64.4325 46.263C64.7459 47.9067 64.2332 48.5842 62.0896 46.9743L62.0911 46.9727Z" fill="#BA1919"/>
<path d="M56.3406 33.2596C51.8997 28.7539 46.5748 26.786 40.255 29.4037C28.6361 34.2167 25.0669 47.1071 26.5412 58.3692C24.3717 46.7154 27.4555 32.7035 39.3208 27.7415C46.091 24.9103 51.7217 27.6709 56.3406 33.2581V33.2596Z" fill="#ED4343"/>
<path d="M41.4944 93.1751C40.8037 93.3333 39.2412 96.3658 39.6094 98.1263C39.9776 99.8868 40.2545 101.862 42.2323 102.463C44.2116 103.064 47.8736 103.879 48.8731 102.463C49.8727 101.047 51.4062 98.9712 49.9716 97.1539C48.5369 95.335 49.6429 93.3118 46.0159 92.9508C42.3905 92.5882 41.4929 93.1751 41.4929 93.1751H41.4944Z" fill="#AA8163"/>
<path d="M42.5687 94.2485C41.8643 94.2485 41.236 94.8415 41.0504 95.6311C40.8648 96.4207 40.2395 97.1643 40.6411 98.2457C41.0412 99.3272 40.6502 100.089 41.4611 100.794C42.272 101.499 42.9004 102.092 43.7828 102.074C44.6652 102.056 45.9781 102.478 46.8864 102.026C47.7947 101.575 48.9494 101.406 49.0528 100.569C49.1548 99.7313 50.022 98.9324 49.5929 98.1321C49.1639 97.3332 49.1183 96.5421 48.6238 95.7248C48.1294 94.906 47.5437 94.399 46.7601 94.3038C45.9766 94.2086 44.6926 94.1717 43.9091 94.0964C43.1271 94.0211 42.8 94.247 42.5672 94.247L42.5687 94.2485Z" fill="#D6B199"/>
</svg>
