<svg width="181" height="111" viewBox="0 0 181 111" fill="none" xmlns="http://www.w3.org/2000/svg">
<path d="M168.239 29.4053C168.239 29.4053 171.194 25.24 175.361 32.1377C175.389 31.5892 174.012 23.9135 177.602 23.6715C177.977 23.6715 175.445 25.8157 177.691 30.5692C178.611 32.5152 179.76 35.2705 179.773 37.8027C179.794 41.9513 177.723 45.3866 173.703 42.8419C172.045 40.9606 168.239 29.4032 168.239 29.4032V29.4053Z" fill="#FFB1A7"/>
<path d="M176.238 44.2415C175.368 44.2415 174.421 43.9203 173.422 43.2883L173.359 43.2486L173.309 43.1923C171.601 41.2526 167.897 30.0477 167.74 29.5722L167.657 29.3198L167.811 29.1029C167.853 29.0424 168.873 27.6345 170.608 27.6345C171.97 27.6345 173.328 28.4897 174.661 30.1833C174.5 27.8744 174.596 25.4236 175.725 24.0803C176.202 23.5109 176.822 23.198 177.566 23.148H177.602C177.806 23.148 177.988 23.2481 178.09 23.4191C178.263 23.7112 178.117 23.9781 177.975 24.2347C177.579 24.9543 176.526 26.869 178.169 30.346C179.079 32.2712 180.288 35.1391 180.303 37.8027C180.315 40.1575 179.69 42.1411 178.588 43.2486C177.942 43.8994 177.13 44.2415 176.242 44.2415H176.238ZM174.052 42.4414C175.61 43.4072 176.909 43.4405 177.84 42.5061C178.732 41.6092 179.258 39.853 179.247 37.8068C179.235 35.3519 178.082 32.6299 177.216 30.7945C175.839 27.8785 176.171 25.8449 176.611 24.6664C176.584 24.6956 176.557 24.7248 176.532 24.7561C175.276 26.2496 175.7 30.2104 175.837 31.512C175.879 31.8937 175.894 32.0543 175.889 32.1648L175.802 33.8793L174.913 32.4088C173.441 29.9727 171.954 28.6836 170.61 28.6836C169.738 28.6836 169.113 29.2218 168.833 29.518C169.943 32.8573 172.767 40.8625 174.054 42.4414H174.052Z" fill="#B94A5B"/>
<path d="M153.584 74.5583C153.584 74.5583 150.32 86.2846 144.678 91.8036C142.152 94.2752 140.537 95.4182 139.751 99.0162C139.267 101.235 139.317 103.346 136.257 101.928C134.941 101.317 135.715 106.575 132.355 106.642C130.922 106.619 124.969 103.54 125.553 102.823C126.135 102.105 138.185 94.1772 136.303 82.2841C136.908 81.8815 153.586 74.5563 153.586 74.5563L153.584 74.5583Z" fill="#FFB1A7"/>
<path d="M132.355 107.167H132.344C130.847 107.142 125.643 104.525 125.067 103.294C124.933 103.006 124.961 102.714 125.14 102.491C125.24 102.368 125.426 102.216 125.872 101.855C133.514 95.6747 136.847 89.117 135.779 82.3674L135.727 82.0337L136.007 81.846C136.618 81.4371 150.578 75.3008 153.369 74.0764L154.385 73.6301L154.086 74.698C153.951 75.1819 150.718 86.6245 145.042 92.1789C144.73 92.4855 144.429 92.7713 144.146 93.0445C142.133 94.9697 140.917 96.1314 140.262 99.1266C140.205 99.3874 140.155 99.6481 140.107 99.9005C139.838 101.313 139.534 102.912 137.892 102.912C137.4 102.912 136.818 102.758 136.117 102.441C136.009 102.637 135.884 103.094 135.788 103.442C135.408 104.817 134.772 107.117 132.363 107.165H132.353L132.355 107.167ZM126.131 103.002C126.936 103.903 131.23 106.085 132.353 106.114C133.848 106.079 134.317 104.812 134.774 103.163C135.043 102.191 135.275 101.35 136.057 101.35C136.195 101.35 136.336 101.383 136.476 101.448C137.064 101.721 137.542 101.859 137.892 101.859C138.593 101.859 138.781 101.235 139.075 99.7023C139.125 99.4416 139.177 99.1725 139.236 98.9014C139.959 95.5912 141.411 94.2021 143.42 92.2832C143.701 92.012 144 91.7305 144.308 91.4259C148.793 87.0396 151.79 78.5087 152.747 75.4989C146.703 78.1562 138.56 81.7625 136.874 82.5781C137.828 89.5925 134.351 96.3525 126.535 102.672C126.389 102.789 126.241 102.91 126.131 103.002Z" fill="#B94A5B"/>
<path d="M83.4888 81.4789C83.4888 81.4789 83.1509 90.6251 85.7289 94.1333C87.7604 96.8991 87.8334 98.209 87.6103 98.6136C87.3871 99.0161 86.8489 100.226 84.9238 98.6136C84.3856 98.211 86.29 103.832 83.4533 105.628C81.7054 105.449 76.8622 105.198 76.7267 104.304C76.5932 103.407 82.2811 97.2265 72.2026 87.8635C69.9187 85.5796 67.4992 80.6071 67.4992 80.6071L83.4908 81.481L83.4888 81.4789Z" fill="#FFB1A7"/>
<path d="M83.5789 106.168L83.3974 106.15C83.1284 106.122 82.7842 106.093 82.3942 106.06C78.2351 105.705 76.3537 105.378 76.2036 104.381C76.1577 104.078 76.2995 103.776 76.554 103.227C77.4947 101.202 79.9934 95.8207 71.8422 88.2473C69.5082 85.9133 67.1242 81.0409 67.0241 80.8365L66.6319 80.0335L84.0315 80.9846L84.0127 81.5018C84.0086 81.5915 83.7124 90.5062 86.1507 93.8246C88.4888 97.0075 88.3553 98.3529 88.0675 98.8701L88.0404 98.9181C87.886 99.2018 87.4772 99.9547 86.5636 99.9547C86.2132 99.9547 85.8378 99.8442 85.4311 99.6168C85.6375 101.346 85.9629 104.66 83.7291 106.072L83.5747 106.17L83.5789 106.168ZM77.2819 104.183C77.9556 104.625 81.222 104.902 82.4859 105.011C82.7946 105.038 83.0741 105.061 83.314 105.084C84.8971 103.907 84.5446 100.996 84.3715 99.5751C84.2755 98.7909 84.2401 98.4989 84.457 98.2548C84.5634 98.1339 84.7156 98.065 84.8762 98.065C84.9659 98.065 85.0994 98.0859 85.2392 98.1902L85.2621 98.2089C85.9817 98.8117 86.3905 98.9014 86.5699 98.9014C86.8139 98.9014 86.9474 98.7366 87.1226 98.4154L87.1539 98.3591C87.2561 98.138 87.1414 96.9408 85.308 94.4462C82.9844 91.2821 82.9239 84.0006 82.9531 81.9774L68.384 81.1807C69.162 82.6657 70.9224 85.8382 72.5764 87.4901C81.2741 95.5684 78.5417 101.454 77.5114 103.67C77.43 103.845 77.3341 104.051 77.284 104.185L77.2819 104.183Z" fill="#B94A5B"/>
<path d="M27.9239 31.6226C27.9239 31.6226 16.8276 20.2133 13.4778 25.1045C11.8947 27.4155 10.5661 38.4973 20.242 48.4423C20.4214 48.2629 27.9239 31.6226 27.9239 31.6226Z" fill="#FFB1A7"/>
<path d="M13.478 25.1045C13.1255 25.6197 12.7855 26.5687 12.5769 27.8431C11.8657 33.5269 14.865 43.5157 21.2705 46.2939C21.9421 45.4867 27.922 31.6226 27.922 31.6226C27.922 31.6226 16.8257 20.2133 13.4759 25.1045H13.478Z" fill="#FFCCCB"/>
<path d="M26.2969 30.0603C23.0869 27.1194 16.0328 21.3751 13.4777 25.1045C13.1753 25.5467 12.8812 26.3164 12.6726 27.3342C16.5146 23.851 21.8876 26.9859 26.2969 30.0603Z" fill="#FFF0F0"/>
<path d="M20.2377 48.826H19.8664C8.92027 37.1623 11.4774 26.675 12.8979 24.6018C13.5048 23.7153 14.6291 23.0562 15.7575 23.0562C20.3462 23.0562 27.9321 30.5942 28.2429 30.9134V31.5683L28.1678 31.7351C23.1766 42.8065 20.5735 48.4923 20.4317 48.6341L20.2398 48.826H20.2377ZM15.8722 24.1554C14.9169 24.1554 14.2077 24.5162 13.6988 25.2567C13.0209 26.2454 12.2054 29.4575 12.902 33.8689C13.4631 37.4272 15.186 42.7397 20.1731 47.9854C21.095 46.0728 25.6753 35.9484 27.6005 31.6809C26.5931 30.6735 19.9165 24.1554 15.8701 24.1554H15.8722Z" fill="#B94A5B"/>
<path d="M24.451 36.7974C24.451 36.7974 18.5232 23.9114 15.0337 28.108C13.4318 30.0332 14.5957 38.6454 21.4037 45.0967C22.0315 45.2761 24.4489 36.7995 24.4489 36.7995L24.451 36.7974Z" fill="#FD7F73"/>
<path d="M15.0359 28.1059C14.5833 28.6503 14.3518 29.7307 14.406 31.147C14.8023 34.3799 17.274 37.8465 19.5245 39.7529C21.0096 41.0732 22.4926 40.5684 23.6669 39.4233C24.1174 37.9633 24.4511 36.7953 24.4511 36.7953C24.4511 36.7953 18.5234 23.9093 15.0339 28.1059H15.0359Z" fill="#FF8B84"/>
<path d="M21.431 45.3657H21.4269L21.333 45.3532L21.2704 45.3344L21.2225 45.2885C14.4917 38.9123 13.0295 30.0957 14.8296 27.9328C15.3468 27.3112 15.9496 26.9963 16.6233 26.9963C20.2025 26.9963 24.5159 36.2863 24.6995 36.6826L24.7412 36.7723L24.7141 36.8683C24.7078 36.8891 24.1134 38.9728 23.4438 41.0273C22.0443 45.3365 21.7022 45.3636 21.4331 45.3636L21.431 45.3657ZM16.7339 27.9098C16.2208 27.9098 15.9454 27.914 15.5283 28.4146C14.1162 30.1124 14.7357 37.8256 21.3789 44.2373C21.8753 43.524 23.1205 40.8646 24.1175 37.3772C23.6628 36.4157 19.7979 27.9098 16.7318 27.9098H16.7339Z" fill="#B94A5B"/>
<path d="M55.5397 8.93541C49.9227 11.0254 42.4889 15.637 37.3538 19.7919C28.1659 27.2235 21.967 36.0151 19.7957 46.2354C16.8026 60.3144 3.94583 60.3457 3.93958 60.3478C3.93958 60.3478 5.06798 79.2908 5.61862 79.6809C6.2673 80.4464 10.5515 79.6433 13.1212 79.4848C14.6667 85.9799 54.868 89.9221 60.558 80.6049C60.558 80.6049 73.0936 83.4916 74.1761 83.5604C79.1027 83.8733 80.4397 84.0068 87.9714 85.5315C98.5881 87.6819 133.788 89.4194 154.445 76.4834C161.032 72.3577 177.789 57.7385 173.795 39.3941C172.942 35.4707 166.897 11.4425 130.793 3.20161C113.307 -0.790573 83.2221 -1.36625 55.5397 8.93541Z" fill="#FFB1A7"/>
<path d="M28.293 72.0949C27.2188 73.7072 23.623 78.0748 16.6356 79.149C20.7571 81.12 31.8514 85.3187 39.1453 81.9043C44.7895 79.2616 53.5247 73.4381 55.6751 64.7926C55.8775 72.4516 58.2949 82.7762 63.8722 78.8132C70.0503 74.4226 70.9952 69.0038 70.9952 66.4508C72.6075 64.7029 73.8172 67.8837 74.9373 69.2728C76.0574 70.662 78.9232 78.9488 109.428 75.5886C129.451 73.5737 133.911 66.9117 136.956 60.281C140.719 62.6109 157.267 69.2708 164.121 52.3405C169.133 39.9593 168.405 29.6743 162.924 19.9984C156.55 13.3823 146.525 6.79332 130.794 3.20161C113.309 -0.790573 83.2241 -1.36625 55.5416 8.93541C49.9246 11.0254 42.4909 15.637 37.3557 19.7919C28.1679 27.2235 21.9689 36.0151 19.7977 46.2354C16.8046 60.3144 3.94782 60.3457 3.94156 60.3478C3.94156 60.3478 4.47343 69.2791 4.98445 75.0025C10.5264 76.9214 19.5849 78.3355 28.2972 72.097L28.293 72.0949Z" fill="#FFCCCB"/>
<path d="M20.7782 51.6689C24.3615 38.9477 26.7435 33.3391 34.3065 25.24C49.4472 9.02721 77.1171 3.10359 77.6845 2.91379C70.3196 4.25494 62.8442 6.21557 55.5377 8.93543C49.9207 11.0254 42.487 15.637 37.3518 19.7919C28.1639 27.2236 21.965 36.0151 19.7937 46.2354C16.8006 60.3144 3.94385 60.3457 3.93759 60.3478C3.93759 60.3478 17.0175 63.4973 20.7803 51.671L20.7782 51.6689Z" fill="#FFF0F0"/>
<path d="M107.198 87.5547C98.4296 87.5547 91.461 86.7768 87.8652 86.0488C80.2938 84.5158 79.0006 84.3969 74.1407 84.0882C73.1166 84.0235 63.107 81.7313 60.7938 81.2015C57.3127 86.1114 45.3528 86.6495 40.2906 86.6495C28.1639 86.6495 14.5834 84.0131 12.7584 80.0397C12.141 80.0876 11.4485 80.1648 10.7226 80.2462C9.45031 80.388 8.13418 80.534 7.13301 80.534C6.13184 80.534 5.58119 80.3964 5.26624 80.0751C4.99091 79.854 4.72811 79.1741 4.04814 69.907C3.69982 65.1743 3.41824 60.4271 3.41407 60.3791L3.38904 59.9599L3.86042 59.8222H3.9376C4.44653 59.8139 16.4439 59.4781 19.2827 46.1249C21.3935 36.1945 27.363 27.1965 37.0243 19.3811C41.7173 15.5849 49.2053 10.7313 55.3583 8.44114C74.1032 1.46421 92.3392 0 104.339 0C114.023 0 123.213 0.928173 130.914 2.68648C146.242 6.18642 158.02 12.8797 165.923 22.5827C171.567 29.5138 173.601 36.0193 174.312 39.2794C176.075 47.3722 174.125 55.5443 168.522 63.5683C164.205 69.7505 158.565 74.5228 154.727 76.9256C139.964 86.1698 118.616 87.5506 107.202 87.5506L107.198 87.5547ZM60.3037 80.0063L60.6729 80.0918C65.6954 81.2494 73.4441 82.9869 74.2054 83.0369C79.1257 83.3498 80.4335 83.4708 88.0717 85.0163C91.6175 85.7338 98.5047 86.5014 107.196 86.5014C118.495 86.5014 139.622 85.1415 154.164 76.0371C157.743 73.7949 163.425 69.0289 167.655 62.9697C173.084 55.1939 174.976 47.3013 173.28 39.5067C172.59 36.3384 170.61 30.0102 165.104 23.2502C157.353 13.7328 145.768 7.16049 130.676 3.71478C123.052 1.97316 113.944 1.05333 104.337 1.05333C92.4247 1.05333 74.3222 2.50712 55.7233 9.42774C50.5735 11.3446 43.1565 15.7727 37.6834 20.1987C28.214 27.8577 22.3675 36.6534 20.3089 46.3418C17.612 59.0317 7.05375 60.6378 4.4945 60.8422C4.9054 67.6523 5.65211 78.1479 6.03589 79.3493C6.10055 79.3806 6.35918 79.4807 7.13092 79.4807C8.07578 79.4807 9.36271 79.3389 10.6058 79.1991C11.5048 79.099 12.3516 79.0051 13.0879 78.9593L13.5301 78.9321L13.6323 79.3618C14.3936 82.5656 27.3505 85.5941 40.2906 85.5941C50.6862 85.5941 58.0948 83.6272 60.1076 80.3296L60.3058 80.0063H60.3037Z" fill="#B94A5B"/>
<path d="M31.7077 45.6661C32.2563 44.0538 30.4416 37.3688 32.6922 31.2429C36.2881 21.4585 45.065 19.5166 46.6231 19.8212C50.2023 20.5178 52.2526 28.6169 53.2976 33.2139C58.3598 55.4859 44.7251 55.5214 44.7251 55.5214L31.7056 45.6661" fill="#FFB1A7"/>
<path d="M46.6251 19.819C45.3236 18.9096 36.2901 21.4564 32.6942 31.2408C30.4436 37.3667 32.2583 44.0516 31.7097 45.6639L44.6958 55.5192C56.9747 47.4869 51.0532 22.9101 46.6272 19.819H46.6251Z" fill="#FFCCCB"/>
<path d="M45.3258 20.401C45.6137 20.2571 46.0579 20.0339 46.448 19.7335C44.6646 19.1057 36.1129 21.7964 32.6943 31.2408C30.6336 36.9308 31.8204 42.6646 31.8538 44.3457L31.9539 45.5555C32.6234 44.523 32.4232 43.3591 32.4232 42.4414C33.2304 33.5727 36.455 24.1658 45.3237 20.4031L45.3258 20.401Z" fill="#FFF0F0"/>
<path d="M44.7273 55.5213C44.7106 55.5213 44.7002 55.5213 44.6939 55.5213C44.6939 55.5213 48.6715 55.0041 51.4226 51.6084C54.4178 47.9124 54.9601 41.7448 53.0349 33.2744C52.259 29.86 50.1983 20.791 46.5711 20.086C45.0047 19.7815 36.4697 21.7421 32.9447 31.3367C31.4617 35.3748 31.7704 39.7049 31.9748 42.5707C32.0833 44.0767 32.1605 45.1675 31.9602 45.7536C31.9602 45.7536 31.2782 43.063 31.1781 41.6739C30.9695 38.7621 30.7004 34.4237 32.2251 30.2792C35.869 20.3655 45.4844 18.5196 47.128 18.8408C50.6864 19.5333 52.8889 27.4927 54.1404 32.997C56.1052 41.6426 55.4982 48.1898 52.3863 52.0193C49.5684 55.488 45.1507 55.5234 44.7252 55.5234L44.7273 55.5213Z" fill="#B94A5B"/>
<path d="M42.4599 49.3391C42.4599 49.3391 41.8028 44.8568 38.7868 38.5056C36.19 33.0325 37.4999 26.3059 45.697 22.2407C46.6377 24.6936 58.2722 40.6498 42.4599 49.3391Z" fill="#FD7F73"/>
<path d="M45.6949 22.2407C45.2215 22.4764 44.773 22.7204 44.3454 22.9728C39.7692 27.1402 37.8858 33.6186 41.2939 39.2168C42.6372 37.3355 45.0567 37.6045 47.2071 37.6045C42.1574 39.7675 43.5591 44.9423 42.5642 49.2807C58.2138 40.5768 46.6335 24.6894 45.6949 22.2428V22.2407Z" fill="#FF8B84"/>
<path d="M42.729 49.1889C42.4975 47.9688 41.5318 43.6595 39.0288 38.3909C37.6439 35.4728 37.4541 32.365 38.4949 29.641C40.6891 24.8938 45.8264 22.1364 45.8264 22.1364C41.901 23.7841 38.7827 26.6896 37.5834 29.8266C36.4884 32.6883 36.8263 35.9463 38.2759 38.9978C41.2356 45.2322 41.9761 49.5623 41.9823 49.6082C41.9823 49.6082 42.4829 49.3475 42.729 49.1889Z" fill="#B94A5B"/>
<path d="M25.9758 47.2346C24.6513 47.3118 23.7107 48.8803 23.7107 48.8803C23.7524 48.7781 24.8036 46.0415 26.4681 45.9456C27.5485 45.8851 28.5476 47.1282 29.5717 49.0325C29.5717 49.0325 27.3128 47.1574 25.9758 47.2346Z" fill="#050505"/>
<path d="M41.0808 46.1144C40.2653 38.8205 45.3963 37.886 45.4443 37.8756C45.4443 37.8756 41.2519 39.4128 42.0111 46.202L41.0808 46.1144Z" fill="#B94A5B"/>
<path d="M3.79793 60.0685C6.3405 59.7848 13.8201 76.9612 7.09555 79.8438C5.16412 80.6718 1.0155 79.9502 1.0155 76.809C1.0155 75.3614 2.41506 73.3028 2.23568 70.7957C1.94784 66.7764 1.20739 60.3584 3.79793 60.0685Z" fill="#E86B73"/>
<path d="M7.29537 76.5961C8.87013 72.0303 8.90767 67.3916 6.04807 62.173C5.1929 60.8276 4.36902 60.0037 3.79543 60.0663C1.20489 60.3562 1.94534 66.7742 2.23318 70.7935C2.41256 73.3027 1.013 75.3592 1.013 76.8068C1.013 77.2302 1.09017 77.6056 1.22366 77.9435C2.58985 80.5591 6.6154 78.6318 7.29328 76.5961H7.29537Z" fill="#FF999A"/>
<path d="M5.33286 80.6864C4.15857 80.6864 2.99679 80.3673 2.14371 79.8083C1.06119 79.1012 0.489685 78.0646 0.489685 76.8089C0.489685 76.1311 0.733723 75.4094 1.01322 74.573C1.38657 73.4654 1.8079 72.2119 1.70987 70.8311C1.68484 70.4869 1.65772 70.1261 1.62852 69.7528C1.28854 65.3476 0.865126 59.8661 3.73933 59.5449C3.77896 59.5408 3.82068 59.5387 3.8603 59.5387C5.90228 59.5387 8.91415 65.6834 9.9487 70.7122C10.9812 75.7368 10.0405 79.1513 7.30184 80.3256C6.75328 80.5612 6.07332 80.6843 5.33286 80.6843V80.6864ZM3.8603 60.5899C1.99145 60.7985 2.42112 66.3529 2.67767 69.6714C2.70687 70.0468 2.73398 70.4098 2.75901 70.756C2.87165 72.3454 2.394 73.7658 2.01022 74.9088C1.75784 75.6576 1.54092 76.3042 1.54092 76.8089C1.54092 77.7037 1.93722 78.4171 2.7173 78.9281C3.40352 79.3765 4.35672 79.6352 5.33286 79.6352C5.92314 79.6352 6.47587 79.5371 6.88677 79.3619C9.89655 78.0708 9.45019 73.5238 8.91623 70.927C7.79825 65.4832 4.80099 60.592 3.85822 60.592L3.8603 60.5899Z" fill="#803E3E"/>
<path d="M13.2048 79.9124L13.0859 78.9592C24.7454 78.3481 28.5374 71.7091 28.5374 71.7091C28.504 71.7821 25.1897 79.2825 13.2048 79.9124Z" fill="#B94A5B"/>
<path d="M176.442 39.4067C176.442 39.4067 177.105 36.3677 174.402 31.5245L175.799 31.3931C177.481 35.7565 176.473 39.2669 176.442 39.4067Z" fill="#B94A5B"/>
<path d="M174.302 43.3194C174.302 43.3194 176.997 63.4931 165.104 72.8332C163.37 74.1952 163.873 74.8981 164.791 76.0578C167.356 79.3054 170.009 83.4832 166.672 87.3002C165.423 88.7289 162.811 94.2708 162.417 100.313C162.238 103.046 162.081 103.517 159.977 102.374C158.89 102.182 160.696 107.628 157.357 108.369C157.199 108.404 157.013 108.506 156.823 108.494C154.988 108.404 149.293 105.668 149.114 105.129C148.935 104.591 154.222 102.27 155.632 91.7137C156.039 88.6726 154.495 87.9029 149.11 84.0755C142.932 79.685 132.81 69.8318 136.752 60.3352" fill="#FFB1A7"/>
<path d="M156.855 109.022C156.834 109.022 156.813 109.022 156.79 109.022C155.128 108.94 148.935 106.264 148.614 105.298C148.468 104.86 148.785 104.566 149.31 104.082C150.601 102.894 154.028 99.7336 155.109 91.647C155.428 89.263 154.596 88.5934 150.13 85.446C149.717 85.154 149.275 84.8432 148.806 84.5095C146.882 83.1433 142.05 79.4264 138.7 74.4185C136.587 71.2627 135.467 68.2258 135.344 65.3391C135.267 63.5453 136.02 61.3845 136.956 60.2873C133.536 68.5282 141.66 78.1416 149.417 83.6522C149.886 83.986 150.326 84.2967 150.739 84.5867C155.098 87.659 156.567 88.6956 156.156 91.7868C155.027 100.251 151.396 103.596 150.028 104.856C149.955 104.925 149.878 104.996 149.807 105.061C150.958 105.843 155.359 107.899 156.85 107.972C156.884 107.972 156.967 107.945 157.021 107.927C157.099 107.899 157.174 107.876 157.245 107.86C158.834 107.507 158.992 105.86 159.026 103.903C159.043 102.962 159.053 102.341 159.445 102.018C159.616 101.876 159.837 101.821 160.067 101.861L160.15 101.876L160.225 101.917C161.26 102.478 161.497 102.451 161.545 102.428C161.758 102.291 161.848 100.935 161.89 100.284C162.301 94.0144 164.991 88.4266 166.274 86.9603C169.252 83.5521 167.121 79.8665 164.376 76.3895C163.844 75.7158 163.341 75.0797 163.435 74.285C163.508 73.6697 163.921 73.0961 164.776 72.4245C176.292 63.3826 173.804 43.5928 173.779 43.3946L174.821 43.2549C174.849 43.4634 175.495 48.438 174.682 54.6474C173.599 62.9133 170.4 69.3459 165.427 73.2525C164.835 73.7177 164.516 74.1077 164.48 74.4101C164.441 74.7459 164.741 75.1548 165.202 75.7388C168.084 79.3868 170.558 83.6564 167.067 87.6548C166.019 88.8542 163.341 94.2125 162.941 100.355C162.832 102.018 162.736 102.977 162.054 103.352C161.552 103.63 160.945 103.465 160.11 103.048C160.088 103.294 160.079 103.644 160.075 103.926C160.046 105.574 159.996 108.331 157.47 108.89C157.434 108.898 157.397 108.911 157.359 108.926C157.23 108.969 157.057 109.028 156.855 109.028V109.022Z" fill="#B94A5B"/>
<path d="M150.718 105.928C150.67 105.787 150.595 105.655 150.487 105.534C150.487 105.534 149.204 103.828 148.194 104.838C147.558 105.474 145.474 107.964 148.953 108.861C149.033 108.882 149.139 108.855 149.26 108.794C149.179 108.692 149.352 106.754 150.718 105.926V105.928Z" fill="#AB474F"/>
<path d="M149.012 109.395C148.947 109.395 148.884 109.387 148.824 109.372C147.533 109.038 146.763 108.448 146.536 107.614C146.167 106.258 147.428 104.863 147.823 104.466C148.131 104.158 148.509 103.993 148.909 103.993C149.915 103.993 150.745 105.011 150.891 105.201C151.033 105.363 151.143 105.551 151.214 105.757L151.352 106.158L150.989 106.377C150.046 106.948 149.802 108.212 149.771 108.596L150.073 108.976L149.495 109.266C149.322 109.353 149.164 109.395 149.012 109.395ZM148.911 105.044C148.834 105.044 148.715 105.061 148.567 105.209C148.102 105.674 147.364 106.646 147.552 107.334C147.677 107.791 148.221 108.077 148.755 108.254C148.759 108.221 148.765 108.185 148.772 108.15C148.859 107.662 149.147 106.552 150.019 105.789C149.79 105.511 149.293 105.044 148.911 105.044Z" fill="#7F323D"/>
<path d="M157.349 108.606C156.152 106.335 151.87 105.77 151.223 105.845C149.154 105.97 148.756 108.586 149.085 108.867C152.151 111.479 157.349 108.604 157.349 108.604V108.606Z" fill="#AB474F"/>
<path d="M152.36 110.492C150.912 110.492 149.696 110.081 148.745 109.27C148.2 108.805 148.593 107.572 148.638 107.434C149.056 106.187 150.005 105.399 151.179 105.323C151.229 105.319 151.289 105.315 151.365 105.315C152.161 105.315 156.489 105.845 157.816 108.365L158.056 108.821L157.605 109.07C157.501 109.128 154.998 110.494 152.362 110.494L152.36 110.492ZM149.51 108.538C150.255 109.136 151.212 109.439 152.36 109.439C154.064 109.439 155.753 108.778 156.577 108.4C155.298 106.886 152.178 106.364 151.365 106.364C151.331 106.364 151.304 106.364 151.283 106.366H151.254C150.716 106.402 150.28 106.652 149.957 107.115C149.567 107.672 149.489 108.312 149.51 108.536V108.538Z" fill="#7F323D"/>
<path d="M125.019 106.921C125.019 106.921 128.233 109.468 133.385 106.708C133.316 106.508 130.644 102.864 127.568 103.782C126.813 104.214 125.296 104.8 125.019 106.919V106.921Z" fill="#AB474F"/>
<path d="M128.728 108.519C126.218 108.519 124.754 107.382 124.692 107.334L124.458 107.149L124.496 106.852C124.779 104.685 126.208 103.918 127.061 103.459C127.149 103.411 127.232 103.367 127.305 103.325L127.357 103.296L127.416 103.279C127.793 103.167 128.185 103.111 128.577 103.111C131.441 103.111 133.74 106.127 133.882 106.54L134.025 106.963L133.631 107.174C131.965 108.066 130.313 108.519 128.728 108.519ZM125.595 106.671C126.058 106.944 127.151 107.468 128.728 107.468C129.973 107.468 131.272 107.149 132.599 106.517C131.936 105.718 130.352 104.162 128.577 104.162C128.306 104.162 128.035 104.199 127.77 104.272C127.703 104.31 127.633 104.347 127.557 104.387C126.846 104.769 125.891 105.282 125.593 106.671H125.595Z" fill="#7F323D"/>
<path d="M127.568 103.784C127.668 103.755 127.766 103.73 127.866 103.709C127.428 103.067 126.354 102.197 125.822 102.291C124.264 103.135 122.956 104.875 122.979 105.816C122.979 106.279 124.322 107.155 125.09 106.929C125.415 104.917 126.827 104.208 127.566 103.784H127.568Z" fill="#AB474F"/>
<path d="M124.817 107.491C124.103 107.491 123.288 107.048 122.852 106.61C122.587 106.346 122.453 106.076 122.453 105.814C122.424 104.635 123.909 102.729 125.572 101.828L125.647 101.786L125.73 101.771C125.787 101.761 125.845 101.757 125.905 101.757C126.721 101.757 127.839 102.735 128.3 103.413L128.744 104.064L127.972 104.224C127.906 104.239 127.839 104.253 127.772 104.272L127.718 104.304C126.986 104.719 125.878 105.344 125.609 107.013L125.557 107.34L125.238 107.434C125.109 107.472 124.967 107.493 124.817 107.493V107.491ZM123.505 105.764C123.617 105.951 124.174 106.348 124.656 106.427C125.077 104.727 126.231 103.949 126.994 103.507C126.615 103.148 126.174 102.864 125.96 102.818C124.558 103.628 123.53 105.117 123.505 105.766V105.764Z" fill="#7F323D"/>
<path d="M79.3341 103.407C78.4977 102.973 77.0668 102.322 76.8687 102.816C76.2221 104.427 74.9248 106.339 75.0395 106.642C75.1521 106.944 75.7486 107.812 77.4882 107.359C77.4923 107.359 77.4944 107.357 77.4986 107.355C76.6872 106.585 78.577 103.93 79.3362 103.407H79.3341Z" fill="#AB474F"/>
<path d="M76.5769 108.012C75.4067 108.012 74.7518 107.374 74.5474 106.825C74.4098 106.458 74.5954 106.091 75.2607 104.871C75.6278 104.197 76.0846 103.361 76.3808 102.62C76.4413 102.468 76.6478 102.113 77.2297 102.113C77.7282 102.113 78.5166 102.391 79.5762 102.939L80.3542 103.342L79.6346 103.84C79.109 104.203 77.8972 105.876 77.8304 106.752C77.82 106.875 77.8388 106.952 77.8617 106.975L78.5146 107.595L77.6218 107.868C77.2527 107.964 76.9002 108.014 76.579 108.014L76.5769 108.012ZM75.582 106.548C75.68 106.694 75.9491 106.961 76.5769 106.961C76.6415 106.961 76.7104 106.959 76.7792 106.952C76.7729 106.865 76.7709 106.771 76.7792 106.671C76.8543 105.699 77.7115 104.354 78.4249 103.551C77.772 103.256 77.4383 103.185 77.2923 103.171C76.9753 103.926 76.5393 104.727 76.1827 105.378C75.9511 105.801 75.6717 106.316 75.582 106.55V106.548Z" fill="#7F323D"/>
<path d="M79.5055 103.319C79.5055 103.319 83.1744 102.097 84.8952 104.216C85.5209 105.052 81.6601 108.694 77.7034 107.486C76.3122 106.921 78.8944 103.453 79.5055 103.319Z" fill="#AB474F"/>
<path d="M79.3471 108.254C78.7339 108.254 78.129 108.164 77.5512 107.989L77.5074 107.972C76.9922 107.764 76.7273 107.282 76.7795 106.654C76.89 105.369 78.5461 103.067 79.3471 102.818C79.4534 102.783 80.5297 102.443 81.802 102.443C83.3267 102.443 84.5386 102.942 85.3041 103.884C85.4501 104.078 85.6253 104.468 85.3124 105.092C84.6658 106.385 82.1691 108.256 79.3471 108.256V108.254ZM77.8849 106.99C78.3563 107.13 78.8465 107.203 79.3471 107.203C82.1316 107.203 84.3258 105.1 84.4322 104.479C83.8753 103.83 82.9868 103.492 81.802 103.492C80.6173 103.492 79.6829 103.813 79.6725 103.815L79.6516 103.822C79.2365 104.051 77.7911 105.962 77.8245 106.838C77.8286 106.946 77.8516 106.973 77.8849 106.988V106.99Z" fill="#7F323D"/>
<path d="M77.1879 70.4785C78.3747 78.2272 74.0112 88.8355 72.1486 92.6962C70.9389 95.2054 70.3131 98.4738 70.4028 99.7295C70.4925 100.983 70.9848 102.821 70.0441 104.21C69.1034 105.599 67.0885 102.105 66.7173 103.123C66.3502 104.135 66.492 106.25 64.6002 108.096C62.7459 109.908 57.5795 105.288 57.5795 105.288C62.4852 98.9494 62.6834 94.9927 60.6351 89.5175C52.9011 68.8516 55.7982 63.8499 56.134 63.5141" fill="#FFB1A7"/>
<path d="M78.2894 67.9255L74.9709 69.3209C75.3568 69.8319 75.9679 71.0855 77.7617 72.3995C77.7491 71.6194 78.402 68.6597 78.2894 67.9276V67.9255Z" fill="#FFCCCB"/>
<path d="M63.8703 78.8154C68.9533 75.2028 70.4927 70.8957 70.8785 68.0591L56.1341 63.5121C56.0299 63.6163 55.6774 64.1732 55.473 65.5144C55.5439 65.2766 55.6106 65.0368 55.6711 64.7948C55.8734 72.4538 58.2908 82.7784 63.8682 78.8154H63.8703Z" fill="#FFCCCB"/>
<path d="M63.4781 109.034C61.069 109.034 57.69 106.089 57.2312 105.68L56.8661 105.353L57.1665 104.965C62.1181 98.5677 62.0556 94.8049 60.145 89.699C51.8144 67.4416 56.2196 64.6154 56.5074 63.8833C56.4844 63.9125 53.3579 68.5617 61.1295 89.3298C63.0922 94.5734 63.2194 98.6908 58.3012 105.211C60.0052 106.638 63.1819 108.744 64.2352 107.716C65.5242 106.456 65.7766 105.088 65.9789 103.989C66.0519 103.586 66.1166 103.238 66.225 102.939C66.3564 102.579 66.613 102.464 66.7569 102.426C67.2533 102.299 67.7018 102.693 68.2712 103.192C68.6091 103.49 69.2369 104.045 69.5018 104.009C69.5393 104.005 69.5811 103.953 69.6103 103.909C70.2568 102.954 70.1025 101.69 69.9669 100.576C69.9315 100.288 69.8981 100.017 69.8793 99.7608C69.775 98.2903 70.4863 94.9301 71.6773 92.4626C73.2416 89.2171 78.2558 78.0207 77.0586 70.2011C78.1494 72.3953 78.3142 74.5124 77.945 76.886C76.9063 83.5897 73.8048 90.4728 72.6242 92.9215C71.4666 95.3243 70.845 98.5343 70.9285 99.6878C70.9452 99.9172 70.9764 100.176 71.0098 100.449C71.16 101.682 71.3498 103.217 70.48 104.5C70.2068 104.902 69.8689 105.021 69.6353 105.052C68.9011 105.146 68.1982 104.527 67.5766 103.982C67.4452 103.866 67.2721 103.715 67.1282 103.603C67.0885 103.772 67.0531 103.966 67.0135 104.178C66.8091 105.292 66.5004 106.973 64.9715 108.469C64.5627 108.869 64.0475 109.032 63.4801 109.032L63.4781 109.034Z" fill="#B94A5B"/>
<path d="M59.776 104.827C59.776 104.827 64.7193 106.208 65.1677 107.718C65.3513 108.362 63.0527 110.774 56.7245 109.53C55.934 109.19 57.7799 105.962 59.776 104.827Z" fill="#AB474F"/>
<path d="M60.0451 110.409C58.9917 110.409 57.8404 110.288 56.6223 110.048L56.5159 110.014C56.2156 109.885 56.032 109.601 56.0112 109.234C55.9465 108.07 57.6986 105.403 59.5132 104.37L59.703 104.262L59.9137 104.32C60.7855 104.564 65.1636 105.866 65.6683 107.568C65.7309 107.785 65.7309 108.129 65.393 108.577C64.7255 109.462 62.9693 110.407 60.043 110.407L60.0451 110.409ZM57.0645 109.061C58.1282 109.257 59.1294 109.357 60.0471 109.357C63.2008 109.357 64.5003 108.2 64.6442 107.812C64.3084 107.013 61.6907 105.937 59.8532 105.396C58.3869 106.337 57.1521 108.383 57.0666 109.061H57.0645Z" fill="#7F323D"/>
<path d="M59.7652 104.833C58.8224 104.468 57.5751 104.479 57.3853 104.742C57.0391 105.217 54.7134 107.66 54.8636 108.337C54.9908 108.903 55.8877 109.512 56.722 109.531C56.5906 109.493 56.7345 109.533 56.722 109.531C55.9315 109.193 57.7712 105.972 59.7652 104.833Z" fill="#AB474F"/>
<path d="M60.7728 110.144L56.668 110.056C55.6293 110.012 54.5321 109.259 54.3528 108.454C54.2047 107.791 54.9243 106.811 56.4907 104.994C56.6993 104.752 56.8953 104.525 56.9621 104.433C57.1602 104.158 57.569 104.024 58.2094 104.024C58.7997 104.024 59.4379 104.139 59.9593 104.341L60.9897 104.739L60.0303 105.288C58.4743 106.179 57.131 108.4 57.0643 109.08L60.7749 110.142L60.7728 110.144ZM55.3873 108.254C55.4499 108.429 55.7127 108.667 56.0464 108.828C56.2487 107.793 57.275 106.181 58.5202 105.09C58.4138 105.082 58.3095 105.077 58.2052 105.077C57.9674 105.077 57.8235 105.102 57.7568 105.121C57.6546 105.25 57.494 105.438 57.2833 105.68C56.8328 106.204 55.4728 107.776 55.3852 108.254H55.3873Z" fill="#7F323D"/>
<path d="M31.8244 56.7666C32.8611 59.3092 32.1394 61.7079 30.3477 62.5526C28.1952 63.5663 25.8487 62.6548 24.8141 60.1143C23.7775 57.5718 24.7828 54.1469 26.5954 53.3501C28.0533 52.7098 30.7899 54.2262 31.8244 56.7687V56.7666Z" fill="#050505"/>
<path d="M31.6178 57.3569C32.596 59.7555 31.914 62.0207 30.2224 62.8175C28.1909 63.7728 25.9779 62.9134 24.9996 60.5148C24.0214 58.1161 24.9704 54.8832 26.6808 54.1302C28.0574 53.5253 30.6396 54.9583 31.6178 57.3569Z" fill="#E0E0E0"/>
<path d="M29.2422 54.5849C28.3203 54.0301 27.3567 53.834 26.683 54.1302C24.9727 54.8811 24.0236 58.1141 25.0018 60.5148C25.4419 61.5952 26.1344 62.3586 26.9458 62.7904C30.21 64.0335 31.62 55.9699 29.2443 54.5849H29.2422Z" fill="white"/>
<path d="M28.5744 63.4683C26.91 63.4683 25.4812 62.4024 24.7533 60.6149C23.7375 58.1224 24.6573 54.7267 26.5763 53.8841C26.8203 53.7777 27.0956 53.7235 27.3981 53.7235C28.856 53.7235 30.9793 55.073 31.87 57.2547C32.8774 59.7264 32.235 62.1688 30.3411 63.0595C29.7654 63.3306 29.171 63.4683 28.5765 63.4683H28.5744ZM27.396 54.2616C27.1686 54.2616 26.9642 54.3013 26.789 54.3764C25.3081 55.0271 24.2944 58.0703 25.2476 60.4126C25.89 61.9894 27.1332 62.9301 28.5723 62.9301C29.0875 62.9301 29.6048 62.8112 30.1075 62.5735C31.7344 61.808 32.2642 59.6575 31.3673 57.457C30.5622 55.4818 28.6787 54.2595 27.3939 54.2595L27.396 54.2616Z" fill="#050505"/>
<path d="M27.3461 60.4814C27.8049 61.6348 28.8812 62.2877 29.751 61.9415C30.6187 61.5952 30.9503 60.3792 30.4914 59.2279C30.0325 58.0744 28.9563 57.4216 28.0865 57.7678C27.2188 58.1141 26.8872 59.3301 27.3461 60.4814Z" fill="#050505"/>
<path d="M27.4691 58.673C27.4691 59.0004 27.7382 59.2653 28.0678 59.2653C28.3973 59.2653 28.6664 59.0004 28.6664 58.673C28.6664 58.3455 28.3994 58.0806 28.0678 58.0806C27.7361 58.0806 27.4691 58.3455 27.4691 58.673Z" fill="white"/>
<path d="M30.1159 60.8171C30.306 60.8171 30.4601 60.663 30.4601 60.4729C30.4601 60.2829 30.306 60.1288 30.1159 60.1288C29.9259 60.1288 29.7718 60.2829 29.7718 60.4729C29.7718 60.663 29.9259 60.8171 30.1159 60.8171Z" fill="white"/>
<path d="M3.42031 66.6219C3.42031 66.6219 2.9531 72.6331 5.34132 73.6593C6.28826 71.4901 5.99208 68.3364 3.42031 66.6219Z" fill="#E86B73"/>
<path d="M5.34129 73.6593C6.82637 69.7026 3.55169 66.7179 3.42029 66.6219C3.42029 66.6219 4.167 66.868 5.00548 67.5897C6.10677 68.5388 6.83471 69.7652 6.30909 72.1826C6.04211 73.4049 5.34337 73.6593 5.34337 73.6593H5.34129Z" fill="#803E3E"/>
<path d="M164.119 52.3406C164.795 50.6699 165.364 49.0388 165.833 47.4411C165.844 47.3493 165.856 47.2575 165.865 47.1657C165.865 47.1657 138.962 58.26 136.954 60.279C140.716 62.6088 157.265 69.2688 164.119 52.3385V52.3406Z" fill="#FFCCCB"/>
</svg>
