<svg width="138" height="182" viewBox="0 0 138 182" fill="none" xmlns="http://www.w3.org/2000/svg">
<path d="M111.738 157.253C115.334 152.886 128.574 152.764 131.221 145.671C131.319 145.81 131.409 145.958 131.493 146.115C131.662 148.408 129.584 162.586 121.467 169.936C114.49 176.255 102.242 175.617 100.894 173.707C103.184 167.847 111.736 157.253 111.736 157.253H111.738Z" fill="#999393"/>
<path d="M106.638 175.156C105.798 175.156 105.044 175.113 104.401 175.042C102.52 174.834 101.202 174.376 100.784 173.784L100.743 173.724L100.769 173.656C103.039 167.845 111.547 157.272 111.631 157.167C113.152 155.32 116.345 154.227 119.727 153.07C124.34 151.493 129.568 149.704 131.094 145.62L131.184 145.38L131.33 145.59C131.43 145.733 131.523 145.887 131.611 146.05L131.626 146.104C131.799 148.461 129.628 162.726 121.557 170.035C117.089 174.08 110.828 175.156 106.638 175.156ZM101.048 173.686C101.466 174.181 102.717 174.586 104.431 174.775C108.237 175.195 116.086 174.627 121.377 169.837C129.344 162.621 131.514 148.572 131.362 146.155C131.326 146.089 131.289 146.025 131.251 145.964C129.571 149.993 124.394 151.763 119.817 153.329C116.472 154.472 113.313 155.552 111.843 157.339C111.728 157.482 103.343 167.909 101.05 173.686H101.048Z" fill="#494646"/>
<path d="M119.225 176.739C128.722 173.967 131.804 166.861 132.029 164.841C132.029 164.841 131.041 165.74 129.29 165.965C132.613 163.945 133.511 157.703 133.241 156.042C133.196 155.907 132.478 157.433 131.221 158.061C132.568 156.085 133.286 148.633 131.221 145.671C131.191 145.752 131.158 145.832 131.124 145.911C130.543 150.9 126.498 161.326 120.02 164.476C122.512 164.682 125.004 163.874 125.004 163.874C124.128 166.028 119.144 168.858 117.395 169.193C118.741 169.731 120.695 169.531 120.695 169.531C118.462 172.092 107.838 175.312 101.879 171.584C101.487 172.336 101.151 173.05 100.896 173.707C103.814 177.837 112.456 178.713 119.227 176.737L119.225 176.739Z" fill="#EFEEEE"/>
<path d="M133.243 156.042C133.198 155.907 132.479 157.433 131.223 158.061C132.56 156.102 133.276 148.754 131.27 145.744C132.048 150.914 130.953 156.948 127.878 161.048C128.956 160.778 130.818 160.038 131.784 159.162C130.505 163.098 129.449 164.999 125.364 167.737C126.755 167.939 127.631 167.849 128.709 167.579C127.092 171.35 113.759 179.904 101.247 172.884C101.119 173.167 100.999 173.442 100.896 173.707C103.814 177.837 112.456 178.713 119.227 176.737C128.724 173.965 131.806 166.859 132.031 164.84C132.031 164.84 131.043 165.738 129.292 165.963C132.614 163.943 133.513 157.701 133.243 156.04V156.042Z" fill="#CECECE"/>
<path d="M111.982 177.877C107.288 177.877 102.786 176.622 100.784 173.785L100.743 173.725L100.769 173.658C101.014 173.028 101.348 172.31 101.757 171.522L101.824 171.393L101.948 171.47C107.706 175.072 117.77 172.085 120.348 169.69C119.714 169.722 118.37 169.73 117.342 169.319L116.917 169.148L117.367 169.062C119.124 168.725 123.639 166.109 124.751 164.088C124.014 164.292 122 164.776 120.009 164.609L119.519 164.568L119.96 164.354C126.528 161.159 130.443 150.584 130.989 145.894L130.998 145.859C131.034 145.774 131.064 145.699 131.094 145.622L131.184 145.38L131.33 145.592C133.299 148.416 132.746 155.209 131.587 157.679C132.225 157.216 132.682 156.554 132.924 156.205C133.098 155.952 133.145 155.884 133.252 155.899L133.335 155.911L133.368 155.999C133.648 157.707 132.826 163.385 129.871 165.721C131.188 165.41 131.928 164.748 131.938 164.74L132.202 164.5L132.163 164.855C131.975 166.546 129.089 173.999 119.262 176.866C117.01 177.522 114.47 177.875 111.982 177.875V177.877ZM101.046 173.69C104.082 177.879 112.805 178.473 119.187 176.609C128.326 173.943 131.37 167.29 131.838 165.158C131.422 165.447 130.558 165.936 129.309 166.098L128.681 166.178L129.223 165.848C132.27 163.996 133.276 158.382 133.143 156.366C132.836 156.811 132.202 157.724 131.283 158.183L130.82 158.416L131.113 157.988C132.373 156.139 133.132 149.05 131.257 145.969C130.7 150.621 126.901 160.896 120.524 164.373C122.795 164.444 124.944 163.758 124.966 163.75L125.242 163.66L125.133 163.928C124.306 165.965 119.988 168.562 117.875 169.214C119.129 169.555 120.667 169.402 120.684 169.4L121.023 169.364L120.798 169.621C119.592 171.003 116.268 172.413 112.709 173.05C110.2 173.5 105.49 173.924 101.933 171.777C101.573 172.477 101.275 173.12 101.05 173.69H101.046Z" fill="#6D6968"/>
<path d="M70.6129 55.0732C73.8455 56.4195 82.7126 62.9297 83.7232 73.5705C93.2409 79.7657 117.215 100.059 119.012 122.731C120.808 145.402 110.788 164.478 110.788 164.478L48.6805 157.179C43.0497 150.341 43.3197 142.259 39.054 134.448C36.5039 114.244 42.731 88.614 46.4623 61.8965L70.6166 55.0732H70.6129Z" fill="#B1ABAB"/>
<path d="M119.009 122.731C117.213 100.059 93.2387 79.7657 83.721 73.5705C82.7104 62.9297 73.8433 56.4214 70.6107 55.0732L62.9849 60.9984C68.8782 62.5471 82.2847 65.5791 83.5766 79.672C83.6554 78.6669 83.8354 78.4101 83.9573 77.0038C90.3212 81.7851 100.199 89.0228 107.155 101.126C112.66 110.704 112.372 121.499 111.286 130.441C109.647 143.935 104.888 149.247 102.106 150.494C99.2014 151.794 110.784 164.477 110.784 164.477C110.784 164.477 120.804 145.402 119.007 122.729L119.009 122.731Z" fill="#999393"/>
<path d="M110.863 164.623L110.771 164.611L48.6092 157.306L48.5754 157.265C45.3147 153.305 44.0435 149.005 42.6991 144.453C41.7334 141.188 40.7359 137.811 38.934 134.511L38.919 134.464C37.012 119.365 40.014 101.175 43.1922 81.9182C44.2685 75.3949 45.3822 68.6523 46.3273 61.8777L46.3385 61.7915L46.4229 61.7671L70.6222 54.9307L70.6654 54.9494C73.1723 55.9938 82.7444 62.1983 83.8507 73.4936C89.1214 76.9343 97.2591 83.5589 104.366 91.886C113.39 102.463 118.363 112.838 119.145 122.721C120.924 145.171 111.005 164.351 110.906 164.542L110.863 164.625V164.623ZM48.748 157.051L110.709 164.332C111.414 162.941 120.588 144.363 118.877 122.74C117.086 100.14 92.8396 79.6644 83.6501 73.6811L83.5957 73.6455L83.59 73.5799C82.5325 62.4421 73.1517 56.2994 70.6054 55.2119L46.5823 61.9996C45.6391 68.746 44.531 75.4624 43.4585 81.9594C40.2859 101.186 37.2877 119.348 39.1833 134.403C40.9909 137.72 41.9903 141.102 42.9578 144.374C44.291 148.884 45.5491 153.142 48.7498 157.049L48.748 157.051Z" fill="#494646"/>
<path d="M53.3868 155.56C48.9879 155.56 39.8733 152.035 33.9013 154.819C27.9312 157.603 24.2936 166.268 24.5636 168.557C24.8336 170.847 28.6943 171.342 28.6943 171.342C28.6943 171.342 28.9418 173.609 40.8615 172.868C52.7811 172.128 77.1586 170.511 78.8424 170.511C73.8585 166.268 53.3868 155.561 53.3868 155.561V155.56Z" fill="#B1ABAB"/>
<path d="M62.644 166.602C55.1007 168.218 38.8403 169.633 34.7995 167.209C32.1651 165.628 33.5883 163.168 34.6645 162.63C31.5163 163.892 29.7144 166.472 27.4587 165.593C26.4462 165.199 25.8087 164.515 26.6131 162.368C25.1749 164.991 24.4362 167.479 24.5637 168.555C24.8337 170.845 28.6944 171.34 28.6944 171.34C28.6944 171.34 28.9419 173.607 40.8616 172.866C52.7812 172.125 77.1587 170.509 78.8425 170.509C76.358 168.394 65.6647 165.93 62.644 166.602Z" fill="#999393"/>
<path d="M36.4514 173.151C29.7743 173.151 28.7449 171.876 28.5874 171.46C27.9837 171.368 24.6873 170.768 24.4304 168.572C24.1754 166.399 27.7174 157.553 33.845 154.697C37.972 152.773 43.5803 153.833 48.086 154.684C50.1917 155.081 52.0105 155.425 53.3868 155.425H53.4205L53.4505 155.44C53.6549 155.547 73.9935 166.202 78.9305 170.406L79.2099 170.644H78.8443C77.708 170.644 66.2083 171.383 55.0893 172.096C49.8411 172.433 44.7091 172.761 40.8708 173.001C39.1758 173.106 37.7133 173.151 36.4532 173.151H36.4514ZM39.5527 153.885C37.552 153.885 35.6282 154.165 33.9594 154.941C27.9349 157.75 24.4473 166.414 24.6986 168.541C24.9517 170.699 28.6756 171.201 28.7131 171.207L28.8181 171.22L28.8293 171.325C28.8331 171.342 29.3562 173.446 40.854 172.731C44.6922 172.493 49.8223 172.163 55.0706 171.826C65.4564 171.158 76.1705 170.472 78.4805 170.382C73.2248 166.131 54.223 156.146 53.353 155.691C51.9561 155.685 50.1392 155.342 48.0354 154.945C45.4085 154.448 42.4028 153.881 39.5508 153.881L39.5527 153.885Z" fill="#494646"/>
<path d="M28.5687 171.385C28.2856 170.594 28.4262 169.639 28.985 168.552C30.8957 164.834 36.9408 160.75 38.3565 160.345C39.1834 160.108 40.1959 160.08 41.3509 160.255C43.1435 160.549 43.916 161.185 43.916 161.185C41.6865 160.416 39.789 160.215 38.4296 160.604C36.9764 161.018 31.0269 165.167 29.2231 168.674C28.7 169.692 28.565 170.573 28.8219 171.293L28.5687 171.383V171.385Z" fill="#494646"/>
<path d="M58.5357 163.47C54.1368 163.47 45.0222 159.945 39.0521 162.73C33.0819 165.514 29.4443 174.179 29.7143 176.468C29.9844 178.758 33.8451 179.253 33.8451 179.253C33.8451 179.253 34.0926 181.519 46.0122 180.779C57.9319 180.038 82.3094 178.422 83.9932 178.422C79.0093 174.179 58.5375 163.472 58.5375 163.472L58.5357 163.47Z" fill="#B1ABAB"/>
<path d="M67.7947 174.515C60.2514 176.131 43.991 177.547 39.9503 175.122C37.3159 173.541 38.739 171.081 39.8153 170.543C36.6671 171.805 34.8652 174.385 32.6095 173.506C31.597 173.112 30.9595 172.428 31.7639 170.281C30.3257 172.904 29.5869 175.392 29.7144 176.468C29.9844 178.758 33.8452 179.253 33.8452 179.253C33.8452 179.253 34.0927 181.52 46.0123 180.779C57.932 180.038 82.3095 178.422 83.9932 178.422C81.5088 176.307 70.8154 173.843 67.7947 174.515Z" fill="#999393"/>
<path d="M41.6022 181.064C34.9251 181.064 33.8957 179.789 33.7382 179.373C33.1345 179.281 29.8381 178.681 29.5813 176.486C29.3263 174.312 32.8682 165.466 38.9959 162.61C43.1228 160.686 48.7311 161.746 53.2368 162.597C55.3425 162.995 57.1613 163.338 58.5376 163.338H58.5713L58.6014 163.353C58.8057 163.46 79.1443 174.115 84.0813 178.319L84.3607 178.557H83.9951C82.8588 178.557 71.3592 179.296 60.2401 180.009C54.9919 180.346 49.8599 180.674 46.0217 180.914C44.3266 181.019 42.8641 181.064 41.6041 181.064H41.6022ZM44.7016 161.796C42.701 161.796 40.7772 162.076 39.1084 162.852C33.0838 165.661 29.5963 174.326 29.8475 176.452C30.1007 178.61 33.8245 179.112 33.862 179.118L33.967 179.131L33.9782 179.236C33.982 179.253 34.5051 181.357 46.0029 180.643C49.8411 180.404 54.9713 180.074 60.2195 179.737C70.6054 179.069 81.3194 178.383 83.6295 178.293C78.3737 174.042 59.372 164.058 58.502 163.602C57.1051 163.596 55.2881 163.253 53.1843 162.856C50.5574 162.359 47.5517 161.793 44.6998 161.793L44.7016 161.796Z" fill="#494646"/>
<path d="M33.7175 179.298C33.4344 178.506 33.575 177.552 34.1338 176.464C36.0445 172.746 42.0896 168.662 43.5053 168.257C44.3322 168.021 45.3447 167.993 46.4997 168.167C48.2923 168.462 49.0648 169.097 49.0648 169.097C46.8354 168.329 44.9378 168.128 43.5784 168.516C42.1252 168.931 36.1757 173.08 34.3719 176.586C33.8488 177.604 33.7138 178.486 33.9707 179.206L33.7175 179.296V179.298Z" fill="#494646"/>
<path d="M83.5879 79.8216C83.5897 79.7898 83.8522 76.5647 83.5879 73.5815L83.856 73.5571C83.9348 74.4422 83.9666 75.3478 83.9741 76.1878C83.991 78.1978 83.5879 79.8216 83.5879 79.8216Z" fill="#494646"/>
<path d="M27.5375 103.2C28.9737 112.627 24.8655 126.636 24.1924 131.215C23.5192 135.794 24.7305 144.886 30.0519 148.656C32.0713 140.777 37.7958 126.298 37.7958 126.298L27.5393 103.2H27.5375Z" fill="#B1ABAB"/>
<path d="M25.1337 131.44C25.8068 126.861 32.8213 109.777 27.5375 103.2C28.9737 112.627 24.8655 126.636 24.1924 131.215C23.5192 135.794 24.7305 144.886 30.0519 148.656C24.7324 144.886 24.4624 136.019 25.1355 131.44H25.1337Z" fill="#DBDBD9"/>
<path d="M30.1325 148.879L29.9731 148.767C24.723 145.045 23.3411 136.082 24.0593 131.196C24.2168 130.123 24.5524 128.578 24.978 126.621C26.3806 120.172 28.5012 110.426 27.4043 103.222L27.2525 102.23L37.9402 126.298L37.9196 126.351C37.8615 126.495 32.1763 140.912 30.1813 148.692L30.1325 148.881V148.879ZM27.7925 104.107C28.5969 111.249 26.5887 120.48 25.2405 126.677C24.8337 128.552 24.4811 130.17 24.3236 131.233C23.6224 136.003 24.9405 144.707 29.9675 148.431C31.9476 140.833 37.269 127.26 37.6477 126.302L27.7925 104.107Z" fill="#494646"/>
<path d="M18.9387 57.8105C24.5957 64.6788 28.0589 70.3678 26.167 76.2629C24.5544 81.2918 20.4199 83.6262 20.1856 87.5432C21.4306 86.1969 23.5194 85.6231 23.5194 85.6231C19.8837 89.5963 19.0755 95.994 22.1731 101.113C22.0381 98.7053 23.3188 96.9372 23.3188 96.9372C22.9156 101.516 23.4538 105.849 25.7845 108.349C25.5876 106.232 26.6132 104.951 26.6132 104.951C25.5407 112.808 35.6884 120.619 37.3929 134.447C43.1399 119.363 59.2128 79.6755 54.1839 64.5907C47.4487 57.5874 18.9405 57.8124 18.9405 57.8124L18.9387 57.8105Z" fill="#EFEEEE"/>
<path d="M39.0071 99.9662C35.2813 105.218 41.1446 107.42 34.7413 121.156C31.6025 114.492 25.6436 107.285 28.7693 101.583C26.2642 102.835 24.2279 105.019 25.2536 107.701C25.4186 107.926 25.5911 108.143 25.7805 108.346C25.5836 106.229 26.6093 104.948 26.6093 104.948C25.5367 112.805 35.6845 120.616 37.3889 134.445C40.4546 126.399 46.4547 111.355 50.6267 96.7786C46.211 96.2274 41.6415 96.248 39.0052 99.9643L39.0071 99.9662Z" fill="#CECECE"/>
<path d="M37.3236 135.002L37.2579 134.464C36.386 127.404 33.3372 121.973 30.6484 117.18C28.2577 112.92 26.1745 109.209 26.4183 105.532C26.1445 106.078 25.7977 107.051 25.9177 108.335L25.9552 108.729L25.6852 108.44C23.1651 105.738 22.8838 101.109 23.1388 97.4994C22.7788 98.1744 22.2182 99.502 22.3082 101.105L22.3382 101.645L22.0588 101.182C19.1112 96.3106 19.5519 90.1042 23.092 85.9079C22.4132 86.1554 21.1382 86.7123 20.2869 87.6348L20.03 87.9123L20.0525 87.5354C20.18 85.4241 21.4382 83.7347 22.7713 81.9459C23.9507 80.3634 25.2858 78.5708 26.0395 76.2214C27.8808 70.4819 24.6483 64.9543 18.8356 57.8966L18.6556 57.679H18.9387C20.1069 57.6678 47.5819 57.5328 54.2796 64.4967L54.3096 64.5474C59.0085 78.6421 45.3844 114.045 38.8367 131.057C38.3548 132.308 37.9123 133.459 37.5167 134.496L37.3236 135.002ZM26.8102 104.488L26.7446 104.97C26.227 108.755 28.3852 112.599 30.8828 117.049C33.5172 121.742 36.4948 127.048 37.4548 133.903C37.7998 133.002 38.1786 132.017 38.5836 130.963C45.1163 113.99 58.7028 78.6871 54.0621 64.6636C47.7676 58.1741 22.2107 57.951 19.2219 57.9472C24.9783 64.9711 28.1527 70.51 26.2945 76.3058C25.5277 78.6964 24.1757 80.5096 22.9851 82.1071C21.7026 83.8266 20.585 85.3266 20.3525 87.1848C21.6126 86.0166 23.4014 85.516 23.482 85.4935L23.932 85.3698L23.617 85.7147C19.97 89.6992 19.3456 95.75 22.0269 100.597C22.0776 98.4426 23.1557 96.9275 23.2063 96.8581L23.4932 96.4625L23.4501 96.9482C23.1407 100.451 23.2813 105.146 25.6233 107.964C25.5708 106.055 26.4652 104.917 26.5064 104.866L26.8102 104.488Z" fill="#6D6968"/>
<path d="M53.0605 67.0189C53.0605 67.0189 54.8999 73.7034 52.6105 76.1953C50.3211 78.6873 41.634 82.3905 38.1989 90.472C34.7638 98.5534 39.4777 104.546 38.602 111.684C37.7264 118.823 31.6887 133.144 30.7906 135.344C29.8924 137.543 27.963 139.788 27.603 141.854C27.243 143.918 28.4562 147.286 28.6362 149.62C28.8162 151.955 28.7262 154.109 30.0274 156.849C31.3287 159.588 33.8432 159.453 34.6963 158.51C35.6845 159.003 38.782 158.42 39.052 156.175C40.3983 156.265 42.5546 154.514 41.8796 152.045C41.2065 149.575 42.0146 147.914 42.1946 147.016C42.3746 146.118 43.0928 143.425 42.1046 141.134C44.9997 136.465 61.757 123.199 63.7895 118.373C65.2483 114.906 64.5977 110.919 65.7658 108.137C66.934 105.352 71.4735 99.3784 68.9609 91.747C63.782 79.8348 58.6988 65.0876 53.0624 67.0189H53.0605Z" fill="#B1ABAB"/>
<path d="M28.8687 142.431C29.2287 140.367 31.1713 137.871 32.0676 135.672C32.9657 133.472 40.2671 120.124 41.1428 112.986C42.0184 105.847 35.7727 98.3284 39.2077 90.2488C42.6428 82.1674 50.3193 78.6892 52.6087 76.1973C50.3193 78.6892 41.6322 82.3924 38.1971 90.4739C34.762 98.5553 39.4759 104.548 38.6002 111.686C37.7246 118.825 31.6869 133.146 30.7888 135.346C29.8906 137.545 27.9612 139.789 27.6012 141.856C27.2412 143.92 28.4543 147.288 28.6344 149.622C28.4543 147.288 28.5069 144.498 28.8669 142.431H28.8687Z" fill="#DBDBD9"/>
<path d="M68.9589 91.7489C67.5752 99.8266 63.5644 102.797 62.3982 105.581C61.23 108.364 61.9144 112.02 60.4537 115.485C58.4212 120.311 42.9539 134.316 40.0589 138.985C41.047 141.275 40.9889 145.606 40.8089 146.502C40.6289 147.4 39.5132 149.287 40.1864 151.754C40.8595 154.224 38.7201 155.429 37.3719 155.339C37.1019 157.584 34.1018 157.398 33.1137 156.905C32.4462 157.642 31.7318 158.868 30.828 158.054C32.178 159.511 33.9968 159.282 34.6962 158.51C35.6844 159.003 38.7819 158.42 39.052 156.175C40.3982 156.265 42.5545 154.514 41.8795 152.045C41.2064 149.575 42.0145 147.914 42.1945 147.016C42.3745 146.118 43.0927 143.425 42.1045 141.134C44.9996 136.465 61.7569 123.199 63.7894 118.373C65.2482 114.906 64.5976 110.919 65.7657 108.137C66.9339 105.352 71.4734 99.3785 68.9608 91.7471L68.9589 91.7489Z" fill="#999393"/>
<path d="M33.11 159.258C32.9713 159.258 32.8306 159.248 32.69 159.228C32.015 159.128 30.755 158.695 29.9056 156.91C28.8012 154.587 28.6905 152.72 28.5743 150.743C28.5518 150.376 28.5311 150.008 28.5011 149.635C28.4318 148.743 28.2143 147.713 27.9836 146.624C27.6199 144.906 27.2449 143.129 27.4699 141.835C27.6874 140.586 28.4768 139.259 29.2399 137.974C29.7631 137.095 30.3031 136.183 30.665 135.298L30.8862 134.762C36.4757 121.202 38.0939 114.722 38.4689 111.673C38.8195 108.808 38.2758 106.183 37.6982 103.404C36.8695 99.4082 36.0126 95.2756 38.0733 90.423C40.5427 84.6141 45.7984 80.9915 49.2767 78.5933C50.6661 77.6352 51.8661 76.8083 52.5092 76.107C54.7218 73.6995 52.948 67.1237 52.9292 67.058L53.188 66.9868C53.263 67.2624 55.0199 73.7726 52.7061 76.2908C52.0423 77.0145 50.8873 77.8096 49.4267 78.8165C45.7684 81.3384 40.7564 84.7922 38.3189 90.5299C36.2901 95.3037 37.1376 99.3951 37.9589 103.35C38.5139 106.027 39.0895 108.797 38.7314 111.707C38.1839 116.166 35.6282 123.958 31.13 134.865L30.9106 135.4C30.5412 136.305 29.9956 137.224 29.4668 138.113C28.6812 139.435 27.9386 140.684 27.7305 141.884C27.5149 143.127 27.8843 144.876 28.2424 146.569C28.4749 147.668 28.6943 148.707 28.7637 149.616C28.7918 149.991 28.8143 150.361 28.8368 150.728C28.953 152.678 29.0618 154.52 30.1437 156.796C30.9387 158.468 32.1012 158.872 32.7238 158.963C33.4644 159.072 34.1975 158.86 34.5913 158.425L34.6607 158.348L34.7525 158.393C35.2851 158.66 36.5226 158.587 37.5164 158.052C38.0864 157.745 38.7933 157.167 38.9133 156.164L38.9283 156.036L39.0558 156.044C39.7345 156.091 40.5764 155.646 41.154 154.941C41.5383 154.471 42.1252 153.475 41.7465 152.084C41.1933 150.053 41.6208 148.57 41.9021 147.588C41.9677 147.359 42.024 147.162 42.0577 146.995C42.0727 146.916 42.0934 146.824 42.1159 146.721C42.339 145.681 42.8621 143.245 41.9771 141.194L41.949 141.128L41.9865 141.068C43.299 138.951 47.3997 135.118 51.7386 131.061C57.0562 126.09 62.5539 120.951 63.6601 118.324C64.4233 116.512 64.6014 114.57 64.7758 112.691C64.9314 111.009 65.0777 109.421 65.6364 108.088C65.8502 107.58 66.1764 106.968 66.5533 106.262C68.2146 103.153 70.9972 97.9475 68.9534 91.7505C68.9534 91.7505 69.6603 92.7049 69.8497 94.55C70.4347 99.5714 68.209 103.734 66.7915 106.389C66.4165 107.09 66.0939 107.696 65.8839 108.193C65.342 109.488 65.1958 111.056 65.0439 112.717C64.8695 114.617 64.6877 116.58 63.9095 118.429C62.7807 121.108 57.2606 126.268 51.9242 131.258C47.6379 135.265 43.5878 139.05 42.2527 141.15C43.134 143.267 42.6071 145.722 42.3802 146.776C42.3577 146.879 42.339 146.969 42.324 147.046C42.2884 147.224 42.2302 147.426 42.1627 147.661C41.889 148.615 41.4746 150.055 42.0071 152.013C42.3127 153.13 42.084 154.231 41.364 155.112C40.7696 155.84 39.9014 156.31 39.1645 156.318C38.9902 157.362 38.2495 157.964 37.6457 158.288C36.5976 158.853 35.3526 158.924 34.7244 158.675C34.3419 159.048 33.7438 159.26 33.1063 159.26L33.11 159.258Z" fill="#494646"/>
<path d="M41.9789 141.186C41.9733 141.172 41.437 139.845 40.057 138.982C40.057 138.982 40.9645 139.262 41.5045 139.911C42.0033 140.524 42.2151 141.051 42.2301 141.086L41.9789 141.186Z" fill="#494646"/>
<path d="M39.0481 156.312C38.1594 156.286 37.4112 155.826 36.8224 154.943C36.2074 154.021 35.8587 152.725 35.7143 151.574C35.5718 149.843 36.0331 149.311 36.0331 149.311C35.7555 150.038 35.8568 153.012 37.0456 154.793C37.5818 155.598 38.2587 156.018 39.0537 156.042L39.0462 156.312H39.0481Z" fill="#494646"/>
<path d="M34.64 158.633C33.1175 157.913 32.3394 155.851 32.1087 154.066C31.9194 152.369 32.4687 151.666 32.4687 151.666C31.9175 153.214 32.645 157.392 34.7563 158.389L34.6419 158.633H34.64Z" fill="#494646"/>
<path d="M96.6196 140.057C93.5671 133.065 71.6009 114.873 54.5755 126.56C38.6301 137.505 42.6896 158.871 64.0595 172.518C85.4294 186.166 106.036 175.885 111.29 163.454L104.377 157.156L103.252 150.632L96.6215 140.057H96.6196Z" fill="#B1ABAB"/>
<path d="M55.2749 127.74C71.4209 117.566 93.5652 133.065 96.6178 140.057C93.5652 133.065 71.599 114.873 54.5736 126.56C46.9197 131.814 43.8783 139.468 45.144 147.518C44.199 139.823 47.5328 132.619 55.2749 127.74Z" fill="#DBDBD9"/>
<path d="M102.918 150.104C100.705 163.371 87.8988 170.315 71.7809 167.579C57.7387 165.196 48.6091 157.306 45.0972 147.197C46.3609 156.012 52.8092 165.335 64.0576 172.518C85.4275 186.166 106.034 175.885 111.288 163.454L102.918 150.104Z" fill="#999393"/>
<path d="M84.8765 179.129C77.8882 179.129 70.7142 176.928 63.9866 172.632C52.0988 165.04 44.9005 154.478 44.7336 144.381C44.6155 137.222 48.0825 130.854 54.4989 126.45C60.304 122.465 67.1179 121.554 74.7512 123.739C83.1046 126.129 90.901 132.071 94.7467 136.718C96.2317 138.514 96.6199 140.057 96.6199 140.057C94.6305 135.501 85.094 126.979 74.6762 123.997C67.1235 121.835 60.3865 122.735 54.6507 126.671C48.3112 131.023 44.8855 137.31 45.0017 144.375C45.1686 154.382 52.3182 164.862 64.131 172.405C73.9281 178.662 84.674 180.446 94.3886 177.427C102.093 175.032 108.515 169.651 111.159 163.396L111.213 163.293L111.412 163.501C108.738 169.827 102.247 175.267 94.4692 177.684C91.3548 178.651 88.1353 179.129 84.8765 179.129Z" fill="#494646"/>
<path d="M43.5858 6.84908C55.5279 9.19101 78.4241 -0.506751 93.0157 0.16639C102.168 0.588276 113.366 8.77848 118.336 16.0143C106.079 14.803 60.8249 15.7893 60.8249 15.7893L43.5858 6.8472V6.84908Z" fill="#B1ABAB"/>
<path d="M92.8132 1.17707C101.965 1.59895 112.953 9.77413 118.336 16.0143C113.366 8.7766 102.168 0.588276 93.0157 0.16639C78.4241 -0.506751 55.5279 9.19101 43.5858 6.84908C61.1868 10.4604 78.2216 0.503924 92.8132 1.17707Z" fill="#DBDBD9"/>
<path d="M118.612 16.1776L118.323 16.1494C106.214 14.9513 61.2805 15.915 60.8286 15.9263H60.7948L60.7648 15.9113L42.6913 6.53793L43.6138 6.71793C49.9102 7.95171 59.1279 5.8573 68.8857 3.63912C77.3684 1.7097 86.1361 -0.283472 93.0231 0.0334109C102.273 0.460921 113.422 8.62301 118.449 15.9394L118.614 16.1776H118.612ZM94.3432 15.2794C104.062 15.2794 113.326 15.4163 118.061 15.8532C112.994 8.65114 102.076 0.719665 93.01 0.30153C86.1661 -0.0153531 77.4096 1.97598 68.9438 3.89978C59.5854 6.02795 50.724 8.04175 44.4126 7.12672L60.8567 15.6563C61.7586 15.6376 78.6434 15.2813 94.3413 15.2813L94.3432 15.2794Z" fill="#494646"/>
<path d="M2.57513 37.4574C6.54836 31.9222 10.9041 15.2943 21.9706 8.07352C33.5621 0.507712 50.8313 4.08715 63.3416 11.7036C75.8519 19.3219 77.9482 31.7478 76.9226 42.1487C75.7113 54.4453 67.058 64.4805 56.7977 68.7762C49.0144 65.8718 2.57513 37.4574 2.57513 37.4574Z" fill="#B1ABAB"/>
<path d="M22.4412 9.27888C34.0328 1.71307 51.5157 5.31691 64.026 12.9352C68.0442 15.3822 70.9149 18.2135 72.9306 21.2735C70.7912 17.741 67.6992 14.5009 63.3416 11.8477C50.8313 4.22938 33.5621 0.651768 21.9706 8.21758C10.9041 15.4403 6.54836 32.0682 2.57513 37.6015C8.25465 31.8507 11.3747 16.5034 22.4412 9.28076V9.27888Z" fill="#DBDBD9"/>
<path d="M64.243 12.2793C75.7652 19.9051 74.1414 31.326 72.7688 41.425C71.5126 50.6727 59.3904 63.0649 50.7708 61.5386C42.9875 58.6342 49.0139 65.8737 56.7991 68.7782C67.0593 64.4825 75.7108 54.4472 76.9239 42.1507C77.9233 32.0067 75.9489 19.937 64.2449 12.2793H64.243Z" fill="#999393"/>
<path d="M56.7994 68.9226L56.7488 68.9039C49.0424 66.0295 2.96686 37.8569 2.50373 37.5737L2.37997 37.4988L2.46435 37.3806C3.64938 35.7306 4.87754 33.0661 6.3007 29.9798C9.5989 22.8303 14.1159 13.0388 21.8955 7.96116C33.7514 0.224726 51.2887 4.20734 63.4108 11.5894C76.3993 19.5002 78.0006 32.5824 77.0555 42.1639C75.9136 53.746 67.9822 64.2407 56.85 68.902L56.8013 68.9226H56.7994ZM2.76811 37.4181C5.4288 39.0438 49.1642 65.7407 56.7938 68.632C67.8116 63.9988 75.6568 53.6035 76.7874 42.1357C77.7249 32.6311 76.1405 19.6558 63.2702 11.8181C51.2212 4.48109 33.8001 0.511597 22.0436 8.18428C14.3296 13.2188 9.83141 22.9709 6.54633 30.0905C5.15129 33.1168 3.94001 35.74 2.76811 37.4163V37.4181Z" fill="#494646"/>
<path d="M55.9873 10.5375C63.1706 11.1207 81.8366 4.34234 101.798 7.84305C117.984 10.6819 137.057 26.9685 137.46 28.9879C137.863 31.0074 115.991 44.0221 104.013 42.3214C88.8381 40.167 79.5078 29.5261 70.7082 30.0642L55.9854 10.5356L55.9873 10.5375Z" fill="#B1ABAB"/>
<path d="M103.518 39.0003C88.3429 36.8458 81.3246 25.2786 70.7099 30.0656C79.5095 29.5275 88.8397 40.1665 104.014 42.3228C115.18 43.9091 134.941 32.7076 137.242 29.5444C132.918 32.7919 115.021 40.6334 103.518 39.0003Z" fill="#999393"/>
<path d="M101.86 8.92145C117.078 11.5915 135.013 26.7044 137.437 28.9095C136.605 26.5825 117.792 10.6484 101.8 7.8433C81.8366 4.34071 63.1724 11.1209 55.9891 10.5378C64.2393 13.5153 81.8985 5.41886 101.86 8.92145Z" fill="#DBDBD9"/>
<path d="M106.276 42.6081C105.483 42.6081 104.722 42.5594 103.996 42.4562C96.1284 41.3387 89.8788 37.9411 84.3643 34.9429C79.298 32.1885 74.9216 29.8109 70.7102 30.0659C70.7102 30.0659 71.6928 29.6703 73.3541 29.9516C76.821 30.5328 80.4361 32.4997 84.4918 34.7067C89.9857 37.6936 96.2127 41.08 104.032 42.19C114.714 43.7069 133.513 33.3341 136.839 29.8147C137.323 29.3028 137.342 29.0853 137.329 29.0159C136.916 26.9515 117.802 10.7867 101.776 7.97604C88.6094 5.66598 76.0504 7.8879 66.8814 9.50981C63.542 10.1004 60.6975 10.603 58.4512 10.7773C56.6568 10.8861 55.9874 10.5392 55.9874 10.5392C58.4081 10.738 62.1263 10.078 66.8345 9.24545C76.0241 7.61978 88.6094 5.39407 101.823 7.71162C117.939 10.5392 137.177 26.8746 137.593 28.9634C137.644 29.2128 137.46 29.5522 137.036 30.0003C133.914 33.3041 117.236 42.6081 106.274 42.6081H106.276Z" fill="#494646"/>
<path d="M75.4616 19.0672C80.3668 17.5316 96.3384 11.7039 105.901 13.8602C116.289 16.2022 131.582 29.4831 131.582 29.4831C127.901 32.3557 112.209 37.7783 102.759 36.4864C86.3275 34.242 75.4616 19.0672 75.4616 19.0672Z" fill="#FFCCCC"/>
<path d="M105.138 17.8708C115.625 19.7196 131.582 29.483 131.582 29.483C131.582 29.483 116.291 16.2002 105.901 13.8601C96.3384 11.7057 80.3686 17.5314 75.4616 19.0671C81.4337 21.784 93.689 15.8533 105.138 17.8708Z" fill="#E8AAAA"/>
<path d="M105.886 36.818C104.806 36.818 103.748 36.7581 102.74 36.6193C86.4397 34.3918 75.4613 19.2976 75.3526 19.1439L75.2438 18.992L75.422 18.9358C75.9245 18.7783 76.5414 18.5757 77.2558 18.3432C83.7659 16.2132 97.3094 11.7825 105.931 13.725C116.232 16.0463 131.516 29.2447 131.67 29.3779L131.793 29.4848L131.664 29.586C129.72 31.1029 124.664 33.1955 119.369 34.673C116.259 35.5411 110.847 36.8143 105.886 36.8143V36.818ZM75.6826 19.1382C76.8733 20.7226 87.4673 34.2605 102.777 36.353C112.212 37.6412 127.67 32.2017 131.368 29.4754C129.877 28.2022 115.612 16.185 105.873 13.9894C97.3263 12.0637 83.8278 16.4776 77.342 18.6001C76.7101 18.8064 76.1532 18.9901 75.6845 19.1364L75.6826 19.1382Z" fill="#494646"/>
<path d="M66.2754 19.9666C67.3498 20.1053 72.4462 19.9609 75.4181 18.9409L75.5063 19.1959C73.7418 19.8015 71.2368 20.1034 69.2455 20.2197C67.1098 20.3022 66.2773 19.9666 66.2773 19.9666H66.2754Z" fill="#494646"/>
<path d="M45.6166 13.7626C35.9189 11.5182 27.8393 27.2685 27.873 36.9213C28.4524 39.9757 41.3115 46.5009 49.1304 41.5358C55.53 37.4726 56.6512 16.3145 45.6185 13.7607L45.6166 13.7626Z" fill="#EFEEEE"/>
<path d="M38.4821 17.0189C40.6515 15.6745 47.9285 13.4056 52.2318 21.9052C50.4617 11.8812 41.1671 12.2469 38.4821 17.0189Z" fill="#322C2C"/>
<path d="M38.4821 17.0189C40.6515 15.6745 47.9285 13.4057 52.2318 21.9053C49.5861 13.8426 42.4103 13.2988 38.4821 17.0189Z" fill="#231E1E"/>
<path d="M52.5036 22.725L52.1229 21.9732C50.5648 18.8943 48.4703 16.948 45.9015 16.1886C42.7852 15.2661 39.8095 16.3499 38.542 17.1374L38.1257 17.3962L38.3751 16.9537C39.7289 14.5517 42.7064 13.2392 45.6165 13.7642C49.0985 14.3923 51.5529 17.3512 52.3535 21.8813L52.5036 22.7269V22.725ZM44.4071 15.6168C44.919 15.6711 45.4421 15.7705 45.9709 15.928C48.3878 16.6443 50.3923 18.3768 51.9354 21.0844C51.0129 17.1487 48.7253 14.5949 45.5715 14.0267C42.9408 13.5523 40.2558 14.6248 38.8551 16.6555C40.057 16.0349 42.1214 15.373 44.4071 15.6168Z" fill="black"/>
<path d="M44.6491 20.1793C37.4901 18.7073 34.0532 30.0551 34.7413 33.7733C35.2176 36.3478 43.1396 39.9629 47.7935 34.934C50.7298 31.7633 50.1073 21.3005 44.6472 20.1793H44.6491Z" fill="#CECECE"/>
<path d="M44.5367 21.6805C37.3777 20.3211 34.0533 30.6151 34.7414 34.0521C35.2177 36.4315 43.1397 39.7728 47.7936 35.1246C50.7299 32.1939 49.9949 22.7174 44.5367 21.6805Z" fill="black"/>
<path d="M44.4843 22.4346C37.4791 21.1389 34.2259 30.9417 34.899 34.2155C35.3659 36.4825 43.1174 39.6625 47.6718 35.2374C50.5444 32.4455 49.8263 23.4228 44.4843 22.4346Z" fill="white"/>
<path d="M34.8315 32.7121C34.7921 33.2934 34.8165 33.8053 34.9009 34.2159C35.3678 36.4828 43.1192 39.6629 47.6737 35.2378C49.02 33.929 49.5787 31.2496 49.2394 28.6714C47.4487 34.3509 39.0072 36.331 34.8315 32.7121Z" fill="#DBDBDB"/>
<path d="M41.9322 37.5868C40.4697 37.5868 39.2547 37.2792 38.6753 37.1011C36.5884 36.4598 34.9833 35.2842 34.7696 34.2435C34.3383 32.1491 35.5083 27.2721 38.3247 24.4014C40.0853 22.6051 42.2248 21.8795 44.5123 22.3014C46.6255 22.6914 48.2212 24.3358 49.0068 26.9309C49.9518 30.0491 49.4081 33.741 47.7693 35.3329C45.9373 37.1124 43.7473 37.5849 41.9341 37.5849L41.9322 37.5868ZM43.2242 22.4495C41.4879 22.4495 39.9091 23.1658 38.514 24.5889C35.7596 27.3977 34.6121 32.151 35.0321 34.1892C35.2233 35.1229 36.789 36.2386 38.754 36.8424C40.0141 37.2305 44.3754 38.2543 47.5799 35.1417C49.153 33.6135 49.6649 30.0416 48.748 27.0115C48.3112 25.5677 47.1711 23.0683 44.4617 22.5676C44.0417 22.4907 43.6292 22.4514 43.226 22.4514L43.2242 22.4495Z" fill="black"/>
<path d="M38.7033 22.2019C40.0984 20.7788 41.6772 20.0625 43.4135 20.0625C43.8166 20.0625 44.2291 20.1019 44.6491 20.1787C46.646 20.5481 47.7898 22.0013 48.4273 23.3194C48.4461 23.1244 48.4086 22.7907 48.2754 22.4776C47.4035 21.0769 46.1773 20.1881 44.6979 19.9144C42.4103 19.4906 40.2709 20.2181 38.5102 22.0144C38.4783 22.0463 38.4465 22.0819 38.4146 22.1157C38.2158 22.3332 37.8764 22.8207 37.7714 23.3026C38.0583 22.9126 38.3677 22.5451 38.7015 22.2038L38.7033 22.2019Z" fill="#6D6968"/>
<path d="M43.7246 27.1334C45.5903 27.1727 47.0416 29.3159 46.9666 31.9204C46.8897 34.5248 45.3166 36.6042 43.4509 36.5649C41.5852 36.5255 40.1339 34.3823 40.2089 31.7779C40.2839 29.1734 41.859 27.094 43.7246 27.1334Z" fill="#542416"/>
<path d="M44.3133 33.8568C45.2921 33.6787 46.2184 33.0637 46.9084 32.4112C46.7097 34.7137 45.1196 36.6 43.4358 36.5644C41.6845 36.5269 40.1395 34.4006 40.177 31.9668C41.0714 33.2943 42.7552 33.9674 44.3152 33.8568H44.3133Z" fill="#A74F45"/>
<path d="M43.5013 36.7013C43.4826 36.7013 43.4657 36.7013 43.447 36.7013C42.7007 36.6863 41.9975 36.3525 41.4125 35.7394C40.5294 34.8113 40.0287 33.3281 40.0737 31.7756C40.1506 29.1018 41.78 26.9511 43.7263 26.9998C44.4726 27.0148 45.1758 27.3486 45.7608 27.9617C46.6439 28.8899 47.1445 30.373 47.1014 31.9256C47.0245 34.575 45.4139 36.7013 43.5013 36.7013ZM43.672 27.268C41.9038 27.268 40.4169 29.278 40.3438 31.7831C40.3006 33.2662 40.7731 34.6744 41.6094 35.5519C42.1419 36.1125 42.7813 36.4163 43.4545 36.4313C43.4713 36.4313 43.4863 36.4313 43.5032 36.4313C45.2714 36.4313 46.7583 34.4213 46.8333 31.9162C46.8764 30.433 46.402 29.0249 45.5676 28.1455C45.0351 27.5848 44.3957 27.2811 43.7226 27.2661C43.7057 27.2661 43.6907 27.2661 43.6738 27.2661L43.672 27.268Z" fill="#261005"/>
<path d="M44.0004 29.4583C45.0879 29.4808 45.9317 30.7952 45.8848 32.3928C45.8379 33.9903 44.9192 35.2672 43.8335 35.2447C42.746 35.2222 41.9022 33.9078 41.9491 32.3102C41.996 30.7127 42.9147 29.4358 44.0023 29.4583H44.0004Z" fill="black"/>
<path d="M43.0346 29.042C43.6646 28.9932 44.2046 29.4751 44.2421 30.122C44.2796 30.767 43.7996 31.3314 43.1696 31.3801C42.5396 31.4289 41.9996 30.9451 41.9621 30.3001C41.9246 29.6532 42.4046 29.0907 43.0346 29.042Z" fill="white"/>
<path d="M44.8834 33.5084C45.174 33.4859 45.4215 33.709 45.4403 34.0053C45.4571 34.3034 45.2359 34.5622 44.9471 34.5847C44.6565 34.6072 44.409 34.3841 44.3921 34.0878C44.3752 33.7897 44.5965 33.5309 44.8852 33.5084H44.8834Z" fill="white"/>
<path d="M6.21078 45.488C5.20013 49.7987 6.74892 57.2727 15.706 56.802C26.975 63.7828 29.2645 68.8117 38.9622 70.7861C48.6599 72.7624 57.3245 68.5417 57.3245 68.5417C61.0109 59.5265 57.722 54.2764 52.155 50.6838C46.588 47.0931 32.9508 44.9855 28.0982 43.8042C25.9606 41.976 22.038 35.1846 11.0596 37.339C6.07578 38.2147 6.21078 45.488 6.21078 45.488Z" fill="#EFEEEE"/>
<path d="M58.7628 59.7911C55.9878 66.2863 47.4263 70.8127 36.8585 66.9838C29.1802 64.2031 27.2546 60.3368 19.5894 54.5242C14.3149 56.3542 9.2935 55.4317 6.29343 50.6841C7.1822 54.0479 9.87476 57.108 15.7043 56.8005C26.9733 63.7813 29.2627 68.8101 38.9605 70.7846C48.6582 72.7609 57.3228 68.5401 57.3228 68.5401C58.8847 66.982 59.9497 62.3187 58.761 59.7893L58.7628 59.7911Z" fill="#CECECE"/>
<path d="M57.3413 68.386C57.3694 68.386 57.2119 68.4366 57.21 68.4441C56.4581 68.7929 48.1348 72.5149 38.9883 70.6529C32.8588 69.4042 29.7012 66.9272 25.3305 63.5015C22.7823 61.5027 19.8929 59.2376 15.7753 56.6857L15.7397 56.6632H15.6965C12.3139 56.8432 9.74326 55.9113 8.05572 53.8938C5.93317 51.3568 5.80567 47.7961 6.33818 45.5161L6.34193 45.4992V45.4823C6.34193 45.4185 6.28005 39.754 9.69826 37.939V37.6353C6.10755 39.4034 6.07192 45.1073 6.0738 45.4692C5.53004 47.8093 5.66879 51.4581 7.84947 54.0644C9.58763 56.1419 12.2183 57.1076 15.6684 56.9332C19.7541 59.4664 22.6267 61.7202 25.1636 63.7096C29.5625 67.1597 32.7426 69.6535 38.934 70.9136C40.7659 71.2867 42.5622 71.4386 44.2741 71.4386C51.5699 71.4386 57.3544 68.6841 57.4257 68.6504L57.4519 68.5754C57.4782 68.4835 57.4969 68.4066 57.5194 68.3128C57.4144 68.3578 57.3825 68.3672 57.3394 68.3841L57.3413 68.386Z" fill="#6D6968"/>
<path d="M15.7174 56.9349L15.6949 56.6667C17.6187 56.5017 19.5707 55.6261 19.5913 55.6167C19.5913 55.6167 18.7006 56.3124 17.4312 56.633C16.8931 56.7699 16.3062 56.8842 15.7193 56.933L15.7174 56.9349Z" fill="#6D6968"/>
<path d="M3.98903 35.8237C1.36209 36.6319 -1.29297 41.222 1.02646 45.1502C3.01401 48.5178 7.58162 48.7859 9.19791 47.5296C11.2173 49.5265 14.3168 50.6722 17.8119 49.864C21.367 49.0428 23.6095 46.8565 24.7308 43.7589L3.98903 35.8237Z" fill="#EFEEEE"/>
<path d="M7.07526 43.8155C6.07774 46.4068 2.4664 46.7312 0.465729 43.9186C0.604482 44.333 0.788235 44.7455 1.02637 45.1486C3.01391 48.5162 7.58153 48.7843 9.19782 47.5281C11.2172 49.525 14.3167 50.6706 17.8118 49.8625C21.3669 49.0412 23.6094 46.8549 24.7307 43.7573C21.3294 49.9637 10.4185 48.3793 7.07526 43.8136V43.8155Z" fill="#CECECE"/>
<path d="M15.543 50.2634C13.1523 50.2634 10.9192 49.3803 9.18474 47.7078C8.32409 48.3097 6.83343 48.5159 5.34089 48.2309C4.22337 48.0172 2.16269 47.344 0.910159 45.2196C-0.136117 43.4458 -0.286121 41.3664 0.490148 39.3638C1.18579 37.5675 2.54332 36.1275 3.94961 35.6943L4.02836 35.9512C2.69895 36.36 1.40892 37.7382 0.741406 39.4594C0.310145 40.5732 -0.211117 42.7858 1.14267 45.0808C2.34082 47.1134 4.32087 47.7603 5.39339 47.9647C6.86905 48.2459 8.33159 48.034 9.11536 47.4228L9.20911 47.3496L9.29348 47.4321C11.5135 49.6278 14.6074 50.466 17.7818 49.7309C21.1438 48.9547 23.4388 46.9277 24.6051 43.7102L24.8582 43.802C23.6601 47.1115 21.2994 49.1947 17.8418 49.9934C17.0674 50.1716 16.2968 50.2597 15.543 50.2597V50.2634Z" fill="#6D6968"/>
<path d="M12.6984 37.0768C12.8184 38.1343 8.23576 42.3231 6.65135 42.145C5.47007 42.0119 2.90876 38.3574 3.44877 35.933C3.6869 34.8623 5.43819 34.0617 7.49137 34.2417C10.0864 34.4704 12.5952 36.1486 12.7002 37.0768H12.6984Z" fill="#B3B3B3"/>
<path d="M8.81148 35.5052C8.79648 35.8315 8.04647 36.0602 7.13895 36.0171C6.23143 35.974 5.50766 35.674 5.52266 35.3496C5.53766 35.0234 6.28767 34.7946 7.1952 34.8377C8.10272 34.8809 8.82649 35.1808 8.81148 35.5052Z" fill="#E6E6E6"/>
<path d="M12.6984 37.0769C12.8184 38.1344 8.23576 42.3233 6.65135 42.1452C5.47007 42.012 2.90876 38.3575 3.44877 35.9331C3.92128 40.0338 10.2852 39.3607 12.6984 37.0769Z" fill="#4D4D4D"/>
<path d="M6.75639 42.2852C6.71514 42.2852 6.67576 42.2834 6.63639 42.2796C6.13013 42.2234 5.42136 41.6196 4.74259 40.6689C3.86882 39.4445 2.97067 37.4626 3.31756 35.9044C3.57819 34.7344 5.45511 33.9281 7.50266 34.1081C10.0546 34.3331 12.7115 35.9888 12.8334 37.0613C12.9028 37.6632 11.7796 38.8595 11.2921 39.347C10.0865 40.5545 7.92642 42.2852 6.75639 42.2852ZM6.91389 34.35C5.22823 34.35 3.78819 35.0213 3.58006 35.9607C3.25381 37.4326 4.12008 39.332 4.96197 40.5096C5.57886 41.374 6.24825 41.9627 6.66826 42.0096C7.55891 42.1127 9.62333 40.637 11.1027 39.1539C12.2278 38.027 12.5953 37.337 12.5672 37.0895C12.4697 36.2288 9.97022 34.5938 7.48016 34.3744C7.29078 34.3575 7.1014 34.35 6.91577 34.35H6.91389Z" fill="#494646"/>
<path d="M9.09831 47.6218C8.67642 47.1661 8.26579 46.5661 7.91328 45.9811C7.29826 44.9611 7.07513 43.8154 7.07513 43.8154C7.08638 43.8398 8.16641 46.223 9.29519 47.438L9.09831 47.6218Z" fill="#6D6968"/>
<path d="M25.5069 46.1838C25.5031 46.1575 25.0419 43.5943 23.405 42.728C23.405 42.728 24.1418 42.7881 24.7062 43.5531C24.8806 43.795 25.0287 44.05 25.1544 44.3012C25.6081 45.2087 25.5069 46.1856 25.5069 46.1856V46.1838Z" fill="#6D6968"/>
</svg>
