<svg width="224" height="168" viewBox="0 0 224 168" fill="none" xmlns="http://www.w3.org/2000/svg">
<path d="M186.533 64.9505C183.392 73.7025 180.977 89.2888 182.892 96.5679C184.807 103.847 186.65 106.201 186.533 108.159C186.413 110.117 183.307 119.822 183.435 126.719C183.563 133.615 188.159 136.501 189.949 137.102C191.736 137.703 192.247 140.512 192.057 141.279C191.864 142.044 182.351 144.088 170.474 143.451C158.596 142.812 153.04 142.686 152.594 142.175C152.147 141.664 153.487 138.216 153.487 138.216C153.487 138.216 162.235 134.832 165.876 129.021C169.516 123.211 168.813 110.758 168.238 108.524C167.663 106.29 159.043 97.222 158.212 93.7738C157.382 90.3256 160.52 68.9973 172.297 63.5075C184.074 58.0156 186.533 64.9569 186.533 64.9569V64.9505Z" fill="#B0A79C"/>
<path d="M152.5 142.401C151.882 141.501 152.801 138.977 153.376 138.335C154.516 137.066 156.457 136.031 159.565 136.082C162.673 136.133 163.575 137.467 163.966 138.154C164.899 139.789 165.521 143.177 165.262 143.41C165.003 143.643 153.229 143.462 152.5 142.401Z" fill="#BFB6AD"/>
<path d="M166.401 143.5C166.025 143.444 166.442 139.541 166.816 138.904C168.291 136.39 171.089 136.264 174.429 136.418C177.77 136.574 178.516 138.408 178.762 138.773C179.504 139.879 179.995 143.235 179.867 143.568C179.737 143.902 171.581 144.261 166.403 143.498L166.401 143.5Z" fill="#BFB6AD"/>
<path d="M163.783 102.19C163.783 102.19 168.984 99.0026 174.055 93.7053C179.125 88.4079 181.3 84.7053 181.3 84.7053L182.687 87.2044C182.687 87.2044 181.915 92.7069 183.228 97.8012C184.538 102.895 186.762 106.619 186.945 107.026C187.129 107.432 187.037 109.894 186.528 110.316C186.02 110.737 184.32 118.762 183.619 122.978C182.918 127.193 184.13 130.829 184.13 130.829C184.13 130.829 182.131 126.821 181.9 121.5C181.669 116.177 180.883 111.921 177.18 108.08C173.477 104.238 168.49 107.169 168.484 110.147C168.484 110.147 167.83 107.571 167.785 107.293C167.738 107.015 163.781 102.192 163.781 102.192L163.783 102.19Z" fill="#A2968D"/>
<path d="M76.7057 105.238C76.7057 105.238 86.5672 125.998 88.5253 132.916C90.4814 139.834 88.0999 142.854 87.0631 143.57C86.0263 144.287 74.3242 148.43 74.0121 148.844C73.7 149.259 73.4948 151.64 74.0121 152.365C74.5295 153.09 96.6958 152.882 103.013 152.987C109.33 153.09 113.163 150.191 113.68 148.222C114.198 146.253 114.198 144.804 114.198 144.804L103.738 107.932C103.738 107.932 90.4792 101.2 76.7057 105.238Z" fill="#B0A79C"/>
<path d="M88.5531 132.386C87.5355 125.99 93.4164 127.834 95.6803 134.412C97.9442 140.99 95.2677 152.989 95.2677 152.989C95.2677 152.989 104.289 153.851 103.733 138.763C103.177 123.674 93.9893 114.294 93.9893 114.294C93.9893 114.294 91.8003 112.244 87.606 111.827C83.4117 111.412 84.4785 122.379 84.4785 122.379L88.5509 132.386H88.5531Z" fill="#A2968D"/>
<path d="M31.5562 72.1012C33.8351 38.3354 69.542 4.02015 83.4224 0.499275C97.3007 -3.0216 127.045 13.1612 142.995 15.2327C158.945 17.3041 168.682 5.08261 185.667 8.39612C202.653 11.7096 206.174 32.0119 199.752 52.9319C193.331 73.8541 169.095 109.277 129.737 114.454C90.3786 119.632 77.3276 108.033 65.7282 99.3319C54.1287 90.6312 31.5562 72.099 31.5562 72.099V72.1012Z" fill="#BFB6AD"/>
<path d="M82.3 97.8846C84.7777 104.61 88.3092 111.062 91.7254 113.432C95.1436 115.803 129.115 114.561 136.986 109.486C144.857 104.411 142.786 90.4281 145.687 79.4507C148.587 68.4712 142.786 51.0721 129.839 40.0926C116.893 29.1131 94.8315 35.3275 86.0283 53.3509C77.225 71.3722 80.1238 91.9844 82.3 97.8867V97.8846Z" fill="#BFB6AD"/>
<path d="M91.7252 109.382C91.7958 110.523 97.7323 129.889 97.9397 139.107C98.1471 148.325 95.7656 153.297 92.8647 154.849C89.9637 156.404 86.4428 158.06 85.4082 159.407C84.3735 160.754 82.3021 164.172 84.1662 164.69C86.0303 165.207 103.224 167.176 110.371 166.554C117.517 165.932 120.418 164.792 120.418 164.792C120.418 164.792 120.833 160.649 119.071 159.82C117.31 158.99 114.099 158.37 114.411 151.224C114.721 144.077 120.211 137.346 121.455 133.41C122.699 129.474 130.88 112.28 131.915 109.382C132.95 106.481 129.326 101.82 115.758 100.993C102.19 100.164 91.4174 104.411 91.7295 109.382H91.7252Z" fill="#BFB6AD"/>
<path d="M92.7602 159.104C89.0576 159.595 89.0854 161.523 88.9314 162.364C88.7775 163.204 88.8524 165.932 89.0106 166.301C89.1709 166.671 97.0699 167.152 98.0276 167.163C98.9853 167.174 99.1093 166.543 99.1307 166.438C99.1521 166.333 98.9126 161.421 98.3568 160.784C96.8796 159.084 94.6799 158.849 92.7602 159.106V159.104Z" fill="#D1C7C0"/>
<path d="M99.9001 161.842C99.6949 162.41 99.7783 166.13 99.8232 166.53C99.8681 166.93 99.9963 167.231 100.954 167.235C101.914 167.238 108.036 167.4 109.772 167.321C111.508 167.242 109.606 162.019 109.191 161.528C107.32 159.306 101.345 157.823 99.9001 161.844V161.842Z" fill="#D1C7C0"/>
<path d="M91.7253 109.381C90.6907 104.409 100.167 100.422 112.906 100.422C125.645 100.422 132.499 104.167 132.362 108.381L130.096 113.627C130.096 113.627 130.87 107.464 112.006 107.026C93.1427 106.585 92.8092 113.627 92.8092 113.627L91.7253 109.381Z" fill="#B0A79C"/>
<path d="M218.439 71.1776C215.298 79.9295 213.171 93.9361 215.087 101.215C217.002 108.494 218.558 112.428 218.439 114.386C218.319 116.344 215.213 126.049 215.341 132.946C215.469 139.842 220.065 142.728 221.855 143.329C223.644 143.93 224.153 146.739 223.963 147.506C223.77 148.271 214.257 150.315 202.38 149.678C190.502 149.041 184.946 148.913 184.5 148.402C184.053 147.891 185.393 144.443 185.393 144.443C185.393 144.443 194.141 141.059 197.781 135.248C201.422 129.438 200.719 116.985 200.144 114.751C199.569 112.517 195.541 106.891 190.118 100.001C187.924 97.2132 192.426 75.2243 204.203 69.7346C215.98 64.2427 218.439 71.184 218.439 71.184V71.1776Z" fill="#BFB6AD"/>
<path d="M184.406 148.628C183.788 147.728 184.707 145.204 185.282 144.562C186.421 143.293 188.363 142.258 191.471 142.309C194.577 142.361 195.481 143.694 195.872 144.381C196.805 146.016 197.427 149.404 197.168 149.637C196.909 149.87 185.135 149.689 184.406 148.628Z" fill="#D1C7C0"/>
<path d="M198.307 149.727C197.931 149.672 198.348 145.768 198.722 145.131C200.197 142.617 202.995 142.491 206.335 142.645C209.676 142.801 210.422 144.635 210.668 145.001C211.41 146.106 211.901 149.462 211.773 149.796C211.645 150.129 203.487 150.488 198.309 149.725L198.307 149.727Z" fill="#D1C7C0"/>
<path d="M73.9948 148.992C73.3941 149.646 73.4198 151.974 73.6271 152.344C73.8324 152.714 81.3979 153.017 81.7036 152.784C82.0092 152.549 81.9857 150.176 81.5197 149.246C80.6689 147.547 76.4148 146.352 73.9948 148.992Z" fill="#BFB6AD"/>
<path d="M82.6185 149.971C82.4924 150.411 82.4219 152.344 82.6292 152.714C82.8345 153.084 90.4919 153.212 90.7976 152.977C91.1033 152.742 90.5859 149.721 89.8933 148.945C88.0441 146.869 83.7195 146.144 82.6185 149.969V149.971Z" fill="#BFB6AD"/>
<path d="M170.874 47.8784C175.16 66.0044 175.134 68.0673 183.189 82.7323C183.189 82.7323 176.398 94.3403 160.965 103.947C145.533 113.554 129.737 114.457 129.737 114.457L130.968 111.605C130.968 111.605 134.622 111.38 138.523 107.652C142.424 103.924 142.937 98.9985 143.818 91.6767C144.697 84.3528 144.564 83.3886 145.687 79.4487C145.687 79.4487 142.018 92.7199 156.463 88.0682C170.908 83.4164 171.323 71.4001 171.323 63.6336C171.323 55.8672 170.874 47.8784 170.874 47.8784Z" fill="#B0A79C"/>
<path d="M145.911 78.5015C144.149 82.8988 143.874 88.2624 143.32 95.6612C142.768 103.06 138.36 110.76 130.966 111.605L129.735 114.456C129.735 114.456 136.787 114.125 146.819 110.664C156.852 107.203 159.103 105.063 159.103 105.063C159.103 105.063 153.746 107.549 148.222 109.067C142.698 110.587 145.045 100.92 144.908 93.1173C144.769 85.3145 145.911 78.5015 145.911 78.5015Z" fill="#948A81"/>
<path d="M170.873 47.8784C173.496 60.7327 175.82 68.4649 178.625 73.976C181.43 79.4872 183.189 82.7323 183.189 82.7323C183.189 82.7323 179.369 88.7052 172.913 94.8127C166.455 100.92 162.855 102.733 162.855 102.733C162.855 102.733 173.687 97.2048 173.073 77.0074C172.693 64.5143 170.876 47.8762 170.876 47.8762L170.873 47.8784Z" fill="#948A81"/>
<path d="M86.7273 158.584C85.5109 158.537 83.5164 160.322 83.2919 161.793C83.0674 163.263 83.0161 164.972 83.1529 165.286C83.2897 165.6 86.6759 166.077 87.4348 166.169C88.1937 166.261 88.4182 165.948 88.4866 165.378C88.555 164.807 88.5893 162.584 88.4866 161.297C88.384 160.01 87.7277 158.622 86.7251 158.584H86.7273Z" fill="#D1C7C0"/>
<path d="M132.362 41.9482C132.362 41.9482 143.805 56.9018 144.874 68.8818C145.943 80.8618 143.634 85.2805 143.598 91.9097C143.562 98.5389 143.354 106.754 144.667 108.447C145.98 110.138 147.085 109.967 149.535 109.138C151.987 108.308 155.36 106.645 155.36 106.645C155.36 106.645 150.811 108.828 148.878 106.168C146.946 103.509 146.2 93.3591 146.418 85.5221C146.636 77.6851 147.014 72.92 145.116 64.8072C143.218 56.6945 141.458 53.4643 137.935 48.4086C135.385 44.7509 132.362 41.9482 132.362 41.9482Z" fill="#948A81"/>
<path d="M92.1678 106.771C92.1678 106.771 95.43 99.6505 113.231 100.422C131.032 101.196 131.757 105.345 132.362 108.381L131.526 110.316C131.526 110.316 131.612 101.679 113.231 101.611C94.8507 101.542 92.1678 106.771 92.1678 106.771Z" fill="#948A81"/>
<path d="M202.277 108.804C198.579 108.332 183.371 99.4686 174.999 73.9887C166.63 48.5088 173.954 8.46657 173.954 8.46657C173.954 8.46657 181.049 5.81576 192.26 7.53451C203.47 9.25326 218.458 35.6545 219.897 45.5801C221.337 55.5057 214.028 93.857 214.997 100.424C215.963 106.989 210.608 109.869 202.277 108.804Z" fill="#BFB6AD"/>
<path d="M36.3747 61.3162C36.3426 43.5857 69.1956 13.1441 77.7979 7.15622C86.4003 1.16837 101.976 7.88092 120.859 12.879C139.741 17.8771 148.414 18.8027 152.502 17.8771C156.589 16.9514 180.75 6.48283 191.206 9.91606C201.664 13.3514 215.642 32.6874 216.198 45.4605C216.754 58.2336 208.237 99.272 208.237 99.272C208.237 99.272 199.72 105.256 188.985 88.2241C178.247 71.1926 175.286 69.8971 174.544 52.4958L173.804 35.0945C173.804 35.0945 168.065 43.2394 168.065 49.7189C168.065 56.1984 168.434 73.3667 160.473 76.723C152.512 80.0793 153.808 77.4883 151.217 65.4549C148.626 53.4215 145.293 44.5348 136.593 37.3157C127.892 30.0965 124.929 34.6435 124.929 34.6435C124.929 34.6435 138.623 47.1429 141.221 69.4097C143.816 91.6766 122.539 93.2222 111.978 93.778C101.418 94.3338 95.2249 96.3689 95.2677 90.2614C95.3104 84.1517 89.3995 75.451 82.7276 73.5997C76.0578 71.7484 36.3747 61.3162 36.3747 61.3162Z" fill="url(#paint0_linear_191_1834)"/>
<path d="M6.75832 129.136C6.75832 129.136 8.32315 131.586 11.782 132.386C15.2431 133.185 20.2518 133.252 26.6651 132.786C33.0783 132.32 37.7365 125.797 39.9341 119.341C42.1296 112.885 43.8612 111.553 43.8612 111.553C43.8612 111.553 37.2063 112.751 23.3623 119.474C9.51816 126.195 6.75832 129.136 6.75832 129.136Z" fill="#BFB6AD"/>
<path d="M24.2622 42.2047C21.0876 45.4156 20.8674 52.2884 20.3693 63.0691C19.8712 73.8498 18.1738 85.3317 12.9812 93.3183C7.79076 101.305 3.19886 106.196 2.49982 109.292C1.80077 112.387 1.7003 114.384 1.7003 114.384C1.7003 114.384 -0.495166 118.377 0.103405 121.372C0.701976 124.367 2.89958 129.857 13.7807 130.656C24.6619 131.456 28.4222 131.922 33.4801 127.328C38.5381 122.736 39.4701 116.68 43.8632 111.556C48.2563 106.431 57.7073 102.038 62.2329 92.1212C66.7585 82.2042 72.616 68.2959 65.694 52.654C58.7719 37.0142 45.1287 36.2809 39.9383 36.3493C34.7478 36.4156 27.1609 39.2781 24.2643 42.2068L24.2622 42.2047Z" fill="#BFB6AD"/>
<path d="M54.1459 44.2357C54.1459 44.2357 56.5038 43.4447 58.1136 42.5062C60.1679 41.3091 63.2313 36.3174 63.7294 29.8935C64.2275 23.4717 61.8974 21.2249 60.401 18.946C58.9045 16.6651 59.1033 16.1841 59.1033 16.1841C59.1033 16.1841 59.2038 16.8831 58.2055 17.9819C57.2072 19.0807 51.2172 23.3733 52.6473 31.6913C54.0775 40.0115 54.1438 44.2357 54.1438 44.2357H54.1459Z" fill="#B0A79C"/>
<path d="M50.9842 40.8067C53.6457 40.5394 51.7495 37.5787 50.717 32.8542C49.6844 28.1298 50.0842 24.4678 53.8124 21.041C57.5385 17.6142 59.0371 17.0477 59.1034 16.1819C59.1034 16.1819 59.5031 16.8147 58.8362 17.813C58.1713 18.8113 54.4431 22.2061 54.0775 27.7963C53.712 33.3865 55.6274 39.5005 55.8668 40.6036C56.1062 41.7067 54.5756 44.4023 54.0775 44.7016C53.5794 45.0009 50.9821 40.8088 50.9821 40.8088L50.9842 40.8067Z" fill="#BFB6AD"/>
<path d="M30.6646 38.7736C30.6219 38.096 30.7801 38.6967 28.4991 38.3482C26.2181 37.9998 25.2049 38.5064 20.9892 34.9898C16.7757 31.4732 12.6883 23.0761 12.1175 20.5108C12.1175 20.5108 11.9593 20.3526 11.3244 21.0816C10.6916 21.8106 4.94109 27.544 8.26743 38.2371C11.5938 48.9301 20.7669 45.4135 22.0965 44.0346C23.4262 42.6558 23.7234 43.4254 23.7234 43.4254C23.7234 43.4254 25.8034 44.4622 28.3708 41.991C30.9361 39.5197 30.6646 38.7715 30.6646 38.7715V38.7736Z" fill="#BFB6AD"/>
<path d="M28.4949 120.917C28.0652 118.467 29.3522 115.527 30.9448 114.424C32.5374 113.321 34.4977 114.424 34.4977 114.424C34.4977 114.424 33.6405 114.546 33.6405 116.261C33.6405 117.975 33.4566 118.649 32.2937 119.935C31.1307 121.222 28.4971 120.915 28.4971 120.915L28.4949 120.917Z" fill="#948A81"/>
<path d="M2.46352 126.204C4.09249 127.664 4.72741 128.991 15.1105 129.722C25.4935 130.453 29.2859 129.124 31.8811 127.127C34.4764 125.13 34.2113 124.198 35.7419 121.537C37.2725 118.875 38.3371 119.025 38.3371 119.025C38.3371 119.025 38.8203 119.869 38.3371 120.746C37.854 121.622 36.4067 124.466 34.2775 126.828C32.1483 129.19 29.6515 131.12 24.4268 131.319C19.2021 131.518 11.316 131.02 8.45351 129.987C5.59105 128.955 4.85565 128.32 3.91931 127.634C2.98298 126.947 2.46138 126.201 2.46138 126.201L2.46352 126.204Z" fill="#948A81"/>
<path d="M34.7414 114.386C33.2984 114.268 31.3659 114.11 29.5744 116.361C27.783 118.612 28.5868 120.594 28.8861 120.771C29.1854 120.949 30.8143 121.163 31.7336 120.151C32.6528 119.14 31.3231 116.859 31.0901 116.088C30.8571 115.316 34.7414 114.388 34.7414 114.388V114.386Z" fill="#554E48"/>
<path d="M6.91424 101.959C6.91424 101.959 5.86034 103.169 7.45724 105.298C9.05414 107.428 12.4489 111.222 19.5698 109.957C26.6906 108.691 28.7535 101.371 29.087 97.5105C29.4205 93.6497 27.7188 88.2284 22.2462 85.8811C16.7736 83.5339 14.4455 86.4305 13.5477 88.2776C12.6477 90.1224 6.91424 101.957 6.91424 101.957V101.959Z" fill="#BFB6AD"/>
<path d="M20.6194 87.1788C18.3298 86.8667 14.9287 86.5802 10.1871 82.1379C5.44561 77.6957 3.99835 66.5153 3.69907 65.9146C3.69907 65.9146 3.22448 66.3784 2.91878 66.8637C2.32663 67.8 1.67033 72.5523 1.60406 77.6444C1.53779 82.7365 1.78363 95.1569 6.91851 101.957C12.0534 108.757 16.9125 107.825 19.4415 107.094C21.9704 106.363 25.2989 103.567 25.4977 96.8457C25.6965 90.1246 22.4429 87.4268 20.6236 87.1788H20.6194Z" fill="#D1C7C0"/>
<path d="M18.2337 80.8553C17.1734 84.0684 18.6378 86.3301 23.4306 87.0634C28.2234 87.7945 29.4206 79.0767 28.155 75.5494C26.8895 72.0221 20.4527 71.1414 19.5121 73.0119C18.5715 74.8824 18.2337 80.8553 18.2337 80.8553Z" fill="#BFB6AD"/>
<path d="M25.4208 74.5168C23.4241 73.418 19.1657 71.7206 18.4667 69.8757C18.4667 69.8757 17.8168 69.7261 17.5175 71.4983C17.2182 73.2705 17.0408 77.2894 18.4667 81.6055C19.8926 85.9217 22.7593 85.7485 23.159 85.7485C23.5588 85.7485 25.6538 84.6005 26.7035 80.3571C27.751 76.1137 25.4229 74.5168 25.4229 74.5168H25.4208Z" fill="#D1C7C0"/>
<path d="M42.3327 89.4748C42.5315 86.3793 43.4806 84.5836 45.5265 82.8862C47.5723 81.1888 49.7186 79.5791 49.7186 79.5791C49.7186 79.5791 48.8208 81.1888 48.8208 83.4356C48.8208 85.6824 48.3718 87.8779 47.0229 89.2268C45.6761 90.5736 42.3305 89.4769 42.3305 89.4769L42.3327 89.4748Z" fill="#948A81"/>
<path d="M43.4805 88.5597C43.4805 88.5597 43.6964 87.0783 44.8786 85.398C46.0608 83.7177 47.042 83.1021 47.042 83.1021C47.042 83.1021 47.6406 85.8811 46.9415 87.4951C46.2425 89.1091 44.0641 89.1925 43.4805 88.5597Z" fill="#554E48"/>
<path d="M48.4723 77.0202C44.6029 77.544 40.4108 82.0867 39.7866 84.5066C39.1624 86.9266 40.336 88.3759 41.0094 88.7992L41.6828 89.2225C41.6828 89.2225 41.5802 86.3515 44.0407 83.457C46.5013 80.5625 48.3974 80.137 49.2461 78.9143C50.0948 77.6915 48.4723 77.0181 48.4723 77.0181V77.0202Z" fill="#CFC5BC"/>
<path d="M26.2439 121.081C26.2439 121.081 24.0078 118.018 25.3866 114.328C26.7655 110.639 31.0517 110.179 32.7661 110.211C34.4806 110.241 36.4409 110.568 36.4409 110.568C36.4409 110.568 35.8317 113.12 34.7436 113.396C33.6554 113.672 29.8224 113.648 28.4479 116.4C27.0712 119.153 28.0823 121.541 28.0823 121.541C28.0823 121.541 27.1952 121.909 26.246 121.081H26.2439Z" fill="#CFC5BC"/>
<path d="M60.0759 44.1008C66.5383 52.7331 68.0369 65.1513 66.5383 77.811C65.0419 90.4708 57.3118 98.9299 56.8244 99.7294C56.337 100.529 57.8142 102.94 61.3457 101.807C61.3457 101.807 61.893 101.628 61.9037 102.104C61.9144 102.583 61.2816 103.951 64.0756 104.214C66.8718 104.477 71.2307 95.1611 71.4958 73.6638C71.763 52.1666 60.0738 44.1008 60.0738 44.1008H60.0759Z" fill="#BFB6AD"/>
<path d="M60.076 44.1008C65.3754 51.3691 67.4683 59.9479 66.8868 74.1597C66.3054 88.3715 56.8244 99.7272 56.8244 99.7272C56.8244 99.7272 56.3199 100.542 57.2327 101.181C58.1456 101.82 58.4983 101.951 58.4983 101.951C58.4983 101.951 56.9206 101.484 58.9173 99.0218C60.9139 96.5591 67.6522 86.2295 68.0113 73.0246C68.3683 59.8197 65.3241 52.6988 64.1185 50.1036C62.9128 47.5083 60.076 44.0986 60.076 44.0986V44.1008Z" fill="#948A81"/>
<path d="M55.1336 43.4744C55.1336 43.4744 56.1811 42.1511 56.1811 40.9796C56.1811 39.8081 54.6077 34.4659 54.4581 30.6714C54.3084 26.8769 58.5006 26.304 60.5229 27.7769C62.5452 29.2498 61.9445 35.6139 60.2728 38.7842C58.601 41.9544 55.1315 43.4765 55.1315 43.4765L55.1336 43.4744Z" fill="#948A81"/>
<path d="M3.04713 67.4089C1.93122 71.8384 1.39891 85.5777 4.69532 94.0646C7.9896 102.549 12.5323 105.245 15.0271 105.844C17.5219 106.442 21.2159 104.595 21.5665 102.898C21.9149 101.2 11.9487 99.1033 6.57442 86.4264C1.20011 73.7474 3.04713 67.4089 3.04713 67.4089Z" fill="#E2DBD5"/>
<path d="M18.022 70.6775C17.7227 72.0008 17.6222 76.0433 18.7467 79.8378C19.869 83.6323 21.6669 84.8786 22.5904 85.1287C23.5139 85.3788 25.0616 83.3565 24.9868 82.4586C24.912 81.5608 22.6652 81.0328 20.4954 77.9138C18.3234 74.797 18.0241 70.6775 18.0241 70.6775H18.022Z" fill="#E2DBD5"/>
<path d="M12.6008 109.441C18.7041 110.886 26.8511 108.706 28.4587 100.903C30.0663 93.1004 28.6319 89.7163 24.9891 87.1061C24.9891 87.1061 29.6067 87.8223 30.6392 81.1674C31.6717 74.5126 25.3611 71.415 23.296 71.2996C23.296 71.2996 29.1471 72.2166 31.5584 77.0373C33.9677 81.8558 32.4755 86.6764 30.6413 88.3973C30.6413 88.3973 34.7715 93.6754 31.5584 101.938C28.3454 110.2 21.806 110.429 18.8217 110.429C15.8374 110.429 12.603 109.444 12.603 109.444L12.6008 109.441Z" fill="#B0A79C"/>
<path d="M4.2464 113.524C4.2464 113.524 9.63995 115.13 13.9988 115.705C18.3598 116.278 22.1458 115.934 22.1458 115.934C22.1458 115.934 19.1615 117.77 11.5896 116.851C4.01766 115.931 2.18132 114.67 2.18132 114.67L4.2464 113.522V113.524Z" fill="#B0A79C"/>
<path d="M22.7208 67.627C22.6054 50.1851 21.1154 51.6772 24.213 45.9395C27.3106 40.2017 38.0977 36.6445 45.0967 37.9079C52.0957 39.1692 51.5227 41.6939 51.294 44.5628C51.0653 47.4316 58.8681 44.2186 58.8681 44.2186C58.8681 44.2186 64.8345 47.7758 64.95 66.9386C65.0654 86.1014 57.6068 95.9693 54.7379 99.0669C54.7379 99.0669 56.3434 82.6575 53.4767 76.4623C50.6099 70.2671 40.0516 75.8894 38.7881 83.1171C37.5269 90.347 47.3947 94.133 50.952 92.6408C54.5092 91.1487 54.5092 90.8045 54.5092 90.8045C54.5092 90.8045 53.9363 100.788 48.4273 105.95C42.9204 111.113 41.4283 112.605 40.7399 114.326C40.0516 116.047 44.4126 104.802 39.5919 104.802C34.7713 104.802 30.1837 107.556 30.1837 107.556C30.1837 107.556 37.5269 101.13 34.4293 89.6565C34.4293 89.6565 37.2982 81.3941 33.6255 75.1989C29.9528 69.0016 22.7251 67.6249 22.7251 67.6249L22.7208 67.627Z" fill="url(#paint1_linear_191_1834)"/>
<path d="M2.75425 115.936C0.689177 116.74 0.344999 120.641 2.75425 123.623C5.16349 126.605 17.0986 127.296 21.8016 126.492C26.5068 125.688 24.555 118.689 23.6379 118.001C22.7208 117.312 19.6211 118.23 12.1625 118.001C4.70388 117.772 2.75425 115.936 2.75425 115.936Z" fill="url(#paint2_linear_191_1834)"/>
<path d="M6.31146 104.46C4.01552 106.066 2.86966 109.739 3.32714 110.887C3.78462 112.035 7.68816 114.444 15.0313 114.559C22.3745 114.675 24.7838 111.919 24.7838 111.919C24.7838 111.919 18.8173 113.525 11.9316 110.427C5.0459 107.329 6.30932 104.46 6.30932 104.46H6.31146Z" fill="url(#paint3_linear_191_1834)"/>
<path d="M70.2559 61.6541C73.0927 75.3164 74.8136 92.5275 75.0445 98.6094C75.2732 104.691 78.9459 107.673 82.2743 105.953C85.6028 104.232 86.9795 82.6596 86.9795 82.6596C86.9795 82.6596 86.1758 95.856 86.9795 102.511C87.7833 109.166 92.5911 112.768 92.5911 112.768L92.6018 113.64C92.6018 113.64 81.2418 108.591 74.1274 105.953C67.0129 103.312 64.95 104.221 64.95 104.221C64.95 104.221 68.8493 99.6419 70.1127 88.9703C71.3761 78.2986 70.258 61.6541 70.258 61.6541H70.2559Z" fill="#B0A79C"/>
<path d="M60.4863 102.021C60.4863 102.021 65.6362 94.477 67.8167 84.9534C69.9972 75.4297 69.078 67.054 69.078 67.054C69.078 67.054 70.7989 76.0047 68.8492 86.6764C66.8996 97.3481 62.9982 102.282 62.6519 102.97C62.3056 103.659 62.9961 104.003 62.9961 104.003C62.9961 104.003 61.5039 104.003 61.6194 102.97C61.7348 101.938 61.6194 101.938 61.2752 101.938C60.931 101.938 60.4863 102.023 60.4863 102.023V102.021Z" fill="#B0A79C"/>
<defs>
<linearGradient id="paint0_linear_191_1834" x1="126.667" y1="32.3924" x2="126.002" y2="71.6822" gradientUnits="userSpaceOnUse">
<stop offset="0.2" stop-color="#CFC5BC"/>
<stop offset="1" stop-color="#BFB6AD"/>
</linearGradient>
<linearGradient id="paint1_linear_191_1834" x1="43.6088" y1="59.8114" x2="43.0615" y2="92.1171" gradientUnits="userSpaceOnUse">
<stop offset="0.2" stop-color="#CFC5BC"/>
<stop offset="1" stop-color="#BFB6AD"/>
</linearGradient>
<linearGradient id="paint2_linear_191_1834" x1="3.00009" y1="115.632" x2="18.2807" y2="123.627" gradientUnits="userSpaceOnUse">
<stop offset="0.2" stop-color="#CFC5BC"/>
<stop offset="1" stop-color="#BFB6AD"/>
</linearGradient>
<linearGradient id="paint3_linear_191_1834" x1="14.0672" y1="107.458" x2="13.9967" y2="111.637" gradientUnits="userSpaceOnUse">
<stop offset="0.2" stop-color="#CFC5BC"/>
<stop offset="1" stop-color="#BFB6AD"/>
</linearGradient>
</defs>
</svg>
