<svg width="191" height="194" viewBox="0 0 191 194" fill="none" xmlns="http://www.w3.org/2000/svg">
<path d="M21.7493 3.60464C20.0973 2.83827 15.1303 9.37779 16.8441 17.2579C17.3741 19.7006 21.0227 21.5889 23.2688 22.1101C23.8143 21.3415 24.4194 20.6679 25.2631 20.0782C25.8484 19.6696 26.5463 19.303 27.3259 18.9872C22.1292 13.8391 23.3836 4.36217 21.7493 3.60243V3.60464Z" fill="#F3F3F3"/>
<path d="M22.9814 7.3347C22.6767 5.20786 22.4757 3.80101 21.8087 3.49182C21.25 3.23342 20.3842 3.67513 19.4986 4.68444C17.3651 7.11384 15.5806 12.0941 16.7092 17.2842C17.2458 19.7512 20.9209 21.6969 23.2354 22.2336L23.3282 22.2557L23.3812 22.1806C23.9952 21.317 24.6003 20.6986 25.3446 20.1796C25.921 19.7777 26.6057 19.4155 27.3787 19.1041L27.5553 19.0334L27.4228 18.9031C24.1741 15.6852 23.4563 10.6608 22.9792 7.3347H22.9814ZM25.1834 19.9787C24.4347 20.4999 23.8229 21.1161 23.2111 21.9663C20.9584 21.4142 17.4844 19.5612 16.9764 17.2334C15.8655 12.1228 17.6147 7.22869 19.7106 4.84345C20.3665 4.09696 21.0026 3.67071 21.4575 3.67071C21.5437 3.67071 21.621 3.68617 21.6894 3.7193C22.2283 3.96886 22.4426 5.47068 22.7142 7.37003C23.1868 10.6829 23.9002 15.6676 27.0982 18.9473C26.376 19.252 25.7311 19.5988 25.1834 19.9809V19.9787Z" fill="#5E5E5E"/>
<path d="M85.4108 50.2533C91.6787 50.2533 94.4062 47.6627 94.4062 47.6627C94.2649 43.6232 93.9998 39.1333 92.6283 33.952C92.6018 33.8504 91.0271 36.5956 84.5163 37.2008C89.7263 34.0183 91.4247 30.383 91.4247 30.383C90.5125 28.1479 89.3177 25.9239 87.9109 23.7794C87.9109 23.7794 85.3313 29.0137 77.4004 31.7435C84.1099 27.1165 85.6007 20.5638 85.6007 20.5638C83.9951 18.5098 82.215 16.5729 80.3333 14.8193C80.3333 14.8193 79.9888 18.3044 76.8239 20.7316C78.5069 16.3697 77.4666 12.3502 77.4666 12.3502C75.2581 10.601 72.97 9.13011 70.7107 8.0413C68.2238 6.83985 65.726 5.99618 63.2347 5.43742C63.2347 5.43742 64.244 9.30017 59.7717 13.1718C60.9091 7.41186 58.8905 4.73731 58.8905 4.73731C55.2133 4.36627 51.5692 4.53191 48.0068 5.00454C48.0068 5.00454 51.0237 10.7468 48.5611 15.6166C48.3381 8.83196 44.9899 5.47496 44.9899 5.47496C38.0418 6.71617 31.4714 8.89159 25.654 10.2013C25.654 10.2013 26.2592 14.5013 24.5718 17.0986C25.2653 13.4235 23.7127 10.5679 23.7127 10.5679C19.85 11.1222 14.4191 11.4844 9.84303 3.54248C7.76257 11.8687 14.2182 17.7589 14.2182 17.7589C10.6337 16.3874 7.76035 11.8687 7.76035 11.8687C5.8345 18.9361 13.6903 23.7441 13.6903 23.7441C10.9495 23.6469 8.52674 22.7635 8.52674 22.7635C10.8457 26.2972 15.3776 29.0446 19.9626 27.4743C19.9626 27.4743 24.2958 19.1481 32.0677 18.9339C41.8847 18.6622 55.2309 22.5272 66.4901 30.0252C83.8803 41.6068 83.9863 58.2924 88.4564 62.9967C90.1216 64.7502 97.2641 68.1514 100.948 67.7472C95.0909 62.153 94.7021 56.5985 94.4747 49.7873C94.4747 49.7873 89.7241 51.5277 85.4108 50.2533Z" fill="#BCBCBC"/>
<path d="M85.5983 20.5662C83.9927 18.5123 82.2126 16.5754 80.3309 14.8218C80.3309 14.8218 79.9864 18.3069 76.8215 20.7341C78.5044 16.3722 77.4642 12.3526 77.4642 12.3526C75.2557 10.6034 72.9676 9.13255 70.7083 8.04374C68.2214 6.84229 65.7236 5.99862 63.2323 5.43986C63.2323 5.43986 64.2416 9.30261 59.7693 13.1742C60.9067 7.4143 58.8881 4.73975 58.8881 4.73975C55.2108 4.36871 51.5668 4.53435 48.0044 5.00698C48.0044 5.00698 51.0213 10.7492 48.5587 15.6191C48.3357 8.8344 44.9875 5.4774 44.9875 5.4774C38.0394 6.71861 31.4689 8.89403 25.6516 10.2037C25.6516 10.2037 26.2568 14.5037 24.5694 17.101C25.2629 13.426 23.7103 10.5703 23.7103 10.5703C19.8476 11.1247 14.4167 11.4869 9.84061 3.54492C7.76015 11.8712 14.2158 17.7614 14.2158 17.7614C10.6313 16.3898 7.75796 11.8712 7.75796 11.8712C5.8321 18.9385 13.6879 23.7465 13.6879 23.7465C10.9471 23.6494 8.52432 22.7659 8.52432 22.7659C10.8433 26.2996 15.3752 29.0471 19.9602 27.4768C19.9602 27.4768 20.4748 17.6355 31.8753 16.5975C42.1473 15.6632 58.4221 17.4301 69.6791 24.9281C72.8064 27.0108 75.3661 29.301 77.4753 31.6863C84.1142 27.0638 85.5939 20.5662 85.5939 20.5662H85.5983Z" fill="#F3F3F3"/>
<path d="M85.4105 50.2534C85.9361 50.408 86.4661 50.5185 86.994 50.5935C86.9587 50.4632 86.9233 50.3329 86.888 50.2026C86.4176 50.2358 85.9251 50.2534 85.4083 50.2534H85.4105Z" fill="#F3F3F3"/>
<path d="M77.3979 31.7435C77.4334 31.7324 77.4644 31.7191 77.4999 31.7058C77.4933 31.6991 77.4866 31.6902 77.48 31.6836C77.4511 31.7036 77.4245 31.7235 77.3979 31.7435Z" fill="#F3F3F3"/>
<path d="M86.9964 50.5935C88.0962 54.7212 88.7014 58.16 89.6577 60.1432C91.0093 62.9459 97.2662 68.1536 100.95 67.7495C95.0929 62.1552 94.7042 56.6007 94.4767 49.7896C94.4767 49.7896 90.8105 51.1301 86.9964 50.5935Z" fill="#F3F3F3"/>
<path d="M92.6282 33.9524C92.6017 33.8508 91.027 36.596 84.5162 37.2011C89.7261 34.0186 91.4245 30.3834 91.4245 30.3834C90.5124 28.1483 89.3175 25.9243 87.9107 23.7798C87.9107 23.7798 85.351 28.9677 77.5018 31.7063C82.9238 37.8438 85.3775 44.6197 86.8926 50.2007C92.1092 49.8407 94.4083 47.6608 94.4083 47.6608C94.2669 43.6214 94.0019 39.1314 92.6304 33.9502L92.6282 33.9524Z" fill="#F3F3F3"/>
<path d="M77.4003 31.7459C77.4358 31.7326 77.4713 31.7215 77.5068 31.7082C77.4979 31.6993 77.4935 31.6927 77.4846 31.686C77.458 31.7082 77.4269 31.726 77.4003 31.7459Z" fill="#F3F3F3"/>
<path d="M25.6542 10.2037C25.6542 10.2037 26.2594 14.5037 24.572 17.101C25.2655 13.426 23.7129 10.5703 23.7129 10.5703C19.8502 11.1247 14.4193 11.4869 9.84322 3.54492C9.64224 14.5015 20.6143 21.2487 20.6143 21.2487C8.16693 19.738 7.76275 11.8712 7.76275 11.8712C5.8369 18.9385 13.6927 23.7465 13.6927 23.7465C10.9519 23.6494 8.52914 22.7659 8.52914 22.7659C10.8481 26.2996 15.38 29.0471 19.965 27.4768C19.965 27.4768 23.0194 21.6153 28.5938 19.6033C29.5788 16.1734 30.0029 12.5646 28.2713 9.57427C27.3835 9.79954 26.5111 10.0116 25.6564 10.2037H25.6542Z" fill="#2E292B"/>
<path d="M94.6113 49.7852L94.6047 49.6063L94.4258 49.6726C94.3993 49.6814 91.8705 50.5958 88.8735 50.5958C87.9923 50.5958 87.1531 50.5163 86.3713 50.3617C91.9434 50.1231 94.3971 47.855 94.5031 47.7534L94.5429 47.7158V47.6628C94.4038 43.7537 94.1409 39.1466 92.7584 33.9256L92.7297 33.8262H92.6237C92.5508 33.8262 92.5177 33.8638 92.4359 33.9565C91.0423 35.5467 88.4318 36.6267 85.0483 37.022C89.874 33.9256 91.5282 30.4737 91.5459 30.4383L91.568 30.3919L91.5481 30.3434C90.6514 28.1503 89.4654 25.9218 88.0233 23.7199L87.8907 23.5189L87.7847 23.7332C87.7604 23.784 85.3288 28.5633 78.2239 31.3107C84.2687 26.7522 85.7153 20.6589 85.7308 20.5948L85.744 20.5396L85.7087 20.4932C84.1053 18.4437 82.3296 16.5068 80.428 14.7333L80.2249 14.5434L80.1984 14.8106C80.1962 14.8437 79.8538 17.9887 77.113 20.332C78.5596 16.1556 77.6077 12.3635 77.5967 12.3238L77.5856 12.284L77.5525 12.2575C75.2954 10.4686 73.014 9.01317 70.7723 7.93098C68.3826 6.77812 65.856 5.8969 63.2676 5.31605L63.0534 5.26747L63.1042 5.46845C63.113 5.50599 63.9964 9.13243 59.9769 12.8163C60.9553 7.33025 59.0846 4.77275 59.0029 4.66453L58.9676 4.61815L58.9057 4.61153C57.5674 4.4768 56.176 4.40834 54.7669 4.40834C52.6003 4.40834 50.3829 4.56294 47.9866 4.88097L47.8033 4.90526L47.8851 5.05986C47.9138 5.11508 50.6413 10.4156 48.6691 15.0624C48.2892 8.67305 45.1199 5.42427 45.0868 5.39115L45.036 5.34035L44.9632 5.3536C40.7161 6.11113 36.6612 7.20437 32.7366 8.26226C30.241 8.93587 27.8844 9.56972 25.6207 10.0799L25.5036 10.1064L25.5191 10.219C25.5257 10.2588 26.0072 13.8389 24.8168 16.3809C25.1922 13.0637 23.8472 10.5371 23.8339 10.5106L23.7898 10.4288L23.6926 10.4421C22.8224 10.568 21.7888 10.6939 20.7111 10.6939C17.8819 10.6939 13.6879 9.94518 9.96427 3.48075L9.7942 3.18701L9.71249 3.51167C7.97215 10.4752 12.2148 15.8045 13.6636 17.3747C10.4457 15.7934 7.90809 11.8445 7.88159 11.8026L7.71595 11.5398L7.63423 11.8357C5.95574 17.9953 11.6825 22.5008 13.2395 23.5918C10.7461 23.4218 8.60159 22.651 8.5795 22.6421L8.20403 22.5052L8.41386 22.8254C10.4965 25.9991 13.9706 28.0487 17.2657 28.0487C18.1955 28.0487 19.1187 27.8941 20.011 27.5893L20.0618 27.5716L20.086 27.5252C20.128 27.4435 24.4744 19.2653 32.0741 19.0554C32.3943 19.0466 32.719 19.0422 33.0458 19.0422C43.3642 19.0422 56.1495 23.287 66.4126 30.1225C78.3101 38.0468 82.027 48.1884 84.7414 55.5937C85.9671 58.9375 86.9344 61.5789 88.3567 63.0741C89.8674 64.6642 96.3539 67.902 100.309 67.8998C100.541 67.8998 100.76 67.8887 100.965 67.8666L101.239 67.8357L101.047 67.6524C95.4351 62.29 94.8565 57.0933 94.6136 49.7764L94.6113 49.7852ZM100.307 67.6546C96.4179 67.6546 90.0419 64.4743 88.5577 62.9128C87.173 61.4552 86.2123 58.8359 84.9975 55.5186C82.2722 48.0824 78.5375 37.8944 66.5694 29.9237C56.2643 23.0596 43.4172 18.797 33.0458 18.797C32.7145 18.797 32.3899 18.8015 32.0652 18.8103C24.6047 19.0157 20.234 26.7015 19.8674 27.3751C19.0215 27.66 18.1469 27.8035 17.2657 27.8035C14.1693 27.8035 10.9051 25.9329 8.85336 23.0065C9.64181 23.2561 11.5831 23.7972 13.6879 23.8723L14.1737 23.89L13.7674 23.6404C13.6901 23.594 6.23401 18.9362 7.81974 12.1957C8.49556 13.1895 11.042 16.679 14.1693 17.8783L14.812 18.1234L14.3151 17.6707C14.2511 17.6133 8.10466 11.8931 9.898 3.90037C12.7514 8.70618 16.1946 10.9501 20.7111 10.9501C21.7667 10.9501 22.776 10.8308 23.6352 10.7093C23.8759 11.1996 25.0531 13.8322 24.4413 17.081L24.3154 17.7436L24.6887 17.1671C26.2479 14.7664 25.8901 11.0119 25.804 10.3008C28.0368 9.795 30.358 9.16777 32.8139 8.50741C36.7076 7.45835 40.7316 6.37174 44.9389 5.61642C45.3497 6.06475 48.2207 9.41733 48.4261 15.6234L48.4438 16.149L48.6846 15.6742C50.9196 11.2548 48.6647 6.06917 48.2075 5.11066C50.5221 4.8103 52.671 4.66453 54.7691 4.66453C56.1451 4.66453 57.5055 4.73079 58.8152 4.85888C59.0669 5.23655 60.6748 7.92214 59.6412 13.152L59.5683 13.5252L59.8687 13.2668C63.7756 9.88334 63.5393 6.45567 63.4068 5.60758C65.9046 6.18401 68.3406 7.04093 70.6508 8.15404C72.8638 9.22298 75.1165 10.6585 77.3471 12.421C77.4465 12.845 78.2615 16.6393 76.7 20.6898L76.5344 21.1204L76.9142 20.8289C79.591 18.7772 80.2823 15.948 80.4347 15.0889C82.2391 16.7895 83.9286 18.6402 85.4591 20.5926C85.2957 21.2287 83.5929 27.3198 77.3228 31.642L76.5609 32.1676L77.4509 31.8606C84.4542 29.4511 87.343 25.0384 87.9239 24.0357C89.291 26.1449 90.4195 28.2784 91.2809 30.3765C91.0622 30.8049 89.2446 34.1619 84.4454 37.0927L83.9838 37.3754L84.5337 37.3246C88.1823 36.9845 91.0247 35.8802 92.5618 34.2105C93.8781 39.288 94.1387 43.7824 94.2735 47.6076C93.9135 47.919 91.1417 50.1231 85.415 50.1231H84.5404L85.373 50.3705C86.4353 50.6841 87.6125 50.8431 88.878 50.8431C91.4642 50.8431 93.7147 50.1717 94.3508 49.9641C94.5959 57.164 95.2054 62.3276 100.658 67.6436C100.546 67.6502 100.431 67.6524 100.312 67.6524L100.307 67.6546Z" fill="#5E5E5E"/>
<path d="M48.0069 5.00431C48.0069 5.00431 51.0216 10.7465 48.559 15.6164C48.3382 8.83393 44.9878 5.47694 44.9878 5.47694C44.0668 5.64037 43.1547 5.82147 42.247 6.01582C44.0403 12.6039 41.6706 16.4093 38.7177 19.3113C41.58 19.6912 44.5969 20.3361 47.6778 21.246C51.852 16.0095 52.8061 9.1608 50.4253 4.73486C49.6147 4.80775 48.8064 4.8983 48.0069 5.00431Z" fill="#171516"/>
<path d="M48.0043 5.00431C48.0043 5.00431 51.019 10.7465 48.5587 15.6164C48.3378 8.83393 44.9874 5.47914 44.9874 5.47914C44.0643 5.64258 43.1565 5.82368 42.2466 6.01803C43.5143 10.6692 42.7038 13.9357 41.0783 16.4733C43.9362 16.6345 46.953 16.9702 50.0008 17.5202C52.1122 13.0567 52.2712 8.16695 50.4249 4.73486C49.6166 4.80775 48.806 4.8983 48.0065 5.00431H48.0043Z" fill="#2E292B"/>
<path d="M76.8215 20.7319C78.5044 16.3678 77.462 12.3504 77.462 12.3504C75.2556 10.6013 72.9654 9.13037 70.706 8.04155C70.494 7.93775 70.2864 7.84057 70.0744 7.74561C72.0091 16.9376 66.8631 23.2143 60.5047 26.4763C62.5388 27.5475 64.5464 28.7313 66.4855 30.0233C68.4135 31.3064 70.1296 32.6514 71.6579 34.0362C79.3415 29.0493 81.8393 25.3367 84.0965 18.7398C82.9083 17.3572 81.6406 16.0453 80.3287 14.8174C80.3287 14.8174 79.9864 18.3047 76.8193 20.7297L76.8215 20.7319Z" fill="#171516"/>
<path d="M76.8217 20.7319C78.5046 16.37 77.4644 12.3504 77.4644 12.3504C75.2558 10.6013 72.9677 9.13037 70.7084 8.04376C70.4964 7.93996 70.2888 7.84278 70.0789 7.74561C71.424 14.1394 69.3435 19.1196 65.8142 22.6577C67.157 23.349 68.4534 24.1021 69.6858 24.9237C72.3162 26.6751 74.5424 28.5722 76.4396 30.5489C80.5519 27.0638 82.396 23.7267 84.101 18.7442C82.9128 17.3616 81.6473 16.0475 80.3333 14.8196C80.3333 14.8196 79.9887 18.3047 76.8239 20.7319H76.8217Z" fill="#2E292B"/>
<path d="M85.4104 50.2554C91.6782 50.2554 94.4058 47.6626 94.4058 47.6626C94.3153 45.1249 94.1783 42.4062 93.7477 39.4512C90.3134 43.2256 84.6617 45.0719 80.503 45.3855C82.102 48.3472 83.2504 51.2117 84.2111 53.7802C87.2943 54.2352 91.6274 54.0144 94.5869 52.4352C94.5339 51.5739 94.503 50.6927 94.472 49.7872C94.472 49.7872 89.7215 51.5275 85.4082 50.2554H85.4104Z" fill="#171516"/>
<path d="M85.0816 44.5286C85.8259 46.5053 86.4067 48.4179 86.8926 50.2046C92.1114 49.8446 94.4061 47.6648 94.4061 47.6648C94.3133 45.1271 94.1786 42.4062 93.7479 39.4512C91.4731 41.9513 88.2244 43.6055 85.0816 44.5286Z" fill="#2E292B"/>
<path d="M86.9964 50.5937C87.3122 51.7863 87.5883 52.9193 87.8445 53.9772C90.1966 53.9065 92.679 53.4538 94.5894 52.4334C94.5364 51.5743 94.5032 50.6931 94.4723 49.7876C94.4723 49.7876 90.8083 51.1304 86.9964 50.5937Z" fill="#2E292B"/>
<path d="M91.4202 64.9955C92.5819 65.6117 93.9446 66.2213 95.3205 66.7138C96.2127 65.8171 97.0696 64.8586 97.7918 64.0039C96.9614 62.7339 96.3497 61.4508 95.8947 60.1411C94.5011 62.3143 92.7409 63.9531 91.4202 64.9955Z" fill="#2E292B"/>
<path d="M77.1838 123.491C62.3026 118.588 52.5805 109.034 48.5035 98.7861C45.4579 111.684 50.2549 124.679 52.755 130.267C55.4892 136.373 59.8223 145.289 59.5927 146.776C59.4822 147.5 58.8462 149.384 59.3342 151.361C59.851 153.441 61.5031 155.621 61.64 156.507C61.9028 158.231 61.64 173.521 60.4474 175.617C59.2547 177.713 54.7118 178.351 51.8406 181.905C51.5005 182.325 51.1825 182.815 50.8932 183.34C49.6718 185.545 48.9761 188.361 49.7248 189.058C50.6502 189.92 59.2216 190.763 62.3025 187.95C62.3997 187.859 62.4947 187.755 62.5786 187.643C64.0473 185.763 64.129 180.957 65.876 179.562C67.7289 178.082 69.1999 178.446 69.0673 176.967C68.9326 175.487 66.9118 174.807 66.9118 172.585C66.9118 170.363 67.1989 157.739 67.5986 156.261C67.9962 154.782 69.403 152.408 69.4538 150.928C69.551 148.132 68.5748 147.569 68.7957 146.396C69.1579 144.47 74.1426 132.864 77.1838 123.493V123.491Z" fill="#BCBCBC"/>
<path d="M65.0632 151.946C65.1603 149.15 63.3846 147.039 63.6077 145.864C63.8197 144.735 64.575 132.478 63.4973 123.469C62.7353 117.104 60.7587 114.898 58.7666 113.12C53.9806 108.844 50.5397 103.901 48.5057 98.7861C45.4601 111.684 50.257 124.679 52.7571 130.267C55.4913 136.373 59.8245 145.289 59.5948 146.776C59.4844 147.5 58.8483 149.384 59.3364 151.361C59.8532 153.441 61.5052 155.621 61.6421 156.507C61.9049 158.231 61.6421 173.521 60.4495 175.617C59.2569 177.713 54.7139 178.351 51.8428 181.905C51.5027 182.325 51.1846 182.815 50.8953 183.34C49.674 185.545 48.9783 188.361 49.727 189.058C50.6523 189.92 58.009 189.136 60.127 185.836C61.2843 184.032 61.2954 180.569 61.9712 178.744C62.9429 176.125 64.6656 174.343 64.6656 173.035C64.6656 170.816 63.5547 158.556 63.9545 157.076C64.352 155.597 65.0124 153.426 65.0654 151.948L65.0632 151.946Z" fill="#F3F3F3"/>
<path d="M48.0532 114.467C48.6981 118.789 49.8355 122.694 50.9531 125.797C59.5819 124.863 62.6782 131.431 73.9948 132.48C74.3813 131.459 74.7679 130.424 75.1411 129.383C65.1121 128.396 56.5053 114.228 48.0554 114.467H48.0532Z" fill="#171516"/>
<path d="M63.4954 123.472C58.1198 119.238 53.0578 114.328 48.0532 114.467C48.6981 118.789 49.8377 122.692 50.9508 125.797C56.3242 125.214 59.5532 127.544 63.9614 129.636C63.8775 127.526 63.7317 125.424 63.4954 123.474V123.472Z" fill="#2E292B"/>
<path d="M56.1958 137.82C57.2626 140.174 58.2388 142.401 58.8726 144.07C61.6532 140.766 67.3291 144.318 69.1335 145.236C69.5244 144.099 70.1936 142.354 71.0152 140.236C66.8808 136.654 58.9632 134.779 56.1936 137.82H56.1958Z" fill="#171516"/>
<path d="M56.1958 137.823C57.2625 140.177 58.2387 142.401 58.8725 144.073C60.1424 142.567 62.0109 142.485 63.844 142.929C63.9323 141.312 64.0207 139.161 64.0494 136.756C60.8646 135.959 57.7329 136.131 56.1958 137.823Z" fill="#2E292B"/>
<path d="M61.653 156.637C61.7215 157.251 61.7458 158.786 61.7237 160.736C63.9079 159.963 66.0988 160.036 67.2671 160.161C67.3356 158.788 67.4107 157.633 67.4924 156.911C65.306 155.736 62.9715 156.191 61.6508 156.634L61.653 156.637Z" fill="#171516"/>
<path d="M61.7263 160.736C62.4662 160.473 63.2039 160.31 63.904 160.213C63.8443 158.656 63.8421 157.476 63.9503 157.079C64.0254 156.796 64.1138 156.491 64.1999 156.169C63.195 156.2 62.3028 156.419 61.6534 156.637C61.7219 157.251 61.7484 158.786 61.7263 160.738V160.736Z" fill="#2E292B"/>
<path d="M66.9516 169.833C65.0081 168.789 62.6913 169.314 61.3684 169.78C61.2536 171.37 61.1034 172.81 60.9223 173.888C63.2412 172.755 65.6221 172.985 66.9847 173.274C66.9384 173.062 66.9141 172.835 66.9141 172.587C66.9141 172.097 66.9295 171.103 66.9538 169.835L66.9516 169.833Z" fill="#171516"/>
<path d="M61.3663 169.78C61.2514 171.37 61.1035 172.808 60.9201 173.886C62.2121 173.256 63.5196 173.047 64.6614 173.038C64.6614 172.411 64.5731 170.986 64.456 169.23C63.2678 169.213 62.1437 169.509 61.3663 169.782V169.78Z" fill="#2E292B"/>
<path d="M48.6313 98.7418L48.4723 98.3398L48.3729 98.7595C45.4091 111.315 49.7688 123.919 52.6332 130.317C53.2119 131.607 53.848 132.996 54.5238 134.467C56.92 139.697 59.6388 145.623 59.4621 146.76C59.4422 146.893 59.4024 147.071 59.3561 147.279C59.1507 148.207 58.8039 149.759 59.2081 151.389C59.5085 152.593 60.1821 153.83 60.7232 154.821C61.1163 155.541 61.4564 156.164 61.5116 156.522C61.7634 158.167 61.5337 173.448 60.3345 175.555C59.8066 176.483 58.561 177.134 57.1166 177.89C55.3321 178.824 53.309 179.882 51.7366 181.827C51.4097 182.232 51.085 182.722 50.7781 183.281C49.5545 185.489 48.8036 188.371 49.634 189.144C50.1442 189.619 52.5162 190.006 54.9191 190.006C56.909 190.006 60.5266 189.75 62.4039 188.033C62.5121 187.934 62.6093 187.826 62.6954 187.713C63.3823 186.834 63.7732 185.326 64.153 183.866C64.597 182.154 65.0563 180.387 65.9729 179.654C66.6929 179.08 67.3576 178.786 67.8899 178.552C68.7071 178.192 69.299 177.932 69.2084 176.953C69.1466 176.271 68.7137 175.756 68.2543 175.213C67.6646 174.515 67.0529 173.791 67.0529 172.582C67.0529 170.372 67.3444 157.737 67.7353 156.29C67.8877 155.72 68.1947 155.013 68.5171 154.265C69.0317 153.079 69.5618 151.853 69.5949 150.93C69.6501 149.331 69.3542 148.434 69.1355 147.778C68.9655 147.266 68.844 146.897 68.9346 146.416C69.0936 145.567 70.1934 142.734 71.587 139.145C73.3892 134.503 75.6309 128.723 77.3182 123.526L77.3557 123.411L77.2343 123.372C63.4839 118.842 53.0595 109.864 48.6358 98.7418H48.6313ZM71.3264 139.061C69.8754 142.8 68.8263 145.503 68.6629 146.374C68.5613 146.915 68.6982 147.33 68.8727 147.853C69.0958 148.527 69.3741 149.366 69.3188 150.923C69.2879 151.802 68.7667 153.006 68.2609 154.172C67.9341 154.927 67.6249 155.643 67.4659 156.23C67.0617 157.726 66.7746 170.29 66.7746 172.585C66.7746 173.881 67.4438 174.672 68.0335 175.372C68.4862 175.909 68.8771 176.37 68.9324 176.977C69.0052 177.784 68.5922 177.965 67.7662 178.327C67.2185 178.568 66.5361 178.868 65.7874 179.467C64.8046 180.251 64.3342 182.059 63.8814 183.809C63.5082 185.244 63.1239 186.728 62.4679 187.57C62.3906 187.671 62.3023 187.771 62.2073 187.859C60.8866 189.065 58.2275 189.758 54.9125 189.758C52.4102 189.758 50.2215 189.343 49.8195 188.97C49.1658 188.36 49.7356 185.706 51.0122 183.398C51.3147 182.852 51.6284 182.375 51.9486 181.982C53.4857 180.08 55.4823 179.036 57.2447 178.113C58.7244 177.337 60.0032 176.67 60.5686 175.677C61.7833 173.543 62.0284 158.145 61.7744 156.491C61.7126 156.091 61.3813 155.482 60.9595 154.711C60.425 153.73 59.758 152.509 59.4665 151.334C59.0778 149.757 59.4157 148.238 59.6167 147.332C59.6631 147.12 59.705 146.937 59.7271 146.798C59.9148 145.592 57.2999 139.887 54.7689 134.37C54.0953 132.899 53.457 131.51 52.8806 130.22C50.0625 123.921 45.7845 111.582 48.5408 99.2343C53.0683 110.209 63.4176 119.058 77.0179 123.57C75.3371 128.732 73.1153 134.456 71.3286 139.061H71.3264Z" fill="#5E5E5E"/>
<path d="M50.8931 183.34C49.6718 185.545 48.9761 188.361 49.7248 189.058C50.6502 189.92 59.2216 190.763 62.3025 187.95C62.3997 187.859 62.4947 187.755 62.5786 187.643C58.2785 182.367 53.6119 182.565 50.8931 183.34Z" fill="#100F0E"/>
<path d="M50.891 183.339C49.6697 185.543 48.974 188.359 49.7249 189.057C49.7381 189.07 49.7558 189.083 49.7713 189.094C50.8734 189.894 58.0379 189.083 60.125 185.836C60.2111 185.7 60.2928 185.556 60.3657 185.404C56.7481 182.451 53.1504 182.694 50.8932 183.339H50.891Z" fill="#201E1C"/>
<path d="M53.7733 182.804C52.8037 182.804 51.8209 182.943 50.8558 183.219L50.8006 183.235L50.7741 183.281C49.5505 185.49 48.7996 188.372 49.63 189.145C50.1402 189.62 52.5122 190.006 54.9151 190.006C56.905 190.006 60.5226 189.75 62.3999 188.034C62.5081 187.934 62.6053 187.826 62.6914 187.711L62.7488 187.636L62.6892 187.563C60.1118 184.403 57.1126 182.802 53.7755 182.802L53.7733 182.804ZM62.2055 187.859C60.8848 189.065 58.2257 189.759 54.9107 189.759C52.4084 189.759 50.2197 189.343 49.8178 188.97C49.1684 188.365 49.725 185.741 50.9839 183.447C51.9071 183.188 52.8435 183.058 53.7689 183.058C56.9933 183.058 59.8976 184.602 62.4065 187.645C62.3447 187.72 62.2762 187.793 62.2033 187.859H62.2055Z" fill="#0C0B0B"/>
<path d="M158.399 83.2734C154.856 96.083 142.749 113.078 124.955 121.574C128.276 130.647 146.064 145.345 146.864 148.68C147.707 152.211 141.17 167.678 138.433 170.072C136.552 171.721 130.688 175.639 128.457 177.894C126.227 180.147 126.169 183.312 126.735 184.244C128.186 186.625 137.78 185.072 138.99 183.648C140.2 182.223 139.854 179.853 141.914 177.515C144.907 174.116 147.93 174.191 148.292 172.625C148.705 170.854 146.967 169.882 147.606 167.565C148.244 165.253 152.674 154.574 154.649 152.26C156.625 149.943 158.662 149.291 158.536 147.452C158.408 145.612 153.489 141.197 154.141 136.709C155.183 129.512 168.105 108.188 158.399 83.2801V83.2734Z" fill="#BCBCBC"/>
<path d="M143.462 135.435C134.33 121.408 125.71 123.336 126.258 124.279C131.488 133.319 146.141 145.656 146.863 148.677C147.707 152.209 141.17 167.675 138.433 170.069C136.552 171.719 130.688 175.637 128.457 177.892C126.227 180.145 126.169 183.31 126.735 184.242C128.186 186.622 133.325 183.261 134.538 181.836C135.748 180.412 136.13 179.217 138.19 176.876C141.183 173.477 143.233 173.126 143.595 171.558C144.008 169.787 144.589 168.411 145.225 166.094C145.863 163.782 147.901 155.617 149.876 153.304C151.853 150.987 151.912 149.483 151.786 147.644C151.658 145.804 145.984 139.309 143.462 135.437V135.435Z" fill="#F3F3F3"/>
<path d="M141.722 164.862C141.271 165.765 140.827 166.602 140.401 167.335C142.011 168.236 144.41 169.069 147.466 168.663C147.455 168.329 147.495 167.965 147.606 167.558C147.692 167.251 147.842 166.799 148.043 166.238C146.21 166.308 143.701 166.112 141.722 164.862Z" fill="#171516"/>
<path d="M140.401 167.335C141.435 167.912 142.793 168.461 144.441 168.674C144.686 167.92 144.949 167.097 145.225 166.096C144.028 165.913 142.795 165.544 141.72 164.864C141.267 165.767 140.823 166.602 140.399 167.335H140.401Z" fill="#2E292B"/>
<path d="M146.592 151.946C146.291 153.291 145.812 154.879 145.225 156.549C147.232 157.388 150.11 157.092 152.093 156.726C153.003 154.839 153.88 153.229 154.527 152.399C151.091 153.066 148.189 152.452 146.592 151.946Z" fill="#171516"/>
<path d="M145.227 156.551C146.033 156.889 146.981 157.041 147.955 157.083C148.566 155.469 149.227 154.066 149.876 153.304C150.066 153.081 150.238 152.867 150.393 152.659C148.805 152.553 147.493 152.233 146.594 151.948C146.294 153.298 145.815 154.881 145.227 156.553V156.551Z" fill="#2E292B"/>
<path d="M141.386 141.994C143.507 144.201 145.249 146.084 146.174 147.39V147.394C150.424 148.355 153.949 146.385 156.539 143.852C155.534 142.299 154.461 140.461 154.163 138.544C149.141 141.413 144.428 142.001 141.386 141.994Z" fill="#171516"/>
<path d="M141.384 141.994C143.504 144.198 145.249 146.084 146.175 147.39C148.158 147.84 149.984 147.648 151.632 147.063C151.131 145.791 149.47 143.542 147.683 141.188C145.231 141.824 143.056 141.996 141.384 141.994Z" fill="#2E292B"/>
<path d="M129.211 128.577C131.028 130.927 133.193 133.361 135.37 135.693C141.437 136.583 148.326 135.537 155.126 133.048V133.043C155.87 130.813 156.924 128.047 157.981 124.83C149.631 128.536 139.388 130.545 129.211 128.575V128.577Z" fill="#171516"/>
<path d="M138.652 129.333C135.538 129.419 132.371 129.191 129.211 128.58C131.03 130.932 133.195 133.363 135.37 135.696C138.016 136.084 140.821 136.104 143.701 135.797C143.619 135.673 143.54 135.554 143.462 135.437C141.826 132.922 140.205 130.918 138.652 129.333Z" fill="#2E292B"/>
<path d="M156.349 129.951C159.991 119.734 166.087 102.634 158.525 83.2292L158.377 82.8472L158.269 83.2425C154.85 95.6082 142.946 112.841 124.895 121.461L124.791 121.51L124.829 121.614C126.83 127.078 133.941 134.454 139.655 140.384C143.286 144.152 146.422 147.405 146.733 148.706C147.55 152.123 141.066 167.596 138.343 169.979C137.603 170.628 136.265 171.611 134.717 172.753C132.371 174.48 129.714 176.437 128.36 177.808C126.079 180.114 126.013 183.308 126.62 184.304C127.274 185.375 129.33 185.6 130.94 185.6C134.191 185.6 138.31 184.653 139.098 183.723C139.637 183.087 139.869 182.298 140.139 181.384C140.481 180.22 140.867 178.901 142.02 177.592C143.615 175.781 145.236 174.959 146.417 174.356C147.48 173.817 148.244 173.429 148.425 172.647C148.624 171.799 148.352 171.136 148.067 170.436C147.74 169.634 147.402 168.806 147.736 167.591C148.416 165.129 152.858 154.557 154.753 152.333C155.457 151.507 156.168 150.895 156.795 150.358C157.933 149.382 158.754 148.675 158.668 147.438C158.622 146.754 157.979 145.789 157.169 144.565C155.771 142.458 153.858 139.574 154.271 136.723C154.501 135.132 155.316 132.849 156.347 129.956L156.349 129.951ZM156.939 144.693C157.701 145.839 158.357 146.831 158.399 147.452C158.476 148.569 157.694 149.241 156.612 150.17C155.978 150.716 155.261 151.332 154.541 152.174C152.533 154.526 148.065 165.379 147.473 167.525C147.118 168.817 147.486 169.723 147.813 170.522C148.085 171.187 148.341 171.814 148.16 172.592C148.005 173.259 147.323 173.605 146.287 174.131C145.084 174.743 143.436 175.58 141.808 177.428C140.62 178.78 140.225 180.125 139.876 181.313C139.615 182.201 139.39 182.967 138.884 183.564C138.217 184.35 134.341 185.346 130.938 185.346C128.765 185.346 127.314 184.931 126.854 184.178C126.351 183.347 126.32 180.238 128.559 177.976C129.9 176.62 132.548 174.67 134.884 172.949C136.437 171.805 137.778 170.818 138.526 170.16C141.402 167.644 147.842 152.2 146.994 148.651C146.667 147.284 143.661 144.165 139.854 140.214C134.191 134.34 127.154 127.04 125.12 121.634C143.001 113.054 154.85 96.0609 158.417 83.6975C165.718 102.861 159.697 119.752 156.091 129.872C155.055 132.776 154.238 135.071 154.004 136.685C153.578 139.627 155.519 142.555 156.937 144.693H156.939Z" fill="#5E5E5E"/>
<path d="M128.042 178.358C126.223 180.56 126.209 183.374 126.737 184.24C128.188 186.621 137.782 185.068 138.992 183.643C139.05 183.577 139.107 183.504 139.156 183.431C136.466 178.06 131.172 177.903 128.045 178.358H128.042Z" fill="#100F0E"/>
<path d="M128.043 178.358C126.225 180.56 126.21 183.374 126.737 184.24C126.759 184.275 126.784 184.31 126.808 184.346C126.991 184.591 127.267 184.79 127.614 184.951C129.642 185.658 133.509 183.047 134.54 181.837C135.128 181.146 135.516 180.512 135.998 179.772C133.354 178.023 130.189 178.049 128.043 178.358Z" fill="#201E1C"/>
<path d="M130.236 178.069C129.516 178.069 128.771 178.124 128.02 178.232L127.967 178.239L127.934 178.278C126.05 180.555 126.075 183.409 126.618 184.299C127.272 185.37 129.328 185.595 130.938 185.595C134.189 185.595 138.308 184.648 139.096 183.718C139.156 183.652 139.213 183.575 139.268 183.493L139.308 183.435L139.277 183.374C137.08 178.987 133.149 178.066 130.238 178.066L130.236 178.069ZM138.884 183.563C138.217 184.35 134.341 185.346 130.938 185.346C128.765 185.346 127.314 184.931 126.854 184.177C126.362 183.365 126.364 180.628 128.118 178.475C128.835 178.373 129.549 178.32 130.238 178.32C133.056 178.32 136.859 179.208 139.001 183.42C138.966 183.469 138.928 183.517 138.886 183.563H138.884Z" fill="#0C0B0B"/>
<path d="M186.909 146.577C189.444 147.067 190.756 149.983 190.756 149.983C190.01 142.849 184.047 141.787 183.177 135.371C183.082 134.677 184.162 121.285 182.421 108.208C181.014 97.6445 176.089 86.3786 171.049 80.4111C171.228 80.7137 171.405 81.0207 171.571 81.3321C171.659 81.4955 171.747 81.659 171.831 81.8268C171.955 82.0698 172.079 82.3149 172.196 82.5601C173.79 85.895 174.811 89.6451 175.188 93.7353C175.334 95.3189 175.383 96.951 175.334 98.6317C179.294 108.685 181.165 121.018 179.789 136.455C179.665 137.842 178.649 141.076 177.335 143.677C176.719 144.899 176.036 145.979 175.349 146.661C176.337 146.418 176.759 146.387 177.655 145.316C177.998 144.912 178.402 144.36 178.932 143.593C177.715 147.862 179.504 152.6 179.72 155.001C180.794 153.262 180.222 150.398 181.151 148.931C180.794 154.334 184.59 157.065 186.523 161.001C186.737 157.799 184.818 154.698 185.345 151.5C189.089 154.535 187.591 159.166 190.235 162.406C189.659 159.371 193.585 154.859 186.911 146.579L186.909 146.577Z" fill="#BCBCBC"/>
<path d="M182.423 108.208C181.017 97.6445 176.091 86.3786 171.052 80.4111C171.23 80.7137 171.407 81.0207 171.573 81.3321C171.661 81.4955 171.749 81.659 171.833 81.8268C171.957 82.0698 172.081 82.3149 172.198 82.5601C173.792 85.895 174.813 89.6451 175.19 93.7353C180.171 102.967 182.346 120.45 180.968 135.888C181.43 135.974 182.286 135.969 183.19 135.433C183.095 134.739 184.166 121.283 182.426 108.206L182.423 108.208Z" fill="#F3F3F3"/>
<path d="M190.633 150.031L190.979 150.798L190.893 149.97C190.502 146.233 188.689 144.137 186.933 142.112C185.286 140.208 183.729 138.41 183.314 135.356C183.298 135.236 183.325 134.598 183.36 133.719C183.528 129.644 183.974 118.816 182.558 108.193C181.22 98.1548 176.533 86.6968 171.158 80.334L170.932 80.4731C171.142 80.8265 171.306 81.118 171.451 81.3897C171.54 81.5531 171.626 81.7143 171.71 81.8822C171.834 82.1229 171.957 82.3681 172.072 82.6132C173.678 85.9702 174.68 89.7159 175.054 93.7487C175.199 95.319 175.248 96.96 175.199 98.6318V98.6561L175.208 98.6782C179.438 109.416 180.933 122.124 179.654 136.449C179.53 137.827 178.519 141.04 177.211 143.627C176.551 144.939 175.873 145.959 175.25 146.577L174.928 146.897L175.599 146.734C176.441 146.533 176.904 146.42 177.759 145.396C178 145.113 178.271 144.757 178.627 144.256C178.006 147.198 178.665 150.303 179.153 152.613C179.351 153.554 179.524 154.367 179.581 155.012L179.616 155.414L179.833 155.065C180.403 154.142 180.52 152.931 180.63 151.761C180.708 150.968 180.78 150.206 180.988 149.59C180.975 152.995 182.638 155.358 184.25 157.644C185.012 158.726 185.8 159.844 186.395 161.054L186.62 161.511L186.653 161.01C186.754 159.499 186.381 157.995 186.021 156.54C185.635 154.974 185.233 153.36 185.438 151.754C187.329 153.395 187.775 155.515 188.206 157.567C188.563 159.268 188.932 161.023 190.12 162.483L190.458 162.898L190.361 162.386C190.209 161.582 190.383 160.655 190.586 159.581C191.134 156.673 191.883 152.708 187.243 146.796C189.442 147.461 190.615 150.009 190.628 150.036L190.633 150.031ZM190.326 159.533C190.158 160.423 190.008 161.213 190.043 161.933C189.124 160.613 188.808 159.104 188.475 157.516C188.022 155.356 187.554 153.123 185.432 151.403L185.246 151.253L185.209 151.48C184.924 153.212 185.35 154.932 185.761 156.595C186.074 157.865 186.399 159.175 186.401 160.48C185.836 159.431 185.147 158.455 184.477 157.505C182.786 155.107 181.039 152.626 181.282 148.938L181.317 148.415L181.03 148.865C180.564 149.599 180.465 150.637 180.361 151.736C180.266 152.721 180.169 153.735 179.798 154.557C179.716 153.985 179.575 153.316 179.415 152.565C178.892 150.093 178.177 146.71 179.056 143.627L179.276 142.854L178.813 143.525C178.243 144.347 177.865 144.859 177.543 145.239C176.812 146.116 176.432 146.266 175.732 146.438C176.29 145.795 176.88 144.87 177.452 143.733C178.773 141.12 179.795 137.867 179.919 136.467C181.2 122.115 179.7 109.379 175.467 98.612C175.515 96.9401 175.467 95.2947 175.319 93.7244C174.943 89.6629 173.934 85.8907 172.315 82.5094C172.198 82.2621 172.074 82.0169 171.948 81.7718C171.94 81.7541 171.931 81.7364 171.922 81.7165C176.851 88.2229 181.034 98.8416 182.282 108.221C183.696 118.825 183.25 129.635 183.082 133.706C183.038 134.773 183.02 135.25 183.037 135.384C183.462 138.509 185.116 140.42 186.715 142.266C188.329 144.13 189.994 146.052 190.52 149.276C189.968 148.368 188.771 146.807 186.929 146.451L186.578 146.383L186.794 146.65C191.618 152.635 190.867 156.62 190.319 159.53L190.326 159.533Z" fill="#5E5E5E"/>
<path d="M176.346 101.386C176.701 102.417 177.032 103.47 177.339 104.548C178.499 104.221 179.97 103.484 181.185 101.841C180.683 99.833 180.074 97.8475 179.387 95.9194C179.051 97.9933 178.234 100.261 176.346 101.386Z" fill="#2E292B"/>
<path d="M178.581 109.606C178.835 110.823 179.06 112.066 179.259 113.338C180.867 113.46 182.061 112.874 182.872 112.225C182.761 111.024 182.631 109.815 182.474 108.607C181.114 109.338 179.548 109.548 178.581 109.606Z" fill="#2E292B"/>
<path d="M179.923 118.959C179.989 119.745 180.047 120.538 180.089 121.342C181.443 121.554 182.536 121.225 183.364 120.75V120.746C183.344 119.949 183.318 119.129 183.282 118.299C182.048 118.809 180.837 118.948 179.923 118.957V118.959Z" fill="#2E292B"/>
<path d="M180.233 127.833C180.221 128.692 180.204 129.562 180.171 130.441C181.279 130.702 182.47 130.448 183.353 130.15C183.373 129.432 183.389 128.655 183.402 127.824C182.139 128.087 181.052 128.005 180.235 127.833H180.233Z" fill="#2E292B"/>
<path d="M186.909 146.577C189.445 147.067 190.757 149.983 190.757 149.983C190.015 142.873 184.085 141.793 183.188 135.435C181.865 136.19 180.721 135.97 179.871 135.51C179.844 135.822 179.818 136.137 179.789 136.455C179.665 137.842 178.649 141.076 177.335 143.677C176.719 144.899 176.037 145.979 175.35 146.661C176.337 146.418 176.759 146.387 177.656 145.316C177.998 144.912 178.402 144.36 178.932 143.593C177.715 147.863 179.504 152.6 179.721 155.001C180.794 153.262 180.222 150.398 181.152 148.932C180.794 154.334 184.59 157.066 186.523 161.001C186.737 157.799 184.818 154.698 185.346 151.5C189.089 154.535 187.592 159.166 190.235 162.406C189.659 159.371 193.586 154.859 186.912 146.579L186.909 146.577Z" fill="#171516"/>
<path d="M180.864 135.87C180.489 137.823 178.958 140.111 179.826 141.933C179.826 141.933 180.168 141.186 180.943 140.711C180.698 143.691 180.888 146.579 182.242 148.092C182.242 147.337 182.141 145.937 182.556 144.137C184.115 146.348 186.003 148.726 186.816 149.735C186.43 147.496 185.769 146.398 185.299 145.133C186.871 145.427 189.296 145.939 190.654 149.245C189.594 142.792 184.053 141.566 183.185 135.435C182.324 135.925 181.54 136.003 180.862 135.87H180.864Z" fill="#2E292B"/>
<path d="M190.633 150.031L190.979 150.798L190.893 149.972C190.502 146.235 188.689 144.139 186.933 142.112C185.297 140.221 183.751 138.434 183.325 135.42L183.298 135.228L183.119 135.329C182.057 135.936 180.972 135.959 179.941 135.404L179.756 135.305L179.733 135.579C179.709 135.866 179.685 136.155 179.658 136.449C179.535 137.827 178.523 141.04 177.216 143.627C176.555 144.939 175.877 145.959 175.254 146.577L174.932 146.898L175.603 146.734C176.445 146.533 176.909 146.42 177.763 145.396C178.004 145.113 178.276 144.757 178.631 144.256C178.011 147.198 178.669 150.303 179.157 152.613C179.356 153.554 179.528 154.367 179.585 155.012L179.621 155.414L179.837 155.065C180.407 154.142 180.524 152.931 180.635 151.761C180.712 150.968 180.785 150.206 180.992 149.59C180.979 152.998 182.642 155.356 184.254 157.644C185.016 158.727 185.805 159.844 186.399 161.054L186.624 161.511L186.657 161.01C186.759 159.5 186.386 157.995 186.026 156.54C185.639 154.974 185.237 153.36 185.443 151.754C187.333 153.395 187.779 155.515 188.21 157.567C188.568 159.268 188.936 161.023 190.125 162.483L190.463 162.898L190.365 162.386C190.213 161.582 190.387 160.655 190.591 159.581C191.138 156.673 191.887 152.708 187.247 146.796C189.447 147.461 190.619 150.009 190.633 150.036V150.031ZM190.326 159.533C190.158 160.423 190.008 161.213 190.043 161.933C189.124 160.613 188.808 159.104 188.475 157.516C188.022 155.356 187.554 153.123 185.431 151.403L185.246 151.253L185.208 151.48C184.924 153.212 185.35 154.932 185.761 156.595C186.074 157.865 186.399 159.175 186.401 160.48C185.836 159.431 185.147 158.455 184.477 157.505C182.786 155.107 181.039 152.627 181.282 148.938L181.317 148.415L181.03 148.865C180.564 149.599 180.464 150.637 180.361 151.736C180.266 152.721 180.169 153.735 179.797 154.557C179.716 153.985 179.574 153.316 179.415 152.565C178.892 150.093 178.176 146.71 179.055 143.627L179.276 142.854L178.812 143.525C178.243 144.347 177.865 144.859 177.543 145.239C176.812 146.116 176.432 146.266 175.732 146.438C176.29 145.795 176.88 144.87 177.452 143.733C178.773 141.12 179.795 137.867 179.919 136.467C179.941 136.215 179.963 135.963 179.983 135.713C180.988 136.19 182.048 136.166 183.075 135.638C183.55 138.615 185.158 140.473 186.715 142.271C188.327 144.135 189.994 146.058 190.52 149.281C189.968 148.373 188.771 146.811 186.929 146.456L186.578 146.387L186.794 146.655C191.618 152.64 190.867 156.624 190.319 159.535L190.326 159.533Z" fill="#0C0B0B"/>
<path d="M155.837 67.9373C144.58 63.8824 123.201 68.5689 115.317 68.9598C106.149 69.4148 96.7361 67.7076 91.1132 63.381C85.4902 59.0545 87.2018 47.5568 73.3895 33.8969C59.5773 20.237 38.4282 17.7325 33.9073 17.759L43.5631 43.9149C43.5631 43.9149 52.1212 50.7459 51.8761 61.7864C51.6309 72.8292 45.7738 79.6757 46.3746 89.4508C47.5252 108.208 67.8549 128.604 104.429 126.819C145.229 124.832 169.002 75.9344 155.839 67.9373H155.837Z" fill="#BCBCBC"/>
<path d="M155.837 67.9373C144.58 63.8824 123.201 68.5689 115.317 68.9598C106.149 69.4148 96.7361 67.7076 91.1132 63.381C85.4902 59.0545 87.2018 47.5568 73.3895 33.8969C59.5773 20.237 38.4282 17.7325 33.9073 17.759L38.8567 31.1627C66.6557 33.6186 51.6972 64.8077 51.4741 66.2146C50.1114 74.8103 45.86 81.0494 46.3746 89.4485C47.0393 100.266 58.8418 113.352 63.7779 98.9873C69.1911 110.03 90.7024 116.724 105.288 110.458C112.706 119.851 126.6 117.223 134.661 112.06C156.12 98.3137 165.407 73.748 155.839 67.9351L155.837 67.9373Z" fill="#F3F3F3"/>
<path d="M50.284 20.7361C50.284 20.7361 50.2796 20.7339 50.2774 20.7339C47.9209 20.0051 45.677 19.4419 43.6297 19.0112C52.0619 24.5547 56.881 34.6168 56.7949 42.4329C56.7352 47.7356 53.7294 51.2671 50.7368 54.5026C51.3839 56.4064 51.8234 58.5377 51.872 60.8655C55.6553 57.736 62.9788 49.2971 63.2306 43.5548C63.5486 36.1452 58.1951 24.939 50.284 20.7339V20.7361Z" fill="#171516"/>
<path d="M50.2858 20.7361C50.2858 20.7361 50.2814 20.7339 50.277 20.7339C47.9204 20.0051 45.6766 19.4419 43.627 19.0112C52.0593 24.5547 56.8783 34.6168 56.7922 42.4329C56.7701 44.3808 56.3505 46.0925 55.6791 47.634C55.7498 51.6028 54.9127 55.6422 53.9697 58.9396C57.8634 55.0481 63.0181 48.3607 63.2301 43.5571C63.5482 36.1452 58.1946 24.9412 50.2836 20.7361H50.2858Z" fill="#2E292B"/>
<path d="M73.3873 33.8969C70.6951 31.2356 67.7246 28.9962 64.6525 27.1167C70.0038 40.4409 67.0068 53.1069 63.5747 57.5859C60.2089 61.9765 54.1796 65.6581 50.9352 69.099C50.4118 71.3849 49.7337 73.5228 49.0623 75.6187C49.3251 76.4866 49.6785 77.0277 49.6785 77.0277C55.9066 68.792 68.6433 66.8551 73.0163 62.5087C77.0579 58.4892 79.7369 49.1094 74.4783 35.0078C74.1272 34.6412 73.7627 34.2702 73.3873 33.8992V33.8969Z" fill="#2E292B"/>
<path d="M85.3953 52.3295C85.2098 51.8569 85.0177 51.3754 84.8167 50.8807C84.4501 49.9796 84.0415 49.0498 83.5865 48.0913C83.5026 47.9124 83.4165 47.7379 83.3281 47.5546C83.2862 47.4663 83.2398 47.3757 83.1956 47.2852C84.8233 57.1905 81.9853 66.8573 78.9795 69.819C74.3084 74.4216 53.6408 75.5546 48.782 88.3289C48.782 88.3289 47.4502 86.001 46.7413 83.6026C46.4056 85.4666 46.2466 87.3946 46.3725 89.4552C46.4895 91.3767 46.8075 93.3158 47.3287 95.246C48.9896 97.0659 51.43 98.9542 53.0423 99.1574C52.8435 85.7073 75.797 80.3714 81.961 75.6496C86.6233 72.0805 88.6088 66.6563 88.9533 60.8987C87.8468 59.0788 87.0451 56.7444 86.0292 54.008C85.8282 53.4647 85.6162 52.9037 85.3931 52.3317L85.3953 52.3295Z" fill="#2E292B"/>
<path d="M55.5888 108C55.5888 108 53.3294 106.794 51.8674 105.193C54.4006 109.029 57.7863 112.627 62.0002 115.75C62.5214 113.614 63.6058 111.711 65.0635 109.999C64.2529 106.523 63.7714 102.848 63.7781 98.9893C60.1538 101.169 57.1038 104.02 55.5888 108Z" fill="#171516"/>
<path d="M56.96 105.275C59.555 105.63 62.075 103.941 63.7756 98.9893C61.037 100.635 58.6252 102.662 56.96 105.275Z" fill="#2E292B"/>
<path d="M109.283 81.107C109.468 78.2359 111.063 73.7613 108.28 68.876C107.445 68.812 106.619 68.7303 105.804 68.6265C105.562 68.5956 105.323 68.5624 105.082 68.5293C105.968 70.1084 106.862 72.3678 106.304 74.4173C105.31 78.0504 101.235 81.5664 101.434 84.252C101.546 85.8068 108.305 94.8331 107.143 105.428C106.434 111.888 101.5 119.496 96.0449 126.837C97.5489 126.906 99.0794 126.937 100.645 126.926H100.65C110.038 119.854 115.151 108.206 115.149 101.306C115.149 95.4758 109.084 84.1614 109.283 81.107Z" fill="#171516"/>
<path d="M109.283 81.1089C109.466 78.2378 111.063 73.7633 108.28 68.878C107.448 68.8139 106.617 68.7344 105.804 68.6306C105.562 68.5997 105.323 68.5644 105.082 68.5312C105.97 70.1126 106.862 72.3697 106.306 74.4215C105.312 78.0523 101.235 81.5705 101.436 84.2561C101.549 85.811 108.307 94.8373 107.143 105.432C106.949 107.194 106.443 109.045 105.692 110.951C107.216 112.74 108.991 114.058 110.917 114.981C113.696 110.017 115.149 104.988 115.149 101.308C115.149 95.48 109.084 84.1656 109.285 81.1112L109.283 81.1089Z" fill="#2E292B"/>
<path d="M124.323 81.7118C123.594 79.1963 122.47 72.7142 119.281 68.5864C117.744 68.7675 116.403 68.9045 115.319 68.9597C114.977 68.9773 114.632 68.9906 114.288 69.0016C115.635 70.53 117.09 72.8445 117.572 74.4192C118.285 76.7514 117.693 80.9411 118.638 83.9182C119.091 85.3427 122.757 93.0969 122.214 101.306C121.704 109.067 117.574 116.987 111.26 126.031C113.252 125.671 115.193 125.196 117.088 124.626C129.211 114.46 130.821 102.711 129.535 95.3342C128.557 89.7223 125.154 84.5763 124.325 81.7096L124.323 81.7118Z" fill="#171516"/>
<path d="M124.323 81.7096C123.594 79.1941 122.472 72.712 119.281 68.5864C117.744 68.7675 116.403 68.9045 115.316 68.9597C114.976 68.9773 114.63 68.9906 114.285 69.0038C115.632 70.53 117.088 72.8445 117.569 74.4214C118.28 76.7514 117.688 80.9433 118.636 83.9182C119.091 85.3449 122.755 93.0969 122.214 101.306C121.887 106.271 120.08 111.295 117.169 116.64C119.694 116.868 122.291 116.644 124.8 116.099C129.869 108.393 130.465 100.708 129.531 95.3408C128.554 89.7267 125.149 84.583 124.321 81.714L124.323 81.7096Z" fill="#2E292B"/>
<path d="M135.176 66.7051C132.21 66.9591 129.29 67.3058 126.58 67.6481C130.885 70.6915 132.36 75.3317 132.905 77.0256C133.559 79.0619 142.367 93.5103 132.905 106.415C147.179 92.7284 140.803 79.0487 139.798 75.9346C138.65 72.3811 137.32 68.9313 135.176 66.7051Z" fill="#2E292B"/>
<path d="M155.91 67.8312L155.886 67.8201C147.456 64.7834 133.63 66.5966 123.535 67.9195C120.193 68.3568 117.309 68.7345 115.31 68.8361C105.369 69.3286 96.3586 67.2548 91.1994 63.286C88.9577 61.5611 87.8777 58.6304 86.5106 54.9222C84.4986 49.4583 81.7402 41.9757 73.4868 33.8129C59.8623 20.3385 39.0113 17.6353 33.9869 17.6353C33.9604 17.6353 33.9317 17.6353 33.9052 17.6353V17.887C33.9339 17.887 33.9604 17.887 33.9891 17.887C38.9892 17.887 59.7342 20.577 73.2903 33.9852C81.5061 42.1082 84.2513 49.5621 86.2566 55.0039C87.637 58.7518 88.728 61.7113 91.0271 63.4803C96.2371 67.4889 105.319 69.5848 115.326 69.0879C117.335 68.9885 120.226 68.6086 123.572 68.1691C133.632 66.8506 147.409 65.0462 155.775 68.052C159.497 70.3224 160.362 76.0094 158.154 83.6554C153.233 100.679 133.31 125.289 104.42 126.698C83.2177 127.731 69.7566 121.311 62.2011 115.741C52.8302 108.835 47.1101 99.25 46.5072 89.4463C46.2002 84.4373 47.5893 80.2167 49.0624 75.7488C50.4538 71.5305 51.8894 67.1664 52.0087 61.7908C52.2516 50.8165 43.7354 43.8883 43.6493 43.8198L43.4726 44.0098C43.5565 44.0782 51.9777 50.9269 51.737 61.7842C51.6177 67.1245 50.1866 71.4687 48.8018 75.6715C47.3221 80.1615 45.9241 84.4019 46.2355 89.4573C46.8429 99.3339 52.5984 108.985 62.0311 115.936C69.0763 121.128 81.2211 127.058 99.943 127.056C101.398 127.056 102.896 127.018 104.433 126.945C120.783 126.148 132.97 117.992 140.315 111.287C148.931 103.424 155.698 93.1169 158.414 83.7173C160.658 75.952 159.746 70.1612 155.91 67.8312Z" fill="#5E5E5E"/>
<path d="M33.9049 17.7612C30.581 17.7612 27.2572 18.6888 25.2628 20.0824C23.2685 21.476 22.6038 23.3312 20.9429 25.807C19.2821 28.2828 16.623 30.2948 15.4591 33.0797C14.2952 35.8647 14.4608 39.2703 13.7961 41.4369C13.1313 43.6035 9.35025 50.821 5.98663 52.8882C3.32754 54.9002 1.31554 55.7682 0.310653 58.4538C-1.08294 62.184 5.99103 74.2736 16.7886 70.9939C18.2838 71.9215 25.0972 69.9095 26.4267 68.3635C27.7563 66.8153 31.0779 60.161 33.9049 58.7696C44.5877 59.2776 63.6497 47.9367 49.0269 31.2246L33.9049 17.7612Z" fill="#BCBCBC"/>
<path d="M33.9049 17.761C30.581 17.761 27.2572 18.6886 25.2628 20.0822C23.2685 21.4758 22.6038 23.331 20.9429 25.8067C19.2821 28.2825 16.623 30.2945 15.4591 33.0795C14.2952 35.8645 14.4608 39.2701 13.7961 41.4367C13.1313 43.6032 9.35025 50.8208 5.98663 52.888C3.32754 54.9 1.31554 55.7679 0.310653 58.4535C-1.08294 62.1838 5.99103 74.2734 16.7886 70.9937C19.6907 71.2388 23.5358 69.1761 25.2187 67.0669C27.6878 63.9727 27.5597 59.3171 30.3845 57.9235C41.0672 58.4314 59.449 44.6545 49.0269 31.2221C49.0269 31.2221 47.3285 27.9358 43.1146 24.0664C38.9029 20.197 33.9049 17.7588 33.9049 17.7588V17.761Z" fill="#F3F3F3"/>
<path d="M20.9431 25.8069C19.2823 28.2805 16.6254 30.2947 15.4615 33.0797C14.2976 35.8669 14.4632 39.2703 13.8007 41.4368C13.5224 42.3423 12.703 44.1246 11.5965 46.0483C10.0903 48.4578 11.1062 48.3386 12.2481 47.7378C16.0357 45.7435 18.485 41.3728 18.7036 35.4892C18.8627 31.2598 21.4732 30.6172 23.3681 26.4077C24.3266 24.2786 26.6478 19.1835 33.2668 17.77C30.1638 17.8804 27.1315 18.7771 25.2652 20.0824C23.2709 21.4738 22.6062 23.3311 20.9431 25.8069Z" fill="#2E292B"/>
<path d="M35.0843 17.7944C41.7254 22.0194 43.6954 26.7965 45.2105 33.6187C47.9049 29.1663 46.6968 23.0618 42.9643 18.8722C39.6029 18.1964 36.8356 17.8894 35.0843 17.7944Z" fill="#2E292B"/>
<path d="M33.9869 17.6333C33.9604 17.6333 33.9317 17.6333 33.9052 17.6333V17.8851C33.9339 17.8851 33.9604 17.8851 33.9891 17.8851C35.6654 17.8851 39.1107 18.1876 43.4616 19.0954L43.265 18.7972C39.0069 17.9248 35.6411 17.6333 33.9891 17.6333H33.9869Z" fill="#5E5E5E"/>
<path d="M41.7874 37.3288C42.8431 37.7926 49.2633 38.9808 52.9759 37.1433C52.3442 35.7585 51.4829 34.3252 50.3543 32.8433C47.7748 37.2051 41.7874 37.3288 41.7874 37.3288Z" fill="#171516"/>
<path d="M41.7874 37.3292C42.7503 37.7532 48.19 38.778 51.9533 37.5545C51.6993 36.0593 51.1494 34.5376 50.2483 33.0137C47.6179 37.2099 41.7874 37.3292 41.7874 37.3292Z" fill="#2E292B"/>
<path d="M42.7616 42.4307C46.4432 43.504 50.1514 46.9626 51.5118 50.7834C52.5962 49.4075 53.4266 47.8792 53.8993 46.2051C51.302 43.5217 46.3041 42.4307 42.7616 42.4307Z" fill="#171516"/>
<path d="M49.5749 47.314C50.222 46.3467 50.7631 45.3329 51.1761 44.2883C48.5656 42.9897 45.2903 42.4331 42.7616 42.4331C45.2727 43.1641 47.7948 45.0061 49.5749 47.314Z" fill="#2E292B"/>
<path d="M36.9023 48.5132C40.3278 50.2624 41.9952 54.145 41.8649 57.4026C43.3513 56.8637 44.82 56.1746 46.2003 55.3464C44.0801 49.951 37.1386 48.5574 36.9023 48.5132Z" fill="#171516"/>
<path d="M36.9023 48.5132C39.3892 49.7831 40.9506 52.1794 41.569 54.6441C42.5827 54.05 43.5744 53.3808 44.513 52.652C41.6507 49.4651 37.0923 48.5507 36.9023 48.5132Z" fill="#2E292B"/>
<path d="M48.9234 31.3042C55.6904 39.0386 54.7275 45.0392 52.7287 48.712C49.1818 55.2295 40.2018 58.9442 33.9141 58.6439H33.8765L33.8434 58.6593C31.8336 59.651 29.6096 63.2067 27.9841 65.8018C27.3039 66.8884 26.7164 67.8292 26.3233 68.2864C24.9474 69.8876 18.229 71.7384 16.8663 70.8903L16.8111 70.8572L16.7492 70.8748C10.8833 72.6571 6.62964 69.7131 4.61544 67.8005C1.28716 64.6401 -0.254402 60.3599 0.441291 58.4959C1.21649 56.4221 2.57253 55.4724 4.4498 54.1583C4.9666 53.7961 5.50109 53.4207 6.06427 52.9944C9.5096 50.8786 13.3017 43.5241 13.9289 41.4724C14.205 40.5713 14.3397 39.4582 14.4833 38.281C14.682 36.6268 14.9095 34.7518 15.5875 33.1263C16.2854 31.4522 17.5553 30.0343 18.7833 28.6628C19.5806 27.7728 20.4044 26.854 21.0603 25.8734C21.5263 25.1777 21.9084 24.5439 22.275 23.9321C23.2026 22.3883 23.9336 21.1692 25.3471 20.182C27.3436 18.7862 30.705 17.8851 33.9074 17.8851V17.6333C30.599 17.6333 27.2575 18.5322 25.1859 19.981C23.726 20.9991 22.984 22.2403 22.0409 23.8084C21.6743 24.418 21.2966 25.0496 20.8328 25.7409C20.1857 26.706 19.3686 27.6182 18.5779 28.5016C17.3367 29.8885 16.0535 31.3241 15.338 33.0357C14.6467 34.6899 14.417 36.5827 14.216 38.2523C14.0747 39.4184 13.9422 40.5227 13.6727 41.4039C13.0499 43.4336 9.30863 50.7019 5.90747 52.7934C5.33766 53.2241 4.80539 53.5973 4.29079 53.9595C2.44665 55.2515 0.991217 56.2719 0.189513 58.4164C-0.548143 60.3908 0.977964 64.7063 4.42551 67.9816C6.03554 69.5099 9.04802 71.6832 13.1581 71.6832C14.2845 71.6832 15.4926 71.5197 16.7757 71.1354C18.4763 72.0476 25.2212 69.9782 26.5375 68.4454C26.9439 67.9728 27.5358 67.0253 28.2226 65.9299C29.8216 63.3746 32.0081 59.8785 33.9406 58.9001C34.1681 58.9111 34.3955 58.9155 34.6296 58.9155C40.9483 58.9155 49.5131 55.1897 52.9739 48.8291C54.9042 45.2799 55.8914 39.6018 50.1248 32.3312C49.8156 31.9403 48.9256 31.3064 48.9256 31.3064L48.9234 31.3042Z" fill="#5E5E5E"/>
<path d="M23.6464 58.4428C22.4604 58.1358 17.4116 51.5212 12.6103 52.8883C7.81328 54.2576 6.9939 53.2329 8.4648 50.6157H8.46038C7.64763 51.5809 6.80398 52.387 5.98681 52.8883C3.32772 54.9003 1.31571 55.7705 0.313031 58.4561C-1.08277 62.1841 5.99121 74.2759 16.7888 70.9962C18.284 71.9238 25.0974 69.9118 26.4269 68.3614C27.2176 67.4449 28.7084 64.7239 30.3824 62.3741C29.954 58.6239 24.6976 58.7167 23.6442 58.4406L23.6464 58.4428Z" fill="#171516"/>
<path d="M12.608 52.8883C7.81098 54.2554 6.99381 53.2329 8.4625 50.6157H8.46029C7.64754 51.5809 6.80389 52.387 5.98672 52.8883C3.32763 54.8981 1.31562 55.7705 0.312942 58.4561C-0.864215 61.6033 3.98576 70.6981 12.0138 71.4998C13.5002 71.6477 19.3772 72.1336 22.902 65.5875C21.7778 69.1521 24.4458 67.7806 26.1287 65.6714C27.922 63.4253 27.4339 61.7579 28.6133 59.7105C26.8553 58.6482 24.3376 58.6261 23.6463 58.445C22.4603 58.138 17.4116 51.5234 12.608 52.8883Z" fill="#2E292B"/>
<path d="M24.4922 58.4427C24.1322 58.3986 23.8473 58.3632 23.6817 58.3213C23.3968 58.2462 22.7673 57.6808 22.0363 57.0249C20.1855 55.3618 17.087 52.5768 13.9552 52.5768C13.4804 52.5768 13.0122 52.6409 12.5683 52.769C9.98204 53.5066 8.46037 53.5618 8.05841 52.9412C7.79118 52.5304 7.96786 51.7685 8.58184 50.6731L8.68121 50.4897H8.39191L8.35214 50.5383C7.4886 51.5631 6.66702 52.3184 5.90066 52.7911C5.33306 53.2195 4.80299 53.5928 4.2884 53.9528C2.44205 55.247 0.984419 56.2695 0.182715 58.4162C-0.451139 60.108 0.606758 63.3236 2.69605 66.06C5.4214 69.6335 9.23114 71.6808 13.1469 71.6808C14.3373 71.6808 15.5564 71.4975 16.7667 71.1353C17.0428 71.2833 17.4602 71.3583 18.0057 71.3583C20.4373 71.3583 25.3447 69.8212 26.5285 68.4431C26.9349 67.9704 27.529 67.023 28.2158 65.9231C28.8961 64.8343 29.6691 63.5997 30.4929 62.4446L30.5194 62.4071L30.5127 62.3607C30.1439 59.1318 26.3231 58.6658 24.4878 58.4427H24.4922ZM27.9862 65.7972C27.3037 66.886 26.7162 67.8269 26.3209 68.2862C25.2807 69.4987 20.5411 71.1088 18.0079 71.1088C17.4845 71.1088 17.087 71.0337 16.8617 70.8945L16.8065 70.8614L16.7446 70.8791C15.5388 71.2457 14.3285 71.4312 13.1469 71.4312C9.31948 71.4312 5.59146 69.4214 2.9169 65.9165C0.873992 63.2397 -0.168451 60.1212 0.438901 58.5002C1.21189 56.4241 2.57015 55.4722 4.45183 54.1559C4.96643 53.7937 5.5009 53.4205 6.05966 52.9965C6.64714 52.6365 7.26996 52.1064 7.91927 51.4218C7.6167 52.1616 7.58798 52.7071 7.82872 53.076C8.32343 53.8379 9.83407 53.8158 12.65 53.0119C13.0696 52.8927 13.5113 52.8308 13.9574 52.8308C16.9787 52.8308 20.0287 55.5716 21.8508 57.2082C22.6989 57.9723 23.2598 58.4759 23.611 58.5664C23.7943 58.615 24.0881 58.6503 24.4591 58.6945C26.2193 58.9087 29.87 59.3549 30.2455 62.3453C29.4283 63.4959 28.6642 64.7172 27.9884 65.7972H27.9862Z" fill="#0C0B0B"/>
<path d="M10.956 54.8248C9.43209 54.9595 7.92585 56.1102 7.01813 57.4132C6.71556 57.8461 6.58747 58.809 6.58747 58.809C7.15507 57.1438 9.05443 55.2466 10.9825 55.0766C12.1199 54.9772 13.0718 55.5293 13.7388 56.6756C13.7388 56.6756 13.4627 55.8076 13.1844 55.5603C12.4269 54.8822 11.5965 54.7696 10.956 54.827V54.8248Z" fill="#0C0B0B"/>
<path d="M16.7421 70.877L16.8326 71.1133C21.3491 69.6225 23.2971 65.4484 24.0369 63.2067C24.324 62.3387 24.165 61.6982 24.165 61.6982C24.1518 61.7689 22.8575 68.8562 16.7421 70.8748V70.877Z" fill="#0C0B0B"/>
<path d="M1.0927 56.9541C2.20802 55.3441 3.89757 54.4673 5.98686 52.8882C5.20282 53.2283 2.71599 53.363 1.74644 54.0167C0.887313 54.5888 0.843137 55.9868 1.0927 56.9541Z" fill="#2E292B"/>
<path d="M4.44977 53.1135C3.43384 53.2946 2.28319 53.5022 1.66922 53.9152C0.788004 54.5027 0.679782 55.8808 0.962477 56.9851L1.03536 57.2722L1.20764 57.0249C2.00713 55.8698 3.09153 55.1101 4.46304 54.1471C4.97542 53.7871 5.50548 53.4161 6.07308 52.9877L6.92116 52.3472L5.93173 52.7756C5.6402 52.9015 5.06154 53.0053 4.45198 53.1135H4.44977ZM4.29961 53.944C3.05619 54.8141 1.97179 55.5761 1.16125 56.6362C0.993402 55.6953 1.12592 54.5844 1.82603 54.1184C2.39142 53.7386 3.51116 53.5376 4.50059 53.3609C4.80758 53.3057 5.09689 53.2549 5.34867 53.2019C4.98867 53.4625 4.63972 53.7076 4.29961 53.9462V53.944Z" fill="#0C0B0B"/>
<path d="M10.9406 57.3472C9.10967 57.599 6.73991 59.7546 7.11757 61.7202C8.84024 59.8539 11.6959 59.8539 12.2878 59.304C12.8797 58.7519 12.7714 57.0977 10.9406 57.3472Z" fill="#280003"/>
<path d="M11.7291 57.3735C12.4093 59.1558 7.74927 59.2155 7.16842 60.6267C7.07125 60.9889 7.04696 61.3578 7.11763 61.72C8.8403 59.8537 11.6959 59.8537 12.2878 59.3038C12.7803 58.8466 12.7848 57.6341 11.7291 57.3735Z" fill="#440003"/>
<path d="M11.2985 57.1946C11.1792 57.1946 11.0511 57.2034 10.9208 57.2211C9.82977 57.3713 8.55544 58.1708 7.74932 59.2132C7.10222 60.048 6.83057 60.9469 6.98296 61.7398L7.03375 62.0004L7.21926 61.7994C8.31912 60.609 9.88941 60.196 11.0356 59.8957C11.685 59.7256 12.1532 59.6019 12.3829 59.3877C12.7384 59.0564 12.8467 58.4203 12.6324 57.9367C12.5087 57.6584 12.1708 57.1924 11.2985 57.1924V57.1946ZM12.1929 59.2132C12.014 59.3811 11.5259 59.5092 10.965 59.6571C9.85185 59.9487 8.35446 60.3418 7.21926 61.4306C7.17951 60.7724 7.44013 60.048 7.97239 59.3612C8.73875 58.3695 9.94019 57.612 10.9627 57.4707C11.082 57.4552 11.1947 57.4464 11.3007 57.4464C11.9809 57.4464 12.2658 57.7666 12.3851 58.0361C12.5573 58.427 12.4734 58.9548 12.1929 59.2132Z" fill="#0C0B0B"/>
<path d="M31.169 58.4892C31.8824 58.6305 32.8254 58.7873 33.8922 58.8978L33.9231 58.6482C31.5798 58.4097 29.8549 57.9326 29.8395 57.9282C29.8395 57.9282 30.301 58.3191 31.1712 58.4914L31.169 58.4892Z" fill="#5E5E5E"/>
<path d="M30.2414 31.0501C26.4383 32.3951 26.1445 38.599 26.8491 39.6745C27.7347 41.0262 31.7013 41.4347 34.2676 39.9373C36.8339 38.4399 37.5451 36.6223 37.1387 35.1514C36.75 33.7468 33.6867 29.8332 30.2436 31.0501H30.2414Z" fill="white"/>
<path d="M31.1159 30.7187C30.8045 30.754 30.4953 30.8247 30.1927 30.9329C28.4104 31.5646 27.4872 33.1857 27.0279 34.4357C26.2129 36.6531 26.3101 39.098 26.7319 39.7406C27.3503 40.6837 29.3269 41.1961 31.4317 40.9598C32.5183 40.8361 33.5232 40.5203 34.3359 40.0454C36.6836 38.6761 37.7526 36.8806 37.2667 35.1204C36.8692 33.687 34.2211 30.3676 31.1159 30.7187ZM34.1946 39.8312C33.415 40.2862 32.4476 40.5909 31.4008 40.708C29.4285 40.9311 27.5204 40.4584 26.9638 39.6081C26.5641 38.9964 26.5221 36.589 27.284 34.5152C27.7257 33.316 28.6047 31.7634 30.2877 31.167C30.5704 31.0677 30.8597 31.0014 31.1468 30.9683C34.1305 30.6304 36.6682 33.9675 37.0039 35.1822C37.4588 36.8276 36.4341 38.5215 34.1924 39.8312H34.1946Z" fill="black"/>
<path d="M29.5077 28.4883C25.2385 29.8709 25.8083 38.0491 26.6145 39.4847C27.626 41.2869 32.1071 41.5939 34.8877 39.6857C37.6683 37.7775 38.0481 35.7213 37.5578 33.7734C37.0896 31.9116 33.4853 27.2007 29.5077 28.4883Z" fill="#D1D1D1"/>
<path d="M30.1591 30.423C26.3626 31.8254 26.1219 38.4223 26.8352 39.5708C27.7319 41.013 31.7051 41.479 34.2626 39.9043C36.8201 38.3318 37.5158 36.4015 37.0962 34.8357C36.6942 33.3383 33.5956 29.1553 30.1591 30.4252V30.423Z" fill="black"/>
<path d="M30.2414 31.0501C26.4383 32.3951 26.1445 38.599 26.8491 39.6745C27.7347 41.0262 31.7013 41.4347 34.2676 39.9373C36.8339 38.4399 37.5451 36.6223 37.1387 35.1514C36.75 33.7468 33.6867 29.8332 30.2436 31.0501H30.2414Z" fill="#CECECE"/>
<path d="M30.2412 31.0501C26.4381 32.3951 27.0145 38.1109 27.9421 39.0252C28.9646 40.0301 31.9926 40.4917 34.0752 39.5089C36.7763 38.2346 37.5404 36.6223 37.1341 35.1514C36.7453 33.7468 33.6821 29.8332 30.239 31.0501H30.2412Z" fill="white"/>
<path d="M31.1159 30.7187C30.8045 30.754 30.4953 30.8247 30.1927 30.9329C28.4104 31.5646 27.4872 33.1857 27.0279 34.4357C26.2129 36.6531 26.3101 39.098 26.7319 39.7406C27.3503 40.6837 29.3269 41.1961 31.4317 40.9598C32.5183 40.8361 33.5232 40.5203 34.3359 40.0454C36.6836 38.6761 37.7526 36.8806 37.2667 35.1204C36.8692 33.687 34.2211 30.3676 31.1159 30.7187ZM34.1946 39.8312C33.415 40.2862 32.4476 40.5909 31.4008 40.708C29.4285 40.9311 27.5204 40.4584 26.9638 39.6081C26.5641 38.9964 26.5221 36.589 27.284 34.5152C27.7257 33.316 28.6047 31.7634 30.2877 31.167C30.5704 31.0677 30.8597 31.0014 31.1468 30.9683C34.1305 30.6304 36.6682 33.9675 37.0039 35.1822C37.4588 36.8276 36.4341 38.5215 34.1924 39.8312H34.1946Z" fill="black"/>
<path d="M26.829 28.9454C29.2098 27.088 30.7955 27.1167 33.797 28.709C30.7094 24.3626 27.2884 25.9925 26.829 28.9454Z" fill="black"/>
<path d="M32.0478 31.8608C30.0424 32.0882 28.6112 33.7866 28.8564 35.655C29.0993 37.5235 30.9258 38.8552 32.9312 38.6277C34.9365 38.4003 36.3677 36.7019 36.1225 34.8335C35.8796 32.965 34.0553 31.6333 32.0478 31.8608Z" fill="#0079FF"/>
<path d="M32.3549 32.859C30.9525 33.018 29.9542 34.2062 30.1243 35.5114C30.2943 36.8167 31.5709 37.7487 32.9733 37.5897C34.3757 37.4307 35.374 36.2447 35.2039 34.9372C35.0339 33.632 33.7574 32.7 32.3549 32.859Z" fill="black"/>
<path opacity="0.6" d="M32.6109 31.3966C31.9108 31.4761 31.4094 32.0702 31.4956 32.7239C31.5795 33.3755 32.22 33.8415 32.9201 33.762C33.6224 33.6824 34.1215 33.0883 34.0354 32.4368C33.9493 31.7831 33.3132 31.3193 32.6109 31.3966Z" fill="white"/>
<path d="M33.9008 34.1863C33.5673 34.2238 33.331 34.5065 33.3707 34.8157C33.4105 35.1249 33.713 35.3458 34.0465 35.3082C34.3778 35.2707 34.6141 34.9902 34.5744 34.6788C34.5346 34.3696 34.2321 34.1487 33.9008 34.1863Z" fill="white"/>
<path d="M170.301 138.154C167.496 134.075 167.602 126.919 171.703 115.96C180.403 92.7039 172.944 74.2493 155.837 67.9351C155.837 67.9351 151.755 82.5093 147.762 89.8174C143.771 97.1255 133.241 111.554 133.241 111.554C133.259 112.336 133.195 113.109 133.321 113.868C135.858 129.322 159.739 140.433 165.34 149.221C168.375 153.98 168.2 167.689 166.621 172.422C165.044 177.155 159.437 182.376 157.86 184.988C156.283 187.599 156.493 189.564 157.509 190.863C159.223 193.049 169.249 191.678 170.301 189.885C171.352 188.089 169.106 184.136 170.301 180.419C172.609 173.241 174.287 174.529 175.338 172.733C176.39 170.937 173.627 168.117 173.629 158.552C173.629 150.734 177.659 148.925 177.659 145.17C177.659 141.416 173.103 142.233 170.301 138.154Z" fill="#BCBCBC"/>
<path d="M167.929 138.991C165.124 134.912 164.556 126.711 168.657 115.75C177.357 92.4944 172.944 74.2495 155.837 67.9375L133.241 111.556C133.259 112.338 133.195 113.111 133.321 113.871C135.858 129.324 159.739 140.435 165.34 149.223C168.375 153.983 168.2 167.691 166.621 172.424C165.044 177.157 159.437 182.378 157.86 184.991C156.283 187.601 156.493 189.567 157.509 190.865C159.223 193.052 166.16 190.209 167.209 188.414C168.26 186.618 167.518 184.436 168.713 180.722C171.021 173.544 171.866 173.773 172.335 171.775C172.763 169.946 172.191 169.372 172.193 159.809C172.193 151.991 173.878 149.97 173.878 146.215C173.878 142.461 170.731 143.07 167.929 138.991Z" fill="#F3F3F3"/>
<path d="M162.814 71.5396C167.913 81.2417 166.376 90.4779 159.476 101.2C166.577 95.8093 170.632 89.3515 172.195 82.5602C170.053 78.0857 166.875 74.3532 162.811 71.5396H162.814Z" fill="#171516"/>
<path d="M162.915 71.7383C167.889 81.3676 166.327 90.5485 159.476 101.203C165.881 96.3393 169.808 90.6059 171.663 84.5457C170.102 79.2893 167.18 74.9451 162.915 71.7405V71.7383Z" fill="#2E292B"/>
<path d="M134.604 118.189C135.761 120.903 137.521 123.469 139.633 125.908C148.873 127.997 161.952 126.446 169.804 121.758C170.301 119.953 170.93 118.025 171.703 115.958C172.695 113.308 173.474 110.717 174.055 108.206C166.003 117.712 147.272 122.076 134.602 118.189H134.604Z" fill="#171516"/>
<path d="M134.604 118.188C135.759 120.903 137.521 123.467 139.63 125.909C147.643 127.723 158.54 126.797 166.413 123.462C166.893 121.081 167.628 118.504 168.657 115.752C169.134 114.48 169.569 113.219 169.967 111.98C160.74 118.798 145.45 121.517 134.604 118.19V118.188Z" fill="#2E292B"/>
<path d="M168.512 128.348C164.017 134.651 157.317 136.74 151.786 136.963C154.832 139.38 157.787 141.643 160.243 143.779C164.901 142.843 167.474 140.089 169.477 136.683C168.521 134.55 168.167 131.793 168.51 128.346L168.512 128.348Z" fill="#171516"/>
<path d="M151.786 136.966C154.834 139.382 157.787 141.646 160.243 143.781C163.79 143.068 166.129 141.299 167.931 138.991C166.716 137.224 165.923 134.689 165.742 131.495C161.522 135.378 156.272 136.785 151.789 136.966H151.786Z" fill="#2E292B"/>
<path d="M166.264 151.204C166.827 152.794 167.209 154.784 167.445 156.924C168.962 157.313 171.259 157.021 173.89 155.323C174.334 152.745 175.261 151.01 176.087 149.525C171.968 152.458 168.894 151.939 166.261 151.202L166.264 151.204Z" fill="#171516"/>
<path d="M166.264 151.202C166.827 152.792 167.211 154.782 167.445 156.922C168.655 157.231 170.36 157.107 172.333 156.189C172.505 154.064 172.814 152.498 173.11 151.16C170.42 152.178 168.22 151.752 166.264 151.202Z" fill="#2E292B"/>
<path d="M167.522 167.349C167.416 168.526 167.268 169.608 167.09 170.544C169.247 172.797 173.238 170.675 175.12 169.451C174.912 168.694 174.665 167.797 174.433 166.704C172.213 167.887 169.437 168.389 167.522 167.346V167.349Z" fill="#171516"/>
<path d="M167.525 167.349C167.416 168.526 167.271 169.608 167.092 170.547C168.481 171.995 170.625 171.633 172.483 170.867C172.534 170.136 172.456 169.301 172.366 167.552C170.656 168.051 168.876 168.084 167.525 167.349Z" fill="#2E292B"/>
<path d="M155.384 108.877C159.702 108.663 167.854 107.579 174.892 103.738C175.391 100.224 175.478 96.8803 175.188 93.7354C172.297 99.133 166.606 104.429 155.384 108.877Z" fill="#171516"/>
<path d="M155.384 108.877C159.075 108.694 165.572 107.874 171.776 105.237C172.374 102.446 172.754 99.7558 172.913 97.1851C169.601 101.364 164.201 105.383 155.384 108.875V108.877Z" fill="#2E292B"/>
<path d="M155.289 67.7495C152.522 66.8462 149.198 66.4287 145.636 66.3271C152.495 74.6711 154.101 89.9586 145.273 106.079C145.273 106.079 145.271 106.081 145.267 106.085C143.588 109.158 141.523 112.261 139.05 115.35C146.629 108.605 156.257 98.1987 158.015 84.5742C159.477 73.2421 155.475 67.8113 155.289 67.7495Z" fill="#2E292B"/>
<path d="M145.556 66.44C149.335 66.5482 152.846 67.0098 155.726 68.0346L155.768 67.7806C152.827 66.7426 149.242 66.2854 145.393 66.186L145.556 66.44Z" fill="#5E5E5E"/>
<path d="M174.7 141.471C173.282 140.744 171.677 139.92 170.415 138.087C167.474 133.807 167.951 126.378 171.831 116.004C176.027 104.789 176.63 94.2608 173.576 85.5591C170.621 77.1357 164.503 71.0026 155.885 67.8223L155.691 68.0255C155.715 68.0343 155.835 68.0762 155.857 68.0851C173.512 74.6445 179.828 93.8589 171.575 115.924C167.666 126.375 167.198 133.878 170.186 138.226C171.484 140.115 173.123 140.954 174.568 141.694C176.22 142.54 177.525 143.209 177.525 145.175C177.525 146.681 176.849 147.893 176.067 149.296C174.921 151.35 173.494 153.909 173.494 158.556C173.494 163.976 174.373 167.225 174.956 169.371C175.389 170.973 175.652 171.938 175.219 172.675C174.912 173.197 174.548 173.451 174.124 173.742C173.139 174.422 171.787 175.352 170.17 180.385C169.521 182.408 169.868 184.456 170.175 186.262C170.426 187.749 170.645 189.032 170.181 189.825C169.656 190.721 166.504 191.618 163.154 191.824C160.329 191.996 158.26 191.609 157.617 190.79C156.817 189.767 156.23 187.943 157.977 185.052C158.503 184.182 159.483 183.016 160.621 181.664C162.882 178.974 165.696 175.624 166.751 172.463C168.244 167.982 168.591 154.079 165.457 149.161C163.41 145.95 159.044 142.513 153.986 138.533C144.847 131.345 133.475 122.396 133.243 111.558C133.243 111.558 133.011 112.461 133.058 112.908C134.147 123.252 145.01 131.802 153.812 138.728C158.849 142.692 163.202 146.118 165.225 149.291C168.145 153.874 168.149 167.421 166.493 172.388C165.455 175.507 162.657 178.835 160.408 181.51C159.264 182.87 158.279 184.043 157.743 184.931C155.925 187.939 156.555 189.86 157.4 190.942C158.167 191.923 160.314 192.117 161.908 192.117C162.403 192.117 162.842 192.1 163.174 192.078C166.232 191.892 169.779 191.044 170.42 189.948C170.928 189.081 170.705 187.755 170.444 186.225C170.142 184.445 169.799 182.426 170.431 180.458C172.023 175.507 173.278 174.641 174.285 173.945C174.735 173.636 175.124 173.367 175.458 172.797C175.939 171.973 175.667 170.97 175.219 169.31C174.64 167.172 173.764 163.943 173.766 158.554C173.766 153.967 175.177 151.44 176.308 149.408C177.107 147.977 177.796 146.74 177.796 145.172C177.796 143.057 176.363 142.323 174.7 141.471Z" fill="#5E5E5E"/>
<path d="M63.9283 97.7856C63.734 99.3095 63.7782 100.438 63.8532 101.735C65.0967 123.06 80.731 138.474 81.6873 145.334C81.917 146.977 81.1881 148.459 81.4752 150.449C81.9214 153.536 83.9533 154.612 84.2801 158.112C84.607 161.613 85.1989 177.243 82.0583 180.69C80.3246 182.594 74.7767 183.954 72.111 187.921C70.3552 190.531 70.1498 192.802 72.111 193.551C74.0722 194.299 82.3344 193.398 84.5761 192.181C86.8177 190.964 88.1252 183.051 89.923 181.225C91.7207 179.398 92.9067 179.699 92.8648 178.486C92.7963 176.582 90.9698 176.401 90.4795 171.989C89.9892 167.576 89.8722 160.831 90.3713 157.363C90.7821 154.501 91.8378 153.114 92.1227 150.521C92.4076 147.931 91.2039 146.548 91.2878 144.87C91.5882 138.975 103.017 123.124 105.306 111.147C105.498 110.136 105.646 109.425 105.542 108.201L63.9283 97.7879V97.7856Z" fill="#BCBCBC"/>
<path d="M63.9283 97.786C63.734 99.3099 63.7782 100.438 63.8532 101.735C65.0967 123.061 80.731 138.474 81.6873 145.334C81.917 146.977 81.1881 148.459 81.4752 150.449C81.9214 153.536 83.9533 154.612 84.2801 158.113C84.607 161.613 85.1989 177.243 82.0583 180.691C80.3246 182.594 74.7767 183.955 72.111 187.921C70.3552 190.532 70.1498 192.802 72.111 193.551C74.0722 194.3 80.6559 192.157 82.8998 190.94C85.1415 189.724 85.5103 183.659 87.308 181.832C89.1058 180.006 89.6579 178.767 89.616 177.552C89.5475 175.651 88.6287 175.918 88.4035 172.87C88.0766 168.444 88.4543 161.916 88.9512 158.448C89.362 155.586 90.0312 154.537 90.3161 151.944C90.601 149.351 87.3279 144.769 87.414 143.09C87.7144 137.195 103.015 123.123 105.306 111.143C105.498 110.132 105.646 109.421 105.542 108.197C105.542 108.197 98.1586 102.227 87.5466 99.8334C76.9345 97.4393 63.9283 97.7838 63.9283 97.7838V97.786Z" fill="#F3F3F3"/>
<path d="M90.2517 169.394C88.8007 169.159 86.8527 169.148 84.452 169.785C84.3902 171.085 84.2952 172.38 84.1583 173.608C85.7286 173.031 88.1248 172.499 90.6669 173.214C90.5918 172.848 90.5255 172.441 90.477 171.989C90.3886 171.187 90.3113 170.312 90.2495 169.394H90.2517Z" fill="#171516"/>
<path d="M84.4543 169.782C84.3925 171.085 84.2975 172.377 84.1628 173.607C85.2539 173.208 86.7446 172.826 88.4054 172.872C88.3237 171.768 88.2862 170.531 88.284 169.246C87.1775 169.252 85.8965 169.402 84.4543 169.782Z" fill="#2E292B"/>
<path d="M84.2975 158.305C84.3659 159.084 84.441 160.326 84.4896 161.834C85.7065 161.576 87.628 161.379 90.0662 161.827C90.0993 160.297 90.1766 158.89 90.3158 157.768C88.6748 157.629 86.3757 157.624 84.2953 158.305H84.2975Z" fill="#171516"/>
<path d="M84.2977 158.305C84.3661 159.086 84.4412 160.325 84.4898 161.836C85.4527 161.631 86.8574 161.465 88.6087 161.626C88.7081 160.425 88.8274 159.338 88.9555 158.45C88.993 158.185 89.0328 157.936 89.077 157.7C87.6171 157.664 85.8944 157.786 84.2977 158.305Z" fill="#2E292B"/>
<path d="M74.4495 131.654C75.4787 133.386 76.4769 135 77.3891 136.495C80.5053 133.255 88.4119 130.91 95.0067 135.256C95.8305 133.62 96.7382 131.875 97.6636 130.068C92.3586 124.88 81.9829 122.409 74.4495 131.654Z" fill="#171516"/>
<path d="M74.4495 131.654C75.4787 133.386 76.4769 135.002 77.3891 136.497C80.0967 133.679 86.4265 131.539 92.3675 133.885C93.5314 132.264 94.8101 130.532 96.0999 128.734C90.5012 124.527 81.3004 123.251 74.4517 131.654H74.4495Z" fill="#2E292B"/>
<path d="M66.98 116.433C67.8988 118.979 68.9567 121.398 70.0764 123.677C77.7997 113.917 91.4331 112.709 101.389 122.458C102.403 120.229 103.324 117.992 104.051 115.819C94.6731 104.01 78.8421 99.8311 66.98 116.433Z" fill="#171516"/>
<path d="M66.9779 116.432C67.8966 118.981 68.9545 121.397 70.0765 123.676C77.6275 114.131 90.8369 112.768 100.725 121.83C101.966 119.783 103.077 117.705 103.918 115.655C94.5273 103.972 78.787 99.9103 66.9801 116.432H66.9779Z" fill="#2E292B"/>
<path d="M79.6685 140.358C80.521 141.904 81.1659 143.262 81.4905 144.419C84.6951 143.092 88.8825 143.759 91.3296 144.432L92.5046 140.568C88.6462 138.887 83.0144 138.167 79.6663 140.358H79.6685Z" fill="#171516"/>
<path d="M79.6663 140.36C80.521 141.904 81.1659 143.262 81.4905 144.421C83.3391 143.655 85.5167 143.553 87.4956 143.732C87.4359 143.487 87.4072 143.273 87.4139 143.092C87.4647 142.08 87.9594 140.826 88.7545 139.384C85.5388 138.712 82.0338 138.807 79.6685 140.355L79.6663 140.36Z" fill="#2E292B"/>
<path d="M94.0374 85.7159C94.3134 84.3554 100.948 75.0618 96.7583 66.4529C95.654 66.0289 94.6094 65.5518 93.6354 65.0151C96.045 73.9995 88.6839 82.3324 84.7261 84.5321C73.3786 90.8375 69.1227 95.3032 66.3024 103.817C72.0888 95.1906 84.6577 90.0005 87.4382 90.2765C90.221 90.5548 101.606 99.4619 102.501 106.414C102.571 94.687 93.7392 87.1956 94.0374 85.7159Z" fill="#2E292B"/>
<path d="M96.6035 131.84C93.7523 137.372 91.292 142.147 91.1528 144.863C91.1153 145.601 91.3207 146.283 91.5371 147.008C91.8242 147.964 92.1489 149.046 91.9876 150.511C91.8441 151.814 91.5062 152.803 91.1484 153.85C90.7995 154.872 90.4395 155.928 90.2363 157.348C89.7239 160.917 89.8785 167.806 90.3445 172.002C90.636 174.626 91.3847 175.754 91.9855 176.662C92.3852 177.265 92.701 177.74 92.7275 178.491C92.7496 179.094 92.4603 179.262 91.8286 179.626C91.3229 179.917 90.6316 180.317 89.8233 181.141C89.0039 181.971 88.306 183.979 87.5639 186.104C86.6518 188.719 85.7087 191.422 84.5073 192.073C82.2965 193.275 74.105 194.178 72.1637 193.436C71.5586 193.204 71.1566 192.815 70.9711 192.279C70.6155 191.247 71.0616 189.723 72.2255 187.99C73.8532 185.569 76.6117 184.105 78.8291 182.928C80.2514 182.172 81.4816 181.519 82.1596 180.774C85.4327 177.177 84.6928 161.116 84.4123 158.101C84.2357 156.222 83.5731 155.027 82.9304 153.872C82.3562 152.838 81.8129 151.862 81.6075 150.433C81.4595 149.404 81.5876 148.512 81.7113 147.653C81.8239 146.862 81.9321 146.116 81.8217 145.32C81.4882 142.937 79.4166 139.554 76.7951 135.272C71.4967 126.621 63.4885 113.548 63.928 97.7881C63.928 97.7881 63.6343 99.1574 63.6475 99.8376C63.9126 114.75 71.4791 127.102 76.5609 135.397C79.1692 139.656 81.2298 143.019 81.5545 145.351C81.6605 146.113 81.5545 146.844 81.4462 147.617C81.3204 148.494 81.1901 149.402 81.3424 150.464C81.5545 151.937 82.1331 152.978 82.6919 153.987C83.3213 155.12 83.9728 156.293 84.1451 158.123C84.4101 160.953 85.1279 177.124 81.9542 180.611C81.3071 181.322 80.0968 181.965 78.6966 182.709C76.4527 183.899 73.6611 185.381 71.9981 187.857C70.79 189.655 70.3328 191.254 70.7149 192.358C70.9247 192.97 71.3797 193.409 72.0621 193.672C72.5635 193.864 73.4734 193.948 74.5865 193.948C77.8794 193.948 82.9657 193.206 84.6464 192.294C85.9362 191.594 86.8969 188.842 87.8245 186.183C88.5556 184.087 89.2469 182.106 90.0243 181.315C90.8083 180.518 91.4819 180.129 91.9744 179.845C92.6105 179.478 93.0279 179.235 93.0036 178.486C92.9749 177.669 92.6259 177.144 92.2218 176.532C91.6343 175.646 90.9033 174.546 90.6184 171.98C90.1546 167.799 90 160.935 90.5079 157.384C90.7089 155.986 91.0667 154.939 91.4112 153.929C91.7734 152.869 92.1136 151.867 92.2615 150.537C92.4272 149.029 92.0959 147.92 91.8021 146.942C91.5813 146.208 91.3914 145.574 91.4267 144.877C91.5636 142.213 94.0129 137.456 96.8509 131.952C100.34 125.181 104.61 116.899 105.619 110.125C105.716 109.474 105.546 108.204 105.546 108.204C105.168 115.229 100.422 124.441 96.6057 131.844L96.6035 131.84Z" fill="#5E5E5E"/>
<path d="M29.2605 9.788C27.8801 13.9268 28.7613 20.8462 32.951 22.8427C29.5189 19.2781 30.3603 14.4856 31.8511 12.2748C33.3463 10.0619 39.0201 3.91768 37.1737 0.357493C36.0451 -1.22604 30.6408 5.64918 29.2605 9.788Z" fill="#E26A79"/>
<path d="M29.2606 9.78826C27.9973 13.5781 28.6289 19.6914 31.9572 22.2312C26.4137 14.583 32.2465 4.7351 37.4675 1.23013C37.4101 0.925346 37.3151 0.633818 37.1738 0.35554C36.0452 -1.22799 30.6409 5.64723 29.2606 9.78605V9.78826Z" fill="#FB959D"/>
<path d="M36.7122 0C34.8415 0 30.3361 6.13315 29.1302 9.75296C27.7587 13.8653 28.5251 20.8774 32.8892 22.9579L33.5385 23.2671L33.0504 22.7613C29.7597 19.3447 30.4355 14.6118 31.9638 12.3436C32.2222 11.9615 32.6087 11.4602 33.0548 10.8749C35.2236 8.04575 38.8545 3.31282 37.2842 0.28932C37.1495 0.101593 36.9507 0 36.7122 0ZM32.8362 10.7291C32.3856 11.3144 31.9969 11.8224 31.7363 12.2089C30.2455 14.4174 29.5432 18.8964 32.337 22.3483C28.757 19.9631 28.1518 13.5362 29.3886 9.82584C30.6409 6.06689 35.0911 0.251775 36.7122 0.251775C36.8624 0.251775 36.9728 0.306989 37.0501 0.413C38.5408 3.28853 34.9696 7.94636 32.8362 10.7291Z" fill="#5E5E5E"/>
<path d="M37.1736 0.355469C39.0222 3.92007 33.3462 10.0643 31.8532 12.275C30.3581 14.4858 29.521 19.2783 32.9509 22.8429L37.5403 21.4913C32.6837 17.3525 43.2096 3.93332 37.1736 0.355469Z" fill="#F3F3F3"/>
<path d="M37.2466 0.249753L36.8447 0.0112305L37.0523 0.410978C38.5452 3.28872 34.9718 7.94655 32.8384 10.7293C32.3878 11.3146 32.0013 11.8226 31.7385 12.2091C30.1616 14.5435 29.4637 19.4111 32.8516 22.9294L33.2668 22.9824C33.2271 22.9426 32.9753 22.6776 32.9355 22.6378C29.7773 19.2278 30.4531 14.5832 31.9682 12.3438C32.2244 11.9639 32.6109 11.4604 33.0592 10.8751C35.1308 8.17182 38.5386 3.73043 37.4741 0.71355C40.036 2.6637 38.7573 6.99025 37.5205 11.1821C36.4228 14.8991 35.2943 18.7287 36.8535 20.9372C37.0191 21.1736 37.6309 21.3988 37.6309 21.3988C35.3583 19.4619 36.5885 15.2856 37.7811 11.2483C39.0996 6.78044 40.4645 2.16015 37.2444 0.249753H37.2466Z" fill="#5E5E5E"/>
<path d="M73.2547 186.532C72.8351 186.956 72.4508 187.417 72.1107 187.921C70.3549 190.532 70.1517 192.802 72.1107 193.551C74.0741 194.299 82.3341 193.398 84.578 192.181C84.8474 192.036 85.1058 191.79 85.3532 191.472C81.4198 185.079 76.1877 185.569 73.2547 186.534V186.532Z" fill="#100F0E"/>
<path d="M73.255 186.532C72.8354 186.956 72.4511 187.415 72.1131 187.921C70.3574 190.531 70.152 192.802 72.1131 193.551C72.1485 193.564 72.186 193.577 72.2236 193.588C72.2611 193.601 72.2987 193.61 72.3406 193.621C74.5404 194.151 80.7398 192.117 82.9019 190.942C83.3591 190.695 83.7368 190.244 84.068 189.668C80.3422 185.185 75.8765 185.668 73.255 186.534V186.532Z" fill="#201E1C"/>
<path d="M76.6694 185.836C75.5386 185.836 74.3747 186.031 73.2086 186.413L73.1777 186.424L73.1556 186.446C72.7183 186.887 72.3296 187.36 71.9961 187.853C70.788 189.65 70.3331 191.249 70.7129 192.354C70.925 192.965 71.3777 193.405 72.0601 193.666C72.5527 193.853 73.4096 193.948 74.6088 193.948C77.8377 193.948 82.924 193.224 84.6467 192.287C84.9227 192.139 85.19 191.896 85.4616 191.543L85.5124 191.477L85.4683 191.406C83.1935 187.709 80.234 185.834 76.6694 185.834V185.836ZM84.5097 192.071C82.8224 192.987 77.8024 193.696 74.6088 193.696C73.4604 193.696 72.6145 193.606 72.164 193.431C71.5588 193.2 71.1569 192.811 70.9736 192.274C70.618 191.241 71.0619 189.719 72.228 187.983C72.5438 187.512 72.9171 187.06 73.3323 186.636C74.4586 186.269 75.5828 186.084 76.6716 186.084C80.1103 186.084 82.977 187.892 85.1922 191.459C84.9625 191.744 84.7328 191.949 84.512 192.069L84.5097 192.071Z" fill="#0C0B0B"/>
<path d="M157.707 185.249C156.298 187.729 156.53 189.606 157.509 190.861C159.222 193.049 169.249 191.678 170.301 189.885C170.369 189.77 170.424 189.644 170.464 189.511C166.429 182.981 160.824 183.981 157.707 185.249Z" fill="#100F0E"/>
<path d="M157.71 185.249C156.301 187.729 156.53 189.606 157.509 190.861C157.529 190.885 157.551 190.911 157.571 190.933C157.593 190.96 157.615 190.982 157.639 191.006C157.798 191.161 158.004 191.296 158.251 191.41C158.258 191.417 158.264 191.419 158.273 191.422C160.711 192.424 166.279 190.008 167.211 188.413C167.571 187.795 167.721 187.133 167.812 186.379C164.232 183.407 160.183 184.242 157.71 185.251V185.249Z" fill="#201E1C"/>
<path d="M162.151 184.193C160.703 184.193 159.19 184.509 157.655 185.134L157.611 185.151L157.589 185.191C155.961 188.056 156.588 189.895 157.401 190.938C158.203 191.963 160.561 192.115 161.895 192.115C165.25 192.115 169.705 191.167 170.42 189.946C170.495 189.82 170.555 189.686 170.595 189.544L170.61 189.493L170.581 189.449C168.428 185.962 165.59 184.193 162.149 184.193H162.151ZM170.184 189.825C169.581 190.854 165.475 191.863 161.897 191.863C159.682 191.863 158.163 191.481 157.622 190.788C156.858 189.809 156.274 188.073 157.807 185.348C159.294 184.749 160.756 184.445 162.151 184.445C165.473 184.445 168.221 186.156 170.319 189.529C170.286 189.63 170.239 189.73 170.184 189.825Z" fill="#0C0B0B"/>
<path d="M7.4776 57.6518C8.17992 56.5652 9.47413 55.4101 10.7882 55.6685C10.9715 55.7038 11.0201 55.8385 10.8522 55.854C9.78772 55.9468 8.50899 56.7352 7.61453 57.7246C7.41355 57.9455 7.30754 57.9168 7.4776 57.6518Z" fill="#585455"/>
</svg>
