<svg width="68" height="66" viewBox="0 0 68 66" fill="none" xmlns="http://www.w3.org/2000/svg">
<path d="M1.01002 28.95C0.810018 29.07 -0.019965 29.73 0.340035 30.01C0.670035 30.26 5.39001 27.87 8.25001 27.24C10 26.86 10.94 27.61 12.4 28.68C12.62 28.84 13.37 29.29 13.32 28.64C13.3 28.38 13.04 28.29 12.85 28.18C12.13 27.76 11.41 27.2199 10.34 26.6599C9.99004 26.4799 9.61003 26.36 9.21003 26.38C5.73003 26.57 1.01001 28.94 1.00001 28.95H1.01002Z" fill="#302A1F"/>
<path d="M2.91996 22.92C2.68996 22.92 1.63999 23.12 1.82999 23.54C1.99999 23.92 7.28996 24.03 10.11 24.83C11.83 25.31 12.31 26.42 13.09 28.05C13.21 28.3 13.65 29.04 13.92 28.45C14.03 28.21 13.8399 28.01 13.7199 27.83C13.2799 27.12 12.8999 26.31 12.2199 25.31C11.9999 24.98 11.72 24.7 11.35 24.53C8.18995 23.06 2.91 22.93 2.9 22.93L2.91996 22.92Z" fill="#302A1F"/>
<path d="M12.6301 39.95C12.6201 40.12 12.41 40.3 12.29 40.45C11.63 41.28 11.8801 42.13 11.5901 42.11C11.2401 42.09 10.64 40.3 10.67 39.86C10.67 39.78 10.7001 39.3 11.5701 39.36C11.9101 39.38 12.6601 39.67 12.6401 39.94L12.6301 39.95Z" fill="#302A1F"/>
<path d="M13.5301 27.72C14.0101 27.2 14.52 26.74 15.08 26.36C18.12 24.31 22.64 26.15 23.77 29.49C25.2 33.69 18.27 38.1 15.14 39.48C12.59 40.61 10.28 41.73 10.05 37.82C9.86001 34.54 11.14 30.34 13.52 27.72H13.5301Z" fill="#ED9C40"/>
<path d="M12.57 31.19C13.61 29.2 15.35 27.22 17.86 27.24C19.82 27.26 20.03 28.99 19.32 30.48C18.54 32.11 14.11 37.03 12.01 36.31C10.53 35.8 12.11 32.07 12.56 31.2L12.57 31.19Z" fill="#302A1F"/>
<path d="M14.38 31.5C14.6 31.34 15.33 30.53 16.31 29.82C16.44 29.72 16.5 29.69 16.62 29.6C17.48 28.98 17.34 28.54 17.25 28.41C17.01 28.08 16.18 28.37 15.75 28.68C14.25 29.76 13.55 31.18 13.82 31.54C13.85 31.59 14.02 31.77 14.38 31.51V31.5Z" fill="white"/>
<path d="M57.7401 2.53997C57.9401 2.96997 62.9501 14.2 53.6201 21.21C50.2101 23.77 34.55 31.24 30.79 32.94C28.63 33.92 27.6201 33.32 27.4001 32.81C27.2101 32.39 27.5201 31.54 28.1301 30.46C28.3101 30.13 47.5801 3.58998 52.7801 1.23998C54.0601 0.659981 56.5801 -0.0200315 57.7401 2.53997Z" fill="#E3D7C2"/>
<path d="M56.02 62.75C60.05 62.75 61.4 59.98 61.4 56.61C61.4 39.96 44.45 35.49 38.95 35.49C34.49 35.49 33.95 38.27 33.95 40.94C33.95 42.7 34.2799 44.54 34.3499 46.18C34.8199 57.86 51.07 62.74 56.02 62.74V62.75Z" fill="#ED9C40"/>
<path d="M34.49 47.59C34.53 47.86 34.58 48.13 34.64 48.39C39.51 46.61 44.13 41.31 44.21 36.29C43.93 36.21 43.64 36.14 43.37 36.08C42.63 40.7 38.51 45.24 34.49 47.59Z" fill="#302A1F"/>
<path d="M37.05 53.46C37.62 54.2 38.2501 54.9 38.9501 55.55C46.3301 53.61 52.65 46.25 52.67 40.09C51.93 39.58 51.1601 39.13 50.4001 38.71C49.0601 43.64 42.83 50.91 37.05 53.46Z" fill="#302A1F"/>
<path d="M41.63 57.69C42.36 58.19 43.12 58.65 43.89 59.07C50.51 56.9 56.99 52.09 57.24 44.27C56.66 43.55 56.03 42.88 55.37 42.26C54.8 51.09 45.41 56.46 41.63 57.69Z" fill="#302A1F"/>
<path d="M46.5701 60.36C47.4501 60.74 48.3301 61.07 49.1801 61.35C53.4601 59.88 59.16 56.23 60.55 50.49C60.2 49.34 59.7601 48.27 59.2401 47.28C58.6901 51.15 55.7601 57.15 46.5801 60.35L46.5701 60.36Z" fill="#302A1F"/>
<path d="M51.9399 62.15C53.6099 62.55 55.04 62.74 56.03 62.74C60.06 62.74 61.4099 59.97 61.4099 56.6C61.4099 55.81 61.3699 55.04 61.2999 54.3C60.5799 56.31 58.34 60.56 51.95 62.14L51.9399 62.15Z" fill="#302A1F"/>
<path d="M37.4501 38.12C37.4501 38.73 37.25 45.79 29.8 45.79C27.82 45.79 19.5701 45.31 19.5701 37.3C19.5701 32.88 22.33 28.51 27.29 28.51C32.25 28.51 37.4501 32.82 37.4501 38.12Z" fill="#ED9C40"/>
<path d="M39.91 41.22C39.6 40.64 39.44 39.62 38.43 39.35C37.41 39.08 36.76 39.66 36.24 40C33.52 41.77 32.81 42.48 32.73 42.77C32.7 42.87 32.75 42.95 32.94 43.01C34.31 43.42 37.18 41.15 37.18 41.15C38.3 46.79 38.18 50.19 39.17 50.45C39.5 50.54 39.94 50.36 40.15 50.41C40.23 50.43 40.28 50.49 40.25 50.63C38.79 58.85 40.94 58.96 41.9 59.48C43.05 60.1 44.45 62.37 45.88 64.02C46.7 64.97 46.74 65.12 48.18 65.81C48.39 65.91 48.75 66.01 48.94 65.87C49.36 65.57 48.15 65.05 47.49 64.46C47.09 64.1 45.39 61.97 44.53 60.71C39.3 53.09 44.89 52.5 39.91 41.22Z" fill="#302A1F"/>
<path d="M33.5401 65.02C33.4301 65.09 33.3101 65.06 33.1801 64.85C32.8201 64.31 33.6401 63.19 32.6801 61.42C31.4201 59.08 31.0101 58.28 30.6001 57.66C29.9401 56.66 29.4101 56.85 29.0401 56.3C28.2401 55.1 26.8301 46.79 27.9901 46.02C28.3201 45.8 28.8101 45.85 29.3401 45.83C30.1701 45.79 31.1701 45.48 31.1701 45.48C31.1701 45.48 30.8801 44.64 30.6201 44.12C30.4101 43.72 29.7601 42.57 30.1401 42.31C30.7601 41.9 32.0401 43.82 32.4301 44.42C33.6201 46.21 33.6301 47.08 33.3201 47.28C32.9601 47.52 31.8701 47.92 29.2001 47.69C29.2001 47.93 29.6001 49.46 29.6601 49.72C30.0101 51.11 30.5101 52.95 30.8801 54.34C31.0501 54.96 30.9601 55.65 31.2001 56.24C31.6901 57.44 32.9901 60.32 33.6601 61.52C34.0701 62.21 34.2001 62.86 34.0301 63.68C33.9901 63.88 33.8101 64.83 33.5301 65.02H33.5401Z" fill="#302A1F"/>
<path d="M24.0701 57.5C24.1701 57.6 24.2501 57.6 24.3101 57.54C24.5101 57.35 24.5601 56.61 24.5901 56.27C24.6201 55.89 24.6401 55.37 23.2401 52.92C21.0001 49 21.9101 50.66 21.3001 48.48C21.2001 48.12 20.4701 45.79 20.6001 45.67C20.6001 45.67 23.6201 45.84 24.0001 45.48C24.4801 45.02 23.8901 40.93 23.4301 40.44C22.6001 39.56 22.9001 43.72 22.9001 43.72C22.9001 43.72 21.5401 44.05 20.4701 44.17C19.7301 44.25 19.4901 44.26 19.3401 44.4C18.7601 44.95 19.7401 50.64 20.6801 51.63C21.0001 51.97 21.3801 51.95 21.7001 52.28C21.9801 52.57 22.4201 53.24 23.5601 55.03C24.2701 56.14 23.7901 57.18 24.0801 57.48L24.0701 57.5Z" fill="#302A1F"/>
<path d="M66.77 8.97999C66.87 9.48999 69.3699 22.72 57.6599 27.84C53.3799 29.71 34.7999 33.71 30.3599 34.57C27.8099 35.06 26.89 34.17 26.77 33.58C26.67 33.08 27.22 32.26 28.15 31.26C28.43 30.96 55.6699 7.53004 61.8099 6.34004C63.3199 6.05004 66.18 5.95999 66.77 8.97999Z" fill="#F2E6CF"/>
<path d="M50.65 22.91C52.42 22.32 57.88 20.97 59.64 26.26C60.94 30.15 56.34 32.2 53.42 33.17C48.33 34.86 28.68 35.65 27.96 33.51C27.94 33.45 27.91 33.39 27.88 33.31C26.98 30.61 47.71 23.9 50.64 22.92L50.65 22.91Z" fill="#E3D7C2"/>
</svg>
