<svg width="68" height="34" viewBox="0 0 68 34" fill="none" xmlns="http://www.w3.org/2000/svg">
<path d="M0.929932 33.26C1.83993 33.38 2.77993 33.37 3.68993 33.25C4.48993 28.82 5.03993 24.36 5.35993 19.89C4.84993 19.98 3.60993 19.81 3.20993 20.03C2.78993 20.26 2.88993 20.64 2.87993 21.04C2.83993 22.44 2.79993 23.82 2.64993 25.21C2.56993 25.92 1.41993 33.32 0.929932 33.25V33.26Z" fill="#3B4044"/>
<path d="M2.86987 21.57C3.58987 21.91 4.13987 22.51 4.41987 23.19C4.69987 23.87 4.76987 24.6 4.85987 25.32C5.06987 23.57 5.22987 22.05 5.38987 20.4C5.38987 20.37 3.64987 20.3 3.48987 20.3C3.07987 20.3 2.89987 20.33 2.89987 20.33C2.87987 20.63 2.87987 21.28 2.86987 21.57Z" fill="#1F2123"/>
<path d="M67.53 33.26C66.62 33.38 65.68 33.37 64.77 33.25C63.97 28.82 63.42 24.36 63.1 19.89C63.61 19.98 64.85 19.81 65.25 20.03C65.67 20.26 65.57 20.64 65.58 21.04C65.62 22.44 65.66 23.82 65.81 25.21C65.89 25.92 67.04 33.32 67.53 33.25V33.26Z" fill="#3B4044"/>
<path d="M65.5999 21.79C65.5999 21.54 65.5799 21.29 65.5799 21.04C65.5799 20.81 65.5999 20.58 65.5499 20.39C65.4699 20.39 65.3099 20.39 65.0399 20.38C64.8999 20.38 63.4499 20.36 63.1399 20.38C63.2699 22.05 63.4199 23.72 63.6199 25.39C63.7099 24.67 63.7699 23.88 64.0499 23.2C64.3299 22.52 64.8899 22.15 65.6099 21.81V21.79H65.5999Z" fill="#1F2123"/>
<path d="M12.8498 19.7H10.3098V30.57H12.8498V19.7Z" fill="#1F2123"/>
<path d="M58.8499 19.7H56.3099V30.57H58.8499V19.7Z" fill="#1F2123"/>
<path d="M10.8899 2.95001C11.6999 2.99001 12.51 3.03002 13.32 3.08002C13.34 7.42002 13.3699 11.75 13.3899 16.09C13.3899 16.28 13.3899 16.5 13.2799 16.63C13.1899 16.73 13.0699 16.76 12.9499 16.78C12.2999 16.89 10.5 17.22 10.32 16.19C10.26 15.85 10.6199 15.12 10.6699 14.76C10.7799 14 10.7599 13.16 10.7899 12.39C10.8199 11.6 11.0699 2.97001 10.8899 2.96001V2.95001Z" fill="#3B4044"/>
<path d="M58.5299 2.67999C57.7199 2.71999 56.9099 2.75999 56.0999 2.80999C56.0799 7.22999 56.0499 11.65 56.0299 16.07C56.0299 16.27 56.0299 16.48 56.1399 16.62C56.2299 16.73 56.3499 16.76 56.4699 16.78C57.1199 16.89 58.9199 17.23 59.0999 16.17C59.1599 15.82 58.7999 15.08 58.7499 14.71C58.6399 13.93 58.6599 13.08 58.6299 12.29C58.5999 11.48 58.3499 2.68999 58.5299 2.67999Z" fill="#3B4044"/>
<path d="M6.94998 13.96H62.14C63.64 13.96 64.86 15.18 64.86 16.68V17.06H4.22998V16.68C4.22998 15.18 5.44998 13.96 6.94998 13.96Z" fill="#7A4E35"/>
<path d="M5.51003 15.06H63.49C64.99 15.06 66.21 16.28 66.21 17.78V18.16H2.79004V17.78C2.79004 16.28 4.01003 15.06 5.51003 15.06Z" fill="#875839"/>
<path d="M4.54991 14.96C3.76991 14.96 3.10991 15.43 2.90991 16.06L66.1299 16.15C65.9299 15.51 65.3399 14.95 64.5599 14.95H4.54991V14.96Z" fill="#99653F"/>
<path d="M4.16996 16.61H64.61C66.11 16.61 67.33 17.83 67.33 19.33V19.71H1.45996V19.33C1.45996 17.83 2.67995 16.61 4.17995 16.61H4.16996Z" fill="#99653F"/>
<path d="M65.7101 19.7H2.80005V20.39H65.7101V19.7Z" fill="#3B4044"/>
<path d="M61.7799 6.21997H7.32986C6.24186 6.21997 5.35986 7.10197 5.35986 8.18997V8.72997C5.35986 9.81797 6.24186 10.7 7.32986 10.7H61.7799C62.8679 10.7 63.7499 9.81797 63.7499 8.72997V8.18997C63.7499 7.10197 62.8679 6.21997 61.7799 6.21997Z" fill="#99653F"/>
<path d="M61.7799 0.440002H7.32986C6.24186 0.440002 5.35986 1.322 5.35986 2.41V2.95C5.35986 4.038 6.24186 4.92 7.32986 4.92H61.7799C62.8679 4.92 63.7499 4.038 63.7499 2.95V2.41C63.7499 1.322 62.8679 0.440002 61.7799 0.440002Z" fill="#99653F"/>
<path d="M10.8298 10.7H13.3898L13.3598 11.88L10.8198 11.19L10.8298 10.7Z" fill="#1F2123"/>
<path d="M10.9299 4.91998H13.3499L13.3299 6.09998L10.9399 5.50999L10.9299 4.91998Z" fill="#1F2123"/>
<path d="M56.0499 10.7H58.5999L58.6299 11.96L56.0599 11.29L56.0499 10.7Z" fill="#1F2123"/>
<path d="M56.09 4.91998H58.51L58.49 6.09998L56.09 5.55998V4.91998Z" fill="#1F2123"/>
<path d="M65.59 16.61H3.18996C2.22996 16.61 1.44995 17.3 1.44995 18.16H67.32C67.32 17.31 66.54 16.61 65.58 16.61H65.59Z" fill="#AD7149"/>
<path d="M63.7499 4.02V1.35C63.7499 0.849998 63.2899 0.440002 62.7299 0.440002H54.0999C44.2799 2.7 33.9199 3.4 23.7499 3.95C19.5199 4.18 15.2799 4.39 11.0399 4.48C9.54989 4.51 8.03989 4.53 6.55989 4.33C6.41989 4.31 5.92989 4.2 5.38989 4.14C5.44989 4.59 5.86989 4.93 6.38989 4.93H62.7499C63.3099 4.93 63.7699 4.52 63.7699 4.02H63.7499Z" fill="#935D35"/>
<path d="M63.07 0.47998C63.17 0.61998 63.24 0.799978 63.24 0.969978V3.63998C63.24 4.13998 62.78 4.54998 62.22 4.54998H5.86C5.73 4.54998 5.61 4.52997 5.5 4.48997C5.7 4.79997 6 4.91998 6.36 4.91998H62.72C63.28 4.91998 63.74 4.50998 63.74 4.00998V1.33997C63.74 0.949973 63.45 0.60998 63.06 0.47998H63.07Z" fill="#7A4E35"/>
<path d="M63.6999 9.79002V7.12003C63.6999 6.62003 63.2399 6.21002 62.6799 6.21002H54.0499C44.2299 8.47002 33.8699 9.17002 23.6999 9.72002C19.4699 9.95002 15.2299 10.16 10.9899 10.25C9.4999 10.28 7.98989 10.3 6.50989 10.1C6.36989 10.08 5.92989 9.98002 5.38989 9.92002C5.44989 10.37 5.8199 10.7 6.3299 10.7H62.6899C63.2499 10.7 63.7099 10.29 63.7099 9.79002H63.6999Z" fill="#935D35"/>
<path d="M6.61987 2.50998C8.50987 2.27998 10.3799 2.36997 12.2699 2.56997C14.1299 2.76997 15.9799 3.04997 17.8499 3.09997C19.7599 3.14997 21.6699 2.98998 23.5799 2.89998C25.4999 2.80998 27.4099 2.83997 29.3199 2.94997C31.2699 3.05997 33.2199 3.21997 35.1799 3.34997C37.0899 3.46997 39.0099 3.53997 40.9299 3.56997C44.6399 3.61997 48.3599 3.51998 52.0699 3.46998C55.8999 3.41998 59.7299 3.40997 63.5699 3.33997C63.7299 3.33997 63.7299 3.08997 63.5699 3.08997C60.1499 3.14997 56.7199 3.16997 53.2999 3.20997C49.6099 3.24997 45.9199 3.35997 42.2299 3.33997C40.3099 3.32997 38.3999 3.28997 36.4799 3.17997C34.5599 3.07997 32.6499 2.91998 30.7399 2.78998C28.7899 2.65998 26.8299 2.56998 24.8799 2.61998C22.9699 2.66998 21.0599 2.84997 19.1399 2.88997C17.0299 2.92997 14.9399 2.69997 12.8399 2.49997C10.7899 2.29997 8.66987 2.11997 6.61987 2.49997V2.51997V2.50998Z" fill="#7A4E35"/>
<path d="M18.0699 2.31002C19.6199 2.25002 21.1699 2.10002 22.7199 1.99002C24.2499 1.88002 25.8199 1.65002 27.3499 1.77002C28.1299 1.83002 28.8899 2.02003 29.6499 2.16003C30.3699 2.30003 31.0899 2.37002 31.8199 2.40002C33.3099 2.45002 34.8099 2.34003 36.2999 2.30003C42.1399 2.12003 47.9799 2.28002 53.8099 2.15002C57.0599 2.08002 60.3099 1.92003 63.5399 1.55003C63.6899 1.53003 63.6899 1.29002 63.5399 1.31002C57.7299 1.98002 51.8599 1.97002 46.0199 1.97002C43.1199 1.97002 40.2099 1.97002 37.3099 2.04002C35.8599 2.08002 34.4099 2.16002 32.9499 2.18002C32.1899 2.18002 31.4299 2.18002 30.6699 2.09002C29.8899 2.01002 29.1399 1.83002 28.3699 1.70002C26.6799 1.41002 24.9799 1.63002 23.2799 1.79002C21.5399 1.95002 19.7799 2.07002 18.0399 2.29002C18.0199 2.29002 18.0199 2.32002 18.0399 2.32002L18.0699 2.31002Z" fill="#7A4E35"/>
<path d="M7.05981 9.00999C7.11981 9.56999 8.12982 9.45998 8.48982 9.45998C9.38982 9.44998 10.2698 9.31998 11.1498 9.16998C13.0498 8.84998 14.9498 8.46998 16.8798 8.77998C17.8098 8.92998 18.7198 9.17998 19.6498 9.34998C20.5898 9.51998 21.5398 9.60998 22.4898 9.66998C24.3798 9.77998 26.2898 9.76999 28.1898 9.78999C31.9498 9.81999 35.7098 9.78998 39.4698 9.70998C43.2898 9.62998 47.1098 9.50999 50.9198 9.32999C54.6298 9.15999 58.3498 8.95998 62.0598 8.69998C62.5198 8.66998 62.9798 8.63998 63.4398 8.59998C63.6298 8.58998 63.6298 8.28999 63.4398 8.29999C59.8098 8.56999 56.1698 8.78999 52.5298 8.96999C48.8098 9.14999 45.0898 9.29998 41.3698 9.38998C37.6598 9.48998 33.9598 9.53999 30.2498 9.53999C28.4598 9.53999 26.6598 9.51999 24.8698 9.49999C22.9198 9.46999 20.9798 9.39998 19.0698 8.98998C18.1898 8.80998 17.3198 8.58999 16.4198 8.49999C15.4998 8.39999 14.5798 8.44998 13.6598 8.56998C11.8698 8.80998 10.0998 9.28999 8.27982 9.32999C7.95982 9.32999 7.18982 9.41998 7.09982 8.98998C7.09982 8.96998 7.06982 8.97998 7.06982 8.98998L7.05981 9.00999Z" fill="#7A4E35"/>
<path d="M6.94995 7.73001C8.81995 7.82001 10.69 7.78 12.56 7.77C14.43 7.77 16.3 7.75 18.17 7.74C19.08 7.74 19.98 7.73001 20.89 7.72001C21.79 7.72001 22.71 7.65001 23.58 7.94001C24.35 8.20001 25.0799 8.32 25.8999 8.34C26.8299 8.36 27.77 8.36001 28.7 8.36001C36.09 8.40001 43.49 8.24 50.88 7.88C55.04 7.68 59.2 7.42 63.36 7.1C63.52 7.09 63.52 6.83 63.36 6.84C55.95 7.45 48.53 7.84001 41.1 8.03001C37.4 8.13001 33.7099 8.17 30.0099 8.17C29.1099 8.17 28.2 8.17001 27.3 8.16001C26.39 8.16001 25.45 8.21001 24.56 8.03001C24.18 7.95001 23.82 7.81001 23.45 7.69001C23.05 7.57001 22.64 7.53 22.22 7.52C21.31 7.5 20.4 7.52001 19.5 7.53001C17.41 7.54001 15.33 7.55001 13.24 7.57001C11.16 7.59001 9.05995 7.56001 6.97995 7.69001C6.96995 7.69001 6.96995 7.71001 6.97995 7.71001L6.94995 7.73001Z" fill="#7A4E35"/>
<path d="M63.09 6.28003C63.19 6.42003 63.24 6.58003 63.24 6.76003V9.43003C63.24 9.93003 62.78 10.34 62.22 10.34H5.86C5.73 10.34 5.61 10.32 5.5 10.28C5.68 10.54 6 10.71 6.36 10.71H62.72C63.28 10.71 63.74 10.3 63.74 9.80003V7.13003C63.74 6.74003 63.47 6.41003 63.08 6.28003H63.09Z" fill="#7A4E35"/>
</svg>
