<svg width="73" height="45" viewBox="0 0 73 45" fill="none" xmlns="http://www.w3.org/2000/svg">
<path d="M20.5099 17.54L20.3599 17.43L20.4099 17.34C20.4099 17.34 21.1399 15.79 21.5099 14.99C21.6099 14.77 21.7399 14.5 22.1399 14.44C24.4099 14.11 33.3699 12.9 41.2799 11.84C48.2899 10.89 54.3399 10.08 54.6699 10.02C55.1799 9.93002 55.7899 9.56999 55.7399 8.35999C55.6999 7.30999 55.0599 7.06001 54.5699 6.95001C54.0099 6.83001 52.3499 6.53003 52.3299 6.53003L52.2399 6.51001L52.2699 6.29999L52.3599 6.32001C52.3599 6.32001 54.0399 6.61999 54.6099 6.73999C54.9199 6.80999 55.8799 7.00998 55.9299 8.34998C55.9699 9.41998 55.5299 10.08 54.6999 10.23C54.3699 10.29 48.3199 11.11 41.2999 12.05C33.3999 13.12 24.4399 14.32 22.1599 14.65C21.8699 14.69 21.7799 14.84 21.6699 15.09C21.2899 15.9 20.5799 17.43 20.5599 17.45L20.5099 17.54Z" fill="#69696C"/>
<path d="M14.9399 43.88C13.9799 43.88 13.0099 43.78 12.0599 43.59C10.1599 43.2 8.39995 42.46 6.81995 41.37C5.28995 40.32 3.99991 39 2.96991 37.45C1.93991 35.9 1.23994 34.19 0.869939 32.37C0.489939 30.49 0.489949 28.57 0.879949 26.68C1.21995 25.02 1.83991 23.45 2.71991 22.02C3.56991 20.64 4.64992 19.42 5.90992 18.4C8.45992 16.34 11.65 15.21 14.9 15.21C15.86 15.21 16.83 15.31 17.78 15.5C19.68 15.89 21.44 16.63 23.02 17.72C24.55 18.77 25.8399 20.09 26.8699 21.64C27.8999 23.19 28.5999 24.9 28.9699 26.72C29.3499 28.6 29.35 30.52 28.96 32.41C28.62 34.07 27.9999 35.64 27.1199 37.07C26.2699 38.45 25.1899 39.67 23.9299 40.69C21.3799 42.75 18.1899 43.88 14.9399 43.88ZM14.9099 16.42C8.70992 16.42 3.29994 20.84 2.05994 26.93C1.35994 30.37 2.03991 33.87 3.96991 36.79C5.89991 39.71 8.85993 41.71 12.2999 42.41C13.1699 42.59 14.0599 42.68 14.9399 42.68C21.1399 42.68 26.5499 38.26 27.7899 32.17C29.2399 25.08 24.6399 18.13 17.5499 16.69C16.6799 16.51 15.7899 16.42 14.9099 16.42Z" fill="#4C4C4E"/>
<path d="M6.53989 30.07C6.53989 30.07 6.53989 30.04 6.53989 30.03C6.03989 25.61 9.22993 21.6 13.6499 21.1C13.7699 21.09 13.8699 21.17 13.8799 21.29C13.8899 21.41 13.8099 21.51 13.6899 21.52C9.49991 22 6.47992 25.79 6.94992 29.98C6.95992 30.1 6.87992 30.2 6.75992 30.21C6.65992 30.22 6.56989 30.16 6.53989 30.07Z" fill="#EC5553"/>
<path d="M14.9399 42.49C14.0699 42.49 13.1999 42.4 12.3399 42.23C8.94992 41.54 6.0399 39.57 4.1299 36.69C2.2199 33.81 1.54989 30.35 2.23989 26.97C2.54989 25.47 3.09992 24.06 3.89992 22.76C4.66992 21.51 5.63993 20.41 6.77993 19.49C9.07993 17.63 11.9599 16.61 14.8999 16.61C15.7699 16.61 16.6399 16.7 17.4999 16.87C20.8899 17.56 23.7999 19.53 25.7099 22.41C27.6199 25.29 28.2899 28.75 27.5999 32.13C27.2899 33.63 26.7399 35.04 25.9399 36.34C25.1699 37.59 24.1999 38.69 23.0599 39.61C20.7599 41.47 17.8799 42.49 14.9399 42.49ZM14.9099 18.41C9.64987 18.41 5.05991 22.16 4.00991 27.32C2.77991 33.34 6.67991 39.23 12.6999 40.46C13.4399 40.61 14.1899 40.69 14.9399 40.69C20.1999 40.69 24.7899 36.94 25.8399 31.78C26.4299 28.87 25.8599 25.89 24.2199 23.41C22.5799 20.93 20.0699 19.24 17.1599 18.64C16.4199 18.49 15.6699 18.41 14.9199 18.41H14.9099Z" fill="#EC5553"/>
<path d="M16.2999 29.82C16.1499 30.58 15.4 31.07 14.65 30.91C13.89 30.76 13.4 30.01 13.56 29.26C13.71 28.5 14.46 28.01 15.21 28.17C15.97 28.32 16.4599 29.07 16.2999 29.82Z" fill="#595A5C"/>
<path d="M58.24 44.2C57.72 44.2 57.19 44.17 56.68 44.11C54.76 43.9 52.93 43.32 51.26 42.39C49.64 41.49 48.23 40.3 47.06 38.85C45.89 37.4 45.03 35.76 44.5 33.99C43.95 32.15 43.77 30.25 43.98 28.32C44.36 24.79 46.04 21.54 48.69 19.18C51.32 16.83 54.7 15.54 58.21 15.54C58.73 15.54 59.26 15.57 59.77 15.63C61.69 15.84 63.52 16.42 65.19 17.35C66.81 18.25 68.22 19.44 69.39 20.89C70.56 22.34 71.42 23.98 71.95 25.75C72.5 27.59 72.68 29.49 72.47 31.42C72.09 34.95 70.41 38.2 67.76 40.56C65.13 42.91 61.75 44.2 58.24 44.2ZM58.21 16.74C51.51 16.74 45.9 21.77 45.18 28.45C44.4 35.64 49.62 42.13 56.81 42.92C57.29 42.97 57.77 43 58.24 43C64.94 43 70.55 37.97 71.27 31.29C71.65 27.8 70.65 24.38 68.45 21.65C66.25 18.92 63.12 17.2 59.64 16.83C59.16 16.78 58.68 16.75 58.21 16.75V16.74Z" fill="#4C4C4E"/>
<path d="M56.55 38.69C56.55 38.69 56.52 38.69 56.51 38.69C52.08 38.26 48.82 34.31 49.25 29.88C49.26 29.76 49.36 29.68 49.48 29.69C49.6 29.7 49.68 29.8 49.67 29.92C49.26 34.12 52.35 37.86 56.55 38.27C56.67 38.28 56.75 38.38 56.74 38.5C56.74 38.6 56.65 38.68 56.55 38.69Z" fill="#EC5553"/>
<path d="M58.2398 42.83C57.7698 42.83 57.2999 42.8 56.8299 42.75C53.3899 42.38 50.2999 40.69 48.1399 37.99C45.9699 35.29 44.9798 31.92 45.3598 28.48C45.7098 25.29 47.2198 22.35 49.6098 20.22C51.9898 18.1 55.0398 16.93 58.2198 16.93C58.6898 16.93 59.1599 16.96 59.6299 17.01C63.0699 17.38 66.1599 19.07 68.3199 21.77C70.4799 24.47 71.4798 27.84 71.0998 31.28C70.7498 34.47 69.2398 37.41 66.8498 39.54C64.4698 41.66 61.4198 42.83 58.2398 42.83ZM58.2099 18.19C52.2399 18.19 47.2498 22.67 46.6098 28.62C45.9098 35.03 50.5598 40.8 56.9698 41.5C57.3898 41.55 57.8199 41.57 58.2499 41.57C64.2199 41.57 69.2098 37.09 69.8498 31.14C70.1898 28.04 69.2999 24.99 67.3399 22.55C65.3799 20.12 62.5998 18.59 59.4898 18.25C59.0698 18.2 58.6399 18.18 58.2099 18.18V18.19Z" fill="#EC5553"/>
<path d="M59.6199 30.03C59.5399 30.8 58.8399 31.36 58.0699 31.27C57.2999 31.19 56.7399 30.4899 56.8299 29.7199C56.9099 28.9499 57.6099 28.39 58.3799 28.48C59.1499 28.56 59.7099 29.26 59.6199 30.03Z" fill="#595A5C"/>
<path d="M31.4799 24.12C31.4099 24.12 31.35 24.12 31.28 24.09L28.27 23.17C27.91 23.06 27.71 22.68 27.82 22.32C27.93 21.96 28.3099 21.76 28.6699 21.87L31.68 22.79C32.04 22.9 32.24 23.28 32.13 23.64C32.04 23.93 31.7699 24.12 31.4799 24.12Z" fill="#4C4C4E"/>
<path d="M58.7898 29.57L51.2999 5.15C51.1599 4.72 50.6199 4.58 50.2999 4.9L49.7999 5.4C49.6399 5.56 49.5798 5.8 49.6598 6.02L50.0799 7.23997C50.1999 7.59997 49.9599 7.99001 49.5799 8.03001L27.0799 10.67C26.7899 10.7 26.5199 10.53 26.4299 10.25L25.5998 7.53996C25.4998 7.21996 25.1698 7.03999 24.8498 7.13999C24.5298 7.23999 24.3499 7.56999 24.4499 7.88999L25.2898 10.63C25.3398 10.79 25.3198 10.97 25.2298 11.11L14.5699 29.2199C14.3499 29.5999 14.5899 30.07 15.0199 30.12L32.2999 32.11C32.4799 32.13 32.6598 32.07 32.7898 31.94L51.3899 13.73C51.7099 13.42 52.2399 13.5499 52.3799 13.9699L57.6399 29.95C57.7499 30.26 58.0799 30.43 58.3999 30.33H58.4098C58.7198 30.22 58.8999 29.89 58.7999 29.57H58.7898ZM26.2298 13.76L31.1598 29.92C31.2898 30.34 30.9499 30.74 30.5099 30.69L16.9798 29.13C16.5498 29.08 16.3099 28.6 16.5299 28.23L25.1299 13.63C25.3999 13.18 26.0698 13.26 26.2298 13.76ZM32.2898 29.5L27.1299 12.59C27.0199 12.23 27.2599 11.86 27.6399 11.82L50.2298 9.16996C50.5098 9.13996 50.7799 9.30999 50.8699 9.56999L51.5099 11.44C51.5899 11.66 51.5299 11.9 51.3599 12.07L33.2898 29.76C32.9698 30.08 32.4198 29.94 32.2898 29.51V29.5Z" fill="#68C5AC"/>
<path d="M35.1299 28.07C35.1299 28.07 35.06 27.99 35.02 27.96C34.12 27.28 33.1199 26.93 32.1299 26.93C30.5999 26.93 29.22 27.78 28.53 29.15C27.79 30.62 28.01 32.33 29.14 33.84C29.17 33.88 29.2099 33.92 29.2499 33.95C30.1499 34.63 31.15 34.98 32.14 34.98C33.67 34.98 35.0499 34.13 35.7399 32.76C36.4799 31.29 36.2599 29.58 35.1299 28.07ZM33.0999 30.56C33.0599 30.47 33.0599 30.34 33.1699 30.23L34.2599 29.14C34.3199 29.08 34.3999 29.04 34.4799 29.04C34.5799 29.04 34.6699 29.09 34.7299 29.18C34.9799 29.55 35.1499 29.95 35.2299 30.39C35.2499 30.48 35.2299 30.57 35.1699 30.64C35.1099 30.71 35.0299 30.74 34.9299 30.74H33.39C33.24 30.74 33.1499 30.64 33.1099 30.55L33.0999 30.56ZM33.96 28.84L32.8699 29.93C32.7999 30 32.7099 30.02 32.6599 30.02C32.5099 30.02 32.3499 29.91 32.3499 29.72V28.18C32.3499 28 32.47 27.88 32.64 27.88C32.66 27.88 32.68 27.88 32.7 27.88C33.14 27.96 33.5399 28.13 33.9099 28.38C33.9899 28.44 34.0399 28.52 34.0499 28.6C34.0499 28.69 34.02 28.77 33.95 28.84H33.96ZM32.3499 32.2C32.3499 32.01 32.5099 31.9 32.6599 31.9C32.7199 31.9 32.7999 31.92 32.8699 31.99L33.96 33.08C34.03 33.15 34.0599 33.24 34.0599 33.32C34.0599 33.41 33.9999 33.49 33.9199 33.54C33.5499 33.79 33.15 33.96 32.71 34.04C32.69 34.04 32.67 34.04 32.65 34.04C32.48 34.04 32.3599 33.91 32.3599 33.74V32.2H32.3499ZM33.0999 31.36C33.1399 31.27 33.2299 31.17 33.3799 31.17H34.9199C35.0099 31.17 35.1 31.21 35.15 31.28C35.21 31.35 35.23 31.44 35.21 31.52C35.13 31.96 34.96 32.36 34.71 32.73C34.65 32.82 34.56 32.87 34.46 32.87C34.38 32.87 34.3099 32.84 34.2399 32.77L33.15 31.68C33.04 31.57 33.05 31.44 33.08 31.35L33.0999 31.36ZM31.9199 29.72C31.9199 29.91 31.7599 30.02 31.6099 30.02C31.5499 30.02 31.47 30 31.4 29.93L30.3099 28.84C30.2399 28.77 30.21 28.68 30.21 28.6C30.21 28.51 30.2699 28.43 30.3499 28.38C30.7199 28.13 31.1199 27.96 31.5599 27.88C31.5799 27.88 31.5999 27.88 31.6199 27.88C31.7899 27.88 31.9099 28.01 31.9099 28.18V29.72H31.9199ZM31.1699 30.56C31.1299 30.65 31.04 30.75 30.89 30.75H29.3499C29.2499 30.75 29.1699 30.71 29.1099 30.65C29.0599 30.58 29.0299 30.5 29.0499 30.4C29.1299 29.96 29.2999 29.56 29.5499 29.19C29.6099 29.1 29.6999 29.05 29.7999 29.05C29.8799 29.05 29.95 29.08 30.02 29.15L31.1099 30.24C31.2199 30.35 31.2099 30.48 31.1799 30.57L31.1699 30.56ZM29.1099 31.28C29.1699 31.21 29.2499 31.18 29.3499 31.18H30.89C31.04 31.18 31.1299 31.28 31.1699 31.37C31.2099 31.46 31.2099 31.59 31.0999 31.7L30.0099 32.79C29.9499 32.85 29.8699 32.89 29.7899 32.89C29.6899 32.89 29.5999 32.84 29.5399 32.75C29.2899 32.38 29.1199 31.98 29.0399 31.54C29.0199 31.45 29.0399 31.36 29.0999 31.29L29.1099 31.28ZM30.3199 33.08L31.4099 31.99C31.4799 31.92 31.5699 31.9 31.6199 31.9C31.7699 31.9 31.9299 32.01 31.9299 32.2V33.74C31.9299 33.92 31.81 34.04 31.64 34.04C31.62 34.04 31.6 34.04 31.58 34.04C31.14 33.96 30.7399 33.79 30.3699 33.54C30.2899 33.48 30.2399 33.4 30.2299 33.32C30.2299 33.23 30.26 33.15 30.33 33.08H30.3199Z" fill="#8FD1C3"/>
<path d="M32.13 35.3C29.73 35.3 27.78 33.35 27.78 30.95C27.78 28.55 29.73 26.6 32.13 26.6C34.53 26.6 36.48 28.55 36.48 30.95C36.48 33.35 34.53 35.3 32.13 35.3ZM32.13 27.21C30.06 27.21 28.38 28.89 28.38 30.96C28.38 33.03 30.06 34.71 32.13 34.71C34.2 34.71 35.88 33.03 35.88 30.96C35.88 28.89 34.2 27.21 32.13 27.21Z" fill="#4C4C4E"/>
<path d="M49.65 7.46005C49.42 7.46005 49.2 7.30002 49.15 7.06002C49.09 6.78002 49.2699 6.51004 49.5399 6.45004L51.8499 5.95004C52.1299 5.89004 52.4 6.07005 52.46 6.34005C52.52 6.62005 52.34 6.89004 52.07 6.95004L49.76 7.45004C49.76 7.45004 49.69 7.46005 49.65 7.46005Z" fill="#4C4C4E"/>
<path d="M31.5799 31.39L31.7999 30.63C31.8699 30.4 32.1499 30.33 32.3199 30.5L32.8899 31.07C32.8899 31.07 32.9699 31.18 32.9799 31.24L34.0699 38.19C34.0899 38.3 33.9299 38.34 33.8899 38.23L31.59 31.58C31.57 31.52 31.57 31.45 31.59 31.39H31.5799Z" fill="#B3E0DF"/>
<path d="M35.6999 39.18C35.6999 39.18 35.6699 39.18 35.6499 39.18L32.5099 38.95C32.1399 38.92 31.8599 38.6 31.8799 38.23C31.9099 37.86 32.2299 37.5799 32.5999 37.5999L35.7399 37.83C36.1099 37.86 36.3899 38.18 36.3699 38.55C36.3399 38.91 36.0499 39.18 35.6999 39.18Z" fill="#4C4C4E"/>
<path d="M19.73 5.95004C20.25 5.25004 22.04 5.70003 23.02 5.57003C24 5.44003 28.1 4.55003 28.83 4.57003C29.57 4.59003 29.99 4.66005 29.88 5.09005C29.76 5.52005 28.29 5.95003 27.44 6.00003C26.59 6.05003 26.2 6.32 25.3 6.6C24.91 6.72 23.28 7.50003 22.1 7.44003C20.54 7.36003 19.43 6.35004 19.73 5.95004Z" fill="#6A6A6D"/>
<path d="M21.9099 5.57004C21.0199 5.53004 20.0599 5.46004 19.6999 5.95004C19.4099 6.35004 20.5099 7.35003 22.0699 7.44003C23.2499 7.50003 24.8799 6.72001 25.2699 6.60001C25.2899 6.60001 25.3099 6.59005 25.34 6.58005C23.79 6.42005 22.5399 6.06005 21.9099 5.58005V5.57004Z" fill="#4C4C4E"/>
<path d="M25.5152 6.48001L23.8333 6.96326L24.0984 7.88595L25.7803 7.4027L25.5152 6.48001Z" fill="#4C4C4E"/>
<path d="M48.9799 5.69002C48.9799 5.69002 48.9299 5.69002 48.9099 5.69002C48.5599 5.69002 48.2799 5.4 48.2899 5.05C48.2899 4.7 48.5799 4.43001 48.9199 4.43001C48.9399 4.43001 48.9599 4.43001 48.9699 4.43001C51.1399 4.43001 52.92 2.77003 52.95 0.700028C52.95 0.350028 53.24 0.0700327 53.59 0.0800327C53.94 0.0800327 54.22 0.369986 54.21 0.719986C54.17 3.47999 51.8299 5.70003 48.9699 5.70003L48.9799 5.69002Z" fill="#68C5AC"/>
<path d="M54.5899 1.03998C54.5899 1.58998 54.1499 2.03003 53.5999 2.03003C53.0499 2.03003 52.6099 1.58998 52.6099 1.03998C52.6099 0.489978 53.0499 0.0499878 53.5999 0.0499878C54.1499 0.0499878 54.5899 0.489978 54.5899 1.03998Z" fill="#4C4C4E"/>
<path d="M53.8499 1.03998C53.8499 1.17998 53.73 1.29999 53.59 1.29999C53.45 1.29999 53.33 1.17998 53.33 1.03998C53.33 0.899978 53.45 0.780029 53.59 0.780029C53.73 0.780029 53.8499 0.899978 53.8499 1.03998Z" fill="#828184"/>
</svg>
