<svg width="54" height="60" viewBox="0 0 54 60" fill="none" xmlns="http://www.w3.org/2000/svg">
<path d="M5.73 33.22C7.45 33.43 9.17 33.64 10.89 33.84C11.2 33.88 11.51 33.9 11.82 33.88C12.54 33.83 13.05 33.49 13.3 32.78C13.67 31.7 13.76 30.6 13.17 29.59C12.9 29.14 12.43 28.72 11.95 28.5C11.07 28.11 10.13 27.88 9.21001 27.58C8.46001 27.34 7.79 26.99 7.3 26.36C6.71 25.58 6.76 24.64 7.55 24.08C8.1 23.69 8.76999 23.39 9.42999 23.26C10.45 23.06 11.5 23.03 12.53 22.93C12.89 22.9 13.26 22.88 13.62 22.83C14.09 22.76 14.3 22.44 14.37 22C14.44 21.56 14.19 21.3 13.84 21.13C13.54 20.99 13.22 20.91 12.91 20.82C12.53 20.7 12.13 20.62 11.75 20.48C11.32 20.32 11.03 20.03 11.16 19.51C11.28 19.01 11.64 18.72 12.16 18.75C12.47 18.77 12.77 18.86 13.07 18.94C13.39 19.02 13.7 19.15 14.01 19.23C14.46 19.35 14.8 19.23 14.79 18.69C14.76 17.78 14.79 16.86 14.62 15.97C14.41 14.94 13.74 14.19 12.74 13.76C11.74 13.33 10.88 12.7 10.43 11.68C9.89999 10.49 10.03 9.34001 10.88 8.34001C11.75 7.31001 12.91 7.04002 14.17 7.44002C16.13 8.07002 17.21 9.45002 17.44 11.49C17.52 12.14 17.57 12.8 17.68 13.45C17.87 14.55 18.38 14.99 19.49 14.92C20.17 14.88 20.87 14.74 21.52 14.52C22.28 14.26 22.47 13.73 22.16 12.98C21.89 12.32 21.53 11.7 21.27 11.03C20.9 10.09 21.14 9.34001 21.91 8.81001C22.5 8.40001 22.98 8.51002 23.2 9.19002C23.43 9.92002 23.55 10.68 23.72 11.43C23.89 12.2 24.01 12.98 24.27 13.72C24.69 14.92 25.53 15.22 26.59 14.52C27.11 14.18 27.57 13.69 27.91 13.16C28.85 11.69 29.19 9.98002 29.63 8.32002C30.1 6.54002 30.62 4.76002 31.14 2.99002C31.23 2.68002 31.41 2.39001 31.59 2.11001C32.47 0.740015 33.91 0.490016 35.23 1.47002C35.85 1.93002 36.07 2.52001 35.75 3.26001C35.5 3.86001 35.16 4.44002 34.79 4.97002C33.97 6.14002 33.07 7.25001 32.25 8.42001C31.58 9.37001 31.06 10.39 30.88 11.56C30.64 13.21 31.63 15.27 33.08 16.11C33.75 16.5 34.46 16.53 35.13 16.18C35.94 15.76 36.7 15.24 37.49 14.78C38.2 14.37 38.9 13.92 39.65 13.59C40.7 13.13 41.8 13.16 42.85 13.63C44.42 14.33 45.07 15.98 44.42 17.57C43.92 18.81 42.95 19.59 41.79 20.17C40.51 20.81 40.16 21.45 40.48 22.85C40.96 25 42.39 26.33 44.4 27C45.42 27.34 46.55 27.35 47.63 27.52C48.49 27.65 49.39 27.67 50.21 27.94C52.1 28.57 53.01 30.41 52.49 32.34C51.98 34.25 50.41 35.57 48.37 35.88C46.87 36.1 45.37 36.36 43.88 36.65C43.31 36.76 42.75 36.97 42.22 37.22C41.81 37.41 41.42 37.68 41.1 37.99C40 39.1 40.32 40.73 41.8 41.16C43.07 41.53 44.42 41.64 45.73 41.89C46.48 42.03 47.24 42.17 47.97 42.42C48.87 42.73 49.16 43.25 49.04 44.03C48.88 45.04 48.27 45.73 47.39 45.72C46.73 45.71 46.03 45.59 45.41 45.37C44.2 44.94 43.05 44.38 41.85 43.92C39.7 43.11 37.84 44.45 37.9 46.75C37.9 47.09 37.92 47.47 38.05 47.78C38.42 48.65 38.79 49.53 39.26 50.35C39.85 51.38 40.4 52.43 40.43 53.62C40.45 54.4 40.34 55.24 40.08 55.97C39.62 57.25 38.55 57.93 37.51 57.81C36.32 57.68 35.17 56.65 34.95 55.41C34.83 54.71 34.86 53.99 34.85 53.28C34.85 52.73 34.9 52.18 34.89 51.63C34.87 50.7 34.58 49.89 33.66 49.47C32.67 49.03 31.7 49.06 30.8 49.71C29.27 50.83 28.65 53.24 29.39 55.18C29.89 56.49 29.66 57.6 28.66 58.47C27.65 59.34 26.48 59.56 25.23 59.04C24.25 58.64 23.81 57.96 24 56.91C24.16 56 24.49 55.12 24.74 54.22C24.93 53.52 25.14 52.81 25.27 52.1C25.39 51.43 25.11 50.89 24.56 50.48C23.96 50.03 23.32 49.71 22.56 49.67C21.4 49.61 20.6 50.1 20.13 51.16C19.66 52.22 18.9 52.88 17.69 52.89C16.64 52.89 15.8 52.21 15.79 51.16C15.79 50.43 16.04 49.7 16.18 48.97C16.31 48.29 16.55 47.62 16.57 46.95C16.6 45.97 16.01 45.31 15.11 44.96C13.69 44.42 11.99 44.88 11.08 46.14C10.44 47.03 9.94 48.02 9.36 48.94C8.87 49.71 8.43001 50.53 7.82001 51.2C6.88001 52.25 5.36 52.25 4.33 51.3C3.31 50.37 3.26 49.05 4.2 47.91C4.87 47.1 5.76 46.6 6.7 46.16C8.97 45.09 11.09 43.78 12.73 41.85C13.34 41.14 13.85 40.3 14.21 39.44C14.7 38.28 14.3 37.41 13.16 36.85C11.46 36.02 9.66 36.07 7.91 36.59C6.89 36.89 5.95 37.47 4.98 37.93C4.87 37.98 4.77 38.07 4.66 38.15C3.28 39.07 1.89 38.83 1.09 37.53C0.229996 36.12 0.609993 34.42 2.03999 33.72C2.60999 33.44 3.28999 33.32 3.92999 33.23C4.51999 33.15 5.14001 33.21 5.74001 33.21C5.74001 33.19 5.74 33.17 5.75 33.15L5.73 33.22Z" fill="black"/>
<path d="M47.08 13.32C47.08 12.8 47.32 11.92 47.82 11.13C48.53 10.01 49.57 9.49001 50.89 9.63001C52.15 9.76001 53.03 10.46 53.48 11.63C53.93 12.82 53.73 13.94 52.87 14.89C52.05 15.79 51.01 16.3 49.8 16.43C48.12 16.61 47.07 15.56 47.08 13.32Z" fill="black"/>
</svg>
