<svg width="61" height="49" viewBox="0 0 61 49" fill="none" xmlns="http://www.w3.org/2000/svg">
<path d="M7.05002 17.92C7.05002 17.92 5.57002 16.34 4.33002 17.92C3.09002 19.5 0.870025 20.86 0.680025 22.29C0.490025 23.72 0.680025 26.49 0.680025 26.49C0.680025 26.49 4.27002 19.63 7.05002 19.75C9.83002 19.87 7.05002 17.91 7.05002 17.91V17.92Z" fill="#FF874E"/>
<path d="M6.00001 27.89C6.00001 27.89 4.26002 27.09 3.76002 29.09C3.26002 31.09 1.87001 33.31 2.19001 34.7C2.51001 36.09 3.57001 38.55 3.57001 38.55C3.57001 38.55 4.26999 30.69 6.60999 29.58C8.93999 28.47 6.01002 27.89 6.01002 27.89H6.00001Z" fill="#FF874E"/>
<path d="M8.09005 38.2C8.09005 38.2 6.34006 38.57 6.88006 40.46C7.42006 42.35 7.37004 44.94 8.27004 45.88C9.17004 46.82 11.1601 48.17 11.1601 48.17C11.1601 48.17 8.04006 41.45 9.35006 39.2C10.6701 36.95 8.08004 38.2 8.08004 38.2H8.09005Z" fill="#FF874E"/>
<path d="M14.9201 40.73C14.9201 40.73 13.62 41.01 14.02 42.42C14.42 43.83 14.3801 45.77 15.0601 46.47C15.7301 47.17 17.2201 48.18 17.2201 48.18C17.2201 48.18 14.8901 43.16 15.8701 41.48C16.8501 39.8 14.9301 40.73 14.9301 40.73H14.9201Z" fill="#FF874E"/>
<path d="M14.54 22.68C14.54 22.68 8.47999 16.84 6.98999 16.86C5.50999 16.87 6.30999 19.35 6.36999 19.77C6.42999 20.19 12.37 24.81 13.54 24.28C14.72 23.74 14.53 22.69 14.53 22.69L14.54 22.68Z" fill="#FF5F2B"/>
<path d="M13.73 28.95C13.73 28.95 6.82 26.26 5.6 26.93C4.38 27.59 5.85998 29.51 6.04998 29.87C6.23998 30.23 12.65 31.86 13.44 30.85C14.23 29.84 13.73 28.95 13.73 28.95Z" fill="#FF5F2B"/>
<path d="M13.4101 32.69C13.4101 32.69 7.35004 36.63 6.99004 38.03C6.63004 39.44 8.76003 39.43 9.11003 39.5C9.45003 39.57 14.5401 35.38 14.4101 34.1C14.2801 32.83 13.4101 32.68 13.4101 32.68V32.69Z" fill="#FF5F2B"/>
<path d="M18.89 36.61C18.89 36.61 14.36 39.55 14.1 40.6C13.83 41.65 15.43 41.65 15.68 41.7C15.94 41.75 19.73 38.62 19.64 37.67C19.54 36.72 18.89 36.61 18.89 36.61Z" fill="#FF5F2B"/>
<path d="M17.14 7.85999C17.14 7.85999 18.17 3.60999 20.29 1.93999C22.4 0.279987 25.54 0.109985 25.54 0.109985C25.54 0.109985 21.85 2.62999 20.84 4.95999C19.83 7.28999 17.89 9.49998 17.89 9.49998L17.19 8.13998L17.14 7.85999Z" fill="#FF6A24"/>
<path d="M15.7501 12.74C15.7501 12.74 15.2601 8.03997 16.9501 6.87997C18.6401 5.71997 19.2101 8.78997 22.6201 6.35997C26.0401 3.92997 26.6201 1.21997 26.6201 1.21997C26.6201 1.21997 27.8701 5.56997 26.1801 7.77997C24.5001 9.99997 20.3101 10.99 19.3701 11.75C18.4301 12.51 16.9101 14.65 16.9101 14.65L15.7901 13L15.7401 12.74H15.7501Z" fill="#FF874E"/>
<path d="M16.3801 20.26C16.3801 20.26 12.2701 18.06 13.7901 13.7C15.3101 9.33999 16.5101 13.07 17.8901 14.37C19.2701 15.67 18.35 18.16 18.09 19.01C17.83 19.86 16.3801 20.25 16.3801 20.25V20.26Z" fill="#FF5F2B"/>
<path d="M20.67 22.56C20.67 22.56 12.84 22.39 15.73 19.51C18.62 16.63 18.88 16.33 20.87 18.87C22.86 21.42 20.66 22.56 20.66 22.56H20.67Z" fill="#F24718"/>
<path d="M20.2301 25.84C20.2301 25.84 14.9701 21.69 14.3501 21.47C13.7301 21.24 12.5601 24.27 12.5601 24.27C12.5601 24.27 14.7901 26.67 16.3901 27.28C18.0001 27.88 20.6001 28.56 20.2201 25.85L20.2301 25.84Z" fill="#F24718"/>
<path d="M19.46 29.36C19.46 29.36 13.77 27.87 13.18 27.93C12.6 27.99 12.62 31.28 12.62 31.28C12.62 31.28 15.24 32.5 16.77 32.35C18.29 32.2 20.66 31.68 19.46 29.35V29.36Z" fill="#F24718"/>
<path d="M22.05 33.32C22.05 33.32 15.0201 32.9 14.2901 33.03C13.5601 33.17 13.4501 35.9 13.4501 35.9C13.4501 35.9 16.6701 36.54 18.5701 36.2C20.4701 35.85 23.44 35.08 22.05 33.32Z" fill="#F24718"/>
<path d="M25.3501 37.08C25.3501 37.08 20.1001 36.76 19.5601 36.87C19.0101 36.97 18.9301 39.02 18.9301 39.02C18.9301 39.02 21.3301 39.5 22.7501 39.24C24.1701 38.98 26.3901 38.4 25.3501 37.09V37.08Z" fill="#F24718"/>
<path d="M30.63 17.09C30.63 17.09 20.96 17.21 18.99 22.19C17.01 27.17 20.78 36.07 21.4 36.37C22.02 36.67 23.29 40.29 30.63 40.22V17.09Z" fill="#FF3000"/>
<path d="M24.6501 19.2C25.1858 19.2 25.6201 18.6717 25.6201 18.02C25.6201 17.3683 25.1858 16.84 24.6501 16.84C24.1143 16.84 23.6801 17.3683 23.6801 18.02C23.6801 18.6717 24.1143 19.2 24.6501 19.2Z" fill="black"/>
<path d="M46.34 40.73C46.34 40.73 47.64 41.01 47.24 42.42C46.84 43.83 46.88 45.77 46.2 46.47C45.53 47.17 44.04 48.18 44.04 48.18C44.04 48.18 46.37 43.16 45.39 41.48C44.41 39.8 46.33 40.73 46.33 40.73H46.34Z" fill="#FF874E"/>
<path d="M42.37 36.61C42.37 36.61 46.9 39.55 47.16 40.6C47.43 41.65 45.83 41.65 45.58 41.7C45.32 41.75 41.53 38.62 41.62 37.67C41.72 36.72 42.37 36.61 42.37 36.61Z" fill="#FF5F2B"/>
<path d="M54.2199 17.92C54.2199 17.92 55.6999 16.34 56.9399 17.92C58.1799 19.5 60.3999 20.86 60.5899 22.29C60.7799 23.72 60.5899 26.49 60.5899 26.49C60.5899 26.49 56.9999 19.63 54.2199 19.75C51.4399 19.87 54.2199 17.91 54.2199 17.91V17.92Z" fill="#FF874E"/>
<path d="M55.27 27.89C55.27 27.89 57.01 27.09 57.51 29.09C58.01 31.09 59.4 33.31 59.08 34.7C58.76 36.09 57.7 38.55 57.7 38.55C57.7 38.55 57 30.69 54.66 29.58C52.33 28.47 55.26 27.89 55.26 27.89H55.27Z" fill="#FF874E"/>
<path d="M53.18 38.2C53.18 38.2 54.93 38.57 54.39 40.46C53.85 42.35 53.9 44.94 53 45.88C52.1 46.82 50.11 48.17 50.11 48.17C50.11 48.17 53.23 41.45 51.92 39.2C50.6 36.95 53.19 38.2 53.19 38.2H53.18Z" fill="#FF874E"/>
<path d="M46.7301 22.68C46.7301 22.68 52.79 16.84 54.28 16.86C55.76 16.87 54.96 19.35 54.9 19.77C54.84 20.19 48.9001 24.81 47.7301 24.28C46.5501 23.74 46.74 22.69 46.74 22.69L46.7301 22.68Z" fill="#FF5F2B"/>
<path d="M47.54 28.95C47.54 28.95 54.45 26.26 55.67 26.93C56.89 27.59 55.41 29.51 55.22 29.87C55.03 30.23 48.62 31.86 47.83 30.85C47.04 29.84 47.54 28.95 47.54 28.95Z" fill="#FF5F2B"/>
<path d="M47.86 32.69C47.86 32.69 53.92 36.63 54.28 38.03C54.64 39.43 52.51 39.43 52.16 39.5C51.82 39.57 46.73 35.38 46.86 34.1C46.99 32.83 47.86 32.68 47.86 32.68V32.69Z" fill="#FF5F2B"/>
<path d="M44.13 7.85999C44.13 7.85999 43.1 3.60999 40.98 1.93999C38.87 0.279987 35.73 0.109985 35.73 0.109985C35.73 0.109985 39.42 2.62999 40.43 4.95999C41.44 7.28999 43.39 9.49998 43.39 9.49998L44.09 8.13998L44.14 7.85999H44.13Z" fill="#FF6A24"/>
<path d="M45.5101 12.74C45.5101 12.74 46.0001 8.03997 44.3101 6.87997C42.6201 5.71997 42.0501 8.78997 38.6401 6.35997C35.2201 3.92997 34.6401 1.21997 34.6401 1.21997C34.6401 1.21997 33.3901 5.56997 35.0801 7.77997C36.7601 9.99997 40.9501 10.99 41.8901 11.75C42.8301 12.51 44.3501 14.65 44.3501 14.65L45.4701 13L45.5201 12.74H45.5101Z" fill="#FF874E"/>
<path d="M44.89 20.26C44.89 20.26 49 18.06 47.48 13.7C45.96 9.33999 44.76 13.07 43.38 14.37C42 15.67 42.92 18.16 43.18 19.01C43.44 19.86 44.89 20.25 44.89 20.25V20.26Z" fill="#FF5F2B"/>
<path d="M40.59 22.56C40.59 22.56 48.42 22.39 45.53 19.51C42.64 16.63 42.38 16.33 40.39 18.87C38.4 21.42 40.6 22.56 40.6 22.56H40.59Z" fill="#E04216"/>
<path d="M41.04 25.84C41.04 25.84 46.3 21.69 46.92 21.47C47.54 21.24 48.71 24.27 48.71 24.27C48.71 24.27 46.48 26.67 44.88 27.28C43.27 27.88 40.67 28.56 41.05 25.85L41.04 25.84Z" fill="#E04216"/>
<path d="M41.81 29.36C41.81 29.36 47.5 27.87 48.09 27.93C48.67 27.99 48.65 31.28 48.65 31.28C48.65 31.28 46.03 32.5 44.5 32.35C42.98 32.2 40.61 31.68 41.81 29.35V29.36Z" fill="#E04216"/>
<path d="M39.2201 33.32C39.2201 33.32 46.2501 32.9 46.9801 33.03C47.7101 33.17 47.8201 35.9 47.8201 35.9C47.8201 35.9 44.6001 36.54 42.7001 36.2C40.8001 35.85 37.8301 35.08 39.2201 33.32Z" fill="#E04216"/>
<path d="M35.92 37.08C35.92 37.08 41.17 36.76 41.72 36.87C42.27 36.97 42.35 39.02 42.35 39.02C42.35 39.02 39.95 39.5 38.53 39.24C37.11 38.98 34.89 38.4 35.93 37.09L35.92 37.08Z" fill="#E04216"/>
<path d="M30.63 17.09C30.63 17.09 40.3 17.21 42.27 22.19C44.25 27.17 40.48 36.07 39.86 36.37C39.24 36.67 37.97 40.29 30.63 40.22V17.09Z" fill="#F02D00"/>
<path d="M35.65 18.02C35.65 18.67 36.08 19.2 36.62 19.2C37.16 19.2 37.59 18.67 37.59 18.02C37.59 17.37 37.16 16.84 36.62 16.84C36.08 16.84 35.65 17.37 35.65 18.02Z" fill="black"/>
</svg>
