<svg width="45" height="48" viewBox="0 0 45 48" fill="none" xmlns="http://www.w3.org/2000/svg">
<path d="M15.07 4.35001C15.07 6.23001 15.11 8.02001 15.03 9.80001C15.02 10.09 14.57 10.44 14.25 10.62C9.73002 13.25 6.85001 17.09 5.98001 22.26C4.47001 31.24 10.31 39.57 19.15 41.23C29.71 43.21 39.34 34.59 38.51 23.88C38.05 17.97 35.1 13.61 30.03 10.66C29.41 10.3 29.19 9.91001 29.21 9.23001C29.25 7.64001 29.22 6.04001 29.22 4.26001C32.11 5.11001 34.47 6.58001 36.58 8.43001C41.25 12.53 43.81 17.73 44.18 23.93C44.89 35.79 35.71 46.15 23.78 47.06C11.67 47.98 1.07001 38.89 0.150013 26.6C-0.719987 14.92 7.64003 6.39001 15.07 4.35001Z" fill="#1A1A1A"/>
<path d="M25.46 10.8C25.46 13.84 25.4399 16.88 25.4799 19.91C25.49 20.73 25.2699 21.06 24.3999 21.02C22.7999 20.96 21.2 20.98 19.6 21.02C18.95 21.03 18.7 20.8 18.7 20.13C18.72 13.93 18.72 7.72 18.7 1.52C18.7 0.909999 18.9 0.650006 19.53 0.660006C21.22 0.680006 22.92 0.690006 24.61 0.660006C25.3 0.650006 25.47 0.959999 25.47 1.59C25.45 4.66 25.47 7.73001 25.47 10.8H25.46Z" fill="#1A1A1A"/>
</svg>
