<svg width="56" height="55" viewBox="0 0 56 55" fill="none" xmlns="http://www.w3.org/2000/svg">
<path d="M38.4399 18.48C38.4299 17.26 38.18 16.14 37.71 15.23C37.71 15.23 37.7099 15.21 37.7 15.2L30.64 3.58003L30.6199 3.54L30.5999 3.50002C29.4599 1.74002 28.2299 0.610022 26.4299 0.630022L12.33 0.780046C7.45996 0.830046 6.47991 2.95004 6.15991 3.65004L0.519958 16.54C0.239958 17.18 0.0899658 18.06 0.0899658 18.96C0.0999658 19.85 0.269946 20.73 0.569946 21.36L6.53992 34.09C7.66992 36.23 9.16996 36.9 12.71 36.87L26.8099 36.72C28.8099 36.7 29.9299 35.87 30.9299 34.21V34.18L30.96 34.15L37.77 21.91C38.21 20.95 38.4599 19.7 38.4399 18.46V18.48Z" fill="black"/>
<path d="M35.2998 18.18C37.2498 18.16 38.2398 16.87 37.5098 15.31L30.4398 3.65996C29.4298 2.10996 28.3798 0.829963 26.4298 0.849963L12.3299 0.999987C10.3799 1.01999 9.38983 2.30998 10.1198 3.86998L15.5299 15.54C16.2499 17.1 18.4198 18.36 20.3698 18.34L35.2998 18.18Z" fill="white"/>
<path d="M20.3199 18.34C19.3799 18.34 18.3699 18.05 17.4599 17.52C16.5499 16.99 15.8599 16.29 15.5199 15.54L10.1099 3.87C9.78986 3.18 9.78988 2.49998 10.1299 1.97998C10.3199 1.67998 10.6099 1.44002 10.9799 1.27002C11.3599 1.09002 11.8199 1 12.3399 1L26.4399 0.849976C26.4399 0.849976 26.4699 0.849976 26.4899 0.849976C27.3699 0.849976 28.1299 1.11999 28.8199 1.67999C29.4699 2.20999 29.9899 2.94997 30.4599 3.65997L37.5299 15.31C37.8499 16 37.8499 16.68 37.5099 17.2C37.3199 17.5 37.0299 17.74 36.6598 17.91C36.2799 18.09 35.8199 18.18 35.3099 18.18L20.3799 18.34C20.3799 18.34 20.3499 18.34 20.3299 18.34H20.3199ZM26.4799 0.849976C26.4799 0.849976 26.4499 0.849976 26.4299 0.849976L12.3299 1C11.3199 1.01 10.5199 1.36998 10.1299 1.97998C9.79988 2.49998 9.78987 3.17 10.1199 3.87L15.5299 15.54C16.2399 17.08 18.3899 18.34 20.3199 18.34C20.3199 18.34 20.3499 18.34 20.3699 18.34L35.2999 18.18C36.3099 18.17 37.1099 17.81 37.4899 17.2C37.8199 16.68 37.8299 16.01 37.5099 15.32L30.4399 3.66998C29.5199 2.24998 28.4499 0.859985 26.4799 0.859985V0.849976Z" fill="black"/>
<path d="M35.2999 19.01C37.2499 18.99 38.26 20.25 37.57 21.84L30.7499 34.1C29.8099 35.67 28.7499 36.5 26.7999 36.52L12.7 36.67C10.75 36.69 9.72994 35.42 10.4299 33.84L15.59 22.06C16.28 20.48 18.4199 19.18 20.3699 19.16L35.2999 19V19.01Z" fill="white"/>
<path d="M12.6599 36.67C12.1499 36.67 11.7099 36.58 11.3199 36.41C10.9499 36.25 10.6699 36.01 10.4699 35.72C10.1299 35.2 10.1099 34.53 10.4199 33.84L15.5799 22.06C16.2699 20.48 18.4199 19.18 20.3699 19.16L35.2999 19C35.2999 19 35.3299 19 35.3499 19C35.8599 19 36.2999 19.09 36.6799 19.25C37.0499 19.41 37.3299 19.65 37.5299 19.94C37.8699 20.46 37.8899 21.13 37.5799 21.82L30.7599 34.08C30.2499 34.92 29.7499 35.5 29.1599 35.88C28.8399 36.09 28.4999 36.24 28.1099 36.34C27.7199 36.45 27.2899 36.5 26.7999 36.51L12.6999 36.66C12.6999 36.66 12.6699 36.66 12.6499 36.66L12.6599 36.67ZM35.3499 19.01C35.3499 19.01 35.3199 19.01 35.2999 19.01L20.3699 19.17C18.4299 19.19 16.2799 20.49 15.5899 22.07L10.4299 33.85C10.1299 34.54 10.1399 35.21 10.4799 35.73C10.8699 36.33 11.6599 36.67 12.6599 36.67C12.6799 36.67 12.6899 36.67 12.7099 36.67L26.8099 36.52C28.6199 36.5 29.7299 35.82 30.7599 34.1L37.5799 21.84C37.8799 21.14 37.8699 20.48 37.5299 19.96C37.1399 19.36 36.3499 19.02 35.3599 19.02L35.3499 19.01Z" fill="black"/>
<path d="M6.74986 34.07C7.33986 35.35 8.82987 35.54 9.38987 34.25L15.0199 21.13C15.5799 19.84 15.5598 17.76 14.9698 16.48L9.13987 3.80998C8.54987 2.52998 6.91984 2.40999 6.35984 3.69999L0.699868 16.63C0.139868 17.92 0.159856 20 0.749856 21.28L6.74986 34.07Z" fill="white"/>
<path d="M8.19987 35.13C7.91987 35.13 7.63987 35.04 7.38987 34.86C7.12987 34.67 6.90987 34.4 6.75987 34.07L0.759866 21.28C0.169866 20 0.149878 17.92 0.709878 16.63L6.36985 3.70001C6.49985 3.40001 6.68985 3.17001 6.92985 3.01001C7.14985 2.86001 7.40985 2.78998 7.67985 2.78998C7.96985 2.78998 8.25988 2.87999 8.51988 3.04999C8.78988 3.22999 9.00983 3.49 9.15983 3.81L14.9898 16.48C15.2798 17.1 15.4399 17.92 15.4499 18.8C15.4499 19.68 15.3098 20.51 15.0398 21.13L9.40983 34.25C9.16983 34.81 8.72988 35.13 8.20988 35.13H8.19987ZM7.66984 2.78998C7.09984 2.78998 6.60985 3.13001 6.36985 3.70001L0.709878 16.63C0.149878 17.92 0.169866 20 0.759866 21.28L6.75987 34.07C7.05987 34.72 7.60987 35.13 8.19987 35.13C8.71987 35.13 9.14988 34.81 9.39988 34.25L15.0299 21.13C15.5899 19.84 15.5698 17.76 14.9798 16.48L9.14988 3.81C8.85988 3.18 8.29985 2.78998 7.67985 2.78998H7.66984Z" fill="black"/>
<path d="M23.2399 26.16C24.6399 25.55 26.1099 25.82 26.5199 26.77C26.9299 27.71 26.1299 28.98 24.7299 29.59C23.3299 30.2 21.8599 29.93 21.4499 28.98C21.0399 28.03 21.8399 26.77 23.2399 26.16Z" fill="black"/>
<path d="M14.2999 31.42C15.6999 30.81 17.17 31.08 17.58 32.03C17.99 32.98 17.1899 34.24 15.7899 34.85C14.3899 35.46 12.92 35.19 12.51 34.24C12.1 33.29 12.8999 32.04 14.2999 31.42Z" fill="black"/>
<path d="M32.32 21.05C33.72 20.44 35.1899 20.71 35.5999 21.66C36.0099 22.61 35.2099 23.87 33.8099 24.48C32.4099 25.09 30.94 24.82 30.53 23.87C30.12 22.92 30.92 21.66 32.32 21.05Z" fill="black"/>
<path d="M6.19986 28.57C6.21986 27.21 6.96987 26.12 7.88987 26.13C8.80987 26.14 9.53987 27.25 9.51987 28.61C9.49987 29.97 8.74987 31.06 7.82987 31.05C6.90987 31.04 6.17986 29.93 6.19986 28.57Z" fill="black"/>
<path d="M5.86999 8.75C5.88999 7.22 6.74001 5.99001 7.77001 6.01001C8.80001 6.02001 9.61997 7.26998 9.59997 8.79998C9.57997 10.33 8.73 11.56 7.7 11.54C6.67 11.53 5.84999 10.28 5.86999 8.75Z" fill="black"/>
<path d="M22.6399 10.49C24.0499 11.07 25.5199 10.77 25.9099 9.80999C26.2999 8.85999 25.4699 7.61002 24.0599 7.03002C22.6499 6.45002 21.1799 6.75 20.7899 7.7C20.3999 8.65 21.2299 9.89997 22.6399 10.48V10.49Z" fill="black"/>
<path d="M34.5599 47.25C35.0699 48.69 34.6899 50.14 33.7199 50.48C32.7499 50.82 31.5499 49.93 31.0399 48.5C30.5299 47.06 30.9099 45.61 31.8799 45.27C32.8499 44.93 34.0499 45.81 34.5599 47.26V47.25Z" fill="white"/>
<path d="M50.9 21.29C50.12 20.35 49.22 19.64 48.29 19.23C48.29 19.23 48.27 19.23 48.26 19.22L35.46 14.66L35.42 14.64L35.38 14.62C33.39 13.98 31.72 13.87 30.33 15.02L19.48 24.03C15.74 27.14 16.31 29.4 16.5 30.15L20.25 43.72C20.44 44.39 20.87 45.18 21.44 45.86C22.01 46.55 22.7 47.12 23.33 47.42L36 53.54C38.23 54.49 39.82 54.06 42.54 51.8L53.39 42.79C54.93 41.51 55.27 40.16 55.01 38.24V38.21L54.99 38.18L52.56 24.39C52.3 23.37 51.7 22.24 50.91 21.29H50.9Z" fill="black"/>
<path d="M33.1099 34C32.3899 34 31.7299 33.86 31.1899 33.6L19.6299 27.96C18.8899 27.6 18.4499 27.03 18.3699 26.37C18.2799 25.6 18.6899 24.76 19.5099 24.08L30.3599 15.07C31.0799 14.47 31.8899 14.18 32.8199 14.18C33.6799 14.18 34.5599 14.43 35.3899 14.69L48.2399 19.27C48.9699 19.63 49.4199 20.2 49.4999 20.87C49.5899 21.64 49.1799 22.48 48.3599 23.16L36.8699 32.7C35.8899 33.52 34.4799 34 33.0999 34H33.1099ZM32.8099 14.48C31.9499 14.48 31.2099 14.75 30.5499 15.3L19.6999 24.31C18.9599 24.92 18.5899 25.66 18.6699 26.32C18.7399 26.88 19.1299 27.36 19.7599 27.68L31.3199 33.32C31.8099 33.56 32.4299 33.69 33.0999 33.69C34.3899 33.69 35.7599 33.22 36.6699 32.46L48.1599 22.92C48.8999 22.31 49.2699 21.58 49.1899 20.91C49.1199 20.35 48.7399 19.87 48.0999 19.56L35.2699 14.98C34.4699 14.72 33.6199 14.48 32.7999 14.48H32.8099Z" fill="white"/>
<path d="M40.6099 52.54C39.6999 52.54 38.99 51.93 38.71 50.92L35.28 38.52C35.05 37.69 35.1199 36.66 35.4899 35.64C35.8499 34.62 36.47 33.72 37.21 33.1L48.7 23.56C49.32 23.05 49.97 22.78 50.59 22.78C51.5 22.78 52.2099 23.39 52.4999 24.4L54.9399 38.24C55.0799 39.24 55.05 40.02 54.83 40.71C54.59 41.46 54.0999 42.13 53.3499 42.75L42.4999 51.76C41.8799 52.27 41.2299 52.55 40.6099 52.55V52.54ZM50.59 23.08C50.05 23.08 49.46 23.33 48.9 23.79L37.4099 33.33C35.9499 34.54 35.13 36.83 35.58 38.44L39.0099 50.84C39.2499 51.73 39.8399 52.24 40.6199 52.24C41.1599 52.24 41.7499 51.99 42.3099 51.53L53.1599 42.52C54.5099 41.4 54.92 40.22 54.65 38.29L52.21 24.48C51.96 23.6 51.3799 23.09 50.5999 23.09L50.59 23.08Z" fill="white"/>
<path d="M37.02 53.74C36.71 53.74 36.38 53.66 36.07 53.51L23.3499 47.37C22.0499 46.74 20.68 45.09 20.3 43.7L16.53 30.1C16.38 29.57 16.47 29.07 16.77 28.67C17.07 28.27 17.56 28.04 18.09 28.04C18.39 28.04 18.6899 28.11 18.9699 28.25L31.49 34.41C32.78 35.05 34.1499 36.69 34.5399 38.08L38.45 51.81C38.6 52.33 38.52 52.82 38.25 53.18C37.98 53.54 37.53 53.75 37.02 53.75V53.74ZM18.09 28.34C17.65 28.34 17.26 28.53 17.01 28.85C16.77 29.17 16.7 29.58 16.82 30.01L20.59 43.62C20.96 44.94 22.2499 46.5 23.4799 47.1L36.2 53.24C36.47 53.37 36.75 53.44 37.01 53.44C37.42 53.44 37.78 53.28 38 52.99C38.22 52.7 38.27 52.31 38.15 51.89L34.24 38.16C33.87 36.84 32.5799 35.28 31.3499 34.68L18.83 28.52C18.59 28.4 18.33 28.34 18.08 28.34H18.09Z" fill="white"/>
<path d="M43.95 36.84C44.65 35.48 45.96 34.77 46.88 35.24C47.8 35.71 47.97 37.2 47.27 38.55C46.57 39.91 45.26 40.62 44.34 40.15C43.42 39.68 43.25 38.19 43.95 36.83V36.84Z" fill="white"/>
<path d="M40.33 46.56C41.03 45.2 42.34 44.49 43.26 44.96C44.18 45.43 44.35 46.92 43.65 48.27C42.95 49.63 41.64 50.34 40.72 49.87C39.8 49.4 39.63 47.91 40.33 46.56Z" fill="white"/>
<path d="M47.78 27.14C48.48 25.78 49.7899 25.07 50.7099 25.54C51.6299 26.01 51.7999 27.5 51.0999 28.85C50.3999 30.21 49.0899 30.92 48.1699 30.45C47.2499 29.98 47.08 28.49 47.78 27.14Z" fill="white"/>
<path d="M33.01 50.58C32.16 49.52 32.0601 48.19 32.7801 47.62C33.5001 47.05 34.77 47.45 35.61 48.51C36.46 49.58 36.5601 50.8999 35.8401 51.4699C35.1201 52.0399 33.85 51.64 33.01 50.57V50.58Z" fill="white"/>
<path d="M33.5998 25.06C35.0598 24.62 36.0099 23.46 35.7099 22.47C35.4099 21.48 33.9899 21.04 32.5199 21.48C31.0599 21.92 30.1098 23.08 30.4098 24.06C30.7098 25.05 32.1398 25.49 33.5998 25.05V25.06Z" fill="white"/>
<path d="M22.7 45.34C21.85 44.28 21.75 42.95 22.47 42.38C23.19 41.81 24.46 42.21 25.3 43.27C26.15 44.34 26.25 45.66 25.53 46.23C24.81 46.8 23.54 46.4 22.7 45.33V45.34Z" fill="white"/>
<path d="M29.51 38.9699C28.66 37.9099 28.5601 36.58 29.2801 36.01C30.0001 35.44 31.27 35.84 32.11 36.9C32.96 37.97 33.0601 39.29 32.3401 39.86C31.6201 40.43 30.35 40.03 29.51 38.96V38.9699Z" fill="white"/>
<path d="M18.73 33.25C17.88 32.19 17.78 30.86 18.5 30.29C19.22 29.72 20.49 30.12 21.33 31.18C22.18 32.25 22.28 33.57 21.56 34.14C20.84 34.71 19.57 34.31 18.73 33.24V33.25Z" fill="white"/>
</svg>
