<svg width="70" height="58" viewBox="0 0 70 58" fill="none" xmlns="http://www.w3.org/2000/svg">
<path d="M69.8 50.98C69.45 51.53 58.8 47.29 53.22 44.61C47.36 41.79 40.98 38.09 40.88 36.45C40.76 34.59 51.79 37.87 57.09 40.55C62.11 43.08 70.42 49.98 69.79 50.98H69.8Z" fill="#EEEEEF"/>
<path d="M65.46 51.38C66.05 50.81 57.66 45.08 52.92 42.27C47.93 39.32 40.53 35.4 38.49 36.22C36.17 37.16 44.83 42.7 49.48 45.31C53.89 47.78 64.37 52.42 65.45 51.38H65.46Z" fill="#D7D6D4"/>
<path d="M60.2099 51.95C59.9099 52.57 50.7399 48.05 45.5399 45.91C40.0699 43.65 34.2499 41.32 34.0999 39.62C33.9299 37.69 43.4499 39.86 48.4099 42.03C53.0999 44.08 60.7599 50.83 60.2099 51.96V51.95Z" fill="#EEEEEF"/>
<path d="M57.2299 52.21C57.5199 51.78 48.7099 46.99 44.0299 44.12C39.1099 41.1 33.9199 37.88 32.5499 38.37C30.9899 38.93 38.2399 44.8 42.7999 47.49C47.1099 50.04 56.6999 52.99 57.2299 52.21Z" fill="#D7D6D4"/>
<path d="M25.5 52.55C25.55 53.76 21.85 54.23 22.71 53C23.78 51.46 23.9 46.64 23.9 46.64L27.17 47.02C27.17 47.02 25.45 51.35 25.5 52.56V52.55Z" fill="#F4B819"/>
<path d="M23.81 54.01C22.59 53.9 20.89 53.84 19.8 54.51C19.14 54.92 18.3 55.1 17.62 54.59C17.12 54.22 17.11 53.32 17.74 52.87C19.38 51.7 21.16 53.42 23.56 50.92C24.29 50.16 24.42 51.95 24.36 52.62C24.3 53.3 24.82 54.09 23.8 54L23.81 54.01Z" fill="#F4B819"/>
<path d="M25.34 53.81C24.17 54.17 22.32 54.68 21.56 55.72C21.1 56.35 20.35 56.9 19.53 56.68C18.93 56.52 18.59 55.79 19.01 55.13C20.09 53.43 22.04 54.26 23.18 52.58C23.77 51.71 24.73 51.78 24.92 52.42C25.12 53.08 26.31 53.51 25.33 53.81H25.34Z" fill="#F4B819"/>
<path d="M17.69 54.35C16.89 54.1 15.92 55.15 15.89 54.89C15.86 54.63 15.7599 53.03 17.4899 52.86C17.9499 52.81 18.2099 53.1 18.2699 53.52C18.3199 53.93 18.13 54.49 17.69 54.36V54.35Z" fill="#595757"/>
<path d="M19.8999 56.24C18.5399 56.48 18.5899 57.61 18.3799 57.42C18.1699 57.23 17.6399 56.1 18.6999 55.24C19.0899 54.93 19.6099 54.78 19.9499 55.09C20.2899 55.39 20.3899 56.16 19.8999 56.24Z" fill="#595757"/>
<path d="M25.3999 52.02C26.1799 53.15 28.0699 52.93 28.5899 53.63C29.1099 54.33 28.1699 55.17 27.3899 55.06C26.6099 54.95 25.9399 53.73 24.8199 53.97C23.6999 54.22 24.9699 51.39 25.4099 52.02H25.3999Z" fill="#F4B819"/>
<path d="M27.9099 54.53C29.1399 54.82 29.0399 55.85 29.2499 55.69C29.4499 55.53 29.99 54.52 29.07 53.68C28.73 53.37 28.2599 53.22 27.9299 53.47C27.5999 53.73 27.47 54.42 27.92 54.53H27.9099Z" fill="#595757"/>
<path d="M18.99 55.27C18.99 55.27 18.99 55.27 18.98 55.27C18.95 55.27 18.93 55.23 18.94 55.2C19.14 54.42 19.89 54.18 20.92 53.86C21.24 53.76 21.59 53.65 21.96 53.51C23.24 53.03 23.48 52.2 23.48 52.19C23.48 52.16 23.52 52.14 23.55 52.15C23.58 52.15 23.6 52.1899 23.59 52.2199C23.59 52.2599 23.33 53.12 22 53.62C21.63 53.76 21.27 53.8699 20.95 53.9699C19.95 54.2799 19.23 54.51 19.04 55.23C19.04 55.26 19.01 55.27 18.98 55.27H18.99Z" fill="#946134"/>
<path d="M27.2899 40.02C26.7499 40.05 20.3499 38.23 19.8999 38.35C19.0799 38.57 18.2899 40.04 19.1399 42.7C19.4599 43.71 22.4899 49.17 22.9699 49.05C23.1099 49.01 23.2999 48.72 23.4999 48.29C23.9099 49.16 24.3999 49.92 24.6599 49.91C24.9599 49.9 25.3899 48.85 25.6399 47.8C26.2399 48.68 26.9699 49.49 27.2499 49.4C27.5399 49.31 27.7599 48.15 27.8199 47.04C28.0999 47.48 28.3699 47.79 28.5399 47.78C29.0299 47.75 30.2199 43.43 30.1099 42.37C29.9999 41.31 28.1399 39.98 27.2899 40.03V40.02Z" fill="#3E210F"/>
<path d="M39.2099 23.69C51.1599 27.71 48.2999 38.4 41.8299 42.02C35.3599 45.64 21.75 44.58 17.2199 40.03C10.8199 33.61 10.9299 26.35 13.5199 18.19C14.1999 16.04 25.3899 12.77 27.9299 15.99C30.0499 18.68 34.2099 22.01 39.2199 23.7L39.2099 23.69Z" fill="#593C1B"/>
<path d="M33.4099 52.91C33.4599 54.12 29.7599 54.59 30.6199 53.36C31.6899 51.82 31.8099 47 31.8099 47L35.0799 47.38C35.0799 47.38 33.3599 51.71 33.4099 52.92V52.91Z" fill="#F4B819"/>
<path d="M31.72 54.37C30.5 54.26 28.8 54.2 27.71 54.87C27.05 55.28 26.21 55.46 25.53 54.95C25.03 54.58 25.02 53.68 25.65 53.23C27.29 52.06 29.07 53.78 31.47 51.28C32.2 50.52 32.33 52.31 32.27 52.98C32.21 53.66 32.73 54.45 31.71 54.36L31.72 54.37Z" fill="#F4B819"/>
<path d="M33.25 54.17C32.08 54.53 30.23 55.04 29.47 56.08C29.01 56.71 28.26 57.26 27.44 57.04C26.84 56.88 26.5 56.15 26.92 55.49C28 53.79 29.95 54.62 31.09 52.94C31.68 52.07 32.64 52.14 32.83 52.78C33.03 53.44 34.22 53.87 33.24 54.17H33.25Z" fill="#F4B819"/>
<path d="M25.6 54.72C24.8 54.47 23.83 55.52 23.8 55.26C23.77 55 23.67 53.4 25.4 53.23C25.86 53.18 26.12 53.47 26.18 53.89C26.23 54.3 26.04 54.86 25.6 54.73V54.72Z" fill="#595757"/>
<path d="M27.81 56.6C26.45 56.84 26.5 57.97 26.29 57.78C26.08 57.59 25.55 56.46 26.61 55.6C27 55.29 27.52 55.14 27.86 55.45C28.2 55.75 28.3 56.52 27.81 56.6Z" fill="#595757"/>
<path d="M33.31 52.38C34.09 53.51 35.98 53.29 36.5 53.99C37.02 54.69 36.08 55.53 35.3 55.42C34.52 55.31 33.85 54.09 32.73 54.33C31.61 54.58 32.88 51.75 33.32 52.38H33.31Z" fill="#F4B819"/>
<path d="M35.82 54.89C37.05 55.18 36.95 56.21 37.16 56.05C37.36 55.89 37.9 54.88 36.98 54.04C36.64 53.73 36.17 53.58 35.84 53.83C35.51 54.09 35.38 54.78 35.83 54.89H35.82Z" fill="#595757"/>
<path d="M26.9 55.63C26.9 55.63 26.9 55.63 26.89 55.63C26.86 55.63 26.84 55.59 26.85 55.56C27.05 54.78 27.8 54.5399 28.83 54.2199C29.15 54.1199 29.5 54.01 29.87 53.87C31.15 53.39 31.39 52.56 31.39 52.55C31.39 52.52 31.43 52.5 31.46 52.51C31.49 52.51 31.51 52.55 31.5 52.58C31.5 52.62 31.24 53.48 29.91 53.98C29.54 54.12 29.18 54.23 28.86 54.33C27.86 54.65 27.14 54.87 26.95 55.59C26.95 55.62 26.92 55.63 26.89 55.63H26.9Z" fill="#946134"/>
<path d="M35.12 40.04C34.58 40.08 29.34 41.1 28.89 41.23C28.07 41.46 27.13 42.52 27.39 43.55C27.64 44.58 30.39 49.23 30.87 49.1C31.01 49.06 31.2 48.76 31.39 48.33C31.81 49.2 32.3 49.95 32.56 49.94C32.86 49.93 33.28 48.87 33.53 47.82C34.13 48.7 34.87 49.5 35.15 49.41C35.44 49.32 35.65 48.16 35.71 47.04C35.99 47.48 36.26 47.78 36.43 47.77C36.92 47.74 38.08 43.4 37.96 42.35C37.84 41.29 35.97 39.97 35.13 40.03L35.12 40.04Z" fill="#593C1B"/>
<path d="M26.76 11.63C26.37 7.47999 26.12 4.51001 22.68 2.09001C19.02 -0.47999 10.68 1.12001 9.74996 5.09001C8.40996 10.79 12.74 10.76 12.75 15.18C12.75 17.16 11.18 20.63 11.82 21C12.39 21.32 14.75 19.55 15.72 18.31C16.33 19.5 17.1799 20.66 17.6099 20.62C18.0899 20.57 18.79 18.95 19.13 17.54C19.92 18.9 21.0499 20.3 21.5499 20.21C22.0099 20.12 22.55 18.61 22.84 17.14C23.63 18.15 24.61 19.07 25.0199 18.95C25.3899 18.84 25.72 17.73 25.89 16.55C27.36 17.55 29.63 17.95 29.99 17.62C30.46 17.2 26.98 13.93 26.76 11.62V11.63Z" fill="#EEEEEF"/>
<path d="M14.8 9.56999C15.17 9.11999 9.92 8.16996 8.22 8.16996C6.52 8.16996 3.27999 7.55997 2.26999 8.54997C1.25999 9.52997 1.34 10.46 1.34 10.46C1.34 10.46 2.61002 9.13 10.64 10.46C12.58 10.78 14.37 10.09 14.8 9.56999Z" fill="#F47C19"/>
<path d="M10.31 3.90997C10.31 3.90997 10.42 6.41 11.62 7.19C12.53 7.78 16.11 9.43 14.8 9.56C13.49 9.69 5.60996 8.67002 4.42996 8.65002C2.00996 8.60002 1.21998 11.53 0.789976 11.44C0.359976 11.36 0.629952 7.43002 2.85995 5.83002C3.81995 5.15002 6.09996 5.00001 7.70996 4.57001C9.36996 4.13001 10.3 3.90997 10.3 3.90997H10.31Z" fill="#F4B819"/>
<path d="M52.72 31.92C48.04 28.82 32.76 40.04 36.93 43.04C40.88 45.88 51.74 47.26 53.06 45.62C53.24 45.4 52.87 44.93 52.15 44.3C55.48 45.2 58.45 45.55 59.13 44.49C59.34 44.17 58.87 43.47 57.99 42.56C61.1 44.09 63.65 45.13 63.81 44.74C64.4 43.34 57.14 34.85 52.71 31.92H52.72Z" fill="#795630"/>
<path d="M47.43 33.77C47.43 33.77 49.55 38.78 49.12 39.89C48.49 41.49 42.21 40.11 42.21 40.11C42.21 40.11 46.9301 46.75 43.4801 46.37C35.8401 45.51 31.49 40.73 30.05 38.42C27.89 34.95 38.0001 21.25 43.4201 23.61C49.0901 26.08 54.07 30.48 54.21 32.13C54.42 34.59 47.44 33.78 47.44 33.78L47.43 33.77Z" fill="#A47F55"/>
<path d="M37.8801 31.7C37.8801 31.7 39.97 35.32 39.46 36.41C38.72 37.98 34.61 37.1 34.61 37.1C34.61 37.1 37.2001 44.02 36.0701 44.01C26.6601 43.92 14.7701 26.42 20.1001 21.54C24.7901 17.25 46.36 23.08 46.34 25.03C46.34 25.53 42.2901 27.23 42.2901 27.23C42.2901 27.23 44.73 31.22 44.15 32.09C43.28 33.37 37.87 31.7 37.87 31.7H37.8801Z" fill="#795630"/>
<path d="M12.5899 5.55001C12.9099 5.44001 14.7799 4.39003 15.9899 4.64003C16.9699 4.85003 17.43 5.45001 17.04 5.55001C16.32 5.73001 16.6099 6.35 15.4599 6.86C14.9399 7.09 13.58 7.17003 12.98 6.07003C12.72 5.60003 12.3199 5.65001 12.5999 5.55001H12.5899Z" fill="#717071"/>
<mask id="mask0_30_2972" style="mask-type:luminance" maskUnits="userSpaceOnUse" x="12" y="4" width="6" height="4">
<path d="M12.5899 5.55001C12.9099 5.44001 14.7799 4.39003 15.9899 4.64003C16.9699 4.85003 17.43 5.45001 17.04 5.55001C16.32 5.73001 16.6099 6.35 15.4599 6.86C14.9399 7.09 13.58 7.17003 12.98 6.07003C12.72 5.60003 12.3199 5.65001 12.5999 5.55001H12.5899Z" fill="white"/>
</mask>
<g mask="url(#mask0_30_2972)">
<path d="M14.6199 6.75C15.3379 6.75 15.92 6.16798 15.92 5.45001C15.92 4.73204 15.3379 4.15002 14.6199 4.15002C13.902 4.15002 13.3199 4.73204 13.3199 5.45001C13.3199 6.16798 13.902 6.75 14.6199 6.75Z" fill="#F4B819"/>
<path d="M14.64 6.22998C15.0763 6.22998 15.43 5.87631 15.43 5.44C15.43 5.0037 15.0763 4.65002 14.64 4.65002C14.2037 4.65002 13.85 5.0037 13.85 5.44C13.85 5.87631 14.2037 6.22998 14.64 6.22998Z" fill="#231815"/>
</g>
<path d="M17.18 5.70003C17.12 5.70003 17.05 5.66004 17.03 5.59004C16.84 5.03004 16 4.77003 15.84 4.76003C14.79 4.69003 14.11 5.05004 13.56 5.34004C13.2 5.53004 12.89 5.69002 12.56 5.69002C12.45 5.69002 12.13 5.64002 11.98 5.44002C11.92 5.36002 11.86 5.22005 11.92 5.03005C11.94 4.95005 12.03 4.90001 12.11 4.93001C12.19 4.95001 12.24 5.04001 12.21 5.12001C12.19 5.20001 12.21 5.24003 12.22 5.26003C12.29 5.35003 12.48 5.39003 12.55 5.39003C12.8 5.39003 13.07 5.25002 13.41 5.07002C13.99 4.76002 14.72 4.39004 15.86 4.46004C16.1 4.48004 17.08 4.77002 17.33 5.50002C17.36 5.58002 17.31 5.67003 17.23 5.70003C17.21 5.70003 17.2 5.70003 17.18 5.70003Z" fill="#717071"/>
<path d="M9.78001 5.40001C9.61001 5.19001 9.35002 5.11997 9.20002 5.23997C9.05002 5.35997 9.08001 5.63001 9.25001 5.84001C9.42001 6.05001 9.91001 6.40001 10.06 6.28001C10.21 6.16001 9.95001 5.61996 9.78001 5.40996V5.40001Z" fill="#593C1B"/>
</svg>
