<svg width="43" height="58" viewBox="0 0 43 58" fill="none" xmlns="http://www.w3.org/2000/svg">
<path d="M21.4 0.420013C12.85 0.640013 0.839996 13.93 0.119995 31.91C-0.600005 49.88 11.62 57.93 20.97 57.93C30.89 57.93 43.54 51.89 42.82 32.2C42.1 12.5 29.73 0.219993 21.4 0.429993V0.420013Z" fill="#F7EEED"/>
<path d="M42.82 32.2C42.21 15.47 33.2 4.09001 25.39 1.17001C27.15 2.51001 35.58 9.63999 38.15 24.8C40.86 40.76 34.99 55.14 15.58 56.86C15.38 56.88 15.2 56.9 15.01 56.91C17.03 57.6 19.06 57.94 20.97 57.94C30.89 57.94 43.54 51.9 42.82 32.21V32.2Z" fill="#F0E4D6"/>
<path d="M17.7399 4.38002C14.2799 4.00002 6.37992 17.18 7.81992 24.65C9.25992 32.13 15.7299 28.82 17.5999 22.06C19.4699 15.3 21.6299 4.81002 17.7399 4.38002Z" fill="white"/>
</svg>
