<svg width="69" height="39" viewBox="0 0 69 39" fill="none" xmlns="http://www.w3.org/2000/svg">
<path d="M32.8401 4.05C32.8401 4.05 32.6101 1.15003 37.1401 0.260027C41.6701 -0.629973 46.2701 1.30003 47.1501 2.83003C48.0301 4.36003 45.1 3.84004 45.1 3.84004L39.9601 3.59004L33.73 4.48L32.85 4.06001L32.8401 4.05Z" fill="#576370"/>
<path d="M26.82 4.99997C26.82 4.99997 23.15 0.229944 19.48 5.21994C17.46 7.95994 15.96 14.19 17.38 15.69C19.3 17.71 24.57 8.37998 24.57 8.37998L26.81 4.99997H26.82Z" fill="#FFE7D2"/>
<path d="M26.82 5.00001C26.82 5.00001 23.2 1.92003 20.34 6.77003C17.49 11.62 16.6 14.87 17.38 15.69C18.16 16.51 25.32 15.69 25.32 15.69L31.16 10.05L30.53 8.03004L28.2 6.55L26.82 5.01002V5.00001Z" fill="#F97E2E"/>
<path d="M32.84 4.04998C32.84 4.04998 33.52 1.73999 37.55 0.92999C41.58 0.11999 46.24 1.47001 47.15 2.83001C48.06 4.19001 48.69 5.45002 51.92 6.71002L33.43 9.75L32.02 8.02002L32.84 4.04998Z" fill="#F97E2E"/>
<path d="M29.82 11.35L24.51 4.05999C24.35 4.04999 24.2 4.03998 24.03 4.04998L29.54 11.62L29.82 11.35Z" fill="#F47027"/>
<path d="M28.51 12.62L22.57 4.45001C22.46 4.51001 22.35 4.57002 22.24 4.65002L28.23 12.89L28.51 12.62Z" fill="#F47027"/>
<path d="M27.1901 13.89L21.17 5.59998C21.09 5.69998 21 5.79997 20.92 5.90997L26.91 14.16L27.1901 13.89Z" fill="#F47027"/>
<path d="M25.6301 14.82L20.1001 7.19C20.0301 7.31 19.9601 7.42999 19.8901 7.54999L25.3201 15.04L25.6301 14.82Z" fill="#F47027"/>
<path d="M23.5701 15.06L19.1401 8.95001C19.0701 9.08001 19.0101 9.21002 18.9401 9.33002L23.2601 15.28L23.5701 15.06Z" fill="#F47027"/>
<path d="M21.5001 15.29L18.2501 10.8C18.1901 10.94 18.1301 11.07 18.0801 11.21L21.2001 15.52L21.5101 15.3L21.5001 15.29Z" fill="#F47027"/>
<path d="M19.4401 15.53L17.4801 12.82C17.4301 12.98 17.3801 13.14 17.3501 13.28L19.1301 15.75L19.4401 15.53Z" fill="#F47027"/>
<path d="M27.94 6.61C27.94 6.61 27.98 6.50999 28.04 6.34999L26.83 5.00001C26.83 5.00001 23.21 1.92003 20.35 6.77003C17.5 11.62 16.61 14.87 17.39 15.69C17.48 15.78 17.66 15.85 17.89 15.91C17.82 15.74 17.74 15.6 17.67 15.49C17.19 14.82 17.71 13.08 18.6 11.14C19.49 9.20003 21.36 5.90002 23.55 4.95002C25.74 4.00002 27.94 6.61 27.94 6.61Z" fill="#576370"/>
<path d="M49.1699 7.16998L45.0599 1.52002C44.8599 1.45002 44.6499 1.38 44.4399 1.31L48.7499 7.23999L49.1699 7.16998Z" fill="#F47027"/>
<path d="M47.1801 7.48999L42.3401 0.840027C42.1701 0.820027 42.0001 0.79002 41.8201 0.77002L46.7501 7.56L47.17 7.48999H47.1801Z" fill="#F47027"/>
<path d="M45.18 7.82001L39.99 0.679993C39.84 0.679993 39.68 0.680002 39.53 0.690002L44.76 7.89001L45.18 7.82001Z" fill="#F47027"/>
<path d="M43.18 8.15002L37.89 0.859985C37.78 0.879985 37.66 0.899983 37.55 0.919983C37.52 0.919983 37.5 0.930002 37.48 0.940002L42.76 8.21997L43.18 8.15002Z" fill="#F47027"/>
<path d="M41.18 8.47998L36.02 1.35999C35.89 1.40999 35.77 1.45 35.65 1.5L40.76 8.54999L41.18 8.47998Z" fill="#F47027"/>
<path d="M39.19 8.81L34.4 2.20001C34.29 2.28001 34.19 2.34999 34.1 2.42999L38.77 8.88L39.19 8.81Z" fill="#F47027"/>
<path d="M37.1899 9.14001L33.1199 3.51001C33.0199 3.66001 32.9599 3.79 32.9199 3.88L36.78 9.21002L37.2 9.14001H37.1899Z" fill="#F47027"/>
<path d="M16.9501 27.09C16.9501 27.09 12.4501 30.25 15.8901 34.03C19.3301 37.81 30.9201 35.6 31.2601 33.65C31.6001 31.7 26.8201 29.43 26.8201 29.43L23.8801 27.66L16.9501 27.08V27.09Z" fill="#F24F1A"/>
<path d="M31.2601 33.65C31.3301 33.25 31.1801 32.83 30.9001 32.42C30.7601 32.52 31.05 33.2 30.91 33.39C30.2 34.39 24.1701 36.89 18.3701 34.28C12.5701 31.67 17.3201 27.14 17.3201 27.14C17.3201 27.14 17.3 27.13 17.29 27.12L16.9401 27.09C16.9401 27.09 12.4401 30.25 15.8801 34.03C19.3201 37.81 30.9101 35.61 31.2501 33.65H31.2601Z" fill="#374C59"/>
<path d="M1.30007 21.27C1.30007 21.27 -0.74994 26.12 0.35006 28.55C1.45006 30.98 5.01011 30.38 6.78011 30C8.56011 29.62 8.34011 26.45 8.34011 26.45L6.72006 21.26H1.29006L1.30007 21.27Z" fill="#F4D0B7"/>
<path d="M8.03009 11.74C8.03009 11.74 5.72009 9.94001 4.15009 11.31C2.14009 13.06 3.01008 15.84 2.77008 16.79C2.53008 17.74 1.29004 21.27 1.29004 21.27H6.72003L8.03009 11.74Z" fill="#FFE7D2"/>
<path d="M20.07 21.27C20.42 19.53 20.6 18.09 20.6 18.09L17.08 15.91C17.08 15.91 15.59 17.17 13.2 16.05C10.82 14.93 8.34002 10.75 6.08002 11.23C3.82002 11.71 4.92999 16.81 4.29999 18.41C4.10999 18.9 3.68003 19.96 3.28003 21.26H20.07V21.27Z" fill="#FD8E00"/>
<path d="M3.29005 21.27C2.40005 24.23 1.71006 28.4 4.55006 29.68C8.63006 31.52 14.6101 25.46 16.9501 26.98C18.3601 27.9 12.7001 21.25 12.7001 21.25H12.3301L3.2801 21.27H3.29005Z" fill="#F97E2E"/>
<path d="M48.0801 34.41C48.0801 34.41 42.87 38.01 39.04 38.08C35.21 38.15 36.37 34.75 36.37 34.75L41.68 32.48L48.0801 34.4V34.41Z" fill="#F24F1A"/>
<path d="M68.3 21.25C68.3 28.9 52.4601 35.11 40.7701 35.11C29.0801 35.11 12.3 26.58 12.3 21.27L68.3 21.25Z" fill="#F97E2E"/>
<path d="M12.3 21.27C12.3 17.11 32.3801 5.37 44.0701 5.37C55.7601 5.37 68.3 15.32 68.3 21.25L12.3 21.27Z" fill="#FD8E00"/>
<path d="M26.99 5.72998C26.99 5.72998 28.2 7.23 29.35 11.31C30.49 15.38 31.43 21.25 31.43 21.25H33.73L31.54 10.71L28.21 6.53998L27.24 5.53998L27 5.71997L26.99 5.72998Z" fill="#576370"/>
<path d="M40.12 21.24C40.45 20.87 40.81 20.6 41.16 20.43C42.49 19.83 43.29 19.47 43.29 19.47C43.29 19.47 38.87 14.27 37.16 12.05C35.45 9.82999 33.83 7.25998 33.45 5.91998C33.07 4.58998 33.23 3.41998 33.45 3.03998C33.45 3.03998 32.99 3.49998 32.84 4.03998C32.35 5.79998 31.23 7.08002 31.23 7.08002L33.72 12.3L35.55 18.89L35.93 21.23H40.12V21.24Z" fill="#576370"/>
<path d="M32.8401 4.04999C32.8401 4.04999 32.3301 6.93001 36.0101 11.39C39.6901 15.85 43.0801 19.25 43.0801 19.25C43.0801 19.25 40.8201 19.18 39.1501 21.24H32.2001C31.5301 16.4 30.38 12.29 29.54 9.89001C28.59 7.17001 26.8201 5 26.8201 5C26.8201 5 28.5 7.07999 30.22 6.48999C32.62 5.66999 32.85 4.03998 32.85 4.03998L32.8401 4.04999Z" fill="#FFE7D2"/>
<path d="M31.42 21.25C31.42 21.25 32.1501 25.36 31.5801 29.01C31.0101 32.66 30.91 33.55 30.91 33.55L31.6501 33.75C31.6501 33.75 33.13 28.62 32.97 26.11C32.81 23.6 32.6201 21.19 32.6201 21.19L31.41 21.24L31.42 21.25Z" fill="#374C59"/>
<path d="M35.9301 21.25L36.5001 24.73L36.36 34.76L36.91 34.84C36.91 34.84 37.14 30.14 37.72 27.09C38.2 24.54 39.2101 22.26 40.1301 21.25H35.9401H35.9301Z" fill="#374C59"/>
<path d="M32.2 21.25C32.29 21.89 32.37 22.54 32.44 23.2C33.04 28.87 31.27 33.64 31.26 33.65C32.97 34.13 34.69 34.5 36.36 34.75C36.36 34.74 36.51 29.45 37.73 24.29C38.05 22.95 38.56 21.97 39.15 21.24H32.19L32.2 21.25Z" fill="#F2C5A7"/>
<path d="M57.35 9.08002C52.63 11.1 49.3201 15.78 49.3201 21.24H68.3C68.3 17.63 63.64 12.51 57.35 9.08002Z" fill="#F97E2E"/>
<path d="M55.5001 32.43C62.5901 29.91 68.3 25.84 68.3 21.24H49.3201C49.3201 25.95 51.7901 30.09 55.5001 32.43Z" fill="#F8712E"/>
<path d="M15.97 21.27L15.73 22.59L15.98 25.88L16.08 26.48C16.43 26.75 16.8 27.02 17.18 27.29C17.18 27.27 16.93 26.27 16.77 24.76C16.61 23.25 16.48 21.33 16.48 21.28H16.04H15.97V21.27Z" fill="#374C59"/>
<path d="M16.9001 16.03C16.9001 16.03 16.7101 17.27 16.6101 18.65C16.5101 20.02 16.4701 21.26 16.4701 21.26H15.9601L15.8901 17.21L16.6801 16.14L16.8901 16.03H16.9001Z" fill="#576370"/>
<path d="M12.5401 27.43C12.4001 27.74 11.6301 28.33 11.6301 28.33C12.2301 28.04 12.8101 27.76 13.3601 27.51L13.5201 22.21C13.0501 21.64 13.2401 21.28 13.2301 21.26L12.3401 21.24C12.3401 21.24 12.6701 23.95 12.7401 24.8C12.8101 25.65 12.7401 26.99 12.5401 27.43Z" fill="#374C59"/>
<path d="M47.0802 23.86C47.0802 23.86 44.1302 20.3 42.5302 18.67C40.4602 16.58 37.5501 13.3 35.7901 13.82C33.4301 14.52 30.5801 17.22 30.9401 23.42C31.3001 29.62 35.2501 32.47 38.0001 32.61C42.9801 32.87 46.3801 29.58 46.3801 29.58C46.3801 29.58 44.7501 28.67 44.9801 26.55C45.2101 24.42 47.0802 23.86 47.0802 23.86Z" fill="#F4D0B7"/>
<path d="M13.2201 16.06C13.2201 16.06 13.2101 16.06 13.2001 16.06C12.6001 15.78 11.9901 15.3 11.3801 14.75C11.3801 14.76 11.7601 15.24 11.9401 16.65C12.1201 18.08 12.3301 21.26 12.3301 21.26L13.2201 21.28V16.07V16.06Z" fill="#576370"/>
<path d="M12.8101 21.48C12.9601 26.58 13.4801 27.3 12.0701 28.04C11.9601 28.1 11.8801 28.17 11.8201 28.23C13.9601 27.2 15.8401 26.36 16.9401 27.08C16.9401 27.08 16.3201 24.63 16.2501 21.26H12.8101C12.8101 21.26 12.8101 21.44 12.8101 21.48Z" fill="#F4D0B7"/>
<path d="M16.2501 21.27L16.6901 16.14C16.0801 16.44 14.8501 16.82 13.2001 16.05C12.7601 15.84 12.3101 15.54 11.8701 15.17C11.8701 15.17 12.6501 16.25 12.8101 21.26H16.2501V21.27Z" fill="#FFE7D2"/>
<path d="M4.29999 18.42C4.10999 18.91 3.68003 19.97 3.28003 21.27H4.17999C4.17999 21.27 4.85998 19.6 5.09998 18.17C5.33998 16.74 5.28998 14.51 5.28998 13.2C5.28998 11.89 6.08002 11.24 6.08002 11.24C3.82002 11.72 4.92999 16.82 4.29999 18.42Z" fill="#576370"/>
<path d="M3.29005 21.27C2.40005 24.23 1.71006 28.4 4.55006 29.68C5.13006 29.94 5.76009 30.04 6.40009 30.03C5.69009 29.83 4.74007 29.06 4.19007 28.07C2.76007 25.51 4.19007 21.27 4.19007 21.27H3.29005Z" fill="#374C59"/>
<path d="M52.98 21.25C52.95 20.28 53.04 19.26 53.3 18.16C54.02 15.15 55.4801 13.59 56.8201 12.38C58.1501 11.17 59.3901 10.29 59.3901 10.29L59.0101 10.05L53.66 7.34003L53.0701 7.10999C53.0701 7.10999 49.9701 10.44 48.7701 16.73C48.4901 18.2 48.25 19.93 48.35 21.25H52.99H52.98Z" fill="#576370"/>
<path d="M48.3401 21.24C48.6501 25.33 50.7501 28.53 52.5301 30.31C54.8801 32.65 55.23 32.53 55.23 32.53L55.5101 32.43L57.1801 31.8L57.4901 31.67C57.4901 31.67 55.3401 29.56 54.0701 26.08C53.4901 24.5 53.0501 22.94 52.9901 21.24H48.35H48.3401Z" fill="#374C59"/>
<path d="M59.0001 10.04C58.4701 9.70998 57.92 9.39002 57.35 9.08002C52.63 11.1 49.3201 15.78 49.3201 21.24H52.5601C51.9901 14.21 58.9901 10.05 59.0001 10.04Z" fill="#FFE7D2"/>
<path d="M55.5001 32.43C56.0701 32.23 56.62 32.02 57.17 31.8C57.16 31.8 53.1301 28.27 52.5601 21.24H49.3201C49.3201 25.95 51.7901 30.09 55.5001 32.43Z" fill="#F4D0B7"/>
<path d="M57.3501 9.08002C57.3501 9.08002 56.2502 8.49002 55.6502 8.21002C55.0502 7.93002 53.6402 7.33002 53.6402 7.33002C53.6402 7.33002 48.5201 14.62 49.3101 21.24L50.9301 21.19L52.2602 16.43L54.1502 12.64L56.5501 10.72L57.3501 9.08002Z" fill="#FFE7D2"/>
<path d="M36.91 34.83C36.91 34.83 36.67 36.82 38.77 37.32C40.87 37.82 44.19 36.61 44.19 36.61C44.19 36.61 39.51 38.99 37.26 37.75C35.58 36.82 36.36 34.75 36.36 34.75L36.91 34.83Z" fill="#374C59"/>
<path d="M62.4141 16.9118C62.7516 15.4764 61.8614 14.0391 60.426 13.7016C58.9905 13.3641 57.5533 14.2542 57.2158 15.6897C56.8783 17.1252 57.7684 18.5624 59.2039 18.8999C60.6393 19.2374 62.0766 18.3473 62.4141 16.9118Z" fill="white"/>
<path d="M61.0801 16.36C61.0801 17.05 60.5201 17.6 59.8401 17.6C59.1601 17.6 58.6001 17.04 58.6001 16.36C58.6001 15.68 59.1601 15.12 59.8401 15.12C60.5201 15.12 61.0801 15.68 61.0801 16.36Z" fill="#231F20"/>
<path d="M54.1201 27.35L54.1101 27.34L54.1201 27.36V27.35Z" fill="#374C59"/>
<path d="M57.1701 31.8C57.1701 31.8 55.0001 28.67 53.9001 26.84C54.3401 28.33 55.7701 30.97 55.7501 31.16C55.7001 31.52 55.2401 32.16 54.7101 31.89C54.8201 32.13 55.2101 32.3 55.4501 32.46C56.0201 32.26 56.6301 32.03 57.1701 31.81V31.8Z" fill="#374C59"/>
<path d="M47.3201 23.81C47.3201 23.81 44.5401 20.33 43.3501 19.22C42.1601 18.11 39.2901 14.32 36.3901 15.9C33.4901 17.49 33.1301 21.75 33.3501 24.28C33.5801 26.82 35.4301 31.12 39.1801 32.03C42.9301 32.94 46.0801 29.83 46.5401 29.56L43.5501 28.65L42.8701 24.74L45.3601 23.37L47.3101 23.8L47.3201 23.81Z" fill="#374C59"/>
<path d="M47.3201 23.81C47.3201 23.81 44.7001 21.06 43.5601 20.18C42.4201 19.3 40.3601 17.19 37.9701 18.64C35.5801 20.09 34.9201 24.8 36.3501 27.58C37.7801 30.36 40.6601 31.9 43.2401 31.16C45.8201 30.42 46.5501 29.56 46.5501 29.56C46.5501 29.56 44.4201 28.23 45.3201 25.76C45.9201 24.11 47.3201 23.8 47.3201 23.8V23.81Z" fill="#FD8E00"/>
<path d="M46.92 23.96L39.5801 18.16C39.4001 18.16 39.23 18.19 39.05 18.22L46.5601 24.16C46.6901 24.07 46.81 24.01 46.92 23.96Z" fill="#F8712E"/>
<path d="M46.2601 24.39L37.2701 19.22C37.1801 19.31 37.1001 19.41 37.0101 19.51L45.9701 24.66C46.0601 24.56 46.1601 24.46 46.2501 24.38L46.2601 24.39Z" fill="#F8712E"/>
<path d="M45.6401 25.1L35.9601 21.61C35.9201 21.73 35.8901 21.85 35.8601 21.98L45.4501 25.44C45.5101 25.32 45.5701 25.21 45.6401 25.1Z" fill="#F8712E"/>
<path d="M45.2201 26.09L35.6201 24.67C35.6201 24.8 35.6401 24.93 35.6501 25.06L45.1401 26.46C45.1601 26.34 45.1801 26.21 45.2201 26.09Z" fill="#F8712E"/>
<path d="M45.1201 27.21L36.4701 27.77C36.5401 27.89 36.6101 28.02 36.6801 28.14L45.1801 27.59C45.1501 27.47 45.1301 27.34 45.1201 27.21Z" fill="#F8712E"/>
<path d="M45.4101 28.25L38.5101 30.15C38.6401 30.25 38.7801 30.34 38.9201 30.43L45.6001 28.59C45.5301 28.49 45.4701 28.37 45.4101 28.25Z" fill="#F8712E"/>
<path d="M45.9401 29.02L41.2401 31.3C41.5001 31.34 41.7602 31.35 42.0302 31.34L46.2301 29.31C46.1401 29.23 46.0401 29.14 45.9401 29.03V29.02Z" fill="#F8712E"/>
</svg>
