<svg width="40" height="50" viewBox="0 0 40 50" fill="none" xmlns="http://www.w3.org/2000/svg">
<path d="M35.62 21.02C38.08 23.77 39.31 27.5 39.31 32.22C39.31 35.76 38.51 38.87 36.9 41.54C35.29 44.21 32.91 46.27 29.74 47.73C26.57 49.19 22.7299 49.92 18.2299 49.92C15.1899 49.92 12.1399 49.58 9.09995 48.89C6.05995 48.2 3.34997 47.36 0.969971 46.36V33.04C6.38997 35.58 11.3099 36.86 15.7299 36.86C18.02 36.86 19.73 36.39 20.86 35.45C21.99 34.51 22.55 33.04 22.55 31.04C22.55 29.58 22.22 28.43 21.55 27.6C20.88 26.77 19.82 26.35 18.36 26.35C17.23 26.35 16.33 26.63 15.64 27.19C14.95 27.75 14.4 28.56 13.9799 29.6H0.839966L3.52997 0.390015H36.81V12.52H16.0399L15.4799 18.96C18.11 17.58 21.26 16.9 24.93 16.9C29.6 16.9 33.17 18.28 35.63 21.03L35.62 21.02Z" fill="#FF85D0"/>
</svg>
