<svg width="45" height="59" viewBox="0 0 45 59" fill="none" xmlns="http://www.w3.org/2000/svg">
<path d="M43.2801 16.87H1.59009V58.56H43.2801V16.87Z" fill="#FF6F30"/>
<path d="M43.2801 18.74H1.59009V26.42H43.2801V18.74Z" fill="#FF4F30"/>
<path d="M44.55 15.34H0.310059V24.54H44.55V15.34Z" fill="#FF6F30"/>
<path d="M7.97006 3.39001C7.97006 3.39001 7.89006 3.41999 7.85006 3.42999L2.69009 8.21997C-0.569912 13.21 10.7201 15.35 18.9701 15.39L20.0601 13.62C14.2001 11.18 7.59007 6.42001 7.98007 3.39001H7.97006Z" fill="#FCB944"/>
<path d="M2.69006 8.21998L8.40009 1.22999C12.3301 -2.25001 20.5601 4.84999 25.0801 15.35L18.98 15.39C17.72 8.99003 6.68007 3.69998 2.70007 8.21998H2.69006Z" fill="#FCD844"/>
<path d="M35.4201 4.92999C35.4201 4.92999 35.4902 4.94997 35.5302 4.96997L40.0302 9.14001C42.8702 13.49 33.0301 15.35 25.8401 15.39L24.8901 13.85C29.9901 11.72 35.7601 7.56999 35.4201 4.92999Z" fill="#FCB944"/>
<path d="M40.03 9.14001L35.06 3.04998C31.64 0.0199811 24.46 6.20998 20.52 15.36L25.84 15.4C26.94 9.82002 36.56 5.21002 40.03 9.15002V9.14001Z" fill="#FCD844"/>
<path d="M26.91 15.2C26.91 16.95 24.9101 18.37 22.4301 18.37C19.9501 18.37 17.9501 16.95 17.9501 15.2C17.9501 13.45 19.9501 12.03 22.4301 12.03C24.9101 12.03 26.91 13.45 26.91 15.2Z" fill="#FCB944"/>
<path d="M26.91 15.6C26.91 17.35 24.9101 18.77 22.4301 18.77C19.9501 18.77 17.9501 17.35 17.9501 15.6C17.9501 13.85 19.9501 12.43 22.4301 12.43C24.9101 12.43 26.91 13.85 26.91 15.6Z" fill="#FCD844"/>
<path d="M26.91 15.34H17.9501V58.56H26.91V15.34Z" fill="#FCCE44"/>
<path d="M26.91 24.55H17.9501V26.49H26.91V24.55Z" fill="#FCB944"/>
</svg>
