<svg width="61" height="62" viewBox="0 0 61 62" fill="none" xmlns="http://www.w3.org/2000/svg">
<path d="M22.0201 56.78C22.2201 57.75 19.3201 58.62 19.8401 57.51C20.4901 56.13 19.9401 52.24 19.9401 52.24L22.6201 52.1C22.6201 52.1 21.8201 55.81 22.0201 56.78Z" fill="#F49219"/>
<path d="M20.5101 58.1C19.5201 58.01 18.1401 57.96 17.2401 58.51C16.7001 58.84 16.0201 58.99 15.4601 58.58C15.0501 58.28 15.0501 57.55 15.5601 57.18C16.9001 56.23 18.3501 57.63 20.3001 55.59C20.9001 54.97 21.0001 56.43 20.9501 56.98C20.9001 57.54 21.3201 58.17 20.5001 58.1H20.5101Z" fill="#F49219"/>
<path d="M21.7501 57.94C20.8001 58.23 19.2901 58.65 18.6701 59.5C18.2901 60.01 17.6901 60.46 17.0201 60.28C16.5301 60.15 16.2601 59.56 16.6001 59.02C17.4801 57.64 19.0701 58.31 20.0001 56.94C20.4801 56.23 21.2601 56.29 21.4201 56.81C21.5801 57.34 22.5501 57.7 21.7601 57.94H21.7501Z" fill="#F49219"/>
<path d="M15.5201 58.73C14.8701 58.53 13.9301 59.17 13.9101 58.96C13.8801 58.75 13.9501 57.65 15.3601 57.51C15.7301 57.47 15.9501 57.71 15.9901 58.05C16.0301 58.39 15.8701 58.84 15.5201 58.73Z" fill="#F1D595"/>
<path d="M21.8 56.48C22.44 57.4 23.97 57.22 24.39 57.79C24.81 58.36 24.05 59.04 23.41 58.95C22.77 58.86 22.23 57.86 21.31 58.06C20.39 58.26 21.43 55.95 21.79 56.47L21.8 56.48Z" fill="#F49219"/>
<path d="M23.8501 58.97C24.8501 59.21 25.1501 59.76 25.3201 59.63C25.4901 59.5 25.5401 58.96 24.7901 58.28C24.5101 58.03 24.1301 57.9 23.8601 58.11C23.5901 58.32 23.4901 58.89 23.8601 58.97H23.8501Z" fill="#F1D595"/>
<path d="M16.5101 59.31C16.5101 59.31 16.4901 59.31 16.4801 59.31C16.4301 59.3 16.39 59.24 16.41 59.19C16.59 58.48 17.3601 58.21 18.3201 57.88C18.5301 57.81 18.7501 57.73 18.9801 57.64C19.9901 57.26 20.1801 56.61 20.1901 56.6C20.2101 56.55 20.2601 56.51 20.3201 56.53C20.3701 56.55 20.4101 56.6 20.3901 56.65C20.3901 56.68 20.1701 57.41 19.0601 57.83C18.8301 57.92 18.6101 57.99 18.4001 58.07C17.4901 58.39 16.7701 58.63 16.6201 59.24C16.6101 59.29 16.5701 59.32 16.5201 59.32L16.5101 59.31Z" fill="#946134"/>
<path d="M17.0601 60.28C16.5001 60.44 15.7301 61.12 15.5601 60.97C15.3901 60.82 15.5401 59.94 16.0801 59.47C16.3901 59.2 16.8201 59.1 17.1001 59.34C17.3801 59.59 17.4501 60.17 17.0601 60.28Z" fill="#F1D595"/>
<path d="M13.77 46.23C14.02 47.24 18.68 49.91 19.09 51C19.49 52.09 19.32 53.32 20.64 53.32C21.41 53.32 22.95 53.09 23.18 51.85C23.4 50.61 26.78 49.45 29.21 48.51C31.65 47.58 32.83 45.9 32.82 44.95C32.81 44 13.78 46.22 13.78 46.22L13.77 46.23Z" fill="#B37A52"/>
<path d="M7.28003 36.5999C7.28003 42.43 13.07 51.62 25.72 51.11C38.36 50.59 43.95 39.6599 43.88 33.4099C43.82 27.9199 29.58 32.53 22.5 22.8499C21.52 21.5099 7.28003 30.06 7.28003 36.61V36.5999Z" fill="#D9A288"/>
<path d="M43.47 19.52C37.4 22.68 33.34 35.54 36.51 36.84C37.78 37.36 42.18 46.24 42.87 43.71C42.99 43.26 43.13 42.72 43.27 42.11C43.85 43.72 44.21 44.7999 44.45 44.9099C45.4 45.3699 46.06 42.21 46.13 39.62C46.58 41.6 46.8 42.98 47.03 43.13C47.71 43.58 48.54 41.37 48.9 39.37C49.44 39.95 49.8 40.3 49.96 40.31C50.78 40.35 50.35 37.98 49.62 36.06C50.62 37.13 51.26 37.86 51.49 37.87C52.41 37.92 51.76 34.9599 50.89 32.9699C52.67 34.4899 53.81 35.67 54.11 35.65C54.95 35.61 54.25 33.19 53.32 31.33C54.91 32.71 55.93 33.75 56.22 33.73C57.08 33.69 56.33 31.17 55.37 29.29C56.61 30.21 57.42 30.84 57.66 30.82C58.41 30.75 57.85 29.0099 56.98 27.4099C58.45 28.2899 59.4 28.93 59.65 28.88C60.43 28.74 59.6 26.9 58.52 25.33C58.97 25.38 59.41 25.46 59.86 25.57C63.89 26.58 53.86 14.1 43.45 19.51L43.47 19.52Z" fill="#F1D5C0"/>
<path d="M41.5001 15.92C37.1901 20.51 38.9501 25.94 32.7001 29.16C31.9601 29.54 35.9901 32.57 36.7601 33.38C40.3401 37.18 42.4701 40.9 43.0101 40.99C44.2301 41.19 43.6501 36.74 42.7201 34.25C43.4301 35.11 43.9002 35.66 44.0901 35.68C44.9901 35.77 44.5302 32.89 43.7802 30.86C45.0602 32.07 45.8901 32.94 46.1401 32.94C46.9101 32.94 46.4501 30.86 45.7001 29.05C46.9401 30.23 47.7401 31.06 47.9901 31.05C48.8301 31.05 48.2101 28.58 47.3401 26.68C48.6502 27.71 49.5001 28.44 49.7401 28.42C50.6601 28.33 49.5601 25.47 48.4001 23.64C50.6001 25.25 52.0401 26.61 52.3701 26.58C53.1601 26.5 52.4601 24.39 51.5101 22.63C53.3601 23.8 54.5801 24.7 54.8701 24.66C55.7201 24.53 54.7502 22.35 53.5902 20.68C56.0102 21.86 57.6401 22.9 57.9701 22.81C58.4701 22.69 58.2501 21.87 57.7001 20.91C57.8801 20.94 58.0501 20.98 58.2201 21.01C62.3001 21.78 49.5201 7.37999 41.4901 15.92H41.5001Z" fill="#FBECDD"/>
<path d="M28.0702 57.74C28.2702 58.71 25.3702 59.58 25.8902 58.47C26.5402 57.09 25.9901 53.2 25.9901 53.2L28.6701 53.06C28.6701 53.06 27.8702 56.77 28.0702 57.74Z" fill="#F4B819"/>
<path d="M26.5701 59.07C25.5801 58.98 24.2001 58.93 23.3001 59.48C22.7601 59.81 22.0802 59.96 21.5202 59.55C21.1102 59.25 21.1101 58.52 21.6201 58.15C22.9601 57.2 24.4101 58.6 26.3601 56.56C26.9601 55.94 27.0601 57.4 27.0101 57.95C26.9601 58.51 27.3801 59.14 26.5601 59.07H26.5701Z" fill="#F4B819"/>
<path d="M28.13 58.62C27.18 58.91 25.35 59.61 24.73 60.46C24.35 60.97 23.75 61.42 23.08 61.24C22.59 61.11 22.32 60.52 22.66 59.98C23.54 58.6 25.13 59.27 26.06 57.9C26.54 57.19 27.4 56.85 27.55 57.37C27.71 57.9 28.92 58.37 28.13 58.62Z" fill="#F4B819"/>
<path d="M21.5801 59.7C20.9301 59.5 19.99 60.14 19.97 59.93C19.95 59.72 20.01 58.62 21.42 58.48C21.79 58.44 22.01 58.68 22.05 59.02C22.09 59.36 21.9301 59.81 21.5801 59.7Z" fill="#F1D595"/>
<path d="M27.85 56.94C28.49 57.86 30.0201 57.68 30.4401 58.25C30.8601 58.82 30.1001 59.5 29.4601 59.41C28.8201 59.32 28.28 58.32 27.36 58.52C26.45 58.72 27.4801 56.41 27.8401 56.93L27.85 56.94Z" fill="#F4B819"/>
<path d="M29.8901 59.42C30.8901 59.66 31.1901 60.21 31.3601 60.08C31.5301 59.95 31.5801 59.41 30.8301 58.73C30.5501 58.48 30.1701 58.35 29.9001 58.56C29.6301 58.77 29.5301 59.34 29.9001 59.42H29.8901Z" fill="#F1D595"/>
<path d="M22.5601 60.28C22.5601 60.28 22.5401 60.28 22.5301 60.28C22.4801 60.27 22.4401 60.21 22.4601 60.16C22.6401 59.45 23.4101 59.18 24.3701 58.85C24.5801 58.78 24.8001 58.7 25.0301 58.61C26.0401 58.23 26.2301 57.58 26.2401 57.57C26.2601 57.52 26.3101 57.48 26.3701 57.5C26.4201 57.52 26.4601 57.57 26.4401 57.62C26.4401 57.65 26.2201 58.38 25.1101 58.8C24.8801 58.89 24.6601 58.96 24.4501 59.04C23.5401 59.36 22.8201 59.6 22.6701 60.21C22.6601 60.26 22.6201 60.29 22.5701 60.29L22.5601 60.28Z" fill="#946134"/>
<path d="M23.1201 61.25C22.5601 61.41 21.7901 62.09 21.6201 61.94C21.4501 61.79 21.6001 60.91 22.1401 60.44C22.4501 60.17 22.88 60.07 23.16 60.31C23.44 60.56 23.5101 61.14 23.1201 61.25Z" fill="#F1D595"/>
<path d="M20 49.89C20.25 50.9 24.91 51.56 25.32 52.65C25.72 53.74 25.55 54.97 26.87 54.97C27.64 54.97 29.18 54.74 29.41 53.5C29.63 52.26 33.01 51.1 35.44 50.16C37.87 49.22 38.35 47.16 38.34 46.21C38.33 45.26 20.01 49.89 20.01 49.89H20Z" fill="#D9A288"/>
<path d="M36.0901 36.44C35.8201 36.2 35.5201 35.95 35.2101 35.7C34.2201 34.59 32.7801 33.33 31.1501 32.28V32.26C31.0701 30.62 16.95 26.67 14.17 30.48C11.01 34.81 18.3601 46.83 20.6801 46.76C20.8801 46.76 21.0201 46.4 21.1201 45.88C24.2101 48.33 28.68 51.08 30.91 50.7C31.44 50.61 31.45 49.99 31.23 49.19C34.41 50.37 38.8001 50.53 39.3901 49.41C39.5101 49.18 39.5001 48.59 39.3401 47.81C40.9601 48.01 42.1601 47.99 42.2501 47.76C42.7301 46.61 40.1701 40.03 36.0901 36.44Z" fill="#F1D5C0"/>
<path d="M25.0201 23.82C25.0001 23.42 23.5501 22.5 21.9701 20.64C22.5901 20.47 23.0301 20.19 23.0101 19.79C22.9901 19.35 21.2501 18.28 19.5001 16.04C16.7801 7.85998 14.5101 7.38 10.8001 7.38C6.46009 7.38 4.14007 12.2 5.22007 14.53C5.96007 16.11 7.01009 17.29 7.61009 19.57C7.29009 19.68 6.98011 19.85 6.69011 20.09C4.46011 22 4.06009 24.65 4.30009 24.94C4.37009 25.02 4.64009 25.08 5.05009 25.08C4.01009 26.12 3.22012 26.7 3.20012 27C3.18012 27.42 3.67012 27.71 4.33012 27.87C3.57012 29.41 2.86012 30.33 2.95012 30.65C3.04012 31.01 3.47012 31.16 4.02012 31.17C3.80012 32.81 4.3201 34.12 4.5601 34.24C4.6501 34.28 4.88012 34.24 5.20012 34.1C5.41012 36.28 6.44013 37.98 6.84013 38.1C7.21013 38.21 8.80012 37.55 10.1401 36.04C10.5601 37.22 11.0801 37.98 11.3001 38.01C11.6401 38.07 13.1301 36.83 14.0301 34.59C14.4401 35.53 14.9801 36.14 15.1801 36.15C15.4501 36.17 16.5701 35.24 17.1401 33.64C17.9701 34.62 19.0101 35.39 19.5601 34.93C19.8901 34.65 19.7701 32.91 20.2501 30.45C21.2901 30.89 22.2001 30.93 22.3601 30.79C22.5901 30.58 22.7401 28.66 21.6201 26.9C22.5201 27.66 23.0801 28.23 23.2801 28.21C23.9401 28.14 23.6101 26.16 23.1301 24.85C24.1501 24.75 25.0701 24.43 25.0301 23.85L25.0201 23.82Z" fill="#FBECDD"/>
<path d="M5.20013 13.72C6.29013 13.37 7.36013 11.49 8.88013 11.49C10.8801 11.49 11.5501 13.02 11.5501 14.06C11.5501 15.22 10.9801 17.36 7.59015 16.41C5.79015 15.9 5.1001 15.27 5.1001 15.27L5.21014 13.72H5.20013Z" fill="#B21E23"/>
<path d="M7.05013 21.76C8.14013 21.94 9.91014 20.45 9.74014 18.42C9.61014 16.86 7.79016 15.8301 6.70016 15.6501C5.61016 15.4701 5.36017 16.53 4.96017 18.3C4.49017 20.37 5.96013 21.58 7.05013 21.77V21.76Z" fill="#B21E23"/>
<path d="M6.03998 16.75L1.02002 16.02L2.78998 15.3L7.28003 15.48L6.03998 16.75Z" fill="#E48211"/>
<path d="M21.7001 8.19003C21.8101 7.54003 11.1801 5.17004 10.2001 4.89004C9.08005 4.57004 6.78006 6.50002 6.21006 6.81002C5.70006 7.09002 3.90005 5.21002 3.70005 5.49002C3.49005 5.77002 4.19003 6.40003 4.11003 7.38003C4.05003 8.18003 3.27003 8.13002 3.05003 9.81002C2.84003 11.41 4.30004 13.34 5.31004 13.41C5.66004 13.43 6.32005 10.81 8.88005 9.68002C10.92 8.78002 14.2 8.25001 16.88 10.8C18.09 11.95 21.2801 10.57 21.7001 8.18002V8.19003Z" fill="#B21E23"/>
<path d="M0.67002 16.74C0.94002 16.69 1.34005 15.81 2.95005 15.65C4.78005 15.47 7.55006 15.96 7.46006 15.46C7.39006 15.06 6.43001 13.19 5.91001 13.19C4.83001 13.19 3.74003 13.45 2.74003 13.86C0.520027 14.75 0.10002 16.85 0.67002 16.74Z" fill="#F4B819"/>
<path d="M8.88013 14.6C9.43793 14.6 9.89014 14.1478 9.89014 13.59C9.89014 13.0322 9.43793 12.58 8.88013 12.58C8.32232 12.58 7.87012 13.0322 7.87012 13.59C7.87012 14.1478 8.32232 14.6 8.88013 14.6Z" fill="#F4B819"/>
<path d="M8.88 14.2C9.2169 14.2 9.48999 13.9269 9.48999 13.59C9.48999 13.2531 9.2169 12.98 8.88 12.98C8.54311 12.98 8.27002 13.2531 8.27002 13.59C8.27002 13.9269 8.54311 14.2 8.88 14.2Z" fill="#3E3A39"/>
<path d="M9.84004 7.76C9.54004 9.09 8.21002 9.91999 6.88002 9.61999C5.55002 9.31999 4.72004 7.98997 5.02004 6.65997C5.46004 4.72997 7.88 2.72002 8.42 2.84002C8.96 2.96002 10.33 5.59999 9.84004 7.74999V7.76Z" fill="#B21E23"/>
<path d="M13.27 6.88003C12.61 8.24003 11.09 8.86004 9.86998 8.27004C8.64998 7.68004 8.18996 6.10001 8.84996 4.74001C9.79996 2.77001 12.71 1.12001 13.21 1.36001C13.71 1.60001 14.32 4.69003 13.26 6.88003H13.27Z" fill="#B21E23"/>
<path d="M18.81 7.37998C17.98 8.84998 16.05 9.31998 14.5 8.43998C12.95 7.55998 12.37 5.65999 13.2 4.19999C14.41 2.06999 18.1 0.629954 18.73 0.979954C19.36 1.33995 20.15 5.00997 18.81 7.36997V7.37998Z" fill="#B21E23"/>
<path d="M20.0501 10.37C18.7901 11.19 17.0801 10.81 16.2301 9.51002C15.3801 8.21002 15.7201 6.48999 16.9801 5.66999C18.8101 4.47999 22.3101 4.79001 22.6501 5.32001C22.9901 5.85001 22.0801 9.04 20.0401 10.37H20.0501Z" fill="#B21E23"/>
<path d="M40.9301 38.94C40.8301 38.74 40.7001 38.53 40.5701 38.31C40.4801 36.97 40.05 34.88 38.85 32.64C38.01 31.07 36.6601 30.16 35.7101 30.47C35.5701 29.08 34.9601 27.85 33.8701 28.18C29.4201 29.55 23.8701 24.37 23.0701 23.5C22.4701 22.85 20.8401 25.54 20.3201 27.57C19.6201 28.26 19.4601 29.95 19.9901 31.7C21.2701 35.93 23.7801 38.57 24.1201 38.45C24.3401 38.37 24.6801 36.87 24.5301 34.6C25.7301 38.15 27.73 40.34 28.04 40.24C28.19 40.19 28.4301 39.49 28.5501 38.33C30.8801 41.29 32.3001 43.63 32.7401 43.71C33.5101 43.85 33.5801 42.22 33.3001 40.28C35.1501 42.73 36.3101 44.55 36.6901 44.62C37.4201 44.75 37.52 43.27 37.29 41.45C40.05 44.34 41.7901 46.71 42.2501 46.75C43.6401 46.88 42.3101 41.53 40.9301 38.93V38.94ZM23.9601 31.15C23.9601 31.15 23.9801 31.15 23.9901 31.15C23.9901 31.17 23.9901 31.19 23.9901 31.21C23.9901 31.19 23.98 31.16 23.97 31.14L23.9601 31.15Z" fill="#FBECDD"/>
</svg>
