<svg width="74" height="48" viewBox="0 0 74 48" fill="none" xmlns="http://www.w3.org/2000/svg">
<path d="M53.92 26.69C53.66 25.98 53.34 25.3 53.07 24.59C52.65 23.52 52.39 22.4 52.23 21.26C51.9 18.91 52.01 16.51 52.15 14.15C52.22 12.93 52.26 11.7 52.43 10.49C52.52 9.86999 52.65 9.26 52.83 8.66C53 8.08 53.25 7.53 53.45 6.97C53.82 5.92 53.94 4.85 53.48 3.81C53.15 3.07 52.6 2.45001 51.92 2.01001C50.56 1.13001 48.81 0.869995 47.23 1.12C46.07 1.3 44.93 1.54 43.75 1.63C42.51 1.73 41.26 1.75 40.01 1.69C38.79 1.63 37.58 1.47 36.38 1.28C35.2 1.09 34.01 0.920013 32.81 0.920013C31.66 0.920013 30.52 1.09 29.44 1.5C28.61 1.82 27.87 2.30001 27.17 2.85001C26.63 3.17001 26.11 3.52001 25.58 3.85001C25.02 4.19001 24.53 4.62999 23.96 4.95999C23.42 5.26999 22.82 5.48001 22.23 5.70001C20.92 6.19001 19.63 6.72 18.33 7.22C17.04 7.72 15.74 8.21999 14.48 8.79999C13.38 9.30999 12.4 10 11.9 11.14C11.86 11.23 11.91 11.35 12.01 11.38C12.6 11.53 13.17 11.74 13.76 11.9C14.37 12.06 15 12.16 15.62 12.27C16.88 12.49 18.13 12.7 19.36 13.03C21.05 13.48 22.71 14.04 24.37 14.58C24.48 14.63 24.6 14.67 24.71 14.72C26.78 15.61 28.59 16.89 30.21 18.45C31.79 19.97 33.17 21.69 34.59 23.36C35.28 24.18 40.35 38.83 42.34 38.28C44.75 37.61 46.62 35.86 48.3 34.17C49.9 32.56 52.9 33.17 54.11 31.05C54.87 29.71 54.4 28.04 53.9 26.7L53.92 26.69Z" fill="#A9DEEE"/>
<path opacity="0.46" d="M53.9201 26.69C53.6601 25.98 53.3401 25.3 53.0701 24.59C52.6501 23.52 52.39 22.4 52.23 21.26C51.9 18.91 52.0101 16.51 52.1501 14.15C52.2201 12.93 52.2601 11.7 52.4301 10.49C52.5201 9.87 52.6501 9.26001 52.8301 8.66001C53.0001 8.08001 53.2501 7.53001 53.4501 6.97001C53.8201 5.92001 53.94 4.85 53.48 3.81C53.15 3.07 52.6001 2.45001 51.9201 2.01001C50.6201 1.16001 48.95 0.900011 47.41 1.10001C47.46 1.11001 47.5101 1.12001 47.5501 1.13001C48.0701 1.29001 48.59 1.60002 48.79 2.14002C48.96 2.58002 48.8101 3.03002 48.5501 3.39002C47.8301 4.38002 46.55 4.98001 45.47 5.47001C44.98 5.70001 44.47 5.90999 43.97 6.10999C43.16 6.42999 42.3001 6.64 41.4601 6.87C37.1301 8.04 32.6601 8.78999 28.1801 9.01999C26.6501 9.09999 25.1201 9.26001 23.5901 9.26001C22.2401 9.26001 20.5401 9.22999 19.4601 8.29999C19.3801 8.22999 19.3901 8.12 19.4301 8.03C19.8601 7.09 21.0601 6.69999 21.9501 6.35999C22.9601 5.97999 23.92 5.63001 24.73 4.88001C25.1 4.53001 25.4301 4.14001 25.7601 3.75001C25.7101 3.78 25.65 3.82001 25.6 3.85001C25.04 4.19001 24.55 4.63 23.98 4.96C23.44 5.27 22.8401 5.48002 22.2501 5.70002C20.9401 6.19002 19.65 6.72001 18.35 7.22001C17.06 7.72001 15.7601 8.21999 14.5001 8.79999C13.4001 9.30999 12.4201 10 11.9201 11.14C11.8801 11.23 11.9301 11.35 12.0301 11.38C12.6201 11.53 13.1901 11.74 13.7801 11.9C14.3901 12.06 15.0201 12.16 15.6401 12.27C16.9001 12.49 18.1501 12.7 19.3801 13.03C21.0701 13.48 22.7301 14.04 24.3901 14.58C24.5001 14.63 24.62 14.67 24.73 14.72C26.8 15.61 28.61 16.89 30.23 18.45C31.81 19.97 33.1901 21.69 34.6101 23.36C35.3001 24.18 40.3701 38.83 42.3601 38.28C44.7701 37.61 46.6401 35.86 48.3201 34.17C49.9201 32.56 52.9201 33.17 54.1301 31.05C54.8901 29.71 54.4201 28.04 53.9201 26.7V26.69Z" fill="#5B9CBF"/>
<g style="mix-blend-mode:multiply" opacity="0.46">
<path d="M53.74 26.24C53.74 26.46 53.74 26.67 53.74 26.88C53.74 28.59 53.58 30.52 52.26 31.76C51.45 32.52 50.41 32.79 49.4 33.17C48.3 33.58 47.34 34.17 46.48 34.98C45.86 35.57 45.34 36.27 44.64 36.77C44.37 36.96 44.05 37.11 43.77 36.86C43.42 36.56 43.45 36.03 43.5 35.62C43.53 35.4 43.6 35.17 43.6 34.94C43.6 34.6 43.46 34.24 43.37 33.92C43.17 33.21 42.9 32.53 42.66 31.83C42.41 31.11 42.21 30.39 42.13 29.63C42.04 28.83 42.02 28.02 42.01 27.22C42 25.83 42.03 24.43 42.03 23.04C42.03 21.99 42.05 20.95 42.11 19.9C42.24 17.73 42.52 15.47 43.47 13.49C43.89 12.6 44.48 11.78 45.25 11.17C45.95 10.62 46.74 10.15 47.49 9.67001C48.37 9.10001 49.28 8.52999 50.27 8.14999C50.98 7.86999 51.88 7.78999 52.45 8.39999C52.58 8.53999 52.68 8.7 52.75 8.87C52.77 8.79999 52.78 8.73 52.8 8.66C52.97 8.08 53.22 7.53 53.42 6.97C53.79 5.92 53.91 4.85 53.45 3.81C53.17 3.18 52.73 2.65001 52.18 2.23001C52.49 3.49001 51.18 5.04001 50.14 5.70001C48.94 6.46001 47.7 7.22 46.4 7.81C45.06 8.42 43.68 8.81001 42.21 8.57001C41.39 8.44001 40.59 8.22999 39.76 8.17999C38.89 8.12999 38.01 8.33 37.18 8.56C35.52 9.03 33.93 9.75001 32.3 10.32C29.16 11.41 25.91 12.24 22.6 12.61C21.24 12.76 19.87 12.83 18.5 12.82C18.78 12.88 19.07 12.95 19.35 13.03C21.04 13.48 22.7 14.04 24.36 14.58C24.47 14.63 24.59 14.67 24.7 14.72C26.77 15.61 28.58 16.89 30.2 18.45C31.78 19.97 33.16 21.69 34.58 23.36C35.27 24.18 40.34 38.83 42.33 38.28C44.74 37.61 46.61 35.86 48.29 34.17C49.89 32.56 52.89 33.17 54.1 31.05C54.86 29.71 54.39 28.04 53.89 26.7C53.83 26.55 53.77 26.4 53.71 26.25L53.74 26.24Z" fill="#5B9CBF"/>
</g>
<path d="M42.0399 31.31C41.7099 29.98 41.53 28.64 41.58 27.27C41.66 25.46 41.5599 23.66 41.5999 21.85C41.5999 21.7 41.5999 21.54 41.5999 21.39C41.5699 20.29 41.3999 19.21 41.3499 18.11C41.3099 17.19 41.4 16.28 41.55 15.38C41.81 13.84 42.41 12.12 41.81 10.58C41.39 9.50999 40.49 8.97001 39.44 8.73001C39.2 8.76001 38.9599 8.79001 38.7199 8.82001C31.4899 9.76001 24.27 10.15 17.01 9.35999C14.75 9.10999 10.95 10.5 11.2 13.28C11.29 14.31 11.98 15.17 12.45 16.09C13.96 19.01 13.28 22.34 13.43 25.48C13.6 28.96 13.9199 32.5 13.2899 35.95C13.1499 36.72 12.98 37.58 13.39 38.25C14.55 40.15 18.04 39.08 19.7 38.84C25.84 37.94 31.5299 38.86 37.6699 39.19C38.6499 39.24 39.65 39.29 40.6099 39.08C41.8599 38.8 42.5799 38.25 42.9799 37.53C43.1499 36.78 43.14 35.99 43.01 35.2C42.79 33.88 42.38 32.6 42.06 31.3L42.0399 31.31Z" fill="#BFE7FB"/>
<path opacity="0.46" d="M42.04 31.31C42 31.14 41.97 30.97 41.93 30.8C41.39 30.83 40.84 30.84 40.3 30.83C38.4 30.82 36.58 30.22 34.76 29.7C32.99 29.2 31.21 28.79 29.35 28.99C27.67 29.17 26.08 29.81 24.63 30.63C23.61 31.21 22.68 31.89 21.75 32.6C20.81 33.33 19.85 34.05 18.81 34.62C17.97 35.08 16.9499 35.52 15.9699 35.32C14.8199 35.09 14.25 33.92 14.06 32.86C13.75 31.08 14.21 29.28 14.08 27.49C13.99 26.25 13.73 25.03 13.39 23.83C13.39 24.38 13.3899 24.92 13.4099 25.46C13.5799 28.94 13.9 32.48 13.27 35.93C13.13 36.7 12.96 37.56 13.37 38.23C14.53 40.13 18.02 39.06 19.68 38.82C25.82 37.92 31.51 38.84 37.65 39.17C38.63 39.22 39.63 39.27 40.59 39.06C41.84 38.78 42.56 38.23 42.96 37.51C43.13 36.76 43.12 35.97 42.99 35.18C42.77 33.86 42.36 32.58 42.04 31.28V31.31Z" fill="#5B9CBF"/>
<g style="mix-blend-mode:screen" opacity="0.57">
<path d="M35.58 9.82001C35.24 9.84001 34.91 9.88001 34.57 9.91001C33.85 9.96001 33.12 9.99002 32.4 10.04C30.91 10.15 29.43 10.31 27.96 10.6C26.51 10.88 25.05 11.14 23.57 11.22C22.85 11.26 22.12 11.26 21.4 11.2C20.66 11.14 19.93 10.97 19.21 10.79C18.04 10.51 16.85 10.24 15.64 10.33C14.7 10.4 13.6899 10.64 12.9899 11.31C12.1399 12.13 12.26 13.29 12.71 14.29C13.61 16.24 14.6499 18.16 14.8699 20.38C14.9099 20.79 14.9299 21.2 14.9799 21.61C15.0499 22.25 15.13 23.43 15.94 23.58C16.82 23.75 17.2199 22.56 17.3699 21.91C17.8199 19.97 16.79 18.08 16.95 16.13C17.04 15.09 17.61 14.17 18.7 14C19.88 13.82 21.08 14.25 22.25 13.96C23.73 13.6 25.18 13.11 26.65 12.7C28.15 12.28 29.65 11.89 31.19 11.67C32.59 11.47 33.9999 11.44 35.4099 11.41C35.9899 11.4 37.22 11.34 37.27 10.54C37.32 9.74002 36.09 9.79 35.58 9.81V9.82001Z" fill="#BFE7FB"/>
</g>
<g style="mix-blend-mode:screen" opacity="0.57">
<path d="M40.81 35.02C40.52 34.59 39.91 34.69 39.49 34.82C38.97 34.98 38.49 35.24 37.97 35.39C36.47 35.81 34.86 35.83 33.36 35.44C32.59 35.24 31.83 34.95 31.07 34.69C30.29 34.43 29.51 34.17 28.72 33.95C27.2 33.53 25.6201 33.22 24.0301 33.27C23.9001 33.27 23.7701 33.28 23.6401 33.29C23.4801 33.32 23.3101 33.34 23.1501 33.38C22.3101 33.56 21.48 33.8 20.68 34.1C19.94 34.38 19.22 34.73 18.47 34.98C17.87 35.18 17.09 35.35 16.56 34.9C16.05 34.48 15.99 33.75 16.06 33.14C16.15 32.43 16.41 31.75 16.5701 31.05C16.64 30.74 16.7 30.41 16.66 30.09C16.63 29.83 16.5 29.45 16.29 29.28C16.07 29.11 15.8101 29.61 15.5901 30.17C15.5901 30.17 15.5901 30.17 15.5901 30.18C15.5901 30.24 15.57 30.31 15.56 30.37C15.44 31.23 15.2 32.03 14.92 32.86C14.55 33.93 14.1 35.12 14.24 36.28C14.39 37.49 15.48 38.09 16.62 38.11C18.05 38.13 19.33 37.34 20.72 37.13C21.52 37.01 22.36 37.05 23.16 37.09C24.02 37.13 24.88 37.2 25.74 37.27C27.44 37.4 29.1301 37.39 30.8401 37.36C32.4301 37.33 34.0101 37.35 35.5801 37.59C36.8201 37.79 38.2301 38.03 39.4001 37.43C39.8701 37.19 40.25 36.83 40.56 36.4C40.83 36.03 41.1201 35.45 40.8301 35.01L40.81 35.02Z" fill="#BFE7FB"/>
</g>
<path d="M50.8801 30.23C50.9401 30.37 51.04 30.48 51.16 30.55C51.93 30.37 52.29 29.58 52.48 28.84C52.76 27.78 52.7001 26.71 52.4501 25.66C51.9801 23.68 50.9701 21.87 50.5001 19.89C49.9801 17.72 50.1601 15.36 50.5901 13.19C50.7001 12.65 50.84 12.11 50.97 11.57C51.03 11.33 51.1 11.03 51.04 10.78C51.02 10.71 51.0201 10.72 51.0101 10.71C51.0201 10.73 51.0101 10.71 50.9501 10.72C50.7801 10.78 50.6301 10.9 50.5001 11.01C50.4501 11.05 50.4101 11.1 50.3701 11.14C50.1701 11.54 50.0001 11.96 49.8401 12.38C49.1401 14.19 48.6601 16.07 48.5701 18.02C48.5201 19.14 48.5701 20.29 48.7701 21.39C48.9401 22.26 49.2301 23.11 49.4401 23.97C49.6501 24.84 49.8401 25.77 49.6701 26.66C49.5201 27.42 49.0801 27.95 48.3801 28.25C46.9301 28.86 44.8901 28.62 43.8901 30.05C43.8101 30.17 43.84 30.33 43.98 30.38C45.8 30.98 47.6801 30.01 49.4501 29.69C49.7901 29.63 50.48 29.4 50.73 29.74C50.83 29.88 50.8201 30.07 50.8801 30.23Z" fill="#C9E9ED"/>
<g style="mix-blend-mode:screen" opacity="0.57">
<path d="M44.2399 2.20002C43.6599 1.94002 42.9399 2.11002 42.3299 2.20002C41.4599 2.32002 40.6599 2.18001 39.7999 2.07001C38.9899 1.96001 38.1599 2.00002 37.3399 1.92002C36.5699 1.84002 35.7999 1.73001 35.0299 1.60001C33.5499 1.36001 32.0099 1.19001 30.5299 1.50001C28.8599 1.85001 27.5899 2.97001 26.2799 4.00001C25.5099 4.60001 24.7199 5.19002 23.8699 5.67002C23.3699 5.95002 22.8599 6.19001 22.3399 6.41001C21.8999 6.52001 21.4499 6.59999 21.0499 6.79999C20.8499 6.89999 20.6899 7.25 21.0199 7.28C22.5799 7.42 24.0499 6.65 25.4099 5.99C26.1299 5.64 26.8099 5.25 27.4799 4.81C28.1699 4.35 28.8699 3.98 29.6499 3.71C31.3299 3.13 33.0999 3.10002 34.8599 3.14002C36.7099 3.18002 38.5499 3.32 40.3999 3.21C41.1099 3.17 41.8299 3.11999 42.5299 3.04999C43.1299 2.98999 43.8199 2.88002 44.2799 2.45002C44.3699 2.37002 44.3599 2.24001 44.2499 2.19001L44.2399 2.20002Z" fill="#BFE7FB"/>
</g>
<path d="M18.2801 8.18999C18.2401 8.12999 18.18 8.09999 18.11 8.06999C18.02 8.03999 17.92 8.04998 17.83 8.05998C17.73 8.06998 17.63 8.10998 17.54 8.14998C17.48 8.16998 17.42 8.21998 17.37 8.27998C17.33 8.29998 17.29 8.32998 17.25 8.36998C17.24 8.37998 17.23 8.38998 17.22 8.39998C17.21 8.40998 17.15 8.5 17.2 8.42C17.18 8.44 17.17 8.46 17.15 8.48C17.12 8.52 17.1 8.56998 17.08 8.61998C17.06 8.68998 17.07 8.75998 17.13 8.80998C17.26 8.90998 17.45 8.96 17.62 8.95C17.78 8.95 17.95 8.88999 18.08 8.78999C18.15 8.73999 18.21 8.66999 18.26 8.59999C18.3 8.53999 18.33 8.46 18.33 8.39C18.33 8.32 18.3201 8.25 18.2801 8.2V8.18999Z" fill="#C9E9ED"/>
<g style="mix-blend-mode:screen" opacity="0.57">
<path d="M40.6199 10.24C40.0199 9.83999 39.3599 10.41 38.9699 10.83C38.5199 11.3 37.8899 11.72 37.6999 12.38C37.4699 13.18 37.9999 13.72 38.3299 14.38C38.5299 14.77 38.5599 15.21 38.5699 15.64C38.5699 16.09 38.5899 16.53 38.5899 16.98C38.5899 17.94 38.5499 18.89 38.6099 19.85C38.6699 20.74 38.8599 21.61 38.9899 22.49C39.0899 23.18 39.1799 24.14 39.7599 24.62C39.9099 24.75 40.1399 24.52 40.1299 24.36C40.0899 23.95 40.0799 23.54 40.0299 23.13C39.9799 22.69 39.9199 22.24 39.8999 21.79C39.8599 20.88 39.8699 19.95 39.9299 19.04C40.0399 17.32 40.3199 15.61 40.4399 13.89C40.4399 13.86 40.4399 13.82 40.4399 13.79C40.6699 13.12 41.0499 12.5 41.0999 11.79C41.1399 11.29 41.0999 10.55 40.6299 10.24H40.6199Z" fill="#BFE7FB"/>
</g>
<g style="mix-blend-mode:screen">
<path d="M15.16 17.1C15.11 16.79 15.09 16.47 15 16.16C14.84 15.55 14.53 14.99 14.25 14.43C14 13.93 13.7 13.44 13.53 12.91C13.35 12.35 13.41 11.87 13.76 11.38C13.93 11.14 13.57 11.1 13.43 11.23C12.99 11.64 12.75 12.16 12.8 12.77C12.85 13.35 13.15 13.89 13.4 14.4C13.69 14.99 13.98 15.59 14.27 16.18C14.42 16.48 14.61 16.76 14.76 17.05C14.93 17.38 15.02 17.75 15.08 18.11C15.1 18.23 15.29 18.12 15.28 18.02C15.25 17.71 15.2 17.4 15.15 17.09L15.16 17.1Z" fill="#C9E9ED"/>
</g>
<g style="mix-blend-mode:screen">
<path d="M15.92 20.12C15.91 20.07 15.8901 20.02 15.8801 19.97C15.8501 19.87 15.8001 19.77 15.7501 19.67C15.7401 19.65 15.7 19.63 15.67 19.63C15.64 19.63 15.6101 19.63 15.5901 19.65C15.5401 19.68 15.4901 19.74 15.5001 19.8C15.5201 19.9 15.5401 20 15.5601 20.1C15.5601 20.15 15.5801 20.2 15.5801 20.25C15.5801 20.3 15.5801 20.36 15.6101 20.4C15.6301 20.44 15.6501 20.47 15.6901 20.48C15.7301 20.48 15.7601 20.48 15.8001 20.48C15.8801 20.45 15.9501 20.39 15.9601 20.3C15.9601 20.24 15.9601 20.18 15.9401 20.12H15.92Z" fill="#C9E9ED"/>
</g>
<g style="mix-blend-mode:screen">
<path d="M16.89 37.31C16.67 37.09 16.4 37.02 16.1 36.97C15.99 36.95 15.87 36.93 15.76 36.9C15.64 36.86 15.6 36.85 15.5 36.76C15.49 36.75 15.49 36.75 15.5 36.76C15.49 36.75 15.47 36.73 15.46 36.72C15.44 36.7 15.42 36.67 15.41 36.65C15.37 36.59 15.34 36.53 15.31 36.46C15.24 36.28 15.19 36.1 15.18 35.9C15.16 35.5 15.23 35.07 15.31 34.68C15.34 34.55 15.13 34.61 15.09 34.68C14.87 35.11 14.65 35.54 14.6 36.03C14.57 36.41 14.65 36.87 14.91 37.16C15.1 37.38 15.36 37.47 15.63 37.53C15.93 37.59 16.21 37.65 16.51 37.72C16.63 37.75 16.75 37.7 16.83 37.61C16.89 37.55 16.96 37.4 16.89 37.32V37.31Z" fill="#C9E9ED"/>
</g>
<g style="mix-blend-mode:screen">
<path d="M35.4099 37.02C34.6499 36.63 33.7499 36.43 32.9099 36.28C32.0199 36.13 31.1299 36.05 30.2299 36.02C28.4399 35.95 26.6599 36.03 24.8799 35.82C24.1799 35.74 23.2599 35.59 22.6699 36.08C22.5999 36.14 22.58 36.29 22.71 36.25C23.35 36.09 24.0199 36.25 24.6399 36.38C25.4199 36.55 26.22 36.58 27.02 36.6C28.78 36.63 30.52 36.61 32.27 36.78C32.78 36.83 33.2799 36.88 33.7899 36.96C34.2799 37.03 34.77 37.14 35.27 37.21C35.35 37.22 35.4999 37.07 35.3899 37.01L35.4099 37.02Z" fill="#C9E9ED"/>
</g>
<g style="mix-blend-mode:screen">
<path d="M39.9601 36.18C39.8301 36.18 39.69 36.26 39.62 36.37C39.59 36.41 39.57 36.46 39.54 36.5C39.53 36.5 39.5201 36.52 39.5101 36.53C39.5101 36.53 39.4701 36.56 39.4601 36.57C39.4301 36.59 39.4101 36.61 39.3801 36.63C39.3301 36.67 39.3301 36.67 39.2601 36.7C38.9801 36.84 38.67 36.91 38.37 36.97C37.78 37.08 37.1801 37.15 36.5801 37.14C36.5501 37.14 36.52 37.19 36.56 37.2C37.2 37.25 37.85 37.28 38.5 37.23C38.84 37.2 39.18 37.15 39.5 37.04C39.8 36.94 40.12 36.71 40.16 36.38C40.18 36.26 40.0601 36.18 39.9601 36.18Z" fill="#C9E9ED"/>
</g>
<g style="mix-blend-mode:screen">
<path d="M39.55 12.68C39.55 12.68 39.5101 12.64 39.4901 12.62C39.4701 12.6 39.43 12.59 39.41 12.58C39.39 12.58 39.37 12.57 39.36 12.56C39.36 12.56 39.36 12.56 39.35 12.56C39.35 12.56 39.35 12.55 39.35 12.54C39.35 12.49 39.3301 12.42 39.2801 12.39C39.2601 12.39 39.25 12.37 39.23 12.37C39.2 12.37 39.1701 12.36 39.1401 12.37C39.0801 12.37 39.02 12.4 38.98 12.43C38.92 12.47 38.88 12.53 38.85 12.59C38.83 12.65 38.8 12.71 38.8 12.78C38.8 12.84 38.8 12.91 38.85 12.96C38.85 12.96 38.85 12.96 38.86 12.97C38.86 12.97 38.86 12.98 38.86 12.99C38.86 12.99 38.86 13 38.86 13.01C38.86 13.05 38.89 13.07 38.91 13.09C38.9 13.08 38.8901 13.07 38.8801 13.06C38.8901 13.08 38.9101 13.09 38.9301 13.1C38.9601 13.11 38.9901 13.12 39.0201 13.11C39.0401 13.11 39.0501 13.1 39.0601 13.09C39.0901 13.11 39.1201 13.12 39.1501 13.12C39.1901 13.12 39.2201 13.12 39.2601 13.12C39.2901 13.12 39.3101 13.1 39.3401 13.1C39.3801 13.08 39.4201 13.06 39.4501 13.03C39.4701 13.01 39.4901 12.99 39.5101 12.97C39.5401 12.94 39.5601 12.91 39.5701 12.87C39.5701 12.85 39.5701 12.82 39.5801 12.8C39.5801 12.76 39.58 12.71 39.55 12.68Z" fill="#C9E9ED"/>
</g>
<g style="mix-blend-mode:screen">
<path d="M29.1899 28.32C28.4999 27.58 27.5099 28.02 26.7699 28.55C26.5199 28.66 26.2899 28.82 26.1299 29.05C26.0599 29.15 26.0699 29.28 26.1599 29.36C26.2699 29.45 26.4799 29.41 26.5999 29.4C26.7899 29.38 26.9899 29.34 27.1799 29.3C27.6299 29.21 28.0699 29.1 28.4999 28.97C28.6699 28.92 28.8999 28.87 29.0399 28.75C29.1399 28.67 29.3199 28.46 29.1899 28.32Z" fill="#C9E9ED"/>
</g>
<g style="mix-blend-mode:screen">
<path d="M47.0201 31.97C46.6901 31.58 46.1201 31.54 45.6501 31.51C45.1501 31.48 44.6601 31.57 44.3001 31.94C43.8901 32.36 43.8601 32.97 44.0301 33.53C44.0201 33.59 44.0001 33.66 43.9901 33.72C43.9601 33.93 43.9401 34.14 43.9501 34.35C43.9501 34.54 43.9701 34.76 44.0801 34.92C44.3101 35.26 44.79 35.2 45.1 35.04C45.51 34.83 45.8401 34.49 46.1301 34.15C46.3801 33.85 46.6201 33.53 46.8101 33.19C47.0101 32.85 47.3301 32.34 47.0101 31.97H47.0201Z" fill="#C9E9ED"/>
</g>
<path opacity="0.69" d="M68.6401 32.66C68.5001 32.28 68.2401 31.93 67.9301 31.66C67.4301 31.24 66.8201 30.99 66.2001 30.78C58.0101 27.98 48.4401 28.59 39.9401 28.91C30.2601 29.27 20.5101 29.35 11.0801 31.71C7.97008 32.58 4.86009 33.83 2.53009 36.07C1.75009 36.82 1.06004 37.7 0.730044 38.73C0.400044 39.76 0.47004 40.96 1.10004 41.83C2.42004 43.64 5.81009 43.92 7.84009 44.16C10.5701 44.49 13.3301 44.44 16.0801 44.38C20.7501 44.27 25.39 43.79 30.04 43.38C30.69 43.32 31.6001 43.27 32.1401 43.74C32.8101 44.33 32.58 45.3 33.04 46.01C33.47 46.68 34.3501 46.87 35.1401 46.98C42.3901 48.02 50.6301 47.63 57.4401 44.73C58.3601 44.34 59.5201 43.37 58.5001 42.51C57.7601 41.89 56.4101 42.07 55.5301 41.82C55.2901 41.75 55.04 41.64 54.92 41.42C54.77 41.14 54.9001 40.78 55.1401 40.57C56.1501 39.67 57.98 39.33 59.23 38.92C61.72 38.11 68.5501 36.71 68.7501 33.36C68.7601 33.12 68.7301 32.89 68.6501 32.67L68.6401 32.66Z" fill="#C1E8FB"/>
<path opacity="0.51" d="M32.17 43.76C32.17 43.59 32.17 43.42 32.16 43.26C32.11 42.76 31.8401 42.41 31.4001 42.18C30.5601 41.75 29.4901 41.7 28.5701 41.71C27.5001 41.71 26.43 41.84 25.3601 41.94C24.2801 42.03 23.2001 42.07 22.1201 42.14C20.1401 42.26 18.15 42.35 16.17 42.43C13.44 42.54 10.66 42.62 7.97003 42.08C5.55003 41.6 2.42007 40.29 2.38007 37.38C2.38007 36.92 2.46004 36.47 2.60004 36.04C2.58004 36.06 2.57005 36.07 2.55005 36.08C1.77005 36.83 1.08006 37.71 0.750064 38.74C0.420064 39.77 0.490059 40.97 1.12006 41.84C2.44006 43.65 5.83005 43.93 7.86005 44.17C10.59 44.5 13.35 44.45 16.1 44.39C20.77 44.28 25.4101 43.8 30.0601 43.39C30.7101 43.33 31.62 43.28 32.16 43.75C32.16 43.75 32.1801 43.77 32.1801 43.78L32.17 43.76Z" fill="#5B9CBF"/>
<path opacity="0.51" d="M68.64 32.66C68.5 32.28 68.24 31.93 67.93 31.66C67.43 31.24 66.82 30.99 66.2 30.78C65.56 30.56 64.91 30.37 64.25 30.19C64.62 30.36 64.98 30.55 65.32 30.76C66.23 31.31 67.3 32.23 66.99 33.42C66.82 34.06 66.33 34.56 65.84 34.96C64.79 35.83 63.61 36.48 62.36 37C61.04 37.55 59.68 37.97 58.31 38.37C57.72 38.54 57.13 38.75 56.52 38.88C55.95 39.01 55.38 39.1 54.81 39.23C54.31 39.35 53.74 39.48 53.34 39.82C53.16 39.97 52.89 40.23 52.96 40.49C53.01 40.69 53.2 40.85 53.34 41C53.87 41.56 54.24 42.27 53.89 43.03C53.61 43.64 52.99 44.04 52.42 44.32C51.67 44.69 50.85 44.94 50.04 45.14C48.58 45.5 47.09 45.73 45.6 45.95C42.51 46.42 39.35 46.73 36.22 46.57C35.28 46.52 34.04 46.39 33.02 45.97C33.45 46.64 34.33 46.83 35.12 46.94C42.37 47.98 50.61 47.59 57.42 44.69C58.34 44.3 59.5 43.33 58.48 42.47C57.74 41.85 56.39 42.03 55.51 41.78C55.27 41.71 55.02 41.6 54.9 41.38C54.75 41.1 54.88 40.74 55.12 40.53C56.13 39.63 57.96 39.29 59.21 38.88C61.7 38.07 68.53 36.67 68.73 33.32C68.74 33.08 68.71 32.85 68.63 32.63L68.64 32.66Z" fill="#5B9CBF"/>
<path opacity="0.51" d="M59.22 38.91C59.35 38.87 59.5 38.82 59.65 38.78C59.39 38.83 59.13 38.88 58.86 38.94C57.98 39.12 57.09 39.27 56.26 39.62C55.74 39.84 55.22 40.1 54.78 40.46C54.49 40.7 54.08 41.08 54.24 41.5C54.43 42.03 55.08 42.23 55.58 42.31C56.18 42.4 56.81 42.38 57.39 42.59C57.82 42.75 58.2 43.11 58.22 43.6C58.24 44 57.99 44.34 57.72 44.61C58.57 44.16 59.43 43.3 58.5 42.52C57.76 41.9 56.41 42.08 55.53 41.83C55.29 41.76 55.04 41.65 54.92 41.43C54.77 41.15 54.9 40.79 55.14 40.58C56.15 39.68 57.98 39.34 59.23 38.93L59.22 38.91Z" fill="#5B9CBF"/>
<path opacity="0.51" d="M56.07 29.36C55.11 28.98 54.08 28.78 53.06 28.61C50.15 28.14 47.17 28.2 44.23 28.33C41.9 28.44 39.57 28.64 37.24 28.9C34.9 29.15 32.56 29.42 30.24 29.75C27.96 30.08 25.72 30.63 23.49 31.15C21.71 31.57 19.67 31.77 18.19 32.94C18 33.09 17.76 32.89 17.81 32.72C17.19 32.97 16.5701 33.24 15.9601 33.54C14.7201 34.14 13.49 34.84 12.48 35.79C11.73 36.5 10.9 37.61 11.18 38.71C11.46 39.81 12.8901 40.04 13.8401 40.11C15.1101 40.2 16.3901 40.06 17.6501 39.92C19.9501 39.67 22.25 39.36 24.56 39.15C25.73 39.04 26.9 38.94 28.07 38.93C29.23 38.92 30.39 38.96 31.54 39.04C33.78 39.19 36.01 39.41 38.24 39.61C40.32 39.8 42.5401 39.85 44.4001 38.75C45.9801 37.82 47.15 36.36 48.69 35.37C50.48 34.21 52.56 33.61 54.48 32.72C55.26 32.36 56.07 31.97 56.74 31.42C57.01 31.2 57.3401 30.9 57.3901 30.53C57.4201 30.3 57.28 30.08 57.07 29.9C56.79 29.65 56.42 29.48 56.07 29.35V29.36Z" fill="#1C9AD6"/>
<g style="mix-blend-mode:screen">
<path d="M10.8301 42.13C10.3201 41.91 9.7501 41.86 9.2101 41.77C8.6801 41.68 8.14007 41.59 7.62007 41.47C6.81007 41.29 6.0001 41.05 5.2701 40.65C4.5401 40.26 3.8901 39.72 3.4601 39C3.2101 38.57 2.9901 38.08 3.0201 37.56C3.0501 37.09 3.3101 36.66 3.5801 36.29C4.1901 35.46 5.10009 34.79 6.01009 34.32C6.10009 34.27 6.09005 34.12 5.97005 34.18C5.09005 34.63 4.21007 35.07 3.49007 35.77C2.76007 36.48 2.18006 37.42 2.48006 38.47C3.02006 40.38 4.9101 41.41 6.7101 41.87C7.3101 42.02 7.93007 42.11 8.55007 42.17C9.26007 42.25 9.99009 42.36 10.7001 42.36C10.8101 42.36 10.9601 42.19 10.8101 42.13H10.8301Z" fill="#C9E9ED"/>
</g>
<g style="mix-blend-mode:screen">
<path d="M40.05 45.37C39.07 45.26 38.08 45.26 37.1 45.18C36.57 45.13 36.05 45.07 35.53 44.97C35.16 44.89 34.78 44.81 34.45 44.62C34.17 44.45 33.92 44.2 33.87 43.87C33.8 43.44 34.05 43.03 34.01 42.6C33.94 41.84 33.13 41.43 32.46 41.36C32.41 41.36 32.34 41.43 32.39 41.47C32.68 41.69 33.05 41.82 33.28 42.12C33.63 42.56 33.5 42.96 33.4 43.46C33.24 44.22 33.59 44.81 34.28 45.14C35.07 45.52 36.07 45.59 36.94 45.64C37.96 45.7 38.99 45.68 40.01 45.57C40.11 45.56 40.18 45.4 40.05 45.38V45.37Z" fill="#C9E9ED"/>
</g>
<g style="mix-blend-mode:screen">
<path d="M54.07 38.73C53.41 38.76 52.78 38.96 52.31 39.44C51.85 39.91 51.7 40.61 52.18 41.13C52.43 41.4 52.77 41.5 53.04 41.75C53.38 42.07 53.1401 42.56 52.8401 42.81C52.5201 43.08 52.11 43.22 51.74 43.4C51.29 43.61 50.84 43.89 50.35 43.99C50.31 43.99 50.27 44.08 50.33 44.08C51.16 44.02 51.9901 43.67 52.7101 43.24C53.2601 42.92 53.87 42.2 53.45 41.54C53.13 41.03 52.14 40.75 52.43 39.98C52.65 39.39 53.44 38.92 54.04 38.85C54.11 38.85 54.17 38.7 54.07 38.71V38.73Z" fill="#C9E9ED"/>
</g>
<g style="mix-blend-mode:screen">
<path d="M48.6101 44.39C48.5801 44.33 48.5101 44.35 48.4601 44.38C48.4601 44.38 48.4401 44.38 48.4401 44.39H48.4301C48.4301 44.39 48.4201 44.39 48.4101 44.39C48.3801 44.4 48.3601 44.41 48.3301 44.43C48.3001 44.44 48.2801 44.45 48.2501 44.46C48.2501 44.46 48.2401 44.46 48.2301 44.46C48.2301 44.46 48.2301 44.46 48.2201 44.46C48.2101 44.46 48.1901 44.46 48.1801 44.47C48.1501 44.47 48.1201 44.5 48.1101 44.53C48.1101 44.56 48.1201 44.58 48.1501 44.58C48.2101 44.58 48.2701 44.58 48.3301 44.56C48.3901 44.55 48.4601 44.52 48.5201 44.49C48.5701 44.47 48.6201 44.41 48.6001 44.35L48.6101 44.39Z" fill="#C9E9ED"/>
</g>
<g style="mix-blend-mode:screen">
<path d="M66.11 31.63C65.28 30.6 63.82 30.43 62.6 30.26C62.56 30.26 62.5001 30.33 62.5601 30.35C63.0801 30.51 63.6101 30.68 64.1201 30.88C64.6401 31.08 65.1701 31.35 65.5701 31.76C66.0601 32.27 66.1601 32.94 65.9301 33.6C65.7201 34.21 65.2201 34.51 64.7801 34.93C64.6801 35.02 64.7801 35.14 64.8901 35.09C66.1601 34.53 67.1201 32.86 66.1201 31.62L66.11 31.63Z" fill="#C9E9ED"/>
</g>
<g style="mix-blend-mode:screen">
<path d="M63.1801 35.76C63.1801 35.76 63.1001 35.84 63.1501 35.84C63.1901 35.84 63.2301 35.76 63.1801 35.76Z" fill="#C9E9ED"/>
</g>
<path opacity="0.69" d="M71.8901 42.88C71.9401 42.25 71.6501 41.61 70.8601 41.06C69.9701 40.44 68.8201 40.35 67.7401 40.4C66.1001 40.48 59.1301 41.63 60.7801 44.59C61.1401 45.23 61.8201 45.62 62.5001 45.9C64.7501 46.8 67.4101 46.62 69.5801 45.61C70.7101 45.08 71.8001 44 71.8801 42.89L71.8901 42.88Z" fill="#C1E8FB"/>
<path opacity="0.36" d="M70.8601 41.06C69.9701 40.44 68.8201 40.35 67.7401 40.4C66.1001 40.48 59.1301 41.63 60.7801 44.59C61.1401 45.23 61.8201 45.62 62.5001 45.9C64.7501 46.8 67.4101 46.62 69.5801 45.61C70.7101 45.08 71.8001 44 71.8801 42.89C71.9301 42.26 71.64 41.62 70.85 41.07L70.8601 41.06ZM69.7401 42.62C69.6901 43.37 68.9401 44.11 68.1801 44.47C66.7001 45.16 64.9001 45.28 63.3701 44.67C62.9101 44.49 62.4501 44.22 62.2001 43.78C61.0801 41.77 65.8201 40.99 66.9301 40.93C67.6601 40.89 68.4401 40.96 69.0501 41.38C69.5901 41.76 69.7801 42.19 69.7501 42.62H69.7401Z" fill="#5B9CBF"/>
<path opacity="0.51" d="M71.56 43.12C71.18 43.7 70.58 44.19 70 44.57C69.37 44.98 68.65 45.26 67.93 45.44C66.55 45.79 65.06 45.92 63.66 45.62C62.48 45.37 60.77 44.56 60.99 43.08C61.03 42.83 61.12 42.61 61.24 42.42C60.58 43 60.31 43.72 60.8 44.59C61.16 45.23 61.8401 45.62 62.5201 45.9C64.7701 46.8 67.43 46.62 69.6 45.61C70.73 45.08 71.8201 44 71.9001 42.89C71.9101 42.73 71.9 42.57 71.87 42.42C71.81 42.67 71.71 42.91 71.57 43.13L71.56 43.12Z" fill="#5B9CBF"/>
<g style="mix-blend-mode:screen" opacity="0.8">
<path d="M64.4001 42.4C64.3301 42.27 64.17 42.2 64.04 42.17C63.89 42.13 63.71 42.15 63.56 42.17C63.36 42.2 63.18 42.27 63 42.37C62.89 42.43 62.79 42.53 62.72 42.65C62.6 42.75 62.49 42.87 62.47 43.03C62.46 43.17 62.55 43.29 62.66 43.37C62.79 43.45 62.9401 43.49 63.0901 43.49C63.4201 43.49 63.74 43.36 64.01 43.19C64.25 43.04 64.5701 42.72 64.4001 42.41V42.4Z" fill="white"/>
</g>
<g opacity="0.8">
<g style="mix-blend-mode:screen">
<path d="M64.2401 43.72C64.2401 43.72 64.2401 43.69 64.2401 43.67C64.2401 43.67 64.2201 43.63 64.2101 43.61C64.2101 43.61 64.1901 43.59 64.1801 43.58C64.1701 43.58 64.1501 43.56 64.1401 43.56C64.1201 43.55 64.0901 43.54 64.0701 43.53C64.0701 43.53 64.0601 43.53 64.0501 43.53C64.0301 43.53 64.0101 43.53 63.9801 43.53C63.9601 43.53 63.9301 43.53 63.9101 43.53C63.8901 43.53 63.8601 43.54 63.8401 43.55C63.8401 43.55 63.7801 43.58 63.7701 43.59C63.7301 43.61 63.6901 43.66 63.6701 43.7C63.6501 43.74 63.6301 43.78 63.6301 43.82C63.6301 43.87 63.6301 43.89 63.6601 43.93C63.6601 43.94 63.6701 43.95 63.6901 43.96C63.6901 43.96 63.7101 43.98 63.7201 43.99C63.7701 44.02 63.8001 44.03 63.8501 44.03C63.8801 44.03 63.9101 44.03 63.9301 44.03H63.9501C63.9701 44.03 63.9901 44.02 64.0201 44.01C64.0201 44.01 64.0202 44.01 64.0302 44.01C64.0302 44.01 64.0401 44.01 64.0501 44.01C64.1001 43.99 64.1001 43.98 64.1401 43.95C64.1701 43.93 64.1901 43.91 64.2101 43.88C64.2101 43.86 64.2301 43.84 64.2401 43.83V43.8C64.2401 43.8 64.2401 43.78 64.2401 43.77V43.72Z" fill="white"/>
</g>
</g>
<g style="mix-blend-mode:screen" opacity="0.8">
<path d="M69.46 41.89C69.33 41.71 69.12 41.6 68.92 41.52C68.9 41.52 68.86 41.54 68.87 41.57C69.07 41.87 69.21 42.24 69.19 42.61C69.17 42.92 69.02 43.19 68.81 43.42C68.58 43.67 68.3 43.86 68.01 44.03C67.75 44.18 67.46 44.27 67.19 44.4C67.13 44.43 67.04 44.56 67.15 44.58C67.47 44.65 67.86 44.44 68.14 44.29C68.51 44.09 68.86 43.84 69.16 43.55C69.45 43.26 69.65 42.9 69.64 42.48C69.64 42.28 69.57 42.06 69.45 41.9L69.46 41.89Z" fill="white"/>
</g>
<path opacity="0.69" d="M73.31 38.35C73.33 38.11 73.22 37.87 72.92 37.66C72.59 37.43 72.16 37.39 71.75 37.41C71.14 37.44 68.51 37.87 69.13 38.99C69.26 39.23 69.5201 39.38 69.7801 39.48C70.6201 39.82 71.62 39.75 72.44 39.37C72.86 39.17 73.28 38.77 73.31 38.35Z" fill="#C1E8FB"/>
<path opacity="0.36" d="M72.92 37.66C72.59 37.43 72.16 37.39 71.75 37.41C71.14 37.44 68.51 37.87 69.13 38.99C69.26 39.23 69.5201 39.38 69.7801 39.48C70.6201 39.82 71.62 39.75 72.44 39.37C72.86 39.17 73.28 38.77 73.31 38.35C73.33 38.11 73.22 37.87 72.92 37.66ZM72.5 38.25C72.48 38.53 72.2 38.81 71.91 38.94C71.35 39.2 70.68 39.24 70.1 39.01C69.93 38.94 69.75 38.84 69.66 38.68C69.24 37.92 71.02 37.63 71.44 37.61C71.72 37.6 72.01 37.62 72.24 37.78C72.44 37.92 72.51 38.08 72.5 38.25Z" fill="#5B9CBF"/>
<path opacity="0.51" d="M73.18 38.44C73.04 38.66 72.81 38.84 72.59 38.98C72.35 39.13 72.08 39.24 71.81 39.31C71.29 39.44 70.73 39.49 70.2 39.38C69.76 39.29 69.11 38.98 69.2 38.43C69.21 38.34 69.25 38.26 69.29 38.18C69.04 38.4 68.94 38.67 69.12 39C69.25 39.24 69.51 39.39 69.77 39.49C70.61 39.83 71.61 39.76 72.43 39.38C72.85 39.18 73.27 38.78 73.3 38.36C73.3 38.3 73.3 38.24 73.29 38.18C73.27 38.27 73.23 38.36 73.18 38.45V38.44Z" fill="#5B9CBF"/>
<g style="mix-blend-mode:screen" opacity="0.8">
<path d="M70.5 38.17C70.5 38.17 70.41 38.1 70.36 38.08C70.3 38.06 70.24 38.08 70.18 38.08C70.11 38.09 70.04 38.12 69.97 38.15C69.93 38.17 69.89 38.21 69.87 38.26C69.83 38.3 69.78 38.34 69.78 38.4C69.78 38.45 69.81 38.5 69.85 38.53C69.9 38.56 69.95 38.57 70.01 38.57C70.13 38.57 70.25 38.52 70.36 38.46C70.45 38.4 70.57 38.28 70.51 38.17H70.5Z" fill="white"/>
</g>
<g opacity="0.8">
<g style="mix-blend-mode:screen">
<path d="M70.4299 38.67C70.4299 38.67 70.4299 38.66 70.4299 38.65C70.4299 38.65 70.4299 38.64 70.4199 38.63C70.4199 38.63 70.4199 38.63 70.4099 38.62C70.4099 38.62 70.41 38.62 70.4 38.62C70.4 38.62 70.3799 38.62 70.3699 38.61H70.3499C70.3499 38.61 70.3299 38.61 70.3199 38.61C70.3199 38.61 70.2999 38.61 70.2899 38.61C70.2899 38.61 70.2699 38.62 70.2599 38.62C70.2499 38.62 70.2299 38.65 70.2199 38.66C70.2199 38.67 70.21 38.69 70.2 38.71C70.2 38.73 70.2 38.74 70.21 38.75C70.21 38.75 70.21 38.75 70.21 38.76C70.21 38.76 70.2099 38.76 70.2199 38.77C70.2399 38.78 70.25 38.78 70.27 38.78C70.28 38.78 70.2899 38.78 70.2999 38.78H70.3199C70.3399 38.78 70.3399 38.77 70.3499 38.76C70.3599 38.76 70.3699 38.74 70.3699 38.73C70.3699 38.73 70.3699 38.72 70.3699 38.71V38.69L70.4299 38.67Z" fill="white"/>
</g>
</g>
<g style="mix-blend-mode:screen" opacity="0.8">
<path d="M72.4 37.98C72.35 37.91 72.27 37.87 72.2 37.84C72.2 37.84 72.18 37.84 72.18 37.86C72.26 37.97 72.31 38.11 72.3 38.25C72.3 38.37 72.24 38.47 72.16 38.55C72.07 38.64 71.97 38.72 71.86 38.78C71.76 38.84 71.65 38.87 71.55 38.92C71.53 38.93 71.5 38.98 71.54 38.99C71.66 39.02 71.81 38.94 71.91 38.88C72.05 38.8 72.18 38.71 72.29 38.6C72.4 38.49 72.47 38.36 72.47 38.2C72.47 38.12 72.44 38.04 72.4 37.98Z" fill="white"/>
</g>
</svg>
