<svg width="50" height="75" viewBox="0 0 50 75" fill="none" xmlns="http://www.w3.org/2000/svg">
<path d="M28.49 74.23L28.12 74.14C29.37 68.96 27.88 63.65 24.49 59.63C23.2 64.35 21.46 67.39 19.2 68.9C16.7 70.57 14.27 71.35 12 71.22C10.02 71.1 8.18001 70.28 6.69001 68.83C5.06001 67.25 3.90002 64.95 3.48002 62.51C3.06002 60.02 3.44 57.67 4.55 55.89C5.53 54.33 7.05 53.29 8.96 52.88C11.13 52.41 13.77 52.74 16.81 53.84C19.69 54.91 22.25 56.65 24.29 58.89C24.32 58.79 24.34 58.69 24.37 58.59C25.49 54.1 26.07 48.94 26.59 44.39C26.94 41.26 27.25 38.57 27.67 36.53L28.04 36.61C27.62 38.63 27.32 41.32 26.97 44.43C26.46 48.99 25.87 54.16 24.74 58.67C24.69 58.86 24.65 59.04 24.6 59.22C25.32 60.05 25.97 60.95 26.53 61.9C28.79 65.71 29.49 70.08 28.49 74.21V74.23ZM11.01 53.05C7.47002 53.05 5.71002 54.79 4.88002 56.1C2.67002 59.61 3.62 65.32 6.96 68.56C10.08 71.6 14.47 71.61 18.99 68.59C21.21 67.11 22.92 64.06 24.19 59.29C22.23 57.09 19.68 55.31 16.69 54.2C14.42 53.37 12.54 53.04 11.01 53.04V53.05Z" fill="black"/>
<path d="M38.2763 0.0734212L37.9137 1.33223L38.692 1.55645L39.0547 0.297638L38.2763 0.0734212Z" fill="black"/>
<path d="M49.35 19.47L38.69 0.190018L34.38 15.16L49.35 19.47Z" fill="#7DB343"/>
<path d="M38.69 0.190018L19.41 10.85L34.38 15.16L38.69 0.190018Z" fill="#F8B101"/>
<path d="M49.35 19.47L34.3801 15.16L27.91 37.61L49.35 19.47Z" fill="#00ACC2"/>
<path d="M19.41 10.85L27.91 37.61L34.38 15.16L19.41 10.85Z" fill="#E53935"/>
<path d="M19.488 10.6641L19.3579 11.1157L49.2907 19.7383L49.4208 19.2867L19.488 10.6641Z" fill="black"/>
<path d="M38.4762 0.157584L27.6971 37.576L28.1488 37.7061L38.9279 0.287694L38.4762 0.157584Z" fill="black"/>
<path d="M19.3091 10.5067L19.0848 11.285L20.3436 11.6477L20.5679 10.8693L19.3091 10.5067Z" fill="black"/>
<path d="M48.4124 18.8443L48.1882 19.6226L49.447 19.9853L49.6713 19.2069L48.4124 18.8443Z" fill="black"/>
<path d="M27.8153 36.3334L27.4526 37.5922L28.231 37.8164L28.5936 36.5576L27.8153 36.3334Z" fill="black"/>
<path d="M31.34 36.97L28.09 37.01L25.35 35.25L24.49 38.24L27.83 37.91L30.48 39.97L31.34 36.97Z" fill="#F8B101"/>
<path d="M28.39 55.78L25.14 55.81L22.41 54.05L21.54 57.04L24.88 56.71L27.5301 58.77L28.39 55.78Z" fill="#7DB343"/>
<path d="M16.06 73.7801L14.71 70.82L15.21 67.61L12.13 68.0301L13.79 70.95L12.98 74.2L16.06 73.7801Z" fill="#00ACC2"/>
<path d="M0.670044 57.15L3.71002 58.3L5.62003 60.94L7.51004 58.46L4.28003 57.56L2.56003 54.68L0.670044 57.15Z" fill="#E53935"/>
<path d="M28.5701 59.58L26.5401 62.13L23.4501 63.13L25.2201 65.69L27.0701 62.9L30.3401 62.14L28.5701 59.58Z" fill="#F8B101"/>
</svg>
