<svg width="61" height="34" viewBox="0 0 61 34" fill="none" xmlns="http://www.w3.org/2000/svg">
<path d="M48.0999 8.81H12.1599V24.55H48.0999V8.81Z" fill="#660B21"/>
<path d="M48.45 17.28C45.62 17.77 39.56 17.2899 30.68 19.2899C25.89 18.1799 15.83 17.5 12.74 17.28C10.14 17.09 0.579956 18.19 0.579956 18.19C0.579956 18.19 9.27998 31.76 19.29 33C26.36 33.88 27.93 32.52 30.6 32.38C32.11 32.61 34.86 34.15 41.91 33C51.86 31.38 60.62 18.19 60.62 18.19C60.62 18.19 51.03 16.84 48.46 17.28H48.45Z" fill="#E8194B"/>
<path d="M40.2 0.900039C35.62 0.0400389 30.77 3.39003 30.77 3.39003H30.54C30.54 3.39003 25.66 -0.0799611 21.11 0.900039C9.95996 3.31004 4.91996 15.48 0.579956 18.19C1.16996 19.07 4.08998 21.13 12.6 18.64C17.89 17.09 22.98 15.22 26.47 14.14C28.83 14.7 32.06 14.71 34.7 14.1C38.2 15.17 43.35 17.08 48.7 18.64C57.21 21.13 59.64 18.96 60.57 18.19C57.44 15.91 51.47 3.01003 40.19 0.890029L40.2 0.900039Z" fill="#E8194B"/>
</svg>
