<svg width="79" height="19" viewBox="0 0 79 19" fill="none" xmlns="http://www.w3.org/2000/svg">
<path d="M3.75001 17.09C3.75001 17.09 3.82001 17.07 3.84001 17.04C3.88001 16.99 3.86001 16.91 3.81001 16.87C3.02001 16.33 2.32001 16.13 1.13001 16.09C1.06001 16.09 1.01001 16.14 1.01001 16.21C1.01001 16.28 1.06001 16.33 1.13001 16.33C2.28001 16.36 2.92001 16.55 3.68001 17.06C3.70001 17.08 3.73001 17.08 3.76001 17.08L3.75001 17.09Z" fill="#DB5276"/>
<path d="M1.23011 17.62C1.23011 17.62 1.23011 17.62 1.24011 17.62C2.01011 17.46 2.81011 17.36 3.59011 17.31C3.66011 17.31 3.71011 17.25 3.70011 17.18C3.70011 17.11 3.64011 17.06 3.57011 17.07C2.77011 17.11 1.97011 17.22 1.18011 17.38C1.11011 17.39 1.07011 17.46 1.09011 17.52C1.10011 17.58 1.16011 17.62 1.22011 17.62H1.23011Z" fill="#A52B51"/>
<path d="M1.12003 16.68C1.12003 16.68 1.12003 16.68 1.13003 16.68C1.92003 16.76 2.70003 16.9 3.47003 17.09C3.53003 17.11 3.60003 17.07 3.62003 17C3.64003 16.94 3.60003 16.87 3.53003 16.85C2.75003 16.65 1.96003 16.51 1.16003 16.43C1.09003 16.43 1.03003 16.47 1.03003 16.54C1.03003 16.6 1.07003 16.66 1.13003 16.67L1.12003 16.68Z" fill="#A52B51"/>
<path d="M3.93999 17.26C3.93999 17.26 4.02999 17.22 4.03999 17.17C4.05999 17.11 4.01999 17.04 3.94999 17.02C2.99999 16.77 1.98999 16.73 1.02999 16.9C0.959986 16.91 0.919987 16.97 0.929987 17.04C0.939987 17.11 1.00999 17.15 1.06999 17.14C1.99999 16.98 2.96999 17.02 3.88999 17.26C3.89999 17.26 3.91999 17.26 3.92999 17.26H3.93999Z" fill="#DB5276"/>
<path d="M1.75997 18.12C1.75997 18.12 1.76997 18.12 1.77997 18.12C2.43997 17.94 3.05997 17.67 3.63997 17.32C3.69997 17.29 3.70997 17.21 3.67997 17.15C3.64997 17.09 3.56997 17.08 3.50997 17.11C2.94997 17.45 2.34997 17.71 1.71997 17.88C1.65997 17.9 1.61997 17.96 1.63997 18.03C1.65997 18.09 1.70997 18.12 1.76997 18.12H1.75997Z" fill="#DB5276"/>
<path d="M4.78988 16.98C4.78988 17.12 4.69987 17.24 4.53988 17.32C4.41988 17.38 4.25987 17.42 4.08987 17.43C3.68987 17.43 3.36987 17.25 3.36987 17.02C3.36987 17 3.36987 16.98 3.36987 16.96C3.40987 16.75 3.70987 16.58 4.06987 16.57C4.46987 16.57 4.78988 16.75 4.78988 16.98Z" fill="#DB5276"/>
<path d="M4.53988 17.32C4.41988 17.38 4.25987 17.42 4.08987 17.43C3.68987 17.43 3.36987 17.25 3.36987 17.02C3.36987 17 3.36987 16.98 3.36987 16.96C4.14987 17.23 4.36987 16.94 4.36987 16.94L4.52987 17.32H4.53988Z" fill="#A52B51"/>
<path d="M75.8798 17.05C75.8798 17.05 75.8098 17.05 75.7798 17.03C75.7298 16.99 75.7098 16.92 75.7498 16.86C76.2998 16.08 76.8898 15.64 77.9898 15.2C78.0498 15.17 78.1198 15.2 78.1498 15.27C78.1698 15.33 78.1498 15.4 78.0798 15.43C77.0198 15.86 76.4798 16.26 75.9498 17.01C75.9298 17.03 75.9098 17.05 75.8798 17.06V17.05Z" fill="#DB5276"/>
<path d="M78.4298 16.67C78.4298 16.67 78.4298 16.67 78.4198 16.67C77.6398 16.79 76.8598 16.97 76.1098 17.21C76.0498 17.23 75.9798 17.19 75.9598 17.13C75.9398 17.07 75.9798 17 76.0398 16.98C76.7998 16.74 77.5898 16.56 78.3898 16.44C78.4598 16.43 78.5198 16.48 78.5298 16.54C78.5298 16.6 78.4998 16.66 78.4398 16.67H78.4298Z" fill="#A52B51"/>
<path d="M78.1998 15.75C78.1998 15.75 78.1998 15.75 78.1898 15.75C77.4798 16.1 76.7898 16.5 76.1398 16.95C76.0898 16.99 76.0098 16.97 75.9698 16.92C75.9298 16.87 75.9498 16.79 75.9998 16.75C76.6598 16.29 77.3598 15.88 78.0798 15.53C78.1398 15.5 78.2098 15.53 78.2398 15.59C78.2698 15.65 78.2398 15.71 78.1998 15.75Z" fill="#A52B51"/>
<path d="M75.7499 17.28C75.7499 17.28 75.6499 17.28 75.6199 17.23C75.5799 17.18 75.5899 17.1 75.6499 17.06C76.4499 16.5 77.3799 16.1 78.3399 15.92C78.4099 15.91 78.4699 15.95 78.4799 16.02C78.4899 16.09 78.4399 16.15 78.3799 16.16C77.4499 16.33 76.5499 16.71 75.7799 17.25C75.7699 17.25 75.7499 17.26 75.7399 17.27L75.7499 17.28Z" fill="#DB5276"/>
<path d="M78.1 17.33C78.1 17.33 78.09 17.33 78.08 17.33C77.4 17.39 76.72 17.36 76.06 17.23C75.99 17.22 75.95 17.15 75.97 17.09C75.98 17.02 76.05 16.98 76.11 16.99C76.75 17.12 77.41 17.15 78.06 17.09C78.13 17.09 78.19 17.13 78.19 17.2C78.19 17.26 78.16 17.31 78.1 17.33Z" fill="#DB5276"/>
<path d="M76.2099 17.01C76.1599 17.2 75.9499 17.39 75.6699 17.48C75.4699 17.55 75.2699 17.56 75.1099 17.52C74.9799 17.48 74.8899 17.41 74.8499 17.31C74.7699 17.08 75.0099 16.8 75.3799 16.67C75.7099 16.56 76.0399 16.6 76.1599 16.78C76.1699 16.79 76.1799 16.81 76.1899 16.83C76.1899 16.83 76.1899 16.84 76.1999 16.85C76.2199 16.9 76.2199 16.96 76.1999 17.02L76.2099 17.01Z" fill="#DB5276"/>
<path d="M14.7301 2.68C14.7301 2.68 14.8001 2.68 14.8301 2.65C14.8801 2.61 14.8901 2.53002 14.8501 2.48002C14.2501 1.74002 13.6301 1.35002 12.5001 0.980022C12.4401 0.960022 12.3701 0.990009 12.3501 1.06001C12.3301 1.12001 12.3601 1.19 12.4301 1.21C13.5201 1.57 14.0901 1.93002 14.6601 2.63002C14.6801 2.65002 14.7001 2.67002 14.7301 2.67002V2.68Z" fill="#DB5276"/>
<path d="M12.1601 2.48001C12.1601 2.48001 12.1601 2.48001 12.1701 2.48001C12.9601 2.54001 13.7501 2.67001 14.5101 2.85001C14.5701 2.87001 14.6401 2.83001 14.6601 2.76001C14.6801 2.70001 14.6401 2.62999 14.5701 2.60999C13.7901 2.41999 12.9901 2.30001 12.1901 2.23001C12.1201 2.23001 12.0701 2.27 12.0601 2.34C12.0601 2.4 12.1001 2.46 12.1601 2.47V2.48001Z" fill="#A52B51"/>
<path d="M12.3201 1.54997C12.3201 1.54997 12.3201 1.54997 12.3301 1.54997C13.0601 1.84997 13.7801 2.19997 14.4601 2.60997C14.5201 2.64997 14.5901 2.62999 14.6301 2.56999C14.6601 2.50999 14.6501 2.43998 14.5901 2.39998C13.9001 1.98998 13.1801 1.62997 12.4301 1.32997C12.3701 1.29997 12.3001 1.32998 12.2701 1.39998C12.2501 1.45998 12.2701 1.51997 12.3201 1.54997Z" fill="#A52B51"/>
<path d="M14.8701 2.89999C14.8701 2.89999 14.9701 2.89 15.0001 2.84C15.0301 2.78 15.0201 2.71001 14.9601 2.67001C14.1201 2.16001 13.1701 1.84001 12.1901 1.73001C12.1201 1.73001 12.0601 1.77 12.0601 1.84C12.0601 1.91 12.1101 1.97 12.1701 1.97C13.1101 2.08 14.0301 2.39 14.8401 2.88C14.8501 2.88 14.8701 2.88999 14.8801 2.89999H14.8701Z" fill="#DB5276"/>
<path d="M12.5302 3.12001C12.5302 3.12001 12.5402 3.12001 12.5502 3.12001C13.2302 3.14001 13.9002 3.05002 14.5602 2.88002C14.6202 2.86002 14.6602 2.80002 14.6402 2.73002C14.6202 2.67002 14.5602 2.63001 14.4902 2.65001C13.8602 2.82001 13.2102 2.90002 12.5502 2.88002C12.4802 2.88002 12.4302 2.93001 12.4302 3.00001C12.4302 3.06001 12.4702 3.11001 12.5302 3.12001Z" fill="#DB5276"/>
<path d="M14.3799 2.5C14.3199 2.73 14.5799 3.00001 14.9599 3.10001C15.3399 3.20001 15.6999 3.1 15.7599 2.87C15.8199 2.64 15.5599 2.36999 15.1799 2.26999C14.7999 2.16999 14.4399 2.27 14.3799 2.5Z" fill="#DB5276"/>
<path d="M12.2999 7.64003C12.2999 7.64003 12.3699 7.64 12.3999 7.61C12.4499 7.57 12.4599 7.49001 12.4199 7.44001C11.8099 6.70001 11.1899 6.31002 10.0599 5.95002C9.99989 5.93002 9.92989 5.96001 9.90989 6.03001C9.88989 6.09001 9.91989 6.16 9.98989 6.18C11.0799 6.53 11.6499 6.89001 12.2299 7.59001C12.2499 7.61001 12.2699 7.63002 12.2999 7.63002V7.64003Z" fill="#DB5276"/>
<path d="M9.72988 7.45999C9.72988 7.45999 9.72988 7.45999 9.73988 7.45999C10.5299 7.51999 11.3199 7.64001 12.0899 7.82001C12.1499 7.84001 12.2199 7.79001 12.2299 7.73001C12.2499 7.67001 12.1999 7.6 12.1399 7.59C11.3599 7.41 10.5599 7.29001 9.75988 7.23001C9.68988 7.23001 9.63988 7.27 9.62988 7.34C9.62988 7.4 9.66988 7.46 9.72988 7.47V7.45999Z" fill="#A52B51"/>
<path d="M9.87976 6.51998C9.87976 6.51998 9.87976 6.51998 9.88976 6.51998C10.6198 6.80998 11.3398 7.15999 12.0198 7.55999C12.0798 7.59999 12.1498 7.56998 12.1798 7.51998C12.2098 7.45998 12.1898 7.38998 12.1398 7.35998C11.4498 6.94998 10.7198 6.59998 9.97976 6.29998C9.91976 6.27998 9.84976 6.29999 9.81976 6.36999C9.79976 6.42999 9.81976 6.48998 9.87976 6.51998Z" fill="#A52B51"/>
<path d="M12.4399 7.85999C12.4399 7.85999 12.5399 7.84999 12.5599 7.79999C12.5899 7.73999 12.5799 7.67 12.5199 7.63C11.6799 7.13 10.7199 6.81001 9.74987 6.70001C9.67987 6.70001 9.61987 6.74 9.61987 6.81C9.61987 6.88 9.66987 6.94 9.72987 6.94C10.6699 7.04 11.5899 7.34999 12.3999 7.82999C12.4099 7.82999 12.4299 7.84001 12.4399 7.85001V7.85999Z" fill="#DB5276"/>
<path d="M10.1098 8.08998C10.1098 8.08998 10.1198 8.08998 10.1298 8.08998C10.8098 8.09998 11.4798 8.01997 12.1398 7.82997C12.1998 7.80997 12.2398 7.74998 12.2198 7.67998C12.1998 7.61998 12.1398 7.57999 12.0698 7.59999C11.4398 7.76999 10.7898 7.85999 10.1298 7.84999C10.0598 7.84999 10.0098 7.89999 10.0098 7.96999C10.0098 8.02999 10.0498 8.07998 10.1098 8.08998Z" fill="#DB5276"/>
<path d="M11.9598 7.47001C11.8998 7.70001 12.1598 7.97002 12.5398 8.07002C12.9198 8.17002 13.2798 8.07 13.3398 7.83C13.3998 7.6 13.1398 7.33002 12.7598 7.23002C12.3798 7.13002 12.0198 7.23001 11.9598 7.47001Z" fill="#DB5276"/>
<path d="M6.89985 12.3C6.89985 12.3 6.96985 12.31 6.99985 12.3C7.05985 12.27 7.07985 12.19 7.04985 12.14C6.58985 11.31 6.04985 10.81 4.99985 10.25C4.93985 10.22 4.86985 10.25 4.83985 10.3C4.80985 10.36 4.83985 10.43 4.88985 10.46C5.89985 11 6.39985 11.45 6.83985 12.25C6.84985 12.28 6.87985 12.29 6.89985 12.3Z" fill="#DB5276"/>
<path d="M4.40996 11.65C4.40996 11.65 4.40996 11.65 4.41996 11.65C5.17996 11.85 5.93996 12.11 6.65996 12.43C6.71996 12.46 6.78996 12.43 6.81996 12.37C6.84996 12.31 6.81996 12.24 6.75996 12.21C6.02996 11.89 5.25996 11.63 4.47996 11.42C4.41996 11.4 4.34997 11.44 4.32997 11.51C4.30997 11.57 4.34997 11.63 4.39997 11.65H4.40996Z" fill="#A52B51"/>
<path d="M4.72998 10.76C4.72998 10.76 4.72998 10.76 4.73998 10.76C5.40998 11.18 6.04998 11.66 6.64998 12.17C6.69998 12.22 6.77998 12.21 6.81998 12.16C6.85998 12.11 6.85998 12.03 6.80998 11.99C6.19998 11.47 5.54998 10.98 4.86998 10.56C4.80998 10.52 4.73998 10.54 4.69998 10.6C4.66998 10.65 4.67998 10.72 4.72998 10.76Z" fill="#A52B51"/>
<path d="M6.99999 12.54C6.99999 12.54 7.09999 12.54 7.12999 12.51C7.16999 12.46 7.16999 12.38 7.11999 12.34C6.37999 11.69 5.49999 11.21 4.55999 10.93C4.49999 10.91 4.42999 10.95 4.40999 11.01C4.38999 11.07 4.42999 11.14 4.48999 11.16C5.39999 11.43 6.24999 11.9 6.95999 12.52C6.96999 12.53 6.97999 12.54 6.99999 12.54Z" fill="#DB5276"/>
<path d="M4.66003 12.34C4.66003 12.34 4.67003 12.34 4.68003 12.34C5.35003 12.47 6.02003 12.51 6.70003 12.45C6.77003 12.45 6.82003 12.39 6.81003 12.32C6.81003 12.25 6.75003 12.2 6.68003 12.21C6.03003 12.27 5.37003 12.23 4.73003 12.1C4.66003 12.09 4.60003 12.13 4.59003 12.19C4.58003 12.25 4.61003 12.31 4.67003 12.33L4.66003 12.34Z" fill="#DB5276"/>
<path d="M6.5899 12.06C6.4899 12.28 6.6899 12.59 7.0499 12.75C7.4099 12.91 7.7799 12.88 7.8799 12.66C7.9799 12.44 7.7799 12.13 7.4199 11.97C7.0599 11.8 6.6899 11.84 6.5899 12.06Z" fill="#DB5276"/>
<path d="M39.14 16.27C37.32 16 35.39 16.15 33.23 17.05C33.08 17.11 32.94 17.17 32.79 17.22C32.18 15.24 31.8 13.44 31.6 11.82C31.16 8.27001 31.57 5.56999 32.2 3.60999C33.63 3.63999 35.04 3.43001 36.8 3.14001C37.03 3.10001 37.26 3.05999 37.5 3.01999C37.8 2.96999 38.11 2.92 38.41 2.87C38.16 5.53 38.09 9.92002 39.14 16.27Z" fill="#96C1FF"/>
<path d="M32.79 17.22C29.72 18.4 26.96 18.37 23.73 16.39C23.28 10.59 25.56 5.48 27.27 2.53C27.46 2.6 27.64 2.67001 27.84 2.73001C28.26 2.88001 28.71 3.02999 29.18 3.14999C30.27 3.43999 31.24 3.58001 32.21 3.60001C31.58 5.56001 31.17 8.26 31.61 11.81C31.81 13.43 32.19 15.23 32.8 17.21L32.79 17.22Z" fill="#F9C280"/>
<path d="M38.4101 2.86999C38.1601 5.52999 38.0901 9.91001 39.1401 16.26C40.1901 16.42 41.2101 16.72 42.2001 17.12C43.3901 17.59 44.9701 17.93 46.7201 18.08C46.0501 13.39 44.9701 6.71 44.2401 2.25C42.7201 2.23 40.5701 2.51999 38.4101 2.86999Z" fill="#DB5276"/>
<path d="M27.2702 2.54C25.3702 1.83 23.8702 1.18 21.9102 2.1C21.4702 2.31 21.0202 2.47 20.5602 2.6C20.6902 3.32 20.6802 4.29999 20.2702 5.58999C19.4402 8.19999 12.7002 15.39 10.4502 17.73C11.8102 17.62 13.2502 17.29 14.5002 16.63C17.0602 15.28 19.5602 13.64 23.1902 16.06C23.3702 16.18 23.5502 16.29 23.7302 16.4C23.2802 10.6 25.5602 5.48 27.2702 2.54Z" fill="#277C7C"/>
<path d="M20.5601 2.60001C18.3801 3.23001 16.2301 3.01001 15.6401 2.60001C15.6401 2.60001 13.1501 9.86 9.66009 11.22C6.95009 12.27 5.05009 15.52 4.34009 16.91C4.40009 17.04 4.46009 17.18 4.52009 17.32C4.96009 17.18 5.71009 17.08 6.74009 17.41C7.66009 17.7 9.01009 17.84 10.4501 17.73C12.6901 15.39 19.4401 8.2 20.2701 5.59C20.6801 4.3 20.6901 3.32001 20.5601 2.60001Z" fill="#DB5276"/>
<path d="M75.4701 17.04C74.7201 16.06 72.6001 13.37 71.0401 12.28C69.1201 10.93 66.2001 8.15 66.4101 4.66C66.4101 4.66 63.6301 4.4 61.5801 3.88C62.4701 7.27 64.3501 12.36 68.3001 18.34C70.6601 18.55 73.2001 18.28 75.3501 17.54C75.3901 17.37 75.4301 17.21 75.4701 17.04Z" fill="#DB5276"/>
<path d="M53.96 17.42C53.89 17.44 53.81 17.46 53.74 17.48C51.46 18.12 48.96 18.26 46.73 18.08C46.06 13.39 44.98 6.71 44.25 2.25C44.88 2.25 45.41 2.32001 45.77 2.45001C46.11 2.57001 46.45 2.75001 46.84 2.92001C47.45 3.20001 48.15 3.49 48.99 3.56C49.51 6.41 50.54 10.2 52.58 14.62C53 15.53 53.46 16.46 53.97 17.41L53.96 17.42Z" fill="#277C7C"/>
<path d="M68.3 18.34C64.34 12.36 62.47 7.27001 61.58 3.88C61.48 3.85 61.38 3.82999 61.29 3.79999C59.83 3.39999 57.05 2.61001 54.52 2.60001C55.31 5.79001 57.2 10.74 61.74 16.59C62.55 16.73 63.34 16.97 64.15 17.33C65.36 17.87 66.8 18.2 68.32 18.34H68.3Z" fill="#96C1FF"/>
<path d="M61.73 16.6C59.37 16.18 56.91 16.6 53.96 17.42C53.45 16.47 52.99 15.53 52.57 14.63C50.53 10.22 49.5 6.43001 48.98 3.57001C49.72 3.63001 50.58 3.52001 51.6 3.10001C52.11 2.89001 52.68 2.76 53.27 2.69C53.67 2.64 54.09 2.62 54.51 2.62C55.3 5.81 57.19 10.76 61.73 16.61V16.6Z" fill="#F9C280"/>
<path d="M75.4599 17.07C75.4199 17.23 75.3899 17.38 75.3499 17.54C73.2099 18.28 70.6699 18.55 68.2999 18.34C68.1799 18.34 68.0599 18.32 67.9499 18.3C66.5599 18.15 65.2499 17.83 64.1399 17.33C63.3399 16.97 62.5399 16.73 61.7299 16.59C61.5899 16.57 61.4499 16.54 61.3199 16.52C61.3199 16.52 61.3099 16.52 61.2999 16.52C59.0699 16.22 56.7299 16.65 53.9599 17.41C53.9499 17.41 53.9299 17.41 53.9199 17.42C53.8599 17.44 53.7999 17.45 53.7399 17.47C51.4599 18.11 48.9599 18.25 46.7299 18.07C46.6899 18.07 46.6599 18.07 46.6199 18.07C44.9099 17.92 43.3699 17.58 42.2099 17.12C41.2099 16.73 40.1999 16.42 39.1499 16.26C39.1499 16.26 39.1499 16.26 39.1399 16.26C39.1399 16.26 39.1199 16.26 39.1099 16.26C37.3099 15.99 35.3899 16.16 33.2399 17.05C33.0999 17.11 32.9499 17.17 32.8099 17.22H32.7899C29.7299 18.39 26.9799 18.36 23.7399 16.39C23.5599 16.28 23.3799 16.17 23.1999 16.05C19.5699 13.63 17.0799 15.27 14.5099 16.62C13.4399 17.18 12.2199 17.51 11.0399 17.66C10.8499 17.68 10.6599 17.7 10.4699 17.72C9.02988 17.84 7.66987 17.7 6.74987 17.4C5.71987 17.07 4.97987 17.17 4.52987 17.31C4.47987 17.18 4.42987 17.06 4.36987 16.94C4.79987 16.79 5.56987 16.65 6.66987 17C7.58987 17.29 8.93987 17.43 10.3899 17.32C10.5599 17.31 10.7299 17.29 10.8999 17.27C12.1099 17.13 13.3499 16.8 14.4399 16.22C17.0099 14.86 19.4999 13.23 23.1299 15.65C23.3099 15.77 23.4899 15.88 23.6699 15.99C23.6899 16 23.7199 16.02 23.7399 16.03C26.9299 17.95 29.6399 17.99 32.6699 16.84C32.6899 16.84 32.7199 16.83 32.7399 16.82C32.8799 16.76 33.0299 16.71 33.1799 16.65C35.3399 15.75 37.2799 15.59 39.0899 15.86C39.0899 15.86 39.1099 15.86 39.1199 15.86C40.1599 16.02 41.1699 16.32 42.1499 16.71C43.3399 17.18 44.9299 17.52 46.6699 17.67C48.9099 17.86 51.4099 17.71 53.6799 17.07C53.7199 17.06 53.7599 17.05 53.7999 17.04C53.8299 17.03 53.8699 17.02 53.8999 17.01C56.7199 16.23 59.0999 15.81 61.3699 16.14C61.4699 16.15 61.5699 16.17 61.6699 16.19C62.4799 16.33 63.2699 16.57 64.0699 16.93C65.2199 17.44 66.5899 17.77 68.0299 17.92C68.0999 17.92 68.1699 17.93 68.2399 17.94C70.6799 18.16 73.2999 17.86 75.4799 17.07H75.4599Z" fill="#19605E"/>
<path d="M46.6701 17.72L46.6201 18.07C44.9101 17.92 43.3701 17.58 42.2101 17.12C41.2101 16.73 40.2001 16.42 39.1501 16.26C39.1401 16.26 39.1201 16.26 39.1101 16.26V15.87C40.1401 16.03 41.1501 16.33 42.1301 16.72C43.3201 17.19 44.9101 17.53 46.6501 17.68L46.6701 17.72Z" fill="#A52B51"/>
<path d="M75.4599 17.07C75.4199 17.23 75.3899 17.38 75.3499 17.54C73.2099 18.28 70.6699 18.55 68.2999 18.34C68.1799 18.34 68.0599 18.32 67.9399 18.3C67.9799 18.11 68.0099 17.97 68.0099 17.92C68.0799 17.92 68.1499 17.93 68.2199 17.94C70.6599 18.16 73.2799 17.86 75.4599 17.07Z" fill="#A52B51"/>
<path d="M11.0301 17.67C10.8401 17.69 10.6501 17.71 10.4601 17.73C9.02011 17.85 7.66011 17.71 6.74011 17.41C5.71011 17.08 4.97011 17.18 4.52011 17.32C4.47011 17.19 4.42011 17.07 4.36011 16.95C4.79011 16.8 5.56011 16.66 6.66011 17.01C7.58011 17.3 8.93011 17.44 10.3801 17.33C10.5501 17.32 10.7201 17.3 10.8901 17.28H10.9101L11.0301 17.68V17.67Z" fill="#A52B51"/>
<path d="M32.79 17.22C29.72 18.4 26.96 18.37 23.72 16.39V16.03C26.91 17.95 29.62 17.99 32.65 16.84L32.8 17.22H32.79Z" fill="#ED9B43"/>
<path d="M61.35 16.15L61.31 16.53C59.07 16.23 56.73 16.65 53.96 17.41C53.95 17.41 53.93 17.41 53.92 17.42L53.78 17.04C53.78 17.04 53.85 17.02 53.88 17.01C56.7 16.23 59.08 15.81 61.35 16.14V16.15Z" fill="#ED9B43"/>
<path d="M68.01 17.92L67.94 18.3C66.55 18.15 65.24 17.83 64.13 17.33C63.33 16.97 62.53 16.73 61.72 16.59C61.58 16.57 61.44 16.54 61.31 16.52C61.31 16.52 61.3 16.52 61.29 16.52L61.35 16.14C61.45 16.15 61.55 16.17 61.65 16.19C62.46 16.33 63.25 16.57 64.05 16.93C65.2 17.44 66.57 17.77 68.01 17.92Z" fill="#6BA4E8"/>
<path d="M39.1299 16.26C39.1299 16.26 39.1099 16.26 39.0999 16.26C37.2999 15.99 35.3799 16.16 33.2299 17.05C33.0899 17.11 32.9399 17.17 32.7999 17.22H32.7799L32.6499 16.84C32.6499 16.84 32.6999 16.83 32.7199 16.82C32.8599 16.76 33.0099 16.71 33.1599 16.65C35.3199 15.75 37.2599 15.59 39.0699 15.86C39.0699 15.86 39.0899 15.86 39.0999 15.86L39.1399 16.26H39.1299Z" fill="#6BA4E8"/>
<path d="M67.1701 5.01001C67.1701 5.01001 67.1001 5 67.0801 4.97C67.0401 4.92 67.0401 4.83999 67.0901 4.79999C67.8201 4.17999 68.5001 3.91001 69.6701 3.76001C69.7301 3.76001 69.8001 3.79999 69.8101 3.85999C69.8101 3.92999 69.7701 3.99 69.7101 4C68.5701 4.15 67.9501 4.39999 67.2501 4.98999C67.2301 5.00999 67.2001 5.01999 67.1701 5.01999V5.01001Z" fill="#DB5276"/>
<path d="M69.73 5.29001C69.73 5.29001 69.73 5.29001 69.72 5.29001C68.93 5.21001 68.13 5.18001 67.35 5.22001C67.28 5.22001 67.23 5.16999 67.22 5.10999C67.22 5.03999 67.27 4.99002 67.33 4.98002C68.13 4.94002 68.94 4.96999 69.74 5.04999C69.81 5.04999 69.85 5.12 69.85 5.18C69.85 5.24 69.79 5.29001 69.73 5.29001Z" fill="#A52B51"/>
<path d="M69.7501 4.34C69.7501 4.34 69.7501 4.34 69.7401 4.34C68.9701 4.5 68.2001 4.71002 67.4601 4.98002C67.4001 5.01002 67.3301 4.98001 67.3101 4.91001C67.2901 4.85001 67.3101 4.78001 67.3801 4.76001C68.1301 4.48001 68.9101 4.25999 69.7001 4.10999C69.7701 4.09999 69.8301 4.14002 69.8401 4.20002C69.8501 4.26002 69.8201 4.32 69.7601 4.34H69.7501Z" fill="#A52B51"/>
<path d="M66.9902 5.20003C66.9902 5.20003 66.9002 5.17001 66.8802 5.12001C66.8602 5.06001 66.8802 4.99 66.9502 4.96C67.8702 4.62 68.8702 4.47002 69.8402 4.54002C69.9102 4.54002 69.9602 4.60003 69.9502 4.67003C69.9502 4.74003 69.8802 4.79001 69.8202 4.78001C68.8802 4.71001 67.9102 4.85001 67.0302 5.18001C67.0202 5.18001 67.0002 5.18001 66.9902 5.18001V5.20003Z" fill="#DB5276"/>
<path d="M69.2502 5.83999C69.2502 5.83999 69.2402 5.83999 69.2302 5.83999C68.5602 5.72999 67.9102 5.52 67.3002 5.23C67.2402 5.2 67.2202 5.13 67.2402 5.07C67.2702 5.01 67.3402 4.99 67.4002 5.01C67.9902 5.29 68.6202 5.49 69.2602 5.6C69.3302 5.61 69.3702 5.66998 69.3602 5.73998C69.3602 5.79998 69.3002 5.83999 69.2402 5.83999H69.2502Z" fill="#DB5276"/>
<path d="M67.5401 4.90001C67.5601 5.14001 67.2601 5.36003 66.8601 5.39003C66.4601 5.42003 66.1301 5.25002 66.1201 5.01002C66.1001 4.77002 66.4001 4.55 66.8001 4.52C67.1901 4.49 67.5301 4.66001 67.5401 4.90001Z" fill="#DB5276"/>
<path d="M72.96 13.25C72.96 13.25 72.89 13.25 72.86 13.22C72.81 13.18 72.81 13.1 72.86 13.05C73.5 12.34 74.13 11.98 75.28 11.67C75.34 11.65 75.41 11.69 75.43 11.75C75.45 11.81 75.41 11.88 75.34 11.9C74.23 12.2 73.65 12.53 73.04 13.21C73.02 13.23 72.99 13.24 72.97 13.25H72.96Z" fill="#DB5276"/>
<path d="M75.5401 13.18C75.5401 13.18 75.5401 13.18 75.5301 13.18C74.7401 13.2 73.9501 13.29 73.1701 13.43C73.1001 13.45 73.0401 13.4 73.0301 13.33C73.0201 13.26 73.0601 13.2 73.1301 13.19C73.9201 13.04 74.7201 12.96 75.5301 12.94C75.6001 12.94 75.6501 12.99 75.6501 13.06C75.6501 13.12 75.6101 13.17 75.5501 13.18H75.5401Z" fill="#A52B51"/>
<path d="M75.4301 12.24C75.4301 12.24 75.4301 12.24 75.4201 12.24C74.6701 12.5 73.9401 12.82 73.2401 13.19C73.1801 13.23 73.1101 13.19 73.0801 13.14C73.0501 13.08 73.0801 13.01 73.1301 12.98C73.8401 12.61 74.5801 12.28 75.3401 12.02C75.4001 12 75.4701 12.03 75.4901 12.09C75.5101 12.15 75.4901 12.21 75.4301 12.24Z" fill="#A52B51"/>
<path d="M72.8099 13.46C72.8099 13.46 72.7099 13.44 72.6899 13.4C72.6599 13.34 72.6899 13.27 72.7399 13.24C73.5999 12.78 74.5699 12.5 75.5499 12.44C75.6199 12.44 75.6699 12.49 75.6799 12.55C75.6799 12.62 75.6299 12.67 75.5699 12.68C74.6299 12.74 73.6899 13 72.8599 13.45C72.8499 13.45 72.8299 13.46 72.8199 13.46H72.8099Z" fill="#DB5276"/>
<path d="M75.1301 13.8C75.1301 13.8 75.1201 13.8 75.1101 13.8C74.4301 13.78 73.7601 13.66 73.1201 13.45C73.0601 13.43 73.0201 13.36 73.0401 13.3C73.0601 13.24 73.1301 13.2 73.1901 13.22C73.8101 13.42 74.4601 13.54 75.1201 13.55C75.1901 13.55 75.2401 13.61 75.2401 13.67C75.2401 13.73 75.1901 13.78 75.1401 13.79L75.1301 13.8Z" fill="#DB5276"/>
<path d="M73.31 13.09C73.36 13.32 73.09 13.58 72.7 13.66C72.31 13.74 71.96 13.62 71.91 13.39C71.86 13.16 72.13 12.9 72.52 12.82C72.91 12.74 73.26 12.86 73.31 13.09Z" fill="#DB5276"/>
<path d="M68.6499 9.23002C68.6499 9.23002 68.58 9.23003 68.55 9.20003C68.5 9.16003 68.5 9.08001 68.55 9.03001C69.19 8.32001 69.8199 7.96001 70.9699 7.65001C71.0299 7.63001 71.1 7.67002 71.12 7.73002C71.14 7.79002 71.0999 7.86002 71.0299 7.88002C69.9199 8.18002 69.34 8.51002 68.73 9.19002C68.71 9.21002 68.68 9.22002 68.66 9.23002H68.6499Z" fill="#DB5276"/>
<path d="M71.23 9.16C71.23 9.16 71.23 9.16 71.22 9.16C70.43 9.18 69.64 9.27 68.86 9.41C68.79 9.43 68.73 9.38 68.72 9.31C68.71 9.24 68.75 9.18001 68.82 9.17001C69.61 9.02001 70.41 8.94001 71.22 8.92001C71.29 8.92001 71.34 8.97001 71.34 9.04001C71.34 9.10001 71.3 9.15 71.24 9.16H71.23Z" fill="#A52B51"/>
<path d="M71.12 8.22001C71.12 8.22001 71.12 8.22001 71.11 8.22001C70.36 8.48001 69.63 8.80002 68.93 9.17002C68.87 9.21002 68.8 9.17 68.77 9.12C68.74 9.06 68.77 8.99 68.82 8.96C69.53 8.59 70.27 8.26001 71.03 8.00001C71.09 7.98001 71.16 8.01001 71.18 8.07001C71.2 8.13001 71.18 8.19001 71.12 8.22001Z" fill="#A52B51"/>
<path d="M68.4999 9.44C68.4999 9.44 68.3999 9.42 68.3799 9.38C68.3499 9.32 68.3799 9.25 68.4299 9.22C69.2899 8.76 70.2599 8.48001 71.2399 8.42001C71.3099 8.42001 71.3599 8.47 71.3699 8.53C71.3699 8.6 71.3199 8.65 71.2599 8.66C70.3199 8.72 69.3799 8.97999 68.5499 9.42999C68.5399 9.42999 68.5199 9.44 68.5099 9.44H68.4999Z" fill="#DB5276"/>
<path d="M70.8201 9.77998C70.8201 9.77998 70.8101 9.77998 70.8001 9.77998C70.1201 9.75998 69.4501 9.63998 68.8101 9.42998C68.7501 9.40998 68.7101 9.33998 68.7301 9.27998C68.7501 9.21998 68.8201 9.18 68.8801 9.2C69.5001 9.4 70.1501 9.51998 70.8101 9.52998C70.8801 9.52998 70.9301 9.58998 70.9301 9.64998C70.9301 9.70998 70.8801 9.75997 70.8301 9.76997L70.8201 9.77998Z" fill="#DB5276"/>
<path d="M69 9.07C69.05 9.3 68.78 9.56001 68.39 9.64001C68 9.72001 67.65 9.59999 67.6 9.36999C67.55 9.13999 67.82 8.87998 68.21 8.79998C68.6 8.71998 68.95 8.84 69 9.07Z" fill="#DB5276"/>
<path d="M76.2099 17.01C76.1599 17.2 75.9499 17.39 75.6699 17.48C75.4699 17.55 75.2699 17.56 75.1099 17.52C75.1299 17.24 75.2199 17.04 75.4499 17.07C75.9599 17.14 76.1099 16.9 76.1599 16.77C76.1799 16.73 76.1799 16.7 76.1799 16.7V16.81L76.2099 17V17.01Z" fill="#A52B51"/>
<path style="mix-blend-mode:multiply" opacity="0.5" d="M52.5701 14.62C51.7901 14 50.6901 12.23 49.7401 9.22C48.6101 5.65 47.5501 3.83999 46.8301 2.92999C47.4401 3.20999 48.1401 3.50001 48.9801 3.57001C49.7201 3.63001 50.5801 3.52001 51.6001 3.10001C52.1101 2.89001 52.6801 2.76 53.2701 2.69C52.6701 5.26 52.2901 8.96 53.3001 12.37C53.9401 14.56 53.4701 15.35 52.5801 14.64L52.5701 14.62Z" fill="url(#paint0_linear_30_2713)"/>
<path style="mix-blend-mode:multiply" opacity="0.5" d="M36.8001 3.14001C35.3601 3.75001 33.8101 5.25001 33.2901 9.64001C33.1001 11.25 32.0301 11.38 31.2401 11.27C30.1301 11.12 29.2401 9.93999 29.1301 7.04999C29.0501 4.94999 28.4701 3.58999 27.8401 2.73999C28.2601 2.88999 28.7101 3.04 29.1801 3.16C30.2701 3.45 31.2401 3.58999 32.2101 3.60999C33.6401 3.63999 35.0501 3.43001 36.8101 3.14001H36.8001Z" fill="url(#paint1_linear_30_2713)"/>
<defs>
<linearGradient id="paint0_linear_30_2713" x1="50.2101" y1="11.56" x2="50.2101" y2="-0.63" gradientUnits="userSpaceOnUse">
<stop stop-color="white"/>
<stop offset="0.14" stop-color="#FEFAF6"/>
<stop offset="0.36" stop-color="#FDEFDF"/>
<stop offset="0.63" stop-color="#FBDDB9"/>
<stop offset="0.94" stop-color="#F9C484"/>
<stop offset="0.97" stop-color="#F9C280"/>
</linearGradient>
<linearGradient id="paint1_linear_30_2713" x1="32.3201" y1="9.30999" x2="32.3201" y2="0.74999" gradientUnits="userSpaceOnUse">
<stop stop-color="white"/>
<stop offset="0.14" stop-color="#FEFAF6"/>
<stop offset="0.36" stop-color="#FDEFDF"/>
<stop offset="0.63" stop-color="#FBDDB9"/>
<stop offset="0.94" stop-color="#F9C484"/>
<stop offset="0.97" stop-color="#F9C280"/>
</linearGradient>
</defs>
</svg>
