<svg width="55" height="52" viewBox="0 0 55 52" fill="none" xmlns="http://www.w3.org/2000/svg">
<path d="M7.30008 10.53C-0.329925 12.7 -0.0199324 22.02 2.48007 27.99C5.78007 35.9 11.7901 39.6 20.0901 41.89C20.4501 41.99 20.8201 42.08 21.1801 42C22.1101 41.79 22.4201 40.59 22.2701 39.65C21.8301 36.87 19.5101 35.97 17.0901 35.34C13.0101 34.28 9.35007 31.38 7.37007 27.56C5.50007 23.96 4.49008 18.15 8.52008 15.57C9.92008 14.67 12.0301 14.82 13.0301 16.15C13.6801 17.01 13.7801 18.16 14.0901 19.2C14.4001 20.24 15.1301 21.33 16.2101 21.38C17.0101 21.41 17.7301 20.83 18.0601 20.1C18.3901 19.37 18.3801 18.54 18.2701 17.75C17.5001 12.47 12.4401 9.06001 7.30008 10.53Z" fill="#F1EBE9"/>
<path d="M14.8701 5.90997L16.2101 47.85H53.2901L54.6201 5.90997H14.8701Z" fill="#F6F2EC"/>
<path d="M34.7501 10.91C45.7295 10.91 54.6301 8.6714 54.6301 5.90997C54.6301 3.14855 45.7295 0.909973 34.7501 0.909973C23.7707 0.909973 14.8701 3.14855 14.8701 5.90997C14.8701 8.6714 23.7707 10.91 34.7501 10.91Z" fill="white"/>
<path d="M34.75 10.05C44.9893 10.05 53.2899 8.19643 53.2899 5.90997C53.2899 3.62351 44.9893 1.77002 34.75 1.77002C24.5106 1.77002 16.21 3.62351 16.21 5.90997C16.21 8.19643 24.5106 10.05 34.75 10.05Z" fill="#BA9A90"/>
<path d="M34.75 51.99C44.9893 51.99 53.2899 50.1364 53.2899 47.85C53.2899 45.5635 44.9893 43.71 34.75 43.71C24.5106 43.71 16.21 45.5635 16.21 47.85C16.21 50.1364 24.5106 51.99 34.75 51.99Z" fill="#F6F2EC"/>
<path d="M19.71 8.33002C23.08 9.37002 28.56 10.05 34.75 10.05C40.94 10.05 46.4199 9.37002 49.7899 8.33002C46.4199 7.29002 40.94 6.60999 34.75 6.60999C28.56 6.60999 23.08 7.29002 19.71 8.33002Z" fill="#711C00"/>
</svg>
