<svg width="64" height="64" viewBox="0 0 64 64" fill="none" xmlns="http://www.w3.org/2000/svg">
<path d="M32.1401 63.39C49.4376 63.39 63.4601 49.3676 63.4601 32.07C63.4601 14.7724 49.4376 0.75 32.1401 0.75C14.8425 0.75 0.820068 14.7724 0.820068 32.07C0.820068 49.3676 14.8425 63.39 32.1401 63.39Z" fill="#E6F9FF"/>
<path d="M34.5001 50.68C34.5001 50.68 34.6401 50.71 34.9101 50.77C35.1801 50.83 35.5701 50.89 36.0601 50.97C37.0501 51.11 38.4901 51.22 40.1501 50.98C40.9801 50.86 41.8601 50.64 42.7501 50.31C43.6401 49.98 44.5201 49.5 45.3301 48.9C46.1301 48.29 46.8601 47.51 47.2701 46.63C47.4701 46.19 47.5601 45.73 47.5001 45.34C47.4401 44.95 47.2201 44.61 46.8701 44.35C46.5201 44.09 46.0501 43.9 45.5501 43.79C45.0801 43.68 44.5901 43.66 44.2101 43.79C43.8201 43.91 43.5201 44.1601 43.3001 44.5301C43.0801 44.9001 42.9601 45.36 42.9201 45.84C42.8401 46.8 43.0201 47.79 43.3101 48.68C43.6101 49.57 44.0101 50.38 44.4701 51.08C44.9301 51.77 45.4301 52.36 45.9301 52.84C46.4301 53.31 46.9101 53.68 47.3301 53.94C47.7501 54.21 48.1001 54.4 48.3401 54.51C48.5901 54.62 48.7201 54.69 48.7201 54.69C48.7201 54.69 48.5801 54.66 48.3201 54.59C48.0601 54.52 47.6701 54.4 47.2001 54.19C46.2701 53.78 44.9701 52.97 43.8401 51.55C43.2701 50.85 42.7501 50.01 42.3601 49.04C41.9701 48.07 41.6801 46.98 41.7301 45.77C41.7601 45.17 41.8801 44.53 42.2001 43.92C42.3601 43.62 42.5801 43.32 42.8601 43.08C43.1401 42.84 43.4701 42.66 43.8201 42.54C44.5201 42.31 45.2201 42.36 45.8701 42.49C46.4801 42.63 47.1301 42.84 47.7001 43.27C47.9901 43.49 48.2501 43.76 48.4501 44.08C48.6501 44.4 48.7801 44.77 48.8401 45.15C48.9501 45.9 48.7601 46.6 48.4801 47.19C48.2001 47.78 47.8201 48.29 47.4001 48.73C46.9801 49.17 46.5201 49.55 46.0501 49.88C45.1001 50.54 44.0801 50.9801 43.0901 51.2801C42.1001 51.5901 41.1301 51.72 40.2401 51.76C39.3501 51.81 38.5301 51.74 37.8201 51.64C37.1101 51.54 36.5001 51.38 36.0101 51.24C35.5201 51.1 35.1501 50.95 34.8901 50.85C34.6401 50.75 34.5101 50.69 34.5101 50.69L34.5001 50.68Z" fill="white"/>
<path d="M31.7701 51.11C31.7701 51.11 31.8202 51.15 31.9102 51.23C32.0002 51.31 32.1201 51.43 32.3001 51.56C32.3801 51.63 32.4801 51.7 32.5801 51.78C32.6901 51.85 32.8002 51.93 32.9202 52.02C33.1702 52.18 33.4602 52.35 33.7802 52.52C34.1102 52.68 34.4602 52.84 34.8502 52.99C35.2402 53.14 35.6601 53.27 36.0901 53.41C36.5301 53.55 36.9901 53.65 37.4601 53.78C37.9401 53.9 38.4201 54.02 38.9001 54.15C39.3801 54.28 39.8702 54.42 40.3502 54.58C40.8302 54.74 41.2901 54.92 41.7401 55.11C42.1801 55.31 42.6002 55.53 42.9802 55.78C43.3602 56.02 43.6902 56.29 43.9802 56.56C44.2602 56.83 44.5001 57.11 44.6801 57.36C44.7701 57.49 44.8501 57.61 44.9301 57.72C44.9901 57.84 45.0501 57.95 45.1101 58.05C45.2201 58.24 45.2702 58.42 45.3202 58.52C45.3602 58.63 45.3902 58.69 45.3902 58.69C45.3902 58.69 45.3501 58.64 45.2701 58.55C45.1901 58.46 45.0902 58.32 44.9402 58.17C44.8702 58.09 44.7802 58 44.7002 57.91C44.6102 57.82 44.5002 57.73 44.3902 57.62C44.1702 57.42 43.9001 57.22 43.6101 57.01C43.3101 56.81 42.9702 56.62 42.6002 56.44C42.2302 56.25 41.8201 56.1 41.4001 55.94C40.9801 55.78 40.5202 55.66 40.0602 55.52C39.5902 55.39 39.1102 55.26 38.6402 55.13C38.1602 54.99 37.6702 54.86 37.2002 54.72C36.7202 54.58 36.2601 54.42 35.8102 54.25C35.3602 54.08 34.9302 53.89 34.5402 53.68C34.1402 53.48 33.7902 53.24 33.4702 53.02C33.3202 52.9 33.1702 52.79 33.0302 52.67C32.9002 52.55 32.7802 52.44 32.6702 52.32C32.5602 52.2 32.4601 52.1 32.3701 52C32.2801 51.89 32.2102 51.79 32.1402 51.7C32.0002 51.53 31.9201 51.37 31.8601 51.27C31.8001 51.17 31.7701 51.11 31.7701 51.11Z" fill="white"/>
<path d="M29.1401 51.11C29.1401 51.11 29.3001 51.22 29.5801 51.42C29.7101 51.52 29.8901 51.63 30.0601 51.79C30.2401 51.95 30.4401 52.12 30.6501 52.33C30.8501 52.54 31.0801 52.76 31.3001 53.01C31.5101 53.26 31.7501 53.53 31.9701 53.82C32.1901 54.11 32.4101 54.41 32.6201 54.73C32.8401 55.04 33.0401 55.37 33.2401 55.69C33.6401 56.34 34.0001 57.01 34.3401 57.63C34.5101 57.94 34.6701 58.24 34.8201 58.52C34.9801 58.8 35.1201 59.07 35.2701 59.3C35.4101 59.54 35.5601 59.75 35.6801 59.94C35.8201 60.12 35.9301 60.28 36.0301 60.41C36.2501 60.65 36.3801 60.8 36.3801 60.8C36.3801 60.8 36.2101 60.72 35.9001 60.56C35.7601 60.46 35.5801 60.35 35.3901 60.2C35.2101 60.04 34.9901 59.87 34.8001 59.65C34.7001 59.54 34.5901 59.43 34.4901 59.31C34.3901 59.19 34.2901 59.06 34.1801 58.93C33.9801 58.67 33.7601 58.39 33.5601 58.09C33.1501 57.49 32.7501 56.85 32.3601 56.2C31.9701 55.56 31.5801 54.92 31.2201 54.31C31.0401 54.01 30.8601 53.72 30.6901 53.45C30.5101 53.18 30.3501 52.93 30.2001 52.68C30.0401 52.45 29.9001 52.23 29.7701 52.04C29.6501 51.85 29.5201 51.68 29.4301 51.54C29.2401 51.26 29.1401 51.09 29.1401 51.09V51.11Z" fill="white"/>
<mask id="mask0_30_3505" style="mask-type:luminance" maskUnits="userSpaceOnUse" x="0" y="0" width="64" height="64">
<path d="M32.1401 63.39C49.4376 63.39 63.4601 49.3676 63.4601 32.07C63.4601 14.7724 49.4376 0.75 32.1401 0.75C14.8425 0.75 0.820068 14.7724 0.820068 32.07C0.820068 49.3676 14.8425 63.39 32.1401 63.39Z" fill="white"/>
</mask>
<g mask="url(#mask0_30_3505)">
<path d="M25.6301 -4.39001C24.9901 1.97999 23.7101 7.41998 25.6301 13.6C27.2101 18.69 32.3901 26.95 35.1001 30.9C36.9201 33.55 41.3101 36.9 41.7901 40C42.3001 43.3 39.0801 46.76 35.1001 48.55C31.1201 50.34 28.1001 49.31 26.8601 50.68C25.6201 52.05 25.2401 56.19 25.5201 58.8C25.7901 61.41 26.4501 62.46 27.0701 63.28C25.7301 66.99 10.4101 63.96 5.64014 58.65C-0.169856 52.18 -3.90988 45.87 -4.75988 36.7C-5.75988 25.9 -3.99988 18.92 0.0201182 12.5C3.21012 7.4 14.9201 -1.67002 18.4901 -2.46002C21.3801 -3.10002 25.6301 -4.38 25.6301 -4.38V-4.39001Z" fill="#FFD6BB"/>
<path opacity="0.24" d="M40.9802 37.94C40.7602 40.92 38.1901 42.26 36.2401 41.64C33.5201 40.78 33.8401 37.31 32.6201 34.53C31.4001 31.75 26.3501 26.81 24.2901 22.07C22.2301 17.33 19.3501 13.32 19.8601 8.16995C20.3701 3.01995 16.8401 6.72998 15.0201 11.88C13.5501 16.05 16.4601 24.86 16.5601 30.62C16.6601 36.39 15.5901 43.5999 17.2801 47.0999C18.9701 50.5999 22.1601 53.6799 25.6901 53.7899C25.9201 52.4499 26.3001 51.29 26.8501 50.67C28.0901 49.3 31.1101 50.3299 35.0901 48.5399C39.0701 46.7499 42.3001 43.29 41.7801 39.99C41.6701 39.31 41.3701 38.63 40.9601 37.93L40.9802 37.94Z" fill="#E89C72"/>
<path opacity="0.3" d="M41.8001 40C41.6901 39.32 41.3902 38.64 40.9802 37.94C40.6002 41.02 39.5302 44.11 35.1002 43.5C30.6702 42.88 28.6102 42.82 26.1402 44.29C23.6702 45.76 19.5002 47.05 19.0302 44.7C18.4402 41.71 20.4702 39.79 20.4702 39.79C16.6602 42.78 17.2802 47 19.7502 47.82C19.7502 47.82 20.0602 48.54 20.6302 49.52C21.2002 50.5 22.4901 52.81 25.1801 53.75C25.3201 53.8 25.5002 53.83 25.6902 53.85C25.9202 52.49 26.3001 51.3 26.8601 50.67C28.1001 49.3 31.1202 50.33 35.1002 48.54C39.0802 46.75 42.3102 43.29 41.7902 39.99L41.8001 40Z" fill="#C47958"/>
<path opacity="0.3" d="M31.0801 44.38C32.7701 44.38 35.2801 44.87 36.6501 44.63C38.0201 44.39 38.4401 45.02 36.3401 46.24C32.0101 48.75 26.6301 48.29 23.8801 48.46C23.0001 48.51 22.4501 47.86 23.6601 47.2C25.4401 46.41 26.3601 45.71 27.7301 45.22C29.1001 44.73 29.8601 44.37 31.0801 44.37V44.38Z" fill="#C47958"/>
<path opacity="0.8" d="M28.1001 45.05C32.9401 43.4 34.2001 45.09 30.3701 47.21C29.2201 47.85 26.2202 47.42 24.8902 47.81C23.1002 48.33 23.6701 47.21 23.6701 47.21L28.1101 45.05H28.1001Z" fill="#753A26"/>
<path opacity="0.3" d="M23.3002 44.93C21.5502 45.59 18.8602 45.32 19.9902 42.33C20.9202 39.89 24.4002 40.6 25.4102 41.57C26.5402 42.67 26.0602 43.87 23.2902 44.92L23.3002 44.93Z" fill="white"/>
<path opacity="0.3" d="M40.9801 37.94C39.5101 35.47 36.5201 32.97 35.1001 30.9C32.3901 26.95 27.2101 18.69 25.6301 13.6C24.8101 10.95 24.57 8.44 24.62 5.94C23.06 12.02 27.8301 22.93 30.1601 26.36C32.4901 29.79 35.52 36.25 36.55 38.37C37.58 40.5 40.37 39.95 40.99 37.93L40.9801 37.94Z" fill="white"/>
<path d="M30.2002 47.29C30.2602 47.26 30.3101 47.24 30.3601 47.21C34.1901 45.09 32.9301 43.4 28.0901 45.05L23.6501 47.21C23.6501 47.21 25.9302 46.39 28.8802 45.49C31.8302 44.6 32.4802 45.83 30.1902 47.29H30.2002Z" fill="#663021"/>
<path opacity="0.24" d="M20.4801 39.7899C23.6601 38.1799 25.9901 35.81 26.1301 33.07C26.2301 31.07 29.4401 33.13 30.4701 35.19C31.5001 37.25 31.7001 40.7199 28.4401 40.0399C25.4301 39.4099 23.4301 39.0399 20.4801 39.7899Z" fill="#E89C72"/>
<path opacity="0.24" d="M19.1002 5.71997C18.1502 5.88997 16.5602 8.08002 15.4002 10.9C15.0802 13.38 16.1602 22.12 18.4202 22.12C20.6902 22.12 20.6202 18.07 19.1002 13.74C17.5802 9.40999 18.2202 7.21997 19.1002 5.71997Z" fill="url(#paint0_linear_30_3505)"/>
<path d="M26.8601 50.68C26.8601 50.68 26.8301 50.72 26.7801 50.8C26.7301 50.88 26.6501 51 26.5701 51.16C26.4801 51.31 26.4101 51.52 26.3201 51.75C26.2501 51.99 26.1701 52.26 26.0901 52.55C26.0201 52.85 25.9501 53.17 25.9001 53.52C25.8401 53.87 25.8001 54.23 25.7601 54.61C25.7201 54.99 25.6901 55.39 25.6701 55.79C25.6501 56.19 25.6401 56.6 25.6401 57.01C25.6401 57.42 25.6401 57.83 25.6701 58.23C25.7001 58.63 25.7301 59.02 25.7801 59.4C25.8701 60.15 26.0001 60.86 26.1901 61.44C26.3801 62.02 26.5901 62.48 26.7801 62.79C26.9601 63.1 27.0701 63.27 27.0701 63.27C27.0701 63.27 26.9301 63.12 26.7101 62.83C26.5001 62.54 26.2001 62.1 25.9701 61.51C25.7401 60.92 25.5401 60.22 25.4201 59.44C25.3601 59.06 25.3101 58.66 25.2801 58.24C25.2501 57.83 25.2401 57.41 25.2401 57C25.2401 56.58 25.2601 56.17 25.2901 55.76C25.3101 55.35 25.3601 54.95 25.4201 54.56C25.4701 54.17 25.5401 53.8 25.6201 53.45C25.7001 53.1 25.7901 52.77 25.8801 52.48C25.9701 52.18 26.0901 51.92 26.1901 51.68C26.3101 51.45 26.4001 51.25 26.5101 51.1C26.6001 50.94 26.7001 50.84 26.7701 50.77C26.8301 50.7 26.8701 50.66 26.8701 50.66L26.8601 50.68Z" fill="#C98A71"/>
<path d="M25.6302 -4.39001C25.6302 -4.39001 25.5402 -3.30998 25.3202 -1.41998C25.2202 -0.479983 25.0802 0.66999 24.9602 1.98999C24.8402 3.30999 24.7302 4.79998 24.7302 6.41998C24.7302 8.03998 24.8602 9.79999 25.2702 11.61C25.3702 12.06 25.4802 12.52 25.6202 12.97C25.7402 13.43 25.9002 13.88 26.0602 14.34C26.4002 15.25 26.7802 16.17 27.2202 17.09C28.9502 20.76 31.1802 24.5 33.5302 28.14C34.1202 29.05 34.7102 29.96 35.3202 30.84C35.9402 31.72 36.6602 32.5 37.3902 33.29C38.1202 34.07 38.8502 34.85 39.5302 35.65C40.2102 36.45 40.8602 37.28 41.3502 38.2C41.5802 38.67 41.8002 39.14 41.9102 39.65C41.9302 39.78 41.9802 39.89 41.9902 40.04L42.0202 40.41C42.0502 40.65 42.0102 40.93 42.0002 41.18C41.8902 42.19 41.4802 43.11 40.9802 43.92C39.9502 45.53 38.5402 46.68 37.1602 47.56C36.4702 48 35.7602 48.35 35.0802 48.66C34.4002 48.95 33.7102 49.17 33.0702 49.33C31.7802 49.65 30.6202 49.74 29.6702 49.82C28.7202 49.89 27.9802 50.01 27.5202 50.22C27.0602 50.44 26.8902 50.68 26.8802 50.66C26.8802 50.67 27.0502 50.43 27.5102 50.2C27.9702 49.97 28.7202 49.84 29.6602 49.74C30.6002 49.64 31.7602 49.52 33.0302 49.18C33.6702 49 34.3202 48.77 35.0002 48.47C35.6602 48.16 36.3602 47.81 37.0302 47.36C38.3802 46.48 39.7502 45.32 40.7202 43.76C41.2002 42.98 41.5702 42.1 41.6602 41.15V40.8C41.6802 40.69 41.6902 40.57 41.6602 40.44L41.6302 40.07C41.6302 39.97 41.5802 39.84 41.5602 39.73C41.4602 39.26 41.2502 38.81 41.0302 38.37C40.5602 37.49 39.9202 36.68 39.2502 35.89C38.5702 35.1 37.8402 34.33 37.1102 33.55C36.3902 32.77 35.6402 31.96 35.0002 31.08C34.3702 30.18 33.7802 29.28 33.1802 28.37C30.8402 24.7 28.6202 20.95 26.9002 17.24C26.4702 16.32 26.0802 15.38 25.7502 14.45C25.5902 13.99 25.4402 13.52 25.3202 13.05C25.1802 12.59 25.0802 12.12 24.9902 11.66C24.6002 9.81997 24.5002 8.04002 24.5102 6.40002C24.5302 4.76002 24.6702 3.27002 24.8202 1.96002C24.9702 0.640022 25.1302 -0.500002 25.2602 -1.44C25.5102 -3.32 25.6302 -4.40002 25.6302 -4.40002V-4.39001Z" fill="#C98A71"/>
<path d="M20.4801 39.79C20.4801 39.79 20.4001 39.86 20.2501 39.99C20.1001 40.12 19.8901 40.32 19.6401 40.59C19.3901 40.86 19.1001 41.2 18.8301 41.62C18.5601 42.05 18.3001 42.56 18.1101 43.15C17.9301 43.74 17.8301 44.41 17.9201 45.11C18.0001 45.8 18.2901 46.51 18.8101 47.04C19.3301 47.58 20.0901 47.84 20.8801 47.78C21.6701 47.73 22.4701 47.48 23.2301 47.17C24.0001 46.86 24.7501 46.49 25.4801 46.11C26.2101 45.74 26.9301 45.34 27.6601 45.02C28.4201 44.72 29.1501 44.53 29.8701 44.39C30.5901 44.26 31.2901 44.18 31.9401 44.32C32.1001 44.36 32.2601 44.41 32.4001 44.52C32.5401 44.62 32.6601 44.78 32.6701 44.95C32.6901 45.3 32.5001 45.55 32.3501 45.75C32.0101 46.15 31.6401 46.41 31.3301 46.62C31.0201 46.83 30.7701 46.97 30.6001 47.06C30.4301 47.15 30.3301 47.2 30.3301 47.2C30.3301 47.2 30.7001 46.99 31.2801 46.55C31.5701 46.33 31.9201 46.05 32.2201 45.65C32.3601 45.46 32.5001 45.21 32.4701 44.97C32.4401 44.74 32.1701 44.6 31.8801 44.54C31.2901 44.43 30.6101 44.54 29.9201 44.68C29.5701 44.76 29.2201 44.85 28.8601 44.97C28.5001 45.08 28.1301 45.19 27.7901 45.34C27.0901 45.65 26.3801 46.06 25.6401 46.44C24.9101 46.83 24.1601 47.22 23.3601 47.53C22.5701 47.84 21.7401 48.1 20.8801 48.14C20.6601 48.15 20.4501 48.14 20.2301 48.12C20.1201 48.11 20.0101 48.08 19.9001 48.06C19.8001 48.03 19.7201 48.01 19.6001 47.97C19.1901 47.82 18.8301 47.58 18.5401 47.28C17.9501 46.67 17.6801 45.88 17.6201 45.14C17.5501 44.39 17.6801 43.69 17.8801 43.08C18.3101 41.86 19.0401 41.04 19.5601 40.53C19.8201 40.27 20.0501 40.09 20.2101 39.97C20.3701 39.85 20.4501 39.79 20.4501 39.79H20.4801Z" fill="#C98A71"/>
<path d="M28.1001 45.05C28.1001 45.05 28.4601 44.85 29.0501 44.61C29.3501 44.5 29.7001 44.38 30.0901 44.3C30.4801 44.21 30.9001 44.16 31.3301 44.15C32.1901 44.13 33.0201 44.29 33.6301 44.41C33.9401 44.47 34.1901 44.54 34.3701 44.58C34.5501 44.62 34.6501 44.65 34.6501 44.65C34.6501 44.65 34.5401 44.65 34.3601 44.65C34.1801 44.65 33.9101 44.65 33.6001 44.63C33.2901 44.61 32.9301 44.59 32.5401 44.56C32.1501 44.54 31.7501 44.52 31.3401 44.53C30.5301 44.53 29.7201 44.69 29.1201 44.82C28.8201 44.89 28.5601 44.94 28.3801 44.98C28.2001 45.02 28.1001 45.04 28.1001 45.04V45.05Z" fill="#C98A71"/>
</g>
<defs>
<linearGradient id="paint0_linear_30_3505" x1="17.7602" y1="22.11" x2="17.7602" y2="5.71997" gradientUnits="userSpaceOnUse">
<stop stop-color="#E89C72"/>
<stop offset="1" stop-color="#E89C72"/>
</linearGradient>
</defs>
</svg>
