<svg width="59" height="53" viewBox="0 0 59 53" fill="none" xmlns="http://www.w3.org/2000/svg">
<path d="M36.32 23.13C36.32 23.13 36.3 23.13 36.28 23.13C35.93 23.13 35.65 22.83 35.65 22.48C35.65 22.33 35.82 7.11 26.73 2.56C26.41 2.4 26.29 2.02001 26.45 1.70001C26.61 1.38001 26.99 1.26 27.31 1.41C37.12 6.32 36.95 21.84 36.94 22.5C36.94 22.84 36.66 23.11 36.33 23.13H36.32Z" fill="#B4C864"/>
<path d="M35.2899 14.79C35.0099 14.8 34.7399 14.62 34.6599 14.34C33.8299 11.62 30.1199 10.26 27.4799 10.91C27.1499 11 26.7899 10.79 26.7099 10.44C26.6299 10.1 26.8299 9.75002 27.1799 9.67002C30.4299 8.87002 34.8499 10.54 35.8899 13.97C35.9899 14.31 35.7999 14.66 35.4599 14.77C35.4099 14.79 35.3499 14.8 35.2999 14.8L35.2899 14.79Z" fill="#B4C864"/>
<path d="M44.7999 21.04C44.6299 21.04 44.4599 20.99 44.3399 20.86C43.2999 19.87 41.2599 19.37 41.2399 19.36C40.8999 19.28 40.6899 18.93 40.7699 18.59C40.8499 18.25 41.1899 18.03 41.5399 18.12C41.6399 18.14 43.9299 18.7 45.2299 19.94C45.4799 20.18 45.4899 20.59 45.2499 20.84C45.1299 20.96 44.9699 21.03 44.8099 21.04H44.7999Z" fill="#B4C864"/>
<path d="M29.2 10.73C29.09 10.73 28.98 10.71 28.88 10.66C28.84 10.64 24.62 8.42 23.02 7.92C22.68 7.81 22.5 7.45998 22.6 7.11998C22.71 6.77998 23.07 6.6 23.4 6.7C25.12 7.24 29.3 9.43999 29.48 9.52998C29.79 9.69999 29.91 10.08 29.75 10.39C29.64 10.6 29.43 10.72 29.21 10.73H29.2Z" fill="#B4C864"/>
<path d="M45.77 39.05C44.55 47.24 38.91 53.18 31.88 52.14C24.85 51.09 21.19 43.76 22.41 35.57C23.63 27.38 30.49 21.62 36.3 22.49C42.11 23.36 46.99 30.87 45.77 39.05Z" fill="#818412"/>
<path d="M33.77 49.91C33.19 49.93 32.6 49.9 32.01 49.81C29 49.36 26.59 47.63 25.04 44.8C23.5 42 22.96 38.37 23.53 34.58C24.62 27.28 30.24 22.58 34.82 22.41C35.25 22.39 35.67 22.41 36.08 22.48C41.04 23.22 45.73 29.89 44.56 37.71C43.52 44.7 39.08 49.71 33.76 49.91H33.77Z" fill="#BBBF26"/>
<path d="M52.74 4.48999C45.53 5.23999 37.04 14.72 36.3 21.95C43.12 19.41 49.72 12.81 52.74 4.48999Z" fill="#329632"/>
<path d="M27.8899 9.82999C23.3999 7.34999 10.8699 12.41 2.41992 24.85C13.5199 23.37 24.9599 15.22 27.8899 9.82999Z" fill="#329632"/>
<path d="M0.939941 0.450012C10.5799 -0.639988 19.0399 0.570002 23.7899 7.44C16.7199 9.36 3.14994 2.04001 0.939941 0.450012Z" fill="#329632"/>
<path d="M22.4799 15.75C24.5699 20.46 21.9799 30.05 16.9399 34.05C15.8699 27.15 19.0899 19.11 22.4799 15.75Z" fill="#288C28"/>
<path d="M43.8101 19.88C49.6601 18.59 56.2201 26.56 58.5101 30.3C52.5401 30.13 44.8701 23.33 43.8101 19.88Z" fill="#329632"/>
<path d="M40.1198 30.53C39.1898 31.38 37.5198 31.06 36.3898 29.81C35.2598 28.57 35.0998 26.87 36.0298 26.02C36.9598 25.17 38.6298 25.5 39.7598 26.74C40.8898 27.98 41.0498 29.68 40.1198 30.52V30.53Z" fill="#E2E254"/>
<path d="M41.1899 35.03C40.5199 35.17 39.8499 34.63 39.6899 33.84C39.5299 33.05 39.9399 32.29 40.5999 32.16C41.2699 32.02 41.9399 32.56 42.0999 33.35C42.2599 34.15 41.8499 34.9 41.1899 35.03Z" fill="#E2E254"/>
</svg>
