<svg width="49" height="60" viewBox="0 0 49 60" fill="none" xmlns="http://www.w3.org/2000/svg">
<path d="M26.2399 53.32C25.7799 52.72 17.3799 52.77 15.2899 54.46C13.1699 56.18 12.7499 59.77 13.3299 59.33C14.0299 58.8 14.44 58 15.39 57.09C14.69 58.63 14.6299 60.12 15.0099 59.82C15.8299 59.2 16.2499 58.21 17.5999 57.11C16.9999 58.55 16.9699 59.88 17.3299 59.6C18.3299 58.84 18.7399 57.52 20.9899 56.14C24.2399 54.14 26.8499 54.11 26.2399 53.31V53.32Z" fill="#F29600"/>
<path d="M33.33 54.47C31.24 52.78 22.84 52.73 22.38 53.33C21.76 54.13 24.37 54.16 27.63 56.16C29.88 57.54 30.29 58.86 31.29 59.62C31.65 59.9 31.62 58.58 31.02 57.13C32.37 58.23 32.8 59.22 33.61 59.84C34 60.13 33.94 58.64 33.23 57.11C34.18 58.02 34.59 58.82 35.29 59.35C35.87 59.79 35.45 56.2 33.33 54.48V54.47Z" fill="#F29600"/>
<path d="M11.2799 38.45C10.3599 32.02 6.47995 27.87 4.00995 28.38C1.53995 28.9 -0.170076 35.35 0.549924 39.3C2.34992 49.21 10.5299 53 12.9999 52.49C15.4699 51.97 11.8699 42.57 11.2799 38.45Z" fill="#4A271F"/>
<path d="M11.13 34.82C9.87001 28.45 7.66999 24.02 5.29999 24.89C0.419991 26.69 -0.219984 34.21 0.420016 38.74C0.930016 42.36 6.81002 44.8299 8.64002 44.4699C9.50002 44.2999 12.35 40.97 11.13 34.81V34.82Z" fill="#734632"/>
<path d="M37.44 38.45C38.36 32.02 42.24 27.87 44.71 28.38C47.18 28.9 48.89 35.35 48.17 39.3C46.37 49.21 38.19 53 35.72 52.49C33.25 51.97 36.85 42.57 37.44 38.45Z" fill="#4A271F"/>
<path d="M37.59 34.82C38.85 28.45 41.05 24.02 43.42 24.89C48.3 26.69 48.94 34.21 48.3 38.74C47.79 42.36 41.91 44.8299 40.08 44.4699C39.22 44.2999 36.37 40.97 37.59 34.81V34.82Z" fill="#734632"/>
<path d="M6.12003 25.1C10.61 14.64 14.1901 14.72 24.1401 14.72C34.09 14.72 36.57 15.13 42.16 25.1C45.91 31.8 43.68 48.7 35.48 54.04C32.36 56.07 17.47 57.27 12.66 53.09C4.24004 45.77 2.82003 32.77 6.12003 25.09V25.1Z" fill="#B57E59"/>
<path d="M23.73 38.94C23.73 37.67 23.98 36.64 24.29 36.64C24.6 36.64 24.85 37.67 24.85 38.94C24.85 40.21 24.49 42.92 24.29 42.9C24.09 42.88 23.73 40.21 23.73 38.94Z" fill="#734632"/>
<path d="M17.8201 37.15C17.7101 35.88 17.8701 34.84 18.1801 34.81C18.4901 34.78 18.8301 35.79 18.9401 37.05C19.0501 38.31 18.9301 41.05 18.7301 41.04C18.5301 41.03 17.9401 38.41 17.8201 37.15Z" fill="#734632"/>
<path d="M13.4501 41.73C13.2001 40.48 13.2501 39.42 13.5501 39.36C13.8501 39.3 14.3001 40.26 14.5501 41.51C14.8001 42.75 14.9701 45.48 14.7701 45.5C14.5701 45.52 13.7001 42.97 13.4501 41.73Z" fill="#734632"/>
<path d="M8.24002 35.15C7.99002 33.9 8.04003 32.84 8.34003 32.78C8.64003 32.72 9.09003 33.68 9.34003 34.93C9.59003 36.17 9.76003 38.9 9.56003 38.92C9.36003 38.94 8.49002 36.39 8.24002 35.15Z" fill="#734632"/>
<path d="M11.68 48.49C11.05 47.39 10.76 46.37 11.03 46.21C11.3 46.06 12.03 46.83 12.66 47.93C13.29 49.03 14.32 51.57 14.13 51.65C13.95 51.73 12.31 49.59 11.68 48.49Z" fill="#734632"/>
<path d="M18.89 46.42C18.55 45.19 18.52 44.14 18.82 44.05C19.12 43.97 19.63 44.89 19.97 46.12C20.31 47.34 20.68 50.05 20.48 50.08C20.28 50.11 19.22 47.64 18.89 46.41V46.42Z" fill="#734632"/>
<path d="M31.22 37.15C31.33 35.88 31.17 34.84 30.86 34.81C30.55 34.78 30.21 35.79 30.1 37.05C29.99 38.31 30.11 41.05 30.31 41.04C30.51 41.03 31.1 38.41 31.22 37.15Z" fill="#734632"/>
<path d="M35.87 41.73C36.12 40.48 36.07 39.42 35.77 39.36C35.47 39.3 35.02 40.26 34.77 41.51C34.52 42.75 34.35 45.48 34.55 45.5C34.75 45.52 35.62 42.97 35.87 41.73Z" fill="#734632"/>
<path d="M40.7901 35.15C41.0401 33.9 40.9901 32.84 40.6901 32.78C40.3901 32.72 39.9401 33.68 39.6901 34.93C39.4401 36.17 39.2701 38.9 39.4701 38.92C39.6701 38.94 40.5401 36.39 40.7901 35.15Z" fill="#734632"/>
<path d="M37.36 48.49C37.99 47.39 38.28 46.37 38.01 46.21C37.74 46.06 37.01 46.83 36.38 47.93C35.75 49.03 34.72 51.57 34.91 51.65C35.09 51.73 36.73 49.59 37.36 48.49Z" fill="#734632"/>
<path d="M30.1501 46.42C30.4901 45.19 30.5201 44.14 30.2201 44.05C29.9201 43.97 29.4101 44.89 29.0701 46.12C28.7301 47.34 28.3601 50.05 28.5601 50.08C28.7601 50.11 29.8201 47.64 30.1501 46.41V46.42Z" fill="#734632"/>
<path d="M23.73 48.95C23.73 47.68 23.98 46.65 24.29 46.65C24.6 46.65 24.85 47.68 24.85 48.95C24.85 50.22 24.49 52.93 24.29 52.91C24.09 52.89 23.73 50.22 23.73 48.95Z" fill="#734632"/>
<path d="M42.77 16.41C42.71 6.61997 36.83 1.76001 24.21 1.76001C11.59 1.76001 5.87998 6.65001 5.65998 16.51C5.81998 21.61 4.40998 27.45 4.93998 27.81C5.30998 28.07 6.99998 27.47 8.47998 26.56C8.34998 28.21 8.55998 29.85 8.93998 30.06C9.30998 30.27 10.78 29.61 12.11 28.66C13.07 30.3 14.56 31.84 15.05 31.76C15.56 31.68 16.54 29.6 16.9 27.69C19.14 28.13 21.61 28.34 24.2 28.34C26.79 28.34 29.3 28.12 31.54 27.67C31.9 29.59 32.89 31.67 33.4 31.75C33.89 31.83 35.39 30.28 36.34 28.65C37.67 29.6 39.14 30.26 39.51 30.05C39.89 29.84 40.09 28.2 39.97 26.55C41.45 27.46 43.14 28.06 43.51 27.8C44.06 27.42 42.89 21.8 42.76 16.39L42.77 16.41Z" fill="#94653F"/>
<path d="M15.78 29.51C15.01 27.58 16.49 25.62 17.22 25.33C17.95 25.04 20.37 25.45 21.14 27.38C21.91 29.31 21.19 33.41 20.54 33.67C19.89 33.93 16.55 31.43 15.78 29.51Z" fill="#94653F"/>
<path d="M32.45 29.51C33.22 27.58 31.74 25.62 31.01 25.33C30.28 25.04 27.86 25.45 27.09 27.38C26.32 29.31 27.04 33.41 27.69 33.67C28.34 33.93 31.68 31.43 32.45 29.51Z" fill="#94653F"/>
<path d="M20.9299 29.06C20.9299 26.82 23.1899 25.44 24.0399 25.44C24.8899 25.44 27.1499 26.82 27.1499 29.06C27.1499 31.3 24.7999 35.13 24.0399 35.13C23.2799 35.13 20.9299 31.3 20.9299 29.06Z" fill="#94653F"/>
<path d="M9.07008 3.49999C6.54008 2.57999 2.66008 2.79998 2.38008 3.60998C2.31008 3.79998 4.18009 4.41002 6.17009 5.09002C5.16009 5.26002 4.42006 5.55996 4.33006 5.90996C4.29006 6.06996 5.45009 6.38 6.95009 6.76C6.28009 7 5.84008 7.27999 5.79008 7.55999C5.74008 7.83999 9.35007 8.26999 12.0001 8.74999C14.6501 9.22999 17.1501 9.94 17.2601 9.64C17.3501 9.39 10.3101 3.96 9.07008 3.51V3.49999Z" fill="#3E3A39"/>
<path d="M46.53 3.60998C46.25 2.79998 42.37 2.57999 39.84 3.49999C38.61 3.94999 31.56 9.37 31.65 9.62999C31.76 9.93 34.26 9.21998 36.91 8.73998C39.56 8.25998 43.16 7.82998 43.12 7.54998C43.07 7.26998 42.63 6.98999 41.96 6.74999C43.45 6.36999 44.62 6.05001 44.58 5.90001C44.49 5.55001 43.76 5.26001 42.74 5.08001C44.74 4.40001 46.6 3.79997 46.53 3.59997V3.60998Z" fill="#3E3A39"/>
<path d="M30.56 6.78003C27.85 6.78003 25.81 7.93002 24.37 9.65002C22.93 7.93002 20.89 6.78003 18.18 6.78003C11.94 6.78003 9.26001 11.92 9.26001 17.01C9.26001 21.37 12.44 24.83 16.61 25.15C20.94 25.49 22.95 23.8 24.37 23.8C25.79 23.8 28.34 25.83 32.08 25.43C36.66 24.94 39.48 21.85 39.48 17C39.48 11.91 36.8 6.77002 30.56 6.77002V6.78003Z" fill="#FBDDAE"/>
<path d="M16.6901 20.77C18.9765 20.77 20.83 18.9165 20.83 16.63C20.83 14.3435 18.9765 12.49 16.6901 12.49C14.4036 12.49 12.55 14.3435 12.55 16.63C12.55 18.9165 14.4036 20.77 16.6901 20.77Z" fill="#94653F"/>
<path d="M16.69 20.05C18.5788 20.05 20.11 18.5188 20.11 16.63C20.11 14.7412 18.5788 13.21 16.69 13.21C14.8012 13.21 13.27 14.7412 13.27 16.63C13.27 18.5188 14.8012 20.05 16.69 20.05Z" fill="#F29600"/>
<path d="M16.6901 18.95C17.9714 18.95 19.0101 17.9113 19.0101 16.63C19.0101 15.3487 17.9714 14.31 16.6901 14.31C15.4088 14.31 14.3701 15.3487 14.3701 16.63C14.3701 17.9113 15.4088 18.95 16.6901 18.95Z" fill="#231815"/>
<path d="M31.8399 20.77C34.1264 20.77 35.9799 18.9165 35.9799 16.63C35.9799 14.3435 34.1264 12.49 31.8399 12.49C29.5535 12.49 27.7 14.3435 27.7 16.63C27.7 18.9165 29.5535 20.77 31.8399 20.77Z" fill="#94653F"/>
<path d="M31.8399 20.05C33.7287 20.05 35.2599 18.5188 35.2599 16.63C35.2599 14.7412 33.7287 13.21 31.8399 13.21C29.9511 13.21 28.4199 14.7412 28.4199 16.63C28.4199 18.5188 29.9511 20.05 31.8399 20.05Z" fill="#F29600"/>
<path d="M31.8399 18.95C33.1212 18.95 34.1599 17.9113 34.1599 16.63C34.1599 15.3487 33.1212 14.31 31.8399 14.31C30.5586 14.31 29.5199 15.3487 29.5199 16.63C29.5199 17.9113 30.5586 18.95 31.8399 18.95Z" fill="#231815"/>
<path d="M24.34 19.32C23.1 19.32 23.42 17.61 21.74 16.63C19.45 15.3 17.72 13.82 15.9 11.59C14.08 9.36003 9.2 2.51999 12.35 2.98999C14.86 3.35999 19.66 0.780029 24.45 0.780029C28.36 0.780029 33.34 3.14001 36.35 2.89001C38.56 2.71001 34.93 9.26997 33.33 11.16C32.08 12.63 27.71 16.41 26.64 16.91C25.47 17.45 25.58 19.33 24.34 19.33V19.32Z" fill="#94653F"/>
<path d="M22.42 21.17C22.42 19.25 23.9 18.08 24.45 18.08C25 18.08 26.48 19.26 26.48 21.17C26.48 23.08 24.95 26.36 24.45 26.36C23.95 26.36 22.42 23.08 22.42 21.17Z" fill="#3E3A39"/>
<path d="M24.01 10.17C24.01 8.82998 24.33 8.01001 24.46 8.01001C24.59 8.01001 24.91 8.82998 24.91 10.17C24.91 11.51 24.57 13.79 24.46 13.79C24.35 13.79 24.01 11.5 24.01 10.17Z" fill="#4A271F"/>
<path d="M30.2 8.46004C30.74 7.24004 31.36 6.60999 31.47 6.65999C31.58 6.70999 31.55 7.59002 31.01 8.82002C30.47 10.04 29.25 12 29.15 11.96C29.05 11.92 29.66 9.69004 30.19 8.46004H30.2Z" fill="#4A271F"/>
<path d="M28.34 4.9C28.65 3.6 29.16 2.88 29.28 2.9C29.4 2.93 29.52 3.79995 29.21 5.09995C28.9 6.39995 28.04 8.55 27.93 8.52C27.82 8.49 28.03 6.18999 28.34 4.88999V4.9Z" fill="#4A271F"/>
<path d="M18.4 8.46004C17.86 7.24004 17.24 6.60999 17.13 6.65999C17.02 6.70999 17.05 7.59002 17.59 8.82002C18.13 10.04 19.35 12 19.45 11.96C19.55 11.92 18.94 9.69004 18.41 8.46004H18.4Z" fill="#4A271F"/>
<path d="M20.26 4.9C19.95 3.6 19.44 2.88 19.32 2.9C19.2 2.93 19.08 3.79995 19.39 5.09995C19.7 6.39995 20.56 8.55 20.67 8.52C20.78 8.49 20.57 6.18999 20.26 4.88999V4.9Z" fill="#4A271F"/>
<path d="M10.24 4.91998C13.63 6.53998 14.79 8.19997 15.04 7.90997C15.29 7.61997 18.55 6.55002 15.57 4.27002C11.6 1.23002 3.53999 1.39999 1.94999 3.61999C1.52999 4.19999 5.92997 2.84997 10.24 4.90997V4.91998Z" fill="#94653F"/>
<path d="M38.66 4.91998C35.27 6.53998 34.11 8.19997 33.86 7.90997C33.61 7.61997 30.35 6.55002 33.33 4.27002C37.3 1.23002 45.36 1.39999 46.95 3.61999C47.37 4.19999 42.97 2.84997 38.66 4.90997V4.91998Z" fill="#94653F"/>
</svg>
