<svg width="73" height="37" viewBox="0 0 73 37" fill="none" xmlns="http://www.w3.org/2000/svg">
<path fill-rule="evenodd" clip-rule="evenodd" d="M40.04 18.3199C46.55 12.2099 60.21 9.16004 68 5.54004C68.98 5.09004 73.35 3.51994 72.11 1.18994C61.45 7.18994 49.94 10.1999 39.02 16.8199C39.33 17.1299 39.73 18.0199 40.04 18.3199Z" fill="#A10000"/>
<path fill-rule="evenodd" clip-rule="evenodd" d="M39.28 14.5799C48.75 10.7299 56.79 0.760028 67.79 0.290028C69.09 0.230028 74.06 0.490043 71.59 2.68004C67.76 6.07004 47.97 10.36 39.73 17.39C39.55 16.07 39.46 15.8999 39.28 14.5799ZM65.71 1.68004C66.94 1.34004 68.05 1.49 68.19 2.01C68.33 2.53 67.45 3.23005 66.23 3.56005C65.01 3.89005 63.89 3.74997 63.75 3.22997C63.61 2.70997 64.49 2.01004 65.71 1.68004Z" fill="#D40000"/>
<path fill-rule="evenodd" clip-rule="evenodd" d="M1.21997 25.62C10.4 37.32 37.84 29.79 39.76 15.04C46.17 35.72 6.25997 46.68 1.21997 25.62Z" fill="#D40000"/>
<path fill-rule="evenodd" clip-rule="evenodd" d="M26.7099 29.6C22.8599 37.3 7.76993 37.18 4.17993 28.58C9.28993 31.57 17.5099 33.6 26.7099 29.6Z" fill="#EB414D"/>
<path fill-rule="evenodd" clip-rule="evenodd" d="M34.8998 23.9399C37.5198 21.4499 39.3198 18.44 39.7598 15.04C44.4098 30.04 24.6898 39.9201 11.5898 36.1801C15.2998 36.7801 18.4698 36.76 22.6798 35.79C27.1798 34.76 33.5498 32.56 34.7198 27.42C34.9598 26.38 34.8998 25.3399 34.8998 23.9399Z" fill="#A10000"/>
<path fill-rule="evenodd" clip-rule="evenodd" d="M65.71 1.67999C66.94 1.33999 68.05 1.48995 68.19 2.00995C68.24 2.19995 68.15 2.41995 67.96 2.63995C67.49 2.49995 66.77 2.51992 66 2.72992C65.23 2.93992 64.6 3.29997 64.27 3.65997C63.99 3.56997 63.81 3.42993 63.75 3.23993C63.61 2.71993 64.49 2.01988 65.71 1.68988V1.67999Z" fill="#A10000"/>
<path fill-rule="evenodd" clip-rule="evenodd" d="M62.78 2.83002C62.17 3.59002 62.49 3.99008 63.44 4.27008C65.13 4.78008 64.19 5.21008 62.9 5.65008C57.5 7.50008 52.85 8.47003 43.01 14.09C48.99 9.85003 54.71 5.34002 61.38 2.34003C62.56 1.81003 63.53 1.89002 62.78 2.83002Z" fill="#EB414D"/>
<path fill-rule="evenodd" clip-rule="evenodd" d="M17.22 8.42006C27.86 5.50006 37.96 8.46005 39.76 15.0401C41.57 21.6201 34.4 29.32 23.76 32.24C13.12 35.16 3.01996 32.2 1.21996 25.62C-0.590035 19.04 6.57996 11.3401 17.22 8.42006Z" fill="#878787"/>
<path fill-rule="evenodd" clip-rule="evenodd" d="M17.35 8.86003C27.75 6.01003 37.58 8.82008 39.32 15.1601C41.06 21.4901 34.04 28.9401 23.64 31.7901C13.24 34.6401 3.41001 31.83 1.67001 25.49C-0.0699871 19.15 6.95001 11.71 17.35 8.86003Z" fill="#575757"/>
<path fill-rule="evenodd" clip-rule="evenodd" d="M16.1199 17.9399C21.4999 7.62989 38.0499 8.35998 39.3199 19.15C39.1599 20.18 38.2699 21.9899 37.4299 23.0799C30.3899 21.1599 23.1499 19.8599 16.1199 17.9399Z" fill="#666666"/>
<path fill-rule="evenodd" clip-rule="evenodd" d="M17.35 8.86003C21.5 7.72003 25.57 7.49006 29.06 8.02006C19.18 8.20006 9.49 15.37 10.91 20.21C9.87 24 10.19 28.3301 12.03 32.6501C6.72 31.8701 2.71 29.32 1.66 25.5C-0.0799968 19.17 6.94 11.72 17.34 8.87004L17.35 8.86003Z" fill="#3D3D3D"/>
<path fill-rule="evenodd" clip-rule="evenodd" d="M11.1901 30.3199C11.4201 31.0999 11.7101 31.87 12.0401 32.65C6.73006 31.87 2.72005 29.32 1.67005 25.5C0.110054 19.82 5.59006 13.25 14.2401 9.89001C4.06006 14.61 -0.729945 26.8499 11.1901 30.3199Z" fill="#383838"/>
<path fill-rule="evenodd" clip-rule="evenodd" d="M38.2899 21.7701C37.9499 22.3501 37.6299 22.89 37.1699 23.44C34.3799 26.79 29.5499 29.5901 23.8999 31.1401C17.3099 32.9501 10.9499 32.4801 6.72988 30.2801C6.54988 29.9101 6.39988 29.53 6.28988 29.13C4.82989 23.79 10.7399 17.52 19.4999 15.11C27.4699 12.92 35.0399 14.6901 37.4499 19.0401C37.8899 19.8401 38.2199 20.84 38.2899 21.76V21.7701Z" fill="#7D7D7D"/>
<path fill-rule="evenodd" clip-rule="evenodd" d="M37.9599 22.29C35.4499 26.33 30.2199 29.98 23.6399 31.79C17.0499 33.6 10.6899 33.13 6.46988 30.93C6.28988 30.56 6.13988 30.18 6.02988 29.78C4.56988 24.44 10.4799 18.17 19.2399 15.76C27.9999 13.35 36.2899 15.7299 37.7499 21.0699C37.8599 21.4699 37.9299 21.88 37.9599 22.28V22.29Z" fill="#2B2B2B"/>
<path fill-rule="evenodd" clip-rule="evenodd" d="M37.9699 22.3001C36.6399 24.4501 34.3299 26.7 30.9899 28.72C28.3499 30.31 25.3799 31.3101 23.6299 31.7901C7.52986 36.2101 5.28986 21.95 22.4899 17.22C28.0699 15.69 33.4199 16.36 36.4499 18.63C37.0599 19.35 37.5699 20.42 37.7499 21.07C37.9299 21.72 37.9399 21.8901 37.9699 22.2901V22.3001Z" fill="#383838"/>
<path fill-rule="evenodd" clip-rule="evenodd" d="M19.0101 29.44C22.4401 28.9 26.2301 27.6301 28.7001 25.0401C30.8501 22.7901 30.9601 20.3701 28.5901 19.2901C27.5101 18.7901 24.9601 18.46 28.3401 18.07C36.8801 17.09 36.9501 23.9001 30.1501 27.5201C26.3601 29.5401 21.4601 30.6801 17.1501 30.4101C13.5101 30.1801 18.6201 29.5 19.0101 29.44Z" fill="#454545"/>
</svg>
