<svg width="52" height="52" viewBox="0 0 52 52" fill="none" xmlns="http://www.w3.org/2000/svg">
<path d="M0.530125 51.35C0.770125 51.59 1.54013 51.26 2.54013 50.55C2.75013 50.76 3.03013 50.82 3.16013 50.68C3.16013 50.68 3.69013 50.28 4.55013 49.56C4.88013 49.82 5.27013 49.88 5.47013 49.69C5.47013 49.69 7.00013 48.53 9.29013 46.53C9.59013 46.48 9.90013 46.33 10.1501 46.08C10.1501 46.08 19.4101 38.09 31.0901 26.47C31.0901 26.47 31.1601 26.4 31.2001 26.36C31.5201 26.04 31.8501 25.71 32.1801 25.38C32.2001 25.36 32.2101 25.35 32.2301 25.33C36.9701 20.58 42.0701 15.27 47.0801 9.68L47.7201 10.32C47.7201 10.32 47.7701 10.38 47.7901 10.41C47.8101 10.44 47.8301 10.47 47.8401 10.51C47.8701 10.58 47.8801 10.65 47.8801 10.72C47.8801 10.78 47.8701 10.84 47.8501 10.89C47.8301 10.96 47.7901 11.03 47.7401 11.09C47.6101 11.18 47.2801 11.42 46.8301 11.77C46.6901 11.87 46.5401 11.99 46.3901 12.11C46.2301 12.23 46.0601 12.36 45.8901 12.5C44.9101 13.28 43.6701 14.31 42.5001 15.44C42.3301 15.6 42.1601 15.76 42.0001 15.93C41.6701 16.26 41.3501 16.6 41.0401 16.94C40.7301 17.28 40.4401 17.62 40.1701 17.97C39.9301 18.28 39.7001 18.59 39.5001 18.91C39.2501 19.29 39.0401 19.67 38.8701 20.05C38.8001 20.22 38.8001 20.4 38.8601 20.56C38.8901 20.64 38.9401 20.71 39.0001 20.78C39.0601 20.84 39.1301 20.9 39.2201 20.93C39.2601 20.95 39.3101 20.96 39.3601 20.97H39.3801C39.4201 20.97 39.4601 20.98 39.5001 20.98C39.5001 20.98 39.5001 20.98 39.5101 20.98C39.7601 20.98 39.9901 20.83 40.1001 20.58C40.3401 20.03 40.7301 19.42 41.2301 18.79C41.7201 18.16 42.3201 17.51 42.9501 16.87C44.2101 15.61 45.6301 14.42 46.7301 13.55C47.2801 13.12 47.7501 12.76 48.0801 12.52C48.2501 12.4 48.3801 12.3 48.4701 12.24C48.5101 12.21 48.5501 12.18 48.5701 12.17C48.5801 12.17 48.5901 12.16 48.6001 12.15C48.6001 12.15 48.6601 12.1 48.6901 12.07C49.0601 11.7 49.2401 11.21 49.2401 10.73C49.2401 10.25 49.0501 9.76002 48.6901 9.39002L48.0001 8.70002C48.1701 8.51002 48.3401 8.32 48.5101 8.12C48.4701 7.98 48.4101 7.78 48.3401 7.56L50.7301 5.16999C51.7201 4.17999 51.7201 2.57002 50.7301 1.58002C49.7401 0.590024 48.1301 0.590024 47.1401 1.58002L46.6201 2.09998C46.5101 1.74998 46.4101 1.48 46.3401 1.3C46.3001 1.34 46.2501 1.38 46.1901 1.43C46.1701 1.45 46.1401 1.47001 46.1101 1.50001C46.0801 1.52001 46.0501 1.55002 46.0201 1.58002C45.9801 1.62002 45.9301 1.66002 45.8801 1.70002C45.8701 1.71002 45.8601 1.71999 45.8401 1.72999C45.7901 1.77999 45.7301 1.83001 45.6701 1.88001C45.6601 1.88001 45.6501 1.89998 45.6401 1.90998C45.5801 1.95998 45.5101 2.02002 45.4501 2.08002C45.4501 2.08002 45.4301 2.09998 45.4201 2.09998C45.3501 2.15998 45.2701 2.22999 45.2001 2.28999C45.2001 2.28999 45.2001 2.29 45.1901 2.3C45.1101 2.37 45.0301 2.44003 44.9401 2.52003C41.8001 5.27003 34.8401 11.5 26.5901 19.66C20.0801 26.09 12.7801 33.72 5.91013 41.79C5.72013 41.98 5.58013 42.21 5.51013 42.43C4.41013 43.71 3.32013 45.05 2.28013 46.45C2.12013 46.61 2.13013 46.87 2.26013 47.14C2.28013 47.19 2.31012 47.23 2.34012 47.28C2.34012 47.29 2.35013 47.3 2.36013 47.31C1.98013 47.77 1.61013 48.25 1.25013 48.73C1.12013 48.86 1.17013 49.12 1.36013 49.33C0.640127 50.33 0.310124 51.1 0.560124 51.35H0.530125Z" fill="#2B819E"/>
<path d="M46.3901 12.09C46.5501 11.97 46.7001 11.85 46.8301 11.75C46.6901 11.85 46.5401 11.97 46.3901 12.09Z" fill="#D7AB29"/>
<path d="M48.2801 10.31C48.3901 10.42 48.4401 10.56 48.4401 10.71C48.4401 10.84 48.3901 10.97 48.3001 11.08C48.0901 11.23 47.3801 11.74 46.4401 12.49C45.3201 13.38 43.8701 14.6 42.5501 15.91C41.8901 16.57 41.2601 17.26 40.7201 17.95C40.1801 18.64 39.7301 19.33 39.4201 20.03C39.2701 20.36 39.4201 20.75 39.7501 20.9C39.6701 20.94 39.5801 20.96 39.4901 20.96C39.7401 20.96 39.9701 20.81 40.0801 20.56C40.3201 20.01 40.7101 19.4 41.2101 18.77C41.7001 18.14 42.3001 17.49 42.9301 16.85C44.1901 15.59 45.6101 14.4 46.7101 13.53C47.2601 13.1 47.7301 12.74 48.0601 12.5C48.2301 12.38 48.3601 12.28 48.4501 12.22C48.4901 12.19 48.5301 12.16 48.5501 12.15C48.5601 12.15 48.5701 12.14 48.5801 12.13C48.5801 12.13 48.6401 12.08 48.6701 12.05C49.0401 11.68 49.2201 11.19 49.2201 10.71C49.2201 10.23 49.0301 9.74 48.6701 9.37L47.9801 8.67999C47.7701 8.90999 47.5601 9.15 47.3501 9.38L48.2801 10.31Z" fill="#D7AB29"/>
<path d="M39.4801 20.96C39.4801 20.96 39.4001 20.96 39.3601 20.95C39.4001 20.95 39.4401 20.96 39.4801 20.96Z" fill="#D7AB29"/>
<path d="M39.27 19.24C39.34 19.12 39.42 19 39.5 18.88C39.42 19 39.35 19.12 39.27 19.24Z" fill="#D7AB29"/>
<path d="M47.8901 10.7C47.8901 10.76 47.8801 10.82 47.8601 10.87C47.8801 10.81 47.8901 10.76 47.8901 10.7Z" fill="#D7AB29"/>
<path d="M38.9902 20.75C39.0502 20.81 39.1202 20.87 39.2102 20.9C39.2502 20.92 39.3002 20.93 39.3502 20.94C39.3002 20.94 39.2602 20.92 39.2102 20.9C39.1302 20.86 39.0502 20.81 38.9902 20.75Z" fill="#D7AB29"/>
<path d="M47.7301 10.31C47.7301 10.31 47.7801 10.37 47.8001 10.4C47.7801 10.37 47.7601 10.34 47.7301 10.31Z" fill="#D7AB29"/>
<path d="M39.42 20.02C39.73 19.33 40.18 18.63 40.72 17.94C41.26 17.25 41.89 16.56 42.55 15.9C43.87 14.58 45.32 13.37 46.44 12.48C47.38 11.73 48.09 11.22 48.3 11.07C48.39 10.96 48.44 10.84 48.44 10.7C48.44 10.55 48.39 10.41 48.28 10.3L47.35 9.37C47.26 9.47 47.18 9.56997 47.09 9.65997L47.73 10.3C47.73 10.3 47.78 10.36 47.8 10.39C47.82 10.42 47.84 10.45 47.85 10.49C47.88 10.56 47.89 10.63 47.89 10.7C47.89 10.76 47.88 10.82 47.86 10.87C47.84 10.94 47.8 11.01 47.75 11.07C47.62 11.16 47.29 11.4 46.84 11.75C46.7 11.85 46.55 11.97 46.4 12.09C46.24 12.21 46.07 12.34 45.9 12.48C44.92 13.26 43.68 14.29 42.51 15.42C42.34 15.58 42.17 15.74 42.01 15.91C41.68 16.24 41.36 16.58 41.05 16.92C40.74 17.26 40.45 17.6 40.18 17.95C39.94 18.26 39.71 18.57 39.51 18.89C39.43 19.01 39.36 19.13 39.28 19.25C39.13 19.51 38.99 19.77 38.88 20.03C38.81 20.2 38.81 20.38 38.87 20.54C38.9 20.62 38.95 20.69 39.01 20.76C39.07 20.82 39.14 20.88 39.23 20.91C39.27 20.93 39.32 20.94 39.37 20.95H39.39C39.43 20.95 39.47 20.96 39.51 20.96C39.51 20.96 39.51 20.96 39.52 20.96C39.61 20.96 39.7 20.94 39.78 20.9C39.45 20.75 39.3 20.36 39.45 20.03L39.42 20.02Z" fill="#C69E26"/>
<path d="M1.37011 49.36C1.37011 49.36 1.3501 49.34 1.3401 49.33C0.620101 50.33 0.290105 51.1 0.540105 51.35C0.780105 51.59 1.55011 51.26 2.55011 50.55L1.37011 49.37V49.36Z" fill="#F1E747"/>
<path d="M3.89014 48.9L3.21014 48.22L2.49014 47.5C2.49014 47.5 2.42014 47.43 2.39014 47.39C2.38014 47.37 2.36014 47.36 2.35014 47.34C2.35014 47.34 2.35013 47.33 2.34013 47.32C1.96013 47.78 1.59014 48.26 1.23014 48.74C1.10014 48.87 1.15013 49.13 1.34013 49.34C1.34013 49.35 1.36014 49.36 1.37014 49.37L2.55014 50.55C2.76014 50.76 3.04014 50.82 3.17014 50.68C3.17014 50.68 3.70013 50.28 4.56013 49.56C4.52013 49.53 4.48014 49.49 4.44014 49.45L3.89014 48.9Z" fill="#CBA021"/>
<path d="M8.31018 46.23L8.11018 46.03L4.58018 49.56C4.58018 49.56 4.49019 49.48 4.44019 49.44C4.48019 49.48 4.52018 49.51 4.56018 49.55C4.89018 49.81 5.28019 49.87 5.48019 49.68C5.48019 49.68 7.01019 48.52 9.30019 46.52C8.93019 46.58 8.56019 46.49 8.30019 46.23H8.31018Z" fill="#D7AB29"/>
<path d="M5.71012 43.64C5.40012 43.33 5.33012 42.87 5.47012 42.43C4.37012 43.71 3.28012 45.05 2.24012 46.45C2.08012 46.61 2.09012 46.87 2.22012 47.14L5.71012 43.65V43.64Z" fill="#D7AB29"/>
<path d="M2.31022 47.28C2.31022 47.28 2.25022 47.19 2.23022 47.14C2.25022 47.19 2.28022 47.23 2.31022 47.28Z" fill="#D7AB29"/>
<path d="M2.38009 47.38C2.38009 47.38 2.35009 47.35 2.34009 47.33C2.35009 47.35 2.36009 47.36 2.38009 47.38Z" fill="#D7AB29"/>
<path d="M6.74256 44.683L3.19995 48.2256L3.88587 48.9116L7.42847 45.369L6.74256 44.683Z" fill="#D7AB29"/>
<path d="M2.38022 47.38C2.38022 47.38 2.44022 47.46 2.48022 47.49L3.20022 48.21L6.74022 44.67L5.72022 43.65L2.23022 47.14C2.25022 47.19 2.28022 47.23 2.31022 47.28C2.31022 47.29 2.32022 47.3 2.33022 47.31C2.33022 47.31 2.33022 47.32 2.34022 47.33C2.35022 47.35 2.36022 47.36 2.38022 47.38Z" fill="#F1E747"/>
<path d="M3.89014 48.9L4.44014 49.45C4.44014 49.45 4.53014 49.54 4.58014 49.57L8.11014 46.04L7.43014 45.36L3.89014 48.9Z" fill="#F1E747"/>
<path d="M50.7101 1.56C49.7201 0.570005 48.1101 0.570005 47.1201 1.56L46.6001 2.08002C47.0801 3.53002 47.9001 6.17004 48.3201 7.53004L50.7101 5.14002C51.7001 4.15002 51.7001 2.54 50.7101 1.55V1.56ZM48.5501 1.60999C48.4501 1.70999 48.2801 1.70999 48.1701 1.60999C48.0701 1.50999 48.0701 1.33999 48.1701 1.22999C48.2701 1.12999 48.4401 1.12999 48.5501 1.22999C48.6501 1.32999 48.6501 1.49999 48.5501 1.60999ZM49.7401 2.14002C49.5001 2.38002 49.1201 2.38002 48.8801 2.14002C48.6401 1.90002 48.6401 1.52004 48.8801 1.28004C49.1201 1.04004 49.5001 1.04004 49.7401 1.28004C49.9801 1.52004 49.9801 1.90002 49.7401 2.14002Z" fill="#D7AB29"/>
<path d="M41.9101 10.47C43.3101 9.06997 43.3101 6.80002 41.9101 5.40002L41.7901 5.28003C43.0501 4.14003 44.1101 3.21 44.9201 2.5C41.7801 5.25 34.8201 11.48 26.5701 19.64L29.6601 22.73L41.9201 10.47H41.9101Z" fill="#2B819E"/>
<path d="M45.4401 2.04999C45.5101 1.98999 45.5701 1.94 45.6301 1.88C45.5701 1.93 45.5001 1.98999 45.4401 2.04999Z" fill="#2B819E"/>
<path d="M45.1901 2.27002C45.2701 2.20002 45.3401 2.14002 45.4101 2.08002C45.3401 2.14002 45.2601 2.21002 45.1901 2.27002Z" fill="#2B819E"/>
<path d="M45.8701 1.66998C45.8701 1.66998 45.9701 1.58999 46.0101 1.54999C45.9701 1.58999 45.9201 1.62998 45.8701 1.66998Z" fill="#2B819E"/>
<path d="M46.1001 1.47998C46.1001 1.47998 46.1501 1.42997 46.1801 1.40997C46.1601 1.42997 46.1301 1.44998 46.1001 1.47998Z" fill="#2B819E"/>
<path d="M13.0901 39.29L28.5101 23.87L28.2601 23.62L26.3301 21.69L25.4201 20.78C25.8001 20.4 26.1801 20.02 26.5601 19.65C20.0501 26.08 12.7501 33.71 5.88013 41.78C6.59013 40.94 7.31013 40.11 8.03013 39.29C9.43013 40.69 11.7001 40.69 13.1001 39.29H13.0901Z" fill="#2B819E"/>
<path d="M29.1801 24.54L28.5201 23.88L13.1001 39.3C11.7001 40.7 9.4301 40.7 8.0301 39.3C7.3101 40.13 6.5901 40.96 5.8801 41.79C5.6901 41.98 5.55011 42.21 5.48011 42.43C5.33011 42.87 5.41011 43.33 5.72011 43.64L6.7401 44.67L7.4201 45.35L8.1001 46.03L8.30011 46.23C8.56011 46.49 8.92011 46.58 9.30011 46.52C9.60011 46.47 9.91011 46.32 10.1601 46.07C10.1601 46.07 19.4201 38.08 31.1001 26.46L29.9901 25.35L29.1701 24.53L29.1801 24.54Z" fill="#2A7C97"/>
<path d="M46.3202 1.28003C46.3202 1.28003 46.2302 1.35997 46.1702 1.40997C46.1502 1.42997 46.1201 1.44998 46.0901 1.47998C46.0601 1.49998 46.0302 1.53 46.0002 1.56C45.9602 1.6 45.9102 1.63999 45.8602 1.67999C45.8502 1.68999 45.8402 1.70002 45.8202 1.71002C45.7702 1.76002 45.7101 1.80999 45.6501 1.85999C45.6401 1.85999 45.6301 1.88001 45.6201 1.89001C45.5601 1.94001 45.4901 2 45.4301 2.06C45.4301 2.06 45.4101 2.08002 45.4001 2.08002C45.3301 2.14002 45.2501 2.21002 45.1801 2.27002C45.1801 2.27002 45.1802 2.27003 45.1702 2.28003C45.0902 2.35003 45.0102 2.42 44.9202 2.5C44.1102 3.21 43.0601 4.14003 41.7901 5.28003L41.9102 5.40002C43.3102 6.80002 43.3102 9.06997 41.9102 10.47L29.6501 22.73L32.2402 25.32C36.9802 20.57 42.0801 15.26 47.0901 9.66998C47.1801 9.56998 47.2602 9.47001 47.3502 9.38C47.5602 9.15 47.7701 8.90999 47.9801 8.67999C48.1501 8.48999 48.3202 8.29998 48.4902 8.09998C48.4502 7.95998 48.3902 7.75998 48.3202 7.53998C47.9002 6.17998 47.0902 3.54003 46.6002 2.09003C46.4902 1.74003 46.3902 1.46998 46.3202 1.28998V1.28003Z" fill="#2A7C97"/>
<path d="M32.1902 25.37C31.8602 25.7 31.5402 26.02 31.2102 26.35C31.5302 26.03 31.8602 25.7 32.1902 25.37Z" fill="#2A7C97"/>
<path d="M26.5702 19.65C26.1902 20.02 25.8102 20.4 25.4302 20.78L26.3402 21.69C26.7202 21.31 27.1002 20.93 27.4802 20.55L29.4002 22.47C29.0202 22.85 28.6402 23.23 28.2602 23.61L28.5102 23.86L29.1702 24.52C29.5502 24.14 29.9302 23.76 30.3102 23.38L31.1302 24.2C30.7502 24.58 30.3702 24.96 29.9902 25.34L31.1002 26.45C31.1002 26.45 31.1702 26.38 31.2102 26.34C31.5302 26.02 31.8602 25.69 32.1902 25.36C32.2102 25.34 32.2202 25.33 32.2402 25.31L29.6502 22.72L26.5602 19.63L26.5702 19.65Z" fill="#D7AB29"/>
<path d="M29.4001 22.48L27.4801 20.56C27.1001 20.94 26.7201 21.31 26.3401 21.7L28.2701 23.63C28.6501 23.25 29.0301 22.87 29.4101 22.49L29.4001 22.48Z" fill="#F1E747"/>
<path d="M31.1302 24.21L30.3102 23.39C29.9302 23.77 29.5502 24.15 29.1702 24.53L29.9902 25.35C30.3702 24.97 30.7502 24.59 31.1302 24.21Z" fill="#F1E747"/>
<path d="M48.8801 1.28004C48.6401 1.52004 48.6401 1.90002 48.8801 2.14002C49.1201 2.38002 49.5001 2.38002 49.7401 2.14002C49.9801 1.90002 49.9801 1.52004 49.7401 1.28004C49.5001 1.04004 49.1201 1.04004 48.8801 1.28004Z" fill="#EABD37"/>
<path d="M48.1701 1.22997C48.0701 1.32997 48.0701 1.49997 48.1701 1.60997C48.2701 1.70997 48.4401 1.70997 48.5501 1.60997C48.6501 1.50997 48.6501 1.33997 48.5501 1.22997C48.4501 1.12997 48.2801 1.12997 48.1701 1.22997Z" fill="#EABD37"/>
</svg>
