<svg width="44" height="67" viewBox="0 0 44 67" fill="none" xmlns="http://www.w3.org/2000/svg">
<path d="M39.9399 2.29999L18.4799 1.85999C15.9099 1.63999 13.3599 3.50999 12.7999 6.02999L0.169918 58.13C-0.390082 60.65 1.99992 64.04 4.56992 64.26L26.0699 66.08C28.6399 66.3 31.1899 64.43 31.7499 61.91L43.6199 8.63999C44.1799 6.11999 42.4999 2.51999 39.9299 2.29999H39.9399Z" fill="#666666"/>
<path d="M3.8999 62.61C1.3299 62.39 -0.3101 60.17 0.2599 57.65L12.1299 4.38003C12.6899 1.86003 15.2399 -0.00997184 17.8099 0.210028L39.3099 2.03002C41.8799 2.25002 43.5199 4.47003 42.9499 6.99003L31.0799 60.26C30.5199 62.78 27.9699 64.65 25.3999 64.43L3.8999 62.61Z" fill="#B3B3B3"/>
<path d="M3.97 62.33C1.56 62.13 0.0200014 60.04 0.550001 57.68L12.42 4.41004C12.95 2.05004 15.34 0.290035 17.75 0.500035L39.25 2.32004C41.66 2.52004 43.2 4.61004 42.67 6.97004L30.8 60.24C30.27 62.6 27.88 64.36 25.47 64.15L3.97 62.33Z" fill="#666666"/>
<path d="M25.5299 63.87L4.02986 62.05C1.77986 61.86 0.339862 59.9 0.829862 57.7L12.6999 4.43001C13.1899 2.23001 15.4299 0.580024 17.6799 0.770024L39.1799 2.59002C41.4299 2.78002 42.8699 4.74002 42.3799 6.94002L30.5099 60.21C30.0199 62.41 27.7799 64.06 25.5299 63.87Z" fill="#333333"/>
<path d="M0.829934 57.7L12.6999 4.43001C13.1899 2.23001 15.4299 0.580024 17.6799 0.770024L39.1799 2.59002C41.4299 2.78002 42.8699 4.74002 42.3799 6.94002C42.3799 6.94002 0.339934 59.89 0.829934 57.69V57.7Z" fill="#4D4D4D"/>
<path d="M30.5099 57.18L2.15991 54.77L12.9899 6.16003L41.3399 8.57004L30.5099 57.18Z" fill="#8C8C8C"/>
<path d="M2.51001 54.52L13.22 6.47003L41 8.82004L30.29 56.87L2.51001 54.52Z" fill="#5DE6D4"/>
<g style="mix-blend-mode:screen" opacity="0.3">
<path d="M2.51001 54.52L13.22 6.47003L41 8.82004L2.51001 54.52Z" fill="#F9E9D9"/>
</g>
<path d="M17.0048 61.2594C18.2269 60.3669 18.5838 58.7756 17.8021 57.7052C17.0204 56.6348 15.396 56.4905 14.1739 57.383C12.9519 58.2754 12.5949 59.8667 13.3766 60.9371C14.1583 62.0075 15.7827 62.1518 17.0048 61.2594Z" fill="#B3B3B3"/>
<path d="M16.8869 61.0979C18.0108 60.277 18.3411 58.8162 17.6245 57.835C16.9079 56.8537 15.4159 56.7237 14.2919 57.5445C13.168 58.3653 12.8377 59.8261 13.5543 60.8074C14.2709 61.7886 15.7629 61.9187 16.8869 61.0979Z" fill="#666666"/>
<path d="M16.7513 60.9121C17.7593 60.1759 18.0563 58.8669 17.4146 57.9883C16.773 57.1096 15.4357 56.9941 14.4277 57.7302C13.4197 58.4663 13.1227 59.7753 13.7644 60.654C14.406 61.5326 15.7433 61.6482 16.7513 60.9121Z" fill="#4D4D4D"/>
<path d="M15.96 57.66C16.96 57.74 17.67 58.5 17.72 59.43C17.92 58.32 17.19 57.35 16.05 57.26C14.9 57.16 13.77 57.98 13.49 59.09C13.94 58.2 14.96 57.58 15.96 57.66Z" fill="#333333"/>
<path d="M31.3598 6.23001L23.6298 5.57002C23.4598 5.56002 23.3498 5.41002 23.3898 5.24002C23.4298 5.07002 23.5998 4.95002 23.7698 4.96002L31.4998 5.62001C31.6698 5.63001 31.7798 5.78001 31.7398 5.95001C31.6998 6.12001 31.5298 6.24001 31.3598 6.23001Z" fill="#8C8C8C"/>
<path d="M21.9499 5.12002C21.8899 5.38002 21.6399 5.56001 21.3799 5.54001C21.1199 5.52001 20.9499 5.29001 21.0099 5.04001C21.0699 4.78001 21.3199 4.60002 21.5799 4.62002C21.8399 4.64002 22.0099 4.87002 21.9499 5.12002Z" fill="#8C8C8C"/>
<path d="M21.8098 5.11003C21.7698 5.29003 21.5898 5.42003 21.4098 5.40003C21.2298 5.38003 21.1098 5.23003 21.1498 5.05003C21.1898 4.87003 21.3698 4.74003 21.5498 4.76003C21.7298 4.78003 21.8498 4.93003 21.8098 5.11003Z" fill="#B3B3B3"/>
<path d="M28.32 3.57004C28.28 3.73004 28.12 3.85003 27.95 3.84003C27.78 3.83003 27.68 3.68004 27.72 3.52004C27.76 3.36004 27.92 3.24003 28.09 3.25003C28.26 3.26003 28.36 3.41004 28.32 3.57004Z" fill="#666666"/>
<path d="M28.2499 3.56002C28.2199 3.68002 28.0999 3.77002 27.9799 3.76002C27.8599 3.75002 27.7799 3.64003 27.7999 3.52003C27.8199 3.40003 27.9499 3.31003 28.0699 3.32003C28.1899 3.33003 28.2699 3.44002 28.2499 3.56002Z" fill="#B3B3B3"/>
<path d="M39.1899 2.60004L17.6899 0.780034C15.4399 0.590034 13.1999 2.24004 12.7099 4.44004L12.6099 4.91004C13.0999 2.71004 15.3399 1.06004 17.5899 1.25004L39.0899 3.07004C41.3399 3.26004 42.7799 5.22003 42.2899 7.42003L42.3899 6.95003C42.8799 4.75003 41.4399 2.79004 39.1899 2.60004Z" fill="#333333"/>
</svg>
