<svg width="49" height="60" viewBox="0 0 49 60" fill="none" xmlns="http://www.w3.org/2000/svg">
<path d="M18.82 21.81C18.82 21.81 21.01 25.17 17.17 26.92C13.34 28.67 6.48999 25.08 2.23999 29.9C3.29999 23.2 5.81001 20.37 9.67001 18.95C14.34 17.24 20.25 18.88 18.82 21.81Z" fill="#388C38"/>
<path d="M15.62 21.35C12.89 21.96 11.6 24.88 11.77 27.36C12.31 27.39 12.84 27.42 13.36 27.44C13.13 25.26 13.79 22.57 15.62 21.35Z" fill="#8CC64E"/>
<path d="M9.39993 22.09C7.00993 22.99 6.70993 25.21 6.17993 27.56C6.64993 27.45 7.12992 27.37 7.60992 27.32C7.41992 25.29 8.19993 23.58 9.39993 22.09Z" fill="#8CC64E"/>
<path d="M11.8 21.35C11.3 20.11 10.42 19.64 9.46002 19.05C8.77002 19.32 8.13003 19.63 7.53003 20.01C8.97003 20.01 10.46 20.69 11.81 21.36L11.8 21.35Z" fill="#8CC64E"/>
<path d="M27.1 38.56C27.35 37.05 27.34 35.44 27.16 33.89C26.99 32.33 26.61 30.79 26.05 29.32C25.49 27.86 24.73 26.44 23.81 25.19C23.33 24.58 22.74 24.06 22.11 23.59C21.48 23.13 20.79 22.74 20.07 22.43C18.63 21.8 17.06 21.45 15.49 21.34C13.91 21.23 12.32 21.36 10.78 21.74C9.24003 22.12 7.77002 22.78 6.49002 23.72C5.86002 24.2 5.27002 24.74 4.77002 25.36C4.28002 25.98 3.86003 26.67 3.53003 27.39C3.85003 26.66 4.26002 25.97 4.74002 25.34C5.24002 24.71 5.81003 24.16 6.44003 23.66C7.71003 22.68 9.19002 22 10.74 21.59C12.29 21.17 13.9 21.02 15.51 21.1C17.11 21.19 18.71 21.52 20.2 22.14C20.95 22.44 21.66 22.83 22.33 23.3C22.99 23.77 23.61 24.31 24.13 24.94C25.12 26.23 25.91 27.64 26.51 29.14C27.11 30.64 27.52 32.21 27.73 33.82C27.93 35.43 27.98 37.04 27.73 38.68L27.1 38.56Z" fill="#506815"/>
<path d="M30.6901 23.6C30.6901 23.6 29.6901 27.48 33.8901 27.91C38.0801 28.34 43.4201 22.75 48.9901 25.96C45.8401 19.95 42.5601 18.07 38.4501 17.97C33.4801 17.84 28.4001 21.29 30.7001 23.6H30.6901Z" fill="#347A34"/>
<path d="M43.34 22.62C44.23 21.73 45.12 21.62 46.12 21.63C45.75 21.2 45.37 20.82 44.99 20.48C44.1 20.88 43.35 21.52 43.35 22.62H43.34Z" fill="#5CAA2E"/>
<path d="M32.51 22.94C33.04 24.8 34.02 26.22 34.32 27.94C34.67 27.94 35.02 27.91 35.39 27.84C35.56 25.73 33.44 24.48 32.51 22.93V22.94Z" fill="#5CAA2E"/>
<path d="M37.02 22.3C37.48 19.91 40.01 18.73 42.3 18.75C41.19 18.28 40.03 18.05 38.79 17.98C36.97 18.59 35.61 20.25 35.11 22.37C36.21 23.75 37.29 25.37 37.54 27.23C38.16 27 38.79 26.74 39.43 26.48C39.17 24.81 38.21 23.37 37.01 22.3H37.02Z" fill="#5CAA2E"/>
<path d="M38.24 22.17C40.18 22.65 41.01 24.19 41.16 25.82C41.71 25.62 42.27 25.44 42.84 25.3C42.11 23.44 41.32 21.56 38.25 22.17H38.24Z" fill="#5CAA2E"/>
<path d="M23.37 37.92C23.37 36.39 23.52 34.89 23.8 33.41C24.08 31.93 24.5 30.46 25.12 29.08C25.74 27.7 26.59 26.4 27.73 25.37C28.3 24.86 28.94 24.43 29.6 24.07C30.27 23.71 30.97 23.42 31.68 23.17C33.1 22.68 34.58 22.37 36.07 22.18C37.56 22 39.06 21.95 40.56 22.05C42.05 22.15 43.55 22.39 44.96 22.88C45.67 23.13 46.36 23.44 46.98 23.86C47.6 24.28 48.15 24.82 48.49 25.48C48.14 24.82 47.58 24.29 46.96 23.89C46.34 23.48 45.65 23.19 44.94 22.96C43.52 22.5 42.04 22.29 40.55 22.22C39.06 22.15 37.57 22.22 36.1 22.43C34.63 22.64 33.18 22.97 31.79 23.48C30.41 23.99 29.06 24.67 28 25.66C26.93 26.65 26.13 27.92 25.55 29.27C24.97 30.62 24.59 32.05 24.34 33.51C24.1 34.96 23.97 36.45 24 37.91L23.36 37.93L23.37 37.92Z" fill="#506815"/>
<path d="M23.2701 16.12C23.2701 16.12 23.6901 18.96 19.2801 18.69C12.7301 18.28 14.7101 9.64999 13.2601 5.42999C11.8101 1.20999 8.06006 0.410004 8.06006 0.410004C8.06006 0.410004 19.4901 1.59999 23.6901 7.25999C27.8901 12.92 26.4601 16.97 23.2701 16.12Z" fill="#5CAA2E"/>
<path d="M19.78 3.97C19.39 3.75 19 3.54001 18.59 3.35001C18.2 4.02001 17.86 5.54 18.61 7.44C18.26 5.36 19.21 4.37 19.78 3.98V3.97Z" fill="#8CC64E"/>
<path d="M14.0801 11.46C14.1401 12.11 14.2201 12.76 14.3401 13.38C15.5301 12.91 18.5601 12.11 22.4701 13.96C22.7301 10.69 23.8501 8.75001 24.2901 8.09001C24.1101 7.81001 23.9101 7.53002 23.7001 7.24002C23.4801 6.94002 23.2301 6.66001 22.9801 6.39001C22.2801 7.14001 20.7601 9.05002 21.1301 11.27C18.8901 10.57 15.5001 10.62 14.1001 11.46H14.0801Z" fill="#8CC64E"/>
<path d="M24.23 38.55C24.54 36.94 24.74 35.29 24.88 33.64C25.02 31.99 25.07 30.33 25.05 28.68C25.02 25.37 24.65 22.06 23.89 18.83C23.49 17.22 22.99 15.64 22.38 14.1C21.77 12.56 20.99 11.09 20.12 9.67998L19.44 8.63998L18.69 7.64998C18.45 7.30998 18.17 6.99999 17.9 6.68999C17.62 6.37999 17.37 6.04999 17.06 5.76999L16.18 4.88998C15.88 4.59998 15.55 4.34999 15.24 4.06999L14.77 3.65999C14.61 3.52999 14.44 3.40998 14.27 3.28998L13.26 2.54999L14.28 3.26999C14.45 3.38999 14.62 3.50999 14.79 3.62999L15.27 4.02998C15.59 4.29998 15.92 4.54998 16.22 4.83998L17.12 5.70999C17.43 5.98999 17.69 6.31998 17.97 6.61998C18.25 6.92998 18.54 7.22999 18.78 7.56999L19.55 8.55998L20.25 9.58998C21.15 10.99 21.96 12.46 22.6 14.01C23.24 15.55 23.77 17.14 24.2 18.76C25.02 22 25.44 25.34 25.53 28.68C25.57 30.35 25.54 32.02 25.43 33.69C25.32 35.36 25.15 37.02 24.85 38.68L24.23 38.55Z" fill="#506815"/>
<path d="M28.5001 20.19C28.5001 20.19 28.0801 23.03 32.4901 22.76C39.0401 22.35 37.0601 13.72 38.5101 9.49998C39.9601 5.27998 43.7101 4.47998 43.7101 4.47998C43.7101 4.47998 32.2801 5.66999 28.0801 11.33C23.8801 16.98 25.3101 21.04 28.5001 20.19Z" fill="#388C38"/>
<path d="M38.1 11.3C38.2 10.65 38.33 10.04 38.51 9.49998C38.53 9.42998 38.56 9.36999 38.58 9.29999C37.3 8.99999 35.79 9.14998 34.42 9.83998C34.68 8.25998 35.7 6.94998 36.83 5.97998C35.63 6.35998 34.38 6.83999 33.18 7.40999C32.27 8.86999 32.48 10.95 31.97 12.73C33.97 11.3 35.86 10.85 38.09 11.29L38.1 11.3Z" fill="#8CC64E"/>
<path d="M28.6801 18.8C31.3301 19.09 33.7 19.94 35.8 21.32C36.44 20.62 36.8601 19.72 37.1401 18.71C34.2601 18.34 31.6001 17.63 28.6801 18.8Z" fill="#8CC64E"/>
<path d="M30.28 15.29C32.86 15.29 35.45 15.04 37.57 16.62C37.64 16.12 37.69 15.6 37.74 15.09C35.36 14.12 32.47 13.65 30.29 15.29H30.28Z" fill="#8CC64E"/>
<path d="M30.21 9.21997C29.39 9.83997 28.67 10.54 28.08 11.33C28.04 11.38 28.01 11.43 27.97 11.48C28.01 13.26 28.67 14.96 29.96 16.25C29.96 13.91 29.96 11.56 30.21 9.21997Z" fill="#8CC64E"/>
<path d="M25.18 39.52C25.14 37.88 25.21 36.27 25.31 34.65C25.42 33.03 25.59 31.42 25.82 29.82C26.05 28.22 26.34 26.62 26.71 25.04C27.08 23.46 27.53 21.9 28.06 20.37C28.58 18.84 29.23 17.34 29.97 15.9C30.33 15.17 30.76 14.48 31.17 13.79L31.85 12.78C32.07 12.44 32.34 12.13 32.58 11.81C33.59 10.55 34.72 9.36998 36.02 8.39998C37.32 7.42998 38.74 6.64999 40.24 6.04999C38.75 6.66999 37.34 7.46999 36.06 8.45999C34.78 9.44999 33.68 10.63 32.69 11.9C32.45 12.23 32.19 12.53 31.98 12.87L31.32 13.88C30.92 14.58 30.51 15.27 30.16 15.99C29.45 17.43 28.83 18.92 28.34 20.45C27.84 21.98 27.42 23.53 27.08 25.1C26.75 26.67 26.48 28.26 26.28 29.86C25.88 33.05 25.7 36.28 25.8 39.47L25.16 39.5L25.18 39.52Z" fill="#506815"/>
<path d="M21.07 33.59C21.07 33.59 22.45 37.83 17.09 37.27C11.73 36.71 5.78001 32.97 0.76001 36.31C7.53001 29.14 10.88 27.2 16.9 27.95C22.47 28.64 22.01 32.61 21.07 33.59Z" fill="#1C5E1C"/>
<path d="M13.93 27.82C12.63 27.89 11.42 28.15 10.22 28.64C12.32 28.51 14.95 28.95 16.35 30.58C16.35 29.08 15.1 28.43 13.94 27.82H13.93Z" fill="#388C38"/>
<path d="M10.85 30.2C9.76001 30.2 8.35001 30.05 7.26001 30.32C5.36001 31.67 3.30001 33.62 0.76001 36.31C2.48001 35.17 4.30001 34.85 6.17001 34.96C6.69001 32.65 9.03001 31.24 10.85 30.2Z" fill="#388C38"/>
<path d="M8.01001 35.18C8.92001 35.34 9.83 35.56 10.75 35.81C11.75 32.93 14.91 31.78 17.53 30.9C13.82 30.1 9.66001 31.96 8.01001 35.18Z" fill="#388C38"/>
<path d="M24.18 39.59C23.74 38.1 23.03 36.64 22.15 35.33C21.26 34.02 20.18 32.82 18.86 31.93C18.21 31.48 17.5 31.11 16.76 30.81C16.02 30.52 15.24 30.33 14.45 30.2C12.86 29.99 11.24 30.1 9.67004 30.44C11.23 30.04 12.86 29.88 14.47 30.04C15.27 30.14 16.07 30.31 16.84 30.58C17.61 30.86 18.34 31.22 19.03 31.66C20.41 32.54 21.57 33.73 22.53 35.05C23.48 36.38 24.25 37.83 24.78 39.41L24.17 39.58L24.18 39.59Z" fill="#506815"/>
<path d="M15.3201 40.22L18.2101 59.89H35.6201L38.2501 40.22H15.3201Z" fill="#D18133"/>
<path d="M37.8101 43.5L38.2501 40.22H15.3201L18.2101 59.89H22.0401C21.6801 50.46 26.8801 41.01 37.8201 43.5H37.8101Z" fill="#C46C23"/>
<path d="M37.83 41.73H15.75C14.52 41.73 13.52 40.73 13.52 39.5C13.52 38.27 14.52 37.27 15.75 37.27H37.83C39.06 37.27 40.06 38.27 40.06 39.5C40.06 40.73 39.06 41.73 37.83 41.73Z" fill="#D18133"/>
<path d="M32.13 30.47C32.13 30.47 27.63 33.68 30.97 38.62C34.31 43.56 37.62 44.95 36.82 50.92C41.03 41.81 42.1 36.31 40.25 32.73C38.4 29.15 33.77 27.76 32.13 30.47Z" fill="#388C38"/>
<path d="M33.78 30.9C32.19 31.25 30.8001 32.3 29.9201 33.64C29.6601 34.57 29.62 35.68 30.08 36.93C30.46 34.55 31.69 32.19 33.77 30.9H33.78Z" fill="#8CC64E"/>
<path d="M39.3 31.33C38 30.86 36.5901 30.9 35.0601 31.85C37.0901 31.85 39.1101 32.06 40.5001 33.26C40.4201 33.08 40.3401 32.9 40.2501 32.72C39.9801 32.21 39.66 31.74 39.3 31.32V31.33Z" fill="#8CC64E"/>
<path d="M37.6 41.41C37.6 42.93 37 44.25 36.11 45.52C36.43 46.16 36.67 46.85 36.8 47.62C37.3 45.6 37.74 43.57 37.6 41.41Z" fill="#8CC64E"/>
<path d="M36.33 34.41C36.05 36.91 35.05 39.66 32.89 41.16C33.64 42.07 34.34 42.87 34.94 43.67C36.46 41.87 37.74 39.57 36.97 37.28C38.78 37.8 39.96 39.36 40.51 41.12C40.72 40.26 40.88 39.46 40.98 38.71C40.1 36.67 38.63 34.87 36.33 34.41Z" fill="#8CC64E"/>
<path d="M37.57 39.54C37.45 38.33 37.25 37.13 36.93 35.95C36.61 34.77 36.19 33.62 35.56 32.56C35.24 32.03 34.87 31.53 34.41 31.1C33.95 30.68 33.38 30.32 32.71 30.25C32.63 30.25 32.55 30.23 32.46 30.23L32.21 30.25C32.04 30.25 31.89 30.31 31.72 30.35C31.57 30.41 31.41 30.47 31.27 30.54C31.13 30.63 30.99 30.7 30.86 30.8C30.74 30.9 30.6 31 30.49 31.1L30.16 31.42C29.93 31.63 29.72 31.85 29.51 32.08C28.67 32.98 27.93 33.97 27.33 35.05C26.93 35.77 26.57 36.5 26.29 37.28H26.94C27.18 36.61 27.48 35.95 27.82 35.32C28.38 34.27 29.08 33.3 29.87 32.41C30.07 32.19 30.27 31.97 30.48 31.76L30.8 31.44C30.91 31.33 31.02 31.25 31.13 31.16C31.57 30.81 32.12 30.61 32.67 30.66C33.22 30.7 33.74 31 34.17 31.38C34.61 31.76 34.97 32.24 35.29 32.74C35.6 33.25 35.87 33.78 36.1 34.33C36.32 34.89 36.53 35.45 36.69 36.03C37.03 37.18 37.26 38.37 37.4 39.57C37.69 41.97 37.65 44.4 37.36 46.8C37.7 44.4 37.79 41.97 37.55 39.55L37.57 39.54Z" fill="#506815"/>
<path d="M25.4801 27.8C25.4801 27.8 23.5901 24.47 19.8701 26.38C16.1501 28.29 17.4101 39.28 21.6401 45.54C22.8401 40.97 24.8401 36.23 28.5401 33.64C32.2401 31.05 29.0701 27.03 25.4801 27.79V27.8Z" fill="#5CAA2E"/>
<path d="M18.6201 38.74C18.9601 39.95 19.3701 41.15 19.8701 42.29C20.1501 39.64 20.9701 37.29 21.9901 34.72C20.3901 35.52 19.0301 36.98 18.6101 38.74H18.6201Z" fill="#8CC64E"/>
<path d="M21.5401 38.7C20.8901 40.44 20.6801 42.19 20.6201 43.83C20.9401 44.43 21.2801 45.01 21.6401 45.55C21.8901 44.62 22.1701 43.68 22.4901 42.76C22.1001 41.42 21.5001 40.09 21.5301 38.7H21.5401Z" fill="#8CC64E"/>
<path d="M24.2201 29.31C23.0601 27.57 20.06 27.68 18.09 28.91C17.67 30.33 17.5701 32.18 17.7601 34.2C18.8701 32.39 20.8301 31.09 22.6301 31.54C24.2501 32.08 24.7301 34.69 25.4201 36.83C25.8701 36.21 26.3501 35.62 26.8801 35.08C26.5001 32.9 25.6201 30.94 24.2301 29.31H24.2201Z" fill="#8CC64E"/>
<path d="M26.2601 27.64C25.9401 27.68 25.5901 27.82 25.2801 27.99C24.9701 28.17 24.6701 28.37 24.4201 28.63C23.8901 29.12 23.4801 29.73 23.1601 30.38L22.9301 30.87L22.7401 31.38L22.6401 31.64L22.5601 31.9L22.4101 32.43C22.3201 32.79 22.2601 33.15 22.1801 33.51L22.0001 34.6C21.7801 36.06 21.6401 37.53 21.5701 39.01C21.5101 40.49 21.5101 41.97 21.6501 43.44C21.4801 41.97 21.4601 40.49 21.4901 39.01C21.5301 37.53 21.6501 36.05 21.8401 34.58L22.0001 33.48C22.0701 33.12 22.1301 32.75 22.2201 32.38L22.3601 31.84L22.4301 31.57L22.5201 31.31L22.7101 30.78L22.9401 30.27C23.2701 29.6 23.6801 28.95 24.2301 28.42C24.7801 27.89 25.4301 27.45 26.2301 27.32L26.2601 27.64Z" fill="#506815"/>
</svg>
