<svg width="73" height="40" viewBox="0 0 73 40" fill="none" xmlns="http://www.w3.org/2000/svg">
<g opacity="0.07">
<path d="M26.52 26.87C34.28 27.55 42.09 27.62 49.87 27.08C50.43 27.04 51 27 51.55 27.11C52.05 27.21 52.53 27.42 53.01 27.61C54.32 28.12 55.77 28.41 57.14 28.11C58.51 27.81 59.79 26.81 60.14 25.45C58.59 25.3 57.01 25.13 55.61 24.47C54.84 24.11 54.13 23.6 53.3 23.4C52.13 23.12 50.91 23.49 49.72 23.7C48.62 23.9 47.5 23.95 46.39 24.01C42.41 24.21 38.44 24.42 34.46 24.62C33.57 24.67 32.67 24.71 31.84 25.01C31.39 25.17 30.96 25.4 30.5 25.5C29.78 25.65 29.04 25.47 28.32 25.31C25.02 24.6 21.6 24.45 18.25 24.86C17.94 24.9 17.62 24.95 17.38 25.15C17.14 25.35 17.04 25.75 17.26 25.97C18.86 25.86 20.47 25.76 22.07 25.65C23.77 25.54 25.82 25.61 26.68 27.08" fill="#231F20"/>
<path d="M26.65 27.09C26.65 27.09 26.49 26.81 26.03 26.45C25.57 26.09 24.73 25.78 23.61 25.74C22.49 25.69 21.11 25.8699 19.51 25.9699C19.11 25.9999 18.7 26.03 18.27 26.06L17.62 26.11L17.23 26.13C17.07 26.13 16.97 25.85 16.97 25.73C16.91 25.09 17.6 24.76 18.06 24.73C18.54 24.68 19.04 24.62 19.54 24.57C21.56 24.4 23.81 24.42 26.18 24.74C27.36 24.86 28.6 25.24 29.79 25.34C30.38 25.41 30.96 25.08 31.56 24.88C32.17 24.64 32.87 24.51 33.54 24.45C36.21 24.3 39.01 24.15 41.92 23.99C44.83 23.82 47.84 23.7799 50.85 23.2199C51.61 23.0699 52.42 22.96 53.22 23.12C54.03 23.28 54.7 23.72 55.35 24.05C56.64 24.75 58.1 24.97 59.53 25.13L60.26 25.21C60.53 25.16 60.39 25.4 60.35 25.56C60.3 25.76 60.25 25.88 60.22 25.95C60.07 26.31 59.86 26.64 59.61 26.92C59.11 27.49 58.46 27.9099 57.77 28.1599C56.36 28.6599 54.88 28.46 53.59 28.05C51.16 26.72 48.6 27.54 46.21 27.49C43.83 27.59 41.62 27.62 39.59 27.61C35.54 27.59 32.27 27.4 30.02 27.23C28.89 27.13 28.02 27.05 27.43 27C26.84 26.94 26.53 26.88 26.53 26.88C26.53 26.88 26.84 26.8799 27.44 26.9099C28.03 26.9399 28.91 26.99 30.04 27.05C32.3 27.16 35.56 27.3 39.6 27.28C41.62 27.27 43.83 27.2199 46.2 27.0999C47.38 27.0299 48.61 26.96 49.87 26.88C50.49 26.85 51.19 26.76 51.84 26.99C52.46 27.2 53.09 27.42 53.73 27.64C54.96 28.03 56.36 28.2 57.61 27.75C58.23 27.52 58.81 27.15 59.25 26.64C59.47 26.39 59.65 26.1 59.78 25.8C59.82 25.55 59.98 25.74 59.48 25.64C58.04 25.49 56.5 25.26 55.13 24.52C54.46 24.17 53.82 23.77 53.13 23.63C52.43 23.49 51.69 23.59 50.94 23.73C47.89 24.3 44.83 24.34 41.95 24.5C39.05 24.65 36.25 24.79 33.58 24.93C32.92 24.98 32.31 25.09 31.7 25.32C31.08 25.52 30.48 25.8599 29.77 25.7899C28.44 25.6599 27.31 25.2799 26.12 25.1599C23.78 24.8199 21.57 24.79 19.57 24.93C19.07 24.98 18.58 25.03 18.11 25.07C17.65 25.11 17.25 25.3499 17.28 25.7199C17.28 25.8799 17.33 25.84 17.61 25.82L18.26 25.78C18.69 25.76 19.1 25.73 19.5 25.71C21.1 25.64 22.48 25.48 23.63 25.57C24.77 25.64 25.64 25.99 26.1 26.39C26.56 26.8 26.66 27.11 26.66 27.11L26.65 27.09Z" fill="#3F3B3C"/>
</g>
<path d="M0.69998 34.75C-0.0500198 33.38 0.529973 31.77 1.12997 30.38C2.61997 26.94 7.29994 26.58 10.4699 25.57C11.8399 25.13 13.22 24.4 14.51 23.77C15.48 23.29 16.67 22.94 17.5 22.28C19.2 20.92 19.8599 18.68 20.4799 16.74C21.0899 14.83 21.06 12.63 21.95 10.85C22.47 9.78999 23.29 9.57999 23.86 8.53999C24.29 7.75999 25.64 6.90002 26.36 6.32002C27.05 5.77002 28.01 5.53002 28.69 4.88002C29.36 4.25002 30.59 4.00003 31.46 3.77003C33.07 3.34003 34.16 3.31002 35.84 3.38002C37.67 3.46002 38.95 3.31003 40.64 4.02003C41.99 4.59003 47.36 5.10003 48.65 5.77003C50.36 6.66003 52.44 6.60002 54.07 5.88002C54.49 5.69002 55.02 5.63001 55.36 5.31001C55.72 4.98001 55.83 4.42002 56.07 4.01002C56.54 3.19002 57.41 2.34999 58.42 2.34999C58.38 2.01999 58.86 1.40001 59.13 1.19001C59.32 1.04001 59.6599 0.890007 59.9099 0.870007C60.3699 0.840007 60.33 0.930002 60.58 1.24C61.21 2.04 61.48 2.88004 61.63 3.84004C61.83 5.14004 62.55 5.19004 63.62 5.59004C64.9 6.06004 66.16 6.58002 67.32 7.32002C68.29 7.94002 69.13 8.70004 70.14 9.28004C70.75 9.63004 71.53 10 71.81 10.71C71.63 10.97 71.9099 11.72 71.7199 12.16C71.5299 12.59 71.18 13.08 70.87 13.42C70.29 14.07 68.76 14.54 67.9 14.8C67.31 14.98 66.73 14.96 66.09 14.96C65.25 14.96 64.39 15.12 63.56 15.23C62.22 15.41 60.84 15.25 59.53 15.69C58.42 16.06 58.1 16.81 57.49 17.74C56.51 19.23 55.99 19.84 56.11 21.59C56.22 23.25 56.4799 24.85 58.0399 25.81C58.8099 26.29 59.6799 26.43 60.5399 26.58C60.8199 26.63 61.75 26.77 61.64 27.19C61.52 27.67 60.2 27.29 59.82 27.52C59.18 27.91 60.8799 28.57 61.0999 28.69C60.6899 28.87 60.2999 29.1 59.8499 29.14C59.8599 29.24 59.9 29.34 59.95 29.43C59.14 29.57 58.61 28.75 57.82 28.79C57.82 29.13 57.8599 29.47 57.6599 29.68C57.1999 28.98 56.35 28.68 55.8 28.05C54.51 26.58 53.05 26.03 51.51 24.89C51.11 24.6 50.7499 24.33 50.2899 24.23C49.3799 24.03 48.3199 24.48 47.4099 24.57C46.1699 24.7 40.92 24.7 39.67 24.7H36.21C35.97 24.7 35.06 24.58 34.99 24.81C34.9 25.15 35.99 25.18 36.17 25.21C37.31 25.41 38.36 25.72 39.52 25.86C40.11 25.93 41.34 25.75 41.78 26.24C42.16 26.66 42.02 27.81 41.4799 28.1C40.5499 28.6 39.08 28.08 38.06 28.28C37.62 28.37 37.49 28.62 36.95 28.6C36.66 28.6 36.12 28.39 35.81 28.31C35.16 28.13 34.53 27.87 33.82 27.79C32.39 27.64 30.5899 28.04 29.2899 27.4C28.5799 27.05 28.69 26.08 28.2 25.81C27.53 25.44 26.41 25.7 25.65 25.57C24.31 25.35 23.0599 24.94 21.67 25.07C20.69 25.17 19.5499 25.19 18.5999 25.48C17.1299 25.93 15.59 26.34 14.07 26.71C13.38 26.88 12.75 27.09 12.07 27.33C11.35 27.58 10.75 28.02 9.99997 28.21C9.23997 28.41 8.46994 28.53 7.71994 28.75C6.30994 29.18 4.33997 29.62 3.30997 30.8C2.75997 31.42 2.26995 32.76 2.47995 33.64C2.94995 35.58 4.61995 35.7 6.22995 36.1C8.49995 36.67 10.83 36.8 13.15 37.05C14.72 37.22 16.27 37.84 17.81 37.89C18.32 37.91 20.61 37.73 20.5 38.69C19.78 38.81 18.78 38.61 18.03 38.54C16.02 38.35 14.04 37.97 12.02 37.88C10.03 37.79 8.14999 37.84 6.20999 37.53C4.06999 37.19 2.40997 36.94 0.999968 35.12C0.899968 34.99 0.809958 34.86 0.739958 34.72L0.69998 34.75Z" fill="#545454"/>
<path d="M17.78 37.92C16.23 37.87 14.69 37.25 13.12 37.08C10.8 36.83 8.48003 36.69 6.20003 36.13C4.60003 35.73 2.93003 35.61 2.45003 33.67C2.24003 32.79 2.74005 31.45 3.28005 30.83C4.31005 29.65 6.28002 29.21 7.69002 28.78C8.44002 28.55 9.20999 28.43 9.96999 28.24C10.71 28.05 11.31 27.61 12.04 27.36C12.72 27.12 13.35 26.91 14.04 26.74C15.55 26.37 17.1 25.96 18.57 25.51C19.34 25.28 20.22 25.22 21.06 25.15C20.86 24.54 20.88 23.83 20.94 23.17C20.64 23.1 20.34 23.03 20.05 22.96C20.31 22.73 20.12 22.2 19.77 22.2C19.8 21.88 19.77 21.55 19.67 21.23C19.47 21.47 19.08 21.54 18.8 21.39C18.7 21.33 18.63 21.25 18.57 21.15C18.26 21.57 17.91 21.95 17.5 22.28C16.67 22.94 15.48 23.29 14.51 23.77C13.22 24.41 11.84 25.14 10.47 25.57C7.29999 26.58 2.63002 26.94 1.13002 30.38C0.530022 31.77 -0.0599706 33.38 0.700029 34.75C0.770029 34.89 0.860039 35.02 0.960039 35.15C2.38004 36.97 4.04 37.22 6.17 37.56C8.11 37.87 9.99 37.82 11.98 37.91C14 38 15.98 38.38 17.99 38.57C18.74 38.64 19.73 38.84 20.46 38.72C20.58 37.75 18.29 37.93 17.77 37.92H17.78Z" fill="#FFE3D9"/>
<path d="M41.75 26.27C41.31 25.78 40.08 25.96 39.49 25.89C38.33 25.75 37.28 25.44 36.14 25.24C36.02 25.22 35.43 25.2 35.14 25.06C34.44 25.24 33.8 25.63 33.09 25.83C32.64 25.96 32.16 26 31.69 26.05C31.39 26.08 31.09 26.11 30.79 26.13C30.02 26.2 29.25 26.25 28.48 26.24C28.66 26.64 28.76 27.17 29.25 27.41C30.55 28.06 32.35 27.66 33.78 27.8C34.5 27.87 35.12 28.14 35.77 28.32C36.08 28.41 36.63 28.6 36.91 28.61C37.45 28.63 37.58 28.38 38.02 28.29C39.03 28.1 40.51 28.61 41.44 28.11C41.98 27.82 42.12 26.67 41.74 26.25L41.75 26.27Z" fill="#FFE3D9"/>
<path d="M61.61 27.22C61.71 26.8 60.79 26.66 60.51 26.61C59.65 26.46 58.79 26.32 58.01 25.84C57.96 25.81 57.93 25.78 57.89 25.75C57.82 25.85 57.75 25.94 57.68 26.05C57.13 26.85 57.01 26.58 55.82 26.96C55.49 27.07 55.16 27.14 54.85 27.2C55.17 27.46 55.47 27.75 55.77 28.09C56.32 28.72 57.16 29.02 57.63 29.72C57.83 29.51 57.78 29.17 57.79 28.83C58.58 28.79 59.11 29.61 59.92 29.47C59.87 29.38 59.83 29.28 59.82 29.18C60.27 29.14 60.67 28.91 61.07 28.73C60.85 28.61 59.15 27.94 59.79 27.56C60.17 27.33 61.49 27.7 61.61 27.23V27.22Z" fill="#FFE3D9"/>
<path d="M61.5499 2.21994C61.5199 2.08994 61.4899 1.95999 61.4299 1.82999C61.3699 1.71999 61.29 1.61999 61.21 1.51999C60.96 1.22999 60.6699 0.949961 60.3099 0.799961C59.9499 0.649961 59.5199 0.63 59.1899 0.84C59.0799 0.91 58.9799 1.00998 58.9099 1.12998C58.7399 1.46998 58.95 1.98 58.71 2.28C58.74 2.5 58.8499 2.71 58.9699 2.9C59.1599 3.21 59.3599 3.51999 59.5499 3.82999C59.6899 4.05999 59.84 4.28996 60.08 4.41996C60.35 4.55996 60.67 4.54 60.95 4.65C61.2 4.75 61.48 4.95997 61.7 4.80997C61.87 4.69997 61.8699 4.45998 61.8499 4.25998C61.7899 3.56998 61.6899 2.88994 61.5399 2.21994H61.5499Z" fill="#FFE3D9"/>
<path d="M57.34 2.86998C56.98 2.90998 56.6599 3.15 56.4499 3.45C56.2399 3.75 56.1299 4.1 56.0399 4.45C55.8899 5.05 55.7899 5.68002 55.9399 6.28002C56.0099 6.57002 56.1399 6.84998 56.2699 7.11998C56.4999 7.61998 56.7399 8.12997 57.1099 8.53997C57.4799 8.94997 57.9899 9.27001 58.5399 9.27001C58.6199 9.27001 58.6999 9.26996 58.7699 9.21996C58.8599 9.16996 58.9199 9.07998 58.9699 8.98998C59.7399 7.62998 60.5299 6.18999 60.4799 4.62999C60.4699 4.15999 60.3699 3.67998 60.0799 3.29998C59.7999 2.93998 59.3599 2.72001 58.9199 2.58001C58.4999 2.44001 58.0299 2.35999 57.6299 2.55999C57.3699 2.67999 57.1499 2.91997 56.8699 2.91997" fill="#FFE3D9"/>
<path opacity="0.15" d="M36.2101 27.42C36.5801 27.45 36.95 27.51 37.32 27.54C37.98 27.61 38.49 27.47 39.12 27.4C39.75 27.33 41.12 27.47 41.54 28.01C40.88 28.31 39.7901 28.08 39.0901 28.03C38.9101 28.02 38.2901 27.89 38.2101 27.94C37.9901 28.06 38.11 28.4 38.11 28.64C37.12 28.7 36.22 28.34 35.24 28.24C34.33 28.15 33.41 27.96 32.5 27.82C31.65 27.69 30.69 27.68 29.86 27.44C29.55 27.35 29.23 27.15 28.98 26.96C28.79 26.82 28.4701 26.41 28.7801 26.21C28.9901 26.07 29.41 26.35 29.61 26.41C29.98 26.52 30.37 26.67 30.76 26.79C31.22 26.93 31.73 26.98 32.22 27.03C33.34 27.14 34.4601 27.46 35.5901 27.4C35.8001 27.39 36 27.4 36.2 27.41L36.2101 27.42Z" fill="black"/>
<path d="M38.25 19.1C38.25 20.01 37.91 21.11 38.45 21.89C39.08 22.79 40.05 22.94 41.05 23.16C41.78 23.32 47.18 23.62 47.9 23.24C48.43 22.96 48.23 21.93 48.23 21.49C48.13 22 49.13 22.74 49.42 23.14C49.62 23.41 49.8 23.66 50.03 23.92C50.23 24.15 50.63 24.47 50.71 24.75C50.53 24.76 50.32 24.78 50.14 24.75C50.02 24.73 49.73 24.52 49.64 24.54C49.28 24.64 49.53 25.03 48.99 24.82C48.54 24.64 48.6 24.55 48.11 24.81C47.81 24.97 47.8 24.95 47.46 25.01C47.2 25.05 43 25.29 42.79 25.33C42.53 25.39 42.25 25.23 41.99 25.21C41.75 25.19 41.53 25.24 41.3 25.26C40.8 25.31 40.44 25.03 39.96 25.08C39.51 25.13 39.19 25.24 38.72 25.22C38.15 25.19 37.88 25.24 37.41 24.92C37.13 24.73 37.23 24.78 36.93 24.8C36.86 24.8 36.83 24.94 36.72 24.95C36.59 24.97 36.44 24.82 36.31 24.8C35.85 24.71 35.42 24.97 34.99 24.91C35.04 24.26 35.97 23.99 36.35 23.55C36.73 23.11 36.84 22.43 37.13 21.93C37.38 21.49 37.7 21.01 37.83 20.53C37.97 20.01 37.92 19.36 38.2 18.89C38.15 19.36 38.35 19.83 38.36 20.28" fill="#383838"/>
<path opacity="0.15" d="M1.34998 30.46C1.10998 30.85 0.820019 31.33 0.760019 31.78C0.660019 32.61 0.74 33.44 0.74 34.28C0.74 33.63 0.780019 32.84 1.01002 32.18C1.26002 31.44 1.85003 30.68 2.40003 30.13C2.92003 29.6 3.64 29.27 4.24 28.85C4.76 28.48 5.37003 28.27 5.96003 28.03C6.45003 27.83 6.91 27.61 7.43 27.46C8.12 27.26 8.72001 27.03 9.38001 26.74C10.39 26.3 11.43 26.03 12.42 25.54C12.89 25.31 13.33 25.01 13.78 24.75C14.29 24.46 14.82 24.2 15.31 23.89C15.65 23.68 16.01 23.52 16.35 23.32C16.67 23.13 16.88 22.89 17.15 22.67C17.48 22.41 17.82 22.19 18.13 21.9C18.27 21.77 18.41 21.63 18.54 21.49C18.61 21.42 18.82 21.06 18.9 21.05C18.75 21.08 18.43 21.52 18.31 21.61C18 21.85 17.63 22.04 17.28 22.22C16.79 22.48 16.28 22.69 15.79 22.93C15.33 23.15 14.93 23.52 14.48 23.77C14.25 23.9 14.03 24.04 13.78 24.14C13.13 24.42 12.44 24.63 11.76 24.85C11.45 24.95 11.14 25.11 10.82 25.22C10.04 25.49 9.30004 25.79 8.53004 26.07C7.00004 26.61 5.54001 27.31 4.13001 28.1C3.40001 28.51 2.51001 29.03 1.94001 29.67C1.71001 29.94 1.49001 30.18 1.31001 30.48L1.34998 30.46Z" fill="black"/>
<path opacity="0.13" d="M58.82 1.80999C58.87 1.40999 59.55 1.31998 59.86 1.42998C60.22 1.54998 60.68 2.17999 60.84 2.49999C61.06 2.94999 61.03 3.47998 61.21 3.92998C61.32 4.19998 61.58 4.45998 61.68 4.67998C61.68 4.10998 61.68 3.53001 61.71 2.96001C61.73 2.40001 61.34 1.88996 60.99 1.46996C60.71 1.12996 60.08 0.609984 59.61 0.679984C58.95 0.769984 58.92 1.29999 58.76 1.80999" fill="white"/>
<path opacity="0.13" d="M56.2001 6.16996C56.2201 5.76996 56.08 5.33997 56.16 4.92997C56.27 4.35997 56.6201 3.56998 57.1501 3.24998C57.4801 3.04998 57.9501 3.01998 58.3101 3.12998C59.0001 3.33998 59.11 3.85 59.42 4.4C59.59 4.71 59.85 4.92 60.11 5.15C60.47 5.47 60.9201 5.39998 61.3701 5.55998C61.6401 5.65998 61.8701 5.84995 62.1301 5.96995C62.4701 6.10995 62.8501 6.20998 63.2001 6.30998C63.8101 6.48998 64.3401 6.56999 64.9001 6.83C65.3701 7.04999 65.79 7.36996 66.23 7.60996C66.64 7.82996 67.0901 7.99 67.5001 8.21C68.2201 8.6 68.8601 9.10995 69.6301 9.40995C70.0601 9.57995 70.4001 9.85 70.7501 10.15C70.9801 10.35 71.27 10.54 71.47 10.76C71.78 11.11 71.9401 11.57 71.9401 12.02C72.3601 11.6 72.48 10.9 72.23 10.37C72.13 10.16 72.0501 10.01 71.8401 9.88999C71.5601 9.70999 71.2501 9.48995 70.9501 9.34995C70.6801 9.21995 70.3501 9.10999 70.0601 9.00999C69.3501 8.75999 68.76 8.15999 68.1 7.75999C67.19 7.20999 66.35 6.57999 65.36 6.13999C64.56 5.78999 63.6901 5.56999 62.8701 5.25999C62.0701 4.95999 61.0501 5.07 60.4501 4.46C60.2501 4.25 60.22 3.89996 60.04 3.66996C59.84 3.40996 59.7001 3.14996 59.4501 2.91996C58.9401 2.44996 58.2201 2.24996 57.5301 2.41996C56.9401 2.56996 56.5701 3.10995 56.4001 3.65995C56.3201 3.90995 56.2401 4.19 56.2101 4.46C56.1701 4.76 56.04 5.12997 56.04 5.42997" fill="white"/>
<path opacity="0.15" d="M59.4299 15.77C59.9999 15.33 60.6199 15.33 61.4099 15.22C62.0099 15.13 62.6299 15.22 63.2399 15.18C63.8999 15.15 64.4899 15.01 65.1499 15.01C65.7199 15.01 66.2799 14.86 66.8499 14.85C67.3899 14.85 67.8999 14.85 68.4299 14.7C68.8699 14.57 69.2399 14.29 69.6499 14.1C70.0799 13.9 70.4399 13.81 70.7499 13.44C71.0299 13.11 71.2499 12.73 71.4499 12.34C71.6299 11.98 71.9599 11.38 71.9499 10.99C71.3699 11.7 70.9799 12.53 70.0499 12.92C69.0199 13.36 67.7699 13.44 66.6599 13.62C65.4899 13.81 64.3899 13.84 63.2099 13.82C62.0399 13.8 60.8299 13.86 59.7699 14.4C58.9999 14.79 58.3699 15.4 57.8899 16.11C57.4099 16.82 57.2499 17.71 56.7699 18.4C55.7099 19.92 55.0299 21.68 55.3899 23.57C55.7399 25.39 57.2999 26.21 58.6499 27.25C58.8799 27.43 59.0799 27.57 59.0999 27.88C59.0999 28.07 58.8699 28.04 59.0199 28.29C59.1799 28.54 59.9199 28.7 60.1999 28.81C60.5899 28.96 61.1799 29.05 60.8799 28.42C60.7099 28.06 60.0899 28 60.0099 27.6C60.4599 27.44 61.4799 27.83 61.7299 27.39C62.0299 26.87 60.8899 26.62 60.5499 26.51C59.9699 26.32 59.3799 26.17 58.8099 25.96C58.3599 25.8 57.7699 25.72 57.3999 25.41C56.7399 24.86 56.5299 23.85 56.3899 23.05C56.1299 21.62 56.4899 20.26 57.1599 18.98C57.6899 17.95 58.3099 16.96 59.0799 16.09C59.1899 15.97 59.2999 15.87 59.4099 15.79L59.4299 15.77Z" fill="black"/>
<path d="M63.76 9.15995C63.84 9.35995 64.0099 9.54995 64.1899 9.65995C64.6199 9.92995 65.0999 9.74998 65.4099 9.37998C65.7599 8.96998 65.4999 8.28 65.0399 8.08C64.4499 7.83 63.48 8.46 63.76 9.15V9.15995Z" fill="black"/>
<path d="M64.4799 8.65996C64.4399 8.77996 64.3099 8.82996 64.1899 8.78996C64.0699 8.74996 64.0099 8.61998 64.0599 8.49998C64.0999 8.37998 64.2299 8.31998 64.3499 8.36998C64.4699 8.40998 64.5299 8.53996 64.4799 8.65996Z" fill="white"/>
<path d="M71.6198 12.23C71.6198 12.23 71.8299 12.1301 71.9999 11.7801C72.1499 11.4501 72.3699 10.8501 71.9399 10.3401C71.5399 9.81005 70.7399 9.55005 69.8999 9.08005C69.0699 8.61005 68.2598 7.98 67.3598 7.41C66.4598 6.84 65.5698 6.34002 64.7298 5.99002C63.8598 5.67002 63.0698 5.39005 62.4098 5.15005C61.7598 4.89005 61.1899 4.78 60.8099 4.66C60.4299 4.55 60.2198 4.48 60.2298 4.47C60.2298 4.45 60.4499 4.49004 60.8399 4.57004C61.2199 4.66004 61.7998 4.72003 62.4698 4.94003C63.1498 5.14003 63.9598 5.37 64.8598 5.66C65.7498 6 66.6699 6.49003 67.5899 7.06003C68.5099 7.64003 69.3198 8.28003 70.0998 8.75003C70.8598 9.21003 71.7398 9.51001 72.1798 10.17C72.6698 10.85 72.3398 11.57 72.1198 11.86C71.8698 12.2 71.6198 12.24 71.6198 12.24V12.23Z" fill="#202020"/>
<path d="M71.1299 11.47C71.3299 11.45 71.8799 11.57 71.8399 11.83C71.7999 12.08 71.2199 11.52 71.1299 11.47Z" fill="black"/>
<path d="M65.97 14.33C65.97 14.23 67.45 14.25 69.19 13.84C69.62 13.72 70.04 13.61 70.42 13.51C70.8 13.43 70.99 13.22 71.15 12.96C71.44 12.45 71.7 12.15 71.73 12.18C71.74 12.2 71.6 12.51 71.35 13.07C71.25 13.34 70.93 13.71 70.52 13.8C70.15 13.92 69.73 14.06 69.29 14.17C68.4 14.39 67.56 14.46 66.96 14.44C66.36 14.42 65.99 14.33 65.99 14.33H65.97Z" fill="#202020"/>
<path d="M71.3099 12.22C71.3099 12.22 70.8199 12.07 70.6899 11.49C70.5999 11.17 70.8999 10.94 71.0399 10.89C71.1899 10.81 71.2799 10.75 71.2899 10.76C71.2899 10.76 71.2299 10.86 71.0899 10.96C70.9499 11.07 70.7699 11.21 70.8299 11.46C70.9299 11.95 71.3099 12.21 71.3099 12.21V12.22Z" fill="#202020"/>
<path d="M64.24 15.91C64.24 15.91 64.38 15.56 64.7 15.05C65.02 14.54 65.51 13.86 66.12 13.16C66.72 12.46 67.29 11.85 67.77 11.48C68.22 11.07 68.55 10.89 68.55 10.89C68.55 10.89 68.25 11.11 67.83 11.54C67.38 11.94 66.83 12.56 66.24 13.26C65.03 14.64 64.25 15.91 64.25 15.91H64.24Z" fill="#202020"/>
<path d="M66.8199 13.56C66.8199 13.56 67.1999 12.99 67.7299 12.33C68.2499 11.65 68.74 11.19 68.78 11.21C68.78 11.21 68.34 11.75 67.83 12.41C67.3 13.06 66.8199 13.56 66.8199 13.56Z" fill="#202020"/>
<path d="M66.46 16.22C66.46 16.22 66.8499 15.23 67.3799 14.02C67.7299 13.12 68.17 12.42 68.39 12.11C68.48 12 68.5399 11.94 68.5399 11.94C68.5399 11.94 68.5099 12.01 68.4299 12.14C68.2499 12.46 67.8599 13.19 67.4899 14.08C66.9399 15.28 66.46 16.23 66.46 16.23V16.22Z" fill="#202020"/>
<path d="M67.6799 17.61C67.6799 17.61 67.98 16.19 68.46 14.47C68.82 13.35 68.94 12.34 69.08 11.79C69.16 11.49 69.0999 11.32 69.0999 11.32C69.0999 11.32 69.1799 11.49 69.1199 11.79C69.0099 12.34 68.94 13.38 68.59 14.5C68.13 16.22 67.6599 17.6 67.6599 17.6L67.6799 17.61Z" fill="#202020"/>
<path d="M67.4099 15.56C67.4099 15.56 67.6 14.92 67.89 14.15C68.18 13.38 68.45 12.77 68.45 12.77C68.45 12.77 68.2599 13.41 67.9699 14.18C67.6799 14.95 67.4099 15.56 67.4099 15.56Z" fill="#202020"/>
<path d="M70.4199 16.69C70.4199 16.69 70.17 15.58 69.96 14.19C69.85 13.5 69.7499 12.88 69.6799 12.42C69.6299 12.2 69.6499 12 69.6299 11.88C69.6099 11.75 69.5599 11.7 69.5599 11.7C69.5599 11.7 69.6299 11.74 69.6599 11.87C69.6999 12 69.6799 12.18 69.7399 12.41C69.8399 12.86 69.9599 13.49 70.0699 14.18C70.2999 15.56 70.4099 16.69 70.4099 16.69H70.4199Z" fill="#202020"/>
<path d="M60.4399 15.33C60.4399 15.33 60.8899 15.13 61.6599 14.98C62.4299 14.83 63.52 14.76 64.71 14.78C65.9 14.78 66.97 14.91 67.7 14.7C68.44 14.52 68.76 14.11 68.78 14.15C68.78 14.15 68.5499 14.65 67.7599 14.91C66.9899 15.2 65.88 15.12 64.71 15.12C63.53 15.12 62.46 15.14 61.7 15.21C60.93 15.26 60.46 15.36 60.45 15.33H60.4399Z" fill="#202020"/>
<path d="M63.44 9.15004C63.44 9.15004 63.38 8.94004 63.54 8.65004C63.7 8.37004 64.04 8.03002 64.55 7.94002C65.12 7.88002 65.44 8.33003 65.6 8.57003C65.78 8.84003 65.78 9.05001 65.78 9.05001C65.77 9.05001 65.7 8.87003 65.51 8.64003C65.32 8.44003 65 8.07002 64.58 8.13002C64.15 8.20002 63.82 8.48999 63.65 8.71999C63.48 8.95999 63.46 9.15004 63.44 9.15004Z" fill="#202020"/>
<path d="M63.61 9.25002C63.65 9.19002 64 9.69005 64.62 9.78005C65.26 9.72005 65.56 9.13999 65.54 9.15999C65.54 9.15999 65.51 9.3 65.38 9.48C65.24 9.65 65 9.88999 64.62 9.90999C63.87 9.84999 63.58 9.25003 63.61 9.26003V9.25002Z" fill="#202020"/>
<path d="M57.5099 9.11C57.5099 9.11 56.8199 8.58003 56.1699 7.33003C55.8799 6.69003 55.6399 5.87 55.6999 4.92C55.7399 4.42 55.8699 4 56.0799 3.49C56.3199 3 56.7899 2.62001 57.3199 2.43001C58.3799 2.08001 59.64 2.39001 60.15 3.31001C60.39 3.76001 60.4199 4.21 60.4699 4.61C60.5099 5.02 60.4899 5.40001 60.4399 5.75001C60.2599 7.16001 59.5999 7.8 59.5999 7.8C59.5499 7.79 60.0799 7.05998 60.1799 5.71998C60.2099 5.07998 60.1799 4.19999 59.8299 3.47999C59.4299 2.75999 58.3399 2.52001 57.4499 2.81001C56.9999 2.97001 56.6299 3.26999 56.4299 3.65999C56.2599 4.04999 56.0999 4.54002 56.0699 4.94002C55.9899 5.79002 56.1899 6.59003 56.4199 7.20003C56.9799 8.39003 57.5599 9.06004 57.4999 9.09004L57.5099 9.11Z" fill="#202020"/>
<path d="M59.18 4.77002C59.18 4.77002 59.52 5.18001 59.77 6.01001C59.88 6.43001 59.85 6.99 59.52 7.5C59.33 7.75 59.03 7.86 58.84 8.06C58.65 8.25 58.65 8.58001 58.49 8.89001C58.39 9.05001 58.28 9.17 58.09 9.25C57.78 9.29 57.7499 8.96998 57.7299 8.84998C57.6899 8.52998 57.7299 8.24002 57.7299 7.96002C57.7799 7.73002 57.5499 7.48001 57.4799 7.26001C57.3699 7.04001 57.3 6.80998 57.26 6.59998C57.17 6.16998 57.26 5.82003 57.3 5.59003C57.34 5.37003 57.36 5.26998 57.36 5.22998C57.41 5.22998 57.2 5.76001 57.36 6.57001C57.41 6.77001 57.49 6.98001 57.61 7.20001C57.69 7.44001 57.92 7.62002 57.89 7.96002C57.89 8.24002 57.86 8.53001 57.89 8.82001C57.91 8.96001 57.97 9.1 58.02 9.06C58.11 9.02 58.24 8.89998 58.3 8.78998C58.44 8.53998 58.44 8.17998 58.68 7.91998C58.91 7.67998 59.1999 7.58 59.3499 7.38C59.6399 6.95 59.6899 6.43003 59.5999 6.03003C59.3999 5.23003 59.12 4.77001 59.14 4.76001L59.18 4.77002Z" fill="#202020"/>
<path d="M58.1399 5.65999C58.1399 5.65999 58.5999 5.56002 59.0499 5.88002C59.5199 6.15002 59.6599 6.63002 59.5999 6.63002C59.5999 6.63002 59.4299 6.25 58.9799 5.99C58.5499 5.71 58.1399 5.65999 58.1399 5.65999Z" fill="#202020"/>
<path d="M61.0099 7.06C61.0099 7.06 60.7699 6.63 60.5699 6.06C60.4399 5.47 60.3699 4.98999 60.3699 4.98999C60.3699 4.98999 60.5099 5.45003 60.6499 6.03003C60.8599 6.59003 61.0299 7.03999 60.9999 7.04999L61.0099 7.06Z" fill="#202020"/>
<path d="M58.55 2.51003C58.55 2.51003 58.51 2.10005 58.65 1.40005C58.69 1.06005 59.04 0.550032 59.58 0.510032C60.16 0.430032 60.64 0.840003 60.99 1.23C61.34 1.62 61.66 2.06004 61.8 2.52004C61.96 2.99004 61.91 3.42003 61.9 3.76003C61.86 4.46003 61.65 4.86 61.63 4.85C61.59 4.84 61.68 4.42003 61.63 3.76003C61.6 3.42003 61.6 3.02004 61.45 2.64004C61.31 2.24004 61.02 1.88002 60.69 1.50002C60.37 1.13002 59.98 0.830018 59.63 0.870018C59.23 0.890018 59.0099 1.16999 58.9099 1.46999C58.7199 2.07999 58.65 2.55002 58.55 2.50002V2.51003Z" fill="#202020"/>
<path d="M58.9 2.78995C58.84 2.76995 59.02 2.47999 59.14 2.13999C59.18 1.77999 59.24 1.41994 59.31 1.46994C59.27 1.45994 59.2699 1.75995 59.2399 2.16995C59.1099 2.55995 58.9 2.79996 58.9 2.79996V2.78995Z" fill="#202020"/>
<path d="M56.32 10.58C56.32 10.58 56.11 10.46 55.9 10.27C55.68 10.08 55.52 9.91003 55.53 9.89003C55.55 9.87003 55.73 10.01 55.95 10.2C56.17 10.39 56.33 10.56 56.32 10.58Z" fill="#202020"/>
<path d="M56.2999 10.88C56.2999 10.88 56.0799 10.85 55.8599 10.69C55.6299 10.54 55.5299 10.33 55.5499 10.33C55.5499 10.33 55.6699 10.51 55.8999 10.64C56.1199 10.78 56.3099 10.86 56.3099 10.88H56.2999Z" fill="#202020"/>
<path d="M56.52 11.1C56.52 11.1 56.2799 11.14 56.0499 10.97C55.8299 10.81 55.6799 10.65 55.6799 10.65C55.6899 10.63 55.87 10.77 56.08 10.91C56.3 11.06 56.5099 11.0901 56.5099 11.0901L56.52 11.1Z" fill="#202020"/>
<path d="M56.7299 11.35C56.7299 11.35 56.5199 11.37 56.2999 11.24C56.0899 11.11 55.95 10.97 55.95 10.97C55.95 10.96 56.12 11.07 56.33 11.19C56.54 11.31 56.7299 11.34 56.7299 11.35Z" fill="#202020"/>
<path d="M56.6699 11.5C56.6699 11.5 56.4899 11.48 56.2999 11.38C56.1099 11.29 55.9499 11.2 55.9599 11.18C55.9599 11.16 56.1299 11.22 56.3299 11.3C56.5299 11.38 56.6799 11.48 56.6699 11.5Z" fill="#202020"/>
<path d="M56.88 11.76C56.88 11.76 56.76 11.75 56.62 11.71C56.48 11.67 56.36 11.63 56.37 11.61C56.37 11.6 56.49 11.62 56.63 11.66C56.77 11.7 56.88 11.74 56.88 11.76Z" fill="#202020"/>
<path d="M57.2 12.31C57.2 12.31 56.9899 12.25 56.7399 12.12C56.4999 11.99 56.31 11.86 56.32 11.85C56.32 11.83 56.53 11.92 56.78 12.04C57.02 12.16 57.21 12.3 57.2 12.31Z" fill="#202020"/>
<path d="M57.59 12.55C57.59 12.55 57.3299 12.55 57.0499 12.41C56.7799 12.27 56.5699 12.13 56.5699 12.12C56.5699 12.1 56.8 12.21 57.08 12.34C57.35 12.47 57.59 12.52 57.59 12.55Z" fill="#202020"/>
<path d="M57.7999 12.8C57.7999 12.8 57.5399 12.82 57.2399 12.72C56.9299 12.63 56.7499 12.42 56.7699 12.41C56.7799 12.4 56.9699 12.57 57.2599 12.66C57.5499 12.75 57.7999 12.78 57.7999 12.8Z" fill="#202020"/>
<path d="M57.7999 12.93C57.7999 12.93 57.5799 12.9901 57.3399 12.9001C57.0899 12.8201 56.9299 12.67 56.9499 12.66C56.9599 12.65 57.1299 12.7601 57.3699 12.8401C57.6099 12.9201 57.8099 12.94 57.8099 12.94L57.7999 12.93Z" fill="#202020"/>
<path d="M58.44 13.44C58.44 13.44 58.19 13.44 57.91 13.35C57.61 13.27 57.43 13.08 57.45 13.06C57.47 13.04 57.66 13.18 57.94 13.26C58.22 13.34 58.45 13.42 58.45 13.43L58.44 13.44Z" fill="#202020"/>
<path d="M58.6999 13.8C58.6999 13.8 58.4999 13.79 58.2499 13.73C57.9999 13.66 57.8398 13.5 57.8598 13.49C57.8598 13.49 58.0299 13.61 58.2699 13.65C58.5099 13.7 58.7099 13.79 58.6999 13.81V13.8Z" fill="#202020"/>
<path d="M58.95 14.06C58.95 14.06 58.77 14.1 58.54 14.06C58.3 14.03 58.17 13.87 58.19 13.86C58.19 13.86 58.33 13.97 58.55 13.99C58.76 14.02 58.95 14.04 58.95 14.05V14.06Z" fill="#202020"/>
<path d="M13.9 23.96C13.9 23.96 14.56 23.59 15.77 22.96C16.37 22.64 17.12 22.27 17.92 21.74C18.76 21.24 19.42 20.39 19.95 19.3C20.5 18.23 20.81 16.94 21.01 15.52C21.21 14.11 21.45 12.55 22.14 11.05C23.44 8.02997 26.24 5.37999 29.76 4.00999C31.52 3.34999 33.37 3.02999 35.15 3.06999C36.95 3.11999 38.57 3.67 40.17 3.83C43.36 4.27 46.24 4.82997 48.56 5.61997C49.7 6.03997 50.75 6.39 51.71 6.4C52.67 6.44 53.48 6.20996 54.11 5.97996C55.36 5.46996 55.96 4.98 55.98 5.02C55.98 5.02 55.41 5.52996 54.15 6.09996C53.52 6.35996 52.69 6.61996 51.7 6.59996C50.71 6.60996 49.62 6.26997 48.48 5.86997C46.17 5.12997 43.32 4.60999 40.12 4.19999C38.51 4.04999 36.86 3.50996 35.14 3.47996C33.41 3.43996 31.62 3.76 29.91 4.4C26.49 5.73 23.77 8.29995 22.5 11.22C21.83 12.67 21.59 14.17 21.37 15.59C21.15 17.01 20.82 18.35 20.23 19.44C19.69 20.54 18.93 21.46 18.06 21.93C17.23 22.45 16.47 22.79 15.85 23.09C14.61 23.66 13.92 23.9699 13.92 23.9699L13.9 23.96Z" fill="#202020"/>
<path d="M19.2 21.75C19.2 21.75 19.19 21.36 19.43 20.97C19.64 20.56 20.01 20.37 20.02 20.43C20 20.41 19.73 20.63 19.52 21.02C19.3 21.4 19.2 21.74 19.2 21.74V21.75Z" fill="#202020"/>
<path d="M19.8401 21.43C19.8401 21.43 19.8001 21.51 19.6901 21.62C19.6401 21.67 19.5701 21.73 19.4901 21.79C19.4701 21.81 19.3801 21.86 19.2801 21.89C19.1201 21.97 19.3201 21.77 19.3401 21.72C19.6001 21.35 19.85 21.07 19.85 21.07C19.85 21.07 19.67 21.39 19.41 21.76C19.41 21.76 19.3501 21.8 19.4601 21.74C19.5401 21.7 19.62 21.64 19.67 21.6C19.78 21.51 19.8401 21.44 19.8401 21.44V21.43Z" fill="#202020"/>
<path d="M20.0201 21.93C20.0201 21.93 19.98 22.01 19.85 22.11C19.82 22.13 19.78 22.15 19.74 22.17C19.69 22.18 19.54 22.22 19.55 22.17C19.62 22.07 19.7001 21.97 19.7801 21.86C20.0601 21.51 20.1501 21.15 20.1501 21.15C20.1801 21.15 20.13 21.54 19.85 21.91C19.8 21.99 19.6801 22.13 19.7001 22.1C19.6701 22.11 19.7401 22.1 19.8201 22.06C19.9401 21.99 20.0201 21.93 20.0201 21.93Z" fill="#202020"/>
<path d="M20.8401 21.93C20.8401 21.93 20.62 21.98 20.35 22.04C20.08 22.11 19.8401 22.08 19.8401 22.06C19.8401 22.04 20.0601 22.01 20.3301 21.95C20.6001 21.88 20.8401 21.91 20.8401 21.93Z" fill="#202020"/>
<path d="M20.1101 22.98C20.1101 22.98 20.0401 22.64 20.2801 22.32C20.5001 21.98 20.8401 21.91 20.8401 21.93C20.8401 21.93 20.5401 22.04 20.3501 22.36C20.1401 22.67 20.1201 22.97 20.1201 22.97L20.1101 22.98Z" fill="#202020"/>
<path d="M20.66 22.39C20.66 22.39 20.56 22.56 20.42 22.73C20.27 22.9 20.22 23.06 20.25 23.07C20.2 23.1 20.15 22.84 20.34 22.67C20.49 22.48 20.65 22.38 20.66 22.39Z" fill="#202020"/>
<path d="M20.93 22.48C20.93 22.48 20.84 22.62 20.7 22.74C20.56 22.86 20.44 22.95 20.43 22.94C20.42 22.94 20.52 22.81 20.66 22.68C20.8 22.55 20.92 22.46 20.93 22.48Z" fill="#202020"/>
<path d="M20.38 23.84C20.38 23.84 20.87 23.58 21.2 23.01C21.29 22.89 21.32 22.66 21.28 22.71C21.17 22.74 21.08 22.85 20.98 22.91C20.87 22.96 20.83 23.01 20.77 23.05C20.69 23.1 20.69 23 20.7 23.02C20.7 23.02 20.7 23.08 20.75 23.02C20.79 22.99 20.85 22.89 20.93 22.84C21.01 22.78 21.08 22.66 21.24 22.61C21.42 22.52 21.35 22.77 21.33 22.81C21.31 22.89 21.28 22.96 21.24 23.04C20.91 23.63 20.38 23.88 20.38 23.84Z" fill="#202020"/>
<path d="M21.38 23.39C21.38 23.39 21.26 23.61 20.98 23.72C20.7 23.82 20.47 23.76 20.47 23.76C20.47 23.74 20.7 23.74 20.95 23.63C21.2 23.53 21.37 23.38 21.38 23.39Z" fill="#202020"/>
<path d="M20.88 24.61C20.88 24.61 20.64 24.3 20.88 23.94C21.1 23.61 21.37 23.47 21.37 23.47C21.38 23.47 21.15 23.69 20.96 23.99C20.76 24.3 20.89 24.6 20.87 24.61H20.88Z" fill="#202020"/>
<path d="M21.1599 24.16C21.1599 24.16 21.09 24.26 21.01 24.35C20.92 24.44 20.86 24.53 20.84 24.52C20.82 24.52 20.84 24.39 20.94 24.28C21.04 24.17 21.1499 24.13 21.1599 24.15V24.16Z" fill="#202020"/>
<path d="M21.52 24.8C21.52 24.8 21.48 24.81 21.42 24.81C21.35 24.81 21.31 24.81 21.02 24.77C21.28 24.67 21.26 24.66 21.28 24.63C21.31 24.59 21.35 24.5 21.35 24.5C21.37 24.5 21.28 24.5 21.25 24.5C21.17 24.5 21.11 24.47 21.11 24.47C21.11 24.47 21.16 24.45 21.25 24.44C21.27 24.44 21.29 24.44 21.32 24.44C21.32 24.44 21.42 24.42 21.41 24.47C21.38 24.57 21.37 24.6 21.34 24.67C21.31 24.72 21.31 24.72 21.31 24.72C21.28 24.72 21.57 24.79 21.53 24.79L21.52 24.8Z" fill="#202020"/>
<path d="M28.16 25.75C28.16 25.8 27.79 25.86 27.19 25.93C26.59 25.99 25.71 26.05 24.78 25.7C23.12 25.02 21.55 25.14 21.57 25.03C21.57 25.03 21.94 24.95 22.55 24.94C23.15 24.94 24.04 24.98 24.91 25.36C25.73 25.66 26.57 25.65 27.17 25.67C27.77 25.67 28.15 25.71 28.15 25.76L28.16 25.75Z" fill="#202020"/>
<path d="M28.2 26.11C28.2 26.11 28 25.86 27.99 25.47C27.99 25.28 28.01 25.11 28.08 24.99C28.15 24.87 28.25 24.88 28.25 24.88C28.23 24.87 28.04 25.09 28.09 25.47C28.11 25.83 28.21 26.11 28.21 26.11H28.2Z" fill="#202020"/>
<path d="M28.34 25.61C28.34 25.61 28.31 25.7 28.27 25.79C28.23 25.88 28.22 25.97 28.2 25.97C28.19 25.97 28.17 25.88 28.21 25.77C28.26 25.66 28.32 25.6 28.33 25.61H28.34Z" fill="#202020"/>
<path d="M28.7 26.3C28.7 26.3 28.49 26.2 28.45 25.95C28.4 25.71 28.45 25.52 28.47 25.52C28.5 25.52 28.53 25.7 28.58 25.91C28.63 26.12 28.71 26.27 28.7 26.29V26.3Z" fill="#202020"/>
<path d="M28.89 26.39C28.89 26.39 28.8 26.23 28.77 26.01C28.73 25.79 28.7299 25.61 28.7499 25.62C28.7699 25.62 28.8299 25.79 28.8699 26C28.9099 26.21 28.91 26.39 28.89 26.39Z" fill="#202020"/>
<path d="M29.3 26.43C29.3 26.43 29.16 26.32 29.04 26.14C28.92 25.96 28.83 25.8 28.85 25.79C28.87 25.79 28.99 25.91 29.11 26.08C29.24 26.25 29.32 26.41 29.3 26.43Z" fill="#202020"/>
<path d="M29.66 26.25C29.66 26.25 29.49 26.29 29.37 26.16C29.31 26.1 29.26 26.05 29.24 26C29.23 25.97 29.22 25.96 29.22 25.93C29.28 25.88 29.25 25.93 29.26 25.93L29.25 25.95C29.25 25.95 29.21 25.97 29.27 25.93C29.27 25.93 29.3 25.94 29.32 25.96L29.47 26.09C29.58 26.19 29.67 26.25 29.68 26.27L29.66 26.25Z" fill="#202020"/>
<path d="M30.25 26.39C30.25 26.39 30.04 26.39 29.83 26.25C29.62 26.13 29.47 25.96 29.52 25.94C29.51 25.94 29.67 26.05 29.88 26.17C30.08 26.29 30.25 26.39 30.25 26.39Z" fill="#202020"/>
<path d="M30.61 25.71C30.61 25.71 30.44 25.82 30.4 26.03C30.37 26.24 30.4 26.44 30.38 26.44C30.38 26.44 30.24 26.27 30.28 26.01C30.32 25.7 30.63 25.7 30.61 25.72V25.71Z" fill="#202020"/>
<path d="M30.57 26.39C30.57 26.39 30.53 26.3 30.53 26.19C30.53 26.08 30.57 25.99 30.57 25.99C30.57 25.99 30.61 26.08 30.61 26.19C30.61 26.3 30.59 26.39 30.57 26.39Z" fill="#202020"/>
<path d="M31.16 25.75C31.16 25.75 31.01 25.87 30.86 26.06C30.7 26.24 30.5801 26.4 30.5701 26.39C30.5701 26.39 30.63 26.2 30.79 26C30.95 25.8 31.16 25.74 31.16 25.75Z" fill="#202020"/>
<path d="M31.57 25.75C31.57 25.75 31.45 25.89 31.28 26.04C31.1 26.21 30.89 26.22 30.89 26.2C30.89 26.2 31.06 26.13 31.22 25.97C31.38 25.81 31.56 25.72 31.57 25.74V25.75Z" fill="#202020"/>
<path d="M32.16 25.75C32.16 25.75 31.9899 25.96 31.7199 26.13C31.4599 26.32 31.14 26.32 31.16 26.25C31.16 26.29 31.39 26.21 31.66 26.03C31.92 25.86 32.15 25.73 32.16 25.75Z" fill="#202020"/>
<path d="M32.9799 25.71C32.9799 25.71 32.9099 25.81 32.7999 25.91C32.7399 25.97 32.66 26.03 32.58 26.1C32.53 26.13 32.3699 26.18 32.4199 26.06C32.4899 25.9 32.5 25.9 32.52 25.83C32.56 25.72 32.5699 25.66 32.5599 25.69C32.5599 25.74 32.5799 25.69 32.4899 25.77C32.4399 25.82 32.3899 25.86 32.3499 25.89C32.2699 25.95 32.22 25.99 32.21 25.98C32.21 25.97 32.2399 25.91 32.2999 25.83C32.3399 25.79 32.3799 25.74 32.4199 25.69C32.4399 25.68 32.5599 25.51 32.6799 25.45C32.6399 25.7 32.63 25.78 32.59 25.86C32.54 26.02 32.5499 25.97 32.5499 25.97C32.5899 25.93 32.7099 25.85 32.7599 25.82C32.8999 25.73 32.9699 25.71 32.9699 25.71H32.9799Z" fill="#202020"/>
<path d="M33.4799 25.66C33.4799 25.66 33.3599 25.8 33.1899 25.93C33.0099 26.06 32.8499 26.14 32.8399 26.12C32.8299 26.1 32.9499 25.98 33.1299 25.85C33.3099 25.73 33.4699 25.65 33.4799 25.66Z" fill="#202020"/>
<path d="M36.48 28.3401C36.48 28.3401 34.54 28.24 32.13 28.11C30.94 28.06 29.78 27.94 29.07 27.45C28.72 27.21 28.55 26.8801 28.51 26.6501C28.49 26.4201 28.51 26.29 28.52 26.29C28.58 26.26 28.52 26.87 29.2 27.24C29.85 27.61 30.95 27.68 32.14 27.73C33.34 27.82 34.44 27.87 35.22 28.02C36.01 28.15 36.47 28.3401 36.47 28.3401H36.48Z" fill="#202020"/>
<path d="M35.8401 28.21C35.8401 28.21 36.0801 28.16 36.4501 28.19C36.8301 28.21 37.3201 28.44 37.8301 28.44C37.9601 28.43 38.0401 28.4 38.0101 28.38C38.0101 28.32 37.92 28.21 37.85 28.14C37.69 27.98 37.5201 27.85 37.3701 27.76C37.0601 27.56 36.8601 27.56 36.8401 27.57C36.8101 27.54 37.0901 27.43 37.4401 27.61C37.6101 27.69 37.8101 27.8 38.0101 27.98C38.1001 28.08 38.2101 28.16 38.2601 28.36C38.2701 28.66 37.9601 28.69 37.8401 28.7C37.2101 28.7 36.76 28.44 36.41 28.38C36.05 28.32 35.8401 28.2 35.8401 28.2V28.21Z" fill="#202020"/>
<path d="M41.5701 28.16C41.5701 28.16 41.34 28.2 40.97 28.21C40.6 28.21 40.0801 28.21 39.5201 28.16C38.9701 28.04 38.4801 27.95 38.1101 27.91C37.7501 27.87 37.5201 27.87 37.5201 27.84C37.5101 27.78 38.4501 27.7 39.5601 27.95C40.6701 28.01 41.5701 28.11 41.5701 28.16Z" fill="#202020"/>
<path d="M35.0201 25.2C35.0201 25.2 34.83 25.19 34.73 25C34.63 24.82 34.6401 24.65 34.6501 24.65C34.6501 24.65 34.6801 24.81 34.7801 24.96C34.8701 25.13 35.0201 25.19 35.0201 25.19V25.2Z" fill="#202020"/>
<path d="M35.0701 24.75C35.0701 24.75 35.0901 24.83 35.0701 24.94C35.0501 25.05 35.0001 25.12 34.9901 25.11C34.9801 25.11 34.9701 25.01 34.9901 24.92C35.0101 24.83 35.0601 24.75 35.0701 24.75Z" fill="#202020"/>
<path d="M35.52 24.89C35.52 24.89 35.52 24.83 35.53 24.76C35.55 24.72 35.52 24.76 35.52 24.76C35.43 24.85 35.34 24.93 35.24 24.94C35.13 24.96 35.11 24.89 35.11 24.89C35.12 24.93 35.28 24.89 35.45 24.69L35.58 24.58C35.58 24.58 35.68 24.5 35.67 24.53C35.66 24.6 35.62 24.7 35.59 24.77C35.55 24.86 35.52 24.89 35.52 24.89Z" fill="#202020"/>
<path d="M36.11 24.43C36.11 24.43 36.05 24.6701 35.83 24.8401C35.62 25.0301 35.39 25.09 35.38 25.06C35.37 25.04 35.55 24.91 35.74 24.74C35.93 24.56 36.09 24.41 36.11 24.43Z" fill="#202020"/>
<path d="M36.5701 24.21C36.5701 24.21 36.5501 24.5 36.3201 24.76C36.1001 25.04 35.78 25.07 35.79 25.03C35.79 25.03 36.05 24.95 36.23 24.69C36.43 24.45 36.54 24.21 36.56 24.21H36.5701Z" fill="#202020"/>
<path d="M36.3401 24.98C36.3401 24.98 36.3901 24.81 36.4901 24.62C36.5901 24.44 36.7001 24.3 36.7001 24.3C36.7001 24.3 36.65 24.47 36.55 24.66C36.45 24.85 36.3501 24.99 36.3401 24.98Z" fill="#202020"/>
<path d="M36.84 25.3C36.84 25.3 36.71 25.12 36.73 24.87C36.75 24.62 36.82 24.44 36.84 24.44C36.86 24.44 36.85 24.64 36.84 24.88C36.84 25.11 36.85 25.3 36.84 25.31V25.3Z" fill="#202020"/>
<path d="M38.3401 25.11C38.3401 25.11 38.2101 25.13 38.0101 25.14C37.8301 25.14 37.4401 25.16 37.2701 24.8C37.2001 24.6 37.2901 24.5 37.2101 24.58C37.1201 24.66 37.0501 24.76 37.0101 24.85C36.9301 25.03 36.94 25.16 36.93 25.16C36.93 25.16 36.86 25.03 36.93 24.82C36.96 24.72 37.0301 24.6 37.1501 24.51C37.2101 24.46 37.3701 24.39 37.3301 24.55C37.3301 24.65 37.34 24.7 37.37 24.77C37.48 25.03 37.8201 25.05 38.0101 25.08C38.2101 25.1 38.3401 25.12 38.3401 25.12V25.11Z" fill="#202020"/>
<path d="M37.7501 24.66C37.7501 24.66 37.8901 24.74 37.9801 24.88C38.0701 25.01 38.1101 25.16 38.1101 25.16C38.1101 25.16 37.9901 25.09 37.8801 24.94C37.7701 24.8 37.7301 24.66 37.7501 24.66Z" fill="#202020"/>
<path d="M39.0199 24.98C39.0199 24.98 38.73 25.13 38.34 25.05C37.94 24.97 37.7699 24.65 37.7899 24.66C37.7899 24.65 37.9999 24.9 38.3599 24.97C38.7099 25.05 39.0199 24.97 39.0199 24.98Z" fill="#202020"/>
<path d="M41.36 28.18C41.36 28.18 41.62 28.14 41.69 28.09C41.72 28.05 41.5 27.87 41.29 27.72C41.07 27.56 40.81 27.44 40.49 27.38C39.92 27.28 39.38 27.18 39.06 26.99C38.72 26.85 38.49 26.84 38.49 26.81C38.49 26.79 38.73 26.75 39.11 26.84C39.48 26.98 39.98 27 40.54 27.11C40.89 27.16 41.22 27.33 41.44 27.52C41.55 27.61 41.65 27.71 41.74 27.8C41.81 27.87 41.94 28.07 41.87 28.19C41.68 28.3 41.54 28.22 41.49 28.22C41.42 28.2 41.38 28.17 41.38 28.17L41.36 28.18Z" fill="#202020"/>
<path d="M42.3 27.18C42.3 27.18 42.24 27.01 41.89 26.92C41.72 26.9 41.49 26.74 41.33 26.64C41.14 26.53 40.92 26.47 40.67 26.43C40.24 26.4 39.83 26.36 39.52 26.34C39.04 26.29 38.77 26.28 38.76 26.3C38.72 26.23 39.06 26.17 39.52 26.19C39.84 26.19 40.25 26.18 40.69 26.19C40.97 26.21 41.24 26.3 41.45 26.43C41.68 26.59 41.77 26.69 41.96 26.75C42.12 26.83 42.26 26.91 42.32 27.02C42.39 27.14 42.3 27.21 42.3 27.19V27.18Z" fill="#202020"/>
<path d="M40.75 27.39C40.72 27.32 41.24 27.16 41.82 27.23C41.95 27.23 42.12 27.23 42.2 27.2C42.26 27.22 42.24 27.1 42.2 27.06C42.07 26.95 41.94 26.9 41.95 26.88C41.95 26.88 42.08 26.85 42.28 26.96C42.33 26.99 42.38 27.07 42.39 27.13C42.43 27.21 42.35 27.35 42.26 27.37C42.09 27.43 41.98 27.41 41.81 27.43C41.2 27.39 40.76 27.41 40.74 27.39H40.75Z" fill="#202020"/>
<path d="M41.4499 26.69C41.4499 26.69 41.5599 26.64 41.7799 26.61C41.8799 26.59 42.0099 26.57 42.1599 26.54C42.3399 26.49 42.3399 26.51 42.1899 26.38C41.5599 26.03 40.4799 25.87 39.3399 25.8C38.1699 25.77 37.1099 25.55 36.3799 25.31C35.6499 25.1 35.1899 24.96 35.2199 24.9C35.2199 24.93 35.6599 25.03 36.4199 25.18C37.1599 25.35 38.1799 25.54 39.3499 25.58C40.5199 25.66 41.5899 25.82 42.2799 26.25C42.3499 26.3 42.4599 26.42 42.4699 26.56C42.3899 26.64 42.2299 26.65 42.1799 26.66C42.0199 26.68 41.8899 26.68 41.7799 26.69C41.5699 26.69 41.4499 26.69 41.4499 26.69Z" fill="#202020"/>
<path d="M49.5201 24.98C49.5201 24.98 49.08 24.87 48.92 24.38C48.86 24.22 48.9001 24.32 48.8901 24.29C48.8801 24.36 48.87 24.42 48.86 24.47C48.83 24.62 48.79 24.72 48.79 24.72C48.79 24.72 48.79 24.63 48.8 24.47C48.81 24.36 48.83 24.24 48.85 24.1C48.85 24.06 48.8601 23.98 48.8701 23.96L48.91 24.11C48.95 24.24 48.9701 24.32 48.9901 24.35C49.1501 24.8 49.5101 24.98 49.5101 24.98H49.5201Z" fill="#202020"/>
<path d="M49.38 24.11C49.38 24.11 49.42 24.27 49.44 24.46C49.46 24.65 49.52 24.78 49.51 24.79C49.51 24.81 49.3601 24.68 49.3401 24.47C49.3201 24.27 49.37 24.11 49.37 24.11H49.38Z" fill="#202020"/>
<path d="M49.7 24.25C49.7 24.25 49.76 24.37 49.76 24.52C49.76 24.67 49.73 24.79 49.7 24.79C49.67 24.79 49.64 24.67 49.64 24.52C49.64 24.37 49.68 24.25 49.7 24.25Z" fill="#202020"/>
<path d="M50.74 25.07C50.74 25.07 50.43 25.08 50.08 24.91C49.7 24.72 49.74 24.32 49.74 24.34C49.75 24.33 49.77 24.68 50.11 24.85C50.44 25 50.75 25.04 50.74 25.07Z" fill="#202020"/>
<path d="M50.7 24.71C50.7 24.71 50.76 24.8 50.78 24.91C50.8 25.02 50.8 25.11 50.78 25.12C50.76 25.13 50.73 25.04 50.7 24.92C50.67 24.8 50.67 24.71 50.7 24.71Z" fill="#202020"/>
<path d="M57.0599 28.93C57.0599 28.93 56.6799 28.78 56.0099 28.51C55.6699 28.33 55.3699 28.03 55.0099 27.77C54.6599 27.49 54.2699 27.18 53.8599 26.85C53.0699 26.18 52.2999 25.58 51.7299 25.22C51.1599 24.84 50.7299 24.77 50.7399 24.75C50.7399 24.75 51.1999 24.71 51.8299 25.04C52.4599 25.37 53.2399 25.9 54.0699 26.57C54.4799 26.9 54.8799 27.22 55.2399 27.51C55.6099 27.8 55.88 28.1 56.15 28.27C56.73 28.6 57.0999 28.9 57.0599 28.93Z" fill="#202020"/>
<path d="M56.56 28.63C56.56 28.63 56.82 28.58 57.16 28.81C57.34 28.91 57.47 29.2 57.56 29.37C57.62 29.46 57.68 29.57 57.74 29.63C57.81 29.68 57.76 29.6701 57.83 29.5901C57.87 29.4001 57.81 29.11 57.76 28.89C57.72 28.66 57.61 28.5 57.51 28.35C57.31 28.05 57.15 27.89 57.15 27.89C57.16 27.86 57.38 27.97 57.64 28.25C57.76 28.38 57.93 28.58 57.99 28.83C58.05 29.08 58.16 29.31 58.1 29.68C58.1 29.89 57.71 30.04 57.56 29.87C57.42 29.77 57.34 29.65 57.27 29.54C57.14 29.28 57.12 29.1401 56.98 29.0301C56.75 28.8001 56.53 28.7 56.55 28.65L56.56 28.63Z" fill="#202020"/>
<path d="M59.78 29.42C59.78 29.42 60.02 29.38 60.27 29.32C60.47 29.28 59.9399 28.89 59.5499 28.71C59.1399 28.49 58.6699 28.46 58.3599 28.28C58.0499 28.12 57.96 27.91 57.96 27.91C57.98 27.89 58.1199 28.05 58.4199 28.14C58.7099 28.24 59.1799 28.24 59.6699 28.47C59.8999 28.59 60.1099 28.71 60.2899 28.87C60.3799 28.95 60.4599 29.03 60.5099 29.15C60.5799 29.29 60.46 29.49 60.34 29.5C59.95 29.56 59.78 29.43 59.78 29.43V29.42Z" fill="#202020"/>
<path d="M57.78 28.81C57.78 28.81 57.93 28.76 58.18 28.77C58.45 28.74 58.74 29.04 59.01 29.15C59.32 29.23 59.65 29.27 59.87 29.33C60.1 29.39 60.24 29.44 60.24 29.45C60.24 29.46 60.1 29.47 59.86 29.47C59.62 29.45 59.3 29.46 58.92 29.38C58.53 29.22 58.37 28.96 58.13 28.95C57.92 28.9 57.78 28.85 57.78 28.82V28.81Z" fill="#202020"/>
<path d="M59 27.54C59 27.54 58.55 27.24 57.96 26.62C57.37 25.99 56.57 25.09 55.95 23.91C55.81 23.61 55.68 23.31 55.62 22.99C55.55 22.66 55.68 22.35 55.73 22.08C55.89 21.53 56.03 21.04 56.15 20.63C56.41 19.81 56.57 19.3 56.57 19.3C56.57 19.3 56.46 19.82 56.25 20.66C56.15 21.08 56.02 21.57 55.89 22.12C55.84 22.4 55.73 22.68 55.8 22.96C55.86 23.25 55.98 23.54 56.12 23.83C56.73 24.97 57.51 25.88 58.06 26.53C58.63 27.17 59.01 27.54 59.01 27.54H59Z" fill="#202020"/>
<path d="M60.1099 28.87C60.1099 28.87 60.3399 28.87 60.6999 28.85C60.7899 28.85 60.8899 28.83 60.9799 28.81C61.0899 28.78 61.0399 28.79 61.0499 28.77C61.0799 28.8 60.93 28.67 60.84 28.61L60.5199 28.39L60.4399 28.33H60.4299C60.0099 28.07 59.4999 28 59.1899 27.84C58.8499 27.73 58.6899 27.49 58.7499 27.48C58.7499 27.5 58.8999 27.6 59.2499 27.67C59.5699 27.79 60.0699 27.78 60.5799 28.09H60.5699L60.6599 28.15L61.0099 28.4C61.1199 28.49 61.2099 28.53 61.3499 28.74C61.4599 28.95 61.0999 29.04 61.0099 29.03C60.8899 29.04 60.7899 29.03 60.6899 29.03C60.3099 29 60.0899 28.91 60.0999 28.88L60.1099 28.87Z" fill="#202020"/>
<path d="M61.02 28.57C60.97 28.61 60.5201 28.25 59.9001 27.89C59.6301 27.73 59.2501 27.73 59.0301 27.6C58.7801 27.49 58.74 27.29 58.75 27.29C58.75 27.29 58.86 27.4 59.08 27.45C59.3 27.53 59.63 27.46 60.02 27.65C60.71 27.99 61.1 28.51 61.02 28.56V28.57Z" fill="#202020"/>
<path d="M55.8201 22.07C55.8201 22.07 55.8201 21.53 56.0101 20.68C56.2101 19.84 56.5701 18.67 57.3101 17.55C58.0201 16.41 59.0701 15.65 59.9001 15.37C60.7401 15.08 61.29 15.2 61.29 15.2C61.29 15.23 60.74 15.23 59.97 15.57C59.21 15.91 58.3001 16.67 57.6201 17.76C56.9101 18.83 56.5301 19.95 56.2601 20.75C55.9901 21.56 55.8501 22.07 55.8101 22.07H55.8201Z" fill="#202020"/>
<path d="M58.5 25.96C58.5 25.96 58.16 25.8 57.69 25.42C57.23 25.05 56.63 24.37 56.4 23.46C56.11 22.56 56.22 21.71 56.21 21.12C56.22 20.52 56.26 20.15 56.26 20.15C56.26 20.15 56.29 20.52 56.31 21.12C56.37 21.71 56.28 22.57 56.57 23.41C56.81 24.29 57.35 24.92 57.78 25.32C58.22 25.72 58.52 25.93 58.51 25.95L58.5 25.96Z" fill="#202020"/>
<path d="M59.5901 27.6C59.5901 27.6 59.87 27.54 60.32 27.55C60.54 27.56 60.81 27.5801 61.1 27.5901C61.22 27.5901 61.35 27.59 61.48 27.6C61.45 27.58 61.5501 27.65 61.4001 27.54C61.0101 27.34 60.6101 27.1 60.3401 26.92H60.33C60.04 26.79 59.71 26.84 59.49 26.8C59.27 26.77 59.15 26.7 59.16 26.69C59.16 26.67 59.29 26.69 59.49 26.68C59.7 26.68 60 26.5801 60.41 26.7101H60.4001C60.7701 26.9001 61.11 27.09 61.55 27.3C61.72 27.32 62.02 27.8501 61.63 27.9001C61.3 27.9301 61.27 27.9 61.08 27.89C60.78 27.85 60.51 27.82 60.29 27.79C59.85 27.73 59.57 27.66 59.57 27.62L59.5901 27.6Z" fill="#202020"/>
<path d="M61.0201 27.15C61.0201 27.15 61.1401 27.11 61.3301 27.12C61.4301 27.12 61.54 27.13 61.67 27.12C61.83 27.11 61.86 27.09 61.85 27.06L61.72 27C61.6 26.96 61.48 26.91 61.36 26.87C61.12 26.76 60.87 26.64 60.6 26.51C60.44 26.4 60.3201 26.4 60.1201 26.38C59.9401 26.36 59.78 26.33 59.61 26.31C59.29 26.26 59.0001 26.18 58.7601 26.1C58.2901 25.92 58.0901 25.67 58.0901 25.67C58.1001 25.65 58.3401 25.85 58.8101 25.96C59.0401 26.02 59.3201 26.07 59.6401 26.1C59.8001 26.11 59.9701 26.12 60.1401 26.14C60.2901 26.14 60.5401 26.16 60.7001 26.26C60.9701 26.39 61.2201 26.52 61.4601 26.63C61.5801 26.68 61.7001 26.73 61.8101 26.78C61.9001 26.81 62.1401 26.97 62.2401 27.08C62.0801 27.28 61.77 27.34 61.66 27.31C61.51 27.31 61.4 27.27 61.3 27.25C61.11 27.2 61.0101 27.16 61.0101 27.14L61.0201 27.15Z" fill="#202020"/>
<path d="M25.4299 13.2C25.4299 13.2 25.5499 12.82 25.7999 12.42C25.9299 12.22 26.0499 12.04 26.1599 11.92C26.2599 11.79 26.3899 11.77 26.3799 11.79C26.3499 11.75 26.13 12.06 25.89 12.47C25.64 12.87 25.4299 13.2 25.4299 13.2Z" fill="#202020"/>
<path d="M25.4299 13.89C25.4299 13.89 25.56 13.56 25.77 13.16C25.98 12.76 26.2499 12.52 26.2499 12.52C26.2499 12.52 26.0099 12.79 25.8099 13.18C25.6099 13.57 25.4499 13.89 25.4299 13.88V13.89Z" fill="#202020"/>
<path d="M25.7 14.02C25.7 14.02 25.7599 13.84 25.8599 13.63C25.9599 13.42 26.0499 13.25 26.0599 13.25C26.0699 13.25 26 13.43 25.9 13.64C25.8 13.85 25.71 14.02 25.7 14.02Z" fill="#202020"/>
<path d="M25.61 14.79C25.61 14.79 25.59 14.37 25.87 13.97C26.14 13.58 26.33 13.25 26.33 13.25C26.36 13.25 26.21 13.63 25.95 14.03C25.69 14.43 25.6 14.8 25.6 14.8L25.61 14.79Z" fill="#202020"/>
<path d="M25.6599 15.57C25.6599 15.57 25.6599 15.2 25.8599 14.79C26.0499 14.39 26.21 14.07 26.21 14.07C26.23 14.07 26.1099 14.42 25.9399 14.82C25.7699 15.23 25.6799 15.57 25.6599 15.57Z" fill="#202020"/>
<path d="M25.7 16.39C25.7 16.39 25.7699 15.93 25.9299 15.38C26.0799 14.82 26.2499 14.39 26.2499 14.39C26.2499 14.39 26.17 14.85 26.02 15.4C25.87 15.95 25.7 16.39 25.7 16.39Z" fill="#202020"/>
<path d="M25.98 16.98C25.98 16.98 25.92 16.64 25.99 16.23C26.06 15.81 26.24 15.5101 26.25 15.5301C26.25 15.5301 26.11 15.84 26.07 16.25C26.02 16.65 26.01 16.99 25.98 16.99V16.98Z" fill="#202020"/>
<path d="M26.11 17.52C26.11 17.52 26.1 17.13 26.18 16.65C26.26 16.17 26.35 15.79 26.38 15.79C26.41 15.79 26.38 16.19 26.31 16.66C26.24 17.13 26.14 17.51 26.11 17.52Z" fill="#202020"/>
<path d="M26.48 18.7C26.48 18.7 26.3 18.26 26.4 17.71C26.48 17.16 26.66 16.75 26.66 16.75C26.66 16.75 26.58 17.19 26.5 17.73C26.41 18.27 26.48 18.71 26.48 18.71V18.7Z" fill="#202020"/>
<path d="M26.66 19.11C26.66 19.11 26.64 18.75 26.66 18.31C26.69 17.87 26.73 17.51 26.75 17.52C26.77 17.52 26.77 17.88 26.75 18.32C26.73 18.76 26.68 19.11 26.66 19.11Z" fill="#202020"/>
<path d="M38.4299 4.65997C38.4299 4.65997 38.6199 4.65998 38.9199 4.72998C39.2199 4.79998 39.6099 4.96 40.0099 5.19C40.8499 5.63 41.26 6.32003 41.2 6.34003C41.19 6.34003 41.1199 6.17002 40.9099 5.96002C40.7099 5.74002 40.3699 5.50002 39.9699 5.27002C39.1799 4.80002 38.4299 4.65997 38.4299 4.65997Z" fill="#202020"/>
<path d="M38.6599 4.96997C38.6599 4.96997 39.1499 4.97 39.6599 5.25C40.1799 5.51 40.4999 5.87 40.4799 5.88C40.4799 5.88 40.1499 5.54001 39.6299 5.32001C39.1099 5.08001 38.6599 4.96997 38.6599 4.96997Z" fill="#202020"/>
<path d="M38.25 5.11001C38.25 5.11001 38.72 5.07004 39.24 5.32004C39.75 5.55004 40.11 5.84006 40.11 5.84006C40.1 5.86006 39.72 5.61003 39.21 5.38003C38.7 5.15003 38.25 5.11001 38.25 5.11001Z" fill="#202020"/>
<path d="M37.48 5.02002C37.48 5.02002 38 5.02001 38.58 5.26001C39.16 5.50001 39.62 5.70001 39.62 5.70001C39.62 5.72001 39.13 5.55001 38.56 5.32001C37.98 5.08001 37.48 5.02002 37.48 5.02002Z" fill="#202020"/>
<path d="M37.39 5.15997C37.39 5.15997 37.78 5.24 38.26 5.38C38.74 5.52 39.12 5.63997 39.12 5.65997C39.12 5.67997 38.72 5.57 38.25 5.44C37.77 5.3 37.39 5.15997 37.39 5.15997Z" fill="#202020"/>
<path d="M36.52 5.20004C36.52 5.20004 37.02 5.15 37.61 5.29C38.2 5.42 38.66 5.61001 38.66 5.61001C38.66 5.63001 38.19 5.48001 37.6 5.36001C37.01 5.24001 36.52 5.20004 36.52 5.20004Z" fill="#202020"/>
<path d="M36.4299 5.57002C36.4299 5.57002 36.8999 5.38003 37.4899 5.52003C38.0699 5.64003 38.52 5.8 38.52 5.8C38.52 5.82 38.0499 5.70003 37.4799 5.58003C36.8999 5.45003 36.4299 5.58003 36.4299 5.58003V5.57002Z" fill="#202020"/>
<path d="M36.39 5.75C36.39 5.75 36.79 5.75 37.28 5.81C37.77 5.86 38.17 5.92 38.16 5.94C38.16 5.96 37.76 5.94 37.27 5.88C36.78 5.83 36.39 5.75 36.39 5.75Z" fill="#202020"/>
<path d="M36.3401 6.02C36.3401 6.02 36.74 5.96996 37.23 5.97996C37.73 5.97996 38.12 6.09996 38.11 6.10996C38.11 6.10996 37.72 6.04997 37.23 6.04997C36.74 6.04997 36.3401 6.02 36.3401 6.02Z" fill="#202020"/>
<path d="M36.02 6.20001C36.02 6.20001 36.43 6.14001 36.94 6.14001C37.46 6.14001 37.85 6.31002 37.84 6.33002C37.84 6.33002 37.45 6.19997 36.94 6.21997C36.44 6.21997 36.02 6.22001 36.02 6.20001Z" fill="#202020"/>
<path d="M35.52 6.56998C35.52 6.56998 35.94 6.37995 36.49 6.40995C37.04 6.42995 37.47 6.47996 37.47 6.47996C37.47 6.49996 37.03 6.48996 36.48 6.47996C35.93 6.44996 35.51 6.57999 35.51 6.57999L35.52 6.56998Z" fill="#202020"/>
<path d="M35.5701 6.84002C35.5701 6.84002 35.9101 6.60999 36.3801 6.68999C36.8401 6.75999 37.2001 6.78997 37.2001 6.78997C37.2001 6.81997 36.8201 6.83001 36.3701 6.77001C35.9101 6.70001 35.5601 6.84002 35.5601 6.84002H35.5701Z" fill="#202020"/>
<path d="M35.11 7.10999C35.11 7.10999 35.38 6.99003 35.74 6.96003C36.1 6.93003 36.39 6.95999 36.39 6.97999C36.39 6.99999 36.1 7.00003 35.75 7.03003C35.4 7.06003 35.12 7.13 35.12 7.12L35.11 7.10999Z" fill="#202020"/>
<path d="M24.45 39.64C24.45 39.64 23.87 39.36 22.75 39.04C21.63 38.72 19.99 38.35 17.95 38.01C15.9 37.66 13.46 37.29 10.72 37.1C9.34997 36.98 7.90998 36.85 6.41998 36.6C5.67998 36.46 4.90999 36.33 4.17999 35.94C3.45999 35.55 2.87999 34.87 2.61999 34.06C2.34999 33.25 2.46999 32.35 2.80999 31.64C3.16999 30.84 3.87001 30.38 4.52001 30C5.86001 29.26 7.24999 28.81 8.55999 28.39C11.19 27.56 13.59 26.95 15.58 26.37C16.58 26.08 17.48 25.82 18.28 25.58C19.09 25.39 19.8 25.29 20.37 25.2C21.52 25.03 22.17 25.02 22.17 25.02C22.13 25.02 21.53 25.13 20.39 25.32C19.82 25.43 19.12 25.56 18.33 25.77C17.54 26.02 16.65 26.3 15.66 26.62C13.67 27.22 11.3 27.94 8.66998 28.74C7.36998 29.17 5.99996 29.63 4.71996 30.34C4.09996 30.7 3.47 31.16 3.19 31.79C2.87 32.47 2.79001 33.23 3.02001 33.94C3.25001 34.65 3.76002 35.24 4.40002 35.59C5.04002 35.93 5.79001 36.07 6.52001 36.21C7.98001 36.46 9.42002 36.6 10.78 36.73C13.52 36.94 15.99 37.35 18.02 37.75C20.06 38.16 21.7 38.58 22.8 38.95C23.91 39.32 24.47 39.65 24.47 39.65L24.45 39.64Z" fill="#202020"/>
<path d="M24.45 39.64C24.45 39.64 23.79 39.43 22.57 39.21C21.36 38.97 19.58 38.72 17.37 38.55C15.16 38.37 12.52 38.25 9.58002 38.1C8.11002 38.01 6.56998 37.93 4.96998 37.71C4.17998 37.6 3.33001 37.45 2.57001 37.02C1.81001 36.61 1.18002 35.95 0.760016 35.17C-0.0799837 33.58 0.169992 31.63 1.10999 30.27C2.04999 28.89 3.39002 27.99 4.70002 27.3C6.01002 26.61 7.36 26.15 8.62 25.81C9.86 25.43 11.01 25.02 12.04 24.62C16.19 23.03 18.52 21.54 18.52 21.54C18.52 21.54 16.26 23.16 12.13 24.84C11.1 25.26 9.96003 25.69 8.71003 26.1C7.45003 26.47 6.15 26.93 4.87 27.62C3.6 28.3 2.30001 29.19 1.44001 30.49C0.570009 31.76 0.370011 33.55 1.13001 35C1.89001 36.49 3.46998 37.2 5.03998 37.33C6.60998 37.55 8.14999 37.65 9.60999 37.74C12.54 37.91 15.19 38.06 17.4 38.28C19.62 38.49 21.4 38.79 22.61 39.09C23.82 39.38 24.46 39.66 24.46 39.66L24.45 39.64Z" fill="#202020"/>
<path d="M39.2801 25.04C39.2801 25.04 39.0301 25.04 38.7501 24.95C38.4301 24.87 38.3401 24.6 38.3401 24.6C38.3701 24.57 38.5201 24.78 38.7801 24.84C39.0701 24.92 39.2801 25.02 39.2701 25.04H39.2801Z" fill="#202020"/>
<path d="M40.32 25.26C40.32 25.26 39.94 25.28 39.49 25.13C39.01 25.01 38.81 24.61 38.86 24.6C38.86 24.61 39.0901 24.9 39.5301 25.01C39.9601 25.14 40.32 25.23 40.32 25.26Z" fill="#202020"/>
<path d="M39.6901 24.6C39.6901 24.6 39.7701 24.78 39.9301 24.96C40.0801 25.15 40.2401 25.26 40.2401 25.26C40.2401 25.27 40.0301 25.21 39.8701 25.01C39.6901 24.82 39.6601 24.6 39.6901 24.6Z" fill="#202020"/>
<path d="M40.9 25.18C40.9 25.18 40.5799 25.2 40.2299 25.03C39.8799 24.86 39.6899 24.6 39.6899 24.6C39.6899 24.6 39.93 24.79 40.27 24.94C40.61 25.09 40.9 25.15 40.9 25.17V25.18Z" fill="#202020"/>
<path d="M41.59 25.18C41.59 25.18 41.29 25.25 40.96 25.1C40.64 24.95 40.4 24.81 40.4 24.8C40.4 24.78 40.68 24.88 40.99 25.01C41.3 25.14 41.58 25.16 41.58 25.18H41.59Z" fill="#202020"/>
<path d="M42.3899 25.2C42.3899 25.2 42.0499 25.26 41.6699 25.13C41.2799 25.02 41.0199 24.78 41.0399 24.76C41.0399 24.76 41.3099 24.93 41.6999 25.02C42.0799 25.13 42.3899 25.18 42.3899 25.2Z" fill="#202020"/>
<path d="M42.83 25.37C42.83 25.37 42.72 25.11 42.38 25C42.07 24.87 41.78 24.83 41.78 24.8C41.78 24.78 42.08 24.76 42.42 24.89C42.8 25 42.89 25.39 42.82 25.38L42.83 25.37Z" fill="#202020"/>
<path d="M42.8 25.4C42.8 25.4 42.89 25.19 42.86 24.95C42.82 24.71 42.65 24.56 42.67 24.54C42.67 24.53 42.92 24.62 42.98 24.93C43.04 25.24 42.81 25.42 42.81 25.4H42.8Z" fill="#202020"/>
<path d="M47.6799 24.76C47.6799 24.76 47.6099 24.79 47.5099 24.89C47.4599 24.94 47.4 25 47.33 25.06C47.3 25.09 47.2399 25.14 47.1599 25.19C47.1399 25.16 47.1699 25 47.1599 24.97C47.1599 24.86 47.1999 24.67 47.1699 24.73C47.0499 24.77 46.8799 24.81 46.7199 24.83C46.3999 24.87 46.0399 24.91 45.6699 24.96C44.1999 25.08 43.12 25.16 42.96 25.18C42.96 25.18 43.2599 25.12 43.7499 25.06C44.2399 25.01 44.9199 24.95 45.6699 24.88C46.0399 24.84 46.3999 24.8 46.7199 24.76C46.8899 24.73 47.0199 24.71 47.1799 24.66C47.2799 24.58 47.2799 24.72 47.2599 24.8L47.2399 25C47.1499 25.24 47.4099 24.91 47.4999 24.87C47.6099 24.79 47.6899 24.77 47.6899 24.77L47.6799 24.76Z" fill="#202020"/>
<path d="M48.2 24.02C48.2 24.02 48.2499 24.36 48.0399 24.71C47.8499 25.09 47.4699 25.16 47.4799 25.12C47.4799 25.12 47.78 25 47.96 24.66C48.15 24.33 48.18 24.02 48.2 24.02Z" fill="#202020"/>
<path d="M48.4801 24.96C48.4801 25.03 48.1601 24.82 48.2801 24.48C48.3501 24.18 48.5001 23.99 48.5001 23.99C48.5201 23.99 48.4601 24.23 48.3901 24.5C48.3101 24.79 48.47 24.93 48.47 24.95L48.4801 24.96Z" fill="#202020"/>
<path d="M48.78 24.16C48.78 24.16 48.67 24.32 48.56 24.51C48.45 24.71 48.44 24.9 48.43 24.9C48.41 24.9 48.35 24.69 48.48 24.47C48.59 24.24 48.78 24.15 48.79 24.16H48.78Z" fill="#202020"/>
<path d="M48.72 24.82C48.72 24.82 48.65 24.7 48.67 24.54C48.67 24.39 48.71 24.26 48.72 24.26C48.73 24.26 48.77 24.38 48.77 24.54C48.78 24.69 48.73 24.82 48.72 24.82Z" fill="#202020"/>
<path d="M35.63 13.42C35.63 13.42 35.27 13.46 34.85 13.52C34.41 13.56 34.15 13.81 34.15 13.81C34.11 13.79 34.38 13.47 34.84 13.42C35.28 13.35 35.64 13.42 35.64 13.42H35.63Z" fill="#202020"/>
<path d="M36.12 13.91C36.12 13.91 35.85 13.76 35.47 13.74C35.09 13.71 34.8 13.8 34.8 13.8C34.78 13.77 35.08 13.61 35.48 13.64C35.89 13.64 36.15 13.89 36.12 13.91Z" fill="#202020"/>
<path d="M34.18 25.37C34.18 25.37 34.14 25.44 34.07 25.54C34.03 25.59 33.98 25.65 33.93 25.72C33.9 25.76 33.75 25.9 33.61 25.95C33.53 26 33.55 25.95 33.57 25.89C33.57 25.85 33.6 25.79 33.63 25.72C33.66 25.65 33.69 25.58 33.72 25.52C33.77 25.43 33.81 25.36 33.84 25.3H33.88C33.85 25.36 33.83 25.36 33.83 25.36C33.81 25.36 33.84 25.32 33.83 25.3H33.87C33.87 25.36 33.84 25.44 33.8 25.55C33.79 25.59 33.75 25.69 33.75 25.69C33.69 25.74 33.94 25.54 34 25.48C34.09 25.39 34.17 25.36 34.17 25.36L34.18 25.37Z" fill="#202020"/>
<path d="M34.56 24.82C34.56 24.82 34.56 25.02 34.46 25.26C34.37 25.5 34.16 25.62 34.15 25.59C34.15 25.57 34.25 25.42 34.33 25.2C34.41 24.98 34.53 24.8 34.56 24.82Z" fill="#202020"/>
<path d="M38.9199 18.18C38.9199 18.18 38.8499 17.96 38.6199 17.79C38.3999 17.61 38.1799 17.54 38.1799 17.54C38.1799 17.5 38.4499 17.5 38.6899 17.7C38.9599 17.88 38.9799 18.19 38.9199 18.18Z" fill="#202020"/>
<path d="M38.26 17.96C38.26 17.96 38.41 17.93 38.59 17.96C38.77 17.99 38.9 18.06 38.9 18.06C38.9 18.06 38.75 18.08 38.57 18.06C38.4 18.03 38.26 17.98 38.26 17.96Z" fill="#202020"/>
<path d="M38.28 18.29C38.28 18.29 38.21 18.25 38.28 18.19C38.34 18.15 38.42 18.13 38.5 18.13C38.67 18.12 38.8 18.21 38.8 18.21C38.8 18.21 38.67 18.21 38.51 18.22C38.33 18.22 38.27 18.26 38.28 18.29Z" fill="#202020"/>
<path d="M38.2599 18.65C38.2599 18.65 38.2099 18.73 38.1799 18.62V18.6C38.2099 18.55 38.2799 18.48 38.3699 18.43C38.5399 18.33 38.7 18.36 38.7 18.37C38.7 18.37 38.5599 18.41 38.4099 18.5C38.3299 18.55 38.2599 18.6 38.2299 18.64V18.62C38.2299 18.62 38.2699 18.62 38.2599 18.65Z" fill="#202020"/>
<path d="M38.0601 19.28C38.0601 19.28 38.1 19.08 38.23 18.87C38.36 18.65 38.5501 18.55 38.5601 18.57C38.5601 18.58 38.4401 18.73 38.3201 18.93C38.2001 19.14 38.0901 19.3 38.0601 19.29V19.28Z" fill="#202020"/>
<path d="M37 21.93C37 21.93 37.12 21.86 37.31 21.74C37.37 21.71 37.57 21.54 37.53 21.56L37.37 21.62L37.25 21.66L36.99 21.75L37.19 21.55C37.42 21.32 37.65 21.17 37.79 21.03C37.93 20.9 37.99 20.79 38.01 20.79C38.07 20.81 37.77 21.25 37.28 21.63L37.22 21.53L37.34 21.49L37.65 21.38C37.73 21.35 37.76 21.35 37.82 21.34C37.81 21.38 37.76 21.44 37.74 21.49C37.56 21.73 37.5 21.72 37.38 21.8C37.18 21.91 37.03 21.92 37.03 21.92L37 21.93Z" fill="#202020"/>
<path d="M36.85 22.53C36.85 22.53 36.91 22.38 37.04 22.23C37.18 22.09 37.31 21.99 37.32 22.01C37.33 22.02 37.25 22.16 37.13 22.31C37.01 22.45 36.88 22.55 36.85 22.54V22.53Z" fill="#202020"/>
<path d="M36.6599 23C36.6599 23 36.7699 22.8 36.9699 22.66C37.1699 22.52 37.27 22.34 37.27 22.34C37.29 22.34 37.2499 22.57 37.0599 22.76C36.8599 22.93 36.6899 23.02 36.6699 23H36.6599Z" fill="#202020"/>
<path d="M36.3301 23.47C36.3301 23.47 36.5901 23.33 36.8701 23.08C37.1601 22.85 37.35 22.61 37.35 22.61C37.35 22.61 37.2401 22.91 36.9601 23.18C36.6801 23.46 36.3301 23.51 36.3301 23.46V23.47Z" fill="#202020"/>
<path d="M35.53 23.94C35.53 23.94 35.85 23.76 36.26 23.63C36.62 23.39 36.92 23.2 36.94 23.22C36.96 23.24 36.67 23.46 36.31 23.73C35.89 23.89 35.53 23.93 35.53 23.93V23.94Z" fill="#202020"/>
<path d="M35.01 24.46C35.01 24.46 35.29 24.24 35.69 24.1C36.08 23.96 36.37 23.78 36.39 23.8C36.41 23.82 36.14 24.05 35.74 24.22C35.35 24.4 35.01 24.46 35.01 24.46Z" fill="#202020"/>
<path d="M37.79 17.13C37.79 17.13 37.8401 17.01 38.0201 16.99C38.1001 16.98 38.2001 16.98 38.3101 16.99H38.47C38.55 17 38.5001 16.99 38.5101 16.99C38.5101 16.99 38.39 16.91 38.3 16.9C38.2 16.87 38.1001 16.85 38.0201 16.83C37.8501 16.78 37.79 16.69 37.79 16.69C37.79 16.69 37.88 16.75 38.04 16.77C38.12 16.78 38.2201 16.79 38.3301 16.81C38.4401 16.85 38.5701 16.81 38.7101 17.04L38.7501 17.1C38.6601 17.12 38.5001 17.14 38.4601 17.13L38.29 17.11C38.19 17.11 38.1001 17.09 38.0201 17.09C37.8701 17.09 37.8 17.15 37.79 17.14V17.13Z" fill="#202020"/>
<path d="M38.86 17.52C38.86 17.52 38.6701 17.5 38.4601 17.43C38.2401 17.36 38.09 17.21 38.12 17.19C38.12 17.19 38.28 17.27 38.5 17.32C38.72 17.38 38.88 17.49 38.86 17.52Z" fill="#202020"/>
<path d="M36.84 14.05C36.84 14.05 36.47 14.09 36.02 14.07C35.57 14.05 35.21 14.01 35.21 13.99C35.21 13.97 35.58 13.96 36.03 13.97C36.48 13.97 36.84 14.03 36.84 14.05Z" fill="#202020"/>
<path d="M35.9299 14.19C35.9299 14.19 36.0699 13.99 36.3499 14.03C36.6099 14.03 36.8099 14.03 36.8099 14.06C36.8099 14.09 36.6099 14.11 36.3599 14.12C36.1099 14.09 35.9499 14.26 35.9199 14.19H35.9299Z" fill="#202020"/>
<path d="M37.2499 14.35C37.2499 14.35 36.9599 14.28 36.6099 14.27C36.2499 14.26 35.95 14.24 35.96 14.21C35.96 14.2 36.2499 14.14 36.6199 14.15C36.9999 14.15 37.2699 14.33 37.2499 14.35Z" fill="#202020"/>
<path d="M37.73 15.12C37.73 15.12 37.5 15.08 37.23 15.02C36.96 14.96 36.73 14.95 36.73 14.92C36.73 14.9 36.96 14.87 37.25 14.92C37.54 14.97 37.74 15.1 37.73 15.11V15.12Z" fill="#202020"/>
<path d="M38.23 15.78C38.23 15.78 38.0701 15.5 37.6501 15.44C37.2601 15.36 36.92 15.27 36.94 15.23C36.94 15.23 37.26 15.27 37.67 15.34C37.87 15.38 38.06 15.45 38.16 15.57C38.26 15.68 38.23 15.78 38.23 15.78Z" fill="#202020"/>
<path d="M37.98 15.92C37.98 15.92 38.08 15.89 38.1 15.87C38.13 15.87 37.9801 15.79 37.8401 15.72C37.5601 15.58 37.3101 15.51 37.3101 15.51C37.3101 15.48 37.5801 15.49 37.8801 15.62C37.9501 15.65 38.0201 15.69 38.0801 15.73C38.0901 15.75 38.31 15.87 38.17 15.92C38 15.99 37.97 15.92 37.97 15.92H37.98Z" fill="#202020"/>
<path d="M37.5101 16.3C37.5101 16.3 37.6201 16.3 37.8101 16.32C38.0001 16.37 38.2601 16.3 38.5801 16.27L38.55 16.38C38.43 16.32 38.2701 16.32 38.0901 16.27C38.0001 16.25 37.92 16.21 37.85 16.15L37.7701 16.09L37.85 16.06C38.02 15.99 37.9901 16.03 37.9901 16.03C37.9601 16 37.7701 15.88 37.6901 15.85C37.4801 15.74 37.3301 15.74 37.3301 15.74C37.3301 15.74 37.4801 15.71 37.7101 15.8C37.8401 15.85 37.9201 15.87 38.1301 16.03C38.2201 16.08 38.2801 16.28 38.2601 16.23L38.2801 16.28C38.2801 16.28 38.3801 16.42 38.2601 16.32C38.1101 16.2 38.04 16.17 38.04 16.17C37.92 16.15 37.9501 16.17 37.9001 16.17V16.07C37.9601 16.11 38.02 16.14 38.1 16.16C38.25 16.2 38.4301 16.2 38.5801 16.28L38.79 16.39H38.55C38.24 16.4 37.9601 16.46 37.7701 16.39C37.5801 16.35 37.47 16.31 37.47 16.31L37.5101 16.3Z" fill="#202020"/>
<path d="M38.26 16.63C38.26 16.63 38.09 16.63 37.89 16.56C37.67 16.51 37.58 16.33 37.6 16.32C37.6 16.32 37.71 16.45 37.91 16.49C38.11 16.53 38.27 16.6 38.26 16.62V16.63Z" fill="#202020"/>
<path d="M37.7999 20.11C37.7499 20.07 38.0899 19.75 38.5099 19.39L38.5499 19.46C38.5499 19.46 38.4799 19.49 38.4399 19.51C38.3199 19.57 38.22 19.67 38.08 19.69L37.6799 19.77L38.0399 19.59C38.4499 19.39 38.59 19.11 38.59 19.11C38.64 19.11 38.52 19.49 38.09 19.68L38.0599 19.58C38.1599 19.57 38.27 19.49 38.39 19.42C38.43 19.4 38.48 19.38 38.53 19.37L38.65 19.35L38.5699 19.44C38.3699 19.67 38.15 19.79 38.02 19.91C37.88 20.02 37.7999 20.1 37.7999 20.1V20.11Z" fill="#202020"/>
<path d="M37.36 20.63C37.36 20.63 37.67 20.46 38.02 20.2C38.39 19.96 38.54 19.64 38.54 19.64C38.58 19.64 38.46 20.03 38.07 20.28C37.71 20.55 37.35 20.63 37.35 20.63H37.36Z" fill="#202020"/>
<path d="M37.3301 21.05C37.3301 21.05 37.4801 20.83 37.7501 20.68C38.0201 20.53 38.1801 20.34 38.1801 20.34C38.2001 20.34 38.08 20.6 37.8 20.76C37.54 20.93 37.3401 21.06 37.3201 21.05H37.3301Z" fill="#202020"/>
<path d="M37.27 21.24C37.27 21.24 37.44 21.15 37.63 21.03C37.82 20.91 37.98 20.8 37.98 20.8C37.98 20.8 37.88 20.97 37.67 21.1C37.47 21.23 37.27 21.26 37.27 21.24Z" fill="#202020"/>
<path d="M37.8701 14.68C37.8701 14.68 37.6301 14.48 37.1801 14.55C36.7601 14.61 36.3701 14.53 36.4101 14.46C36.4101 14.48 36.7401 14.47 37.1701 14.41C37.3801 14.39 37.6001 14.4 37.7401 14.48C37.8901 14.57 37.8701 14.69 37.8701 14.69V14.68Z" fill="#202020"/>
<path d="M38.34 15.01C38.34 15.01 37.98 14.94 37.55 14.84C37.13 14.74 36.77 14.7 36.76 14.68C36.76 14.68 37.13 14.61 37.58 14.71C38.02 14.81 38.34 15.01 38.34 15.01Z" fill="#202020"/>
<path d="M48.37 21.9C48.37 21.9 48.16 21.51 48.37 20.98L48.43 21.01C48.33 21.12 48.28 21.26 48.27 21.42L48.25 21.81C48.18 21.71 48.05 21.42 48.06 21.33C48.05 21.2 48.05 21.09 48.06 20.98C48.08 20.78 48.14 20.63 48.18 20.57V20.55L48.2 20.57C48.22 20.62 48.22 20.63 48.22 20.63C48.22 20.63 48.2 20.61 48.18 20.58H48.2C48.19 20.65 48.15 20.79 48.15 20.99C48.15 21.09 48.15 21.2 48.17 21.31C48.2 21.48 48.19 21.39 48.19 21.41C48.19 21.23 48.3 21.07 48.38 20.96L48.48 20.83L48.44 20.99C48.31 21.53 48.36 21.89 48.38 21.89L48.37 21.9Z" fill="#202020"/>
<path d="M48.64 22.64C48.64 22.64 48.57 22.36 48.53 22C48.48 21.64 48.55 21.34 48.59 21.35C48.62 21.35 48.59 21.64 48.64 21.99C48.7 22.34 48.66 22.65 48.64 22.64Z" fill="#202020"/>
<path d="M48.97 23.22C48.97 23.22 48.79 22.98 48.74 22.62C48.69 22.26 48.81 21.97 48.83 21.98C48.86 21.98 48.8 22.26 48.85 22.6C48.9 22.94 48.99 23.21 48.97 23.22Z" fill="#202020"/>
<path d="M49.47 23.63C49.47 23.63 49.2 23.4 49.05 22.99C48.89 22.58 49.01 22.21 49.03 22.23C49.05 22.23 49 22.57 49.17 22.95C49.33 23.32 49.5 23.62 49.47 23.64V23.63Z" fill="#202020"/>
<path d="M50.02 24.1C50.02 24.15 49.58 24.01 49.38 23.54C49.16 23.1 49.19 22.69 49.22 22.7C49.24 22.7 49.26 23.08 49.49 23.49C49.7 23.91 50.02 24.11 50.02 24.11V24.1Z" fill="#202020"/>
<path d="M50.9 24.38C50.9 24.38 50.5 24.38 50.14 24.06C49.78 23.74 49.74 23.32 49.77 23.33C49.8 23.32 49.8999 23.68 50.2399 23.95C50.5699 24.21 50.91 24.35 50.9 24.38Z" fill="#202020"/>
<path d="M71.49 12.38C71.49 12.38 70.39 11.6 70.65 11.25C70.91 10.9 72.07 9.58004 72.38 10.15C72.69 10.72 72.9 12.16 71.49 12.38Z" fill="black"/>
</svg>
