<svg width="42" height="51" viewBox="0 0 42 51" fill="none" xmlns="http://www.w3.org/2000/svg">
<path d="M37.57 22.83C40.14 25.46 41.42 29.12 41.42 33.81C41.42 39.03 39.7 43.04 36.27 45.84C32.84 48.64 28 50.03 21.75 50.03C14.51 50.03 9.13003 48.07 5.59003 44.14C2.05003 40.21 0.290039 34.2 0.290039 26.1C0.290039 17.22 2.38002 10.7 6.55002 6.54999C10.72 2.39999 16.47 0.320007 23.79 0.320007C26.79 0.320007 29.59 0.579996 32.18 1.09C34.77 1.6 36.85 2.27 38.41 3.09V15.55C36.85 14.85 35.06 14.29 33.04 13.85C31.03 13.42 28.89 13.2 26.63 13.2C20.75 13.2 17.81 15.38 17.81 19.74V20.48C19.08 20.03 20.52 19.65 22.13 19.34C23.74 19.03 25.32 18.88 26.88 18.88C31.44 18.88 35.01 20.2 37.58 22.83H37.57ZM25.14 37.78C25.84 36.94 26.19 35.61 26.19 33.8C26.19 32.16 25.83 30.87 25.11 29.95C24.39 29.02 23.29 28.56 21.81 28.56C20.41 28.56 19.08 28.83 17.8 29.36V34.29C17.8 35.93 18.15 37.14 18.85 37.9C19.55 38.66 20.6 39.04 22 39.04C23.4 39.04 24.45 38.62 25.15 37.78H25.14Z" fill="#0091C8"/>
</svg>
