<svg width="73" height="54" viewBox="0 0 73 54" fill="none" xmlns="http://www.w3.org/2000/svg">
<path d="M23.38 53.17C10.31 51.7 2.86998 42.81 2.86998 42.81C2.86998 42.81 3.91 41.37 6.39 42.35C6.39 42.35 3.09996 41.37 1.59996 38.37C0.0999612 35.37 1.08 33.64 1.08 33.64C1.08 33.64 6.09996 34.62 8.34996 36.01C8.34996 36.01 6.95999 34.39 5.68999 33.64C5.68999 33.64 6.56001 32.2 9.27001 33.01C11.98 33.82 14.29 36.01 14.29 36.01C14.29 36.01 14 34.39 14.52 34.11C15.04 33.82 20.93 34.75 20.93 34.75C20.93 34.75 25.66 39.54 26.53 44.85C27.4 50.16 23.38 53.18 23.38 53.18V53.17Z" fill="#F4EEE2"/>
<path d="M66.25 13.03C67 12.68 67.92 7.08 64.9799 2.93C62.0399 -1.23 52.46 -0.470018 49.57 4.65998C46.66 9.82998 46.57 16.55 50.49 22.21C54.41 27.87 59.84 33.58 59.96 36.35C60.08 39.12 55.4 38.77 55.4 38.77C55.4 38.77 57.36 51.53 61.92 52.8C66.48 54.07 69.37 51.93 70.81 48.3C72.25 44.66 72.89 41.78 69.77 34.97C66.65 28.16 57.76 24.23 55.4 16.84C53.03 9.45004 57.13 7.66004 57.71 7.78004C58.29 7.90004 59.96 10.61 60.71 11.65C61.46 12.69 62.67 12.75 62.67 12.75L66.25 13.04V13.03Z" fill="#F4EEE2"/>
<path d="M66.3099 13.03C65.3899 12.11 64.3699 9.42999 63.8499 8.09999C63.3299 6.76999 62.38 7.02002 62.33 7.14002C62.27 7.26002 62.6199 7.77999 62.4999 9.03999C62.3799 10.31 61.9199 12.56 61.9199 12.56C61.9199 12.56 62.9 12.78 64.4 12.87C65.9 12.96 66.3099 13.02 66.3099 13.02V13.03Z" fill="#54271D"/>
<path d="M59.83 37.18C58.69 39.47 56.27 35.48 53.15 33.35C50.03 31.21 23.19 30.23 19.03 36.24C14.87 42.24 17.64 50.15 20.18 52.17C22.72 54.19 44.25 53.9 54.82 53.84C65.38 53.78 66.56 53.76 69.06 51.17C71.56 48.58 59.82 37.18 59.82 37.18H59.83Z" fill="#F4EEE2"/>
<path d="M18.11 20.25C22.84 21.75 32.08 21.69 40.22 24.18C48.36 26.66 56.09 36.22 57.97 37.5C59.85 38.78 63.05 49.72 54.91 52.55C46.77 55.38 33.6401 52.64 25.2701 46C16.9001 39.36 16.9001 33.76 16.9001 33.76L20.9301 34.64C20.9301 34.64 16.04 30.99 15.29 25.62C15.29 25.62 24.7 25.27 31.8 25.45C38.9 25.62 43.17 27.64 43.17 27.64C43.17 27.64 37.8001 25.39 30.9301 24.64C24.0601 23.89 20.0801 23.43 18.8701 22.39C17.6601 21.35 18.1201 20.25 18.1201 20.25H18.11Z" fill="url(#paint0_linear_30_3531)"/>
<path d="M63.83 11.7L61.9299 12.56C61.9299 12.56 62.5 14.3 63.2 16.26C63.89 18.22 65.4499 20.76 65.7999 20.94C66.1499 21.11 66.3199 20.88 66.3199 20.88C66.3199 20.88 66.3199 20.76 66.2599 20.42C66.2199 20.17 66.0299 18.05 65.9099 16.09C65.7899 14.13 66.2599 13.03 66.2599 13.03C66.2599 13.03 65.05 12.11 64.59 11.7C64.13 11.3 63.84 11.7 63.84 11.7H63.83Z" fill="url(#paint1_linear_30_3531)"/>
<path d="M16.93 34.19C16.93 34.19 18.18 41.03 25.62 46.27C33.05 51.51 40.36 53.42 46.66 53.64C46.66 53.64 27.61 54.39 18.63 52.28C9.66 50.17 2.87 42.82 2.87 42.82C2.87 42.82 17.08 49.61 22.38 50.28C27.68 50.95 11.53 41.79 11.53 41.79C11.53 41.79 15.18 43.14 16.91 42.8C18.64 42.46 16.91 38.76 16.91 38.76C16.91 38.76 17.18 35.22 15.93 34.2H16.94L16.93 34.19Z" fill="url(#paint2_linear_30_3531)"/>
<path d="M66.31 10.37C66.75 9.88 65.95 3.75999 62.64 1.78999C59.33 -0.180014 49.77 -0.039978 48.7 9.39002C47.63 18.82 52.92 23.51 52.92 23.51C52.92 23.51 49.7 14.2 52.92 9.06001C56.14 3.92001 61.88 4.78004 63.09 6.53004C64.3 8.27004 66.31 10.37 66.31 10.37Z" fill="url(#paint3_linear_30_3531)"/>
<path d="M59.55 38.52C59.55 38.52 61.81 38.21 60.19 34.01C58.57 29.81 52.66 24 50.97 21C49.28 18 48.15 13.96 48.74 9.04999C48.74 9.04999 51.7 11.06 51.76 12.13C52.01 16.88 55.15 21.57 60.2 26.18C65.25 30.78 69.08 40.03 67.16 43.39C65.24 46.75 60.86 43.97 60.86 43.97L59.56 38.51L59.55 38.52Z" fill="url(#paint4_linear_30_3531)"/>
<path d="M66.6401 30.41C66.6401 30.41 72.6301 36.6 71.8301 45.01C71.0401 53.41 65.19 53.5 61.92 53.66C58.66 53.82 42.3 53.78 42.3 53.78C42.3 53.78 48.6501 54.09 53.5201 52.97C58.3901 51.85 60.0301 47.6 60.1901 45.01C60.1901 45.01 61.6601 49.7 66.3101 48.5C70.9501 47.29 70.5501 37.93 69.0701 34.75C67.5901 31.57 66.6301 30.42 66.6301 30.42L66.6401 30.41Z" fill="url(#paint5_linear_30_3531)"/>
<path d="M18.7101 26.6C18.7101 26.6 34.84 25.53 41.73 27.76C48.61 29.99 57.31 39.85 57.31 39.85C57.31 39.85 62.73 47.78 51.2001 49.47C39.6701 51.17 25.9201 40.2 22.2001 34.82C18.4801 29.44 18.7101 26.58 18.7101 26.58V26.6Z" fill="url(#paint6_linear_30_3531)"/>
<path d="M19.3201 27.35C19.3201 27.35 30.1101 26.83 38.2501 27.93C46.3901 29.03 52.91 36.76 52.91 36.76C52.91 36.76 46.7301 30.64 38.2501 29.08C29.7601 27.52 19.3201 27.35 19.3201 27.35Z" fill="url(#paint7_linear_30_3531)"/>
<mask id="mask0_30_3531" style="mask-type:luminance" maskUnits="userSpaceOnUse" x="22" y="34" width="33" height="16">
<path d="M22.3801 34.74C22.3801 34.74 26.9401 45.24 37.7401 48.59C48.5301 51.94 54.3601 45.65 54.3601 45.65C54.3601 45.65 47.6101 47.04 37.6801 43.98C27.7501 40.92 22.3801 34.74 22.3801 34.74Z" fill="white"/>
</mask>
<g mask="url(#mask0_30_3531)">
<path d="M54.3601 34.74H22.3801V51.94H54.3601V34.74Z" fill="#F4EEE2"/>
<path d="M54.4001 45.27V46.95H54.5401C54.4901 47.01 54.4401 47.06 54.3901 47.11C54.2901 47.22 54.1801 47.32 54.0701 47.43C53.8401 47.64 53.6001 47.83 53.3301 48.01C52.2501 48.74 50.8301 49.27 49.1601 49.59C45.8301 50.23 41.5201 50.02 37.0301 48.8C32.5401 47.58 28.7101 45.6 26.1601 43.37C23.6001 41.14 22.3201 38.67 22.9101 36.48C23.0601 35.93 23.3201 35.4299 23.6701 34.9699C23.7601 34.8599 23.8501 34.74 23.9601 34.64V34.7H46.0601V34.62C46.5501 34.83 47.0201 35.06 47.4801 35.29C49.3201 36.22 50.9101 37.27 52.1901 38.38C52.8301 38.94 53.3901 39.51 53.8601 40.09C54.1001 40.38 54.3101 40.67 54.5001 40.96H54.4001V45.27Z" fill="#F4EEE2"/>
<path d="M54.4002 45.17V46.3H54.5501C54.4801 46.42 54.3901 46.53 54.3101 46.64C53.9601 47.09 53.5201 47.49 52.9901 47.84C51.9401 48.55 50.5501 49.07 48.9301 49.38C45.6801 50 41.4801 49.8 37.1001 48.61C28.3401 46.24 22.1701 40.86 23.3201 36.6C23.4601 36.07 23.7201 35.58 24.0601 35.13C24.2301 34.91 24.4302 34.7 24.6502 34.5V34.71H45.1701V34.48C45.4101 34.58 45.6601 34.68 45.8901 34.79C46.3701 35 46.8302 35.22 47.2802 35.44C49.0702 36.34 50.6301 37.37 51.8801 38.46C53.1301 39.55 54.0601 40.69 54.6201 41.83H54.4101V45.17H54.4002Z" fill="#F4EEE2"/>
<path d="M54.4001 45.06V45.44H54.5201C54.4701 45.56 54.4201 45.69 54.3601 45.81C54.2401 46.05 54.0901 46.28 53.9201 46.49C53.5801 46.92 53.1501 47.32 52.6401 47.66C51.6101 48.3499 50.2601 48.86 48.6801 49.16C45.5101 49.7699 41.4201 49.57 37.1401 48.41C28.6001 46.1 22.5801 40.86 23.7001 36.7C23.8401 36.18 24.0901 35.7 24.4201 35.27C24.5901 35.05 24.7801 34.85 25.0001 34.65V34.7H45.0101V34.63C45.2501 34.73 45.4801 34.83 45.7201 34.93C46.1801 35.13 46.6401 35.35 47.0701 35.57C48.8201 36.45 50.3401 37.45 51.5501 38.51C52.7601 39.57 53.6801 40.69 54.2201 41.8C54.3501 42.08 54.4701 42.36 54.5501 42.63H54.3901V45.06H54.4001Z" fill="#F4EEE2"/>
<path d="M54.2501 44.95C53.1601 49 45.5201 50.4699 37.1901 48.2199C28.8601 45.9699 23.0001 40.86 24.1001 36.81C24.2401 36.3 24.4801 35.84 24.8101 35.41C24.9701 35.2 25.1601 35 25.3701 34.81C25.4701 34.71 25.5801 34.62 25.7001 34.53V34.7H44.1601V34.51C45.1101 34.87 46.0201 35.27 46.8701 35.7C48.5701 36.56 50.0501 37.53 51.2401 38.57C52.4201 39.6 53.3102 40.69 53.8402 41.78C54.3702 42.86 54.5301 43.94 54.2501 44.96V44.95Z" fill="#F4EEE1"/>
<path d="M53.8501 44.84C52.7801 48.79 45.3501 50.21 37.2401 48.02C29.1301 45.83 23.4301 40.86 24.4901 36.91C24.6201 36.42 24.8601 35.96 25.1801 35.55C25.3401 35.34 25.5201 35.15 25.7301 34.96C25.8301 34.87 25.9401 34.78 26.0501 34.69H44.0202V34.67C44.9502 35.02 45.8301 35.41 46.6601 35.83C48.3201 36.67 49.7601 37.62 50.9101 38.62C53.2201 40.63 54.3802 42.86 53.8402 44.84H53.8501Z" fill="#F3EEE1"/>
<path d="M53.4502 44.74C52.4102 48.58 45.1801 49.97 37.2901 47.84C29.4001 45.71 23.8502 40.87 24.8902 37.03C25.1502 36.07 25.8001 35.26 26.7401 34.63V34.71H43.2002V34.6C43.4302 34.68 43.6602 34.77 43.8902 34.85C44.7902 35.19 45.6502 35.57 46.4602 35.98C48.0702 36.79 49.4701 37.72 50.6001 38.7C52.8401 40.66 53.9702 42.83 53.4502 44.75V44.74Z" fill="#F3EEE1"/>
<path d="M53.0602 44.63C52.0502 48.36 45.0202 49.71 37.3502 47.64C29.6802 45.57 24.2802 40.86 25.2902 37.13C25.5402 36.2 26.1702 35.41 27.0902 34.79C27.2102 34.71 27.3202 34.64 27.4502 34.57V34.7H42.4102V34.54C42.8702 34.69 43.3202 34.85 43.7602 35.01C44.6402 35.34 45.4802 35.71 46.2602 36.11C47.8302 36.9 49.1902 37.8 50.2802 38.75C52.4602 40.65 53.5602 42.76 53.0602 44.63Z" fill="#F3EDE0"/>
<path d="M52.6601 44.52C51.6801 48.15 44.8501 49.46 37.4001 47.45C29.9501 45.44 24.7101 40.87 25.6901 37.24C25.9301 36.33 26.5501 35.5699 27.4401 34.9699C27.6601 34.8199 27.9101 34.68 28.1601 34.55V34.71H41.6401V34.52C41.8701 34.59 42.0901 34.66 42.3201 34.73C42.7701 34.87 43.2101 35.03 43.6301 35.19C44.4801 35.51 45.3001 35.87 46.0601 36.26C47.5801 37.03 48.9101 37.9 49.9701 38.83C52.0901 40.68 53.1601 42.73 52.6701 44.54L52.6601 44.52Z" fill="#F2EDE0"/>
<path d="M52.2601 44.42C51.3101 47.94 44.6801 49.21 37.4501 47.26C30.2201 45.31 25.1301 40.87 26.0801 37.35C26.3201 36.47 26.9101 35.73 27.7801 35.15C28.0001 35 28.2301 34.87 28.4801 34.74C28.6101 34.68 28.7301 34.62 28.8701 34.56V34.71H40.8901V34.51C48.1201 36.46 53.2101 40.9 52.2601 44.42Z" fill="#F2ECDF"/>
<path d="M51.8702 44.31C50.9502 47.72 44.5202 48.96 37.5102 47.06C30.5002 45.17 25.5602 40.86 26.4902 37.45C26.7202 36.6 27.3002 35.88 28.1402 35.31C28.5602 35.03 29.0502 34.78 29.5902 34.58V34.7H40.8501C47.8601 36.59 52.8002 40.89 51.8702 44.31Z" fill="#F2ECDE"/>
<path d="M51.47 44.2C50.58 47.51 44.35 48.7 37.56 46.87C30.77 45.04 25.9901 40.87 26.8801 37.56C27.1001 36.73 27.66 36.04 28.48 35.49C28.89 35.22 29.3601 34.98 29.8901 34.78C30.1501 34.68 30.43 34.59 30.72 34.51V34.7H39.5301V34.58C39.9501 34.67 40.37 34.77 40.8 34.89C47.59 36.72 52.37 40.89 51.48 44.2H51.47Z" fill="#F1EBDE"/>
<path d="M51.0702 44.09C50.2102 47.29 44.1801 48.45 37.6001 46.67C31.0301 44.89 26.4002 40.86 27.2602 37.66C27.6902 36.06 29.4201 34.97 31.8501 34.5V34.69H38.2901V34.54C39.0901 34.67 39.9001 34.85 40.7201 35.07C47.2901 36.85 51.9202 40.88 51.0602 44.08L51.0702 44.09Z" fill="#F1EBDD"/>
<path d="M50.6801 43.99C49.8401 47.08 44.0201 48.2 37.6601 46.49C31.3101 44.77 26.8301 40.87 27.6701 37.78C28.0901 36.23 29.7501 35.18 32.1101 34.73C32.7001 34.62 33.3301 34.54 34.0001 34.51V34.71H36.0901V34.52C37.5401 34.61 39.1001 34.86 40.6901 35.29C47.0401 37.01 51.5201 40.91 50.6801 44V43.99Z" fill="#F0EADC"/>
<path d="M50.2802 43.88C49.4702 46.87 43.8502 47.9499 37.7102 46.2899C31.5702 44.6299 27.2602 40.87 28.0602 37.88C28.4602 36.39 30.0701 35.37 32.3501 34.93C34.6201 34.49 37.5602 34.6399 40.6302 35.4699C46.7602 37.1299 51.0802 40.89 50.2802 43.88Z" fill="#F1E9DB"/>
<path d="M49.8802 43.77C49.1002 46.65 43.6802 47.69 37.7602 46.09C31.8402 44.49 27.6802 40.8599 28.4602 37.9799C28.8502 36.5399 30.4002 35.56 32.5902 35.14C34.7802 34.72 37.6202 34.8599 40.5802 35.6599C46.5002 37.2599 50.6602 40.89 49.8802 43.77Z" fill="#EFE9DA"/>
<path d="M49.4901 43.67C48.7401 46.44 43.5201 47.45 37.8201 45.91C32.1201 44.37 28.1101 40.88 28.8601 38.1C29.2301 36.71 30.7301 35.77 32.8401 35.36C34.9501 34.96 37.6801 35.09 40.5301 35.86C46.2301 37.4 50.2401 40.89 49.4901 43.67Z" fill="#EEE8DA"/>
<path d="M49.0431 43.4865C49.7629 40.8205 45.9073 37.4608 40.4315 35.9822C34.9556 34.5037 29.933 35.4663 29.2132 38.1323C28.4933 40.7982 32.3489 44.158 37.8247 45.6365C43.3006 47.115 48.3232 46.1524 49.0431 43.4865Z" fill="#EFE7D9"/>
<path d="M48.6472 43.3796C49.3382 40.8203 45.6366 37.5949 40.3793 36.1754C35.1221 34.7559 30.3001 35.6799 29.609 38.2392C28.918 40.7985 32.6196 44.0239 37.8769 45.4434C43.1341 46.8629 47.9562 45.9389 48.6472 43.3796Z" fill="#EEE6D8"/>
<path d="M48.2514 43.2727C48.9136 40.8201 45.3658 37.7289 40.3272 36.3684C35.2885 35.0079 30.667 35.8933 30.0048 38.346C29.3425 40.7987 32.8903 43.8899 37.929 45.2503C42.9676 46.6108 47.5891 45.7254 48.2514 43.2727Z" fill="#EEE5D7"/>
<path d="M47.8555 43.1659C48.4889 40.8199 45.0951 37.863 40.275 36.5615C35.455 35.2601 31.0341 36.1069 30.4006 38.4529C29.7672 40.799 33.1611 43.7558 37.9811 45.0573C42.8011 46.3587 47.222 45.5119 47.8555 43.1659Z" fill="#EDE4D6"/>
<path d="M47.4598 43.059C48.0644 40.8196 44.8244 37.997 40.223 36.7546C35.6215 35.5122 31.4011 36.3204 30.7965 38.5598C30.1918 40.7992 33.4319 43.6218 38.0333 44.8642C42.6347 46.1066 46.8551 45.2984 47.4598 43.059Z" fill="#ECE4D5"/>
<path d="M47.064 42.9521C47.6398 40.8194 44.5537 38.1311 40.1709 36.9477C35.7881 35.7643 31.7682 36.5339 31.1924 38.6666C30.6165 40.7994 33.7027 43.4877 38.0855 44.6711C42.4683 45.8545 46.4881 45.0849 47.064 42.9521Z" fill="#EBE3D4"/>
<path d="M46.6682 42.8453C47.2152 40.8192 44.283 38.2652 40.1187 37.1408C35.9545 36.0164 32.1353 36.7474 31.5882 38.7736C31.0411 40.7997 33.9734 43.3537 38.1376 44.478C42.3019 45.6024 46.1211 44.8714 46.6682 42.8453Z" fill="#EBE2D2"/>
<path d="M46.2723 42.7384C46.7906 40.8189 44.0122 38.3992 40.0666 37.3338C36.121 36.2685 32.5022 36.9609 31.9839 38.8804C31.4657 40.7999 34.2441 43.2196 38.1897 44.2849C42.1353 45.3503 45.754 44.6579 46.2723 42.7384Z" fill="#EAE1D1"/>
<path d="M45.8765 42.6315C46.3659 40.8186 43.7414 38.5332 40.0144 37.5269C36.2874 36.5206 32.8693 37.1744 32.3798 38.9873C31.8903 40.8001 34.5149 43.0855 38.2419 44.0918C41.9689 45.0981 45.387 44.4443 45.8765 42.6315Z" fill="#E9E0D1"/>
<path d="M45.4711 42.522C45.9317 40.8158 43.4654 38.6659 39.9623 37.72C36.4593 36.7741 33.246 37.3905 32.7853 39.0968C32.3246 40.803 34.791 42.9529 38.294 43.8988C41.7971 44.8446 45.0104 44.2282 45.4711 42.522Z" fill="#E8DFD0"/>
<path d="M45.0751 42.4151C45.507 40.8155 43.1946 38.7999 39.9102 37.9131C36.6257 37.0263 33.613 37.604 33.1811 39.2036C32.7492 40.8032 35.0617 42.8188 38.3461 43.7056C41.6306 44.5925 44.6432 44.0147 45.0751 42.4151Z" fill="#E9DECF"/>
<path d="M44.6793 42.3083C45.0824 40.8153 42.9239 38.934 39.858 38.1062C36.7922 37.2784 33.98 37.8176 33.5769 39.3105C33.1738 40.8035 35.3324 42.6848 38.3983 43.5126C41.4641 44.3404 44.2762 43.8012 44.6793 42.3083Z" fill="#E8DCCD"/>
<path d="M44.2834 42.2014C44.6577 40.8151 42.6531 39.068 39.8058 38.2992C36.9586 37.5305 34.347 38.0311 33.9727 39.4174C33.5984 40.8037 35.6031 42.5507 38.4503 43.3195C41.2976 44.0882 43.9091 43.5877 44.2834 42.2014Z" fill="#E7DBCC"/>
<path d="M43.8876 42.0945C44.2331 40.8149 42.3823 39.2021 39.7537 38.4924C37.1251 37.7826 34.714 38.2446 34.3685 39.5243C34.023 40.804 35.8738 42.4167 38.5025 43.1264C41.1311 43.8362 43.5421 43.3742 43.8876 42.0945Z" fill="#E6DACB"/>
<path d="M43.4919 41.9876C43.8086 40.8146 42.1117 39.3362 39.7016 38.6854C37.2916 38.0347 35.0811 38.4581 34.7644 39.6312C34.4477 40.8042 36.1446 42.2826 38.5547 42.9334C40.9647 43.5841 43.1752 43.1607 43.4919 41.9876Z" fill="#E5D9C9"/>
<path d="M43.096 41.8807C43.384 40.8144 41.8409 39.4702 39.6495 38.8785C37.4581 38.2868 35.4482 38.6716 35.1603 39.738C34.8723 40.8044 36.4154 42.1485 38.6068 42.7402C40.7982 43.3319 42.8081 42.9471 43.096 41.8807Z" fill="#E4D8C8"/>
<path d="M42.7003 41.7739C42.9594 40.8142 41.5702 39.6043 39.5974 39.0717C37.6246 38.539 35.8153 38.8852 35.5561 39.8449C35.297 40.8047 36.6862 42.0145 38.659 42.5472C40.6318 43.0798 42.4412 42.7337 42.7003 41.7739Z" fill="#E3D7C6"/>
<path d="M42.3045 41.667C42.5348 40.8139 41.2995 39.7383 39.5453 39.2647C37.7911 38.791 36.1823 39.0987 35.952 39.9518C35.7216 40.8049 36.9569 41.8804 38.7111 42.354C40.4653 42.8277 42.0741 42.5201 42.3045 41.667Z" fill="#E3D5C5"/>
<path d="M41.9086 41.5601C42.1101 40.8136 41.0287 39.8724 39.4931 39.4577C37.9575 39.0431 36.5493 39.3122 36.3477 40.0586C36.1462 40.8051 37.2276 41.7463 38.7632 42.1609C40.2988 42.5756 41.707 42.3066 41.9086 41.5601Z" fill="#E2D4C3"/>
<path d="M41.5127 41.4533C41.6854 40.8134 40.7579 40.0065 39.4409 39.6509C38.1239 39.2953 36.9162 39.5257 36.7435 40.1655C36.5707 40.8054 37.4983 41.6123 38.8153 41.9679C40.1323 42.3235 41.3399 42.0931 41.5127 41.4533Z" fill="#E1D3C2"/>
<path d="M41.1073 41.3338C41.2513 40.8006 40.4819 40.1291 39.3889 39.834C38.2958 39.5388 37.2931 39.7318 37.1491 40.265C37.0051 40.7982 37.7745 41.4697 38.8675 41.7648C39.9606 42.06 40.9634 41.867 41.1073 41.3338Z" fill="#E0D1C0"/>
<path d="M40.7115 41.2369C40.8266 40.8103 40.2111 40.2732 39.3367 40.0371C38.4623 39.801 37.66 39.9553 37.5448 40.3819C37.4297 40.8084 38.0452 41.3456 38.9196 41.5817C39.7941 41.8178 40.5963 41.6635 40.7115 41.2369Z" fill="#DFD0BF"/>
<path d="M40.3156 41.13C40.402 40.8101 39.9404 40.4072 39.2846 40.2301C38.6287 40.0531 38.0271 40.1689 37.9407 40.4888C37.8543 40.8087 38.3159 41.2116 38.9718 41.3887C39.6276 41.5657 40.2292 41.45 40.3156 41.13Z" fill="#DECFBD"/>
<path d="M39.9701 41.09C39.9101 41.3 39.5101 41.38 39.0701 41.26C38.6301 41.14 38.3201 40.87 38.3801 40.66C38.4401 40.45 38.8401 40.37 39.2801 40.49C39.7201 40.61 40.0301 40.88 39.9701 41.09Z" fill="#DDCDBC"/>
<path d="M39.5702 40.9899C39.5402 41.0999 39.3401 41.14 39.1201 41.08C38.9001 41.02 38.7502 40.89 38.7802 40.78C38.8102 40.67 39.0101 40.63 39.2301 40.69C39.4501 40.75 39.6002 40.8799 39.5702 40.9899Z" fill="#DDCCBA"/>
</g>
<mask id="mask1_30_3531" style="mask-type:luminance" maskUnits="userSpaceOnUse" x="23" y="29" width="12" height="8">
<path d="M23.4201 29.31C23.4201 29.31 22.1402 34.85 26.1302 36.47C30.1102 38.09 34.2802 35.37 34.2802 35.37C34.2802 35.37 30.1802 35.2 27.0102 33.58C23.8402 31.96 23.4301 29.31 23.4301 29.31H23.4201Z" fill="white"/>
</mask>
<g mask="url(#mask1_30_3531)">
<path d="M34.2701 29.31H22.1401V38.08H34.2701V29.31Z" fill="#F4EEE2"/>
<path d="M32.9101 34.59C32.2701 36.37 29.7401 37.09 27.2701 36.19C24.8001 35.3 23.3201 33.13 23.9701 31.35C24.2901 30.46 25.0801 29.84 26.1001 29.55C27.1201 29.26 28.3701 29.3 29.6001 29.75C32.0701 30.64 33.5502 32.81 32.9002 34.59H32.9101Z" fill="#F4EEE2"/>
<path d="M32.8 34.55C32.17 36.29 29.71 36.99 27.3 36.11C24.89 35.24 23.4501 33.12 24.0801 31.39C24.3901 30.52 25.17 29.91 26.16 29.63C27.16 29.35 28.3701 29.39 29.5801 29.83C31.9901 30.7 33.43 32.82 32.8 34.55Z" fill="#F4EEE2"/>
<path d="M32.7058 34.5625C33.3192 32.8698 31.9139 30.808 29.5669 29.9575C27.2199 29.107 24.8201 29.7898 24.2067 31.4825C23.5932 33.1752 24.9985 35.2369 27.3455 36.0874C29.6924 36.938 32.0923 36.2552 32.7058 34.5625Z" fill="#F4EEE2"/>
<path d="M32.6023 34.5251C33.2007 32.8739 31.8294 30.8626 29.5396 30.0328C27.2497 29.203 24.9084 29.8688 24.31 31.52C23.7116 33.1712 25.0828 35.1824 27.3727 36.0123C29.6625 36.8421 32.0039 36.1762 32.6023 34.5251Z" fill="#F4EEE1"/>
<path d="M32.4896 34.4842C33.071 32.8797 31.7365 30.9246 29.509 30.1174C27.2814 29.3101 25.0043 29.9564 24.4229 31.5609C23.8415 33.1653 25.1759 35.1204 27.4034 35.9276C29.631 36.7348 31.9081 36.0886 32.4896 34.4842Z" fill="#F3EEE1"/>
<path d="M32.3861 34.4467C32.9525 32.8838 31.6521 30.9791 29.4817 30.1926C27.3113 29.406 25.0927 30.0354 24.5263 31.5983C23.9599 33.1613 25.2602 35.0659 27.4306 35.8524C29.6011 36.639 31.8197 36.0096 32.3861 34.4467Z" fill="#F3EEE1"/>
<path d="M32.2734 34.4058C32.8247 32.8844 31.5626 31.0318 29.4545 30.2678C27.3464 29.5038 25.1905 30.1178 24.6391 31.6392C24.0878 33.1606 25.3498 35.0132 27.458 35.7772C29.5661 36.5411 31.722 35.9272 32.2734 34.4058Z" fill="#F3EDE0"/>
<path d="M32.1605 34.3649C32.6949 32.8903 31.4697 31.0938 29.4239 30.3524C27.378 29.611 25.2864 30.2055 24.752 31.6801C24.2176 33.1548 25.4428 34.9512 27.4886 35.6926C29.5344 36.4339 31.6261 35.8396 32.1605 34.3649Z" fill="#F2EDE0"/>
<path d="M32.0571 34.3274C32.5764 32.8943 31.3853 31.1483 29.3966 30.4276C27.4079 29.7069 25.3747 30.2845 24.8554 31.7176C24.3361 33.1507 25.5272 34.8967 27.5158 35.6174C29.5045 36.3381 31.5377 35.7605 32.0571 34.3274Z" fill="#F2ECDF"/>
<path d="M31.9443 34.2865C32.4467 32.9002 31.2923 31.2104 29.366 30.5123C27.4396 29.8142 25.4707 30.3721 24.9683 31.7585C24.4659 33.1449 25.6202 34.8346 27.5466 35.5327C29.473 36.2308 31.4419 35.6729 31.9443 34.2865Z" fill="#F2ECDE"/>
<path d="M31.8409 34.249C32.3282 32.9042 31.2079 31.2648 29.3387 30.5874C27.4694 29.91 25.559 30.4511 25.0716 31.7959C24.5843 33.1408 25.7045 34.7801 27.5738 35.4575C29.4431 36.1349 31.3535 35.5939 31.8409 34.249Z" fill="#F1EBDE"/>
<path d="M31.7281 34.2082C32.2004 32.9049 31.1184 31.3175 29.3115 30.6627C27.5045 30.0079 25.6568 30.5336 25.1845 31.8369C24.7122 33.1402 25.7942 34.7275 27.6011 35.3823C29.4081 36.0372 31.2558 35.5115 31.7281 34.2082Z" fill="#F1EBDD"/>
<path d="M31.6153 34.1673C32.0706 32.9107 31.0254 31.3796 29.2807 30.7473C27.5361 30.1151 25.7527 30.6212 25.2973 31.8777C24.8419 33.1343 25.8871 34.6655 27.6317 35.2977C29.3764 35.9299 31.1599 35.4239 31.6153 34.1673Z" fill="#F0EADC"/>
<path d="M31.5117 34.1298C31.9521 32.9148 30.941 31.434 29.2535 30.8225C27.5659 30.2109 25.841 30.7002 25.4006 31.9152C24.9603 33.1302 25.9714 34.6109 27.6589 35.2225C29.3465 35.834 31.0714 35.3448 31.5117 34.1298Z" fill="#F1E9DB"/>
<path d="M31.3989 34.0889C31.8242 32.9154 30.8514 31.4867 29.2262 30.8977C27.601 30.3088 25.9388 30.7826 25.5135 31.9561C25.0883 33.1296 26.061 34.5583 27.6862 35.1473C29.3114 35.7363 30.9737 35.2624 31.3989 34.0889Z" fill="#EFE9DA"/>
<path d="M31.2956 34.0514C31.7039 32.9247 30.7637 31.5506 29.1956 30.9824C27.6275 30.4141 26.0253 30.8668 25.617 31.9936C25.2087 33.1203 26.1488 34.4944 27.717 35.0627C29.2851 35.6309 30.8873 35.1782 31.2956 34.0514Z" fill="#EEE8DA"/>
<path d="M31.1827 34.0105C31.576 32.9253 30.6741 31.6032 29.1683 31.0575C27.6625 30.5118 26.123 30.9492 25.7298 32.0344C25.3365 33.1197 26.2384 34.4417 27.7442 34.9874C29.25 35.5331 30.7895 35.0958 31.1827 34.0105Z" fill="#EFE7D9"/>
<path d="M31.0699 33.9696C31.4481 32.926 30.5845 31.6558 29.141 31.1327C27.6975 30.6096 26.2208 31.0316 25.8425 32.0753C25.4643 33.119 26.3279 34.3891 27.7714 34.9122C29.2148 35.4353 30.6917 35.0133 31.0699 33.9696Z" fill="#EEE6D8"/>
<path d="M30.9664 33.9322C31.3277 32.9353 30.4967 31.7198 29.1103 31.2174C27.7239 30.715 26.3072 31.1159 25.9459 32.1128C25.5846 33.1098 26.4156 34.3252 27.802 34.8276C29.1884 35.33 30.6051 34.9292 30.9664 33.9322Z" fill="#EEE5D7"/>
<path d="M30.8537 33.8913C31.1999 32.9359 30.4072 31.7724 29.0831 31.2926C27.759 30.8127 26.405 31.1983 26.0588 32.1537C25.7125 33.1091 26.5052 34.2726 27.8293 34.7524C29.1534 35.2322 30.5074 34.8467 30.8537 33.8913Z" fill="#EDE4D6"/>
<path d="M30.7502 33.8539C31.0814 32.94 30.3228 31.8269 29.0559 31.3678C27.7889 30.9087 26.4934 31.2774 26.1623 32.1912C25.8311 33.1051 26.5896 34.2181 27.8566 34.6772C29.1235 35.1364 30.4191 34.7677 30.7502 33.8539Z" fill="#ECE4D5"/>
<path d="M30.6374 33.813C30.9516 32.9458 30.2298 31.889 29.0251 31.4525C27.8205 31.0159 26.5893 31.365 26.275 32.2321C25.9608 33.0992 26.6826 34.156 27.8872 34.5926C29.0918 35.0291 30.3231 34.6801 30.6374 33.813Z" fill="#EBE3D4"/>
<path d="M30.5246 33.7721C30.8238 32.9465 30.1403 31.9416 28.998 31.5276C27.8556 31.1136 26.6871 31.4474 26.3879 32.273C26.0887 33.0986 26.7722 34.1034 27.9145 34.5173C29.0568 34.9313 30.2254 34.5977 30.5246 33.7721Z" fill="#EBE2D2"/>
<path d="M30.4212 33.7446C30.7034 32.9657 30.0525 32.0155 28.9673 31.6222C27.8821 31.229 26.7735 31.5416 26.4913 32.3204C26.209 33.0993 26.8599 34.0495 27.9451 34.4428C29.0304 34.836 30.1389 34.5235 30.4212 33.7446Z" fill="#EAE1D1"/>
<path d="M30.3084 33.6937C30.5756 32.9564 29.963 32.0581 28.9401 31.6875C27.9172 31.3168 26.8714 31.614 26.6042 32.3513C26.337 33.0886 26.9496 33.9868 27.9725 34.3575C28.9954 34.7282 30.0412 34.431 30.3084 33.6937Z" fill="#E9E0D1"/>
<path d="M30.205 33.6562C30.4571 32.9605 29.8786 32.1127 28.9128 31.7627C27.947 31.4127 26.9597 31.693 26.7075 32.3888C26.4554 33.0846 27.0339 33.9323 27.9997 34.2823C28.9655 34.6323 29.9528 34.352 30.205 33.6562Z" fill="#E8DFD0"/>
<path d="M30.0922 33.6154C30.3275 32.9663 29.7857 32.1747 28.8822 31.8473C27.9787 31.5199 27.0556 31.7806 26.8204 32.4297C26.5852 33.0787 27.1269 33.8703 28.0304 34.1977C28.9339 34.5251 29.857 34.2644 30.0922 33.6154Z" fill="#E9DECF"/>
<path d="M29.9794 33.5745C30.1995 32.967 29.696 32.2273 28.8549 31.9225C28.0137 31.6177 27.1533 31.863 26.9332 32.4706C26.713 33.0781 27.2164 33.8176 28.0576 34.1225C28.8988 34.4273 29.7592 34.182 29.9794 33.5745Z" fill="#E8DCCD"/>
<path d="M29.8759 33.537C30.081 32.971 29.6117 32.2818 28.8276 31.9977C28.0436 31.7136 27.2417 31.9421 27.0366 32.5081C26.8315 33.074 27.3008 33.7631 28.0849 34.0473C28.8689 34.3314 29.6708 34.103 29.8759 33.537Z" fill="#E7DBCC"/>
<path d="M29.7631 33.5061C29.9512 32.9869 29.5187 32.3539 28.7969 32.0924C28.0752 31.8308 27.3376 32.0397 27.1494 32.559C26.9613 33.0782 27.3938 33.7111 28.1155 33.9727C28.8373 34.2342 29.5749 34.0254 29.7631 33.5061Z" fill="#E6DACB"/>
<path d="M29.6597 33.4586C29.8328 32.9809 29.4344 32.3984 28.7697 32.1575C28.1051 31.9167 27.426 32.1087 27.2529 32.5864C27.0798 33.0641 27.4782 33.6466 28.1428 33.8874C28.8075 34.1283 29.4866 33.9363 29.6597 33.4586Z" fill="#E5D9C9"/>
<path d="M29.5469 33.4177C29.7049 32.9815 29.3447 32.451 28.7424 32.2327C28.1401 32.0144 27.5237 32.1911 27.3657 32.6273C27.2076 33.0634 27.5677 33.5939 28.17 33.8122C28.7724 34.0305 29.3888 33.8539 29.5469 33.4177Z" fill="#E4D8C8"/>
<path d="M29.4201 33.32C29.2801 33.71 28.7201 33.87 28.1801 33.67C27.6401 33.47 27.3102 33 27.4502 32.61C27.5902 32.22 28.1502 32.06 28.6902 32.26C29.2302 32.46 29.5601 32.93 29.4201 33.32Z" fill="#E3D7C6"/>
<path d="M29.3305 33.3394C29.4566 32.9915 29.1673 32.5676 28.6844 32.3926C28.2015 32.2176 27.7079 32.3578 27.5818 32.7057C27.4557 33.0535 27.745 33.4774 28.2279 33.6524C28.7108 33.8274 29.2045 33.6873 29.3305 33.3394Z" fill="#E3D5C5"/>
<path d="M29.2178 33.2985C29.3288 32.9921 29.0778 32.6202 28.6572 32.4678C28.2366 32.3153 27.8057 32.4402 27.6947 32.7465C27.5836 33.0529 27.8346 33.4247 28.2552 33.5772C28.6758 33.7296 29.1068 33.6048 29.2178 33.2985Z" fill="#E2D4C3"/>
<path d="M29.1144 33.271C29.2084 33.0113 28.9901 32.6941 28.6266 32.5624C28.2631 32.4307 27.8922 32.5344 27.7982 32.794C27.7041 33.0536 27.9224 33.3708 28.2859 33.5026C28.6493 33.6343 29.0203 33.5306 29.1144 33.271Z" fill="#E1D3C2"/>
<path d="M28.9801 33.17C28.9001 33.39 28.5901 33.47 28.2901 33.37C27.9901 33.26 27.8101 33 27.8901 32.78C27.9701 32.56 28.2801 32.48 28.5801 32.58C28.8801 32.69 29.0601 32.95 28.9801 33.17Z" fill="#E0D1C0"/>
<path d="M28.8702 33.13C28.8102 33.3 28.5602 33.3699 28.3202 33.2899C28.0802 33.1999 27.9302 32.99 28.0002 32.82C28.0702 32.65 28.3102 32.5799 28.5502 32.6599C28.7902 32.7399 28.9402 32.96 28.8702 33.13Z" fill="#DFD0BF"/>
<path d="M28.7601 33.09C28.7101 33.22 28.5301 33.27 28.3501 33.21C28.1701 33.14 28.0601 32.9899 28.1101 32.8599C28.1601 32.7299 28.3401 32.68 28.5201 32.74C28.7001 32.81 28.8101 32.96 28.7601 33.09Z" fill="#DECFBD"/>
<path d="M28.6725 33.1009C28.7045 33.0126 28.6336 32.906 28.5142 32.8627C28.3948 32.8194 28.272 32.8559 28.24 32.9442C28.2081 33.0324 28.2789 33.1391 28.3983 33.1823C28.5178 33.2256 28.6406 33.1892 28.6725 33.1009Z" fill="#DDCDBC"/>
<path d="M28.5401 33.01C28.5401 33.01 28.4602 33.0699 28.4002 33.0499C28.3402 33.0299 28.3001 32.9799 28.3201 32.9299C28.3401 32.8899 28.4002 32.87 28.4602 32.89C28.5202 32.91 28.5601 32.96 28.5401 33.01Z" fill="#DDCCBA"/>
</g>
<mask id="mask2_30_3531" style="mask-type:luminance" maskUnits="userSpaceOnUse" x="34" y="36" width="12" height="8">
<path d="M35.0802 36.01C35.0802 36.01 33.9901 40.74 37.1601 42.36C42.8201 45.25 45.4101 40.51 45.4101 40.51C45.4101 40.51 41.6601 41.61 38.5401 40.05C35.4201 38.49 35.0802 36.01 35.0802 36.01Z" fill="white"/>
</mask>
<g mask="url(#mask2_30_3531)">
<path d="M45.4101 36.01H33.9901V45.25H45.4101V36.01Z" fill="#F4EEE2"/>
<path d="M45.4501 40.45V41.16H45.47C45.33 41.38 45.1601 41.58 44.9601 41.77C44.5601 42.14 44.0401 42.42 43.4301 42.62C42.2201 43.02 40.6901 43.06 39.1101 42.66C35.9501 41.85 33.8201 39.54 34.3401 37.51C34.4701 37 34.76 36.56 35.16 36.19C35.26 36.1 35.37 36.01 35.48 35.93V35.97H42.66V35.9C42.83 35.98 42.9901 36.07 43.1501 36.16C43.7901 36.52 44.3301 36.95 44.7601 37.42C44.9801 37.65 45.1601 37.9 45.3201 38.14C45.4001 38.26 45.4701 38.39 45.5301 38.52H45.4401V40.45H45.4501Z" fill="#F4EEE2"/>
<path d="M45.6401 40.41C45.1301 42.39 42.2201 43.36 39.1401 42.57C36.0601 41.78 33.9801 39.53 34.4901 37.55C34.6201 37.05 34.9001 36.62 35.2901 36.26C35.4901 36.08 35.7101 35.92 35.9601 35.78V35.97H42.0902V35.75C42.4402 35.89 42.7701 36.05 43.0801 36.23C43.7001 36.58 44.2302 37 44.6502 37.46C45.0702 37.91 45.3801 38.41 45.5501 38.91H45.4401V40.42H45.6301L45.6401 40.41Z" fill="#F4EEE2"/>
<path d="M45.5001 40.38C45.0001 42.31 42.1701 43.26 39.1601 42.48C36.1601 41.71 34.1301 39.51 34.6301 37.58C34.7501 37.1 35.0201 36.68 35.4101 36.33C35.6001 36.16 35.8201 36 36.0601 35.86V35.97H42.0401V35.83C42.3801 35.97 42.7101 36.12 43.0101 36.3C43.6101 36.64 44.1301 37.05 44.5401 37.49C44.9501 37.93 45.2501 38.41 45.4201 38.9C45.5901 39.39 45.6201 39.89 45.5001 40.37V40.38Z" fill="#F4EEE2"/>
<path d="M45.3602 40.34C44.8802 42.22 42.1102 43.14 39.1902 42.39C36.2702 41.64 34.2902 39.5 34.7702 37.62C34.8902 37.15 35.1502 36.74 35.5302 36.4C35.7202 36.23 35.9302 36.08 36.1702 35.95V35.98H42.0002V35.92C42.3302 36.05 42.6502 36.21 42.9402 36.37C43.5302 36.71 44.0402 37.1 44.4302 37.53C45.2302 38.39 45.6002 39.4 45.3602 40.34Z" fill="#F4EEE1"/>
<path d="M45.2201 40.31C44.7501 42.14 42.0602 43.04 39.2102 42.3C36.3602 41.56 34.4401 39.49 34.9101 37.65C35.0301 37.19 35.2802 36.79 35.6502 36.46C35.8302 36.29 36.0402 36.15 36.2702 36.02C36.3902 35.96 36.5102 35.9 36.6302 35.84V35.97H41.4402V35.81C41.6102 35.87 41.7802 35.93 41.9402 35.99C42.2602 36.12 42.5701 36.27 42.8601 36.43C43.4301 36.76 43.9302 37.14 44.3202 37.56C45.1002 38.4 45.4601 39.38 45.2301 40.3L45.2201 40.31Z" fill="#F3EEE1"/>
<path d="M45.0801 40.27C44.6201 42.05 42 42.92 39.23 42.21C36.46 41.5 34.59 39.47 35.05 37.69C35.28 36.8 36.05 36.13 37.11 35.78V35.97H40.9001V35.75C43.6701 36.46 45.5401 38.49 45.0801 40.27Z" fill="#F3EEE1"/>
<path d="M44.9401 40.23C44.4901 41.97 41.9501 42.81 39.2501 42.12C36.5501 41.43 34.7401 39.46 35.1801 37.72C35.4001 36.85 36.1501 36.21 37.1801 35.87V35.97H40.8701V35.84C43.5601 36.53 45.3801 38.5 44.9401 40.24V40.23Z" fill="#F3EDE0"/>
<path d="M44.8 40.2C44.37 41.89 41.8901 42.71 39.2801 42.03C36.6601 41.36 34.89 39.44 35.33 37.76C35.55 36.92 36.2701 36.29 37.2701 35.96L40.85 35.97V35.93C43.47 36.6 45.24 38.52 44.8 40.2Z" fill="#F2EDE0"/>
<path d="M44.6601 40.16C44.2401 41.8 41.8401 42.59 39.3001 41.94C36.7601 41.29 35.0401 39.43 35.4601 37.79C35.6701 36.97 36.3801 36.36 37.3501 36.04C37.8401 35.88 38.3901 35.79 38.9701 35.78C39.5601 35.78 40.1801 35.84 40.8201 36.01C43.3601 36.66 45.0801 38.52 44.6601 40.16Z" fill="#F2ECDF"/>
<path d="M44.5202 40.13C44.1102 41.72 41.7801 42.49 39.3201 41.86C36.8601 41.23 35.1901 39.43 35.6001 37.84C35.8001 37.05 36.4901 36.46 37.4301 36.14C38.3701 35.83 39.5701 35.79 40.8001 36.11C43.2601 36.74 44.9302 38.54 44.5202 40.13Z" fill="#F2ECDE"/>
<path d="M44.3902 40.09C43.9902 41.63 41.7402 42.38 39.3502 41.76C36.9602 41.14 35.3502 39.4 35.7502 37.87C35.9502 37.1 36.6102 36.53 37.5202 36.23C38.4302 35.93 39.5902 35.89 40.7802 36.2C43.1702 36.81 44.7802 38.56 44.3802 40.09H44.3902Z" fill="#F1EBDE"/>
<path d="M44.2501 40.06C43.8701 41.55 41.6901 42.27 39.3801 41.68C37.0701 41.09 35.5101 39.4 35.8901 37.91C36.0801 37.17 36.7201 36.61 37.6001 36.32C38.4801 36.03 39.6001 35.99 40.7601 36.29C43.0701 36.88 44.6301 38.57 44.2501 40.06Z" fill="#F1EBDD"/>
<path d="M44.1136 40.0237C44.4838 38.5849 42.9758 36.9533 40.7454 36.3794C38.5151 35.8055 36.4069 36.5066 36.0367 37.9454C35.6665 39.3842 37.1744 41.0158 39.4048 41.5897C41.6351 42.1636 43.7434 41.4625 44.1136 40.0237Z" fill="#F0EADC"/>
<path d="M43.9681 39.9888C44.3259 38.5982 42.8686 37.0212 40.7131 36.4666C38.5576 35.912 36.5202 36.5897 36.1623 37.9803C35.8045 39.3709 37.2617 40.9479 39.4172 41.5026C41.5727 42.0572 43.6102 41.3795 43.9681 39.9888Z" fill="#F1E9DB"/>
<path d="M43.8228 39.9514C44.1668 38.6143 42.7634 37.0974 40.6882 36.5634C38.6129 36.0294 36.6516 36.6805 36.3076 38.0177C35.9635 39.3548 37.3669 40.8717 39.4422 41.4057C41.5174 41.9397 43.4787 41.2886 43.8228 39.9514Z" fill="#EFE9DA"/>
<path d="M43.6971 39.9166C44.0288 38.6276 42.6761 37.1654 40.6757 36.6507C38.6753 36.1359 36.7848 36.7636 36.4531 38.0526C36.1214 39.3416 37.4742 40.8039 39.4745 41.3186C41.4749 41.8333 43.3654 41.2056 43.6971 39.9166Z" fill="#EEE8DA"/>
<path d="M43.5516 39.8817C43.8709 38.6408 42.5688 37.2332 40.6433 36.7378C38.7178 36.2423 36.898 36.8466 36.5787 38.0875C36.2595 39.3284 37.5615 40.7359 39.487 41.2314C41.4125 41.7269 43.2323 41.1226 43.5516 39.8817Z" fill="#EFE7D9"/>
<path d="M43.4063 39.8443C43.7118 38.6569 42.4636 37.3095 40.6183 36.8346C38.7731 36.3598 37.0295 36.9375 36.724 38.1249C36.4185 39.3123 37.6666 40.6598 39.5119 41.1346C41.3572 41.6094 43.1008 41.0317 43.4063 39.8443Z" fill="#EEE6D8"/>
<path d="M43.2707 39.8094C43.5638 38.6702 42.3663 37.3773 40.5959 36.9218C38.8255 36.4662 37.1527 37.0205 36.8595 38.1597C36.5664 39.299 37.7639 40.5918 39.5343 41.0474C41.3047 41.5029 42.9775 40.9487 43.2707 39.8094Z" fill="#EEE5D7"/>
<path d="M43.1352 39.7745C43.416 38.6834 42.269 37.4452 40.5735 37.0089C38.878 36.5727 37.2759 37.1035 36.9952 38.1946C36.7144 39.2857 37.8613 40.5239 39.5568 40.9602C41.2523 41.3965 42.8544 40.8657 43.1352 39.7745Z" fill="#EDE4D6"/>
<path d="M42.9999 39.7371C43.2683 38.6942 42.1764 37.5117 40.5611 37.0961C38.9458 36.6804 37.4189 37.189 37.1505 38.232C36.8821 39.275 37.974 40.4574 39.5892 40.8731C41.2045 41.2887 42.7315 40.7801 42.9999 39.7371Z" fill="#ECE4D5"/>
<path d="M42.8643 39.7023C43.1189 38.7128 42.0765 37.5893 40.5361 37.1929C38.9957 36.7966 37.5406 37.2774 37.286 38.2669C37.0314 39.2564 38.0737 40.3799 39.6141 40.7762C41.1545 41.1726 42.6097 40.6917 42.8643 39.7023Z" fill="#EBE3D4"/>
<path d="M42.719 39.6649C42.9613 38.7235 41.9739 37.6558 40.5137 37.2801C39.0535 36.9043 37.6735 37.3629 37.4313 38.3043C37.189 39.2456 38.1764 40.3133 39.6365 40.689C41.0967 41.0648 42.4768 40.6062 42.719 39.6649Z" fill="#EBE2D2"/>
<path d="M42.5734 39.62C42.8032 38.7268 41.8665 37.7138 40.4812 37.3573C39.0959 37.0008 37.7866 37.436 37.5568 38.3292C37.3269 39.2224 38.2636 40.2354 39.6489 40.5919C41.0342 40.9484 42.3435 40.5132 42.5734 39.62Z" fill="#EAE1D1"/>
<path d="M42.4378 39.5951C42.6553 38.7501 41.7693 37.7916 40.4588 37.4544C39.1484 37.1172 37.9099 37.529 37.6924 38.3741C37.475 39.2192 38.361 40.1776 39.6714 40.5148C40.9818 40.852 42.2204 40.4402 42.4378 39.5951Z" fill="#E9E0D1"/>
<path d="M42.3026 39.5578C42.5063 38.7662 41.6741 37.8679 40.4439 37.5513C39.2137 37.2348 38.0514 37.6199 37.8477 38.4115C37.644 39.203 38.4761 40.1013 39.7063 40.4179C40.9365 40.7344 42.0989 40.3494 42.3026 39.5578Z" fill="#E8DFD0"/>
<path d="M42.1571 39.5229C42.3484 38.7794 41.5669 37.9357 40.4116 37.6384C39.2563 37.3412 38.1646 37.7029 37.9733 38.4463C37.782 39.1898 38.5635 40.0335 39.7188 40.3308C40.8741 40.628 41.9658 40.2663 42.1571 39.5229Z" fill="#E9DECF"/>
<path d="M42.0117 39.4755C42.1906 38.7802 41.4641 37.9922 40.3891 37.7156C39.314 37.439 38.2974 37.7784 38.1185 38.4737C37.9396 39.169 38.6661 39.9569 39.7412 40.2336C40.8162 40.5102 41.8328 40.1708 42.0117 39.4755Z" fill="#E8DCCD"/>
<path d="M41.8862 39.4506C42.0527 38.8034 41.3769 38.0701 40.3767 37.8127C39.3765 37.5554 38.4307 37.8714 38.2642 38.5186C38.0977 39.1658 38.7735 39.8991 39.7736 40.1564C40.7738 40.4138 41.7197 40.0978 41.8862 39.4506Z" fill="#E7DBCC"/>
<path d="M41.7505 39.4157C41.9033 38.822 41.277 38.1477 40.3517 37.9096C39.4264 37.6715 38.5524 37.9598 38.3997 38.5535C38.2469 39.1472 38.8731 39.8214 39.7985 40.0595C40.7238 40.2976 41.5978 40.0094 41.7505 39.4157Z" fill="#E6DACB"/>
<path d="M41.6052 39.3783C41.7456 38.8327 41.1743 38.2142 40.3293 37.9967C39.4842 37.7793 38.6853 38.0453 38.545 38.5908C38.4046 39.1364 38.9758 39.755 39.8209 39.9724C40.666 40.1899 41.4649 39.9239 41.6052 39.3783Z" fill="#E5D9C9"/>
<path d="M41.4596 39.3334C41.5876 38.836 41.067 38.2721 40.2968 38.0739C39.5266 37.8757 38.7985 38.1183 38.6705 38.6157C38.5425 39.1131 39.0631 39.677 39.8333 39.8752C40.6035 40.0734 41.3316 39.8308 41.4596 39.3334Z" fill="#E4D8C8"/>
<path d="M41.3202 39.3C41.2102 39.75 40.5501 39.96 39.8601 39.79C39.1701 39.61 38.7002 39.11 38.8102 38.66C38.9202 38.21 39.5802 38 40.2702 38.17C40.9602 38.35 41.4302 38.85 41.3202 39.3Z" fill="#E3D7C6"/>
<path d="M41.1889 39.2711C41.2908 38.8753 40.8747 38.4262 40.2596 38.2679C39.6445 38.1096 39.0633 38.3022 38.9615 38.698C38.8597 39.0938 39.2757 39.5429 39.8908 39.7012C40.5059 39.8595 41.0871 39.6669 41.1889 39.2711Z" fill="#E3D5C5"/>
<path d="M41.0433 39.2362C41.1328 38.8886 40.7674 38.4941 40.2271 38.3551C39.6869 38.2161 39.1765 38.3852 39.087 38.7329C38.9976 39.0805 39.363 39.4751 39.9032 39.6141C40.4434 39.7531 40.9539 39.5839 41.0433 39.2362Z" fill="#E2D4C3"/>
<path d="M40.8981 39.1989C40.9752 38.8993 40.6647 38.5606 40.2047 38.4422C39.7447 38.3239 39.3094 38.4707 39.2323 38.7702C39.1553 39.0698 39.4656 39.4085 39.9256 39.5269C40.3856 39.6452 40.821 39.4984 40.8981 39.1989Z" fill="#E1D3C2"/>
<path d="M40.7624 39.154C40.8257 38.908 40.5648 38.6282 40.1797 38.5291C39.7946 38.43 39.4311 38.5491 39.3678 38.7952C39.3045 39.0412 39.5653 39.321 39.9504 39.4201C40.3355 39.5192 40.6991 39.4 40.7624 39.154Z" fill="#E0D1C0"/>
<path d="M40.6201 39.12C40.5701 39.32 40.2801 39.4101 39.9701 39.3401C39.6601 39.2601 39.4501 39.0401 39.5101 38.8401C39.5601 38.6401 39.8501 38.55 40.1601 38.62C40.4701 38.7 40.6801 38.92 40.6201 39.12Z" fill="#DFD0BF"/>
<path d="M40.4801 39.0901C40.4401 39.2401 40.2201 39.31 39.9901 39.25C39.7601 39.19 39.6002 39.02 39.6402 38.87C39.6802 38.72 39.9002 38.65 40.1302 38.71C40.3602 38.77 40.5201 38.9401 40.4801 39.0901Z" fill="#DECFBD"/>
<path d="M40.3402 39.05C40.3102 39.15 40.1701 39.2 40.0201 39.16C39.8701 39.12 39.7601 39.01 39.7901 38.91C39.8201 38.81 39.9601 38.76 40.1101 38.8C40.2601 38.84 40.3702 38.95 40.3402 39.05Z" fill="#DDCDBC"/>
<path d="M40.2101 39.02C40.2101 39.02 40.1201 39.09 40.0501 39.07C39.9701 39.05 39.9201 38.99 39.9301 38.94C39.9401 38.89 40.0201 38.87 40.0901 38.89C40.1601 38.91 40.2201 38.97 40.2101 39.02Z" fill="#DDCCBA"/>
</g>
<mask id="mask3_30_3531" style="mask-type:luminance" maskUnits="userSpaceOnUse" x="46" y="40" width="10" height="6">
<path d="M46.05 40.8C46.05 40.8 46.66 45.32 51.42 45.32C54.71 45.32 55.3401 42.36 55.3401 42.36C55.3401 42.36 54.13 43.8 51.36 43.46C48.59 43.11 46.05 40.8 46.05 40.8Z" fill="white"/>
</mask>
<g mask="url(#mask3_30_3531)">
<path d="M55.3401 40.8H46.05V45.32H55.3401V40.8Z" fill="#F4EEE2"/>
<path d="M55.38 42.28V43.87H55.56C55.49 43.96 55.4 44.06 55.32 44.14C55.15 44.32 54.95 44.48 54.73 44.63C53.85 45.23 52.64 45.59 51.31 45.59C48.64 45.57 46.49 44.07 46.5 42.23C46.5 41.77 46.64 41.33 46.89 40.93C46.95 40.83 47.0201 40.73 47.0901 40.64V40.76H55.38V42.28Z" fill="#F4EEE2"/>
<path d="M55.38 42.28V43.83H55.4601C55.3901 43.92 55.31 44.01 55.22 44.1C55.05 44.27 54.8601 44.43 54.64 44.58C53.78 45.16 52.61 45.52 51.3 45.51C48.7 45.5 46.6 44.03 46.61 42.23C46.61 41.78 46.75 41.35 46.99 40.97C47.05 40.87 47.12 40.78 47.19 40.69V40.77H55.38V42.29V42.28Z" fill="#F4EEE2"/>
<path d="M55.38 42.28V43.51H55.55C55.32 43.89 54.98 44.23 54.56 44.51C53.73 45.08 52.58 45.43 51.31 45.42C48.77 45.41 46.73 43.97 46.74 42.22C46.74 41.78 46.87 41.37 47.11 40.99C47.17 40.9 47.23 40.8 47.3 40.71V40.75H55.26V40.62C55.26 40.62 55.33 40.71 55.37 40.75C55.44 40.84 55.5 40.93 55.56 41.03H55.38V42.27V42.28Z" fill="#F4EEE2"/>
<path d="M55.38 42.28V43.48H55.44C55.21 43.85 54.88 44.18 54.48 44.46C53.67 45.01 52.55 45.35 51.31 45.35C48.84 45.34 46.84 43.94 46.85 42.23C46.85 41.8 46.9801 41.4 47.2101 41.03C47.2701 40.94 47.3301 40.85 47.4001 40.76H55.04V40.54C55.2 40.71 55.34 40.88 55.45 41.07H55.38V42.27V42.28Z" fill="#F4EEE1"/>
<path d="M55.38 42.28V42.89H55.59C55.53 43.09 55.44 43.27 55.33 43.45C55.11 43.81 54.79 44.13 54.39 44.4C53.6 44.94 52.51 45.27 51.3 45.26C48.89 45.25 46.95 43.89 46.96 42.23C46.96 41.81 47.09 41.42 47.31 41.06C47.42 40.88 47.56 40.71 47.71 40.55V40.76H54.93V40.59C55.09 40.75 55.22 40.92 55.33 41.1C55.44 41.28 55.52 41.47 55.58 41.67H55.37V42.28H55.38Z" fill="#F3EEE1"/>
<path d="M55.5601 42.28C55.5601 43.9 53.6501 45.2 51.3101 45.18C48.9701 45.16 47.0801 43.85 47.0901 42.23C47.0901 41.83 47.2101 41.44 47.4301 41.09C47.5401 40.92 47.6701 40.75 47.8201 40.59V40.76H54.8501V40.63C55.0001 40.79 55.1301 40.95 55.2401 41.13C55.4501 41.48 55.5701 41.87 55.5701 42.27L55.5601 42.28Z" fill="#F3EEE1"/>
<path d="M55.44 42.28C55.44 43.85 53.58 45.12 51.3 45.1C49.02 45.09 47.19 43.8 47.2 42.23C47.2 41.84 47.32 41.46 47.53 41.12C47.64 40.95 47.76 40.79 47.91 40.64V40.76H54.74V40.68C54.89 40.83 55.01 40.99 55.12 41.17C55.33 41.51 55.44 41.89 55.44 42.28Z" fill="#F3EDE0"/>
<path d="M55.3201 42.28C55.3201 43.81 53.5101 45.03 51.3001 45.02C49.0901 45.01 47.3001 43.76 47.3101 42.23C47.3101 41.85 47.4301 41.49 47.6301 41.16C47.7301 41 47.8601 40.84 48.0001 40.69V40.76H54.6401V40.72C54.7801 40.87 54.9101 41.03 55.0101 41.19C55.2101 41.52 55.3201 41.89 55.3201 42.27V42.28Z" fill="#F2EDE0"/>
<path d="M55.21 42.28C55.21 43.76 53.46 44.95 51.31 44.94C49.16 44.93 47.43 43.72 47.44 42.23C47.44 41.86 47.55 41.51 47.75 41.19C47.85 41.03 47.97 40.88 48.11 40.74V40.77H54.33V40.57C54.41 40.64 54.48 40.71 54.55 40.78C54.69 40.92 54.81 41.08 54.91 41.24C55.1 41.56 55.21 41.92 55.21 42.29V42.28Z" fill="#F2ECDF"/>
<path d="M55.0901 42.27C55.0901 43.71 53.3901 44.86 51.3101 44.85C49.2301 44.84 47.5501 43.66 47.5601 42.23C47.5601 41.87 47.6701 41.53 47.8601 41.22C47.9601 41.06 48.0701 40.92 48.2101 40.78C48.2801 40.71 48.3501 40.64 48.4301 40.58V40.76H54.2401V40.61C54.3201 40.67 54.3901 40.74 54.4601 40.81C54.5901 40.95 54.7101 41.1 54.8001 41.25C54.9901 41.56 55.0901 41.91 55.0901 42.26V42.27Z" fill="#F2ECDE"/>
<path d="M54.97 42.27C54.97 43.66 53.3201 44.78 51.3101 44.77C49.2901 44.76 47.67 43.62 47.67 42.23C47.67 41.88 47.7801 41.55 47.9601 41.25C48.0501 41.1 48.17 40.96 48.3 40.82C48.37 40.75 48.4401 40.69 48.5101 40.63V40.76H54.1401V40.66C54.2101 40.72 54.28 40.79 54.35 40.86C54.48 40.99 54.5901 41.14 54.6801 41.29C54.8601 41.59 54.9601 41.92 54.9601 42.27H54.97Z" fill="#F1EBDE"/>
<path d="M54.85 42.27C54.85 43.62 53.25 44.7 51.3 44.69C49.35 44.68 47.7701 43.58 47.7801 42.23C47.7801 41.89 47.88 41.57 48.06 41.28C48.15 41.13 48.2601 41 48.3901 40.87C48.4501 40.81 48.5201 40.74 48.5901 40.68V40.76H53.81V40.54C54.45 40.99 54.8401 41.6 54.8301 42.27H54.85Z" fill="#F1EBDD"/>
<path d="M54.73 42.27C54.73 43.57 53.19 44.62 51.3 44.61C49.41 44.6 47.8901 43.53 47.9001 42.23C47.9001 41.58 48.29 40.99 48.91 40.57V40.76H53.74V40.6C54.36 41.03 54.73 41.62 54.73 42.27Z" fill="#F0EADC"/>
<path d="M54.62 42.27C54.62 43.53 53.13 44.54 51.31 44.53C49.49 44.52 48.0201 43.49 48.0301 42.23C48.0301 41.6 48.4101 41.03 49.0001 40.63V40.76H53.66V40.65C54.25 41.07 54.62 41.64 54.62 42.27Z" fill="#F1E9DB"/>
<path d="M54.5001 42.27C54.5001 43.48 53.0601 44.46 51.3101 44.45C49.5601 44.44 48.1401 43.45 48.1401 42.24C48.1401 41.63 48.5001 41.09 49.0801 40.69V40.76H53.5801V40.71C54.1501 41.11 54.5101 41.66 54.5001 42.27Z" fill="#EFE9DA"/>
<path d="M54.3801 42.27C54.3801 43.44 53.0001 44.38 51.3101 44.37C49.6201 44.36 48.2501 43.41 48.2601 42.24C48.2601 41.66 48.61 41.13 49.17 40.75V40.77H53.2801V40.64C53.3601 40.68 53.4301 40.73 53.5001 40.78C54.0501 41.17 54.3901 41.7 54.3901 42.28L54.3801 42.27Z" fill="#EEE8DA"/>
<path d="M54.2601 42.27C54.2601 43.39 52.9301 44.3 51.3101 44.29C49.6801 44.29 48.3701 43.36 48.3801 42.24C48.3801 41.68 48.7201 41.17 49.2501 40.81C49.3801 40.72 49.5301 40.64 49.6901 40.56V40.76H52.98V40.57C53.14 40.64 53.28 40.73 53.41 40.82C53.94 41.19 54.2701 41.7 54.2601 42.26V42.27Z" fill="#EFE7D9"/>
<path d="M54.1501 42.27C54.1501 43.35 52.8701 44.21 51.3101 44.21C49.7501 44.21 48.4901 43.32 48.5001 42.24C48.5001 41.7 48.8201 41.21 49.3401 40.86C49.4701 40.77 49.6101 40.69 49.7601 40.62V40.76H52.92V40.64C53.07 40.71 53.2101 40.79 53.3401 40.88C53.8501 41.24 54.16 41.73 54.16 42.26L54.1501 42.27Z" fill="#EEE6D8"/>
<path d="M54.0302 42.27C54.0302 43.3 52.8101 44.13 51.3101 44.12C49.8101 44.11 48.6101 43.27 48.6101 42.23C48.6101 41.71 48.9201 41.25 49.4101 40.91C49.6601 40.74 49.9501 40.61 50.2701 40.51V40.75H52.3801V40.52C52.7001 40.62 52.9901 40.76 53.2401 40.93C53.7301 41.27 54.0302 41.74 54.0302 42.26V42.27Z" fill="#EEE5D7"/>
<path d="M53.91 42.27C53.91 43.26 52.7401 44.05 51.3101 44.04C49.8801 44.03 48.72 43.22 48.73 42.24C48.73 41.75 49.0301 41.3 49.5001 40.98C49.7401 40.82 50.0201 40.69 50.3301 40.6V40.76H52.35V40.61C52.66 40.7 52.94 40.83 53.17 41C53.64 41.33 53.92 41.78 53.92 42.27H53.91Z" fill="#EDE4D6"/>
<path d="M53.7175 42.2016C53.7228 41.2572 52.6212 40.4854 51.2571 40.4778C49.893 40.4702 48.7829 41.2296 48.7776 42.174C48.7723 43.1184 49.8739 43.8902 51.238 43.8978C52.6021 43.9054 53.7122 43.146 53.7175 42.2016Z" fill="#ECE4D5"/>
<path d="M53.6074 42.2009C53.6124 41.3007 52.5644 40.565 51.2666 40.5578C49.9687 40.5506 48.9126 41.2744 48.9075 42.1747C48.9025 43.0749 49.9505 43.8105 51.2484 43.8178C52.5462 43.825 53.6024 43.1011 53.6074 42.2009Z" fill="#EBE3D4"/>
<path d="M53.4974 42.2003C53.5021 41.3443 52.5032 40.6447 51.2661 40.6378C50.029 40.6309 49.0222 41.3192 49.0174 42.1753C49.0127 43.0313 50.0116 43.7308 51.2487 43.7377C52.4858 43.7446 53.4926 43.0563 53.4974 42.2003Z" fill="#EBE2D2"/>
<path d="M53.3775 42.1996C53.382 41.3933 52.4365 40.7343 51.2657 40.7278C50.0948 40.7212 49.1421 41.3696 49.1375 42.1759C49.133 42.9823 50.0785 43.6412 51.2494 43.6478C52.4202 43.6543 53.373 43.0059 53.3775 42.1996Z" fill="#EAE1D1"/>
<path d="M53.2474 42.1989C53.2516 41.4368 52.3597 40.814 51.2551 40.8078C50.1506 40.8016 49.2517 41.4145 49.2475 42.1766C49.2432 42.9387 50.1352 43.5616 51.2397 43.5678C52.3443 43.5739 53.2431 42.9611 53.2474 42.1989Z" fill="#E9E0D1"/>
<path d="M53.1274 42.1983C53.1315 41.4803 52.293 40.8936 51.2547 40.8878C50.2164 40.882 49.3715 41.4593 49.3675 42.1773C49.3635 42.8952 50.2019 43.4819 51.2402 43.4877C52.2785 43.4935 53.1234 42.9162 53.1274 42.1983Z" fill="#E8DFD0"/>
<path d="M53.0275 42.1977C53.0313 41.5239 52.2419 40.9733 51.2643 40.9678C50.2868 40.9624 49.4913 41.5041 49.4875 42.1779C49.4838 42.8517 50.2732 43.4023 51.2507 43.4078C52.2282 43.4132 53.0237 42.8714 53.0275 42.1977Z" fill="#E9DECF"/>
<path d="M52.8974 42.197C52.9009 41.5674 52.1651 41.0529 51.2538 41.0478C50.3425 41.0427 49.6009 41.549 49.5974 42.1786C49.5939 42.8081 50.3298 43.3227 51.2411 43.3278C52.1523 43.3329 52.8939 42.8266 52.8974 42.197Z" fill="#E8DCCD"/>
<path d="M52.7775 42.1864C52.7807 41.601 52.0984 41.1226 51.2534 41.1178C50.4084 41.1131 49.7207 41.5839 49.7175 42.1693C49.7142 42.7547 50.3966 43.2331 51.2416 43.2378C52.0865 43.2425 52.7742 42.7718 52.7775 42.1864Z" fill="#E7DBCC"/>
<path d="M52.6574 42.1956C52.6604 41.6544 52.0316 41.2122 51.2529 41.2078C50.4742 41.2035 49.8405 41.6387 49.8375 42.1799C49.8345 42.7211 50.4633 43.1634 51.242 43.1677C52.0207 43.1721 52.6544 42.7369 52.6574 42.1956Z" fill="#E6DACB"/>
<path d="M52.5574 42.1951C52.5602 41.7036 51.9804 41.3018 51.2624 41.2978C50.5445 41.2938 49.9602 41.689 49.9575 42.1806C49.9547 42.6721 50.5345 43.0738 51.2525 43.0778C51.9704 43.0818 52.5547 42.6866 52.5574 42.1951Z" fill="#E5D9C9"/>
<path d="M52.4375 42.1944C52.44 41.7471 51.9137 41.3815 51.262 41.3778C50.6103 41.3742 50.08 41.7339 50.0775 42.1812C50.075 42.6286 50.6013 42.9942 51.253 42.9978C51.9047 43.0014 52.435 42.6418 52.4375 42.1944Z" fill="#E4D8C8"/>
<path d="M52.3174 42.1937C52.3197 41.7906 51.8469 41.4611 51.2615 41.4579C50.6761 41.4546 50.1997 41.7787 50.1974 42.1819C50.1952 42.5851 50.6679 42.9145 51.2533 42.9178C51.8388 42.9211 52.3151 42.5969 52.3174 42.1937Z" fill="#E3D7C6"/>
<path d="M52.1974 42.1931C52.1995 41.8341 51.7802 41.5408 51.2611 41.5379C50.742 41.535 50.3195 41.8236 50.3175 42.1826C50.3155 42.5416 50.7347 42.8349 51.2538 42.8378C51.773 42.8407 52.1954 42.5521 52.1974 42.1931Z" fill="#E3D5C5"/>
<path d="M52.0775 42.1924C52.0793 41.8776 51.7136 41.6204 51.2607 41.6178C50.8078 41.6153 50.4393 41.8684 50.4375 42.1832C50.4358 42.498 50.8015 42.7553 51.2543 42.7578C51.7072 42.7604 52.0757 42.5072 52.0775 42.1924Z" fill="#E2D4C3"/>
<path d="M51.9574 42.1818C51.9589 41.9112 51.6423 41.69 51.2502 41.6878C50.858 41.6856 50.5389 41.9032 50.5374 42.1738C50.5359 42.4445 50.8526 42.6656 51.2447 42.6678C51.6368 42.67 51.9559 42.4524 51.9574 42.1818Z" fill="#E1D3C2"/>
<path d="M51.91 42.26C51.91 42.48 51.64 42.67 51.32 42.66C50.99 42.66 50.73 42.47 50.73 42.25C50.73 42.03 51 41.84 51.32 41.85C51.65 41.85 51.91 42.04 51.91 42.26Z" fill="#E0D1C0"/>
<path d="M51.7901 42.26C51.7901 42.44 51.5801 42.58 51.3201 42.58C51.0601 42.58 50.8501 42.43 50.8501 42.25C50.8501 42.07 51.0601 41.93 51.3201 41.93C51.5801 41.93 51.7901 42.08 51.7901 42.26Z" fill="#DFD0BF"/>
<path d="M51.67 42.26C51.67 42.39 51.51 42.5 51.32 42.5C51.13 42.5 50.97 42.39 50.97 42.25C50.97 42.12 51.13 42.01 51.32 42.01C51.52 42.01 51.67 42.12 51.67 42.26Z" fill="#DECFBD"/>
<path d="M51.5601 42.25C51.5601 42.34 51.4501 42.41 51.3201 42.41C51.1901 42.41 51.0801 42.34 51.0901 42.25C51.0901 42.16 51.2001 42.09 51.3301 42.09C51.4601 42.09 51.5701 42.16 51.5601 42.25Z" fill="#DDCDBC"/>
<path d="M51.4401 42.25C51.4401 42.25 51.3901 42.33 51.3201 42.33C51.2501 42.33 51.2001 42.29 51.2001 42.25C51.2001 42.21 51.2501 42.17 51.3201 42.17C51.3901 42.17 51.4401 42.21 51.4401 42.25Z" fill="#DDCCBA"/>
</g>
<path d="M35.8901 32.26C35.8901 32.26 39.3501 31.74 44.6601 33.41C49.9701 35.08 53.9001 39.76 53.9001 39.76C53.9001 39.76 44.4301 33.87 35.8901 32.26Z" fill="url(#paint8_linear_30_3531)"/>
<path d="M16.9299 34.19C16.9299 34.19 17.9499 39.4 23.3799 44.39C28.8099 49.38 37.5999 53.22 46.2499 53.65C46.2499 53.65 35.5999 54.05 29.3799 53.54C29.3799 53.54 31.88 52.87 31.4 52.61C30.92 52.35 30.9199 53.2 24.1199 48.6C17.3299 44 16.1899 34.12 16.1899 34.12L16.9199 34.19H16.9299Z" fill="url(#paint9_linear_30_3531)"/>
<path d="M1.62 34.52C1.74 35.89 3.10998 39.97 6.97998 41.73L9.65997 43.73C9.65997 43.73 5.31999 42.22 4.67999 42.8C4.04999 43.38 16.57 48.26 18.18 48.58C19.79 48.91 9.65997 40.62 9.65997 40.62C9.65997 40.62 15.53 42.63 16.36 41.55C17.19 40.47 15.35 37.11 12.22 35.2C9.08997 33.29 6.89001 33.71 6.89001 33.71L11.72 38.95C11.72 38.95 9.06998 37.1 5.84998 35.97C2.62998 34.84 1.62 34.51 1.62 34.51V34.52Z" fill="url(#paint10_linear_30_3531)"/>
<path d="M18.7 21C18.7 21 30.28 22.24 34.9 23.1C39.52 23.96 46.1799 26.77 50.4799 31.99C54.7899 37.21 55.21 37.64 55.21 37.64C55.21 37.64 44.94 28.96 41.27 26.95C37.6 24.94 30.54 23.96 26.03 23.24C21.52 22.52 18.7 21.01 18.7 21.01V21Z" fill="url(#paint11_linear_30_3531)"/>
<path d="M59.55 38.52C59.55 38.52 61.86 38.03 60.19 34.01C58.52 29.99 49.39 21.9 48.55 14.48C47.71 7.06 50.54 1.98003 56.3 0.950032C62.06 -0.0799683 65.64 3.34004 66.17 7.77004C66.7 12.2 65.85 12.49 65.85 12.49C65.85 12.49 66.64 7.74999 64.83 4.96999C63.02 2.17999 58.38 0.360036 54.51 2.33004C50.63 4.30004 48.3 8.47002 49.55 15.56C50.8 22.65 59.92 28.84 61.53 34.2C63.14 39.56 59.79 39.49 59.79 39.49L59.56 38.53L59.55 38.52Z" fill="#FFFCF9"/>
<path d="M18.7 21C18.7 21 31.0799 21.76 38.3699 23.82C45.6599 25.88 55.3299 35.83 57.5999 40.35C57.5999 40.35 47.7099 27.49 38.3699 24.62C29.0299 21.76 19.8799 21.54 19.8799 21.54L18.71 21H18.7Z" fill="#FFFCF9"/>
<path d="M16.5201 26.1C16.5201 26.1 32.0601 25.17 39.1301 27.06C46.2001 28.95 55.0001 36.56 55.0001 36.56L57.3701 40.07C57.3701 40.07 47.1601 29.75 39.2101 27.89C31.2601 26.03 17.5801 27.06 17.5801 27.06C17.5801 27.06 18.5201 30.08 21.5601 32.76C21.5601 32.76 18.0301 29.41 17.0901 27.67C16.1501 25.93 16.5101 26.1 16.5101 26.1H16.5201Z" fill="#FFFCF9"/>
<path d="M60.19 45.32C60.19 45.32 60.16 54.15 46.65 53.64L57.1 53.74C57.1 53.74 61.59 52.35 61.32 47.39L60.19 45.32Z" fill="url(#paint12_linear_30_3531)"/>
<path d="M1.74997 34.56C1.74997 34.56 7.73998 35.88 11.01 38.19L6.88999 33.72C6.88999 33.72 9.6 32.95 15.59 36.99C15.59 36.99 14.76 35.25 14.96 34.9C15.17 34.54 16.03 34.75 16.03 34.75L16.2 35.65L16.69 38.87C16.69 38.87 13.62 36.16 9.78 35.2L13 39.94C13 39.94 2.89998 35.68 2.56998 35.59C2.23998 35.5 3.07995 38.78 4.28995 39.83C4.28995 39.83 2.62997 37.95 2.05997 36.26C1.48997 34.58 1.74997 34.58 1.74997 34.58V34.56Z" fill="#FFFCF9"/>
<path d="M57.71 7.78003C56 7.75003 54.59 10.36 54.67 12.74C54.75 15.12 55.23 18.18 58.12 21.72C61.01 25.26 65.61 29.31 65.61 29.31C65.61 29.31 56.53 23.09 54.36 16.83C52.19 10.57 54.95 6.25002 58.12 5.83002C58.12 5.83002 58.14 7.05001 58.78 8.39001C59.41 9.74001 59.74 10.05 59.74 10.05C59.74 10.05 57.8299 7.78002 57.7199 7.77002L57.71 7.78003Z" fill="url(#paint13_linear_30_3531)"/>
<path d="M63.4099 9.92999C63.7965 9.92999 64.1099 9.61658 64.1099 9.22998C64.1099 8.84338 63.7965 8.53003 63.4099 8.53003C63.0233 8.53003 62.71 8.84338 62.71 9.22998C62.71 9.61658 63.0233 9.92999 63.4099 9.92999Z" fill="#37120C"/>
<path d="M63.73 8.89001C63.76 8.57001 63.26 8.55999 63.26 8.86999C63.26 9.16999 63.7 9.12001 63.73 8.89001Z" fill="#FFFCF9"/>
<path d="M63.29 9.59996C63.36 9.42996 63.0901 9.43999 63.0801 9.56999C63.0801 9.68999 63.25 9.71996 63.29 9.59996Z" fill="#FFFCF9"/>
<path d="M64.64 14.65C64.78 14.06 65.1099 13.72 65.0599 13.6C65.0099 13.48 64.8 13.33 64.64 13.73C64.48 14.13 64.64 14.65 64.64 14.65Z" fill="#54271D"/>
<path d="M19.74 40.35C19.74 40.35 23.15 45.6 31.27 49.66C39.39 53.72 47.45 53.79 46.67 53.65C45.89 53.51 43.51 54.01 38.97 53.65L39.89 53.19C39.89 53.19 35.63 52.66 29.84 49.68C24.05 46.7 19.74 40.36 19.74 40.36V40.35Z" fill="#CCB6A1"/>
<path d="M59.21 48.59C59.21 48.59 56.1799 54.14 46.6699 53.64L53.58 53.8L52.9099 53.43C52.9099 53.43 54.8099 53.25 56.8199 51.65C58.8299 50.05 59.2 48.58 59.2 48.58L59.21 48.59Z" fill="#CCB6A1"/>
<defs>
<linearGradient id="paint0_linear_30_3531" x1="15.28" y1="36.95" x2="60.19" y2="36.95" gradientUnits="userSpaceOnUse">
<stop stop-color="#FCF8F1"/>
<stop offset="1" stop-color="#F4EEE2"/>
</linearGradient>
<linearGradient id="paint1_linear_30_3531" x1="61.9299" y1="16.26" x2="66.3099" y2="16.26" gradientUnits="userSpaceOnUse">
<stop offset="0.07" stop-color="#894039"/>
<stop offset="1" stop-color="#FF8433"/>
</linearGradient>
<linearGradient id="paint2_linear_30_3531" x1="35.25" y1="48.06" x2="8.96999" y2="40.82" gradientUnits="userSpaceOnUse">
<stop offset="0.62" stop-color="#ECE4D5"/>
<stop offset="1" stop-color="#F4EEE2"/>
</linearGradient>
<linearGradient id="paint3_linear_30_3531" x1="54.26" y1="2.38" x2="60.69" y2="20.81" gradientUnits="userSpaceOnUse">
<stop stop-color="#FCF8F1"/>
<stop offset="1" stop-color="#F4EEE2"/>
</linearGradient>
<linearGradient id="paint4_linear_30_3531" x1="52.2" y1="28.61" x2="63.51" y2="24.81" gradientUnits="userSpaceOnUse">
<stop stop-color="#FCF8F1"/>
<stop offset="1" stop-color="#F4EEE2"/>
</linearGradient>
<linearGradient id="paint5_linear_30_3531" x1="58.4401" y1="56.23" x2="56.4301" y2="43.76" gradientUnits="userSpaceOnUse">
<stop offset="0.62" stop-color="#ECE4D5"/>
<stop offset="1" stop-color="#F4EEE2"/>
</linearGradient>
<linearGradient id="paint6_linear_30_3531" x1="38.6501" y1="36.59" x2="38.7401" y2="60.0999" gradientUnits="userSpaceOnUse">
<stop stop-color="#FCF8F1"/>
<stop offset="1" stop-color="#F4EEE2"/>
</linearGradient>
<linearGradient id="paint7_linear_30_3531" x1="57.47" y1="39" x2="34.34" y2="29.6101" gradientUnits="userSpaceOnUse">
<stop offset="0.62" stop-color="#ECE4D5"/>
<stop offset="1" stop-color="#F4EEE2"/>
</linearGradient>
<linearGradient id="paint8_linear_30_3531" x1="57.1601" y1="39.76" x2="34.0301" y2="30.37" gradientUnits="userSpaceOnUse">
<stop offset="0.62" stop-color="#ECE4D5"/>
<stop offset="1" stop-color="#F4EEE2"/>
</linearGradient>
<linearGradient id="paint9_linear_30_3531" x1="27.7099" y1="47.28" x2="22.9299" y2="51.9" gradientUnits="userSpaceOnUse">
<stop stop-color="#DDCCBA"/>
<stop offset="0.66" stop-color="#ECE4D5"/>
</linearGradient>
<linearGradient id="paint10_linear_30_3531" x1="1.62" y1="41.13" x2="18.36" y2="41.13" gradientUnits="userSpaceOnUse">
<stop stop-color="#FCF8F1"/>
<stop offset="1" stop-color="#F4EEE2"/>
</linearGradient>
<linearGradient id="paint11_linear_30_3531" x1="36.95" y1="28.31" x2="37.02" y2="45.17" gradientUnits="userSpaceOnUse">
<stop stop-color="#FCF8F1"/>
<stop offset="1" stop-color="#F4EEE2"/>
</linearGradient>
<linearGradient id="paint12_linear_30_3531" x1="51.14" y1="50.26" x2="67.15" y2="48.7" gradientUnits="userSpaceOnUse">
<stop stop-color="#DDCCBA"/>
<stop offset="0.66" stop-color="#ECE4D5"/>
</linearGradient>
<linearGradient id="paint13_linear_30_3531" x1="55.58" y1="13.13" x2="51.91" y2="10.53" gradientUnits="userSpaceOnUse">
<stop offset="0.62" stop-color="#ECE4D5"/>
<stop offset="1" stop-color="#F4EEE2"/>
</linearGradient>
</defs>
</svg>
