<svg width="55" height="42" viewBox="0 0 55 42" fill="none" xmlns="http://www.w3.org/2000/svg">
<path d="M1.28003 17.8C1.28003 17.8 17.76 21.13 23.03 19.01C26.93 22.14 30.57 34.69 26.57 38.12C18.84 36.65 2.33002 40.14 2.33002 40.14L1.28003 17.79V17.8Z" fill="#FBBA9E"/>
<path d="M8.07007 18.81C10.4901 19.12 13.2701 19.42 15.9501 19.59L14.9001 38.35C12.4401 38.61 10.0801 38.93 8.07007 39.22V18.81Z" fill="#F5AD8C"/>
<path d="M46.6501 16.03C47.9701 16.08 48.1101 20.73 47.4401 28.09C46.8201 34.81 45.92 40.34 44.58 40.39L43.9501 40.43C43.9501 40.43 43.89 40.43 43.86 40.43C43.86 40.43 42.15 40.5 41.2701 40.54C29.6 41.03 19.4501 37.67 19.4501 27.49C19.4501 17.31 29.6 14.94 41.2701 15.43C42.1101 15.46 42.9401 15.53 43.7501 15.63C43.8201 15.63 43.8801 15.63 43.9501 15.63L46.6601 16.04L46.6501 16.03Z" fill="#FBBA9E"/>
<path d="M47.9301 35.37L44.0101 32.72L41.55 40.53L46.5001 40.29L47.9301 35.37Z" fill="#FBBA9E"/>
<path d="M39.86 21.68C38 21.64 36.53 20.23 36.57 18.53C36.61 16.83 38.16 15.49 40.02 15.53L49.7 15.37C51.56 15.41 53.03 16.82 52.99 18.52C52.95 20.22 51.4 21.56 49.54 21.52L39.86 21.68Z" fill="#FBBA9E"/>
<path d="M45.1801 35.19L49.6801 34.49L49.9801 29.11L47.4301 27.97C47.4301 27.97 44.4901 34.38 45.1801 35.18V35.19Z" fill="#FBBA9E"/>
<path d="M29.02 14.06C27.63 15.18 21.22 19.29 22.28 21.12L22.04 21.89C23.61 23.77 34.75 22.53 35.46 20.63L37.59 14.3C38.98 13.18 40.88 12.15 39.7 10.84C38.51 9.54 36.66 9.58001 35.05 10.4C32.44 11.73 29.01 14.06 29.01 14.06H29.02Z" fill="#FBBA9E"/>
<path d="M39.65 34.31C38.01 34.2 36.79 32.9099 36.9 31.4299C37.01 29.9499 38.42 28.81 40.07 28.89L49.02 28.9499C50.81 29.0299 52.18 30.37 52.06 31.94C51.94 33.51 50.3699 34.69 48.5799 34.57L39.65 34.32V34.31Z" fill="#FBBA9E"/>
<path d="M37.52 40.13C36.12 40.04 35.09 38.87 35.18 37.52C35.27 36.17 36.46 35.08 37.87 35.09L46.06 34.81C47.81 34.81 49.2 36.1 49.09 37.68C48.98 39.26 47.43 40.44 45.68 40.33L37.53 40.13H37.52Z" fill="#FBBA9E"/>
<path d="M46.9801 28.47L51.4201 27.82V22.11L47.31 21.46C47.31 21.46 44.2701 26.65 46.9801 28.46V28.47Z" fill="#FBBA9E"/>
<path d="M40.66 27.08C39.1 26.89 37.99 25.63 38.12 24.26C38.25 22.89 39.57 21.84 41.14 21.92L50.6099 22.02C52.7199 22.11 54.39 23.57 54.23 25.26C54.07 26.95 52.16 28.11 50.06 27.87L40.65 27.09L40.66 27.08Z" fill="#FBBA9E"/>
<path d="M34.68 10.57C33.52 12.49 35.01 14.98 37 15.67C38.99 16.36 38.39 17.32 39.68 15.48C41.74 12.53 42.06 6.92998 42.06 6.92998C42.32 4.08998 40.92 0.989974 39.68 0.589974C38.46 0.129974 36.79 0.479979 36.33 1.28998C36.33 1.28998 37.74 5.48998 34.68 10.56V10.57Z" fill="#FBBA9E"/>
<path d="M36.99 2.04997C36.94 1.85997 36.67 1.47997 36.39 1.21997C36.37 1.24997 36.35 1.26997 36.34 1.29997C36.34 1.29997 36.95 3.09997 36.5 5.76997C37.15 4.93997 37.38 3.48997 36.99 2.04997Z" fill="#FBDDD0"/>
<path d="M37 4.73999C36.87 4.75999 36.74 4.78999 36.61 4.81999C36.58 5.11999 36.55 5.42999 36.49 5.75999C36.71 5.47999 36.88 5.13999 37 4.73999Z" fill="#FBCDBA"/>
<path d="M50.5 29.34C50.76 29.82 50.87 30.37 50.79 30.93C50.6 32.16 49.54 33.07 48.22 33.28V33.31L45.72 33.51L46.41 34.05C47.13 34.64 47.53 35.51 47.4 36.44C47.21 37.75 46.03 38.71 44.63 38.85H44.62C44.36 38.87 44.09 38.87 43.81 38.83H43.74L42.81 38.8C42.77 38.8 42.74 38.81 42.7 38.8H42.07C42.07 38.8 42.01 38.79 41.98 38.78C41.98 38.78 40.27 38.73 39.39 38.7C33.56 38.51 28.18 37.39 24.35 35.05C17.99 33.59 6.27999 34.74 2.12 35.22L2.35001 40.13C2.35001 40.13 18.07 36.8 26.01 38.01C30 40.06 35.45 40.77 41.28 40.53C42.16 40.49 43.87 40.42 43.87 40.42C43.87 40.42 43.93 40.42 43.96 40.42L44.59 40.38C44.59 40.38 44.66 40.38 44.69 40.36L45.62 40.31H45.69C45.97 40.33 46.24 40.31 46.5 40.27H46.51C47.9 40.03 49.01 38.99 49.1 37.66C49.16 36.72 48.7 35.89 47.94 35.36L47.21 34.85L49.69 34.47V34.44C50.98 34.13 51.98 33.14 52.07 31.91C52.16 30.81 51.51 29.83 50.51 29.31L50.5 29.34Z" fill="#F5AD8C"/>
<path d="M53.26 23.02C53.46 23.46 53.53 23.94 53.45 24.42C53.23 25.72 51.98 26.62 50.45 26.77L50.3 26.78C50.27 26.78 50.25 26.78 50.22 26.78L46.58 27.55L48.14 28.28C48.27 28.33 48.86 28.23 49.27 28.12L51.19 27.84C51.19 27.84 51.24 27.84 51.27 27.83L51.42 27.81C52.93 27.54 54.11 26.55 54.23 25.24C54.31 24.39 53.93 23.6 53.26 23.01V23.02Z" fill="#F5AD8C"/>
<path d="M0.780029 15.78V41.39L12.34 39.96V17.2L0.780029 15.78Z" fill="#0071BC"/>
<path d="M2.91003 40.99L0.780029 41.39V15.78L2.91003 16.17V40.99Z" fill="#2E3192"/>
</svg>
