<svg width="24" height="71" viewBox="0 0 24 71" fill="none" xmlns="http://www.w3.org/2000/svg">
<path d="M15.6799 19.97L14.2299 17.54H9.10992L7.65991 19.97L10.1199 25.09H13.2199L15.6799 19.97Z" fill="#CA2A0D"/>
<path d="M10.12 25.09H13.22L18.07 64.28L11.52 70.29L5.46997 64.14L10.12 25.09Z" fill="#E34326"/>
<mask id="mask0_30_5599" style="mask-type:luminance" maskUnits="userSpaceOnUse" x="5" y="25" width="14" height="46">
<path d="M10.12 25.09H13.22L18.07 64.28L11.52 70.29L5.46997 64.14L10.12 25.09Z" fill="white"/>
</mask>
<g mask="url(#mask0_30_5599)">
<g style="mix-blend-mode:multiply">
<path d="M13.4777 11.6174L-18.9242 32.7238L-18.5694 33.2685L13.8325 12.162L13.4777 11.6174Z" fill="#B8BABC"/>
<path d="M14.6126 13.3973L-17.7893 34.5038L-16.9651 35.769L15.4368 14.6626L14.6126 13.3973Z" fill="#B8BABC"/>
<path d="M16.1065 15.6904L-16.2992 36.7912L-14.7277 39.2047L17.678 18.1038L16.1065 15.6904Z" fill="#B8BABC"/>
<path d="M18.4027 19.2191L-14.0103 40.3086L-13.6558 40.8534L18.7572 19.7639L18.4027 19.2191Z" fill="#B8BABC"/>
<path d="M19.526 21.0603L-12.876 42.1668L-12.0518 43.432L20.3502 22.3255L19.526 21.0603Z" fill="#B8BABC"/>
<path d="M21.0108 23.4103L-11.3948 44.5111L-9.82326 46.9246L22.5824 25.8238L21.0108 23.4103Z" fill="#B8BABC"/>
<path d="M23.3182 26.9272L-9.09106 48.0223L-8.73647 48.5671L23.6728 27.472L23.3182 26.9272Z" fill="#B8BABC"/>
<path d="M24.441 28.7288L-7.96094 49.8352L-7.13676 51.1005L25.2652 29.994L24.441 28.7288Z" fill="#B8BABC"/>
<path d="M25.9336 31.0348L-6.47205 52.1356L-4.90053 54.549L27.5051 33.4482L25.9336 31.0348Z" fill="#B8BABC"/>
<path d="M28.2259 34.5566L-4.17236 55.6688L-3.81748 56.2134L28.5808 35.1012L28.2259 34.5566Z" fill="#B8BABC"/>
<path d="M29.3697 36.2828L-3.03589 57.3836L-2.21197 58.6489L30.1937 37.5482L29.3697 36.2828Z" fill="#B8BABC"/>
<path d="M30.8529 38.6432L-1.54907 59.7497L0.0228618 62.1629L32.4249 41.0564L30.8529 38.6432Z" fill="#B8BABC"/>
<path d="M33.1346 42.3203L0.732666 63.4268L1.08742 63.9714L33.4894 42.8649L33.1346 42.3203Z" fill="#B8BABC"/>
<path d="M34.2742 44.0027L1.86853 65.1035L2.69249 66.3688L35.0981 45.2681L34.2742 44.0027Z" fill="#B8BABC"/>
<path d="M35.7807 46.2292L3.37512 67.33L4.94663 69.7434L37.3523 48.6426L35.7807 46.2292Z" fill="#B8BABC"/>
<path d="M38.0481 49.9833L5.64612 71.0897L6.00091 71.6344L38.4028 50.5279L38.0481 49.9833Z" fill="#B8BABC"/>
<path d="M39.199 51.6393L6.80078 72.7514L7.62518 74.0165L40.0234 52.9044L39.199 51.6393Z" fill="#B8BABC"/>
<path d="M40.6835 53.9936L8.27783 75.0944L9.84931 77.5078L42.2549 56.407L40.6835 53.9936Z" fill="#B8BABC"/>
<path d="M42.9727 57.4968L10.5818 78.6202L10.9368 79.1647L43.3278 58.0412L42.9727 57.4968Z" fill="#B8BABC"/>
<path d="M44.1229 59.307L11.7136 80.4021L12.5374 81.6676L44.9467 60.5725L44.1229 59.307Z" fill="#B8BABC"/>
<path d="M45.6079 61.5935L13.2023 82.6943L14.7738 85.1078L47.1795 64.007L45.6079 61.5935Z" fill="#B8BABC"/>
</g>
</g>
<mask id="mask1_30_5599" style="mask-type:luminance" maskUnits="userSpaceOnUse" x="7" y="17" width="9" height="9">
<path d="M15.6799 19.97L14.2299 17.54H9.10992L7.65991 19.97L10.1199 25.09H13.2199L15.6799 19.97Z" fill="white"/>
</mask>
<g mask="url(#mask1_30_5599)">
<g style="mix-blend-mode:multiply">
<path d="M7.14271 -12.7091L5.80664 25.9378L6.45622 25.9602L7.79229 -12.6866L7.14271 -12.7091Z" fill="#B8BABC"/>
<path d="M9.23069 -12.6286L7.90137 26.0185L9.41048 26.0704L10.7398 -12.5767L9.23069 -12.6286Z" fill="#B8BABC"/>
<path d="M12.0084 -12.517L10.6724 26.1299L13.5506 26.2294L14.8867 -12.4175L12.0084 -12.517Z" fill="#B8BABC"/>
<path d="M16.2769 -12.301L14.9408 26.3459L15.5904 26.3684L16.9264 -12.2785L16.2769 -12.301Z" fill="#B8BABC"/>
</g>
</g>
<path d="M9.10996 17.55L1.21995 3.02002C1.21995 3.02002 -0.290037 6.50001 0.549963 8.57001C1.38996 10.64 7.65 19.98 7.65 19.98L9.09995 17.55H9.10996Z" fill="#E34326"/>
<path d="M11.74 0.609985C4.49999 0.609985 1.21997 3.02002 1.21997 3.02002L2.42999 5.40997C2.42999 5.40997 7.33002 4.04999 12.02 4.04999C16.71 4.04999 21.17 5.47998 21.17 5.47998L22.38 3.09003C22.38 3.09003 18.98 0.609985 11.74 0.609985Z" fill="#CA2A0D"/>
<path d="M14.2 17.58L22.3799 3.07001C22.3799 3.07001 23.8899 6.55 23.0499 8.62C22.2099 10.69 15.6699 19.99 15.6699 19.99L14.21 17.58H14.2Z" fill="#E34326"/>
<mask id="mask2_30_5599" style="mask-type:luminance" maskUnits="userSpaceOnUse" x="0" y="3" width="10" height="17">
<path d="M9.10996 17.55L1.21995 3.02002C1.21995 3.02002 -0.290037 6.50001 0.549963 8.57001C1.38996 10.64 7.65 19.98 7.65 19.98L9.09995 17.55H9.10996Z" fill="white"/>
</mask>
<g mask="url(#mask2_30_5599)">
<g style="mix-blend-mode:multiply">
<path d="M10.4275 -10.3635L-13.124 20.3073L-11.9264 21.2269L11.6251 -9.44381L10.4275 -10.3635Z" fill="#B8BABC"/>
<path d="M12.5593 -8.82761L-10.9976 21.8391L-8.71362 23.5935L14.8433 -7.07317L12.5593 -8.82761Z" fill="#B8BABC"/>
<path d="M15.9146 -6.17678L-7.63159 24.4981L-7.11596 24.8939L16.4302 -5.78098L15.9146 -6.17678Z" fill="#B8BABC"/>
<path d="M17.6203 -4.74442L-5.95264 25.9099L-4.75568 26.8303L18.8172 -3.82397L17.6203 -4.74442Z" fill="#B8BABC"/>
<path d="M19.7836 -3.0799L-3.77869 27.5827L-1.49505 29.3375L22.0672 -1.32507L19.7836 -3.0799Z" fill="#B8BABC"/>
</g>
</g>
<mask id="mask3_30_5599" style="mask-type:luminance" maskUnits="userSpaceOnUse" x="14" y="3" width="10" height="17">
<path d="M14.2 17.58L22.3799 3.07001C22.3799 3.07001 23.8899 6.55 23.0499 8.62C22.2099 10.69 15.6699 19.99 15.6699 19.99L14.21 17.58H14.2Z" fill="white"/>
</mask>
<g mask="url(#mask3_30_5599)">
<g style="mix-blend-mode:multiply">
<path d="M13.4259 -9.75745L12.2283 -8.8378L35.7798 21.833L36.9775 20.9133L13.4259 -9.75745Z" fill="#B8BABC"/>
<path d="M11.2642 -8.04157L8.98022 -6.28714L32.5371 24.3795L34.821 22.6251L11.2642 -8.04157Z" fill="#B8BABC"/>
<path d="M7.9148 -5.41677L7.39917 -5.02097L30.9454 25.6539L31.461 25.2581L7.9148 -5.41677Z" fill="#B8BABC"/>
<path d="M6.23424 -4.16594L5.03723 -3.24545L28.6101 27.4088L29.8071 26.4883L6.23424 -4.16594Z" fill="#B8BABC"/>
<path d="M4.08553 -2.40457L1.80164 -0.650177L25.3585 30.0165L27.6424 28.2621L4.08553 -2.40457Z" fill="#B8BABC"/>
</g>
</g>
</svg>
