<svg width="55" height="52" viewBox="0 0 55 52" fill="none" xmlns="http://www.w3.org/2000/svg">
<path d="M41.9159 12.4109L38.4691 10.4209L37.5541 12.0057L41.0009 13.9957L41.9159 12.4109Z" fill="#FFE02B"/>
<path d="M41.9144 12.4052L38.4677 10.4152L38.1677 10.9348L41.6145 12.9248L41.9144 12.4052Z" fill="#FCC00F"/>
<path fill-rule="evenodd" clip-rule="evenodd" d="M19.82 46.69C19.11 46.31 17.98 45.91 18.28 45.38C17.11 47.41 17.25 49.84 17.81 50.17C18.37 50.49 20.54 49.4 21.72 47.37C21.42 47.9 20.5 47.12 19.82 46.69Z" fill="#EB4338"/>
<path fill-rule="evenodd" clip-rule="evenodd" d="M21.6701 43.49C19.8301 42.41 17.8001 41.57 16.0701 40.22C17.0401 41.61 16.7701 43.98 18.1601 45.87C18.5001 46.33 18.9501 46.77 19.5401 47.16C20.1701 47.48 20.7801 47.65 21.3501 47.71C23.6901 47.97 25.6001 46.55 27.2901 46.7C25.2601 45.87 23.5201 44.54 21.6601 43.48L21.6701 43.49Z" fill="#F44F44"/>
<path fill-rule="evenodd" clip-rule="evenodd" d="M53.9801 49.49C55.2801 45.34 53.86 36.7 45.28 28.28C44.29 27.3 43.92 25.86 44.3 24.53C45.53 20.22 43.88 14.85 39.62 12.39C35.36 9.93003 29.88 11.19 26.77 14.41C25.8 15.41 24.37 15.82 23.03 15.44C11.45 12.22 3.25004 15.31 0.310041 18.51C-0.729959 24.15 6.62005 35.32 21.44 43.88C36.26 52.44 49.61 53.22 53.97 49.49H53.9801Z" fill="#E3E3E3"/>
<path d="M50.7901 48.04C43.9101 44.83 35.2701 40.26 26.4701 35.18C17.6701 30.1 9.39008 24.9 3.17008 20.55C2.11008 19.81 1.16009 19.13 0.320086 18.51C0.110086 19.67 0.250085 21.07 0.740085 22.63C7.11008 27.13 15.6601 32.52 24.9201 37.87C34.1901 43.22 43.1201 47.93 50.2101 51.19C51.8001 50.83 53.0901 50.26 53.9801 49.49C53.0201 49.07 51.9601 48.59 50.7801 48.04H50.7901Z" fill="#49CAD7"/>
<path d="M29.87 29.29C21.32 24.35 13.25 19.29 7.17003 15.03C7.11003 14.99 7.05002 14.95 6.99002 14.9C5.27002 15.36 3.82001 15.99 2.64001 16.69C2.85001 16.84 3.06002 16.99 3.27002 17.14C9.63002 21.7 18.37 27.24 27.89 32.73C37.41 38.22 46.57 43.03 53.7 46.25C53.94 46.36 54.17 46.46 54.41 46.57C54.43 45.2 54.24 43.62 53.78 41.91C53.71 41.88 53.65 41.85 53.58 41.82C46.85 38.68 38.43 34.23 29.88 29.29H29.87Z" fill="#A0D936"/>
<path fill-rule="evenodd" clip-rule="evenodd" d="M24.92 37.86C34.19 43.21 43.12 47.92 50.21 51.18C47.93 51.69 45.01 51.75 41.64 51.28C35.9 50.48 28.86 48.14 21.45 43.87C9.68 37.08 2.61999 28.63 0.73999 22.62C7.10999 27.12 15.66 32.51 24.92 37.86Z" fill="#FC5B51"/>
<path fill-rule="evenodd" clip-rule="evenodd" d="M50.2101 51.18C47.9301 51.69 45.0101 51.75 41.6401 51.28C37.0401 50.64 31.6001 49.01 25.8101 46.18C30.9101 48.16 42.0101 50.21 47.4701 49.87L50.2101 51.17V51.18Z" fill="#F44F44"/>
<path d="M17.1201 14.28C14.5201 13.99 12.1601 14.03 10.0601 14.3C15.7301 18.29 23.0301 22.9 30.9301 27.45C38.8201 32.01 46.4701 36.03 52.7501 38.94C51.9401 36.99 50.7901 34.92 49.2401 32.82C44.2101 30.3 38.5901 27.27 32.9201 24C27.2501 20.72 21.8201 17.38 17.1201 14.28Z" fill="#A0D936"/>
<path d="M44.6 23.08C44.73 22.14 44.73 21.18 44.6 20.22C42.61 19.31 40.17 18.06 37.29 16.4C34.41 14.74 32.12 13.25 30.33 11.98C29.44 12.35 28.61 12.84 27.86 13.42C29.71 14.79 32.35 16.57 35.98 18.66C39.61 20.76 42.48 22.15 44.58 23.07L44.6 23.08Z" fill="#49CAD7"/>
<g style="mix-blend-mode:screen" opacity="0.5">
<path fill-rule="evenodd" clip-rule="evenodd" d="M5.01004 19.45C4.81004 19.56 4.62004 19.66 4.42004 19.77C4.88004 20.43 5.40005 20.92 6.27005 21.41C7.59005 20.61 9.16004 19.86 10.99 19.24C11.5 19.08 12.03 18.91 12.58 18.75C14.09 18.34 15.75 18.01 17.56 17.78C20.11 17.47 22.9601 17.37 26.1301 17.59C22.5801 16.92 19.39 16.68 16.55 16.76C14.69 16.81 12.98 17.01 11.44 17.29C10.86 17.4 10.3101 17.53 9.79005 17.65C7.94005 18.12 6.34004 18.74 5.01004 19.44V19.45Z" fill="white"/>
</g>
<path fill-rule="evenodd" clip-rule="evenodd" d="M40.38 1.89001L48.35 6.48999L42.64 12.83L37.74 10L40.38 1.89001Z" fill="#A0D936"/>
<path fill-rule="evenodd" clip-rule="evenodd" d="M40.66 0.640015L49.28 5.62L48.58 6.62L40.15 1.75L40.66 0.640015Z" fill="#A0D936"/>
<g style="mix-blend-mode:screen" opacity="0.4">
<path fill-rule="evenodd" clip-rule="evenodd" d="M42.33 1.60999L41.8101 2.71002L42.8701 3.32001L43.0101 3.40997L43.6701 2.38L42.33 1.60999Z" fill="white"/>
</g>
<path fill-rule="evenodd" clip-rule="evenodd" d="M47.9699 6.90997L48.3499 6.48999L40.3799 1.89001L40.2 2.41998L47.9699 6.90997Z" fill="#89C221"/>
<g style="mix-blend-mode:screen" opacity="0.4">
<path fill-rule="evenodd" clip-rule="evenodd" d="M39 10.73L43.1 3.46002L41.95 2.79999L38.35 10.35L39 10.73Z" fill="white"/>
</g>
</svg>
