<svg width="83" height="22" viewBox="0 0 83 22" fill="none" xmlns="http://www.w3.org/2000/svg">
<path d="M14.8699 6.73999H13.4099C13.1448 6.73999 12.9299 6.9549 12.9299 7.21999V10.11C12.9299 10.3751 13.1448 10.59 13.4099 10.59H14.8699C15.135 10.59 15.3499 10.3751 15.3499 10.11V7.21999C15.3499 6.9549 15.135 6.73999 14.8699 6.73999Z" fill="#7D4210"/>
<path fill-rule="evenodd" clip-rule="evenodd" d="M12.03 4.47998H14.15H16.26V6.42998L15.36 7.97998H14.15H12.93L12.03 6.42998V4.47998Z" fill="#7D4210"/>
<path fill-rule="evenodd" clip-rule="evenodd" d="M12.01 4.86999H16.29C16.39 4.86999 16.47 4.78999 16.47 4.68999V4.16998H11.83V4.68999C11.83 4.78999 11.91 4.86999 12.01 4.86999Z" fill="#4A3923"/>
<path fill-rule="evenodd" clip-rule="evenodd" d="M16.26 6.42999H12.03L12.93 7.98H15.36L16.26 6.42999Z" fill="#69370D"/>
<path d="M16.4599 4.16998H11.8199V4.45998H16.4599V4.16998Z" fill="#5A4A35"/>
<path d="M19.63 8.07001H18.48C18.2646 8.07001 18.09 8.24462 18.09 8.46001V10.53C18.09 10.7454 18.2646 10.92 18.48 10.92H19.63C19.8454 10.92 20.02 10.7454 20.02 10.53V8.46001C20.02 8.24462 19.8454 8.07001 19.63 8.07001Z" fill="#7D4210"/>
<path d="M20.06 8.02002H18.05C18.0058 8.02002 17.97 8.05584 17.97 8.10002V8.47002C17.97 8.51421 18.0058 8.55003 18.05 8.55003H20.06C20.1041 8.55003 20.14 8.51421 20.14 8.47002V8.10002C20.14 8.05584 20.1041 8.02002 20.06 8.02002Z" fill="#914E13"/>
<path d="M23.14 8.04999H21.99C21.7746 8.04999 21.6 8.2246 21.6 8.43999V10.51C21.6 10.7254 21.7746 10.9 21.99 10.9H23.14C23.3554 10.9 23.53 10.7254 23.53 10.51V8.43999C23.53 8.2246 23.3554 8.04999 23.14 8.04999Z" fill="#7D4210"/>
<path d="M23.57 8H21.56C21.5158 8 21.48 8.03582 21.48 8.08V8.45C21.48 8.49418 21.5158 8.53 21.56 8.53H23.57C23.6142 8.53 23.65 8.49418 23.65 8.45V8.08C23.65 8.03582 23.6142 8 23.57 8Z" fill="#914E13"/>
<path fill-rule="evenodd" clip-rule="evenodd" d="M10.7 9.27H36.5399V14.69H10.7C10.35 14.69 10.0699 14.41 10.0699 14.06V9.89001C10.0699 9.54001 10.35 9.26001 10.7 9.26001V9.27Z" fill="#008AB6"/>
<path fill-rule="evenodd" clip-rule="evenodd" d="M36.5399 14.07V14.71H10.7C10.35 14.71 10.0699 14.42 10.0699 14.07H36.5399Z" fill="#F7A545"/>
<path d="M37.37 16.65H36.12V18.45H37.37V16.65Z" fill="#221806"/>
<path d="M38.03 17.27H37.04V17.82H38.03V17.27Z" fill="#221806"/>
<path fill-rule="evenodd" clip-rule="evenodd" d="M36.5399 14.7C36.5399 14.7 36.5399 14.72 36.5399 14.73V19.1H8.80994V15.45C9.42994 15.09 10.09 14.85 10.7 14.7H36.5399Z" fill="#2E42BA"/>
<path d="M27.6 2.81H27.09V8.46H27.6V2.81Z" fill="#312410"/>
<path d="M28.02 1.01001H26.63V4.44001H28.02V1.01001Z" fill="#4D4134"/>
<path fill-rule="evenodd" clip-rule="evenodd" d="M26.99 0.399993C27.18 0.189993 27.51 0.189993 27.7 0.399993L28.06 0.809989L28.55 1.35999H26.14L26.63 0.809989L26.99 0.399993Z" fill="#3D2225"/>
<path d="M36.5399 6.15997H25.95V14.69H36.5399V6.15997Z" fill="#0071BC"/>
<path fill-rule="evenodd" clip-rule="evenodd" d="M37.17 5.34998V6.19997H25.3099V5.34998C25.3099 4.93998 25.6399 4.59998 26.0599 4.59998H36.4299C36.8399 4.59998 37.1799 4.92998 37.1799 5.34998H37.17Z" fill="#FFC517"/>
<path d="M33.8699 7.10999H28.6099C28.2178 7.10999 27.8999 7.42786 27.8999 7.81998V10.93C27.8999 11.3221 28.2178 11.64 28.6099 11.64H33.8699C34.262 11.64 34.5799 11.3221 34.5799 10.93V7.81998C34.5799 7.42786 34.262 7.10999 33.8699 7.10999Z" fill="#E6E7E8"/>
<path d="M33.87 7.25H28.61C28.2952 7.25 28.04 7.5052 28.04 7.82V10.94C28.04 11.2548 28.2952 11.51 28.61 11.51H33.87C34.1848 11.51 34.44 11.2548 34.44 10.94V7.82C34.44 7.5052 34.1848 7.25 33.87 7.25Z" fill="#86B7C8"/>
<path fill-rule="evenodd" clip-rule="evenodd" d="M28.6099 7.25H30.5999L31.8199 11.51H28.6199C28.3099 11.51 28.0499 11.25 28.0499 10.94V7.82C28.0499 7.51 28.3099 7.25 28.6199 7.25H28.6099Z" fill="#91BFD0"/>
<path d="M11.77 20.48C13.0457 20.48 14.08 19.4458 14.08 18.17C14.08 16.8942 13.0457 15.86 11.77 15.86C10.4942 15.86 9.45996 16.8942 9.45996 18.17C9.45996 19.4458 10.4942 20.48 11.77 20.48Z" fill="#238FBD"/>
<path fill-rule="evenodd" clip-rule="evenodd" d="M11.77 19.15C12.31 19.15 12.75 18.71 12.75 18.17C12.75 17.63 12.31 17.19 11.77 17.19C11.23 17.19 10.79 17.63 10.79 18.17C10.79 18.71 11.23 19.15 11.77 19.15Z" fill="#19191A"/>
<path fill-rule="evenodd" clip-rule="evenodd" d="M11.77 18.68C12.05 18.68 12.28 18.45 12.28 18.17C12.28 17.89 12.05 17.66 11.77 17.66C11.49 17.66 11.26 17.89 11.26 18.17C11.26 18.45 11.49 18.68 11.77 18.68Z" fill="#CCCCCC"/>
<path fill-rule="evenodd" clip-rule="evenodd" d="M19.39 20.48C20.93 20.48 22.18 19.23 22.18 17.69C22.18 16.15 20.93 14.9 19.39 14.9C17.85 14.9 16.6 16.15 16.6 17.69C16.6 19.23 17.85 20.48 19.39 20.48Z" fill="#238FBD"/>
<path d="M19.3899 19.18C20.2128 19.18 20.8799 18.5129 20.8799 17.69C20.8799 16.8671 20.2128 16.2 19.3899 16.2C18.567 16.2 17.8999 16.8671 17.8999 17.69C17.8999 18.5129 18.567 19.18 19.3899 19.18Z" fill="#19191A"/>
<path fill-rule="evenodd" clip-rule="evenodd" d="M19.39 18.47C19.82 18.47 20.17 18.12 20.17 17.69C20.17 17.26 19.82 16.91 19.39 16.91C18.96 16.91 18.61 17.26 18.61 17.69C18.61 18.12 18.96 18.47 19.39 18.47Z" fill="#CCCCCC"/>
<path d="M26.2199 20.48C27.7608 20.48 29.0099 19.2309 29.0099 17.69C29.0099 16.1492 27.7608 14.9 26.2199 14.9C24.6791 14.9 23.4299 16.1492 23.4299 17.69C23.4299 19.2309 24.6791 20.48 26.2199 20.48Z" fill="#238FBD"/>
<path d="M26.22 19.18C27.0429 19.18 27.71 18.5129 27.71 17.69C27.71 16.8671 27.0429 16.2 26.22 16.2C25.3971 16.2 24.73 16.8671 24.73 17.69C24.73 18.5129 25.3971 19.18 26.22 19.18Z" fill="#19191A"/>
<path fill-rule="evenodd" clip-rule="evenodd" d="M26.2199 18.47C26.6499 18.47 26.9999 18.12 26.9999 17.69C26.9999 17.26 26.6499 16.91 26.2199 16.91C25.7899 16.91 25.4399 17.26 25.4399 17.69C25.4399 18.12 25.7899 18.47 26.2199 18.47Z" fill="#CCCCCC"/>
<path d="M33.04 20.48C34.5809 20.48 35.83 19.2309 35.83 17.69C35.83 16.1492 34.5809 14.9 33.04 14.9C31.4991 14.9 30.25 16.1492 30.25 17.69C30.25 19.2309 31.4991 20.48 33.04 20.48Z" fill="#238FBD"/>
<path d="M33.0399 19.18C33.8629 19.18 34.5299 18.5129 34.5299 17.69C34.5299 16.8671 33.8629 16.2 33.0399 16.2C32.217 16.2 31.5499 16.8671 31.5499 17.69C31.5499 18.5129 32.217 19.18 33.0399 19.18Z" fill="#19191A"/>
<path fill-rule="evenodd" clip-rule="evenodd" d="M33.04 18.47C33.47 18.47 33.82 18.12 33.82 17.69C33.82 17.26 33.47 16.91 33.04 16.91C32.61 16.91 32.26 17.26 32.26 17.69C32.26 18.12 32.61 18.47 33.04 18.47Z" fill="#CCCCCC"/>
<path d="M55.69 6.75H38.51V17.03H55.69V6.75Z" fill="#008AB6"/>
<path d="M57.21 17.27H56.22V17.82H57.21V17.27Z" fill="#221806"/>
<path d="M74.8699 6.75H57.6899V17.03H74.8699V6.75Z" fill="#5C9742"/>
<mask id="mask0_30_225" style="mask-type:luminance" maskUnits="userSpaceOnUse" x="57" y="6" width="18" height="12">
<path d="M74.8699 6.75H57.6899V17.03H74.8699V6.75Z" fill="white"/>
</mask>
<g mask="url(#mask0_30_225)">
<g style="mix-blend-mode:multiply">
<path fill-rule="evenodd" clip-rule="evenodd" d="M75.2299 5.26001C75.5299 5.26001 75.7699 5.50001 75.7699 5.80001V7.19001H75.7499C75.6599 7.62001 75.1999 7.95 74.6499 7.95C74.0999 7.95 73.6399 7.62001 73.5499 7.19001H73.5199C73.4299 7.62001 72.9699 7.95 72.4199 7.95C71.8699 7.95 71.4099 7.62001 71.3199 7.19001H71.2899C71.1999 7.62001 70.7399 7.95 70.1899 7.95C69.6399 7.95 69.1799 7.62001 69.0899 7.19001H69.0599C68.9699 7.62001 68.5099 7.95 67.9599 7.95C67.4099 7.95 66.9499 7.62001 66.8599 7.19001H66.8299C66.7399 7.62001 66.2799 7.95 65.7299 7.95C65.1799 7.95 64.7199 7.62001 64.6299 7.19001H64.5999C64.5099 7.62001 64.0499 7.95 63.4999 7.95C62.9499 7.95 62.4899 7.62001 62.3999 7.19001H62.3699C62.2799 7.62001 61.8199 7.95 61.2699 7.95C60.7199 7.95 60.2599 7.62001 60.1699 7.19001H60.1399C60.0499 7.62001 59.5899 7.95 59.0399 7.95C58.4899 7.95 58.0299 7.62001 57.9399 7.19001H57.9199V5.80001C57.9199 5.50001 58.1599 5.26001 58.4599 5.26001H75.1599H75.2299Z" fill="#F2F2F2"/>
</g>
</g>
<path d="M76.4099 17.27H75.4199V17.82H76.4099V17.27Z" fill="#221806"/>
<path d="M75.43 15.68H57.12V19.09H75.43V15.68Z" fill="#FFC517"/>
<path d="M75.43 18.41H57.12V19.09H75.43V18.41Z" fill="#D6A513"/>
<path fill-rule="evenodd" clip-rule="evenodd" d="M60.7 20.48C61.97 20.48 63.01 19.44 63.01 18.17C63.01 16.9 61.97 15.86 60.7 15.86C59.43 15.86 58.39 16.9 58.39 18.17C58.39 19.44 59.43 20.48 60.7 20.48Z" fill="#238FBD"/>
<path fill-rule="evenodd" clip-rule="evenodd" d="M60.7 19.15C61.24 19.15 61.68 18.71 61.68 18.17C61.68 17.63 61.24 17.19 60.7 17.19C60.16 17.19 59.72 17.63 59.72 18.17C59.72 18.71 60.16 19.15 60.7 19.15Z" fill="#19191A"/>
<path fill-rule="evenodd" clip-rule="evenodd" d="M60.7 18.68C60.98 18.68 61.2099 18.45 61.2099 18.17C61.2099 17.89 60.98 17.66 60.7 17.66C60.42 17.66 60.1899 17.89 60.1899 18.17C60.1899 18.45 60.42 18.68 60.7 18.68Z" fill="#CCCCCC"/>
<path fill-rule="evenodd" clip-rule="evenodd" d="M72.3699 20.48C73.6399 20.48 74.6799 19.44 74.6799 18.17C74.6799 16.9 73.6399 15.86 72.3699 15.86C71.0999 15.86 70.0599 16.9 70.0599 18.17C70.0599 19.44 71.0999 20.48 72.3699 20.48Z" fill="#238FBD"/>
<path fill-rule="evenodd" clip-rule="evenodd" d="M72.37 19.15C72.91 19.15 73.35 18.71 73.35 18.17C73.35 17.63 72.91 17.19 72.37 17.19C71.83 17.19 71.39 17.63 71.39 18.17C71.39 18.71 71.83 19.15 72.37 19.15Z" fill="#19191A"/>
<path fill-rule="evenodd" clip-rule="evenodd" d="M72.37 18.68C72.65 18.68 72.88 18.45 72.88 18.17C72.88 17.89 72.65 17.66 72.37 17.66C72.09 17.66 71.86 17.89 71.86 18.17C71.86 18.45 72.09 18.68 72.37 18.68Z" fill="#CCCCCC"/>
<path d="M56.2499 15.68H37.9399V19.09H56.2499V15.68Z" fill="#FFC517"/>
<path d="M56.2499 18.41H37.9399V19.09H56.2499V18.41Z" fill="#F7A545"/>
<path d="M41.52 20.48C42.7957 20.48 43.83 19.4458 43.83 18.17C43.83 16.8942 42.7957 15.86 41.52 15.86C40.2442 15.86 39.21 16.8942 39.21 18.17C39.21 19.4458 40.2442 20.48 41.52 20.48Z" fill="#238FBD"/>
<path fill-rule="evenodd" clip-rule="evenodd" d="M41.52 19.15C42.06 19.15 42.5 18.71 42.5 18.17C42.5 17.63 42.06 17.19 41.52 17.19C40.98 17.19 40.54 17.63 40.54 18.17C40.54 18.71 40.98 19.15 41.52 19.15Z" fill="#19191A"/>
<path fill-rule="evenodd" clip-rule="evenodd" d="M41.52 18.68C41.8 18.68 42.03 18.45 42.03 18.17C42.03 17.89 41.8 17.66 41.52 17.66C41.24 17.66 41.01 17.89 41.01 18.17C41.01 18.45 41.24 18.68 41.52 18.68Z" fill="#CCCCCC"/>
<path d="M53.19 20.48C54.4658 20.48 55.5 19.4458 55.5 18.17C55.5 16.8942 54.4658 15.86 53.19 15.86C51.9142 15.86 50.88 16.8942 50.88 18.17C50.88 19.4458 51.9142 20.48 53.19 20.48Z" fill="#238FBD"/>
<path fill-rule="evenodd" clip-rule="evenodd" d="M53.19 19.15C53.73 19.15 54.17 18.71 54.17 18.17C54.17 17.63 53.73 17.19 53.19 17.19C52.65 17.19 52.21 17.63 52.21 18.17C52.21 18.71 52.65 19.15 53.19 19.15Z" fill="#19191A"/>
<path fill-rule="evenodd" clip-rule="evenodd" d="M53.1899 18.68C53.4699 18.68 53.7 18.45 53.7 18.17C53.7 17.89 53.4699 17.66 53.1899 17.66C52.9099 17.66 52.6799 17.89 52.6799 18.17C52.6799 18.45 52.9099 18.68 53.1899 18.68Z" fill="#CCCCCC"/>
<path d="M25.25 9.48999H10.93C10.8361 9.48999 10.76 9.56386 10.76 9.65499C10.76 9.74612 10.8361 9.81999 10.93 9.81999H25.25C25.3439 9.81999 25.42 9.74612 25.42 9.65499C25.42 9.56386 25.3439 9.48999 25.25 9.48999Z" fill="#FFC517"/>
<path fill-rule="evenodd" clip-rule="evenodd" d="M25.9 4.97998H36.58C36.65 4.97998 36.7 5.04998 36.7 5.14998C36.7 5.23998 36.64 5.31998 36.58 5.31998H25.9C25.83 5.31998 25.78 5.24998 25.78 5.14998C25.78 5.05998 25.84 4.97998 25.9 4.97998Z" fill="#FFCF40"/>
<path fill-rule="evenodd" clip-rule="evenodd" d="M10.2599 14.72C9.92995 14.72 9.58995 14.74 9.25995 14.75C7.98995 16.2 6.70994 17.64 5.43994 19.09H9.20993C9.10993 18.8 9.04993 18.49 9.04993 18.17C9.04993 17.22 9.52993 16.39 10.2699 15.9V14.73L10.2599 14.72Z" fill="#FFC517"/>
<mask id="mask1_30_225" style="mask-type:luminance" maskUnits="userSpaceOnUse" x="38" y="6" width="18" height="12">
<path d="M55.69 6.75H38.51V17.03H55.69V6.75Z" fill="white"/>
</mask>
<g mask="url(#mask1_30_225)">
<g style="mix-blend-mode:multiply">
<path fill-rule="evenodd" clip-rule="evenodd" d="M55.85 5.25C56.18 5.25 56.45 5.52 56.45 5.85V7.18H56.43C56.34 7.61 55.88 7.94 55.33 7.94C54.78 7.94 54.32 7.61 54.23 7.18H54.2C54.11 7.61 53.65 7.94 53.1 7.94C52.55 7.94 52.09 7.61 52 7.18H51.97C51.88 7.61 51.42 7.94 50.87 7.94C50.32 7.94 49.86 7.61 49.77 7.18H49.74C49.65 7.61 49.19 7.94 48.64 7.94C48.09 7.94 47.63 7.61 47.54 7.18H47.51C47.42 7.61 46.96 7.94 46.41 7.94C45.86 7.94 45.4 7.61 45.31 7.18H45.28C45.19 7.61 44.73 7.94 44.18 7.94C43.63 7.94 43.17 7.61 43.08 7.18H43.05C42.96 7.61 42.5 7.94 41.95 7.94C41.4 7.94 40.94 7.61 40.85 7.18H40.82C40.73 7.61 40.27 7.94 39.72 7.94C39.17 7.94 38.71 7.61 38.62 7.18H38.6V5.85C38.6 5.52 38.87 5.25 39.2 5.25H55.79H55.85Z" fill="#F2F2F2"/>
</g>
</g>
<path fill-rule="evenodd" clip-rule="evenodd" d="M55.39 4.97998C55.72 4.97998 55.99 5.24998 55.99 5.57998V6.90998H55.97C55.88 7.33998 55.42 7.66998 54.87 7.66998C54.32 7.66998 53.86 7.33998 53.77 6.90998H53.74C53.65 7.33998 53.19 7.66998 52.64 7.66998C52.09 7.66998 51.63 7.33998 51.54 6.90998H51.51C51.42 7.33998 50.96 7.66998 50.41 7.66998C49.86 7.66998 49.4 7.33998 49.31 6.90998H49.28C49.19 7.33998 48.73 7.66998 48.18 7.66998C47.63 7.66998 47.17 7.33998 47.08 6.90998H47.05C46.96 7.33998 46.5 7.66998 45.95 7.66998C45.4 7.66998 44.94 7.33998 44.85 6.90998H44.82C44.73 7.33998 44.27 7.66998 43.72 7.66998C43.17 7.66998 42.71 7.33998 42.62 6.90998H42.59C42.5 7.33998 42.04 7.66998 41.49 7.66998C40.94 7.66998 40.48 7.33998 40.39 6.90998H40.36C40.27 7.33998 39.81 7.66998 39.26 7.66998C38.71 7.66998 38.25 7.33998 38.16 6.90998H38.14V5.57998C38.14 5.24998 38.41 4.97998 38.74 4.97998H55.33H55.39Z" fill="#FFC517"/>
<path fill-rule="evenodd" clip-rule="evenodd" d="M39.1199 5.33997H55.3199C55.4199 5.33997 55.5099 5.43997 55.5099 5.54997C55.5099 5.66997 55.4299 5.75997 55.3199 5.75997H39.1199C39.0199 5.75997 38.9299 5.65997 38.9299 5.54997C38.9299 5.42997 39.0099 5.33997 39.1199 5.33997Z" fill="#F7A545"/>
<path fill-rule="evenodd" clip-rule="evenodd" d="M74.7599 4.97998C75.0599 4.97998 75.2999 5.21997 75.2999 5.51997V6.90998H75.28C75.19 7.33998 74.7299 7.66998 74.1799 7.66998C73.6299 7.66998 73.17 7.33998 73.08 6.90998H73.0499C72.9599 7.33998 72.5 7.66998 71.95 7.66998C71.4 7.66998 70.9399 7.33998 70.8499 6.90998H70.8199C70.7299 7.33998 70.2699 7.66998 69.7199 7.66998C69.1699 7.66998 68.7099 7.33998 68.6199 6.90998H68.5899C68.4999 7.33998 68.0399 7.66998 67.4899 7.66998C66.9399 7.66998 66.48 7.33998 66.39 6.90998H66.3599C66.2699 7.33998 65.8099 7.66998 65.2599 7.66998C64.7099 7.66998 64.2499 7.33998 64.1599 6.90998H64.1299C64.0399 7.33998 63.5799 7.66998 63.0299 7.66998C62.4799 7.66998 62.0199 7.33998 61.9299 6.90998H61.8999C61.8099 7.33998 61.3499 7.66998 60.7999 7.66998C60.2499 7.66998 59.79 7.33998 59.7 6.90998H59.67C59.58 7.33998 59.1199 7.66998 58.5699 7.66998C58.0199 7.66998 57.5599 7.33998 57.4699 6.90998H57.45V5.51997C57.45 5.21997 57.6899 4.97998 57.9899 4.97998H74.6899H74.7599Z" fill="#FFC517"/>
<path fill-rule="evenodd" clip-rule="evenodd" d="M58.31 5.33997H74.51C74.61 5.33997 74.7 5.43997 74.7 5.54997C74.7 5.66997 74.62 5.75997 74.51 5.75997H58.31C58.21 5.75997 58.12 5.65997 58.12 5.54997C58.12 5.42997 58.2 5.33997 58.31 5.33997Z" fill="#FFCD36"/>
<path d="M44.82 8.45001H40.91C40.6228 8.45001 40.39 8.68283 40.39 8.97002V11.29C40.39 11.5772 40.6228 11.81 40.91 11.81H44.82C45.1072 11.81 45.34 11.5772 45.34 11.29V8.97002C45.34 8.68283 45.1072 8.45001 44.82 8.45001Z" fill="#E6E7E8"/>
<path d="M44.83 8.55005H40.92C40.6881 8.55005 40.5 8.73809 40.5 8.97005V11.29C40.5 11.522 40.6881 11.71 40.92 11.71H44.83C45.0619 11.71 45.25 11.522 45.25 11.29V8.97005C45.25 8.73809 45.0619 8.55005 44.83 8.55005Z" fill="#86B7C8"/>
<path fill-rule="evenodd" clip-rule="evenodd" d="M40.92 8.55005H42.39L43.29 11.71H40.91C40.68 11.71 40.49 11.52 40.49 11.29V8.98005C40.49 8.75005 40.68 8.56004 40.91 8.56004L40.92 8.55005Z" fill="#91BFD0"/>
<path d="M53.28 8.45001H49.37C49.0828 8.45001 48.85 8.68283 48.85 8.97002V11.29C48.85 11.5772 49.0828 11.81 49.37 11.81H53.28C53.5672 11.81 53.8 11.5772 53.8 11.29V8.97002C53.8 8.68283 53.5672 8.45001 53.28 8.45001Z" fill="#E6E7E8"/>
<path d="M53.29 8.55005H49.38C49.148 8.55005 48.96 8.73809 48.96 8.97005V11.29C48.96 11.522 49.148 11.71 49.38 11.71H53.29C53.5219 11.71 53.71 11.522 53.71 11.29V8.97005C53.71 8.73809 53.5219 8.55005 53.29 8.55005Z" fill="#86B7C8"/>
<path fill-rule="evenodd" clip-rule="evenodd" d="M49.3799 8.55005H50.8499L51.7499 11.71H49.3699C49.1399 11.71 48.95 11.52 48.95 11.29V8.98005C48.95 8.75005 49.1399 8.56004 49.3699 8.56004L49.3799 8.55005Z" fill="#91BFD0"/>
<path d="M63.9999 8.53998H60.0899C59.8027 8.53998 59.5699 8.77279 59.5699 9.05997V11.38C59.5699 11.6672 59.8027 11.9 60.0899 11.9H63.9999C64.2871 11.9 64.5199 11.6672 64.5199 11.38V9.05997C64.5199 8.77279 64.2871 8.53998 63.9999 8.53998Z" fill="#E6E7E8"/>
<path d="M63.9999 8.63995H60.0899C59.8579 8.63995 59.6699 8.82799 59.6699 9.05995V11.38C59.6699 11.6119 59.8579 11.8 60.0899 11.8H63.9999C64.2319 11.8 64.4199 11.6119 64.4199 11.38V9.05995C64.4199 8.82799 64.2319 8.63995 63.9999 8.63995Z" fill="#86B7C8"/>
<path fill-rule="evenodd" clip-rule="evenodd" d="M60.0899 8.63995H61.5599L62.4599 11.8H60.0799C59.8499 11.8 59.6599 11.61 59.6599 11.38V9.06995C59.6599 8.83995 59.8499 8.64996 60.0799 8.64996L60.0899 8.63995Z" fill="#91BFD0"/>
<path d="M72.4599 8.53998H68.5499C68.2627 8.53998 68.0299 8.77279 68.0299 9.05997V11.38C68.0299 11.6672 68.2627 11.9 68.5499 11.9H72.4599C72.7471 11.9 72.9799 11.6672 72.9799 11.38V9.05997C72.9799 8.77279 72.7471 8.53998 72.4599 8.53998Z" fill="#E6E7E8"/>
<path d="M72.4599 8.63995H68.5499C68.3179 8.63995 68.1299 8.82799 68.1299 9.05995V11.38C68.1299 11.6119 68.3179 11.8 68.5499 11.8H72.4599C72.6919 11.8 72.8799 11.6119 72.8799 11.38V9.05995C72.8799 8.82799 72.6919 8.63995 72.4599 8.63995Z" fill="#86B7C8"/>
<path fill-rule="evenodd" clip-rule="evenodd" d="M68.5499 8.63995H70.0199L70.9199 11.8H68.5399C68.3099 11.8 68.1199 11.61 68.1199 11.38V9.06995C68.1199 8.83995 68.3099 8.64996 68.5399 8.64996L68.5499 8.63995Z" fill="#91BFD0"/>
<path d="M82.39 20.48H0.839966V20.99H82.39V20.48Z" fill="#6D6E70"/>
<path d="M5.09991 20.7H2.66992V21.53H5.09991V20.7Z" fill="#A15641"/>
<path d="M10.4899 20.7H8.05994V21.53H10.4899V20.7Z" fill="#A15641"/>
<path d="M15.8799 20.7H13.45V21.53H15.8799V20.7Z" fill="#A15641"/>
<path d="M21.2698 20.7H18.8398V21.53H21.2698V20.7Z" fill="#A15641"/>
<path d="M26.66 20.7H24.23V21.53H26.66V20.7Z" fill="#A15641"/>
<path d="M32.0499 20.7H29.6199V21.53H32.0499V20.7Z" fill="#A15641"/>
<path d="M37.4399 20.7H35.0099V21.53H37.4399V20.7Z" fill="#A15641"/>
<path d="M42.8299 20.7H40.3999V21.53H42.8299V20.7Z" fill="#A15641"/>
<path d="M48.2199 20.7H45.7899V21.53H48.2199V20.7Z" fill="#A15641"/>
<path d="M53.6099 20.7H51.1799V21.53H53.6099V20.7Z" fill="#A15641"/>
<path d="M58.9999 20.7H56.5699V21.53H58.9999V20.7Z" fill="#A15641"/>
<path d="M64.39 20.7H61.96V21.53H64.39V20.7Z" fill="#A15641"/>
<path d="M69.7798 20.7H67.3499V21.53H69.7798V20.7Z" fill="#A15641"/>
<path d="M75.1699 20.7H72.7399V21.53H75.1699V20.7Z" fill="#A15641"/>
<path d="M80.5599 20.7H78.1299V21.53H80.5599V20.7Z" fill="#A15641"/>
<path d="M8.97 18.47H5.57001C5.3988 18.47 5.26001 18.6088 5.26001 18.78V18.79C5.26001 18.9612 5.3988 19.1 5.57001 19.1H8.97C9.14121 19.1 9.28 18.9612 9.28 18.79V18.78C9.28 18.6088 9.14121 18.47 8.97 18.47Z" fill="#F7A545"/>
</svg>
