<svg width="68" height="60" viewBox="0 0 68 60" fill="none" xmlns="http://www.w3.org/2000/svg">
<path d="M10.6698 56.63C11.5098 55.04 11.5698 48.6 11.5898 48.07C11.7098 44.9 9.63984 42.47 9.30984 37.53C8.99984 32.95 19.2998 36.32 19.4598 38.47C19.6098 40.53 18.4598 45.11 17.9098 46.7C17.6598 47.43 15.1998 54.54 14.4798 56.75C13.7598 58.96 9.70984 58.43 10.6698 56.62V56.63Z" fill="#E0D1CC"/>
<path d="M12.4398 59.74C12.0298 59.74 11.0098 59.74 10.3798 59.74C10.0298 59.94 9.39984 59.91 9.17984 59.7C8.90984 59.69 8.84985 59.7 8.65985 59.67C8.39985 59.81 7.79984 59.7 7.78984 59.37C7.74984 58.14 8.65985 56.85 10.6598 56.62C12.2998 56.43 14.7498 55.25 14.4698 56.75C14.2398 57.98 14.6998 59.73 12.4298 59.73L12.4398 59.74Z" fill="#E0D1CC"/>
<path d="M10.8699 59.67C10.8699 59.67 10.9299 58.77 11.2199 58.05C10.4999 58.63 10.3799 59.39 10.3799 59.74C10.6599 59.98 10.8599 59.67 10.8599 59.67H10.8699Z" fill="#A79098"/>
<path d="M9.18993 59.7C9.18993 59.7 9.14993 58.7 9.43993 57.97C8.71993 58.55 8.66992 59.32 8.66992 59.67C8.94992 59.91 9.18993 59.7 9.18993 59.7Z" fill="#A79098"/>
<path d="M41.2599 56.75C41.8999 55.13 42.6499 50.48 42.7499 49.2C42.8099 48.33 45.6499 45.03 46.1899 46.3C46.7299 47.58 47.0699 49.75 47.0099 50.25C46.9099 51.14 45.7499 54.98 45.0099 56.77C44.5899 57.78 40.7799 57.99 41.2599 56.76V56.75Z" fill="#E0D1CC"/>
<path d="M42.6798 50.49C41.4998 49.23 36.8598 43.44 36.0098 40.44C33.3398 31 44.8798 26.98 46.3298 29.53C49.6598 35.37 45.7898 41.39 45.6798 42.59C45.4998 44.56 46.8398 47.51 46.8598 48.83C46.8798 50.15 43.7398 51.62 42.6798 50.49Z" fill="#656372"/>
<path d="M43.0298 59.74C42.6198 59.74 41.5998 59.74 40.9698 59.74C40.6198 59.94 39.9898 59.91 39.7698 59.7C39.4998 59.69 39.4398 59.7 39.2498 59.67C38.9898 59.81 38.3898 59.7 38.3798 59.37C38.3398 58.14 39.2498 56.85 41.2498 56.62C42.8898 56.43 45.3398 55.25 45.0598 56.75C44.8298 57.98 45.2898 59.73 43.0198 59.73L43.0298 59.74Z" fill="#E0D1CC"/>
<path d="M41.4498 59.67C41.4498 59.67 41.5098 58.77 41.7998 58.05C41.0798 58.63 40.9598 59.39 40.9598 59.74C41.2398 59.98 41.4398 59.67 41.4398 59.67H41.4498Z" fill="#A79098"/>
<path d="M39.7699 59.7C39.7699 59.7 39.7299 58.7 40.0199 57.97C39.2999 58.55 39.2499 59.32 39.2499 59.67C39.5299 59.91 39.7699 59.7 39.7699 59.7Z" fill="#A79098"/>
<path d="M62.5599 36C54.2499 25.7 43.5299 29.39 46.8899 31.31C48.8099 32.41 51.0799 34.2 53.3599 36.46C53.2499 36.91 53.2999 37.42 53.5899 37.97C55.8199 42.23 56.7799 46.05 57.2399 46.27C57.7899 46.53 58.2199 45.46 58.4699 44.03C59.1799 47.42 59.3499 49.96 59.6699 50.23C60.2599 50.71 61.0699 49.27 61.6399 47.53C62.3399 50.88 62.5099 53.39 62.8299 53.65C63.2399 53.99 63.7599 53.39 64.2299 52.41C64.6299 53.46 64.9699 54.51 65.2299 55.55C66.3599 60.1 70.8799 46.31 62.5699 36H62.5599Z" fill="#656372"/>
<path d="M42.9599 42.31C38.1699 43.44 20.6799 47.73 13.0199 40.69C9.40991 37.37 11.0599 30.28 10.4299 25.1C9.7599 19.57 20.7199 11.44 20.7199 17.24C20.7199 25.34 32.4699 23.3 39.4599 22.59C46.4499 21.88 55.2899 25.17 56.5299 31.76C58.0999 40.11 53.3099 39.85 42.9399 42.31H42.9599Z" fill="#83889A"/>
<path d="M42.96 43.14C38.17 44.27 32.17 45.58 22.69 45.7C13.74 45.81 10.3299 41.57 9.66995 36.61C9.17995 32.89 10.4299 34.37 8.27995 27.48C7.23995 24.14 19.5599 17.47 18.1199 24.19C17.3899 27.62 19.03 31.05 19.83 32.87C22.25 38.43 34.77 38.55 39.46 37.93C46.66 36.98 50.0799 39.32 52.2899 37.9C56.0699 35.49 56.42 38.41 53.83 39.9C51.5 41.24 47.8499 41.98 42.9499 43.14H42.96Z" fill="#EAE5E5"/>
<path d="M50.5898 56.75C51.2298 55.13 51.9798 50.48 52.0798 49.2C52.1398 48.33 54.9798 45.03 55.5198 46.3C56.0598 47.58 56.3998 49.75 56.3398 50.25C56.2398 51.14 55.0798 54.98 54.3398 56.77C53.9198 57.78 50.1098 57.99 50.5898 56.76V56.75Z" fill="#EAE5E5"/>
<path d="M52.0199 50.49C50.8399 49.23 46.1999 43.44 45.3499 40.44C42.6799 31 54.2199 26.98 55.6699 29.53C58.9999 35.37 55.1299 41.39 55.0199 42.59C54.8399 44.56 56.0699 47.24 56.0999 48.56C56.1199 49.88 53.0899 51.62 52.0199 50.49Z" fill="#83889A"/>
<path d="M19.0698 56.63C19.8298 54.98 19.9698 48.6 19.9898 48.07C20.0498 46.57 19.6098 45.24 19.1098 43.73C18.5398 42.04 27.3598 43.52 26.8098 45.12C26.5598 45.85 23.5398 55.04 22.8198 57.25C22.0998 59.46 18.2198 58.48 19.0698 56.63Z" fill="#EAE5E5"/>
<path d="M20.8397 59.74C20.4297 59.74 19.4097 59.74 18.7797 59.74C18.4297 59.94 17.7997 59.91 17.5797 59.7C17.3097 59.69 17.2497 59.7 17.0597 59.67C16.7997 59.81 16.1997 59.7 16.1897 59.37C16.1497 58.14 17.0597 56.85 19.0597 56.62C20.6997 56.43 23.1497 55.25 22.8697 56.75C22.6397 57.98 23.0997 59.73 20.8297 59.73L20.8397 59.74Z" fill="#EAE5E5"/>
<path d="M19.2698 59.67C19.2698 59.67 19.3298 58.77 19.6198 58.05C18.8998 58.63 18.7798 59.39 18.7798 59.74C19.0598 59.98 19.2598 59.67 19.2598 59.67H19.2698Z" fill="#BCABA6"/>
<path d="M17.5898 59.7C17.5898 59.7 17.5498 58.7 17.8398 57.97C17.1198 58.55 17.0698 59.32 17.0698 59.67C17.3498 59.91 17.5898 59.7 17.5898 59.7Z" fill="#BCABA6"/>
<path d="M52.3699 59.74C51.9599 59.74 50.9399 59.74 50.3099 59.74C49.9599 59.94 49.3299 59.91 49.1099 59.7C48.8399 59.69 48.7799 59.7 48.5899 59.67C48.3299 59.81 47.7299 59.7 47.7199 59.37C47.6799 58.14 48.5899 56.85 50.5899 56.62C52.2299 56.43 54.6799 55.25 54.3999 56.75C54.1699 57.98 54.6299 59.73 52.3599 59.73L52.3699 59.74Z" fill="#EAE5E5"/>
<path d="M50.7898 59.67C50.7898 59.67 50.8498 58.77 51.1398 58.05C50.4198 58.63 50.2998 59.39 50.2998 59.74C50.5798 59.98 50.7798 59.67 50.7798 59.67H50.7898Z" fill="#BCABA6"/>
<path d="M49.1098 59.7C49.1098 59.7 49.0698 58.7 49.3598 57.97C48.6398 58.55 48.5898 59.32 48.5898 59.67C48.8698 59.91 49.1098 59.7 49.1098 59.7Z" fill="#BCABA6"/>
<path d="M18.85 35.34C18.06 34.02 18.37 32.43 19.53 31.79C20.69 31.15 22.27 31.71 23.06 33.03C24.67 35.74 24.15 38.73 23.78 38.94C23.41 39.15 20.55 38.19 18.85 35.34Z" fill="#83889A"/>
<path d="M23.7798 37.21C22.8398 35.99 22.9398 34.38 24.0198 33.6C25.0998 32.82 26.7298 33.18 27.6698 34.4C29.6098 36.89 29.4598 39.92 29.1198 40.17C28.7798 40.42 25.8198 39.83 23.7898 37.21H23.7798Z" fill="#83889A"/>
<path d="M30.0498 39.28C28.7298 38.49 28.2498 36.94 28.9698 35.83C29.6898 34.72 31.3498 34.46 32.6598 35.26C35.3598 36.89 36.3198 39.77 36.0898 40.13C35.8598 40.49 32.8898 41 30.0498 39.29V39.28Z" fill="#83889A"/>
<path d="M36.4398 39.28C35.1198 38.49 34.6398 36.94 35.3598 35.83C36.0798 34.72 37.7398 34.46 39.0498 35.26C41.7498 36.89 42.7098 39.77 42.4798 40.13C42.2498 40.49 39.2798 41 36.4398 39.29V39.28Z" fill="#83889A"/>
<path d="M42.5999 39.28C41.2799 38.49 40.7999 36.94 41.5199 35.83C42.2399 34.72 43.8999 34.46 45.2099 35.26C47.9099 36.89 48.8699 39.77 48.6399 40.13C48.4099 40.49 45.4399 41 42.5999 39.29V39.28Z" fill="#83889A"/>
<path d="M27.13 23.96C27.13 23.46 25.15 22.15 23.25 19.48C22.62 18.59 17.75 17.88 15.53 17.88C12.58 17.88 7.42997 22.42 6.90997 22.95C4.56997 25.3 4.35996 28.31 4.64996 28.62C4.75996 28.74 5.24996 28.77 5.92996 28.66C5.09996 29.44 4.51996 29.92 4.50996 30.18C4.48996 30.71 5.14996 31.04 6.00996 31.21C5.38996 32.33 4.91998 33.03 4.98998 33.31C5.09998 33.72 5.57997 33.88 6.19997 33.9C5.94997 35.75 6.53997 37.23 6.80997 37.36C6.91997 37.41 7.20998 37.35 7.59998 37.17C7.86998 39.5 8.81997 41.07 9.15997 41.14C9.28997 41.16 9.58997 41.01 9.96997 40.7C10.67 42.13 11.55 43.06 11.89 43.1C12.27 43.15 13.6 42.34 14.73 40.83C15.07 41.5 15.4 41.9 15.56 41.93C15.9 41.99 17.25 40.9 18.26 38.89C18.58 39.36 18.87 39.64 19.01 39.65C19.37 39.68 21.07 38.19 21.5 35.75C22.23 36.03 22.89 36.09 23.14 35.67C23.29 35.42 23.04 34.61 22.77 33.34C23.57 33.28 24.2 33.05 24.25 32.56C24.27 32.38 24.03 32.05 23.65 31.57C24.38 31.75 24.94 31.74 25.07 31.63C25.3 31.42 25.45 29.79 24.68 28.08C25.22 28.55 25.57 28.86 25.73 28.84C26.48 28.76 26.09 26.44 25.53 24.96C26.43 24.83 27.14 24.51 27.13 23.97V23.96Z" fill="#CECFD2"/>
<path d="M22.94 20.62C22.69 20.96 21.31 22 20.27 23.23C18.04 25.86 17.05 30.95 13.69 30.95C10.98 30.95 9.54998 26.41 7.83998 23.74C7.06998 22.54 4.96999 21.06 4.38999 20.21C2.26999 17.07 3.89998 6.81 13.7 6.81C24 6.81 25.12 17.63 22.95 20.64L22.94 20.62Z" fill="#83889A"/>
<path d="M4.55995 19.76C5.73995 19.54 6.64995 18.44 6.58995 17.3C6.52995 16.16 5.67995 14.25 4.75995 15.16C2.73995 17.14 0.869953 17.95 0.779953 18.37C0.579953 19.36 3.37995 19.97 4.55995 19.75V19.76Z" fill="#83889A"/>
<path d="M8.2299 23.15C9.3899 23.44 7.5699 19.52 7.3099 18.41C7.0399 17.3 5.8599 15.58 5.1199 16.64C3.4899 18.96 1.70991 20.1 1.79991 20.52C1.95991 21.29 4.87991 22.31 8.23991 23.15H8.2299Z" fill="#83889A"/>
<path d="M12.7298 7.67997C12.7298 7.67997 6.75983 -0.589997 4.68983 0.960003C1.93983 3.03 5.38983 16.74 5.38983 16.74L12.7198 7.68998L12.7298 7.67997Z" fill="#83889A"/>
<path d="M6.97991 21.3C8.24991 21.37 10.0399 26.02 8.98992 25.29C7.06992 23.95 3.30991 22.83 3.32991 22.42C3.34991 22.01 5.69991 21.23 6.97991 21.3Z" fill="#EAE5E5"/>
<path d="M16.8298 21.61C18.6298 20.22 23.8198 19.41 23.1398 20.62C22.0498 22.55 18.5198 23.42 18.5198 28.22C18.5198 30.28 16.5998 31.63 13.8998 31.63C11.1998 31.63 9.07981 30.28 9.07981 28.12C9.07981 22.92 5.50981 22.8 4.59981 20.48C4.20981 19.48 8.7098 20.87 9.8098 21.47C11.6798 22.47 11.9798 24.11 11.4798 28.8C11.4598 28.97 12.4398 29.94 13.6998 29.94C14.8498 29.94 16.0498 29.07 16.0398 28.77C15.9098 23.87 15.5698 22.57 16.8298 21.61Z" fill="#EAE5E5"/>
<path d="M6.90001 19.1C8.71001 19.26 10.13 25.99 8.39001 24.65C5.32001 22.28 2.71001 21.68 2.64001 21.17C2.55001 20.56 5.10001 18.94 6.90001 19.1Z" fill="#EAE5E5"/>
<path d="M10.5398 7.90999C10.5398 7.90999 6.99983 1.94003 5.39983 2.83003C3.94983 3.64003 6.14983 12.23 6.14983 12.23L10.5398 7.90004V7.90999Z" fill="#EAE5E5"/>
<path d="M4.35989 17.38C5.47989 16.94 8.6799 9.71999 7.4399 10.1C4.8699 10.88 2.85989 14.51 1.74989 15.56C0.969893 16.3 0.389893 16.48 0.389893 16.73C0.389893 17.74 3.24989 17.81 4.36989 17.38H4.35989Z" fill="#83889A"/>
<path d="M23.0199 19.76C21.8399 19.54 20.9299 18.44 20.9899 17.3C21.0499 16.16 21.8999 14.25 22.8199 15.16C24.8399 17.14 26.7099 17.95 26.7999 18.37C26.9999 19.36 24.1999 19.97 23.0199 19.75V19.76Z" fill="#83889A"/>
<path d="M19.3498 23.15C18.1898 23.44 20.0098 19.52 20.2698 18.41C20.5398 17.3 21.7198 15.58 22.4598 16.64C24.0898 18.96 25.8698 20.1 25.7798 20.52C25.6198 21.29 22.6998 22.31 19.3398 23.15H19.3498Z" fill="#83889A"/>
<path d="M20.5999 21.3C19.3299 21.37 17.5398 26.02 18.5898 25.29C20.5098 23.95 24.2698 22.83 24.2498 22.42C24.2298 22.01 21.8799 21.23 20.5999 21.3Z" fill="#EAE5E5"/>
<path d="M20.6798 19.1C18.8698 19.26 17.4498 25.99 19.1898 24.65C22.2598 22.28 24.8698 21.68 24.9398 21.17C25.0298 20.56 22.4798 18.94 20.6798 19.1Z" fill="#EAE5E5"/>
<path d="M11.2399 21.48C10.4499 22.67 8.50992 21.56 8.15992 21.29C7.80992 21.02 6.15992 19.25 6.88992 17.88C7.47992 16.78 9.78991 16.79 10.9299 17.99C11.7099 18.81 11.9399 20.4 11.2299 21.48H11.2399Z" fill="#EAE5E5"/>
<path d="M15.9398 21.48C16.7298 22.67 18.6698 21.56 19.0198 21.29C19.3698 21.02 21.0198 19.25 20.2898 17.88C19.6998 16.78 17.3898 16.79 16.2498 17.99C15.4698 18.81 15.2398 20.4 15.9498 21.48H15.9398Z" fill="#EAE5E5"/>
<path d="M7.44988 18.59C7.66988 18.33 8.93988 18.15 9.90988 19.05C10.7599 19.83 10.9399 21.1 10.8099 21.28C10.6799 21.45 10.6899 21.05 10.0399 21.17C9.54987 21.27 8.78988 21.09 8.43988 20.76C8.04988 20.39 7.71988 19.57 7.71988 19.01C7.71988 18.66 7.36988 18.68 7.44988 18.59Z" fill="#3E3A39"/>
<mask id="mask0_30_2852" style="mask-type:luminance" maskUnits="userSpaceOnUse" x="7" y="18" width="4" height="4">
<path d="M7.44988 18.59C7.66988 18.33 8.93988 18.15 9.90988 19.05C10.7599 19.83 10.9399 21.1 10.8099 21.28C10.6799 21.45 10.6899 21.05 10.0399 21.17C9.54987 21.27 8.78988 21.09 8.43988 20.76C8.04988 20.39 7.71988 19.57 7.71988 19.01C7.71988 18.66 7.36988 18.68 7.44988 18.59Z" fill="white"/>
</mask>
<g mask="url(#mask0_30_2852)">
<path d="M9.59999 20.8C10.2185 20.8 10.72 20.2986 10.72 19.68C10.72 19.0614 10.2185 18.56 9.59999 18.56C8.98143 18.56 8.47998 19.0614 8.47998 19.68C8.47998 20.2986 8.98143 20.8 9.59999 20.8Z" fill="#F7B52C"/>
<path d="M10.1101 19.68C10.1101 19.96 9.8801 20.19 9.6001 20.19C9.3201 20.19 9.09009 19.96 9.09009 19.68C9.09009 19.4 9.3201 19.17 9.6001 19.17C9.8801 19.17 10.1101 19.4 10.1101 19.68Z" fill="#3E3A39"/>
</g>
<path d="M19.6698 18.59C19.4498 18.33 18.1798 18.15 17.2098 19.05C16.3598 19.83 16.1798 21.1 16.3098 21.28C16.4398 21.45 16.4298 21.05 17.0798 21.17C17.5698 21.27 18.3298 21.09 18.6798 20.76C19.0698 20.39 19.3998 19.57 19.3998 19.01C19.3998 18.66 19.7498 18.68 19.6698 18.59Z" fill="#3E3A39"/>
<mask id="mask1_30_2852" style="mask-type:luminance" maskUnits="userSpaceOnUse" x="16" y="18" width="4" height="4">
<path d="M19.6698 18.59C19.4498 18.33 18.1798 18.15 17.2098 19.05C16.3598 19.83 16.1798 21.1 16.3098 21.28C16.4398 21.45 16.4298 21.05 17.0798 21.17C17.5698 21.27 18.3298 21.09 18.6798 20.76C19.0698 20.39 19.3998 19.57 19.3998 19.01C19.3998 18.66 19.7498 18.68 19.6698 18.59Z" fill="white"/>
</mask>
<g mask="url(#mask1_30_2852)">
<path d="M17.5199 20.8C18.1385 20.8 18.6399 20.2986 18.6399 19.68C18.6399 19.0614 18.1385 18.56 17.5199 18.56C16.9014 18.56 16.3999 19.0614 16.3999 19.68C16.3999 20.2986 16.9014 20.8 17.5199 20.8Z" fill="#F7B52C"/>
<path d="M17.52 20.19C17.8017 20.19 18.03 19.9617 18.03 19.68C18.03 19.3983 17.8017 19.17 17.52 19.17C17.2384 19.17 17.01 19.3983 17.01 19.68C17.01 19.9617 17.2384 20.19 17.52 20.19Z" fill="#3E3A39"/>
</g>
<path d="M9.72977 7.92C10.4798 8.06 10.9798 8.70004 10.8398 9.34004C10.6998 9.98004 9.96978 10.39 9.21978 10.25C7.66978 9.96002 6.72978 8.78003 6.76978 8.58003C6.80978 8.38003 8.11978 7.62 9.73978 7.92H9.72977Z" fill="#83889A"/>
<path d="M9.14994 9.14004C9.89994 9.28004 10.3999 9.92002 10.2599 10.56C10.1199 11.2 9.38995 11.61 8.63995 11.47C7.08995 11.18 6.14995 10 6.18995 9.80001C6.22995 9.60001 7.53995 8.84004 9.15995 9.14004H9.14994Z" fill="#83889A"/>
<path d="M9.00997 9.06001C9.38997 9.64001 10.17 9.87003 10.77 9.58003C11.36 9.29003 12.19 8.39999 11.5 8.10999C9.99997 7.47999 9.14998 6.66998 8.90998 6.71998C8.33998 6.83998 8.63998 8.48001 9.01998 9.06001H9.00997Z" fill="#83889A"/>
<path d="M14.7798 7.67997C14.7798 7.67997 20.7498 -0.589997 22.8198 0.960003C25.5698 3.03 22.1198 16.74 22.1198 16.74L14.7898 7.68998L14.7798 7.67997Z" fill="#83889A"/>
<path d="M16.97 7.90999C16.97 7.90999 20.51 1.94003 22.11 2.83003C23.56 3.64003 21.36 12.23 21.36 12.23L16.97 7.90004V7.90999Z" fill="#EAE5E5"/>
<path d="M23.2198 17.38C22.0998 16.94 18.8998 9.71999 20.1398 10.1C22.7098 10.88 24.7198 14.51 25.8298 15.56C26.6098 16.3 27.1898 16.48 27.1898 16.73C27.1898 17.74 24.3299 17.81 23.2099 17.38H23.2198Z" fill="#83889A"/>
<path d="M17.7898 7.92C17.0398 8.06 16.5398 8.70004 16.6798 9.34004C16.8198 9.98004 17.5498 10.39 18.2998 10.25C19.8498 9.96002 20.7898 8.78003 20.7498 8.58003C20.7098 8.38003 19.3998 7.62 17.7798 7.92H17.7898Z" fill="#83889A"/>
<path d="M18.4999 9.06001C18.1199 9.64001 17.3399 9.87003 16.7399 9.58003C16.1499 9.29003 15.3199 8.39999 16.0099 8.10999C17.5099 7.47999 18.3599 6.66998 18.5999 6.71998C19.1699 6.83998 18.8699 8.48001 18.4899 9.06001H18.4999Z" fill="#83889A"/>
<path d="M19.8299 11.38C19.1699 11.6 18.4099 11.29 18.1299 10.69C17.8499 10.09 17.7599 8.88004 18.4799 9.09004C20.0499 9.53004 21.2099 9.42001 21.3699 9.62001C21.7399 10.07 20.4899 11.16 19.8299 11.38Z" fill="#83889A"/>
<path d="M11.48 28.8C11.48 27.84 16.04 27.93 16.04 28.77C16.04 29.3 15.34 30.34 14.81 30.7C14.35 31.01 13.07 31 12.6 30.62C12.04 30.16 11.48 29.32 11.48 28.8Z" fill="#3E3A39"/>
<g style="mix-blend-mode:multiply">
<path d="M12.7099 18.56C12.5499 18.68 12.4099 17.37 11.8099 16.58C11.2099 15.8 10.3699 15.84 10.5299 15.72C10.6899 15.6 11.6699 15.52 12.2699 16.31C12.8699 17.1 12.8699 18.44 12.7099 18.56Z" fill="#83889A"/>
</g>
<g style="mix-blend-mode:multiply">
<path d="M14.6998 18.56C14.8598 18.68 14.9998 17.37 15.5998 16.58C16.1998 15.8 17.0398 15.84 16.8798 15.72C16.7198 15.6 15.7398 15.52 15.1398 16.31C14.5398 17.1 14.5398 18.44 14.6998 18.56Z" fill="#83889A"/>
</g>
</svg>
