<svg width="70" height="44" viewBox="0 0 70 44" fill="none" xmlns="http://www.w3.org/2000/svg">
<path d="M27.6301 26.69C27.6301 25.52 27.5101 23.75 28.4801 23.63C29.4501 23.51 29.8101 28.57 28.0501 30.24C27.0501 31.19 23.2001 29.36 20.4201 29.01C20.4201 29.01 19.2101 30.52 18.9701 33.46C18.7301 36.4 19.3701 38.77 18.9701 38.97C18.5701 39.17 17.0401 39.7 16.3901 40.58C16.3901 40.58 16.6301 38.67 18.2701 38.24C18.2701 38.24 16.9001 29.92 19.5701 28.07C21.3401 26.84 27.1801 30.11 27.4201 29C27.6601 27.89 27.6201 26.68 27.6201 26.68L27.6301 26.69Z" fill="#333132"/>
<path d="M35.1601 25.2C35.1601 25.2 34.3501 26.65 34.1501 30.27C33.9501 33.89 35.1601 34.18 35.1601 33.01C35.1601 31.84 35.2601 27.53 36.2701 26.65L35.1601 25.2Z" fill="#333132"/>
<path d="M41.3202 28.54C41.3202 28.54 40.9402 29.53 40.4102 33C39.8702 36.46 39.7102 37.67 39.8202 38.48C39.9302 39.29 40.1402 39.54 38.9802 39.78C37.8302 40.02 37.3002 40.35 36.9202 40.74C36.9202 40.74 37.0802 39.26 38.6602 38.89C38.6602 38.89 38.9801 32.45 39.6501 29.91C40.3201 27.37 41.4002 26.33 41.3102 28.55L41.3202 28.54Z" fill="#333132"/>
<path d="M48.5901 34.58C48.5901 34.58 48.8401 37.56 49.4001 39.14C49.4001 39.14 47.7101 39.7 47.5201 41.13C47.5201 41.13 47.9702 40.24 50.0002 40.11C50.8502 40.06 50.2002 38.12 50.2302 35.82L48.5901 34.58Z" fill="#333132"/>
<path d="M16.1401 12.31C16.9401 13.26 17.6401 13.24 16.4201 11.88C15.1901 10.52 9.85007 6.28999 5.60008 4.76999C1.34008 3.23999 -1.25995 6.05999 1.11005 5.57999C3.48005 5.09999 5.43006 5.03998 10.4601 8.12998C15.0001 10.92 16.1501 12.32 16.1501 12.32L16.1401 12.31Z" fill="#333132"/>
<path d="M20.7601 10.64C22.6101 10.17 26.3801 9.98003 28.2201 13.27C29.8301 16.15 28.6001 20.09 23.7601 21.86C18.9301 23.63 14.2601 23.47 12.6501 20.3C11.0401 17.13 15.2801 12.03 20.7601 10.64Z" fill="#58595B"/>
<path d="M28.7301 17.03C28.7301 17.03 30.4 15.82 32.86 18.43C35.32 21.05 36.16 23.18 34.87 24.55C33.93 25.55 32.48 27.37 28.9 25.44C25.32 23.51 25.9901 20.75 27.0701 19.82C28.0501 18.98 28.7301 17.03 28.7301 17.03Z" fill="#4A4C4E"/>
<path d="M35.16 24.19C35.8 23.31 37.82 22.71 39.55 23.31C41.28 23.91 41.16 26.85 40.48 27.9C39.8 28.95 36.95 29.26 35.17 27.58C33.68 26.17 35.17 24.19 35.17 24.19H35.16Z" fill="#333132"/>
<path d="M40.9401 25.91C41.3401 23.37 44.8101 19.31 54.3101 21.52C63.8101 23.73 68.3201 30.71 69.5001 35.17C70.6801 39.63 69.0701 37.77 66.0101 36.89C62.4701 35.87 58.5901 37.8701 53.9301 37.5301C48.7201 37.1501 39.6501 34.15 40.9401 25.91Z" fill="#58595B"/>
<path d="M45.76 35.14C46.74 34.63 47.57 33.91 48.08 32.87C48.58 31.84 48.79 30.66 48.93 29.53C49.07 28.36 49.12 27.18 49.03 26C48.95 24.91 48.79 23.81 48.33 22.8C48.05 22.17 47.69 21.57 47.28 21.03C43 21.64 41.23 24.15 40.95 25.92C40.25 30.41 42.62 33.34 45.76 35.15V35.14Z" fill="#333132"/>
<path d="M63.84 36.6C64.11 36.25 64.34 35.87 64.53 35.45C65.1 34.19 65.44 32.67 65.42 31.28C65.4 29.86 65.12 28.37 64.57 27.03C62.34 24.84 59.33 22.91 55.4 21.8C55.94 22.74 56.38 23.74 56.7 24.77C58.03 28.97 57.69 33.93 55.25 37.57C58.43 37.53 61.24 36.58 63.84 36.6Z" fill="#333132"/>
<path d="M12.19 18.82C11.68 18.52 10.4101 18.82 9.45006 20.14C8.48006 21.46 8.44005 23.92 9.03005 22.98C9.62005 22.04 10.9001 20.4 12.2001 20.19C13.2301 20.02 12.9901 19.28 12.2001 18.82H12.19Z" fill="#434547"/>
<path d="M12.5501 21.09C12.4701 21.57 12.1701 22.7 11.2801 23.2C10.3901 23.69 9.96009 23.97 11.3001 23.97C13.1501 23.97 15.0701 22.64 14.9601 20.85C14.8601 19.06 13.0301 18.11 12.5401 21.09H12.5501Z" fill="#4A4C4E"/>
<path d="M18.53 11.23C19.15 12.3 19.85 12.41 18.88 10.85C17.91 9.28999 13.4 4.19002 9.48004 1.94002C5.56004 -0.319981 2.50004 1.99002 4.92004 1.94002C7.34004 1.89002 9.27004 2.16999 13.67 6.09999C17.64 9.63999 18.53 11.23 18.53 11.23Z" fill="#4A4C4E"/>
<path d="M23.8601 12.35C24.6001 12.81 24.8801 14.06 23.5701 15.89C21.8701 18.26 19.2701 19.65 17.9901 18.52C16.7001 17.39 17.6402 14.66 20.1402 13.07C22.6402 11.48 23.8701 12.34 23.8701 12.34L23.8601 12.35Z" fill="#333132"/>
<path d="M30.5 31.2C30.5 31.2 30.63 29.84 30.5 28.08C30.44 27.23 29.92 25.95 30.59 25.2C30.96 24.78 31.7 24.96 32.04 25.3C32.45 25.71 32.46 26.39 32.49 26.94C32.54 28.1 32.46 29.27 32.4 30.43C32.36 31.29 32.4 32.29 32.1 33.12C32.04 33.29 31.88 33.64 31.68 33.7C30.67 34.02 29.47 33.72 28.48 33.45C27.39 33.15 26.35 32.71 25.32 32.26C24.47 31.88 23.62 31.47 22.74 31.17C22.66 31.14 21.13 30.6599 21.13 30.9099C21.13 30.9099 20.38 32.6 21.13 35.98C21.88 39.36 22.15 40.19 22.02 40.27C21.89 40.35 20.03 40.43 18.99 41.43C17.94 42.42 18.21 41.89 18.8 40.95C19.39 40.01 20.25 39.42 20.79 39.39C20.79 39.39 19.66 36.32 19.53 33.48C19.4 30.64 20.01 29.38 20.62 29.08C21.23 28.78 26.84 29.4 30.51 31.2H30.5Z" fill="#333132"/>
<path d="M31.36 32.73C31.15 32.17 30.8201 31.69 30.5001 31.2C26.9301 29.47 21.5501 28.83 20.6801 29.06C20.9501 29.27 21.0801 29.67 21.1301 30C21.1701 30.29 21.1701 30.58 21.1701 30.87C21.3701 30.74 22.6801 31.15 22.7501 31.17C23.6301 31.47 24.48 31.88 25.33 32.26C26.36 32.71 27.4001 33.15 28.4901 33.45C29.4601 33.72 30.6401 34.02 31.6301 33.72C31.5701 33.38 31.4901 33.05 31.3701 32.73H31.36Z" fill="#58595B"/>
<path d="M54.36 40.05C54.65 39.81 55.39 39.71 56.52 40.82C57.84 42.12 57.46 43.17 57.38 42.74C57.33 42.5 56.71 41.7 55.54 41.46C54.64 41.28 53.7 40.6 54.37 40.04L54.36 40.05Z" fill="#333132"/>
<path d="M40.15 25.71C41.37 25.71 43.41 30.92 42.77 31.54C42.13 32.16 40.83 30.04 39.83 28.08C38.98 26.42 39.28 25.71 40.15 25.71Z" fill="#403E3E"/>
<path d="M45.59 26.21C46.32 25.31 49.03 22.4 49.56 22.45C50.1 22.5 50.61 22.4801 51.98 27.1501C53.35 31.8201 54.72 37.5101 54.99 38.5301C55.26 39.5501 55.07 40.11 54.51 40.3C53.95 40.49 53.52 40.22 52.93 38.23C52.34 36.24 49.76 25 49.55 24.86C49.34 24.73 43.37 32.83 42.26 31.64C41.48 30.81 43.45 28.86 45.6 26.2L45.59 26.21Z" fill="#333132"/>
<path d="M49.53 24.86C49.9 24.03 50.22 23.09 49.8 22.48C49.72 22.46 49.64 22.45 49.56 22.45C49.02 22.4 46.32 25.31 45.59 26.21C43.44 28.87 41.47 30.8201 42.25 31.6501C43.36 32.8301 49.32 24.74 49.54 24.87L49.53 24.86Z" fill="#58595B"/>
<path d="M35.6301 29.69C35.5701 28.68 35.1901 25.94 36.5101 25.91C37.7901 25.89 37.6701 28.33 37.7201 30.02C37.7801 31.71 38.2301 33.57 37.2901 33.84C36.3501 34.1 35.8401 33.44 35.6301 29.69Z" fill="#403E3E"/>
<path d="M38.5 28.42C38.24 28.92 37.1 31 36.71 31.72C36.31 32.45 35.98 33.45 36.71 33.88C37.44 34.31 38.59 33.83 39.55 31.15C40.45 28.65 42.15 25.91 41.56 25.32C41.03 24.78 40.37 24.8 38.5 28.42Z" fill="#58595B"/>
<path d="M41.22 35.77C41.16 34.28 41.0101 30.3 40.9201 28.76C40.8201 27.22 41.24 25.42 42.05 25.36C42.86 25.3 42.94 26.53 42.96 28.92C42.98 31.32 42.76 36.99 42.66 37.94C42.56 38.89 42.5501 40.59 41.7901 40.32C41.1101 40.07 41.2701 36.98 41.2301 35.77H41.22Z" fill="#403E3E"/>
<path d="M41.9301 39.98C42.2601 39.8 43.0101 39.84 43.9001 41.15C44.9401 42.68 44.3701 43.63 44.3701 43.2C44.3701 42.96 43.9201 42.05 42.8101 41.59C41.9701 41.24 41.1701 40.4 41.9301 39.98Z" fill="#333132"/>
<path d="M21.2001 13.88C20.8601 14.19 20.47 14.31 20.33 14.16C20.19 14.01 20.3601 13.63 20.7001 13.32C21.0401 13.01 21.4401 12.89 21.5701 13.04C21.7101 13.19 21.5401 13.57 21.2001 13.88Z" fill="white"/>
<path d="M13.17 16.75C13.17 16.75 15.12 12.41 20.68 11C26.24 9.59002 27.19 12.96 27.19 12.96C27.19 12.96 25.08 10.11 20.06 12.02C15.04 13.93 13.17 16.74 13.17 16.74V16.75Z" fill="url(#paint0_linear_30_5344)"/>
<path d="M29.6001 17.07C29.6001 17.07 31.05 16.82 32.8 18.93C34.55 21.04 34.6901 21.7 34.8101 22.55C34.8101 22.55 34.0201 20.6 32.2901 19.47C30.5601 18.34 29.2301 18.3 28.8801 19.31C28.8801 19.31 28.6401 17.28 29.6001 17.07Z" fill="url(#paint1_linear_30_5344)"/>
<path d="M35.91 23.9C35.91 23.9 36.96 23.15 38.58 23.3C40.2 23.45 40.45 24.7 40.45 24.7C40.45 24.7 40.16 23.77 38.46 23.6C36.99 23.45 35.91 23.91 35.91 23.91V23.9Z" fill="url(#paint2_linear_30_5344)"/>
<path d="M42.8901 23.28C42.8901 23.28 46.7901 20.38 52.9501 21.52C59.1101 22.66 64.5501 27.43 66.6801 30.31C66.6801 30.31 59.9801 23.86 52.9601 22.54C45.9501 21.22 42.8801 23.27 42.8801 23.27L42.8901 23.28Z" fill="url(#paint3_linear_30_5344)"/>
<defs>
<linearGradient id="paint0_linear_30_5344" x1="38.44" y1="-17.88" x2="14.84" y2="24.41" gradientUnits="userSpaceOnUse">
<stop stop-color="white"/>
<stop offset="0.6" stop-color="white"/>
<stop offset="1" stop-color="white"/>
</linearGradient>
<linearGradient id="paint1_linear_30_5344" x1="49.62" y1="-11.6399" x2="26.0201" y2="30.65" gradientUnits="userSpaceOnUse">
<stop stop-color="white"/>
<stop offset="0.6" stop-color="white"/>
<stop offset="1" stop-color="white"/>
</linearGradient>
<linearGradient id="paint2_linear_30_5344" x1="40.35" y1="11.0398" x2="37.1299" y2="30.6901" gradientUnits="userSpaceOnUse">
<stop stop-color="white"/>
<stop offset="0.6" stop-color="white"/>
<stop offset="1" stop-color="white"/>
</linearGradient>
<linearGradient id="paint3_linear_30_5344" x1="69.9201" y1="-0.309916" x2="46.3202" y2="41.97" gradientUnits="userSpaceOnUse">
<stop stop-color="white"/>
<stop offset="0.6" stop-color="white"/>
<stop offset="1" stop-color="white"/>
</linearGradient>
</defs>
</svg>
