<svg width="68" height="41" viewBox="0 0 68 41" fill="none" xmlns="http://www.w3.org/2000/svg">
<path d="M61.4499 14.33L40.1799 32.24C39.1799 33.08 38.7399 34.42 39.0599 35.69C39.5599 37.68 40.8099 40.28 43.9499 40.34C44.7099 40.35 45.4499 40.09 46.0499 39.63L66.0799 24.3C66.9999 23.6 67.4999 22.48 67.4199 21.32L67.0799 16.71C66.8799 13.91 63.5899 12.53 61.4399 14.33H61.4499Z" fill="#FEB98F"/>
<path d="M2.16993 10.17C2.32993 10.7 9.01997 14.21 9.01997 14.21C9.01997 14.21 12.7699 17.56 17.4799 18.29C20.8199 18.8 21.15 14.93 21.15 14.93L19.5499 8.45001L16.15 0.700012C16.15 0.700012 15.2399 1.24001 15.6099 3.01001C15.8999 4.36001 16.6499 5.94 16.4199 6.62C16.3499 6.83 16.19 6.94999 15.89 6.95999C15.49 6.95999 14.1999 6.31 12.5999 5.47C9.11992 3.62 4.16992 0.790007 3.65992 1.57001C3.01992 2.56001 8.73997 6.07 10.21 6.94C8.52997 5.99 1.39996 1.99999 1.07996 3.10999C0.739963 4.33999 8.66995 9.33 9.12995 9.63C8.68995 9.41 1.15997 5.72999 0.839973 6.60999C0.519973 7.49999 7.69994 11.55 8.11994 11.79C7.70994 11.6 1.77993 8.95 2.16993 10.19V10.17Z" fill="#FEB98F"/>
<path d="M20.76 14.24C20.76 14.24 44.31 32.03 46.57 33.86C49.39 36.14 46.18 40.72 43.85 40.71C41.52 40.7 28.81 31.69 19.17 20.04L17.27 17.65L20.76 14.24Z" fill="#FEB98F"/>
</svg>
