<svg width="69" height="61" viewBox="0 0 69 61" fill="none" xmlns="http://www.w3.org/2000/svg">
<path d="M67.8595 36.2307L49.2269 59.2852C49.032 59.5373 48.7752 59.6608 48.5184 59.7843C47.2345 60.4021 45.7729 59.6646 45.5334 58.1809L44.0408 47.8488C43.9836 47.4014 43.6635 47.0646 43.1546 46.9928C28.2052 47.1405 14.0889 40.4756 6.53464 29.7037C0.553055 21.2147 -0.74933 10.9494 2.61643 0.527842C2.56147 6.00024 4.36584 10.7364 8.1579 14.6746C15.8672 23.1397 29.9593 25.8108 40.6258 25.6341C41.0728 25.5773 41.5245 25.2017 41.4674 24.7543L40.9925 14.5658C40.9338 13.7866 41.3284 12.9635 42.0987 12.5929C42.869 12.2223 43.6966 12.2991 44.2688 12.8312L67.3312 31.8463C68.5978 32.8359 68.9007 34.7799 67.8595 36.2307Z" fill="#3AB48F"/>
</svg>
