<svg width="58" height="63" viewBox="0 0 58 63" fill="none" xmlns="http://www.w3.org/2000/svg">
<path d="M57.34 9.27002C57.32 9.34002 57.3 9.40999 57.28 9.48999C57.26 9.56999 57.23 9.64998 57.2 9.72998C57.15 9.89998 57.09 10.07 57.03 10.25C56.81 10.96 56.58 11.67 56.58 11.67C56.58 11.67 56.78 10.95 56.97 10.24C57.02 10.06 57.07 9.88002 57.11 9.71002C57.13 9.63002 57.16 9.54997 57.18 9.46997C57.2 9.38997 57.21 9.32 57.23 9.25C57.26 9.1 57.29 8.98997 57.31 8.90997C57.28 8.90997 57.25 8.91002 57.21 8.90002C57.15 8.90002 57.01 8.88 56.81 8.87C55.22 8.76999 53.72 8.61998 52.31 8.41998L48.5 14.54L52.19 8.40997C49.72 8.04997 47.54 7.54 45.67 6.88C45.54 6.84 42.45 5.83 41.47 5.12C40.62 4.5 34.28 1.35002 32.57 0.650024C32.55 0.650024 32.52 0.629995 32.49 0.619995C32.41 0.589995 32.29 0.530029 32.23 0.530029C32.21 0.530029 32.19 0.530029 32.18 0.530029C32.15 0.530029 32.06 0.529993 31.97 0.679993C31.69 1.08999 28.47 6.34002 28.44 6.40002C28.44 6.40002 28.44 6.39998 28.43 6.41998C28.53 6.40998 28.64 6.41997 28.75 6.46997C28.9 6.53997 29.07 6.62002 29.26 6.71002C29.46 6.81002 29.68 6.91003 29.92 7.03003C30.88 7.50003 32.15 8.15002 33.4 8.83002C34.03 9.17002 34.65 9.51998 35.23 9.84998C35.52 10.02 35.8 10.18 36.06 10.34C36.32 10.5 36.57 10.65 36.8 10.79C36.91 10.86 37.02 10.93 37.13 10.99C37.23 11.06 37.33 11.12 37.42 11.18C37.6 11.3 37.76 11.4 37.89 11.49C38.15 11.67 38.29 11.77 38.29 11.77C38.29 11.77 38.14 11.67 37.88 11.5C37.75 11.41 37.59 11.31 37.41 11.2C37.32 11.14 37.22 11.08 37.12 11.02C37.02 10.96 36.91 10.89 36.79 10.82C36.56 10.68 36.31 10.54 36.05 10.39C35.79 10.24 35.5 10.08 35.21 9.91998C34.62 9.59998 34 9.26 33.36 8.94C32.09 8.29 30.81 7.66997 29.85 7.21997C29.61 7.10997 29.39 6.99997 29.19 6.90997C29 6.81997 28.82 6.73999 28.68 6.67999C28.55 6.62999 28.46 6.63997 28.41 6.65997C28.39 6.65997 28.37 6.68 28.36 6.69C28.35 6.83 28.36 7.01998 28.46 7.22998C28.49 7.28998 28.58 7.39 28.65 7.44L29.78 8.22998L30 7.96002C30.05 7.89002 30.5 7.64997 33.73 9.46997C33.84 9.51997 36.46 10.85 36.68 11.51C36.7 11.56 36.7 11.62 36.68 11.66L38.13 12.34C38.13 12.34 38.25 12.37 38.33 12.36C38.35 12.36 38.36 12.36 38.38 12.36C38.48 12.34 38.58 12.32 38.68 12.31C39.53 12.24 39.9 12.79 39.92 12.82C39.93 12.84 41.14 14.65 42.45 16.5C42.96 17.22 43.42 18.01 43.79 18.7C43.75 18.63 43.72 18.56 43.68 18.48C43.61 18.34 43.53 18.2 43.46 18.05C43.38 17.91 43.31 17.77 43.23 17.63C43.15 17.49 43.07 17.36 43 17.23C42.93 17.1 42.85 16.97 42.78 16.85C42.71 16.73 42.64 16.62 42.58 16.52C42.52 16.42 42.46 16.32 42.4 16.24C42.45 16.32 42.52 16.41 42.58 16.51C42.64 16.61 42.71 16.72 42.79 16.84C42.87 16.96 42.94 17.08 43.02 17.21C43.1 17.34 43.18 17.47 43.26 17.61C43.34 17.75 43.42 17.89 43.5 18.03C43.58 18.17 43.66 18.31 43.73 18.45C43.8 18.59 43.88 18.73 43.95 18.86C44.02 18.99 44.09 19.12 44.15 19.25C44.21 19.37 44.27 19.49 44.32 19.6C44.5 19.97 44.63 20.23 44.66 20.3L50.2 11.37L48.09 14.85L50.28 16.68L48.07 14.88L48.01 14.98L49.19 15.91L48 15.01L44.67 20.51C44.72 20.61 44.74 20.67 44.74 20.68L46.85 25.19C46.93 25.14 47.05 25.05 47.21 24.92C47.35 24.81 47.53 24.68 47.72 24.52C47.82 24.44 47.92 24.36 48.03 24.27C48.14 24.18 48.25 24.08 48.36 23.98C48.59 23.78 48.84 23.55 49.09 23.31C49.34 23.06 49.61 22.81 49.88 22.53C50.01 22.39 50.15 22.25 50.29 22.11C50.42 21.96 50.56 21.82 50.69 21.67C50.97 21.37 51.22 21.06 51.49 20.74C51.56 20.66 51.62 20.58 51.69 20.5L51.88 20.26C52.01 20.1 52.13 19.94 52.25 19.78C52.38 19.62 52.49 19.46 52.61 19.3C52.73 19.14 52.84 18.98 52.95 18.82C53.06 18.67 53.17 18.51 53.27 18.35C53.37 18.2 53.47 18.04 53.57 17.9C53.77 17.61 53.93 17.32 54.09 17.05C54.17 16.92 54.24 16.79 54.31 16.67C54.38 16.55 54.45 16.44 54.51 16.32C54.63 16.1 54.73 15.91 54.81 15.75C54.73 15.91 54.63 16.1 54.51 16.33C54.45 16.44 54.39 16.56 54.32 16.68C54.25 16.8 54.18 16.93 54.1 17.06C53.94 17.33 53.78 17.62 53.59 17.91C53.49 18.06 53.4 18.21 53.3 18.37C53.2 18.53 53.1 18.69 52.99 18.84C52.88 19 52.77 19.16 52.65 19.32C52.53 19.48 52.42 19.65 52.3 19.81C52.18 19.97 52.05 20.13 51.93 20.29L51.74 20.53C51.68 20.61 51.61 20.69 51.54 20.77C51.28 21.09 51.02 21.41 50.75 21.71C50.62 21.86 50.48 22.01 50.35 22.16C50.21 22.3 50.08 22.45 49.95 22.59C49.69 22.87 49.42 23.13 49.17 23.38C48.91 23.62 48.67 23.85 48.44 24.06C48.32 24.16 48.21 24.26 48.11 24.35C48 24.44 47.9 24.53 47.8 24.61C47.61 24.77 47.43 24.9 47.29 25.02C47.15 25.13 47.03 25.21 46.95 25.27C46.93 25.28 46.92 25.29 46.9 25.3L46.92 25.34C48.08 24.56 52.7 21.09 55.79 13.96L53.18 12.12L55.81 13.91C55.81 13.91 55.85 13.83 55.86 13.79L52.51 11.48L55.88 13.74C56.49 12.31 57.03 10.73 57.47 8.98999C57.46 8.98999 57.44 8.97997 57.41 8.96997C57.39 9.04997 57.36 9.17 57.32 9.31L57.34 9.27002ZM32.4 1.31C31.73 1.36 30.59 2.99999 30.03 3.85999L29.71 4.35999C29.71 4.35999 29.83 4.15999 30.03 3.85999L32 0.73999C32.18 0.46999 32.36 0.599976 32.36 0.599976L34.3 1.48999L36.01 2.31C34.67 1.68 33.3 1.25001 32.4 1.32001V1.31ZM38.71 11.65C38.78 11.65 38.86 11.64 38.95 11.65C39.04 11.65 39.15 11.67 39.26 11.71C39.37 11.75 39.49 11.8 39.6 11.88C39.66 11.92 39.71 11.97 39.76 12.01C39.81 12.06 39.86 12.12 39.9 12.17C39.99 12.29 40.06 12.42 40.14 12.55C40.22 12.68 40.3 12.81 40.37 12.94C40.52 13.2 40.68 13.47 40.82 13.71C40.96 13.96 41.09 14.19 41.2 14.39C41.31 14.59 41.4 14.76 41.46 14.88C41.52 15 41.56 15.07 41.56 15.07C41.56 15.07 41.52 15.01 41.44 14.9C41.37 14.79 41.26 14.63 41.14 14.44C41.02 14.25 40.87 14.02 40.73 13.78C40.58 13.54 40.42 13.27 40.27 13.01C40.19 12.88 40.12 12.75 40.04 12.62C39.96 12.49 39.89 12.36 39.81 12.25C39.77 12.19 39.72 12.14 39.68 12.09C39.63 12.05 39.59 11.99 39.54 11.96C39.44 11.88 39.33 11.83 39.23 11.78C39.12 11.74 39.03 11.72 38.93 11.71C38.84 11.7 38.76 11.7 38.69 11.7C38.56 11.7 38.48 11.72 38.48 11.72C38.48 11.72 38.55 11.69 38.69 11.68L38.71 11.65ZM36.71 11.64C36.71 11.64 37.14 11.07 34.12 9.59998C34.12 9.59998 30.96 7.75 30.03 7.87C30.03 7.87 30.19 7.72001 30.1 7.51001C30 7.38001 28.68 6.62998 28.36 6.66998C28.36 6.66998 28.47 6.53 28.99 6.81C28.99 6.81 29.73 7.15001 29.92 7.26001C30.38 7.48001 32.32 8.40998 32.94 8.72998C33.64 9.09998 36.54 10.64 37.12 11.03C37.12 11.03 38.25 11.75 38.32 11.85L38.23 12.31L36.71 11.64ZM40.15 13.13C39.92 12.78 39.82 12.54 39.35 12.34C38.88 12.14 38.3 12.31 38.3 12.31L38.4 11.86C38.67 11.52 39.41 11.86 39.41 11.86C39.87 12.1 40.32 13.08 40.32 13.08L41.88 15.62L40.17 13.12L40.15 13.13ZM49.81 8.10999C49.6 8.06999 49.36 8.02999 49.12 7.98999C48.88 7.93999 48.62 7.88 48.36 7.81C48.1 7.75 47.82 7.68 47.54 7.62C47.26 7.56 46.98 7.47001 46.7 7.39001C46.42 7.31001 46.14 7.23001 45.87 7.14001C45.6 7.06001 45.33 6.96 45.08 6.87C44.95 6.83 44.83 6.77999 44.7 6.73999C44.64 6.71999 44.58 6.69998 44.52 6.66998C44.46 6.64998 44.4 6.61998 44.34 6.59998C44.11 6.50998 43.89 6.42002 43.69 6.33002C43.49 6.25002 43.31 6.16002 43.15 6.08002C43.07 6.04002 43 6.00997 42.93 5.96997C42.86 5.92997 42.8 5.9 42.74 5.87C42.51 5.75 42.39 5.67999 42.39 5.67999C42.39 5.67999 42.42 5.69998 42.48 5.72998C42.54 5.75998 42.63 5.79999 42.75 5.85999C42.81 5.88999 42.87 5.92001 42.94 5.95001C43.01 5.98001 43.09 6.00999 43.17 6.04999C43.25 6.07999 43.34 6.11997 43.43 6.15997C43.52 6.19997 43.62 6.24003 43.72 6.28003C43.92 6.36003 44.14 6.44003 44.37 6.53003C44.43 6.55003 44.49 6.56998 44.55 6.59998C44.61 6.61998 44.67 6.63997 44.73 6.65997C44.85 6.69997 44.98 6.73998 45.11 6.78998C45.37 6.86998 45.63 6.96999 45.9 7.04999C46.17 7.12999 46.45 7.20998 46.73 7.28998C47.01 7.36998 47.28 7.46002 47.56 7.52002C47.84 7.59002 48.11 7.64997 48.37 7.71997C48.63 7.78997 48.89 7.84997 49.13 7.90997C49.37 7.95997 49.6 8.00999 49.82 8.04999C50.24 8.13999 50.6 8.22002 50.85 8.27002C51.1 8.33002 51.24 8.35999 51.24 8.35999C51.24 8.35999 51.1 8.33999 50.85 8.29999C50.6 8.25999 50.24 8.2 49.82 8.12L49.81 8.10999ZM46.74 19.84C46.86 19.97 47.01 20.13 47.16 20.3C47.31 20.47 47.48 20.65 47.64 20.83C47.8 21.01 47.96 21.19 48.11 21.37C48.26 21.54 48.4 21.7 48.52 21.84C48.76 22.12 48.91 22.3 48.91 22.3C48.91 22.3 48.74 22.12 48.49 21.86C48.37 21.73 48.22 21.57 48.07 21.4C47.92 21.23 47.75 21.05 47.59 20.87C47.43 20.69 47.27 20.51 47.12 20.33C46.97 20.16 46.83 20 46.71 19.86C46.47 19.58 46.32 19.4 46.32 19.4C46.32 19.4 46.49 19.58 46.74 19.84ZM46.87 25.01L44.76 20.48C44.76 20.48 47.4 24.68 49.25 22.98C49.29 22.94 49.32 22.91 49.34 22.9C49.31 22.93 49.28 22.96 49.25 22.98C48.92 23.3 47.81 24.36 46.86 25.01H46.87ZM49.08 22.13C48.96 22 48.81 21.84 48.66 21.67C48.51 21.5 48.34 21.32 48.18 21.14C48.02 20.96 47.86 20.78 47.71 20.6C47.56 20.43 47.42 20.27 47.3 20.13C47.06 19.85 46.91 19.67 46.91 19.67C46.91 19.67 47.08 19.85 47.33 20.11C47.45 20.24 47.6 20.4 47.75 20.57C47.9 20.74 48.07 20.92 48.23 21.1C48.39 21.28 48.55 21.46 48.7 21.64C48.85 21.81 48.99 21.97 49.11 22.11C49.35 22.39 49.5 22.57 49.5 22.57C49.5 22.57 49.33 22.39 49.08 22.13ZM55.37 10.66C55.23 10.58 55.06 10.48 54.89 10.38C54.71 10.28 54.53 10.16 54.34 10.05C54.15 9.93999 53.97 9.81997 53.79 9.71997C53.62 9.60997 53.45 9.50998 53.31 9.41998C53.03 9.23998 52.85 9.13 52.85 9.13C52.85 9.13 53.04 9.23002 53.33 9.40002C53.47 9.48002 53.64 9.57999 53.81 9.67999C53.99 9.77999 54.17 9.90001 54.36 10.01C54.55 10.12 54.73 10.24 54.91 10.34C55.08 10.45 55.25 10.55 55.39 10.64C55.67 10.81 55.85 10.93 55.85 10.93C55.85 10.93 55.66 10.83 55.37 10.66ZM55.91 10.77C55.77 10.69 55.6 10.59 55.43 10.49C55.25 10.39 55.07 10.27 54.88 10.16C54.69 10.05 54.51 9.93002 54.33 9.83002C54.16 9.72002 53.99 9.62003 53.85 9.53003C53.57 9.36003 53.39 9.23999 53.39 9.23999C53.39 9.23999 53.58 9.35001 53.87 9.51001C54.01 9.59001 54.18 9.68998 54.35 9.78998C54.53 9.88998 54.71 10.01 54.9 10.12C55.09 10.23 55.27 10.35 55.45 10.45C55.62 10.56 55.79 10.66 55.93 10.75C56.21 10.92 56.39 11.04 56.39 11.04C56.39 11.04 56.2 10.94 55.91 10.77Z" fill="#A09F9C"/>
<path d="M44.64 20.74L52.28 8.17999C52.28 8.17999 46.17 7.27999 43.75 5.92999L32.28 0.25L31.9 0.549988L28.13 6.34998L28.19 7.29999L29.51 8.37L29.82 8.22998L30.11 7.95001L30.61 8.01001C30.61 8.01001 32.98 8.97998 34.28 9.78998L35.75 10.68L36.44 11.21L36.61 11.67L37.06 12.08C37.06 12.08 37.74 12.53 38.56 12.51L39.67 12.83L40.67 14.35L44.62 20.74H44.64Z" fill="#D24A43"/>
<path d="M36.22 11.1L34.16 15.15L36.13 11.02C36.13 11.02 36.09 10.99 36.07 10.97L34.83 13.4L35.98 10.91C35.48 10.53 34.76 10.12 34.26 9.84998L32.56 12.42L34.16 9.78998C34.16 9.78998 34.07 9.73997 34.04 9.71997C33.9 9.95997 33.09 11.3 32.21 12.6C31.97 12.96 31.73 13.31 31.49 13.64C31.25 13.97 31.03 14.27 30.83 14.53C30.73 14.66 30.64 14.77 30.55 14.87C30.63 14.77 30.73 14.65 30.82 14.52C31.02 14.26 31.24 13.96 31.47 13.62C31.7 13.29 31.94 12.93 32.17 12.57C33.02 11.26 33.8 9.91998 33.95 9.66998C33.79 9.58998 33.7 9.53998 33.69 9.53998C32.46 8.84998 31.65 8.46 31.11 8.25C31.09 8.27 31.06 8.30999 31.02 8.35999C30.95 8.44999 30.85 8.56997 30.73 8.71997C30.61 8.86997 30.48 9.04999 30.34 9.23999C30.27 9.33999 30.2 9.43998 30.13 9.53998C30.06 9.63998 29.98 9.73998 29.91 9.84998C29.77 10.06 29.63 10.27 29.51 10.48C29.45 10.58 29.39 10.68 29.33 10.77C29.28 10.86 29.22 10.95 29.18 11.04C29 11.38 28.89 11.6 28.89 11.6C28.89 11.6 29 11.37 29.17 11.03C29.21 10.94 29.26 10.86 29.32 10.76C29.37 10.66 29.43 10.56 29.49 10.46C29.6 10.25 29.75 10.04 29.88 9.82001C29.95 9.71001 30.02 9.61 30.09 9.5C30.16 9.4 30.23 9.29 30.29 9.19C30.43 9 30.55 8.80997 30.67 8.65997C30.78 8.50997 30.88 8.37998 30.95 8.28998C30.98 8.24998 31 8.23001 31.02 8.20001C30.59 8.04001 30.36 7.98999 30.24 7.98999C30.24 7.98999 30.22 8.02001 30.17 8.07001C30.12 8.12001 30.06 8.19999 29.98 8.29999C29.9 8.39999 29.8 8.51997 29.69 8.65997C29.58 8.79997 29.46 8.97002 29.33 9.15002C29.2 9.33002 29.07 9.52999 28.93 9.73999C28.8 9.94999 28.65 10.18 28.51 10.42C28.44 10.54 28.37 10.66 28.3 10.78C28.23 10.91 28.16 11.03 28.09 11.16C27.95 11.41 27.82 11.68 27.69 11.94C27.56 12.2 27.44 12.48 27.32 12.74C27.2 13.01 27.1 13.27 27 13.53C26.9 13.79 26.81 14.04 26.73 14.28C26.64 14.52 26.58 14.75 26.51 14.96C26.45 15.17 26.38 15.36 26.34 15.54C26.3 15.71 26.26 15.87 26.22 15.99C26.16 16.24 26.12 16.38 26.12 16.38C26.12 16.38 26.16 16.24 26.22 15.98C26.25 15.85 26.29 15.7 26.33 15.53C26.37 15.35 26.43 15.16 26.49 14.95C26.55 14.74 26.61 14.5 26.7 14.27C26.78 14.03 26.87 13.77 26.96 13.51C27.06 13.25 27.16 12.98 27.27 12.71C27.39 12.44 27.5 12.17 27.63 11.9C27.76 11.63 27.88 11.36 28.02 11.11C28.09 10.98 28.16 10.85 28.22 10.73C28.29 10.61 28.36 10.48 28.43 10.36C28.56 10.12 28.71 9.88999 28.84 9.67999C26.71 12.9 26 16.41 25.99 16.45V16.49C25.95 16.57 23.09 24.2 18.8 30.3C15.02 35.67 9.84997 43.35 7.72997 47.33C6.02997 50.52 2.58998 55.87 1.29998 57.89C1.07998 58.23 0.919974 58.48 0.839974 58.61C0.689974 58.84 0.659971 59.05 0.679971 59.23L3.69998 54.57L0.709985 59.39C0.729985 59.45 0.759977 59.51 0.779977 59.56L2.52998 56.97L0.849984 59.66C0.919984 59.76 0.989982 59.82 1.01998 59.84L1.03997 59.86C1.90997 60.72 2.60998 61.16 3.07998 61.39C3.13998 61.32 3.27998 61.16 3.45998 60.94C3.69998 60.64 4.02997 60.25 4.33997 59.84C4.49997 59.64 4.64998 59.44 4.79998 59.24C4.86998 59.14 4.93998 59.05 4.99998 58.96C5.05998 58.87 5.11997 58.79 5.17997 58.71C5.22997 58.63 5.28998 58.56 5.32998 58.49C5.36998 58.42 5.40997 58.37 5.42997 58.32C5.48997 58.22 5.51998 58.17 5.51998 58.17C5.51998 58.17 5.48997 58.23 5.42997 58.32C5.39997 58.37 5.36998 58.43 5.32998 58.5C5.28998 58.57 5.23998 58.64 5.18998 58.72C5.13998 58.8 5.07998 58.89 5.01998 58.98C4.95998 59.07 4.88999 59.17 4.81999 59.26C4.67999 59.46 4.52998 59.67 4.37998 59.87C4.07998 60.28 3.75998 60.69 3.52998 60.99C3.36998 61.2 3.23997 61.35 3.17997 61.43C3.20997 61.44 3.23998 61.46 3.26998 61.47C3.29998 61.44 3.32997 61.4 3.36997 61.35C3.49997 61.2 3.67998 60.98 3.88998 60.71C3.99998 60.58 4.10997 60.43 4.22997 60.27C4.34997 60.11 4.46998 59.95 4.59998 59.78C4.71998 59.61 4.84997 59.43 4.97997 59.25C5.10997 59.07 5.23997 58.88 5.36997 58.69C5.49997 58.5 5.61998 58.31 5.74998 58.12C5.87998 57.94 5.98998 57.75 6.09998 57.56C6.20998 57.38 6.31998 57.2 6.41998 57.03C6.46998 56.95 6.51999 56.86 6.56999 56.79C6.61999 56.71 6.65998 56.63 6.69998 56.56C7.01998 55.96 7.23998 55.56 7.23998 55.56C7.23998 55.56 7.02998 55.97 6.71998 56.57C6.67998 56.65 6.63998 56.73 6.59998 56.81C6.54998 56.89 6.50998 56.97 6.45998 57.06C6.35998 57.23 6.25997 57.41 6.14997 57.59C6.03997 57.78 5.92998 57.97 5.80998 58.15C5.68998 58.34 5.56998 58.53 5.43998 58.72C5.31998 58.91 5.18998 59.1 5.05998 59.28C4.92998 59.46 4.80997 59.65 4.67997 59.82C4.54997 59.99 4.42998 60.16 4.30998 60.32C4.18998 60.48 4.07997 60.63 3.97997 60.76C3.76997 61.03 3.58998 61.26 3.46998 61.41C3.43998 61.44 3.41997 61.47 3.39997 61.5C3.58997 61.57 3.69998 61.59 3.69998 61.59C3.97997 61.62 4.27998 61.62 4.59998 61.59C4.62998 61.55 4.68998 61.48 4.76998 61.38C4.87998 61.24 5.03998 61.05 5.18998 60.86C5.48998 60.48 5.78997 60.09 5.78997 60.09C5.78997 60.09 5.50998 60.49 5.23998 60.89C5.09998 61.09 4.95998 61.29 4.84998 61.44C4.80998 61.49 4.77998 61.54 4.74998 61.58C6.23998 61.43 7.64998 60.72 8.24998 60.39C8.29998 60.29 8.37997 60.11 8.47997 59.89C8.55997 59.71 8.65998 59.49 8.74998 59.27C8.84998 59.04 8.94998 58.79 9.04998 58.55C9.09998 58.43 9.13998 58.3 9.18998 58.18C9.23998 58.06 9.27999 57.94 9.31999 57.82C9.39999 57.58 9.47997 57.36 9.53997 57.17C9.64997 56.79 9.71998 56.53 9.71998 56.53C9.71998 56.53 9.64998 56.79 9.55998 57.18C9.49998 57.37 9.42998 57.59 9.35998 57.83C9.31998 57.95 9.27998 58.07 9.23998 58.2C9.19998 58.32 9.14998 58.45 9.10998 58.58C9.00998 58.83 8.91998 59.08 8.82998 59.31C8.73998 59.54 8.64999 59.76 8.56999 59.94C8.50999 60.09 8.45998 60.21 8.40998 60.31C8.43998 60.29 8.46998 60.28 8.48998 60.26C9.54998 58.17 10.41 54.53 10.42 54.49V54.47C11.99 49.91 15.06 45.69 19.3 39.84C20.96 37.56 22.83 34.98 24.84 32.07C31.77 22 36.47 11.88 36.52 11.78L36.62 11.57C36.62 11.57 36.62 11.53 36.62 11.51C36.58 11.39 36.46 11.25 36.28 11.1H36.22ZM35.91 10.93L35.59 11.62C35.37 10.63 34.3 9.92999 34.3 9.92999L35.91 10.93ZM20.4 34.94C20.44 35.09 20.49 35.3 20.54 35.51C20.59 35.72 20.63 35.93 20.65 36.09C20.68 36.25 20.69 36.35 20.69 36.35C20.69 36.35 20.66 36.25 20.62 36.09C20.58 35.94 20.53 35.73 20.48 35.52C20.43 35.31 20.4 35.1 20.37 34.94C20.34 34.78 20.33 34.68 20.33 34.68C20.33 34.68 20.36 34.78 20.4 34.94ZM20.23 34.75C20.23 34.75 20.27 34.85 20.32 35C20.37 35.15 20.42 35.36 20.47 35.57C20.52 35.78 20.55 35.99 20.57 36.15C20.59 36.31 20.59 36.42 20.59 36.42C20.59 36.42 20.55 36.32 20.5 36.17C20.45 36.02 20.4 35.81 20.35 35.6C20.31 35.39 20.27 35.18 20.25 35.02C20.23 34.86 20.23 34.75 20.23 34.75ZM17 40.3C17.09 40.16 17.21 39.97 17.37 39.73C17.53 39.5 17.71 39.22 17.9 38.93C18.1 38.64 18.31 38.33 18.52 38.02C18.74 37.71 18.95 37.41 19.16 37.12C19.36 36.83 19.56 36.57 19.72 36.34C19.88 36.11 20.03 35.93 20.13 35.8C20.23 35.67 20.29 35.6 20.29 35.6C20.29 35.6 20.24 35.68 20.15 35.82C20.06 35.96 19.94 36.16 19.78 36.39C19.62 36.62 19.44 36.9 19.25 37.19C19.05 37.48 18.84 37.79 18.63 38.1C18.41 38.41 18.2 38.71 17.99 39C17.79 39.29 17.59 39.55 17.43 39.78C17.27 40.01 17.12 40.19 17.02 40.32C16.92 40.45 16.86 40.52 16.86 40.52C16.86 40.52 16.91 40.44 17 40.3ZM20.29 35.85C20.29 35.85 20.26 35.9 20.22 35.98C20.17 36.06 20.11 36.17 20.02 36.31C19.93 36.44 19.84 36.6 19.73 36.77C19.62 36.94 19.5 37.11 19.38 37.29C19.26 37.46 19.14 37.64 19.02 37.8C18.9 37.96 18.79 38.11 18.7 38.24C18.61 38.37 18.52 38.47 18.46 38.54C18.4 38.61 18.37 38.65 18.37 38.65C18.37 38.65 18.4 38.6 18.44 38.52C18.49 38.44 18.55 38.33 18.64 38.19C18.73 38.06 18.82 37.9 18.93 37.73C19.04 37.56 19.16 37.39 19.28 37.21C19.4 37.04 19.52 36.86 19.64 36.7C19.76 36.54 19.87 36.39 19.96 36.26C20.05 36.13 20.14 36.03 20.2 35.96C20.26 35.89 20.29 35.85 20.29 35.85ZM9.30998 57.25L8.07998 60.3C7.28998 60.98 4.91998 61.52 4.91998 61.52C7.43998 60.73 8.76998 58.42 9.30998 57.24L9.58997 56.54C9.58997 56.54 9.49998 56.82 9.30998 57.24V57.25ZM8.27998 46.66C8.08998 47 7.91998 47.33 7.74998 47.62C7.58998 47.92 7.41998 48.18 7.27998 48.42C7.13998 48.66 7.00998 48.86 6.90998 49.03C6.69998 49.37 6.56999 49.56 6.56999 49.56C6.56999 49.56 6.68998 49.37 6.88998 49.02C6.98998 48.85 7.10998 48.64 7.24998 48.4C7.31998 48.28 7.38998 48.15 7.45998 48.02C7.53998 47.88 7.61998 47.74 7.68998 47.59C7.84998 47.29 8.01998 46.96 8.19998 46.62C8.38998 46.28 8.57998 45.91 8.79998 45.55C9.01998 45.18 9.23997 44.8 9.47997 44.43C9.70997 44.05 9.94998 43.66 10.19 43.28C10.67 42.51 11.16 41.75 11.62 41.03C11.85 40.67 12.08 40.33 12.29 40C12.5 39.67 12.71 39.37 12.9 39.08C13.65 37.95 14.18 37.2 14.18 37.2C14.18 37.2 14.06 37.39 13.84 37.73C13.73 37.9 13.6 38.1 13.45 38.33C13.3 38.56 13.13 38.83 12.95 39.11C12.59 39.68 12.16 40.36 11.7 41.07C11.24 41.79 10.76 42.56 10.28 43.33C10.04 43.71 9.79998 44.1 9.55998 44.48C9.31998 44.86 9.09998 45.23 8.87998 45.6C8.65998 45.96 8.45997 46.32 8.25997 46.66H8.27998ZM12.68 47.85C12.68 47.85 12.65 47.91 12.6 48.01C12.55 48.11 12.48 48.26 12.39 48.43C12.3 48.6 12.2 48.8 12.08 49.02C11.96 49.23 11.84 49.46 11.71 49.69C11.64 49.8 11.59 49.92 11.53 50.03C11.47 50.14 11.41 50.26 11.36 50.36C11.25 50.58 11.14 50.78 11.04 50.95C10.95 51.12 10.86 51.26 10.81 51.36C10.75 51.46 10.72 51.51 10.72 51.51C10.72 51.51 10.75 51.45 10.79 51.35C10.84 51.25 10.9 51.1 10.98 50.92C11.06 50.74 11.16 50.54 11.26 50.32C11.31 50.21 11.37 50.1 11.42 49.98C11.48 49.87 11.53 49.75 11.6 49.63C11.73 49.4 11.86 49.18 11.98 48.97C12.1 48.76 12.22 48.57 12.32 48.4C12.42 48.23 12.51 48.1 12.57 48C12.63 47.9 12.67 47.85 12.67 47.85H12.68ZM14.87 45.03C14.78 45.16 14.66 45.31 14.53 45.49C14.41 45.67 14.27 45.87 14.11 46.09C14.07 46.15 14.03 46.2 13.99 46.26C13.95 46.32 13.91 46.38 13.87 46.44C13.79 46.56 13.71 46.69 13.63 46.82C13.46 47.08 13.3 47.36 13.12 47.64C12.94 47.92 12.77 48.23 12.59 48.53C12.41 48.83 12.25 49.15 12.07 49.47C11.9 49.78 11.73 50.1 11.57 50.42C11.41 50.74 11.25 51.05 11.11 51.35C10.97 51.65 10.82 51.94 10.69 52.22C10.56 52.5 10.44 52.76 10.33 53.01C10.11 53.5 9.92998 53.91 9.80998 54.2C9.68998 54.49 9.61997 54.66 9.61997 54.66C9.61997 54.66 9.67997 54.49 9.78997 54.2C9.84997 54.05 9.91998 53.88 9.99998 53.67C10.08 53.47 10.17 53.24 10.28 52.99C10.39 52.74 10.5 52.47 10.63 52.19C10.75 51.91 10.89 51.61 11.04 51.31C11.18 51.01 11.34 50.69 11.5 50.38C11.66 50.07 11.82 49.74 12 49.43C12.18 49.12 12.34 48.8 12.53 48.49C12.71 48.18 12.88 47.88 13.06 47.6C13.24 47.31 13.41 47.04 13.59 46.78C13.68 46.65 13.76 46.53 13.84 46.41C13.88 46.35 13.92 46.29 13.96 46.23C14 46.17 14.04 46.12 14.08 46.06C14.24 45.84 14.39 45.64 14.52 45.47C14.65 45.3 14.78 45.15 14.87 45.03C15.07 44.79 15.18 44.65 15.18 44.65C15.18 44.65 15.07 44.79 14.89 45.05L14.87 45.03ZM22.72 34.84C22.52 35.13 22.24 35.54 21.89 36.03C21.55 36.52 21.14 37.09 20.71 37.7C20.28 38.31 19.81 38.96 19.35 39.61C18.88 40.26 18.42 40.9 17.98 41.51C17.54 42.11 17.13 42.68 16.77 43.16C16.41 43.64 16.12 44.04 15.91 44.32C15.7 44.6 15.58 44.76 15.58 44.76C15.58 44.76 15.69 44.6 15.89 44.31C16.09 44.02 16.37 43.61 16.72 43.12C17.06 42.63 17.47 42.06 17.9 41.45C18.33 40.84 18.8 40.19 19.26 39.54C19.73 38.89 20.19 38.25 20.63 37.64C21.07 37.04 21.48 36.47 21.84 35.99C22.2 35.51 22.49 35.11 22.7 34.83C22.91 34.55 23.03 34.39 23.03 34.39C23.03 34.39 22.92 34.55 22.72 34.84ZM22.92 32.05C22.86 32.15 22.77 32.3 22.66 32.47C22.55 32.64 22.42 32.84 22.28 33.05C22.14 33.26 21.99 33.49 21.83 33.71C21.68 33.93 21.52 34.16 21.37 34.36C21.22 34.57 21.08 34.76 20.96 34.92C20.84 35.08 20.74 35.22 20.66 35.31C20.59 35.4 20.55 35.46 20.55 35.46C20.55 35.46 20.59 35.4 20.65 35.3C20.71 35.2 20.8 35.05 20.91 34.88C21.02 34.71 21.15 34.51 21.29 34.3C21.43 34.09 21.58 33.86 21.74 33.64C21.89 33.42 22.05 33.19 22.2 32.99C22.35 32.78 22.49 32.59 22.61 32.43C22.73 32.27 22.83 32.13 22.91 32.04C22.98 31.95 23.02 31.89 23.02 31.89C23.02 31.89 22.98 31.95 22.92 32.05ZM23.08 31.4C22.98 31.57 22.88 31.75 22.78 31.93C22.67 32.11 22.56 32.29 22.46 32.47C22.35 32.65 22.24 32.82 22.12 33C22.01 33.17 21.9 33.34 21.79 33.51C21.57 33.84 21.36 34.14 21.18 34.39C21 34.65 20.84 34.86 20.74 35.01C20.63 35.16 20.57 35.24 20.57 35.24C20.57 35.24 20.63 35.15 20.72 35C20.82 34.85 20.96 34.62 21.13 34.36C21.3 34.1 21.5 33.79 21.71 33.46C21.82 33.3 21.92 33.12 22.03 32.95C22.14 32.78 22.25 32.6 22.36 32.42C22.47 32.24 22.58 32.06 22.69 31.89C22.79 31.71 22.9 31.54 23 31.37C23.1 31.2 23.2 31.04 23.29 30.88C23.38 30.72 23.46 30.58 23.54 30.44C23.62 30.3 23.68 30.18 23.75 30.07C23.81 29.96 23.86 29.86 23.91 29.78C24 29.62 24.05 29.53 24.05 29.53C24.05 29.53 24.01 29.63 23.93 29.79C23.89 29.87 23.84 29.97 23.79 30.09C23.73 30.21 23.68 30.34 23.6 30.48C23.53 30.62 23.45 30.77 23.36 30.93C23.32 31.01 23.28 31.09 23.23 31.18C23.18 31.26 23.14 31.35 23.09 31.43L23.08 31.4ZM23.49 33.72L25.57 30.39L24.61 31.65L27.6 27.06L26.42 29.12L28.67 25.89C27.5 28.06 23.49 33.72 23.49 33.72ZM27.66 12.55C27.59 12.71 27.52 12.88 27.44 13.06C27.37 13.24 27.3 13.42 27.23 13.6C27.16 13.79 27.09 13.98 27.02 14.17C26.89 14.56 26.75 14.96 26.63 15.38C26.6 15.48 26.57 15.59 26.54 15.69C26.51 15.8 26.48 15.9 26.45 16.01C26.39 16.22 26.34 16.43 26.28 16.65C26.16 17.08 26.01 17.49 25.85 17.89C25.69 18.29 25.52 18.69 25.36 19.06C25.03 19.81 24.69 20.51 24.4 21.1C23.81 22.28 23.39 23.05 23.39 23.05C23.39 23.05 23.8 22.27 24.38 21.08C24.67 20.49 25 19.79 25.33 19.04C25.49 18.66 25.66 18.27 25.82 17.87C25.97 17.47 26.12 17.05 26.24 16.63C26.3 16.42 26.35 16.2 26.41 15.99C26.44 15.88 26.47 15.78 26.49 15.67C26.52 15.57 26.55 15.46 26.58 15.36C26.7 14.94 26.84 14.54 26.97 14.15C27.04 13.96 27.11 13.77 27.18 13.58C27.25 13.4 27.33 13.22 27.4 13.04C27.48 12.87 27.55 12.7 27.62 12.54C27.7 12.38 27.77 12.22 27.84 12.07C27.92 11.92 27.99 11.78 28.06 11.65C28.13 11.52 28.2 11.39 28.27 11.28C28.41 11.05 28.53 10.85 28.64 10.69C28.85 10.37 29 10.2 29 10.2C29 10.2 28.86 10.37 28.65 10.69C28.55 10.85 28.43 11.05 28.29 11.29C28.23 11.41 28.16 11.53 28.09 11.67C28.02 11.8 27.95 11.95 27.88 12.09C27.81 12.24 27.74 12.39 27.66 12.56V12.55ZM35.25 13.92C35.18 14.09 35.09 14.3 34.99 14.54C34.89 14.78 34.76 15.04 34.62 15.33C34.48 15.62 34.33 15.93 34.16 16.25C34 16.58 33.82 16.92 33.63 17.27C33.44 17.62 33.25 17.99 33.05 18.35C32.85 18.72 32.64 19.09 32.44 19.46C32.02 20.2 31.6 20.94 31.21 21.63C30.81 22.32 30.43 22.96 30.11 23.51C29.79 24.06 29.51 24.51 29.32 24.83C29.13 25.15 29.01 25.33 29.01 25.33C29.01 25.33 29.43 24.59 30.05 23.48C30.36 22.92 30.73 22.28 31.12 21.58C31.51 20.89 31.93 20.14 32.34 19.4C32.55 19.03 32.75 18.66 32.96 18.29C33.16 17.92 33.36 17.56 33.55 17.21C33.74 16.86 33.92 16.52 34.09 16.2C34.26 15.88 34.42 15.57 34.56 15.29C34.7 15 34.84 14.74 34.95 14.51C35.06 14.28 35.15 14.07 35.23 13.9C35.37 13.56 35.45 13.36 35.45 13.36C35.45 13.36 35.38 13.56 35.25 13.91V13.92ZM35.54 13.64C35.72 13.03 35.78 12.13 35.78 12.13L36.26 11.18C36.52 11.4 36.56 11.59 36.56 11.59L35.55 13.64H35.54Z" fill="#D39C6F"/>
<path d="M36.13 11.03C36.13 11.03 31.44 21.19 27.59 27.07C23.73 32.95 14.1 45.35 11.7 49.69C9.30001 54.03 8.95002 59.73 4.77002 61.82L6.86002 61.31L8.73001 60.43L9.61002 57.8L11.27 52.72C11.27 52.72 14.12 47.26 17.57 42.51L24.22 33.2L28.07 27.41L32.64 19.79L35.42 14.62L36.67 11.99C36.67 11.99 36.82 11.26 36.14 11.03H36.13Z" fill="#9E7553"/>
<path d="M31.4201 8.37C31.4201 8.37 28.7701 11.34 27.1801 16.58C27.1801 16.58 25.8501 20.26 22.9001 25.33C19.9501 30.4 12.6401 40.61 10.0801 45.03C7.52006 49.45 3.29007 58.11 1.21007 60.14L0.430054 59.48L0.560059 58.46L2.88007 54.92L8.06006 46.35L14.6501 35.89L20.6601 26.91L23.5101 21.73L25.7801 16.49C25.7801 16.49 26.9801 11.38 29.3501 8.65997L29.8001 8.31L30.1601 7.96002H30.4501L31.4501 8.37H31.4201Z" fill="#E5C4A9"/>
<path d="M28.4401 6.39001C28.4401 6.39001 29.0401 6.41003 33.8701 9.09003C33.8701 9.09003 37.8601 11.32 38.3601 11.81C38.3601 11.81 39.2501 11.21 39.9401 12.44C39.9401 12.44 44 18.74 44.61 20.33" stroke="#E4928E" stroke-width="0.17" stroke-miterlimit="10"/>
<path d="M44.63 20.35L44.66 20.31L44.62 20.33C44.62 20.33 44.62 20.35 44.63 20.35Z" fill="#A09F9C"/>
<path d="M38.72 11.67C38.79 11.67 38.87 11.67 38.96 11.68C39.05 11.69 39.15 11.72 39.26 11.75C39.36 11.79 39.47 11.84 39.57 11.93C39.62 11.97 39.67 12.02 39.71 12.06C39.75 12.11 39.8 12.16 39.84 12.22C39.92 12.33 39.99 12.46 40.07 12.59C40.15 12.72 40.22 12.85 40.3 12.98C40.46 13.24 40.61 13.5 40.76 13.75C40.91 13.99 41.05 14.22 41.17 14.41C41.29 14.6 41.4 14.76 41.47 14.87C41.54 14.98 41.59 15.04 41.59 15.04C41.59 15.04 41.55 14.97 41.49 14.85C41.43 14.73 41.34 14.56 41.23 14.36C41.12 14.16 40.99 13.93 40.85 13.68C40.71 13.43 40.55 13.17 40.4 12.91C40.32 12.78 40.24 12.65 40.17 12.52C40.09 12.39 40.02 12.27 39.93 12.14C39.88 12.08 39.84 12.03 39.79 11.98C39.74 11.93 39.69 11.88 39.63 11.85C39.52 11.77 39.4 11.72 39.29 11.68C39.18 11.65 39.07 11.63 38.98 11.62C38.89 11.62 38.8 11.62 38.74 11.62C38.61 11.64 38.53 11.66 38.53 11.66C38.53 11.66 38.6 11.64 38.74 11.64L38.72 11.67Z" fill="#3E3E41"/>
<path d="M39.41 11.87C39.41 11.87 38.67 11.52 38.4 11.87L38.3 12.32C38.3 12.32 38.8801 12.15 39.3501 12.35C39.8201 12.55 39.92 12.79 40.15 13.14L41.86 15.64L40.3 13.1C40.3 13.1 39.85 12.12 39.39 11.88L39.41 11.87Z" fill="#3E3E41"/>
<path d="M52.24 8.31L44.72 20.62" stroke="#D9D9D7" stroke-width="0.08" stroke-miterlimit="10"/>
<path d="M37.12 11.03C36.54 10.64 33.64 9.1 32.94 8.73C32.32 8.41 30.38 7.48003 29.92 7.26003C29.73 7.16003 28.99 6.81002 28.99 6.81002C28.47 6.53002 28.36 6.67 28.36 6.67C28.68 6.63 30 7.38003 30.1 7.51003C30.19 7.72003 30.03 7.87001 30.03 7.87001C30.96 7.75001 34.12 9.6 34.12 9.6C37.14 11.07 36.71 11.64 36.71 11.64L38.23 12.31L38.32 11.85C38.25 11.75 37.12 11.03 37.12 11.03Z" fill="#3E3E41"/>
<path d="M47.1301 20.33C47.2801 20.5 47.4401 20.68 47.6001 20.87C47.7601 21.05 47.9301 21.23 48.0801 21.4C48.2301 21.57 48.3801 21.72 48.5001 21.86C48.7501 22.13 48.9201 22.3 48.9201 22.3C48.9201 22.3 48.7601 22.11 48.5301 21.84C48.4101 21.7 48.2701 21.54 48.1201 21.37C47.9701 21.2 47.8101 21.02 47.6501 20.83C47.4901 20.65 47.3201 20.47 47.1701 20.3C47.0201 20.13 46.8701 19.98 46.7501 19.84C46.5001 19.57 46.3301 19.4 46.3301 19.4C46.3301 19.4 46.4901 19.59 46.7201 19.86C46.8401 20 46.9801 20.16 47.1301 20.33Z" fill="#3E3E41"/>
<path d="M48.7 21.64C48.55 21.47 48.39 21.29 48.23 21.1C48.07 20.92 47.9 20.74 47.75 20.57C47.6 20.4 47.45 20.25 47.33 20.11C47.08 19.84 46.91 19.67 46.91 19.67C46.91 19.67 47.07 19.86 47.3 20.13C47.42 20.27 47.56 20.43 47.71 20.6C47.86 20.77 48.02 20.95 48.18 21.14C48.34 21.32 48.51 21.5 48.66 21.67C48.81 21.84 48.96 21.99 49.08 22.13C49.33 22.4 49.5 22.57 49.5 22.57C49.5 22.57 49.34 22.38 49.11 22.11C48.99 21.97 48.85 21.81 48.7 21.64Z" fill="#3E3E41"/>
<path d="M55.45 10.45C55.27 10.34 55.09 10.23 54.9 10.12C54.71 10.01 54.52 9.89998 54.35 9.78998C54.17 9.68998 54.01 9.59001 53.87 9.51001C53.59 9.35001 53.39 9.23999 53.39 9.23999C53.39 9.23999 53.57 9.36003 53.85 9.53003C53.99 9.62003 54.15 9.72002 54.33 9.83002C54.51 9.94002 54.69 10.05 54.88 10.16C55.07 10.27 55.26 10.38 55.43 10.49C55.61 10.59 55.77 10.69 55.91 10.77C56.19 10.93 56.39 11.04 56.39 11.04C56.39 11.04 56.21 10.92 55.93 10.75C55.79 10.66 55.63 10.56 55.45 10.45Z" fill="#3E3E41"/>
<path d="M54.9101 10.33C54.7301 10.22 54.5501 10.11 54.3601 10C54.1701 9.89 53.9801 9.77998 53.8101 9.66998C53.6301 9.56998 53.4701 9.47001 53.3301 9.39001C53.0501 9.23001 52.8501 9.12 52.8501 9.12C52.8501 9.12 53.0301 9.23997 53.3101 9.40997C53.4501 9.49997 53.6101 9.60002 53.7901 9.71002C53.9701 9.82002 54.1501 9.92998 54.3401 10.04C54.5301 10.15 54.7201 10.26 54.8901 10.37C55.0701 10.47 55.2301 10.57 55.3701 10.65C55.6501 10.81 55.8501 10.92 55.8501 10.92C55.8501 10.92 55.6701 10.8 55.3901 10.63C55.2501 10.54 55.0901 10.44 54.9101 10.33Z" fill="#3E3E41"/>
<path d="M32.37 0.590024C32.37 0.590024 32.19 0.459977 32.01 0.729977L30.04 3.84997C30.59 2.99997 31.74 1.35998 32.41 1.29998C33.31 1.22998 34.6901 1.65997 36.0201 2.28997L34.31 1.46997L32.37 0.580014V0.590024Z" fill="#3E3E41"/>
<path d="M30.04 3.84998C29.84 4.14998 29.72 4.34998 29.72 4.34998L30.04 3.84998Z" fill="#3E3E41"/>
<path d="M51.25 8.35999C51.25 8.35999 51.11 8.33002 50.86 8.27002C50.61 8.22002 50.26 8.13999 49.83 8.04999C49.62 8.00999 49.39 7.95997 49.14 7.90997C48.9 7.84997 48.64 7.78997 48.38 7.71997C48.12 7.65997 47.84 7.59002 47.57 7.52002C47.29 7.46002 47.02 7.36998 46.74 7.28998C46.46 7.20998 46.18 7.12999 45.91 7.04999C45.64 6.96999 45.37 6.86998 45.12 6.78998C44.99 6.74998 44.86 6.69997 44.74 6.65997C44.68 6.63997 44.62 6.61998 44.56 6.59998C44.5 6.57998 44.44 6.56003 44.38 6.53003C44.15 6.44003 43.93 6.36003 43.73 6.28003C43.63 6.24003 43.53 6.19997 43.44 6.15997C43.35 6.11997 43.26 6.08999 43.18 6.04999C43.1 6.01999 43.02 5.98001 42.95 5.95001C42.88 5.92001 42.82 5.88999 42.76 5.85999C42.65 5.79999 42.55 5.76998 42.49 5.72998C42.43 5.69998 42.4 5.67999 42.4 5.67999C42.4 5.67999 42.52 5.76 42.75 5.87C42.81 5.9 42.87 5.92997 42.94 5.96997C43.01 5.99997 43.08 6.04002 43.16 6.08002C43.32 6.15002 43.5 6.25002 43.7 6.33002C43.9 6.41002 44.12 6.49998 44.35 6.59998C44.41 6.61998 44.47 6.64998 44.53 6.66998C44.59 6.68998 44.65 6.70999 44.71 6.73999C44.83 6.77999 44.96 6.83 45.09 6.87C45.35 6.96 45.61 7.06001 45.88 7.14001C46.15 7.22001 46.43 7.30001 46.71 7.39001C46.99 7.47001 47.27 7.56 47.55 7.62C47.83 7.69 48.1 7.75 48.37 7.81C48.63 7.87 48.89 7.92999 49.13 7.98999C49.38 8.02999 49.61 8.07999 49.82 8.10999C50.25 8.18999 50.61 8.24998 50.85 8.28998C51.1 8.32998 51.24 8.34998 51.24 8.34998L51.25 8.35999Z" fill="#3E3E41"/>
<path d="M21.8301 35.99C21.4801 36.47 21.0701 37.04 20.6201 37.64C20.1801 38.25 19.7101 38.89 19.2501 39.54C18.7901 40.19 18.3201 40.84 17.8901 41.45C17.4601 42.06 17.0601 42.63 16.7101 43.12C16.3701 43.61 16.0801 44.02 15.8801 44.31C15.6801 44.6 15.5701 44.76 15.5701 44.76C15.5701 44.76 15.6901 44.6 15.9001 44.32C16.1101 44.04 16.4001 43.64 16.7601 43.16C17.1101 42.68 17.5201 42.11 17.9701 41.51C18.4101 40.9 18.8801 40.26 19.3401 39.61C19.8001 38.96 20.2701 38.31 20.7001 37.7C21.1301 37.09 21.5301 36.52 21.8801 36.03C22.2201 35.54 22.5101 35.13 22.7101 34.84C22.9101 34.55 23.0201 34.39 23.0201 34.39C23.0201 34.39 22.9001 34.55 22.6901 34.83C22.4801 35.11 22.1901 35.51 21.8301 35.99Z" fill="#3E3E41"/>
<path d="M23.5701 30.46C23.6501 30.32 23.7 30.19 23.76 30.07C23.81 29.95 23.86 29.85 23.9 29.77C23.98 29.6 24.0201 29.51 24.0201 29.51C24.0201 29.51 23.9701 29.6 23.8801 29.76C23.8401 29.84 23.78 29.94 23.72 30.05C23.66 30.16 23.59 30.29 23.51 30.42C23.43 30.56 23.35 30.7 23.26 30.86C23.17 31.02 23.07 31.18 22.97 31.35C22.87 31.52 22.77 31.69 22.66 31.87C22.55 32.04 22.44 32.22 22.33 32.4C22.22 32.58 22.11 32.76 22 32.93C21.89 33.1 21.78 33.28 21.68 33.44C21.47 33.77 21.2701 34.08 21.1001 34.34C20.9301 34.6 20.79 34.83 20.69 34.98C20.59 35.14 20.54 35.22 20.54 35.22C20.54 35.22 20.6001 35.14 20.7101 34.99C20.8201 34.84 20.98 34.63 21.15 34.37C21.33 34.11 21.54 33.81 21.76 33.49C21.87 33.33 21.98 33.16 22.09 32.98C22.2 32.81 22.32 32.63 22.43 32.45C22.54 32.27 22.65 32.09 22.75 31.91C22.85 31.73 22.95 31.55 23.05 31.38C23.1 31.29 23.15 31.21 23.19 31.13C23.23 31.05 23.2801 30.96 23.3201 30.88C23.4001 30.72 23.48 30.57 23.56 30.43L23.5701 30.46Z" fill="#3E3E41"/>
<path d="M17.4201 39.77C17.5801 39.54 17.7801 39.28 17.9801 38.99C18.1801 38.7 18.4001 38.4 18.6201 38.09C18.8301 37.78 19.0401 37.47 19.2401 37.18C19.4401 36.89 19.6201 36.62 19.7701 36.38C19.9301 36.15 20.0501 35.95 20.1401 35.81C20.2301 35.67 20.2801 35.59 20.2801 35.59C20.2801 35.59 20.2201 35.66 20.1201 35.79C20.0201 35.92 19.8801 36.11 19.7101 36.33C19.5501 36.56 19.3501 36.82 19.1501 37.11C18.9501 37.4 18.7301 37.7 18.5101 38.01C18.3001 38.32 18.0901 38.63 17.8901 38.92C17.6901 39.21 17.5101 39.48 17.3601 39.72C17.2001 39.95 17.0801 40.15 16.9901 40.29C16.9001 40.43 16.8501 40.51 16.8501 40.51C16.8501 40.51 16.9101 40.44 17.0101 40.31C17.1101 40.18 17.2501 39.99 17.4201 39.77Z" fill="#3E3E41"/>
<path d="M22.6001 32.44C22.4801 32.6 22.34 32.79 22.19 33C22.04 33.21 21.89 33.43 21.73 33.65C21.58 33.87 21.42 34.1 21.28 34.31C21.14 34.52 21.01 34.72 20.9 34.89C20.79 35.06 20.7 35.21 20.64 35.31C20.58 35.41 20.54 35.47 20.54 35.47C20.54 35.47 20.58 35.42 20.65 35.32C20.72 35.22 20.83 35.09 20.95 34.93C21.07 34.77 21.21 34.57 21.36 34.37C21.51 34.16 21.6601 33.94 21.8201 33.72C21.9701 33.5 22.1301 33.27 22.2701 33.06C22.4101 32.85 22.54 32.65 22.65 32.48C22.76 32.31 22.85 32.16 22.91 32.06C22.97 31.96 23.01 31.9 23.01 31.9C23.01 31.9 22.97 31.95 22.9 32.05C22.83 32.15 22.7201 32.28 22.6001 32.44Z" fill="#3E3E41"/>
<path d="M19.63 36.71C19.51 36.87 19.39 37.04 19.27 37.22C19.15 37.4 19.03 37.57 18.92 37.74C18.81 37.91 18.71 38.06 18.63 38.2C18.54 38.33 18.48 38.45 18.43 38.53C18.38 38.61 18.36 38.66 18.36 38.66C18.36 38.66 18.39 38.62 18.45 38.55C18.51 38.48 18.59 38.37 18.69 38.25C18.78 38.12 18.9 37.98 19.01 37.81C19.13 37.65 19.25 37.48 19.37 37.3C19.49 37.12 19.61 36.95 19.72 36.78C19.83 36.61 19.93 36.46 20.01 36.32C20.1 36.19 20.16 36.07 20.21 35.99C20.26 35.91 20.28 35.86 20.28 35.86C20.28 35.86 20.25 35.9 20.19 35.97C20.13 36.04 20.05 36.15 19.95 36.27C19.86 36.4 19.74 36.54 19.63 36.71Z" fill="#3E3E41"/>
<path d="M9.57008 44.49C9.81008 44.11 10.0501 43.73 10.2901 43.34C10.7701 42.57 11.2501 41.8 11.7101 41.08C12.1701 40.36 12.5901 39.69 12.9601 39.12C13.1401 38.83 13.3101 38.57 13.4601 38.34C13.6101 38.11 13.7401 37.9 13.8501 37.74C14.0601 37.41 14.1901 37.21 14.1901 37.21C14.1901 37.21 13.6701 37.95 12.9101 39.09C12.7201 39.37 12.5201 39.68 12.3001 40.01C12.0901 40.34 11.8601 40.68 11.6301 41.04C11.1701 41.75 10.6801 42.52 10.2001 43.29C9.96007 43.68 9.72008 44.06 9.49008 44.44C9.25008 44.82 9.03007 45.2 8.81007 45.56C8.59007 45.92 8.39008 46.29 8.21008 46.63C8.03008 46.98 7.86007 47.3 7.70007 47.6C7.62007 47.75 7.54008 47.89 7.47008 48.03C7.39008 48.17 7.32007 48.29 7.26007 48.41C7.13007 48.65 7.00007 48.86 6.90007 49.03C6.70007 49.37 6.58008 49.57 6.58008 49.57C6.58008 49.57 6.71007 49.38 6.92007 49.04C7.03007 48.87 7.15007 48.67 7.29007 48.43C7.43007 48.19 7.60007 47.93 7.76007 47.63C7.92007 47.33 8.10007 47.01 8.29007 46.67C8.48007 46.33 8.68008 45.97 8.91008 45.61C9.13008 45.25 9.35007 44.87 9.59007 44.49H9.57008Z" fill="#3E3E41"/>
<path d="M34.94 14.52C34.83 14.75 34.69 15.01 34.55 15.3C34.41 15.59 34.24 15.89 34.08 16.21C33.91 16.53 33.73 16.87 33.54 17.22C33.35 17.57 33.15 17.93 32.95 18.3C32.75 18.67 32.54 19.04 32.33 19.41C31.92 20.15 31.5 20.9 31.11 21.59C30.72 22.28 30.35 22.93 30.04 23.49C29.41 24.6 29 25.34 29 25.34C29 25.34 29.11 25.16 29.31 24.84C29.5 24.52 29.78 24.07 30.1 23.52C30.42 22.97 30.8 22.33 31.2 21.64C31.6 20.95 32.02 20.21 32.43 19.47C32.63 19.1 32.84 18.72 33.04 18.36C33.24 17.99 33.43 17.63 33.62 17.28C33.81 16.93 33.98 16.58 34.15 16.26C34.31 15.93 34.47 15.62 34.61 15.34C34.75 15.05 34.87 14.79 34.98 14.55C35.08 14.31 35.17 14.1 35.24 13.93C35.37 13.58 35.44 13.38 35.44 13.38C35.44 13.38 35.36 13.58 35.22 13.92C35.14 14.09 35.05 14.29 34.94 14.53V14.52Z" fill="#3E3E41"/>
<path d="M20.35 35.6C20.4 35.81 20.45 36.02 20.5 36.17C20.55 36.32 20.59 36.42 20.59 36.42C20.59 36.42 20.59 36.31 20.57 36.15C20.55 35.99 20.51 35.78 20.47 35.57C20.42 35.36 20.37 35.15 20.32 35C20.27 34.85 20.23 34.75 20.23 34.75C20.23 34.75 20.23 34.86 20.25 35.02C20.27 35.18 20.31 35.39 20.35 35.6Z" fill="#3E3E41"/>
<path d="M20.4801 35.52C20.5201 35.73 20.5801 35.94 20.6201 36.09C20.6601 36.25 20.6901 36.35 20.6901 36.35C20.6901 36.35 20.6801 36.24 20.6501 36.09C20.6201 35.93 20.5801 35.72 20.5401 35.51C20.5001 35.3 20.4401 35.09 20.4001 34.94C20.3601 34.79 20.3301 34.68 20.3301 34.68C20.3301 34.68 20.3401 34.79 20.3701 34.94C20.4001 35.1 20.4401 35.31 20.4801 35.52Z" fill="#3E3E41"/>
<path d="M44.78 20.51L46.95 25.14C46.95 25.14 50.59 22.84 54.13 16.95C54.13 16.95 56.64 12.91 57.37 8.71997L57.69 8.76001L57.3 10.71L55.51 15.09L54.1 17.71L52.8 19.84L48.65 24.25L46.86 25.53L46.09 24.08L44.62 20.8L44.78 20.51Z" fill="#D9D9D7"/>
<path d="M28.28 11.29C28.41 11.06 28.53 10.86 28.64 10.69C28.85 10.37 28.99 10.2 28.99 10.2C28.99 10.2 28.85 10.37 28.63 10.69C28.52 10.85 28.4 11.05 28.26 11.28C28.19 11.4 28.12 11.52 28.05 11.65C27.98 11.78 27.91 11.92 27.83 12.07C27.76 12.22 27.68 12.37 27.61 12.54C27.54 12.7 27.46 12.87 27.39 13.04C27.32 13.22 27.25 13.4 27.17 13.58C27.1 13.77 27.03 13.96 26.96 14.15C26.82 14.54 26.69 14.94 26.57 15.36C26.54 15.46 26.51 15.57 26.48 15.67C26.45 15.78 26.42 15.88 26.4 15.99C26.34 16.2 26.29 16.41 26.23 16.63C26.11 17.05 25.96 17.47 25.81 17.87C25.65 18.27 25.49 18.67 25.32 19.04C24.99 19.8 24.66 20.49 24.37 21.08C23.79 22.27 23.38 23.05 23.38 23.05C23.38 23.05 23.8 22.28 24.39 21.1C24.68 20.51 25.02 19.81 25.35 19.06C25.52 18.68 25.68 18.29 25.84 17.89C26 17.49 26.15 17.07 26.27 16.65C26.33 16.44 26.38 16.22 26.44 16.01C26.47 15.9 26.5 15.8 26.53 15.69C26.56 15.59 26.59 15.48 26.62 15.38C26.74 14.96 26.87 14.56 27.01 14.17C27.08 13.98 27.15 13.79 27.22 13.6C27.29 13.42 27.36 13.24 27.43 13.06C27.5 12.89 27.58 12.72 27.65 12.55C27.73 12.39 27.8 12.23 27.87 12.08C27.94 11.93 28.02 11.79 28.08 11.66C28.15 11.53 28.22 11.4 28.28 11.28V11.29Z" fill="#3E3E41"/>
<path d="M35.59 11.62L35.91 10.93L34.3 9.92999C34.3 9.92999 35.37 10.63 35.59 11.62Z" fill="#3E3E41"/>
<path d="M35.77 12.12C35.77 12.12 35.71 13.02 35.53 13.63L36.54 11.58C36.54 11.58 36.5 11.39 36.24 11.17L35.76 12.12H35.77Z" fill="#3E3E41"/>
<path d="M14.4801 45.46C14.3501 45.64 14.2001 45.84 14.0401 46.05C14.0001 46.1 13.9601 46.16 13.9201 46.22C13.8801 46.28 13.8401 46.34 13.8001 46.4C13.7201 46.52 13.6301 46.65 13.5501 46.77C13.3701 47.02 13.2001 47.3 13.0201 47.59C12.8401 47.87 12.6701 48.18 12.4901 48.48C12.3101 48.78 12.1401 49.1 11.9601 49.42C11.7901 49.74 11.6301 50.06 11.4601 50.37C11.3001 50.69 11.1501 51 11.0001 51.3C10.8601 51.6 10.7201 51.9 10.5901 52.18C10.4601 52.46 10.3501 52.73 10.2401 52.98C10.1301 53.23 10.0401 53.46 9.96008 53.66C9.88008 53.86 9.81008 54.04 9.75008 54.19C9.64008 54.48 9.58008 54.65 9.58008 54.65C9.58008 54.65 9.65008 54.48 9.77008 54.19C9.89008 53.9 10.0701 53.49 10.2901 53C10.4001 52.75 10.5201 52.49 10.6501 52.21C10.7801 51.93 10.9301 51.64 11.0701 51.34C11.2201 51.04 11.3801 50.73 11.5301 50.41C11.7001 50.1 11.8601 49.78 12.0301 49.46C12.2001 49.15 12.3701 48.83 12.5501 48.52C12.7301 48.21 12.9001 47.91 13.0801 47.63C13.2601 47.34 13.4201 47.06 13.5901 46.81C13.6701 46.68 13.7501 46.55 13.8301 46.43C13.8701 46.37 13.9101 46.31 13.9501 46.25C13.9901 46.19 14.0301 46.14 14.0701 46.08C14.2201 45.86 14.3601 45.66 14.4901 45.48C14.6201 45.3 14.7301 45.15 14.8301 45.02C15.0201 44.77 15.1201 44.62 15.1201 44.62C15.1201 44.62 15.0101 44.76 14.8101 45C14.7101 45.12 14.5901 45.27 14.4601 45.44L14.4801 45.46Z" fill="#3E3E41"/>
<path d="M11.98 48.98C11.86 49.19 11.73 49.42 11.6 49.64C11.53 49.75 11.48 49.87 11.42 49.99C11.36 50.11 11.31 50.22 11.26 50.33C11.15 50.55 11.06 50.76 10.98 50.93C10.9 51.11 10.83 51.26 10.79 51.36C10.75 51.46 10.72 51.52 10.72 51.52C10.72 51.52 10.75 51.46 10.81 51.37C10.87 51.27 10.95 51.13 11.04 50.96C11.13 50.79 11.24 50.59 11.36 50.37C11.42 50.26 11.47 50.15 11.53 50.04C11.59 49.93 11.64 49.81 11.71 49.7C11.84 49.47 11.96 49.25 12.08 49.03C12.2 48.82 12.3 48.61 12.39 48.44C12.48 48.27 12.55 48.12 12.6 48.02C12.65 47.92 12.68 47.86 12.68 47.86C12.68 47.86 12.64 47.91 12.58 48.01C12.52 48.11 12.43 48.24 12.33 48.41C12.23 48.58 12.11 48.77 11.99 48.98H11.98Z" fill="#3E3E41"/>
<path d="M9.59006 56.55L9.31006 57.25C9.50006 56.83 9.59006 56.55 9.59006 56.55Z" fill="#3E3E41"/>
<path d="M4.92004 61.53C4.92004 61.53 7.29005 60.99 8.08005 60.31L9.31004 57.26C8.78004 58.43 7.44004 60.75 4.92004 61.54V61.53Z" fill="#3E3E41"/>
<path d="M49.26 22.99C49.26 22.99 49.32 22.94 49.35 22.91C49.34 22.92 49.31 22.95 49.26 22.99Z" fill="#3E3E41"/>
<path d="M44.77 20.49L46.88 25.02C47.82 24.37 48.94 23.31 49.27 22.99C47.42 24.69 44.78 20.49 44.78 20.49H44.77Z" fill="#3E3E41"/>
<path d="M27.59 27.07L24.6 31.66L25.56 30.4L23.48 33.73C23.48 33.73 27.49 28.08 28.66 25.9L26.41 29.13L27.59 27.07Z" fill="#3E3E41"/>
<path d="M57.91 8.71997C57.81 8.56997 57.61 8.47 57.27 8.44C57.2 8.44 57.06 8.41997 56.85 8.40997C52.46 8.13997 48.75 7.47 45.82 6.44C45.79 6.43 42.66 5.40999 41.74 4.73999C40.79 4.03999 34.36 0.879971 32.74 0.219971C32.72 0.219971 32.7 0.200002 32.67 0.190002C32.55 0.140002 32.41 0.0799976 32.28 0.0599976C32.23 0.0599976 32.18 0.0599976 32.13 0.0599976C31.98 0.0699976 31.75 0.139973 31.58 0.409973C31.3 0.829973 28.17 5.93001 28.04 6.14001C28.03 6.16001 27.7 6.68002 28.02 7.40002C28.09 7.55002 28.25 7.71999 28.37 7.79999L29.19 8.38C26.49 11.8 25.57 16.05 25.5 16.38C25.35 16.78 22.54 24.15 18.38 30.07C14.59 35.45 9.41003 43.15 7.28003 47.14C5.59003 50.31 2.16002 55.66 0.870024 57.67C0.650024 58.01 0.490032 58.26 0.410032 58.39C-0.119967 59.23 0.350022 59.94 0.680022 60.21C2.39002 61.9 3.53003 62.08 3.59003 62.08C3.91003 62.11 4.26003 62.12 4.61003 62.08C6.72003 61.91 8.65002 60.69 8.73002 60.64L8.78003 60.61L8.81003 60.56C9.89003 58.47 10.74 54.91 10.81 54.64C12.35 50.15 15.4 45.95 19.62 40.14C21.28 37.86 23.16 35.27 25.16 32.36C31.56 23.06 36.06 13.72 36.78 12.21L37.93 12.75C38.04 12.8 38.21 12.83 38.36 12.82C38.4 12.82 38.44 12.82 38.47 12.8C38.55 12.78 38.63 12.77 38.7 12.76C39.27 12.71 39.51 13.05 39.52 13.06C39.53 13.08 40.75 14.9 42.06 16.75C43.35 18.58 44.31 20.82 44.33 20.85L46.54 25.57C46.62 25.73 46.77 25.83 46.95 25.81C47.02 25.81 47.09 25.78 47.15 25.74C48.47 24.86 55.22 19.89 57.96 9.01001C57.97 8.96001 57.99 8.85999 57.92 8.73999L57.91 8.71997ZM36.57 11.59L36.47 11.8C36.42 11.9 31.72 22.02 24.79 32.09C22.79 35 20.91 37.58 19.25 39.86C15.01 45.71 11.94 49.93 10.38 54.49V54.51C10.38 54.51 9.51003 58.19 8.44003 60.28C8.42003 60.29 8.39003 60.31 8.36003 60.33C8.40003 60.23 8.46003 60.11 8.52003 59.96C8.60003 59.78 8.69003 59.56 8.78003 59.33C8.87003 59.1 8.96003 58.85 9.06003 58.6C9.10003 58.47 9.15003 58.35 9.19003 58.22C9.23003 58.1 9.28003 57.97 9.31003 57.85C9.38003 57.61 9.45002 57.39 9.51002 57.2C9.61002 56.81 9.67003 56.55 9.67003 56.55C9.67003 56.55 9.60003 56.81 9.49003 57.19C9.43003 57.38 9.35003 57.6 9.27003 57.84C9.23003 57.96 9.18003 58.08 9.14003 58.2C9.09003 58.32 9.05003 58.45 9.00003 58.57C8.90003 58.82 8.80003 59.06 8.70003 59.29C8.60003 59.52 8.51002 59.73 8.43002 59.91C8.33002 60.13 8.25003 60.31 8.20003 60.41C7.61003 60.74 6.19003 61.45 4.70003 61.6C4.73003 61.56 4.76003 61.52 4.80003 61.46C4.91003 61.31 5.05003 61.11 5.19003 60.91C5.47003 60.51 5.74003 60.11 5.74003 60.11C5.74003 60.11 5.44003 60.49 5.14003 60.88C4.99003 61.07 4.84003 61.26 4.72003 61.4C4.64003 61.5 4.58003 61.57 4.55003 61.61C4.24003 61.63 3.93002 61.63 3.65002 61.61C3.65002 61.61 3.54004 61.59 3.35003 61.52C3.37003 61.49 3.40003 61.46 3.42003 61.43C3.55003 61.28 3.72002 61.05 3.93002 60.78C4.04002 60.65 4.15002 60.5 4.26002 60.34C4.38002 60.18 4.50003 60.02 4.63003 59.84C4.75003 59.66 4.88002 59.48 5.01002 59.3C5.14002 59.12 5.27003 58.93 5.39003 58.74C5.51003 58.55 5.64002 58.36 5.76002 58.17C5.88002 57.98 6.00003 57.79 6.10003 57.61C6.21003 57.43 6.31003 57.25 6.41003 57.08C6.46003 57 6.51003 56.91 6.55003 56.83C6.60003 56.75 6.63003 56.67 6.67003 56.59C6.98003 55.98 7.19003 55.58 7.19003 55.58C7.19003 55.58 6.98002 55.98 6.65002 56.58C6.61002 56.65 6.57003 56.73 6.52003 56.81C6.47003 56.89 6.42002 56.97 6.37002 57.05C6.27002 57.22 6.16003 57.39 6.05003 57.58C5.94003 57.76 5.83003 57.95 5.70003 58.14C5.58003 58.33 5.45004 58.52 5.32004 58.71C5.20004 58.9 5.06002 59.09 4.93002 59.27C4.80002 59.45 4.67003 59.63 4.55003 59.8C4.42003 59.97 4.30002 60.13 4.18002 60.29C4.06002 60.45 3.95003 60.59 3.84003 60.73C3.63003 61 3.45004 61.22 3.32004 61.37C3.28004 61.41 3.25003 61.45 3.22003 61.49C3.19003 61.48 3.16003 61.46 3.13003 61.45C3.19003 61.37 3.32002 61.21 3.48002 61.01C3.71002 60.71 4.03003 60.3 4.33003 59.89C4.48003 59.69 4.63003 59.48 4.77003 59.28C4.84003 59.18 4.91003 59.09 4.97003 59C5.03003 58.91 5.09003 58.82 5.14003 58.74C5.19003 58.66 5.24003 58.59 5.28003 58.52C5.32003 58.45 5.35003 58.39 5.38003 58.34C5.35003 58.39 5.32003 58.45 5.28003 58.51C5.24003 58.58 5.19003 58.65 5.13003 58.73C5.07003 58.81 5.02003 58.89 4.95003 58.98C4.89003 59.07 4.82003 59.16 4.75003 59.26C4.61003 59.45 4.45002 59.66 4.29002 59.86C3.98002 60.26 3.65003 60.66 3.41003 60.96C3.23003 61.18 3.09003 61.35 3.03003 61.41C2.57003 61.19 1.86003 60.74 0.990034 59.88L0.97003 59.86C0.97003 59.86 0.880032 59.78 0.800032 59.68L2.48002 56.99L0.730025 59.58C0.730025 59.58 0.680032 59.48 0.660032 59.41L3.65002 54.59L0.630034 59.25C0.610034 59.07 0.640022 58.87 0.790022 58.63C0.870022 58.5 1.03003 58.25 1.25003 57.91C2.54003 55.89 5.98002 50.54 7.68002 47.35C9.80002 43.37 14.96 35.69 18.75 30.32C23.05 24.22 25.9 16.59 25.93 16.51V16.47C25.93 16.47 26.66 12.92 28.79 9.70001C28.66 9.92001 28.51 10.14 28.38 10.38C28.31 10.5 28.24 10.62 28.17 10.75C28.1 10.88 28.04 11 27.97 11.13C27.83 11.39 27.71 11.66 27.58 11.92C27.45 12.19 27.34 12.46 27.22 12.73C27.11 13 27.01 13.27 26.91 13.53C26.81 13.79 26.73 14.05 26.65 14.29C26.56 14.53 26.5 14.76 26.44 14.97C26.38 15.18 26.31 15.38 26.28 15.55C26.24 15.73 26.2 15.88 26.17 16C26.11 16.25 26.07 16.4 26.07 16.4C26.07 16.4 26.11 16.26 26.17 16.01C26.2 15.88 26.24 15.73 26.29 15.56C26.33 15.38 26.4 15.19 26.46 14.98C26.53 14.77 26.59 14.54 26.68 14.3C26.77 14.06 26.85 13.81 26.95 13.55C27.06 13.29 27.16 13.03 27.27 12.76C27.39 12.5 27.51 12.22 27.64 11.96C27.77 11.7 27.9 11.43 28.04 11.18C28.11 11.05 28.18 10.93 28.25 10.8C28.32 10.68 28.39 10.56 28.46 10.44C28.6 10.2 28.75 9.98001 28.88 9.76001C29.02 9.55001 29.15 9.34998 29.28 9.16998C29.41 8.98998 29.53 8.82999 29.64 8.67999C29.75 8.53999 29.85 8.42001 29.93 8.32001C30.01 8.22001 30.08 8.14003 30.12 8.09003C30.17 8.04003 30.19 8.01001 30.19 8.01001C30.31 8.01001 30.54 8.05002 30.97 8.21002C30.95 8.23002 30.93 8.25999 30.9 8.29999C30.83 8.38999 30.73 8.51998 30.62 8.66998C30.5 8.81998 30.38 9.01001 30.24 9.20001C30.17 9.30001 30.1 9.40001 30.04 9.51001C29.97 9.62001 29.9 9.72002 29.83 9.83002C29.7 10.05 29.56 10.26 29.44 10.47C29.38 10.57 29.33 10.67 29.27 10.77C29.22 10.87 29.16 10.95 29.12 11.04C28.95 11.38 28.84 11.61 28.84 11.61C28.84 11.61 28.96 11.38 29.13 11.05C29.17 10.96 29.23 10.88 29.28 10.78C29.34 10.69 29.39 10.59 29.46 10.49C29.58 10.28 29.73 10.08 29.86 9.85999C29.93 9.74999 30.01 9.64999 30.08 9.54999C30.15 9.44999 30.22 9.35 30.29 9.25C30.43 9.06 30.56 8.87998 30.68 8.72998C30.8 8.57998 30.9 8.46 30.97 8.37C31.01 8.31999 31.04 8.28001 31.06 8.26001C31.6 8.47001 32.41 8.85999 33.64 9.54999C33.64 9.54999 33.74 9.59999 33.9 9.67999C33.76 9.92999 32.97 11.28 32.12 12.58C31.89 12.94 31.65 13.3 31.42 13.63C31.19 13.96 30.97 14.27 30.77 14.53C30.67 14.66 30.58 14.78 30.5 14.88C30.58 14.78 30.68 14.67 30.78 14.54C30.98 14.29 31.21 13.98 31.44 13.65C31.68 13.32 31.92 12.97 32.16 12.61C33.04 11.31 33.85 9.95998 33.99 9.72998C34.03 9.74998 34.07 9.76999 34.11 9.79999L32.51 12.43L34.21 9.85999C34.71 10.13 35.42 10.54 35.93 10.92L34.78 13.41L36.02 10.98C36.02 10.98 36.06 11.01 36.08 11.03L34.11 15.16L36.17 11.11C36.35 11.26 36.47 11.41 36.51 11.52C36.51 11.54 36.52 11.57 36.51 11.58L36.57 11.59ZM55.89 13.7L52.52 11.44L55.87 13.75C55.87 13.75 55.83 13.83 55.82 13.87L53.19 12.08L55.8 13.92C52.72 21.06 48.09 24.52 46.93 25.3L46.91 25.26C46.91 25.26 46.94 25.24 46.96 25.23C47.04 25.17 47.15 25.09 47.3 24.98C47.44 24.87 47.62 24.74 47.81 24.57C47.91 24.49 48.01 24.4 48.12 24.31C48.23 24.22 48.34 24.12 48.45 24.02C48.68 23.82 48.92 23.59 49.18 23.34C49.43 23.09 49.7 22.84 49.96 22.55C50.09 22.41 50.23 22.27 50.36 22.12C50.49 21.97 50.63 21.82 50.76 21.67C51.03 21.37 51.29 21.05 51.55 20.73C51.62 20.65 51.68 20.57 51.75 20.49L51.94 20.25C52.06 20.09 52.19 19.93 52.31 19.77C52.44 19.61 52.55 19.44 52.66 19.28C52.77 19.12 52.89 18.96 53 18.8C53.11 18.64 53.21 18.48 53.31 18.33C53.41 18.17 53.51 18.02 53.6 17.87C53.8 17.58 53.96 17.28 54.11 17.02C54.19 16.89 54.26 16.76 54.33 16.64C54.4 16.52 54.47 16.4 54.52 16.29C54.64 16.07 54.74 15.87 54.82 15.71C54.99 15.39 55.08 15.21 55.08 15.21C55.08 15.21 54.98 15.39 54.82 15.71C54.74 15.87 54.63 16.06 54.52 16.28C54.46 16.39 54.4 16.51 54.32 16.63C54.25 16.75 54.17 16.88 54.1 17.01C53.94 17.27 53.78 17.57 53.58 17.86C53.48 18.01 53.38 18.16 53.28 18.31C53.18 18.46 53.08 18.62 52.96 18.78C52.85 18.94 52.73 19.1 52.62 19.26C52.5 19.42 52.39 19.59 52.26 19.74C52.14 19.9 52.01 20.06 51.89 20.22L51.7 20.46C51.64 20.54 51.57 20.62 51.5 20.7C51.24 21.01 50.98 21.33 50.7 21.63C50.56 21.78 50.43 21.93 50.3 22.07C50.16 22.21 50.03 22.35 49.89 22.49C49.63 22.77 49.35 23.02 49.1 23.27C48.84 23.51 48.6 23.74 48.37 23.94C48.25 24.04 48.14 24.14 48.04 24.23C47.93 24.32 47.83 24.4 47.73 24.48C47.54 24.64 47.36 24.77 47.22 24.88C47.06 25 46.93 25.09 46.86 25.15L44.75 20.64C44.75 20.64 44.72 20.58 44.68 20.47L48.01 14.97L49.2 15.87L48.02 14.94L48.08 14.84L50.29 16.64L48.1 14.81L50.21 11.33L44.67 20.26C44.63 20.19 44.51 19.92 44.33 19.56C44.28 19.45 44.22 19.33 44.16 19.21C44.1 19.09 44.03 18.96 43.96 18.82C43.89 18.69 43.82 18.55 43.74 18.41C43.67 18.27 43.58 18.13 43.51 17.99C43.43 17.85 43.35 17.71 43.27 17.57C43.19 17.43 43.11 17.3 43.03 17.17C42.95 17.04 42.88 16.91 42.8 16.8C42.73 16.68 42.66 16.57 42.59 16.47C42.52 16.37 42.46 16.28 42.41 16.2C42.36 16.12 42.31 16.05 42.27 15.99C42.19 15.87 42.14 15.81 42.14 15.81C42.14 15.81 42.19 15.88 42.27 15.99C42.31 16.05 42.36 16.12 42.41 16.2C42.46 16.28 42.52 16.38 42.59 16.48C42.65 16.58 42.72 16.7 42.79 16.81C42.86 16.93 42.93 17.06 43.01 17.19C43.08 17.32 43.16 17.46 43.24 17.59C43.31 17.73 43.39 17.87 43.47 18.01C43.54 18.15 43.62 18.29 43.69 18.44C43.73 18.51 43.76 18.59 43.8 18.66C43.43 17.97 42.97 17.18 42.46 16.46C41.16 14.61 39.94 12.8 39.93 12.78C39.91 12.76 39.55 12.2 38.69 12.27C38.59 12.27 38.49 12.29 38.39 12.32C38.38 12.32 38.36 12.32 38.34 12.32C38.26 12.32 38.18 12.32 38.14 12.3L36.69 11.62C36.69 11.62 36.69 11.52 36.69 11.47C36.47 10.81 33.85 9.47999 33.74 9.42999C30.51 7.60999 30.07 7.85998 30.01 7.91998L29.79 8.19L28.66 7.40002C28.59 7.35002 28.49 7.25 28.47 7.19C28.37 6.97 28.36 6.79002 28.37 6.65002C28.37 6.65002 28.39 6.63 28.42 6.62C28.47 6.6 28.56 6.59001 28.69 6.64001C28.82 6.70001 29 6.77999 29.2 6.87C29.4 6.96 29.62 7.05999 29.86 7.17999C30.83 7.62999 32.11 8.25002 33.37 8.90002C34 9.22002 34.63 9.56001 35.22 9.88C35.51 10.04 35.79 10.2 36.06 10.35C36.33 10.5 36.58 10.65 36.8 10.78C36.91 10.85 37.02 10.91 37.13 10.98C37.23 11.04 37.33 11.11 37.42 11.16C37.6 11.27 37.77 11.37 37.89 11.46C38.15 11.63 38.3 11.73 38.3 11.73C38.3 11.73 38.15 11.63 37.9 11.45C37.77 11.36 37.61 11.26 37.43 11.14C37.34 11.08 37.24 11.02 37.14 10.95C37.04 10.89 36.93 10.82 36.81 10.75C36.58 10.61 36.34 10.46 36.07 10.3C35.81 10.14 35.53 9.98 35.24 9.81C34.66 9.48 34.04 9.12998 33.41 8.78998C32.16 8.10998 30.88 7.46999 29.93 6.98999C29.69 6.86999 29.47 6.75998 29.27 6.66998C29.07 6.56998 28.91 6.48999 28.76 6.42999C28.65 6.37999 28.54 6.37 28.44 6.38C28.44 6.38 28.44 6.35999 28.45 6.35999C28.48 6.30999 31.71 1.06001 31.98 0.640015C32.07 0.500015 32.16 0.49999 32.19 0.48999C32.21 0.48999 32.23 0.48999 32.24 0.48999C32.3 0.48999 32.42 0.550017 32.5 0.580017C32.53 0.590017 32.55 0.599985 32.58 0.609985C34.28 1.29999 40.62 4.45002 41.48 5.08002C42.46 5.79002 45.56 6.80003 45.68 6.84003C47.55 7.50003 49.73 8.00999 52.2 8.37L48.51 14.5L52.32 8.38C53.73 8.58 55.23 8.73002 56.82 8.83002C57.02 8.84002 57.16 8.84999 57.22 8.85999C57.26 8.85999 57.29 8.85999 57.32 8.87C57.3 8.95 57.28 9.07002 57.24 9.21002C57.22 9.28002 57.21 9.34999 57.19 9.42999C57.17 9.50999 57.15 9.58998 57.12 9.66998C57.07 9.83998 57.02 10.02 56.98 10.2C56.78 10.92 56.59 11.63 56.59 11.63C56.59 11.63 56.81 10.92 57.04 10.21C57.1 10.03 57.15 9.85 57.21 9.69C57.24 9.61 57.26 9.53001 57.29 9.45001C57.31 9.37001 57.33 9.29998 57.35 9.22998C57.39 9.07998 57.42 8.97001 57.44 8.89001C57.46 8.89001 57.48 8.89997 57.5 8.90997C57.06 10.64 56.51 12.22 55.91 13.66L55.89 13.7Z" fill="#3E3E41"/>
<path d="M38.43 11.59L32.89 8.35999L38.55 11.1C38.55 11.1 39.71 10.51 40.73 12.66C40.73 12.66 41.11 13.42 41.69 14.62C42.27 15.82 42.88 16.83 42.88 16.83C42.88 16.83 40.93 13.73 40.54 13.03C40.54 13.03 39.78 11.04 38.43 11.59Z" fill="#DB6E69"/>
</svg>
