<svg version="1.2" xmlns="http://www.w3.org/2000/svg" viewBox="0 0 70 39" width="70" height="39">
	<title>&lt;Group&gt;</title>
	<style>
		.s0 { fill: #edb389 } 
		.s1 { fill: #faccac } 
		.s2 { fill: #41b6ab } 
		.s3 { fill: #d78561 } 
		.s4 { fill: #eb5f47 } 
		.s5 { fill: #543028 } 
		.s6 { fill: #d2754d } 
		.s7 { fill: #078c7e } 
	</style>
	<g id="&lt;Group&gt;">
		<g id="&lt;Group&gt;">
			<path id="&lt;Path&gt;" class="s0" d="m9.4 23c-1 1.7-4.2 3.5-6.1 2.9-1.8-0.7-2.1-2.4-0.3-2.3-0.5-0.4-1-1.3 0.5-1.1-0.7-0.5-0.2-1.6 1.2-1 0.9-1.5 1.7-2.5 3.2-1.6 0.7 0.4 2.6 1.4 1.5 3.1z"/>
			<g id="&lt;Group&gt;">
				<path id="&lt;Path&gt;" class="s1" d="m39.6 30.9c-7.5 3.6-17.4 3.1-23-2.4 1.3-10.3 8.1-13.9 10.4-14 1.6 4.1 5.6 5 7.9 4.1 0 0 2 5.7 4.7 12.3z"/>
			</g>
			<path id="&lt;Path&gt;" class="s0" d="m34.9 18.6c0 0 2 5.7 4.7 12.3-7.5 3.6-17.4 3.1-23-2.4 0.9-7.2 4.5-11.1 7.3-12.8h3.6q0.1 0.1 0.1 0.1c-0.5 1.7-4.3 14.3-0.3 16.2 3.9 1.9 4.9-7.7 4.8-13.2 1 0.2 2 0.1 2.8-0.2z"/>
			<path id="&lt;Path&gt;" class="s2" d="m19.9 30.6c0 0-6.5-0.1-9.4-3-4.2-4.3-7.6-13.5 0.7-18.7 8-5 13-0.3 14.3 2.8 4.8 0.5 4.3 5.4 1.8 4.5-4.3 3.8-7.4 14.4-7.4 14.4z"/>
			<g id="&lt;Group&gt;">
				<path id="&lt;Path&gt;" class="s1" d="m18.3 18.3c2.6 1 10.3 10.7 3.9 16.4-7.7 7-15.1-4.8-15.1-4.8 0 0-4.8-1-5.4-1.9-1.6-0.5-2.2-1.5-0.3-1.6 0.8-1.1 2.2-0.8 3.4-1.8 1.2-0.9 0.5-2.1 2.4-2 2 0 1.8 2.1 1.8 2.1l1.5-0.5c0 0-1.3-9.3 7.8-5.9z"/>
			</g>
			<path id="&lt;Path&gt;" class="s0" d="m15.4 27.2c-1.7-2.4-4.2-2.9-4.9-3 0-0.1-0.1-0.5-0.1-1 0.9 0.2 4 0.6 5 4z"/>
			<g id="&lt;Group&gt;">
				<g id="&lt;Group&gt;">
					<g id="&lt;Group&gt;">
						<g id="&lt;Group&gt;">
							<path id="&lt;Path&gt;" class="s1" d="m66.6 8c5.5 8.1 2.6 19.6-5.8 25.3-8.5 5.6-19.2 4.9-24.6-3.3-5.5-8.1-3.7-20.9 4.8-26.5 8.4-5.7 20.2-3.7 25.6 4.5z"/>
						</g>
						<g id="&lt;Group&gt;">
							<path id="&lt;Path&gt;" class="s0" d="m36.2 30c-1-1.5-4.8-2.4-5.4-4.2 0.4 0.1 1.2-1.1 4.2-0.3 2.6 0.6 4.9 4.7 6 6.1 1.1 1.4 10.6 1.8 12 4.8q0 0.1 0 0.2c-6.5 1.3-13-0.8-16.8-6.6z"/>
						</g>
						<g id="&lt;Group&gt;">
							<g id="&lt;Group&gt;">
								<g id="&lt;Group&gt;">
									<path id="&lt;Path&gt;" class="s1" d="m38.7 7.3c-1.8 0.1-3.4-2.4-2.4-4.7 1-2.3 4.5-3.2 5.6-0.8 1.1 2.2-0.5 3.6-0.5 3.6z"/>
								</g>
								<path id="&lt;Path&gt;" class="s3" d="m40.9 1.8c1.2 1.3-0.7 4.1-3.2 2.9 2.3-0.3 2.4-1.4 0.9-1.9 0.6-0.4 1.2-0.3 1.7 0.7 0.8-0.6 0.6-1.7 0.6-1.7z"/>
							</g>
						</g>
						<g id="&lt;Group&gt;">
							<path id="&lt;Path&gt;" class="s4" d="m51.5 22.4c-1 0.4-1.5 3.3-2.9 2.7-0.9-0.4-1.1-1.8 0.4-2.2 0.9-0.3 2.5-0.5 2.5-0.5z"/>
							<g id="&lt;Group&gt;">
								<path id="&lt;Path&gt;" class="s4" d="m43 19.6c-0.8 0.6-2.4-0.2-3.4-1.8-1.1-1.5-1.3-3.3-0.5-3.8 0.9-0.6 2.4 0.2 3.5 1.8 1.1 1.5 1.3 3.3 0.4 3.8z"/>
								<path id="&lt;Path&gt;" class="s4" d="m53.6 34.9c-0.8 0.6-2.4-0.2-3.5-1.8-1-1.6-1.2-3.3-0.4-3.9 0.9-0.5 2.4 0.3 3.5 1.8 1 1.6 1.2 3.3 0.4 3.9z"/>
							</g>
							<path id="&lt;Path&gt;" class="s5" d="m61.9 26.1c-0.1-0.1-0.2-1.3-0.8-2.5-0.6-1 1.4-1.6 1.8 0.2 0.2 1.1-0.6 2.5-1 2.3z"/>
							<path id="&lt;Path&gt;" class="s5" d="m52.8 10.1c1.4 1.3-0.1 2.7-0.8 1.6-0.7-1.1-1.6-1.7-1.6-1.9 0-0.5 1.6-0.4 2.4 0.3z"/>
							<g id="&lt;Group&gt;">
								<g id="&lt;Group&gt;">
									<path id="&lt;Path&gt;" class="s5" d="m58 30.5c0 0-3.8-0.4-4.1-4.4-1.1 4.9 4.1 4.4 4.1 4.4z"/>
								</g>
								<g id="&lt;Group&gt;">
									<path id="&lt;Path&gt;" class="s6" d="m46.8 28.9c0 0-3.8-0.6-3.8-4.6-1.4 4.8 3.8 4.6 3.8 4.6z"/>
								</g>
								<g id="&lt;Group&gt;">
									<path id="&lt;Path&gt;" class="s5" d="m45.6 12.8c0 0-0.9 3.8 2.7 5.4-4.9-0.7-2.7-5.4-2.7-5.4z"/>
								</g>
							</g>
						</g>
					</g>
				</g>
				<path id="&lt;Compound Path&gt;" fill-rule="evenodd" class="s5" d="m67.2 19.9c-0.9-0.2-1.7-0.8-2.1-1.6q-0.1-0.1-0.1-0.3-0.6-0.1-1-0.6c-0.8-0.9-1.1-2.3-1-3.5-0.7-0.1-1.6-0.5-2.5-1.7-0.1-0.1-0.1-0.2 0-0.3 0.1-0.1 0.2-0.1 0.3 0 0.9 1 1.6 1.4 2.2 1.6q0 0 0.1 0 0-0.5 0.2-0.8c0.2-0.8 0.7-1.3 1.4-1.4 0.7-0.1 1 0.3 1 0.4 0.2 0.6-0.2 1.5-1 1.9-0.3 0.2-0.7 0.3-1.2 0.3-0.1 1.2 0.2 2.5 0.8 3.2q0.3 0.3 0.6 0.4c0-0.5 0.3-1 0.9-1.3 0.7-0.5 1.5-0.6 1.9-0.2 0.3 0.1 0.4 0.4 0.3 0.7-0.1 0.6-0.8 1-2 1.3q-0.3 0.1-0.5 0.1 0 0 0 0c0.4 0.9 1.6 1.7 2.7 1.3 0.1-0.1 0.2 0 0.2 0.1 0.1 0.1 0 0.3-0.1 0.3q-0.6 0.2-1.1 0.1zm0-3.7c-0.2 0-0.7 0-1.2 0.3-0.5 0.4-0.7 0.8-0.6 1.1q0.2 0 0.5 0c1.2-0.3 1.6-0.7 1.7-1q0-0.2-0.1-0.3-0.1 0-0.3-0.1zm-2.1-4.5q-0.2 0-0.4 0c-0.6 0.1-0.9 0.7-1 1.1q-0.1 0.3-0.2 0.7c0.4 0 0.8-0.2 1-0.3 0.6-0.4 0.9-1 0.8-1.3q-0.1-0.2-0.2-0.2z"/>
			</g>
			<g id="&lt;Group&gt;">
				<path id="&lt;Path&gt;" class="s1" d="m35 26.2c2.1 1.1 4.6 4.9 5.5 6.1 1 1.3 10.2 1.3 11.4 3.9 1.2 2.7-1.8 1.6-6.7 2.4-4.9 0.7-14.1-0.3-15.8-9.5 0.6-3.2 2.6-4.6 5.6-2.9z"/>
			</g>
			<path id="&lt;Path&gt;" class="s7" d="m25.5 11.7c0 0-1.4 0.8-2.9 4 0.2-3 2.4-5.2 2.4-5.2z"/>
			<path id="&lt;Path&gt;" class="s7" d="m9.6 18.9c8-8 13.9 2.8 13.9 2.8-0.8-5.2-8.7-11.1-13.9-2.8z"/>
		</g>
	</g>
</svg>