<?xml version="1.0" encoding="UTF-8" standalone="no"?>
<!-- Created with Inkscape (http://www.inkscape.org/) -->

<svg
   version="1.1"
   id="svg9"
   width="67.163025"
   height="84.678474"
   viewBox="0 0 67.163027 84.678474"
   sodipodi:docname="3-6_years_abc_page_1024x720.ai"
   xmlns:inkscape="http://www.inkscape.org/namespaces/inkscape"
   xmlns:sodipodi="http://sodipodi.sourceforge.net/DTD/sodipodi-0.dtd"
   xmlns="http://www.w3.org/2000/svg"
   xmlns:svg="http://www.w3.org/2000/svg">
  <defs
     id="defs13">
    <clipPath
       clipPathUnits="userSpaceOnUse"
       id="clipPath6187">
      <path
         d="M 0,720 H 1024 V 0 H 0 Z"
         id="path6185" />
    </clipPath>
    <clipPath
       clipPathUnits="userSpaceOnUse"
       id="clipPath6215">
      <path
         d="m 765.262,401.71 h 90.867 V 271.357 h -90.867 z"
         id="path6213" />
    </clipPath>
  </defs>
  <sodipodi:namedview
     id="namedview11"
     pagecolor="#ffffff"
     bordercolor="#000000"
     borderopacity="0.25"
     inkscape:showpageshadow="2"
     inkscape:pageopacity="0.0"
     inkscape:pagecheckerboard="0"
     inkscape:deskcolor="#d1d1d1"
     showgrid="false"
     inkscape:zoom="0.91259771"
     inkscape:cx="459.12892"
     inkscape:cy="493.64577"
     inkscape:window-width="2155"
     inkscape:window-height="1205"
     inkscape:window-x="0"
     inkscape:window-y="25"
     inkscape:window-maximized="0"
     inkscape:current-layer="g15" />
  <g
     id="g15"
     inkscape:groupmode="layer"
     inkscape:label="3-6_years_abc_page_1024x720"
     transform="matrix(1.3333333,0,0,-1.3333333,-458.41655,886.99346)">
    <g
       id="g6181"
       transform="translate(-341.05938,142.17656)"
       style="display:inline">
      <g
         id="g6183"
         clip-path="url(#clipPath6187)"
         style="display:inline">
        <g
           id="g6189"
           transform="translate(701.1318,495.5036)">
          <path
             d="M 0,0 C 2.861,-0.91 16.778,-11.376 19,-13.259 14.027,-12.43 1.098,-34.004 1.098,-34.004 c 0,0 -14.86,8.226 -17.358,18.418 C -9.165,-8.499 -5.159,1.643 0,0"
             style="fill:#73378c;fill-opacity:1;fill-rule:nonzero;stroke:none"
             id="path6191" />
        </g>
        <g
           id="g6193"
           transform="translate(701.6509,495.6646)">
          <path
             d="M 0,0 C 2.86,-0.91 16.788,-11.522 19.012,-13.404 16.359,-11.32 2.451,-25.898 2.451,-25.898 c 0,0 -14.297,6.409 -16.794,16.602 C -8.862,-2.151 -5.159,1.643 0,0"
             style="fill:#a26baa;fill-opacity:1;fill-rule:nonzero;stroke:none"
             id="path6195" />
        </g>
        <g
           id="g6197"
           transform="translate(702.2302,461.4997)">
          <path
             d="M 0,0 C 0,0 5.641,1.117 7.961,-1.94 16.257,8.494 20.185,19.646 17.902,20.745 11.731,23.719 0,0 0,0"
             style="fill:#58257f;fill-opacity:1;fill-rule:nonzero;stroke:none"
             id="path6199" />
        </g>
        <g
           id="g6201"
           transform="translate(694.7939,480.534)">
          <path
             d="m 0,0 c -1.019,-0.956 -3.19,-3.472 -3.565,-4.592 -0.377,-1.125 2.161,-3.205 3.258,-2.054 1.099,1.154 3.226,4.169 3.433,4.85 C 3.334,-1.114 1.084,1.014 0,0"
             style="fill:#c09bc8;fill-opacity:1;fill-rule:nonzero;stroke:none"
             id="path6203" />
        </g>
        <g
           id="g6205"
           transform="translate(718.8354,479.8603)">
          <path
             d="M 0,0 C 0,0 24.544,32.443 11.564,40.821 -1.416,49.199 -20.902,15.648 -20.902,15.648"
             style="fill:none;stroke:#a26baa;stroke-width:2.126;stroke-linecap:round;stroke-linejoin:round;stroke-miterlimit:10;stroke-dasharray:none;stroke-opacity:1"
             id="path6207" />
        </g>
        <g
           id="g6209"
           style="display:none">
          <g
             id="g6211" />
          <g
             id="g6227">
            <g
               clip-path="url(#clipPath6215)"
               opacity="0.5"
               id="g6225">
              <g
                 transform="translate(847.4563,271.7553)"
                 id="g6219">
                <path
                   d="m 0,0 h -73.522 c -4.551,0 -8.274,3.724 -8.274,8.275 v 113.007 c 0,4.551 3.723,8.274 8.274,8.274 H 0 c 4.551,0 8.275,-3.723 8.275,-8.274 V 8.275 C 8.275,3.724 4.551,0 0,0"
                   style="fill:#ffffff;fill-opacity:1;fill-rule:nonzero;stroke:none"
                   id="path6217" />
              </g>
              <g
                 transform="translate(847.4563,271.7553)"
                 id="g6223">
                <path
                   d="m 0,0 h -73.522 c -4.551,0 -8.274,3.724 -8.274,8.275 v 113.007 c 0,4.551 3.723,8.274 8.274,8.274 H 0 c 4.551,0 8.275,-3.723 8.275,-8.274 V 8.275 C 8.275,3.724 4.551,0 0,0 Z"
                   style="fill:none;stroke:#286fb5;stroke-width:0.796;stroke-linecap:butt;stroke-linejoin:miter;stroke-miterlimit:10;stroke-dasharray:none;stroke-opacity:1"
                   id="path6221" />
              </g>
            </g>
          </g>
        </g>
      </g>
    </g>
  </g>
</svg>
