<svg width="59" height="58" viewBox="0 0 59 58" fill="none" xmlns="http://www.w3.org/2000/svg">
<mask id="mask0_30_224" style="mask-type:luminance" maskUnits="userSpaceOnUse" x="0" y="0" width="59" height="58">
<path d="M29.7999 57.75C45.7389 57.75 58.6599 44.829 58.6599 28.89C58.6599 12.9511 45.7389 0.0300293 29.7999 0.0300293C13.861 0.0300293 0.939941 12.9511 0.939941 28.89C0.939941 44.829 13.861 57.75 29.7999 57.75Z" fill="white"/>
</mask>
<g mask="url(#mask0_30_224)">
<path d="M60.8399 -0.73999H-26.9001V57.75H60.8399V-0.73999Z" fill="url(#paint0_linear_30_224)"/>
<mask id="mask1_30_224" style="mask-type:luminance" maskUnits="userSpaceOnUse" x="-27" y="-1" width="88" height="42">
<path d="M60.8399 -0.73999H-26.9001V40.27H60.8399V-0.73999Z" fill="white"/>
</mask>
<g mask="url(#mask1_30_224)">
<path d="M14.6097 34.66C14.6097 34.66 11.1697 34.66 8.98974 34.48C6.81974 34.3 6.44974 32.85 5.72974 33.39C5.00974 33.93 4.27974 34.84 3.37974 34.66C2.47974 34.48 1.56974 33.94 0.839737 34.3C0.119738 34.66 -1.51026 34.66 -1.51026 34.66C-1.51026 34.66 -3.68026 31.22 -4.77026 31.94C-5.86026 32.66 -5.86026 33.5701 -5.86026 33.5701C-5.86026 33.5701 -5.14026 31.76 -8.03026 30.85C-10.9303 29.94 -13.6503 31.76 -13.6503 31.76C-13.6503 31.76 -15.1003 30.13 -17.2703 29.77C-19.4403 29.41 -24.1503 34.84 -23.7903 33.94C-23.4303 33.03 -24.1503 31.59 -25.2403 32.49C-26.3303 33.4 -29.0403 36.47 -29.4103 37.2C-29.7703 37.92 -29.7703 39.37 -29.7703 39.37L15.3297 35.75L14.6097 34.66Z" fill="#FAEFF9"/>
<g style="mix-blend-mode:screen" opacity="0.24">
<path d="M54.0997 11.47C54.0997 11.47 49.7497 12.38 41.7797 12.01C33.8097 11.65 35.0797 12.19 31.0897 11.83C27.1097 11.47 26.1997 10.92 22.5797 10.38C20.2397 10.03 19.2597 9.75002 18.1697 9.50002C17.5797 9.36002 16.9497 9.24002 16.0597 9.11002C13.5197 8.75002 16.7797 9.83002 22.7597 11.1C28.7397 12.37 27.4697 12.91 30.9097 13.27C34.3497 13.63 33.6297 13.09 34.8897 13.09C36.1497 13.09 37.2397 15.63 40.8697 15.26C44.4897 14.9 43.4097 13.99 44.6697 13.63C45.9397 13.27 51.7297 17.98 54.0897 15.98C56.4397 13.99 57.8897 14.89 59.5197 14.17C61.1497 13.45 68.3997 11.27 67.4897 10.19C66.5797 9.10002 54.0897 11.46 54.0897 11.46L54.0997 11.47Z" fill="#FAEFF9"/>
</g>
<g style="mix-blend-mode:screen" opacity="0.24">
<path d="M18.8197 21.93C19.2297 22.07 31.7297 22.8801 31.5897 22.4701C30.9097 21.93 23.5697 21.1101 22.8997 20.9801C22.2197 20.8401 25.6197 21.2501 25.7497 20.4401C25.8897 19.6201 20.4497 18.95 17.5997 18.81C17.5997 18.81 18.5497 18.4 18.0097 16.77C17.4697 15.14 15.6997 16.3601 15.6997 16.3601C15.6997 16.3601 16.3797 12.69 13.5297 10.11C10.6797 7.53005 7.81973 10.93 7.81973 10.93C7.81973 10.93 7.67973 7.53005 2.65973 5.90005C-2.37027 4.27005 -6.99027 9.57005 -6.99027 9.57005C-6.99027 9.57005 -7.26027 3.32005 -12.2903 2.91005C-17.3203 2.50005 -18.1303 3.05005 -19.4903 3.18005C-20.8503 3.32005 -17.4503 2.50005 -17.8603 1.55005C-18.2703 0.600052 -20.9803 1.69005 -21.5303 1.55005C-22.0703 1.41005 -26.9603 -1.70995 -28.3203 -1.56995C-29.6803 -1.42995 -30.3603 19.49 -30.2203 20.57C-30.0803 21.65 -8.35027 21.79 -5.77027 20.71C-3.19027 19.62 -6.99027 16.77 -5.50027 16.77C-4.01027 16.77 2.64973 20.85 5.90973 22.88C9.16973 24.92 15.8297 29.94 15.9597 28.59C16.0897 27.24 11.8797 24.24 11.8797 24.24C11.8797 24.24 21.6597 28.7201 21.7997 28.0401C21.9397 27.3601 13.6497 23.0101 13.6497 23.0101C13.6497 23.0101 17.7297 23.1501 18.2697 23.0101C18.8097 22.8701 18.8097 21.92 18.8097 21.92L18.8197 21.93Z" fill="#FAEFF9"/>
</g>
<g style="mix-blend-mode:screen" opacity="0.24">
<path d="M-2.78018 -1.02997C-2.78018 -1.02997 5.36982 3.86002 9.35982 3.14002C13.3398 2.42002 11.5298 1.87002 17.3298 3.14002C23.1298 4.41002 21.6798 4.05002 26.7498 4.59002C31.8198 5.13002 31.6398 5.50002 34.8998 5.31002C38.1598 5.13002 34.3598 4.95003 30.7298 4.04003C27.1098 3.13003 25.2998 3.32002 22.0398 2.77002C18.7798 2.23002 17.6898 1.50002 15.8798 1.32002C14.0698 1.14002 12.0798 2.41002 11.3498 1.50002C10.6298 0.590025 9.53982 -0.129972 8.26982 0.410028C6.99982 0.950028 7.17982 -0.129977 3.37982 -1.57998C-0.420179 -3.02998 -3.68018 -1.57998 -2.78018 -1.03998V-1.02997Z" fill="#FAEFF9"/>
</g>
<path d="M17.6797 25.78C17.6797 25.78 21.4697 26.44 20.9797 26.03C20.4897 25.62 18.8097 26.13 17.7297 25.23C16.6497 24.33 16.3997 22.62 15.7097 23.05C15.0197 23.48 15.1697 24.1 15.1697 24.1C15.1697 24.1 14.1697 22.1 13.7097 22.05C13.2497 22 13.3597 23.17 12.6097 22.97C11.8597 22.76 11.6097 17.88 9.80967 17.13C8.01967 16.38 6.97967 18.02 6.66967 17.59C6.35967 17.16 8.42967 11.93 5.08967 11.14C3.05967 11.32 2.52967 11.51 2.52967 11.51C2.52967 11.51 0.609669 8.41001 -2.86033 6.13001C-6.34033 3.85001 -11.8203 14.17 -11.8203 14.17C-11.8203 14.17 -12.5903 10.15 -17.1703 10.83C-21.7503 11.51 -20.9703 18.67 -20.9703 18.67C-20.9703 18.67 -22.0103 16.17 -23.2603 16.01C-24.5003 15.85 -24.9403 18.62 -26.0703 18.17C-27.2003 17.72 -27.5903 16.4 -28.3703 16.88C-29.1503 17.36 -29.4803 16.71 -31.5703 16.21C-33.6603 15.72 -30.4403 16.65 -29.6903 17.4C-28.9403 18.15 -25.6403 24.54 -18.1603 25.77C-11.1103 26.77 -14.5003 22.44 -14.5003 22.44C-14.5003 22.44 -13.6303 24.54 -6.78033 24.88C0.0696716 25.22 -2.24033 22.29 0.389671 22.73C3.01967 23.18 7.28967 23.61 8.48967 24.87C8.48967 24.87 13.1697 27.36 16.2897 27.62C18.6697 27.77 15.7797 26.03 15.7797 26.03L17.6697 25.77L17.6797 25.78Z" fill="#FAEFF9"/>
<path d="M-29.6703 17.4C-28.9203 18.15 -25.6203 24.54 -18.1403 25.77C-12.2003 26.62 -13.6803 23.67 -14.2903 22.72C-13.7803 23.31 -12.0503 24.62 -6.77026 24.88C0.0797348 25.22 -2.23026 22.29 0.399738 22.73C3.02974 23.17 7.29974 23.61 8.49974 24.87C8.49974 24.87 13.1797 27.36 16.2997 27.62C18.4497 27.76 16.2997 26.34 15.8597 26.07C15.9397 26.23 16.0097 26.39 15.9597 26.53C15.8197 26.94 14.8697 26.12 14.3297 25.04C13.7897 23.95 13.2397 26.13 11.8797 24.9C10.5197 23.68 9.56974 19.74 8.61974 19.06C7.66973 18.38 4.53974 20.83 4.53974 20.83C4.53974 20.83 5.89974 15.8 5.07974 14.58C4.25974 13.36 2.35974 15.4 1.81974 16.48C1.27974 17.57 -2.26026 10.1 -4.84026 11.59C-7.42026 13.08 -8.37026 18.52 -8.37026 18.52C-8.37026 18.52 -9.59026 16.62 -10.4103 16.48C-11.2303 16.34 -11.6303 19.6 -11.6303 19.6C-11.6303 19.6 -13.8003 14.44 -16.9303 14.85C-20.0503 15.26 -19.5103 20.15 -20.0503 21.64C-20.5903 23.13 -21.6803 19.6 -22.7703 19.19C-23.8603 18.78 -22.0903 21.77 -22.2303 22.59C-22.3703 23.41 -26.5803 20.42 -27.9403 18.38C-28.4203 17.66 -29.0103 17.18 -29.5703 16.86C-30.0003 16.69 -30.6003 16.43 -31.5803 16.19L-32.2703 16.06C-32.2403 16.14 -30.2603 16.82 -29.7003 17.38L-29.6703 17.4Z" fill="#F1E0F7"/>
<path d="M20.9797 26.03C20.5097 25.64 18.9597 26.09 17.8797 25.35C17.0397 25.39 16.3497 25.43 16.1097 25.47C15.6197 25.55 15.7197 25.78 15.8497 26.04L17.6897 25.79C17.6897 25.79 21.4797 26.45 20.9897 26.04L20.9797 26.03Z" fill="#F1E0F7"/>
<path d="M23.7097 25.74C23.7097 25.74 26.5597 25.88 29.5497 26.01C31.9997 26.42 26.6997 27.1 24.3897 26.69C22.0797 26.28 23.7097 25.74 23.7097 25.74Z" fill="#FAEFF9"/>
<path d="M-4.14035 30.35C-4.14035 30.35 1.83965 31.03 3.46965 30.49C5.09965 29.95 4.00965 30.22 6.45965 30.22C8.90965 30.22 7.81965 29.81 10.1297 29.95C12.4396 30.09 14.2097 30.9 15.0196 30.22C15.8396 29.54 14.7496 29.95 13.5296 29.81C12.3096 29.67 12.0396 29.27 11.2197 29.13C10.3997 28.99 10.3996 28.45 8.90965 27.77C7.41965 27.09 7.68965 28.59 7.27965 28.31C6.86965 28.04 6.45965 26.54 4.69965 26.82C2.92965 27.09 2.24965 28.59 2.24965 28.59C2.24965 28.59 1.42965 27.37 0.759647 27.64C0.0796475 27.91 0.0796509 28.46 0.0796509 28.46C0.0796509 28.46 -1.01035 26.15 -1.69035 26.83C-2.37035 27.51 -0.870353 29.14 -1.83035 29.14C-2.79035 29.14 -3.05035 29 -3.19035 29.41C-3.33035 29.82 -5.36035 29.27 -5.36035 29.68C-5.36035 30.09 -4.14035 30.36 -4.14035 30.36V30.35Z" fill="#FAEFF9"/>
<path d="M10.1297 29.95C12.2497 30.07 13.9197 30.77 14.7997 30.36C13.8897 30.2 12.4197 29.95 11.5297 29.77C10.1697 29.5 9.89966 29.05 8.98966 28.59C8.07966 28.14 8.16966 29.13 7.71966 29.22C7.26966 29.31 6.71966 28.5 5.36966 27.95C4.00966 27.41 3.28966 29.13 2.73966 28.95C2.19966 28.77 1.28966 29.58 1.28966 29.58C1.28966 29.58 0.659657 29.13 -0.250343 28.95C-1.16034 28.77 -0.700344 29.95 -1.52034 29.77C-2.34034 29.59 -2.61034 29.68 -3.15034 29.95C-3.50034 30.13 -4.61034 29.92 -5.35034 29.76C-5.21034 30.12 -4.14034 30.36 -4.14034 30.36C-4.14034 30.36 1.83966 31.04 3.46966 30.5C5.09966 29.96 4.00966 30.23 6.45966 30.23C8.90966 30.23 7.81966 29.82 10.1297 29.96V29.95Z" fill="#F1E0F7"/>
<path d="M33.4497 25.42C33.4497 25.42 35.4397 25.24 36.7097 24.7C37.9797 24.16 36.8897 22.71 38.3397 22.53C39.7897 22.35 40.6897 22.53 40.6897 22.53C40.6897 22.53 39.5997 18.73 42.1397 18.36C44.6797 18 45.2197 21.62 46.4897 20.71C47.7597 19.8 48.2997 17.45 49.2097 17.63C50.1197 17.81 48.2997 9.12002 54.2797 6.22002C57.7197 5.13002 58.9897 11.65 60.4397 10.02C61.8897 8.39001 64.0597 4.40002 65.6897 7.48002C67.3197 10.56 72.5697 17.62 67.8597 21.43C63.1497 25.23 56.2697 25.96 54.2797 24.69C52.8297 23.06 54.0997 21.79 54.0997 21.79C54.0997 21.79 50.2997 27.04 46.8497 26.68C43.4097 26.32 43.5897 23.6 43.0497 24.51C42.5097 25.42 42.3297 28.13 41.5997 26.86C40.8797 25.59 40.3297 25.23 40.3297 25.23C40.3297 25.23 40.5097 26.86 37.6097 26.86C34.7097 26.86 35.9797 25.41 35.0697 25.95C34.1597 26.49 32.1697 26.13 31.8097 25.59C31.4497 25.05 33.4397 25.41 33.4397 25.41L33.4497 25.42Z" fill="#FAEFF9"/>
<path d="M67.8596 21.43C69.6696 19.97 70.0096 18.02 69.6396 16.01C69.2496 16.92 68.9396 17.71 68.8096 18.13C68.1296 20.17 66.7696 16.77 63.6496 13.51C60.5296 10.25 59.1696 16.91 59.1696 17.59C59.1696 18.27 56.5896 9.71001 52.9196 12.7C49.2496 15.69 52.0996 21.26 51.8296 22.35C51.5596 23.44 50.8796 21.53 50.4696 20.18C50.0596 18.82 49.6496 23.71 48.2996 24.93C46.9496 26.15 44.4996 21.4 43.2696 21.26C42.0496 21.12 41.9096 23.98 41.4996 24.79C41.0896 25.6 40.4096 23.97 39.5996 23.7C38.7796 23.43 39.1896 25.19 38.5096 26.15C37.8296 27.1 37.0196 25.74 35.6596 25.61C34.1696 26.29 31.8096 25.61 31.8096 25.61C32.1696 26.15 34.1596 26.52 35.0696 25.97C35.9796 25.43 34.7096 26.88 37.6096 26.88C40.5096 26.88 40.3296 25.25 40.3296 25.25C40.3296 25.25 40.8696 25.61 41.5996 26.88C42.3196 28.15 42.5096 25.43 43.0496 24.53C43.5896 23.62 43.4096 26.34 46.8496 26.7C49.8196 27.01 53.0496 23.15 53.8896 22.08C53.5996 22.54 53.2296 23.53 54.2796 24.71C56.2696 25.98 63.1596 25.25 67.8596 21.45V21.43Z" fill="#F1E0F7"/>
</g>
<path d="M22.0398 33.75C22.0398 33.75 27.1098 31.4 28.9198 31.4C30.7298 31.4 33.8098 29.77 34.8998 29.95C35.9898 30.13 40.1498 31.04 41.7798 31.04C43.4098 31.04 45.0398 30.32 45.7598 30.32C46.4798 30.32 48.2998 29.78 49.7398 29.78C51.1798 29.78 52.6398 28.69 53.3598 28.87C54.0798 29.05 58.9798 31.59 58.9798 31.59L22.0298 33.76L22.0398 33.75Z" fill="#A8CFCF"/>
<path d="M8.26978 35.38C8.26978 35.38 29.2798 32.84 36.7098 32.3C44.1398 31.76 60.7998 30.85 60.7998 30.85V33.87L8.26978 35.38Z" fill="url(#paint1_linear_30_224)"/>
<path d="M-26.9001 55.74L60.8399 37.55V32.17L-26.9001 37.33V55.74Z" fill="url(#paint2_linear_30_224)"/>
<g style="mix-blend-mode:screen" opacity="0.31">
<path d="M54.4199 32.55L22.1599 34.45C24.5199 34.46 26.4199 34.56 26.0199 34.84C25.0699 35.52 17.9999 35.66 20.8599 36.2C23.7099 36.74 33.3599 34.98 32.9499 35.79C32.5399 36.61 18.4099 41.22 23.1699 40.54C27.9199 39.86 57.1299 37.28 55.7699 35.92C54.4099 34.56 42.8599 35.38 40.4199 34.43C38.3699 33.63 49.4499 34.08 54.4199 32.55Z" fill="#E1F4E1"/>
</g>
<g style="mix-blend-mode:screen" opacity="0.2">
<path d="M-26.9001 39.16V43.93C-21.4901 43.02 -6.68015 40.5 -5.50015 39.91C-4.05015 39.19 -10.2101 39.55 -10.2101 39.19C-10.2101 38.83 16.5998 36.29 18.0499 35.93C19.2899 35.62 -16.6601 38.37 -26.9001 39.16Z" fill="#E1F4E1"/>
</g>
<path d="M-26.9001 51.91L60.8399 36.49V32.73C58.5599 33.08 54.3999 33.73 52.1099 34.11C48.8499 34.65 45.8899 35.26 37.1999 36.34C28.5099 37.43 30.3799 37.37 16.2499 39.36C2.11985 41.35 3.20985 40.99 -6.57015 42.08C-16.3501 43.17 -13.2701 43.89 -18.5201 44.43C-21.6901 44.76 -24.8701 44.89 -26.8801 44.94V51.9L-26.9001 51.91Z" fill="#E1F4E1"/>
<path d="M-26.9001 57.75H60.8399V33.25L-26.9001 47.05V57.75Z" fill="url(#paint3_linear_30_224)"/>
<path d="M60.8399 33.25L-26.9001 47.05V57.74H-3.94015C-3.94015 57.74 -3.89015 57.68 -3.86015 57.65C-1.87015 54.93 -7.84015 54.75 -8.57015 53.67C-9.29015 52.58 -6.22014 52.76 -6.76015 50.23C-7.30015 47.69 -10.7401 46.61 -5.31015 46.25C0.119852 45.89 1.93985 46.97 6.45985 44.26C10.9899 41.54 6.63985 42.45 14.7899 41.36C22.9399 40.27 28.4199 42.36 32.9499 40.54C37.4799 38.73 33.4499 38.64 36.7099 37.73C39.9699 36.82 45.9499 37.01 48.6599 36.1C51.3699 35.19 51.0099 35.92 53.7299 35.01C56.4499 34.1 58.7999 33.92 59.3499 33.92C59.5599 33.92 60.1699 33.89 60.8399 33.86V33.24V33.25Z" fill="#FFD486"/>
<path d="M60.8399 57.75V37.17C60.4699 37.5 59.8499 37.83 58.8099 37.92C56.6399 38.1 48.3 37.92 47.94 39.19C47.58 40.46 49.93 41.73 48.8499 42.09C47.7599 42.45 45.5899 43 45.5899 43.72C45.5899 44.44 47.7599 45.35 48.1299 46.07C48.4899 46.79 49.04 46.25 50.12 46.79C51.21 47.33 50.84 48.78 49.94 48.96C49.03 49.14 47.77 47.87 46.5 48.24C45.2299 48.6 43.7799 49.87 42.5199 49.87C41.2599 49.87 43.43 49.51 39.62 49.33C35.82 49.15 33.82 52.05 31.11 51.5C28.4 50.95 23.5 50.05 18.97 52.04C14.44 54.03 12.8099 53.85 10.4599 54.03C9.00995 54.14 6.25995 55.9 5.19995 57.74H60.8499L60.8399 57.75Z" fill="#FFAC55"/>
<path d="M60.8399 40.1C60.2199 40.01 58.4799 39.78 57.2699 40C55.7799 40.27 56.4499 40.14 54.1499 40.14C51.8499 40.14 50.4799 40.68 51.0299 41.23C51.5699 41.77 52.9299 41.91 53.7499 42.18C54.5699 42.45 53.8899 43.4 55.1099 43.81C56.3299 44.22 57.2799 44.76 56.7399 44.9C56.1999 45.04 53.6199 45.31 54.4299 45.85C55.2499 46.39 55.7899 45.31 57.4199 46.53C58.3799 47.25 59.4799 47.83 60.8499 47.93V40.11L60.8399 40.1Z" fill="#F8964B"/>
<mask id="mask2_30_224" style="mask-type:luminance" maskUnits="userSpaceOnUse" x="-27" y="-1" width="88" height="59">
<path d="M60.8399 -0.73999H-26.9001V57.75H60.8399V-0.73999Z" fill="white"/>
</mask>
<g mask="url(#mask2_30_224)">
<path d="M48.8897 -2.62998C48.8897 -2.62998 42.0697 5.79002 41.4897 11.16C41.0497 11.45 42.6497 2.74002 46.8597 -1.75998C45.6997 -0.599984 41.9197 4.19002 40.7597 7.39002C40.0297 8.12002 43.0797 0.420021 45.9897 -2.62998C48.8897 -5.67998 48.8897 -2.62998 48.8897 -2.62998Z" fill="#3F5900"/>
<path d="M51.9997 -1.95998C51.9997 -1.95998 44.0297 2.28002 35.3597 1.45002C34.6997 2.05002 38.5697 2.26002 39.4597 2.18002C38.8197 2.59002 35.6497 2.96002 35.9097 3.18002C36.1697 3.41002 39.7897 3.39002 41.7497 2.57002C41.3697 3.20002 38.3397 4.76002 38.9897 5.04002C39.6397 5.32002 43.9797 3.44002 45.5197 2.08002C44.7797 3.25002 42.3597 5.38002 42.2197 6.43002C42.5797 6.67002 46.6797 2.13002 46.5497 2.40002C46.4197 2.68002 44.7297 5.87002 45.0997 6.02002C45.4697 6.17002 47.6797 2.65002 48.3097 1.56002C48.3097 2.24002 46.9597 5.97002 47.5597 5.85002C48.1597 5.73002 49.4797 1.61002 49.6597 0.950019C49.6597 1.63002 49.1397 4.98003 49.6597 4.66003C50.1897 4.34003 51.0597 0.640021 51.0597 0.640021C51.0597 0.640021 50.1597 5.31002 50.7497 5.28002C51.3397 5.26002 51.9797 1.83002 51.9797 1.83002C51.9797 1.83002 51.8298 5.23002 52.4097 4.52002C52.9897 3.81002 53.2597 0.24002 53.2597 0.24002C53.2597 0.24002 53.0297 2.75003 53.4997 2.91003C53.9697 3.07003 54.5197 0.310019 54.5197 0.310019C54.5197 0.310019 54.3197 2.63002 54.8497 2.30002C55.3797 1.98002 57.2397 -0.319974 57.5297 -1.83997C57.8297 -3.35997 51.9797 -1.96998 51.9797 -1.96998L51.9997 -1.95998Z" fill="#597E00"/>
<path d="M57.9597 3.60005C57.9597 3.60005 52.9297 11.0901 44.8797 14.4401C44.5797 15.2801 48.0997 13.6401 48.8397 13.1501C48.4697 13.8101 45.8397 15.6301 46.1797 15.7101C46.5197 15.7901 49.6997 14.0701 51.0397 12.4201C51.0097 13.1601 49.0697 15.9601 49.7697 15.9001C50.4697 15.8401 53.4197 12.1401 54.1397 10.2101C54.0397 11.5901 52.8997 14.6101 53.2797 15.6001C53.7097 15.6401 55.1897 9.70006 55.1997 10.0101C55.2097 10.3201 55.2297 13.9301 55.6297 13.8801C56.0297 13.8301 56.3197 9.69006 56.3597 8.43006C56.6897 9.03006 57.2397 12.9601 57.7197 12.5701C58.1997 12.1801 57.4097 7.93006 57.2697 7.26006C57.5997 7.86006 58.7097 11.0601 59.0197 10.5301C59.3397 10.0001 58.3597 6.33006 58.3597 6.33006C58.3597 6.33006 59.7597 10.8701 60.2697 10.5701C60.7797 10.2701 59.7297 6.95005 59.7297 6.95005C59.7297 6.95005 61.1997 10.0201 61.3797 9.12006C61.5597 8.22006 60.1097 4.94006 60.1097 4.94006C60.1097 4.94006 61.0897 7.26006 61.5797 7.18006C62.0697 7.10006 61.2597 4.41006 61.2597 4.41006C61.2597 4.41006 62.1697 6.55005 62.4897 6.02005C62.8097 5.49005 63.3697 2.59005 62.9097 1.10005C62.4497 -0.379945 57.9497 3.59005 57.9497 3.59005L57.9597 3.60005Z" fill="#3F5900"/>
<path style="mix-blend-mode:multiply" opacity="0.41" d="M57.5496 -1.82997C57.8496 -3.34997 51.9996 -1.95996 51.9996 -1.95996C51.9996 -1.95996 51.4896 -1.68997 50.5996 -1.29997C51.7596 -1.23997 53.8096 -1.03997 53.3396 -0.289966C52.6296 0.740034 49.6596 0.100035 49.9196 0.360035C50.1796 0.620035 52.1796 0.680035 52.1796 0.680035C52.1796 0.680035 51.3996 0.770038 51.0396 0.870038C51.0396 0.920038 51.0196 0.970034 51.0096 1.03003C51.3896 1.11003 52.1196 1.06003 52.1196 1.06003C52.1196 1.06003 51.1496 2.22003 51.2796 2.67003C51.2996 2.74003 51.4996 2.73003 51.8296 2.67003C51.9396 2.19003 51.9996 1.84003 51.9996 1.84003C51.9996 1.84003 51.9896 2.19003 51.9796 2.63003C52.2696 2.57003 52.6296 2.47004 53.0296 2.36004C53.1596 1.51004 53.2396 0.680037 53.2596 0.370038C53.2296 0.710037 53.1796 1.65004 53.2596 2.29004C53.5196 2.21004 53.7996 2.13004 54.0796 2.04004C54.3396 1.28004 54.5296 0.310032 54.5296 0.310032C54.5296 0.310032 54.4396 1.31004 54.5296 1.90004C54.8796 1.79004 55.2496 1.67004 55.6096 1.55004C56.3596 0.670038 57.3296 -0.779962 57.5396 -1.83996L57.5496 -1.82997Z" fill="url(#paint4_linear_30_224)"/>
<path style="mix-blend-mode:multiply" opacity="0.41" d="M50.8896 1.00001C50.8896 1.00001 50.9496 1.02001 50.9896 1.03001C50.9996 0.970006 51.0196 0.920005 51.0296 0.880005C50.8796 0.920005 50.7996 0.97001 50.8996 1.01001L50.8896 1.00001Z" fill="url(#paint5_linear_30_224)"/>
<path d="M60.3597 -2.76997C60.3597 -2.76997 49.3297 -0.159967 43.2297 12.33C43.5197 13.2 51.2197 6.81003 51.2197 6.81003C51.2197 6.81003 48.7497 10 49.1897 10.73C49.6297 11.46 54.4197 5.07003 54.4197 5.07003C54.4197 5.07003 52.9697 8.55003 53.5497 8.55003C54.1297 8.55003 57.3197 3.47003 57.3197 3.47003C57.3197 3.47003 55.5797 6.52003 56.4497 6.66003C57.3197 6.81003 59.9297 2.01003 59.9297 2.01003C59.9297 2.01003 58.4797 5.06003 59.4897 4.91003C60.5097 4.76003 64.8597 1.43003 64.8597 1.43003L60.3597 -2.77997V-2.76997Z" fill="url(#paint6_linear_30_224)"/>
<path style="mix-blend-mode:multiply" opacity="0.71" d="M60.1197 -3.83998C60.1197 -3.83998 53.9297 0.320012 53.3397 1.77001C53.2397 2.74001 57.4097 -0.749985 57.4097 -0.749985C57.4097 -0.749985 53.5397 3.32001 53.4397 4.09001C53.7297 4.28001 57.6997 0.220016 57.6997 0.220016C57.6997 0.220016 56.0497 3.12002 56.5397 3.22002C57.0197 3.32002 59.0597 -0.749984 59.0597 -0.459984C59.0597 -0.169984 58.4797 2.35002 58.8697 2.15002C59.2597 1.95002 60.1297 0.0200119 60.1297 0.0200119C60.1297 0.0200119 59.1597 3.50001 60.7097 3.31001C62.2597 3.12001 63.8097 -2.20998 63.8097 -2.20998L60.1297 -3.85999L60.1197 -3.83998Z" fill="url(#paint7_linear_30_224)"/>
<path d="M63.5497 1.54004C63.5497 1.54004 54.1097 5.02004 51.2097 14.61C51.9397 15.05 54.6897 9.38004 59.7797 6.33004C58.6197 8.36004 57.1697 11.41 57.0197 13.01C57.4597 13.3 60.4997 8.94003 63.1197 7.20004C65.7297 5.46004 63.5597 1.54004 63.5597 1.54004H63.5497Z" fill="url(#paint8_linear_30_224)"/>
<g style="mix-blend-mode:multiply" opacity="0.54">
<path d="M56.0301 53.72C57.1201 53.58 62.6901 51.55 62.6901 51.55L61.5201 49.7C62.5501 49.2 63.5001 48.74 63.5001 48.74L62.7001 47.6C62.7001 47.26 60.9901 43.26 60.0701 43.03C59.1501 42.8 61.3301 46.8 61.3301 46.8C61.3301 46.8 59.0401 43.26 57.7901 42.8C56.5401 42.34 59.9601 46.23 59.9601 46.23C59.9601 46.23 55.8501 43.15 54.4801 43.15C53.1101 43.15 57.7901 45.66 57.7901 45.66C57.7901 45.66 53.1101 43.6 51.1601 43.6C49.5601 43.83 55.2701 45.66 55.2701 45.66C55.2701 45.66 50.9301 44.29 48.5301 44.4C46.6401 44.49 49.8601 45.29 51.3101 45.63C49.9601 45.34 46.8601 44.76 45.4501 45.2C43.6201 45.77 50.9301 46.34 50.9301 46.34C50.9301 46.34 46.1301 46.8 46.2501 47.25C46.3701 47.7 52.3101 47.14 52.3101 47.14C52.3101 47.14 48.3101 48.17 48.7701 48.51C49.2301 48.85 54.6001 47.71 54.6001 47.71C54.6001 47.71 51.1701 48.85 51.6301 49.2C52.0901 49.54 56.5401 48.51 56.5401 48.51C56.5401 48.51 54.6601 49.41 54.3201 49.81C52.5701 50.17 50.7101 50.65 49.0301 51.3C48.3701 50.62 47.8001 49.93 47.3501 49.24C46.8101 49.03 47.5901 50.04 48.8001 51.39C48.1301 51.65 47.4901 51.95 46.9101 52.26C46.6401 52.07 46.4201 51.92 46.2701 51.82C46.2201 51.91 46.3601 52.13 46.6201 52.43C46.1401 52.71 45.7101 53 45.3201 53.32C45.6801 53.52 46.5501 53.51 47.6001 53.39C49.4501 55.07 52.7601 57.52 54.4301 58.07C56.8801 58.89 58.2301 58.21 58.2301 58.21C58.2301 58.21 54.9801 56.34 51.8801 53.85C53.6701 53.53 58.0901 51.96 58.0901 51.96C58.0901 51.96 54.9701 53.86 56.0501 53.73L56.0301 53.72ZM59.2701 48.62C59.2701 48.62 58.8901 48.84 58.4201 49.12C58.0601 49.17 57.6801 49.22 57.2801 49.28C58.3401 48.94 59.2701 48.62 59.2701 48.62ZM48.3601 53.29C48.9801 53.2 49.6201 53.09 50.2501 52.97C51.8701 54.68 53.6301 56.39 54.1301 56.71C53.1101 56.52 50.3801 54.69 48.3601 53.29ZM51.3601 53.44C51.1401 53.26 50.9201 53.07 50.7101 52.88C52.3601 52.56 53.7301 52.22 53.7301 52.22C53.7301 52.22 52.0201 52.92 51.3701 53.43L51.3601 53.44Z" fill="#A05B56"/>
<path d="M45.3 53.72C45.2 54.21 47.12 55.81 48.22 56.68C47 55.77 44.59 54.09 43.34 54.11C41.76 54.14 47.06 56.99 47.06 56.99C47.06 56.99 41.26 53.96 40.42 54.73C39.58 55.5 46.11 57.26 45.7 57.26C45.29 57.26 38.09 55.22 37.82 56.04C37.55 56.86 42.71 57.53 42.71 57.53C42.71 57.53 35.65 56.71 35.24 58.07C34.83 59.43 51.27 58.34 51.27 58.34C51.27 58.34 46.65 53.45 45.29 53.72H45.3Z" fill="#A05B56"/>
</g>
<g style="mix-blend-mode:multiply" opacity="0.42">
<path d="M3.55981 57.84C3.55981 57.84 10.6198 58.02 13.5198 56.75C13.1598 55.84 7.71981 56.03 7.71981 56.03C7.71981 56.03 9.34981 55.67 10.4398 54.04C11.3498 53.13 5.27981 53.56 5.27981 53.56C5.27981 53.56 6.09981 52.41 6.45981 51.51C6.81981 50.79 3.01981 52.78 3.01981 52.78C3.01981 52.78 2.65981 51.15 2.29981 50.24C1.93981 49.7 -0.600185 51.69 -0.600185 51.69C-0.600185 51.69 -0.240185 50.06 -0.600185 49.52C-0.960186 48.98 -3.68019 50.61 -3.68019 50.61L-3.94019 57.76L3.55981 57.85V57.84Z" fill="#A05B56"/>
</g>
<path d="M2.13991 58.6C3.46991 57.92 4.98991 56.76 5.67991 54.86C5.50991 54.69 2.93991 54.86 0.0199127 56.23C0.0199127 56.23 1.55991 53.49 1.72991 52.12C1.03991 52.29 -1.87009 55.03 -1.87009 55.03C-1.87009 55.03 -1.01009 51.77 -2.21009 47.66C-3.24009 48.17 -5.12009 51.43 -5.12009 51.43C-5.12009 51.43 -4.78009 45.77 -7.69009 42C-9.75009 42.69 -10.6001 49.71 -10.6001 49.71C-10.6001 49.71 -11.1101 46.11 -12.4901 44.74C-12.4901 44.74 -14.0301 47.48 -14.2001 49.71C-14.2001 49.71 -15.4001 46.28 -16.6001 45.77C-17.4601 46.46 -16.6001 50.23 -16.6001 50.23C-16.6001 50.23 -19.1701 44.57 -22.2601 43.03C-22.6001 44.23 -23.2901 46.63 -23.2901 46.63C-23.2901 46.63 -23.6201 41.93 -28.8401 39.94V58.6H2.13991Z" fill="url(#paint9_linear_30_224)"/>
<path d="M-0.290089 54.57L-2.71009 56.83C-2.71009 56.83 -2.55009 51.83 -3.36009 51.67C-4.01009 51.99 -5.12009 54.7 -5.12009 54.7C-5.12009 54.7 -7.07009 46.35 -8.04009 46.19C-9.01009 47 -10.4601 52.96 -10.4601 52.96C-10.4601 52.96 -11.9101 48.93 -12.8401 49.11C-13.7701 49.93 -13.6801 53.12 -13.6801 53.12C-13.6801 53.12 -15.1301 49.89 -15.6201 50.54C-16.1001 51.51 -15.9401 53.77 -15.9401 53.77L-18.0401 50.71L-18.2001 53.77C-18.2001 53.77 -20.4601 46.83 -21.5201 47.89C-22.5801 48.95 -23.0401 51.19 -23.0401 51.19C-23.0401 51.19 -23.8501 47.96 -24.3301 47.96C-24.6501 49.25 -24.8101 52.64 -24.8101 52.64C-25.3701 50.11 -28.1401 45.49 -28.8401 44.35V58.61H1.05991C1.48991 57.96 2.02991 57.12 2.12991 56.84L-1.74009 58.13C-0.61009 56.52 -0.290089 54.58 -0.290089 54.58V54.57Z" fill="url(#paint10_linear_30_224)"/>
<path d="M-28.9802 57.28C-28.9802 57.28 -27.9802 52.26 -26.8302 51.33C-26.2602 51.33 -25.8302 55.63 -25.8302 55.63C-25.8302 55.63 -25.0402 53.69 -24.5402 53.55C-24.0402 53.41 -23.5402 55.49 -23.5402 55.49C-23.5402 55.49 -23.6802 51.4 -23.4002 51.4C-23.1202 51.4 -21.9702 55.56 -21.9702 55.56C-21.9702 55.56 -20.3202 49.47 -19.3902 49.11C-19.0302 49.4 -19.0302 55.56 -19.0302 55.56C-19.0302 55.56 -17.3802 53.27 -17.0202 53.34C-16.6602 53.41 -15.4402 55.71 -15.4402 55.71C-15.4402 55.71 -15.5802 54.13 -14.7902 54.06C-14.0002 53.99 -13.0002 56.07 -13.0002 56.07C-13.0002 56.07 -12.5702 53.99 -11.8502 53.92C-11.1302 53.85 -11.4902 55.43 -11.4902 55.43C-11.4902 55.43 -10.1302 52.99 -9.77016 53.35C-9.41016 53.71 -9.12016 55.14 -9.12016 55.14C-9.12016 55.14 -8.33016 51.13 -7.76016 50.91C-7.19016 50.69 -6.04016 54.78 -6.04016 54.78C-6.04016 54.78 -5.39016 51.84 -4.96016 52.06C-4.53016 52.28 -4.17015 56.72 -4.17015 56.72C-4.17015 56.72 -2.95016 54.35 -2.66016 54.57C-2.37016 54.79 -2.52015 57.29 -2.30016 57.08C-2.08016 56.87 -0.720154 55.57 -0.510155 55.93C-0.290155 56.29 -0.510155 57.29 -0.510155 57.29C-0.510155 57.29 0.419842 56.57 0.779842 56.72C1.13984 56.86 0.489845 58.73 0.489845 58.73L-29.9102 59.81L-28.9802 57.3V57.28Z" fill="url(#paint11_linear_30_224)"/>
</g>
<g style="mix-blend-mode:multiply" opacity="0.29">
<path d="M31.3597 54.91C31.3597 54.91 32.2097 54.73 32.8097 54.85C33.4097 54.97 33.6597 54.97 33.7797 55.15C33.8997 55.33 33.2997 55.51 32.4497 55.45C31.5997 55.39 30.3997 55.21 30.8197 55.03C31.2397 54.85 31.3597 54.91 31.3597 54.91Z" fill="#FFAC55"/>
<path d="M9.8099 47.85C9.8099 47.85 10.2899 47.43 10.7199 47.61C11.1499 47.79 11.2599 48.03 11.0799 48.03C10.8999 48.03 9.6299 48.27 9.8099 47.85Z" fill="#FFAC55"/>
<path d="M4.00985 53.37C4.00985 53.37 4.48985 52.9501 4.91985 53.1301C5.33985 53.3101 5.45985 53.55 5.27985 53.55C5.09985 53.55 3.82985 53.79 4.00985 53.37Z" fill="#FFAC55"/>
<path d="M24.8997 52.8C24.8997 52.8 25.4997 52.56 25.7497 52.8C25.9897 53.04 25.7497 53.4 25.3897 53.22C25.0297 53.04 24.4197 52.92 24.9097 52.8H24.8997Z" fill="#FFAC55"/>
<path d="M35.4098 48.09C35.4098 48.09 36.0098 47.85 36.2598 48.09C36.4998 48.33 36.2598 48.69 35.8998 48.51C35.5398 48.33 34.9297 48.21 35.4197 48.09H35.4098Z" fill="#FFAC55"/>
<path d="M36.8597 41.84C36.8597 41.84 37.4597 41.6 37.7097 41.84C37.9597 42.08 37.7097 42.44 37.3497 42.26C36.9897 42.08 36.3797 41.96 36.8697 41.84H36.8597Z" fill="#FFAC55"/>
<path d="M37.8599 53.34C37.8599 53.34 39.4199 52.72 40.3199 52.85C41.2199 52.97 42.9099 53.59 42.5399 53.84C42.1699 54.09 40.7699 54.58 39.6199 54.46C38.4699 54.34 36.0899 54.01 36.3699 53.8C36.6499 53.59 37.8499 53.35 37.8499 53.35L37.8599 53.34Z" fill="#FFAC55"/>
<path d="M2.25978 44.12C2.25978 44.12 2.77978 43.92 3.07978 43.96C3.37978 44 3.93978 44.21 3.81978 44.29C3.69978 44.37 3.22978 44.54 2.84978 44.49C2.46978 44.45 1.67978 44.34 1.76978 44.27C1.85978 44.2 2.25978 44.12 2.25978 44.12Z" fill="#FFAC55"/>
<path d="M38.6998 41.39C38.8998 41.21 39.3598 40.85 40.0298 41.03C40.6898 41.21 41.7798 41.57 41.2398 41.88C40.6998 42.18 37.6198 42.36 38.6998 41.4V41.39Z" fill="#FFAC55"/>
<path d="M0.699728 51.42C1.03973 51.11 1.82973 50.49 2.96973 50.8C4.09973 51.11 5.95973 51.73 5.02973 52.24C4.09973 52.76 -1.15027 53.06 0.699728 51.42Z" fill="#FFAC55"/>
<path d="M15.3298 45.43C15.3298 45.43 16.1098 44.95 16.7198 45.13C17.3298 45.31 18.0498 45.67 17.6898 45.73C17.3298 45.79 16.5398 46.27 15.8798 45.97C15.2198 45.67 15.3398 45.43 15.3398 45.43H15.3298Z" fill="#FFAC55"/>
<path d="M27.7898 47.79C27.7898 47.79 29.4898 46.74 30.7998 47.14C32.1098 47.54 33.6798 48.32 32.8898 48.45C32.0998 48.58 30.3998 49.63 28.9598 48.97C27.5198 48.32 27.7798 47.79 27.7798 47.79H27.7898Z" fill="#FFAC55"/>
</g>
<g style="mix-blend-mode:multiply" opacity="0.42">
<path d="M9.14983 49.74C9.14983 49.74 8.96983 49.78 8.98983 49.81C9.00983 49.84 9.14983 49.85 9.27983 49.83C9.39983 49.81 9.51983 49.76 9.52983 49.73C9.54983 49.7 9.36983 49.71 9.36983 49.71L9.15983 49.73L9.14983 49.74Z" fill="#A05B56"/>
</g>
<path d="M9.05986 49.82C9.05986 49.82 8.83986 49.74 8.87986 49.66C8.91986 49.58 9.05986 49.39 9.14986 49.37C9.23986 49.35 9.35986 49.44 9.40986 49.55C9.44986 49.66 9.41986 49.74 9.33986 49.79C9.25986 49.83 9.05986 49.82 9.05986 49.82Z" fill="#F7D7CD"/>
<path d="M9.05986 49.82C9.05986 49.82 9.25986 49.83 9.33986 49.79C9.35986 49.78 9.37986 49.76 9.39986 49.74C9.32986 49.77 9.25986 49.74 9.20986 49.73C9.13986 49.73 9.00986 49.64 9.01986 49.55C9.01986 49.5 9.07986 49.43 9.11986 49.39C9.02986 49.44 8.91986 49.6 8.87986 49.67C8.83986 49.75 9.05986 49.83 9.05986 49.83V49.82Z" fill="#CCADA3"/>
<g style="mix-blend-mode:multiply" opacity="0.42">
<path d="M6.4599 47.2C6.4599 47.2 5.0099 47.56 5.1499 47.79C5.2899 48.02 6.4599 48.11 7.4599 47.97C8.4599 47.83 9.3599 47.43 9.4999 47.2C9.6399 46.97 8.1899 47.02 8.1899 47.02L6.4699 47.2H6.4599Z" fill="#A05B56"/>
</g>
<path d="M5.72979 47.88C5.72979 47.88 3.91979 47.25 4.27979 46.61C4.63979 45.98 5.7298 44.44 6.4498 44.26C7.1698 44.08 8.16979 44.8 8.52979 45.71C8.88979 46.62 8.6198 47.25 7.9898 47.61C7.3598 47.97 5.72979 47.88 5.72979 47.88Z" fill="#F7D7CD"/>
<path d="M5.72978 47.88C5.72978 47.88 7.35979 47.97 7.98978 47.61C8.17979 47.5 8.33978 47.36 8.45978 47.2C7.90978 47.41 7.29978 47.14 6.92978 47.1C6.38978 47.04 5.29978 46.38 5.41978 45.65C5.48978 45.24 5.89978 44.72 6.24978 44.34C5.53978 44.71 4.59978 46.04 4.26978 46.62C3.90978 47.25 5.71978 47.89 5.71978 47.89L5.72978 47.88Z" fill="#CCADA3"/>
<g style="mix-blend-mode:multiply" opacity="0.42">
<path d="M31.4898 43.18C31.4898 43.18 30.8198 43.35 30.8798 43.45C30.9398 43.55 31.4898 43.6 31.9498 43.53C32.4098 43.47 32.8298 43.28 32.8898 43.17C32.9498 43.06 32.2798 43.09 32.2798 43.09L31.4798 43.17L31.4898 43.18Z" fill="#A05B56"/>
</g>
<path d="M31.1598 43.5C31.1598 43.5 30.3198 43.21 30.4898 42.91C30.6598 42.62 31.1598 41.9 31.4998 41.82C31.8398 41.74 32.2998 42.07 32.4698 42.49C32.6398 42.91 32.5098 43.2 32.2198 43.37C31.9298 43.54 31.1698 43.5 31.1698 43.5H31.1598Z" fill="#F7D7CD"/>
<path d="M31.1597 43.5C31.1597 43.5 31.9197 43.54 32.2097 43.37C32.2997 43.32 32.3697 43.26 32.4297 43.18C32.1697 43.28 31.8897 43.15 31.7197 43.13C31.4697 43.1 30.9597 42.79 31.0197 42.46C31.0497 42.27 31.2397 42.03 31.3997 41.85C31.0697 42.02 30.6397 42.64 30.4797 42.91C30.3097 43.2 31.1497 43.5 31.1497 43.5H31.1597Z" fill="#CCADA3"/>
<g style="mix-blend-mode:multiply" opacity="0.42">
<path d="M53.4598 37.52C53.4598 37.52 53.1898 37.59 53.2098 37.63C53.2398 37.67 53.4598 37.69 53.6398 37.66C53.8298 37.63 53.9998 37.56 54.0198 37.52C54.0498 37.48 53.7698 37.49 53.7698 37.49L53.4498 37.52H53.4598Z" fill="#A05B56"/>
</g>
<path d="M53.3298 37.64C53.3298 37.64 52.9898 37.52 53.0598 37.4C53.1298 37.28 53.3298 36.99 53.4698 36.96C53.6098 36.93 53.7898 37.06 53.8598 37.23C53.9298 37.4 53.8798 37.52 53.7598 37.59C53.6398 37.66 53.3298 37.64 53.3298 37.64Z" fill="#F7D7CD"/>
<path d="M53.3298 37.64C53.3298 37.64 53.6398 37.66 53.7598 37.59C53.7998 37.57 53.8298 37.54 53.8498 37.51C53.7498 37.55 53.6298 37.5 53.5598 37.49C53.4598 37.48 53.2498 37.35 53.2798 37.22C53.2898 37.14 53.3698 37.04 53.4398 36.97C53.3098 37.04 53.1298 37.29 53.0698 37.4C52.9998 37.52 53.3398 37.64 53.3398 37.64H53.3298Z" fill="#CCADA3"/>
<g style="mix-blend-mode:multiply" opacity="0.42">
<path d="M56.8998 38.01C56.8998 38.01 56.7598 38.05 56.7698 38.07C56.7798 38.09 56.8998 38.1 56.9998 38.09C57.0998 38.08 57.1898 38.04 57.1998 38.01C57.2098 37.99 57.0698 37.99 57.0698 37.99L56.8998 38.01Z" fill="#A05B56"/>
</g>
<path d="M56.8299 38.07C56.8299 38.07 56.6499 38.01 56.6899 37.94C56.7299 37.88 56.8299 37.72 56.9099 37.71C56.9799 37.69 57.0799 37.76 57.1199 37.85C57.1599 37.94 57.1199 38 57.0699 38.04C57.0099 38.08 56.8499 38.07 56.8499 38.07H56.8299Z" fill="#FFBE92"/>
<path d="M56.8299 38.07C56.8299 38.07 56.9899 38.07 57.0499 38.04C57.0699 38.03 57.0899 38.02 57.0999 38C57.0499 38.02 56.9899 38 56.9499 37.99C56.8999 37.99 56.7899 37.92 56.7999 37.85C56.7999 37.81 56.8499 37.76 56.8799 37.72C56.8099 37.76 56.7199 37.89 56.6799 37.95C56.6399 38.01 56.8199 38.08 56.8199 38.08L56.8299 38.07Z" fill="url(#paint12_linear_30_224)"/>
<g style="mix-blend-mode:multiply" opacity="0.42">
<path d="M14.2399 49.39C14.2399 49.39 13.8699 49.48 13.8999 49.54C13.9299 49.6 14.2399 49.62 14.4899 49.59C14.7499 49.56 14.9799 49.45 15.0099 49.39C15.0399 49.33 14.6699 49.34 14.6699 49.34L14.2299 49.39H14.2399Z" fill="#A05B56"/>
</g>
<path d="M14.05 49.57C14.05 49.57 13.58 49.41 13.68 49.24C13.78 49.07 14.05 48.68 14.24 48.64C14.43 48.59 14.68 48.78 14.77 49.01C14.86 49.24 14.79 49.41 14.63 49.5C14.47 49.59 14.05 49.57 14.05 49.57Z" fill="#F7D7CD"/>
<path d="M14.0499 49.57C14.0499 49.57 14.4699 49.59 14.6299 49.5C14.6799 49.47 14.7199 49.44 14.7499 49.39C14.6099 49.44 14.4499 49.37 14.3599 49.36C14.2199 49.34 13.9399 49.17 13.9699 48.99C13.9899 48.89 14.0899 48.75 14.1799 48.65C13.9999 48.74 13.7599 49.09 13.6699 49.23C13.5799 49.39 14.0399 49.56 14.0399 49.56L14.0499 49.57Z" fill="#CCADA3"/>
<g style="mix-blend-mode:multiply" opacity="0.42">
<path d="M26.4098 41.72C26.4098 41.72 26.0398 41.81 26.0698 41.87C26.0998 41.93 26.4098 41.95 26.6598 41.92C26.9198 41.89 27.1498 41.78 27.1798 41.72C27.2098 41.66 26.8398 41.67 26.8398 41.67L26.3998 41.72H26.4098Z" fill="#A05B56"/>
</g>
<path d="M26.2199 41.89C26.2199 41.89 25.7499 41.73 25.8499 41.56C25.9399 41.4 26.2199 41 26.4099 40.96C26.5999 40.91 26.8499 41.1 26.9399 41.33C27.0299 41.56 26.9599 41.73 26.7999 41.82C26.6399 41.91 26.2199 41.89 26.2199 41.89Z" fill="#F7D7CD"/>
<path d="M26.2198 41.89C26.2198 41.89 26.6398 41.91 26.7998 41.82C26.8498 41.79 26.8898 41.76 26.9198 41.71C26.7798 41.76 26.6198 41.69 26.5298 41.68C26.3898 41.66 26.1098 41.49 26.1398 41.31C26.1598 41.21 26.2598 41.07 26.3498 40.97C26.1698 41.06 25.9298 41.41 25.8398 41.55C25.7498 41.71 26.2098 41.88 26.2098 41.88L26.2198 41.89Z" fill="#CCADA3"/>
<g style="mix-blend-mode:multiply" opacity="0.42">
<path d="M38.1599 45.95C38.1599 45.95 37.1899 46.43 37.4399 46.86C37.6799 47.28 37.9199 48.13 40.0399 47.95C42.1499 47.77 42.5799 46.8599 42.0899 46.6799C41.6099 46.4999 38.1699 45.96 38.1699 45.96L38.1599 45.95Z" fill="#A05B56"/>
</g>
<path d="M37.8599 46.95C37.4999 46.63 37.5299 46.06 37.9199 45.78C38.5699 45.32 39.5999 44.72 40.2899 44.9C41.3799 45.17 42.4599 46.39 41.9199 47.07C41.3799 47.75 39.3399 47.61 38.5199 47.34C38.2599 47.25 38.0299 47.11 37.8599 46.95Z" fill="url(#paint13_linear_30_224)"/>
<path style="mix-blend-mode:screen" opacity="0.43" d="M40.8699 45.1C40.8699 45.1 39.4799 44.68 39.0599 45.34C38.6399 46 39.8399 46.91 40.8099 46.79C41.7799 46.67 41.1699 45.88 41.1699 45.88C41.1699 45.88 41.7699 46.06 41.6499 45.82C41.5299 45.58 40.8699 45.1 40.8699 45.1Z" fill="url(#paint14_linear_30_224)"/>
<g style="mix-blend-mode:multiply" opacity="0.42">
<path d="M44.6799 42.46C44.6799 42.46 44.4399 42.58 44.4999 42.68C44.5599 42.78 44.6199 42.99 45.1299 42.94C45.6499 42.9 45.7499 42.68 45.6299 42.63C45.5099 42.59 44.6699 42.45 44.6699 42.45L44.6799 42.46Z" fill="#A05B56"/>
</g>
<path d="M44.6098 42.7C44.5198 42.62 44.5298 42.48 44.6298 42.41C44.7898 42.3 45.0398 42.15 45.2098 42.19C45.4698 42.26 45.7398 42.55 45.6098 42.72C45.4798 42.89 44.9798 42.85 44.7798 42.79C44.7198 42.77 44.6598 42.73 44.6198 42.7H44.6098Z" fill="url(#paint15_linear_30_224)"/>
<path style="mix-blend-mode:screen" opacity="0.43" d="M45.3497 42.25C45.3497 42.25 45.0097 42.15 44.9097 42.31C44.8097 42.47 45.0997 42.69 45.3397 42.66C45.5797 42.63 45.4297 42.44 45.4297 42.44C45.4297 42.44 45.5797 42.48 45.5497 42.43C45.5197 42.38 45.3597 42.25 45.3597 42.25H45.3497Z" fill="url(#paint16_linear_30_224)"/>
<path d="M40.3298 40.5401L45.3998 38.8201L58.8098 39.7301L50.1098 41.9001L40.3298 40.5401Z" fill="#E1F4E1"/>
<path d="M45.3998 38.8201L40.3298 40.5401L40.8398 40.6101L46.6798 38.9101L45.3998 38.8201Z" fill="#009C87"/>
<path d="M50.5499 39.1701L49.0099 39.0701L42.9199 40.9001L44.0699 41.0601L50.5499 39.1701Z" fill="#009C87"/>
<path d="M56.9198 39.6001L55.3798 39.5001L48.2498 41.6401L49.3898 41.8001L56.9198 39.6001Z" fill="#009C87"/>
<path d="M53.5199 39.3701L51.9699 39.2701L45.3999 41.2501L46.5499 41.4101L53.5199 39.3701Z" fill="#009C87"/>
<path d="M48.0999 20.97L58.7399 29.89L33.3499 22.8L48.0999 20.97Z" fill="#FF7041"/>
<path d="M40.47 24.78L48.1 20.97L52.69 28.2" fill="url(#paint17_linear_30_224)"/>
<path d="M58.7399 29.91C58.7399 29.91 46.3699 24.36 33.3499 22.82C33.3499 22.82 46.3899 29.34 58.7399 29.91Z" fill="#A4324E"/>
<path d="M47.1598 25.76L42.4998 42.19L42.0698 42L46.4298 25.54C46.4298 25.54 46.9798 25.69 47.1598 25.77V25.76Z" fill="url(#paint18_linear_30_224)"/>
<g style="mix-blend-mode:multiply" opacity="0.54">
<path d="M43.8898 43.26C50.1527 43.26 55.2298 42.6511 55.2298 41.9C55.2298 41.1489 50.1527 40.54 43.8898 40.54C37.6269 40.54 32.5498 41.1489 32.5498 41.9C32.5498 42.6511 37.6269 43.26 43.8898 43.26Z" fill="#A05B56"/>
</g>
<g style="mix-blend-mode:multiply" opacity="0.54">
<path d="M37.4299 44.8901C39.2304 44.8901 40.6899 44.5364 40.6899 44.1001C40.6899 43.6638 39.2304 43.3101 37.4299 43.3101C35.6295 43.3101 34.1699 43.6638 34.1699 44.1001C34.1699 44.5364 35.6295 44.8901 37.4299 44.8901Z" fill="#A05B56"/>
</g>
<path d="M36.9499 44.3801C38.4853 44.3801 39.7299 43.1354 39.7299 41.6001C39.7299 40.0647 38.4853 38.8201 36.9499 38.8201C35.4146 38.8201 34.1699 40.0647 34.1699 41.6001C34.1699 43.1354 35.4146 44.3801 36.9499 44.3801Z" fill="#FAEFF9"/>
<path d="M35.7999 39.0701C35.3499 39.2701 34.9699 39.6001 34.6799 39.9901C35.0399 40.5701 36.2699 42.2601 39.0899 43.3601C39.2799 43.1301 39.4399 42.8601 39.5499 42.5701C38.8899 39.9601 36.7799 39.2601 35.7999 39.0701Z" fill="#FF7041"/>
<path d="M34.2499 40.9501C34.1999 41.1601 34.1699 41.3801 34.1699 41.6001C34.1699 41.6101 34.1699 41.6201 34.1699 41.6301C34.9299 44.2501 37.1299 44.2501 38.1599 44.1001C38.3499 44.0101 38.5199 43.9001 38.6799 43.7701C35.7699 43.6601 34.5799 41.6701 34.2399 40.9501H34.2499Z" fill="#009C87"/>
<g style="mix-blend-mode:multiply" opacity="0.54">
<path d="M39.6799 42.11C39.1999 43.11 38.1799 43.8 36.9999 43.8C35.6899 43.8 34.5799 42.96 34.1799 41.78C34.2799 43.23 35.4799 44.37 36.9499 44.37C38.3099 44.37 39.4399 43.39 39.6799 42.1V42.11Z" fill="#A05B56"/>
</g>
</g>
<defs>
<linearGradient id="paint0_linear_30_224" x1="16.9699" y1="34.11" x2="16.9699" y2="-6.25999" gradientUnits="userSpaceOnUse">
<stop stop-color="#C2F8D0"/>
<stop offset="0.18" stop-color="#92EBD5"/>
<stop offset="0.54" stop-color="#39D4DF"/>
<stop offset="0.62" stop-color="#32C7E2"/>
<stop offset="0.77" stop-color="#20A6EC"/>
<stop offset="0.97" stop-color="#0471FC"/>
<stop offset="1" stop-color="#0069FF"/>
</linearGradient>
<linearGradient id="paint1_linear_30_224" x1="33.3398" y1="32.03" x2="41.1298" y2="39.1" gradientUnits="userSpaceOnUse">
<stop stop-color="#FFCE86"/>
<stop offset="0.64" stop-color="#FFB85E"/>
<stop offset="1" stop-color="#FFB04E"/>
</linearGradient>
<linearGradient id="paint2_linear_30_224" x1="-29.4101" y1="50.04" x2="24.1099" y2="35.5" gradientUnits="userSpaceOnUse">
<stop stop-color="#135DCB"/>
<stop offset="0.05" stop-color="#1167CA"/>
<stop offset="0.25" stop-color="#0B8EC9"/>
<stop offset="0.45" stop-color="#06ACC8"/>
<stop offset="0.64" stop-color="#02C2C7"/>
<stop offset="0.83" stop-color="#00CFC7"/>
<stop offset="1" stop-color="#00D4C7"/>
</linearGradient>
<linearGradient id="paint3_linear_30_224" x1="-24.8501" y1="49.61" x2="76.9499" y2="44.72" gradientUnits="userSpaceOnUse">
<stop stop-color="#FFCE86"/>
<stop offset="0.64" stop-color="#FFB85E"/>
<stop offset="1" stop-color="#FFB04E"/>
</linearGradient>
<linearGradient id="paint4_linear_30_224" x1="50.8696" y1="1.69003" x2="57.1196" y2="-2.65997" gradientUnits="userSpaceOnUse">
<stop stop-color="#C9CE00"/>
<stop offset="0.19" stop-color="#A7C516"/>
<stop offset="0.61" stop-color="#53B04E"/>
<stop offset="1" stop-color="#009C87"/>
</linearGradient>
<linearGradient id="paint5_linear_30_224" x1="50.8796" y1="1.01001" x2="51.0396" y2="0.900008" gradientUnits="userSpaceOnUse">
<stop stop-color="#C9CE00"/>
<stop offset="0.19" stop-color="#A7C516"/>
<stop offset="0.61" stop-color="#53B04E"/>
<stop offset="1" stop-color="#009C87"/>
</linearGradient>
<linearGradient id="paint6_linear_30_224" x1="46.6997" y1="1.92003" x2="56.4697" y2="7.44003" gradientUnits="userSpaceOnUse">
<stop stop-color="#C9CE00"/>
<stop offset="0.12" stop-color="#B7C90B"/>
<stop offset="0.37" stop-color="#8BBE29"/>
<stop offset="0.7" stop-color="#44AC59"/>
<stop offset="1" stop-color="#009C87"/>
</linearGradient>
<linearGradient id="paint7_linear_30_224" x1="53.3397" y1="0.130013" x2="63.7897" y2="0.130013" gradientUnits="userSpaceOnUse">
<stop stop-color="#C9CE00"/>
<stop offset="0.19" stop-color="#A7C516"/>
<stop offset="0.61" stop-color="#53B04E"/>
<stop offset="1" stop-color="#009C87"/>
</linearGradient>
<linearGradient id="paint8_linear_30_224" x1="49.8797" y1="7.80004" x2="63.0397" y2="8.29004" gradientUnits="userSpaceOnUse">
<stop stop-color="#C9CE00"/>
<stop offset="0.12" stop-color="#B7C90B"/>
<stop offset="0.37" stop-color="#8BBE29"/>
<stop offset="0.7" stop-color="#44AC59"/>
<stop offset="1" stop-color="#009C87"/>
</linearGradient>
<linearGradient id="paint9_linear_30_224" x1="-5.56009" y1="34.77" x2="-19.5901" y2="64.29" gradientUnits="userSpaceOnUse">
<stop stop-color="#C9CE00"/>
<stop offset="0.1" stop-color="#AEC110"/>
<stop offset="0.33" stop-color="#70A434"/>
<stop offset="0.55" stop-color="#408D51"/>
<stop offset="0.74" stop-color="#1D7D66"/>
<stop offset="0.9" stop-color="#077373"/>
<stop offset="1" stop-color="#007078"/>
</linearGradient>
<linearGradient id="paint10_linear_30_224" x1="-8.45009" y1="40.29" x2="-18.1201" y2="60.62" gradientUnits="userSpaceOnUse">
<stop stop-color="#75A246"/>
<stop offset="0.13" stop-color="#659246"/>
<stop offset="0.52" stop-color="#3C6646"/>
<stop offset="0.81" stop-color="#224B46"/>
<stop offset="0.99" stop-color="#194246"/>
</linearGradient>
<linearGradient id="paint11_linear_30_224" x1="-11.9902" y1="47.72" x2="-14.9302" y2="60.27" gradientUnits="userSpaceOnUse">
<stop stop-color="#C9CE00"/>
<stop offset="0.18" stop-color="#97B61D"/>
<stop offset="0.43" stop-color="#5A9A42"/>
<stop offset="0.64" stop-color="#2D855C"/>
<stop offset="0.8" stop-color="#12786C"/>
<stop offset="0.9" stop-color="#077373"/>
<stop offset="1" stop-color="#007078"/>
</linearGradient>
<linearGradient id="paint12_linear_30_224" x1="56.6799" y1="37.9" x2="57.0999" y2="37.9" gradientUnits="userSpaceOnUse">
<stop stop-color="#A4324E"/>
<stop offset="0.61" stop-color="#B25349"/>
<stop offset="1" stop-color="#B96448"/>
</linearGradient>
<linearGradient id="paint13_linear_30_224" x1="37.5999" y1="46.21" x2="42.0599" y2="46.21" gradientUnits="userSpaceOnUse">
<stop stop-color="#A4324E"/>
<stop offset="0.61" stop-color="#B25349"/>
<stop offset="1" stop-color="#B96448"/>
</linearGradient>
<linearGradient id="paint14_linear_30_224" x1="38.2199" y1="43.37" x2="41.5398" y2="47.3" gradientUnits="userSpaceOnUse">
<stop stop-color="#FFCE86"/>
<stop offset="0.64" stop-color="#FFB85E"/>
<stop offset="1" stop-color="#FFB04E"/>
</linearGradient>
<linearGradient id="paint15_linear_30_224" x1="44.5498" y1="42.52" x2="45.6298" y2="42.52" gradientUnits="userSpaceOnUse">
<stop stop-color="#A4324E"/>
<stop offset="0.61" stop-color="#B25349"/>
<stop offset="1" stop-color="#B96448"/>
</linearGradient>
<linearGradient id="paint16_linear_30_224" x1="44.6997" y1="41.83" x2="45.5097" y2="42.78" gradientUnits="userSpaceOnUse">
<stop stop-color="#FFCE86"/>
<stop offset="0.64" stop-color="#FFB85E"/>
<stop offset="1" stop-color="#FFB04E"/>
</linearGradient>
<linearGradient id="paint17_linear_30_224" x1="40.47" y1="24.58" x2="52.69" y2="24.58" gradientUnits="userSpaceOnUse">
<stop stop-color="#FFE55C"/>
<stop offset="0.63" stop-color="#FFC052"/>
<stop offset="1" stop-color="#FFB04E"/>
</linearGradient>
<linearGradient id="paint18_linear_30_224" x1="47.5628" y1="33.6852" x2="41.6899" y2="33.9724" gradientUnits="userSpaceOnUse">
<stop stop-color="#492239"/>
<stop offset="0.2" stop-color="#4E2538"/>
<stop offset="0.46" stop-color="#5F2E36"/>
<stop offset="0.76" stop-color="#7A3E33"/>
<stop offset="1" stop-color="#964E30"/>
</linearGradient>
</defs>
</svg>
