<?xml version="1.0" encoding="UTF-8" standalone="no"?>
<!-- Created with Inkscape (http://www.inkscape.org/) -->

<svg
   version="1.1"
   id="svg9"
   width="91.676392"
   height="61.007721"
   viewBox="0 0 91.676395 61.007721"
   sodipodi:docname="3-6_years_abc_page_1024x720.ai"
   xmlns:inkscape="http://www.inkscape.org/namespaces/inkscape"
   xmlns:sodipodi="http://sodipodi.sourceforge.net/DTD/sodipodi-0.dtd"
   xmlns="http://www.w3.org/2000/svg"
   xmlns:svg="http://www.w3.org/2000/svg">
  <defs
     id="defs13">
    <clipPath
       clipPathUnits="userSpaceOnUse"
       id="clipPath5991">
      <path
         d="M 0,720 H 1024 V 0 H 0 Z"
         id="path5989" />
    </clipPath>
    <clipPath
       clipPathUnits="userSpaceOnUse"
       id="clipPath6159">
      <path
         d="m 664.175,545.106 h 90.867 V 414.754 h -90.867 z"
         id="path6157" />
    </clipPath>
  </defs>
  <sodipodi:namedview
     id="namedview11"
     pagecolor="#ffffff"
     bordercolor="#000000"
     borderopacity="0.25"
     inkscape:showpageshadow="2"
     inkscape:pageopacity="0.0"
     inkscape:pagecheckerboard="0"
     inkscape:deskcolor="#d1d1d1"
     showgrid="false"
     inkscape:zoom="0.91259771"
     inkscape:cx="459.12892"
     inkscape:cy="493.64577"
     inkscape:window-width="2155"
     inkscape:window-height="1205"
     inkscape:window-x="0"
     inkscape:window-y="25"
     inkscape:window-maximized="0"
     inkscape:current-layer="g15" />
  <g
     id="g15"
     inkscape:groupmode="layer"
     inkscape:label="3-6_years_abc_page_1024x720"
     transform="matrix(1.3333333,0,0,-1.3333333,-1190.6911,727.37476)">
    <g
       id="g5985"
       transform="translate(15.614767,35.338683)">
      <g
         id="g5987"
         clip-path="url(#clipPath5991)">
        <g
           id="g5993"
           transform="translate(917.8487,506.855)">
          <path
             d="M 0,0 0.959,0.257 2.485,0.072 2.503,-1.035 1.482,-1.383 0.087,-1.195 Z"
             style="fill:#d5870d;fill-opacity:1;fill-rule:nonzero;stroke:none"
             id="path5995" />
        </g>
        <g
           id="g5997"
           transform="translate(917.8487,506.855)">
          <path
             d="m 0,0 1.437,-0.166 0.227,-25.931 -0.916,0.143 z"
             style="fill:#ad6319;fill-opacity:1;fill-rule:nonzero;stroke:none"
             id="path5999" />
        </g>
        <g
           id="g6001"
           transform="translate(919.2862,506.6889)">
          <path
             d="M 0,0 1.048,0.238 0.962,-25.618 0.226,-25.931 Z"
             style="fill:#a45b16;fill-opacity:1;fill-rule:nonzero;stroke:none"
             id="path6003" />
        </g>
        <g
           id="g6005"
           transform="translate(916.9151,508.1794)">
          <path
             d="m 0,0 c 0,-1.11 0.9,-2.012 2.012,-2.012 1.111,0 2.011,0.902 2.011,2.012 0,1.112 -0.9,2.013 -2.011,2.013 C 0.9,2.013 0,1.112 0,0"
             style="fill:#f8b55b;fill-opacity:1;fill-rule:nonzero;stroke:none"
             id="path6007" />
        </g>
        <g
           id="g6009"
           transform="translate(916.9396,508.4786)">
          <path
             d="m 0,0 c 0.309,-0.712 1.017,-1.211 1.844,-1.211 1.01,0 1.844,0.747 1.986,1.717 C 3.879,0.393 3.918,0.275 3.946,0.152 3.948,0.114 3.95,0.075 3.95,0.035 c 0,-1.11 -0.9,-2.011 -2.011,-2.011 -0.954,0 -1.751,0.665 -1.957,1.555 -0.003,0.041 -0.007,0.081 -0.007,0.122 0,0.102 0.01,0.201 0.025,0.299"
             style="fill:#ad6319;fill-opacity:1;fill-rule:nonzero;stroke:none"
             id="path6011" />
        </g>
        <g
           id="g6013"
           transform="translate(917.8515,509.1812)">
          <path
             d="M 0,0 C 0,-0.405 0.482,-0.734 1.075,-0.734 1.668,-0.734 2.15,-0.405 2.15,0 2.15,0.407 1.668,0.735 1.075,0.735 0.482,0.735 0,0.407 0,0"
             style="fill:#d89c4c;fill-opacity:1;fill-rule:nonzero;stroke:none"
             id="path6015" />
        </g>
        <g
           id="g6017"
           transform="translate(942.8566,502.9102)">
          <path
             d="M 0,0 0.966,0.225 2.485,-0.013 2.465,-1.121 1.432,-1.433 0.045,-1.196 Z"
             style="fill:#d5870d;fill-opacity:1;fill-rule:nonzero;stroke:none"
             id="path6019" />
        </g>
        <g
           id="g6021"
           transform="translate(919.3,504.6292)">
          <path
             d="M 0,0 0.878,0.267 24.665,-3.178 23.674,-3.636 Z"
             style="fill:#fbcf93;fill-opacity:1;fill-rule:nonzero;stroke:none"
             id="path6023" />
        </g>
        <g
           id="g6025"
           transform="translate(919.3,504.6292)">
          <path
             d="m 0,0 0.22,-21.754 23.417,-5.922 0.037,24.04 z"
             style="fill:#f8b55b;fill-opacity:1;fill-rule:nonzero;stroke:none"
             id="path6027" />
        </g>
        <g
           id="g6029"
           transform="translate(919.3,504.6292)">
          <path
             d="m 0,0 0.22,-21.754 23.417,-5.922 0.037,24.04 c 0,0 -5.418,-16.105 -8.44,-15.916 C 1.419,-18.679 0,0 0,0"
             style="fill:#eb9c38;fill-opacity:1;fill-rule:nonzero;stroke:none"
             id="path6031" />
        </g>
        <g
           id="g6033"
           transform="translate(942.8566,502.9102)">
          <path
             d="m 0,0 1.431,-0.215 -0.668,-25.923 -0.911,0.173 z"
             style="fill:#ad6319;fill-opacity:1;fill-rule:nonzero;stroke:none"
             id="path6035" />
        </g>
        <g
           id="g6037"
           transform="translate(944.2872,502.6949)">
          <path
             d="M 0,0 1.055,0.202 0.079,-25.634 -0.667,-25.923 Z"
             style="fill:#844b16;fill-opacity:1;fill-rule:nonzero;stroke:none"
             id="path6039" />
        </g>
        <g
           id="g6041"
           transform="translate(926.1205,487.4599)">
          <path
             d="m 0,0 1.603,-13.354 13.953,4.569 0.114,12.43 z"
             style="fill:#63baea;fill-opacity:1;fill-rule:nonzero;stroke:none"
             id="path6043" />
        </g>
        <g
           id="g6045"
           transform="translate(929.452,486.8883)">
          <path
             d="m 0,0 c 0,0 0.682,-7.982 4.562,-9.511 1.728,-0.681 5.352,0.938 6.232,2.35 1.516,2.439 1.256,10.986 1.256,10.986 z"
             style="fill:#63baea;fill-opacity:1;fill-rule:nonzero;stroke:none"
             id="path6047" />
        </g>
        <g
           id="g6049"
           transform="translate(911.4033,493.6514)">
          <path
             d="M 0,0 C 0,0 5.558,1.207 5.799,1.22 18.964,1.93 30.387,-2.547 30.387,-2.547 L 15.251,-7.259 Z"
             style="fill:#92d3ef;fill-opacity:1;fill-rule:nonzero;stroke:none"
             id="path6051" />
        </g>
        <g
           id="g6053"
           transform="translate(913.8427,493.403)">
          <path
             d="m 0,0 c 0,0 3.055,1.137 3.296,1.15 13.165,0.71 19.595,-1.911 19.595,-1.911 0,0 -3.641,-4.256 -5.018,-3.827 C 12.229,-2.824 0,0 0,0"
             style="fill:#63baea;fill-opacity:1;fill-rule:nonzero;stroke:none"
             id="path6055" />
        </g>
        <g
           id="g6057"
           transform="translate(925.3219,503.0023)">
          <path
             d="m 0,0 c 0.09,0.289 0.351,0.637 1.211,0.096 0.494,-0.311 1.8,-1.317 2.973,-1.413 1.171,-0.097 5.736,0.373 7.515,-0.532 1.779,-0.904 2.453,-1.222 2.996,-1.275 0.988,-0.096 0.997,-0.91 0.135,-1.314 -1.346,-0.631 -0.485,-4.009 -5.395,-6.432 -1.859,-0.918 -1.149,-2.307 -2.071,-2.391 -0.702,-0.063 -1.287,0.489 -1.658,0.733 -2.614,1.722 -9.81,3.694 -10.998,3.826 -2.869,0.318 -3.023,0.834 -2.486,1.211 0.536,0.378 2.112,2.612 3.68,3.242 C -2.529,-3.622 -0.285,-0.918 0,0"
             style="fill:#ffffff;fill-opacity:1;fill-rule:nonzero;stroke:none"
             id="path6059" />
        </g>
        <g
           id="g6061"
           transform="translate(942.1379,504.402)">
          <path
             d="m 0,0 c 0,-1.111 0.9,-2.012 2.012,-2.012 1.111,0 2.011,0.901 2.011,2.012 0,1.112 -0.9,2.013 -2.011,2.013 C 0.9,2.013 0,1.112 0,0"
             style="fill:#f8b55b;fill-opacity:1;fill-rule:nonzero;stroke:none"
             id="path6063" />
        </g>
        <g
           id="g6065"
           transform="translate(942.1628,504.701)">
          <path
             d="m 0,0 c 0.309,-0.712 1.017,-1.211 1.843,-1.211 1.011,0 1.844,0.747 1.987,1.717 C 3.879,0.394 3.917,0.275 3.946,0.152 3.948,0.114 3.951,0.075 3.951,0.036 c 0,-1.111 -0.901,-2.012 -2.012,-2.012 -0.954,0 -1.751,0.665 -1.958,1.556 -0.002,0.04 -0.006,0.08 -0.006,0.121 0,0.102 0.01,0.201 0.025,0.299"
             style="fill:#eb9c38;fill-opacity:1;fill-rule:nonzero;stroke:none"
             id="path6067" />
        </g>
        <g
           id="g6069"
           transform="translate(939.6666,499.0814)">
          <path
             d="m 0,0 c -1.275,-0.096 -3.443,-0.988 -3.984,-2.454 -0.543,-1.467 -3.189,-3.73 -2.902,-5.26 0.415,0.669 0.861,1.721 1.817,1.912 0.957,0.191 3.475,2.136 3.634,3.443 C -1.275,-1.052 0,0 0,0"
             style="fill:#d3d2d3;fill-opacity:1;fill-rule:nonzero;stroke:none"
             id="path6071" />
        </g>
        <g
           id="g6073"
           transform="translate(881.178,487.0514)">
          <path
             d="m 0,0 c -0.209,-0.119 19.484,-22.844 22.612,-21.625 3.129,1.222 4.17,1.503 7.07,2.343 2.899,0.841 5.036,2.439 8.85,2.972 3.815,0.534 9.386,2.899 9.921,3.815 0.228,0.611 -0.84,3.671 -0.84,3.671 L 24.188,6.894 c 0,0 -3.827,-0.69 -5.659,-1.758 C 16.698,4.067 22.853,5.759 20.487,4.843 18.121,3.927 11.318,2.405 8.571,2.176 5.824,1.948 2.764,1.58 0,0"
             style="fill:#1d8fdb;fill-opacity:1;fill-rule:nonzero;stroke:none"
             id="path6075" />
        </g>
        <g
           id="g6077"
           transform="translate(886.1196,476.5806)">
          <path
             d="m 0,0 c 6.189,-5.922 13.251,1.245 16.15,1.857 2.899,0.609 0.664,-9.601 3.793,-8.381 3.128,1.223 -1.217,7.834 1.683,8.673 2.9,0.84 5.168,-6.039 8.982,-5.506 3.816,0.535 1.503,7.476 1.085,8.451 -2.124,4.956 -6.415,7.163 -8.907,8.679 -2.286,1.39 -5.116,2.425 -9.199,1.834 C 11.489,15.303 6.377,12.875 3.63,12.647 0.883,12.418 -9.188,8.792 0,0"
             style="fill:#1d8fdb;fill-opacity:1;fill-rule:nonzero;stroke:none"
             id="path6079" />
        </g>
        <g
           id="g6081"
           transform="translate(920.4227,473.9323)">
          <path
             d="m 0,0 c 0,0 0.076,-1.763 1.38,-1.688 1.306,0.077 8.29,2.652 8.444,3.573 0.154,0.921 -0.901,8.655 -2.608,11.74 -0.919,1.66 -3.607,3.683 -6.829,4.295 -3.223,0.616 -8.732,2.291 -10.348,2.39 -4.522,0.276 -10.531,-0.469 -10.069,-1.695 1.884,-0.059 3.574,0.57 7.987,-1.307 2.194,-0.933 8.502,-5.223 9.661,-7.52 C -0.327,5.712 -0.077,2.149 0,0"
             style="fill:#e8e8e8;fill-opacity:1;fill-rule:nonzero;stroke:none"
             id="path6083" />
        </g>
        <g
           id="g6085"
           transform="translate(921.1117,476.7504)">
          <path
             d="m 0,0 c 0.38,-0.744 1.769,-1.378 3.074,-1.303 1.305,0.078 3.534,1.272 3.902,2.131 0.709,1.655 0.011,8.137 -0.449,9.978 -0.46,1.841 -3.768,3.735 -6.812,4.958 -3.753,1.507 -8.166,2.824 -9.782,2.922 -4.523,0.278 -10.949,-1.818 -10.727,-2.9 1.63,0 3.649,0.58 8.062,-1.296 2.194,-0.933 8.972,-3.443 10.13,-5.741 C -0.545,4.673 -0.979,1.915 0,0"
             style="fill:#ffffff;fill-opacity:1;fill-rule:nonzero;stroke:none"
             id="path6087" />
        </g>
        <g
           id="g6089"
           transform="translate(898.8592,488.2968)">
          <path
             d="M 0,0 C 0,0 4.12,-0.765 7.401,-4.121 5.951,-3.207 0,0 0,0"
             style="fill:#1787c6;fill-opacity:1;fill-rule:nonzero;stroke:none"
             id="path6091" />
        </g>
        <g
           id="g6093"
           transform="translate(899.6918,489.2065)">
          <path
             d="M 0,0 C 0,0 5.882,-0.966 8.955,-4.653 8.077,-2.633 5.356,0.877 0.088,2.195 1.142,1.054 4.302,0.613 0,0"
             style="fill:#1787c6;fill-opacity:1;fill-rule:nonzero;stroke:none"
             id="path6095" />
        </g>
        <g
           id="g6097"
           transform="translate(903.2324,491.0168)">
          <path
             d="M 0,0 C 0,0 9.217,-0.878 13.607,-10.535 10.008,-6.761 9.13,-3.95 0,0"
             style="fill:#1787c6;fill-opacity:1;fill-rule:nonzero;stroke:none"
             id="path6099" />
        </g>
        <g
           id="g6101"
           transform="translate(878.2619,493.786)">
          <path
             d="M 0,0 0.958,0.257 2.484,0.072 2.501,-1.036 1.481,-1.384 0.086,-1.194 Z"
             style="fill:#d5870d;fill-opacity:1;fill-rule:nonzero;stroke:none"
             id="path6103" />
        </g>
        <g
           id="g6105"
           transform="translate(878.2619,493.786)">
          <path
             d="m 0,0 1.437,-0.165 0.226,-17.944 -0.916,0.264 z"
             style="fill:#ad6319;fill-opacity:1;fill-rule:nonzero;stroke:none"
             id="path6107" />
        </g>
        <g
           id="g6109"
           transform="translate(879.6985,493.6208)">
          <path
             d="M 0,0 1.047,0.237 0.963,-17.629 0.226,-17.944 Z"
             style="fill:#844b16;fill-opacity:1;fill-rule:nonzero;stroke:none"
             id="path6111" />
        </g>
        <g
           id="g6113"
           transform="translate(877.4036,495.3521)">
          <path
             d="m 0,0 c 0,-1.11 0.9,-2.011 2.011,-2.011 1.112,0 2.012,0.901 2.012,2.011 0,1.112 -0.9,2.013 -2.012,2.013 C 0.9,2.013 0,1.112 0,0"
             style="fill:#f8b55b;fill-opacity:1;fill-rule:nonzero;stroke:none"
             id="path6115" />
        </g>
        <g
           id="g6117"
           transform="translate(877.428,495.6514)">
          <path
             d="m 0,0 c 0.31,-0.712 1.017,-1.211 1.843,-1.211 1.012,0 1.844,0.747 1.987,1.717 C 3.88,0.393 3.918,0.275 3.946,0.152 3.948,0.113 3.951,0.075 3.951,0.035 c 0,-1.11 -0.901,-2.011 -2.012,-2.011 -0.954,0 -1.751,0.665 -1.958,1.555 -0.002,0.041 -0.005,0.081 -0.005,0.122 0,0.102 0.009,0.201 0.024,0.299"
             style="fill:#eb9c38;fill-opacity:1;fill-rule:nonzero;stroke:none"
             id="path6119" />
        </g>
        <g
           id="g6121"
           transform="translate(902.5344,485.8026)">
          <path
             d="M 0,0 0.968,0.224 2.486,-0.014 2.465,-1.121 1.432,-1.433 0.046,-1.195 Z"
             style="fill:#d5870d;fill-opacity:1;fill-rule:nonzero;stroke:none"
             id="path6123" />
        </g>
        <g
           id="g6125"
           transform="translate(879.7137,491.5601)">
          <path
             d="M 0,0 0.876,0.267 23.93,-7.216 22.938,-7.673 Z"
             style="fill:#fbcf93;fill-opacity:1;fill-rule:nonzero;stroke:none"
             id="path6127" />
        </g>
        <g
           id="g6129"
           transform="translate(879.7137,491.5601)">
          <path
             d="m 0,0 0.218,-15.879 22.683,-11.064 0.037,19.27 z"
             style="fill:#f8b55b;fill-opacity:1;fill-rule:nonzero;stroke:none"
             id="path6131" />
        </g>
        <g
           id="g6133"
           transform="translate(879.7137,491.5601)">
          <path
             d="m 0,0 0.218,-15.879 22.683,-11.064 0.037,19.27 c 0,0 -1.423,-16.609 -10.214,-13.271 C 0.516,-16.308 0,0 0,0"
             style="fill:#f8b55b;fill-opacity:1;fill-rule:nonzero;stroke:none"
             id="path6135" />
        </g>
        <g
           id="g6137"
           transform="translate(902.5344,485.8026)">
          <path
             d="m 0,0 1.43,-0.215 -0.666,-21.151 -0.911,0.174 z"
             style="fill:#ad6319;fill-opacity:1;fill-rule:nonzero;stroke:none"
             id="path6139" />
        </g>
        <g
           id="g6141"
           transform="translate(903.9648,485.5878)">
          <path
             d="M 0,0 1.056,0.201 0.079,-20.864 -0.667,-21.151 Z"
             style="fill:#844b16;fill-opacity:1;fill-rule:nonzero;stroke:none"
             id="path6143" />
        </g>
        <g
           id="g6145"
           transform="translate(901.8369,486.7927)">
          <path
             d="m 0,0 c 0,-1.11 0.9,-2.011 2.012,-2.011 1.111,0 2.011,0.901 2.011,2.011 0,1.112 -0.9,2.013 -2.011,2.013 C 0.9,2.013 0,1.112 0,0"
             style="fill:#f8b55b;fill-opacity:1;fill-rule:nonzero;stroke:none"
             id="path6147" />
        </g>
        <g
           id="g6149"
           transform="translate(901.8615,487.0922)">
          <path
             d="m 0,0 c 0.31,-0.712 1.018,-1.211 1.844,-1.211 1.011,0 1.844,0.747 1.986,1.717 C 3.88,0.394 3.918,0.275 3.946,0.153 3.948,0.113 3.951,0.076 3.951,0.036 c 0,-1.111 -0.9,-2.012 -2.011,-2.012 -0.955,0 -1.751,0.665 -1.958,1.555 -0.002,0.041 -0.007,0.081 -0.007,0.122 0,0.102 0.011,0.201 0.025,0.299"
             style="fill:#eb9c38;fill-opacity:1;fill-rule:nonzero;stroke:none"
             id="path6151" />
        </g>
        <g
           id="g6153"
           style="display:none">
          <g
             id="g6155" />
          <g
             id="g6171">
            <g
               clip-path="url(#clipPath6159)"
               opacity="0.5"
               id="g6169">
              <g
                 transform="translate(746.3694,415.1517)"
                 id="g6163">
                <path
                   d="m 0,0 h -73.522 c -4.551,0 -8.274,3.724 -8.274,8.275 v 113.007 c 0,4.551 3.723,8.274 8.274,8.274 H 0 c 4.551,0 8.275,-3.723 8.275,-8.274 V 8.275 C 8.275,3.724 4.551,0 0,0"
                   style="fill:#ffffff;fill-opacity:1;fill-rule:nonzero;stroke:none"
                   id="path6161" />
              </g>
              <g
                 transform="translate(746.3694,415.1517)"
                 id="g6167">
                <path
                   d="m 0,0 h -73.522 c -4.551,0 -8.274,3.724 -8.274,8.275 v 113.007 c 0,4.551 3.723,8.274 8.274,8.274 H 0 c 4.551,0 8.275,-3.723 8.275,-8.274 V 8.275 C 8.275,3.724 4.551,0 0,0 Z"
                   style="fill:none;stroke:#286fb5;stroke-width:0.796;stroke-linecap:butt;stroke-linejoin:miter;stroke-miterlimit:10;stroke-dasharray:none;stroke-opacity:1"
                   id="path6165" />
              </g>
            </g>
          </g>
        </g>
      </g>
    </g>
  </g>
</svg>
