<svg width="52" height="56" viewBox="0 0 52 56" fill="none" xmlns="http://www.w3.org/2000/svg">
<path d="M31.5274 8.32478C32.1981 5.46987 30.4274 2.61183 27.5725 1.94116C24.7175 1.27049 21.8595 3.04118 21.1888 5.89609C20.5182 8.75101 22.2889 11.6091 25.1438 12.2797C27.9987 12.9504 30.8567 11.1797 31.5274 8.32478Z" stroke="#F6C446" stroke-width="1.75" stroke-miterlimit="10"/>
<path d="M51.44 49.96C57.23 57.29 -4.20001 57.6 1.24999 49.96C6.69999 42.32 7.08999 30.71 7.08999 30.71C7.08999 20.08 15.71 11.46 26.34 11.46C36.97 11.46 45.59 20.08 45.59 30.71C45.59 30.71 45.64 42.63 51.43 49.96H51.44Z" fill="#FFD460"/>
<path d="M48.03 50.89C48.03 52.38 38.33 53.59 26.37 53.59C14.41 53.59 4.70996 52.38 4.70996 50.89C4.70996 49.4 14.41 48.19 26.37 48.19C38.33 48.19 48.03 49.4 48.03 50.89Z" fill="#E1563A"/>
<path d="M22.54 48.22C22.54 48.22 22.54 48.28 22.54 48.31C22.54 50.43 24.26 52.14 26.37 52.14C28.48 52.14 30.2 50.42 30.2 48.31C30.2 48.28 30.2 48.25 30.2 48.22C28.96 48.19 27.68 48.18 26.37 48.18C25.06 48.18 23.78 48.2 22.54 48.22Z" fill="#F6C446"/>
<path d="M47.1801 41.13C46.9701 40.39 46.7801 39.65 46.6201 38.94C29.7701 35.3 13.7801 37.43 5.87006 38.99C5.70006 39.7 5.51005 40.42 5.30005 41.16C12.75 39.61 29.5701 37.09 47.1801 41.13Z" fill="#F6C446"/>
<path d="M48.54 44.98C48.24 44.27 47.96 43.55 47.72 42.84C28.92 38.02 10.71 41.44 4.78 42.83C4.54 43.53 4.27999 44.23 3.98999 44.93C7.89999 43.92 28.04 39.31 48.55 44.98H48.54Z" fill="#F6C446"/>
</svg>
