<svg width="59" height="56" viewBox="0 0 59 56" fill="none" xmlns="http://www.w3.org/2000/svg">
<path d="M42.6801 0.919983C37.0901 5.71998 31.8001 4.83001 29.2201 5.32001C26.7301 5.80001 25.4801 8.03001 26.1501 9.70001C26.7101 11.08 27.7101 11.7 29.3201 12.09C36.0901 13.73 45.8701 9.34001 51.5301 4.51001C51.5301 4.51001 43.7101 1.38999 42.6701 0.929993L42.6801 0.919983Z" fill="white" stroke="#1D1D1B" stroke-width="0.43"/>
<path d="M42.9799 2.33002C44.3899 2.91002 47.2799 4.06998 49.2199 4.84998C43.6699 8.80998 34.3199 13.25 28.1999 10.42C26.2399 9.51998 27.0299 6.71001 29.5499 6.51001C33.7899 6.19001 37.6699 6.54003 43.1399 2.34003M42.7799 0.909973C37.1899 5.70997 31.6699 4.68001 29.0899 5.20001C25.6299 5.89001 24.8899 8.71998 26.2899 10.6C26.9099 11.43 28.0699 11.97 29.5499 12.31C37.0399 14.04 45.9099 9.21 51.6299 4.5C51.6299 4.5 43.8099 1.37998 42.7699 0.919983L42.7799 0.909973Z" fill="#F26B73"/>
<path d="M42.9799 2.33002C44.3899 2.91002 47.2799 4.06998 49.2199 4.84998C43.6699 8.80998 34.3199 13.25 28.1999 10.42C26.2399 9.51998 27.0299 6.71001 29.5499 6.51001C33.7899 6.19001 37.6699 6.54003 43.1399 2.34003M42.7799 0.909973C37.1899 5.70997 31.6699 4.68001 29.0899 5.20001C25.6299 5.89001 24.8899 8.71998 26.2899 10.6C26.9099 11.43 28.0699 11.97 29.5499 12.31C37.0399 14.04 45.9099 9.21 51.6299 4.5C51.6299 4.5 43.8099 1.37998 42.7699 0.919983L42.7799 0.909973Z" stroke="#1D1D1B" stroke-width="0.42"/>
<path d="M49.14 5.33002C44.59 9.02002 34.15 13.91 27.97 10.89C25.53 9.70001 26.8 6.24003 29.32 6.03003C33.56 5.67003 38.11 6.08999 43.58 1.42999" stroke="#1D1D1B" stroke-width="0.27" stroke-linecap="round"/>
<path d="M16.2001 0.919983C21.7901 5.71998 27.0801 4.83001 29.6601 5.32001C32.1501 5.80001 33.4001 8.03001 32.7301 9.70001C32.1701 11.08 31.1701 11.7 29.5601 12.09C22.7901 13.73 13.0101 9.34001 7.3501 4.51001C7.3501 4.51001 15.1701 1.38999 16.2101 0.929993L16.2001 0.919983Z" fill="white" stroke="#1D1D1B" stroke-width="0.43"/>
<path d="M15.8401 2.34003C21.3101 6.54003 25.1901 6.19001 29.4301 6.51001C31.9501 6.70001 32.7401 9.50998 30.7801 10.42C24.6601 13.25 15.3101 8.80998 9.7601 4.84998C11.7101 4.06998 14.6001 2.91002 16.0001 2.33002M16.2101 0.919983C15.1701 1.38998 7.3501 4.5 7.3501 4.5C13.0701 9.21 21.9401 14.04 29.4301 12.31C30.9101 11.97 32.0701 11.43 32.6901 10.6C34.0901 8.71998 33.3501 5.90001 29.8901 5.20001C27.3101 4.68001 21.7901 5.70997 16.2001 0.909973L16.2101 0.919983Z" fill="#F26B73"/>
<path d="M15.8401 2.34003C21.3101 6.54003 25.1901 6.19001 29.4301 6.51001C31.9501 6.70001 32.7401 9.50998 30.7801 10.42C24.6601 13.25 15.3101 8.80998 9.7601 4.84998C11.7101 4.06998 14.6001 2.91002 16.0001 2.33002M16.2101 0.919983C15.1701 1.38998 7.3501 4.5 7.3501 4.5C13.0701 9.21 21.9401 14.04 29.4301 12.31C30.9101 11.97 32.0701 11.43 32.6901 10.6C34.0901 8.71998 33.3501 5.90001 29.8901 5.20001C27.3101 4.68001 21.7901 5.70997 16.2001 0.909973L16.2101 0.919983Z" stroke="#1D1D1B" stroke-width="0.42"/>
<path d="M15.4001 1.44C20.8701 6.1 25.4201 5.67998 29.6601 6.03998C32.1801 6.24998 33.4501 9.70002 31.0101 10.9C24.8301 13.92 14.3901 9.03003 9.84009 5.34003" stroke="#1D1D1B" stroke-width="0.27" stroke-linecap="round"/>
<path d="M57.0501 31.08C56.8901 27.08 56.0801 19.09 55.4201 15.14C54.7601 11.13 53.8901 7.76001 52.8301 4.95001L42.8301 0.940002C44.7901 8.4 40.1401 18.41 29.4701 18.48C18.8001 18.41 14.1501 8.4 16.1101 0.940002L6.11011 4.95001C5.05011 7.76001 4.18011 11.12 3.52011 15.14C2.87011 19.1 2.06011 27.08 1.89011 31.08C1.38011 43.61 12.7101 53.78 26.0501 53.78H32.8701C46.2201 53.78 57.5401 43.61 57.0301 31.08H57.0501Z" fill="white" stroke="#1D1D1B" stroke-width="0.42"/>
<path d="M14.41 1.59003C13.29 6.40003 14.98 11.32 17.43 14.45C20.25 18.07 24.52 20.08 29.46 20.11C34.4 20.08 38.67 18.07 41.49 14.45C43.93 11.32 45.41 7.22997 44.66 1.71997L42.82 0.940002C44.78 8.4 40.13 18.41 29.46 18.48C18.79 18.41 14.14 8.4 16.1 0.940002L14.41 1.59003Z" fill="#F26B73" stroke="#1D1D1B" stroke-width="0.42"/>
<path d="M14.9401 1.28003C13.8601 6.03003 15.4901 10.9 17.8501 14C20.5701 17.58 24.7001 19.56 29.4601 19.6C34.2301 19.57 38.3501 17.58 41.0701 14C43.4301 10.9 44.8501 6.85997 44.1301 1.40997" stroke="#1D1D1B" stroke-width="0.25" stroke-linecap="round"/>
<path d="M58.21 31.05C58.04 26.95 57.23 19 56.57 14.99C55.99 11.47 55.23 8.24001 54.29 5.57001L52.05 4.64001C53.18 7.47001 54.07 11.28 54.73 15.29C55.37 19.16 56.18 27.15 56.34 31.12C56.55 36.39 54.55 41.51 50.69 45.53C46.22 50.18 39.66 53.36 29.52 53.36C19.38 53.36 12.95 50.18 8.48004 45.53C4.62004 41.51 2.61004 36.39 2.83004 31.12C2.99004 27.15 3.81004 19.16 4.44004 15.29C5.16004 10.92 6.19004 7.23997 7.42004 4.40997L5.00004 5.28998C4.01004 8.05998 3.21004 11.29 2.60004 14.99C1.94004 18.99 1.13004 26.95 0.960041 31.05C0.730041 36.83 2.92004 42.44 7.13004 46.83C11.95 51.85 18.47 55.24 29.52 55.24C42 55.24 47.22 51.85 52.03 46.83C56.24 42.44 58.44 36.84 58.2 31.05H58.21Z" fill="#F26B73" stroke="#1D1D1B" stroke-width="0.42"/>
<path d="M6.74001 4.65002C5.49001 7.62002 4.52001 11.14 3.85001 15.19C3.21001 19.08 2.39001 27.11 2.23001 31.09C2.01001 36.53 4.08001 41.8 8.05001 45.93C13.3 51.4 20.12 53.94 29.52 53.94C38.92 53.94 45.94 51.32 51.12 45.93C55.09 41.79 57.16 36.52 56.94 31.09C56.78 27.1 55.96 19.08 55.32 15.19C54.65 11.15 53.76 7.71003 52.61 4.84003" stroke="#1D1D1B" stroke-width="0.25" stroke-linecap="round"/>
<path d="M30.78 7.56H27.48V9.88H30.78V7.56Z" stroke="#1D1D1B" stroke-width="0.28" stroke-linecap="round"/>
<path d="M29.5799 45.0301C29.5799 45.0301 33.1899 42.45 37.8799 38C40.8699 35.16 43.0599 28.5901 38.1799 25.8401C33.4399 23.1701 29.6099 29.45 29.6099 29.45C29.6099 29.45 25.7199 23.1701 20.9799 25.8401C16.0899 28.5901 18.2799 35.16 21.2799 38C25.9799 42.45 29.5799 45.0301 29.5799 45.0301Z" fill="#F26B73"/>
<path d="M17.3501 44.77C17.3501 44.77 19.7201 43.08 22.8001 40.15C24.7701 38.29 26.2101 33.97 22.9901 32.16C19.8701 30.41 17.3601 34.53 17.3601 34.53C17.3601 34.53 14.8101 30.41 11.6901 32.16C8.48012 33.97 9.92013 38.28 11.8801 40.15C14.9601 43.07 17.3301 44.77 17.3301 44.77H17.3501Z" fill="#F26B73" stroke="white" stroke-width="0.26"/>
<path d="M42.3601 44.77C42.3601 44.77 44.7301 43.08 47.8101 40.15C49.7801 38.29 51.2201 33.97 48.0001 32.16C44.8801 30.41 42.3701 34.53 42.3701 34.53C42.3701 34.53 39.8201 30.41 36.7001 32.16C33.4901 33.97 34.9301 38.28 36.8901 40.15C39.9701 43.07 42.3401 44.77 42.3401 44.77H42.3601Z" fill="#F26B73" stroke="white" stroke-width="0.26"/>
</svg>
