<?xml version="1.0" encoding="UTF-8" standalone="no"?>
<!-- Created with Inkscape (http://www.inkscape.org/) -->

<svg
   version="1.1"
   id="svg9"
   width="72.783813"
   height="66.62146"
   viewBox="0 0 72.783816 66.62146"
   sodipodi:docname="3-6_years_abc_page_1024x720.ai"
   xmlns:inkscape="http://www.inkscape.org/namespaces/inkscape"
   xmlns:sodipodi="http://sodipodi.sourceforge.net/DTD/sodipodi-0.dtd"
   xmlns="http://www.w3.org/2000/svg"
   xmlns:svg="http://www.w3.org/2000/svg">
  <defs
     id="defs13">
    <clipPath
       clipPathUnits="userSpaceOnUse"
       id="clipPath5419">
      <path
         d="M 0,720 H 1024 V 0 H 0 Z"
         id="path5417" />
    </clipPath>
    <clipPath
       clipPathUnits="userSpaceOnUse"
       id="clipPath5475">
      <path
         d="m 563.088,545.106 h 90.867 V 414.754 h -90.867 z"
         id="path5473" />
    </clipPath>
  </defs>
  <sodipodi:namedview
     id="namedview11"
     pagecolor="#ffffff"
     bordercolor="#000000"
     borderopacity="0.25"
     inkscape:showpageshadow="2"
     inkscape:pageopacity="0.0"
     inkscape:pagecheckerboard="0"
     inkscape:deskcolor="#d1d1d1"
     showgrid="false"
     inkscape:zoom="0.91259771"
     inkscape:cx="459.12892"
     inkscape:cy="493.64577"
     inkscape:window-width="2155"
     inkscape:window-height="1205"
     inkscape:window-x="0"
     inkscape:window-y="25"
     inkscape:window-maximized="0"
     inkscape:current-layer="g15" />
  <g
     id="g15"
     inkscape:groupmode="layer"
     inkscape:label="3-6_years_abc_page_1024x720"
     transform="matrix(1.3333333,0,0,-1.3333333,-885.77353,98.91864)">
    <g
       id="g5413"
       transform="translate(81.361153,-300.78972)"
       style="display:inline">
      <g
         id="g5415"
         clip-path="url(#clipPath5419)">
        <g
           id="g5421"
           transform="translate(603.0259,332.9857)">
          <path
             d="M 0,0 C 0.845,-2.846 1.924,-6.127 4.886,-7.407 5.167,-7.528 5.412,-7.114 5.129,-6.992 2.28,-5.761 1.275,-2.607 0.464,0.128 0.376,0.424 -0.088,0.298 0,0"
             style="fill:#b7963b;fill-opacity:1;fill-rule:nonzero;stroke:none"
             id="path5423" />
        </g>
        <g
           id="g5425"
           transform="translate(605.965,325.3137)">
          <path
             d="M 0,0 C -0.084,0.436 -0.152,0.875 -0.2,1.316 -0.234,1.625 -0.364,2.105 -0.081,2.334 0.17,2.537 0.553,2.573 0.861,2.603 1.294,2.644 1.733,2.638 2.164,2.576 2.292,2.557 2.422,2.608 2.459,2.744 2.49,2.857 2.421,3.021 2.292,3.039 1.78,3.113 1.266,3.131 0.752,3.072 0.344,3.025 -0.088,2.956 -0.412,2.681 -0.791,2.359 -0.738,1.873 -0.693,1.427 -0.639,0.906 -0.563,0.387 -0.464,-0.128 -0.405,-0.431 0.058,-0.303 0,0"
             style="fill:#b7963b;fill-opacity:1;fill-rule:nonzero;stroke:none"
             id="path5427" />
        </g>
        <g
           id="g5429"
           transform="translate(613.5184,353.5103)">
          <path
             d="M 0,0 C 9.937,-2.906 20.346,-12.956 15.446,-13.931 9.46,-15.125 4.854,-20.248 -5.083,-17.342 -15.02,-14.435 -21.934,-8.2 -20.529,-3.411 -19.124,1.379 -9.937,2.906 0,0"
             style="fill:#cd8435;fill-opacity:1;fill-rule:nonzero;stroke:none"
             id="path5431" />
        </g>
        <g
           id="g5433"
           transform="translate(615.394,347.4677)">
          <path
             d="m 0,0 v 0 c -8.059,7.939 -9.503,14.692 -9.76,16.788 -0.017,0.224 -0.035,0.447 -0.052,0.653 v 0.017 c -0.636,5.654 -5.447,10.053 -11.272,10.053 -6.272,0 -11.341,-5.086 -11.341,-11.341 0,-0.774 0.086,-1.547 0.223,-2.286 0.808,-5.516 4.382,-19.847 20.242,-30.054 1.598,-1.082 3.54,-1.718 5.619,-1.718 5.551,0 10.07,4.502 10.07,10.069 C 3.712,-4.657 2.268,-1.839 0,0"
             style="fill:#f4d983;fill-opacity:1;fill-rule:nonzero;stroke:none"
             id="path5435" />
        </g>
        <g
           id="g5437"
           transform="translate(620.363,361.7096)">
          <path
             d="m 0,0 c 10.046,-2.504 20.851,-12.127 15.994,-13.298 -5.933,-1.434 -10.329,-6.738 -20.375,-4.234 -10.046,2.504 -17.205,8.456 -15.994,13.298 C -19.164,0.608 -10.046,2.504 0,0"
             style="fill:#ee8500;fill-opacity:1;fill-rule:nonzero;stroke:none"
             id="path5439" />
        </g>
        <g
           id="g5441"
           transform="translate(587.8488,362.6408)">
          <path
             d="M 0,0 C -0.155,-0.206 -0.464,-0.223 -0.739,-0.206 -1.014,-0.189 -1.323,-0.12 -1.443,0.12 L -2.852,2.784 C -2.526,3.694 -1.22,3.712 -0.43,3.746 0.361,3.591 1.632,3.351 1.804,2.406 1.203,1.598 0.601,0.79 0,0"
             style="fill:#f7ad40;fill-opacity:1;fill-rule:nonzero;stroke:none"
             id="path5443" />
        </g>
        <g
           id="g5445"
           transform="translate(592.6774,366.3696)">
          <path
             d="m 0,0 c 0,-0.653 -0.516,-1.168 -1.168,-1.168 -0.653,0 -1.169,0.532 -1.169,1.168 0,0.636 0.533,1.168 1.169,1.168 C -0.533,1.186 0,0.653 0,0"
             style="fill:#221e1f;fill-opacity:1;fill-rule:nonzero;stroke:none"
             id="path5447" />
        </g>
        <g
           id="g5449"
           transform="translate(592.4025,366.8164)">
          <path
             d="m 0,0 c 0,-0.258 -0.206,-0.464 -0.464,-0.464 -0.258,0 -0.464,0.206 -0.464,0.464 0,0.258 0.206,0.464 0.464,0.464 C -0.206,0.464 0,0.258 0,0"
             style="fill:#ffffff;fill-opacity:1;fill-rule:nonzero;stroke:none"
             id="path5451" />
        </g>
        <g
           id="g5453"
           transform="translate(585.0651,366.5414)">
          <path
             d="m 0,0 c 0,-0.412 -0.326,-0.739 -0.739,-0.739 -0.412,0 -0.739,0.327 -0.739,0.739 0,0.412 0.327,0.739 0.739,0.739 C -0.344,0.739 0,0.412 0,0"
             style="fill:#221e1f;fill-opacity:1;fill-rule:nonzero;stroke:none"
             id="path5455" />
        </g>
        <g
           id="g5457"
           transform="translate(584.8932,366.8164)">
          <path
             d="m 0,0 c 0,-0.155 -0.138,-0.292 -0.292,-0.292 -0.172,0 -0.292,0.137 -0.292,0.292 0,0.155 0.137,0.292 0.292,0.292 C -0.138,0.292 0,0.155 0,0"
             style="fill:#ffffff;fill-opacity:1;fill-rule:nonzero;stroke:none"
             id="path5459" />
        </g>
        <g
           id="g5461"
           transform="translate(609.2954,333.0998)">
          <path
             d="M 0,0 C 0.845,-2.846 1.924,-6.127 4.886,-7.407 5.167,-7.528 5.412,-7.114 5.129,-6.992 2.28,-5.761 1.275,-2.607 0.463,0.128 0.376,0.424 -0.088,0.298 0,0"
             style="fill:#b7963b;fill-opacity:1;fill-rule:nonzero;stroke:none"
             id="path5463" />
        </g>
        <g
           id="g5465"
           transform="translate(612.2344,325.4278)">
          <path
             d="M 0,0 C -0.084,0.436 -0.152,0.875 -0.2,1.316 -0.234,1.625 -0.364,2.105 -0.081,2.334 0.17,2.537 0.553,2.573 0.861,2.603 1.294,2.644 1.734,2.638 2.164,2.576 2.292,2.557 2.422,2.608 2.459,2.744 2.49,2.857 2.421,3.021 2.292,3.039 1.78,3.113 1.266,3.131 0.752,3.072 0.344,3.025 -0.088,2.956 -0.412,2.681 -0.791,2.359 -0.738,1.873 -0.693,1.427 -0.639,0.906 -0.563,0.387 -0.464,-0.128 -0.405,-0.431 0.058,-0.303 0,0"
             style="fill:#b7963b;fill-opacity:1;fill-rule:nonzero;stroke:none"
             id="path5467" />
        </g>
        <g
           id="g5469"
           style="display:none">
          <g
             id="g5471" />
          <g
             id="g5487">
            <g
               clip-path="url(#clipPath5475)"
               opacity="0.5"
               id="g5485">
              <g
                 transform="translate(645.2825,415.1517)"
                 id="g5479">
                <path
                   d="m 0,0 h -73.522 c -4.551,0 -8.274,3.724 -8.274,8.275 v 113.007 c 0,4.551 3.723,8.274 8.274,8.274 H 0 c 4.551,0 8.275,-3.723 8.275,-8.274 V 8.275 C 8.275,3.724 4.551,0 0,0"
                   style="fill:#ffffff;fill-opacity:1;fill-rule:nonzero;stroke:none"
                   id="path5477" />
              </g>
              <g
                 transform="translate(645.2825,415.1517)"
                 id="g5483">
                <path
                   d="m 0,0 h -73.522 c -4.551,0 -8.274,3.724 -8.274,8.275 v 113.007 c 0,4.551 3.723,8.274 8.274,8.274 H 0 c 4.551,0 8.275,-3.723 8.275,-8.274 V 8.275 C 8.275,3.724 4.551,0 0,0 Z"
                   style="fill:none;stroke:#286fb5;stroke-width:0.796;stroke-linecap:butt;stroke-linejoin:miter;stroke-miterlimit:10;stroke-dasharray:none;stroke-opacity:1"
                   id="path5481" />
              </g>
            </g>
          </g>
        </g>
      </g>
    </g>
  </g>
</svg>
