<svg version="1.2" xmlns="http://www.w3.org/2000/svg" viewBox="0 0 73 40" width="73" height="40">
	<title>&lt;Group&gt;</title>
	<style>
		.s0 { fill: #ffd600 } 
		.s1 { fill: #e7a400 } 
		.s2 { fill: #d8caa2 } 
		.s3 { fill: #e5d8b1 } 
		.s4 { fill: #fcf2d5 } 
		.s5 { fill: #e7dbb8 } 
		.s6 { fill: #f1e7c5 } 
		.s7 { fill: #c8b98c } 
		.s8 { fill: #bbaa7d } 
		.s9 { fill: #ac9c71 } 
		.s10 { fill: #fcf6e6 } 
		.s11 { fill: #397563 } 
		.s12 { fill: #549885 } 
		.s13 { fill: #7eb6a6 } 
	</style>
	<g id="&lt;Group&gt;">
		<g id="&lt;Group&gt;">
			<path id="&lt;Path&gt;" class="s0" d="m65.9 14.4c0 0 4 0.4 5.7 0.7 1.4 0.3 1.4 1.2 0.3 2.5-1.2 1.3-17.8 17.8-19.2 19.1-1.2 1.1-1.8 1.3-3 1.1-1.3-0.1-18.9-3.3-21.9-3.9-0.8 0.8-2.2 1.7-4.6 1.3-2.7-0.5-3.2-2.3-3.2-2.3 0 0-15.9-2.5-17.7-2.9-1.8-0.4-1.5-2-0.4-3 1.1-0.9 2.4-1.8 3.8-3.1z"/>
			<path id="&lt;Path&gt;" class="s1" d="m68.6 15.3c0 0 2.6 0.2 2.6 0.7 0.1 0.5-19.8 19.9-20.3 20.3-0.6 0.4-47.8-7.6-48.7-8-0.8-0.5 2.8-3.2 2.9-3.2z"/>
			<g id="&lt;Group&gt;">
				<path id="&lt;Path&gt;" class="s2" d="m19.7 21.5c4.3 2.6 4.6 9 4.6 9l-0.5 0.5c0 0-15.1-2.5-21.1-3.3 3.4-3 2.8-5.8 2.8-5.8 0 0 9.9-3 14.2-0.4z"/>
			</g>
			<g id="&lt;Group&gt;">
				<path id="&lt;Path&gt;" class="s3" d="m50.4 35.7l-26.6-4.7c0 0 0-0.8 1.4-2.8 1.3-2 5.9-6.4 11.3-4.7 5.3 1.8 10.9 5.7 10.9 5.7z"/>
			</g>
			<g id="&lt;Group&gt;">
				<path id="&lt;Path&gt;" class="s4" d="m5.5 21.9c6.3-5.1 22.5-20.8 22.5-20.8 0 0 4 1.7 6.3 1 5.1-1.7 8.2-2.9 11.4 2.4-6.1 8.1-21.4 26-21.4 26 0 0-1.8-6.8-7.3-8.5-5.5-1.8-6.8 2.6-11.5-0.1z"/>
			</g>
			<g id="&lt;Group&gt;">
				<path id="&lt;Path&gt;" class="s5" d="m7 21.4c4.8-2.4 22.2-0.5 26.5-5 8.6-9.1-5.4-14.6-5.4-14.6 0 0 4.1 1.5 6.4 0.8 5.2-1.6 7.9-2 10.8 2.5-6.1 8.2-20.7 25-20.7 25 0 0-1.6-6.9-7.1-8.7-5.5-1.7-6.6 1.9-10.5 0z"/>
			</g>
			<g id="&lt;Group&gt;">
				<path id="&lt;Path&gt;" class="s4" d="m24.3 30.5c0-1.5 3.6-7 8.1-12 4.5-4.9 13.3-14 13.3-14 0 0 3-3.7 8.1-1.6 5.1 2.2 7.2 6.4 14.8 6.4-7.6 5.4-21.2 19.9-21.2 19.9 0 0-3.5-0.2-7.1-2.6-5.8-3.9-11.9-3.2-16 3.9z"/>
			</g>
			<g id="&lt;Group&gt;">
				<path id="&lt;Path&gt;" class="s6" d="m24.3 30.5c0-1.5 3.6-7 8.1-12 4.5-4.9 13.3-14 13.3-14 0 0 3-3.7 8.1-1.6 5.1 2.2 7.2 6.4 14.8 6.4-2.9 2-18.3-7.4-29.4 3.1-5.9 5.6 7.4 16.1 7.4 16.1 0 0-3-0.5-6.6-2.9-5.8-3.9-12.2-2.8-15.7 4.9z"/>
			</g>
			<path id="&lt;Path&gt;" class="s0" d="m21.7 32.6c0.5-0.5 0.5-1.7 2.2-1.4 1.3 0.2 1.9 2.2 1.9 2.2 0 0 0.7 0.9 1.4-0.3-1.2-5.6-6.4-4.2-6.7-0.8 0 0.8 0.8 0.9 1.2 0.3z"/>
			<g id="&lt;Group&gt;">
				<path id="&lt;Path&gt;" class="s7" d="m58.8 11.4q-0.1 0-0.2-0.1c-6.5-4.6-13.1-3.9-13.1-3.9-0.2 0-0.4-0.2-0.4-0.4 0-0.2 0.1-0.3 0.3-0.4 0.1 0 6.8-0.7 13.5 4.1 0.2 0.1 0.2 0.3 0.1 0.5q-0.1 0.2-0.2 0.2z"/>
				<path id="&lt;Path&gt;" class="s7" d="m55.9 14.6q0 0-0.1-0.1c-6.5-4.6-13.1-3.9-13.1-3.9-0.2 0-0.4-0.1-0.4-0.3 0-0.2 0.1-0.4 0.3-0.4 0 0 6.8-0.8 13.5 4 0.2 0.1 0.2 0.3 0.1 0.5q-0.1 0.2-0.3 0.2z"/>
				<path id="&lt;Path&gt;" class="s7" d="m53.1 17.8q-0.1 0-0.1 0c-6.5-4.7-13.1-4-13.2-4-0.1 0.1-0.3-0.1-0.3-0.3 0-0.2 0.1-0.4 0.2-0.4 0.1 0 6.9-0.7 13.6 4 0.1 0.2 0.2 0.4 0.1 0.6q-0.1 0.1-0.3 0.1z"/>
				<path id="&lt;Path&gt;" class="s7" d="m50.3 21.1q-0.1-0.1-0.1-0.1c-6.5-4.6-13.1-3.9-13.2-3.9-0.2 0-0.3-0.2-0.3-0.4-0.1-0.2 0.1-0.4 0.2-0.4 0.1 0 6.9-0.7 13.6 4.1 0.1 0.1 0.2 0.3 0.1 0.5q-0.1 0.2-0.3 0.2z"/>
				<path id="&lt;Path&gt;" class="s7" d="m47.5 24.3q-0.1 0-0.2-0.1c-6.5-4.6-13-3.9-13.1-3.9-0.2 0-0.3-0.1-0.4-0.3 0-0.2 0.1-0.4 0.3-0.4 0.1-0.1 6.9-0.8 13.6 4 0.1 0.1 0.2 0.3 0.1 0.5q-0.1 0.2-0.3 0.2z"/>
			</g>
			<g id="&lt;Group&gt;">
				<path id="&lt;Path&gt;" class="s7" d="m39.1 8.5q-0.1 0-0.1-0.1c-6.2-4.6-12.6-4.2-12.7-4.1-0.1 0-0.3-0.2-0.3-0.4 0-0.2 0.1-0.4 0.3-0.4 0 0 6.6-0.4 13 4.4 0.1 0.1 0.2 0.3 0.1 0.4q-0.1 0.2-0.3 0.2z"/>
				<path id="&lt;Path&gt;" class="s7" d="m36.3 11.5q-0.1 0-0.1 0c-6.2-4.7-12.6-4.2-12.6-4.2-0.2 0-0.4-0.2-0.4-0.4 0-0.2 0.1-0.3 0.3-0.3 0 0 6.6-0.5 13 4.3 0.1 0.1 0.2 0.3 0.1 0.5q-0.1 0.2-0.3 0.1z"/>
				<path id="&lt;Path&gt;" class="s7" d="m33.5 14.6q-0.1 0-0.1-0.1c-6.2-4.7-12.6-4.2-12.6-4.2-0.2 0-0.4-0.1-0.4-0.3 0-0.2 0.1-0.4 0.3-0.4 0 0 6.6-0.5 13 4.3 0.1 0.1 0.2 0.3 0.1 0.5q-0.1 0.2-0.3 0.2z"/>
				<path id="&lt;Path&gt;" class="s7" d="m30.7 17.6q-0.1 0-0.1-0.1c-6.2-4.6-12.6-4.2-12.6-4.2-0.2 0.1-0.4-0.1-0.4-0.3 0-0.2 0.1-0.4 0.3-0.4 0.1 0 6.6-0.5 13 4.3 0.1 0.2 0.2 0.4 0.1 0.5q-0.1 0.2-0.3 0.2z"/>
				<path id="&lt;Path&gt;" class="s7" d="m27.9 20.6q-0.1 0-0.1 0c-6.2-4.7-12.6-4.2-12.6-4.2-0.2 0-0.4-0.2-0.4-0.4 0-0.2 0.1-0.3 0.3-0.3 0.1-0.1 6.6-0.5 13 4.3 0.1 0.1 0.2 0.3 0.1 0.5q-0.1 0.2-0.3 0.1z"/>
			</g>
			<g id="&lt;Group&gt;">
				<path id="&lt;Path&gt;" class="s8" d="m9.4 24.2c3.8-1 8.1-3 12.3 4.2-5-6.5-12.3-4.2-12.3-4.2z"/>
			</g>
			<path id="&lt;Path&gt;" class="s8" d="m5.7 26.5c0 0 7.8-1.7 15.5 2.8-6.5-2.6-15.5-2.8-15.5-2.8z"/>
			<path id="&lt;Path&gt;" class="s8" d="m27.4 28.3c1.5-1.7 4.5-4.3 12.2-0.6-9-2.3-12.2 0.6-12.2 0.6z"/>
			<path id="&lt;Path&gt;" class="s8" d="m28.5 30.1c0 0 6.9-1.6 16.4 2.6-7.9-2.2-16.4-2.6-16.4-2.6z"/>
			<g id="&lt;Group&gt;">
				<path id="&lt;Path&gt;" class="s7" d="m68.6 9.3c-0.3 1.3 0.1 4.2 1.7 6.8-4.4 4-19.9 19.6-19.9 19.6 0 0-2-1.3-3-6.5 4.9-5.7 21.2-19.9 21.2-19.9z"/>
			</g>
			<path id="&lt;Path&gt;" class="s9" d="m49.9 28.6c0 0 10.9-11.6 16.4-14.9-3.8 3.5-16.4 14.9-16.4 14.9z"/>
			<path id="&lt;Path&gt;" class="s9" d="m57.4 24.4c0 0 7.4-7 10.3-9-4.2 4.3-10.3 9-10.3 9z"/>
			<path id="&lt;Path&gt;" class="s9" d="m52.5 30.7c0 0 6.1-6.3 10-9-2.1 2.6-10 9-10 9z"/>
			<g id="&lt;Group&gt;">
				<path id="&lt;Path&gt;" class="s10" d="m47.4 29.2c1.6-2.6 17.8-18.2 21.2-19.9-3.1 2.5-21.2 19.9-21.2 19.9z"/>
			</g>
			<g id="&lt;Group&gt;">
				<g id="&lt;Group&gt;">
					<path id="&lt;Path&gt;" class="s11" d="m35.6 30.3c0 0.3 0.1 0.6 0.1 0.7-0.4 0.7-1.6 4.6-2.2 8.2-0.1-0.2-0.2-0.3-0.3-0.6-0.4-1.8-0.8-4.5-0.8-4.5-1.1 1.4-1.6 2.2-2.3 3.4-0.1-0.3-0.2-0.7-0.2-0.7 0 0 3.7-6.5 5.7-6.5z"/>
				</g>
				<g id="&lt;Group&gt;">
					<path id="&lt;Path&gt;" class="s12" d="m35.6 30.3c-0.4 0.7-1.8 4.5-2.4 8.3-0.4-1.6-0.8-5.2-0.8-5.2-1.2 1.5-1.7 2.3-2.5 3.4 0.4-4.2 2-7.1 2-7.1 0 0 1.7-0.3 3.7 0.6z"/>
				</g>
				<g id="&lt;Group&gt;">
					<g id="&lt;Group&gt;">
						<path id="&lt;Path&gt;" class="s13" d="m33.5 37.3l-0.7-0.9c-0.2-1.5-0.4-3-0.4-3q-0.5 0.7-0.9 1.2l-0.9-1.3q0.1-0.6 0.3-1.2l3.2 2.5q-0.4 1.3-0.6 2.7z"/>
						<path id="&lt;Path&gt;" class="s13" d="m35.3 31q-0.3 0.7-0.6 1.8l-3.7-0.8q0.1-0.5 0.3-0.8z"/>
						<path id="&lt;Path&gt;" class="s13" d="m30.5 36l-0.4-0.5q0.1-0.3 0.1-0.7c0.2 0.2 0.5 0.4 0.7 0.6q-0.2 0.3-0.4 0.6z"/>
					</g>
				</g>
			</g>
			<g id="&lt;Group&gt;">
				<path id="&lt;Path&gt;" class="s4" d="m47.4 29.2c0.8 0.7 1.2 3.8 3 6.5-2.6-2-3-6.5-3-6.5z"/>
			</g>
		</g>
	</g>
</svg>