<svg width="38" height="53" viewBox="0 0 38 53" fill="none" xmlns="http://www.w3.org/2000/svg">
<path d="M34.3301 41.66C34.2301 41.21 34.11 40.75 33.98 40.31C33.29 38.11 32.57 35.97 32.49 35.98C27.01 36.73 21.44 37.83 16.35 36.21C15.39 39.43 12.9001 44.7 8.83006 44.62C6.70006 44.58 2.72005 42.57 1.13005 44.46C-0.349949 46.21 0.370075 50.18 2.28007 51.29C2.90007 51.65 3.62007 51.9 4.21007 51.78C4.33007 51.76 4.17003 50.47 4.17003 50.47L7.04002 50.38L7.09007 52.02C8.29007 52 9.50006 51.88 10.7001 51.73L10.56 50.11L13.42 49.87L13.55 51.36C13.86 51.32 14.1601 51.29 14.4501 51.26C15.4301 51.16 16.4 51.05 17.37 50.93L17.1401 49.15L19.98 48.79L20.2101 50.57C21.3001 50.43 22.4 50.29 23.49 50.17L23.4001 48.79L26.2601 48.61L26.41 50.98H34.93V41.67H34.3401L34.3301 41.66Z" fill="#A34F4D"/>
<path d="M16.1501 0.609995C16.1501 0.609995 18.2701 22.81 17.5101 27.05C16.7501 31.29 15.3901 39.93 8.19012 41.03C0.990125 42.13 0.390137 43.32 0.390137 45.27C0.390137 47.61 11.3201 48.91 18.4401 46.29C22.6301 44.74 25.8401 45.22 30.1001 45.19C33.4201 45.17 35.6601 44.11 34.7001 40.27C33.0901 33.83 34.6201 30.27 35.3801 24.59C36.1401 18.91 38.0901 3.06999 37.3301 0.609995C37.3301 0.609995 16.6601 -0.150005 16.1501 0.609995Z" fill="#FDBB21"/>
<path d="M37.3701 6.11999C37.5401 3.45999 37.5701 1.37999 37.3301 0.609995C37.3301 0.609995 16.6601 -0.150005 16.1501 0.609995C16.1501 0.609995 16.3701 2.88999 16.6401 6.11999H37.3701Z" fill="#E2786F"/>
</svg>
