<svg width="37" height="60" viewBox="0 0 37 60" fill="none" xmlns="http://www.w3.org/2000/svg">
<path d="M19.25 0.839996C31.21 1.19 39.35 13.17 35.59 24.53L34.98 26.37C34.07 29.12 32.91 31.79 31.51 34.33L27.5 41.61H9.92L5.90999 34.33C4.50999 31.79 3.35002 29.13 2.44002 26.37L1.83003 24.53C-1.92997 13.17 6.2 1.19 18.17 0.839996C18.35 0.839996 18.54 0.839996 18.72 0.839996C18.9 0.839996 19.09 0.839996 19.27 0.839996H19.25Z" fill="#FFDC4D"/>
<path d="M26.59 42.65H10.83C10.2998 42.65 9.87 43.0798 9.87 43.61V44.16C9.87 44.6902 10.2998 45.12 10.83 45.12H26.59C27.1202 45.12 27.55 44.6902 27.55 44.16V43.61C27.55 43.0798 27.1202 42.65 26.59 42.65Z" fill="#29ABE2"/>
<path d="M26.59 45.96H10.83C10.2998 45.96 9.87 46.3898 9.87 46.92V47.47C9.87 48.0002 10.2998 48.43 10.83 48.43H26.59C27.1202 48.43 27.55 48.0002 27.55 47.47V46.92C27.55 46.3898 27.1202 45.96 26.59 45.96Z" fill="#29ABE2"/>
<path d="M26.59 49.27H10.83C10.2998 49.27 9.87 49.6998 9.87 50.23V50.78C9.87 51.3102 10.2998 51.74 10.83 51.74H26.59C27.1202 51.74 27.55 51.3102 27.55 50.78V50.23C27.55 49.6998 27.1202 49.27 26.59 49.27Z" fill="#29ABE2"/>
<path d="M9.87 50.51H27.55V52.6C27.55 56.39 24.48 59.46 20.69 59.46H16.73C12.94 59.46 9.87 56.39 9.87 52.6V50.51Z" fill="#29ABE2"/>
<mask id="mask0_30_499" style="mask-type:luminance" maskUnits="userSpaceOnUse" x="0" y="0" width="37" height="42">
<path d="M19.25 0.839996C31.21 1.19 39.35 13.17 35.59 24.53L34.98 26.37C34.07 29.12 32.91 31.79 31.51 34.33L27.5 41.61H9.92L5.90999 34.33C4.50999 31.79 3.35002 29.13 2.44002 26.37L1.83003 24.53C-1.92997 13.17 6.2 1.19 18.17 0.839996C18.35 0.839996 18.54 0.839996 18.72 0.839996C18.9 0.839996 19.09 0.839996 19.27 0.839996H19.25Z" fill="white"/>
</mask>
<g mask="url(#mask0_30_499)">
<path d="M15.88 44.96L13.64 28.24C13.52 27.37 13.08 26.56 12.36 26.06C11.99 25.8 11.52 25.6 10.93 25.53C8.90999 25.29 8.66998 26.9 8.66998 26.9C8.66998 26.9 8.29 28.49 10.51 29.44C13.67 30.81 21.2 26.34 21.2 23.04C21.2 20.24 18.7 20.24 18.7 20.24C18.7 20.24 16.2 20.12 16.2 23.04C16.2 26.34 23.73 30.8 26.89 29.44C29.1 28.48 28.73 26.9 28.73 26.9C28.73 26.9 28.49 25.3 26.47 25.53C25.88 25.6 25.41 25.8 25.04 26.06C24.32 26.56 23.87 27.37 23.76 28.24L21.52 44.96" stroke="#FDAA34" stroke-width="1.33" stroke-miterlimit="10"/>
</g>
</svg>
