<svg width="70" height="41" viewBox="0 0 70 41" fill="none" xmlns="http://www.w3.org/2000/svg">
<path d="M10.7701 23.01V22.36H8.46008C8.41008 22.57 8.36006 22.79 8.31006 23.01H10.7601H10.7701Z" fill="#5CBFAB"/>
<path d="M10.8 24.05V23.4H8.21002C8.18002 23.61 8.15 23.83 8.12 24.05H10.8Z" fill="#5CBFAB"/>
<path d="M10.81 25.1V24.45H8.03998C8.01998 24.66 7.99999 24.88 7.98999 25.1H10.82H10.81Z" fill="#5CBFAB"/>
<path d="M10.8199 26.15V25.5H7.93994C7.92994 25.71 7.91991 25.93 7.90991 26.15H10.8199Z" fill="#5CBFAB"/>
<path d="M10.83 27.2V26.55H7.89001C7.89001 26.76 7.88 26.98 7.87 27.2H10.83Z" fill="#5CBFAB"/>
<path d="M69.67 19.88V6.01999C69.67 5.40999 69.17 4.91 68.56 4.91H13.94V0.730011H10.43V4.91H9.53998C8.92998 4.91 8.42999 5.40999 8.42999 6.01999V18.14L8.20001 18.2C4.29001 18.32 2.43 19.83 1.56 23.17H3.87V23.82H1.41998C1.36998 24.05 1.32003 24.29 1.28003 24.54H3.87V25.19H1.19C1.16 25.42 1.12998 25.66 1.09998 25.91H3.87V26.56H1.03998C1.01998 26.8 0.99998 27.03 0.97998 27.28H3.85999V27.93H0.950012C0.940012 28.16 0.929983 28.41 0.919983 28.65H3.85999V29.3H0.900024C0.880024 30.09 0.859985 30.91 0.859985 31.8H0V33.62H10.18C10.16 33.41 10.15 33.21 10.15 33C10.15 28.75 13.61 25.29 17.86 25.29C22.11 25.29 25.57 28.75 25.57 33C25.57 33.21 25.55 33.42 25.54 33.62H49.43C49.41 33.41 49.4 33.21 49.4 33C49.4 28.75 52.86 25.29 57.1 25.29C61.34 25.29 64.81 28.75 64.81 33C64.81 33.21 64.8 33.42 64.78 33.62H68.56C69.17 33.62 69.67 33.12 69.67 32.51V24.88H22.2V23.14H69.67V21.55H22.2V19.9H69.67V19.88ZM58.75 9.10001H67.31V16.2H58.75V9.10001ZM46.79 9.10001H56.49V16.2H46.79V9.10001ZM34.83 9.10001H44.53V16.2H34.83V9.10001ZM22.87 9.10001H32.57V16.2H22.87V9.10001ZM13.37 18.03H9.15002V9.17001H13.37V18.03ZM17.53 23.81H15V9.17001H17.53V23.81ZM21.06 23.81H18.53V9.17001H21.06V23.81Z" fill="#FAC309"/>
<path d="M50.1699 32.97C50.1699 36.8 53.2799 39.91 57.1099 39.91C60.9399 39.91 64.0499 36.8 64.0499 32.97C64.0499 29.14 60.9499 26.03 57.1099 26.03C53.2699 26.03 50.1699 29.14 50.1699 32.97ZM60.45 32.97C60.45 34.81 58.9499 36.31 57.1099 36.31C55.2699 36.31 53.77 34.81 53.77 32.97C53.77 31.13 55.2699 29.63 57.1099 29.63C58.9499 29.63 60.45 31.13 60.45 32.97Z" fill="#4D4D4D"/>
<path d="M49.4 32.97C49.4 33.18 49.41 33.39 49.43 33.59C49.75 37.55 53.06 40.68 57.1 40.68C61.14 40.68 64.46 37.55 64.78 33.59C64.8 33.38 64.81 33.18 64.81 32.97C64.81 28.72 61.35 25.26 57.1 25.26C52.85 25.26 49.4 28.72 49.4 32.97ZM64.04 32.97C64.04 36.8 60.94 39.91 57.1 39.91C53.26 39.91 50.16 36.8 50.16 32.97C50.16 29.14 53.27 26.03 57.1 26.03C60.93 26.03 64.04 29.14 64.04 32.97Z" fill="white"/>
<path d="M53.76 32.97C53.76 34.81 55.26 36.31 57.1 36.31C58.94 36.31 60.44 34.81 60.44 32.97C60.44 31.13 58.94 29.63 57.1 29.63C55.26 29.63 53.76 31.13 53.76 32.97Z" fill="#F9A30B"/>
<path d="M10.9299 32.97C10.9299 36.8 14.0299 39.91 17.8699 39.91C21.7099 39.91 24.8099 36.8 24.8099 32.97C24.8099 29.14 21.6999 26.03 17.8699 26.03C14.0399 26.03 10.9299 29.14 10.9299 32.97ZM21.21 32.97C21.21 34.81 19.7099 36.31 17.8699 36.31C16.0299 36.31 14.53 34.81 14.53 32.97C14.53 31.13 16.0299 29.63 17.8699 29.63C19.7099 29.63 21.21 31.13 21.21 32.97Z" fill="#4D4D4D"/>
<path d="M10.16 32.97C10.16 33.18 10.17 33.39 10.19 33.59C10.51 37.55 13.82 40.68 17.86 40.68C21.9 40.68 25.22 37.55 25.54 33.59C25.55 33.38 25.57 33.18 25.57 32.97C25.57 28.72 22.11 25.26 17.86 25.26C13.61 25.26 10.15 28.72 10.15 32.97H10.16ZM24.8 32.97C24.8 36.8 21.69 39.91 17.86 39.91C14.03 39.91 10.92 36.8 10.92 32.97C10.92 29.14 14.02 26.03 17.86 26.03C21.7 26.03 24.8 29.14 24.8 32.97Z" fill="white"/>
<path d="M14.52 32.97C14.52 34.81 16.02 36.31 17.86 36.31C19.7 36.31 21.2 34.81 21.2 32.97C21.2 31.13 19.7 29.63 17.86 29.63C16.02 29.63 14.52 31.13 14.52 32.97Z" fill="#F9A30B"/>
<path d="M17.54 9.17001H15.01V23.81H17.54V9.17001Z" fill="#D4FAFF"/>
<path d="M21.06 9.17001H18.53V23.81H21.06V9.17001Z" fill="#D4FAFF"/>
<path d="M32.57 9.10001H22.87V16.2H32.57V9.10001Z" fill="#D4FAFF"/>
<path d="M44.5301 9.10001H34.8301V16.2H44.5301V9.10001Z" fill="#D4FAFF"/>
<path d="M56.4901 9.10001H46.79V16.2H56.4901V9.10001Z" fill="#D4FAFF"/>
<path d="M67.31 9.10001H58.75V16.2H67.31V9.10001Z" fill="#D4FAFF"/>
<path d="M69.6599 19.88H22.1899V21.53H69.6599V19.88Z" fill="black"/>
<path d="M69.6599 23.11H22.1899V24.85H69.6599V23.11Z" fill="black"/>
<path d="M13.37 9.17001H9.15002V18.03H13.37V9.17001Z" fill="#D4FAFF"/>
</svg>
