<svg width="60" height="66" viewBox="0 0 60 66" fill="none" xmlns="http://www.w3.org/2000/svg">
<path d="M57.7799 58.06C57.7799 61.35 44.7699 65.26 29.3999 65.26C14.0299 65.26 2.11985 61.35 2.11985 58.06C2.11985 57.23 0.929854 43.29 1.80985 40.22C3.50985 36.48 18.2898 38.39 29.4198 38.39C40.5498 38.39 56.0598 35.55 58.0998 40.41C58.9998 42.55 57.7799 57.32 57.7799 58.06Z" fill="url(#paint0_linear_30_4900)"/>
<g opacity="0.3">
<path d="M57.28 52.59C57.48 52.62 57.86 52.39 57.89 52.15C58.04 50.56 58.16 49.73 58.25 48.52C58.31 47.72 58.38 46.91 58.41 46.11C58.42 45.75 58.66 44 58.39 43.77C58.16 43.57 57.83 43.55 57.58 43.37C56.71 42.75 55.11 42.63 54.01 42.33C49.47 41.12 44.89 40.82 40.12 40.42C39.25 40.35 38.38 40.29 37.51 40.24C34.76 40.39 32 40.51 29.42 40.51C26.84 40.51 23.82 40.41 20.94 40.31C18.2 40.47 15.46 40.69 12.72 40.97C10.68 41.18 8.76003 41.58 6.83003 42.1C5.67003 42.41 2.73004 42.86 2.02004 43.63C1.77004 43.9 1.60001 44.22 1.49001 44.57C1.44001 46.25 1.53004 47.96 1.71004 49.64C1.79004 50.35 1.68003 51.23 1.89003 51.91C2.12003 52.65 2.76 52.49 3.04 51.88C3.38 51.15 3.36999 49.86 3.34999 49.06C3.34999 48.66 3.07003 46.81 3.70003 46.7C4.15003 46.63 4.49003 48.17 4.95003 48.41C5.69003 48.8 6.56 48.79 7.29 49.24C8.68 50.11 8.68 55.51 11.29 53.68C12.15 53.08 12.25 52.07 12.53 51.14C12.74 50.43 12.98 49.53 13.9 49.81C14.45 49.97 14.68 50.54 15.12 50.83C16.66 51.85 18.27 50.4 19.16 49.25C19.53 48.78 19.81 48.14 20.49 48.14C21.85 48.14 22.41 49.51 22.98 50.5C23.68 51.72 23.83 53.1 23.87 54.48C23.9 55.86 24.01 57.59 25.18 58.51C26.2 59.32 28.26 59.6 29.16 58.46C30.28 57.04 29.69 54.6 29.7 52.94C29.7 52.27 29.56 51.47 30.32 51.14C30.98 50.85 31.61 51.34 31.9 51.92C32.13 52.37 32.16 52.93 32.72 53.08C34.59 53.55 34.63 47.65 36.93 49.28C37.74 49.85 38.14 50.17 39.08 49.57C39.85 49.08 40.5 48.26 41.44 48.09C44.05 47.61 42.87 52.59 45.22 52.73C46.32 52.8 47.23 51 48.08 52.17C48.73 53.07 49.04 54.4 49.98 55.05C50.79 55.61 51.98 55.72 52.9 55.39C54.68 54.75 54.34 52.74 54.01 51.3C53.84 50.54 53.55 49.66 53.63 48.88C53.77 47.52 54.49 48.45 55.13 48.76C56.07 49.21 56.39 48.34 56.72 47.67C57.12 46.84 57.49 47.51 57.4 48.21C57.29 49.1 56.72 49.85 56.66 50.79C56.63 51.27 56.54 52.45 57.29 52.58L57.28 52.59Z" fill="url(#paint1_linear_30_4900)"/>
</g>
<path d="M58.71 39.04C59.38 40.67 58.83 42.96 58.64 44.65C58.47 46.08 58.09 47.61 58.52 49.02C58.68 49.54 59.2399 50.38 58.8699 50.94C58.5499 51.42 57.89 51.37 57.51 50.98C56.65 50.09 58.38 45.45 56.96 45.42C56.23 45.41 56.4199 46.25 56.3599 46.69C56.2999 47.13 56.22 47.95 55.59 47.97C54.93 47.99 55 47.24 54.82 46.78C54.0099 44.83 53.5099 47.1 53.4899 48.06C53.4499 49.61 54.0699 51.5 53.4699 52.96C52.8899 54.36 51.6399 54.95 50.3099 54.14C49.6899 53.76 49.28 53.22 49.01 52.56C48.8 52.04 48.69 50.96 48.14 50.64C47.44 50.23 46.77 50.89 46.14 51.14C43.4 52.23 44.0799 49.3 43.8499 47.73C43.6199 46.2 42.3299 45.81 41.0399 46.42C39.6599 47.07 38.9299 49.06 37.1099 48.64C36.4999 48.5 35.9 47.79 35.21 47.98C33.85 48.36 34.7199 50.91 32.9799 50.93C31.6699 50.95 31.0699 47.08 29.7499 49.38C29.2099 50.32 29.5599 51.57 29.6299 52.58C29.7199 53.86 29.79 55.45 29.26 56.64C28.22 58.98 25.5999 58.15 24.4699 56.4C23.0599 54.21 24.93 51.03 23.14 48.84C22.3 47.82 21.3199 46.5 19.8199 46.85C18.7499 47.1 18.1399 48.14 17.1699 48.59C15.8899 49.18 15.0899 48.35 13.8699 48.43C13.0499 48.48 12.5299 49.39 12.3799 50.07C12.1099 51.31 11.65 53.96 9.63996 52.63C8.12996 51.63 9.31991 48.8 7.65991 47.95C6.91991 47.57 5.95995 48.24 5.25995 47.64C4.60995 47.08 4.91993 45.87 4.17993 45.36C2.67993 44.32 2.70994 47.54 2.68994 48.28C2.66994 49.04 2.78992 53.04 1.16992 51.35C0.579924 50.73 0.989963 49.87 1.20996 49.2C2.21996 46.16 0.179956 41.09 1.88996 38.63C2.60996 37.6 5.55992 37 6.72992 36.57C8.66992 35.86 10.6 35.33 12.65 35.05C18.29 34.27 23.94 33.81 29.64 33.81C33.18 33.81 36.68 33.91 40.2 34.3C45 34.83 49.5999 35.24 54.1699 36.87C55.2699 37.26 56.89 37.43 57.76 38.27C58.08 38.58 58.5199 38.55 58.7299 39.06L58.71 39.04Z" fill="#3D150B"/>
<path d="M58.17 50.17C57.92 50.02 57.68 49.85 57.61 49.61C57.45 49.07 57.63 48.51 57.71 47.98C57.85 47.09 58.31 45.42 57.48 44.75C55.98 43.53 56.35 47.02 55.56 46.61C54.88 46.25 54.37 43.93 53.41 45.59C52.75 46.74 52.89 48.28 53.01 49.54C53.1 50.51 53.09 52.2 51.98 52.64C51.39 52.87 50.46 52.72 49.96 52.34C48.99 51.59 49.14 50.29 48.73 49.27C48.1 47.71 47.37 50.21 46.44 50.44C45.06 50.77 44.83 49.3 44.56 48.4C44.19 47.17 43.06 44.35 41.32 44.88C39.6 45.4 38.85 49.08 36.68 47.58C35.64 46.86 34.77 46.9 34.18 48.13C33.87 48.77 33.19 50.78 32.18 49.73C31.51 49.03 32.02 47.49 31.24 46.91C28.99 45.25 29.28 52.26 29.26 52.82C29.22 53.8 29.12 55.29 28.06 55.73C26.51 56.37 25.25 54.91 24.92 53.6C24.42 51.65 24.07 49.65 23.78 47.66C23.66 46.8 23.32 46.14 22.62 45.61C21.44 44.7 19.97 45.51 19.12 46.46C18.3 47.38 17.53 48.26 16.2 48.28C15.22 48.3 14.56 47.48 14.17 46.71C13.94 46.26 13.82 45.77 13.28 46.08C12.88 46.31 12.65 47.03 12.51 47.43C12.17 48.38 12.13 49.64 11.58 50.49C10.8 51.7 9.46002 51.5 9.08002 50.12C8.88002 49.4 9.01999 48.59 8.79999 47.89C8.28999 46.22 6.49001 48.02 5.64001 47.13C5.17001 46.64 5.19002 45.83 4.96002 45.22C4.74002 44.63 4.24999 43.89 3.48999 44.08C1.97999 44.45 2.72002 48.52 2.40002 49.57C2.29002 49.92 2.14997 50.64 1.90997 50.92C1.77997 51.07 1.12997 51.41 0.969971 51.1C1.01997 51.19 1.07997 51.29 1.15997 51.36C2.77997 53.05 2.65999 49.04 2.67999 48.29C2.69999 47.55 2.66998 44.34 4.16998 45.37C4.91998 45.88 4.6 47.09 5.25 47.65C5.95 48.25 6.92002 47.58 7.65002 47.96C9.30002 48.82 8.11 51.65 9.63 52.64C11.65 53.97 12.1 51.32 12.37 50.08C12.52 49.4 13.04 48.49 13.86 48.44C15.08 48.36 15.88 49.19 17.16 48.6C18.13 48.15 18.74 47.11 19.81 46.86C21.31 46.51 22.29 47.83 23.13 48.85C24.92 51.04 23.05 54.21 24.46 56.41C25.59 58.17 28.21 58.99 29.25 56.65C29.78 55.45 29.71 53.87 29.62 52.59C29.55 51.58 29.2 50.33 29.74 49.39C31.06 47.09 31.66 50.95 32.97 50.94C34.7 50.92 33.84 48.37 35.2 47.99C35.89 47.8 36.49 48.51 37.1 48.65C38.92 49.08 39.66 47.08 41.03 46.43C42.32 45.82 43.62 46.22 43.84 47.74C44.09 49.38 43.41 52.24 46.13 51.15C46.76 50.9 47.43 50.23 48.13 50.65C48.67 50.97 48.78 52.05 49 52.57C49.27 53.23 49.68 53.77 50.3 54.15C51.63 54.96 52.88 54.37 53.46 52.97C54.07 51.5 53.44 49.61 53.48 48.07C53.51 47.11 54.01 44.84 54.81 46.79C55 47.25 54.93 48 55.58 47.98C56.22 47.96 56.3 47.14 56.35 46.7C56.41 46.26 56.22 45.42 56.95 45.43C58.37 45.45 56.65 49.77 57.4 50.95C57.67 51.37 58.77 51.55 58.94 50.89C58.96 50.6 58.54 50.42 58.16 50.19L58.17 50.17Z" fill="url(#paint2_radial_30_4900)"/>
<path d="M58.7999 39.46C58.7999 42.46 45.4199 44.39 29.6199 44.39C13.8199 44.39 1.55994 42.46 1.55994 39.46C1.55994 36.46 13.8099 33.53 29.6199 33.53C45.4299 33.53 58.7999 36.46 58.7999 39.46Z" fill="#512013"/>
<g style="mix-blend-mode:screen" opacity="0.3">
<path d="M33.9799 42.99C18.6399 42.95 6.75996 41.18 6.76996 38.47C6.76996 37.22 9.28994 36 13.4999 35.04C6.59994 36.04 2.19994 37.65 2.18994 39.3C2.18994 42.01 14.06 43.78 29.4 43.82C39.31 43.85 48.2299 43.14 53.2999 41.91C48.1899 42.62 41.3599 43.01 33.9699 42.99H33.9799Z" fill="#64332F"/>
</g>
<path d="M51.65 52.46C53.03 52.12 52.9699 50 52.9299 49.21C52.7599 45.43 52.2099 47.53 51.0099 47.4C49.8699 47.27 48.76 45.7 48.2 44.94C48.83 46.68 48.35 53.27 51.65 52.46Z" fill="url(#paint3_linear_30_4900)"/>
<path d="M46.37 50.45C47.29 50.27 48 48.4 48.74 47.87C50.75 46.39 46.91 47.11 46.13 46.97C45.39 46.84 43.34 45.73 43 45.21C45.08 47.34 44.36 50.86 46.38 50.46L46.37 50.45Z" fill="url(#paint4_linear_30_4900)"/>
<path d="M9.94997 51.09C8.96997 50.85 9.01994 49.34 9.03994 48.79C9.15994 46.11 9.54999 47.6 10.4 47.5C11.21 47.41 11.99 46.29 12.39 45.76C11.94 46.99 12.28 51.67 9.93996 51.09H9.94997Z" fill="url(#paint5_linear_30_4900)"/>
<path d="M27.7299 55.79C29.2999 55.52 29.2299 53.16 29.1899 52.29C28.9899 48.08 28.3699 50.37 27.0099 50.13C25.7199 49.9 24.4499 48.07 23.8099 47.19C24.5299 49.17 23.9899 56.45 27.7399 55.8L27.7299 55.79Z" fill="url(#paint6_linear_30_4900)"/>
<path d="M20.1799 45.33C18.5899 46.19 18.2299 47.88 16.8799 48.12C15.0899 48.43 14.28 46.93 13.84 45.06L20.1799 45.33Z" fill="url(#paint7_linear_30_4900)"/>
<path opacity="0.6" d="M47.8199 36.42C46.9699 37.15 49.0399 37.23 49.5399 37.44C49.7599 37.67 50.2799 37.83 51.3599 37.76C51.3599 37.76 51.3499 37.74 51.3399 37.73C51.7999 37.39 55.3899 37.47 54.3199 36.46L47.8299 36.42H47.8199Z" fill="url(#paint8_radial_30_4900)"/>
<path d="M52.33 34.06C52.76 34.84 51.65 36.63 50.45 37.41C51.42 37.61 51.4299 37.24 51.8499 37.2C55.6699 36.8 53.68 34.78 52.33 34.07V34.06Z" fill="#FFF5FE"/>
<path d="M48.1899 36.54C47.5199 36.46 47.8499 35.61 48.5099 35.28C49.4499 34.81 52.2099 34.07 50.3999 33.18C53.7799 33.31 50.7499 36.83 48.1899 36.54Z" fill="#FFFAFE"/>
<path d="M48.1898 36.54C47.8998 36.51 47.7998 36.33 47.8298 36.12C47.8598 35.83 47.7998 36.32 48.7398 35.96C50.2498 35.37 52.7998 34.12 50.3998 33.18C53.7798 33.31 50.7498 36.83 48.1898 36.54Z" fill="#FFF5FE"/>
<path d="M47.8299 36.12C47.8699 36.36 48.0799 36.56 48.9999 36.14C50.9999 35.23 53.0199 33.78 50.3999 33.18C53.5099 33.3 52.0299 36.99 49.6399 37.22C49.2699 36.92 47.5899 37.17 47.8299 36.12Z" fill="#FCDEFA"/>
<path d="M49.4798 36.75C49.1698 36.82 48.8398 36.83 48.5198 36.76C48.2598 36.7 48.0298 36.6 47.8298 36.46C47.9998 37.11 49.3198 36.95 49.6498 37.21C49.7698 37.2 49.8798 37.18 49.9898 37.15C49.7698 37.06 49.5998 36.92 49.4898 36.74L49.4798 36.75Z" fill="#E2ACE1"/>
<path d="M49.5099 37.11C48.9899 36.53 49.37 36.01 50.03 35.68C50.97 35.21 53.28 33.79 50.4 33.18C54.72 33.6 50.1699 36.91 49.5099 37.11Z" fill="#FFFAFE"/>
<path d="M51.3499 37.48C48.4799 37.67 49.5699 36.22 49.7299 36.14C51.6399 35.17 53.61 33.65 50.4 33.19C53.72 33.36 52.5699 36.46 50.4299 36.9C50.1999 36.95 50.1799 36.98 51.3499 37.48Z" fill="#FFF5FE"/>
<path d="M51.3498 37.48C49.2598 37.54 50.0799 36.85 50.5199 36.63C52.6599 35.57 52.4698 34.48 52.1698 33.84C53.7898 36.42 50.6198 36.36 51.3498 37.48Z" fill="#FCDEFA"/>
<path d="M52.3299 34.06C56.2799 36.5 50.9898 36.75 51.2998 37.48C51.6798 37.06 54.7998 37.59 54.3698 35.9C54.1698 35.1 52.5398 34.17 52.3198 34.06H52.3299Z" fill="#FCDEFA"/>
<path d="M52.3198 34.06C54.2698 35.71 51.2998 36.76 51.2898 37.38C51.9898 36.44 55.6698 35.99 52.3198 34.06Z" fill="#FFFAFE"/>
<path d="M48.5099 35.29C49.4499 34.82 52.3299 34.14 50.3999 33.19C50.8499 33.93 49.8799 34.53 48.5099 35.29Z" fill="#FFF5FE"/>
<path d="M51.3699 36.6C53.0999 35.49 52.4699 34.47 52.1699 33.83C53.5899 36.09 51.3399 36.32 51.2399 37.1C51.2299 37.21 50.9399 36.87 51.3699 36.6Z" fill="#E2ACE1"/>
<path d="M51.4699 37.18C51.3299 37.27 51.2499 37.37 51.2999 37.48C51.6299 37.11 54.0499 37.48 54.3799 36.44C53.8199 37.04 52.2599 37.05 51.4699 37.18Z" fill="#E2ACE1"/>
<path opacity="0.6" d="M6.48993 36.42C5.63993 37.15 7.70996 37.23 8.20996 37.44C8.42996 37.67 8.94997 37.83 10.03 37.76C10.03 37.76 10.0199 37.74 10.0099 37.73C10.4699 37.39 14.0599 37.47 12.9899 36.46L6.49994 36.42H6.48993Z" fill="url(#paint9_radial_30_4900)"/>
<path d="M10.9999 34.06C11.4299 34.84 10.3199 36.63 9.11987 37.41C10.0899 37.61 10.0999 37.24 10.5199 37.2C14.3399 36.8 12.3499 34.78 10.9999 34.07V34.06Z" fill="#FFF5FE"/>
<path d="M6.85984 36.54C6.18984 36.46 6.51985 35.61 7.17985 35.28C8.11985 34.81 10.8799 34.07 9.06986 33.18C12.4499 33.31 9.41984 36.83 6.85984 36.54Z" fill="#FFFAFE"/>
<path d="M6.85996 36.54C6.56996 36.51 6.46998 36.33 6.49998 36.12C6.52998 35.83 6.46995 36.32 7.40995 35.96C8.91995 35.37 11.47 34.12 9.06998 33.18C12.45 33.31 9.41996 36.83 6.85996 36.54Z" fill="#FFF5FE"/>
<path d="M6.49992 36.12C6.53992 36.36 6.7499 36.56 7.6699 36.14C9.6699 35.23 11.6899 33.78 9.06993 33.18C12.1799 33.3 10.6999 36.99 8.30992 37.22C7.93992 36.92 6.25992 37.17 6.49992 36.12Z" fill="#FCDEFA"/>
<path d="M8.15002 36.75C7.84002 36.82 7.51 36.83 7.19 36.76C6.93 36.7 6.7 36.6 6.5 36.46C6.67 37.11 7.99001 36.95 8.32001 37.21C8.44001 37.2 8.54997 37.18 8.65997 37.15C8.43997 37.06 8.26997 36.92 8.15997 36.74L8.15002 36.75Z" fill="#E2ACE1"/>
<path d="M8.17986 37.11C7.65986 36.53 8.03988 36.01 8.69988 35.68C9.63988 35.21 11.9499 33.79 9.06987 33.18C13.3899 33.6 8.83986 36.91 8.17986 37.11Z" fill="#FFFAFE"/>
<path d="M10.02 37.48C7.14997 37.67 8.23998 36.22 8.39998 36.14C10.31 35.17 12.28 33.65 9.06996 33.19C12.39 33.36 11.2399 36.46 9.09993 36.9C8.86993 36.95 8.84997 36.98 10.02 37.48Z" fill="#FFF5FE"/>
<path d="M10.02 37.48C7.93001 37.54 8.75 36.85 9.19 36.63C11.33 35.57 11.14 34.48 10.84 33.84C12.46 36.42 9.29001 36.36 10.02 37.48Z" fill="#FCDEFA"/>
<path d="M11 34.06C14.95 36.5 9.65999 36.75 9.96999 37.48C10.35 37.06 13.47 37.59 13.04 35.9C12.84 35.1 11.21 34.17 10.99 34.06H11Z" fill="#FCDEFA"/>
<path d="M10.9899 34.06C12.9399 35.71 9.96996 36.76 9.95996 37.38C10.66 36.44 14.3399 35.99 10.9899 34.06Z" fill="#FFFAFE"/>
<path d="M7.17993 35.29C8.11993 34.82 10.9999 34.14 9.06995 33.19C9.51995 33.93 8.54993 34.53 7.17993 35.29Z" fill="#FFF5FE"/>
<path d="M10.0399 36.6C11.7699 35.49 11.14 34.47 10.84 33.83C12.26 36.09 10.0099 36.32 9.90992 37.1C9.89992 37.21 9.60993 36.87 10.0399 36.6Z" fill="#E2ACE1"/>
<path d="M10.14 37.18C9.99996 37.27 9.91992 37.37 9.96992 37.48C10.2999 37.11 12.7199 37.48 13.0499 36.44C12.4899 37.04 10.93 37.05 10.14 37.18Z" fill="#E2ACE1"/>
<path d="M7.96989 36.57C7.96989 39.17 18.2299 42.25 30.3599 42.25C42.4899 42.25 51.8799 39.17 51.8799 36.57C51.8799 35.91 52.8199 28.42 52.1299 26C50.7899 23.05 39.1299 24.56 30.3399 24.56C21.5499 24.56 9.31994 22.32 7.70994 26.15C6.99994 27.84 7.96989 35.99 7.96989 36.57Z" fill="url(#paint10_linear_30_4900)"/>
<g opacity="0.3">
<path d="M8.35999 35.88C8.19999 35.91 7.9 35.72 7.88 35.53C7.76 34.28 7.67003 33.62 7.59003 32.66C7.54003 32.03 7.49002 31.39 7.46002 30.76C7.45002 30.47 7.25998 29.1 7.47998 28.91C7.65998 28.76 7.91999 28.74 8.11999 28.59C8.79999 28.1 10.07 28 10.93 27.77C14.51 26.82 18.12 26.58 21.89 26.27C22.58 26.21 23.26 26.17 23.95 26.13C26.12 26.25 28.3 26.34 30.33 26.34C32.36 26.34 34.74 26.26 37.02 26.18C39.19 26.3 41.35 26.48 43.5 26.7C45.11 26.87 46.62 27.18 48.15 27.59C49.07 27.84 51.38 28.19 51.95 28.79C52.15 29.01 52.28 29.26 52.37 29.53C52.41 30.86 52.34 32.21 52.2 33.53C52.14 34.09 52.22 34.78 52.05 35.32C51.87 35.91 51.36 35.78 51.14 35.3C50.87 34.72 50.88 33.71 50.89 33.08C50.89 32.77 51.11 31.3 50.62 31.22C50.27 31.16 49.99 32.38 49.63 32.57C49.05 32.87 48.36 32.87 47.78 33.23C46.68 33.92 46.68 38.17 44.62 36.73C43.94 36.25 43.86 35.46 43.65 34.72C43.49 34.16 43.3 33.45 42.57 33.67C42.14 33.8 41.96 34.24 41.6 34.48C40.39 35.28 39.12 34.14 38.41 33.23C38.12 32.86 37.9 32.36 37.36 32.35C36.29 32.35 35.84 33.43 35.4 34.21C34.85 35.17 34.73 36.26 34.7 37.35C34.67 38.44 34.59 39.8 33.67 40.53C32.86 41.17 31.24 41.39 30.53 40.49C29.65 39.37 30.11 37.45 30.1 36.13C30.1 35.6 30.21 34.97 29.61 34.71C29.09 34.48 28.59 34.87 28.36 35.33C28.18 35.68 28.15 36.13 27.71 36.24C26.23 36.61 26.21 31.96 24.39 33.24C23.75 33.69 23.44 33.94 22.7 33.47C22.09 33.09 21.58 32.44 20.84 32.3C18.78 31.92 19.71 35.85 17.85 35.96C16.98 36.01 16.27 34.6 15.6 35.52C15.09 36.23 14.85 37.28 14.1 37.8C13.46 38.24 12.52 38.33 11.79 38.07C10.39 37.56 10.65 35.98 10.91 34.85C11.05 34.25 11.27 33.56 11.21 32.94C11.1 31.87 10.54 32.6 10.03 32.85C9.29003 33.21 9.04003 32.52 8.78003 31.99C8.46003 31.34 8.18 31.86 8.25 32.41C8.34 33.11 8.79003 33.7 8.84003 34.45C8.86003 34.83 8.93998 35.76 8.34998 35.86L8.35999 35.88Z" fill="url(#paint11_linear_30_4900)"/>
</g>
<path d="M7.23994 25.19C6.70994 26.47 7.13994 28.29 7.29994 29.62C7.42994 30.75 7.72997 31.96 7.38997 33.07C7.25997 33.48 6.81994 34.14 7.10994 34.58C7.35994 34.96 7.88995 34.92 8.17995 34.61C8.85995 33.91 7.48994 30.24 8.60994 30.23C9.17994 30.23 9.03997 30.89 9.07997 31.23C9.12997 31.57 9.18995 32.22 9.68995 32.24C10.21 32.25 10.1499 31.66 10.2999 31.3C10.9399 29.76 11.3299 31.55 11.3499 32.31C11.3799 33.53 10.8899 35.02 11.3699 36.18C11.8299 37.28 12.8199 37.75 13.8699 37.11C14.3599 36.81 14.68 36.39 14.89 35.87C15.06 35.46 15.14 34.61 15.57 34.36C16.12 34.03 16.65 34.56 17.15 34.76C19.31 35.62 18.77 33.3 18.96 32.07C19.14 30.86 20.1599 30.55 21.1799 31.03C22.2699 31.54 22.85 33.11 24.28 32.78C24.76 32.67 25.23 32.11 25.78 32.26C26.85 32.56 26.1699 34.57 27.5399 34.59C28.5799 34.6 29.04 31.56 30.09 33.37C30.52 34.11 30.2399 35.1 30.1799 35.89C30.1099 36.9 30.0599 38.15 30.4799 39.1C31.2999 40.94 33.37 40.29 34.26 38.91C35.37 37.18 33.9 34.67 35.3099 32.95C35.9699 32.14 36.7499 31.1 37.9299 31.38C38.7799 31.58 39.26 32.4 40.02 32.75C41.03 33.22 41.66 32.56 42.6199 32.63C43.27 32.67 43.6799 33.39 43.7999 33.93C44.0199 34.91 44.37 37 45.96 35.95C47.16 35.16 46.21 32.93 47.52 32.25C48.1 31.95 48.8599 32.48 49.4199 32.01C49.9399 31.57 49.69 30.61 50.27 30.21C51.45 29.39 51.43 31.93 51.44 32.51C51.46 33.11 51.36 36.27 52.64 34.93C53.11 34.44 52.7799 33.76 52.6099 33.23C51.8099 30.83 53.42 26.83 52.07 24.89C51.5 24.08 49.17 23.6 48.25 23.27C46.72 22.71 45.2 22.29 43.58 22.07C39.13 21.45 34.6699 21.09 30.1799 21.09C27.3799 21.09 24.6299 21.17 21.8499 21.47C18.0699 21.89 14.43 22.21 10.83 23.5C9.95997 23.81 8.68995 23.94 7.99995 24.6C7.74995 24.84 7.39993 24.82 7.22993 25.22L7.23994 25.19Z" fill="#3D150B"/>
<path d="M7.65992 33.97C7.85992 33.85 8.04993 33.71 8.09993 33.53C8.22993 33.1 8.08997 32.66 8.01997 32.24C7.90997 31.54 7.54996 30.22 8.19996 29.69C9.37996 28.73 9.08992 31.48 9.71992 31.16C10.2599 30.88 10.6599 29.04 11.4099 30.36C11.9299 31.27 11.8199 32.48 11.7199 33.48C11.6499 34.25 11.65 35.58 12.53 35.92C13 36.1 13.7299 35.98 14.1199 35.68C14.8899 35.09 14.77 34.06 15.09 33.26C15.58 32.03 16.16 34.01 16.9 34.18C17.99 34.44 18.17 33.28 18.38 32.57C18.67 31.6 19.56 29.37 20.94 29.79C22.29 30.2 22.8899 33.1 24.5999 31.92C25.4199 31.35 26.11 31.38 26.57 32.35C26.81 32.85 27.35 34.44 28.15 33.61C28.68 33.06 28.27 31.84 28.89 31.39C30.67 30.08 30.44 35.61 30.46 36.05C30.49 36.82 30.57 38 31.4 38.34C32.62 38.84 33.61 37.7 33.88 36.66C34.27 35.12 34.55 33.54 34.78 31.97C34.88 31.29 35.14 30.77 35.69 30.35C36.62 29.63 37.78 30.27 38.45 31.02C39.1 31.75 39.7 32.44 40.76 32.46C41.53 32.48 42.0599 31.83 42.3599 31.22C42.5399 30.87 42.64 30.47 43.07 30.72C43.39 30.9 43.5699 31.47 43.6799 31.79C43.9499 32.54 43.9799 33.53 44.4199 34.21C45.0399 35.17 46.09 35 46.39 33.92C46.55 33.35 46.4399 32.72 46.6099 32.16C47.0099 30.84 48.4299 32.26 49.1099 31.56C49.4799 31.17 49.47 30.53 49.65 30.06C49.83 29.59 50.2099 29.01 50.8099 29.16C51.9999 29.45 51.4199 32.66 51.6699 33.49C51.7499 33.77 51.8699 34.33 52.0599 34.56C52.1599 34.68 52.6799 34.94 52.7999 34.7C52.7599 34.77 52.71 34.85 52.65 34.91C51.37 36.25 51.47 33.08 51.45 32.49C51.44 31.91 51.46 29.37 50.28 30.19C49.69 30.6 49.9399 31.55 49.4299 31.99C48.8799 32.46 48.12 31.93 47.53 32.23C46.22 32.91 47.1699 35.14 45.9699 35.93C44.3799 36.98 44.0199 34.89 43.8099 33.91C43.6899 33.37 43.28 32.65 42.63 32.61C41.67 32.55 41.04 33.2 40.03 32.73C39.27 32.38 38.78 31.56 37.94 31.36C36.76 31.08 35.98 32.13 35.32 32.93C33.91 34.65 35.38 37.16 34.27 38.89C33.38 40.28 31.3099 40.93 30.4899 39.08C30.0699 38.14 30.12 36.88 30.19 35.87C30.25 35.07 30.5199 34.09 30.0999 33.35C29.0599 31.53 28.5899 34.58 27.5499 34.57C26.1799 34.55 26.8699 32.54 25.7899 32.24C25.2399 32.09 24.7699 32.65 24.2899 32.76C22.8499 33.1 22.27 31.52 21.19 31.01C20.17 30.53 19.1499 30.84 18.9699 32.05C18.7799 33.35 19.3099 35.6 17.1599 34.74C16.6599 34.54 16.14 34.02 15.58 34.34C15.15 34.59 15.07 35.44 14.9 35.85C14.69 36.37 14.36 36.8 13.88 37.09C12.83 37.73 11.84 37.26 11.38 36.16C10.9 35 11.3999 33.51 11.3599 32.29C11.3399 31.53 10.9399 29.74 10.3099 31.28C10.1599 31.64 10.22 32.23 9.69996 32.22C9.19996 32.21 9.13998 31.56 9.08998 31.21C9.03998 30.87 9.18995 30.2 8.61995 30.21C7.49995 30.23 8.85997 33.64 8.26997 34.56C8.05997 34.89 7.18995 35.04 7.05995 34.51C7.03995 34.28 7.36993 34.14 7.66993 33.96L7.65992 33.97Z" fill="url(#paint12_radial_30_4900)"/>
<path d="M7.16992 25.52C7.16992 27.89 17.72 29.41 30.2 29.41C42.68 29.41 52.34 27.89 52.34 25.52C52.34 23.15 42.67 20.84 30.2 20.84C17.73 20.84 7.16992 23.16 7.16992 25.52Z" fill="#512013"/>
<g style="mix-blend-mode:screen" opacity="0.3">
<path d="M32.9199 28.31C20.8199 28.28 11.45 26.88 11.45 24.74C11.45 23.76 13.4399 22.79 16.7599 22.04C11.3199 22.83 7.83997 24.1 7.83997 25.4C7.83997 27.54 17.2099 28.94 29.3099 28.97C37.1299 28.99 44.1599 28.43 48.1699 27.46C44.1399 28.02 38.7499 28.33 32.9199 28.31Z" fill="#64332F"/>
</g>
<path opacity="0.6" d="M43.3799 23.31C42.6299 23.95 44.4599 24.03 44.8999 24.21C45.0999 24.41 45.5499 24.55 46.4999 24.49C46.4999 24.49 46.4999 24.47 46.4899 24.47C46.8999 24.17 50.0599 24.24 49.1099 23.35L43.3899 23.32L43.3799 23.31Z" fill="url(#paint13_radial_30_4900)"/>
<path d="M47.3499 21.23C47.7299 21.92 46.7499 23.49 45.6899 24.18C46.5499 24.36 46.5599 24.03 46.9199 23.99C50.2899 23.63 48.5399 21.86 47.3499 21.23Z" fill="#FFF5FE"/>
<path d="M43.71 23.42C43.12 23.35 43.41 22.6 43.99 22.31C44.82 21.9 47.25 21.24 45.66 20.46C48.63 20.57 45.97 23.68 43.72 23.42H43.71Z" fill="#FFFAFE"/>
<path d="M43.7099 23.42C43.4599 23.39 43.3699 23.24 43.3899 23.05C43.4199 22.8 43.3599 23.23 44.1899 22.91C45.5199 22.39 47.7699 21.28 45.6499 20.46C48.6199 20.57 45.9599 23.68 43.7099 23.42Z" fill="#FFF5FE"/>
<path d="M43.3899 23.05C43.4199 23.26 43.6099 23.44 44.4199 23.07C46.1799 22.27 47.9599 20.99 45.6599 20.46C48.3999 20.56 47.0999 23.82 44.9899 24.02C44.6599 23.75 43.1799 23.98 43.3899 23.05Z" fill="#FCDEFA"/>
<path d="M44.8499 23.61C44.5699 23.67 44.2899 23.68 43.9999 23.62C43.7699 23.57 43.5699 23.48 43.3899 23.35C43.5399 23.92 44.6999 23.78 44.9899 24.01C45.0899 24.01 45.1899 23.98 45.2899 23.96C45.0999 23.88 44.9499 23.76 44.8499 23.6V23.61Z" fill="#E2ACE1"/>
<path d="M44.87 23.92C44.41 23.41 44.75 22.95 45.33 22.66C46.16 22.25 48.19 20.99 45.66 20.46C49.47 20.83 45.45 23.75 44.87 23.92Z" fill="#FFFAFE"/>
<path d="M46.4899 24.24C43.9599 24.41 44.9199 23.13 45.0599 23.06C46.7399 22.21 48.48 20.86 45.65 20.46C48.58 20.61 47.5699 23.34 45.6799 23.73C45.4799 23.77 45.4599 23.8 46.4899 24.24Z" fill="#FFF5FE"/>
<path d="M46.4899 24.24C44.6499 24.3 45.37 23.68 45.76 23.49C47.65 22.55 47.48 21.6 47.21 21.03C48.64 23.3 45.8399 23.25 46.4899 24.24Z" fill="#FCDEFA"/>
<path d="M47.3499 21.23C50.8299 23.38 46.17 23.6 46.45 24.25C46.78 23.88 49.5399 24.35 49.1599 22.85C48.9799 22.14 47.5499 21.33 47.3499 21.23Z" fill="#FCDEFA"/>
<path d="M47.3499 21.23C49.0599 22.69 46.4499 23.61 46.4399 24.16C47.0599 23.33 50.2999 22.93 47.3499 21.23Z" fill="#FFFAFE"/>
<path d="M43.99 22.31C44.82 21.9 47.36 21.3 45.66 20.46C46.05 21.11 45.21 21.64 43.99 22.31Z" fill="#FFF5FE"/>
<path d="M46.5099 23.47C48.0399 22.5 47.4799 21.6 47.2099 21.03C48.4599 23.02 46.4799 23.23 46.3899 23.91C46.3799 24.01 46.1299 23.71 46.4999 23.47H46.5099Z" fill="#E2ACE1"/>
<path d="M46.6 23.98C46.47 24.06 46.41 24.15 46.45 24.24C46.74 23.92 48.88 24.24 49.16 23.32C48.67 23.85 47.3 23.86 46.6 23.98Z" fill="#E2ACE1"/>
<path opacity="0.6" d="M10.8699 22.71C10.1199 23.35 11.9499 23.43 12.3899 23.61C12.5899 23.81 13.0399 23.95 13.9899 23.89C13.9899 23.89 13.9899 23.87 13.9799 23.87C14.3899 23.57 17.5499 23.64 16.5999 22.75L10.8799 22.72L10.8699 22.71Z" fill="url(#paint14_radial_30_4900)"/>
<path d="M14.8499 20.62C15.2299 21.31 14.2499 22.88 13.1899 23.57C14.0499 23.75 14.0599 23.42 14.4199 23.38C17.7899 23.02 16.0399 21.25 14.8499 20.62Z" fill="#FFF5FE"/>
<path d="M11.2 22.82C10.61 22.75 10.9 22 11.48 21.71C12.31 21.3 14.74 20.64 13.15 19.86C16.12 19.97 13.46 23.08 11.21 22.82H11.2Z" fill="#FFFAFE"/>
<path d="M11.1999 22.82C10.9499 22.79 10.8599 22.64 10.8799 22.45C10.9099 22.2 10.8499 22.63 11.6799 22.31C13.0099 21.79 15.2599 20.68 13.1399 19.86C16.1099 19.97 13.4499 23.08 11.1999 22.82Z" fill="#FFF5FE"/>
<path d="M10.8799 22.45C10.9099 22.66 11.0999 22.84 11.9099 22.47C13.6699 21.67 15.45 20.39 13.15 19.86C15.89 19.96 14.5899 23.22 12.4799 23.42C12.1499 23.15 10.6699 23.38 10.8799 22.45Z" fill="#FCDEFA"/>
<path d="M12.3399 23C12.0599 23.06 11.7799 23.07 11.4899 23.01C11.2599 22.96 11.0599 22.87 10.8799 22.74C11.0299 23.31 12.1899 23.17 12.4799 23.4C12.5799 23.4 12.6799 23.37 12.7799 23.35C12.5899 23.27 12.4399 23.15 12.3399 22.99V23Z" fill="#E2ACE1"/>
<path d="M12.36 23.31C11.9 22.8 12.24 22.34 12.82 22.05C13.65 21.64 15.68 20.38 13.15 19.85C16.96 20.22 12.94 23.14 12.36 23.31Z" fill="#FFFAFE"/>
<path d="M13.9899 23.64C11.4599 23.81 12.4199 22.53 12.5599 22.46C14.2399 21.61 15.98 20.26 13.15 19.86C16.08 20.01 15.0699 22.74 13.1799 23.13C12.9799 23.17 12.9599 23.2 13.9899 23.64Z" fill="#FFF5FE"/>
<path d="M13.9899 23.64C12.1499 23.7 12.87 23.08 13.26 22.89C15.15 21.95 14.98 21 14.71 20.43C16.14 22.7 13.3399 22.65 13.9899 23.64Z" fill="#FCDEFA"/>
<path d="M14.8499 20.62C18.3299 22.77 13.67 22.99 13.95 23.64C14.28 23.27 17.0399 23.74 16.6599 22.24C16.4799 21.53 15.0499 20.72 14.8499 20.62Z" fill="#FCDEFA"/>
<path d="M14.84 20.63C16.55 22.09 13.9399 23.01 13.9299 23.56C14.5499 22.73 17.79 22.33 14.84 20.63Z" fill="#FFFAFE"/>
<path d="M11.48 21.71C12.31 21.3 14.85 20.7 13.15 19.86C13.54 20.51 12.7 21.04 11.48 21.71Z" fill="#FFF5FE"/>
<path d="M14.0099 22.87C15.5399 21.9 14.9799 21 14.7099 20.43C15.9599 22.42 13.9799 22.63 13.8899 23.31C13.8799 23.41 13.6299 23.11 13.9999 22.87H14.0099Z" fill="#E2ACE1"/>
<path d="M14.1 23.38C13.97 23.46 13.91 23.55 13.95 23.64C14.24 23.32 16.38 23.64 16.66 22.72C16.17 23.25 14.8 23.26 14.1 23.38Z" fill="#E2ACE1"/>
<path d="M46.0399 23.33C46.0399 25.23 38.52 27.05 29.6399 27.05C20.7599 27.05 13.7899 25.7501 13.7899 23.8401C13.7899 23.3601 13.1799 17.3601 13.6899 15.5901C14.6699 13.4301 23.22 14.5301 29.65 14.5301C36.08 14.5301 45.0499 12.89 46.2299 15.7C46.7499 16.93 46.0399 22.91 46.0399 23.33Z" fill="url(#paint15_linear_30_4900)"/>
<g opacity="0.3">
<path d="M45.75 22.83C45.87 22.85 46.09 22.71 46.1 22.57C46.19 21.65 46.26 21.17 46.31 20.47C46.34 20.01 46.39 19.54 46.4 19.07C46.4 18.86 46.54 17.85 46.39 17.72C46.26 17.61 46.07 17.59 45.92 17.49C45.42 17.13 44.49 17.06 43.86 16.89C41.24 16.19 38.59 16.02 35.83 15.79C35.33 15.75 34.82 15.71 34.32 15.69C32.73 15.77 31.13 15.85 29.64 15.85C28.15 15.85 26.41 15.79 24.74 15.73C23.15 15.82 21.57 15.95 19.99 16.11C18.81 16.23 17.7 16.46 16.58 16.76C15.91 16.94 14.21 17.2 13.8 17.64C13.65 17.8 13.56 17.98 13.49 18.19C13.46 19.16 13.51 20.15 13.61 21.12C13.65 21.53 13.59 22.04 13.72 22.43C13.85 22.86 14.22 22.76 14.39 22.42C14.59 22 14.58 21.25 14.57 20.79C14.57 20.56 14.41 19.49 14.77 19.43C15.03 19.39 15.23 20.28 15.49 20.42C15.92 20.64 16.42 20.64 16.84 20.9C17.64 21.4 17.64 24.52 19.15 23.47C19.65 23.12 19.71 22.54 19.86 22C19.98 21.59 20.12 21.07 20.65 21.23C20.97 21.32 21.1 21.65 21.36 21.82C22.25 22.41 23.18 21.57 23.69 20.9C23.9 20.63 24.07 20.26 24.46 20.26C25.24 20.26 25.57 21.05 25.9 21.62C26.3 22.32 26.39 23.12 26.41 23.92C26.43 24.72 26.49 25.72 27.17 26.25C27.76 26.72 28.95 26.88 29.47 26.22C30.12 25.4 29.78 23.99 29.78 23.03C29.78 22.65 29.7 22.18 30.14 21.99C30.52 21.82 30.88 22.1 31.05 22.44C31.18 22.7 31.2 23.03 31.53 23.11C32.61 23.38 32.63 19.97 33.96 20.91C34.43 21.24 34.66 21.42 35.2 21.08C35.65 20.8 36.02 20.32 36.56 20.22C38.07 19.94 37.39 22.82 38.75 22.9C39.39 22.94 39.91 21.9 40.4 22.58C40.78 23.1 40.95 23.87 41.5 24.25C41.97 24.57 42.66 24.64 43.19 24.45C44.22 24.08 44.02 22.92 43.83 22.09C43.73 21.65 43.56 21.14 43.61 20.69C43.69 19.9 44.1 20.44 44.48 20.62C45.02 20.88 45.21 20.38 45.4 19.99C45.63 19.51 45.84 19.9 45.79 20.3C45.72 20.82 45.39 21.25 45.36 21.79C45.34 22.07 45.29 22.75 45.72 22.82L45.75 22.83Z" fill="url(#paint16_linear_30_4900)"/>
</g>
<path d="M46.57 15C46.96 15.94 46.64 17.27 46.53 18.24C46.43 19.07 46.21 19.95 46.46 20.77C46.55 21.07 46.8799 21.56 46.6599 21.88C46.4799 22.16 46.09 22.13 45.87 21.9C45.37 21.39 46.38 18.7 45.55 18.69C45.13 18.69 45.24 19.17 45.2 19.42C45.17 19.67 45.12 20.15 44.75 20.16C44.37 20.17 44.41 19.74 44.3 19.47C43.83 18.34 43.54 19.65 43.53 20.21C43.51 21.11 43.87 22.2 43.52 23.05C43.19 23.86 42.46 24.2 41.69 23.73C41.33 23.51 41.1 23.2 40.94 22.82C40.82 22.52 40.75 21.9 40.44 21.71C40.03 21.47 39.65 21.86 39.28 22C37.7 22.63 38.09 20.93 37.96 20.03C37.83 19.15 37.08 18.92 36.33 19.27C35.53 19.65 35.11 20.8 34.06 20.55C33.71 20.47 33.36 20.06 32.96 20.17C32.17 20.39 32.67 21.86 31.67 21.88C30.91 21.89 30.57 19.66 29.8 20.99C29.49 21.53 29.69 22.25 29.73 22.84C29.78 23.58 29.82 24.5 29.51 25.19C28.91 26.54 27.39 26.06 26.74 25.05C25.93 23.78 26.9999 21.94 25.9699 20.68C25.4899 20.09 24.92 19.33 24.05 19.53C23.43 19.67 23.08 20.27 22.52 20.53C21.78 20.87 21.32 20.39 20.61 20.44C20.14 20.47 19.83 21 19.75 21.39C19.59 22.11 19.3299 23.64 18.1599 22.87C17.2799 22.29 17.97 20.66 17.02 20.16C16.59 19.94 16.04 20.33 15.63 19.98C15.25 19.66 15.44 18.96 15 18.66C14.13 18.06 14.15 19.92 14.14 20.35C14.13 20.79 14.2 23.1 13.26 22.13C12.92 21.77 13.15 21.27 13.28 20.88C13.87 19.12 12.69 16.19 13.67 14.77C14.08 14.17 15.7899 13.83 16.4699 13.58C17.5899 13.17 18.71 12.86 19.89 12.7C23.15 12.25 26.42 11.98 29.71 11.98C31.76 11.98 33.78 12.04 35.82 12.26C38.59 12.57 41.25 12.8 43.89 13.74C44.53 13.97 45.46 14.06 45.96 14.55C46.14 14.73 46.4 14.71 46.52 15H46.57Z" fill="#3D150B"/>
<path d="M46.2599 21.43C46.1099 21.34 45.9799 21.24 45.9299 21.11C45.8299 20.8 45.9299 20.47 45.9899 20.17C46.0699 19.65 46.3299 18.69 45.8599 18.3C44.9999 17.6 45.1999 19.61 44.7499 19.37C44.3599 19.16 44.0599 17.82 43.5099 18.78C43.1299 19.45 43.21 20.33 43.28 21.06C43.33 21.62 43.3299 22.6 42.6899 22.85C42.3499 22.99 41.81 22.9 41.52 22.67C40.96 22.24 41.0399 21.49 40.8099 20.89C40.4499 19.99 39.92 21.48 39.39 21.6C38.59 21.79 38.56 20.9 38.4 20.38C38.18 19.67 37.53 18.04 36.52 18.34C35.53 18.64 35.09 20.77 33.84 19.9C33.24 19.48 32.74 19.51 32.4 20.22C32.22 20.59 31.8299 21.75 31.2399 21.14C30.8499 20.73 31.15 19.85 30.7 19.51C29.4 18.55 29.5699 22.61 29.5499 22.93C29.5299 23.5 29.4699 24.36 28.8599 24.61C27.9599 24.98 27.2399 24.14 27.0399 23.38C26.7499 22.25 26.5499 21.09 26.3799 19.95C26.3099 19.45 26.12 19.07 25.71 18.76C25.03 18.23 24.1799 18.7 23.6899 19.25C23.2099 19.78 22.7699 20.29 21.9999 20.3C21.4299 20.31 21.05 19.84 20.83 19.39C20.7 19.13 20.6299 18.84 20.3099 19.02C20.0799 19.15 19.9499 19.57 19.8599 19.8C19.6699 20.35 19.6399 21.08 19.3199 21.57C18.8699 22.27 18.0899 22.15 17.8699 21.35C17.7499 20.93 17.83 20.47 17.71 20.06C17.41 19.1 16.3699 20.13 15.8799 19.62C15.6099 19.34 15.6199 18.87 15.4899 18.52C15.3599 18.18 15.08 17.75 14.64 17.86C13.77 18.07 14.1999 20.43 14.0099 21.03C13.9499 21.23 13.8599 21.65 13.7299 21.81C13.6599 21.9 13.2799 22.09 13.1799 21.91C13.2099 21.96 13.2399 22.02 13.2899 22.06C14.2299 23.04 14.1599 20.72 14.1699 20.28C14.1799 19.85 14.17 17.99 15.03 18.59C15.46 18.89 15.2799 19.59 15.6599 19.91C16.0699 20.26 16.6199 19.87 17.0499 20.09C18.0099 20.58 17.3199 22.22 18.1899 22.8C19.3599 23.57 19.62 22.04 19.78 21.32C19.87 20.93 20.17 20.4 20.64 20.37C21.34 20.32 21.8099 20.8 22.5499 20.46C23.1099 20.2 23.46 19.6 24.08 19.46C24.95 19.26 25.5199 20.02 25.9999 20.61C27.0299 21.87 25.96 23.71 26.77 24.98C27.42 25.99 28.9399 26.47 29.5399 25.12C29.8499 24.43 29.8099 23.51 29.7599 22.77C29.7199 22.19 29.52 21.47 29.83 20.92C30.6 19.59 30.94 21.82 31.7 21.81C32.7 21.8 32.1999 20.32 32.9899 20.1C33.3899 19.99 33.74 20.4 34.09 20.48C35.14 20.73 35.5699 19.57 36.3599 19.2C37.1099 18.85 37.8599 19.08 37.9899 19.96C38.1299 20.87 37.7299 22.57 39.3099 21.93C39.6799 21.78 40.0599 21.4 40.4699 21.64C40.7799 21.83 40.8499 22.45 40.9699 22.75C41.1299 23.13 41.3599 23.44 41.7199 23.66C42.4899 24.13 43.2099 23.79 43.5499 22.98C43.8999 22.13 43.5399 21.04 43.5599 20.14C43.5799 19.58 43.86 18.28 44.33 19.4C44.44 19.66 44.4 20.1 44.78 20.09C45.15 20.08 45.1899 19.6 45.2299 19.35C45.2599 19.1 45.16 18.61 45.58 18.62C46.4 18.63 45.4 21.13 45.84 21.81C46 22.05 46.6299 22.16 46.7299 21.77C46.7399 21.6 46.5 21.5 46.28 21.37L46.2599 21.43Z" fill="url(#paint17_radial_30_4900)"/>
<path d="M46.62 15.24C46.62 16.97 38.89 18.09 29.75 18.09C20.61 18.09 13.53 16.97 13.53 15.24C13.53 13.51 20.61 11.81 29.75 11.81C38.89 11.81 46.62 13.51 46.62 15.24Z" fill="#512013"/>
<g style="mix-blend-mode:screen" opacity="0.3">
<path d="M32.2899 17.22C23.4199 17.2 16.5599 16.17 16.5599 14.61C16.5599 13.89 18.02 13.18 20.45 12.63C16.46 13.21 13.9199 14.14 13.9099 15.09C13.9099 16.66 20.77 17.68 29.64 17.7C35.37 17.71 40.52 17.31 43.46 16.59C40.51 17 36.5599 17.22 32.2899 17.21V17.22Z" fill="#64332F"/>
</g>
<path d="M28.65 24.7C29.5 24.54 29.46 23.15 29.44 22.64C29.33 20.17 29 21.51 28.26 21.37C27.56 21.23 26.88 20.16 26.53 19.64C26.92 20.8 26.63 25.08 28.65 24.7Z" fill="url(#paint18_linear_30_4900)"/>
<path d="M12.81 35.78C11.72 35.51 11.77 33.84 11.8 33.22C11.94 30.24 12.37 31.9 13.31 31.79C14.21 31.69 15.08 30.45 15.53 29.85C15.03 31.22 15.41 36.43 12.81 35.78Z" fill="url(#paint19_linear_30_4900)"/>
<path d="M16.9699 34.19C16.2399 34.04 15.6799 32.58 15.0999 32.15C13.5099 30.98 16.5399 31.55 17.1599 31.44C17.7499 31.33 19.3599 30.46 19.6299 30.05C17.9899 31.73 18.5599 34.51 16.9599 34.19H16.9699Z" fill="url(#paint20_linear_30_4900)"/>
<path d="M45.71 34.7C46.48 34.51 46.4499 33.32 46.4299 32.88C46.3299 30.77 46.0299 31.94 45.3599 31.86C44.7199 31.79 44.0999 30.91 43.7899 30.48C44.1399 31.45 43.8799 35.14 45.7199 34.69L45.71 34.7Z" fill="url(#paint21_linear_30_4900)"/>
<path d="M31.6799 38.41C30.4399 38.2 30.4999 36.33 30.5299 35.65C30.6799 32.33 31.1799 34.14 32.2499 33.95C33.2699 33.77 34.2699 32.33 34.7699 31.63C34.1999 33.19 34.6299 38.93 31.6699 38.42L31.6799 38.41Z" fill="url(#paint22_linear_30_4900)"/>
<path d="M37.6399 30.16C38.8999 30.84 39.1699 32.17 40.2399 32.36C41.6499 32.6 42.2899 31.42 42.6399 29.95L37.6399 30.17V30.16Z" fill="url(#paint23_linear_30_4900)"/>
<path d="M42.53 22.74C43.27 22.62 43.22 21.77 43.2 21.38C43.11 19.47 42.8099 20.51 42.1699 20.4C41.5599 20.29 40.9699 19.47 40.6599 19.06C40.9999 19.96 40.76 23.03 42.52 22.74H42.53Z" fill="url(#paint24_linear_30_4900)"/>
<path d="M18.51 21.84C17.95 21.74 17.99 21.05 18 20.73C18.06 19.17 18.29 20.02 18.77 19.93C19.23 19.84 19.67 19.16 19.9 18.83C19.65 19.57 19.84 22.08 18.51 21.84Z" fill="url(#paint25_linear_30_4900)"/>
<path d="M39.03 21.5C38.46 21.41 38.71 20.12 38.26 19.41C37.47 18.17 38.9199 19.61 39.4099 19.53C39.8799 19.45 40.34 18.81 40.57 18.5C40.31 19.19 40.39 21.73 39.03 21.5Z" fill="url(#paint26_linear_30_4900)"/>
<path d="M36.2699 13.5C36.0399 13.6 35.7799 13.66 35.4999 13.67C33.6799 13.72 32.0099 13.89 30.1799 13.58C29.3499 13.44 28.5199 13.27 27.6899 13.08H25.2999C24.9699 13.45 24.2599 13.08 24.3099 13.61C24.2199 15.15 29.1299 16.23 30.6999 16.01C32.3799 15.77 34.3499 16.46 35.2499 16.61C35.0999 16.14 34.6799 15.21 34.6399 15.17C35.4699 15.14 36.9899 14.63 37.0399 14.54C37.3499 13.81 36.8899 13.62 36.2799 13.5H36.2699Z" fill="#3D150B"/>
<path d="M25.5799 11.36C26.6599 10.71 26.0199 9.72 26.5499 9.52C28.1499 9.93 33.5399 7.36998 34.3799 8.30998C34.3799 8.30998 36.4699 10.75 32.2399 12.91C30.6199 11.15 24.4199 12.29 25.5799 11.36Z" fill="#E2ACE1"/>
<path d="M34.8299 14C29.8199 16.61 29.7499 12.01 30.8699 11.05C32.7699 10.86 33.7099 10.11 36.0799 10.19C36.4599 10.2 36.8899 10.14 36.9999 9.91998C35.5899 11.65 36.1499 13.18 34.8299 14Z" fill="#FCDEFA"/>
<path d="M27.9499 6.26003C29.0299 5.61003 28.9299 5.26002 30.1099 5.56002C31.7099 5.97002 32.8199 5.25003 33.7599 6.57003C33.7599 6.57003 32.6899 8.51001 31.5799 8.86001C29.9599 7.10001 26.7899 7.19004 27.9499 6.27004V6.26003Z" fill="#FCDEFA"/>
<path d="M26.5699 9.43998C26.8599 8.74998 26.2699 7.35 26.3899 7.28C26.8099 7.04 27.3399 6.44997 29.4399 8.05997C31.6299 9.72997 35.0098 8.34 34.1098 7.02C34.8898 7.93 33.4998 9.16995 33.2898 9.34995C29.9498 12.18 26.3499 9.94998 26.5599 9.43998H26.5699Z" fill="#FCDEFA"/>
<path d="M26.5199 9.51C25.0599 9.46 24.2699 10.17 23.8599 11.04C23.4499 11.91 26.2699 13.66 29.5099 13.55C32.7499 13.44 34.1999 15.89 34.8899 16.24C34.3899 14.72 32.7799 11.82 31.3699 11.37C29.9599 10.92 26.4199 11.06 26.5099 9.52001L26.5199 9.51Z" fill="#FFF5FE"/>
<path d="M33.9299 14.85C33.6499 14.51 31.47 12.78 28.44 12.62C25.58 12.47 22.3699 10.34 26.0499 9.62C25.0399 10.51 26.29 11.54 28.02 11.69C29.98 11.87 31.61 11.04 33.94 14.85H33.9299Z" fill="#FFFAFE"/>
<path d="M24.5098 13.25C24.4398 12.55 23.8998 12.71 23.8398 11.36C24.0798 12.28 26.6998 13.43 29.5798 13.33C32.8198 13.22 34.2098 15.88 34.8998 16.24C33.9998 16.1 32.3498 15.4 30.6698 15.64C29.0998 15.86 24.4198 14.8 24.5098 13.26V13.25Z" fill="#FCDEFA"/>
<path d="M34.3799 8.29999C34.1999 9.42999 31.8199 10.79 30.8699 11.05C33.2299 11.53 33.7099 10.11 36.0799 10.19C37.3499 10.23 37.4499 8.39998 34.3799 8.28998V8.29999Z" fill="#FFF5FE"/>
<path d="M34.3799 8.29999C36.1999 8.64999 36.6699 9.23001 36.1099 9.64001C35.6799 9.96001 34.3599 10.12 34.3599 10.43C34.3599 10.43 35.5899 10.25 36.2899 10.27C37.5599 10.31 37.4499 8.39998 34.3799 8.28998V8.29999Z" fill="#FFFAFE"/>
<path d="M33.3599 13.21C33.6399 13.63 34.2899 14.74 34.2999 14.81C35.1299 14.78 36.6799 14.32 36.7399 14.23C37.1499 13.26 37.8299 13.02 37.9599 11.86C38.0699 10.84 35.4899 13.43 33.3599 13.2V13.21Z" fill="#FCDEFA"/>
<path d="M33.3799 13.25C35.1299 12.79 35.7999 12.21 36.0499 11.66C36.1599 11.13 36.3899 10.87 36.4499 10.79C37.1099 10.83 38.1199 10.86 37.9599 11.88C37.7999 12.9 34.7099 13.16 33.3799 13.25Z" fill="#FFF5FE"/>
<path d="M33.3798 13.25C35.1298 12.79 35.7998 12.21 36.0498 11.66C36.1598 11.13 36.3898 10.87 36.4498 10.79L36.5698 10.57C35.4398 10.81 36.0698 12.42 33.0398 12.77L33.3898 13.25H33.3798Z" fill="#E2ACE1"/>
<path d="M24.5099 13.25C24.4699 12.9 24.3199 12.77 24.1699 12.55C27.4299 13.97 24.5999 14.62 30.4999 15.18C33.6899 15.48 34.21 15.88 34.9 16.24C34 16.1 32.3499 15.4 30.6699 15.64C29.0999 15.86 24.4199 14.8 24.5099 13.26V13.25Z" fill="#E2ACE1"/>
<path d="M30.58 4.26001C30.44 3.36001 29.93 1.49999 32.27 0.98999C32.46 1.01999 32.32 1.21997 32.32 1.21997C32.32 1.21997 30 1.31003 30.67 4.28003C30.58 4.33003 30.58 4.26001 30.58 4.26001Z" fill="#512013"/>
<path d="M32.33 1.03003C32.33 1.03003 32.36 1.02998 32.37 1.03998C32.36 1.00998 32.33 0.98999 32.28 0.98999C29.93 1.49999 30.45 3.36001 30.59 4.26001C30.59 4.26001 30.59 4.30999 30.64 4.29999C30.5 3.39999 29.99 1.55003 32.33 1.03003Z" fill="#632D1A"/>
<path d="M32.6199 5.32001C32.7699 6.29001 32.11 6.81998 31.14 6.96998C30.15 7.38998 29.2499 6.82999 29.0999 5.85999C28.9499 4.88999 29.68 4.37999 30.65 4.22999C31.66 3.49999 32.4699 4.35001 32.6199 5.32001Z" fill="url(#paint27_radial_30_4900)"/>
<path opacity="0.4" d="M29.8099 5.74C30.1399 5.7 30.3799 5.54999 30.6699 5.41999C30.8799 5.31999 31.1599 5.07999 31.3699 5.28999C31.4899 5.39999 31.6499 5.69002 31.8099 5.45002C31.8699 5.36002 31.8699 5.24999 31.9699 5.16999C32.0799 5.07999 32.1299 5.13002 32.2499 5.14002C32.3299 5.14002 32.3499 5.14 32.3799 5.05C32.4699 4.77 32.28 4.43001 32.09 4.25001C31.88 4.05001 31.5999 3.94003 31.3099 3.96003C31.0699 3.98003 30.8499 4.08999 30.6499 4.22999C30.5899 4.26999 30.4399 4.26999 30.3699 4.28999C30.2799 4.30999 30.1899 4.34 30.0999 4.37C29.9299 4.43 29.7699 4.50999 29.6199 4.60999C29.3699 4.77999 29.0799 5.08999 29.1399 5.41999C29.1999 5.72999 29.5099 5.79001 29.8099 5.75001V5.74Z" fill="url(#paint28_radial_30_4900)"/>
<path d="M27.8599 6.3C27.4199 6.54 26.4699 6.86004 26.3899 7.28004C26.8099 7.04004 27.3399 6.58001 29.4399 8.19001C31.6299 9.86001 34.3999 8.59003 34.0999 7.02003C33.8399 5.63003 32.3199 6.88999 32.0499 6.91999C28.8799 7.24999 28.7299 5.81 27.8399 6.3H27.8599Z" fill="#FFF5FE"/>
<path d="M26.3899 7.28002C26.8099 7.04002 27.3399 6.61996 29.4399 8.21996C31.6299 9.88996 35.1599 8.32001 34.1099 7.02001C34.6399 8.13001 32.1699 8.32002 30.5299 7.84002C28.7799 7.33002 27.0799 6.41002 26.3899 7.28002Z" fill="#FFFAFE"/>
<path opacity="0.6" d="M7.74994 24.97C6.89994 25.7 8.96991 25.78 9.46991 25.99C9.68991 26.22 10.2099 26.38 11.2899 26.31C11.2899 26.31 11.28 26.29 11.27 26.28C11.73 25.94 15.3199 26.02 14.2499 25.01L7.75995 24.97H7.74994Z" fill="url(#paint29_radial_30_4900)"/>
<path d="M12.2599 22.61C12.6899 23.39 11.5799 25.18 10.3799 25.96C11.3499 26.16 11.3599 25.79 11.7799 25.75C15.5999 25.35 13.6099 23.33 12.2599 22.62V22.61Z" fill="#FFF5FE"/>
<path d="M8.12986 25.09C7.45986 25.01 7.78987 24.16 8.44987 23.83C9.38987 23.36 12.1499 22.62 10.3399 21.73C13.7199 21.86 10.6899 25.38 8.12986 25.09Z" fill="#FFFAFE"/>
<path d="M8.12998 25.09C7.83998 25.06 7.74 24.88 7.77 24.67C7.8 24.38 7.73997 24.87 8.67997 24.51C10.19 23.92 12.74 22.67 10.34 21.73C13.72 21.86 10.69 25.38 8.12998 25.09Z" fill="#FFF5FE"/>
<path d="M7.75993 24.67C7.79993 24.91 8.00991 25.11 8.92991 24.69C10.9299 23.78 12.9499 22.33 10.3299 21.73C13.4399 21.85 11.9599 25.54 9.56993 25.77C9.19993 25.47 7.51993 25.72 7.75993 24.67Z" fill="#FCDEFA"/>
<path d="M9.41998 25.3C9.10998 25.37 8.78002 25.38 8.46002 25.31C8.20002 25.25 7.97002 25.15 7.77002 25.01C7.94002 25.66 9.26003 25.5 9.59003 25.76C9.71003 25.75 9.81999 25.73 9.92999 25.7C9.70999 25.61 9.53999 25.47 9.42999 25.29L9.41998 25.3Z" fill="#E2ACE1"/>
<path d="M9.43987 25.66C8.91987 25.08 9.29989 24.56 9.95989 24.23C10.8999 23.76 13.2099 22.34 10.3299 21.73C14.6499 22.15 10.0999 25.46 9.43987 25.66Z" fill="#FFFAFE"/>
<path d="M11.2899 26.03C8.41987 26.22 9.50988 24.77 9.66988 24.69C11.5799 23.72 13.5499 22.2 10.3399 21.74C13.6599 21.91 12.5099 25.01 10.3699 25.45C10.1399 25.5 10.1199 25.53 11.2899 26.03Z" fill="#FFF5FE"/>
<path d="M11.29 26.03C9.2 26.09 10.02 25.4 10.46 25.18C12.6 24.12 12.41 23.03 12.11 22.39C13.73 24.97 10.56 24.91 11.29 26.03Z" fill="#FCDEFA"/>
<path d="M12.26 22.61C16.21 25.05 10.92 25.3 11.23 26.03C11.61 25.61 14.73 26.14 14.3 24.45C14.1 23.65 12.47 22.72 12.25 22.61H12.26Z" fill="#FCDEFA"/>
<path d="M12.25 22.61C14.2 24.26 11.23 25.31 11.22 25.93C11.92 24.99 15.6 24.54 12.25 22.61Z" fill="#FFFAFE"/>
<path d="M8.43994 23.84C9.37994 23.37 12.26 22.69 10.33 21.74C10.78 22.48 9.80994 23.08 8.43994 23.84Z" fill="#FFF5FE"/>
<path d="M11.3099 25.15C13.0399 24.04 12.4099 23.02 12.1099 22.38C13.5299 24.64 11.2799 24.87 11.1799 25.65C11.1699 25.76 10.8799 25.42 11.3099 25.15Z" fill="#E2ACE1"/>
<path d="M11.4099 25.73C11.2699 25.82 11.1899 25.92 11.2399 26.03C11.5699 25.66 13.99 26.03 14.32 24.99C13.76 25.59 12.1999 25.6 11.4099 25.73Z" fill="#E2ACE1"/>
<path opacity="0.6" d="M45.45 24.97C44.6 25.7 46.67 25.78 47.17 25.99C47.39 26.22 47.91 26.38 48.99 26.31C48.99 26.31 48.98 26.29 48.97 26.28C49.43 25.94 53.02 26.02 51.95 25.01L45.46 24.97H45.45Z" fill="url(#paint30_radial_30_4900)"/>
<path d="M49.9699 22.61C50.3999 23.39 49.29 25.18 48.09 25.96C49.06 26.16 49.0699 25.79 49.4899 25.75C53.3099 25.35 51.3199 23.33 49.9699 22.62V22.61Z" fill="#FFF5FE"/>
<path d="M45.8299 25.09C45.1599 25.01 45.4899 24.16 46.1499 23.83C47.0899 23.36 49.8499 22.62 48.0399 21.73C51.4199 21.86 48.3899 25.38 45.8299 25.09Z" fill="#FFFAFE"/>
<path d="M45.83 25.09C45.54 25.06 45.4399 24.88 45.4699 24.67C45.4999 24.38 45.44 24.87 46.38 24.51C47.89 23.92 50.44 22.67 48.04 21.73C51.42 21.86 48.39 25.38 45.83 25.09Z" fill="#FFF5FE"/>
<path d="M45.4699 24.67C45.5099 24.91 45.7199 25.11 46.6399 24.69C48.6399 23.78 50.6599 22.33 48.0399 21.73C51.1499 21.85 49.6699 25.54 47.2799 25.77C46.9099 25.47 45.2299 25.72 45.4699 24.67Z" fill="#FCDEFA"/>
<path d="M47.12 25.3C46.81 25.37 46.48 25.38 46.16 25.31C45.9 25.25 45.67 25.15 45.47 25.01C45.64 25.66 46.96 25.5 47.29 25.76C47.41 25.75 47.52 25.73 47.63 25.7C47.41 25.61 47.24 25.47 47.13 25.29L47.12 25.3Z" fill="#E2ACE1"/>
<path d="M47.15 25.66C46.63 25.08 47.0099 24.56 47.6699 24.23C48.6099 23.76 50.9199 22.34 48.0399 21.73C52.3599 22.15 47.81 25.46 47.15 25.66Z" fill="#FFFAFE"/>
<path d="M48.9899 26.03C46.1199 26.22 47.2099 24.77 47.3699 24.69C49.2799 23.72 51.2499 22.2 48.0399 21.74C51.3599 21.91 50.21 25.01 48.07 25.45C47.84 25.5 47.8199 25.53 48.9899 26.03Z" fill="#FFF5FE"/>
<path d="M48.99 26.03C46.9 26.09 47.72 25.4 48.16 25.18C50.3 24.12 50.11 23.03 49.81 22.39C51.43 24.97 48.26 24.91 48.99 26.03Z" fill="#FCDEFA"/>
<path d="M49.9699 22.61C53.9199 25.05 48.63 25.3 48.94 26.03C49.32 25.61 52.44 26.14 52.01 24.45C51.81 23.65 50.18 22.72 49.96 22.61H49.9699Z" fill="#FCDEFA"/>
<path d="M49.96 22.61C51.91 24.26 48.9399 25.31 48.9299 25.93C49.6299 24.99 53.31 24.54 49.96 22.61Z" fill="#FFFAFE"/>
<path d="M46.1499 23.84C47.0899 23.37 49.9699 22.69 48.0399 21.74C48.4899 22.48 47.5199 23.08 46.1499 23.84Z" fill="#FFF5FE"/>
<path d="M49.01 25.15C50.74 24.04 50.11 23.02 49.81 22.38C51.23 24.64 48.98 24.87 48.88 25.65C48.87 25.76 48.58 25.42 49.01 25.15Z" fill="#E2ACE1"/>
<path d="M49.11 25.73C48.97 25.82 48.89 25.92 48.94 26.03C49.27 25.66 51.69 26.03 52.02 24.99C51.46 25.59 49.9 25.6 49.11 25.73Z" fill="#E2ACE1"/>
<path opacity="0.6" d="M12.16 26.49C11.31 27.22 13.38 27.3 13.88 27.51C14.1 27.74 14.62 27.9 15.7 27.83C15.7 27.83 15.69 27.81 15.68 27.8C16.14 27.46 19.73 27.54 18.66 26.53L12.17 26.49H12.16Z" fill="url(#paint31_radial_30_4900)"/>
<path d="M16.67 24.13C17.1 24.91 15.99 26.7 14.79 27.48C15.76 27.68 15.7701 27.31 16.1901 27.27C20.0101 26.87 18.02 24.85 16.67 24.14V24.13Z" fill="#FFF5FE"/>
<path d="M12.54 26.61C11.87 26.53 12.2 25.68 12.86 25.35C13.8 24.88 16.56 24.14 14.75 23.25C18.13 23.38 15.1 26.9 12.54 26.61Z" fill="#FFFAFE"/>
<path d="M12.5399 26.61C12.2499 26.58 12.1499 26.4 12.1799 26.19C12.2099 25.9 12.1499 26.39 13.0899 26.03C14.5999 25.44 17.1499 24.19 14.7499 23.25C18.1299 23.38 15.0999 26.9 12.5399 26.61Z" fill="#FFF5FE"/>
<path d="M12.17 26.19C12.21 26.43 12.42 26.63 13.34 26.21C15.34 25.3 17.36 23.85 14.74 23.25C17.85 23.37 16.37 27.06 13.98 27.29C13.61 26.99 11.93 27.24 12.17 26.19Z" fill="#FCDEFA"/>
<path d="M13.83 26.82C13.52 26.89 13.1899 26.9 12.8699 26.83C12.6099 26.77 12.3799 26.67 12.1799 26.53C12.3499 27.18 13.6699 27.02 13.9999 27.28C14.1199 27.27 14.23 27.25 14.34 27.22C14.12 27.13 13.95 26.99 13.84 26.81L13.83 26.82Z" fill="#E2ACE1"/>
<path d="M13.85 27.18C13.33 26.6 13.71 26.08 14.37 25.75C15.31 25.28 17.62 23.86 14.74 23.25C19.06 23.67 14.51 26.98 13.85 27.18Z" fill="#FFFAFE"/>
<path d="M15.69 27.55C12.82 27.74 13.91 26.29 14.07 26.21C15.98 25.24 17.95 23.72 14.74 23.26C18.06 23.43 16.91 26.53 14.77 26.97C14.54 27.02 14.52 27.05 15.69 27.55Z" fill="#FFF5FE"/>
<path d="M15.6899 27.55C13.5999 27.61 14.4199 26.92 14.8599 26.7C16.9999 25.64 16.8099 24.55 16.5099 23.91C18.1299 26.49 14.9599 26.43 15.6899 27.55Z" fill="#FCDEFA"/>
<path d="M16.67 24.13C20.62 26.57 15.33 26.82 15.64 27.55C16.02 27.13 19.14 27.66 18.71 25.97C18.51 25.17 16.88 24.24 16.66 24.13H16.67Z" fill="#FCDEFA"/>
<path d="M16.66 24.13C18.61 25.78 15.64 26.83 15.63 27.45C16.33 26.51 20.01 26.06 16.66 24.13Z" fill="#FFFAFE"/>
<path d="M12.85 25.36C13.79 24.89 16.67 24.21 14.74 23.26C15.19 24 14.22 24.6 12.85 25.36Z" fill="#FFF5FE"/>
<path d="M15.72 26.67C17.45 25.56 16.82 24.54 16.52 23.9C17.94 26.16 15.69 26.39 15.59 27.17C15.58 27.28 15.29 26.94 15.72 26.67Z" fill="#E2ACE1"/>
<path d="M15.82 27.25C15.68 27.34 15.6 27.44 15.65 27.55C15.98 27.18 18.3999 27.55 18.7299 26.51C18.1699 27.11 16.61 27.12 15.82 27.25Z" fill="#E2ACE1"/>
<path opacity="0.6" d="M41.66 26.09C40.81 26.82 42.88 26.9 43.38 27.11C43.6 27.34 44.12 27.5 45.2 27.43C45.2 27.43 45.19 27.41 45.18 27.4C45.64 27.06 49.23 27.14 48.16 26.13L41.67 26.09H41.66Z" fill="url(#paint32_radial_30_4900)"/>
<path d="M46.1801 23.72C46.6101 24.5 45.5 26.29 44.3 27.07C45.27 27.27 45.2801 26.9 45.7001 26.86C49.5201 26.46 47.5301 24.44 46.1801 23.73V23.72Z" fill="#FFF5FE"/>
<path d="M42.04 26.21C41.37 26.13 41.7 25.28 42.36 24.95C43.3 24.48 46.06 23.74 44.25 22.85C47.63 22.98 44.6 26.5 42.04 26.21Z" fill="#FFFAFE"/>
<path d="M42.0399 26.21C41.7499 26.18 41.6499 26 41.6799 25.79C41.7099 25.5 41.6499 25.99 42.5899 25.63C44.0999 25.04 46.6499 23.79 44.2499 22.85C47.6299 22.98 44.5999 26.5 42.0399 26.21Z" fill="#FFF5FE"/>
<path d="M41.68 25.79C41.72 26.03 41.93 26.23 42.85 25.81C44.85 24.9 46.87 23.45 44.25 22.85C47.36 22.97 45.88 26.66 43.49 26.89C43.12 26.59 41.44 26.84 41.68 25.79Z" fill="#FCDEFA"/>
<path d="M43.33 26.42C43.02 26.49 42.6899 26.5 42.3699 26.43C42.1099 26.37 41.8799 26.27 41.6799 26.13C41.8499 26.78 43.1699 26.62 43.4999 26.88C43.6199 26.87 43.73 26.85 43.84 26.82C43.62 26.73 43.45 26.59 43.34 26.41L43.33 26.42Z" fill="#E2ACE1"/>
<path d="M43.36 26.78C42.84 26.2 43.2201 25.68 43.8801 25.35C44.8201 24.88 47.13 23.46 44.25 22.85C48.57 23.27 44.02 26.58 43.36 26.78Z" fill="#FFFAFE"/>
<path d="M45.2 27.14C42.33 27.33 43.42 25.88 43.58 25.8C45.49 24.83 47.46 23.31 44.25 22.85C47.57 23.02 46.42 26.12 44.28 26.56C44.05 26.61 44.03 26.64 45.2 27.14Z" fill="#FFF5FE"/>
<path d="M45.1999 27.14C43.1099 27.2 43.9299 26.51 44.3699 26.29C46.5099 25.23 46.32 24.14 46.02 23.5C47.64 26.08 44.4699 26.02 45.1999 27.14Z" fill="#FCDEFA"/>
<path d="M46.18 23.72C50.13 26.16 44.84 26.41 45.15 27.14C45.53 26.72 48.65 27.25 48.22 25.56C48.02 24.76 46.39 23.83 46.17 23.72H46.18Z" fill="#FCDEFA"/>
<path d="M46.17 23.72C48.12 25.37 45.15 26.42 45.14 27.04C45.84 26.1 49.52 25.65 46.17 23.72Z" fill="#FFFAFE"/>
<path d="M42.36 24.95C43.3 24.48 46.18 23.8 44.25 22.85C44.7 23.59 43.73 24.19 42.36 24.95Z" fill="#FFF5FE"/>
<path d="M45.22 26.27C46.95 25.16 46.32 24.14 46.02 23.5C47.44 25.76 45.19 25.99 45.09 26.77C45.08 26.88 44.79 26.54 45.22 26.27Z" fill="#E2ACE1"/>
<path d="M45.32 26.85C45.18 26.94 45.1 27.04 45.15 27.15C45.48 26.78 47.8999 27.15 48.2299 26.11C47.6699 26.71 46.11 26.72 45.32 26.85Z" fill="#E2ACE1"/>
<path opacity="0.6" d="M17.5499 27.23C16.6999 27.96 18.7699 28.04 19.2699 28.25C19.4899 28.48 20.0099 28.64 21.0899 28.57C21.0899 28.57 21.0799 28.55 21.0699 28.54C21.5299 28.2 25.1199 28.28 24.0499 27.27L17.5599 27.23H17.5499Z" fill="url(#paint33_radial_30_4900)"/>
<path d="M22.0599 24.87C22.4899 25.65 21.3799 27.44 20.1799 28.22C21.1499 28.42 21.16 28.05 21.58 28.01C25.4 27.61 23.4099 25.59 22.0599 24.88V24.87Z" fill="#FFF5FE"/>
<path d="M17.9299 27.35C17.2599 27.27 17.5899 26.42 18.2499 26.09C19.1899 25.62 21.9499 24.88 20.1399 23.99C23.5199 24.12 20.4899 27.64 17.9299 27.35Z" fill="#FFFAFE"/>
<path d="M17.9298 27.35C17.6398 27.32 17.5398 27.14 17.5698 26.93C17.5998 26.64 17.5398 27.13 18.4798 26.77C19.9898 26.18 22.5398 24.93 20.1398 23.99C23.5198 24.12 20.4898 27.64 17.9298 27.35Z" fill="#FFF5FE"/>
<path d="M17.5699 26.93C17.6099 27.17 17.8198 27.37 18.7398 26.95C20.7399 26.04 22.7599 24.59 20.1399 23.99C23.2499 24.11 21.7699 27.8 19.3799 28.03C19.0099 27.73 17.3299 27.98 17.5699 26.93Z" fill="#FCDEFA"/>
<path d="M19.2198 27.56C18.9098 27.63 18.5798 27.64 18.2598 27.57C17.9998 27.51 17.7698 27.41 17.5698 27.27C17.7398 27.92 19.0598 27.76 19.3898 28.02C19.5098 28.01 19.6198 27.99 19.7298 27.96C19.5098 27.87 19.3398 27.73 19.2298 27.55L19.2198 27.56Z" fill="#E2ACE1"/>
<path d="M19.2399 27.92C18.7199 27.34 19.0999 26.82 19.7599 26.49C20.6999 26.02 23.0099 24.6 20.1299 23.99C24.4499 24.41 19.8999 27.72 19.2399 27.92Z" fill="#FFFAFE"/>
<path d="M21.09 28.29C18.22 28.48 19.3099 27.03 19.4699 26.95C21.3799 25.98 23.3499 24.46 20.1399 24C23.4599 24.17 22.3099 27.27 20.1699 27.71C19.9399 27.76 19.92 27.79 21.09 28.29Z" fill="#FFF5FE"/>
<path d="M21.0898 28.29C18.9998 28.35 19.8198 27.66 20.2598 27.44C22.3998 26.38 22.2098 25.29 21.9098 24.65C23.5298 27.23 20.3598 27.17 21.0898 28.29Z" fill="#FCDEFA"/>
<path d="M22.0599 24.87C26.0099 27.31 20.7199 27.56 21.0299 28.29C21.4099 27.87 24.5299 28.4 24.0999 26.71C23.8999 25.91 22.2699 24.98 22.0499 24.87H22.0599Z" fill="#FCDEFA"/>
<path d="M22.0499 24.87C23.9999 26.52 21.0299 27.57 21.0199 28.19C21.7199 27.25 25.3999 26.8 22.0499 24.87Z" fill="#FFFAFE"/>
<path d="M18.2499 26.1C19.1899 25.63 22.0699 24.95 20.1399 24C20.5899 24.74 19.6199 25.34 18.2499 26.1Z" fill="#FFF5FE"/>
<path d="M21.1099 27.41C22.8399 26.3 22.2099 25.28 21.9099 24.64C23.3299 26.9 21.0799 27.13 20.9799 27.91C20.9699 28.02 20.6799 27.68 21.1099 27.41Z" fill="#E2ACE1"/>
<path d="M21.2099 27.99C21.0699 28.08 20.9899 28.18 21.0399 28.29C21.3699 27.92 23.7899 28.29 24.1199 27.25C23.5599 27.85 21.9999 27.86 21.2099 27.99Z" fill="#E2ACE1"/>
<path opacity="0.6" d="M36.2999 27.11C35.4499 27.84 37.5199 27.92 38.0199 28.13C38.2399 28.36 38.7599 28.52 39.8399 28.45C39.8399 28.45 39.8299 28.43 39.8199 28.42C40.2799 28.08 43.8699 28.16 42.7999 27.15L36.3099 27.11H36.2999Z" fill="url(#paint34_radial_30_4900)"/>
<path d="M40.8099 24.74C41.2399 25.52 40.1299 27.31 38.9299 28.09C39.8999 28.29 39.91 27.92 40.33 27.88C44.15 27.48 42.1599 25.46 40.8099 24.75V24.74Z" fill="#FFF5FE"/>
<path d="M36.6799 27.23C36.0099 27.15 36.3399 26.3 36.9999 25.97C37.9399 25.5 40.6999 24.76 38.8899 23.87C42.2699 24 39.2399 27.52 36.6799 27.23Z" fill="#FFFAFE"/>
<path d="M36.6798 27.23C36.3898 27.2 36.2898 27.02 36.3198 26.81C36.3498 26.52 36.2898 27.01 37.2298 26.65C38.7398 26.06 41.2898 24.81 38.8898 23.87C42.2698 24 39.2398 27.52 36.6798 27.23Z" fill="#FFF5FE"/>
<path d="M36.3099 26.81C36.3499 27.05 36.5598 27.25 37.4798 26.83C39.4798 25.92 41.4999 24.47 38.8799 23.87C41.9899 23.99 40.5099 27.68 38.1199 27.91C37.7499 27.61 36.0699 27.86 36.3099 26.81Z" fill="#FCDEFA"/>
<path d="M37.9598 27.44C37.6498 27.51 37.3198 27.52 36.9998 27.45C36.7398 27.39 36.5098 27.29 36.3098 27.15C36.4798 27.8 37.7998 27.64 38.1298 27.9C38.2498 27.89 38.3598 27.87 38.4698 27.84C38.2498 27.75 38.0798 27.61 37.9698 27.43L37.9598 27.44Z" fill="#E2ACE1"/>
<path d="M37.9899 27.8C37.4699 27.22 37.8499 26.7 38.5099 26.37C39.4499 25.9 41.7599 24.48 38.8799 23.87C43.1999 24.29 38.6499 27.6 37.9899 27.8Z" fill="#FFFAFE"/>
<path d="M39.8299 28.17C36.9599 28.36 38.0499 26.91 38.2099 26.83C40.1199 25.86 42.0899 24.34 38.8799 23.88C42.1999 24.05 41.0499 27.15 38.9099 27.59C38.6799 27.64 38.6599 27.67 39.8299 28.17Z" fill="#FFF5FE"/>
<path d="M39.8298 28.17C37.7398 28.23 38.5598 27.54 38.9998 27.32C41.1398 26.26 40.9498 25.17 40.6498 24.53C42.2698 27.11 39.0998 27.05 39.8298 28.17Z" fill="#FCDEFA"/>
<path d="M40.8099 24.74C44.7599 27.18 39.4699 27.43 39.7799 28.16C40.1599 27.74 43.2799 28.27 42.8499 26.58C42.6499 25.78 41.0199 24.85 40.7999 24.74H40.8099Z" fill="#FCDEFA"/>
<path d="M40.7999 24.75C42.7499 26.4 39.7799 27.45 39.7699 28.07C40.4699 27.13 44.1499 26.68 40.7999 24.75Z" fill="#FFFAFE"/>
<path d="M36.9899 25.98C37.9299 25.51 40.8099 24.83 38.8799 23.88C39.3299 24.62 38.3599 25.22 36.9899 25.98Z" fill="#FFF5FE"/>
<path d="M39.8499 27.29C41.5799 26.18 40.9499 25.16 40.6499 24.52C42.0699 26.78 39.8199 27.01 39.7199 27.79C39.7099 27.9 39.4199 27.56 39.8499 27.29Z" fill="#E2ACE1"/>
<path d="M39.9599 27.87C39.8199 27.96 39.7399 28.06 39.7899 28.17C40.1199 27.8 42.5399 28.17 42.8699 27.13C42.3099 27.73 40.7499 27.74 39.9599 27.87Z" fill="#E2ACE1"/>
<path opacity="0.6" d="M23.7 27.51C22.85 28.24 24.92 28.32 25.42 28.53C25.64 28.76 26.16 28.92 27.24 28.85C27.24 28.85 27.23 28.83 27.22 28.82C27.68 28.48 31.27 28.56 30.2 27.55L23.71 27.51H23.7Z" fill="url(#paint35_radial_30_4900)"/>
<path d="M28.2101 25.14C28.6401 25.92 27.5301 27.71 26.3301 28.49C27.3001 28.69 27.31 28.32 27.73 28.28C31.55 27.88 29.5601 25.86 28.2101 25.15V25.14Z" fill="#FFF5FE"/>
<path d="M24.07 27.63C23.4 27.55 23.7301 26.7 24.3901 26.37C25.3301 25.9 28.0901 25.16 26.2801 24.27C29.6601 24.4 26.63 27.92 24.07 27.63Z" fill="#FFFAFE"/>
<path d="M24.0699 27.63C23.7799 27.6 23.6799 27.42 23.7099 27.21C23.7399 26.92 23.6799 27.41 24.6199 27.05C26.1299 26.46 28.6799 25.21 26.2799 24.27C29.6599 24.4 26.6299 27.92 24.0699 27.63Z" fill="#FFF5FE"/>
<path d="M23.71 27.21C23.75 27.45 23.96 27.65 24.88 27.23C26.88 26.32 28.9 24.87 26.28 24.27C29.39 24.39 27.91 28.08 25.52 28.31C25.15 28.01 23.47 28.26 23.71 27.21Z" fill="#FCDEFA"/>
<path d="M25.3599 27.84C25.0499 27.91 24.72 27.92 24.4 27.85C24.14 27.79 23.91 27.69 23.71 27.55C23.88 28.2 25.2 28.04 25.53 28.3C25.65 28.29 25.7599 28.27 25.8699 28.24C25.6499 28.15 25.4799 28.01 25.3699 27.83L25.3599 27.84Z" fill="#E2ACE1"/>
<path d="M25.3901 28.2C24.8701 27.62 25.25 27.1 25.91 26.77C26.85 26.3 29.1601 24.88 26.2801 24.27C30.6001 24.69 26.0501 28 25.3901 28.2Z" fill="#FFFAFE"/>
<path d="M27.2301 28.56C24.3601 28.75 25.4501 27.3 25.6101 27.22C27.5201 26.25 29.4901 24.73 26.2801 24.27C29.6001 24.44 28.4501 27.54 26.3101 27.98C26.0801 28.03 26.0601 28.06 27.2301 28.56Z" fill="#FFF5FE"/>
<path d="M27.2299 28.56C25.1399 28.62 25.96 27.93 26.4 27.71C28.54 26.65 28.3499 25.56 28.0499 24.92C29.67 27.5 26.4999 27.44 27.2299 28.56Z" fill="#FCDEFA"/>
<path d="M28.21 25.14C32.16 27.58 26.87 27.83 27.18 28.56C27.56 28.14 30.68 28.67 30.25 26.98C30.05 26.18 28.42 25.25 28.2 25.14H28.21Z" fill="#FCDEFA"/>
<path d="M28.2 25.15C30.15 26.8 27.1799 27.85 27.1699 28.47C27.8699 27.53 31.55 27.08 28.2 25.15Z" fill="#FFFAFE"/>
<path d="M24.39 26.37C25.33 25.9 28.21 25.22 26.28 24.27C26.73 25.01 25.76 25.61 24.39 26.37Z" fill="#FFF5FE"/>
<path d="M27.25 27.69C28.98 26.58 28.35 25.56 28.05 24.92C29.47 27.18 27.22 27.41 27.12 28.19C27.11 28.3 26.82 27.96 27.25 27.69Z" fill="#E2ACE1"/>
<path d="M27.36 28.27C27.22 28.36 27.14 28.46 27.19 28.57C27.52 28.2 29.94 28.57 30.27 27.53C29.71 28.13 28.15 28.14 27.36 28.27Z" fill="#E2ACE1"/>
<path opacity="0.6" d="M29.96 27.52C29.11 28.25 31.18 28.33 31.68 28.54C31.9 28.77 32.42 28.93 33.5 28.86C33.5 28.86 33.49 28.84 33.48 28.83C33.94 28.49 37.53 28.57 36.46 27.56L29.97 27.52H29.96Z" fill="url(#paint36_radial_30_4900)"/>
<path d="M34.4799 25.16C34.9099 25.94 33.7999 27.73 32.5999 28.51C33.5699 28.71 33.5799 28.34 33.9999 28.3C37.8199 27.9 35.8299 25.88 34.4799 25.17V25.16Z" fill="#FFF5FE"/>
<path d="M30.34 27.65C29.67 27.57 29.9999 26.72 30.6599 26.39C31.5999 25.92 34.3599 25.18 32.5499 24.29C35.9299 24.42 32.9 27.94 30.34 27.65Z" fill="#FFFAFE"/>
<path d="M30.34 27.65C30.05 27.62 29.95 27.44 29.98 27.23C30.01 26.94 29.95 27.43 30.89 27.07C32.4 26.48 34.95 25.23 32.55 24.29C35.93 24.42 32.9 27.94 30.34 27.65Z" fill="#FFF5FE"/>
<path d="M29.9799 27.23C30.0199 27.47 30.2299 27.67 31.1499 27.25C33.1499 26.34 35.1699 24.89 32.5499 24.29C35.6599 24.41 34.1799 28.1 31.7899 28.33C31.4199 28.03 29.7399 28.28 29.9799 27.23Z" fill="#FCDEFA"/>
<path d="M31.63 27.86C31.32 27.93 30.99 27.94 30.67 27.87C30.41 27.81 30.18 27.71 29.98 27.57C30.15 28.22 31.47 28.06 31.8 28.32C31.92 28.31 32.03 28.29 32.14 28.26C31.92 28.17 31.75 28.03 31.64 27.85L31.63 27.86Z" fill="#E2ACE1"/>
<path d="M31.6598 28.21C31.1398 27.63 31.5199 27.11 32.1799 26.78C33.1199 26.31 35.4299 24.89 32.5499 24.28C36.8699 24.7 32.3198 28.01 31.6598 28.21Z" fill="#FFFAFE"/>
<path d="M33.5 28.58C30.63 28.77 31.72 27.32 31.88 27.24C33.79 26.27 35.7599 24.75 32.5499 24.29C35.8699 24.46 34.72 27.56 32.58 28C32.35 28.05 32.33 28.08 33.5 28.58Z" fill="#FFF5FE"/>
<path d="M33.5 28.58C31.41 28.64 32.23 27.95 32.67 27.73C34.81 26.67 34.62 25.58 34.32 24.94C35.94 27.52 32.77 27.46 33.5 28.58Z" fill="#FCDEFA"/>
<path d="M34.4799 25.16C38.4299 27.6 33.14 27.85 33.45 28.58C33.83 28.16 36.95 28.69 36.52 27C36.32 26.2 34.6899 25.27 34.4699 25.16H34.4799Z" fill="#FCDEFA"/>
<path d="M34.4699 25.16C36.4199 26.81 33.4499 27.86 33.4399 28.48C34.1399 27.54 37.8199 27.09 34.4699 25.16Z" fill="#FFFAFE"/>
<path d="M30.6599 26.39C31.5999 25.92 34.4799 25.24 32.5499 24.29C32.9999 25.03 32.0299 25.63 30.6599 26.39Z" fill="#FFF5FE"/>
<path d="M33.52 27.71C35.25 26.6 34.62 25.58 34.32 24.94C35.74 27.2 33.49 27.43 33.39 28.21C33.38 28.32 33.09 27.98 33.52 27.71Z" fill="#E2ACE1"/>
<path d="M33.62 28.29C33.48 28.38 33.4 28.48 33.45 28.59C33.78 28.22 36.2 28.59 36.53 27.55C35.97 28.15 34.41 28.16 33.62 28.29Z" fill="#E2ACE1"/>
<path opacity="0.6" d="M2.06989 38.71C1.21989 39.44 3.28986 39.52 3.78986 39.73C4.00986 39.96 4.52987 40.12 5.60987 40.05C5.60987 40.05 5.59991 40.03 5.58991 40.02C6.04991 39.68 9.63989 39.76 8.56989 38.75L2.0799 38.71H2.06989Z" fill="url(#paint37_radial_30_4900)"/>
<path d="M6.57996 36.35C7.00996 37.13 5.89995 38.92 4.69995 39.7C5.66995 39.9 5.67991 39.53 6.09991 39.49C9.91991 39.09 7.92996 37.07 6.57996 36.36V36.35Z" fill="#FFF5FE"/>
<path d="M2.44993 38.83C1.77993 38.75 2.10993 37.9 2.76993 37.57C3.70993 37.1 6.46989 36.36 4.65989 35.47C8.03989 35.6 5.00993 39.12 2.44993 38.83Z" fill="#FFFAFE"/>
<path d="M2.44981 38.83C2.15981 38.8 2.05982 38.62 2.08982 38.41C2.11982 38.12 2.05979 38.61 2.99979 38.25C4.50979 37.66 7.05977 36.41 4.65977 35.47C8.03977 35.6 5.00981 39.12 2.44981 38.83Z" fill="#FFF5FE"/>
<path d="M2.08989 38.41C2.12989 38.65 2.33987 38.85 3.25987 38.43C5.25987 37.52 7.27983 36.07 4.65983 35.47C7.76983 35.59 6.28988 39.28 3.89988 39.51C3.52988 39.21 1.84989 39.46 2.08989 38.41Z" fill="#FCDEFA"/>
<path d="M3.73981 39.04C3.42981 39.11 3.09985 39.12 2.77985 39.05C2.51985 38.99 2.28984 38.89 2.08984 38.75C2.25984 39.4 3.57979 39.24 3.90979 39.5C4.02979 39.49 4.13982 39.47 4.24982 39.44C4.02982 39.35 3.85982 39.21 3.74982 39.03L3.73981 39.04Z" fill="#E2ACE1"/>
<path d="M3.75994 39.4C3.23994 38.82 3.61996 38.3 4.27996 37.97C5.21996 37.5 7.52995 36.08 4.64995 35.47C8.96995 35.89 4.41994 39.2 3.75994 39.4Z" fill="#FFFAFE"/>
<path d="M5.60994 39.77C2.73994 39.96 3.82994 38.51 3.98994 38.43C5.89994 37.46 7.86993 35.94 4.65993 35.48C7.97993 35.65 6.82996 38.75 4.68996 39.19C4.45996 39.24 4.43994 39.27 5.60994 39.77Z" fill="#FFF5FE"/>
<path d="M5.60983 39.77C3.51983 39.83 4.33987 39.14 4.77987 38.92C6.91987 37.86 6.72983 36.77 6.42983 36.13C8.04983 38.71 4.87983 38.65 5.60983 39.77Z" fill="#FCDEFA"/>
<path d="M6.57985 36.35C10.5299 38.79 5.23982 39.04 5.54982 39.77C5.92982 39.35 9.04983 39.88 8.61983 38.19C8.41983 37.39 6.78984 36.46 6.56984 36.35H6.57985Z" fill="#FCDEFA"/>
<path d="M6.56982 36.35C8.51982 38 5.54979 39.05 5.53979 39.67C6.23979 38.73 9.91982 38.28 6.56982 36.35Z" fill="#FFFAFE"/>
<path d="M2.7699 37.58C3.7099 37.11 6.58985 36.43 4.65985 35.48C5.10985 36.22 4.1399 36.82 2.7699 37.58Z" fill="#FFF5FE"/>
<path d="M5.62989 38.89C7.35989 37.78 6.72988 36.76 6.42988 36.12C7.84988 38.38 5.59989 38.61 5.49989 39.39C5.48989 39.5 5.19989 39.16 5.62989 38.89Z" fill="#E2ACE1"/>
<path d="M5.72987 39.47C5.58987 39.56 5.50989 39.66 5.55989 39.77C5.88989 39.4 8.30991 39.77 8.6399 38.73C8.07991 39.33 6.51987 39.34 5.72987 39.47Z" fill="#E2ACE1"/>
<path opacity="0.6" d="M52.02 38.84C51.17 39.57 53.2399 39.65 53.7399 39.86C53.9599 40.09 54.4799 40.25 55.5599 40.18C55.5599 40.18 55.5499 40.16 55.5399 40.15C55.9999 39.81 59.59 39.89 58.52 38.88L52.03 38.84H52.02Z" fill="url(#paint38_radial_30_4900)"/>
<path d="M56.53 36.47C56.96 37.25 55.85 39.04 54.65 39.82C55.62 40.02 55.63 39.65 56.05 39.61C59.87 39.21 57.88 37.19 56.53 36.48V36.47Z" fill="#FFF5FE"/>
<path d="M52.4 38.96C51.73 38.88 52.06 38.03 52.72 37.7C53.66 37.23 56.42 36.49 54.61 35.6C57.99 35.73 54.96 39.25 52.4 38.96Z" fill="#FFFAFE"/>
<path d="M52.4001 38.96C52.1101 38.93 52.01 38.75 52.04 38.54C52.07 38.25 52.01 38.74 52.95 38.38C54.46 37.79 57.01 36.54 54.61 35.6C57.99 35.73 54.9601 39.25 52.4001 38.96Z" fill="#FFF5FE"/>
<path d="M52.04 38.54C52.08 38.78 52.29 38.98 53.21 38.56C55.21 37.65 57.23 36.2 54.61 35.6C57.72 35.72 56.24 39.41 53.85 39.64C53.48 39.34 51.8 39.59 52.04 38.54Z" fill="#FCDEFA"/>
<path d="M53.6901 39.17C53.3801 39.24 53.05 39.25 52.73 39.18C52.47 39.12 52.24 39.02 52.04 38.88C52.21 39.53 53.53 39.37 53.86 39.63C53.98 39.62 54.0901 39.6 54.2001 39.57C53.9801 39.48 53.8101 39.34 53.7001 39.16L53.6901 39.17Z" fill="#E2ACE1"/>
<path d="M53.7199 39.53C53.1999 38.95 53.5799 38.43 54.2399 38.1C55.1799 37.63 57.4899 36.21 54.6099 35.6C58.9299 36.02 54.3799 39.33 53.7199 39.53Z" fill="#FFFAFE"/>
<path d="M55.56 39.9C52.69 40.09 53.78 38.64 53.94 38.56C55.85 37.59 57.82 36.07 54.61 35.61C57.93 35.78 56.78 38.88 54.64 39.32C54.41 39.37 54.39 39.4 55.56 39.9Z" fill="#FFF5FE"/>
<path d="M55.5601 39.9C53.4701 39.96 54.29 39.27 54.73 39.05C56.87 37.99 56.6801 36.9 56.3801 36.26C58.0001 38.84 54.8301 38.78 55.5601 39.9Z" fill="#FCDEFA"/>
<path d="M56.53 36.47C60.48 38.91 55.19 39.16 55.5 39.89C55.88 39.47 59 40 58.57 38.31C58.37 37.51 56.74 36.58 56.52 36.47H56.53Z" fill="#FCDEFA"/>
<path d="M56.53 36.48C58.48 38.13 55.51 39.18 55.5 39.8C56.2 38.86 59.88 38.41 56.53 36.48Z" fill="#FFFAFE"/>
<path d="M52.72 37.71C53.66 37.24 56.54 36.56 54.61 35.61C55.06 36.35 54.09 36.95 52.72 37.71Z" fill="#FFF5FE"/>
<path d="M55.5801 39.02C57.3101 37.91 56.6801 36.89 56.3801 36.25C57.8001 38.51 55.5501 38.74 55.4501 39.52C55.4401 39.63 55.1501 39.29 55.5801 39.02Z" fill="#E2ACE1"/>
<path d="M55.6801 39.6C55.5401 39.69 55.4601 39.79 55.5101 39.9C55.8401 39.53 58.2601 39.9 58.5901 38.86C58.0301 39.46 56.4701 39.47 55.6801 39.6Z" fill="#E2ACE1"/>
<path opacity="0.6" d="M48.7999 40.54C47.9499 41.27 50.0199 41.35 50.5199 41.56C50.7399 41.79 51.2599 41.95 52.3399 41.88C52.3399 41.88 52.3299 41.86 52.3199 41.85C52.7799 41.51 56.3699 41.59 55.2999 40.58L48.8099 40.54H48.7999Z" fill="url(#paint39_radial_30_4900)"/>
<path d="M53.3099 38.18C53.7399 38.96 52.6299 40.75 51.4299 41.53C52.3999 41.73 52.41 41.36 52.83 41.32C56.65 40.92 54.6599 38.9 53.3099 38.19V38.18Z" fill="#FFF5FE"/>
<path d="M49.1699 40.66C48.4999 40.58 48.8299 39.73 49.4899 39.4C50.4299 38.93 53.1899 38.19 51.3799 37.3C54.7599 37.43 51.7299 40.95 49.1699 40.66Z" fill="#FFFAFE"/>
<path d="M49.1698 40.66C48.8798 40.63 48.7798 40.45 48.8098 40.24C48.8398 39.95 48.7798 40.44 49.7198 40.08C51.2298 39.49 53.7798 38.24 51.3798 37.3C54.7598 37.43 51.7298 40.95 49.1698 40.66Z" fill="#FFF5FE"/>
<path d="M48.8099 40.24C48.8499 40.48 49.0598 40.68 49.9798 40.26C51.9798 39.35 53.9999 37.9 51.3799 37.3C54.4899 37.42 53.0099 41.11 50.6199 41.34C50.2499 41.04 48.5699 41.29 48.8099 40.24Z" fill="#FCDEFA"/>
<path d="M50.4598 40.87C50.1498 40.94 49.8198 40.95 49.4998 40.88C49.2398 40.82 49.0098 40.72 48.8098 40.58C48.9798 41.23 50.2998 41.07 50.6298 41.33C50.7498 41.32 50.8598 41.3 50.9698 41.27C50.7498 41.18 50.5798 41.04 50.4698 40.86L50.4598 40.87Z" fill="#E2ACE1"/>
<path d="M50.4899 41.23C49.9699 40.65 50.3499 40.13 51.0099 39.8C51.9499 39.33 54.2599 37.91 51.3799 37.3C55.6999 37.72 51.1499 41.03 50.4899 41.23Z" fill="#FFFAFE"/>
<path d="M52.3299 41.6C49.4599 41.79 50.5499 40.34 50.7099 40.26C52.6199 39.29 54.5899 37.77 51.3799 37.31C54.6999 37.48 53.5499 40.58 51.4099 41.02C51.1799 41.07 51.1599 41.1 52.3299 41.6Z" fill="#FFF5FE"/>
<path d="M52.3298 41.6C50.2398 41.66 51.0598 40.97 51.4998 40.75C53.6398 39.69 53.4498 38.6 53.1498 37.96C54.7698 40.54 51.5998 40.48 52.3298 41.6Z" fill="#FCDEFA"/>
<path d="M53.3099 38.18C57.2599 40.62 51.9699 40.87 52.2799 41.6C52.6599 41.18 55.7799 41.71 55.3499 40.02C55.1499 39.22 53.5199 38.29 53.2999 38.18H53.3099Z" fill="#FCDEFA"/>
<path d="M53.2999 38.18C55.2499 39.83 52.2799 40.88 52.2699 41.5C52.9699 40.56 56.6499 40.11 53.2999 38.18Z" fill="#FFFAFE"/>
<path d="M49.4899 39.41C50.4299 38.94 53.3099 38.26 51.3799 37.31C51.8299 38.05 50.8599 38.65 49.4899 39.41Z" fill="#FFF5FE"/>
<path d="M52.3499 40.72C54.0799 39.61 53.4499 38.59 53.1499 37.95C54.5699 40.21 52.3199 40.44 52.2199 41.22C52.2099 41.33 51.9199 40.99 52.3499 40.72Z" fill="#E2ACE1"/>
<path d="M52.4498 41.3C52.3098 41.39 52.2299 41.49 52.2799 41.6C52.6099 41.23 55.0298 41.6 55.3598 40.56C54.7998 41.16 53.2398 41.17 52.4498 41.3Z" fill="#E2ACE1"/>
<path opacity="0.6" d="M5.37995 40.79C4.52995 41.52 6.59992 41.6 7.09992 41.81C7.31992 42.04 7.83992 42.2 8.91992 42.13C8.91992 42.13 8.90997 42.11 8.89997 42.1C9.35997 41.76 12.9499 41.84 11.8799 40.83L5.38996 40.79H5.37995Z" fill="url(#paint40_radial_30_4900)"/>
<path d="M9.89001 38.43C10.32 39.21 9.21001 41 8.01001 41.78C8.98001 41.98 8.98997 41.61 9.40997 41.57C13.23 41.17 11.24 39.15 9.89001 38.44V38.43Z" fill="#FFF5FE"/>
<path d="M5.75999 40.92C5.08999 40.84 5.41999 39.99 6.07999 39.66C7.01999 39.19 9.77995 38.45 7.96995 37.56C11.3499 37.69 8.31999 41.21 5.75999 40.92Z" fill="#FFFAFE"/>
<path d="M5.75986 40.92C5.46986 40.89 5.36988 40.71 5.39988 40.5C5.42988 40.21 5.36985 40.7 6.30985 40.34C7.81985 39.75 10.3698 38.5 7.96983 37.56C11.3498 37.69 8.31986 41.21 5.75986 40.92Z" fill="#FFF5FE"/>
<path d="M5.38994 40.5C5.42994 40.74 5.63992 40.94 6.55992 40.52C8.55992 39.61 10.5799 38.16 7.95994 37.56C11.0699 37.68 9.58993 41.37 7.19993 41.6C6.82993 41.3 5.14994 41.55 5.38994 40.5Z" fill="#FCDEFA"/>
<path d="M7.04987 41.13C6.73987 41.2 6.4099 41.21 6.0899 41.14C5.8299 41.08 5.5999 40.98 5.3999 40.84C5.5699 41.49 6.88985 41.33 7.21985 41.59C7.33985 41.58 7.44988 41.56 7.55988 41.53C7.33988 41.44 7.16988 41.3 7.05988 41.12L7.04987 41.13Z" fill="#E2ACE1"/>
<path d="M7.07 41.48C6.55 40.9 6.93002 40.38 7.59002 40.05C8.53002 39.58 10.84 38.16 7.96001 37.55C12.28 37.97 7.73 41.28 7.07 41.48Z" fill="#FFFAFE"/>
<path d="M8.92 41.85C6.05 42.04 7.14 40.59 7.3 40.51C9.21 39.54 11.18 38.02 7.96999 37.56C11.29 37.73 10.14 40.83 8.00001 41.27C7.77001 41.32 7.75 41.35 8.92 41.85Z" fill="#FFF5FE"/>
<path d="M8.91988 41.85C6.82988 41.91 7.64993 41.22 8.08993 41C10.2299 39.94 10.0399 38.85 9.73989 38.21C11.3599 40.79 8.18988 40.73 8.91988 41.85Z" fill="#FCDEFA"/>
<path d="M9.88991 38.43C13.8399 40.87 8.54988 41.12 8.85988 41.85C9.23988 41.43 12.3599 41.96 11.9299 40.27C11.7299 39.47 10.0999 38.54 9.8799 38.43H9.88991Z" fill="#FCDEFA"/>
<path d="M9.87988 38.43C11.8299 40.08 8.85985 41.13 8.84985 41.75C9.54985 40.81 13.2299 40.36 9.87988 38.43Z" fill="#FFFAFE"/>
<path d="M6.06995 39.66C7.00995 39.19 9.88996 38.51 7.95996 37.56C8.40996 38.3 7.43995 38.9 6.06995 39.66Z" fill="#FFF5FE"/>
<path d="M8.93995 40.98C10.67 39.87 10.0399 38.85 9.73994 38.21C11.1599 40.47 8.90995 40.7 8.80995 41.48C8.79995 41.59 8.50995 41.25 8.93995 40.98Z" fill="#E2ACE1"/>
<path d="M9.03993 41.56C8.89993 41.65 8.81995 41.75 8.86995 41.86C9.19995 41.49 11.62 41.86 11.95 40.82C11.39 41.42 9.82993 41.43 9.03993 41.56Z" fill="#E2ACE1"/>
<path opacity="0.6" d="M44.0699 41.74C43.2199 42.47 45.2899 42.55 45.7899 42.76C46.0099 42.99 46.5299 43.15 47.6099 43.08C47.6099 43.08 47.5999 43.06 47.5899 43.05C48.0499 42.71 51.6399 42.79 50.5699 41.78L44.0799 41.74H44.0699Z" fill="url(#paint41_radial_30_4900)"/>
<path d="M48.58 39.38C49.01 40.16 47.9 41.95 46.7 42.73C47.67 42.93 47.6799 42.56 48.0999 42.52C51.9199 42.12 49.93 40.1 48.58 39.39V39.38Z" fill="#FFF5FE"/>
<path d="M44.4499 41.86C43.7799 41.78 44.1099 40.93 44.7699 40.6C45.7099 40.13 48.4699 39.39 46.6599 38.5C50.0399 38.63 47.0099 42.15 44.4499 41.86Z" fill="#FFFAFE"/>
<path d="M44.4498 41.86C44.1598 41.83 44.0598 41.65 44.0898 41.44C44.1198 41.15 44.0598 41.64 44.9998 41.28C46.5098 40.69 49.0598 39.44 46.6598 38.5C50.0398 38.63 47.0098 42.15 44.4498 41.86Z" fill="#FFF5FE"/>
<path d="M44.0799 41.44C44.1199 41.68 44.3299 41.88 45.2499 41.46C47.2499 40.55 49.2699 39.1 46.6499 38.5C49.7599 38.62 48.2799 42.31 45.8899 42.54C45.5199 42.24 43.8399 42.49 44.0799 41.44Z" fill="#FCDEFA"/>
<path d="M45.7298 42.07C45.4198 42.14 45.0898 42.15 44.7698 42.08C44.5098 42.02 44.2798 41.92 44.0798 41.78C44.2498 42.43 45.5698 42.27 45.8998 42.53C46.0198 42.52 46.1298 42.5 46.2398 42.47C46.0198 42.38 45.8498 42.24 45.7398 42.06L45.7298 42.07Z" fill="#E2ACE1"/>
<path d="M45.7599 42.43C45.2399 41.85 45.62 41.33 46.28 41C47.22 40.53 49.53 39.11 46.65 38.5C50.97 38.92 46.4199 42.23 45.7599 42.43Z" fill="#FFFAFE"/>
<path d="M47.5999 42.8C44.7299 42.99 45.8199 41.54 45.9799 41.46C47.8899 40.49 49.86 38.97 46.65 38.51C49.97 38.68 48.8199 41.78 46.6799 42.22C46.4499 42.27 46.4299 42.3 47.5999 42.8Z" fill="#FFF5FE"/>
<path d="M47.5998 42.8C45.5098 42.86 46.3299 42.17 46.7699 41.95C48.9099 40.89 48.7198 39.8 48.4198 39.16C50.0398 41.74 46.8698 41.68 47.5998 42.8Z" fill="#FCDEFA"/>
<path d="M48.5799 39.38C52.5299 41.82 47.2398 42.07 47.5498 42.8C47.9298 42.38 51.0498 42.91 50.6198 41.22C50.4198 40.42 48.7898 39.49 48.5698 39.38H48.5799Z" fill="#FCDEFA"/>
<path d="M48.5698 39.38C50.5198 41.03 47.5498 42.08 47.5398 42.7C48.2398 41.76 51.9198 41.31 48.5698 39.38Z" fill="#FFFAFE"/>
<path d="M44.7599 40.61C45.6999 40.14 48.5799 39.46 46.6499 38.51C47.0999 39.25 46.1299 39.85 44.7599 40.61Z" fill="#FFF5FE"/>
<path d="M47.6199 41.92C49.3499 40.81 48.7199 39.79 48.4199 39.15C49.8399 41.41 47.5899 41.64 47.4899 42.42C47.4799 42.53 47.1899 42.19 47.6199 41.92Z" fill="#E2ACE1"/>
<path d="M47.7299 42.5C47.5899 42.59 47.5099 42.69 47.5599 42.8C47.8899 42.43 50.3099 42.8 50.6399 41.76C50.0799 42.36 48.5199 42.37 47.7299 42.5Z" fill="#E2ACE1"/>
<path opacity="0.6" d="M10.8399 42.03C9.98991 42.76 12.0599 42.84 12.5599 43.05C12.7799 43.28 13.2999 43.44 14.3799 43.37C14.3799 43.37 14.3699 43.35 14.3599 43.34C14.8199 43 18.4099 43.08 17.3399 42.07L10.8499 42.03H10.8399Z" fill="url(#paint42_radial_30_4900)"/>
<path d="M15.3497 39.66C15.7797 40.44 14.6697 42.23 13.4697 43.01C14.4397 43.21 14.4498 42.84 14.8698 42.8C18.6898 42.4 16.6997 40.38 15.3497 39.67V39.66Z" fill="#FFF5FE"/>
<path d="M11.2197 42.15C10.5497 42.07 10.8797 41.22 11.5397 40.89C12.4797 40.42 15.2397 39.68 13.4297 38.79C16.8097 38.92 13.7797 42.44 11.2197 42.15Z" fill="#FFFAFE"/>
<path d="M11.2198 42.15C10.9298 42.12 10.8298 41.94 10.8598 41.73C10.8898 41.44 10.8299 41.93 11.7699 41.57C13.2799 40.98 15.8298 39.73 13.4298 38.79C16.8098 38.92 13.7798 42.44 11.2198 42.15Z" fill="#FFF5FE"/>
<path d="M10.8498 41.73C10.8898 41.97 11.0998 42.17 12.0198 41.75C14.0198 40.84 16.0398 39.39 13.4198 38.79C16.5298 38.91 15.0498 42.6 12.6598 42.83C12.2898 42.53 10.6098 42.78 10.8498 41.73Z" fill="#FCDEFA"/>
<path d="M12.4999 42.36C12.1899 42.43 11.8599 42.44 11.5399 42.37C11.2799 42.31 11.0499 42.21 10.8499 42.07C11.0199 42.72 12.3399 42.56 12.6699 42.82C12.7899 42.81 12.8999 42.79 13.0099 42.76C12.7899 42.67 12.6199 42.53 12.5099 42.35L12.4999 42.36Z" fill="#E2ACE1"/>
<path d="M12.5298 42.71C12.0098 42.13 12.3898 41.61 13.0498 41.28C13.9898 40.81 16.2998 39.39 13.4198 38.78C17.7398 39.2 13.1898 42.51 12.5298 42.71Z" fill="#FFFAFE"/>
<path d="M14.3698 43.08C11.4998 43.27 12.5898 41.82 12.7498 41.74C14.6598 40.77 16.6298 39.25 13.4198 38.79C16.7398 38.96 15.5898 42.06 13.4498 42.5C13.2198 42.55 13.1998 42.58 14.3698 43.08Z" fill="#FFF5FE"/>
<path d="M14.3699 43.08C12.2799 43.14 13.0998 42.45 13.5398 42.23C15.6798 41.17 15.4899 40.08 15.1899 39.44C16.8099 42.02 13.6399 41.96 14.3699 43.08Z" fill="#FCDEFA"/>
<path d="M15.3498 39.66C19.2998 42.1 14.0098 42.35 14.3198 43.08C14.6998 42.66 17.8199 43.19 17.3899 41.5C17.1899 40.7 15.5599 39.77 15.3399 39.66H15.3498Z" fill="#FCDEFA"/>
<path d="M15.3398 39.66C17.2898 41.31 14.3198 42.36 14.3098 42.98C15.0098 42.04 18.6898 41.59 15.3398 39.66Z" fill="#FFFAFE"/>
<path d="M11.5298 40.89C12.4698 40.42 15.3497 39.74 13.4197 38.79C13.8697 39.53 12.8998 40.13 11.5298 40.89Z" fill="#FFF5FE"/>
<path d="M14.3899 42.21C16.1199 41.1 15.4899 40.08 15.1899 39.44C16.6099 41.7 14.3599 41.93 14.2599 42.71C14.2499 42.82 13.9599 42.48 14.3899 42.21Z" fill="#E2ACE1"/>
<path d="M14.4999 42.79C14.3599 42.88 14.2799 42.98 14.3299 43.09C14.6599 42.72 17.0799 43.09 17.4099 42.05C16.8499 42.65 15.2899 42.66 14.4999 42.79Z" fill="#E2ACE1"/>
<path opacity="0.6" d="M37.7999 42.58C36.9499 43.31 39.0199 43.39 39.5199 43.6C39.7399 43.83 40.2599 43.99 41.3399 43.92C41.3399 43.92 41.3299 43.9 41.3199 43.89C41.7799 43.55 45.3699 43.63 44.2999 42.62L37.8099 42.58H37.7999Z" fill="url(#paint43_radial_30_4900)"/>
<path d="M42.3199 40.22C42.7499 41 41.6399 42.79 40.4399 43.57C41.4099 43.77 41.42 43.4 41.84 43.36C45.66 42.96 43.6699 40.94 42.3199 40.23V40.22Z" fill="#FFF5FE"/>
<path d="M38.1799 42.71C37.5099 42.63 37.8399 41.78 38.4999 41.45C39.4399 40.98 42.1999 40.24 40.3899 39.35C43.7699 39.48 40.7399 43 38.1799 42.71Z" fill="#FFFAFE"/>
<path d="M38.1798 42.71C37.8898 42.68 37.7898 42.5 37.8198 42.29C37.8498 42 37.7898 42.49 38.7298 42.13C40.2398 41.54 42.7898 40.29 40.3898 39.35C43.7698 39.48 40.7398 43 38.1798 42.71Z" fill="#FFF5FE"/>
<path d="M37.8199 42.28C37.8599 42.52 38.0698 42.72 38.9898 42.3C40.9899 41.39 43.0099 39.94 40.3899 39.34C43.4999 39.46 42.0199 43.15 39.6299 43.38C39.2599 43.08 37.5799 43.33 37.8199 42.28Z" fill="#FCDEFA"/>
<path d="M39.4698 42.92C39.1598 42.99 38.8298 43 38.5098 42.93C38.2498 42.87 38.0198 42.77 37.8198 42.63C37.9898 43.28 39.3098 43.12 39.6398 43.38C39.7598 43.37 39.8698 43.35 39.9798 43.32C39.7598 43.23 39.5898 43.09 39.4798 42.91L39.4698 42.92Z" fill="#E2ACE1"/>
<path d="M39.4999 43.27C38.9799 42.69 39.3599 42.17 40.0199 41.84C40.9599 41.37 43.2699 39.95 40.3899 39.34C44.7099 39.76 40.1599 43.07 39.4999 43.27Z" fill="#FFFAFE"/>
<path d="M41.34 43.64C38.47 43.83 39.5599 42.38 39.7199 42.3C41.6299 41.33 43.5999 39.81 40.3899 39.35C43.7099 39.52 42.5599 42.62 40.4199 43.06C40.1899 43.11 40.17 43.14 41.34 43.64Z" fill="#FFF5FE"/>
<path d="M41.3398 43.64C39.2498 43.7 40.0698 43.01 40.5098 42.79C42.6498 41.73 42.4598 40.64 42.1598 40C43.7798 42.58 40.6098 42.52 41.3398 43.64Z" fill="#FCDEFA"/>
<path d="M42.3198 40.22C46.2698 42.66 40.9798 42.91 41.2898 43.64C41.6698 43.22 44.7898 43.75 44.3598 42.06C44.1598 41.26 42.5298 40.33 42.3098 40.22H42.3198Z" fill="#FCDEFA"/>
<path d="M42.3099 40.22C44.2599 41.87 41.2899 42.92 41.2799 43.54C41.9799 42.6 45.6599 42.15 42.3099 40.22Z" fill="#FFFAFE"/>
<path d="M38.4999 41.45C39.4399 40.98 42.3199 40.3 40.3899 39.35C40.8399 40.09 39.8699 40.69 38.4999 41.45Z" fill="#FFF5FE"/>
<path d="M41.3599 42.76C43.0899 41.65 42.4599 40.63 42.1599 39.99C43.5799 42.25 41.3299 42.48 41.2299 43.26C41.2199 43.37 40.9299 43.03 41.3599 42.76Z" fill="#E2ACE1"/>
<path d="M41.4599 43.34C41.3199 43.43 41.2399 43.53 41.2899 43.64C41.6199 43.27 44.0399 43.64 44.3699 42.6C43.8099 43.2 42.2499 43.21 41.4599 43.34Z" fill="#E2ACE1"/>
<path opacity="0.6" d="M17.0399 42.69C16.1899 43.42 18.2599 43.5 18.7599 43.71C18.9799 43.94 19.4999 44.1 20.5799 44.03C20.5799 44.03 20.5699 44.01 20.5599 44C21.0199 43.66 24.6099 43.74 23.5399 42.73L17.0499 42.69H17.0399Z" fill="url(#paint44_radial_30_4900)"/>
<path d="M21.5499 40.33C21.9799 41.11 20.8699 42.9 19.6699 43.68C20.6399 43.88 20.6499 43.51 21.0699 43.47C24.8899 43.07 22.8999 41.05 21.5499 40.34V40.33Z" fill="#FFF5FE"/>
<path d="M17.4199 42.82C16.7499 42.74 17.0799 41.89 17.7399 41.56C18.6799 41.09 21.4399 40.35 19.6299 39.46C23.0099 39.59 19.9799 43.11 17.4199 42.82Z" fill="#FFFAFE"/>
<path d="M17.4198 42.82C17.1298 42.79 17.0298 42.61 17.0598 42.4C17.0898 42.11 17.0298 42.6 17.9698 42.24C19.4798 41.65 22.0298 40.4 19.6298 39.46C23.0098 39.59 19.9798 43.11 17.4198 42.82Z" fill="#FFF5FE"/>
<path d="M17.0498 42.4C17.0898 42.64 17.2998 42.84 18.2198 42.42C20.2198 41.51 22.2399 40.06 19.6199 39.46C22.7299 39.58 21.2498 43.27 18.8598 43.5C18.4898 43.2 16.8098 43.45 17.0498 42.4Z" fill="#FCDEFA"/>
<path d="M18.7098 43.03C18.3998 43.1 18.0698 43.11 17.7498 43.04C17.4898 42.98 17.2598 42.88 17.0598 42.74C17.2298 43.39 18.5498 43.23 18.8798 43.49C18.9998 43.48 19.1098 43.46 19.2198 43.43C18.9998 43.34 18.8298 43.2 18.7198 43.02L18.7098 43.03Z" fill="#E2ACE1"/>
<path d="M18.7299 43.38C18.2099 42.8 18.5899 42.28 19.2499 41.95C20.1899 41.48 22.4999 40.06 19.6199 39.45C23.9399 39.87 19.3899 43.18 18.7299 43.38Z" fill="#FFFAFE"/>
<path d="M20.5699 43.75C17.6999 43.94 18.7899 42.49 18.9499 42.41C20.8599 41.44 22.8299 39.92 19.6199 39.46C22.9399 39.63 21.7899 42.73 19.6499 43.17C19.4199 43.22 19.3999 43.25 20.5699 43.75Z" fill="#FFF5FE"/>
<path d="M20.5698 43.75C18.4798 43.81 19.2998 43.12 19.7398 42.9C21.8798 41.84 21.6898 40.75 21.3898 40.11C23.0098 42.69 19.8398 42.63 20.5698 43.75Z" fill="#FCDEFA"/>
<path d="M21.5499 40.33C25.4999 42.77 20.2099 43.02 20.5199 43.75C20.8999 43.33 24.0199 43.86 23.5899 42.17C23.3899 41.37 21.7599 40.44 21.5399 40.33H21.5499Z" fill="#FCDEFA"/>
<path d="M21.5399 40.33C23.4899 41.98 20.5199 43.03 20.5099 43.65C21.2099 42.71 24.8899 42.26 21.5399 40.33Z" fill="#FFFAFE"/>
<path d="M17.7299 41.56C18.6699 41.09 21.5499 40.41 19.6199 39.46C20.0699 40.2 19.0999 40.8 17.7299 41.56Z" fill="#FFF5FE"/>
<path d="M20.5999 42.88C22.3299 41.77 21.6999 40.75 21.3999 40.11C22.8199 42.37 20.5699 42.6 20.4699 43.38C20.4599 43.49 20.1699 43.15 20.5999 42.88Z" fill="#E2ACE1"/>
<path d="M20.6998 43.46C20.5598 43.55 20.4799 43.65 20.5299 43.76C20.8599 43.39 23.2798 43.76 23.6098 42.72C23.0498 43.32 21.4898 43.33 20.6998 43.46Z" fill="#E2ACE1"/>
<path opacity="0.6" d="M30.8399 42.85C29.9899 43.58 32.0599 43.66 32.5599 43.87C32.7799 44.1 33.2999 44.26 34.3799 44.19C34.3799 44.19 34.3699 44.17 34.3599 44.16C34.8199 43.82 38.4099 43.9 37.3399 42.89L30.8499 42.85H30.8399Z" fill="url(#paint45_radial_30_4900)"/>
<path d="M35.3497 40.49C35.7797 41.27 34.6697 43.06 33.4697 43.84C34.4397 44.04 34.4498 43.67 34.8698 43.63C38.6898 43.23 36.6997 41.21 35.3497 40.5V40.49Z" fill="#FFF5FE"/>
<path d="M31.2197 42.98C30.5497 42.9 30.8797 42.05 31.5397 41.72C32.4797 41.25 35.2397 40.51 33.4297 39.62C36.8097 39.75 33.7797 43.27 31.2197 42.98Z" fill="#FFFAFE"/>
<path d="M31.2198 42.98C30.9298 42.95 30.8298 42.77 30.8598 42.56C30.8898 42.27 30.8299 42.76 31.7699 42.4C33.2799 41.81 35.8298 40.56 33.4298 39.62C36.8098 39.75 33.7798 43.27 31.2198 42.98Z" fill="#FFF5FE"/>
<path d="M30.8598 42.56C30.8998 42.8 31.1098 43 32.0298 42.58C34.0298 41.67 36.0498 40.22 33.4298 39.62C36.5398 39.74 35.0598 43.43 32.6698 43.66C32.2998 43.36 30.6198 43.61 30.8598 42.56Z" fill="#FCDEFA"/>
<path d="M32.5099 43.19C32.1999 43.26 31.8699 43.27 31.5499 43.2C31.2899 43.14 31.0599 43.04 30.8599 42.9C31.0299 43.55 32.3499 43.39 32.6799 43.65C32.7999 43.64 32.9099 43.62 33.0199 43.59C32.7999 43.5 32.6299 43.36 32.5199 43.18L32.5099 43.19Z" fill="#E2ACE1"/>
<path d="M32.5298 43.54C32.0098 42.96 32.3898 42.44 33.0498 42.11C33.9898 41.64 36.2998 40.22 33.4198 39.61C37.7398 40.03 33.1898 43.34 32.5298 43.54Z" fill="#FFFAFE"/>
<path d="M34.3798 43.91C31.5098 44.1 32.5998 42.65 32.7598 42.57C34.6698 41.6 36.6398 40.08 33.4298 39.62C36.7498 39.79 35.5999 42.89 33.4599 43.33C33.2299 43.38 33.2098 43.41 34.3798 43.91Z" fill="#FFF5FE"/>
<path d="M34.3799 43.91C32.2899 43.97 33.1099 43.28 33.5499 43.06C35.6899 42 35.4999 40.91 35.1999 40.27C36.8199 42.85 33.6499 42.79 34.3799 43.91Z" fill="#FCDEFA"/>
<path d="M35.3498 40.49C39.2998 42.93 34.0098 43.18 34.3198 43.91C34.6998 43.49 37.8199 44.02 37.3899 42.33C37.1899 41.53 35.5599 40.6 35.3399 40.49H35.3498Z" fill="#FCDEFA"/>
<path d="M35.3398 40.49C37.2898 42.14 34.3198 43.19 34.3098 43.81C35.0098 42.87 38.6898 42.42 35.3398 40.49Z" fill="#FFFAFE"/>
<path d="M31.5298 41.72C32.4698 41.25 35.3497 40.57 33.4197 39.62C33.8697 40.36 32.8998 40.96 31.5298 41.72Z" fill="#FFF5FE"/>
<path d="M34.3999 43.04C36.1299 41.93 35.4999 40.91 35.1999 40.27C36.6199 42.53 34.3699 42.76 34.2699 43.54C34.2599 43.65 33.9699 43.31 34.3999 43.04Z" fill="#E2ACE1"/>
<path d="M34.4999 43.62C34.3599 43.71 34.2799 43.81 34.3299 43.92C34.6599 43.55 37.0799 43.92 37.4099 42.88C36.8499 43.48 35.2899 43.49 34.4999 43.62Z" fill="#E2ACE1"/>
<path opacity="0.6" d="M23.71 42.82C22.86 43.55 24.93 43.63 25.43 43.84C25.65 44.07 26.17 44.23 27.25 44.16C27.25 44.16 27.24 44.14 27.23 44.13C27.69 43.79 31.28 43.87 30.21 42.86L23.72 42.82H23.71Z" fill="url(#paint46_radial_30_4900)"/>
<path d="M28.2199 40.46C28.6499 41.24 27.54 43.03 26.34 43.81C27.31 44.01 27.3199 43.64 27.7399 43.6C31.5599 43.2 29.5699 41.18 28.2199 40.47V40.46Z" fill="#FFF5FE"/>
<path d="M24.09 42.94C23.42 42.86 23.7499 42.01 24.4099 41.68C25.3499 41.21 28.1099 40.47 26.2999 39.58C29.6799 39.71 26.65 43.23 24.09 42.94Z" fill="#FFFAFE"/>
<path d="M24.09 42.94C23.8 42.91 23.7 42.73 23.73 42.52C23.76 42.23 23.7 42.72 24.64 42.36C26.15 41.77 28.7 40.52 26.3 39.58C29.68 39.71 26.65 43.23 24.09 42.94Z" fill="#FFF5FE"/>
<path d="M23.7199 42.52C23.7599 42.76 23.9699 42.96 24.8899 42.54C26.8899 41.63 28.9099 40.18 26.2899 39.58C29.3999 39.7 27.9199 43.39 25.5299 43.62C25.1599 43.32 23.4799 43.57 23.7199 42.52Z" fill="#FCDEFA"/>
<path d="M25.38 43.15C25.07 43.22 24.74 43.23 24.42 43.16C24.16 43.1 23.93 43 23.73 42.86C23.9 43.51 25.22 43.35 25.55 43.61C25.67 43.6 25.78 43.58 25.89 43.55C25.67 43.46 25.5 43.32 25.39 43.14L25.38 43.15Z" fill="#E2ACE1"/>
<path d="M25.4 43.51C24.88 42.93 25.2599 42.41 25.9199 42.08C26.8599 41.61 29.1699 40.19 26.2899 39.58C30.6099 40 26.06 43.31 25.4 43.51Z" fill="#FFFAFE"/>
<path d="M27.25 43.88C24.38 44.07 25.47 42.62 25.63 42.54C27.54 41.57 29.5099 40.05 26.2999 39.59C29.6199 39.76 28.47 42.86 26.33 43.3C26.1 43.35 26.08 43.38 27.25 43.88Z" fill="#FFF5FE"/>
<path d="M27.25 43.88C25.16 43.94 25.98 43.25 26.42 43.03C28.56 41.97 28.37 40.88 28.07 40.24C29.69 42.82 26.52 42.76 27.25 43.88Z" fill="#FCDEFA"/>
<path d="M28.2199 40.46C32.1699 42.9 26.88 43.15 27.19 43.88C27.57 43.46 30.69 43.99 30.26 42.3C30.06 41.5 28.43 40.57 28.21 40.46H28.2199Z" fill="#FCDEFA"/>
<path d="M28.21 40.46C30.15 42.11 27.1899 43.16 27.1799 43.78C27.8799 42.84 31.56 42.39 28.21 40.46Z" fill="#FFFAFE"/>
<path d="M24.3999 41.69C25.3399 41.22 28.2199 40.54 26.2899 39.59C26.7399 40.33 25.7699 40.93 24.3999 41.69Z" fill="#FFF5FE"/>
<path d="M27.27 43C29 41.89 28.37 40.87 28.07 40.23C29.49 42.49 27.24 42.72 27.14 43.5C27.13 43.61 26.84 43.27 27.27 43Z" fill="#E2ACE1"/>
<path d="M27.37 43.58C27.23 43.67 27.15 43.77 27.2 43.88C27.53 43.51 29.95 43.88 30.28 42.84C29.72 43.44 28.16 43.45 27.37 43.58Z" fill="#E2ACE1"/>
<defs>
<linearGradient id="paint0_linear_30_4900" x1="8.96985" y1="46.53" x2="38.3398" y2="51.68" gradientUnits="userSpaceOnUse">
<stop stop-color="#8E5D3F"/>
<stop offset="1" stop-color="#552F1C"/>
</linearGradient>
<linearGradient id="paint1_linear_30_4900" x1="1.49001" y1="49.74" x2="58.53" y2="49.74" gradientUnits="userSpaceOnUse">
<stop stop-color="#3D150B"/>
<stop offset="1" stop-color="#340D07"/>
</linearGradient>
<radialGradient id="paint2_radial_30_4900" cx="0" cy="0" r="1" gradientUnits="userSpaceOnUse" gradientTransform="translate(29.96 51.06) scale(21.09 21.09)">
<stop offset="0.56" stop-color="#3D150B"/>
<stop offset="1" stop-color="#340D07"/>
</radialGradient>
<linearGradient id="paint3_linear_30_4900" x1="50.5599" y1="46.47" x2="50.6399" y2="51.71" gradientUnits="userSpaceOnUse">
<stop stop-color="#3D140B"/>
<stop offset="0.48" stop-color="#40160E"/>
<stop offset="0.66" stop-color="#441A12"/>
<stop offset="1" stop-color="#64332F"/>
</linearGradient>
<linearGradient id="paint4_linear_30_4900" x1="46.16" y1="46.15" x2="46.08" y2="51.55" gradientUnits="userSpaceOnUse">
<stop stop-color="#3D140B"/>
<stop offset="0.48" stop-color="#40160E"/>
<stop offset="0.66" stop-color="#441A12"/>
<stop offset="1" stop-color="#64332F"/>
</linearGradient>
<linearGradient id="paint5_linear_30_4900" x1="10.78" y1="46.55" x2="10.24" y2="51.65" gradientUnits="userSpaceOnUse">
<stop stop-color="#3D140B"/>
<stop offset="0.48" stop-color="#40160E"/>
<stop offset="0.66" stop-color="#441A12"/>
<stop offset="1" stop-color="#64332F"/>
</linearGradient>
<linearGradient id="paint6_linear_30_4900" x1="26.4699" y1="49.19" x2="26.8599" y2="56.67" gradientUnits="userSpaceOnUse">
<stop stop-color="#3D140B"/>
<stop offset="0.48" stop-color="#40160E"/>
<stop offset="0.66" stop-color="#441A12"/>
<stop offset="1" stop-color="#64332F"/>
</linearGradient>
<linearGradient id="paint7_linear_30_4900" x1="17.0399" y1="44.92" x2="16.6599" y2="48.01" gradientUnits="userSpaceOnUse">
<stop stop-color="#3D140B"/>
<stop offset="0.48" stop-color="#40160E"/>
<stop offset="0.66" stop-color="#441A12"/>
<stop offset="1" stop-color="#64332F"/>
</linearGradient>
<radialGradient id="paint8_radial_30_4900" cx="0" cy="0" r="1" gradientUnits="userSpaceOnUse" gradientTransform="translate(52.3399 39.1096) scale(2.4864 2.48645)">
<stop offset="0.56" stop-color="#3D150B"/>
<stop offset="1" stop-color="#340D07"/>
</radialGradient>
<radialGradient id="paint9_radial_30_4900" cx="0" cy="0" r="1" gradientUnits="userSpaceOnUse" gradientTransform="translate(10.9159 39.1096) scale(2.4864 2.48645)">
<stop offset="0.56" stop-color="#3D150B"/>
<stop offset="1" stop-color="#340D07"/>
</radialGradient>
<linearGradient id="paint10_linear_30_4900" x1="12.4899" y1="29.25" x2="42.0199" y2="34.25" gradientUnits="userSpaceOnUse">
<stop stop-color="#8E5D3F"/>
<stop offset="1" stop-color="#552F1C"/>
</linearGradient>
<linearGradient id="paint11_linear_30_4900" x1="7.37999" y1="33.63" x2="52.39" y2="33.63" gradientUnits="userSpaceOnUse">
<stop stop-color="#3D150B"/>
<stop offset="1" stop-color="#340D07"/>
</linearGradient>
<radialGradient id="paint12_radial_30_4900" cx="0" cy="0" r="1" gradientUnits="userSpaceOnUse" gradientTransform="translate(29.9199 34.67) scale(16.64 16.6401)">
<stop offset="0.56" stop-color="#3D150B"/>
<stop offset="1" stop-color="#340D07"/>
</radialGradient>
<radialGradient id="paint13_radial_30_4900" cx="0" cy="0" r="1" gradientUnits="userSpaceOnUse" gradientTransform="translate(43.9095 19.9292) scale(2.17559 2.17559)">
<stop offset="0.56" stop-color="#3D150B"/>
<stop offset="1" stop-color="#340D07"/>
</radialGradient>
<radialGradient id="paint14_radial_30_4900" cx="0" cy="0" r="1" gradientUnits="userSpaceOnUse" gradientTransform="translate(11.5695 19.3244) scale(2.17559 2.17558)">
<stop offset="0.56" stop-color="#3D150B"/>
<stop offset="1" stop-color="#340D07"/>
</radialGradient>
<linearGradient id="paint15_linear_30_4900" x1="16.5799" y1="18" x2="36.2599" y2="21.03" gradientUnits="userSpaceOnUse">
<stop stop-color="#8E5D3F"/>
<stop offset="1" stop-color="#552F1C"/>
</linearGradient>
<linearGradient id="paint16_linear_30_4900" x1="13.49" y1="21.18" x2="46.46" y2="21.18" gradientUnits="userSpaceOnUse">
<stop stop-color="#3D150B"/>
<stop offset="1" stop-color="#340D07"/>
</linearGradient>
<radialGradient id="paint17_radial_30_4900" cx="0" cy="0" r="1" gradientUnits="userSpaceOnUse" gradientTransform="translate(29.9499 21.94) scale(12.2 12.2)">
<stop offset="0.56" stop-color="#3D150B"/>
<stop offset="1" stop-color="#340D07"/>
</radialGradient>
<linearGradient id="paint18_linear_30_4900" x1="27.79" y1="19.09" x2="28.33" y2="24.57" gradientUnits="userSpaceOnUse">
<stop stop-color="#3D140B"/>
<stop offset="0.48" stop-color="#40160E"/>
<stop offset="0.66" stop-color="#441A12"/>
<stop offset="1" stop-color="#64332F"/>
</linearGradient>
<linearGradient id="paint19_linear_30_4900" x1="14.06" y1="29.87" x2="12.83" y2="35.51" gradientUnits="userSpaceOnUse">
<stop stop-color="#3D140B"/>
<stop offset="0.48" stop-color="#40160E"/>
<stop offset="0.66" stop-color="#441A12"/>
<stop offset="1" stop-color="#64332F"/>
</linearGradient>
<linearGradient id="paint20_linear_30_4900" x1="17.3199" y1="30.06" x2="16.3199" y2="34.38" gradientUnits="userSpaceOnUse">
<stop stop-color="#3D140B"/>
<stop offset="0.48" stop-color="#40160E"/>
<stop offset="0.66" stop-color="#441A12"/>
<stop offset="1" stop-color="#64332F"/>
</linearGradient>
<linearGradient id="paint21_linear_30_4900" x1="45.3199" y1="30.15" x2="44.6999" y2="35.33" gradientUnits="userSpaceOnUse">
<stop stop-color="#3D140B"/>
<stop offset="0.48" stop-color="#40160E"/>
<stop offset="0.66" stop-color="#441A12"/>
<stop offset="1" stop-color="#64332F"/>
</linearGradient>
<linearGradient id="paint22_linear_30_4900" x1="32.6999" y1="32.86" x2="32.3199" y2="38.41" gradientUnits="userSpaceOnUse">
<stop stop-color="#3D140B"/>
<stop offset="0.48" stop-color="#40160E"/>
<stop offset="0.66" stop-color="#441A12"/>
<stop offset="1" stop-color="#64332F"/>
</linearGradient>
<linearGradient id="paint23_linear_30_4900" x1="39.9899" y1="29.32" x2="40.6799" y2="32.64" gradientUnits="userSpaceOnUse">
<stop stop-color="#3D140B"/>
<stop offset="0.48" stop-color="#40160E"/>
<stop offset="0.66" stop-color="#441A12"/>
<stop offset="1" stop-color="#64332F"/>
</linearGradient>
<linearGradient id="paint24_linear_30_4900" x1="41.9099" y1="18.52" x2="41.9899" y2="23.69" gradientUnits="userSpaceOnUse">
<stop stop-color="#3D140B"/>
<stop offset="0.48" stop-color="#40160E"/>
<stop offset="0.66" stop-color="#441A12"/>
<stop offset="1" stop-color="#64332F"/>
</linearGradient>
<linearGradient id="paint25_linear_30_4900" x1="18.24" y1="17.11" x2="19.63" y2="22.75" gradientUnits="userSpaceOnUse">
<stop stop-color="#3D140B"/>
<stop offset="0.48" stop-color="#40160E"/>
<stop offset="0.66" stop-color="#441A12"/>
<stop offset="1" stop-color="#64332F"/>
</linearGradient>
<linearGradient id="paint26_linear_30_4900" x1="39.25" y1="17.5" x2="39.41" y2="21.83" gradientUnits="userSpaceOnUse">
<stop stop-color="#3D140B"/>
<stop offset="0.48" stop-color="#40160E"/>
<stop offset="0.66" stop-color="#441A12"/>
<stop offset="1" stop-color="#64332F"/>
</linearGradient>
<radialGradient id="paint27_radial_30_4900" cx="0" cy="0" r="1" gradientUnits="userSpaceOnUse" gradientTransform="translate(31.0537 -0.11522) rotate(-8.71992) scale(2.76921 2.76919)">
<stop offset="0.49" stop-color="#BF1F1F"/>
<stop offset="0.58" stop-color="#B81D1D"/>
<stop offset="0.7" stop-color="#A71A1B"/>
<stop offset="0.84" stop-color="#8A1516"/>
<stop offset="1" stop-color="#610E10"/>
</radialGradient>
<radialGradient id="paint28_radial_30_4900" cx="0" cy="0" r="1" gradientUnits="userSpaceOnUse" gradientTransform="translate(30.9382 -0.757449) rotate(-8.71991) scale(2.32679 2.32677)">
<stop stop-color="#FF5620"/>
<stop offset="1" stop-color="#D81B21"/>
</radialGradient>
<radialGradient id="paint29_radial_30_4900" cx="0" cy="0" r="1" gradientUnits="userSpaceOnUse" gradientTransform="translate(12.1831 27.628) scale(2.4864 2.48645)">
<stop offset="0.56" stop-color="#3D150B"/>
<stop offset="1" stop-color="#340D07"/>
</radialGradient>
<radialGradient id="paint30_radial_30_4900" cx="0" cy="0" r="1" gradientUnits="userSpaceOnUse" gradientTransform="translate(49.9688 27.628) scale(2.4864 2.48645)">
<stop offset="0.56" stop-color="#3D150B"/>
<stop offset="1" stop-color="#340D07"/>
</radialGradient>
<radialGradient id="paint31_radial_30_4900" cx="0" cy="0" r="1" gradientUnits="userSpaceOnUse" gradientTransform="translate(16.5992 29.1544) scale(2.4864 2.48645)">
<stop offset="0.56" stop-color="#3D150B"/>
<stop offset="1" stop-color="#340D07"/>
</radialGradient>
<radialGradient id="paint32_radial_30_4900" cx="0" cy="0" r="1" gradientUnits="userSpaceOnUse" gradientTransform="translate(46.1672 28.7512) scale(2.4864 2.48634)">
<stop offset="0.56" stop-color="#3D150B"/>
<stop offset="1" stop-color="#340D07"/>
</radialGradient>
<radialGradient id="paint33_radial_30_4900" cx="0" cy="0" r="1" gradientUnits="userSpaceOnUse" gradientTransform="translate(22.0039 29.8936) scale(2.4864 2.48645)">
<stop offset="0.56" stop-color="#3D150B"/>
<stop offset="1" stop-color="#340D07"/>
</radialGradient>
<radialGradient id="paint34_radial_30_4900" cx="0" cy="0" r="1" gradientUnits="userSpaceOnUse" gradientTransform="translate(40.7911 29.7784) scale(2.4864 2.48645)">
<stop offset="0.56" stop-color="#3D150B"/>
<stop offset="1" stop-color="#340D07"/>
</radialGradient>
<radialGradient id="paint35_radial_30_4900" cx="0" cy="0" r="1" gradientUnits="userSpaceOnUse" gradientTransform="translate(28.1672 30.1719) scale(2.4864 2.48634)">
<stop offset="0.56" stop-color="#3D150B"/>
<stop offset="1" stop-color="#340D07"/>
</radialGradient>
<radialGradient id="paint36_radial_30_4900" cx="0" cy="0" r="1" gradientUnits="userSpaceOnUse" gradientTransform="translate(34.4456 30.1912) scale(2.4864 2.48634)">
<stop offset="0.56" stop-color="#3D150B"/>
<stop offset="1" stop-color="#340D07"/>
</radialGradient>
<radialGradient id="paint37_radial_30_4900" cx="0" cy="0" r="1" gradientUnits="userSpaceOnUse" gradientTransform="translate(6.49029 41.404) scale(2.4864 2.48634)">
<stop offset="0.56" stop-color="#3D150B"/>
<stop offset="1" stop-color="#340D07"/>
</radialGradient>
<radialGradient id="paint38_radial_30_4900" cx="0" cy="0" r="1" gradientUnits="userSpaceOnUse" gradientTransform="translate(56.5544 41.5288) scale(2.4864 2.48634)">
<stop offset="0.56" stop-color="#3D150B"/>
<stop offset="1" stop-color="#340D07"/>
</radialGradient>
<radialGradient id="paint39_radial_30_4900" cx="0" cy="0" r="1" gradientUnits="userSpaceOnUse" gradientTransform="translate(53.3191 43.2376) scale(2.4864 2.48645)">
<stop offset="0.56" stop-color="#3D150B"/>
<stop offset="1" stop-color="#340D07"/>
</radialGradient>
<radialGradient id="paint40_radial_30_4900" cx="0" cy="0" r="1" gradientUnits="userSpaceOnUse" gradientTransform="translate(9.80235 43.4968) scale(2.4864 2.48645)">
<stop offset="0.56" stop-color="#3D150B"/>
<stop offset="1" stop-color="#340D07"/>
</radialGradient>
<radialGradient id="paint41_radial_30_4900" cx="0" cy="0" r="1" gradientUnits="userSpaceOnUse" gradientTransform="translate(48.5767 44.4376) scale(2.4864 2.48645)">
<stop offset="0.56" stop-color="#3D150B"/>
<stop offset="1" stop-color="#340D07"/>
</radialGradient>
<radialGradient id="paint42_radial_30_4900" cx="0" cy="0" r="1" gradientUnits="userSpaceOnUse" gradientTransform="translate(15.2743 44.7256) scale(2.4864 2.48634)">
<stop offset="0.56" stop-color="#3D150B"/>
<stop offset="1" stop-color="#340D07"/>
</radialGradient>
<radialGradient id="paint43_radial_30_4900" cx="0" cy="0" r="1" gradientUnits="userSpaceOnUse" gradientTransform="translate(42.2983 45.2823) scale(2.4864 2.48634)">
<stop offset="0.56" stop-color="#3D150B"/>
<stop offset="1" stop-color="#340D07"/>
</radialGradient>
<radialGradient id="paint44_radial_30_4900" cx="0" cy="0" r="1" gradientUnits="userSpaceOnUse" gradientTransform="translate(21.4951 45.3977) scale(2.4864 2.48645)">
<stop offset="0.56" stop-color="#3D150B"/>
<stop offset="1" stop-color="#340D07"/>
</radialGradient>
<radialGradient id="paint45_radial_30_4900" cx="0" cy="0" r="1" gradientUnits="userSpaceOnUse" gradientTransform="translate(35.3191 45.5512) scale(2.4864 2.48645)">
<stop offset="0.56" stop-color="#3D150B"/>
<stop offset="1" stop-color="#340D07"/>
</radialGradient>
<radialGradient id="paint46_radial_30_4900" cx="0" cy="0" r="1" gradientUnits="userSpaceOnUse" gradientTransform="translate(28.1768 45.5223) scale(2.4864 2.48634)">
<stop offset="0.56" stop-color="#3D150B"/>
<stop offset="1" stop-color="#340D07"/>
</radialGradient>
</defs>
</svg>
