<svg width="74" height="53" viewBox="0 0 74 53" fill="none" xmlns="http://www.w3.org/2000/svg">
<path d="M3.87999 40.07C4.71999 41.25 5.97999 45.7001 5.80999 46.8401C5.63999 47.9801 5.38999 48.9001 5.72999 49.0901C5.95666 49.2167 6.06999 49.6867 6.06999 50.5C6.06999 51.72 7.40999 51.5901 7.40999 51.5901C7.40999 51.5901 7.74999 51.61 8.20999 51.63C8.00999 50.35 9.76999 50.5 9.76999 50.5C9.49999 50.05 9.84999 49.78 10.23 49.63C9.97999 49.3 9.59999 48.81 8.96999 48.18C7.61999 46.83 7.17999 42.63 7.50999 41.62C7.84999 40.61 7.50999 38.6501 7.50999 38.6501C7.61999 37.1901 9.58999 32.6501 9.97999 32.5901C10.37 32.5301 11.04 31.42 11.83 30.41C12.62 29.4 13.46 24.75 13.46 24.75C13.46 24.75 13.46 23.23 15.45 23.66C17.43 24.09 16.58 25.58 18.56 27.47C20.08 28.92 22.72 31.15 26.64 32.19C29.25 32.46 32.08 32.28 34.74 31.87C34.53 30.79 34.52 29.54 34.83 28.1L35.67 23.85C35.67 23.85 36.62 17.51 39.99 17.4601C43.35 17.4001 44.7 25.31 44.7 25.31C44.7 25.31 45.07 27.45 45.65 27.83C45.74 27.89 45.87 28.06 46.02 28.33C48.08 27.12 48.84 27.6 48.84 27.6C48.86 27.73 48.88 27.85 48.9 27.97C48.96 27.94 49.02 27.9 49.08 27.87C49.21 27.8 49.36 27.76 49.5 27.74C49.54 27.71 49.59 27.69 49.62 27.74C49.58 27.74 49.54 27.74 49.5 27.74C49.49 27.74 49.48 27.76 49.47 27.77C49.27 28.01 49.17 28.31 49.04 28.6C49.09 28.77 49.14 28.93 49.19 29.08C49.23 29.08 49.26 29.06 49.29 29.05C49.45 28.99 49.62 28.91 49.78 28.98C49.77 29.26 49.62 29.49 49.46 29.72C49.74 30.29 50.09 30.75 50.48 31.13C50.71 30.87 50.93 30.6101 51.16 30.3401C51.16 30.7801 51.16 31.2101 51.14 31.6501C51.52 31.9001 51.92 32.09 52.33 32.23C52.43 32.04 52.55 31.85 52.69 31.68C52.83 31.76 52.86 31.95 52.88 32.11C52.9 32.21 52.92 32.3101 52.94 32.4001C53.06 32.4301 53.18 32.45 53.29 32.47C53.36 32.25 53.46 32.0401 53.57 31.8401C53.61 31.8701 53.58 31.93 53.57 31.98C53.5 32.15 53.6 32.35 53.69 32.51C53.69 32.51 53.69 32.5201 53.7 32.5301C54.33 32.6101 54.93 32.6 55.46 32.57C55.5 32.3 55.56 32.03 55.62 31.77C55.73 31.81 55.69 31.9801 55.7 32.0901C55.71 32.1901 55.78 32.2601 55.84 32.3401C55.89 32.4001 55.93 32.46 55.97 32.52C56.62 32.44 57.09 32.3301 57.26 32.2801C57.24 32.0301 57.26 31.77 57.28 31.52C57.35 31.76 57.53 31.93 57.73 32.07C57.91 31.99 58.08 31.9 58.25 31.81C58.21 31.59 58.19 31.3701 58.17 31.1501C58.35 31.2901 58.53 31.43 58.72 31.56C58.81 31.51 58.91 31.4601 59 31.4001C58.92 31.1301 58.89 30.84 58.88 30.56C59.09 30.74 59.31 30.92 59.54 31.08C59.88 30.87 60.2 30.64 60.51 30.41C60.47 30.35 60.44 30.29 60.42 30.23C60.32 30.01 60.26 29.78 60.13 29.58C60.39 29.78 60.68 29.93 60.99 30.04C61.05 29.99 61.12 29.94 61.18 29.88C61.12 29.82 61.07 29.75 61.03 29.68C60.9 29.48 60.81 29.2501 60.73 29.0301C60.97 29.2501 61.25 29.43 61.54 29.56C62.08 29.07 62.56 28.55 62.99 28.02L62.83 27.29C63 27.38 63.16 27.47 63.33 27.56C63.46 27.39 63.58 27.21 63.69 27.04C63.59 26.74 63.47 26.45 63.33 26.16C63.52 26.33 63.74 26.4801 63.97 26.5901C64.08 26.4101 64.18 26.23 64.28 26.05C64.11 25.68 63.94 25.31 63.76 24.94C64.02 25.14 64.28 25.34 64.55 25.54C64.78 25.07 64.98 24.59 65.15 24.12C64.95 23.85 64.79 23.56 64.67 23.25C64.87 23.39 65.11 23.49 65.35 23.54C65.4 23.39 65.45 23.23 65.49 23.07C65.29 22.81 65.11 22.55 64.93 22.27C65.16 22.38 65.39 22.48 65.63 22.56C65.68 22.37 65.72 22.19 65.76 22C65.58 21.74 65.4 21.47 65.23 21.19C65.43 21.32 65.64 21.4301 65.85 21.5301C65.92 21.1201 65.98 20.72 66.03 20.33C65.82 20.05 65.62 19.75 65.44 19.45C65.65 19.57 65.86 19.67 66.09 19.75C66.13 19.23 66.16 18.72 66.16 18.23C65.79 17.97 65.49 17.61 65.3 17.2C65.24 17.07 65.19 16.94 65.12 16.82C65.44 17.01 65.79 17.1701 66.15 17.2801C66.15 17.1501 66.15 17.02 66.13 16.89C65.89 16.59 65.68 16.2501 65.43 15.9601C65.63 16.0801 65.86 16.1701 66.09 16.2101C66.04 15.6101 65.97 15.0701 65.9 14.5901C65.52 14.3701 65.18 14.08 64.91 13.73C65.2 13.85 65.49 13.93 65.8 13.98C65.78 13.87 65.76 13.77 65.74 13.67C65.49 13.49 65.26 13.2701 65.06 13.0301C65.02 12.9801 64.98 12.9401 64.93 12.9001C65.14 13.0201 65.38 13.1 65.62 13.13C65.54 12.78 65.48 12.58 65.48 12.58C64.72 12.2 64.82 11.54 64.91 11.25C65.24 11.83 66.26 12.04 65.8 11.51C65.47 11.13 65.49 10.32 65.53 9.91C66.91 9.37 68.09 7.90001 68.78 7.36001C69.57 6.75001 70.43 7.60005 71.24 7.52005C71.77 7.47005 72.07 7.03001 72.22 6.73001C71.41 6.65001 70.14 5.89005 70.67 6.02005C71.02 6.10005 71.76 6.43004 72.34 6.45004C72.7 6.46004 72.99 6.36005 73.09 6.02005C73.36 5.13005 72.34 3.78003 71.44 2.75003C70.55 1.72003 66.67 2.38003 65 2.25003C63.33 2.11003 62.92 1.43003 63.17 1.13003C63.42 0.830033 62.64 1.18001 62.87 0.920011C63.1 0.670011 62.05 0.42005 59.6 0.71005C57.7 0.94005 56.37 2.19002 55.87 2.74002C56.1 2.76002 56.35 2.77005 56.63 2.77005C58.64 2.77005 59.35 3.66 59.35 3.66C59.71 3.96 59.9 4.72002 59.73 4.62002C59.56 4.53002 59.76 4.97006 59.63 4.78006C59.51 4.62006 59.58 5.30005 58.61 5.40005C58.43 5.42005 58.21 5.41003 57.94 5.38003C56.27 5.16003 55.79 4.40002 55.88 4.18002C55.97 3.96002 55.5 4.21004 55.64 4.07004C55.78 3.93004 55.23 4.10002 55.41 3.87002C55.59 3.64002 55.41 3.87 55.15 3.66C55.1 3.62 55.07 3.59003 55.03 3.56003C54.74 3.66003 54.06 3.91006 53.61 4.28006C53.55 4.33006 53.5 4.38002 53.44 4.43002C53.36 4.51002 53.27 4.59002 53.19 4.68002L53.47 5.30002L52.88 5.02005C52.73 5.19005 52.6 5.37004 52.46 5.57004L52.8 6.20004L52.16 6.04001C52.09 6.16001 52.02 6.27005 51.96 6.40005L52.28 7.1L51.68 6.97C51.62 7.11 51.55 7.26 51.49 7.41L51.79 7.97L51.3 7.95004C51.25 8.10004 51.21 8.25005 51.16 8.40005L51.41 8.62002L51.07 8.73001C51.02 8.94001 50.97 9.15002 50.93 9.37002C51.19 9.48002 51.44 9.59 51.68 9.72C51.58 9.68 51.47 9.68002 51.36 9.68002C51.2 9.68002 51.03 9.68002 50.87 9.68002C50.86 9.74002 50.85 9.8 50.84 9.85C51.01 9.92 51.17 9.99004 51.33 10.07C51.15 10.1 50.97 10.12 50.79 10.14C50.77 10.32 50.74 10.5 50.72 10.69C50.7 10.87 50.68 11.05 50.67 11.24L50.97 11.41L50.65 11.45C50.64 11.65 50.63 11.85 50.62 12.05C50.62 12.19 50.62 12.34 50.62 12.49C50.8 12.58 50.98 12.67 51.17 12.74C51.04 12.71 50.9 12.76 50.78 12.81C50.73 12.83 50.67 12.85 50.62 12.88C50.62 12.92 50.62 12.97 50.62 13.01C50.62 13.07 50.62 13.13 50.62 13.19C50.83 13.26 51.04 13.36 51.21 13.5C51.02 13.58 50.83 13.65 50.63 13.7C50.64 13.97 50.66 14.24 50.68 14.52V14.72C48.54 14.35 45.9 12.0301 44.09 9.53006C43.5 8.71006 43 7.87004 42.64 7.07004C41.08 3.66004 39.65 3.71005 39.65 3.71005C39.65 3.71005 38.22 3.21004 35.78 6.57004C33.34 9.93004 30.86 9.60005 28.93 9.77005C27 9.94005 24.43 7.79001 23.8 7.04001C23.17 6.28001 22.12 3.89004 20.06 4.01004C18 4.14004 17.07 6.15006 16.15 7.53006C15.54 8.43006 13.67 10.43 11.64 12.22C10.59 13.15 9.48999 14.0201 8.49999 14.6501C8.15999 14.8701 7.81999 15.11 7.48999 15.38C6.48999 16.19 5.56999 17.22 4.87999 18.45C3.97999 20.06 3.49999 21.99 3.82999 24.16C3.86999 24.45 3.92999 24.7401 3.99999 25.0301C5.17999 29.8201 4.16999 35.71 3.53999 37.14C2.90999 38.57 2.98999 38.82 3.82999 40L3.87999 40.07Z" fill="#BF7649"/>
<path d="M8.20993 51.64C9.06993 51.68 10.3799 51.71 10.8199 51.6C11.4899 51.43 10.3699 50.87 10.7099 50.81C11.0499 50.75 11.1599 50.19 10.8199 50.19C10.6399 50.19 10.5099 50 10.2299 49.62C9.84993 49.77 9.49993 50.04 9.76993 50.49C9.76993 50.49 8.00993 50.35 8.20993 51.62V51.64Z" fill="#684236"/>
<path d="M11.6899 12.29C13.7199 10.5 15.5899 8.49998 16.1999 7.59998C17.1299 6.22998 18.0499 4.21002 20.1099 4.08002C22.1699 3.95002 23.2199 6.34999 23.8499 7.10999C24.4799 7.86999 27.0499 10.01 28.9799 9.84003C30.9099 9.67003 33.3999 10.01 35.8299 6.64001C38.2699 3.28001 39.6999 3.78003 39.6999 3.78003C39.6999 3.78003 41.1299 3.73001 42.6899 7.14001C43.0499 7.93001 43.5499 8.77003 44.1399 9.59003C44.0899 9.19003 44.0099 8.72998 43.8799 8.22998C43.7299 8.16998 43.5699 8.12998 43.4099 8.09998C43.5299 8.01998 43.6599 7.95997 43.7999 7.90997C43.7799 7.81997 43.7499 7.74002 43.7299 7.65002C43.5699 7.60002 43.3999 7.58002 43.2399 7.58002C43.2499 7.44002 43.3899 7.34998 43.5099 7.28998C43.5399 7.26998 43.5699 7.26 43.6099 7.25C43.5799 7.15 43.5499 7.06002 43.5199 6.96002C43.3999 6.94002 43.2799 6.92998 43.1599 6.91998C43.2399 6.81998 43.3199 6.73002 43.4099 6.65002C43.2699 6.26002 43.1199 5.85997 42.9599 5.46997C42.7999 5.50997 42.6499 5.54002 42.4899 5.58002C42.5499 5.37002 42.6299 5.15998 42.7499 4.97998C42.6699 4.80998 42.5899 4.63997 42.5099 4.46997C42.3799 4.47997 42.2399 4.51999 42.1199 4.54999C42.1899 4.41999 42.2699 4.29999 42.3699 4.17999C42.2999 4.03999 42.2299 3.91003 42.1599 3.78003C41.9699 3.81003 41.7699 3.85998 41.5899 3.91998C41.6399 3.68998 41.7399 3.47998 41.8799 3.28998C41.7899 3.13998 41.6999 2.98998 41.5999 2.84998C41.4899 2.89998 41.3899 2.97 41.2999 3.06C41.2899 2.89 41.3199 2.70999 41.3799 2.54999C41.1399 2.22999 40.8999 1.94999 40.6499 1.73999C40.5699 1.88999 40.4899 2.02998 40.3999 2.16998C40.2999 1.93998 40.2699 1.68999 40.2499 1.42999C40.1699 1.37999 40.0999 1.34 40.0299 1.31C39.8999 1.51 39.7799 1.70998 39.6599 1.91998C39.6099 1.69998 39.5899 1.47 39.5999 1.25C39.5999 1.23 39.5999 1.19999 39.5999 1.17999C39.5699 1.17999 39.5499 1.17999 39.5199 1.17999C39.2199 1.15999 38.8799 1.24002 38.5399 1.40002C38.6399 1.58002 38.7199 1.77999 38.7599 1.98999C38.5299 1.88999 38.2999 1.77001 38.0899 1.64001C37.9399 1.74001 37.7799 1.85002 37.6199 1.96002C37.8099 2.22002 37.9999 2.47998 38.1899 2.72998C37.8799 2.56998 37.5599 2.41001 37.2399 2.26001C37.1799 2.31001 37.1199 2.36998 37.0499 2.41998C37.1799 2.64998 37.3099 2.87998 37.4299 3.09998C37.1599 3.01998 36.8999 2.91003 36.6499 2.78003C36.5799 2.85003 36.5099 2.90999 36.4399 2.98999C36.5299 3.19999 36.6099 3.42001 36.6899 3.64001C36.4799 3.56001 36.2699 3.47 36.0699 3.37C35.9899 3.45 35.9199 3.53 35.8399 3.62C35.9299 3.87 36.0199 4.13 36.1099 4.38C35.8899 4.28 35.6699 4.16999 35.4599 4.04999C35.1999 4.34999 34.9499 4.64999 34.7299 4.92999C34.8199 5.16999 34.8999 5.40997 34.9499 5.65997C34.7599 5.55997 34.5599 5.47002 34.3599 5.40002C34.2899 5.50002 34.2199 5.58999 34.1499 5.67999C34.2099 5.87999 34.2499 6.08999 34.2699 6.29999C34.1199 6.25999 33.9699 6.20001 33.8199 6.13C33.7599 6.21 33.6999 6.28999 33.6499 6.35999C33.6899 6.53999 33.7099 6.72002 33.6899 6.90002C33.5899 6.84002 33.4899 6.77998 33.3899 6.72998C33.3499 6.78998 33.3299 6.82001 33.3299 6.82001C33.0599 7.06001 32.7899 7.27001 32.5299 7.45001C32.5899 7.75001 32.6599 8.05999 32.7199 8.35999C32.4699 8.17999 32.2199 7.98998 31.9799 7.78998C31.8899 7.83998 31.7999 7.88999 31.7099 7.92999C31.7099 8.15999 31.6799 8.38003 31.6199 8.59003C31.5199 8.43003 31.4199 8.26003 31.3399 8.09003C31.1599 8.16003 30.9799 8.22001 30.8099 8.26001C30.6899 8.51001 30.5799 8.76002 30.4599 9.02002C30.3899 8.80002 30.3099 8.57999 30.2299 8.35999C29.9899 8.37999 29.7599 8.37999 29.5499 8.35999C29.4599 8.47999 29.3599 8.59002 29.2699 8.71002C29.2699 8.57002 29.2499 8.43999 29.2199 8.29999C28.7999 8.20999 28.4299 8.04999 28.1199 7.85999C27.9499 7.95999 27.7699 8.03998 27.5899 8.09998C27.6199 7.91998 27.6499 7.73999 27.6799 7.54999C27.5199 7.42999 27.3899 7.3 27.2799 7.19C26.9299 7.28 26.5899 7.37002 26.2399 7.46002C26.3499 7.11002 26.5099 6.77002 26.7099 6.46002C26.6199 6.33002 26.5399 6.20001 26.4499 6.07001C26.1499 6.11001 25.8599 6.22001 25.5999 6.38C25.6899 6.05 25.8399 5.74002 26.0199 5.46002C25.9499 5.36002 25.8699 5.25997 25.7999 5.15997C25.5299 5.24997 25.2599 5.34997 25.0099 5.46997C25.1099 5.16997 25.2299 4.87998 25.3799 4.59998C25.1399 4.28998 24.9099 4.01 24.6799 3.75C24.5499 3.84 24.4099 3.93001 24.2699 4.01001C24.3299 3.84001 24.3899 3.67 24.4599 3.5C24.3199 3.34 24.1799 3.18999 24.0399 3.04999C24.0299 3.04999 24.0099 3.04999 23.9999 3.04999C23.7999 3.11999 23.6099 3.22003 23.4299 3.34003C23.4599 3.09003 23.5199 2.83998 23.5899 2.59998C23.2199 2.23998 22.8699 1.95002 22.5499 1.71002C22.4599 1.83002 22.3699 1.94 22.2799 2.06C22.2599 1.87 22.2499 1.67999 22.2599 1.48999C21.9099 1.24999 21.5999 1.07001 21.3299 0.950012C21.2599 1.12001 21.1899 1.28001 21.1299 1.45001C21.0499 1.22001 20.9799 0.99002 20.8899 0.77002C20.7899 0.73002 20.6999 0.710002 20.6099 0.690002C20.5099 0.910002 20.4099 1.12998 20.2999 1.34998C20.1899 1.16998 20.1699 0.94999 20.1399 0.73999C20.1399 0.69999 20.1299 0.649985 20.1199 0.609985C20.0099 0.609985 19.9599 0.609985 19.9599 0.609985C19.6799 0.659985 19.4199 0.719978 19.1599 0.789978C19.2299 0.979978 19.2699 1.18 19.2799 1.38C19.0699 1.22 18.8399 1.07998 18.5999 0.97998C18.5299 0.99998 18.4699 1.03 18.3999 1.06C18.4899 1.24 18.5399 1.44001 18.5499 1.64001C18.3399 1.52001 18.1199 1.39998 17.9099 1.28998C17.8099 1.33998 17.7099 1.40001 17.6099 1.45001C17.7099 1.69001 17.7799 1.95002 17.7899 2.21002C17.5599 2.07002 17.3299 1.92001 17.1099 1.76001C16.8299 1.95001 16.5699 2.16001 16.3099 2.39001C16.4299 2.66001 16.5499 2.94002 16.6699 3.21002C16.4099 3.06002 16.1499 2.93001 15.8699 2.82001C15.7799 2.91001 15.6899 3.00998 15.5999 3.09998C15.7499 3.30998 15.9099 3.51998 16.0599 3.72998C15.7999 3.63998 15.5299 3.55999 15.2599 3.48999C15.1599 3.60999 15.0699 3.72999 14.9699 3.85999C15.0699 4.10999 15.1699 4.35999 15.2699 4.60999C15.0399 4.53999 14.8099 4.46998 14.5799 4.41998C14.3799 4.70998 14.1999 5.02001 14.0299 5.32001C14.2599 5.49001 14.4699 5.68001 14.6699 5.88C14.3999 5.78 14.1199 5.72 13.8299 5.69C13.7599 5.81 13.6999 5.94 13.6399 6.06C13.8299 6.31 14.0199 6.58003 14.1899 6.84003C13.8999 6.80003 13.5999 6.77001 13.3099 6.76001C13.0199 7.43001 12.7699 8.08998 12.5599 8.72998C12.7799 8.93998 12.9899 9.16997 13.1699 9.40997C12.8999 9.36997 12.6199 9.36997 12.3499 9.40997C12.3199 9.50997 12.2899 9.6 12.2699 9.69C12.4599 9.83 12.6399 9.98997 12.7999 10.16C12.5799 10.12 12.3599 10.11 12.1499 10.13C12.1199 10.24 12.0899 10.36 12.0599 10.47C12.3499 10.59 12.6399 10.74 12.9099 10.9C12.5799 10.92 12.2499 10.97 11.9199 11.05C11.8099 11.54 11.7299 11.96 11.6699 12.28L11.6899 12.29Z" fill="#A05B38"/>
<path d="M1.97998 22.52C2.27998 22.36 2.50998 22.22 2.60998 21.79C2.76998 21.11 2.72998 22.32 2.81998 21.96C2.90998 21.6 2.98998 21.45 2.95998 21.87C2.92998 22.27 3.35998 22.84 3.38998 22.87C3.17998 21.74 3.67998 19.44 4.92998 18.51C5.60998 17.29 6.53998 16.25 7.53998 15.44C6.22998 15.73 3.62998 16.64 2.91998 19.29C2.44998 21.08 2.18998 21.97 1.97998 22.51V22.52Z" fill="#A05B38"/>
<path d="M1.28997 26.65C1.28997 26.65 1.02997 24.9 1.73997 24.1C1.68997 24.18 1.13997 25.15 1.73997 26.32C2.32997 27.47 1.84997 28.21 1.78997 28.29C1.86997 28.21 2.48997 27.47 2.40997 26.28C2.32997 25.02 2.06997 25.31 2.44997 24.28C2.44997 24.28 3.33997 25.82 2.95997 27.19C3.05997 26.9 3.22997 26.37 3.42997 25.76C3.43997 25.7 3.76997 24.26 3.42997 23.02C3.41997 22.97 3.40997 22.92 3.39997 22.87C3.36997 22.84 2.93997 22.27 2.96997 21.87C2.99997 21.45 2.91997 21.6 2.82997 21.96C2.73997 22.32 2.77997 21.11 2.61997 21.79C2.51997 22.21 2.28997 22.36 1.98997 22.52C1.77997 23.06 1.60997 23.23 1.29997 23.56C0.679969 24.23 1.01997 25.8 1.29997 26.64L1.28997 26.65Z" fill="#684236"/>
<path d="M34.73 31.86C34.76 32.02 34.8 32.18 34.84 32.33C35.13 32.39 35.42 32.44 35.71 32.48C35.48 32.63 35.23 32.73 34.97 32.8C35 32.89 35.03 32.97 35.06 33.06C35.28 33.08 35.49 33.09 35.7 33.13C35.56 33.27 35.41 33.41 35.25 33.53C35.49 34.07 35.77 34.56 36.08 34.99C36.35 34.93 36.63 34.91 36.91 34.93C36.79 35.15 36.67 35.38 36.57 35.61C36.66 35.72 36.75 35.83 36.85 35.93C36.92 35.9 36.98 35.86 37.05 35.82C37.26 35.71 37.52 35.62 37.73 35.74C37.58 35.97 37.46 36.21 37.38 36.46C37.47 36.55 37.56 36.63 37.65 36.7C37.95 36.57 38.25 36.44 38.55 36.31C38.66 36.26 38.8 36.22 38.9 36.28C38.6 36.51 38.33 36.78 38.1 37.08C38.46 37.38 38.71 37.5699 38.75 37.6599C38.78 37.7499 38.83 37.85 38.89 37.96C39.15 37.78 39.38 37.56 39.57 37.31C39.45 37.58 39.33 37.85 39.22 38.12C39.19 38.18 39.16 38.25 39.14 38.31C39.32 38.53 39.55 38.7 39.78 38.7C39.89 38.7 39.99 38.6699 40.1 38.5999C40.66 38.1899 41.78 38.11 42.34 38.45C42.68 38.66 43.11 38.61 43.38 38.54C43.56 38.5 43.68 38.45 43.68 38.45C43.75 38.39 43.82 38.33 43.9 38.27C43.84 37.93 43.8 37.59 43.76 37.25C43.92 37.49 44.1 37.71 44.29 37.92C44.39 37.82 44.49 37.72 44.59 37.62C44.53 37.36 44.45 37.1 44.36 36.84C44.6 36.91 44.83 36.99 45.07 37.09C45.18 36.95 45.29 36.82 45.39 36.68C45.28 36.41 45.18 36.14 45.09 35.87C45.34 35.9 45.6 35.94 45.84 36.01C45.93 35.85 46.02 35.7 46.1 35.54C46.02 35.33 45.95 35.11 45.89 34.88C46.03 34.94 46.18 35 46.32 35.06C46.42 34.82 46.51 34.5899 46.58 34.3499C46.44 34.0099 46.33 33.67 46.27 33.31C46.44 33.39 46.62 33.48 46.78 33.58C46.81 33.45 46.83 33.31 46.85 33.18C46.66 32.88 46.51 32.56 46.39 32.23C46.56 32.37 46.73 32.5 46.91 32.63C46.94 32.18 46.93 31.75 46.9 31.34C46.62 30.98 46.34 30.62 46.06 30.26C46.06 30.26 46.06 30.26 46.06 30.25C46.18 30.34 46.35 30.3799 46.5 30.4099C46.59 30.4299 46.69 30.45 46.78 30.46C46.75 30.31 46.72 30.17 46.69 30.03C46.64 29.96 46.6 29.89 46.55 29.83C46.37 29.57 46.17 29.32 45.95 29.09C46.12 29.19 46.3 29.28 46.48 29.34C46.33 28.92 46.17 28.57 46.03 28.31C45.88 28.04 45.74 27.86 45.66 27.81C45.08 27.42 44.71 25.29 44.71 25.29C44.71 25.29 43.36 17.38 40 17.44C36.64 17.5 35.68 23.83 35.68 23.83L34.84 28.08C34.53 29.52 34.54 30.7699 34.75 31.8499L34.73 31.86Z" fill="#A05B38"/>
<path d="M40.5499 44.19C40.9299 44.86 41.4299 48.65 41.2599 49.09C41.0899 49.53 40.8799 50.25 41.2599 50.29C41.6399 50.33 41.7599 50.71 41.7599 51.38C41.7599 52.05 42.3899 52.01 42.3899 52.01H44.0699C43.7899 50.95 44.7599 51.08 44.7599 51.08C44.5699 50.68 44.9298 50.52 45.2698 50.45C44.7898 49.71 43.9099 49.08 43.5699 49.08C43.1999 49.08 42.7099 46.14 42.6499 45.02C42.5899 43.9 43.0399 42.72 43.0399 42.72C43.9899 41.04 43.3499 38.55 43.3499 38.55C43.0699 38.62 42.6499 38.66 42.3099 38.46C41.7499 38.12 40.6299 38.2 40.0699 38.61C39.9699 38.69 39.8599 38.72 39.7499 38.71C38.8299 40.96 40.1799 43.55 40.5299 44.17L40.5499 44.19Z" fill="#BF7649"/>
<path d="M44.0801 52.01H44.9601C45.8001 52.01 45.6501 51.66 45.6501 51.66L45.4301 51.21C45.9301 51.21 45.4301 50.71 45.4301 50.71C45.3901 50.63 45.3401 50.54 45.2901 50.46C44.9401 50.53 44.5901 50.69 44.7801 51.09C44.7801 51.09 43.8101 50.95 44.0901 52.02L44.0801 52.01Z" fill="#684236"/>
<path d="M72.2299 6.78001C72.3099 6.62001 72.3499 6.48997 72.3499 6.48997C71.7699 6.46997 71.0299 6.14998 70.6799 6.05998C70.1499 5.92998 71.4199 6.7 72.2299 6.77V6.78001Z" fill="#242121"/>
<path d="M71.01 3.79999C71.67 3.84999 71.83 4.03001 72.09 4.20001C72.35 4.37001 72.38 4.24998 72.21 4.09998C72.21 4.09998 71.65 3.5 70.82 3.5C69.99 3.5 70.35 3.74999 71 3.79999H71.01Z" fill="#9F5E45"/>
<path d="M64.6 5.03005C65.22 5.26005 65.84 4.36005 65.64 4.28005C65.64 4.28005 64.94 3.91005 64.18 4.28005C63.42 4.65005 63.98 4.80005 64.6 5.03005Z" fill="#9F5E45"/>
<path d="M54.3299 2.61001C54.7099 2.78001 55.2499 3.26004 55.3999 3.26004C55.6199 3.26004 55.4099 3.41004 55.7299 3.45004C56.0499 3.50004 55.7299 3.45 56.4199 3.91C57.1099 4.37 57.9399 4.53002 58.1799 4.30002C58.4199 4.08002 58.2799 4.57001 58.5299 4.36001C58.7799 4.15001 58.5499 4.62 58.7399 4.41C58.9199 4.2 58.7399 4.68004 58.9599 4.51004C59.1799 4.34004 59.2799 4.36001 59.2799 4.73001C59.2799 4.96001 58.9099 5.25003 58.6299 5.44003C59.5999 5.35003 59.5399 4.66004 59.6499 4.82004C59.7899 5.01004 59.5799 4.57 59.7499 4.66C59.9199 4.75 59.7299 3.99004 59.3699 3.70004C59.3699 3.70004 58.6599 2.81003 56.6499 2.81003C56.3699 2.81003 56.1099 2.80006 55.8899 2.78006C54.7399 2.68006 54.2499 2.41001 54.3299 2.61001Z" fill="#A05B38"/>
<path d="M54.3301 2.60999C54.3301 2.60999 54.3901 2.72 54.4601 2.81C54.8301 3.31 54.8901 3.44003 55.0401 3.59003C55.0401 3.59003 55.0401 3.58998 55.0501 3.59998C55.0801 3.62998 55.1201 3.66001 55.1701 3.70001C55.4301 3.91001 55.6201 3.67997 55.4301 3.90997C55.2501 4.13997 55.8001 3.96999 55.6601 4.10999C55.5201 4.24999 55.9901 3.99997 55.9001 4.21997C55.8101 4.43997 56.2901 5.19998 57.9601 5.41998C58.2301 5.44998 58.4501 5.46 58.6301 5.44C58.9001 5.26 59.2801 4.96998 59.2801 4.72998C59.2801 4.35998 59.1801 4.34001 58.9601 4.51001C58.7401 4.68001 58.9301 4.19997 58.7401 4.40997C58.5601 4.61997 58.7901 4.14999 58.5301 4.35999C58.2801 4.56999 58.4201 4.07999 58.1801 4.29999C57.9401 4.51999 57.1101 4.35997 56.4201 3.90997C55.7301 3.44997 56.0501 3.50001 55.7301 3.45001C55.4101 3.40001 55.6201 3.26001 55.4001 3.26001C55.2501 3.26001 54.7101 2.77999 54.3301 2.60999Z" fill="#684236"/>
<path d="M63.82 4.28001C64.53 4.02001 64.55 3.91998 65.19 3.99998C65.38 4.02998 65.57 4.07 65.77 4.08C65.93 4.09 66.07 4.05999 66.11 3.87999C66.15 3.71999 66.11 3.58997 66.02 3.48997C65.97 3.43997 65.91 3.39001 65.84 3.34001C65.66 3.23001 65.44 3.16998 65.23 3.11998C64.71 2.99998 63.99 2.95998 63.59 3.36998C62.98 3.98998 63.12 4.54 63.83 4.27L63.82 4.28001Z" fill="#9F5E45"/>
<path d="M64.6001 5.03002C65.2201 5.26002 65.8401 4.36002 65.6401 4.28002C65.6401 4.28002 65.5101 4.20996 65.2901 4.15996C65.0101 4.09996 64.6001 4.07002 64.1801 4.28002C64.1701 4.28002 64.1601 4.28998 64.1501 4.29998C63.4401 4.64998 64.0001 4.81002 64.6001 5.03002Z" fill="#242121"/>
<path d="M63.82 4.28001C64.53 4.02001 64.55 3.91998 65.19 3.99998C65.38 4.02998 65.57 4.07 65.77 4.08C65.93 4.09 66.07 4.05999 66.11 3.87999C66.15 3.71999 66.11 3.58997 66.02 3.48997C65.97 3.43997 65.91 3.39001 65.84 3.34001C65.66 3.23001 65.44 3.16998 65.23 3.11998C64.71 2.99998 63.99 2.95998 63.59 3.36998C62.98 3.98998 63.12 4.54 63.83 4.27L63.82 4.28001Z" fill="#A05B38"/>
<path d="M71.01 3.79999C71.67 3.84999 71.83 4.03001 72.09 4.20001C72.35 4.37001 72.38 4.24998 72.21 4.09998C72.21 4.09998 71.65 3.5 70.82 3.5C69.99 3.5 70.35 3.74999 71 3.79999H71.01Z" fill="#242121"/>
<path d="M13.4599 24.74C15.5299 27.43 20.86 30.4601 20.86 30.4601C22.5 31.4201 24.4999 31.95 26.6299 32.18C22.7099 31.14 20.0699 28.9101 18.5499 27.4601C16.5699 25.5701 17.4199 24.0801 15.4399 23.6501C13.4599 23.2201 13.45 24.74 13.45 24.74H13.4599Z" fill="#AD653D"/>
<path d="M64.1499 4.33C64.1499 4.66 64.4099 4.91997 64.7399 4.91997C65.0699 4.91997 65.3299 4.65 65.3299 4.33C65.3299 4.27 65.3299 4.20996 65.3099 4.15996C65.0299 4.09996 64.6199 4.07002 64.1999 4.28002C64.1899 4.28002 64.1799 4.28998 64.1699 4.29998C64.1699 4.30998 64.1699 4.32 64.1699 4.33H64.1499Z" fill="#54372D"/>
<path d="M64.54 4.45001C64.54 4.56001 64.64 4.65002 64.76 4.65002C64.88 4.65002 64.98 4.56001 64.98 4.45001C64.98 4.34001 64.88 4.25 64.76 4.25C64.64 4.25 64.54 4.34001 64.54 4.45001Z" fill="black"/>
<path d="M64.6199 4.37C64.6199 4.3 64.5699 4.25 64.4999 4.25C64.4299 4.25 64.3799 4.3 64.3799 4.37C64.3799 4.44 64.4299 4.48999 64.4999 4.48999C64.5699 4.48999 64.6199 4.44 64.6199 4.37Z" fill="white"/>
<path d="M47.89 22.82C47.89 22.82 39.39 27.32 30.54 27.88C21.69 28.44 13.95 23.6 10.15 21.07C7.49001 19.3 6.88001 19.08 6.76001 19.1C6.89001 18.61 7.70001 15.64 8.38001 14.56C8.38001 14.56 8.86001 14.36 9.49001 13.99C9.09001 14.88 8.12001 17.15 7.79001 18.86C7.79001 18.86 10.38 19.8 12.9 21.58C15.42 23.35 22.34 28.07 31.29 27.22C40.24 26.37 46.93 22.5 46.93 22.5C46.93 22.5 47.79 18.39 46.09 11.73L46.93 12.66C46.93 12.66 48.33 16.78 47.89 22.81V22.82Z" fill="#E57715"/>
<path d="M46.93 22.5C46.93 22.5 40.24 26.37 31.29 27.22C22.34 28.07 15.42 23.35 12.9 21.58C10.38 19.81 7.79004 18.86 7.79004 18.86C8.11004 17.15 9.09004 14.88 9.49004 13.99C9.84004 13.79 10.23 13.54 10.62 13.25L11.31 14.95L9.26004 15.74L11 19.5L13.86 18.83L14.55 21.92L18.35 21.13L19.54 24.74L23.64 23.23L25.48 26.57L28.93 23.73L31.93 26.55L34.46 23.24L38 25.33L40.03 21.26L43.58 22.88L46.6 19.19L44.19 16.24L46.22 14.18L43.9 11.19L44.64 10.1L46.11 11.72C47.82 18.38 46.95 22.49 46.95 22.49L46.93 22.5Z" fill="#3E859B"/>
<path d="M38.4699 11.36C38.4699 11.36 35.0599 15.91 30.5699 15.91C30.2999 15.91 30.0299 15.9 29.7699 15.88C25.7299 15.57 23.1599 12.98 23.1599 12.98C24.0899 10.79 24.7999 8.45003 25.1099 7.34003C25.4299 6.70003 25.6699 5.98999 25.8099 5.17999C25.8099 5.17999 25.9299 5.34 26.1499 5.56L23.7599 12.9C23.7599 12.9 25.7099 15.17 29.7599 15.46C30.0399 15.48 30.3299 15.49 30.6199 15.49C30.6199 15.49 34.4999 15.24 37.8499 11.47L34.3499 5.28998C34.4799 5.17998 34.5999 5.07002 34.7299 4.96002C34.7299 4.96002 34.8699 5.44999 35.2499 6.10999C35.2499 6.10999 35.2499 6.11 35.2699 6.13C35.2699 6.13 35.2699 6.14002 35.2799 6.15002C35.3399 6.25002 35.3999 6.35001 35.4599 6.45001C35.5999 6.67001 35.7599 6.89 35.9499 7.12C36.8999 8.71 38.4499 11.35 38.4499 11.35L38.4699 11.36Z" fill="#F4A22A"/>
<path d="M45.8201 19.21L43.4001 22.17L39.7401 20.51L37.7401 24.52L34.2901 22.49L31.8401 25.69L28.9401 22.96L25.6401 25.68L23.9001 22.51L19.9001 23.99L18.7301 20.46L14.9901 21.24L14.3001 18.13L11.3301 18.83L10.0601 16.08L12.0801 15.3L11.1001 12.88C11.3101 12.7 11.5101 12.5 11.7001 12.3C11.7001 12.3 22.0301 13.58 25.1201 7.34003C24.8101 8.45003 24.1001 10.8 23.1701 12.98C23.1701 12.98 25.7501 15.57 29.7801 15.88C30.0401 15.9 30.3101 15.91 30.5801 15.91C35.0701 15.91 38.4801 11.36 38.4801 11.36C38.4801 11.36 36.9301 8.71 35.9801 7.13C37.2501 8.66 39.6901 10.31 44.1601 9.59998L44.2201 9.66998L43.1601 11.24L45.4301 14.15L43.3901 16.22L45.8301 19.21H45.8201Z" fill="#3E859B"/>
<path d="M37.86 11.47C34.52 15.24 30.63 15.49 30.63 15.49C30.33 15.49 30.04 15.48 29.77 15.46C25.72 15.17 23.77 12.9 23.77 12.9L26.16 5.56C26.29 5.69 26.46 5.85001 26.67 6.01001C26.6 6.44001 26.51 7.15998 26.51 7.97998C26.51 8.03998 26.51 8.10998 26.51 8.16998C26.51 8.19998 26.51 8.23002 26.51 8.27002C26.51 8.35002 26.51 8.44002 26.51 8.52002C26.51 8.57002 26.51 8.61997 26.51 8.65997C26.51 8.67997 26.51 8.70998 26.51 8.72998C26.51 8.79998 26.52 8.88001 26.53 8.95001C26.53 9.01001 26.54 9.08001 26.55 9.14001C26.55 9.17001 26.55 9.20999 26.56 9.23999C26.56 9.28999 26.57 9.34001 26.58 9.39001C26.58 9.43001 26.59 9.48002 26.6 9.52002C26.6 9.55002 26.61 9.57999 26.62 9.60999C26.62 9.64999 26.64 9.68999 26.64 9.73999C26.64 9.75999 26.64 9.77999 26.65 9.79999C26.66 9.84999 26.67 9.9 26.68 9.94C26.7 10.02 26.72 10.1 26.74 10.18C26.74 10.21 26.76 10.24 26.77 10.27C26.79 10.35 26.82 10.43 26.85 10.52C26.85 10.54 26.87 10.57 26.88 10.6C26.92 10.7 26.95 10.79 27 10.89C27 10.91 27.02 10.93 27.03 10.95C27.07 11.04 27.12 11.13 27.17 11.22C27.19 11.25 27.2 11.28 27.22 11.31C27.24 11.34 27.26 11.37 27.27 11.4C27.28 11.42 27.3 11.44 27.31 11.46C27.33 11.49 27.34 11.51 27.36 11.54C27.36 11.54 27.36 11.54 27.36 11.55C27.36 11.56 27.38 11.58 27.39 11.59C27.46 11.69 27.53 11.78 27.61 11.88C27.63 11.9 27.65 11.92 27.66 11.94C27.83 12.13 28.02 12.31 28.24 12.46C28.27 12.48 28.3 12.5 28.32 12.52C28.33 12.52 28.35 12.54 28.36 12.55C28.38 12.56 28.4 12.57 28.42 12.58C28.44 12.59 28.46 12.61 28.49 12.62L28.51 12.63C28.54 12.65 28.57 12.66 28.6 12.68C28.63 12.7 28.67 12.71 28.7 12.73C28.72 12.73 28.73 12.75 28.75 12.75L28.8 12.77C28.8 12.77 28.85 12.79 28.88 12.8C28.91 12.81 28.93 12.82 28.96 12.83C28.99 12.84 29.01 12.85 29.04 12.86C29.07 12.87 29.1 12.88 29.12 12.89C29.16 12.9 29.2 12.92 29.23 12.93C29.27 12.94 29.31 12.95 29.35 12.96C29.39 12.97 29.43 12.98 29.47 12.99C29.51 12.99 29.55 13.01 29.59 13.02C29.63 13.02 29.66 13.04 29.7 13.04C29.74 13.04 29.78 13.06 29.82 13.06C29.85 13.06 29.88 13.07 29.92 13.08C29.95 13.08 29.97 13.08 30 13.08C30.03 13.08 30.06 13.08 30.1 13.09C30.14 13.09 30.18 13.09 30.22 13.1C30.22 13.1 30.23 13.1 30.24 13.1C30.25 13.1 30.27 13.1 30.28 13.1C30.43 13.11 30.59 13.12 30.75 13.12C35.45 13.12 34.34 7.73 33.75 5.69C33.93 5.56 34.11 5.41 34.3 5.25L37.8 11.43L37.86 11.47Z" fill="#E57715"/>
<path d="M30.8101 13.16C30.6501 13.16 30.4901 13.16 30.3401 13.14C30.3301 13.14 30.3101 13.14 30.3001 13.14C30.3001 13.14 30.2901 13.14 30.2801 13.14C30.2401 13.14 30.2001 13.14 30.1601 13.13C30.1301 13.13 30.1001 13.13 30.0601 13.12C30.0301 13.12 30.0101 13.12 29.9801 13.12C29.9501 13.12 29.9201 13.12 29.8801 13.1C29.8401 13.1 29.8001 13.09 29.7601 13.08C29.7201 13.08 29.6801 13.06 29.6501 13.06C29.6501 13.06 29.5701 13.04 29.5301 13.03C29.4901 13.02 29.4501 13.01 29.4101 13C29.3701 12.99 29.3301 12.98 29.2901 12.97C29.2501 12.96 29.2101 12.95 29.1801 12.93C29.1501 12.93 29.1201 12.91 29.1001 12.9C29.0801 12.89 29.0501 12.88 29.0201 12.87C28.9901 12.86 28.9701 12.85 28.9401 12.84C28.9101 12.83 28.8901 12.82 28.8601 12.81L28.8101 12.79C28.8101 12.79 28.7801 12.77 28.7601 12.77C28.7301 12.75 28.6901 12.74 28.6601 12.72C28.6301 12.7 28.6001 12.69 28.5701 12.67C28.5701 12.67 28.5501 12.67 28.5501 12.66C28.5301 12.65 28.5101 12.63 28.4801 12.62C28.4601 12.61 28.4401 12.6 28.4201 12.59C28.4101 12.59 28.3901 12.57 28.3801 12.56C28.3501 12.54 28.3201 12.52 28.3001 12.5C28.0801 12.35 27.8901 12.17 27.7201 11.98C27.7001 11.96 27.6801 11.94 27.6701 11.92C27.5901 11.83 27.5201 11.73 27.4501 11.63C27.4501 11.62 27.4301 11.6 27.4201 11.59C27.4201 11.59 27.4201 11.59 27.4201 11.58C27.4001 11.56 27.3901 11.53 27.3701 11.5C27.3601 11.48 27.3401 11.46 27.3301 11.44C27.3101 11.41 27.2901 11.38 27.2801 11.35C27.2601 11.32 27.2501 11.29 27.2301 11.26C27.1801 11.17 27.1401 11.08 27.0901 10.99C27.0901 10.97 27.0701 10.95 27.0601 10.93C27.0201 10.83 26.9801 10.74 26.9401 10.64C26.9401 10.62 26.9201 10.59 26.9101 10.56C26.8801 10.48 26.8501 10.4 26.8301 10.31C26.8301 10.28 26.8101 10.25 26.8001 10.22C26.7801 10.14 26.7601 10.06 26.7401 9.97998C26.7301 9.92998 26.7201 9.88003 26.7101 9.84003C26.7101 9.82003 26.7101 9.80003 26.7001 9.78003C26.7001 9.74003 26.6801 9.70002 26.6801 9.65002C26.6801 9.62002 26.6701 9.59 26.6601 9.56C26.6601 9.52 26.6401 9.46999 26.6401 9.42999C26.6401 9.37999 26.6201 9.33003 26.6201 9.28003C26.6201 9.25003 26.6201 9.20999 26.6101 9.17999C26.6101 9.11999 26.5901 9.04999 26.5901 8.98999C26.5901 8.91999 26.5801 8.84002 26.5701 8.77002C26.5701 8.75002 26.5701 8.72001 26.5701 8.70001C26.5701 8.65001 26.5701 8.6 26.5701 8.56C26.5701 8.48 26.5701 8.39 26.5701 8.31C26.5701 8.28 26.5701 8.25002 26.5701 8.21002C26.5701 8.15002 26.5701 8.08002 26.5701 8.02002C26.5701 7.20002 26.6601 6.47999 26.7301 6.04999C27.4101 6.58999 28.4601 7.18998 29.8301 7.22998C30.9801 7.25998 32.3401 6.90001 33.8701 5.76001C34.4601 7.80001 35.5701 13.19 30.8701 13.19L30.8101 13.16Z" fill="#F4A22A"/>
<path d="M46.58 19.21L43.56 22.9L40.01 21.28L37.98 25.35L34.44 23.26L31.91 26.57L28.91 23.75L25.46 26.59L23.62 23.25L19.52 24.76L18.33 21.15L14.53 21.94L13.84 18.85L10.98 19.52L9.23999 15.76L11.29 14.97L10.6 13.27C10.76 13.15 10.92 13.02 11.08 12.89L12.06 15.31L10.04 16.09L11.31 18.84L14.28 18.14L14.97 21.25L18.71 20.47L19.88 24L23.88 22.52L25.62 25.69L28.92 22.97L31.82 25.7L34.27 22.5L37.72 24.53L39.72 20.52L43.38 22.18L45.8 19.22L43.36 16.23L45.4 14.16L43.13 11.25L44.19 9.67999L44.6 10.13L43.86 11.22L46.18 14.21L44.15 16.27L46.56 19.22L46.58 19.21Z" fill="#E57715"/>
<path d="M12.26 17.5C12.6577 17.5 12.98 17.1777 12.98 16.78C12.98 16.3824 12.6577 16.06 12.26 16.06C11.8624 16.06 11.54 16.3824 11.54 16.78C11.54 17.1777 11.8624 17.5 12.26 17.5Z" fill="#F4A22A"/>
<path d="M16.2801 20.16C16.6777 20.16 17.0001 19.8376 17.0001 19.44C17.0001 19.0424 16.6777 18.72 16.2801 18.72C15.8824 18.72 15.5601 19.0424 15.5601 19.44C15.5601 19.8376 15.8824 20.16 16.2801 20.16Z" fill="#F4A22A"/>
<path d="M20.8999 22.71C21.2976 22.71 21.6199 22.3876 21.6199 21.99C21.6199 21.5923 21.2976 21.27 20.8999 21.27C20.5023 21.27 20.1799 21.5923 20.1799 21.99C20.1799 22.3876 20.5023 22.71 20.8999 22.71Z" fill="#F4A22A"/>
<path d="M26.1099 23.9C26.5075 23.9 26.8299 23.5776 26.8299 23.18C26.8299 22.7823 26.5075 22.46 26.1099 22.46C25.7122 22.46 25.3899 22.7823 25.3899 23.18C25.3899 23.5776 25.7122 23.9 26.1099 23.9Z" fill="#F4A22A"/>
<path d="M31.6399 23.9C32.0376 23.9 32.3599 23.5776 32.3599 23.18C32.3599 22.7823 32.0376 22.46 31.6399 22.46C31.2423 22.46 30.9199 22.7823 30.9199 23.18C30.9199 23.5776 31.2423 23.9 31.6399 23.9Z" fill="#F4A22A"/>
<path d="M37.23 23.06C37.6277 23.06 37.95 22.7377 37.95 22.34C37.95 21.9424 37.6277 21.62 37.23 21.62C36.8324 21.62 36.51 21.9424 36.51 22.34C36.51 22.7377 36.8324 23.06 37.23 23.06Z" fill="#F4A22A"/>
<path d="M42.8501 20.16C43.2478 20.16 43.5701 19.8376 43.5701 19.44C43.5701 19.0424 43.2478 18.72 42.8501 18.72C42.4525 18.72 42.1301 19.0424 42.1301 19.44C42.1301 19.8376 42.4525 20.16 42.8501 20.16Z" fill="#F4A22A"/>
<path d="M42.7 14.32C43.0976 14.32 43.42 13.9976 43.42 13.6C43.42 13.2023 43.0976 12.88 42.7 12.88C42.3023 12.88 41.98 13.2023 41.98 13.6C41.98 13.9976 42.3023 14.32 42.7 14.32Z" fill="#F4A22A"/>
<path d="M58.1199 26.82C57.6499 26.82 55.4299 26.71 53.4299 24.8C51.2299 22.69 50.1099 19.22 50.0999 14.47C50.0999 14.34 50.1999 14.24 50.3299 14.24C50.4599 14.24 50.5599 14.34 50.5599 14.47C50.5599 19.08 51.6299 22.45 53.7399 24.46C55.7499 26.38 58.0299 26.36 58.1699 26.35C62.7299 25.83 65.7999 22.57 67.2899 16.64C68.3599 12.38 68.1899 8.20998 68.1699 7.78998C66.8599 4.21998 68.6999 2.12998 68.7699 2.03998C68.8599 1.94998 68.9999 1.94002 69.0899 2.02002C69.1799 2.10002 69.1899 2.25003 69.1099 2.34003C69.1099 2.34003 68.6699 2.83999 68.3899 3.73999C68.1299 4.56999 67.9599 5.92003 68.6099 7.65003V7.68L68.6199 7.71003C68.6199 7.75003 68.8699 12.19 67.7299 16.72C67.0599 19.39 66.0399 21.58 64.7099 23.22C63.0299 25.29 60.8399 26.48 58.2099 26.78H58.1899C58.1899 26.78 58.1499 26.78 58.0999 26.78L58.1199 26.82Z" fill="#F4A22A"/>
<path d="M62.47 7.65001C60.31 7.65001 58.58 7.18998 57.32 6.67998C54.91 5.68998 53.67 4.33002 53.62 4.28002C53.54 4.19002 53.54 4.04001 53.64 3.96001C53.73 3.88001 53.88 3.87997 53.96 3.97997C53.96 3.97997 55.19 5.33002 57.51 6.28002C59.65 7.15002 63.21 7.85 67.97 6.26C68.09 6.22 68.22 6.28001 68.26 6.40001C68.3 6.52001 68.24 6.64999 68.12 6.68999C66 7.39999 64.11 7.65996 62.47 7.65996V7.65001Z" fill="#F4A22A"/>
<path d="M60.2698 22.57C60.2098 22.57 60.1398 22.57 60.0698 22.57C57.9998 22.52 56.1898 22.06 54.6998 21.2C53.5098 20.51 52.5098 19.56 51.7498 18.38C50.4598 16.38 50.2798 14.43 50.2698 14.35C50.2598 14.22 50.3498 14.11 50.4798 14.1C50.6098 14.09 50.7198 14.18 50.7298 14.31C50.7298 14.31 50.9098 16.24 52.1398 18.15C53.7898 20.7 56.4598 22.03 60.0698 22.12C61.8998 22.16 63.4498 21.55 64.6898 20.3C68.4598 16.47 68.1698 7.86003 68.1598 7.78003C68.1598 7.65003 68.2498 7.54998 68.3798 7.53998C68.5098 7.53998 68.6098 7.63001 68.6198 7.76001C68.6198 7.78001 68.6998 9.99998 68.3098 12.67C67.9398 15.15 67.0698 18.54 65.0198 20.62C63.7398 21.92 62.1398 22.58 60.2598 22.58L60.2698 22.57Z" fill="#F4A22A"/>
<path d="M58.5799 27.25C58.5799 27.4 58.5299 27.53 58.4599 27.65C58.3299 27.84 58.1199 27.96 57.8699 27.96C57.6199 27.96 57.4099 27.84 57.2799 27.65C57.1999 27.54 57.1599 27.4 57.1599 27.25C57.1599 26.86 57.4799 26.54 57.8699 26.54C58.2599 26.54 58.5799 26.86 58.5799 27.25Z" fill="#F4A22A"/>
<path d="M58.3699 28.71C58.5699 29.21 58.3699 29.96 58.3699 29.96C58.3399 29.5 58.1099 29.12 58.1899 29.41C58.2699 29.7 58.1899 30.03 58.1899 30.03C58.1899 30.03 58.0999 30.01 57.8699 30.08C57.6399 30.15 57.4999 29.96 57.4999 29.96C57.5199 29.7 57.5399 28.88 57.4999 29.29C57.4599 29.7 56.8699 30.34 57.0699 29.96C57.2699 29.57 57.2199 29.09 57.2199 29.09C57.2199 29.09 57.0499 29.76 56.9499 29.76C56.8499 29.76 56.6199 29.66 56.6199 29.66C56.6199 29.66 56.7899 29.56 56.8899 28.77C56.9899 27.98 57.2799 27.66 57.2799 27.66C57.4099 27.85 57.6199 27.97 57.8699 27.97C58.1199 27.97 58.3299 27.85 58.4599 27.66C59.0599 28.8 58.7399 29.69 58.7399 29.69C58.6699 28.89 58.1799 28.22 58.3799 28.72L58.3699 28.71Z" fill="#F4A22A"/>
<path d="M60.8599 26.26C60.8599 26.41 60.9099 26.54 60.9799 26.66C61.1099 26.85 61.3199 26.97 61.5699 26.97C61.8199 26.97 62.0299 26.85 62.1599 26.66C62.2399 26.55 62.2799 26.41 62.2799 26.26C62.2799 25.87 61.9599 25.55 61.5699 25.55C61.1799 25.55 60.8599 25.87 60.8599 26.26Z" fill="#F4A22A"/>
<path d="M61.0697 27.71C60.8697 28.21 61.0697 28.96 61.0697 28.96C61.0997 28.5 61.3297 28.12 61.2497 28.41C61.1697 28.7 61.2497 29.03 61.2497 29.03C61.2497 29.03 61.3397 29.01 61.5697 29.08C61.7997 29.15 61.9397 28.96 61.9397 28.96C61.9197 28.7 61.8997 27.88 61.9397 28.29C61.9797 28.7 62.5697 29.34 62.3697 28.96C62.1697 28.57 62.2197 28.09 62.2197 28.09C62.2197 28.09 62.3897 28.76 62.4897 28.76C62.5897 28.76 62.8197 28.66 62.8197 28.66C62.8197 28.66 62.6497 28.56 62.5497 27.77C62.4497 26.98 62.1597 26.66 62.1597 26.66C62.0297 26.85 61.8197 26.97 61.5697 26.97C61.3197 26.97 61.1097 26.85 60.9797 26.66C60.3797 27.8 60.6997 28.69 60.6997 28.69C60.7697 27.89 61.2597 27.22 61.0597 27.72L61.0697 27.71Z" fill="#F4A22A"/>
<path d="M67.55 7.97998C67.55 8.12998 67.6 8.26 67.67 8.38C67.8 8.57 68.01 8.69 68.26 8.69C68.51 8.69 68.72 8.57 68.85 8.38C68.93 8.27 68.97 8.12998 68.97 7.97998C68.97 7.58998 68.65 7.27002 68.26 7.27002C67.87 7.27002 67.55 7.58998 67.55 7.97998Z" fill="#3E859B"/>
<path d="M67.7599 9.42999C67.5599 9.92999 67.7599 10.68 67.7599 10.68C67.7899 10.22 68.0199 9.84 67.9399 10.13C67.8599 10.42 67.9399 10.75 67.9399 10.75C67.9399 10.75 68.0299 10.73 68.2599 10.8C68.4899 10.87 68.6299 10.68 68.6299 10.68C68.6099 10.42 68.5899 9.60001 68.6299 10.01C68.6699 10.42 69.2599 11.06 69.0599 10.68C68.8599 10.29 68.9099 9.81 68.9099 9.81C68.9099 9.81 69.0799 10.48 69.1799 10.48C69.2799 10.48 69.5099 10.38 69.5099 10.38C69.5099 10.38 69.3399 10.28 69.2399 9.48999C69.1399 8.69999 68.8499 8.38 68.8499 8.38C68.7199 8.57 68.5099 8.69 68.2599 8.69C68.0099 8.69 67.7999 8.57 67.6699 8.38C67.0699 9.52 67.3899 10.41 67.3899 10.41C67.4599 9.60997 67.9499 8.94 67.7499 9.44L67.7599 9.42999Z" fill="#3E859B"/>
<path d="M52.8896 25.59C52.8896 25.74 52.9397 25.87 53.0097 25.99C53.1397 26.18 53.3496 26.3 53.5996 26.3C53.8496 26.3 54.0597 26.18 54.1897 25.99C54.2697 25.88 54.3096 25.74 54.3096 25.59C54.3096 25.2 53.9896 24.88 53.5996 24.88C53.2096 24.88 52.8896 25.2 52.8896 25.59Z" fill="#F4A22A"/>
<path d="M53.0898 27.04C52.8898 27.54 53.0898 28.29 53.0898 28.29C53.1198 27.83 53.3498 27.45 53.2698 27.74C53.1898 28.03 53.2698 28.36 53.2698 28.36C53.2698 28.36 53.3598 28.34 53.5898 28.41C53.8198 28.48 53.9598 28.29 53.9598 28.29C53.9398 28.03 53.9198 27.21 53.9598 27.62C53.9998 28.03 54.5898 28.67 54.3898 28.29C54.1898 27.9 54.2398 27.42 54.2398 27.42C54.2398 27.42 54.4098 28.09 54.5098 28.09C54.6098 28.09 54.8398 27.99 54.8398 27.99C54.8398 27.99 54.6698 27.89 54.5698 27.1C54.4698 26.31 54.1798 25.99 54.1798 25.99C54.0498 26.18 53.8398 26.3 53.5898 26.3C53.3398 26.3 53.1298 26.18 52.9998 25.99C52.3998 27.13 52.7198 28.02 52.7198 28.02C52.7898 27.22 53.2798 26.55 53.0798 27.05L53.0898 27.04Z" fill="#F4A22A"/>
</svg>
