<svg width="40" height="68" viewBox="0 0 40 68" fill="none" xmlns="http://www.w3.org/2000/svg">
<path d="M19.94 64.86C10.61 64.86 3.05005 61.75 3.05005 59.91L3.15005 63.16C3.15005 65 10.81 67.67 20.14 67.67C29.47 67.67 36.93 65.01 36.93 63.16L36.8301 59.91C36.8301 61.75 29.27 64.86 19.94 64.86Z" fill="#808080"/>
<path d="M38.8199 15.89C38.6999 15.31 38.5399 14.75 38.3399 14.2L35.4999 4.19H4.55994L1.67994 14.1C1.45994 14.67 1.28994 15.27 1.15994 15.88C1.01994 16.6 0.939941 17.34 0.939941 18.1V54.76C0.939941 60.96 5.18994 65.16 12.1699 65.99C12.1699 65.99 15.5199 66.54 19.9899 66.54C23.6199 66.54 27.8099 65.99 27.8099 65.99C34.6999 64.81 39.0399 60.96 39.0399 54.76V18.1C39.0399 17.34 38.9599 16.6 38.8199 15.88V15.89Z" fill="#60C4E1"/>
<path d="M11.82 16.85L12.75 4.19H9.96999L6.77999 14.23C6.25999 15.88 5.98999 17.6 5.98999 19.34V55.99C5.98999 57.7 6.24999 59.4 6.75999 61.04L7.99999 64.99C9.06999 65.41 10.25 65.72 11.53 65.92L11.82 59.91V16.86V16.85Z" fill="#8AD8EE"/>
<path d="M38.82 15.89C38.7 15.31 38.54 14.75 38.34 14.2L35.5 4.19H22.85L25.6901 14.2C25.8901 14.74 26.05 15.3 26.17 15.88C26.31 16.6 26.39 17.34 26.39 18.1V54.76C26.39 60.96 22.05 64.81 15.16 65.99C15.16 65.99 14.53 66.07 13.55 66.17C14.93 66.33 17.2501 66.54 19.9901 66.54C23.6201 66.54 27.81 65.99 27.81 65.99C34.7 64.81 39.0401 60.96 39.0401 54.76V18.1C39.0401 17.34 38.96 16.6 38.82 15.88V15.89Z" fill="#3DB0D0"/>
<path d="M3.85995 13.22L6.87995 4.20001H4.56995L1.68995 14.11C1.46995 14.68 1.29995 15.28 1.16995 15.89C1.02995 16.61 0.949951 17.35 0.949951 18.11V54.77C0.949951 58.09 2.16995 60.84 4.36995 62.8L3.30995 58.75C2.96995 57.45 2.79995 56.12 2.79995 54.78V19.74C2.79995 17.53 3.15995 15.32 3.85995 13.22Z" fill="#3DB0D0"/>
<path d="M20.03 6.57001C10.51 6.57001 2.80005 5.23002 2.80005 3.58002V5.12C2.80005 6.77 10.52 8.10999 20.03 8.10999C29.54 8.10999 37.2601 6.77 37.2601 5.12V3.58002C37.2601 5.23002 29.54 6.57001 20.03 6.57001Z" fill="#999999"/>
<path d="M20.03 6.57001C29.5459 6.57001 37.2601 5.23135 37.2601 3.58002C37.2601 1.92869 29.5459 0.590027 20.03 0.590027C10.5142 0.590027 2.80005 1.92869 2.80005 3.58002C2.80005 5.23135 10.5142 6.57001 20.03 6.57001Z" fill="#E6E6E6"/>
<path d="M20.03 5.35999C28.4689 5.35999 35.31 4.32577 35.31 3.04999C35.31 1.77421 28.4689 0.73999 20.03 0.73999C11.5911 0.73999 4.75 1.77421 4.75 3.04999C4.75 4.32577 11.5911 5.35999 20.03 5.35999Z" fill="#999999"/>
<path d="M20.0599 1.51001C12.2999 1.51001 5.91993 2.42003 5.17993 3.59003C6.80993 4.60003 12.8399 5.34998 20.0299 5.34998C27.2199 5.34998 33.3699 4.59 34.9199 3.56C34.0899 2.41 27.7599 1.51001 20.0599 1.51001Z" fill="#CCCCCC"/>
<path d="M24.8099 3.25L24.0099 2.69C23.8599 2.59 23.6899 2.53003 23.5099 2.53003H15.3799C14.5199 2.53003 14.1699 3.63 14.8799 4.13L15.6799 4.69C15.8299 4.79 15.9999 4.84998 16.1799 4.84998H24.3099C25.1699 4.84998 25.5199 3.75 24.8099 3.25ZM19.9099 4.21002H16.3199C16.2299 4.21002 16.1499 4.16998 16.0899 4.09998L15.5599 3.41998C15.4099 3.22998 15.5499 2.96002 15.7899 2.96002H19.3799C19.4699 2.96002 19.5499 3.00001 19.6099 3.07001L20.1399 3.75C20.2899 3.94 20.1499 4.21002 19.9099 4.21002ZM22.3999 4.15002C21.5899 4.15002 20.9399 3.90003 20.9399 3.59003C20.9399 3.28003 21.5899 3.03003 22.3999 3.03003C23.2099 3.03003 23.8599 3.28003 23.8599 3.59003C23.8599 3.90003 23.2099 4.15002 22.3999 4.15002Z" fill="#999999"/>
<path d="M24.8099 2.82001L24.0099 2.26001C23.8599 2.16001 23.6899 2.09998 23.5099 2.09998H15.3799C14.5199 2.09998 14.1699 3.20001 14.8799 3.70001L15.6799 4.26001C15.8299 4.36001 15.9999 4.41998 16.1799 4.41998H24.3099C25.1699 4.41998 25.5199 3.32001 24.8099 2.82001ZM19.9099 3.78003H16.3199C16.2299 3.78003 16.1499 3.73998 16.0899 3.66998L15.5599 3C15.4099 2.81 15.5499 2.53998 15.7899 2.53998H19.3799C19.4699 2.53998 19.5499 2.58002 19.6099 2.65002L20.1399 3.32001C20.2899 3.51001 20.1499 3.78003 19.9099 3.78003ZM22.3999 3.71997C21.5899 3.71997 20.9399 3.46997 20.9399 3.15997C20.9399 2.84997 21.5899 2.59998 22.3999 2.59998C23.2099 2.59998 23.8599 2.84997 23.8599 3.15997C23.8599 3.46997 23.2099 3.71997 22.3999 3.71997Z" fill="#E6E6E6"/>
<path d="M25.2599 18.94C23.4499 18.94 21.8099 18.81 20.5899 18.62C20.3199 18.58 20.1299 18.33 20.1699 18.06C20.2099 17.79 20.4599 17.6 20.7299 17.64C22.8699 17.96 26.3599 18.13 29.7599 17.64C31.5099 17.39 33.2499 16.96 35.0699 16.34C35.3299 16.25 35.6099 16.39 35.6999 16.65C35.7899 16.91 35.6499 17.19 35.3899 17.28C33.5099 17.93 31.7199 18.37 29.8999 18.63C28.3299 18.86 26.7299 18.94 25.2499 18.94H25.2599Z" fill="white"/>
<path d="M17.58 42.79C17.29 42.99 14.48 44.97 14.54 48.36C14.59 51.31 16.77 53.91 19.58 54.64C22.97 55.52 26.49 53.47 27.69 50.39C28.58 48.11 28.25 45.17 26.31 43.25C23.89 40.86 20.03 41.13 17.59 42.78L17.58 42.79Z" fill="#F66FA0"/>
<path d="M3.81002 46.89C1.56002 48.76 1.40002 51.9 2.05002 54.01C3.01002 57.11 6.22002 59.66 9.73002 59.18C12.2 58.85 14.63 57.0501 15.32 54.4001C16.19 51.0801 13.92 48.04 11.57 46.69C9.63002 45.58 6.25002 44.84 3.81002 46.88V46.89Z" fill="#F66FA0"/>
<path d="M20.3599 53.92C18.0599 53.34 16.2499 51.48 15.5299 49.28C14.9899 47.64 15.1599 46.14 15.5299 44.94C14.9699 45.83 14.5199 46.97 14.5399 48.36C14.5899 51.31 16.7699 53.91 19.5799 54.64C22.0699 55.29 24.6199 54.35 26.2799 52.59C24.5099 53.9 22.3399 54.41 20.3599 53.91V53.92Z" fill="#EF5694"/>
<path d="M13.61 54.58C12.6 56.83 10.46 57.8 9.94004 58.02C8.65004 58.57 7.31004 58.69 6.04004 58.59C7.16004 59.12 8.42004 59.36 9.73004 59.19C12.2 58.86 14.63 57.06 15.32 54.41C16.01 51.78 14.72 49.32 12.99 47.75C14.27 50.04 14.53 52.55 13.61 54.59V54.58Z" fill="#EF5694"/>
<path d="M19.17 44.89C19.17 44.89 19.13 44.89 19.11 44.89C17.91 44.73 14.88 44.04 12.74 41.27C11.35 39.47 10.93 37.57 10.81 36.29C10.79 36.07 10.95 35.87 11.18 35.85C11.4 35.83 11.6 35.9899 11.62 36.2199C11.72 37.3899 12.11 39.14 13.38 40.78C15.34 43.32 18.12 43.95 19.22 44.1C19.44 44.13 19.6 44.33 19.56 44.55C19.53 44.75 19.36 44.9 19.16 44.9L19.17 44.89Z" fill="#B36517"/>
<path d="M8.45999 48.29C8.35999 48.29 8.24999 48.25 8.16999 48.17C8.00999 48.01 8.01999 47.76 8.16999 47.6C9.05999 46.72 9.85999 45.74 10.55 44.69C11.34 43.48 11.97 42.17 12.44 40.8C12.51 40.59 12.74 40.48 12.95 40.55C13.16 40.62 13.27 40.85 13.2 41.06C12.71 42.49 12.04 43.86 11.22 45.13C10.5 46.23 9.66999 47.26 8.72999 48.18C8.64999 48.26 8.54999 48.3 8.44999 48.3L8.45999 48.29Z" fill="#B36517"/>
<path d="M11 40.2C10.54 39.86 8.87999 38.72 6.48999 38.84C3.96999 38.97 2.37999 40.45 1.98999 40.82C2.11999 41 3.71999 43.11 6.46999 43.02C9.46999 42.92 10.94 40.31 11 40.19V40.2Z" fill="#BACC31"/>
<path d="M21.1599 42.72C21.3599 42.67 21.5699 42.65 21.7799 42.64C21.9899 42.64 22.1999 42.64 22.4099 42.67C22.8299 42.72 23.2499 42.82 23.6499 42.98C24.4599 43.3 25.1899 43.85 25.7299 44.54C25.7699 44.58 25.7999 44.63 25.8299 44.67C25.8599 44.71 25.8999 44.76 25.9299 44.8C25.9899 44.89 26.0499 44.98 26.1099 45.08C26.2199 45.27 26.3199 45.47 26.4099 45.67C26.5799 46.07 26.6999 46.5 26.7599 46.93C26.8199 47.36 26.8199 47.79 26.7699 48.21C26.7399 48.42 26.6999 48.63 26.6499 48.83C26.5899 49.03 26.5199 49.23 26.4299 49.42C26.4099 49.21 26.3799 49.01 26.3499 48.81C26.3199 48.61 26.2899 48.42 26.2499 48.23C26.2099 48.04 26.1699 47.85 26.1099 47.67C26.0599 47.49 25.9999 47.3 25.9399 47.13C25.8199 46.78 25.6699 46.44 25.4899 46.12C25.3999 45.96 25.3099 45.8 25.2099 45.65C25.1099 45.5 24.9999 45.35 24.8899 45.21C24.4399 44.64 23.8999 44.15 23.2699 43.74C22.9599 43.54 22.6199 43.35 22.2699 43.18C22.0899 43.1 21.9099 43.02 21.7299 42.94C21.5399 42.86 21.3499 42.79 21.1599 42.72Z" fill="#FF9FCB"/>
<path d="M6.22009 47.23C6.08009 47.38 5.94009 47.53 5.80009 47.68C5.67009 47.83 5.54009 47.98 5.42009 48.13C5.18009 48.43 4.97009 48.75 4.78009 49.07C4.60009 49.39 4.44009 49.72 4.32009 50.06C4.29009 50.15 4.26009 50.23 4.24009 50.32C4.22009 50.36 4.22009 50.41 4.20009 50.45L4.16009 50.58C4.14009 50.67 4.12009 50.75 4.10009 50.84L4.08009 50.97C4.08009 50.97 4.06009 51.06 4.06009 51.1C4.01009 51.45 3.98009 51.81 4.00009 52.17C4.00009 52.35 4.02009 52.53 4.04009 52.72C4.06009 52.9 4.09009 53.09 4.12009 53.27C4.19009 53.64 4.28009 54.01 4.40009 54.38C4.52009 54.75 4.65009 55.13 4.81009 55.51C4.64009 55.39 4.48009 55.25 4.34009 55.1C4.20009 54.95 4.06009 54.79 3.94009 54.62C3.82009 54.45 3.70009 54.27 3.60009 54.09C3.50009 53.91 3.40009 53.71 3.32009 53.51C3.24009 53.31 3.17009 53.11 3.12009 52.9L3.08009 52.74C3.07009 52.69 3.06009 52.63 3.05009 52.58C3.05009 52.53 3.03009 52.47 3.02009 52.42L3.00009 52.26C2.94009 51.83 2.95009 51.38 3.02009 50.94C3.02009 50.89 3.04009 50.83 3.05009 50.78L3.08009 50.62C3.09009 50.57 3.11009 50.51 3.12009 50.46C3.13009 50.41 3.15009 50.35 3.16009 50.3L3.21009 50.14C3.23009 50.09 3.24009 50.03 3.27009 49.98C3.31009 49.88 3.35009 49.78 3.40009 49.68C3.59009 49.28 3.83009 48.91 4.11009 48.58C4.39009 48.25 4.72009 47.97 5.08009 47.74C5.44009 47.51 5.82009 47.33 6.22009 47.23Z" fill="#FF9FCB"/>
<path d="M31.76 51.38L32.15 53.6C31.08 53.52 30.53 53.8 30.5 54.43C30.54 54.87 30.8 55.09 31.29 55.09C31.6 55.09 31.9 54.98 32.18 54.75C32.49 54.48 32.72 54.1 32.86 53.61C33.1 52.8 33.55 52.21 34.22 51.84C34.74 51.56 35.33 51.43 36 51.46C36.59 51.49 37.15 51.78 37.69 52.34C38.28 52.96 38.56 53.66 38.54 54.45C38.51 55.39 37.78 56.54 36.35 57.9L34.57 56.34C35.86 55.91 36.52 55.27 36.56 54.41C36.56 54.07 36.5 53.8 36.36 53.6C36.22 53.4 36.04 53.3 35.82 53.3C35.54 53.3 35.27 53.46 35.01 53.77C34.7 54.13 34.46 54.64 34.29 55.29C34.16 55.78 33.84 56.16 33.32 56.44C32.85 56.68 32.3 56.81 31.67 56.81C30.93 56.81 30.28 56.65 29.74 56.32C29.15 55.95 28.83 55.47 28.78 54.86C28.78 54.3 28.86 53.8 29.06 53.37C29.51 52.32 30.4 51.66 31.75 51.39L31.76 51.38Z" fill="white"/>
<path d="M33.6299 43.51C35.0099 43.51 36.0399 43.75 36.7099 44.24C37.5299 44.83 37.9199 45.84 37.8799 47.26C37.8399 48.55 37.3599 49.41 36.4599 49.83C35.8699 50.1 34.8299 50.24 33.3099 50.24C32.0999 50.24 31.0599 49.89 30.1899 49.19C29.3399 48.51 28.9199 47.72 28.9199 46.83C28.9199 45.94 29.3599 45.16 30.2299 44.52C31.1399 43.85 32.2699 43.51 33.6299 43.51ZM31.0299 46.8C31.0999 47.11 31.2599 47.39 31.5199 47.64C31.9499 48.05 32.5699 48.26 33.3999 48.27C34.2999 48.27 34.9299 48.19 35.2999 48.02C35.6699 47.85 35.8599 47.54 35.8799 47.08C35.8999 46.58 35.6699 46.17 35.1999 45.84C34.7299 45.51 34.1399 45.37 33.4099 45.41C32.7099 45.45 32.1299 45.63 31.6699 45.95C31.2599 46.23 31.0499 46.51 31.0399 46.8H31.0299Z" fill="white"/>
<path d="M37.4899 36.24C37.6199 37.01 37.6899 37.72 37.6899 38.36C37.6899 40.12 37.2399 41.37 36.3299 42.12C35.9499 42.43 35.4899 42.64 34.9699 42.72C34.7399 42.76 34.4799 42.77 34.1999 42.77C33.1199 42.77 32.2399 42.53 31.5399 42.04C30.4899 41.31 30.0099 40.08 30.0999 38.36L27.3099 38.46L27.1799 36.23H37.5099L37.4899 36.24ZM35.8599 38.06L31.8499 38.24C31.8199 39.44 32.1699 40.27 32.9299 40.73C33.2399 40.92 33.6199 41.04 34.0699 41.07C35.2899 40.88 35.8899 40.03 35.8899 38.54C35.8899 38.38 35.8899 38.22 35.8599 38.05V38.06Z" fill="white"/>
<path d="M38.32 28.93L38.01 31.49L37.32 31.4C37.35 32.6 37.23 33.57 36.97 34.32C36.59 35.41 35.92 35.92 34.98 35.83C33.66 35.71 33 34.71 33 32.84C33 32.23 33.07 31.59 33.21 30.91C32.6 30.89 32.1 30.95 31.72 31.07C31.2 31.24 30.94 31.55 30.95 31.97C30.97 32.63 31.52 32.96 32.6 32.95L32.43 34.97C31.46 34.89 30.67 34.67 30.07 34.31C29.2 33.81 28.76 33.06 28.76 32.05C28.76 30.96 29.24 30.14 30.2 29.61C30.86 29.24 31.65 29.05 32.56 29.03L38.34 28.91L38.32 28.93ZM34.56 31.08C34.44 31.67 34.38 32.21 34.38 32.69C34.38 33.56 34.6 34 35.04 34.01C35.61 34.04 35.89 33.56 35.89 32.57C35.89 32.13 35.84 31.66 35.73 31.15L34.56 31.07V31.08Z" fill="white"/>
<path d="M22.8599 38.65C23.6718 38.65 24.3299 37.9919 24.3299 37.18C24.3299 36.3681 23.6718 35.71 22.8599 35.71C22.048 35.71 21.3899 36.3681 21.3899 37.18C21.3899 37.9919 22.048 38.65 22.8599 38.65Z" fill="white"/>
<path d="M15.6298 35.62C16.2152 35.62 16.6898 35.1454 16.6898 34.56C16.6898 33.9746 16.2152 33.5 15.6298 33.5C15.0444 33.5 14.5698 33.9746 14.5698 34.56C14.5698 35.1454 15.0444 35.62 15.6298 35.62Z" fill="#FFF594"/>
<path d="M21.9499 30.75C22.2592 30.75 22.5099 30.4993 22.5099 30.19C22.5099 29.8807 22.2592 29.63 21.9499 29.63C21.6406 29.63 21.3899 29.8807 21.3899 30.19C21.3899 30.4993 21.6406 30.75 21.9499 30.75Z" fill="#FFF594"/>
<path d="M26.41 27.08C26.13 27.3 25.72 27.24 25.51 26.96C25.29 26.68 25.35 26.27 25.63 26.06C25.91 25.84 26.32 25.9 26.53 26.18C26.75 26.46 26.69 26.87 26.41 27.08Z" fill="white"/>
<path d="M30.52 27.98C30.36 28.01 30.21 27.9 30.18 27.74C30.15 27.58 30.26 27.43 30.42 27.4C30.58 27.37 30.73 27.48 30.76 27.64C30.79 27.8 30.68 27.95 30.52 27.98Z" fill="#FFF594"/>
<path d="M27.98 60.48C27.82 60.51 27.6699 60.4 27.6399 60.24C27.6099 60.08 27.7199 59.93 27.8799 59.9C28.0399 59.87 28.1899 59.98 28.2199 60.14C28.2499 60.3 28.14 60.45 27.98 60.48Z" fill="#FFF594"/>
<path d="M16.49 26.76C16.8877 26.76 17.21 26.4376 17.21 26.04C17.21 25.6423 16.8877 25.32 16.49 25.32C16.0924 25.32 15.77 25.6423 15.77 26.04C15.77 26.4376 16.0924 26.76 16.49 26.76Z" fill="white"/>
<path d="M7.07999 33.2C7.24999 33.68 6.98999 34.21 6.50999 34.38C6.02999 34.55 5.49999 34.29 5.32999 33.81C5.15999 33.33 5.41999 32.8 5.89999 32.63C6.37999 32.46 6.90999 32.72 7.07999 33.2Z" fill="white"/>
<path d="M9.87984 28.39C9.87984 28.67 9.64984 28.91 9.35984 28.91C9.06984 28.91 8.83984 28.68 8.83984 28.39C8.83984 28.1 9.06984 27.87 9.35984 27.87C9.64984 27.87 9.87984 28.1 9.87984 28.39Z" fill="#FFF594"/>
<path d="M17.97 60.53C18.6493 60.53 19.2 59.9793 19.2 59.3C19.2 58.6207 18.6493 58.07 17.97 58.07C17.2907 58.07 16.74 58.6207 16.74 59.3C16.74 59.9793 17.2907 60.53 17.97 60.53Z" fill="#FFF594"/>
<path d="M23.7499 57.32C23.7499 57.57 23.5499 57.77 23.2999 57.77C23.0499 57.77 22.8499 57.57 22.8499 57.32C22.8499 57.07 23.0499 56.87 23.2999 56.87C23.5499 56.87 23.7499 57.07 23.7499 57.32Z" fill="white"/>
</svg>
