<svg width="66" height="39" viewBox="0 0 66 39" fill="none" xmlns="http://www.w3.org/2000/svg">
<path d="M46.99 1.28C46.92 1.74 46.0199 1.98999 44.9799 1.82999C44.9499 1.82999 44.9299 1.82998 44.8999 1.81998C44.1199 1.68998 43.5 1.35998 43.3 1.00998C43.3 1.00998 43.2999 0.999964 43.2899 0.989964C43.2799 0.969964 43.2699 0.939956 43.2599 0.919957C43.2299 0.849957 43.2199 0.779944 43.2299 0.719944C43.3099 0.0599443 44.2 0.00995652 45.24 0.169957C45.51 0.209957 45.76 0.259991 45.99 0.329991C46.08 0.359991 46.16 0.379947 46.24 0.409947C46.75 0.599947 47.06 0.890003 46.99 1.28Z" fill="#00A99D"/>
<g style="mix-blend-mode:multiply" opacity="0.3">
<path d="M46.9899 1.28003C46.9199 1.74003 46.0199 1.99002 44.9799 1.83002C44.9499 1.83002 44.9299 1.83001 44.8999 1.82001C44.1199 1.69001 43.4999 1.36001 43.2999 1.01001C43.3999 0.99001 43.5199 0.970022 43.6199 0.960022C44.3199 0.910022 44.6399 1.00998 45.5399 1.03998C45.9899 1.04998 46.1699 1.00002 46.2599 0.900024C46.3799 0.770024 46.2599 0.550022 46.1799 0.460022C46.1399 0.410022 46.0699 0.360017 45.9799 0.330017C46.0699 0.360017 46.1499 0.379973 46.2299 0.409973C46.7399 0.599973 47.0499 0.890029 46.9799 1.28003H46.9899Z" fill="#00A99D"/>
</g>
<g style="mix-blend-mode:multiply" opacity="0.3">
<path d="M46.9899 1.28003C46.9199 1.74003 46.0199 1.99002 44.9799 1.83002C44.9499 1.83002 44.9299 1.83001 44.8999 1.82001C44.1199 1.69001 43.4999 1.36001 43.2999 1.01001C43.3399 1.01001 43.4099 0.99999 43.4699 0.98999C44.0299 0.95999 44.4599 1.02003 44.5099 1.03003C45.1499 1.12003 45.3899 1.12998 45.7099 1.16998C46.2799 1.22998 46.3999 1.07998 46.4399 0.97998C46.5099 0.80998 46.4099 0.58 46.3399 0.5C46.3099 0.47 46.2799 0.430024 46.2299 0.400024C46.7399 0.590024 47.0499 0.88002 46.9799 1.27002L46.9899 1.28003Z" fill="#00A99D"/>
</g>
<g style="mix-blend-mode:screen" opacity="0.3">
<path d="M46.0499 0.619987C46.0499 0.959987 45.2699 0.919987 44.6299 0.869987C43.9899 0.829987 43.3899 0.900002 43.3899 0.510002C43.3899 0.280002 44.0099 0.110016 44.6499 0.150016C45.2899 0.190016 46.0499 0.309977 46.0499 0.609977V0.619987Z" fill="#00A99D"/>
</g>
<g style="mix-blend-mode:screen" opacity="0.3">
<path d="M45.0099 0.409973C45.0199 0.589973 44.5999 0.599976 44.2499 0.599976C43.8999 0.599976 43.5799 0.660012 43.5599 0.450012C43.5599 0.320012 43.8799 0.210022 44.2299 0.210022C44.5799 0.210022 44.9999 0.249973 45.0099 0.409973Z" fill="#00A99D"/>
</g>
<path d="M12.8599 29.34C12.7599 28.73 11.3699 29.0099 7.92994 28.7199C3.71994 28.3699 2.64995 28.74 1.90995 29.4C1.69995 29.58 0.569947 30.45 0.409947 31.5C0.179947 32.96 1.63995 33.95 2.29995 33.99C4.35995 34.11 5.45994 34.17 9.24994 32.5C12.0699 31.26 12.9599 29.94 12.8599 29.34Z" fill="#007F76"/>
<g style="mix-blend-mode:multiply" opacity="0.3">
<path d="M12.8599 29.34C12.7599 28.73 11.3699 29.0099 7.92994 28.7199C3.71994 28.3699 2.64995 28.74 1.90995 29.4C1.69995 29.58 0.569947 30.45 0.409947 31.5C0.179947 32.96 1.63995 33.95 2.29995 33.99C4.35995 34.11 5.45994 34.17 9.24994 32.5C12.0699 31.26 12.9599 29.94 12.8599 29.34ZM9.71994 31.93C8.38994 32.61 7.34995 32.87 6.29995 33.08C5.14995 33.3 4.32994 33.35 3.33994 33.3C2.67994 33.26 1.73995 33.16 1.40995 32.45C1.20995 32.02 1.33995 31.26 1.59995 30.88C1.89995 30.43 2.48995 30.17 3.06995 30.11C3.77995 30.03 4.39994 30.08 5.03994 30.1C6.46994 30.15 7.31994 30.29 7.94994 30.38C8.77994 30.51 10.1099 30.75 11.3299 31.14C10.9999 31.38 10.3199 31.64 9.71994 31.94V31.93Z" fill="#007F76"/>
</g>
<path d="M49.3599 29.5301C48.6899 30.2301 47.9099 30.98 47.0099 31.72C45.6499 32.86 44.0199 33.99 42.1099 34.99C40.2799 35.95 37.1799 37.53 32.7999 37.89C31.3299 38.01 28.0899 38.24 24.4199 36.94C23.4899 36.61 23.5599 36.55 18.7899 34.02C13.4499 31.19 12.6399 30.89 12.0099 30.67C10.6099 30.19 8.7999 29.57 6.3999 29.33C6.1499 29.31 5.8899 29.28 5.6199 29.27C4.6899 29.21 3.90991 29.23 3.31991 29.23C2.63991 29.23 2.22991 29.23 2.18991 29.06C2.09991 28.66 5.6599 27.07 7.9199 26.1C11.6199 24.51 13.3799 23.92 15.8599 23.08C15.8899 23.07 15.9199 23.06 15.9499 23.05C16.0099 23.03 16.0699 23.01 16.1299 22.99C21.0999 21.29 25.5599 21.82 30.2999 22.47C36.0599 23.26 40.9699 25.05 44.8799 27C46.5699 27.84 48.0699 28.7 49.3699 29.52L49.3599 29.5301Z" fill="#00A99D"/>
<g style="mix-blend-mode:multiply" opacity="0.3">
<path d="M49.3599 29.5301C47.6599 31.3101 45.2799 33.34 42.1099 35C40.2799 35.96 37.1799 37.5401 32.7999 37.9001C31.3299 38.0201 28.0899 38.25 24.4199 36.95C23.4899 36.62 23.5599 36.5601 18.7899 34.0301C13.4499 31.2001 12.6399 30.9 12.0099 30.68C10.4599 30.15 8.40987 29.4501 5.61987 29.2801C4.68987 29.2201 3.90989 29.24 3.31989 29.24C3.15989 29.08 3.00987 28.9301 2.86987 28.7801C7.94987 28.0601 12.6699 28.96 15.1099 29.69C19.1399 30.89 21.9999 33.17 26.0499 33.36C28.9599 33.49 32.1699 33.45 32.9399 31C33.7999 28.27 29.5099 25.66 27.8399 25.04C25.5999 24.21 23.8499 23.97 22.5099 23.75C21.0199 23.5 20.0599 23.3 17.0399 23.13C16.6399 23.11 16.2799 23.09 15.9599 23.07C16.0199 23.05 16.0799 23.03 16.1399 23.01C21.1099 21.31 25.5699 21.84 30.3099 22.49C38.5499 23.62 45.0499 26.81 49.3799 29.54L49.3599 29.5301Z" fill="#00A99D"/>
</g>
<g style="mix-blend-mode:multiply" opacity="0.3">
<path d="M47.0099 31.72C45.6499 32.86 44.0199 33.99 42.1099 34.99C40.2799 35.95 37.1799 37.53 32.7999 37.89C31.3299 38.01 28.0899 38.24 24.4199 36.94C23.4899 36.61 23.5599 36.55 18.7899 34.02C13.4499 31.19 12.6399 30.89 12.0099 30.67C10.6099 30.19 8.7999 29.57 6.3999 29.33C7.0599 29.21 7.76991 29.14 8.54991 29.14C10.1599 29.14 11.4599 29.47 12.2499 29.68C13.8499 30.09 15.0299 30.62 17.3199 31.81C23.5299 35.04 23.3399 34.97 23.6099 35.08C26.3399 36.19 29.8399 37.56 32.5199 35.97C33.8099 35.21 35.2399 33.69 35.3299 31.87C35.4699 28.88 31.9699 26.7701 31.0399 26.2101C29.5099 25.2901 27.6799 24.76 26.8999 24.54C25.8899 24.25 24.8199 24.03 24.2999 23.92C22.9499 23.64 21.9599 23.5 21.7099 23.47C21.3199 23.42 20.5399 23.31 19.5399 23.23C18.9399 23.18 18.4799 23.16 18.0899 23.14C16.6199 23.07 16.2599 23.1101 15.8599 23.0901C15.8899 23.0801 15.9199 23.07 15.9499 23.06C16.0099 23.04 16.0699 23.02 16.1299 23C21.0999 21.3 25.5599 21.83 30.2999 22.48C36.0599 23.27 40.9699 25.06 44.8799 27.01C45.7699 28.45 46.5499 30.07 47.0199 31.73L47.0099 31.72Z" fill="#00A99D"/>
</g>
<g style="mix-blend-mode:screen" opacity="0.3">
<path d="M5.62997 27.9601C5.42997 27.9701 5.35996 27.7 5.53996 27.61C6.38996 27.23 7.11997 26.91 7.68997 26.66C9.40997 25.92 11.38 25.09 13.98 24.22C14.45 24.07 14.86 23.93 15.21 23.83C15.56 23.72 15.93 23.67 16.3 23.68C18.55 23.76 20.43 24 21.84 24.25C25.06 24.81 26.76 25.51 28.13 26.35C30.23 27.63 30.55 28.6 30.63 29.12C30.65 29.23 30.79 30.29 30.14 31.12C28.74 32.91 24.97 32.03 23.85 31.77C21.76 31.28 21.75 30.78 18.46 29.61C17.13 29.14 15.63 28.62 13.59 28.25C11.09 27.81 9.04996 27.83 7.72996 27.85C6.94996 27.86 6.24996 27.9 5.63996 27.94L5.62997 27.9601Z" fill="#00A99D"/>
</g>
<g style="mix-blend-mode:screen" opacity="0.3">
<path d="M6.69994 27.6C6.57994 27.6 6.53994 27.44 6.64994 27.39C7.76994 26.9 8.70995 26.55 9.37995 26.27C10.8499 25.66 11.6699 25.36 13.7599 24.56C14.3699 24.33 15.0299 24.17 15.4399 24.04C15.5899 23.99 15.7399 23.97 15.8899 23.97C16.9899 23.96 17.9999 24.02 18.9299 24.13C19.0699 24.15 20.8799 24.32 21.1899 24.4C21.2799 24.42 20.4399 24.57 19.7899 24.74C19.2799 24.87 18.6299 25.1 17.6599 25.72C16.6799 26.34 16.0699 27.21 15.6999 27.92C15.5999 28.11 15.3799 28.22 15.1699 28.17C14.7499 28.08 14.2499 27.95 13.6799 27.88C12.8699 27.77 11.5599 27.61 9.77994 27.54C8.92994 27.51 7.86995 27.54 6.68995 27.6H6.69994Z" fill="#00A99D"/>
</g>
<g style="mix-blend-mode:screen" opacity="0.3">
<path d="M7.40991 27.28C8.36991 26.95 9.15991 26.67 9.68991 26.48C11.0799 25.97 11.8199 25.67 13.9599 24.86C14.7099 24.58 15.3199 24.35 15.7099 24.2C16.0799 24.2 16.4499 24.21 16.8199 24.22C16.0199 24.55 15.1799 24.92 14.3099 25.35C13.0399 25.98 11.8999 26.64 10.8799 27.28C10.4499 27.23 9.9799 27.19 9.4799 27.18C8.7099 27.16 8.0099 27.21 7.3999 27.28H7.40991Z" fill="#00A99D"/>
</g>
<path d="M46.4599 31.87C45.9799 32.2 45.4899 32.52 44.9999 32.83C43.7799 33.59 42.5099 34.27 41.1999 34.87C40.1099 35.38 38.9899 35.88 37.8599 36.28C36.0099 36.92 34.0699 37.3 32.1099 37.36C29.6499 37.43 27.1699 37.08 24.8299 36.33C24.5699 36.25 24.1199 36.08 23.8699 36C22.2799 35.39 20.7799 34.49 19.2799 33.68C18.0799 33.02 16.8399 32.3 15.6699 31.59C14.8999 31.13 14.1099 30.67 13.2699 30.32C12.4299 29.97 11.5599 29.69 10.6799 29.47C9.29992 29.12 7.84992 28.99 6.42992 28.87C5.36992 28.78 4.26993 28.67 3.18993 28.76C2.14993 28.84 1.09993 29.19 0.519932 30.13C0.249932 30.57 0.0799311 31.08 0.0499311 31.6C0.00993111 32.1 0.0999244 32.62 0.339924 33.07C1.16992 34.55 3.22993 34.43 4.66993 34.23C5.19993 34.15 5.71993 34.04 6.23993 33.91C6.49993 33.85 6.76993 33.77 7.01993 33.68C7.26993 33.59 7.52993 33.49 7.76993 33.4C8.96993 32.9 10.1399 32.28 11.1999 31.52C11.2099 31.51 11.2299 31.5 11.2399 31.49C11.2899 31.46 11.3299 31.42 11.3799 31.39C11.3999 31.37 11.4199 31.36 11.4499 31.34C11.5199 31.29 11.5999 31.23 11.6699 31.17C11.6699 31.17 11.6899 31.17 11.6999 31.17C11.7099 31.17 11.7199 31.17 11.7299 31.18C12.1399 31.33 12.5399 31.49 12.9399 31.67C13.3199 31.84 13.6899 32.04 14.0499 32.25C15.2399 32.94 16.4499 33.71 17.6699 34.38C17.8999 34.51 18.3599 34.76 18.5899 34.89C20.2999 35.82 22.0199 36.83 23.8899 37.43C24.3799 37.6 24.9399 37.76 25.4499 37.89L25.9799 38.02L26.5099 38.13L26.7699 38.18L27.0399 38.23C31.8699 39.06 36.2599 38.33 40.5699 36.01C40.9299 35.82 41.3699 35.59 41.7299 35.39C43.6399 34.35 45.4399 33.11 47.0799 31.69C47.4899 31.34 47.8799 30.97 48.2699 30.6C48.4099 30.46 48.5499 30.33 48.6899 30.19C47.9599 30.78 47.2199 31.34 46.4499 31.88L46.4599 31.87ZM11.3199 31.26C11.2399 31.31 11.1599 31.36 11.0799 31.4C10.9999 31.45 10.9099 31.5 10.8199 31.54C10.8099 31.54 10.7899 31.56 10.7799 31.56C9.53993 32.23 8.22992 32.76 6.86992 33.14C6.61992 33.21 6.36992 33.26 6.11992 33.3C5.27992 33.45 4.42993 33.56 3.57993 33.56C2.94993 33.56 2.27992 33.48 1.72992 33.2C1.11992 32.89 0.949932 32.29 1.01993 31.66C1.05993 31.31 1.17993 30.96 1.37993 30.67C1.60993 30.33 1.93993 30.12 2.35993 30C2.64993 29.92 2.95993 29.88 3.26993 29.86C4.27993 29.82 5.28993 29.95 6.30993 30.06C7.81993 30.23 9.38993 30.41 10.8399 30.86C11.0499 30.92 11.2499 30.99 11.4599 31.06C11.4599 31.06 11.4599 31.06 11.4699 31.06C11.4999 31.07 11.5399 31.08 11.5699 31.09C11.4899 31.14 11.3999 31.19 11.3199 31.24V31.26Z" fill="#66CBC4"/>
<g style="mix-blend-mode:screen" opacity="0.4">
<path d="M46.4599 31.87C44.9499 33.07 43.3199 34.12 41.5999 35.02C39.0799 36.39 36.3499 37.42 33.4899 37.75C30.4499 38.11 27.3299 37.72 24.4199 36.77C23.9899 36.63 23.5599 36.47 23.1399 36.29C22.3899 35.97 21.6799 35.57 20.9799 35.18C19.8999 34.57 18.3199 33.7 17.2599 33.09C16.0299 32.4 14.8399 31.64 13.5599 31.03C12.9299 30.74 12.2699 30.49 11.6099 30.27C10.2799 29.84 8.89993 29.58 7.49993 29.42C6.44993 29.29 5.39993 29.18 4.34993 29.17C3.14993 29.17 1.55993 29.25 0.799931 30.3C0.499931 30.73 0.379933 31.28 0.379933 31.8C0.379933 32.27 0.479928 32.81 0.749928 33.19C1.51993 34.23 3.36993 34.15 4.52993 34.01C5.21993 33.92 5.91992 33.79 6.58992 33.59C8.26992 33.04 9.89993 32.3 11.3899 31.34C11.3299 31.39 11.2699 31.43 11.1999 31.47C10.1399 32.23 8.96993 32.84 7.76993 33.35C7.52993 33.45 7.26993 33.55 7.01993 33.63C6.76993 33.72 6.49993 33.79 6.23993 33.86C5.71993 33.99 5.19993 34.1 4.66993 34.18C3.22993 34.39 1.15992 34.5 0.339924 33.02C0.0999244 32.58 0.00993111 32.05 0.0499311 31.55C0.0899311 31.03 0.249932 30.52 0.519932 30.08C1.09993 29.14 2.13993 28.79 3.18993 28.71C4.27993 28.62 5.36992 28.73 6.42992 28.82C7.83992 28.94 9.29992 29.08 10.6799 29.42C11.5599 29.64 12.4299 29.92 13.2699 30.27C14.0999 30.62 14.8999 31.08 15.6699 31.54C16.8399 32.25 18.0799 32.97 19.2799 33.63C20.7799 34.45 22.2799 35.34 23.8699 35.95C24.1199 36.04 24.5699 36.21 24.8299 36.28C27.1699 37.04 29.6499 37.38 32.1099 37.31C34.0699 37.25 36.0099 36.87 37.8599 36.23C38.9999 35.84 40.1099 35.34 41.1999 34.82C42.5099 34.22 43.7799 33.54 44.9999 32.78C45.4999 32.47 45.9799 32.15 46.4599 31.82V31.87Z" fill="#66CBC4"/>
</g>
<g style="mix-blend-mode:screen" opacity="0.4">
<path d="M44.9899 32.83C43.2499 33.98 41.3899 34.97 39.5099 35.86C34.4799 38.17 29.0599 38.27 23.8899 36.34C22.7799 35.93 21.7599 35.3 20.7399 34.72C18.8799 33.66 16.9999 32.61 15.1399 31.55C14.5999 31.25 14.0599 30.97 13.4899 30.72C13.0899 30.55 12.6699 30.38 12.2599 30.24C10.5899 29.65 8.83994 29.38 7.08994 29.19C6.37994 29.11 5.67994 29.04 4.96994 29.02C3.65994 28.99 1.82995 28.99 0.849948 29.96C0.239948 30.59 0.159945 31.7 0.299945 32.53C0.419945 33.24 0.749945 33.68 1.43994 33.95C2.81994 34.45 4.67995 34.16 6.09995 33.85C6.96995 33.66 7.77994 33.3 8.58994 32.93C9.48994 32.5 10.3699 32.02 11.2099 31.48C10.15 32.24 8.97994 32.85 7.77994 33.36C7.53994 33.46 7.27994 33.56 7.02994 33.64C6.77994 33.73 6.50994 33.8 6.24994 33.87C5.72994 34 5.20994 34.11 4.67993 34.19C3.23993 34.4 1.16995 34.51 0.349948 33.03C0.109948 32.59 0.0199399 32.06 0.0599399 31.56C0.0999399 31.04 0.259941 30.53 0.529941 30.09C1.10994 29.15 2.14994 28.8 3.19994 28.72C4.28994 28.63 5.37994 28.74 6.43994 28.83C7.84994 28.95 9.30995 29.09 10.6899 29.43C11.5699 29.65 12.4399 29.93 13.2799 30.28C14.1099 30.63 14.9099 31.09 15.6799 31.55C16.8499 32.26 18.0899 32.98 19.2899 33.64C20.7899 34.46 22.2899 35.35 23.8799 35.96C24.1299 36.05 24.5799 36.22 24.8399 36.29C27.1799 37.05 29.6599 37.39 32.1199 37.32C34.0799 37.26 36.0199 36.88 37.8699 36.24C39.0099 35.85 40.1199 35.35 41.2099 34.83C42.52 34.23 43.7899 33.55 45.0099 32.79L44.9899 32.83Z" fill="#66CBC4"/>
</g>
<g style="mix-blend-mode:multiply" opacity="0.4">
<path d="M48.29 30.6C47.9 30.97 47.5099 31.34 47.0999 31.69C45.4599 33.11 43.6499 34.35 41.7499 35.39C41.3899 35.59 40.9499 35.82 40.5899 36.01C36.2799 38.33 31.8899 39.06 27.0599 38.23L26.7899 38.18L26.5299 38.13L25.9999 38.02L25.4699 37.89C24.9699 37.77 24.3999 37.6 23.9099 37.43C22.0399 36.83 20.3199 35.81 18.6099 34.89C18.3799 34.76 17.9199 34.51 17.6899 34.38C16.4699 33.71 15.26 32.94 14.07 32.25C13.7 32.04 13.34 31.85 12.96 31.67C12.57 31.49 12.1599 31.33 11.7499 31.18C11.7399 31.18 11.7299 31.18 11.7199 31.17C11.7199 31.17 11.6999 31.17 11.6899 31.17C11.6199 31.23 11.5499 31.28 11.4699 31.34C11.4199 31.32 11.3799 31.31 11.3299 31.29C11.4099 31.24 11.4999 31.19 11.5799 31.14C11.5499 31.13 11.5099 31.12 11.4799 31.11C11.4799 31.11 11.4799 31.11 11.4699 31.11C11.2599 31.04 11.0599 30.98 10.8499 30.91C9.39995 30.46 7.82995 30.28 6.31995 30.11C5.29995 30 4.28994 29.87 3.27994 29.91C2.96994 29.93 2.65994 29.96 2.36994 30.05C1.94994 30.17 1.62994 30.38 1.38994 30.72C1.18994 31.01 1.06994 31.36 1.02994 31.71C0.959942 32.34 1.13995 32.94 1.73995 33.25C2.27995 33.54 2.95994 33.6 3.58994 33.61C4.43994 33.61 5.28995 33.5 6.12995 33.35C6.37995 33.31 6.62995 33.25 6.87995 33.19C8.22995 32.81 9.54994 32.28 10.7899 31.61C10.7999 31.61 10.8199 31.59 10.8299 31.59C10.5399 31.79 10.2399 31.97 9.93995 32.15C8.43995 33 6.76995 33.51 5.07995 33.8C4.03995 33.96 2.95995 34.08 1.93995 33.73C1.37995 33.54 0.929939 33.15 0.729939 32.58C0.379939 31.67 0.759937 30.58 1.53994 30.02C1.84994 29.79 2.20995 29.65 2.56995 29.56C2.92995 29.48 3.28994 29.45 3.63994 29.44C4.69994 29.42 5.69995 29.57 6.73995 29.66C8.80995 29.85 10.8699 30.32 12.7799 31.14C13.7299 31.56 14.6199 32.11 15.4999 32.65C16.6499 33.35 17.8599 34.04 19.0399 34.68C20.5299 35.48 22.0099 36.31 23.5999 36.89C26.4499 37.92 29.5199 38.28 32.5399 38.08C38.7099 37.7 43.7499 34.57 48.2999 30.64L48.29 30.6Z" fill="#66CBC4"/>
</g>
<g style="mix-blend-mode:multiply" opacity="0.4">
<path d="M47.1 31.69C45.46 33.11 43.65 34.35 41.75 35.39C41.39 35.59 40.95 35.82 40.59 36.01C36.28 38.33 31.89 39.06 27.06 38.23L26.79 38.18L26.53 38.13L26 38.02L25.47 37.89C24.97 37.77 24.4 37.6 23.91 37.43C22.04 36.83 20.32 35.81 18.61 34.89C18.38 34.76 17.92 34.51 17.69 34.38C16.47 33.71 15.26 32.94 14.07 32.25C13.7 32.04 13.34 31.85 12.96 31.67C12.57 31.49 12.16 31.33 11.75 31.18C11.74 31.18 11.73 31.18 11.72 31.17C11.72 31.17 11.7 31.17 11.69 31.17C11.62 31.23 11.55 31.28 11.47 31.34C11.45 31.36 11.43 31.37 11.4 31.39C11.35 31.42 11.31 31.46 11.26 31.49C11.21 31.47 11.17 31.46 11.12 31.44C11.11 31.44 11.1 31.44 11.08 31.43C11.16 31.38 11.24 31.34 11.32 31.29C11.4 31.24 11.49 31.19 11.57 31.14C11.54 31.13 11.5 31.12 11.47 31.11C11.47 31.11 11.47 31.11 11.46 31.11C11.25 31.04 11.05 30.98 10.84 30.91C9.38997 30.46 7.81997 30.28 6.30997 30.11C5.28997 30 4.27998 29.87 3.26998 29.91C2.95998 29.93 2.64997 29.96 2.35997 30.05C1.93997 30.17 1.61998 30.38 1.37998 30.72C1.17998 31.01 1.05998 31.36 1.01998 31.71C0.949977 32.34 1.12997 32.94 1.72997 33.25C2.26997 33.54 2.94997 33.6 3.57997 33.61C4.42997 33.61 5.27997 33.5 6.11997 33.35C6.36997 33.31 6.61997 33.25 6.86997 33.19C8.21997 32.81 9.53997 32.28 10.78 31.61C9.35997 32.54 7.76997 33.05 6.07997 33.41C4.82997 33.66 2.52998 34 1.45998 33.25C0.979979 32.9 0.769979 32.25 0.849979 31.68C0.929979 31.13 1.22997 30.57 1.63997 30.2C1.93997 29.95 2.30997 29.83 2.67997 29.76C3.87997 29.56 5.09997 29.74 6.28997 29.83C6.96997 29.89 7.65998 29.97 8.31998 30.08C9.32998 30.25 10.34 30.5 11.31 30.82C11.97 31.03 12.62 31.28 13.23 31.6C14.14 32.06 15 32.64 15.87 33.16C17 33.85 18.21 34.51 19.38 35.15C20.56 35.78 21.74 36.42 22.98 36.91C26.69 38.35 30.84 38.71 34.76 37.99C39.36 37.09 43.44 34.61 47.08 31.72L47.1 31.69Z" fill="#66CBC4"/>
</g>
<path d="M64.2199 30.31C63.9299 31.89 63.5899 33.27 63.2699 34.39C63.0699 35.11 62.3299 35.54 61.5999 35.36C59.7499 34.91 58.0199 34.48 56.3799 34.06C56.3599 34.06 56.3499 34.06 56.3299 34.05C54.5499 33.59 52.8899 33.14 51.3399 32.72C50.2899 32.43 49.2899 32.14 48.3399 31.86C47.9499 31.74 47.5599 31.63 47.1799 31.52C47.0899 31.49 46.9999 31.46 46.8999 31.44C40.9399 29.65 37.0999 28.17 34.5099 26.99C34.3699 26.93 34.1999 26.85 33.9899 26.75C33.9799 26.75 33.9699 26.75 33.9599 26.74C32.6599 26.16 30.0499 25.05 26.5599 24.22C26.3799 24.18 26.1899 24.13 25.9999 24.09C24.0199 23.65 22.1899 23.39 20.5499 23.25C18.6799 23.09 17.0699 23.07 15.8199 23.1C16.4399 20.79 17.1899 16.84 19.0899 13.17C20.9799 9.50997 22.7199 7.20996 25.6899 5.21996C29.8199 2.44996 32.9299 1.83001 35.6199 1.40001C38.3899 0.960011 40.7399 0.869967 42.7199 0.979967C42.7699 0.979967 42.8199 0.979967 42.8699 0.979967C42.9599 0.979967 43.0499 0.989987 43.1399 0.999987C43.6199 1.02999 44.0699 1.07999 44.4999 1.12999C44.5299 1.12999 44.5599 1.13 44.5899 1.14C44.6099 1.14 44.6399 1.14 44.6599 1.14C44.7199 1.14 44.7799 1.15996 44.8399 1.15996C45.0199 1.18996 45.1999 1.20998 45.3699 1.23998C45.4099 1.23998 45.4399 1.25 45.4799 1.26C46.5999 1.45 47.5399 1.68997 48.3199 1.91997C48.4199 1.94997 48.5199 1.98001 48.6299 2.02001C48.6699 2.03001 48.7199 2.04998 48.7599 2.05998C49.0399 2.14998 49.3299 2.24996 49.6199 2.34996C49.9999 2.47996 50.3899 2.62997 50.7999 2.78997C51.8399 3.19997 52.9399 3.70999 54.0399 4.31999C54.0399 4.31999 54.13 4.37 54.17 4.39C54.31 4.47 54.4499 4.54999 54.5899 4.62999C55.7599 5.31999 56.9199 6.13996 57.9999 7.09996C60.8099 9.60996 62.1799 12.35 62.7499 13.51C63.1399 14.31 64.3899 16.99 64.8499 20.72C65.2999 24.36 64.77 27.19 64.2 30.28L64.2199 30.31Z" fill="#00A99D"/>
<g style="mix-blend-mode:screen" opacity="0.3">
<path d="M38.2399 1.25998C37.3499 1.33998 35.5099 1.69995 33.6299 2.21995C32.1499 2.62995 29.2699 3.44995 26.2799 5.72995C23.7699 7.64995 22.3599 9.7 21.5199 10.96C20.0999 13.07 19.3599 14.89 18.9299 15.95C18.2499 17.64 17.8099 19.19 17.5199 20.5C17.3699 21.18 17.8399 21.85 18.5299 21.93C19.3099 22.03 20.5299 22.18 21.6099 22.32C28.7699 23.22 29.2999 23.32 29.9799 23.44C33.9199 24.14 34.4399 24.4 36.3399 24.4C37.3199 24.4 39.9999 24.62 42.3299 23.25C44.9999 21.68 45.8699 18.84 46.5799 16.68C47.4999 13.91 47.4199 11.6 47.3699 10.3C47.3599 9.95996 47.2499 7.89995 46.3999 5.53995C46.0099 4.46995 45.5599 3.55997 44.9499 2.74997C44.7299 2.45997 44.1699 1.97997 43.4499 1.86997C42.2399 1.67997 40.2399 2.73995 38.8899 3.96995C38.0799 4.70995 37.2699 5.59996 35.7799 7.54996C34.7899 8.83996 33.4199 11.3 33.4099 10.96C33.3999 10.68 33.8999 8.27997 34.4699 7.11997C35.3599 5.30997 35.8599 4.71999 36.7199 3.76999C38.1099 2.22999 39.9899 1.35 40.5299 1.15C40.6799 1.1 39.2499 1.17999 38.2499 1.26999L38.2399 1.25998Z" fill="#00A99D"/>
</g>
<g style="mix-blend-mode:screen" opacity="0.3">
<path d="M37.4699 1.88C35.4299 2.07 32.1999 2.72 29.0899 4.37C27.6999 5.11 25.6099 6.70999 23.5099 9.29999C22.0599 11.09 21.3499 12.76 20.4099 14.94C19.6499 16.71 19.1399 18.3 18.7799 19.58C18.6299 20.11 18.9799 20.65 19.5199 20.74C19.7399 20.78 19.9699 20.82 20.2299 20.86C23.2799 21.39 23.7399 21.69 24.3499 21.46C25.5999 20.99 25.6199 19 26.1999 16.42C27.1099 12.37 28.8799 9.13001 30.1299 7.45001C31.2399 5.96001 33.3599 3.39 37.4799 1.88H37.4699Z" fill="#00A99D"/>
</g>
<g style="mix-blend-mode:screen" opacity="0.3">
<path d="M26.46 7.11999C26.3 7.00999 24.95 8.50003 23.82 10.03C22.21 12.22 21.3699 14.09 21.1799 14.52C20.5199 16.01 20.1 17.4 19.82 18.61C19.67 19.26 20.1 19.9 20.75 20.01C21.22 20.09 21.69 20.06 22.06 19.8C22.84 19.24 22.49 18.06 22.85 15.82C23.13 14.11 23.64 12.9 24.28 11.38C25.41 8.71 26.61 7.24 26.45 7.13L26.46 7.11999Z" fill="#00A99D"/>
</g>
<g style="mix-blend-mode:multiply" opacity="0.3">
<path d="M64.2199 30.31C63.9299 31.89 63.5899 33.27 63.2699 34.39C63.0699 35.11 62.3299 35.54 61.5999 35.36C59.7499 34.91 58.0199 34.48 56.3799 34.06C56.3599 34.06 56.3499 34.06 56.3299 34.05C54.5499 33.59 52.8899 33.14 51.3399 32.72C49.8499 32.31 48.4699 31.91 47.1799 31.52C47.0899 31.49 46.9999 31.46 46.8999 31.44C40.9399 29.65 37.0999 28.17 34.5099 26.99C34.3699 26.93 34.1999 26.85 33.9899 26.75C33.9799 26.75 33.9699 26.75 33.9599 26.74C32.6599 26.16 30.0499 25.05 26.5599 24.22C26.3799 24.18 26.1899 24.13 25.9999 24.09C24.0199 23.65 22.1899 23.39 20.5499 23.25C21.4199 23.25 22.4199 23.31 24.2099 23.54C28.0099 24.01 28.9499 24.38 36.4199 26.16C41.2899 27.32 46.3799 22.68 47.2899 20.23C48.6699 16.49 48.8899 14.49 48.6799 10.2C48.5699 8.07001 48.4699 6.93997 47.3399 4.21997C46.7399 2.76997 46.0299 2.03 45.1199 1.63C44.2999 1.27 43.4499 1.34998 43.3899 1.34998C43.2099 1.36998 42.8499 1.41003 41.9799 1.78003C41.2399 2.10003 40.7699 2.29002 39.8699 2.83002C39.1699 3.25002 38.6199 3.70998 37.5399 4.78998C36.9199 5.40998 35.1699 7.15997 35.1699 7.15997C35.1699 7.15997 35.9299 5.39998 36.5999 4.53998C37.5299 3.34998 38.1599 2.85998 39.1599 2.28998C40.4699 1.52998 41.2399 1.35999 41.8599 1.17999C42.0099 1.13999 42.2699 1.07 42.7199 1C42.7699 1 42.8199 1 42.8699 1C42.9599 1 43.0499 1.01002 43.1399 1.02002C43.6199 1.05002 44.0699 1.10002 44.4999 1.15002C44.5299 1.15002 44.5599 1.14997 44.5899 1.15997C44.6099 1.15997 44.6399 1.15997 44.6599 1.15997C44.7199 1.15997 44.7799 1.17999 44.8399 1.17999C45.0199 1.20999 45.1999 1.23001 45.3699 1.26001C45.4099 1.26001 45.4399 1.27003 45.4799 1.28003C46.5999 1.47003 47.5399 1.71 48.3199 1.94C48.4199 1.97 48.5199 1.99998 48.6299 2.03998C48.6699 2.04998 48.7199 2.07002 48.7599 2.08002C49.0399 2.17002 49.3299 2.27 49.6199 2.37C49.9999 2.5 50.3899 2.65 50.7999 2.81C51.8799 3.24 53.0299 3.76997 54.1699 4.40997C54.3099 4.48997 54.4499 4.57002 54.5899 4.65002C55.7599 5.34002 56.9199 6.16 57.9999 7.12C60.8099 9.63 62.1799 12.37 62.7499 13.53C63.1399 14.33 64.3899 17.01 64.8499 20.74C65.2999 24.38 64.7699 27.21 64.1999 30.3L64.2199 30.31Z" fill="#00A99D"/>
</g>
<g style="mix-blend-mode:multiply" opacity="0.3">
<path d="M64.22 30.31C63.93 31.89 63.59 33.27 63.27 34.39C63.07 35.11 62.33 35.54 61.6 35.36C59.75 34.91 58.02 34.48 56.38 34.06C56.36 34.06 56.35 34.06 56.33 34.05C54.55 33.59 52.89 33.14 51.34 32.72C50.29 32.43 49.29 32.14 48.34 31.86C50.41 32.11 51.09 31.99 51.46 31.92C56.15 30.92 58.56 26.24 58.9 25.54C60.62 22.07 60.66 18.9 60.29 15.95C60.01 13.75 59.17 10.75 57.15 7.72998C56.21 6.32998 55.13 5.22998 54.05 4.34998C54.09 4.36998 54.14 4.39998 54.18 4.41998C54.32 4.49998 54.46 4.57997 54.6 4.65997C55.77 5.34997 56.93 6.17 58.01 7.13C60.82 9.64001 62.19 12.38 62.76 13.54C63.15 14.34 64.4 17.02 64.86 20.75C65.31 24.39 64.78 27.22 64.21 30.31H64.22Z" fill="#00A99D"/>
</g>
<g style="mix-blend-mode:multiply" opacity="0.4">
<path d="M50.0199 20.01C49.5699 23.95 48.6199 27.82 47.2099 31.51C47.1199 31.48 47.0299 31.45 46.9299 31.43C48.1499 27.91 49.0299 24.27 49.4599 20.55C49.7399 18.54 50.0099 16.52 49.9799 14.49C49.9599 12.57 49.7199 10.65 49.2699 8.78003C49.0099 7.70003 48.6899 6.62002 48.2999 5.58002C47.6699 3.87002 46.7799 2.40002 45.3999 1.27002C45.4399 1.27002 45.4699 1.27998 45.5099 1.28998C47.4699 2.74998 48.4299 4.87997 49.1899 7.21997C49.8999 9.36997 50.3199 11.61 50.4199 13.88C50.5199 15.94 50.3099 17.99 50.0099 20.02L50.0199 20.01Z" fill="#00A99D"/>
</g>
<g style="mix-blend-mode:multiply" opacity="0.4">
<path d="M43.17 1C41.77 1.54 40.58 2.05 39.14 3.13C38.37 3.71 37.97 4.01 37.11 5C36.5 5.69 35.05 7.54 34.6 8.37C35.26 6.42 36.61 4.77002 38.11 3.33002C38.45 3.00002 39.39 2.36997 39.82 2.15997C40.82 1.65997 41.82 1.26997 42.9 0.969971C42.99 0.969971 43.08 0.97999 43.17 0.98999V1Z" fill="#00A99D"/>
</g>
<g style="mix-blend-mode:multiply" opacity="0.3">
<path d="M64.22 30.31C63.93 31.89 63.59 33.27 63.27 34.39C63.07 35.11 62.33 35.54 61.6 35.36C59.75 34.91 58.02 34.48 56.38 34.06C56.36 34.06 56.35 34.06 56.33 34.05C54.55 33.59 52.89 33.14 51.34 32.72C52.77 32.79 54.33 32.69 54.88 32.61C59.84 31.93 61.49 28.58 61.68 28.08C62.92 24.69 63.2 21.48 62.82 18.28C62.33 14.16 60.2 11.51 59.74 10.7C59.43 10.17 58.24 8.12998 55.99 5.97998C55.37 5.37998 54.76 4.86999 54.18 4.42999C54.32 4.50999 54.46 4.58998 54.6 4.66998C55.77 5.35998 56.93 6.18001 58.01 7.14001C60.82 9.65001 62.19 12.39 62.76 13.55C63.15 14.35 64.4 17.03 64.86 20.76C65.31 24.4 64.78 27.23 64.21 30.32L64.22 30.31Z" fill="#00A99D"/>
</g>
</svg>
