<svg version="1.2" xmlns="http://www.w3.org/2000/svg" viewBox="0 0 68 43" width="68" height="43">
	<title>&lt;Group&gt;</title>
	<style>
		.s0 { fill: #b5dee9 } 
		.s1 { fill: #d2eaf4 } 
		.s2 { fill: #412e22 } 
		.s3 { fill: #483e34 } 
		.s4 { fill: #ecf4eb } 
		.s5 { fill: #7a9391 } 
		.s6 { fill: #8facad } 
		.s7 { fill: #f5a100 } 
		.s8 { fill: #fbbd00 } 
		.s9 { fill: #508a90 } 
		.s10 { fill: #6da4ac } 
		.s11 { fill: #c1393b } 
		.s12 { fill: #9e3131 } 
		.s13 { fill: #bebcbb } 
		.s14 { fill: #d4ded6 } 
		.s15 { fill: #e4333f } 
	</style>
	<g id="&lt;Group&gt;">
		<g id="&lt;Group&gt;">
			<path id="&lt;Path&gt;" class="s0" d="m25.3 1.5c17.6-0.1 21.4 16.2 21.4 16.2l-40.5 0.3c0 0 1.5-16.3 19.1-16.5z"/>
		</g>
		<g id="&lt;Group&gt;">
			<g id="&lt;Group&gt;">
				<path id="&lt;Path&gt;" class="s1" d="m41.7 8.4l-5 9.3-7.3 0.1 6.7-13.8c2.3 1.2 4.1 2.8 5.6 4.4z"/>
			</g>
			<g id="&lt;Group&gt;">
				<path id="&lt;Path&gt;" class="s1" d="m25.3 1.5q0.2 0 0.4 0l-7.7 16.4h-2.7l7.7-16.3q1.1-0.1 2.3-0.1z"/>
			</g>
			<g id="&lt;Group&gt;">
				<path id="&lt;Path&gt;" class="s1" d="m17.1 3q2.1-0.8 4.7-1.2l-8.6 16.1-3.8 0.1c1-2.1 5.5-10.7 7.7-15z"/>
			</g>
			<g id="&lt;Group&gt;">
				<path id="&lt;Path&gt;" class="s1" d="m40.2 17.7h-2.1l4.2-8.5q0.5 0.6 1 1.3z"/>
			</g>
		</g>
		<g id="&lt;Group&gt;">
			<g id="&lt;Group&gt;">
				<g id="&lt;Group&gt;">
					<path id="&lt;Path&gt;" class="s2" d="m20.2 35.6l-14.3 0.1v-6.8l14.3-0.1z"/>
					<g id="&lt;Group&gt;">
						<path id="&lt;Path&gt;" class="s3" d="m18.6 36.9c0.1 3.2-2.5 5.8-5.7 5.8-3.1 0.1-5.7-2.5-5.7-5.7-0.1-3.1 2.5-5.7 5.7-5.8 3.1 0 5.7 2.6 5.7 5.7z"/>
						<path id="&lt;Path&gt;" class="s4" d="m17 37c0 2.2-1.8 4-4.1 4.1-2.2 0-4-1.8-4.1-4.1 0-2.2 1.8-4.1 4.1-4.1 2.2 0 4 1.8 4.1 4.1z"/>
						<path id="&lt;Path&gt;" class="s5" d="m14.7 37c0 1-0.8 1.8-1.8 1.8-1 0-1.8-0.8-1.8-1.8 0-1 0.8-1.8 1.8-1.8 1 0 1.8 0.8 1.8 1.8z"/>
						<path id="&lt;Path&gt;" class="s6" d="m13.6 36.5c-0.3 0.7-1.7 0.5-1.4 1.4-0.4 0-0.7-0.8-0.6-1.2 0.1-0.8 0.9-1 1.3-1 0.4 0 0.8 0.3 0.7 0.8z"/>
					</g>
					<path id="&lt;Path&gt;" class="s2" d="m61.6 35.3l-14.3 0.1v-6.9l14.3-0.1z"/>
					<g id="&lt;Group&gt;">
						<path id="&lt;Path&gt;" class="s3" d="m60 36.6c0.1 3.2-2.5 5.8-5.7 5.8-3.1 0-5.7-2.5-5.7-5.7-0.1-3.1 2.5-5.7 5.7-5.8 3.1 0 5.7 2.6 5.7 5.7z"/>
						<path id="&lt;Path&gt;" class="s4" d="m58.4 36.7c0 2.2-1.8 4-4.1 4-2.2 0.1-4-1.7-4.1-4 0-2.2 1.8-4.1 4.1-4.1 2.2 0 4 1.8 4.1 4.1z"/>
						<path id="&lt;Path&gt;" class="s5" d="m56.1 36.7c0 1-0.8 1.8-1.8 1.8-1 0-1.8-0.8-1.8-1.8 0-1 0.8-1.8 1.8-1.8 1-0.1 1.8 0.8 1.8 1.8z"/>
						<path id="&lt;Path&gt;" class="s6" d="m55 36.2c-0.3 0.7-1.7 0.5-1.4 1.4-0.4 0-0.7-0.8-0.6-1.2 0.1-0.8 0.9-1 1.3-1 0.4 0 0.8 0.3 0.7 0.8z"/>
					</g>
					<path id="&lt;Compound Path&gt;" fill-rule="evenodd" class="s7" d="m64.3 35.9q-1.7 0.1-3.5 0.1c-0.3-3.3-3.1-5.9-6.5-5.9-3.4 0-6.2 2.7-6.5 6-10.2 0-20.2 0.1-28.2 0.2-0.3-0.8-0.6-1.7-0.8-2.2-0.4-1-1.4-1.6-2.6-1.6-1 0-5.2 0.1-6.7 0.1-1.6 0-1.9 0.7-2.2 1.4-0.3 0.6-0.6 1.3-1 2.4-2.2 0-3.4 0-3.4 0 0.4-11.6-0.5-26.8 13-33.5 12.3-6.1 27.4 0.4 31.3 13.6 7.2 0.9 20.7 1.3 17.1 19.4zm-38.4-19.1l-1.6-14.4c-2.5 0.2-4.9 0.9-7.3 2-4.6 2.3-7.2 5.8-8.9 9.7-0.8 1.9 0.2 2.8 1.7 2.8 3.5-0.1 9.8-0.1 16.1-0.1zm17.5-3.8c-3.4-6.4-10.1-10.4-17.1-10.6l1.7 14.3c5 0 9.9 0 13-0.1 2.3 0 3.2-1.9 2.4-3.6z"/>
					<path id="&lt;Compound Path&gt;" fill-rule="evenodd" class="s8" d="m64.3 34.2c-1.1 0.1-1.1 0.1-2.3 0.1-0.4-3.3-2.8-5.7-7.7-5.7-5.2 0-7.6 3.3-7.9 6.6-10.2 0.1-17.2 0.2-25.2 0.2-0.3-0.7-0.2-0.8-0.5-1.4-1.1-2.8-3.3-3.3-4.5-3.3-1 0-3.7 0.1-6.7 0.1-3.6 0.1-7.1-21.2 6.4-27.9 12.3-6.1 27.4 0.4 31.3 13.6 9.8 0.4 20.6 1.2 17.1 17.7zm-38.4-17.4l-1.6-14.4c-2.5 0.2-4.9 0.9-7.3 2-4.6 2.3-7.2 5.8-8.9 9.7-0.8 1.9 0.2 2.8 1.7 2.8 3.5-0.1 9.8-0.1 16.1-0.1zm17.5-3.8c-3.4-6.4-10.1-10.4-17.1-10.6l1.7 14.3c5 0 9.9 0 13-0.1 2.3 0 3.2-1.9 2.4-3.6z"/>
					<path id="&lt;Path&gt;" class="s9" d="m3.1 31.5l-0.1 1.4 1.3-0.1c0 0 1.9 0.2 1.4 1.5-0.5 1.3-1.3 2.5-1.3 2.5h-2.4c0 0-1.4 0-1.5-0.8 0-0.8 0-1.6 0-2.1 0-1.2 0.7-2.1 2.6-2.4z"/>
					<path id="&lt;Path&gt;" class="s10" d="m4.1 35.2h-2.5c0 0-0.6 0.1-1.1-0.2q0-0.6 0-1.1c0-1.2 0.7-2.1 2.6-2.4l-0.1 1.4 1.3-0.1c0 0 0.5 0.1 0.9 0.3-0.5 1.1-1.1 2.1-1.1 2.1z"/>
					<path id="&lt;Path&gt;" class="s10" d="m67.3 33.4c0 0.6 0 0.7 0 1.5 0 1.3-0.9 1.4-1.4 1.4-1 0-3.1 0-3.1 0 0 0-0.3-1.1-0.6-2.4-0.4-1.4 0.8-1.5 1.3-1.5 0.3 0 1.3 0 1.3 0l0.1-1.3c1.9 0.2 2.4 1.1 2.4 2.3z"/>
					<path id="&lt;Path&gt;" class="s9" d="m67.3 34.4q0 0.2 0 0.5c0 1.3-0.9 1.4-1.4 1.4-1 0-3.1 0-3.1 0 0 0-0.3-1.1-0.6-2.4-0.3-1 0.3-1.3 0.8-1.4 0.3 1.1 0.5 2 0.5 2 0 0 2.1 0 3.2 0 0.2 0 0.4-0.1 0.6-0.1z"/>
					<path id="&lt;Path&gt;" class="s11" d="m3.6 21.4c0.7 0 1.1 0.3 1 1.2-0.1 0.9-0.3 2.8-0.4 3.5-0.2 0.5-0.4 0.8-1.3 0.7-1.1-0.5-0.9-5.1 0.7-5.4z"/>
					<path id="&lt;Path&gt;" class="s12" d="m4.6 22.6c-0.1 0.9-0.3 2.8-0.4 3.5-0.2 0.5-0.4 0.8-1.3 0.7-0.2-0.1-0.4-0.4-0.5-0.7 0.6 0 0.9-0.3 1-0.7 0.2-0.8 0.4-2.7 0.4-3.5q0-0.3 0-0.5c0.6 0.1 0.9 0.4 0.8 1.2z"/>
					<path id="&lt;Path&gt;" class="s4" d="m65 30c-0.9 0-1.1-0.3-1.2-0.8-0.1-0.8-0.1-2.7-0.1-3.6 0.1-0.9 0.5-1.2 1.1-1.1 1.6 0.5 1.3 5.1 0.2 5.5z"/>
					<path id="&lt;Path&gt;" class="s13" d="m65.2 29.8q-0.1 0.1-0.2 0.2c-0.9 0-1.1-0.3-1.2-0.8-0.1-0.8-0.1-2.7-0.1-3.6 0.1-0.9 0.5-1.2 1.1-1.1q0.2 0 0.3 0.1-0.4 0.3-0.4 1c-0.1 0.9-0.1 2.8 0 3.5 0.1 0.4 0.2 0.6 0.5 0.7z"/>
					<path id="&lt;Compound Path&gt;" fill-rule="evenodd" class="s14" d="m4.2 18.9q0.1-0.5 0.2-0.9l52.4-0.4q1.3 0.3 2.4 0.9zm57.9 1.5q-0.5-0.5-1-0.9l-57.1 0.5q-0.1 0.4-0.2 0.8z"/>
					<g id="&lt;Group&gt;">
						<path id="&lt;Path&gt;" class="s4" d="m6.2 20.8q0-0.4 0-0.9l54.9-0.4q0.5 0.4 1 0.9z"/>
						<path id="&lt;Path&gt;" class="s4" d="m6.3 18.9q0-0.5 0.1-0.9l50.4-0.4q1.3 0.3 2.4 0.9z"/>
					</g>
				</g>
				<path id="&lt;Compound Path&gt;" fill-rule="evenodd" class="s15" d="m46.1 34.2l-19 0.1q-0.1 0-0.1-0.1l-0.2-17.7-1.7-15.1q0 0 0-0.1 0 0 0.1 0c8.9 0.2 14 4.3 16.8 7.7 3.1 3.7 4 7.4 4 7.5q0 0 0 0l0.2 17.6q0 0.1-0.1 0.1zm-18.9-0.1l18.8-0.1-0.2-17.5c0-0.2-1-3.8-3.9-7.4-2.8-3.3-7.9-7.4-16.6-7.6l1.7 15z"/>
				<path id="&lt;Path&gt;" class="s5" d="m44 16.1c0 0.5-0.4 0.9-0.9 0.9-0.4 0-0.8-0.4-0.8-0.9v-2.6c0-0.4 0.3-0.8 0.8-0.8 0.5 0 0.9 0.3 0.9 0.8z"/>
				<path id="&lt;Path&gt;" class="s6" d="m43.8 15.7c0 0.4-0.2 0.7-0.5 0.7-0.3 0-0.5-0.3-0.5-0.6v-1.9c0-0.3 0.2-0.6 0.5-0.6 0.3 0 0.5 0.3 0.5 0.6z"/>
			</g>
		</g>
	</g>
</svg>