<?xml version="1.0" encoding="UTF-8" standalone="no"?>
<!-- Created with Inkscape (http://www.inkscape.org/) -->

<svg
   version="1.1"
   id="svg9"
   width="88.981079"
   height="73.127228"
   viewBox="0 0 88.981082 73.127228"
   sodipodi:docname="3-6_years_abc_page_1024x720.ai"
   xmlns:inkscape="http://www.inkscape.org/namespaces/inkscape"
   xmlns:sodipodi="http://sodipodi.sourceforge.net/DTD/sodipodi-0.dtd"
   xmlns="http://www.w3.org/2000/svg"
   xmlns:svg="http://www.w3.org/2000/svg">
  <defs
     id="defs13">
    <clipPath
       clipPathUnits="userSpaceOnUse"
       id="clipPath5503">
      <path
         d="M 0,720 H 1024 V 0 H 0 Z"
         id="path5501" />
    </clipPath>
    <clipPath
       clipPathUnits="userSpaceOnUse"
       id="clipPath5551">
      <path
         d="m 866.349,401.71 h 90.867 V 271.357 h -90.867 z"
         id="path5549" />
    </clipPath>
  </defs>
  <sodipodi:namedview
     id="namedview11"
     pagecolor="#ffffff"
     bordercolor="#000000"
     borderopacity="0.25"
     inkscape:showpageshadow="2"
     inkscape:pageopacity="0.0"
     inkscape:pagecheckerboard="0"
     inkscape:deskcolor="#d1d1d1"
     showgrid="false"
     inkscape:zoom="0.91259771"
     inkscape:cx="459.12892"
     inkscape:cy="493.64577"
     inkscape:window-width="2155"
     inkscape:window-height="1205"
     inkscape:window-x="0"
     inkscape:window-y="25"
     inkscape:window-maximized="0"
     inkscape:current-layer="g15" />
  <g
     id="g15"
     inkscape:groupmode="layer"
     inkscape:label="3-6_years_abc_page_1024x720"
     transform="matrix(1.3333333,0,0,-1.3333333,-764.57706,645.21689)">
    <g
       id="g5497"
       transform="translate(-0.82182983,-31.229533)">
      <g
         id="g5499"
         clip-path="url(#clipPath5503)">
        <g
           id="g5505"
           transform="translate(623.1838,509.1932)">
          <path
             d="m 0,0 c 3.826,5.861 14.22,5.949 14.22,5.949 0,0 1.261,-13.181 -4.534,-17.604 m -40.072,-32.044 c -2.234,0 -4.666,0.641 -7.276,2.233 -3.671,2.278 -5.816,5.197 -6.347,8.691 -0.973,6.414 4.003,12.208 4.224,12.451 0.022,0.022 5.131,6.414 2.012,9.709 -1.304,1.371 -2.808,2.056 -4.091,1.88 -0.907,-0.133 -1.659,-0.686 -2.167,-1.615 -0.465,-0.862 -0.597,-1.57 -0.42,-2.101 0.265,-0.752 1.15,-1.172 1.15,-1.172 1.083,-0.486 1.614,-1.769 1.127,-2.875 -0.464,-1.106 -1.724,-1.614 -2.83,-1.172 -0.266,0.111 -2.654,1.15 -3.583,3.715 -0.442,1.195 -0.663,3.163 0.664,5.684 1.15,2.167 3.118,3.605 5.44,3.914 2.698,0.376 5.573,-0.796 7.873,-3.184 4.688,-4.91 1.061,-12.119 -1.836,-15.591 -0.066,-0.089 -3.892,-4.556 -3.206,-8.957 0.331,-2.189 1.747,-4.025 4.312,-5.617 7.541,-4.644 12.429,2.477 12.96,3.317 0.663,1.017 2.012,1.327 3.029,0.663 1.018,-0.641 1.327,-1.99 0.686,-3.029 -1.88,-2.92 -6.126,-6.944 -11.721,-6.944"
             style="fill:#72716f;fill-opacity:1;fill-rule:nonzero;stroke:none"
             id="path5507" />
        </g>
        <g
           id="g5509"
           transform="translate(634.4847,511.8691)">
          <path
             d="m 0,0 c 0,0 -4.976,0.088 -8.359,-3.561 -3.384,-3.649 6.037,-7.563 6.037,-7.563 0,0 3.826,5.883 2.322,11.124"
             style="fill:#dd9ea9;fill-opacity:1;fill-rule:nonzero;stroke:none"
             id="path5511" />
        </g>
        <g
           id="g5513"
           transform="translate(606.4427,509.1932)">
          <path
             d="m 0,0 c -3.826,5.861 -14.22,5.949 -14.22,5.949 0,0 -1.261,-13.181 4.534,-17.604"
             style="fill:#72716f;fill-opacity:1;fill-rule:nonzero;stroke:none"
             id="path5515" />
        </g>
        <g
           id="g5517"
           transform="translate(595.164,511.8691)">
          <path
             d="m 0,0 c 0,0 4.976,0.088 8.359,-3.561 3.384,-3.649 -6.037,-7.563 -6.037,-7.563 0,0 -3.826,5.883 -2.322,11.124"
             style="fill:#dd9ea9;fill-opacity:1;fill-rule:nonzero;stroke:none"
             id="path5519" />
        </g>
        <g
           id="g5521"
           transform="translate(624.356,465.1178)">
          <path
             d="m 0,0 v 4.18 c 3.052,2.366 4.932,5.816 5.175,9.664 0.287,0.398 0.486,0.818 0.708,1.239 4.002,2.41 7.895,3.582 7.895,3.582 0,5.175 -3.915,10.483 -3.915,10.483 -1.415,9.598 -5.86,15.458 -11.212,17.426 -5.352,1.969 -8.89,1.703 -8.89,1.703 0,0 -3.561,0.244 -8.891,-1.703 -5.329,-1.946 -9.774,-7.828 -11.19,-17.426 0,0 -3.45,-5.33 -3.914,-10.483 0,0 4.091,-1.238 8.205,-3.782 0.154,-0.221 0.729,-0.442 0.884,-0.641 0.133,-4.489 2.3,-8.448 6.856,-10.88 V 0 c -1.526,-0.995 -2.787,-3.295 -2.787,-4.821 h 10.837 c 0,1.526 -0.443,3.826 -1.946,4.821 v 0.929 c 0,-0.067 1.039,-0.111 1.702,-0.111 1.062,0 1.349,0.089 2.853,0.288 L -7.63,0 C -9.156,-0.995 -9.089,-3.295 -9.089,-4.821 H 1.747 C 1.769,-3.317 1.526,-0.995 0,0"
             style="fill:#d5d5d5;fill-opacity:1;fill-rule:nonzero;stroke:none"
             id="path5523" />
        </g>
        <g
           id="g5525"
           transform="translate(620.7954,492.2751)">
          <path
             d="M 0,0 C 0,0 7.961,-2.897 7.961,5.927 7.939,5.905 -0.199,8.271 0,0 m -21.297,5.905 c 0,0 8.139,2.366 7.962,-5.927 0,0.022 -7.962,-2.875 -7.962,5.927"
             style="fill:#31799f;fill-opacity:1;fill-rule:nonzero;stroke:none"
             id="path5527" />
        </g>
        <g
           id="g5529"
           transform="translate(590.8516,479.1609)">
          <path
             d="m 0,0 c 0.066,0 0.155,0.022 0.199,0.088 1.283,1.438 7.342,1.969 9.576,2.057 0.155,0 0.265,0.133 0.265,0.288 0,0.154 -0.132,0.243 -0.287,0.265 C 9.421,2.676 1.504,2.366 -0.199,0.464 -0.287,0.354 -0.287,0.177 -0.177,0.088 -0.133,0.022 -0.066,0 0,0 m 11.411,4.954 c 0.133,0 0.244,0.11 0.266,0.243 0.022,0.155 -0.089,0.288 -0.243,0.288 C 10.062,5.617 -2.057,6.834 -3.428,6.17 -3.561,6.104 -3.605,5.949 -3.561,5.816 -3.494,5.684 -3.339,5.617 -3.207,5.684 -2.278,6.126 6.015,5.485 11.367,4.954 h 0.044 m 2.61,1.968 c 0.111,0 0.199,0.066 0.243,0.155 0.067,0.133 0,0.287 -0.132,0.354 C 13.645,7.652 2.3,12.716 -1.946,10.903 -2.079,10.859 -2.145,10.682 -2.079,10.549 -2.012,10.416 -1.858,10.35 -1.725,10.416 2.322,12.141 13.8,6.988 13.933,6.944 13.955,6.922 13.977,6.922 14.021,6.922 M 46.53,0 c -0.066,0 -0.155,0.022 -0.199,0.088 -1.282,1.438 -7.342,1.969 -9.576,2.057 -0.154,0 -0.265,0.133 -0.265,0.288 0,0.154 0.133,0.243 0.287,0.265 C 37.109,2.676 45.026,2.366 46.729,0.464 46.818,0.354 46.818,0.177 46.707,0.088 46.663,0.022 46.597,0 46.53,0 M 35.141,4.954 c -0.133,0 -0.243,0.11 -0.265,0.243 -0.023,0.155 0.088,0.288 0.243,0.288 C 36.49,5.617 48.609,6.834 49.98,6.17 50.113,6.104 50.179,5.949 50.113,5.816 50.047,5.684 49.892,5.617 49.759,5.684 48.83,6.126 40.537,5.485 35.185,4.954 h -0.044 m -2.632,1.968 c -0.11,0 -0.199,0.066 -0.243,0.155 -0.066,0.133 0,0.287 0.133,0.354 0.486,0.221 11.831,5.285 16.077,3.472 0.133,-0.044 0.199,-0.221 0.133,-0.354 C 48.543,10.416 48.388,10.35 48.255,10.416 44.208,12.141 32.73,6.988 32.598,6.944 c 0,-0.022 -0.045,-0.022 -0.089,-0.022"
             style="fill:#848585;fill-opacity:1;fill-rule:nonzero;stroke:none"
             id="path5531" />
        </g>
        <g
           id="g5533"
           transform="translate(619.9993,488.9579)">
          <path
             d="m 0,0 c -0.022,-0.022 -0.022,-0.044 -0.044,-0.088 l -4.18,-3.119 c -0.442,-0.464 -1.061,-0.685 -1.659,-0.685 -0.641,0 -1.282,0.243 -1.791,0.73 l -3.981,2.919 c -0.066,0.066 -0.088,0.132 -0.132,0.199 -5.043,-1.548 -8.758,-5.042 -9.421,-9.222 1.15,-0.752 2.233,-1.659 3.339,-2.521 2.455,-1.88 4.711,-3.03 12.009,-3.03 7.297,0 9.531,1.15 12.008,3.03 1.128,0.862 2.189,1.791 3.339,2.521 C 8.78,-5.042 5.064,-1.548 0,0"
             style="fill:#f7f6f6;fill-opacity:1;fill-rule:nonzero;stroke:none"
             id="path5535" />
        </g>
        <g
           id="g5537"
           transform="translate(623.0291,483.2964)">
          <path
             d="m 0,0 c -0.133,0.133 -0.376,0.133 -0.509,0 -0.022,-0.022 -2.698,-2.654 -5.219,-2.322 -1.106,0.155 -2.056,0.885 -2.808,2.167 v 1.991 c 0.486,0.066 0.928,0.287 1.282,0.641 l 4.18,3.118 c 0.022,0.022 0.022,0.044 0.044,0.089 -1.813,0.552 -3.804,0.862 -5.882,0.862 -2.101,0 -4.092,-0.31 -5.927,-0.885 0.044,-0.066 0.066,-0.132 0.132,-0.199 l 3.981,-2.919 c 0.398,-0.398 0.907,-0.641 1.416,-0.707 v -1.991 c -0.752,-1.282 -1.681,-2.012 -2.809,-2.167 -2.521,-0.332 -5.197,2.3 -5.219,2.322 -0.133,0.155 -0.376,0.155 -0.509,0 -0.133,-0.155 -0.133,-0.376 0,-0.509 0.111,-0.11 2.588,-2.565 5.264,-2.565 0.199,0 0.375,0.022 0.575,0.044 1.216,0.155 2.233,0.885 3.073,2.101 0.819,-1.216 1.858,-1.924 3.075,-2.101 0.199,-0.022 0.375,-0.044 0.574,-0.044 2.676,0 5.153,2.455 5.264,2.565 C 0.133,-0.376 0.133,-0.133 0,0"
             style="fill:#3c3d3c;fill-opacity:1;fill-rule:nonzero;stroke:none"
             id="path5539" />
        </g>
        <g
           id="g5541"
           transform="translate(627.0761,496.0789)">
          <path
             d="m 0,0 c 0,-0.752 -0.619,-1.371 -1.371,-1.371 -0.752,0 -1.371,0.619 -1.371,1.371 0,0.752 0.619,1.371 1.371,1.371 C -0.597,1.371 0,0.774 0,0 m -20.877,0 c 0,-0.752 -0.619,-1.371 -1.371,-1.371 -0.752,0 -1.371,0.619 -1.371,1.371 0,0.752 0.619,1.371 1.371,1.371 0.752,0 1.371,-0.597 1.371,-1.371"
             style="fill:#ffffff;fill-opacity:1;fill-rule:nonzero;stroke:none"
             id="path5543" />
        </g>
        <g
           id="g5545"
           style="display:none">
          <g
             id="g5547" />
          <g
             id="g5563">
            <g
               clip-path="url(#clipPath5551)"
               opacity="0.5"
               id="g5561">
              <g
                 transform="translate(948.5432,271.7553)"
                 id="g5555">
                <path
                   d="m 0,0 h -73.522 c -4.551,0 -8.274,3.724 -8.274,8.275 v 113.007 c 0,4.551 3.723,8.274 8.274,8.274 H 0 c 4.551,0 8.275,-3.723 8.275,-8.274 V 8.275 C 8.275,3.724 4.551,0 0,0"
                   style="fill:#ffffff;fill-opacity:1;fill-rule:nonzero;stroke:none"
                   id="path5553" />
              </g>
              <g
                 transform="translate(948.5432,271.7553)"
                 id="g5559">
                <path
                   d="m 0,0 h -73.522 c -4.551,0 -8.274,3.724 -8.274,8.275 v 113.007 c 0,4.551 3.723,8.274 8.274,8.274 H 0 c 4.551,0 8.275,-3.723 8.275,-8.274 V 8.275 C 8.275,3.724 4.551,0 0,0 Z"
                   style="fill:none;stroke:#286fb5;stroke-width:0.796;stroke-linecap:butt;stroke-linejoin:miter;stroke-miterlimit:10;stroke-dasharray:none;stroke-opacity:1"
                   id="path5557" />
              </g>
            </g>
          </g>
        </g>
      </g>
    </g>
  </g>
</svg>
