<svg version="1.2" xmlns="http://www.w3.org/2000/svg" viewBox="0 0 56 62" width="56" height="62">
	<title>&lt;Group&gt;</title>
	<defs>
		<clipPath clipPathUnits="userSpaceOnUse" id="cp1">
			<path d="m9.83 22.99h35.95v22.46h-35.95z"/>
		</clipPath>
	</defs>
	<style>
		.s0 { fill: #e9dedb } 
		.s1 { fill: #f6e9e5 } 
		.s2 { fill: #3c3d3c } 
		.s3 { fill: #c5cbd4 } 
		.s4 { fill: #d76d7a } 
		.s5 { fill: #f09d9e } 
		.s6 { fill: #f5eff1 } 
		.s7 { fill: #ffffff } 
	</style>
	<g id="&lt;Group&gt;">
		<path id="&lt;Path&gt;" class="s0" d="m19.3 50.4h5.8v8.1h-5.8z"/>
		<path id="&lt;Path&gt;" class="s1" d="m30.5 50.4h5.9v8.1h-5.9z"/>
		<path id="&lt;Compound Path&gt;" class="s2" d="m21.7 60v1.1h-4.6c0-2.8 2.3-5.1 5.1-5.1 2.8 0 5.1 2.3 5.1 5.1h-4.7v-1.1c0-0.3-0.2-0.5-0.5-0.5-0.2 0-0.4 0.2-0.4 0.5zm11.2 0v1.1h-4.5c0-2.8 2.3-5.1 5.1-5.1 2.8 0 5.1 2.3 5.1 5.1h-4.8v-1.1c0-0.3-0.2-0.5-0.4-0.5-0.3 0-0.5 0.2-0.5 0.5z"/>
		<g id="&lt;Clip Group&gt;" clip-path="url(#cp1)">
			<path id="&lt;Path&gt;" class="s3" d="m9.8 35.2c2.3-7.9 9.5-12.2 18-12.2 8.5 0 15.7 4.3 18 12.2-2.3 5.9-9.5 10.2-18 10.2-8.5 0-15.7-4.3-18-10.2z"/>
		</g>
		<path id="&lt;Path&gt;" class="s0" d="m46.6 40.9c0 0.1-0.1 0.3-0.1 0.5-0.1 3.8-2.2 7.2-5.6 9.7-3.4 2.5-8 4-13.1 4-10.3 0-18.7-6.4-18.7-14.2q0-3.1 0.7-5.7c2.3-7.9 9.5-12.2 18-12.2 8.5 0 15.7 4.3 18 12.2 0.5 1.7 0.8 3.6 0.8 5.7z"/>
		<path id="&lt;Compound Path&gt;" fill-rule="evenodd" class="s2" d="m40.9 51c-1-0.1-1.9-0.5-2.8-1.4 0 0-1.3-1.6-0.9-3.3 0.4-1.7 2.5-2.1 3.2-3.6 0.7-1.4 4.7-3.2 6.1-1.4-0.1 3.8-2.2 7.3-5.6 9.7zm-23.1-4.4c0 0-1.2-1.3-0.4-2.5 0.7-1.3 2.8 0.4 2.8 0.4 0 0 2 1.3 2.6 1.5 2.1 0.6 1.8 2.7-0.8 3.7-1.8 0.8-4.2-3.1-4.2-3.1zm-10-43.7c6.5 0 9.5 11.4 9.5 11.4h-8.6c-6.5 0-8.1-11.4-8.1-11.4z"/>
		<path id="&lt;Path&gt;" class="s4" d="m8.2 4.9c4.2 0 6.1 7.4 6.1 7.4h-5.6c-4.1 0-5.2-7.4-5.2-7.4z"/>
		<path id="&lt;Path&gt;" class="s2" d="m55.1 2.9c0 0-1.7 11.4-8.1 11.4h-8.6c0 0 2.9-11.4 9.4-11.4z"/>
		<path id="&lt;Path&gt;" class="s4" d="m52.1 4.9c0 0-1 7.4-5.2 7.4h-5.6c0 0 1.9-7.4 6.1-7.4z"/>
		<path id="&lt;Path&gt;" class="s2" d="m30.9 18.2c-0.2-10 6.1-14.2 6.7-14.6 2.5 2.1 4.2 4.9 4.6 7.9q0 0.1 0 0.2c0 0 0.7 2.7 0.9 4.1 0.6 2.9 1.2 5.1 1.5 7.8-0.1 0-13.3 5-13.7-5.4z"/>
		<path id="&lt;Path&gt;" class="s1" d="m27.8 41.6v0.5h0.2c-10 0-17.1-7.1-17.1-15.6 0-0.3-0.2-0.7-0.2-0.9 0-0.7 0.1-1.4 0.2-2 0.1 0.1 13.4 5 13.7-5.4 0.3-10-6-14.2-6.6-14.6 2.5-2.2 5.5-3.6 9.8-3.6 2.9 0 7.2 1.4 9.8 3.6-0.6 0.4-6.9 4.6-6.7 14.6 0.4 10.4 13.6 5.5 13.8 5.4 0 0.6 0.1 1.3 0.1 2 0 0.2 0 0.5 0 0.7 0 8.5-7 15.2-17 15.3z"/>
		<path id="&lt;Path&gt;" class="s2" d="m10.9 23.6c0.3-2.7 1-4.9 1.5-7.8 0.2-1.4 0.9-4.1 0.9-4.1q0-0.1 0-0.2c0.5-3 2.2-5.8 4.6-7.9 0.6 0.4 7 4.6 6.7 14.6-0.3 10.4-13.6 5.4-13.7 5.4z"/>
		<path id="&lt;Path&gt;" class="s5" d="m41.9 33.6c0 5.1-6.3 9.2-14.1 9.2-7.8 0-14.1-4.1-14.1-9.2 0-5.1 6.3-9.2 14.1-9.2 7.8 0 14.1 4.1 14.1 9.2z"/>
		<path id="&lt;Compound Path&gt;" class="s4" d="m21.4 32.2c0 1.1-0.9 2-2 2-1.1 0-2-0.9-2-2 0-1.2 0.9-2.1 2-2.1 1.1 0 2 0.9 2 2.1zm16.9 0c0 1.1-0.9 2-2 2-1.1 0-2.1-0.9-2.1-2 0-1.2 1-2.1 2.1-2.1 1.1 0 2 0.9 2 2.1z"/>
		<path id="&lt;Path&gt;" class="s6" d="m39.7 15.4c0 1.7-1.4 3.2-3.2 3.2-1.8 0-3.2-1.5-3.2-3.2 0-1.8 1.4-3.2 3.2-3.2 1.8 0 3.2 1.4 3.2 3.2z"/>
		<path id="&lt;Path&gt;" class="s2" d="m38.8 15.4c0 1.2-1.1 2.2-2.3 2.2-1.2 0-2.3-1-2.3-2.2 0-1.3 1.1-2.3 2.3-2.3 1.2 0 2.3 1 2.3 2.3z"/>
		<path id="&lt;Path&gt;" class="s1" d="m23.3 15.4c0 1.7-1.4 3.2-3.2 3.2-1.7 0-3.2-1.5-3.2-3.2 0-1.8 1.5-3.2 3.2-3.2 1.8 0 3.2 1.4 3.2 3.2z"/>
		<path id="&lt;Path&gt;" class="s2" d="m22.4 15.4c0 1.2-1 2.2-2.3 2.2-1.2 0-2.2-1-2.2-2.2 0-1.3 1-2.3 2.2-2.3 1.3 0 2.3 1 2.3 2.3z"/>
		<path id="&lt;Compound Path&gt;" class="s7" d="m21.8 14.7c0 0.4-0.4 0.8-0.8 0.8-0.5 0-0.9-0.4-0.9-0.8 0-0.5 0.4-0.8 0.9-0.8 0.4 0 0.8 0.3 0.8 0.8zm16.2 0c0 0.4-0.4 0.8-0.8 0.8-0.5 0-0.8-0.4-0.8-0.8 0-0.5 0.3-0.8 0.8-0.8 0.5 0 0.8 0.3 0.8 0.8z"/>
	</g>
</svg>