<svg width="63" height="25" viewBox="0 0 63 25" fill="none" xmlns="http://www.w3.org/2000/svg">
<path d="M52.8 0.290009H51.3101V18.65H52.8V0.290009Z" fill="#B4723D"/>
<path d="M62.8101 7.01001H0.320068L10.33 0.290009H52.8L62.8101 7.01001Z" fill="#FCCA85"/>
<path d="M62.8101 7.01001H0.320068V8.73999H62.8101V7.01001Z" fill="#CC8F5A"/>
<path d="M26.83 8.73999H1.98999V24.06H26.83V8.73999Z" fill="#CC8F5A"/>
<path d="M26.83 8.73999H1.98999V10.1H26.83V8.73999Z" fill="#B4723D"/>
<path d="M28.6201 18.35L26.8301 24.07V8.73999H28.6201V18.35Z" fill="#B4723D"/>
<path d="M62.8101 8.73999H61.3501V24.06H62.8101V8.73999Z" fill="#CC8F5A"/>
<path d="M62.8101 8.73999H61.3501V10.05H62.8101V8.73999Z" fill="#B4723D"/>
<path d="M23.9301 11.67H5.1001V16.4H23.9301V11.67Z" fill="#B4723D"/>
<path d="M18.3101 13.68H10.8301C10.6313 13.68 10.4701 13.8389 10.4701 14.035C10.4701 14.2311 10.6313 14.39 10.8301 14.39H18.3101C18.5089 14.39 18.6701 14.2311 18.6701 14.035C18.6701 13.8389 18.5089 13.68 18.3101 13.68Z" fill="#CC8F5A"/>
<path d="M23.9301 17.63H5.1001V22.36H23.9301V17.63Z" fill="#B4723D"/>
<path d="M18.3101 19.64H10.8301C10.6313 19.64 10.4701 19.7989 10.4701 19.995C10.4701 20.1911 10.6313 20.35 10.8301 20.35H18.3101C18.5089 20.35 18.6701 20.1911 18.6701 19.995C18.6701 19.7989 18.5089 19.64 18.3101 19.64Z" fill="#CC8F5A"/>
</svg>
