<?xml version="1.0" encoding="UTF-8" standalone="no"?>
<!-- Created with Inkscape (http://www.inkscape.org/) -->

<svg
   width="20.818214mm"
   height="21.809334mm"
   viewBox="0 0 20.818214 21.809334"
   version="1.1"
   id="svg10214"
   xmlns:inkscape="http://www.inkscape.org/namespaces/inkscape"
   xmlns:sodipodi="http://sodipodi.sourceforge.net/DTD/sodipodi-0.dtd"
   xmlns="http://www.w3.org/2000/svg"
   xmlns:svg="http://www.w3.org/2000/svg">
  <sodipodi:namedview
     id="namedview10216"
     pagecolor="#ffffff"
     bordercolor="#000000"
     borderopacity="0.25"
     inkscape:showpageshadow="2"
     inkscape:pageopacity="0.0"
     inkscape:pagecheckerboard="0"
     inkscape:deskcolor="#d1d1d1"
     inkscape:document-units="mm"
     showgrid="false" />
  <defs
     id="defs10211">
    <clipPath
       clipPathUnits="userSpaceOnUse"
       id="clipPath5357">
      <path
         d="M 0,720 H 1024 V 0 H 0 Z"
         id="path5355" />
    </clipPath>
    <clipPath
       clipPathUnits="userSpaceOnUse"
       id="clipPath5391">
      <path
         d="m 563.088,401.71 h 90.867 V 271.357 h -90.867 z"
         id="path5389" />
    </clipPath>
  </defs>
  <g
     inkscape:label="Layer 1"
     inkscape:groupmode="layer"
     id="layer1"
     transform="translate(-114.52175,-87.420553)">
    <g
       id="g5351"
       transform="matrix(0.35277777,0,0,-0.35277777,-54.080861,271.56855)"
       style="display:inline">
      <g
         id="g5353"
         clip-path="url(#clipPath5357)"
         style="display:inline">
        <g
           id="g5359"
           transform="translate(521.7308,477.1476)">
          <path
             d="m 0,0 c 0,1.591 0,3.024 -0.398,4.35 0,0.026 0.106,0.026 0.133,0.053 -1.804,6.18 -7.347,9.548 -14.004,9.548 -6.658,0 -12.254,-3.368 -14.031,-9.548 C -28.698,3.05 -28.539,1.591 -28.539,0 c 0,-3.236 1.459,-6.18 5.119,-8.222 v -4.005 c -1.83,-1.008 -2.36,-2.891 -2.36,-4.721 h 11.272 c 0,1.83 0.212,3.713 -1.618,4.721 v 1.167 c 0,-0.053 1.83,-0.106 1.83,-0.106 v -0.319 h 0.053 -0.053 v 0.319 c 0,0 1.83,0.026 1.83,0.079 v -1.167 c 0,-1.008 -1.512,-2.891 -1.512,-4.721 h 11.273 c 0,1.83 -0.61,3.713 -2.44,4.721 v 3.979 C -1.538,-6.18 0,-3.262 0,0"
             style="fill:#b55f1d;fill-opacity:1;fill-rule:nonzero;stroke:none"
             id="path5361" />
        </g>
        <g
           id="g5363"
           transform="translate(519.2376,513.8291)">
          <path
             d="M 0,0 C 0.637,0.663 1.485,1.432 2.201,1.857 L 2.44,1.989 C 2.493,1.83 2.573,1.485 2.652,1.114 2.785,0.292 2.758,-0.53 2.758,-1.671 2.732,-2.785 2.732,-4.164 2.838,-5.57 c 0.106,-1.406 0.318,-2.838 0.61,-4.217 0.583,-2.758 1.485,-5.358 2.467,-7.824 l 0.053,-0.159 c 1.246,-3.13 4.8,-4.642 7.904,-3.395 3.129,1.246 4.641,4.8 3.395,7.903 -0.213,0.531 -0.504,1.035 -0.849,1.459 -1.326,1.724 -2.52,3.448 -3.475,5.225 -0.477,0.876 -0.875,1.777 -1.246,2.706 -0.345,0.954 -0.637,1.962 -0.955,3.209 C 10.424,0.583 9.999,2.122 9.283,3.554 8.938,4.27 8.514,5.039 7.851,5.862 7.506,6.259 7.108,6.684 6.604,7.055 6.1,7.427 5.437,7.798 4.721,7.983 4.005,8.196 3.262,8.196 2.599,8.116 1.936,8.036 1.406,7.824 0.928,7.586 0,7.135 -0.663,6.578 -1.22,6.047 -1.777,5.49 -2.228,4.933 -2.652,4.376 -3.077,3.793 -3.422,3.262 -3.819,2.599 -4.456,1.485 -4.085,0.08 -2.971,-0.557 c 0.955,-0.53 2.122,-0.345 2.838,0.424 z m -23.606,0 c -0.636,0.663 -1.485,1.432 -2.201,1.857 l -0.239,0.132 c -0.053,-0.159 -0.132,-0.504 -0.212,-0.875 -0.133,-0.822 -0.106,-1.644 -0.106,-2.785 0.027,-1.114 0.027,-2.493 -0.08,-3.899 -0.106,-1.406 -0.318,-2.838 -0.61,-4.217 -0.61,-2.758 -1.485,-5.358 -2.466,-7.824 l -0.053,-0.159 c -1.247,-3.13 -4.801,-4.642 -7.904,-3.395 -3.13,1.246 -4.642,4.8 -3.395,7.903 0.212,0.531 0.504,1.035 0.849,1.459 1.326,1.724 2.519,3.448 3.474,5.225 0.478,0.876 0.875,1.777 1.247,2.706 0.345,0.954 0.636,1.962 0.955,3.209 0.318,1.246 0.742,2.785 1.458,4.217 0.345,0.716 0.769,1.485 1.433,2.308 0.344,0.397 0.742,0.822 1.246,1.193 0.504,0.372 1.167,0.743 1.883,0.928 0.716,0.213 1.459,0.213 2.122,0.133 0.663,-0.08 1.194,-0.292 1.671,-0.53 0.928,-0.451 1.591,-1.008 2.149,-1.539 0.556,-0.557 1.007,-1.114 1.432,-1.671 0.424,-0.583 0.769,-1.114 1.167,-1.777 0.636,-1.114 0.265,-2.519 -0.849,-3.156 -0.955,-0.53 -2.122,-0.345 -2.838,0.424 z"
             style="fill:#733f2b;fill-opacity:1;fill-rule:nonzero;stroke:none"
             id="path5365" />
        </g>
        <g
           id="g5367"
           transform="translate(525.2584,492.5045)">
          <path
             d="m 0,0 c 0,4.217 -0.981,6.923 -1.724,10.901 -0.265,1.459 -0.955,4.35 -0.955,4.35 -1.246,6.869 -7.851,12.121 -15.171,12.121 v -1.167 h 0.08 -0.08 v 1.14 c -7.32,0 -13.845,-5.278 -15.092,-12.147 0,0 -0.636,-2.865 -0.902,-4.324 -0.742,-3.978 -1.777,-6.683 -1.777,-10.901 0,-8.885 6.817,-16.099 17.797,-16.099 v 0.265 h 0.08 -0.08 v -0.265 C -6.896,-16.1 0,-8.885 0,0"
             style="fill:#e77007;fill-opacity:1;fill-rule:nonzero;stroke:none"
             id="path5369" />
        </g>
        <path
           d="m 507.037,482.346 h 0.637 v -3.713 h -0.637 z"
           style="fill:#391212;fill-opacity:1;fill-rule:nonzero;stroke:none"
           id="path5371" />
        <g
           id="g5373"
           transform="translate(516.9036,488.7383)">
          <path
             d="m 0,0 c 0,-3.528 -4.217,-6.392 -9.389,-6.392 -5.199,0 -9.389,2.864 -9.389,6.392 0,3.528 4.217,6.392 9.389,6.392 C -4.217,6.392 0,3.554 0,0"
             style="fill:#733f2b;fill-opacity:1;fill-rule:nonzero;stroke:none"
             id="path5375" />
        </g>
        <g
           id="g5377"
           transform="translate(501.2549,502.6364)">
          <path
             d="m 0,0 c 0,-1.618 -1.061,-2.944 -2.334,-2.944 -1.273,0 -2.334,1.326 -2.334,2.944 0,1.618 1.061,2.944 2.334,2.944 C -1.061,2.944 0,1.618 0,0 m 17.081,0 c 0,-1.618 -1.034,-2.944 -2.334,-2.944 -1.3,0 -2.334,1.326 -2.334,2.944 0,1.618 1.061,2.944 2.334,2.944 1.273,0 2.334,-1.326 2.334,-2.944 M 5.941,-24.64 c -3.474,0 -4.88,1.326 -4.933,1.379 -0.133,0.133 -0.133,0.319 0,0.451 0.132,0.133 0.318,0.133 0.451,0 0,0 1.299,-1.193 4.509,-1.193 2.944,0 4.509,1.193 4.535,1.22 0.133,0.106 0.345,0.079 0.451,-0.053 0.106,-0.133 0.08,-0.345 -0.053,-0.451 -0.106,-0.053 -1.804,-1.353 -4.96,-1.353"
             style="fill:#401613;fill-opacity:1;fill-rule:nonzero;stroke:none"
             id="path5379" />
        </g>
        <g
           id="g5381"
           transform="translate(516.0548,503.9625)">
          <path
             d="m 0,0 c 0,-0.504 0.371,-0.902 0.849,-0.902 0.477,0 0.849,0.398 0.849,0.902 0,0.504 -0.372,0.902 -0.849,0.902 C 0.371,0.902 0,0.504 0,0 m -17.134,0 c 0,-0.504 0.371,-0.902 0.849,-0.902 0.477,0 0.849,0.398 0.849,0.902 0,0.504 -0.372,0.902 -0.849,0.902 -0.478,0 -0.849,-0.398 -0.849,-0.902"
             style="fill:#ffffff;fill-opacity:1;fill-rule:nonzero;stroke:none"
             id="path5383" />
        </g>
        <g
           id="g5385"
           style="display:none">
          <g
             id="g5387" />
          <g
             id="g5403">
            <g
               clip-path="url(#clipPath5391)"
               opacity="0.5"
               id="g5401">
              <g
                 transform="translate(645.2825,271.7553)"
                 id="g5395">
                <path
                   d="m 0,0 h -73.522 c -4.551,0 -8.274,3.724 -8.274,8.275 v 113.007 c 0,4.551 3.723,8.274 8.274,8.274 H 0 c 4.551,0 8.275,-3.723 8.275,-8.274 V 8.275 C 8.275,3.724 4.551,0 0,0"
                   style="fill:#ffffff;fill-opacity:1;fill-rule:nonzero;stroke:none"
                   id="path5393" />
              </g>
              <g
                 transform="translate(645.2825,271.7553)"
                 id="g5399">
                <path
                   d="m 0,0 h -73.522 c -4.551,0 -8.274,3.724 -8.274,8.275 v 113.007 c 0,4.551 3.723,8.274 8.274,8.274 H 0 c 4.551,0 8.275,-3.723 8.275,-8.274 V 8.275 C 8.275,3.724 4.551,0 0,0 Z"
                   style="fill:none;stroke:#286fb5;stroke-width:0.796;stroke-linecap:butt;stroke-linejoin:miter;stroke-miterlimit:10;stroke-dasharray:none;stroke-opacity:1"
                   id="path5397" />
              </g>
            </g>
          </g>
        </g>
      </g>
    </g>
  </g>
</svg>
