<svg width="56" height="71" viewBox="0 0 56 71" fill="none" xmlns="http://www.w3.org/2000/svg">
<path d="M18.69 17.5C18.86 15.09 16.94 15.77 16.56 17.25C16.42 17.78 16.31 18.25 16.23 18.65C16.17 18.63 16.1 18.62 16.03 18.62C15.61 18.64 15.13 19.05 14.92 19.65C14.77 20.08 14.63 20.4501 14.53 20.7801C14.42 20.6401 14.28 20.56 14.12 20.55C13.71 20.51 13.21 20.8101 12.93 21.3401C12.7 21.7601 12.51 22.11 12.34 22.42C12.26 22.28 12.15 22.18 12.01 22.13C11.82 22.05 11.6 22.06 11.38 22.13C11.15 22.19 10.94 22.35 10.75 22.55C10.54 22.78 10.35 22.98 10.17 23.16C10.14 23.11 10.1 23.07 10.05 23.04C9.75002 22.82 9.26004 22.84 8.79004 23.14C8.37004 23.41 8.00004 23.63 7.70004 23.83C7.68004 23.78 7.65002 23.73 7.61002 23.69C7.37002 23.44 6.86002 23.37 6.36002 23.58C4.95002 24.15 4.28003 24.57 4.28003 24.85C4.28003 25.12 5.22003 25.64 6.25003 26.13C6.83003 26.41 7.45002 26.36 7.71002 26.11C7.87002 25.95 7.89003 25.73 7.69003 25.45C8.08003 25.63 8.56004 25.81 9.07004 25.96C9.78004 26.17 10.5 25.98 10.73 25.64C10.79 25.55 10.82 25.46 10.81 25.36C11.1 25.4 11.42 25.43 11.74 25.44C12.58 25.48 13.29 25.05 13.44 24.64C13.52 24.44 13.46 24.24 13.26 24.08C13.38 24.07 13.5 24.06 13.63 24.04C13.96 24 14.31 23.93 14.66 23.85C15.06 23.76 15.4 23.57 15.65 23.36C15.89 23.14 16.05 22.9 16.07 22.69C16.09 22.52 16.03 22.38 15.9 22.26C16.27 22.14 16.66 21.99 17.06 21.82C17.8 21.51 18.25 20.91 18.24 20.49C18.24 20.35 18.18 20.23 18.07 20.14C18.46 19.96 18.88 19.74 19.3 19.52C20.91 18.64 20.6 16.78 18.66 17.51L18.69 17.5Z" fill="black"/>
<path d="M0.629969 22.67C2.77997 22.85 4.52995 24.35 4.48995 24.97C4.43995 25.59 2.41997 28 0.819972 27.51C1.22997 26.97 0.449966 26.55 0.719966 26.14C1.07997 25.57 0.069973 25.49 0.539973 24.95C1.00997 24.41 0.239974 24.35 0.509974 23.81C0.719974 23.4 0.409979 23.09 0.639979 22.67H0.629969Z" fill="black"/>
<path d="M4.41 24.87C5.1832 24.87 5.81 24.2432 5.81 23.47C5.81 22.6968 5.1832 22.07 4.41 22.07C3.6368 22.07 3.01001 22.6968 3.01001 23.47C3.01001 24.2432 3.6368 24.87 4.41 24.87Z" fill="#E31C24"/>
<path d="M5.9599 26.32C5.9599 27.09 5.32991 27.72 4.55991 27.72C3.78991 27.72 3.15991 27.09 3.15991 26.32C3.15991 25.55 3.78991 24.92 4.55991 24.92C5.32991 24.92 5.9599 25.55 5.9599 26.32Z" fill="#E31C24"/>
<path d="M50.31 19.38C50.15 19.15 49.08 19.3 48.03 19.25C47.44 19.23 46.97 19.44 46.82 19.73C46.73 19.91 46.77 20.15 47.02 20.36C46.61 20.29 46.14 20.22 45.68 20.11C45.04 19.97 44.49 20.09 44.26 20.38C44.2 20.45 44.17 20.54 44.16 20.64C43.91 20.55 43.65 20.45 43.4 20.34C42.75 20.07 42.23 20.07 41.96 20.32C41.83 20.44 41.75 20.62 41.79 20.87C41.5 20.64 41.2 20.37 41 20.08C40.83 19.84 40.68 19.67 40.51 19.56C40.34 19.45 40.15 19.39 39.97 19.42C39.83 19.44 39.7 19.51 39.6 19.65C39.51 19.34 39.42 19 39.38 18.65C39.29 18.02 39.04 17.61 38.68 17.5C38.57 17.47 38.44 17.48 38.32 17.53C38.36 17.17 38.44 16.79 38.56 16.45C38.67 16.12 38.7 15.87 38.66 15.67C38.61 15.46 38.49 15.3 38.31 15.17C38.13 15.05 37.89 14.97 37.61 15.02C37.33 15.07 37.01 15.25 36.73 15.68C36.39 15.18 36.14 14.83 35.87 14.67C35.61 14.5 35.36 14.53 35.14 14.73C34.92 14.93 34.77 15.3 34.74 15.75C34.71 16.2 34.81 16.71 35.06 17.14C35.42 17.76 35.8 18.21 36.16 18.54C36.12 18.59 36.08 18.65 36.06 18.72C35.91 19.17 36.24 19.99 36.92 20.45C37.4 20.78 37.84 20.99 38.23 21.14C38.09 21.25 38.03 21.4 38.05 21.59C38.08 21.83 38.26 22.12 38.56 22.37C38.86 22.62 39.29 22.83 39.76 22.88C40.41 22.96 40.93 22.9 41.33 22.81C41.39 22.8 41.43 22.78 41.49 22.77C41.45 22.93 41.49 23.08 41.61 23.21C41.93 23.58 42.82 23.72 43.53 23.41C43.91 23.25 44.23 23.08 44.51 22.92C44.54 22.97 44.58 23.01 44.63 23.05C44.96 23.3 45.69 23.28 46.28 22.89C46.8 22.54 47.19 22.22 47.48 21.93C47.52 21.97 47.56 22.01 47.62 22.04C47.96 22.2 48.59 22.06 49.03 21.62C50.26 20.39 50.47 19.61 50.33 19.39L50.31 19.38Z" fill="black"/>
<path d="M49.75 19.31C49.78 17.86 50.78 16.38 52.92 14.89C53.11 15.82 53.84 15.47 53.54 16.56C53.23 17.69 54.63 17.84 54.04 18.31C53.59 18.67 54.74 18.66 55.48 19.67C54.35 21.38 50.58 20.59 50.2 20.37C49.83 20.15 49.75 19.32 49.75 19.32V19.31Z" fill="black"/>
<path d="M50.71 18.51C50.71 19.32 50.05 19.98 49.24 19.98C48.43 19.98 47.77 19.32 47.77 18.51C47.77 17.7 48.43 17.04 49.24 17.04C50.05 17.04 50.71 17.7 50.71 18.51Z" fill="#E31C24"/>
<path d="M52.11 20.91C52.11 21.72 51.45 22.38 50.64 22.38C49.83 22.38 49.17 21.72 49.17 20.91C49.17 20.1 49.83 19.44 50.64 19.44C51.45 19.44 52.11 20.1 52.11 20.91Z" fill="#E31C24"/>
<path d="M25.3 47.71C25.3 47.79 25.28 47.87 25.28 47.95C25.26 48.09 25.25 48.23 25.23 48.38C25.18 48.78 25.12 49.19 25.06 49.62C25.03 49.84 25 50.06 24.96 50.28C24.9 50.68 24.83 51.09 24.76 51.5C24.73 51.72 24.69 51.94 24.65 52.17C24.6 52.48 24.54 52.79 24.49 53.1C24.45 53.32 24.41 53.55 24.37 53.77C24.3 54.14 24.24 54.5 24.17 54.86C24.13 55.08 24.09 55.31 24.05 55.52C24 55.78 23.95 56.04 23.9 56.28C23.86 56.51 23.81 56.73 23.77 56.95C23.69 57.35 23.62 57.74 23.55 58.09C23.5 58.33 23.46 58.55 23.42 58.76C23.34 59.16 23.27 59.51 23.22 59.81C23.11 60.4 23.04 60.78 23.04 60.86C23.04 61.29 23.54 63.33 24.06 65.12C24.28 65.9 24.51 66.64 24.7 67.17C24.78 67.4 24.81 67.61 24.81 67.81C24.79 69.13 23.04 69.74 21.59 69.65C19.97 69.55 18.45 65.69 18.39 64.16C18.39 64.12 18.39 64.09 18.39 64.06C18.39 63.53 18.46 62.99 18.56 62.49C18.73 61.61 18.99 60.87 19.12 60.54C19.15 60.47 19.19 60.14 19.25 59.63C19.28 59.36 19.31 59.04 19.35 58.69C19.37 58.49 19.39 58.28 19.41 58.06C19.45 57.68 19.48 57.27 19.52 56.84C19.54 56.64 19.56 56.42 19.58 56.21C19.61 55.93 19.63 55.64 19.66 55.34C19.68 55.13 19.7 54.92 19.72 54.71C19.75 54.37 19.78 54.01 19.82 53.66C19.84 53.45 19.85 53.24 19.88 53.03C19.91 52.69 19.94 52.35 19.97 52.02C19.99 51.81 20.01 51.59 20.03 51.38C20.07 50.96 20.11 50.55 20.14 50.14C20.16 49.93 20.18 49.71 20.2 49.5C20.24 49.08 20.28 48.68 20.32 48.3C20.34 48.08 20.36 47.87 20.38 47.67C20.4 47.5 20.41 47.33 20.43 47.17C20.54 46.16 20.63 45.45 20.68 45.23C21.41 42.64 23.78 44.09 25.13 44.51C25.51 44.62 25.51 45.91 25.32 47.71H25.3Z" fill="#F5D6CB"/>
<path d="M24.81 67.81C24.79 69.13 23.04 69.74 21.59 69.65C19.97 69.55 18.45 65.69 18.39 64.16C18.39 64.12 18.39 64.09 18.39 64.06C18.39 63.53 18.46 62.99 18.56 62.49C19.13 63.97 20.17 65.1 20.51 65.51C21.91 67.16 23.32 66.16 24.06 65.11C24.28 65.89 24.51 66.63 24.7 67.16C24.78 67.39 24.81 67.6 24.81 67.8V67.81Z" fill="#AC0020"/>
<path opacity="0.44" d="M24.81 67.81C24.79 69.13 23.04 69.74 21.59 69.65C19.97 69.55 18.45 65.69 18.39 64.16C18.48 64.55 18.62 64.95 18.85 65.35C19.52 66.49 21.28 68.81 22.11 68.81C22.94 68.81 24.27 68.71 24.81 67.79V67.81Z" fill="#750016"/>
<path opacity="0.3" d="M25.3 47.71C25.3 47.79 25.28 47.87 25.28 47.95C25.26 48.09 25.25 48.23 25.23 48.38C25.18 48.78 25.12 49.19 25.06 49.62C25.03 49.84 25 50.06 24.96 50.28C24.9 50.68 24.83 51.09 24.76 51.5C24.73 51.72 24.69 51.94 24.65 52.17C24.6 52.48 24.54 52.79 24.49 53.1C24.45 53.32 24.41 53.55 24.37 53.77C24.3 54.14 24.24 54.5 24.17 54.86C24.13 55.08 24.09 55.31 24.05 55.52C24 55.78 23.95 56.04 23.9 56.28C23.86 56.51 23.81 56.73 23.77 56.95C23.69 57.35 23.62 57.74 23.55 58.09C23.5 58.33 23.46 58.55 23.42 58.76C23.34 59.16 23.27 59.51 23.22 59.81C21.57 60.1 20.21 59.91 19.24 59.64C19.27 59.37 19.3 59.05 19.34 58.7C19.36 58.5 19.38 58.29 19.4 58.07C19.44 57.69 19.47 57.28 19.51 56.85C19.53 56.65 19.55 56.43 19.57 56.22C19.6 55.94 19.62 55.65 19.65 55.35C19.67 55.14 19.69 54.93 19.71 54.72C19.74 54.38 19.77 54.02 19.81 53.67C19.83 53.46 19.84 53.25 19.87 53.04C19.9 52.7 19.93 52.36 19.96 52.03C19.98 51.82 20 51.6 20.02 51.39C20.06 50.97 20.1 50.56 20.13 50.15C20.15 49.94 20.17 49.72 20.19 49.51C20.23 49.09 20.27 48.69 20.31 48.31C20.33 48.09 20.35 47.88 20.37 47.68C20.39 47.51 20.4 47.34 20.42 47.18C20.53 46.17 20.62 45.46 20.67 45.24C21.4 42.65 23.77 44.1 25.12 44.52C25.5 44.63 25.5 45.92 25.31 47.72L25.3 47.71Z" fill="white"/>
<path d="M23.55 58.09C23.5 58.33 23.46 58.55 23.42 58.76C22.77 58.87 22.14 58.92 21.53 58.92C20.76 58.92 20.02 58.84 19.33 58.69C19.35 58.49 19.37 58.28 19.39 58.06C20.63 58.33 22.07 58.37 23.55 58.09Z" fill="black"/>
<path d="M23.91 56.28C23.87 56.51 23.82 56.73 23.78 56.95C23.14 57.06 22.51 57.11 21.9 57.11C21.06 57.11 20.25 57.01 19.52 56.84C19.54 56.64 19.56 56.42 19.58 56.21C20.86 56.51 22.37 56.58 23.92 56.28H23.91Z" fill="black"/>
<path d="M24.18 54.85C24.14 55.07 24.1 55.3 24.06 55.51C23.45 55.61 22.85 55.66 22.27 55.66C21.34 55.66 20.46 55.54 19.66 55.33C19.68 55.12 19.7 54.91 19.72 54.7C21.02 55.04 22.58 55.14 24.19 54.85H24.18Z" fill="black"/>
<path d="M24.4901 53.09C24.4501 53.31 24.4101 53.54 24.3701 53.76C23.6701 53.89 22.9701 53.95 22.3101 53.95C21.4201 53.95 20.57 53.84 19.8 53.65C19.82 53.44 19.83 53.23 19.86 53.02C21.21 53.36 22.8301 53.44 24.5001 53.09H24.4901Z" fill="black"/>
<path d="M24.7699 51.49C24.7399 51.71 24.6999 51.93 24.6599 52.16C23.9599 52.29 23.2799 52.35 22.6199 52.35C21.6599 52.35 20.7499 52.23 19.9399 52.01C19.9599 51.8 19.9799 51.58 19.9999 51.37C21.3699 51.75 23.0399 51.85 24.7699 51.49Z" fill="black"/>
<path d="M25.06 49.62C25.03 49.84 25 50.06 24.96 50.28C24.23 50.42 23.52 50.49 22.82 50.49C21.85 50.49 20.93 50.36 20.11 50.14C20.13 49.93 20.15 49.71 20.17 49.5C21.57 49.89 23.29 49.99 25.06 49.62Z" fill="black"/>
<path d="M32.06 48.1C32.06 48.18 32.0799 48.26 32.0799 48.34C32.0999 48.48 32.11 48.62 32.13 48.77C32.18 49.17 32.2399 49.58 32.2999 50.01C32.3299 50.23 32.3599 50.45 32.3999 50.67C32.4599 51.07 32.53 51.48 32.6 51.89C32.63 52.11 32.6699 52.33 32.7099 52.56C32.7599 52.87 32.8199 53.18 32.8699 53.49C32.9099 53.71 32.9499 53.94 32.9899 54.16C33.0599 54.53 33.12 54.89 33.19 55.25C33.23 55.47 33.27 55.7 33.31 55.91C33.36 56.17 33.4099 56.43 33.4599 56.67C33.4999 56.9 33.55 57.12 33.59 57.34C33.67 57.74 33.74 58.13 33.81 58.48C33.86 58.72 33.9 58.94 33.94 59.15C34.02 59.55 34.09 59.9 34.14 60.2C34.25 60.79 34.32 61.17 34.32 61.25C34.32 61.68 33.8199 63.72 33.2999 65.51C33.0799 66.29 32.85 67.03 32.66 67.56C32.58 67.79 32.5499 68 32.5499 68.2C32.5699 69.52 34.3199 70.13 35.7699 70.04C37.3899 69.94 38.91 66.08 38.97 64.55C38.97 64.51 38.97 64.48 38.97 64.45C38.97 63.92 38.8999 63.38 38.7999 62.88C38.6299 62 38.3699 61.26 38.2399 60.93C38.2099 60.86 38.1699 60.53 38.1099 60.02C38.0799 59.75 38.05 59.43 38.01 59.08C37.99 58.88 37.97 58.67 37.95 58.45C37.91 58.07 37.88 57.66 37.84 57.23C37.82 57.03 37.8 56.81 37.78 56.6C37.75 56.32 37.73 56.03 37.7 55.73C37.68 55.52 37.66 55.31 37.64 55.1C37.61 54.76 37.58 54.4 37.54 54.05C37.52 53.84 37.51 53.63 37.48 53.42C37.45 53.08 37.42 52.74 37.39 52.41C37.37 52.2 37.3499 51.98 37.3299 51.77C37.2899 51.35 37.25 50.94 37.22 50.53C37.2 50.32 37.18 50.1 37.16 49.89C37.12 49.47 37.08 49.07 37.04 48.69C37.02 48.47 37 48.26 36.98 48.06C36.96 47.89 36.9499 47.72 36.9299 47.56C36.8199 46.55 36.7299 45.84 36.6799 45.62C35.9499 43.03 33.58 44.48 32.23 44.9C31.85 45.01 31.85 46.3 32.04 48.1H32.06Z" fill="#F5D6CB"/>
<path d="M32.5599 68.2C32.5799 69.52 34.3299 70.13 35.7799 70.04C37.3999 69.94 38.92 66.08 38.9799 64.55C38.9799 64.51 38.9799 64.48 38.9799 64.45C38.9799 63.92 38.9099 63.38 38.8099 62.88C38.2399 64.36 37.1999 65.49 36.8599 65.9C35.4599 67.55 34.0499 66.55 33.3099 65.5C33.0899 66.28 32.86 67.02 32.67 67.55C32.59 67.78 32.5599 67.99 32.5599 68.19V68.2Z" fill="#AC0020"/>
<path opacity="0.44" d="M32.5599 68.2C32.5799 69.52 34.3299 70.13 35.7799 70.04C37.3999 69.94 38.92 66.08 38.9799 64.55C38.8899 64.94 38.7499 65.34 38.5199 65.74C37.8499 66.88 36.0899 69.2 35.2599 69.2C34.4299 69.2 33.0999 69.1 32.5599 68.18V68.2Z" fill="#750016"/>
<path opacity="0.3" d="M32.06 48.1C32.06 48.18 32.08 48.26 32.08 48.34C32.1 48.48 32.11 48.62 32.13 48.77C32.18 49.17 32.24 49.58 32.3 50.01C32.33 50.23 32.36 50.45 32.4 50.67C32.46 51.07 32.53 51.48 32.6 51.89C32.63 52.11 32.67 52.33 32.71 52.56C32.76 52.87 32.82 53.18 32.87 53.49C32.91 53.71 32.95 53.94 32.99 54.16C33.06 54.53 33.12 54.89 33.19 55.25C33.23 55.47 33.27 55.7 33.31 55.91C33.36 56.17 33.41 56.43 33.46 56.67C33.5 56.9 33.55 57.12 33.59 57.34C33.67 57.74 33.74 58.13 33.81 58.48C33.86 58.72 33.9 58.94 33.94 59.15C34.02 59.55 34.09 59.9 34.14 60.2C35.79 60.49 37.15 60.3 38.12 60.03C38.09 59.76 38.06 59.44 38.02 59.09C38 58.89 37.98 58.68 37.96 58.46C37.92 58.08 37.89 57.67 37.85 57.24C37.83 57.04 37.81 56.82 37.79 56.61C37.76 56.33 37.74 56.04 37.71 55.74C37.69 55.53 37.67 55.32 37.65 55.11C37.62 54.77 37.59 54.41 37.55 54.06C37.53 53.85 37.52 53.64 37.49 53.43C37.46 53.09 37.43 52.75 37.4 52.42C37.38 52.21 37.36 51.99 37.34 51.78C37.3 51.36 37.26 50.95 37.23 50.54C37.21 50.33 37.19 50.11 37.17 49.9C37.13 49.48 37.09 49.08 37.05 48.7C37.03 48.48 37.01 48.27 36.99 48.07C36.97 47.9 36.96 47.73 36.94 47.57C36.83 46.56 36.74 45.85 36.69 45.63C35.96 43.04 33.59 44.49 32.24 44.91C31.86 45.02 31.86 46.31 32.05 48.11L32.06 48.1Z" fill="white"/>
<path d="M33.8099 58.48C33.8599 58.72 33.8999 58.94 33.9399 59.15C34.5899 59.26 35.2199 59.31 35.8299 59.31C36.5999 59.31 37.3399 59.23 38.0299 59.08C38.0099 58.88 37.9899 58.67 37.9699 58.45C36.7299 58.72 35.2899 58.76 33.8099 58.48Z" fill="black"/>
<path d="M33.4599 56.67C33.4999 56.9 33.5499 57.12 33.5899 57.34C34.2299 57.45 34.8599 57.5 35.4699 57.5C36.3099 57.5 37.1199 57.4 37.8499 57.23C37.8299 57.03 37.8099 56.81 37.7899 56.6C36.5099 56.9 35 56.97 33.45 56.67H33.4599Z" fill="black"/>
<path d="M33.1899 55.24C33.2299 55.46 33.2699 55.69 33.3099 55.9C33.9199 56 34.5199 56.05 35.0999 56.05C36.0299 56.05 36.9099 55.93 37.7099 55.72C37.6899 55.51 37.6699 55.3 37.6499 55.09C36.3499 55.43 34.7899 55.53 33.1799 55.24H33.1899Z" fill="black"/>
<path d="M32.8699 53.48C32.9099 53.7 32.9499 53.93 32.9899 54.15C33.6899 54.28 34.3899 54.34 35.0499 54.34C35.9399 54.34 36.7899 54.23 37.5599 54.04C37.5399 53.83 37.5299 53.62 37.4999 53.41C36.1499 53.75 34.5299 53.83 32.8599 53.48H32.8699Z" fill="black"/>
<path d="M32.6 51.88C32.63 52.1 32.67 52.32 32.71 52.55C33.41 52.68 34.09 52.74 34.75 52.74C35.71 52.74 36.62 52.62 37.43 52.4C37.41 52.19 37.39 51.97 37.37 51.76C36 52.14 34.33 52.24 32.6 51.88Z" fill="black"/>
<path d="M32.3099 50C32.3399 50.22 32.3699 50.44 32.4099 50.66C33.1399 50.8 33.8499 50.87 34.5499 50.87C35.5199 50.87 36.4399 50.74 37.2599 50.52C37.2399 50.31 37.22 50.09 37.2 49.88C35.8 50.27 34.0799 50.37 32.3099 50Z" fill="black"/>
<path d="M22.42 22.8C22.42 24.15 20.85 29.98 21.8 31.18C24.28 34.34 35.56 32.01 35.56 30.77C35.56 29.53 33.49 23.11 33.18 22.39C28.57 23.06 29.35 23.58 22.42 22.8Z" fill="#E31C24"/>
<path opacity="0.3" d="M18.28 46.33C18.28 46.33 18.24 46.31 18.22 46.31V46.27C18.22 46.27 18.26 46.31 18.28 46.33Z" fill="white"/>
<path d="M21.84 22.44C21.27 21.76 13.95 29.03 13 30.04C12.4 30.68 8.18997 35.64 7.72997 36.12C7.26997 36.6 6.16996 38.47 6.62996 39.14C7.08996 39.81 8.15996 40.63 8.68996 40.47C9.21996 40.31 10.9899 40.26 11.6099 36.89C11.6999 36.38 21.05 26.64 21.2 26.03C21.35 25.42 22.1099 22.79 21.8299 22.45L21.84 22.44Z" fill="#F5D6CB"/>
<path d="M22.73 22.49C20.94 20.68 16.39 23.34 15.72 24.2C15.05 25.06 14.76 25.65 15.49 25.83C16.21 26.01 16.89 25.44 16.94 26.55C16.99 27.66 16.84 27.97 17.64 27.95C18.44 27.92 18.36 28.55 18.93 29.61C19.5 30.67 20.64 29.58 21.18 28.89C21.38 28.63 21.74 27.21 22.24 26.17C22.47 24.59 22.37 23.84 22.73 22.5V22.49Z" fill="#BF0007"/>
<path d="M33.72 22.21C34.29 21.53 41.61 28.8 42.56 29.81C43.16 30.45 47.3699 35.41 47.8299 35.89C48.2899 36.37 49.3899 38.24 48.9299 38.91C48.4699 39.57 47.4 40.4 46.87 40.24C46.34 40.08 44.57 40.03 43.95 36.66C43.86 36.15 34.5099 26.41 34.3599 25.8C34.1999 25.19 33.45 22.56 33.73 22.22L33.72 22.21Z" fill="#F5D6CB"/>
<path d="M32.84 22.26C34.63 20.45 39.18 23.11 39.85 23.97C40.52 24.83 40.81 25.42 40.08 25.6C39.36 25.78 38.68 25.21 38.63 26.32C38.58 27.43 38.73 27.74 37.93 27.72C37.13 27.69 37.21 28.32 36.64 29.38C36.07 30.44 34.93 29.35 34.39 28.66C34.19 28.4 33.83 26.98 33.33 25.94C33.1 24.36 33.2 23.61 32.84 22.27V22.26Z" fill="#BF0007"/>
<path d="M37.22 15.76C37.22 21.1 32.86 23.57 27.49 23.57C22.12 23.57 17.76 21.1 17.76 15.76C17.76 10.42 22.12 6.08002 27.49 6.08002C32.86 6.08002 37.22 10.41 37.22 15.76Z" fill="#F5D6CB"/>
<path d="M22.5199 1.47998C21.2699 2.04998 21.6399 6.76997 23.2999 8.71997C26.0899 12.03 37.2199 11.64 37.3199 16.87C37.3499 18.21 42.7499 9.88003 35.5099 3.34003C31.0499 -0.689971 26.4799 -0.310017 22.5199 1.47998Z" fill="black"/>
<path d="M23.3999 6.44999C23.9699 12.25 19.0799 8.25997 17.2899 18.61C13.4099 8.51997 18.5799 2.45996 21.3299 1.78996C24.0799 1.11996 23.1599 4.01999 23.3999 6.44999Z" fill="black"/>
<path d="M24.8399 16.74C24.8399 17.54 24.1899 18.2 23.3799 18.2C22.5699 18.2 21.9199 17.55 21.9199 16.74C21.9199 15.93 22.5699 15.28 23.3799 15.28C24.1899 15.28 24.8399 15.93 24.8399 16.74Z" fill="#030704"/>
<path d="M24.4099 15.96C24.4099 16.16 24.2399 16.33 24.0399 16.33C23.8399 16.33 23.6699 16.16 23.6699 15.96C23.6699 15.76 23.8399 15.59 24.0399 15.59C24.2399 15.59 24.4099 15.76 24.4099 15.96Z" fill="white"/>
<path d="M20.65 17.03C20.65 17.03 20.77 17.01 20.93 17.02C21.09 17.02 21.29 17.01 21.51 16.92C21.95 16.76 22.22 16.44 22.28 16.49C22.31 16.51 22.28 16.62 22.18 16.77C22.07 16.92 21.88 17.09 21.61 17.19C21.34 17.29 21.07 17.28 20.89 17.22C20.71 17.16 20.63 17.07 20.65 17.04V17.03Z" fill="#202020"/>
<path d="M20.7099 17.82C20.7099 17.82 20.8199 17.77 20.9699 17.73C21.1199 17.69 21.3199 17.62 21.4999 17.48C21.8799 17.2 22.0499 16.83 22.1199 16.85C22.1599 16.85 22.1699 16.98 22.0999 17.15C22.0399 17.32 21.8999 17.54 21.6699 17.71C21.4399 17.88 21.1699 17.94 20.9899 17.93C20.7999 17.92 20.6999 17.85 20.7099 17.82Z" fill="#202020"/>
<path d="M30.71 16.87C30.71 17.67 31.36 18.33 32.17 18.33C32.98 18.33 33.63 17.68 33.63 16.87C33.63 16.06 32.98 15.41 32.17 15.41C31.36 15.41 30.71 16.06 30.71 16.87Z" fill="#030704"/>
<path d="M31.14 16.09C31.14 16.29 31.31 16.46 31.51 16.46C31.71 16.46 31.88 16.29 31.88 16.09C31.88 15.89 31.71 15.72 31.51 15.72C31.31 15.72 31.14 15.89 31.14 16.09Z" fill="white"/>
<path d="M34.8999 17.16C34.8999 17.16 34.8399 17.28 34.6599 17.34C34.4899 17.4 34.2099 17.42 33.9399 17.31C33.6699 17.21 33.4799 17.04 33.3699 16.89C33.2599 16.74 33.2399 16.63 33.2699 16.61C33.3399 16.57 33.5999 16.88 34.0399 17.04C34.2599 17.12 34.4599 17.14 34.6199 17.14C34.7699 17.14 34.8799 17.12 34.8999 17.15V17.16Z" fill="#202020"/>
<path d="M34.84 17.95C34.84 17.95 34.75 18.05 34.56 18.06C34.38 18.07 34.1 18.01 33.88 17.84C33.65 17.67 33.51 17.45 33.45 17.28C33.39 17.11 33.4 16.99 33.43 16.98C33.51 16.96 33.67 17.33 34.05 17.61C34.24 17.75 34.43 17.82 34.58 17.86C34.73 17.9 34.84 17.91 34.84 17.95Z" fill="#202020"/>
<path d="M29.4 20.87C29.4 20.87 29.34 21.06 29.15 21.3C29.05 21.42 28.93 21.55 28.77 21.69C28.61 21.82 28.4 21.95 28.13 21.99C27.86 22.03 27.6 21.93 27.43 21.79C27.26 21.66 27.14 21.51 27.05 21.38C26.88 21.13 26.81 20.95 26.84 20.93C26.87 20.91 27 21.04 27.21 21.25C27.41 21.44 27.72 21.76 28.1 21.7C28.29 21.67 28.47 21.5799 28.62 21.4699C28.77 21.3699 28.91 21.2499 29.02 21.1599C29.24 20.9699 29.38 20.84 29.41 20.87H29.4Z" fill="#FF4459"/>
<path d="M17.1734 45.7301C17.4137 44.7087 16.7805 43.6858 15.759 43.4455C14.7376 43.2051 13.7147 43.8383 13.4743 44.8598C13.234 45.8812 13.8673 46.9041 14.8887 47.1445C15.9102 47.3848 16.9331 46.7516 17.1734 45.7301Z" fill="#E31C24"/>
<path d="M20.1949 47.4183C20.4368 46.3972 19.8052 45.3734 18.7842 45.1314C17.7631 44.8895 16.7392 45.5211 16.4973 46.5422C16.2553 47.5633 16.887 48.5871 17.908 48.8291C18.9291 49.071 19.9529 48.4394 20.1949 47.4183Z" fill="#E31C24"/>
<path d="M23.54 47.7801C23.77 48.8001 23.13 49.82 22.1 50.05C21.08 50.28 20.06 49.64 19.83 48.61C19.6 47.59 20.24 46.5701 21.27 46.3401C22.29 46.1101 23.31 46.7501 23.54 47.7801Z" fill="#E31C24"/>
<path d="M27.1099 48.16C27.3399 49.18 26.6999 50.2 25.6699 50.43C24.6499 50.66 23.6299 50.02 23.3999 48.99C23.1699 47.97 23.8099 46.95 24.8399 46.72C25.8599 46.49 26.8799 47.13 27.1099 48.16Z" fill="#E31C24"/>
<path d="M30.6 48.47C30.83 49.49 30.19 50.51 29.16 50.74C28.14 50.97 27.12 50.33 26.89 49.3C26.66 48.28 27.3 47.2601 28.33 47.0301C29.35 46.8001 30.37 47.44 30.6 48.47Z" fill="#E31C24"/>
<path d="M33.1899 47.09C34.0999 47.62 34.4099 48.78 33.8899 49.69C33.3699 50.6 32.1999 50.91 31.2899 50.39C30.3799 49.86 30.0699 48.6999 30.5899 47.7899C31.1199 46.8799 32.2799 46.57 33.1899 47.09Z" fill="#E31C24"/>
<path d="M36.76 46.32C37.67 46.85 37.98 48.01 37.46 48.92C36.93 49.83 35.77 50.14 34.86 49.62C33.95 49.09 33.64 47.93 34.16 47.02C34.69 46.11 35.85 45.8 36.76 46.32Z" fill="#E31C24"/>
<path d="M40.3299 45.54C41.2399 46.07 41.5499 47.23 41.0299 48.14C40.5099 49.05 39.3399 49.36 38.4299 48.84C37.5199 48.31 37.2099 47.15 37.7299 46.24C38.2599 45.33 39.4199 45.02 40.3299 45.54Z" fill="#E31C24"/>
<path d="M43.4299 43.75C44.3399 44.28 44.6499 45.44 44.1299 46.35C43.6099 47.26 42.4399 47.57 41.5299 47.05C40.6199 46.52 40.3099 45.36 40.8299 44.45C41.3599 43.54 42.5199 43.23 43.4299 43.75Z" fill="#E31C24"/>
<path d="M32.25 48.52C31.52 48.55 24.9 48.62 24.9 48.62C22.3 48.89 14.19 46.14 13.93 43.55C13.77 41.9 19.39 32.09 21.56 30.77C22.15 30.41 25.44 33.25 35.45 30.61C36.4 30.36 42.26 38.84 43.29 43.49C43.72 45.41 34.42 48.4 32.24 48.51L32.25 48.52Z" fill="#BF0007"/>
<path d="M27.7099 48.89C18.4799 48.89 14.1699 45.17 13.7399 43.87C13.6899 43.71 13.77 43.53 13.94 43.48C14.1 43.43 14.2799 43.51 14.3299 43.68C14.5899 44.47 19.68 49.63 32.7 47.93C35.94 47.51 42.6399 44.86 42.9999 43.61C43.0499 43.45 43.22 43.35 43.38 43.4C43.54 43.45 43.6399 43.62 43.5899 43.78C43.0899 45.52 35.8599 48.14 32.7799 48.54C30.9499 48.78 29.2599 48.88 27.7099 48.88V48.89Z" fill="black"/>
</svg>
