<svg width="57" height="72" viewBox="0 0 57 72" fill="none" xmlns="http://www.w3.org/2000/svg">
<path d="M56.01 53.36C55.96 52.93 55.9 52.51 55.83 52.09C55.75 51.59 55.65 51.09 55.54 50.6C54.95 47.87 54.02 45.21 53.01 42.58C52.85 42.16 52.69 41.75 52.52 41.33C52.42 41.08 52.32 40.83 52.23 40.59C51.69 39.24 51.15 37.9 50.64 36.55C50.55 36.31 50.46 36.08 50.38 35.84C50.29 35.59 50.2 35.34 50.11 35.1C49.56 33.54 49.06 31.95 48.66 30.35C48.6 30.1 48.54 29.85 48.48 29.61C48.13 28.03 47.88 26.44 47.8 24.86C47.79 24.61 47.78 24.36 47.77 24.12C47.74 22.53 47.87 20.94 48.22 19.37C48.22 19.34 48.23 19.31 48.24 19.28C48.29 19.06 48.35 18.84 48.4 18.62C48.82 17.04 49.38 15.46 49.58 13.87C49.61 13.62 49.63 13.37 49.64 13.13C49.66 12.72 49.64 12.32 49.6 11.91C49.45 10.62 48.94 9.44001 48.21 8.38001C48.04 8.12001 47.85 7.88002 47.65 7.64002C46.76 6.55002 45.66 5.61 44.51 4.81C43.47 4.09 42.41 3.45002 41.33 2.89002C40.81 2.62002 40.29 2.38 39.76 2.15C35.14 0.150001 30.03 -0.429978 24 0.390022C22.07 0.650022 20.17 1.28 18.36 2.15C17.88 2.38 17.41 2.63002 16.94 2.89002C14.86 4.07002 12.94 5.54 11.26 7.12C11.08 7.29 10.91 7.46002 10.73 7.64002C10.5 7.88002 10.27 8.13001 10.05 8.38001C8.84001 9.79001 7.85002 11.41 7.19002 13.13C7.10002 13.38 7.01001 13.62 6.93001 13.87C6.43001 15.41 6.20001 17.02 6.30001 18.62C6.32001 18.87 6.34001 19.12 6.37001 19.36C6.40001 19.56 6.42001 19.75 6.46001 19.95C6.72001 21.37 7.25002 22.74 7.72002 24.12C7.81002 24.37 7.89002 24.62 7.97002 24.86C8.29002 25.84 8.55003 26.83 8.64003 27.86C8.69003 28.45 8.68003 29.03 8.63002 29.61C8.61002 29.86 8.58003 30.11 8.54003 30.35C8.27003 31.99 7.65003 33.58 6.85003 35.1C6.72003 35.35 6.59003 35.6 6.45003 35.84C6.05003 36.55 5.63003 37.24 5.20003 37.92C4.84003 38.48 4.48001 39.03 4.12001 39.59C3.86001 39.99 3.61 40.38 3.36 40.78C2.03 42.91 0.860012 45.12 0.430012 47.57C0.390012 47.78 0.360016 47.99 0.340016 48.21C0.250016 48.98 0.230009 49.75 0.270009 50.52C0.350009 52.11 0.680015 53.7 1.12001 55.26C1.33001 55.98 1.55003 56.7 1.79003 57.41C2.34003 59.04 2.99003 60.68 3.89003 62.13C4.39003 62.93 4.96001 63.68 5.65001 64.34C6.56001 65.21 7.62003 65.88 8.76003 66.39V71.43H48.7V68.21C50.43 67.68 52.04 66.63 53.22 65.25C53.34 65.11 53.45 64.98 53.56 64.83C54.89 63.08 55.64 61 55.97 58.82C56.24 57.02 56.23 55.16 56.02 53.37L56.01 53.36Z" fill="#CAD2A2"/>
<path d="M16.96 11.31V52.32V52.59H40.4799V11.31H16.96Z" fill="#965016"/>
<path d="M37.79 14.14L37.85 14.08L37.79 14.03L37.73 13.97L37.6801 14.03H19.7601L19.7101 13.97L19.5901 14.08L19.6501 14.14V52.57L19.6301 52.59H37.8201L37.8 52.57V14.14H37.79Z" fill="#DB853E"/>
<path d="M45.15 62.17V60.68V57.82L44.11 56.65L43.62 56.1L43.39 55.84L42.86 55.25L42.17 54.48L41.65 53.9L41.42 53.65L40.48 52.59H38.44H37.82H37.59H19.85H19.63H19H16.96L16.02 53.65L15.79 53.9L15.27 54.48L14.05 55.84L13.83 56.1L13.33 56.65L12.78 57.27L12.29 57.82V60.68V62.17H12.3L8.75 66.13V66.37V69.81V71.42H48.69V69.81V68.2V66.13L45.15 62.17Z" fill="#D1915A"/>
<path d="M56.0101 53.36C55.9601 52.93 55.9001 52.51 55.8301 52.09C55.7501 51.59 55.6501 51.09 55.5401 50.6C54.9501 47.87 54.0201 45.21 53.0101 42.58C52.8501 42.16 52.6901 41.75 52.5201 41.33C52.1301 41.39 51.7401 41.5 51.3801 41.67C50.8301 41.93 50.3101 42.34 50.1301 42.92C50.1001 43.02 50.0801 43.14 50.0801 43.25C49.4101 42.56 48.4501 42.13 47.4801 42.16C46.0501 42.2 44.7101 43.21 44.2701 44.58C44.1201 45.07 44.08 45.59 44.16 46.09C44.2 46.34 44.2601 46.59 44.3501 46.83C44.5001 47.22 44.7101 47.59 44.9801 47.9C44.5201 47.63 43.9301 47.58 43.4201 47.78C42.6901 48.07 42.1901 48.8 42.0701 49.58C41.9601 50.26 42.11 50.96 42.41 51.59C42.45 51.67 42.4901 51.76 42.5401 51.84C42.6401 52.01 42.7401 52.18 42.8601 52.33C43.0801 52.63 43.3501 52.91 43.6301 53.15C43.5101 53.19 43.4001 53.25 43.3001 53.33C42.7201 53.75 42.5501 54.61 42.8401 55.26L43.3701 55.85L43.6001 56.1L44.1001 56.66L45.1401 57.82V62.17L48.6801 66.13V68.2C50.4101 67.67 52.0201 66.62 53.2001 65.24C53.3201 65.1 53.4301 64.97 53.5401 64.82C54.8701 63.07 55.6201 60.99 55.9501 58.81C56.2201 57.01 56.2101 55.15 56.0001 53.36H56.0101Z" fill="#2A966A"/>
<path d="M14.23 46.82C14.04 46.64 13.82 46.49 13.57 46.39C13.04 46.18 12.4 46.24 11.91 46.52C12.03 46.38 12.14 46.23 12.23 46.08C12.8 45.17 12.99 44.01 12.66 42.98C12.46 42.34 12.06 41.77 11.55 41.33C11.16 41 10.71 40.74 10.23 40.59C9.91003 40.49 9.59002 40.43 9.25002 40.42C8.85002 40.41 8.46001 40.47 8.08001 40.59C7.59001 40.75 7.14002 41 6.75002 41.33C6.66002 41.41 6.57001 41.49 6.49001 41.58C6.49001 41.5 6.48001 41.41 6.46001 41.33C6.46001 41.3 6.45002 41.26 6.44002 41.23C6.36002 40.99 6.23002 40.77 6.06002 40.59C5.80002 40.3 5.46 40.07 5.11 39.91C4.79 39.76 4.46001 39.66 4.12001 39.59C3.86001 39.99 3.61 40.38 3.36 40.78C2.03 42.91 0.860012 45.12 0.430012 47.57C0.390012 47.78 0.360016 47.99 0.340016 48.21C0.250016 48.98 0.230009 49.75 0.270009 50.52C0.350009 52.11 0.680015 53.7 1.12001 55.26C1.33001 55.98 1.55003 56.7 1.79003 57.41C2.34003 59.04 2.99003 60.68 3.89003 62.13C4.39003 62.93 4.96001 63.68 5.65001 64.34C6.56001 65.21 7.62003 65.88 8.76003 66.39V66.15L12.3 62.19V57.84L12.79 57.29C12.71 57.23 12.62 57.17 12.53 57.13C12.81 56.82 12.98 56.41 12.97 55.96C12.94 55.08 12.22 54.39 11.35 54.38C11.78 54.03 12.05 53.48 12.05 52.93C12.41 52.77 12.76 52.57 13.07 52.34C13.37 52.12 13.64 51.87 13.89 51.6C14.13 51.33 14.34 51.04 14.51 50.73C14.92 50 15.14 49.15 15.01 48.33C14.92 47.77 14.64 47.24 14.24 46.85L14.23 46.82Z" fill="#2A966A"/>
<path d="M39.77 2.10001H18.38C17.9 2.33001 17.43 2.58 16.96 2.84H41.34C40.82 2.57 40.3 2.33001 39.77 2.10001Z" fill="#BCC783"/>
<path d="M47.66 7.59H10.7501C10.5201 7.83 10.2901 8.07999 10.0701 8.32999H48.22C48.05 8.06999 47.86 7.83 47.66 7.59Z" fill="#BCC783"/>
<path d="M16.9601 13.09H7.20007C7.11007 13.34 7.02006 13.58 6.94006 13.83H16.9601V13.09Z" fill="#BCC783"/>
<path d="M40.48 13.84H49.59C49.62 13.59 49.64 13.34 49.65 13.1H40.48V13.84Z" fill="#BCC783"/>
<path d="M40.48 19.33H48.23C48.23 19.33 48.24 19.27 48.25 19.24C48.3 19.02 48.36 18.8 48.41 18.58H40.48V19.32V19.33Z" fill="#BCC783"/>
<path d="M16.9601 18.59H6.31006C6.33006 18.84 6.35007 19.09 6.38007 19.33H16.9601V18.59Z" fill="#BCC783"/>
<path d="M40.48 24.83H47.8C47.79 24.58 47.78 24.33 47.77 24.09H40.47V24.83H40.48Z" fill="#BCC783"/>
<path d="M16.96 24.09H7.72998C7.81998 24.34 7.89998 24.59 7.97998 24.83H16.96V24.09Z" fill="#BCC783"/>
<path d="M16.9601 29.58H8.64008C8.62008 29.83 8.59005 30.08 8.55005 30.32H16.9701V29.58H16.9601Z" fill="#BCC783"/>
<path d="M40.48 30.33H48.66C48.6 30.08 48.54 29.83 48.48 29.59H40.48V30.33Z" fill="#BCC783"/>
<path d="M16.96 35.08H6.85995C6.72995 35.33 6.59996 35.58 6.45996 35.82H16.96V35.08Z" fill="#BCC783"/>
<path d="M40.48 35.83H50.38C50.29 35.58 50.2 35.33 50.11 35.09H40.48V35.83Z" fill="#BCC783"/>
<path d="M16.96 40.58H10.24C10.72 40.74 11.18 40.99 11.56 41.32H16.96V40.58Z" fill="#BCC783"/>
<path d="M6.44006 41.22C6.44006 41.22 6.46005 41.29 6.46005 41.32H6.75006C7.14006 40.99 7.59005 40.73 8.08005 40.58H6.06006C6.23006 40.77 6.36006 40.98 6.44006 41.22Z" fill="#BCC783"/>
<path d="M40.48 41.32H52.52C52.42 41.07 52.32 40.82 52.23 40.58H40.48V41.32Z" fill="#BCC783"/>
<path d="M40.48 46.82H44.36C44.27 46.58 44.2 46.33 44.17 46.08H40.48V46.82Z" fill="#BCC783"/>
<path d="M16.96 46.08H12.24C12.14 46.23 12.04 46.38 11.92 46.52C12.41 46.24 13.04 46.18 13.58 46.39C13.83 46.49 14.05 46.64 14.24 46.82H16.97V46.08H16.96Z" fill="#BCC783"/>
<path d="M40.48 52.32H42.87C42.75 52.16 42.65 52 42.55 51.83C42.5 51.75 42.46 51.67 42.42 51.58H40.48V52.32Z" fill="#BCC783"/>
<path d="M16.9601 51.57H13.8801C13.6301 51.85 13.3601 52.1 13.0601 52.31H16.9601V51.57Z" fill="#BCC783"/>
<path d="M53.04 43.61C52.35 43.65 51.8301 44.31 51.7101 44.99C51.5901 45.67 51.7801 46.36 51.9501 47.02C52.1301 47.69 52.2901 48.38 52.1401 49.06C52.0601 49.41 51.96 49.74 51.86 50.06C51.99 50.1 52.12 50.16 52.24 50.25C52.14 49.91 52.39 49.53 52.72 49.39C53.05 49.24 53.4301 49.28 53.7801 49.36C54.1501 49.44 54.52 49.58 54.79 49.84C55.07 50.1 55.1701 50.57 55.0901 50.94C55.2101 50.79 55.37 50.69 55.54 50.62C54.95 47.89 54.0201 45.23 53.0101 42.6C52.9701 42.94 52.98 43.29 53.04 43.63V43.61Z" fill="#11794F"/>
<path d="M49.2801 49.05C49.8701 48.56 50.0201 47.71 49.9601 46.95C49.8201 45.23 48.24 43.46 46.37 44.25C44.71 44.95 45.66 47.86 46.62 48.78C47.32 49.46 48.54 49.68 49.29 49.05H49.2801Z" fill="#2CA574"/>
<path d="M51.31 63.38C51.21 62.91 50.9501 62.48 50.5301 62.25C49.9901 61.95 49.57 61.43 49.43 60.82C49.34 60.41 49.3401 59.96 49.4501 59.56C49.6001 58.97 49.45 58.35 49.04 57.9C48.95 57.8 48.8701 57.68 48.8201 57.56C48.7101 57.32 48.6801 57.05 48.7101 56.77C48.7701 56.18 48.5801 55.59 48.1401 55.2C47.7701 54.87 47.4701 54.47 47.2701 54.01C47.0501 53.52 46.96 52.97 46.99 52.44C47.01 52.14 46.9501 51.85 46.8401 51.59C46.5401 51.62 46.2401 51.74 46.0201 51.94C45.5001 52.39 45.3801 52.9 45.4501 53.58C45.0301 53.08 44.27 52.92 43.66 53.15C43.54 53.19 43.4301 53.25 43.3301 53.33C42.7501 53.75 42.58 54.61 42.87 55.26L43.4001 55.85L43.6301 56.1L44.1301 56.66L45.17 57.82V62.17L48.7101 66.13V68.2C50.4401 67.67 52.05 66.62 53.23 65.24C53.03 65.21 52.8401 65.15 52.6501 65.06C52.0301 64.73 51.4701 64.07 51.3301 63.38H51.31Z" fill="#25815C"/>
<path d="M55.8301 52.09C55.4801 52.09 55.08 52.25 54.99 52.55C54.88 52.17 54.44 51.95 54.06 52.04C53.68 52.13 53.39 52.48 53.31 52.86C53.24 53.24 53.3601 53.65 53.5901 53.97C53.8201 54.29 54.17 54.59 54.56 54.6C54.22 55 54.1301 55.59 54.3301 56.08C54.5301 56.56 54.8801 56.93 55.4001 56.97C55.2201 57.39 55.2501 57.89 55.4601 58.29C55.5801 58.51 55.75 58.69 55.95 58.83C56.22 57.03 56.21 55.17 56 53.38C55.95 52.95 55.89 52.53 55.82 52.11L55.8301 52.09Z" fill="#2CA574"/>
<path d="M2.86008 46.84C3.73008 46.98 4.4201 47.85 4.3501 48.73C4.4001 48.67 4.4501 48.61 4.5101 48.55C4.4301 48.29 4.3501 48.03 4.2901 47.76C4.1301 47.05 4.31008 46.3 4.49008 45.59C4.68008 44.88 4.87009 44.15 4.75009 43.43C4.62009 42.71 4.07009 42 3.34009 41.96C3.41009 41.57 3.42008 41.16 3.36008 40.77C2.03008 42.9 0.860084 45.11 0.430084 47.56C0.390084 47.77 0.360088 47.98 0.340088 48.2C0.530088 48.19 0.710106 48.2 0.890106 48.24C1.09011 47.38 1.99008 46.71 2.86008 46.85V46.84Z" fill="#11794F"/>
<path d="M10.1901 47.46C11.2001 46.48 12.2201 43.39 10.4501 42.64C8.46008 41.8 6.78007 43.69 6.63007 45.51C6.56007 46.32 6.73007 47.22 7.35007 47.75C8.15007 48.42 9.44007 48.18 10.1901 47.46Z" fill="#2CA574"/>
<path d="M12.3 62.17V57.82L12.79 57.27C12.71 57.21 12.62 57.15 12.53 57.11C12.81 56.8 12.98 56.39 12.97 55.94C12.94 55.06 12.22 54.37 11.35 54.36C11.78 54.01 12.05 53.46 12.05 52.91C12.05 52.83 12.05 52.74 12.03 52.66C11.91 51.83 11.37 50.95 10.53 50.89C10.87 50.67 10.94 50.17 10.77 49.81C10.6 49.44 10.25 49.19 9.90002 49C9.52002 48.8 9.11003 48.64 8.69003 48.65C8.26003 48.66 7.82003 48.99 7.62003 49.36C7.64003 48.58 6.90004 47.93 6.13004 47.87C5.88004 47.85 5.67003 47.87 5.47003 47.93C5.47003 48.33 5.58004 48.73 5.82004 49.1C6.12004 49.56 6.32005 50.1 6.39005 50.64C6.47005 51.26 6.83004 51.83 7.38004 52.13C7.82004 52.37 8.19004 52.76 8.38004 53.22C8.57004 53.69 8.58002 54.18 8.43002 54.63C8.24002 55.2 8.29002 55.8 8.58002 56.33C8.95002 56.99 9.01002 57.84 8.65002 58.51C8.28002 59.21 7.53004 59.84 6.76004 60C6.23004 60.11 5.75002 60.41 5.49002 60.88C5.16002 61.48 4.58003 61.94 3.91003 62.1C4.41003 62.9 4.98004 63.65 5.67004 64.31C6.58004 65.18 7.64003 65.85 8.78003 66.36V66.12L12.32 62.16L12.3 62.17Z" fill="#25815C"/>
<path d="M1.87 54.13C1.94 53.76 1.74 53.18 1.41 52.98C1.74 52.67 2.08 52.34 2.25 51.92C2.42 51.5 2.37001 50.95 2.01001 50.67C1.66001 50.4 0.979993 50.47 0.679993 50.79C0.559993 50.66 0.42001 50.57 0.26001 50.5C0.34001 52.09 0.669985 53.68 1.10999 55.24C1.48999 54.99 1.76999 54.58 1.85999 54.12L1.87 54.13Z" fill="#2CA574"/>
<path d="M8.75 66.13H48.69L45.15 62.17H12.3L8.75 66.13Z" fill="#EDB788"/>
<path d="M19.65 52.57V14.14L19.59 14.08L19.71 13.97L19.76 14.02H37.68L37.73 13.97L37.79 14.02L37.85 14.08L37.79 14.14V52.57L37.82 52.59H38.44V13.37H19V52.59H19.63L19.65 52.57Z" fill="#683812"/>
<path d="M25.5 28.77V49.39H25.66V28.88C25.61 28.84 25.55 28.8 25.5 28.77Z" fill="#B76724"/>
<path d="M28.8 29.82V49.4H28.9601V29.81C28.9101 29.81 28.85 29.81 28.8 29.81V29.82Z" fill="#B76724"/>
<path d="M32.1 28.65V49.4H32.26V28.52C32.21 28.56 32.15 28.61 32.1 28.65Z" fill="#B76724"/>
<path d="M34.69 17.31V49.4H32.26H32.1H28.96H28.8H25.66H25.5H22.75V49.56H34.74L34.71 49.53L34.83 49.42L34.85 49.45V17.31H34.69Z" fill="#F7AC5E"/>
<path d="M22.75 49.56V17.31H25.5V19.9C25.55 19.86 25.61 19.82 25.66 19.79V17.32H28.8V18.86C28.85 18.86 28.91 18.86 28.96 18.86V17.31H32.1V20.02C32.15 20.06 32.21 20.11 32.26 20.15V17.31H34.86V17.25L37.79 14.13L37.85 14.07L37.79 14.02L37.73 13.96L37.68 14.02L34.74 17.15H22.71L19.77 14.02L19.72 13.96L19.6 14.07L19.66 14.13L22.6 17.25V49.43L19.66 52.55L19.64 52.57H19.86L22.71 49.54H22.76L22.75 49.56Z" fill="#B76724"/>
<path d="M34.85 49.45L34.8301 49.42L34.7101 49.53L34.7401 49.56L37.5901 52.59H37.8201L37.79 52.57L34.85 49.45Z" fill="#B76724"/>
<path d="M23.24 24.34C23.24 26.17 24.13 27.78 25.51 28.78C25.56 28.82 25.62 28.86 25.67 28.89C26.54 29.48 27.59 29.82 28.73 29.82C28.76 29.82 28.78 29.82 28.81 29.82C28.86 29.82 28.92 29.82 28.97 29.82C30.15 29.77 31.23 29.34 32.11 28.66C32.16 28.62 32.22 28.57 32.27 28.53C33.46 27.52 34.21 26.02 34.21 24.34C34.21 22.66 33.45 21.16 32.27 20.15C32.22 20.11 32.16 20.06 32.11 20.02C31.24 19.34 30.15 18.91 28.97 18.86C28.92 18.86 28.86 18.86 28.81 18.86C28.78 18.86 28.76 18.86 28.73 18.86C27.6 18.86 26.55 19.2 25.67 19.79C25.62 19.83 25.56 19.87 25.51 19.9C24.14 20.9 23.24 22.51 23.24 24.34ZM25.94 27.72C25.23 27.13 24.71 26.33 24.48 25.41C24.43 25.23 24.4 25.04 24.38 24.86H28.21V28.69C27.91 28.66 27.62 28.59 27.34 28.5C26.82 28.33 26.35 28.07 25.94 27.73V27.72ZM32.88 25.68C32.36 27.28 30.95 28.48 29.23 28.68V24.85H33.06C33.03 25.14 32.97 25.41 32.88 25.68ZM31.23 20.76C31.99 21.29 32.57 22.06 32.86 22.95C32.95 23.23 33.02 23.52 33.06 23.82H29.23V19.99C29.52 20.02 29.81 20.09 30.08 20.18C30.49 20.32 30.88 20.51 31.23 20.76ZM28.21 19.99V23.82H24.38C24.41 23.53 24.48 23.24 24.57 22.97C25.09 21.38 26.5 20.18 28.22 19.99H28.21Z" fill="#683812"/>
<path d="M24.38 24.85C24.4 25.04 24.44 25.22 24.48 25.4C24.71 26.32 25.23 27.13 25.94 27.71C26.35 28.05 26.83 28.31 27.34 28.48C27.62 28.57 27.91 28.64 28.21 28.67V24.84H24.38V24.85Z" fill="#BFE3EE"/>
<path d="M24.56 22.98C24.47 23.25 24.41 23.54 24.37 23.83H28.2V20C26.48 20.2 25.07 21.39 24.55 22.98H24.56Z" fill="#BFE3EE"/>
<path d="M30.11 24.85H29.23V28.68C30.95 28.48 32.37 27.28 32.88 25.68C32.97 25.41 33.03 25.14 33.06 24.85H30.11Z" fill="#BFE3EE"/>
<path d="M33.06 23.83C33.02 23.53 32.96 23.24 32.86 22.96C32.56 22.07 31.98 21.3 31.23 20.77C30.88 20.52 30.49 20.33 30.08 20.19C29.81 20.1 29.52 20.04 29.23 20V23.83H33.06Z" fill="#BFE3EE"/>
<path d="M29.23 24.85V25.45L30.11 24.85H29.23Z" fill="#E3F3FA"/>
<path d="M28.21 23.83V22.84L26.77 23.83H28.21Z" fill="#E3F3FA"/>
<path d="M29.23 23.83H31.59L32.86 22.96C32.56 22.07 31.98 21.3 31.23 20.77L29.23 22.15V23.84V23.83Z" fill="#E3F3FA"/>
<path d="M28.21 24.85H25.29L24.48 25.4C24.71 26.32 25.23 27.13 25.94 27.71L28.21 26.15V24.84V24.85Z" fill="#E3F3FA"/>
<path d="M29.23 20.77L30.08 20.18C29.81 20.09 29.52 20.03 29.23 19.99V20.76V20.77Z" fill="#E3F3FA"/>
<path d="M24.38 23.83H24.78L28.21 21.47V20.47L24.56 22.98C24.47 23.25 24.41 23.54 24.37 23.83H24.38Z" fill="#E3F3FA"/>
<path d="M28.2101 27.89L27.3401 28.49C27.6201 28.58 27.9101 28.65 28.2101 28.68V27.89Z" fill="#E3F3FA"/>
<path d="M29.23 27.19V28.19L32.88 25.68C32.97 25.41 33.03 25.14 33.06 24.85H32.64L29.23 27.19Z" fill="#E3F3FA"/>
<path d="M21.13 32.41C21.35 32.41 21.52 32.58 21.52 32.8V33.55C21.81 33.41 22.01 33.11 22.01 32.76C22.01 32.27 21.61 31.88 21.13 31.88C20.65 31.88 20.25 32.28 20.25 32.76C20.25 33.11 20.45 33.4 20.74 33.55V32.8C20.74 32.58 20.91 32.41 21.13 32.41Z" fill="#C66A1C"/>
<path d="M21.13 38.77C20.91 38.77 20.74 38.6 20.74 38.38V37.67C20.45 37.81 20.25 38.11 20.25 38.46C20.25 38.95 20.65 39.34 21.13 39.34C21.61 39.34 22.01 38.94 22.01 38.46C22.01 38.11 21.81 37.82 21.52 37.67V38.38C21.52 38.6 21.35 38.77 21.13 38.77Z" fill="#C66A1C"/>
<path d="M21.52 32.8C21.52 32.58 21.35 32.41 21.13 32.41C20.91 32.41 20.74 32.58 20.74 32.8V38.38C20.74 38.6 20.91 38.77 21.13 38.77C21.35 38.77 21.52 38.6 21.52 38.38V32.8Z" fill="#683812"/>
<path d="M37.82 52.59H37.5901H19.85H19.63H19H16.96L16.02 53.65H41.42L40.48 52.59H38.44H37.82Z" fill="#EDB788"/>
<path d="M15.2701 54.48L14.05 55.84H43.3901L42.86 55.25L42.17 54.48H15.2701Z" fill="#EDB788"/>
<path d="M12.78 57.27L12.29 57.82H45.1501L44.11 56.65H13.33L12.78 57.27Z" fill="#EDB788"/>
<path d="M13.3301 56.65H44.1101L43.6201 56.1H13.8301L13.3301 56.65Z" fill="#E0A36B"/>
<path d="M13.8301 56.1H43.6201L43.3901 55.84H14.0501L13.8301 56.1Z" fill="#B27238"/>
<path d="M15.27 54.48H42.17L41.6501 53.9H15.79L15.27 54.48Z" fill="#E0A36B"/>
<path d="M15.79 53.9H41.6501L41.42 53.65H16.02L15.79 53.9Z" fill="#B27238"/>
<path d="M12.29 62.17H12.3H45.1501V60.68H12.29V62.17Z" fill="#C4834A"/>
<path d="M48.69 69.81H8.75V71.42H48.69V69.81Z" fill="#C4834A"/>
</svg>
