<svg width="49" height="66" viewBox="0 0 49 66" fill="none" xmlns="http://www.w3.org/2000/svg">
<path d="M16.25 0.679977L18.24 0.0999756C18.24 0.0999756 21.2 2.62997 24.68 2.30997C28.16 1.99997 30.86 0.429977 30.86 0.429977L34.05 1.20998C34.05 1.20998 29.24 13.69 25.16 12.55C21.07 11.41 16.27 0.669975 16.27 0.669975L16.25 0.679977Z" fill="#C61937"/>
<path d="M14.7301 11.15C14.7301 11.15 14.8001 14.32 15.1601 15.26C15.5201 16.2 16.1701 17.93 16.1701 17.93L16.9601 23.91H31.8101L32.4601 17.53C32.4601 17.53 33.7601 14.47 33.7601 13.53V10.61C33.7601 10.38 33.7701 10.16 33.7901 9.92997C33.9401 8.38997 34.6801 2.57997 35.3501 1.53997L30.8501 0.42997C30.8501 0.42997 28.2801 8.66997 23.7401 7.70997C19.2001 6.74997 18.2401 0.0899658 18.2401 0.0899658L13.3901 1.50997C13.3901 1.50997 15.8201 9.12997 14.7401 11.14L14.7301 11.15Z" fill="#FF1900"/>
<path d="M16.9701 23.91H31.8201C31.8201 23.91 40.8501 35.25 44.8901 48.03C48.9301 60.81 48.5401 61.77 48.5401 61.77C48.5401 61.77 37.68 67.25 28.55 65.23C19.42 63.21 6.84006 67.53 0.810059 61.5C0.810059 61.5 9.79006 31.09 16.9701 23.91Z" fill="#FF1D3B"/>
<g style="mix-blend-mode:multiply" opacity="0.78">
<path d="M37.8901 65.21C41.1601 64.63 44.0801 63.63 46.0301 62.86C43.7101 54.73 34.9201 28.68 31.8101 26.93C31.8101 26.93 36.6301 53.2 37.8901 65.2V65.21Z" fill="#C61937"/>
</g>
<g style="mix-blend-mode:multiply" opacity="0.78">
<path d="M28.79 26.0699C28.79 26.0699 36.57 56.6299 31.82 59.2199C27.06 61.8099 28.79 26.0699 28.79 26.0699Z" fill="#C61937"/>
</g>
<g style="mix-blend-mode:multiply" opacity="0.78">
<path d="M5.2301 64.04C8.8401 65.13 13.3001 64.9 17.8001 64.74C17.5001 50.36 20.8601 25.21 20.8601 25.21C13.3501 29.44 7.7101 52.21 5.2301 64.04Z" fill="#C61937"/>
</g>
<g style="mix-blend-mode:multiply" opacity="0.78">
<path d="M24.4601 26.0699C24.4601 26.0699 20.2801 51.1499 23.3101 51.1499C26.3401 51.1499 24.4601 26.0699 24.4601 26.0699Z" fill="#C61937"/>
</g>
<g style="mix-blend-mode:multiply" opacity="0.78">
<path d="M21.4501 22.3C17.6801 20.42 16.6001 6.95997 14.4401 1.21997L13.3801 1.52997C13.3801 1.52997 15.8101 9.14997 14.7301 11.16C14.7301 11.16 14.8001 14.33 15.1601 15.27C15.5201 16.21 16.1701 17.94 16.1701 17.94L16.9601 23.92H31.8101L31.9901 22.18C30.2901 22.85 24.7601 23.95 21.4601 22.31L21.4501 22.3Z" fill="#C61937"/>
</g>
<path d="M24.36 24.6C20.07 24.6 17.31 24.27 16.67 24.01L16.76 23.25C17.25 23.45 20.07 23.85 24.36 23.85C28.65 23.85 31.74 23.31 32 23.24L31.98 24.01C31.7 24.09 28.71 24.61 24.36 24.61V24.6Z" fill="#4B314C"/>
<path d="M25.5001 24.22C25.5001 24.36 25.4601 24.48 25.4001 24.59C25.2201 24.59 25.0401 24.59 24.8501 24.59C24.7001 24.59 24.5501 24.59 24.4101 24.59C24.3501 24.59 24.2801 24.59 24.2201 24.59C22.4701 24.54 21.1801 24.3 20.5801 24.08C20.4101 24.02 20.3101 23.83 20.3601 23.66C20.4101 23.45 20.6201 23.34 20.8201 23.4C21.4101 23.58 22.6001 23.79 24.2301 23.84C24.2901 23.84 24.3501 23.84 24.4101 23.84C24.5501 23.84 24.7001 23.84 24.8401 23.84C25.0201 23.84 25.2101 23.84 25.3801 23.84C25.4501 23.95 25.4901 24.08 25.4901 24.22H25.5001Z" fill="#745075"/>
<path d="M25.3201 24.59C24.0701 24.63 21.7501 24.51 20.5901 24.08C20.4201 24.02 20.3201 23.84 20.3701 23.66C20.4101 23.49 20.5601 23.38 20.7201 23.38C20.7601 23.38 20.7901 23.38 20.8301 23.4C22.0401 23.77 23.9901 23.87 25.3201 23.84C25.5601 24.05 25.5801 24.34 25.3301 24.59H25.3201Z" fill="#745075"/>
<path d="M25.64 24.58C25.2 25.32 23.73 25.33 23.28 24.59C23.4 24.59 23.47 24.59 23.61 24.59C23.8 24.77 24.11 24.88 24.46 24.88C25.03 24.88 25.29 24.59 25.32 24.58C25.98 23.86 24.46 23.13 23.66 23.8C23.55 23.8 23.43 23.8 23.32 23.78C23.54 23.49 23.97 23.29 24.46 23.29C25.4 23.29 26 23.99 25.64 24.57V24.58Z" fill="#FFCE00"/>
<path d="M25.5001 24.22C25.5001 24.27 25.4601 24.32 25.4001 24.32C25.3401 24.32 25.3 24.28 25.3 24.22C25.3 24.16 25.3401 24.12 25.4001 24.12C25.4601 24.12 25.5001 24.16 25.5001 24.22Z" fill="#3C233D"/>
<path d="M25.58 24.32H25.4101C25.3601 24.32 25.3201 24.28 25.3201 24.23C25.3201 24.18 25.3601 24.14 25.4101 24.14H25.58C25.63 24.14 25.6701 24.18 25.6701 24.23C25.6701 24.28 25.63 24.32 25.58 24.32Z" fill="#FFD15F"/>
<path d="M25.6701 24.2C25.6701 24.2 25.6201 24.27 25.5801 24.27H25.3301C25.3301 24.27 25.3701 24.32 25.4101 24.32H25.5801C25.6301 24.32 25.6701 24.28 25.6701 24.23V24.21V24.2Z" fill="#FF875F"/>
<path d="M23.8 23.56C24.51 23.27 25.1301 23.43 25.4801 23.77C25.5401 23.83 25.4501 23.92 25.3901 23.86C25.1001 23.53 24.5201 23.33 23.8101 23.56H23.8Z" fill="#FFF983"/>
<path d="M23.8 24.97C24.52 25.25 25.1301 25.09 25.4801 24.74C25.5401 24.68 25.4501 24.59 25.3901 24.65C25.1101 24.99 24.5301 25.19 23.8101 24.96L23.8 24.97Z" fill="#FFF983"/>
<g style="mix-blend-mode:screen" opacity="0.24">
<path d="M21.8601 9.24995C19.7801 9.52995 18.5701 11.78 19.5101 13.66C19.5201 13.69 19.5401 13.7099 19.5501 13.7399C20.9901 16.4999 29.8601 18.3799 31.8101 15.4299C33.6801 12.5899 34.6301 7.52995 21.8601 9.23995V9.24995Z" fill="#FFA18B"/>
</g>
</svg>
