<svg version="1.2" xmlns="http://www.w3.org/2000/svg" viewBox="0 0 47 58" width="47" height="58">
	<title>&lt;Group&gt;</title>
	<style>
		.s0 { fill: #bdab90 } 
		.s1 { fill: #ed7201 } 
		.s2 { fill: #f6a500 } 
		.s3 { fill: #f4ebe7 } 
		.s4 { fill: #e2d1c1 } 
		.s5 { fill: #573b36 } 
		.s6 { fill: #018d49 } 
		.s7 { fill: #6f2126 } 
		.s8 { fill: #e84f2c } 
		.s9 { fill: #876f62 } 
	</style>
	<g id="&lt;Group&gt;">
		<g id="&lt;Group&gt;">
			<g id="&lt;Group&gt;">
				<path id="&lt;Path&gt;" class="s0" d="m9.9 25.4c1.8-3.1 6.2-3.7 11.7-0.2 5.4 3.4 10.2 0.2 10.6 1.2 0.3 1.1-2.3 2.7-4 3 2.3 0.1 4.4-0.8 4.9-0.1 0.4 0.7-2.5 3.1-5.2 3.1 1.3 0.8 3.8-0.1 3.8 0.6 0.1 0.8-3.1 2-5.3 1.5 0.6 1 2.7 1.4 2.4 1.9-0.4 0.4-5.7 0.5-6.5-0.3 1.1 1 3 1.3 2.5 1.8-0.5 0.5-9 1.3-13.2-3.7-1.6-1.9-3.5-5.6-1.7-8.8z"/>
			</g>
			<g id="&lt;Group&gt;">
				<g id="&lt;Group&gt;">
					<path id="&lt;Path&gt;" class="s1" d="m8.3 43.3c2.3 2.1 2.7 3.6 1.6 3.9-1 0.3-6.7 0.1-9.1-0.7 0.7-0.5 1.3-3.9-0.2-4.7 1-0.1 2.1-1.9 1.4-2.8 0 0 4 2.3 6.3 4.3z"/>
				</g>
				<g id="&lt;Group&gt;">
					<path id="&lt;Path&gt;" class="s2" d="m15.9 41.7l-4.7 4.7c0 0 0.6 1.4-1.3 1.7-2 0.4-9.1-1.1-9.3-1.6-0.2-0.6 8.2 1.4 8.4 0.1 0.2-1.2-8.5-4.4-8.5-4.9-0.1-0.6 7.7 3.8 8.2 3 0.8-1.2-7-5.4-6.9-5.8 0-0.2 4.2 2 8.4 5.4 0.5-0.4 5-4.1 5-4.1z"/>
				</g>
			</g>
			<g id="&lt;Group&gt;">
				<g id="&lt;Group&gt;">
					<path id="&lt;Path&gt;" class="s1" d="m33.3 49.2c2.3-2.1 3.9-2.2 4-1.1 0.2 1-0.7 6.6-1.8 8.9-0.4-0.8-3.7-1.8-4.7-0.4 0-1-1.6-2.3-2.7-1.7 0 0 2.8-3.7 5.2-5.7z"/>
				</g>
				<g id="&lt;Group&gt;">
					<path id="&lt;Path&gt;" class="s2" d="m30.1 39.1l6.6 7.6c0 0 1.5-0.4 1.5 1.5 0.1 2.1-2.2 8.8-2.8 9-0.6 0.1 2.5-7.9 1.3-8.3-1.2-0.4-5.5 7.8-6.1 7.8-0.5 0 4.8-7.1 4.1-7.8-1.1-0.9-6.3 6.3-6.6 6.2-0.2-0.1 2.4-3.9 6.4-7.7-0.3-0.5-5.9-7.8-5.9-7.8z"/>
				</g>
			</g>
			<path id="&lt;Path&gt;" class="s3" d="m11.4 5.6c4.1-7.5 11.3-5.5 13.9-1 3 5-0.7 9-2.4 12.6-1.7 3.4-2.2 5.9 0.6 7.8 2.8 2 11.2 2.2 13.1 0.9 1.9-1.3 3.6-5.1 4.6-5.1 0.8-0.1-0.3 3.1-0.1 3.1 0.5 0.2 2.7-6.3 3.6-4 1.1 2.8-1.5 5.1-1.7 5.7 0.4 0.8 3.2-3.8 3.5-1.9 0.5 3-1.7 8.2-5.6 9.6-0.8 7-4.7 12.9-17.8 12.1-13.1-0.7-15.1-12-11.5-18.6 3.5-6.6 6.4-11.8 6.3-13.6-2.7 0.8-4.5-0.5-4.5-0.5 0 0-3.9-3.6-2-7.1z"/>
			<g id="&lt;Group&gt;">
				<path id="&lt;Path&gt;" class="s4" d="m11.4 5.6c4.1-7.5 11.3-5.5 13.9-1 3 5-0.7 9-2.4 12.6-1.7 3.4-2.2 5.9 0.6 7.8 2.8 2 11.2 2.2 13.1 0.9 1.9-1.3 3.6-5.1 4.6-5.1 0.8-0.1-0.3 3.1-0.1 3.1 0.5 0.2 2.7-6.3 3.6-4 1.1 2.8-1.5 5.1-1.7 5.7 0.4 0.8 3.2-3.8 3.5-1.9 0.5 3-1.7 8.2-5.6 9.6-0.8 7-4.7 12.9-17.8 12.1-13.1-0.7-15.1-12-11.5-18.6 3.5-6.6 6.4-11.8 6.3-13.6-2.7 0.8-4.5-0.5-4.5-0.5 0 0-3.9-3.6-2-7.1z"/>
			</g>
			<path id="&lt;Path&gt;" class="s5" d="m40.9 33.3c1.1-1 2.9-4.5-0.4-3.9 2.5-2.6 0.8-4.7-0.8-2.9 0.1-1.2-0.1-2.9-1.5-2.2 1.2-1.6 2.3-3.5 3-3.5 0.8-0.1-0.3 3.1-0.1 3.1 0.5 0.2 2.7-6.3 3.6-4 1.1 2.8-1.5 5.1-1.7 5.7 0.4 0.8 3.2-3.8 3.5-1.9 0.5 3-1.7 8.2-5.6 9.6z"/>
			<g id="&lt;Group&gt;">
				<path id="&lt;Path&gt;" class="s5" d="m20.8 33.3c1.6 2.7-0.2 5-2.8 2.5 1.5 3.1-0.8 4.7-2.8 1.2 0.9 3.4-1.4 3.6-2.3 0 0.2 1.7-0.6 2.7-1.5 2.3-1.4-0.1-3.2-5.5-0.1-12.4 1.6-3.7 3.9-6.7 5-9.2 0.3 0 4.1-0.7 6.6-0.5-1 2.1-1.8 5.6 0.3 7.9-1.3 1.3-3 2.9-1.4 4.1 3.2 2.5 2.5 5.4-1 4.1z"/>
			</g>
			<g id="&lt;Group&gt;">
				<path id="&lt;Path&gt;" class="s4" d="m16.3 17.7c1.1-2.1 1.6-3.7 1.6-4.5-2.7 0.8-4.5-0.5-4.5-0.5 0 0-3.9-3.6-2-7.1 4.1-7.5 11.3-5.5 13.9-1 3 5-0.7 9-2.4 12.6q-0.2 0.3-0.3 0.7c-2.2 0.4-4.8 0.2-6.3-0.2z"/>
			</g>
			<g id="&lt;Group&gt;">
				<path id="&lt;Path&gt;" class="s6" d="m17.3 15.7c0.4-1.1 0.6-2 0.6-2.5-2.7 0.8-4.5-0.5-4.5-0.5 0 0-3.9-3.6-2-7.1 4.1-7.5 12.4-6.1 15-1.7 2.5 4.2-0.7 8.3-2.5 11.4-1.9 0.7-4.8 0.7-6.6 0.4z"/>
			</g>
			<g id="&lt;Group&gt;">
				<path id="&lt;Path&gt;" class="s2" d="m13.4 10.6c0.3 0.5-0.1 1.7-1 1.8-0.8 0.1-3.7 1-5.3 1.4-0.8 0.7-1.8 0.5-2-0.4-0.5-1.5 3.3-4.1 4.3-4.2 0 0 3.6 0.8 4 1.4z"/>
			</g>
			<g id="&lt;Group&gt;">
				<path id="&lt;Path&gt;" class="s7" d="m12.6 10.4c-2.2 0.4-6.3 2.8-6.6 2.4-0.7-0.9 2.9-3.2 3.6-3.4 0 0 2 0.4 3 1z"/>
			</g>
			<g id="&lt;Group&gt;">
				<path id="&lt;Path&gt;" class="s8" d="m12.6 10.4c-1.6 0.3-4.1 1.6-5.5 2.1-0.1-0.8 2.2-2.4 3.3-2.9 0.6 0.2 1.6 0.4 2.2 0.8z"/>
			</g>
			<g id="&lt;Group&gt;">
				<path id="&lt;Path&gt;" class="s8" d="m22.4 9.8c0 0.5-0.8 0.8-1.7 0.7-0.9-0.1-1.6-0.6-1.6-1.1 0.1-0.5 0.9-0.9 1.8-0.7 0.9 0.1 1.6 0.6 1.5 1.1z"/>
			</g>
			<g id="&lt;Group&gt;">
				<path id="&lt;Path&gt;" class="s9" d="m20.1 27.7c1-2.7 2.9-3.7 9.3-1.7 3.9 1.3 7.6-1.4 8.1-0.6 0.4 0.8-1.4 3-2.6 3.5 1.8-0.2 3.2-1.5 3.7-1 0.4 0.5-2.1 3.1-4.3 3.5 1.2 0.4 4.3-0.5 4.1 0.2-0.4 1.5-3 2.1-4.8 2 0.6 0.7 3.4 0.4 3.3 0.9-0.3 1.1-4.9 1.4-5.7 0.9 1.1 0.6 2.5 0.5 2.3 1-0.4 1.1-5.6 1.5-9.6-2-1.6-1.3-4.9-3.9-3.8-6.7z"/>
			</g>
			<g id="&lt;Group&gt;">
				<path id="&lt;Path&gt;" class="s0" d="m20 26.1c1.6-1.9 5.4-1.2 7.7-0.6 5.1 1.5 6.8-0.3 7.1 0.6 0.2 0.9-1.9 2.1-5 2.3 1.2 1 5.6-0.3 5.8 0.5 0.3 0.7-4.2 2.4-6.4 2.2 1 0.7 4.6 1 4.6 1.7-0.1 0.6-4.3 1.1-6 0.5 0.3 0.9 3.8 1.3 3.2 1.9-0.7 0.7-4.6-0.1-5.2-0.8 0.6 1.3 3.2 2.1 2.7 2.7-0.5 0.7-6-0.1-8.4-3.7-1.2-1.7-2-5.1-0.1-7.3z"/>
			</g>
			<g id="&lt;Group&gt;">
				<path id="&lt;Path&gt;" class="s2" d="m12.2 4c1.1-0.7 2.7 4.6 1.2 6.6-3.3-0.5-9.2-3.4-9.5-5.6-0.1-0.9 1.5-1.4 2.3-0.7 1.3 0.8 3.8 1 6-0.3z"/>
			</g>
			<g id="&lt;Group&gt;">
				<path id="&lt;Path&gt;" class="s5" d="m12.1 6.7c-0.1 0.3-0.4 0.4-0.7 0.4-0.4-0.1-0.6-0.4-0.5-0.6 0-0.3 0.3-0.4 0.6-0.4 0.4 0.1 0.6 0.4 0.6 0.6z"/>
			</g>
			<g id="&lt;Group&gt;">
				<path id="&lt;Path&gt;" class="s5" d="m18.9 5.5c-0.7-0.3-1.6 0.7-1.8 0.5-0.3-0.2 1-1.9 2.3-1.4 1.1 0.5 1 2.6 0.7 2.8-0.4 0-0.6-1.6-1.2-1.9z"/>
			</g>
		</g>
	</g>
</svg>