<svg width="70" height="65" viewBox="0 0 70 65" fill="none" xmlns="http://www.w3.org/2000/svg">
<path d="M68.93 4.99001C68.93 4.89001 68.81 4.87002 68.75 4.94002C68.37 5.48002 67.58 6.19002 66.95 5.51002C66.56 5.09002 66.51 4.23003 66.43 3.70003C66.37 3.29003 66.34 2.87999 66.29 2.46999C66.26 2.23999 66.25 2.00003 66.19 1.77003C66.17 1.68003 66.13 1.52999 66.05 1.46999C65.94 1.39999 65.7599 1.50004 65.7199 1.59004C65.4699 2.19004 65.5099 2.89004 65.4699 3.53004C65.4099 4.42004 65.41 5.33002 65.15 6.19002V6.21004C65.13 6.26004 65.1199 6.30999 65.0999 6.34999C64.7699 7.02999 64.11 7.65001 63.3 7.50001C62.32 7.31001 62.44 6.54004 62.34 5.78004C62.31 5.54004 62.3 5.03 61.99 5.11C61.67 5.2 61.72 6.15004 61.73 6.46004C61.76 7.75004 62.1 10.51 60.18 10.65C60.06 10.65 60.06 10.85 60.18 10.84H60.2C60.08 11.06 60.15 11.31 60.39 11.42C60.79 11.61 61.41 11.32 61.8 11.22C63.01 10.92 64.27 10.69 65.42 10.2C66.46 9.76003 67.26 9.03002 67.86 8.07002C68.4 7.20002 69 6.00004 68.96 4.96004L68.93 4.99001Z" fill="#B56C22"/>
<path d="M49.2001 9.34004C49.2001 9.34004 49.21 9.23999 49.18 9.21999C49.15 9.06999 49.1101 8.93005 49.0701 8.78005C48.9301 8.36005 48.3401 7.76003 48.3401 7.76003C48.3401 7.76003 47.75 8.10003 47.41 8.14003C46.14 8.28003 46.0301 5.02999 45.6901 4.65999C45.4801 4.42999 45.29 4.84001 45.24 5.05001C45.16 5.41001 45.1401 5.8 45.0801 6.17C45.0501 6.33 45.03 6.55 44.91 6.67C44.74 6.84 44.44 6.82005 44.22 6.78005C43.99 6.74005 43.7701 6.67001 43.5701 6.56001C43.5201 6.42001 43.4901 6.27001 43.5201 6.12001C43.5501 6.00001 43.3601 5.96003 43.3301 6.08003C43.3101 6.18003 43.3101 6.29999 43.3301 6.40999C43.0701 6.22999 42.85 5.98999 42.68 5.71999C42.62 5.61999 42.4601 5.72003 42.5201 5.83003C42.7101 6.15003 43.0301 6.46002 43.3901 6.69002C43.5001 7.03002 43.71 7.38003 43.85 7.64003C44.13 8.18003 44.55 8.42003 45.1 8.64003C46.35 9.13003 47.6601 9.46003 49.0001 9.39003C49.0501 9.69003 49.0601 10.01 49.0301 10.32C49.0201 10.44 49.21 10.48 49.22 10.36C49.25 10.02 49.2401 9.68004 49.1901 9.34004H49.2001Z" fill="#B56C22"/>
<path d="M55.16 16.44C55.2 16.38 55.2401 16.33 55.2801 16.28C55.3501 16.62 55.46 17.01 55.81 17.16C56.13 17.3 56.4601 17.09 56.7701 17.01C57.7001 16.78 58.72 16.85 59.6 16.44C60.36 16.08 61.04 15.28 61.37 14.52C61.54 14.14 61.69 13.74 61.74 13.32C61.76 13.15 61.68 12.17 61.32 12.46C60.26 13.32 59.15 14.07 57.88 14.58C56.83 15.01 55.69 15.33 55.01 16.31C54.94 16.41 55.0801 16.54 55.1501 16.44H55.16Z" fill="#40260D"/>
<path d="M69.27 0.609985C68.87 0.609985 68.93 1.40997 68.88 1.71997C68.66 3.14997 68.52 4.63999 68 5.98999C67.72 6.70999 66.22 7.76001 65.41 6.14001C65.26 5.84001 65.07 4.75 64.97 4.63C64.48 4.03 64.46 5.93001 64.46 6.14001C64.49 7.37001 64.41 8.45997 63.9 9.46997C63.46 10.35 62.13 10.95 61.18 10.68C60.62 10.52 60.34 9.99002 60.21 9.46002C60.14 9.16002 60.09 8.86001 60.03 8.57001C59.99 8.38001 59.98 7.57003 59.68 7.59003C59.65 7.59003 59.63 7.6 59.6 7.62C59.23 7.87 59.32 8.43 59.29 8.81C59.24 9.41 59.23 10.3 59.1 10.89C58.99 11.41 58.7 11.88 58.44 12.36C58.16 12.87 57.65 13.21 57.26 13.64C57.04 13.88 56.04 15.14 56.35 15.44C56.4 15.42 56.52 15.34 56.49 15.27C56.56 15.43 56.7 15.54 56.89 15.6C57.28 15.71 57.62 15.47 57.88 15.21C58.7 14.37 59.34 13.41 60.3 12.71C61.39 11.91 62.64 11.77 63.93 11.57C65 11.4 65.99 11.07 66.86 10.42C68.1 9.49998 68.79 8.11002 69.18 6.65002C69.41 5.79002 69.64 4.85002 69.66 3.96002C69.68 3.38002 69.66 2.79997 69.62 2.21997C69.59 1.83997 69.56 1.45998 69.49 1.09998C69.47 0.999976 69.41 0.619995 69.25 0.619995L69.27 0.609985Z" fill="#DE934D"/>
<path d="M65.98 23.02C65.3 22.06 64.35 21.26 63.41 20.5C63.12 20.26 62.83 20.03 62.55 19.8C61.6 19.02 60.66 18.22 59.83 17.32C59.75 17.18 59.68 17.04 59.6 16.91C59.35 16.47 59.07 16.07 58.63 15.81C57.13 14.93 55.23 14.33 53.49 14.69C53.14 14.76 52.8 14.86 52.46 14.94C52.02 15.04 51.57 15.05 51.12 15.11C50.58 15.18 50.17 15.48 49.8 15.86C49.43 16.24 49 16.67 48.92 17.22C48.84 17.81 49.09 18.45 49.22 19.01C49.4 19.77 49.59 20.53 49.77 21.28C49.97 22.09 50.16 22.92 50.24 23.75C50.28 24.14 50.29 24.53 50.26 24.91C50.24 25.27 50.12 25.63 50.1 25.98C50.08 26.41 50.4601 26.57 50.8401 26.55C50.9301 26.55 51.02 26.53 51.11 26.51C51.14 26.56 51.17 26.6 51.21 26.65C51.23 26.72 51.2801 26.79 51.3401 26.84C51.3901 26.87 51.44 26.89 51.49 26.9C51.63 27 51.78 27.07 51.89 27.11C52.23 27.24 52.4 27.76 52.65 28.04C52.84 28.25 53.09 28.46 53.39 28.42C53.83 28.36 53.82 27.81 54.23 27.71C54.45 27.66 54.68 27.72 54.9 27.69C55.05 27.67 55.1501 27.58 55.2801 27.54C55.6801 27.43 55.96 27.61 56.32 27.33C56.46 27.22 56.57 27.08 56.66 26.93C56.82 26.93 56.99 26.92 57.17 26.85C57.41 26.76 57.62 26.61 57.82 26.44C57.85 26.46 57.89 26.47 57.92 26.48C58.35 26.59 58.88 26.27 59.29 25.9C59.65 26.04 60 26.19 60.33 26.36C60.81 26.61 60.95 27.17 61.45 27.42C62.11 27.74 62.8501 27.52 63.2801 26.96C63.2801 26.96 63.29 26.96 63.3 26.97C63.38 27.04 63.47 27.11 63.57 27.15C63.57 27.15 63.59 27.15 63.6 27.17C64.14 27.41 65.0601 27.3 65.5301 26.93C66.0201 26.55 66.15 25.87 66.22 25.29C66.31 24.56 66.4 23.64 65.95 23L65.98 23.02Z" fill="#704116"/>
<path d="M32.5201 62.25C32.5201 62.25 33.1101 63.97 32.9601 64.02C32.8201 64.06 31.8201 64.02 31.3901 63.78C30.9601 63.54 30.61 62.6 30.66 62.52C30.71 62.44 32.5101 62.25 32.5101 62.25H32.5201Z" fill="#36240E"/>
<path d="M40.33 34.45C39.96 34.65 39.5699 34.86 39.1599 34.92C39.2599 34.71 39.36 34.51 39.46 34.3C39.52 34.19 39.3499 34.09 39.2999 34.2C39.1799 34.44 39.0599 34.69 38.9399 34.93C38.8499 34.93 38.7499 34.93 38.6599 34.9C38.1899 34.8 37.7599 34.5 37.3199 34.32C36.5999 34.02 35.85 33.84 35.08 33.73C33.67 33.53 32.25 33.6 30.83 33.71C30.77 33.35 30.7199 32.99 30.6899 32.63C30.6799 32.51 30.4899 32.51 30.4999 32.63C30.5399 32.99 30.59 33.3599 30.64 33.7199C30.4 33.7399 30.1599 33.76 29.9199 33.78C29.7999 33.78 29.7999 33.9799 29.9199 33.9699C30.1699 33.9499 30.4199 33.9299 30.6599 33.9099C30.7299 34.3699 30.8299 34.83 30.9399 35.29C30.9799 35.44 31.0599 35.64 31.1799 35.76C31.2699 35.86 31.39 35.9 31.53 35.82C31.77 36.3 31.9999 36.79 32.2299 37.27C32.1799 40.21 32.1499 43.15 32.1299 46.09C32.1299 46.26 32.1299 46.4299 32.1299 46.5999C32.0099 47.0199 31.9099 47.44 31.8699 47.88C31.7699 48.9 31.9899 49.91 31.9199 50.93C31.8599 51.86 31.74 52.78 31.59 53.69C31.5 54.28 31.48 54.89 31.28 55.46C31.03 56.17 30.7699 56.78 30.6599 57.53C30.6599 58.28 30.4399 59.16 30.1799 59.86C30.0799 60.12 29.8999 60.37 29.8199 60.64C29.7299 60.95 30.1399 61.18 29.9899 61.48C29.9599 61.55 29.9899 61.62 30.0699 61.62C30.3499 61.64 30.5399 61.81 30.6299 62.04C30.6099 62.15 30.5999 62.26 30.5999 62.36C30.5999 62.47 30.5899 62.56 30.6799 62.64C30.8199 62.77 31.1999 62.68 31.3699 62.68C31.7699 62.68 32.1699 62.68 32.5699 62.68C32.6399 62.68 32.6699 62.62 32.6599 62.56C32.5599 61.92 32.4299 61.28 32.3599 60.63C32.2099 59.18 33.44 54.93 33.7 53.76C33.96 52.59 34.4099 51.37 34.6299 50.19C34.7399 49.59 35.05 48.08 35.34 46.71C35.57 45.62 35.79 44.62 35.9 44.23C36.44 42.22 36.9299 40.2 37.3599 38.17C37.3699 38.17 37.38 38.15 37.39 38.15C37.69 37.94 38.05 37.74 38.21 37.39C38.22 37.37 38.2299 37.34 38.2399 37.32C38.2799 37.2 38.2899 37.08 38.2999 36.96C38.3399 36.63 38.4699 36.37 38.6099 36.07C38.7699 35.75 38.93 35.4299 39.09 35.0999C39.56 35.0699 40 34.86 40.45 34.61C40.56 34.55 40.4599 34.39 40.3599 34.44L40.33 34.45Z" fill="#704116"/>
<path d="M47.5 60.25C47.5 60.25 48.09 61.97 47.94 62.02C47.8 62.06 46.8 62.02 46.37 61.78C45.94 61.54 45.52 60.92 45.56 60.85C45.61 60.77 47.49 60.26 47.49 60.26L47.5 60.25Z" fill="#36240E"/>
<path d="M47.49 60.09C47.41 59.66 45.83 54.84 45.5 52.69C45.3 51.39 45.36 50.06 45.06 48.78C44.88 48.01 44.25 43.91 44.24 42.62C44.24 41.44 43.97 40.12 44.11 38.95C44.11 38.9 44.12 38.86 44.13 38.81C44.21 38.16 44.34 37.47 44.24 36.81C44.18 36.45 44.04 36.14 44.16 35.77C44.26 35.44 44.43 35.12 44.54 34.79C44.73 34.23 44.83 33.67 44.66 33.09C44.64 33.03 44.5701 32.99 44.5201 33.03C43.9501 33.46 43.39 33.91 42.81 34.33C42.31 34.69 41.6001 34.6 41.0301 34.8C40.1301 35.12 39.3601 35.72 38.6401 36.35C38.5801 36.13 38.55 35.9 38.54 35.66C38.54 35.53 38.35 35.53 38.35 35.66C38.35 35.95 38.4 36.23 38.47 36.5C38.38 36.58 38.28 36.67 38.19 36.75C38.1 36.83 38.2301 36.97 38.3201 36.89C38.3901 36.83 38.4601 36.77 38.5301 36.7C38.5701 36.82 38.62 36.93 38.68 37.04C38.96 37.59 39.4 37.95 39.55 38.58C39.85 39.84 40.11 41.11 40.44 42.37C40.98 44.41 41.62 46.42 42.35 48.4C42.35 48.77 42.37 49.14 42.5 49.48C42.67 49.93 42.9701 50.28 43.1501 50.73C43.2001 50.9 43.26 51.07 43.3 51.22L43.6501 52.65C43.9801 54.01 44.3101 55.37 44.6401 56.73C44.6701 57.22 44.6501 57.72 44.5701 58.21C44.5201 58.5 44.3301 58.9 44.3901 59.19C44.4501 59.49 44.96 59.5 44.8 59.95C44.78 60 44.82 60.06 44.87 60.07C45.05 60.12 45.1801 60.25 45.2701 60.41C45.3101 60.49 45.37 60.59 45.38 60.67C45.4 60.76 45.34 60.88 45.41 60.96C45.51 61.08 45.98 61.04 46.13 61.05C46.37 61.05 46.6101 61.05 46.8401 60.99C47.3001 60.88 47.5901 60.57 47.5101 60.08L47.49 60.09Z" fill="#40260D"/>
<path d="M20.92 33.82C20.92 33.82 21.57 35.42 20.92 37.71C19.99 40.99 17.28 45.67 17.12 46.78C16.96 47.89 20.1 60.05 20.29 60.58C20.48 61.12 20.66 61.37 20.45 61.51C20.24 61.65 19.19 61.63 18.75 61.51C18.31 61.39 18.43 60.7 18.14 60.58C17.87 60.47 17.2 60.67 17.24 60.2C17.26 59.87 16.16 54.61 15.71 52.82C14.97 49.91 14.53 48.95 13.6 46.1C13.42 45.55 13.72 45.05 13.91 44.56C14.12 44 14.11 43.45 14.13 42.85C14.2 40.53 14.11 38.26 13.53 36L14.79 32.32L18.99 32.52L20.92 33.8V33.82Z" fill="#40260D"/>
<path d="M8.39002 62.25C8.39002 62.25 8.98003 63.97 8.83003 64.02C8.69003 64.06 7.69002 64.02 7.26002 63.78C6.83002 63.54 6.48004 62.6 6.53004 62.52C6.58004 62.44 8.38001 62.25 8.38001 62.25H8.39002Z" fill="#36240E"/>
<path d="M20.46 61.06C20.46 61.06 21.05 62.78 20.9 62.83C20.76 62.87 19.76 62.83 19.33 62.59C18.9 62.35 18.55 61.41 18.6 61.33C18.65 61.25 20.45 61.06 20.45 61.06H20.46Z" fill="#36240E"/>
<path d="M51.53 15.05C49.09 15.19 46.5299 15.46 44.0999 15.2C42.4599 15.02 40.8899 14.6 39.29 14.23C38.4599 14.04 37.61 13.89 36.75 13.9C35.85 13.9 35.11 14.18 34.3 14.55C31.15 16.02 27.8 17.01 24.38 17.6C20.94 18.19 17.71 18.06 14.24 17.9C11.52 17.78 7.82999 18.34 5.63999 20.24C3.69999 21.92 2.85994 24.2 2.96994 26.7C3.01994 27.7 3.18 28.7 3.4 29.7C3.75 31.33 4.21999 32.95 4.51999 34.55C4.76999 35.91 5.03998 37.35 4.93998 38.73C4.81998 40.33 4.31 43.05 3.59 44.73C3.5 44.94 3.39997 45.14 3.30997 45.32C2.33997 47.06 2.65995 47.89 3.09995 49.96C3.44995 51.59 3.62997 53.1 3.92997 54.53C4.51997 57.34 5.10996 61.12 5.16996 61.44C5.22996 61.76 5.8 61.5 5.84 61.69C5.87 61.88 5.83995 62.45 6.15995 62.51C6.47995 62.57 8.43998 62.73 8.56998 62.51C8.73998 61.77 7.86996 61.01 7.29996 58.92C6.72996 56.83 5.60995 48.31 5.84995 47.48C5.90995 47.28 6.15996 46.92 6.54996 46.44C7.72996 44.99 10.11 42.52 11.82 40.46C13.48 38.47 15.11 35.38 15.11 35.38C15.13 35.35 18.66 36.25 19.03 36.31C20.43 36.55 21.85 36.7 23.28 36.72C24.64 36.74 25.98 36.6 27.33 36.48C28.64 36.36 29.99 36.33 31.2 35.75C31.89 35.42 32.57 34.92 33.26 34.86C33.26 34.86 35.43 35.14 37.77 34.98C37.69 35.37 37.62 35.76 37.56 36.16C37.5 36.51 37.2499 37.14 37.7199 37.27C37.8899 37.32 38.06 37.34 38.23 37.33C38.89 37.31 39.54 36.89 40.08 36.43C40.33 36.62 40.61 36.74 40.93 36.6C41.06 36.54 41.15 36.43 41.24 36.32C41.31 36.23 41.35 36.1 41.43 36.01C41.85 35.57 41.69 35.87 41.95 35.88C42.84 35.92 43.67 35.2 44.13 34.46C44.32 34.53 44.57 34.49 44.78 34.38C45.38 34.06 45.81 33.44 46.18 32.9C46.37 32.62 46.58 32.34 46.69 32.02C46.72 31.95 46.74 31.87 46.75 31.79C46.79 31.63 47.25 31.27 47.36 31.07C47.5 30.8 47.57 30.5 47.64 30.2C47.76 29.71 47.71 29.15 47.94 28.69C48.12 28.32 48.48 28 48.81 27.7C48.9 27.62 49 27.53 49.08 27.45C49.68 26.88 50.31 26.33 50.95 25.8L53.29 20.39L51.54 15.05H51.53Z" fill="#704116"/>
<path d="M8.93 18.6C8.87 18.6 8.80999 18.6 8.79999 18.6C8.57999 18.63 8.36002 18.73 8.14002 18.76C7.24002 18.89 6.48003 19.04 5.65003 19.42C4.49003 19.96 3.38002 20.44 2.14002 20.75C1.67002 20.87 0.970014 20.92 0.570014 21.19C0.370014 21.33 0.310031 21.56 0.400031 21.79C0.560031 22.18 1.10003 22.31 1.46003 22.38C1.71003 22.43 1.96998 22.44 2.21998 22.43C2.85998 23.34 4.42999 22.66 5.16999 22.11C5.75999 21.67 6.25999 21.12 6.72999 20.56C7.26999 19.92 7.77 19.2 8.56 18.87C8.71 18.83 8.86002 18.78 9.01002 18.7C9.18002 18.61 9.03998 18.59 8.90998 18.59L8.93 18.6Z" fill="#704116"/>
<path d="M54.08 15.85C53.34 14.91 52.18 14.66 51.11 14.3C50.08 13.96 49.13 13.43 48.22 12.85C48 12.71 47.78 12.51 47.54 12.4C47.4 12.33 47.34 12.34 47.26 12.49C47.15 12.7 47.14 13.05 47.17 13.28C47.24 13.69 47.42 14.09 47.61 14.46C47.99 15.19 48.72 15.95 49.5 16.26C50.41 16.62 51.42 16.48 52.36 16.66C52.68 16.72 53.02 16.91 53.33 16.75C53.67 16.58 53.75 16.18 53.8 15.84C53.84 15.89 53.89 15.94 53.93 15.99C54.01 16.09 54.14 15.95 54.06 15.86L54.08 15.85Z" fill="#704116"/>
<path d="M51.8799 16.19C51.2299 15.89 50.7699 15.31 50.1399 14.98C49.7099 14.75 49.2199 14.57 48.8099 14.28C48.5799 14.12 48.4099 13.9 48.2199 13.69C48.0899 13.54 47.6699 12.94 47.5799 13.42C47.5099 13.75 47.7799 14.14 47.9599 14.4C48.2099 14.78 48.5199 15.15 48.8699 15.45C49.2399 15.78 49.6699 15.91 50.1499 16.01C50.6899 16.12 51.2799 16.44 51.8299 16.38C51.9099 16.38 51.9699 16.25 51.8799 16.2V16.19Z" fill="#40260D"/>
<path d="M53.0499 17.24C52.7199 17.07 52.3799 16.98 51.9999 17.02C51.4799 17.07 51.04 17.09 50.53 17.01C49.55 16.85 48.7499 16.32 48.2699 15.43C48.2099 15.32 48.0499 15.42 48.1099 15.53C48.4799 16.23 49.09 16.78 49.84 17.04C50.26 17.19 50.7399 17.26 51.1899 17.28C51.8199 17.31 52.36 17.1 52.96 17.41C53.07 17.47 53.1599 17.3 53.0599 17.25L53.0499 17.24Z" fill="#40260D"/>
<path d="M54.03 15.9601C53.86 15.7701 53.76 15.54 53.58 15.36C53.41 15.19 53.22 15.05 53.01 14.94C52.9 14.88 52.81 15.05 52.91 15.1C53.13 15.21 53.32 15.36 53.49 15.54C53.64 15.71 53.74 15.9201 53.89 16.0901C53.97 16.1801 54.1 16.0501 54.02 15.9601H54.03Z" fill="#40260D"/>
<path d="M56.46 8.40004C56.38 8.38004 56.29 8.40004 56.22 8.52004C56.12 8.67004 56.09 8.85002 56 9.00002C55.88 9.21002 55.76 9.41999 55.58 9.59999C54.94 10.23 54.04 10.49 53.16 10.49C52.13 10.49 51.2 9.86003 50.51 9.14003C49.83 8.44003 49.14 7.66001 48.93 6.68001C48.89 6.50001 48.89 5.57004 48.51 5.65004C48.35 5.68004 48.34 5.92005 48.33 6.03005C48.27 6.43005 48.32 6.85 48.19 7.23C48 7.8 47.15 8.32 45.7 7.92C44.95 7.71 44.5 6.82999 43.98 6.21999C43.1 5.18999 42.87 3.48 42.98 2.17C42.98 2.05 43 1.93003 42.98 1.82003C42.87 1.36003 42.57 1.36999 42.41 1.59999C42.16 1.95999 42.16 2.48999 42.15 2.90999C42.13 3.47999 42.07 4.03999 41.99 4.59999C41.93 5.00999 41.93 5.61005 41.37 5.59005C40.93 5.57005 40.55 5.11003 40.36 4.76003C40.06 4.22003 39.9 3.62005 39.76 3.03005C39.64 2.53005 39.6 2.03005 39.55 1.53005C39.52 1.23005 39.45 0.969999 39.26 0.729999C39.23 0.699999 39.18 0.699989 39.14 0.719989C38.76 0.919989 38.72 1.34 38.69 1.73C38.64 2.41 38.66 3.11 38.75 3.79C38.92 5.09 39.33 6.35002 39.96 7.50002C40.54 8.55002 41.3 9.50999 42.27 10.22C43.33 11 44.58 11.34 45.88 11.47C46.63 11.54 47.39 11.51 48.14 11.55C49.11 11.61 50.04 11.91 50.93 12.28C51.73 12.61 52.63 12.93 53.21 13.61C53.46 13.9 53.79 14.4 53.81 14.76C53.84 15.51 54.26 15.68 54.99 15.6C55.89 15.5 55.27 14.4 55.08 13.75C54.88 13.09 55 12.64 55.31 11.98C55.53 11.49 55.94 11.13 56.2 10.67C56.48 10.15 56.77 9.38004 56.72 8.77004C56.71 8.62004 56.59 8.45 56.46 8.42V8.40004Z" fill="#DE934D"/>
<path d="M55.1299 14.92C54.8099 15.14 54.39 15.08 54.15 14.79C54.07 14.7 53.9399 14.83 54.0199 14.92C54.3199 15.27 54.8499 15.34 55.2399 15.08C55.3399 15.01 55.2399 14.85 55.1399 14.92H55.1299Z" fill="#D6AA92"/>
<path d="M4.27008 46.02C4.30008 45.9 4.12009 45.85 4.09009 45.97C3.97009 46.41 3.60007 46.72 3.57007 47.17C3.53007 47.7 3.63004 48.26 3.73004 48.78C3.75004 48.9 3.94003 48.85 3.91003 48.73C3.82003 48.25 3.68007 47.66 3.76007 47.17C3.82007 46.76 4.16008 46.43 4.27008 46.02Z" fill="#40260D"/>
<path d="M5.54001 59.71C5.54001 59.59 5.34001 59.59 5.35001 59.71C5.38001 60.14 5.35003 60.56 5.25003 60.98C5.22003 61.1 5.41002 61.15 5.43002 61.03C5.53002 60.59 5.56006 60.15 5.53006 59.71H5.54001Z" fill="#40260D"/>
<path d="M5.76001 60.6599V61.29C5.76001 61.41 5.95001 61.41 5.95001 61.29V60.6599C5.95001 60.5399 5.76001 60.5399 5.76001 60.6599Z" fill="#40260D"/>
<path d="M30.9199 59.69C30.8399 60.13 30.6799 60.52 30.4299 60.89C30.3599 60.99 30.53 61.09 30.59 60.99C30.84 60.61 31.0099 60.19 31.0999 59.74C31.1199 59.62 30.9399 59.57 30.9199 59.69Z" fill="#40260D"/>
<path d="M31.23 60.48C31.15 60.84 31.07 61.2 30.99 61.55C30.96 61.67 31.15 61.72 31.17 61.6L31.41 60.53C31.44 60.41 31.25 60.36 31.23 60.48Z" fill="#40260D"/>
<path d="M31.1 32.36C31 33.18 30.67 33.92 30.16 34.56C30.08 34.65 30.22 34.79 30.29 34.69C30.84 34.01 31.18 33.2199 31.29 32.3499C31.31 32.2299 31.12 32.2299 31.1 32.3499V32.36Z" fill="#40260D"/>
<path d="M31.2 33.67C31.04 34.15 30.88 34.64 30.72 35.12C30.68 35.24 30.86 35.29 30.9 35.17L31.38 33.72C31.42 33.6 31.24 33.55 31.2 33.67Z" fill="#40260D"/>
<path d="M41.0999 31.19C40.9199 32.12 40.75 33.07 40.34 33.94C39.98 34.72 39.4 35.38 39 36.14C38.94 36.25 39.1099 36.34 39.1599 36.24C39.5899 35.43 40.2 34.73 40.57 33.89C40.93 33.05 41.11 32.15 41.28 31.25C41.3 31.13 41.1199 31.08 41.0999 31.2V31.19Z" fill="#40260D"/>
<path d="M39.1101 34.84C38.8601 35.35 38.6401 35.87 38.4601 36.41C38.4201 36.53 38.6001 36.58 38.6401 36.46C38.8201 35.94 39.0301 35.43 39.2701 34.93C39.3201 34.82 39.1601 34.72 39.1101 34.83V34.84Z" fill="#40260D"/>
<path d="M41.68 30.09C41.56 30.65 41.54 31.22 41.63 31.79C41.65 31.91 41.83 31.86 41.81 31.74C41.73 31.2 41.75 30.67 41.86 30.15C41.89 30.03 41.7 29.98 41.68 30.1V30.09Z" fill="#40260D"/>
<path d="M50.81 17.31C50.16 17.69 49.5 18.18 48.75 18.33C48.69 18.34 48.66 18.42 48.69 18.47C49.12 19.13 49.7 19.62 50.41 19.94C50.03 20.31 49.51 20.88 49 20.8C48.88 20.78 48.83 20.96 48.95 20.98C48.95 21 48.98 21.02 49.01 21.03C49.4 21.13 49.8 21.23 50.19 21.33C49.88 21.69 49.54 22.03 49.16 22.33C49.06 22.41 49.2 22.54 49.29 22.46C49.73 22.11 50.13 21.71 50.48 21.27C50.56 21.18 50.42 21.04 50.35 21.14C50.35 21.14 50.33 21.16 50.33 21.17C50.02 21.09 49.72 21.02 49.41 20.94C49.87 20.78 50.27 20.33 50.61 20.02C50.64 20.02 50.67 19.99 50.68 19.96C50.77 19.88 50.65 19.77 50.56 19.81C49.89 19.52 49.34 19.08 48.93 18.49C49.65 18.31 50.28 17.86 50.9 17.49C51.01 17.43 50.9 17.26 50.8 17.33L50.81 17.31Z" fill="#40260D"/>
<path d="M50.1299 22.08C49.8699 22.46 49.5099 22.75 49.0799 22.92C48.9699 22.97 49.0199 23.15 49.1299 23.1C49.6099 22.9 49.9999 22.59 50.2899 22.17C50.3599 22.07 50.1999 21.97 50.1299 22.07V22.08Z" fill="#40260D"/>
<path d="M50.4101 23.92C50.0301 24.48 49.5001 24.88 48.8601 25.08C48.7401 25.12 48.7901 25.3 48.9101 25.26C49.6001 25.04 50.1701 24.61 50.5801 24.01C50.6501 23.91 50.4801 23.8099 50.4201 23.9099L50.4101 23.92Z" fill="#40260D"/>
<path d="M50.37 24.89C50.09 25.18 49.76 25.4 49.39 25.55C49.28 25.59 49.33 25.78 49.44 25.73C49.85 25.57 50.2 25.34 50.51 25.02C50.59 24.93 50.46 24.8 50.38 24.89H50.37Z" fill="#40260D"/>
<path d="M54.97 24.89C54.42 25.57 54.03 26.33 53.8 27.18C53.77 27.3 53.95 27.35 53.98 27.23C54.2 26.42 54.57 25.68 55.1 25.02C55.18 24.93 55.04 24.79 54.97 24.89Z" fill="#40260D"/>
<path d="M63.6 27.17C63.5 27.12 63.4101 27.06 63.3301 26.99C63.2701 26.85 63.19 26.71 63.1 26.59C62.89 26.28 62.59 26.06 62.36 25.77C62.01 25.33 61.9301 24.77 62.1201 24.24C62.1601 24.13 62.34 24.18 62.3 24.29C62.15 24.71 62.1701 25.17 62.4301 25.55C62.6201 25.83 62.9201 26.04 63.1301 26.3C63.3401 26.57 63.5 26.86 63.61 27.17H63.6Z" fill="#40260D"/>
<path d="M65.08 23.54C64.86 23.41 64.59 23.43 64.4 23.74C64.28 23.94 64.26 24.19 64.29 24.42C64.32 24.69 64.4 24.96 64.53 25.2C64.57 25.27 64.61 25.34 64.67 25.39C64.78 25.47 64.94 25.46 65.06 25.39C65.18 25.32 65.26 25.21 65.33 25.09C65.48 24.83 65.57 24.53 65.53 24.23C65.5 23.96 65.31 23.68 65.08 23.54Z" fill="#40260D"/>
<path d="M52.78 25.5999C52.6 25.9499 52.45 26.32 52.33 26.7C52.29 26.82 52.48 26.87 52.51 26.75C52.62 26.38 52.76 26.03 52.94 25.69C53 25.58 52.83 25.49 52.78 25.59V25.5999Z" fill="#40260D"/>
<path d="M16.3 30.17C16.09 31.84 15.69 33.47 15.09 35.05C15.05 35.16 15.23 35.2099 15.27 35.0999C15.87 33.5099 16.28 31.86 16.49 30.17C16.5 30.05 16.31 30.05 16.3 30.17Z" fill="#40260D"/>
<path d="M3.79996 20.97C3.34996 21.33 2.87994 21.68 2.40994 22.02C2.30994 22.09 2.40998 22.26 2.50998 22.18C2.98998 21.83 3.46996 21.47 3.92996 21.1C4.02996 21.02 3.88996 20.89 3.79996 20.97Z" fill="#40260D"/>
<path d="M3.89 21.34C3.69 21.56 3.46001 21.74 3.21001 21.89C3.11001 21.95 3.20998 22.12 3.30998 22.05C3.57998 21.89 3.82001 21.69 4.03001 21.47C4.11001 21.38 3.98001 21.25 3.90001 21.34H3.89Z" fill="#40260D"/>
<path d="M26.94 18.26C25.94 19 25.21 19.99 24.49 20.99C24.42 21.09 24.58 21.18 24.65 21.09C25.35 20.12 26.06 19.14 27.03 18.43C27.13 18.36 27.03 18.19 26.93 18.27L26.94 18.26Z" fill="#40260D"/>
<path d="M25.7301 20.07C25.4301 20.55 25.1201 21.03 24.8201 21.51C24.7501 21.61 24.9201 21.71 24.9801 21.61C25.2801 21.13 25.5901 20.65 25.8901 20.17C25.9601 20.07 25.7901 19.97 25.7301 20.07Z" fill="#40260D"/>
<path d="M26.16 23.98C25.82 24.54 25.4601 25.08 25.0601 25.6C24.9901 25.7 25.15 25.79 25.22 25.7C25.62 25.18 25.9901 24.64 26.3201 24.08C26.3801 23.97 26.22 23.88 26.16 23.98Z" fill="#40260D"/>
<path d="M13.71 20.35C12.99 20.8 12.3799 21.4 11.9199 22.12C11.8499 22.22 12.02 22.32 12.08 22.22C12.53 21.53 13.1099 20.96 13.7999 20.52C13.8999 20.46 13.8 20.29 13.7 20.36L13.71 20.35Z" fill="#40260D"/>
<path d="M12.94 21.8C12.55 22.14 12.22 22.53 11.96 22.97C11.9 23.08 12.06 23.17 12.12 23.07C12.37 22.64 12.69 22.26 13.07 21.93C13.16 21.85 13.03 21.72 12.94 21.8Z" fill="#40260D"/>
<path d="M42.0801 16.08C41.3301 16.45 40.67 16.96 40.12 17.58C40.04 17.67 40.1701 17.8101 40.2501 17.7101C40.8001 17.1001 41.44 16.61 42.18 16.24C42.29 16.19 42.1901 16.02 42.0801 16.08Z" fill="#40260D"/>
<path d="M40.94 17.7C40.31 18.42 39.68 19.14 39.05 19.86C38.97 19.95 39.1 20.09 39.18 19.99C39.81 19.27 40.44 18.55 41.07 17.83C41.15 17.74 41.02 17.6 40.94 17.7Z" fill="#40260D"/>
<path d="M41.23 22.08C40.82 22.7 40.4 23.32 39.99 23.93C39.92 24.03 40.09 24.13 40.15 24.03C40.56 23.41 40.98 22.79 41.39 22.18C41.46 22.08 41.29 21.98 41.23 22.08Z" fill="#40260D"/>
<path d="M57.6099 17.49C57.6099 17.49 57.59 17.43 57.58 17.4C57.31 16.74 56.42 16.82 55.84 16.95C55.67 16.99 55.5 17.11 55.46 17.28C55.43 17.43 55.5099 17.58 55.6199 17.68C55.7399 17.78 55.88 17.83 56.03 17.86C56.4 17.95 56.7899 17.95 57.1699 17.94C57.3099 17.94 57.4599 17.92 57.5499 17.81C57.6299 17.72 57.6299 17.59 57.5999 17.48L57.6099 17.49Z" fill="#40260D"/>
<path d="M57.1501 18.49C57.1201 18.36 57.06 18.23 56.97 18.14C56.91 18.07 56.81 18.03 56.73 18.06C56.68 18.08 56.64 18.12 56.61 18.17C56.46 18.39 56.4501 18.7 56.5301 18.95C56.5601 19.05 56.61 19.14 56.68 19.21C56.75 19.27 56.8501 19.3 56.9401 19.26C57.0201 19.23 57.07 19.14 57.1 19.06C57.17 18.89 57.1901 18.67 57.1401 18.48L57.1501 18.49Z" fill="#36240E"/>
</svg>
