<svg version="1.2" xmlns="http://www.w3.org/2000/svg" viewBox="0 0 40 56" width="40" height="56">
	<title>&lt;Group&gt;</title>
	<style>
		.s0 { fill: #e5e5e5 } 
		.s1 { fill: #b9b9b9 } 
		.s2 { fill: #ffffff } 
		.s3 { fill: #947058 } 
		.s4 { fill: #151410 } 
		.s5 { fill: #faccac } 
		.s6 { fill: #79490c } 
		.s7 { fill: #77290e } 
	</style>
	<g id="&lt;Group&gt;">
		<g id="&lt;Group&gt;">
			<g id="&lt;Group&gt;">
				<path id="&lt;Path&gt;" class="s0" d="m39.1 39.1c-0.8 9.6-8.8 16.8-17.8 16.1-9.1-0.7-15.8-9.1-15-18.7 0.7-9.6 8.7-16.7 17.7-16 9.1 0.7 15.8 9 15.1 18.6z"/>
				<g id="&lt;Group&gt;">
					<g id="&lt;Group&gt;">
						<path id="&lt;Compound Path&gt;" fill-rule="evenodd" class="s1" d="m18.6 55.1c-8.1-2-13.4-9.8-12.7-18.6 0.4-4.7 2.5-9 5.9-12.1 3.4-3.1 7.8-4.7 12.3-4.3q1.3 0.1 2.6 0.4c8.1 2.1 13.4 9.9 12.7 18.7-0.4 4.7-2.4 9-5.9 12.1-3.4 3.1-7.8 4.6-12.2 4.3q-1.4-0.1-2.7-0.5zm8-33.8q-1.3-0.4-2.6-0.5c-4.3-0.3-8.4 1.1-11.7 4.1-3.3 3-5.3 7.1-5.7 11.7-0.6 8.4 4.5 15.9 12.2 17.8q1.2 0.3 2.5 0.4c4.3 0.4 8.4-1.1 11.7-4 3.3-3 5.3-7.2 5.7-11.7 0.6-8.4-4.5-15.9-12.1-17.8z"/>
					</g>
				</g>
				<path id="&lt;Path&gt;" class="s2" d="m37.8 37.5c-0.7 8.8-8 15.4-16.3 14.7-8.3-0.6-14.4-8.3-13.7-17 0.7-8.8 8.7-11.4 17-10.8 8.3 0.7 13.7 4.4 13 13.1z"/>
				<path id="&lt;Path&gt;" class="s3" d="m31.5 38.9c-0.4 5.2-4.7 9.1-9.6 8.7-4.9-0.3-8.6-4.9-8.1-10.1 0.4-5.2 4.7-9.1 9.6-8.7 4.9 0.4 8.5 4.9 8.1 10.1z"/>
				<path id="&lt;Path&gt;" class="s4" d="m27.5 38.6c-0.2 2.9-2.6 5-5.3 4.8-2.7-0.2-4.7-2.7-4.5-5.6 0.3-2.8 2.6-5 5.3-4.8 2.8 0.3 4.8 2.8 4.5 5.6z"/>
				<path id="&lt;Path&gt;" class="s2" d="m29.5 34.4c-0.1 1.6-1.4 2.7-2.9 2.6-1.4-0.1-2.5-1.5-2.4-3 0.2-1.5 1.4-2.7 2.9-2.6 1.4 0.2 2.5 1.5 2.4 3z"/>
				<path id="&lt;Path&gt;" class="s2" d="m19 42.9c-0.1 0.8-0.8 1.4-1.5 1.4-0.8-0.1-1.3-0.8-1.3-1.6 0.1-0.8 0.7-1.4 1.5-1.3 0.8 0.1 1.3 0.7 1.3 1.5z"/>
				<g id="&lt;Group&gt;">
					<path id="&lt;Path&gt;" class="s5" d="m7.1 30.6c0 0 2.9-8.8 11.6-10.7 13.9-3 17.9 8.1 17.9 8.1 0 0-15.1-7.6-29.5 2.6z"/>
				</g>
				<path id="&lt;Path&gt;" class="s6" d="m36.6 28c0 0-0.5-0.1-1.3-0.4-0.8-0.2-2-0.5-3.4-0.8q-1.1-0.2-2.3-0.3c-0.8-0.2-1.6-0.2-2.5-0.3-0.9-0.1-1.8-0.2-2.7-0.1q-0.7 0-1.4 0c-0.5 0-1 0-1.4 0.1-0.5 0-1 0-1.5 0.1q-0.6 0.1-1.3 0.2c-1 0.1-1.8 0.4-2.7 0.6q-0.3 0-0.6 0.1-0.3 0.1-0.6 0.2-0.7 0.2-1.2 0.4c-0.8 0.2-1.5 0.5-2.2 0.8-0.6 0.2-1.3 0.4-1.8 0.7q-0.8 0.4-1.3 0.7c-0.8 0.4-1.3 0.6-1.3 0.6 0 0 0.4-0.3 1.1-0.9q0.5-0.4 1.2-0.9c0.5-0.4 1.1-0.7 1.7-1.1q0.5-0.3 1-0.5c0.3-0.3 0.7-0.4 1.1-0.6 0.8-0.3 1.6-0.7 2.5-0.9 0.9-0.2 1.8-0.6 2.8-0.7q0.7-0.1 1.4-0.3c0.5-0.1 1-0.1 1.5-0.1q0.8-0.1 1.5-0.1 0.8 0 1.5 0h0.7q0.4 0.1 0.7 0.1 0.7 0.1 1.4 0.2c0.9 0.1 1.8 0.3 2.7 0.5q0.6 0.1 1.1 0.3 0.6 0.2 1.1 0.4c0.7 0.2 1.4 0.5 1.9 0.7q0.8 0.3 1.4 0.6 0.6 0.3 0.9 0.5 0.3 0.2 0.3 0.2z"/>
				<path id="&lt;Path&gt;" class="s6" d="m15.4 26.4q0 0-0.2-0.3c-0.1-0.2-0.2-0.5-0.4-0.9 0-0.2-0.1-0.4-0.2-0.6 0-0.2-0.1-0.4-0.1-0.7q-0.1-0.3-0.2-0.7c0-0.2 0-0.5 0-0.7q-0.1-0.4-0.1-0.8 0-0.4 0.1-0.7 0-0.4 0-0.7c0-0.2 0.1-0.4 0.1-0.6 0.1-0.7 0.3-1.2 0.3-1.2 0 0-0.1 0.5-0.1 1.2 0 0.2 0 0.4 0.1 0.6q0 0.3 0 0.7 0.1 0.3 0.1 0.6 0.1 0.4 0.2 0.7c0.1 0.3 0.1 0.5 0.2 0.7q0.1 0.3 0.3 0.6 0.1 0.3 0.2 0.6 0.2 0.2 0.3 0.5 0.3 0.4 0.4 0.6c0.1 0.1 0.2 0.2 0.2 0.2z"/>
				<path id="&lt;Path&gt;" class="s6" d="m8.3 29.9c0 0-0.3-0.4-0.7-1.1-0.4-0.8-0.9-1.8-1.1-2.8-0.1-0.6-0.2-1.1-0.3-1.6q0-0.4 0-0.7c0.1-0.3 0-0.5 0.1-0.7q0.1-0.6 0.2-0.9 0.1-0.3 0.1-0.4 0 0.1 0 0.4-0.1 0.4-0.1 0.9c0 0.2 0.1 0.4 0.1 0.7 0 0.2 0.1 0.4 0.1 0.6q0.2 0.7 0.5 1.4c0.4 0.9 1 1.8 1.4 2.4 0.5 0.6 0.9 0.9 0.9 0.9z"/>
				<path id="&lt;Path&gt;" class="s6" d="m11.8 28.3c0 0-0.1-0.1-0.3-0.4-0.2-0.3-0.4-0.6-0.6-1.1q-0.2-0.3-0.4-0.7-0.1-0.4-0.2-0.9-0.2-0.5-0.3-0.9 0-0.5-0.1-1c0-0.3-0.1-0.6-0.1-1q0.1-0.4 0.1-0.9 0-0.5 0-0.9 0.1-0.4 0.2-0.7c0.2-1 0.3-1.6 0.3-1.6 0 0 0 0.6-0.1 1.6q0 0.3 0 0.7 0 0.5 0.1 0.9 0 0.4 0.1 0.9c0 0.3 0.1 0.6 0.2 0.9q0.1 0.4 0.2 0.8 0.2 0.5 0.3 0.8 0.2 0.4 0.4 0.8 0.2 0.3 0.4 0.6c0.2 0.3 0.5 0.6 0.6 0.8 0.2 0.1 0.3 0.2 0.3 0.2z"/>
			</g>
		</g>
		<path id="&lt;Path&gt;" class="s7" d="m19.5 2c18.9-4.7 18.6 3.8 6.7 4.3-12.9 0.6-23.6 11.2-25 10.3-3.1-1.9 7.7-12 18.3-14.6z"/>
	</g>
</svg>