<svg width="59" height="51" viewBox="0 0 59 51" fill="none" xmlns="http://www.w3.org/2000/svg">
<path d="M30.71 0.780035C30.71 1.76004 30.16 5.58002 29.48 5.58002C28.8 5.58002 28.25 1.75004 28.25 0.780035C28.25 -0.189965 28.8 1.96998 29.48 1.96998C30.16 1.96998 30.71 -0.189965 30.71 0.780035Z" fill="#1C1C1C"/>
<path d="M57.8799 45.46C57.7699 45.49 57.0299 45.52 55.6099 45.17C53.7899 44.71 51.28 43.79 50.95 43.61C50.35 43.27 43.58 30.65 42.84 30.59C42.1 30.52 37.7899 28.51 37.7899 28.51L37.6799 26.69C37.6799 26.69 43.2099 29.21 43.5999 29.6C43.9899 30 49.6999 38.96 50.2199 40.01C50.7399 41.05 51.5199 42.62 51.6199 42.73C51.9499 43.11 57.74 44.95 57.84 45C57.94 45.05 58.15 45.41 57.89 45.48L57.8799 45.46Z" fill="#1C1C1C"/>
<path d="M55.8201 31.08C55.7001 31.08 53.9501 31.12 52.5201 29.12C51.3601 27.49 50.3301 24.59 49.9901 24.54C49.8901 24.53 48.02 24.76 45.72 24.51C42.09 24.11 37.5701 23.86 37.5701 23.86V22.14C37.5701 22.14 49.7101 22.96 50.5901 23.57C50.9801 23.84 52.16 26.68 53.41 28C54.35 28.99 55.9801 30.75 56.0301 30.85C56.0801 30.95 55.9301 31.1 55.8101 31.09L55.8201 31.08Z" fill="#1C1C1C"/>
<path d="M22.4 14.69L23.85 13.64C23.85 13.64 22.03 8.64997 21.86 8.42997C21.69 8.20997 11.78 5.32995 11.45 5.21995C11.12 5.10995 6.9 2.55 6.74 2.59C6.58 2.63 6.45 2.79996 6.43 2.85996C6.41 2.91996 6.47998 3.00999 6.53998 3.00999C6.59998 3.00999 10.22 5.47995 10.99 5.84995C11.71 6.20995 11.45 6.33996 13.11 6.91996C15.73 7.82996 20.75 8.72999 20.98 8.82999C21.12 8.89999 21.07 10.29 21.42 11.57C21.81 12.98 22.41 14.68 22.41 14.68L22.4 14.69Z" fill="#1C1C1C"/>
<path d="M1.11 45.46C1.22 45.49 1.96002 45.52 3.38002 45.17C5.20002 44.71 7.71 43.79 8.04 43.61C8.64 43.27 15.41 30.65 16.15 30.59C16.89 30.52 21.2 28.51 21.2 28.51L21.31 26.69C21.31 26.69 15.78 29.21 15.39 29.6C15 30 9.29004 38.96 8.77004 40.01C8.25004 41.05 7.47001 42.62 7.37001 42.73C7.04001 43.11 1.25004 44.95 1.15004 45C1.05004 45.05 0.839994 45.41 1.09999 45.48L1.11 45.46Z" fill="#1C1C1C"/>
<path d="M4.75003 33.83C4.87003 33.8 6.45002 33.41 7.55002 31.2C8.50002 29.3 9.41001 27.33 9.73001 27.21C9.82001 27.17 11.97 26.94 14.16 26.2C17.61 25.03 21.98 23.81 21.98 23.81L21.61 22.13C21.61 22.13 9.93004 25.54 9.20004 26.33C8.88004 26.67 7.37002 28.73 6.43002 30.29C5.73002 31.46 4.52002 33.53 4.49002 33.64C4.46002 33.74 4.64003 33.86 4.75003 33.83Z" fill="#1C1C1C"/>
<path d="M36.48 14.55L35.0901 13.43C35.0901 13.43 37.1501 8.54001 37.3301 8.33001C37.5101 8.12001 47.1001 3.31001 47.4401 3.21001C47.7801 3.11001 53.38 3.59001 53.54 3.64001C53.7 3.69001 53.8201 3.85998 53.8401 3.91998C53.8601 3.97998 53.79 4.05999 53.72 4.05999C53.66 4.05999 47.61 3.78997 47.61 3.78997C47.61 3.78997 46.4501 4.64998 44.9001 5.48998C42.1701 6.95998 38.4201 8.69002 38.2001 8.78002C38.0501 8.84002 38.0401 10.23 37.6201 11.49C37.1601 12.88 36.48 14.55 36.48 14.55Z" fill="#1C1C1C"/>
<path d="M35.63 8.70001C35.51 8.07001 33.84 6.16998 33.84 6.16998C33.84 6.16998 32.4899 2.16998 29.4699 2.16998C26.4499 2.16998 25.0999 6.16998 25.0999 6.16998C25.0999 6.16998 23.42 8.07001 23.31 8.70001C23.16 9.52001 24.13 10.18 24.13 10.18H34.7999C34.7999 10.18 35.7699 9.52001 35.6199 8.70001H35.63Z" fill="#282828"/>
<path d="M35.63 8.70001C35.51 8.07001 33.84 6.16998 33.84 6.16998C33.84 6.16998 32.49 2.16998 29.47 2.16998V10.17H34.81C34.81 10.17 35.78 9.51 35.63 8.69V8.70001Z" fill="#1C1C1C"/>
<path d="M35.5001 5.80002C36.3901 7.02002 36.2101 8.58004 35.6301 8.70004C34.7501 8.89004 32.4801 8.82006 31.8001 8.09005C31.1201 7.36005 31.9001 4.51001 32.8601 4.29001C33.5901 4.12001 34.7401 4.77002 35.4901 5.80002H35.5001Z" fill="#63301B"/>
<path d="M23.45 5.80002C22.56 7.02002 22.74 8.58004 23.32 8.70004C24.2 8.89004 26.47 8.82006 27.15 8.09005C27.83 7.36005 27.05 4.51001 26.09 4.29001C25.36 4.12001 24.21 4.77002 23.46 5.80002H23.45Z" fill="#63301B"/>
<path opacity="0.59" d="M34.97 5.61001C35.63 6.46001 35.32 7.34005 34.83 7.65005C34.25 8.03005 32.58 7.86 32.08 7.35C31.57 6.84 32.24 4.77005 32.99 4.59005C33.56 4.45005 34.42 4.89001 34.97 5.61001Z" fill="#B76E4A"/>
<path opacity="0.59" d="M23.89 5.62002C23.21 6.54002 23.54 7.37002 23.92 7.62002C24.42 7.95002 26.17 7.91001 26.69 7.36001C27.21 6.80001 26.62 4.65001 25.89 4.48001C25.33 4.35001 24.47 4.84002 23.9 5.62002H23.89Z" fill="#B76E4A"/>
<path d="M38.2199 33.77C37.3999 38.18 33.9699 44.22 29.4699 44.22C24.9699 44.22 21.5399 38.18 20.7199 33.77C20.0499 30.15 19.9299 18.52 24.1299 10.16C24.2199 10.01 24.6799 9.91998 25.3299 9.84998C26.5199 9.72998 28.3199 9.72998 29.4699 9.72998C30.6199 9.72998 32.4199 9.72998 33.6099 9.84998C34.2599 9.90998 34.7299 10.01 34.8099 10.16C39.0099 18.52 38.8899 30.15 38.2199 33.77Z" fill="#1C1C1C"/>
<path opacity="0.7" d="M35.72 17.29C35.72 17.29 44.71 26.49 48.47 32.44C52.24 38.39 55.15 47.91 52.72 49.65C49.37 52.04 44.47 48.24 38.51 41.97C31.95 35.07 32.09 31.79 33.67 27.36C31.97 23.78 34.02 18.69 34.02 18.69L35.72 17.29Z" fill="#BDBDBD"/>
<path opacity="0.7" d="M23.46 17.29C23.46 17.29 14.47 26.49 10.71 32.44C6.94002 38.39 4.03002 47.91 6.46002 49.65C9.81002 52.04 14.71 48.24 20.67 41.97C27.23 35.07 27.09 31.79 25.51 27.36C27.21 23.78 25.16 18.69 25.16 18.69L23.46 17.29Z" fill="#BDBDBD"/>
<path d="M33.83 11.04C32.77 10.28 30.93 10.18 29.47 10.18V27.99C33.26 27.99 36.32 23.58 36.32 18.15C36.32 14.94 35.21 12.04 33.82 11.04H33.83Z" fill="#313131"/>
<path d="M25.12 11.04C23.73 12.04 22.62 14.94 22.62 18.15C22.62 23.59 25.69 27.99 29.47 27.99V10.18C28.01 10.18 26.17 10.28 25.11 11.04H25.12Z" fill="#424242"/>
<path opacity="0.2" d="M23.23 22.21C24.31 25.62 26.7 27.99 29.47 27.99C32.24 27.99 34.63 25.62 35.71 22.21C34.91 22.44 32.27 23.14 29.47 23.14C26.67 23.14 24.03 22.45 23.23 22.21Z" fill="#7F7F7F"/>
<path opacity="0.1" d="M36.04 15.31C35.16 15.13 32.41 14.61 29.48 14.61C26.55 14.61 23.8 15.12 22.92 15.31C22.73 16.2 22.63 17.16 22.63 18.15C22.63 19.6 22.85 20.98 23.24 22.22C24.04 22.45 26.68 23.15 29.48 23.15C32.28 23.15 34.92 22.46 35.72 22.22C36.11 20.98 36.33 19.61 36.33 18.15C36.33 17.16 36.22 16.2 36.04 15.31Z" fill="#7F7F7F"/>
</svg>
