<?xml version="1.0" encoding="UTF-8" standalone="no"?>
<!-- Created with Inkscape (http://www.inkscape.org/) -->

<svg
   version="1.1"
   id="svg9"
   width="78.959961"
   height="64.369873"
   viewBox="0 0 78.959964 64.369873"
   sodipodi:docname="3-6_years_abc_page_1024x720.ai"
   xmlns:inkscape="http://www.inkscape.org/namespaces/inkscape"
   xmlns:sodipodi="http://sodipodi.sourceforge.net/DTD/sodipodi-0.dtd"
   xmlns="http://www.w3.org/2000/svg"
   xmlns:svg="http://www.w3.org/2000/svg">
  <defs
     id="defs13">
    <clipPath
       clipPathUnits="userSpaceOnUse"
       id="clipPath5579">
      <path
         d="M 0,720 H 1024 V 0 H 0 Z"
         id="path5577" />
    </clipPath>
    <clipPath
       clipPathUnits="userSpaceOnUse"
       id="clipPath5635">
      <path
         d="m 462.001,401.71 h 90.867 V 271.357 h -90.867 z"
         id="path5633" />
    </clipPath>
  </defs>
  <sodipodi:namedview
     id="namedview11"
     pagecolor="#ffffff"
     bordercolor="#000000"
     borderopacity="0.25"
     inkscape:showpageshadow="2"
     inkscape:pageopacity="0.0"
     inkscape:pagecheckerboard="0"
     inkscape:deskcolor="#d1d1d1"
     showgrid="false"
     inkscape:zoom="0.91259771"
     inkscape:cx="459.12892"
     inkscape:cy="493.64577"
     inkscape:window-width="2155"
     inkscape:window-height="1205"
     inkscape:window-x="0"
     inkscape:window-y="25"
     inkscape:window-maximized="0"
     inkscape:current-layer="g15" />
  <g
     id="g15"
     inkscape:groupmode="layer"
     inkscape:label="3-6_years_abc_page_1024x720"
     transform="matrix(1.3333333,0,0,-1.3333333,-1126.5024,337.08563)">
    <g
       id="g5573"
       transform="translate(-37.804172,-112.59069)">
      <g
         id="g5575"
         clip-path="url(#clipPath5579)">
        <g
           id="g5581"
           transform="translate(918.0231,353.4374)">
          <path
             d="M 0,0 C 0.039,-0.019 0.077,-0.019 0.116,-0.039 0.077,-0.019 0.039,-0.019 0,0 m -11.581,-0.039 c 0.039,0.02 0.078,0.02 0.117,0.039 -0.039,-0.019 -0.078,-0.019 -0.117,-0.039"
             style="fill:#4a1c12;fill-opacity:1;fill-rule:nonzero;stroke:none"
             id="path5583" />
        </g>
        <g
           id="g5585"
           transform="translate(918.972,319.8965)">
          <path
             d="m 0,0 v 2.692 c 2.672,1.723 4.067,4.338 4.222,7.301 0.174,0.251 0.348,0.503 0.484,0.755 2.885,1.762 2.943,10.109 2.943,10.109 -1.007,6.855 -27.692,6.855 -28.699,0 0,0 -0.039,-8.328 2.808,-10.032 0.174,-0.329 0.445,-0.658 0.658,-0.987 0.194,-2.905 1.569,-5.461 4.241,-7.146 V 0 c -1.336,-0.717 -1.51,-1.433 -1.51,-2.769 h 7.746 c 0,1.336 -0.91,2.072 -0.91,2.769 v 0.717 c 0,-0.097 0.716,-0.136 1.336,-0.136 0.62,0 1.336,0.058 1.336,0.136 V 0 c 0,-0.717 -0.929,-1.433 -0.929,-2.769 H 1.472 C 1.491,-1.433 1.336,-0.717 0,0"
             style="fill:#5ca859;fill-opacity:1;fill-rule:nonzero;stroke:none"
             id="path5587" />
        </g>
        <g
           id="g5589"
           transform="translate(912.291,357.4461)">
          <path
             d="m 0,0 c -16.364,0 -29.61,-5.926 -29.61,-13.246 0,-7.301 10.787,-16.364 29.61,-16.364 18.92,0 29.61,9.063 29.61,16.364 C 29.61,-5.926 16.364,0 0,0"
             style="fill:#5ca859;fill-opacity:1;fill-rule:nonzero;stroke:none"
             id="path5591" />
        </g>
        <g
           id="g5593"
           transform="translate(912.291,357.4461)">
          <path
             d="m 0,0 c -16.364,0 -29.61,-5.926 -29.61,-13.246 0,-7.301 13.266,-13.246 29.61,-13.246 16.344,0 29.61,5.926 29.61,13.246 C 29.61,-5.926 16.364,0 0,0"
             style="fill:#5ca859;fill-opacity:1;fill-rule:nonzero;stroke:none"
             id="path5595" />
        </g>
        <g
           id="g5597"
           transform="translate(912.291,335.0597)">
          <path
             d="m 0,0 c -6.371,0 -12.355,1.104 -16.867,3.137 -4.59,2.053 -7.107,4.803 -7.107,7.746 0,0.155 0.135,0.291 0.29,0.291 0.155,0 0.291,-0.136 0.291,-0.291 0,-5.674 10.496,-10.302 23.393,-10.302 12.897,0 23.393,4.628 23.393,10.302 0,0.155 0.136,0.291 0.291,0.291 0.155,0 0.29,-0.136 0.29,-0.291 0,-2.943 -2.517,-5.712 -7.107,-7.746 C 12.355,1.104 6.371,0 0,0"
             style="fill:#3b2517;fill-opacity:1;fill-rule:nonzero;stroke:none"
             id="path5599" />
        </g>
        <g
           id="g5601"
           transform="translate(908.3017,357.5429)">
          <path
             d="m 0,0 c 0,-4.357 -3.525,-7.882 -7.862,-7.882 -4.338,0 -7.882,3.525 -7.882,7.882 0,4.338 3.524,7.862 7.882,7.862 C -3.525,7.862 0,4.338 0,0"
             style="fill:#5ca859;fill-opacity:1;fill-rule:nonzero;stroke:none"
             id="path5603" />
        </g>
        <g
           id="g5605"
           transform="translate(903.1892,357.6397)">
          <path
             d="m 0,0 c 0,-1.53 -1.239,-2.75 -2.75,-2.75 -1.53,0 -2.75,1.24 -2.75,2.75 0,1.511 1.24,2.75 2.75,2.75 C -1.239,2.769 0,1.53 0,0"
             style="fill:#3b2517;fill-opacity:1;fill-rule:nonzero;stroke:none"
             id="path5607" />
        </g>
        <g
           id="g5609"
           transform="translate(902.5308,358.5112)">
          <path
             d="m 0,0 c 0,-0.426 -0.368,-0.775 -0.813,-0.775 -0.446,0 -0.814,0.349 -0.814,0.775 0,0.426 0.368,0.775 0.814,0.775 C -0.368,0.775 0,0.426 0,0"
             style="fill:#efdbc2;fill-opacity:1;fill-rule:nonzero;stroke:none"
             id="path5611" />
        </g>
        <g
           id="g5613"
           transform="translate(932.0243,357.5429)">
          <path
             d="m 0,0 c 0,-4.357 -3.525,-7.882 -7.862,-7.882 -4.338,0 -7.863,3.525 -7.863,7.882 0,4.338 3.525,7.862 7.863,7.862 C -3.525,7.862 0,4.338 0,0"
             style="fill:#5ca859;fill-opacity:1;fill-rule:nonzero;stroke:none"
             id="path5615" />
        </g>
        <g
           id="g5617"
           transform="translate(926.9118,357.6397)">
          <path
             d="m 0,0 c 0,-1.53 -1.239,-2.75 -2.75,-2.75 -1.53,0 -2.75,1.24 -2.75,2.75 0,1.511 1.24,2.75 2.75,2.75 C -1.239,2.769 0,1.53 0,0"
             style="fill:#3b2517;fill-opacity:1;fill-rule:nonzero;stroke:none"
             id="path5619" />
        </g>
        <g
           id="g5621"
           transform="translate(926.2728,358.5112)">
          <path
             d="m 0,0 c 0,-0.426 -0.368,-0.775 -0.813,-0.775 -0.446,0 -0.814,0.349 -0.814,0.775 0,0.426 0.368,0.775 0.814,0.775 C -0.368,0.775 0,0.426 0,0"
             style="fill:#efdbc2;fill-opacity:1;fill-rule:nonzero;stroke:none"
             id="path5623" />
        </g>
        <g
           id="g5625"
           transform="translate(914.3243,344.5487)">
          <path
             d="m 0,0 c 0,-0.736 -0.271,-1.336 -0.581,-1.336 -0.329,0 -0.581,0.6 -0.581,1.336 0,0.736 0.252,1.317 0.581,1.317 C -0.271,1.317 0,0.736 0,0 m -2.885,0 c 0,-0.736 -0.252,-1.336 -0.581,-1.336 -0.33,0 -0.581,0.6 -0.581,1.336 0,0.736 0.271,1.317 0.581,1.317 0.329,0 0.581,-0.581 0.581,-1.317"
             style="fill:#3b2517;fill-opacity:1;fill-rule:nonzero;stroke:none"
             id="path5627" />
        </g>
        <g
           id="g5629"
           style="display:none">
          <g
             id="g5631" />
          <g
             id="g5647">
            <g
               clip-path="url(#clipPath5635)"
               opacity="0.5"
               id="g5645">
              <g
                 transform="translate(544.1956,271.7553)"
                 id="g5639">
                <path
                   d="m 0,0 h -73.522 c -4.551,0 -8.274,3.724 -8.274,8.275 v 113.007 c 0,4.551 3.723,8.274 8.274,8.274 H 0 c 4.551,0 8.275,-3.723 8.275,-8.274 V 8.275 C 8.275,3.724 4.551,0 0,0"
                   style="fill:#ffffff;fill-opacity:1;fill-rule:nonzero;stroke:none"
                   id="path5637" />
              </g>
              <g
                 transform="translate(544.1956,271.7553)"
                 id="g5643">
                <path
                   d="m 0,0 h -73.522 c -4.551,0 -8.274,3.724 -8.274,8.275 v 113.007 c 0,4.551 3.723,8.274 8.274,8.274 H 0 c 4.551,0 8.275,-3.723 8.275,-8.274 V 8.275 C 8.275,3.724 4.551,0 0,0 Z"
                   style="fill:none;stroke:#286fb5;stroke-width:0.796;stroke-linecap:butt;stroke-linejoin:miter;stroke-miterlimit:10;stroke-dasharray:none;stroke-opacity:1"
                   id="path5641" />
              </g>
            </g>
          </g>
        </g>
      </g>
    </g>
  </g>
</svg>
