<?xml version="1.0" encoding="UTF-8" standalone="no"?>
<!-- Created with Inkscape (http://www.inkscape.org/) -->

<svg
   width="18.962021mm"
   height="27.150383mm"
   viewBox="0 0 18.962021 27.150383"
   version="1.1"
   id="svg12305"
   xmlns:inkscape="http://www.inkscape.org/namespaces/inkscape"
   xmlns:sodipodi="http://sodipodi.sourceforge.net/DTD/sodipodi-0.dtd"
   xmlns="http://www.w3.org/2000/svg"
   xmlns:svg="http://www.w3.org/2000/svg">
  <sodipodi:namedview
     id="namedview12307"
     pagecolor="#ffffff"
     bordercolor="#000000"
     borderopacity="0.25"
     inkscape:showpageshadow="2"
     inkscape:pageopacity="0.0"
     inkscape:pagecheckerboard="0"
     inkscape:deskcolor="#d1d1d1"
     inkscape:document-units="mm"
     showgrid="false" />
  <defs
     id="defs12302">
    <clipPath
       clipPathUnits="userSpaceOnUse"
       id="clipPath5663">
      <path
         d="M 0,720 H 1024 V 0 H 0 Z"
         id="path5661" />
    </clipPath>
    <clipPath
       clipPathUnits="userSpaceOnUse"
       id="clipPath5963">
      <path
         d="m 866.349,545.106 h 90.867 V 414.754 h -90.867 z"
         id="path5961" />
    </clipPath>
  </defs>
  <g
     inkscape:label="Layer 1"
     inkscape:groupmode="layer"
     id="layer1"
     transform="translate(-133.95813,-104.12589)">
    <g
       id="g5657"
       transform="matrix(0.35277777,0,0,-0.35277777,-34.038096,241.03698)"
       style="display:inline">
      <g
         id="g5659"
         clip-path="url(#clipPath5663)"
         style="display:inline">
        <g
           id="g5665"
           transform="translate(502.0227,348.4212)">
          <path
             d="m 0,0 c 0,0 -4.968,0.913 -8.701,-5.573 0.794,-1.395 6.254,-4.493 8.173,-4.564 C 3.006,-10.27 2.542,-0.596 0,0"
             style="fill:#e65013;fill-opacity:1;fill-rule:nonzero;stroke:none"
             id="path5667" />
        </g>
        <g
           id="g5669"
           transform="translate(502.3579,348.2525)">
          <path
             d="m 0,0 c 0,0 -2.256,0.296 -4.753,-1.358 -1.965,-1.302 -6.782,-7.785 -5.514,-12.617 0.508,-1.932 8.512,-6.415 12.237,-4.123 C 5.695,-15.805 3.224,0.179 0,0"
             style="fill:#f6a500;fill-opacity:1;fill-rule:nonzero;stroke:none"
             id="path5671" />
        </g>
        <g
           id="g5673"
           transform="translate(504.6878,346.1352)">
          <path
             d="m 0,0 c 2.151,-3.959 3.122,-13.697 0.151,-15.525 -1.405,-0.865 -2.259,-0.473 -5.169,-0.287 -2.705,0.687 -3.028,1.67 -3.445,2.323 -1.075,1.684 4.083,10.352 5.695,12.072 C -1.958,-0.553 -0.876,-0.169 0,0"
             style="fill:#e65013;fill-opacity:1;fill-rule:nonzero;stroke:none"
             id="path5675" />
        </g>
        <g
           id="g5677"
           transform="translate(496.7827,339.7536)">
          <path
             d="M 0,0 C 0,0 -2.789,1.501 -3.559,1.463 -4.329,1.424 -5.688,-1.694 -5.201,-2.617 -4.714,-3.541 -1.83,-5.427 0,0"
             style="fill:#e65013;fill-opacity:1;fill-rule:nonzero;stroke:none"
             id="path5679" />
        </g>
        <g
           id="g5681"
           transform="translate(522.8124,353.7485)">
          <path
             d="m 0,0 c -0.237,-0.004 -0.239,-0.654 -0.279,-0.81 -0.007,0.025 -0.073,0.83 -0.086,1.005 -0.029,0.409 -0.421,0.433 -0.461,0.077 -0.033,-0.298 -0.06,-0.987 -0.064,-1.022 -0.009,0.033 -0.129,0.856 -0.148,1.009 -0.058,0.448 -0.564,0.448 -0.508,-0.069 0.037,-0.349 0.127,-0.963 0.12,-1.017 -0.022,0.018 -0.198,0.454 -0.321,0.703 -0.203,0.413 -0.582,0.297 -0.435,-0.207 0.117,-0.398 0.353,-1.362 0.353,-1.362 0,0 -0.631,0.259 -0.768,-0.092 -0.14,-0.352 0.977,-0.768 0.977,-0.768 l 0.062,-0.003 c -0.078,-0.811 -1.293,-4.735 -8.978,-3.696 -0.002,-0.505 0.05,-1.485 0.078,-1.792 9.233,-1.236 10.159,4.475 10.338,5.495 0,0 0.399,0.064 0.34,1.466 C 0.195,-0.502 0.228,0.003 0,0"
             style="fill:#b06b51;fill-opacity:1;fill-rule:nonzero;stroke:none"
             id="path5683" />
        </g>
        <g
           id="g5685"
           transform="translate(511.2553,327.9189)">
          <path
             d="m 0,0 c 0,0 -1.483,-10.764 -1.406,-12.149 -0.915,-0.234 -1.79,-0.946 -1.79,-0.946 l 1.068,13.468 z"
             style="fill:#b06b51;fill-opacity:1;fill-rule:nonzero;stroke:none"
             id="path5687" />
        </g>
        <g
           id="g5689"
           transform="translate(508.5457,322.0475)">
          <path
             d="m 0,0 -0.486,-7.224 c 0,0 0.875,0.712 1.79,0.947 -0.038,0.673 0.294,3.563 0.644,6.356 C 1.236,-0.054 0.535,-0.045 0,0"
             style="fill:#66c0be;fill-opacity:1;fill-rule:nonzero;stroke:none"
             id="path5691" />
        </g>
        <g
           id="g5693"
           transform="translate(508.5011,321.3847)">
          <path
             d="m 0,0 -0.036,-0.538 c 0.543,-0.034 1.202,-0.03 1.88,0.08 0.021,0.173 0.043,0.347 0.064,0.521 C 1.215,-0.042 0.543,-0.039 0,0"
             style="fill:#2b3f4e;fill-opacity:1;fill-rule:nonzero;stroke:none"
             id="path5695" />
        </g>
        <g
           id="g5697"
           transform="translate(510.2209,319.8879)">
          <path
             d="M 0,0 C 0.02,0.172 0.041,0.346 0.062,0.521 -0.607,0.418 -1.257,0.416 -1.79,0.451 L -1.826,-0.086 C -1.293,-0.116 -0.654,-0.108 0,0"
             style="fill:#2b3f4e;fill-opacity:1;fill-rule:nonzero;stroke:none"
             id="path5699" />
        </g>
        <g
           id="g5701"
           transform="translate(508.0945,315.3282)">
          <path
             d="m 0,0 c -0.18,-0.398 -0.503,-0.87 0.735,-2.034 0.901,-0.847 2.159,-1.303 3.292,-0.955 1.187,0.365 0.644,1.599 0.644,1.599 z"
             style="fill:#e6e4e4;fill-opacity:1;fill-rule:nonzero;stroke:none"
             id="path5703" />
        </g>
        <g
           id="g5705"
           transform="translate(508.1155,316.7585)">
          <path
             d="M 0,0 C -0.117,-0.3 -0.314,-1.031 0.016,-1.647 1.345,-3.225 2.298,-4.121 3.982,-3.66 5.303,-3.299 4.424,-2.178 3.728,-1.734 3.033,-1.289 1.706,-0.052 1.706,-0.052 1.706,-0.052 1.191,-0.576 0,0"
             style="fill:#2b3f4e;fill-opacity:1;fill-rule:nonzero;stroke:none"
             id="path5707" />
        </g>
        <g
           id="g5709"
           transform="translate(509.822,316.7063)">
          <path
             d="M 0,0 C 0.28,0.402 0.137,0.744 -0.705,0.694 -1.291,0.659 -1.873,0.412 -1.259,-0.122 -1.061,-0.325 -0.237,-0.281 0,0"
             style="fill:#2b3f4e;fill-opacity:1;fill-rule:nonzero;stroke:none"
             id="path5711" />
        </g>
        <g
           id="g5713"
           transform="translate(511.9788,314.9312)">
          <path
             d="M 0,0 C 0.737,-0.455 1.39,-1.553 0.154,-1.891 -0.788,-2.149 -1.616,-1.942 -2.277,-1.49 -2.275,-0.477 -1.027,-0.022 0,0"
             style="fill:#f6f4f4;fill-opacity:1;fill-rule:nonzero;stroke:none"
             id="path5715" />
        </g>
        <g
           id="g5717"
           transform="translate(509.1339,315.6548)">
          <path
             d="M 0,0 C 0.043,0 0.085,0.02 0.112,0.058 0.326,0.365 0.833,0.596 1.31,0.453 1.382,0.432 1.458,0.472 1.48,0.544 1.501,0.617 1.461,0.693 1.388,0.714 0.771,0.9 0.154,0.596 -0.112,0.215 -0.155,0.153 -0.14,0.068 -0.078,0.025 -0.054,0.008 -0.027,0 0,0"
             style="fill:#e6e5e5;fill-opacity:1;fill-rule:nonzero;stroke:none"
             id="path5719" />
        </g>
        <g
           id="g5721"
           transform="translate(509.6528,315.2025)">
          <path
             d="M 0,0 C 0.043,0 0.086,0.02 0.112,0.058 0.326,0.365 0.832,0.597 1.31,0.453 1.382,0.431 1.458,0.472 1.48,0.544 1.501,0.617 1.461,0.693 1.388,0.714 0.77,0.9 0.154,0.596 -0.112,0.215 -0.155,0.153 -0.14,0.068 -0.078,0.025 -0.054,0.008 -0.027,0 0,0"
             style="fill:#e6e5e5;fill-opacity:1;fill-rule:nonzero;stroke:none"
             id="path5723" />
        </g>
        <g
           id="g5725"
           transform="translate(510.1718,314.7502)">
          <path
             d="M 0,0 C 0.043,0 0.086,0.02 0.112,0.058 0.326,0.365 0.832,0.597 1.31,0.453 1.382,0.431 1.458,0.472 1.48,0.544 1.502,0.617 1.461,0.693 1.388,0.714 0.77,0.9 0.154,0.596 -0.112,0.215 -0.155,0.153 -0.14,0.068 -0.078,0.025 -0.054,0.008 -0.027,0 0,0"
             style="fill:#e6e5e5;fill-opacity:1;fill-rule:nonzero;stroke:none"
             id="path5727" />
        </g>
        <g
           id="g5729"
           transform="translate(502.3824,328.2918)">
          <path
             d="m 0,0 c 0,0 -2.579,-12.226 -2.656,-13.61 0.915,-0.235 1.491,-1.047 1.491,-1.047 l 3.199,13.7 z"
             style="fill:#b06b51;fill-opacity:1;fill-rule:nonzero;stroke:none"
             id="path5731" />
        </g>
        <g
           id="g5733"
           transform="translate(501.0778,322.0632)">
          <path
             d="m 0,0 c -0.618,-3.067 -1.309,-6.624 -1.352,-7.382 0.916,-0.234 1.491,-1.046 1.491,-1.046 L 2.05,-0.244 C 1.242,-0.305 0.46,-0.133 0,0"
             style="fill:#66c0be;fill-opacity:1;fill-rule:nonzero;stroke:none"
             id="path5735" />
        </g>
        <g
           id="g5737"
           transform="translate(500.7065,320.2029)">
          <path
             d="m 0,0 c -0.033,-0.165 -0.065,-0.33 -0.097,-0.494 0.509,-0.131 1.215,-0.262 1.966,-0.255 l 0.122,0.521 C 1.242,-0.251 0.528,-0.129 0,0"
             style="fill:#2b3f4e;fill-opacity:1;fill-rule:nonzero;stroke:none"
             id="path5739" />
        </g>
        <g
           id="g5741"
           transform="translate(500.9301,321.3271)">
          <path
             d="M 0,0 C -0.033,-0.164 -0.066,-0.329 -0.099,-0.494 0.419,-0.627 1.142,-0.761 1.908,-0.748 L 2.03,-0.227 C 1.267,-0.256 0.538,-0.131 0,0"
             style="fill:#2b3f4e;fill-opacity:1;fill-rule:nonzero;stroke:none"
             id="path5743" />
        </g>
        <g
           id="g5745"
           transform="translate(501.4813,314.2393)">
          <path
             d="m 0,0 c 0.18,-0.398 0.503,-0.87 -0.735,-2.034 -0.901,-0.847 -2.159,-1.303 -3.292,-0.955 -1.187,0.364 -0.644,1.599 -0.644,1.599 z"
             style="fill:#e6e4e4;fill-opacity:1;fill-rule:nonzero;stroke:none"
             id="path5747" />
        </g>
        <g
           id="g5749"
           transform="translate(501.4604,315.6696)">
          <path
             d="m 0,0 c 0.117,-0.3 0.314,-1.031 -0.016,-1.647 -1.329,-1.578 -2.282,-2.474 -3.966,-2.013 -1.321,0.361 -0.442,1.482 0.254,1.926 0.695,0.445 2.021,1.682 2.021,1.682 0,0 0.516,-0.524 1.707,0.052"
             style="fill:#2b3f4e;fill-opacity:1;fill-rule:nonzero;stroke:none"
             id="path5751" />
        </g>
        <g
           id="g5753"
           transform="translate(499.7539,315.6174)">
          <path
             d="M 0,0 C -0.28,0.402 -0.137,0.744 0.705,0.694 1.291,0.659 1.873,0.412 1.259,-0.122 1.061,-0.325 0.237,-0.281 0,0"
             style="fill:#2b3f4e;fill-opacity:1;fill-rule:nonzero;stroke:none"
             id="path5755" />
        </g>
        <g
           id="g5757"
           transform="translate(497.5971,313.8422)">
          <path
             d="M 0,0 C -0.737,-0.455 -1.39,-1.553 -0.154,-1.891 0.788,-2.149 1.616,-1.942 2.277,-1.49 2.275,-0.477 1.027,-0.022 0,0"
             style="fill:#f6f4f4;fill-opacity:1;fill-rule:nonzero;stroke:none"
             id="path5759" />
        </g>
        <g
           id="g5761"
           transform="translate(500.442,314.5658)">
          <path
             d="M 0,0 C -0.043,0 -0.086,0.02 -0.112,0.058 -0.326,0.365 -0.833,0.596 -1.31,0.453 -1.382,0.432 -1.458,0.472 -1.48,0.544 -1.501,0.617 -1.461,0.693 -1.388,0.714 -0.771,0.9 -0.154,0.596 0.112,0.215 0.155,0.153 0.14,0.068 0.078,0.025 0.054,0.008 0.027,0 0,0"
             style="fill:#e6e5e5;fill-opacity:1;fill-rule:nonzero;stroke:none"
             id="path5763" />
        </g>
        <g
           id="g5765"
           transform="translate(499.923,314.1136)">
          <path
             d="M 0,0 C -0.043,0 -0.086,0.02 -0.112,0.058 -0.326,0.365 -0.832,0.597 -1.31,0.453 -1.382,0.431 -1.458,0.472 -1.48,0.544 -1.501,0.617 -1.461,0.693 -1.388,0.714 -0.77,0.9 -0.154,0.596 0.112,0.215 0.155,0.153 0.14,0.068 0.078,0.025 0.054,0.008 0.027,0 0,0"
             style="fill:#e6e5e5;fill-opacity:1;fill-rule:nonzero;stroke:none"
             id="path5767" />
        </g>
        <g
           id="g5769"
           transform="translate(499.404,313.6613)">
          <path
             d="M 0,0 C -0.043,0 -0.086,0.02 -0.112,0.058 -0.326,0.365 -0.832,0.597 -1.31,0.453 -1.382,0.431 -1.458,0.472 -1.48,0.544 -1.502,0.617 -1.461,0.693 -1.388,0.714 -0.77,0.9 -0.154,0.596 0.112,0.215 0.155,0.153 0.14,0.068 0.078,0.025 0.054,0.008 0.027,0 0,0"
             style="fill:#e6e5e5;fill-opacity:1;fill-rule:nonzero;stroke:none"
             id="path5771" />
        </g>
        <g
           id="g5773"
           transform="translate(511.1494,348.05)">
          <path
             d="m 0,0 c 0,0 -1.897,0.35 -2.752,0.427 -0.08,0.893 0,2.154 0,2.154 l -2.184,0.172 c 0,0 -0.019,-1.725 0,-2.312 C -5.832,0.257 -7.407,0.007 -7.848,-0.046 -6.561,-6.538 0.231,-4.274 0,0"
             style="fill:#b06b51;fill-opacity:1;fill-rule:nonzero;stroke:none"
             id="path5775" />
        </g>
        <g
           id="g5777"
           transform="translate(508.2213,349.0716)">
          <path
             d="m 0,0 0.001,-0.688 c 0,0 -1.043,0.538 -1.896,0 0.027,0.405 0.027,0.783 0.027,0.783 z"
             style="fill:#873f25;fill-opacity:1;fill-rule:nonzero;stroke:none"
             id="path5779" />
        </g>
        <g
           id="g5781"
           transform="translate(502.0713,335.7593)">
          <path
             d="m 0,0 c -0.732,-2.869 -1.892,-7.643 -1.841,-7.929 1.026,-1.358 13.028,-0.884 13.505,0.065 0.123,0.711 -0.344,5.175 -0.945,7.89 C 8.518,-0.44 2.818,-0.293 0,0"
             style="fill:#2b3f4e;fill-opacity:1;fill-rule:nonzero;stroke:none"
             id="path5783" />
        </g>
        <g
           id="g5785"
           transform="translate(509.8084,348.2657)">
          <path
             d="m 0,0 c 0,0 1.73,-0.165 2.638,-0.528 0.666,-3.473 0.536,-9.431 0.42,-12.313 -1.881,-0.87 -8.819,-1.108 -11.054,-0.362 0.424,6.103 -0.811,12.129 0.027,12.595 0.493,0.273 2.997,0.726 2.997,0.726 0,0 -0.162,-2.955 2.957,-2.885 C 1.081,-2.698 0,0 0,0"
             style="fill:#66c0be;fill-opacity:1;fill-rule:nonzero;stroke:none"
             id="path5787" />
        </g>
        <g
           id="g5789"
           transform="translate(507.022,344.1964)">
          <path
             d="m 0,0 c 0,0 -1.169,-6.374 -1.118,-6.77 0.064,-0.507 1.964,-2.802 2.206,-2.806 0.332,-0.006 1.836,2.703 1.843,3.031 0.008,0.382 -2.015,6.584 -2.015,6.584 z"
             style="fill:#2b3f4e;fill-opacity:1;fill-rule:nonzero;stroke:none"
             id="path5791" />
        </g>
        <g
           id="g5793"
           transform="translate(507.9384,344.2355)">
          <path
             d="m 0,0 -0.916,-0.039 c 0,0 -0.014,-0.074 -0.038,-0.207 0.012,-0.007 0.024,-0.013 0.035,-0.017 0.117,-0.045 0.783,0 0.882,0.044 0.023,0.011 0.052,0.037 0.084,0.074 C 0.017,-0.052 0,0 0,0"
             style="fill:#050b10;fill-opacity:1;fill-rule:nonzero;stroke:none"
             id="path5795" />
        </g>
        <g
           id="g5797"
           transform="translate(505.9579,337.987)">
          <path
             d="m 0,0 c -0.041,-0.298 -0.062,-0.5 -0.054,-0.561 0.005,-0.041 0.024,-0.096 0.052,-0.159 L 3.496,1.477 C 3.437,1.67 3.375,1.872 3.31,2.08 Z"
             style="fill:#050b10;fill-opacity:1;fill-rule:nonzero;stroke:none"
             id="path5799" />
        </g>
        <g
           id="g5801"
           transform="translate(507.0484,335.7019)">
          <path
             d="M 0,0 2.866,1.799 C 2.89,1.867 2.904,1.919 2.905,1.949 2.906,2.006 2.862,2.193 2.786,2.469 L -0.38,0.48 C -0.257,0.319 -0.129,0.156 0,0"
             style="fill:#050b10;fill-opacity:1;fill-rule:nonzero;stroke:none"
             id="path5803" />
        </g>
        <g
           id="g5805"
           transform="translate(506.363,340.4929)">
          <path
             d="M 0,0 C -0.047,-0.273 -0.093,-0.544 -0.137,-0.804 L 2.504,0.853 C 2.439,1.056 2.375,1.257 2.313,1.453 Z"
             style="fill:#050b10;fill-opacity:1;fill-rule:nonzero;stroke:none"
             id="path5807" />
        </g>
        <g
           id="g5809"
           transform="translate(506.8097,343.0249)">
          <path
             d="M 0,0 C -0.044,-0.246 -0.093,-0.519 -0.145,-0.809 L 1.457,0.196 C 1.382,0.429 1.317,0.632 1.264,0.794 Z"
             style="fill:#050b10;fill-opacity:1;fill-rule:nonzero;stroke:none"
             id="path5811" />
        </g>
        <g
           id="g5813"
           transform="translate(505.9315,337.7866)">
          <path
             d="M 0,0 C -0.022,-0.178 -0.032,-0.299 -0.029,-0.351 L 3.472,1.842 C 3.444,1.934 3.415,2.027 3.386,2.122 Z"
             style="fill:#eceaf4;fill-opacity:1;fill-rule:nonzero;stroke:none"
             id="path5815" />
        </g>
        <g
           id="g5817"
           transform="translate(509.9457,337.7174)">
          <path
             d="M 0,0 C -0.011,0.064 -0.035,0.164 -0.068,0.291 L -3.181,-1.66 c 0.058,-0.075 0.117,-0.149 0.176,-0.223 z"
             style="fill:#eceaf4;fill-opacity:1;fill-rule:nonzero;stroke:none"
             id="path5819" />
        </g>
        <g
           id="g5821"
           transform="translate(506.3276,340.2863)">
          <path
             d="m 0,0 c -0.022,-0.126 -0.043,-0.25 -0.063,-0.373 l 2.55,1.598 C 2.457,1.319 2.428,1.411 2.398,1.503 Z"
             style="fill:#eceaf4;fill-opacity:1;fill-rule:nonzero;stroke:none"
             id="path5823" />
        </g>
        <g
           id="g5825"
           transform="translate(506.7722,342.8165)">
          <path
             d="M 0,0 C -0.022,-0.12 -0.044,-0.246 -0.067,-0.375 L 1.441,0.57 C 1.409,0.67 1.379,0.762 1.352,0.847 Z"
             style="fill:#eceaf4;fill-opacity:1;fill-rule:nonzero;stroke:none"
             id="path5827" />
        </g>
        <g
           id="g5829"
           transform="translate(506.1792,345.7779)">
          <path
             d="M 0,0 C 0.374,0.36 2.117,0.392 2.353,0.167 2.578,-0.047 1.904,-1.52 1.683,-1.619 1.591,-1.66 0.972,-1.702 0.862,-1.66 0.539,-1.535 -0.177,-0.171 0,0"
             style="fill:#2b3f4e;fill-opacity:1;fill-rule:nonzero;stroke:none"
             id="path5831" />
        </g>
        <g
           id="g5833"
           transform="translate(506.7428,344.4095)">
          <path
             d="M 0,0 1.799,1.129 C 1.845,1.323 1.851,1.477 1.79,1.536 1.74,1.583 1.625,1.618 1.47,1.642 L -0.319,0.518 C -0.221,0.332 -0.109,0.147 0,0"
             style="fill:#050b10;fill-opacity:1;fill-rule:nonzero;stroke:none"
             id="path5835" />
        </g>
        <g
           id="g5837"
           transform="translate(506.6462,344.5492)">
          <path
             d="M 0,0 1.93,1.209 C 1.934,1.296 1.922,1.362 1.886,1.396 1.864,1.417 1.829,1.435 1.784,1.451 L -0.147,0.241 C -0.1,0.157 -0.05,0.076 0,0"
             style="fill:#eceaf4;fill-opacity:1;fill-rule:nonzero;stroke:none"
             id="path5839" />
        </g>
        <g
           id="g5841"
           transform="translate(505.014,348.473)">
          <path
             d="m 0,0 c 0,0 0.335,-1.402 2.366,-2.383 -1.256,-0.46 -2.704,-1.569 -2.704,-1.569 0,0 -1.65,1.925 -1.96,3.522 C -0.943,-0.018 0.054,-0.046 0,0"
             style="fill:#f9f6f1;fill-opacity:1;fill-rule:nonzero;stroke:none"
             id="path5843" />
        </g>
        <g
           id="g5845"
           transform="translate(509.0399,348.4612)">
          <path
             d="m 0,0 c 0,0 -0.214,-1.657 -1.66,-2.372 1.299,-0.434 2.806,-1.593 2.806,-1.593 0,0 0.952,1.878 1.128,3.554 C 1.04,0.014 0,0 0,0"
             style="fill:#f9f6f1;fill-opacity:1;fill-rule:nonzero;stroke:none"
             id="path5847" />
        </g>
        <g
           id="g5849"
           transform="translate(500.732,347.7899)">
          <path
             d="M 0,0 C -0.089,-0.352 0.596,-3.639 1.041,-4.416 1.276,-4.827 3.305,-4.734 3.508,-3.818 3.785,-2.572 3.619,-0.091 3.484,0.675 2.96,1.057 -0.008,0.61 0,0"
             style="fill:#a04c38;fill-opacity:1;fill-rule:nonzero;stroke:none"
             id="path5851" />
        </g>
        <g
           id="g5853"
           transform="translate(501.7104,348.5749)">
          <path
             d="m 0,0 c 0,0 0.497,-7.4 0.282,-8.295 -0.215,-0.896 -5.595,-7.168 -5.595,-7.168 l 0.866,-0.855 c 0,0 6.009,6.71 6.224,7.963 0.215,1.254 -0.231,8.567 -0.231,8.567 z"
             style="fill:#f6a500;fill-opacity:1;fill-rule:nonzero;stroke:none"
             id="path5855" />
        </g>
        <g
           id="g5857"
           transform="translate(496.112,342.8259)">
          <path
             d="M 0,0 C 0.26,0.703 2.533,2.598 4.761,4.069 4.837,3.563 5.034,2.677 5.131,2.222 4.686,1.699 1.332,-0.535 1.736,-1.055 c 0.689,-0.886 2.643,-1.103 2.655,-1.046 1.222,-0.059 1.354,1.046 1.54,0.67 0.122,-0.249 0.032,-0.629 0.054,-1.043 0.009,-0.177 0.348,-0.234 0.624,-0.2 0.43,0.065 0.674,0.215 0.735,0.234 C 7.694,-2.657 7.427,-3.022 7.3,-3.01 7.548,-3.053 7.496,-3.446 7.171,-3.584 7.302,-3.747 7.075,-4.099 6.609,-4.158 5.226,-4.332 4.096,-3.453 4.096,-3.453 0.885,-2.858 -1.218,-2.018 0,0"
             style="fill:#b06b51;fill-opacity:1;fill-rule:nonzero;stroke:none"
             id="path5859" />
        </g>
        <g
           id="g5861"
           transform="translate(500.7499,347.3737)">
          <path
             d="m 0,0 c -1.193,-0.679 -3.261,-2.488 -3.261,-2.488 l 2.207,-3.096 2.017,1.702 z"
             style="fill:#66c0be;fill-opacity:1;fill-rule:nonzero;stroke:none"
             id="path5863" />
        </g>
        <g
           id="g5865"
           transform="translate(496.9667,344.5816)">
          <path
             d="M 0,0 0.756,0.649 3.262,-2.636 2.491,-3.081 Z"
             style="fill:#f9f6f1;fill-opacity:1;fill-rule:nonzero;stroke:none"
             id="path5867" />
        </g>
        <g
           id="g5869"
           transform="translate(512.4468,347.7379)">
          <path
             d="M 0,0 C 0,0 2.825,-0.311 3.715,-0.21 4.289,-3.039 3.721,-4.37 3.721,-4.37 L 0.429,-4.074 C 0.429,-4.074 -0.937,0.109 0,0"
             style="fill:#66c0be;fill-opacity:1;fill-rule:nonzero;stroke:none"
             id="path5871" />
        </g>
        <g
           id="g5873"
           transform="translate(515.4907,347.5495)">
          <path
             d="M 0,0 0.995,0.046 1.046,-4.382 0.065,-4.258 Z"
             style="fill:#f9f6f1;fill-opacity:1;fill-rule:nonzero;stroke:none"
             id="path5875" />
        </g>
        <g
           id="g5877"
           transform="translate(498.7248,376.4089)">
          <path
             d="m 0,0 c -0.67,2.653 -6.406,5.913 -11.418,5.367 -6.592,-0.716 -9.994,-5.738 -8.673,-12.247 1.32,-6.508 0.348,-8.667 -2.424,-8.155 2.736,-2.685 11.686,-2.685 13.226,2.032 C -7.748,-8.287 0,0 0,0"
             style="fill:#452821;fill-opacity:1;fill-rule:nonzero;stroke:none"
             id="path5879" />
        </g>
        <g
           id="g5881"
           transform="translate(505.6104,381.2189)">
          <path
             d="m 0,0 c 0.303,2.719 5.542,6.728 10.583,6.87 6.627,0.186 10.68,-4.327 10.257,-10.954 -0.424,-6.628 0.834,-8.635 3.51,-7.751 -2.345,-3.032 -11.212,-4.248 -13.38,0.215 C 8.803,-7.157 0,0 0,0"
             style="fill:#452821;fill-opacity:1;fill-rule:nonzero;stroke:none"
             id="path5883" />
        </g>
        <g
           id="g5885"
           transform="translate(497.8439,352.6314)">
          <path
             d="M 0,0 C -13.696,2.567 -14.066,20.91 -5.049,29.127 3.968,37.345 28.425,33.608 24.639,12.011 10.607,10.445 0,0 0,0"
             style="fill:#5a342b;fill-opacity:1;fill-rule:nonzero;stroke:none"
             id="path5887" />
        </g>
        <g
           id="g5889"
           transform="translate(493.4994,360.8773)">
          <path
             d="m 0,0 c 1.277,-8.287 8.593,-12.807 16.573,-11.578 7.979,1.229 13.597,7.742 12.32,16.03 -1.276,8.286 -8.732,13.709 -16.712,12.48 C 4.201,15.703 -1.276,8.286 0,0"
             style="fill:#cc8064;fill-opacity:1;fill-rule:nonzero;stroke:none"
             id="path5891" />
        </g>
        <g
           id="g5893"
           transform="translate(493.4994,360.8773)">
          <path
             d="m 0,0 c 1.277,-8.287 8.593,-12.807 16.573,-11.578 7.979,1.229 13.597,7.742 12.32,16.03 -1.276,8.286 -8.732,13.709 -16.712,12.48 C 4.201,15.703 -1.276,8.286 0,0"
             style="fill:#b06b51;fill-opacity:1;fill-rule:nonzero;stroke:none"
             id="path5895" />
        </g>
        <g
           id="g5897"
           transform="translate(494.0854,360.9034)">
          <path
             d="m 0,0 c 0,0 -0.454,1.653 -2.53,1.634 -2.189,-0.023 -2.689,-2.963 -1.318,-4.505 1.371,-1.54 3.777,-1.266 4.357,0.152 z"
             style="fill:#b06b51;fill-opacity:1;fill-rule:nonzero;stroke:none"
             id="path5899" />
        </g>
        <g
           id="g5901"
           transform="translate(491.2277,361.746)">
          <path
             d="M 0,0 C 1.375,0.413 2.8,-1.926 1.045,-3.433 1.646,-1.593 0.841,-1.08 -0.07,-2.031 -0.126,-1.46 0.183,-1.06 1.037,-1.023 0.883,-0.277 0,0 0,0"
             style="fill:#873f25;fill-opacity:1;fill-rule:nonzero;stroke:none"
             id="path5903" />
        </g>
        <g
           id="g5905"
           transform="translate(507.5572,361.2999)">
          <path
             d="M 0,0 C 0.415,-0.243 0.531,0.807 1.425,0.857 2.337,0.908 2.499,-0.146 2.918,0.22 3.26,0.519 2.747,1.785 1.255,1.655 0.011,1.546 -0.394,0.231 0,0"
             style="fill:#c74a39;fill-opacity:1;fill-rule:nonzero;stroke:none"
             id="path5907" />
        </g>
        <g
           id="g5909"
           transform="translate(517.9911,359.7425)">
          <path
             d="M 0,0 C 0.131,-0.716 1.154,-1.128 2.286,-0.921 3.418,-0.714 4.23,0.034 4.099,0.749 3.968,1.465 2.945,1.877 1.813,1.67 0.681,1.463 -0.131,0.716 0,0"
             style="fill:#c74a39;fill-opacity:1;fill-rule:nonzero;stroke:none"
             id="path5911" />
        </g>
        <g
           id="g5913"
           transform="translate(496.6013,356.7137)">
          <path
             d="M 0,0 C 0.105,-0.72 1.112,-1.169 2.251,-1.004 3.39,-0.839 4.228,-0.121 4.124,0.599 4.019,1.319 3.011,1.768 1.873,1.603 0.734,1.438 -0.105,0.72 0,0"
             style="fill:#c74a39;fill-opacity:1;fill-rule:nonzero;stroke:none"
             id="path5915" />
        </g>
        <g
           id="g5917"
           transform="translate(516.2285,367.6991)">
          <path
             d="M 0,0 C -1.517,0.362 -1.762,-1.299 -0.767,-1.262 0.3,-1.221 1.209,-1.573 1.338,-1.465 1.623,-1.226 0.854,-0.203 0,0"
             style="fill:#5a342b;fill-opacity:1;fill-rule:nonzero;stroke:none"
             id="path5919" />
        </g>
        <g
           id="g5921"
           transform="translate(500.3392,365.6612)">
          <path
             d="M 0,0 C 1.434,0.616 1.958,-0.979 0.972,-1.113 -0.087,-1.254 -0.922,-1.757 -1.067,-1.672 -1.389,-1.485 -0.806,-0.346 0,0"
             style="fill:#5a342b;fill-opacity:1;fill-rule:nonzero;stroke:none"
             id="path5923" />
        </g>
        <g
           id="g5925"
           transform="translate(501.9023,358.0706)">
          <path
             d="M 0,0 C 1.116,0.078 1.379,0.854 1.39,0.886 1.433,1.024 1.581,1.1 1.719,1.058 1.858,1.015 1.935,0.867 1.892,0.728 1.879,0.686 1.756,0.316 1.37,-0.016 2.243,-2.83 5.125,-4.6 8.1,-4.137 c 3.021,0.469 5.231,3.07 5.162,6.061 -0.193,0.089 -0.361,0.214 -0.501,0.373 -0.096,0.109 -0.085,0.276 0.023,0.372 0.109,0.096 0.276,0.085 0.372,-0.023 C 13.681,2.051 14.673,2.374 14.714,2.388 14.85,2.436 15.001,2.363 15.049,2.227 15.097,2.09 15.025,1.939 14.888,1.891 14.858,1.881 14.591,1.79 14.237,1.766 14.082,1.755 13.931,1.759 13.789,1.777 13.783,-1.403 11.389,-4.159 8.181,-4.657 7.991,-4.687 7.797,-4.709 7.604,-4.722 7.447,-4.733 7.291,-4.738 7.136,-4.738 c -2.827,0 -5.334,1.765 -6.225,4.428 -0.259,-0.121 -0.552,-0.193 -0.875,-0.215 -0.144,-0.01 -0.27,0.099 -0.28,0.244 C -0.254,-0.136 -0.145,-0.01 0,0"
             style="fill:#7d2b33;fill-opacity:1;fill-rule:nonzero;stroke:none"
             id="path5927" />
        </g>
        <g
           id="g5929"
           transform="translate(514.4567,362.2784)">
          <path
             d="M 0,0 C 0.485,0.002 0.803,1.224 2.155,1.301 3.536,1.38 4.157,-0.055 4.417,0.341 4.6,0.618 4.154,2.71 1.897,2.508 0.012,2.341 -0.457,-0.002 0,0"
             style="fill:#0a0b10;fill-opacity:1;fill-rule:nonzero;stroke:none"
             id="path5931" />
        </g>
        <g
           id="g5933"
           transform="translate(498.4405,359.5616)">
          <path
             d="M 0,0 C 0.483,0.046 0.687,1.292 2.027,1.494 3.394,1.7 4.144,0.327 4.367,0.745 4.524,1.038 3.888,3.08 1.658,2.672 -0.203,2.332 -0.455,-0.044 0,0"
             style="fill:#0a0b10;fill-opacity:1;fill-rule:nonzero;stroke:none"
             id="path5935" />
        </g>
        <g
           id="g5937"
           transform="translate(493.1606,362.1049)">
          <path
             d="M 0,0 C 3.143,1.537 9.826,7.533 12.769,14.038 17.022,9.624 27.162,4.766 29.413,6.237 25.463,15.848 17.944,21.549 12.819,20.822 3.872,19.552 -6.936,11.5 0,0"
             style="fill:#5a342b;fill-opacity:1;fill-rule:nonzero;stroke:none"
             id="path5939" />
        </g>
        <g
           id="g5941"
           transform="translate(504.6358,377.3813)">
          <path
             d="M 0,0 C 0,0 -4.533,-8.025 -12.972,-9.825 -8.156,-7.332 0,0 0,0"
             style="fill:#452821;fill-opacity:1;fill-rule:nonzero;stroke:none"
             id="path5943" />
        </g>
        <g
           id="g5945"
           transform="translate(503.3362,380.9946)">
          <path
             d="M 0,0 C 0,0 -6.324,-5.231 -11.942,-5.614 -6.39,-2.883 0,0 0,0"
             style="fill:#452821;fill-opacity:1;fill-rule:nonzero;stroke:none"
             id="path5947" />
        </g>
        <g
           id="g5949"
           transform="translate(507.6693,379.0552)">
          <path
             d="M 0,0 C 0,0 6.135,-4.627 10.85,-4.775 7.182,-3.426 0,0 0,0"
             style="fill:#452821;fill-opacity:1;fill-rule:nonzero;stroke:none"
             id="path5951" />
        </g>
        <g
           id="g5953"
           transform="translate(506.6969,382.019)">
          <path
             d="M 0,0 C 0,0 4.239,-3.095 6.904,-2.16 3.611,-1.509 0,0 0,0"
             style="fill:#452821;fill-opacity:1;fill-rule:nonzero;stroke:none"
             id="path5955" />
        </g>
        <g
           id="g5957"
           style="display:none">
          <g
             id="g5959" />
          <g
             id="g5975">
            <g
               clip-path="url(#clipPath5963)"
               opacity="0.5"
               id="g5973">
              <g
                 transform="translate(948.5432,415.1517)"
                 id="g5967">
                <path
                   d="m 0,0 h -73.522 c -4.551,0 -8.274,3.724 -8.274,8.275 v 113.007 c 0,4.551 3.723,8.274 8.274,8.274 H 0 c 4.551,0 8.275,-3.723 8.275,-8.274 V 8.275 C 8.275,3.724 4.551,0 0,0"
                   style="fill:#ffffff;fill-opacity:1;fill-rule:nonzero;stroke:none"
                   id="path5965" />
              </g>
              <g
                 transform="translate(948.5432,415.1517)"
                 id="g5971">
                <path
                   d="m 0,0 h -73.522 c -4.551,0 -8.274,3.724 -8.274,8.275 v 113.007 c 0,4.551 3.723,8.274 8.274,8.274 H 0 c 4.551,0 8.275,-3.723 8.275,-8.274 V 8.275 C 8.275,3.724 4.551,0 0,0 Z"
                   style="fill:none;stroke:#286fb5;stroke-width:0.796;stroke-linecap:butt;stroke-linejoin:miter;stroke-miterlimit:10;stroke-dasharray:none;stroke-opacity:1"
                   id="path5969" />
              </g>
            </g>
          </g>
        </g>
      </g>
    </g>
  </g>
</svg>
