<svg width="43" height="64" viewBox="0 0 43 64" fill="none" xmlns="http://www.w3.org/2000/svg">
<path d="M41.27 26.57C40.76 27.03 38.22 29.56 37.54 30.17C36.86 30.79 35.87 31.59 35.03 32.76C34.19 33.92 33.52 35.76 33.2 36.26C32.94 36.67 32.55 37.1 32.14 37.47C32.11 37.49 31.55 37.85 31.4 37.96C31.24 38.07 30.91 38.32 30.71 37.96C30.52 37.61 30.33 36.95 30.26 36.69C30.29 36.81 30.43 37.49 30.5 37.68C30.57 37.89 30.75 38.27 30.79 38.33C30.83 38.39 30.88 38.57 30.76 38.75C30.65 38.92 30.22 39.64 30.17 39.73C29.76 40.31 29.18 40.85 27.96 41.95C27.69 42.2 27.43 42.41 27.2 42.6C27.2 42.6 27.2 42.6 27.19 42.6C27.19 42.6 27.19 42.6 27.18 42.6C27.14 42.63 27.04 42.7 26.9 42.79C26.87 42.81 26.84 42.83 26.81 42.85C26.7 42.92 26.57 42.99 26.42 43.07C26.4 43.08 26.38 43.09 26.36 43.1C26.1 43.24 25.79 43.38 25.45 43.49C24.45 43.83 21.32 43.52 18.83 42.24C18.83 42.24 18.83 42.24 18.84 42.25C18.86 42.27 18.91 42.3 18.97 42.35C18.98 42.35 19 42.37 19.01 42.38C19.03 42.4 19.06 42.41 19.09 42.43C19.12 42.45 19.15 42.46 19.18 42.48C19.23 42.51 19.29 42.55 19.36 42.58C19.38 42.59 19.4 42.6 19.42 42.61C19.45 42.63 19.49 42.65 19.53 42.67C19.55 42.68 19.58 42.69 19.6 42.7C19.6 42.7 19.62 42.7 19.62 42.71C19.66 42.73 19.7 42.75 19.74 42.77C19.79 42.79 19.85 42.82 19.9 42.84C19.94 42.86 19.98 42.87 20.02 42.89C20.08 42.91 20.14 42.94 20.21 42.96C20.23 42.96 20.25 42.98 20.27 42.98C20.29 42.98 20.31 43 20.34 43C20.38 43.02 20.43 43.03 20.48 43.05C20.5 43.05 20.53 43.07 20.55 43.07C20.57 43.07 20.6 43.09 20.62 43.09C20.69 43.11 20.77 43.14 20.85 43.16C20.88 43.16 20.9 43.18 20.93 43.18C20.96 43.18 20.98 43.2 21.01 43.2C21.04 43.2 21.07 43.22 21.09 43.22C21.09 43.22 21.1 43.22 21.11 43.22C21.16 43.23 21.2 43.25 21.25 43.26C21.46 43.32 21.68 43.37 21.91 43.42C24.1 43.88 24.68 43.73 24.96 43.71C25.25 43.69 25.28 43.9 25.31 44.14C25.33 44.38 25.42 45.59 25.56 46.46C25.67 47.18 26.21 50.11 26.39 51.09C26.41 51.19 26.42 51.27 26.43 51.33V51.35C26.43 51.39 26.44 51.42 26.44 51.42C27.1 54.99 29.01 63.65 29.01 63.65H26.96C26.59 61.13 24.3 46.79 24.03 45.87C23.72 44.83 22.99 44.6 22.32 44.54C21.64 44.48 20.68 44.38 19.69 44.19C18.71 44 18.11 44.35 18.11 44.35C17.56 44.63 16.6 45 15.77 45.4C14.93 45.8 14.8 46.57 14.78 47.46C14.76 48.24 15.26 61.3 15.4 63.65H12.74C12.74 63.65 13.21 50.41 13.29 48.33C13.37 47.5 13.31 46.07 13.37 45.68C13.43 45.29 14.17 45.43 14.67 45.38C15.17 45.34 15.95 45.05 16.56 44.81C17.15 44.58 17.97 44.26 18.02 44.24C17.09 44.41 15.57 45.1 14.69 45.15C13.81 45.2 13.15 45.02 12.9 44.67C12.67 44.35 12.23 43.85 12.17 43.78C12.09 43.67 11.99 43.55 11.88 43.4C11.57 43 10.57 41.61 9.63002 40.04C8.69002 38.47 8.08002 36.95 7.57002 35.5C7.06002 34.05 6.83002 33.53 6.49002 32.52C6.15002 31.51 6.08001 30.63 6.09001 30.31C6.09001 29.99 5.92001 29.05 5.89001 28.66C5.86001 28.27 5.09001 26.62 4.44001 25.3C3.78001 23.98 3.01 22.57 2.4 21.39C1.79 20.21 1.19001 18.95 0.75001 17.76C0.55001 17.21 0.420013 16.57 0.440013 15.98C0.450013 16.43 0.660015 17.12 0.880015 17.71C1.13002 18.4 1.96001 20.16 2.14001 20.51C2.32001 20.85 2.81002 20.58 2.85002 20.56C2.49002 20.88 2.46001 21.08 2.52001 21.25C2.59001 21.42 3.42001 23.11 3.70001 23.56C3.98001 24 4.37001 23.86 4.39001 23.85C4.20001 24.15 4.45001 24.89 4.64001 25.31C4.83001 25.73 5.42002 26.94 5.74002 27.59C6.06002 28.22 6.53001 28.01 6.55001 28C6.30001 28.48 6.32001 29.39 6.45001 30.53C6.58001 31.67 7.30001 32.25 7.84001 32.18C8.39001 32.11 10.46 31.29 12.68 29.96C14.86 28.65 17.13 25.81 17.2 25.72C14.07 30.32 9.36001 32.05 8.58001 32.72C7.80001 33.4 8.08001 35.35 9.36001 37.95C10.63 40.56 13.1 43.37 14.16 43.99C15.22 44.61 17.11 43.89 18.01 43.71C18.92 43.53 20.91 43.71 20.91 43.71C20.91 43.71 18.83 43.03 17.76 41.99C16.69 40.95 16.54 39.12 16.54 39.12C18.59 41.15 20.48 41.07 23.6 41.16C26.72 41.25 28.3 40.23 28.94 39.7C29.58 39.16 30.14 38.08 30.09 37.29C30.04 36.5 29.8 35.7 29.8 35.7C30.43 36.36 30.94 36.24 31.37 35.85C31.8 35.46 32.15 34.69 32.47 34.07C32.79 33.45 33.6 32.41 34.45 31.46C35.3 30.51 36.17 29.72 36.22 29.34C36.27 28.97 35.58 28.34 35.54 28.31C36.14 28.72 36.61 29.15 37.04 29.04C37.47 28.92 38.64 27.85 39.58 27.16C40.52 26.47 41.27 26 41.73 25.55C42.17 25.12 42.16 24.58 42.16 24.54C42.16 24.55 42.16 24.56 42.17 24.58C42.37 25.38 41.76 26 41.25 26.46L41.27 26.57Z" fill="#FB966A"/>
<path d="M24.05 45.95C24.32 46.87 26.61 61.22 26.98 63.73H15.42C15.28 61.38 14.78 48.32 14.8 47.54C14.82 46.64 14.95 45.88 15.79 45.48C16.63 45.08 17.58 44.71 18.13 44.43C18.13 44.43 18.73 44.08 19.71 44.27C20.7 44.46 21.66 44.56 22.34 44.62C23.02 44.68 23.74 44.91 24.05 45.95Z" fill="#F9BF8E"/>
<path d="M41.74 25.66C41.28 26.11 40.52 26.59 39.59 27.27C38.65 27.96 37.48 29.03 37.05 29.15C36.62 29.27 36.15 28.83 35.55 28.42C35.59 28.46 36.2799 29.09 36.2299 29.45C36.18 29.83 35.3 30.62 34.46 31.57C33.61 32.51 32.7999 33.56 32.4799 34.18C32.16 34.8 31.81 35.57 31.38 35.96C30.95 36.35 30.44 36.47 29.81 35.81C29.81 35.81 30.05 36.62 30.1 37.4C30.15 38.19 29.58 39.27 28.95 39.81C28.31 40.35 26.73 41.36 23.61 41.27C20.49 41.18 18.6 41.27 16.55 39.23C16.55 39.23 16.7 41.05 17.77 42.1C18.84 43.15 20.92 43.82 20.92 43.82C20.92 43.82 18.93 43.64 18.02 43.82C17.11 44 15.22 44.71 14.17 44.1C13.12 43.48 10.6499 40.67 9.36995 38.06C8.09995 35.45 7.81995 33.5 8.58995 32.83C9.36995 32.15 14.08 30.42 17.21 25.83C17.14 25.92 14.88 28.75 12.69 30.07C10.47 31.4 8.39996 32.22 7.84996 32.29C7.29996 32.36 6.58996 31.78 6.45996 30.64C6.32996 29.5 6.30995 28.59 6.55995 28.11C6.52995 28.12 6.06995 28.33 5.74995 27.7C5.41995 27.05 4.83995 25.83 4.64995 25.42C4.45995 25 4.19995 24.26 4.39995 23.96C4.37995 23.96 3.98996 24.1 3.70996 23.67C3.42996 23.22 2.59995 21.54 2.52995 21.36C2.45995 21.19 2.49995 20.99 2.85995 20.67C2.81995 20.69 2.32995 20.95 2.14995 20.62C1.95995 20.27 1.13995 18.51 0.889954 17.82C0.669954 17.23 0.469951 16.54 0.449951 16.09C0.449951 16.02 0.449951 15.96 0.449951 15.89C0.499951 15.29 0.709948 14.77 1.14995 14.52C1.28995 14.44 1.42996 14.38 1.56996 14.35C1.64996 14.35 2.26996 14.35 2.81996 15.17C3.40996 16.06 4.09996 17.73 4.32996 18.25C4.55996 18.77 4.62996 19.4 4.07996 19.84C4.11996 19.81 4.79995 19.42 5.24995 20.18C5.71995 20.97 5.84996 21.45 6.09996 21.86C6.32996 22.24 6.34996 22.87 5.62996 23.31C5.91996 23.15 6.55995 22.84 6.74995 23.04C6.99995 23.31 7.79996 25.01 8.01996 25.42C8.23996 25.82 8.34996 26.47 7.45996 27.28C7.60996 27.15 8.55995 26.36 8.91995 26.62C8.91995 26.62 8.54996 26.19 8.81996 25.82C8.96996 25.61 9.24996 25.26 9.45996 24.98C9.46996 24.97 9.47995 24.95 9.49995 24.94C9.56995 24.85 9.64995 24.76 9.72995 24.65C9.72995 24.65 9.73995 24.64 9.74995 24.63C9.74995 24.63 9.74995 24.62 9.75995 24.61C9.86995 24.46 9.97996 24.3 10.07 24.17C10.29 23.82 10.22 23.3 10.16 22.77C10.1 22.23 9.65996 20.62 9.37996 19.64C9.09996 18.66 8.43995 13.99 8.24995 12.91C8.05995 11.83 7.53996 8.90001 7.26996 7.32001C6.99996 5.74001 7.69995 4.85003 8.22995 4.53003C8.63995 4.28003 9.26996 4.24 9.81996 4.44C9.81996 4.44 10.53 5.10998 10.8 6.53998C11.07 7.96998 11.22 9.27002 11.27 9.71002C11.27 9.78002 11.27 9.84998 11.25 9.91998C11.24 9.95998 11.22 9.99003 11.2 10.03C11.2 10.04 11.1899 10.05 11.1799 10.06C11.1699 10.08 11.15 10.1 11.13 10.12C11.13 10.13 11.11 10.14 11.1 10.15C11.1 10.16 11.08 10.17 11.07 10.18C11.05 10.2 11.03 10.22 11 10.24C10.98 10.26 10.9499 10.28 10.9299 10.29C10.9199 10.29 10.9 10.31 10.89 10.32C10.86 10.34 10.83 10.36 10.8 10.37C10.77 10.39 10.74 10.4 10.71 10.42C10.69 10.42 10.6699 10.44 10.6499 10.45C10.6299 10.45 10.61 10.47 10.6 10.47C10.56 10.49 10.52 10.5 10.49 10.52C10.47 10.52 10.4499 10.53 10.4299 10.54C10.3999 10.54 10.38 10.56 10.35 10.57C10.33 10.57 10.32 10.57 10.3 10.58C10.26 10.59 10.21 10.61 10.17 10.62C10.15 10.62 10.12 10.63 10.1 10.64C10.08 10.64 10.0599 10.64 10.0399 10.65C10.0399 10.65 10.05 10.65 10.06 10.65H10.08C10.08 10.65 10.1 10.65 10.11 10.65C10.11 10.65 10.12 10.65 10.13 10.65H10.1499C10.1599 10.65 10.1699 10.65 10.1799 10.65C10.1999 10.65 10.2299 10.65 10.2599 10.64C10.2799 10.64 10.3 10.64 10.32 10.64C10.34 10.64 10.3499 10.64 10.3699 10.64C10.3899 10.64 10.4099 10.64 10.4299 10.64C10.4599 10.64 10.49 10.64 10.52 10.64C10.89 10.62 11.3199 10.68 11.3999 10.99C11.5399 11.56 11.9899 14.01 12.1799 14.75C12.3699 15.48 12.07 16 10.91 16.32C11.17 16.25 12.37 15.96 12.47 16.26C12.58 16.6 13.14 19.96 13.22 20.52C13.23 20.62 13.23 20.72 13.22 20.82C13.22 20.85 13.22 20.88 13.2 20.91V20.93C13.2 20.95 13.1899 20.97 13.1799 20.99V21.01C13.1599 21.08 13.12 21.15 13.09 21.22C13.09 21.23 13.07 21.25 13.06 21.26C12.96 21.42 12.82 21.58 12.63 21.73C12.61 21.75 12.59 21.76 12.57 21.78C12.52 21.82 12.4599 21.86 12.3999 21.9C12.3899 21.9 12.37 21.92 12.36 21.93C12.26 22 12.14 22.06 12.02 22.12C11.96 22.15 11.9 22.18 11.83 22.21C11.8 22.22 11.7599 22.24 11.7299 22.25C11.7299 22.25 11.7499 22.25 11.7599 22.24C11.7599 22.24 11.77 22.24 11.78 22.24C11.9 22.2 12.17 22.11 12.46 22.02C12.49 22.02 12.52 22 12.55 22C12.56 22 12.58 22 12.59 21.99C12.67 21.97 12.76 21.94 12.84 21.93C12.92 21.91 13 21.89 13.08 21.88C13.11 21.88 13.1499 21.87 13.1799 21.86C13.2099 21.86 13.24 21.86 13.27 21.85C13.76 21.81 14.13 21.89 14.41 22.06C14.41 22.06 14.23 21.64 14.89 20.55C14.89 20.54 14.9 20.53 14.91 20.52C14.94 20.48 14.9599 20.43 14.9799 20.4C15.0999 20.15 15.06 18.98 15.05 18.45C15.05 17.91 15.05 16 15.09 15.18C15.12 14.35 15.2499 13.08 15.2599 12.15C15.2599 11.22 15.21 8.01002 15.21 7.08002C15.21 6.15002 15 4.06002 14.92 2.90002C14.84 1.74002 15.26 0.520029 16.83 0.530029C17.15 0.530029 17.43 0.600022 17.66 0.710022C17.66 0.710022 18.38 1.38 18.63 2.88C18.88 4.37 18.86 6.00999 18.84 6.42999C18.82 6.85999 17.83 6.99998 16.85 7.03998C16.85 7.03998 17.96 7.19998 18.27 7.22998C18.58 7.25998 18.89 7.33998 18.97 8.03998C19.05 8.73998 19.11 11.79 19.09 12.53C19.07 13.27 18.72 13.49 16.89 13.5C16.89 13.5 17.93 13.57 18.34 13.63C18.75 13.69 19.1399 13.66 19.09 14.73C19.04 15.79 18.87 19.12 18.78 19.61C18.69 20.1 17.52 20.41 16.39 20.36C16.39 20.36 17.43 20.6 18 20.68C18.57 20.76 18.87 21.21 18.84 21.95C18.84 21.95 18.88 21.29 19.31 21.02C19.72 20.77 20.1799 20.68 20.3699 20.42C20.4799 20.3 20.69 19.57 20.85 18.82C21.02 18.05 21.2099 16.13 21.3999 14.8C21.5899 13.47 22.13 11.57 22.3 10.55C22.47 9.52999 22.5399 6.31998 22.6199 4.91998C22.6999 3.51998 23.31 2.73001 24.47 2.70001C24.91 2.69001 25.29 2.85002 25.6 3.15002C25.62 3.20002 26.1999 4.50001 26.2599 5.64001C26.3199 6.80001 26.26 8.06 26.21 8.56C26.17 9.06 25.3 9.08 24.21 9C24.21 9 25.2199 9.18999 25.5099 9.23999C25.7999 9.28999 26.12 9.38998 26.1 9.97998C26.08 10.57 25.84 13.05 25.72 13.86C25.6 14.68 24.5 14.69 23.24 14.53C23.3 14.54 24.22 14.75 24.63 14.8C25.06 14.85 25.41 15.03 25.35 15.78C25.29 16.53 24.86 18.36 24.7 18.94C24.54 19.53 23.83 19.73 22.77 19.71C22.77 19.71 24.23 19.82 24.28 20.84C24.33 21.86 24.49 22.73 24.53 23.31C24.57 23.89 24.68 24.3 24.05 24.71C23.42 25.12 22.16 25.67 20.21 26.82C18.25 27.98 16.1 30.46 15.56 31.3C15.36 31.61 15.03 32.17 14.7 32.76C14.68 32.8 14.66 32.83 14.64 32.87C14.45 33.2 14.26 33.54 14.09 33.84C14.06 33.89 14.03 33.94 14 33.99C13.96 34.06 13.92 34.13 13.88 34.2C13.84 34.26 13.81 34.33 13.78 34.38C13.77 34.4 13.76 34.42 13.75 34.44C13.76 34.42 13.7799 34.4 13.7899 34.38C13.8899 34.2 14.02 33.98 14.17 33.74C14.19 33.71 14.2099 33.67 14.2299 33.63C14.25 33.6 14.26 33.58 14.28 33.55C14.3 33.52 14.32 33.49 14.34 33.46C14.47 33.26 14.6 33.04 14.75 32.82C14.77 32.78 14.8 32.74 14.83 32.71C15 32.46 15.17 32.21 15.35 31.96C15.36 31.94 15.38 31.92 15.39 31.9C15.51 31.73 15.64 31.56 15.77 31.4C15.8 31.37 15.82 31.33 15.85 31.3C15.9 31.24 15.95 31.18 15.99 31.13C17.26 29.62 19.13 28.15 20.09 27.61C21.0499 27.06 23.84 25.67 24.14 25.64C24.44 25.61 24.78 26.1 24.81 26.46C24.84 26.82 24.6999 27.12 24.5399 27.31C24.5699 27.29 25.08 26.92 25.45 27.64C25.84 28.39 26.55 29.9 26.67 30.27C26.79 30.64 26.65 30.78 25.74 30.63C25.08 30.52 23.59 30.07 23.6 28.69C23.6 28.69 23.1999 29.48 23.8999 30.3C24.5999 31.13 25.93 32.12 27.89 32.36C29.85 32.6 30.87 30.94 31.38 30.02C31.89 29.11 32.41 27.92 33.32 26.78C33.6 26.47 34.78 25.06 35.49 24.56C36.24 24.02 36.93 23.57 38.8 23.25C40.64 22.93 41.8999 23.93 42.1199 24.72C42.1199 24.77 42.13 25.3 41.69 25.73L41.74 25.66Z" fill="#F9BF8E"/>
<path d="M18.0301 44.33C17.9801 44.35 17.1601 44.67 16.5701 44.9C15.9701 45.14 15.1801 45.42 14.6801 45.47C14.1801 45.52 13.4401 45.38 13.3801 45.77C13.3201 46.16 13.3801 47.59 13.3001 48.42C13.3001 48.3 13.3001 48.21 13.3001 48.14C13.3401 46.91 13.2401 46.18 13.1301 45.82C13.0201 45.46 12.8901 45.38 12.7701 45.13C12.6501 44.89 12.5501 44.58 12.4701 44.36C12.4201 44.22 12.3201 44.08 12.1801 43.89C12.2301 43.95 12.6701 44.45 12.9101 44.78C13.1601 45.12 13.8201 45.31 14.7001 45.26C15.5801 45.21 17.1001 44.52 18.0301 44.35V44.33Z" fill="#E57853"/>
<path d="M26.2 49.97C26.26 50.34 26.32 50.74 26.4 51.18C26.22 50.2 25.68 47.27 25.57 46.55C25.44 45.68 25.35 44.47 25.32 44.23C25.29 43.99 25.26 43.78 24.97 43.8C24.68 43.82 24.1 43.97 21.92 43.51C21.68 43.46 21.46 43.41 21.26 43.35C21.21 43.34 21.16 43.32 21.12 43.31C21.12 43.31 21.11 43.31 21.1 43.31C21.07 43.31 21.04 43.29 21.02 43.29C20.99 43.29 20.97 43.27 20.94 43.27C20.91 43.27 20.89 43.25 20.86 43.25C20.78 43.23 20.7 43.2 20.63 43.18C20.61 43.18 20.58 43.16 20.56 43.16C20.54 43.16 20.51 43.14 20.49 43.14C20.44 43.12 20.4 43.11 20.35 43.09C20.33 43.09 20.31 43.07 20.28 43.07C20.26 43.07 20.24 43.05 20.22 43.05C20.16 43.03 20.09 43 20.03 42.98C19.99 42.96 19.95 42.95 19.91 42.93C19.85 42.91 19.8 42.88 19.75 42.86C19.71 42.84 19.66 42.82 19.63 42.8C19.63 42.8 19.61 42.8 19.61 42.79C19.59 42.78 19.56 42.77 19.54 42.76C19.5 42.74 19.47 42.72 19.43 42.7C19.41 42.69 19.39 42.68 19.37 42.67C19.3 42.63 19.24 42.6 19.19 42.57C19.16 42.55 19.13 42.53 19.1 42.52C19.07 42.5 19.04 42.49 19.02 42.47C19 42.47 18.99 42.45 18.98 42.44C18.91 42.39 18.87 42.36 18.85 42.34C18.85 42.34 18.85 42.34 18.84 42.34C21.33 43.62 24.46 43.93 25.46 43.59C25.8 43.47 26.11 43.33 26.37 43.2C26.39 43.19 26.41 43.18 26.43 43.17C26.58 43.09 26.71 43.02 26.82 42.95C26.85 42.93 26.88 42.91 26.91 42.89C27.05 42.8 27.15 42.73 27.19 42.7C26.35 43.37 25.81 43.64 25.7 43.69C25.56 43.76 25.52 44.07 25.51 44.42C25.49 44.77 25.7 46.61 26.21 50.03L26.2 49.97Z" fill="#E57853"/>
<path d="M25.1 24.88C25.08 24.74 24.6199 24.96 24.4299 25.03C24.2399 25.11 22.6499 25.78 20.1799 27.27C17.8499 28.68 15.82 31.09 15.7 31.24C18.71 27.2 23.94 25.05 24.45 24.83C24.94 24.62 25.04 24.05 25.05 24.01C25.06 24.31 25.08 24.59 25.11 24.86L25.1 24.88Z" fill="#E57853"/>
<path d="M19.48 19.01C19.43 19.94 19.39 20.68 19.39 20.68C19.04 20.68 18.26 20.47 18.26 20.47C19.05 20.53 19.29 20.42 19.31 20.25C19.33 20.09 19.46 19.16 19.48 19.01Z" fill="#E57853"/>
<path d="M32.1401 37.47C32.0401 37.56 31.9401 37.65 31.8401 37.73C31.3201 38.15 30.6501 39.03 30.2401 39.65C30.2201 39.68 30.2001 39.71 30.1801 39.74C30.2301 39.65 30.6601 38.93 30.7701 38.76C30.8901 38.58 30.8401 38.41 30.8001 38.34C30.7601 38.28 30.5801 37.9 30.5101 37.69C30.4401 37.5 30.3001 36.83 30.2701 36.7C30.3401 36.96 30.5301 37.62 30.7201 37.97C30.9101 38.33 31.2501 38.08 31.4101 37.97C31.5601 37.86 32.1101 37.5 32.1501 37.48L32.1401 37.47Z" fill="#E57853"/>
<path d="M33.37 26.72C32.46 27.86 31.94 29.04 31.43 29.96C30.92 30.88 29.9 32.54 27.94 32.3C25.98 32.06 24.65 31.07 23.95 30.24C23.25 29.41 23.65 28.63 23.65 28.63C23.63 30.01 25.13 30.46 25.79 30.57C26.7 30.72 26.84 30.57 26.72 30.21C26.6 29.84 25.88 28.33 25.5 27.58C25.12 26.86 24.62 27.23 24.59 27.25C24.75 27.05 24.89 26.75 24.86 26.4C24.83 26.04 24.49 25.55 24.19 25.58C23.89 25.61 21.1 27 20.14 27.55C19.18 28.1 17.31 29.56 16.04 31.07C15.08 32.22 14.15 33.78 13.76 34.46C14.18 33.71 15.19 31.91 15.61 31.25C16.15 30.41 18.3 27.93 20.26 26.77C22.22 25.61 23.48 25.07 24.1 24.66C24.73 24.25 24.61 23.84 24.58 23.26C24.54 22.68 24.39 21.82 24.33 20.79C24.28 19.77 22.82 19.66 22.82 19.66C23.88 19.68 24.58 19.48 24.75 18.89C24.91 18.3 25.34 16.47 25.4 15.73C25.46 14.98 25.11 14.8 24.68 14.75C24.27 14.7 23.35 14.5 23.29 14.48C24.54 14.64 25.65 14.63 25.77 13.81C25.89 12.99 26.12 10.52 26.15 9.92999C26.18 9.33999 25.85 9.24 25.56 9.19C25.27 9.15 24.26 8.95001 24.26 8.95001C25.36 9.03001 26.22 9.01001 26.26 8.51001C26.3 8.01001 26.37 6.76003 26.31 5.59003C26.25 4.45003 25.67 3.14998 25.65 3.09998C26.17 3.59998 26.5 4.49997 26.6 5.65997C26.75 7.51997 26.62 8.8 26.57 9.31C26.52 9.83 26.43 12.18 26.35 13.25C26.27 14.32 25.96 16.25 25.76 17.33C25.56 18.42 25.36 19.02 25.14 20.19C24.92 21.35 25.01 22.18 25.05 23.86C25.05 23.91 25.05 23.96 25.05 24.01C25.05 24.01 24.95 24.61 24.45 24.83C23.94 25.05 18.7 27.2 15.7 31.24C15.82 31.09 17.86 28.67 20.18 27.27C22.65 25.78 24.24 25.11 24.43 25.03C24.62 24.95 25.09 24.73 25.1 24.88C25.22 26.1 25.51 27.11 26.04 28.09C26.71 29.34 27.15 30.09 27.59 30.84C28.03 31.59 28.87 31.78 29.38 31.57C29.89 31.36 30.81 30.56 31.08 30.18C31.35 29.8 31.48 29.48 31.92 28.71C32.36 27.93 33.15 26.94 33.32 26.77C33.32 26.77 33.34 26.75 33.36 26.73L33.37 26.72Z" fill="#FB966A"/>
<path d="M20.4101 20.39C20.2201 20.65 19.7601 20.73 19.3501 20.99C18.9201 21.25 18.8801 21.92 18.8801 21.92C18.9101 21.17 18.6001 20.73 18.0401 20.65C17.4701 20.57 16.4301 20.33 16.4301 20.33C17.5601 20.38 18.7301 20.07 18.8201 19.58C18.9101 19.09 19.0801 15.77 19.1301 14.7C19.1801 13.64 18.7901 13.66 18.3801 13.6C17.9701 13.54 16.9301 13.47 16.9301 13.47C18.7601 13.46 19.1101 13.24 19.1301 12.5C19.1501 11.76 19.0901 8.71001 19.0101 8.01001C18.9301 7.31001 18.6201 7.23001 18.3101 7.20001C18.0001 7.17001 16.8901 7.01001 16.8901 7.01001C17.8701 6.97001 18.8601 6.83002 18.8801 6.40002C18.9001 5.97002 18.9201 4.33998 18.6701 2.84998C18.4201 1.35998 17.7001 0.679993 17.7001 0.679993C18.6101 1.12999 18.9201 2.30998 19.0801 3.41998C19.2801 4.80998 19.3401 6.69 19.3701 7.69C19.4001 8.69 19.6001 11.07 19.7401 12.25C19.8801 13.42 19.8301 14.26 19.7401 15.41C19.6801 16.07 19.5901 17.7 19.5101 18.97C19.5101 18.97 19.5101 18.97 19.5101 18.99C19.4901 19.13 19.3701 20.07 19.3401 20.23C19.3201 20.4 19.0801 20.51 18.2901 20.45C18.2901 20.45 19.0701 20.66 19.4201 20.66C19.4201 20.66 19.5601 20.68 19.7001 20.67C19.8401 20.67 20.3301 20.48 20.4401 20.37L20.4101 20.39Z" fill="#FB966A"/>
<path d="M14.44 22.05C14.16 21.88 13.78 21.8 13.3 21.84C12.83 21.88 11.82 22.23 11.76 22.26C13.01 21.74 13.37 21.06 13.29 20.5C13.21 19.94 12.65 16.58 12.54 16.24C12.44 15.94 11.24 16.23 10.98 16.3C12.14 15.98 12.44 15.46 12.25 14.73C12.06 13.99 11.61 11.54 11.47 10.97C11.34 10.44 10.2 10.65 10.06 10.68C10.87 10.49 11.36 10.17 11.31 9.72998C11.26 9.27998 11.11 7.99 10.84 6.56C10.57 5.13 9.85999 4.46002 9.85999 4.46002C10.02 4.52002 10.18 4.60001 10.32 4.70001C10.95 5.14001 11.1 5.88998 11.2 6.59998C11.3 7.30998 11.69 9.57999 11.86 10.18C12.03 10.79 12.19 12.26 12.33 12.94C12.47 13.62 12.88 15.17 13.02 15.6C13.16 16.03 13.39 17.2 13.48 17.73C13.58 18.26 13.74 19.67 13.82 20.28C13.89 20.89 13.91 21.37 14.18 21.31C14.4 21.26 14.74 20.85 14.92 20.56C14.26 21.65 14.44 22.07 14.44 22.07V22.05Z" fill="#FB966A"/>
<path d="M8.95999 26.61C8.58999 26.35 7.58999 27.19 7.48999 27.28C8.38999 26.46 8.27998 25.81 8.05998 25.41C7.83998 25 7.03998 23.3 6.78998 23.03C6.59998 22.82 5.94998 23.14 5.66998 23.3C6.37998 22.85 6.36998 22.23 6.13998 21.85C5.88998 21.44 5.75998 20.95 5.28998 20.17C4.83998 19.41 4.15998 19.8 4.11998 19.83C4.66998 19.39 4.59998 18.76 4.36998 18.24C4.13998 17.72 3.43999 16.05 2.85999 15.16C2.30999 14.33 1.68999 14.34 1.60999 14.34C2.31999 14.18 2.90998 14.66 3.33998 15.3C3.85998 16.06 4.63999 17.68 5.26999 19.12C5.89999 20.56 6.45999 21.39 7.04999 22.32C7.63999 23.25 8.14999 24.6 8.51999 25.07C8.87999 25.54 9.17999 25.35 9.32999 25.2C9.37999 25.15 9.44998 25.08 9.52998 24.98C9.31998 25.25 9.03998 25.61 8.88998 25.82C8.61998 26.19 8.98999 26.62 8.98999 26.62L8.95999 26.61Z" fill="#FB966A"/>
</svg>
