<svg width="33" height="68" viewBox="0 0 33 68" fill="none" xmlns="http://www.w3.org/2000/svg">
<path d="M15.38 65.57C15.38 65.57 15.38 65.61 15.38 65.62C15.38 66.12 15.6 66.64 15.44 67.11C15.31 67.49 14.94 67.76 14.55 67.87C14.16 67.98 13.75 67.96 13.35 67.93C12.92 67.89 12.47 67.83 12.13 67.58C11.54 67.14 11.45 66.28 11.62 65.56C11.66 65.4 11.71 65.24 11.76 65.07C11.94 64.53 12.18 64.01 12.27 63.45C12.33 63.11 12.34 62.75 12.45 62.42C12.63 61.91 13.07 61.5 13.59 61.37C15.13 60.97 16 62.64 15.76 63.94C15.66 64.48 15.39 65 15.38 65.55V65.57Z" fill="#FF4B4B"/>
<path d="M15.76 63.96C15.66 64.5 15.39 65.02 15.38 65.57C15.21 65.29 15.22 64.9 15.34 64.58C15.41 64.42 15.5 64.27 15.55 64.1C15.63 63.86 15.64 63.59 15.57 63.35C15.52 63.19 15.41 63.01 15.23 63.01C15.04 63.01 14.93 63.21 14.82 63.36C14.62 63.62 14.3 63.78 13.98 63.81C13.66 63.84 13.32 63.75 13.04 63.58C12.92 63.51 12.79 63.42 12.65 63.44C12.51 63.47 12.42 63.61 12.37 63.75C12.26 64.03 12.21 64.33 12.09 64.6C12.01 64.78 11.89 64.93 11.77 65.08C11.95 64.54 12.19 64.02 12.28 63.46C12.34 63.12 12.35 62.76 12.46 62.43C12.64 61.92 13.08 61.51 13.6 61.38C15.14 60.98 16.01 62.65 15.77 63.95L15.76 63.96Z" fill="#CB4F4E"/>
<path d="M12.71 62.83C12.42 61.88 11.83 53.39 11.54 48.97C11.44 47.38 11.37 46.32 11.37 46.32C11.37 46.32 15.92 45.27 15.57 46.69C15.49 47.01 15.42 48 15.37 49.35C15.17 54.04 15.1 63.05 15.1 63.05C15.07 64.05 13.1 64.13 12.71 62.84V62.83Z" fill="#FFB3A6"/>
<path d="M15.37 49.35C14.33 49.68 12.38 49.21 11.54 48.98C11.44 47.39 11.37 46.33 11.37 46.33C11.37 46.33 15.92 45.28 15.57 46.7C15.49 47.02 15.42 48.01 15.37 49.36V49.35Z" fill="#FD9288"/>
<path d="M12.74 64.3C12.74 64.3 12.66 64.25 12.64 64.2C12.61 64.12 12.66 64.03 12.74 64C12.79 63.98 13.88 63.64 14.89 64.24C14.97 64.29 14.99 64.38 14.95 64.46C14.9 64.54 14.81 64.56 14.73 64.52C13.84 63.99 12.85 64.3 12.84 64.31C12.81 64.32 12.77 64.31 12.74 64.31V64.3Z" fill="white"/>
<path d="M12.72 65.01C12.72 65.01 12.64 64.96 12.62 64.91C12.59 64.83 12.64 64.74 12.72 64.71C12.77 64.69 13.86 64.35 14.87 64.95C14.95 65 14.97 65.09 14.93 65.17C14.88 65.25 14.79 65.27 14.71 65.23C13.82 64.7 12.83 65.01 12.82 65.02C12.79 65.03 12.75 65.02 12.72 65.02V65.01Z" fill="white"/>
<path d="M12.76 65.79C12.76 65.79 12.68 65.74 12.66 65.69C12.63 65.61 12.68 65.52 12.76 65.49C12.81 65.47 13.9 65.13 14.91 65.73C14.99 65.78 15.01 65.87 14.97 65.95C14.92 66.03 14.83 66.05 14.75 66.01C13.86 65.48 12.87 65.79 12.86 65.8C12.83 65.81 12.79 65.8 12.76 65.8V65.79Z" fill="white"/>
<path d="M18.04 65.57C18.04 65.57 18.04 65.61 18.04 65.62C18.04 66.12 17.82 66.64 17.98 67.11C18.11 67.49 18.48 67.76 18.87 67.87C19.26 67.98 19.67 67.96 20.07 67.93C20.5 67.89 20.95 67.83 21.29 67.58C21.88 67.14 21.97 66.28 21.8 65.56C21.76 65.4 21.71 65.24 21.66 65.07C21.48 64.53 21.24 64.01 21.15 63.45C21.09 63.11 21.08 62.75 20.97 62.42C20.79 61.91 20.35 61.5 19.83 61.37C18.29 60.97 17.42 62.64 17.66 63.94C17.76 64.48 18.03 65 18.04 65.55V65.57Z" fill="#FF4B4B"/>
<path d="M17.65 63.96C17.75 64.5 18.02 65.02 18.03 65.57C18.2 65.29 18.19 64.9 18.07 64.58C18 64.42 17.91 64.27 17.86 64.1C17.78 63.86 17.77 63.59 17.84 63.35C17.89 63.19 18 63.01 18.18 63.01C18.37 63.01 18.48 63.21 18.59 63.36C18.79 63.62 19.11 63.78 19.43 63.81C19.76 63.84 20.09 63.75 20.37 63.58C20.49 63.51 20.62 63.42 20.76 63.44C20.9 63.47 20.99 63.61 21.04 63.75C21.15 64.03 21.2 64.33 21.32 64.6C21.4 64.78 21.52 64.93 21.64 65.08C21.46 64.54 21.22 64.02 21.13 63.46C21.07 63.12 21.06 62.76 20.95 62.43C20.77 61.92 20.33 61.51 19.81 61.38C18.27 60.98 17.4 62.65 17.64 63.95L17.65 63.96Z" fill="#CB4F4E"/>
<path d="M20.7 62.83C20.99 61.88 21.58 53.39 21.87 48.97C21.97 47.38 22.04 46.32 22.04 46.32C22.04 46.32 17.49 45.27 17.84 46.69C17.92 47.01 17.99 48 18.04 49.35C18.24 54.04 18.31 63.05 18.31 63.05C18.34 64.05 20.31 64.13 20.7 62.84V62.83Z" fill="#FFB3A6"/>
<path d="M18.04 49.35C19.08 49.68 21.03 49.21 21.87 48.98C21.97 47.39 22.04 46.33 22.04 46.33C22.04 46.33 17.49 45.28 17.84 46.7C17.92 47.02 17.99 48.01 18.04 49.36V49.35Z" fill="#FD9288"/>
<path d="M20.6699 64.3C20.6699 64.3 20.7499 64.25 20.7699 64.2C20.7999 64.12 20.7499 64.03 20.6699 64C20.6199 63.98 19.5299 63.64 18.5199 64.24C18.4399 64.29 18.4199 64.38 18.4599 64.46C18.5099 64.54 18.5999 64.56 18.6799 64.52C19.5699 63.99 20.5599 64.3 20.5699 64.31C20.5999 64.32 20.6399 64.31 20.6699 64.31V64.3Z" fill="white"/>
<path d="M20.69 65.01C20.69 65.01 20.77 64.96 20.79 64.91C20.82 64.83 20.77 64.74 20.69 64.71C20.64 64.69 19.55 64.35 18.54 64.95C18.46 65 18.44 65.09 18.48 65.17C18.53 65.25 18.62 65.27 18.7 65.23C19.59 64.7 20.58 65.01 20.59 65.02C20.62 65.03 20.66 65.02 20.69 65.02V65.01Z" fill="white"/>
<path d="M20.6599 65.79C20.6599 65.79 20.7399 65.74 20.7599 65.69C20.7899 65.61 20.7399 65.52 20.6599 65.49C20.6099 65.47 19.5199 65.13 18.5099 65.73C18.4299 65.78 18.4099 65.87 18.4499 65.95C18.4999 66.03 18.5899 66.05 18.6699 66.01C19.5599 65.48 20.5499 65.79 20.5599 65.8C20.5899 65.81 20.6299 65.8 20.6599 65.8V65.79Z" fill="white"/>
<path d="M10.06 33.65C10.06 33.77 10.04 33.91 10.03 34.05C9.99997 34.43 9.95997 34.86 9.90997 35.31C9.60997 38.15 9.08997 42.1 9.08997 42.1C9.08997 42.1 6.31998 43.37 7.06998 41.72C7.49998 40.78 7.33997 38.01 7.10997 35.81C7.05997 35.37 7.01997 34.96 6.96997 34.59C6.83997 33.54 6.72997 32.81 6.71997 32.8C6.71997 32.8 7.07997 32.66 7.55997 32.5C7.96997 32.37 8.46997 32.24 8.91997 32.18C9.36997 32.12 9.76997 32.14 9.96997 32.31C10.04 32.37 10.09 32.46 10.1 32.58C10.12 32.76 10.1 33.14 10.06 33.66V33.65Z" fill="#FFB3A6"/>
<path d="M10.06 33.65C10.06 33.77 10.04 33.91 10.03 34.05C9.99997 34.43 9.95997 34.86 9.90997 35.31C9.63997 35.41 9.37998 35.5 9.09998 35.57C8.51998 35.72 7.77997 35.85 7.10997 35.81C7.05997 35.37 7.01997 34.96 6.96997 34.59C6.83997 33.54 6.72997 32.81 6.71997 32.8C6.71997 32.8 7.07997 32.66 7.55997 32.5C8.01997 32.87 8.54997 33.44 8.91997 33.39C9.20997 33.4 9.49996 33.43 9.78996 33.49C9.84996 33.49 9.90997 33.51 9.96997 33.53C10.01 33.57 10.04 33.61 10.06 33.65Z" fill="#FD9288"/>
<path d="M7.43999 41.48C7.10999 41.64 6.84999 41.91 6.60999 42.19C6.00999 42.87 5.48999 43.61 5.05999 44.4C5.00999 44.5 4.95998 44.6 4.92998 44.71C4.88998 44.88 5.07 45.02 5.21 44.92C5.58 44.68 5.88999 44.35 6.11999 43.97C5.76999 44.58 5.45 45.22 5.35 45.92C5.33 46.04 5.34999 46.21 5.47999 46.23C5.48999 46.23 5.5 46.23 5.52 46.23C5.68 46.22 5.80999 46.1 5.88999 45.96C6.20999 45.39 6.50998 44.81 6.78998 44.22C6.60998 44.62 6.46 45.03 6.35 45.46C6.27 45.76 6.21 46.08 6.27 46.38C6.31 46.59 6.59 46.66 6.71 46.47C6.76 46.39 6.79999 46.31 6.83999 46.22C7.12999 45.6 7.37999 44.95 7.58999 44.29C7.41999 44.81 7.32999 45.35 7.29999 45.89C7.29999 46 7.3 46.12 7.35 46.22C7.41 46.32 7.53999 46.38 7.63999 46.33C7.69999 46.3 7.74 46.22 7.77 46.16C8.14 45.3 8.43999 44.4 8.66999 43.49C8.76999 43.88 8.88999 44.26 9.02999 44.63C9.07999 44.76 9.14998 44.9 9.28998 44.92C9.39998 44.93 9.49999 44.85 9.54999 44.75C9.58999 44.65 9.58999 44.54 9.58999 44.43C9.55999 43.63 9.39999 42.84 9.11999 42.1C8.85999 41.41 8.14999 41.14 7.47999 41.48H7.43999Z" fill="#FFB3A6"/>
<path d="M22.25 34.01C22.33 34.22 22.59 34.69 22.96 35.3C24.38 37.65 27.36 42.11 27.36 42.11C27.36 42.11 30.41 42.03 29 40.88C28.04 40.1 26.69 36.59 25.94 34.43C25.59 33.44 25.37 32.73 25.37 32.71C25.37 32.71 24.05 32.81 23.12 33.12C22.69 33.27 22.34 33.46 22.24 33.7C22.2 33.79 22.2 33.89 22.24 34L22.25 34.01Z" fill="#FFB3A6"/>
<path d="M22.25 34.01C22.33 34.22 22.59 34.69 22.96 35.3C23.29 35.28 23.6099 35.23 23.9299 35.16C24.5499 35.03 25.34 34.8 25.94 34.43C25.59 33.44 25.37 32.73 25.37 32.71C25.37 32.71 24.05 32.81 23.12 33.12C22.86 33.26 22.62 33.42 22.38 33.59C22.33 33.63 22.28 33.66 22.24 33.7C22.2 33.79 22.2 33.89 22.24 34L22.25 34.01Z" fill="#FD9288"/>
<path d="M28.5699 40.83C28.9399 40.83 29.2899 40.96 29.6299 41.1C30.4599 41.44 31.2599 41.88 31.9999 42.4C32.0899 42.46 32.1799 42.54 32.2599 42.62C32.3699 42.75 32.2699 42.96 32.0999 42.94C31.6599 42.89 31.2399 42.74 30.8699 42.49C31.4499 42.88 32.0299 43.31 32.4199 43.9C32.4899 44 32.5399 44.16 32.4399 44.23C32.4399 44.23 32.4199 44.24 32.4099 44.25C32.2599 44.31 32.0899 44.26 31.9599 44.17C31.4199 43.8 30.8999 43.41 30.3799 43C30.7199 43.28 31.0299 43.59 31.3199 43.92C31.5199 44.15 31.7199 44.42 31.7999 44.71C31.8599 44.92 31.6299 45.1 31.4499 44.99C31.3699 44.94 31.2899 44.88 31.2199 44.83C30.6799 44.4 30.1699 43.93 29.6999 43.43C30.0799 43.82 30.3999 44.26 30.6599 44.74C30.7099 44.84 30.7699 44.95 30.7599 45.06C30.7599 45.17 30.6699 45.29 30.5499 45.28C30.4799 45.28 30.4199 45.23 30.3599 45.18C29.6499 44.57 28.9799 43.9 28.3699 43.18C28.4499 43.57 28.5099 43.96 28.5499 44.36C28.5599 44.5 28.5599 44.66 28.4499 44.74C28.3599 44.8 28.2299 44.77 28.1499 44.7C28.0699 44.63 28.0199 44.53 27.9699 44.43C27.6499 43.7 27.4399 42.92 27.3699 42.13C27.2999 41.39 27.8099 40.84 28.5699 40.84V40.83Z" fill="#FFB3A6"/>
<path d="M24.3699 47.18C21.2399 48.43 17.2299 47.72 17.2299 47.72L16.7099 45.21L16.0599 47.67C15.7299 47.74 15.4199 47.8 15.1199 47.83C11.3899 48.32 9.41992 46.5 9.41992 46.5C9.41992 46.5 10.1699 43.16 10.1299 41.61C10.1299 41.24 10.1299 40.76 10.1699 40.23C10.1699 40.17 10.1699 40.12 10.1699 40.06C10.2199 39.31 10.2899 38.49 10.3499 37.83C10.4299 37.02 10.4999 36.43 10.4999 36.43L22.0299 36.81C22.1799 36.93 22.3199 37.11 22.4399 37.35C22.7999 38.02 23.0499 39.11 23.2199 40.22C23.2199 40.28 23.2399 40.34 23.2499 40.4C23.4899 42.04 23.5699 43.67 23.5699 44C23.5699 44.63 24.3599 47.17 24.3599 47.17L24.3699 47.18Z" fill="#0083BD"/>
<path d="M22.45 37.36C21.14 37.74 15.7 39.12 10.36 37.85C10.44 37.04 10.51 36.45 10.51 36.45L22.04 36.83C22.19 36.95 22.33 37.13 22.45 37.37V37.36Z" fill="#156D90"/>
<path d="M12.2599 38.96C11.7999 39.58 11.0999 40.01 10.1699 40.24C10.1699 40.18 10.1699 40.13 10.1699 40.07C11.0399 39.84 11.6899 39.44 12.1199 38.86C12.8399 37.89 12.6799 36.77 12.6699 36.76L12.8299 36.74C12.8299 36.74 13.0099 37.94 12.2499 38.96H12.2599Z" fill="white"/>
<path d="M23.26 40.41C19.89 39.18 20.12 36.8 20.12 36.77L20.28 36.79C20.28 36.79 20.08 39.03 23.23 40.23C23.23 40.29 23.25 40.35 23.26 40.41Z" fill="white"/>
<path d="M11.8999 0.950003C5.19995 2.68 3.74996 10.14 3.71996 12.25C3.68996 14.37 3.82996 16.5 3.45996 18.58C3.08996 20.66 2.10996 22.75 0.329956 23.9C2.84996 24.78 5.78995 24.35 7.94995 22.78C7.70995 23.57 7.24995 24.3 6.63995 24.86C10.64 25.46 14.65 26.07 18.69 26.17C20.51 26.22 22.42 26.14 23.99 25.22C24.81 24.74 25.49 24.06 26.13 23.36C27.31 22.06 28.4199 20.56 28.6499 18.81C28.2699 21.32 27.1699 23.72 25.5099 25.65C27.4999 25.17 28.72 23.18 29.56 21.31C29.97 20.39 30.47 19.47 30.57 18.47C31.16 12.82 28.97 7.46999 27.82 5.68999C26.5 3.65999 24.02 1.14 18.77 0.51C16.89 0.29 13.71 0.459983 11.88 0.929983L11.8999 0.950003Z" fill="#B04512"/>
<path d="M6.81995 16.95C7.33995 18.21 7.41994 19.64 7.05994 20.95C7.64994 20.86 8.18994 20.54 8.54994 20.06C8.82994 21.32 8.77994 22.66 8.41994 23.9C9.61994 23.94 10.8299 23.73 11.9599 23.3C11.7099 24.05 11.4599 24.79 11.2099 25.54C12.8499 26.24 14.5099 26.92 16.2799 27.18C18.0399 27.44 19.9299 27.22 21.4099 26.23C22.7399 25.34 23.6199 23.91 24.3299 22.47C25.1499 20.81 25.8099 19.07 26.2899 17.28C26.3499 18.24 26.1899 19.21 25.8199 20.1C26.8999 18.72 27.4599 16.94 27.3599 15.19C27.3199 14.48 27.1699 13.77 26.8799 13.11C26.5199 12.28 25.9599 11.55 25.3299 10.89C23.8399 9.33002 21.9599 8.14 19.9099 7.46C17.5399 6.68 14.8999 6.59 12.5599 7.46C10.9099 8.08 9.42994 9.2 8.41994 10.65C7.89994 11.4 7.72994 12.29 7.26994 13.04C6.87994 13.68 5.94994 13.24 5.68994 13.75C5.27994 14.55 6.52995 16.24 6.81995 16.95Z" fill="#813F2F"/>
<path d="M21.96 34.27C21.96 34.27 22.05 36.48 22.46 37.15C22.46 37.15 22.19 37.21 21.71 37.3C20.29 37.55 17.03 38 13.55 37.57C12.4 37.43 11.23 37.19 10.1 36.82C10.12 36.75 10.37 35.79 10.43 34.94C10.46 34.55 10.44 34.18 10.35 33.94L10.1 34.82C10.1 34.82 9.82997 34.65 9.41997 34.72C8.40997 34.89 6.97997 34.93 6.21997 33.41C6.21997 33.41 6.87997 31.81 7.63997 30.43C7.74997 30.24 7.84998 30.03 7.95998 29.81C8.24998 29.22 8.65997 28.44 9.19997 27.65C9.35997 27.42 9.52998 27.19 9.70998 26.96C10.79 25.61 12.29 24.38 14.3 24.22C15.97 24.08 17.56 24.16 18.89 24.38C19.23 24.44 19.55 24.5 19.86 24.57C19.97 24.6 20.08 24.62 20.18 24.65C21.04 24.88 21.74 25.18 22.2 25.51C22.35 25.62 22.52 25.8 22.69 26.03C22.84 26.24 23 26.49 23.15 26.77C24.3 28.81 25.59 32.46 26.08 32.94C26.08 32.94 23.34 34.19 21.95 34.28L21.96 34.27Z" fill="#F6C900"/>
<path d="M18.8999 24.37C18.8799 24.44 18.85 24.52 18.82 24.58C18.61 25 18.25 25.33 17.88 25.61C16.09 26.97 13.8 27.58 11.55 27.56C11.18 27.56 10.81 27.54 10.46 27.43C10.17 27.34 9.89996 27.18 9.70996 26.95C10.79 25.6 12.29 24.37 14.3 24.21C15.97 24.07 17.56 24.15 18.89 24.37H18.8999Z" fill="#D5A800"/>
<path d="M18.0799 24.25C18.0799 24.92 18.0899 25.43 18.0899 25.43C16.2899 26.93 14.0399 25.43 14.0399 25.43C14.0799 25.31 14.0899 24.89 14.0999 24.36C14.0999 24.06 14.0999 23.72 14.0999 23.38C14.0899 22.34 14.0499 21.29 14.0499 21.29H18.0999C18.0799 21.45 18.0799 22.46 18.0799 23.44C18.0799 23.72 18.0799 23.99 18.0799 24.24V24.25Z" fill="#FD9288"/>
<path d="M16.71 22.18C22.0947 22.18 26.46 17.8148 26.46 12.43C26.46 7.04522 22.0947 2.67999 16.71 2.67999C11.3252 2.67999 6.95996 7.04522 6.95996 12.43C6.95996 17.8148 11.3252 22.18 16.71 22.18Z" fill="#FFB3A6"/>
<path d="M6.55994 12.38C6.55994 12.38 8.62994 14.35 16.5799 9.25C16.5799 9.25 16.4499 9.73 16.1699 10.19C16.1699 10.19 19.0599 10.65 21.0699 8.81C21.0699 8.81 20.8399 10.96 20.2299 11.4C20.2299 11.4 23.7899 12.25 25.3699 10.36C26.9499 8.46999 20.9199 5.23999 20.9199 5.23999L15.8899 5.89001L11.0299 8.29001L6.55994 12.38Z" fill="#FD9288"/>
<path d="M14.8299 16.16C14.8299 16.16 14.7399 16.14 14.7099 16.11C14.6899 16.09 14.3299 15.69 14.3699 15.21C14.3999 14.95 14.5399 14.72 14.7899 14.54C15.0599 14.34 15.3299 14.27 15.5999 14.32C16.0399 14.4 16.2899 14.78 16.2999 14.8C16.3499 14.87 16.3299 14.97 16.2499 15.02C16.1799 15.07 16.0799 15.05 16.0299 14.97C16.0299 14.97 15.8399 14.69 15.5399 14.63C15.3599 14.6 15.1699 14.65 14.9799 14.8C14.7999 14.93 14.7099 15.08 14.6899 15.25C14.6599 15.58 14.9399 15.9 14.9399 15.9C14.9999 15.97 14.9899 16.07 14.9299 16.13C14.8999 16.16 14.8599 16.17 14.8199 16.17L14.8299 16.16Z" fill="#B84742"/>
<path d="M7.40995 12.43C7.40995 12.43 5.90995 12.04 5.65995 13.38C5.40995 14.72 7.95995 15.47 7.95995 15.47L7.41995 12.43H7.40995Z" fill="#FFB3A6"/>
<path d="M26.07 12.58C26.07 12.58 27.57 12.19 27.82 13.53C28.07 14.87 25.52 15.62 25.52 15.62L26.06 12.58H26.07Z" fill="#FFB3A6"/>
<path d="M8.76001 12.36C10.55 11.76 12.34 11.12 14 10.23C15.67 9.34 17.22 8.18998 18.38 6.70998C18.3 7.83998 17.87 8.94998 17.15 9.82998C18.64 9.79998 20.11 9.31998 21.33 8.45998C21.47 9.31998 21.22 10.24 20.65 10.91C21.46 11.06 22.27 11.21 23.1 11.18C23.92 11.15 24.76 10.91 25.38 10.36C25.68 11.69 25.79 13.06 25.71 14.41C26.52 13.37 26.79 11.99 26.7 10.68C26.61 9.36999 26.19 8.09999 25.72 6.86999C25.38 5.97999 25.02 5.07998 24.43 4.32998C23.5 3.13998 22.09 2.41 20.62 2.07C19.15 1.73 17.63 1.74 16.13 1.82C14.83 1.89 13.52 2.00998 12.31 2.48998C10.92 3.04998 9.77002 4.07998 8.78002 5.20998C7.91002 6.20998 7.14001 7.30999 6.68001 8.55999C6.29001 9.60999 6.10002 10.81 6.33002 11.92C6.57002 13.03 7.97002 12.62 8.77002 12.36H8.76001Z" fill="#B04512"/>
<path d="M18.0899 25.43C16.2899 26.93 14.0399 25.43 14.0399 25.43C14.0799 25.31 14.0899 24.89 14.0999 24.36C15.4699 24.54 17.0499 23.94 18.0799 23.44C18.0799 23.72 18.0799 23.99 18.0799 24.24C18.0799 24.91 18.0899 25.42 18.0899 25.42V25.43Z" fill="#FFB3A6"/>
<path d="M9.41992 34.71C9.45992 34.65 10.7599 32.86 10.9999 31.8C10.8999 32.86 10.5799 35.94 10.1099 36.81C10.1399 36.71 10.6599 34.7 10.3599 33.93L10.1099 34.81C10.1099 34.81 9.83992 34.8 9.42992 34.71H9.41992Z" fill="#D5A800"/>
<path d="M22.46 37.15C22.46 37.15 22.19 37.21 21.71 37.3C21.18 35.48 21.45 31.6 21.45 31.6C21.47 32.12 21.96 34.27 21.96 34.27C21.96 34.27 22.05 36.48 22.46 37.15Z" fill="#D5A800"/>
<path d="M16.71 45.21L16.06 47.67C15.73 47.74 15.42 47.8 15.12 47.83C15.69 46.53 16.41 43.66 16.41 43.66L16.71 45.2V45.21Z" fill="#156D90"/>
<path d="M11.3999 29.43C11.4099 29.56 11.2999 29.68 11.1799 29.72C11.0599 29.76 10.9199 29.75 10.7899 29.72C10.1899 29.64 9.5799 29.56 9.0699 29.23C9.4799 29.83 9.79989 30.49 10.0299 31.18C10.0799 31.34 10.1099 31.56 9.94989 31.63C9.83989 31.68 9.7199 31.62 9.6299 31.55C9.1399 31.19 8.76989 30.66 8.61989 30.07C8.73989 30.66 8.74989 31.28 8.61989 31.87C8.59989 31.96 8.5699 32.07 8.4899 32.12C8.3099 32.24 8.10989 32 8.02989 31.79C7.88989 31.41 7.72989 30.92 7.63989 30.42C7.74989 30.23 7.8499 30.02 7.9599 29.8C8.2499 29.21 8.65989 28.43 9.19989 27.64C9.28989 27.6 9.36989 27.56 9.44989 27.52C9.89989 27.31 10.3899 27.1 10.8799 27.2C10.9799 27.22 11.0899 27.28 11.0899 27.37C11.0899 27.42 11.0599 27.46 11.0399 27.5C10.6599 28.07 9.96989 28.42 9.27989 28.4C9.98989 28.44 10.6799 28.71 11.2199 29.17C11.2999 29.24 11.3799 29.32 11.3899 29.42L11.3999 29.43Z" fill="#FF7A81"/>
<path d="M23.19 27.62C23.17 27.71 23.12 27.82 23.05 27.82C23.01 27.82 22.98 27.79 22.95 27.76C22.51 27.36 22.26 26.66 22.31 25.98C22.25 26.69 22.01 27.37 21.63 27.9C21.57 27.98 21.51 28.06 21.42 28.07C21.32 28.07 21.23 27.96 21.2 27.84C21.17 27.72 21.2 27.58 21.2 27.45C21.28 26.86 21.37 26.24 21.65 25.75C21.16 26.14 20.63 26.44 20.08 26.65C19.96 26.7 19.78 26.71 19.73 26.56C19.69 26.45 19.75 26.33 19.81 26.24C20.11 25.76 20.54 25.41 21.01 25.27C20.54 25.38 20.05 25.36 19.59 25.22C19.52 25.2 19.44 25.17 19.4 25.08C19.32 24.89 19.51 24.7 19.68 24.63C19.74 24.61 19.8 24.58 19.86 24.55C19.97 24.58 20.08 24.6 20.18 24.63C21.04 24.86 21.74 25.16 22.2 25.49C22.35 25.6 22.52 25.78 22.69 26.01C22.84 26.22 23 26.47 23.15 26.75C23.21 27.03 23.24 27.33 23.18 27.61L23.19 27.62Z" fill="#FF7A81"/>
<path d="M18.4899 30.69C18.3799 30.42 17.9699 30.55 18.0299 30.84C18.1399 31.4 18.4599 31.94 18.7699 32.43C18.6299 32.06 18.2799 31.81 17.8999 31.68C17.7699 31.64 17.6299 31.61 17.4899 31.59C17.2099 31.55 17.0399 31.89 17.2399 32.08C17.6099 32.44 18.0199 32.76 18.4499 33.04C18.0799 32.91 17.6699 32.82 17.2899 32.93C17.1799 32.96 17.0599 33.01 16.9599 33.08C16.6699 33.28 16.8599 33.74 17.1999 33.66C17.6399 33.56 18.0799 33.41 18.4799 33.19C18.1399 33.39 17.8599 33.7 17.6899 34.05C17.5599 34.31 17.8999 34.56 18.1099 34.37C18.4499 34.07 18.7599 33.73 19.0399 33.37C18.7999 33.78 18.5899 34.26 18.5999 34.71C18.5999 35.04 19.0399 35.14 19.1899 34.86C19.2799 34.69 19.3399 34.5 19.3699 34.31C19.4199 33.9 19.3699 33.49 19.3999 33.08C19.3799 33.43 19.4399 33.79 19.5599 34.12C19.6699 34.41 20.1199 34.31 20.0799 34C20.0299 33.53 19.8999 33.08 19.6899 32.66C19.7799 33.03 20.0599 33.35 20.4199 33.49C20.5699 33.55 20.7499 33.53 20.8699 33.42C21.0299 33.28 20.9799 33.08 20.8899 32.93C20.6399 32.47 20.0499 32.22 19.5499 32.36C19.8799 32.34 20.1799 32.13 20.3699 31.86C20.4899 31.69 20.5699 31.49 20.6299 31.29C20.6899 31.08 20.4899 30.88 20.2799 30.95C20.1099 31.01 19.9599 31.12 19.8499 31.25C19.6399 31.5 19.5299 31.82 19.4299 32.13C19.6799 31.69 19.7899 31.17 19.7399 30.67C19.7099 30.33 19.2199 30.33 19.1699 30.67C19.1599 30.78 19.1499 30.88 19.1399 30.99C19.1199 31.34 19.1299 31.7 19.0699 32.04C18.8199 32.01 18.5899 30.96 18.4799 30.7L18.4899 30.69Z" fill="#FF7A81"/>
<path d="M13.62 37.54C13.62 37.54 13.58 37.56 13.56 37.57C12.41 37.43 11.24 37.19 10.11 36.82C10.13 36.75 10.38 35.79 10.44 34.94C10.5 34.85 10.56 34.76 10.62 34.67C10.67 34.61 10.72 34.55 10.79 34.52C10.86 34.49 10.96 34.52 10.99 34.58C11.01 34.62 11 34.66 10.99 34.69C10.95 35.15 10.88 35.61 10.77 36.07C10.9 35.78 11.1 35.52 11.3 35.27C11.56 34.94 11.83 34.62 12.1 34.3C12.13 34.26 12.17 34.22 12.22 34.22C12.34 34.22 12.36 34.39 12.32 34.5C12.21 34.9 12.03 35.28 11.81 35.63C12.01 35.45 12.24 35.32 12.49 35.23C12.65 35.17 12.91 35.2 12.91 35.37C12.91 35.44 12.86 35.5 12.81 35.55C12.49 35.89 12.13 36.21 11.76 36.49C12.22 36.2 12.79 36.08 13.33 36.18C13.41 36.2 13.51 36.24 13.5 36.33C13.5 36.39 13.43 36.42 13.38 36.44C13.03 36.59 12.68 36.72 12.33 36.83C12.77 36.75 13.23 36.83 13.55 37.14C13.66 37.25 13.74 37.45 13.62 37.54Z" fill="#FF7A81"/>
<path d="M12.4299 4.38C11.7999 4.96 11.3599 5.72001 10.9099 6.45001C9.89993 8.09001 8.78993 9.67001 7.57993 11.17C7.36993 11.43 7.14992 11.68 6.91992 11.91C7.89992 11.34 8.76993 10.27 9.48993 9.41C10.2899 8.44 10.9999 7.38999 11.5799 6.26999C11.7399 5.95999 11.8899 5.65 12.0299 5.34C12.1399 5.1 12.2399 4.56001 12.4299 4.39001V4.38Z" fill="#813F2F"/>
<path d="M18 3.34C17.88 3.97 17.47 4.50001 17.05 4.98001C15.59 6.68001 13.88 8.22001 11.84 9.13C11.22 9.41001 10.61 9.70999 10 9.98999C12.35 8.59999 14.65 7.13 16.54 5.12C17.07 4.56 17.56 3.95999 18 3.32999V3.34Z" fill="#813F2F"/>
<path d="M2.73994 21.82C2.73994 21.82 2.70994 21.82 2.68994 21.82C2.60994 21.79 2.55993 21.7 2.58993 21.62C2.98993 20.35 2.85993 18.8 2.69993 17.02C2.48993 14.61 2.24993 11.88 3.25993 8.96C5.31993 3.06 11.0299 1.32 11.0899 1.3C11.1699 1.28 11.2599 1.32001 11.2899 1.41001C11.3099 1.49001 11.2699 1.58 11.1799 1.61C11.1199 1.63 5.55993 3.32001 3.55993 9.06001C2.56993 11.91 2.80993 14.61 3.00993 16.98C3.16993 18.8 3.30994 20.37 2.88994 21.71C2.86994 21.78 2.80994 21.82 2.73994 21.82Z" fill="#B04512"/>
<path d="M26.46 6.16C26.39 6.16 26.33 6.11001 26.31 6.04001C26.04 5.11001 25.99 4.41 25.94 3.85C25.86 2.83 25.82 2.31999 24.62 1.57999C22.72 0.409985 17.71 0.759987 17.66 0.769987C17.57 0.769987 17.49 0.709994 17.49 0.619994C17.49 0.529994 17.55 0.460011 17.64 0.450011C17.85 0.430011 22.81 0.0799959 24.79 1.31C26.13 2.14 26.18 2.80998 26.26 3.82998C26.3 4.37998 26.35 5.05001 26.61 5.95001C26.63 6.03001 26.59 6.11999 26.5 6.14999C26.49 6.14999 26.47 6.14999 26.46 6.14999V6.16Z" fill="#B04512"/>
<path d="M9.70999 13.88C9.61999 13.88 9.51999 13.84 9.45999 13.76C9.34999 13.62 9.36998 13.42 9.50998 13.31C10.43 12.58 12.6 11.64 14.26 13.34C14.38 13.47 14.38 13.67 14.26 13.79C14.13 13.91 13.93 13.91 13.81 13.79C12.13 12.07 10.01 13.74 9.91998 13.82C9.85998 13.87 9.78999 13.89 9.71999 13.89L9.70999 13.88Z" fill="#1E0E00"/>
<path d="M18.32 13.88C18.23 13.88 18.13 13.84 18.07 13.76C17.96 13.62 17.98 13.42 18.12 13.31C19.04 12.58 21.21 11.64 22.87 13.34C22.99 13.47 22.99 13.67 22.87 13.79C22.74 13.91 22.54 13.91 22.42 13.79C20.74 12.07 18.62 13.74 18.53 13.82C18.47 13.87 18.4 13.89 18.33 13.89L18.32 13.88Z" fill="#1E0E00"/>
<path d="M19.2799 17.14C19.5199 18.8 18.5099 20.19 16.8499 20.43C15.1899 20.67 13.6599 19.51 13.4199 17.85" fill="#9B2E26"/>
<path d="M19.37 17.69L13.49 18.57L13.35 17.57L19.23 16.69L19.37 17.69Z" fill="#FDFDFD"/>
</svg>
