<svg width="58" height="45" viewBox="0 0 58 45" fill="none" xmlns="http://www.w3.org/2000/svg">
<path d="M8.04004 20.34C8.04004 20.34 8.63005 10.49 9.24005 8.53002C9.85005 6.57002 11.85 3.05998 18.79 0.979976C20.75 0.389976 22.3501 -0.0599976 27.6501 0.0700024C32.9501 0.200002 38.7201 0.940022 42.6301 3.59002C46.5401 6.24002 47.3001 8.67002 47.6901 11.21C48.0801 13.75 48.9901 21.43 48.9901 21.43L44.5701 26.54L20.35 28.99L13.98 29.35L8.86005 24.14L8.05005 20.35L8.04004 20.34Z" fill="#45054F"/>
<path d="M5.32001 27.08C5.32001 27.08 0.140015 30.93 0.140015 33.29C0.140015 35.73 0.919988 37.65 7.29999 40.71C13.68 43.77 23.71 44.36 31.91 44.16C40.11 43.96 50.01 42.79 54.89 38.69C59.77 34.59 57.69 32.11 56 30.49C54.31 28.86 49.29 25.93 49.29 25.93L5.31 27.07L5.32001 27.08Z" fill="#45054F"/>
<path d="M49.92 26.5C49.92 26.5 50.3101 29.93 42.3 31.56C34.29 33.19 27.9401 33.41 22.4001 32.69C16.8701 31.97 7.56006 27.16 7.56006 27.16L8.04004 20.35C8.04004 20.35 8.46008 21.09 9.52008 22.6C10.2901 23.71 11.73 26.7 12.79 27.09C15.31 28 21.3101 26.66 22.4001 26.66C23.4901 26.66 31.0201 26.14 36.9301 25.4C42.8301 24.66 48.3301 22.24 48.9401 20.98L49.9301 26.5H49.92Z" fill="#8B1E45"/>
<path d="M13.44 28.74C13.08 29.91 11.98 29.88 10.8 29.53C10.8 29.53 6.14998 30.74 4.56998 30.65C3.34998 30.58 2.74 29.05 3.09 27.88L4.71 22.57C5.07 21.4 6.41996 20.47 7.47996 21.09C8.83996 21.89 12.03 25.49 12.03 25.49C13.2 25.85 13.97 26.69 13.62 27.86L13.44 28.74Z" fill="#E6556B"/>
<path d="M13.5 28.76C13.14 29.93 14.08 30.52 15.25 30.88C15.25 30.88 18.44 34.4801 19.8 35.2801C20.86 35.9001 22.21 34.98 22.57 33.8L24.19 28.49C24.55 27.32 23.94 25.79 22.71 25.72C21.13 25.63 16.48 26.84 16.48 26.84C15.31 26.48 14.2 26.75 13.84 27.92L13.5 28.75V28.76Z" fill="#E6556B"/>
<path d="M11.9884 25.4027L10.7603 29.44L15.209 30.7933L16.4372 26.756L11.9884 25.4027Z" fill="#8B1E45"/>
</svg>
