<svg width="72" height="69" viewBox="0 0 72 69" fill="none" xmlns="http://www.w3.org/2000/svg">
<path d="M60.7001 49.93H47.8901V50.53H60.7001V49.93Z" fill="#66352A"/>
<path d="M59.3901 50.16H58.55V55.89H59.3901V50.16Z" fill="#66352A"/>
<path d="M59.3901 51.5H58.55V55.65H59.3901V51.5Z" fill="#915544"/>
<path d="M55.59 50.16H54.75V55.89H55.59V50.16Z" fill="#66352A"/>
<path d="M55.59 51.89H54.75V55.54H55.59V51.89Z" fill="#915544"/>
<path d="M13.32 49.93H0.51001V50.53H13.32V49.93Z" fill="#66352A"/>
<path d="M42.9901 61.85H6.38013V62.74H42.9901V61.85Z" fill="#54271F"/>
<path d="M43.9001 56.43H42.7201V66.64H43.9001V56.43Z" fill="#54271F"/>
<path d="M13.94 56.43H13.01V66.64H13.94V56.43Z" fill="#54271F"/>
<path d="M29.2344 56.6456L28.4919 55.9031L22.1421 62.2529L22.8846 62.9954L29.2344 56.6456Z" fill="#54271F"/>
<path d="M49.9697 56.641L49.2273 55.8985L42.8775 62.2483L43.6199 62.9908L49.9697 56.641Z" fill="#54271F"/>
<path d="M37.9801 55.8L38.8101 56.75L34.7601 60.88L34.2101 59.64L37.9801 55.8Z" fill="#66352A"/>
<path d="M30.7401 55.25L29.9701 56.29L33.7201 60.83L34.2301 59.47L30.7401 55.25Z" fill="#66352A"/>
<path d="M59.9801 56.43H58.6201V66.64H59.9801V56.43Z" fill="#66352A"/>
<path d="M35.0701 56.43H33.7101V66.64H35.0701V56.43Z" fill="#915544"/>
<path d="M35.1701 56.43H33.6001L33.7101 61.47H35.0701L35.1701 56.43Z" fill="#66352A"/>
<path d="M3.59009 55.66L3.1001 56.69L6.9101 62.1L7.1301 60.7L3.59009 55.66Z" fill="#66352A"/>
<path d="M10.64 56.03L10 56.76L13.25 60.31L13.67 59.34L10.64 56.03Z" fill="#54271F"/>
<path d="M40.5301 56.03L39.8801 56.76L43.1401 60.31L43.5501 59.34L40.5301 56.03Z" fill="#54271F"/>
<path d="M16.6333 55.888L15.8909 56.6305L22.2407 62.9803L22.9831 62.2378L16.6333 55.888Z" fill="#54271F"/>
<path d="M7.28004 56.43H5.92004V66.64H7.28004V56.43Z" fill="#915544"/>
<path d="M7.28004 56.41H5.92004V61.43H7.28004V56.41Z" fill="#66352A"/>
<path d="M23.0901 56.43H21.9601V66.64H23.0901V56.43Z" fill="#54271F"/>
<path d="M1.59009 39.11C8.65009 43.82 56.8401 43.85 58.9001 39.74C58.1001 39.01 54.6101 33.69 33.7001 33.69C12.7901 33.69 2.8401 37.28 1.6001 39.11H1.59009Z" fill="#D3411A"/>
<path d="M53.6901 37.35C38.1801 36.39 22.4301 36.41 6.45007 37.42L7.01007 55.16H53.0501L53.6801 37.35H53.6901Z" fill="#915544"/>
<path d="M49.8201 37.35C40.9201 36.39 31.8801 36.41 22.7101 37.42L23.0301 55.16H49.4501L49.8101 37.35H49.8201Z" fill="#A05848"/>
<path d="M29.6101 40.66C39.7801 40.66 48.6801 43.56 53.3201 47.82L53.6901 37.35C38.1801 36.39 22.4301 36.41 6.45007 37.42L6.76007 47.31C11.3701 43.33 19.8501 40.66 29.6001 40.66H29.6101Z" fill="#7C4437"/>
<path d="M51.58 53.92C52.42 50.63 52.19 41.39 52.19 41.39C51.78 45.98 51.47 50.38 51.58 53.92Z" fill="#68352B"/>
<path d="M34.0501 49.27C34.8901 45.98 34.6601 36.74 34.6601 36.74C34.2501 41.33 33.9401 45.73 34.0501 49.27Z" fill="#68352B"/>
<path d="M11.17 48.85C11.59 45.66 10.16 36.67 10.16 36.67C10.35 41.13 10.6 45.41 11.17 48.85Z" fill="#68352B"/>
<path d="M15.6 56.73C16.44 54.08 16.21 46.64 16.21 46.64C15.8 50.34 15.49 53.88 15.6 56.73Z" fill="#68352B"/>
<path d="M26.9401 56.17C27.4301 51.3 26.2101 37.58 26.2101 37.58C26.2901 44.39 26.4501 50.91 26.9401 56.17Z" fill="#68352B"/>
<path d="M44.0701 54.29C44.4701 49.63 42.9901 36.5 42.9901 36.5C43.2001 43.02 43.4801 49.26 44.0701 54.29Z" fill="#68352B"/>
<path d="M38.6101 55.09H34.1101C34.1101 55.09 31.59 52.41 32.15 47.51C32.62 43.35 35.31 41.67 38.04 42.19C40.77 42.7 41.3901 52.53 38.6101 55.09Z" fill="#66352A"/>
<path d="M32.14 50.25C32.52 53.4 34.1 55.09 34.1 55.09H38.6C39.91 53.88 40.46 51.06 40.4 48.36C39.45 47.63 38.32 47.2 37.1 47.2C35.05 47.2 33.24 48.41 32.15 50.25H32.14Z" fill="#823F34"/>
<path d="M37.7801 55H34.1401C34.1401 55 32.1001 52.54 32.5501 48.03C32.9301 44.2 35.1101 42.66 37.3101 43.13C39.5201 43.6 40.0201 52.64 37.7701 55H37.7801Z" fill="#44221C"/>
<path d="M35.33 50.48C36.55 49.27 37.87 48.29 39.16 47.59C38.95 45.29 38.31 43.34 37.31 43.12C35.1 42.65 32.93 44.19 32.55 48.02C32.33 50.22 32.7 51.93 33.14 53.11C33.75 52.21 34.48 51.32 35.33 50.48Z" fill="#301714"/>
<path d="M58.9001 39.74C58.1001 39.01 54.6101 33.69 33.7001 33.69C12.7901 33.69 2.8401 37.28 1.6001 39.11C2.2501 39.54 3.24009 39.93 4.50009 40.28C9.15009 37.53 56.4201 40.07 56.1801 41.07C57.6801 40.69 58.6501 40.24 58.9001 39.74Z" fill="#E8822E"/>
<path d="M1.59009 39.11C8.49009 37.84 38.8301 38.27 45.1001 38.83C51.3701 39.39 58.9001 39.75 58.9001 39.75C57.6101 35.27 43.0801 14.4 29.6101 7.01001L26.2301 6.72998C17.6901 12.62 5.34009 28.67 1.59009 39.12V39.11Z" fill="#F2B03B"/>
<path d="M13.6801 38.37C25.2901 38.13 40.8201 38.45 45.1001 38.83C47.4901 39.04 50.0501 39.23 52.3201 39.37C52.1801 38.66 52.0301 37.94 51.8501 37.18C48.5401 23.3 32.3201 7.50001 28.1801 8.49001C24.6901 9.32001 14.7401 25.11 13.6801 38.36V38.37Z" fill="#EFCA52"/>
<path d="M43.8901 25.03C43.8901 25.03 47.5001 31.6 48.6301 39.11L49.8201 39.23C48.2701 30.92 43.8901 25.03 43.8901 25.03Z" fill="#F2B03B"/>
<path d="M38.8701 19.49C38.8701 19.49 42.9201 28.49 44.5401 38.78L45.7101 38.88C43.6101 27.5 38.8701 19.49 38.8701 19.49Z" fill="#F2B03B"/>
<path d="M21.1601 23.25C21.1601 23.25 18.1401 30.31 17.7801 38.31H16.5701C17.2801 29.48 21.1601 23.25 21.1601 23.25Z" fill="#F2B03B"/>
<path d="M52.9001 31.69C52.9001 31.69 54.6701 35.52 55.3501 39.89L56.4101 39.96C55.4801 35.12 52.8901 31.69 52.8901 31.69H52.9001Z" fill="#E8822E"/>
<path d="M15.1101 25.15C15.1101 25.15 12.0501 32.35 11.0401 38.62L9.71008 38.71C10.9101 32.05 15.1001 25.15 15.1001 25.15H15.1101Z" fill="#E8822E"/>
<path d="M9.76001 28.85C9.76001 28.85 7.06001 34.21 6.29001 38.87L5.02002 38.94C5.96002 33.98 9.76001 28.85 9.76001 28.85Z" fill="#E8822E"/>
<path d="M22.5 2.07999L25.88 7.70999L30.74 7.98996L32.57 1.29996C32.57 1.29996 27.78 -1.87002 22.5 2.06998V2.07999Z" fill="#F2B03B"/>
<path d="M24.71 7.99998C23.83 7.89998 23.79 6.28 25.2 6.7C27.2 7.3 30.32 6.93001 31.16 6.84001C32 6.75001 32.66 8.06 31.77 8.39C30.88 8.72 25.93 8.13998 24.71 7.99998Z" fill="#915544"/>
<path d="M59.28 58.5V56.74H46.28V58.5H59.28Z" fill="#915544"/>
<path d="M61.4299 60.1V58.34H46.8799V60.1H61.4299Z" fill="#B26552"/>
<path d="M62.61 61.72V59.96H49.61V61.72H62.61Z" fill="#915544"/>
<path d="M64.77 63.32V61.56H50.22V63.32H64.77Z" fill="#B26552"/>
<path d="M65.5601 64.99V63.23H52.5601V64.99H65.5601Z" fill="#915544"/>
<path d="M67.73 66.64V64.88H53.1799V66.64H67.73Z" fill="#B26552"/>
<path d="M47.02 58.49V56.73H45.73V58.49H47.02Z" fill="#66352A"/>
<path d="M49.1799 60.1V58.34H45.7299V60.1H49.1799Z" fill="#66352A"/>
<path d="M50.36 61.72V59.96H45.74V61.72H50.36Z" fill="#66352A"/>
<path d="M52.52 63.33V61.57H45.74V63.33H52.52Z" fill="#66352A"/>
<path d="M53.3201 64.99V63.23H45.7401V64.99H53.3201Z" fill="#66352A"/>
<path d="M55.47 66.64V64.88H45.73V66.64H55.47Z" fill="#66352A"/>
<path d="M6.09 50.16H5.25V55.89H6.09V50.16Z" fill="#66352A"/>
<path d="M2.29007 50.16H1.45007V55.89H2.29007V50.16Z" fill="#66352A"/>
<path d="M2.29007 51.57H1.45007V55.63H2.29007V51.57Z" fill="#915544"/>
<path d="M59.43 54.88H1.91002C1.34669 54.88 0.890015 55.3367 0.890015 55.9C0.890015 56.4634 1.34669 56.92 1.91002 56.92H59.43C59.9933 56.92 60.45 56.4634 60.45 55.9C60.45 55.3367 59.9933 54.88 59.43 54.88Z" fill="#B26552"/>
<path d="M57.2501 54.88H22.4001C21.8368 54.88 21.3801 55.3367 21.3801 55.9C21.3801 56.4634 21.8368 56.92 22.4001 56.92H57.2501C57.8135 56.92 58.2701 56.4634 58.2701 55.9C58.2701 55.3367 57.8135 54.88 57.2501 54.88Z" fill="#C96450"/>
<path d="M24.7801 45.12C24.8301 43.66 24.1401 42.47 22.2501 42.47C20.3601 42.47 19.5801 43.66 19.5301 45.12C19.4801 46.58 20.1701 47.77 22.0601 47.77C23.9501 47.77 24.7301 46.58 24.7801 45.12Z" fill="#66352A"/>
<path d="M19.67 46.27C19.96 47.16 20.7 47.77 22.06 47.77C23.95 47.77 24.73 46.58 24.78 45.12C24.79 44.79 24.76 44.48 24.69 44.19C23.96 44.29 23.17 44.49 22.37 44.79C21.31 45.19 20.38 45.71 19.66 46.27H19.67Z" fill="#823F34"/>
<path d="M24.4001 45.12C24.4401 43.86 23.9201 42.85 22.5001 42.85C21.0801 42.85 20.5001 43.87 20.4601 45.12C20.4201 46.38 20.9401 47.39 22.3601 47.39C23.7801 47.39 24.3601 46.37 24.4001 45.12Z" fill="#44221C"/>
<path d="M22.5001 42.84C21.0901 42.84 20.5001 43.85 20.4601 45.1C20.5901 45.07 20.7101 45.05 20.8401 45.05C21.8801 45.05 22.7601 45.99 23.0601 47.28C23.9701 47 24.3701 46.13 24.4001 45.11C24.4401 43.85 23.9201 42.84 22.5001 42.84Z" fill="#301714"/>
<path d="M50.64 47.21C49.57 47.75 48.01 47.16 47.87 45.47C47.71 43.4 48.62 42 49.98 42.51C51.34 43.03 51.76 46.64 50.64 47.2V47.21Z" fill="#66352A"/>
<path d="M51.28 45.72C50.76 45.3 50.1 44.92 49.34 44.65C48.85 44.47 48.36 44.35 47.9 44.29C47.85 44.65 47.83 45.05 47.87 45.48C48 47.17 49.5701 47.75 50.6401 47.22C51.0401 47.02 51.25 46.43 51.28 45.73V45.72Z" fill="#823F34"/>
<path d="M50.0101 46.85C49.2601 47.24 48.1401 46.82 48.0401 45.57C47.9101 44.05 48.55 43.01 49.52 43.39C50.49 43.77 50.81 46.43 50.02 46.85H50.0101Z" fill="#44221C"/>
<path d="M49.86 45.71C50.06 45.81 50.25 45.92 50.43 46.03C50.56 45.08 50.2 43.66 49.51 43.39C48.65 43.05 48.05 43.84 48.02 45.1C48.59 45.19 49.23 45.3899 49.86 45.7199V45.71Z" fill="#301714"/>
<path d="M71.3801 66.45H0.320068C0.320068 66.45 10.2001 68.8 38.6801 68.8C59.3201 68.8 71.3801 66.45 71.3801 66.45Z" fill="#E5B961"/>
<path d="M24.8 0.770042C25.07 4.14004 26.6401 6.73 28.5201 6.73C30.4001 6.73 31.8701 4.31001 32.2101 1.11001C31.2201 0.590008 28.28 -0.649948 24.79 0.780052L24.8 0.770042Z" fill="#EFCA52"/>
<path d="M60.9 49.8H58.15V50.69H60.9V49.8Z" fill="#915544"/>
<path d="M2.60002 49.82H0.51001V50.67H2.60002V49.82Z" fill="#A05848"/>
<path d="M28.0301 7.04C27.0501 7.04 26.0301 6.95005 25.2001 6.71005C23.7901 6.29005 23.8201 7.90004 24.7101 8.01004C25.0401 8.05004 25.6301 8.12003 26.3301 8.19003C26.7001 7.67003 27.3001 7.26001 28.0301 7.05001V7.04Z" fill="#6D3C31"/>
<path d="M32.1001 8.15001C32.4301 7.66001 31.8601 6.76996 31.1601 6.84996C30.9401 6.86996 30.5501 6.92 30.0701 6.96C30.9401 7.13 31.6701 7.56996 32.1001 8.15996V8.15001Z" fill="#6D3C31"/>
<path d="M39.1901 28.38C36.0501 23.17 32.9901 12.19 32.9901 12.19C36.3201 18.43 37.9401 23.96 39.1901 28.38Z" fill="#F2B03B"/>
<path d="M26.15 8.85999C25.21 14 22.29 19.19 22.29 19.19C22.67 16.19 24.29 12.74 26.15 8.85999Z" fill="#F2B03B"/>
<path d="M26.7301 18.36C26.0901 23.6 24.4801 30.86 24.4801 30.86C24.4101 27.41 25.1101 22.15 26.7301 18.36Z" fill="#F2B03B"/>
<path d="M30.4601 6.37C31.1601 4.21 31.3501 1.39001 31.3501 1.39001L29.3301 6.78998L30.4601 6.37Z" fill="#F2B03B"/>
<path d="M27.2701 6.56C26.2401 4.03 26.6101 1.96002 26.6101 1.96002L28.4401 6.94L27.2701 6.56Z" fill="#F2B03B"/>
<path d="M32.4801 38.57C32.5301 36.08 32.6701 32.09 32.6701 32.09L34.0301 38.57H32.4801Z" fill="#E8822E"/>
</svg>
