<svg width="29" height="63" viewBox="0 0 29 63" fill="none" xmlns="http://www.w3.org/2000/svg">
<path d="M14.75 0.679993C7.1 0.679993 0.900024 6.88003 0.900024 14.53C0.900024 22.18 7.1 28.38 14.75 28.38C22.4 28.38 28.6 22.18 28.6 14.53C28.6 6.88003 22.4 0.679993 14.75 0.679993ZM14.75 12.86C12.42 12.86 10.53 10.97 10.53 8.64001C10.53 6.31001 12.42 4.41998 14.75 4.41998C17.08 4.41998 18.97 6.31001 18.97 8.64001C18.97 10.97 17.08 12.86 14.75 12.86Z" fill="#999999"/>
<path d="M10.22 60.98V25.23H19.3V39.18L17.36 40.76L19.3 43.25V47.36L17.43 51.26L19.3 53.4V56.31C19.3 60.98 14.01 63.69 10.22 60.96V60.98Z" fill="#C7C7C7"/>
<mask id="mask0_30_3381" style="mask-type:luminance" maskUnits="userSpaceOnUse" x="10" y="25" width="10" height="38">
<path d="M10.22 60.98V25.23H19.3V39.18L17.36 40.76L19.3 43.25V47.36L17.43 51.26L19.3 53.4V56.31C19.3 60.98 14.01 63.69 10.22 60.96V60.98Z" fill="white"/>
</mask>
<g mask="url(#mask0_30_3381)">
<g style="mix-blend-mode:multiply">
<path d="M19.2899 25.24H15.6399V61.67H19.2899V25.24Z" fill="#E8E8E8"/>
</g>
<g style="mix-blend-mode:multiply">
<path d="M13.1699 25.95H12.21V62.38H13.1699V25.95Z" fill="#E8E8E8"/>
</g>
</g>
<path d="M14.75 0.0700073C7.1 0.0700073 0.900024 6.26998 0.900024 13.92C0.900024 21.57 7.1 27.77 14.75 27.77C22.4 27.77 28.6 21.57 28.6 13.92C28.6 6.26998 22.4 0.0700073 14.75 0.0700073ZM14.75 12.25C12.42 12.25 10.53 10.36 10.53 8.03003C10.53 5.70003 12.42 3.81 14.75 3.81C17.08 3.81 18.97 5.70003 18.97 8.03003C18.97 10.36 17.08 12.25 14.75 12.25Z" fill="#C7C7C7"/>
<path d="M18.47 22.13H11.03C10.38 22.13 9.84998 21.6 9.84998 20.95C9.84998 20.3 10.38 19.77 11.03 19.77H18.47C19.12 19.77 19.65 20.3 19.65 20.95C19.65 21.6 19.12 22.13 18.47 22.13Z" fill="#999999"/>
</svg>
