<svg width="45" height="63" viewBox="0 0 45 63" fill="none" xmlns="http://www.w3.org/2000/svg">
<path d="M30.4701 55.56V58.89C30.4701 60.73 23.92 62.22 15.8 62.24H15.6401C12.9001 62.24 10.3401 62.07 8.14008 61.78C3.75008 61.2 0.810059 60.12 0.810059 58.89V55.56H30.4701Z" fill="#5BAFF4"/>
<path d="M15.8001 58.45V62.24H15.6401C12.9001 62.24 10.3401 62.07 8.14014 61.78V58.45H15.8001Z" fill="#8DD1FF"/>
<path d="M30.4701 55.56C30.4701 57.4 23.8901 58.9 15.7401 58.91H15.6401C12.9001 58.91 10.3401 58.74 8.14008 58.45C3.75008 57.87 0.810059 56.79 0.810059 55.56C0.810059 53.81 6.77006 52.37 14.3701 52.22C14.7901 52.22 15.2101 52.21 15.6401 52.21C17.9601 52.21 20.1501 52.33 22.1001 52.55C27.0501 53.09 30.4601 54.24 30.4601 55.56H30.4701Z" fill="#5BAFF4"/>
<path d="M15.72 8.91998L8.57004 16.97C5.81004 20.08 4.28003 24.09 4.28003 28.25V55.43C4.28003 55.8 5.02003 56.1 5.94003 56.1C6.86003 56.1 7.60004 55.8 7.60004 55.43V28.25C7.60004 24.9 8.83002 21.68 11.05 19.17L18.2 11.12L15.72 8.91998Z" fill="#808080"/>
<path d="M25.6701 55.43C25.6701 55.06 25.0801 54 24.0101 54C22.9401 54 22.3501 55.06 22.3501 55.43C22.3501 55.8 23.0901 56.1 24.0101 56.1C24.9301 56.1 25.6701 55.8 25.6701 55.43Z" fill="#808080"/>
<path d="M29.5301 9.94L20.9901 18.48L11.6301 6.15002C11.1601 5.51002 11.6001 4.15999 12.6701 2.85999C12.7001 2.82999 12.7301 2.79001 12.7601 2.76001C12.9101 2.57001 13.0801 2.39002 13.2601 2.21002C13.2801 2.19002 13.3001 2.17002 13.3201 2.15002C13.4801 1.99002 13.64 1.85002 13.8 1.71002C13.84 1.68002 13.8701 1.65 13.9001 1.63C14.3001 1.31 14.7 1.04003 15.08 0.840027C15.62 0.550027 16.1301 0.400024 16.5401 0.400024C16.7801 0.400024 17.0001 0.449998 17.1601 0.559998C17.1901 0.579998 17.21 0.599995 17.24 0.619995L29.52 9.94H29.5301Z" fill="#5BAFF4"/>
<path d="M24.5201 8.34003L21.9101 12.37L13.3201 2.15002C13.4801 1.99002 13.64 1.85002 13.8 1.71002C13.84 1.68002 13.8701 1.65 13.9001 1.63C14.3001 1.31 14.7 1.04003 15.08 0.840027L24.5201 8.34003Z" fill="#8DD1FF"/>
<path d="M43.71 11.02L40.9 13.83L22.06 32.67C19.63 30.24 12.89 16.92 20.43 9.38002C20.59 9.22002 20.76 9.05998 20.92 8.90998C22.02 7.92998 23.23 7.22001 24.5 6.75001C32.02 3.93001 41.67 8.98002 43.71 11.01V11.02Z" fill="#5BAFF4"/>
<path d="M40.9101 13.83L36.7401 18C36.7401 18 36.6701 17.93 36.6301 17.9C28.0801 9.93002 20.9301 8.90997 20.9301 8.90997C22.0301 7.92997 23.2401 7.22 24.5101 6.75C35.8401 7.84 40.6401 12.99 40.6401 12.99C40.6401 12.99 40.7501 13.31 40.9101 13.82V13.83Z" fill="#8DD1FF"/>
<path d="M41.68 15.65C40.05 17.9 37.6 20.74 34.69 23.65C31.77 26.57 28.93 29.03 26.67 30.66C24.3 32.37 22.57 33.18 22.06 32.67C21.27 31.88 23.64 28.18 27.62 23.71C27.73 23.59 27.84 23.47 27.95 23.34C28.32 22.93 28.7 22.51 29.1 22.09C29.73 21.42 30.4 20.73 31.08 20.04C31.77 19.35 32.45 18.68 33.13 18.05C33.55 17.65 33.97 17.27 34.38 16.9C34.49 16.8 34.61 16.69 34.72 16.59C39.2 12.59 42.92 10.22 43.71 11.01C44.22 11.52 43.4 13.26 41.68 15.64V15.65Z" fill="#FFD15F"/>
<path d="M34.7301 16.6C36.3401 15.92 38.1001 15.54 39.9601 15.54C40.5401 15.54 41.1201 15.58 41.6901 15.65C40.0601 17.9 37.6101 20.74 34.7001 23.65C31.7801 26.57 28.9401 29.03 26.6801 30.66C26.6101 30.1 26.5701 29.52 26.5701 28.94C26.5701 27.08 26.9501 25.32 27.6301 23.71L34.7301 16.6Z" fill="#FFEF92"/>
<path d="M34.3801 16.91C35.6601 18.71 35.4901 21.22 33.8801 22.84C32.2701 24.46 29.7501 24.62 27.9501 23.34C28.3201 22.93 28.7001 22.51 29.1001 22.09C29.7301 21.42 30.4001 20.73 31.0901 20.04C31.7801 19.35 32.4601 18.69 33.1401 18.05C33.5601 17.65 33.9801 17.27 34.3901 16.9L34.3801 16.91Z" fill="white"/>
<path d="M22.11 52.54L15.75 58.9H15.65C12.91 58.9 10.35 58.73 8.15002 58.44L14.38 52.21C14.8 52.21 15.22 52.2 15.65 52.2C17.97 52.2 20.16 52.32 22.11 52.54Z" fill="#8DD1FF"/>
<path d="M0.619995 58.89C0.619995 61.11 8.26001 62.43 15.64 62.43C23.02 62.43 30.66 61.11 30.66 58.89V55.56C30.66 53.34 23.02 52.02 15.64 52.02C12.93 52.02 10.18 52.2 7.79001 52.54V28.26C7.79001 24.96 9 21.78 11.19 19.31L16.68 13.14L17.4 14.09C15.1 21.52 19.83 30.7 21.92 32.81C22.06 32.95 22.25 33.01 22.5 33.01C23.3 33.01 24.68 32.31 26.61 30.93C29 29.22 31.92 26.68 34.82 23.78C40.12 18.48 45.08 12.17 43.85 10.89C42.62 9.65999 38.64 7.33996 34.03 6.28996C31.45 5.69996 28.2 5.39996 25.11 6.35996L17.37 0.479959C17.37 0.479959 17.31 0.429951 17.28 0.409951C16.56 -0.0700488 15.16 0.359959 13.79 1.47996C13.76 1.50996 13.73 1.52999 13.68 1.56999C13.49 1.71999 13.31 1.9 13.12 2.08C12.93 2.27 12.76 2.44999 12.61 2.63999C12.58 2.67999 12.55 2.70998 12.52 2.74998C11.38 4.13998 10.96 5.54999 11.46 6.25999C11.46 6.25999 11.46 6.27001 11.47 6.28001L14.39 10.13L8.42001 16.85C5.62001 20 4.07999 24.05 4.07999 28.26V53.28C1.95999 53.86 0.609985 54.64 0.609985 55.57V58.9L0.619995 58.89ZM11.78 6.03996C11.38 5.48996 11.81 4.19996 12.81 2.97996C12.84 2.94996 12.86 2.90998 12.89 2.87998C13.04 2.69998 13.2 2.51995 13.38 2.34995C13.56 2.16995 13.74 2.00995 13.93 1.84995C13.96 1.82995 13.99 1.80001 14.02 1.78001C15.24 0.790007 16.49 0.349959 17.06 0.729959C17.08 0.739959 17.1 0.759998 17.12 0.769998L24.66 6.48997C23.11 7.03997 21.62 7.90998 20.29 9.24998C18.98 10.56 18.09 12.05 17.54 13.63L11.79 6.04997C11.79 6.04997 11.79 6.04996 11.79 6.03996H11.78ZM41.66 15.35C39.96 17.73 37.44 20.62 34.55 23.51C31.67 26.39 28.77 28.92 26.39 30.62C23.76 32.5 22.5 32.84 22.19 32.54C21.61 31.96 23.45 28.64 27.98 23.6C28.79 24.13 29.7 24.39 30.61 24.39C31.85 24.39 33.08 23.91 34.01 22.98C35.63 21.36 35.88 18.85 34.63 16.95C39.07 12.96 42.18 11.06 43.25 11.06C43.39 11.06 43.5 11.09 43.57 11.16C43.88 11.47 43.53 12.73 41.65 15.36L41.66 15.35ZM28.24 23.3C28.55 22.96 28.88 22.6 29.24 22.21C29.84 21.57 30.49 20.9 31.22 20.17C31.95 19.44 32.62 18.79 33.26 18.19C33.65 17.83 34 17.5 34.34 17.19C35.46 18.93 35.22 21.21 33.74 22.69C32.26 24.17 29.98 24.41 28.24 23.29V23.3ZM34.26 16.76C33.87 17.11 33.46 17.49 33.01 17.91C32.37 18.51 31.69 19.16 30.96 19.9C30.22 20.64 29.57 21.31 28.97 21.95C28.55 22.4 28.17 22.81 27.82 23.2C24.85 26.49 21.98 30.24 21.75 32C19 28.55 13.61 16.47 20.57 9.50999C23.08 6.99999 26.26 6.09 29.46 6.09C35.13 6.09 40.86 8.92998 43.06 10.69C41.3 10.92 37.55 13.79 34.26 16.76ZM16.45 12.81L10.91 19.04C8.65 21.58 7.41 24.85 7.41 28.25V55.43C7.41 55.62 6.83 55.91 5.94 55.91C5.05 55.91 4.47 55.62 4.47 55.43V28.25C4.47 24.13 5.97999 20.17 8.70999 17.1L14.63 10.44L16.44 12.82L16.45 12.81ZM4.10001 55.42C4.10001 55.98 5.03001 56.28 5.95001 56.28C6.87001 56.28 7.79999 55.98 7.79999 55.42V52.89C9.99999 52.58 12.66 52.39 15.65 52.39C24.41 52.39 30.29 54.02 30.29 55.55C30.29 57.08 24.41 58.71 15.65 58.71C6.88999 58.71 1.01001 57.08 1.01001 55.55C1.01001 54.89 2.12001 54.2 4.10001 53.64V55.42ZM1.01001 58.88V56.37C2.64001 58.08 9.23999 59.08 15.65 59.08C22.06 59.08 28.66 58.08 30.29 56.37V58.88C30.29 60.41 24.41 62.04 15.65 62.04C6.88999 62.04 1.01001 60.41 1.01001 58.88Z" fill="#333333"/>
<path d="M24.01 56.29C24.93 56.29 25.86 55.99 25.86 55.43C25.86 54.93 25.16 53.81 24.01 53.81C22.86 53.81 22.16 54.94 22.16 55.43C22.16 55.99 23.09 56.29 24.01 56.29ZM22.54 55.43C22.54 55.13 23.08 54.19 24.01 54.19C24.94 54.19 25.48 55.13 25.48 55.43C25.48 55.62 24.9 55.91 24.01 55.91C23.12 55.91 22.54 55.62 22.54 55.43Z" fill="#333333"/>
</svg>
