<svg version="1.2" xmlns="http://www.w3.org/2000/svg" viewBox="0 0 32 73" width="32" height="73">
	<title>&lt;Group&gt;</title>
	<style>
		.s0 { fill: #f6c3bc } 
		.s1 { fill: #f2ada8 } 
		.s2 { fill: #e88886 } 
		.s3 { fill: #99549b } 
		.s4 { fill: #77307b } 
		.s5 { fill: #d8d8e4 } 
		.s6 { fill: #b6b5cf } 
		.s7 { fill: #fffbe5 } 
	</style>
	<g id="&lt;Group&gt;">
		<path id="&lt;Path&gt;" class="s0" d="m31.4 1.8l-2.5 44.2-10.5-0.7-2.7-44.6c8-1.9 15.7 1.1 15.7 1.1z"/>
		<path id="&lt;Path&gt;" class="s1" d="m15.7 0.9l15.7 0.7-2.6 45.3-3.2 1.1c0 0 2.7-15.4 1.6-28.3-0.8-8.9-11.1-13.1-11.1-13.1z"/>
		<path id="&lt;Path&gt;" class="s2" d="m31 7.5c0 0-10.8 1.4-15.1-2.8-0.2-2.8-0.2-3.8-0.2-3.8 0 0 8-1.2 15.7 0.7-0.3 4.7-0.4 5.9-0.4 5.9z"/>
		<path id="&lt;Path&gt;" class="s3" d="m27.8 61.5c0 0 1.5 3.3 1.1 6.8-0.4 3.6-4.9 3.8-15.8 3.9-25.2 0.3-5.8-10.2 5.7-11.5 7.4 0.5 9 0.8 9 0.8z"/>
		<path id="&lt;Path&gt;" class="s4" d="m27.8 61.5c0 0 1.5 3.3 1.1 6.8-0.4 3.6-4.9 4.7-15.8 3.9 8.6-1.1 11.8-3.6 10.5-7.2-1.1-2.9-3.3-2-4.8-4.3 7.4 0.5 9 0.8 9 0.8z"/>
		<path id="&lt;Path&gt;" class="s5" d="m22.9 45.6c5.6 0.4 6.5-0.7 6.4 0.5-0.1 2.1-1.5 15.5-1.5 15.5 0 0-0.7 0.7-4.5 0.4-3.8-0.3-4.5-1.3-4.5-1.3 0 0-0.8-12.8-1-15.4-0.1-1.3 1 0 5.1 0.3z"/>
		<path id="&lt;Path&gt;" class="s6" d="m26.3 46.7c2.6-0.1 3.1-0.5 3 0.4-0.1 2.1-1.5 15.5-1.5 15.5 0 0-0.7 0.7-4.5 0.4-3.8-0.3-4.5-1.3-4.5-1.3 0 0 4.4-0.7 7.5-15z"/>
		<path id="&lt;Path&gt;" class="s7" d="m21.2 64.9c-1 0.8-2.5 0.2-4.1-0.8-1.6-0.9-1.7-2-0.6-2.2 1.8-0.3 5.8 2.2 4.7 3z"/>
		<path id="&lt;Path&gt;" class="s7" d="m17.4 66.5c-1.2 0.7-2.6-0.1-4.1-1.2-1.5-1-1.5-2.1-0.3-2.2 1.7-0.2 5.5 2.7 4.4 3.4z"/>
	</g>
</svg>