<?xml version="1.0" encoding="UTF-8"?><svg id="Layer_2" xmlns="http://www.w3.org/2000/svg" viewBox="0 0 54.76 38.99"><defs><style>.cls-1{fill:#fc806a;}.cls-2{fill:#fff;}.cls-3{fill:#fbdac8;}.cls-4{fill:#c5262f;}.cls-5{fill:#e2292a;}.cls-6{fill:#83312a;}</style></defs><g id="welcome_to_amazing_english"><g><path class="cls-2" d="M54.5,15.92h0c-.28-.8-.5-1.47-.63-2.14-.32-1.61-.58-3.25-.83-4.84-.3-1.89-1.27-3.51-2.79-4.66-.84-.63-1.8-1.2-2.95-1.75-2.13-1-4.56-1.67-7.65-2.11C37.61,.14,35.45,.01,32.66,0c-.02,0-.05,0-.07,0-.49,.02-.98,.04-1.48,.07-1.14,.05-2.31,.1-3.47,.18-1.42,.09-2.81,.24-3.99,.37-1.71,.19-3.24,.48-4.69,.88-2.47,.69-4.47,2.03-5.95,3.99-.4,.53-.79,1.04-1.21,1.51-1.21,1.33-2.44,2.65-3.66,3.97l-1.6,1.72c-1.47,1.58-2.69,3.05-3.75,4.47-1.25,1.7-2.07,3.38-2.5,5.16-.63,2.61-.27,4.94,1.05,6.89,.71,1.62,1.38,3.21,1.87,4.87,.28,.96,.79,1.75,1.51,2.35,1.71,1.43,3.67,2.28,5.84,2.51,.42,.04,.83,.06,1.24,.06,.94,0,1.86-.1,2.75-.19h.09c1.5-.17,3.06-.46,5.07-.94,4.14-1,7.67-2.32,10.77-4.04,1.94-1.08,4.05-2.07,6.46-3.03,.47-.19,.95-.38,1.42-.57,1.49-.59,3.02-1.2,4.52-1.86,3.05-1.35,5.58-2.92,7.74-4.82,1.12-.98,2.17-2.12,3.12-3.38,1.26-1.67,1.1-3.23,.74-4.25Z"/><g><path class="cls-6" d="M32.46,2.06c2.19,0,4.38,.09,6.55,.4,2.41,.34,4.78,.87,6.99,1.92,.91,.43,1.8,.93,2.6,1.54,1.19,.9,1.93,2.12,2.17,3.63,.25,1.57,.5,3.15,.81,4.71,.15,.76,.4,1.51,.66,2.25,.38,1.06,.13,1.99-.52,2.84-.84,1.11-1.78,2.14-2.82,3.05-2.13,1.86-4.54,3.28-7.12,4.42-1.87,.83-3.79,1.56-5.69,2.32-2.18,.87-4.32,1.85-6.38,2.99-3.16,1.75-6.54,2.92-10.04,3.76-1.55,.37-3.12,.7-4.71,.87-1.21,.13-2.43,.27-3.65,.13-1.85-.2-3.48-.92-4.91-2.11-.51-.43-.84-.98-1.03-1.62-.49-1.67-1.17-3.26-1.86-4.85-.03-.07-.06-.14-.11-.2-1.17-1.73-1.3-3.61-.83-5.59,.4-1.66,1.18-3.13,2.18-4.48,1.09-1.47,2.27-2.86,3.51-4.2,1.69-1.83,3.39-3.65,5.07-5.48,.45-.49,.85-1.02,1.25-1.55,1.28-1.71,2.97-2.79,5.02-3.36,1.41-.39,2.85-.64,4.31-.81,1.26-.14,2.52-.27,3.78-.35,1.58-.1,3.16-.16,4.75-.23ZM6.08,30.45s-.07-.06-.1-.08c-.12,.15-.02,.21,.1,.27h0c0,.07-.01,.15,0,.22,.22,.64,.44,1.28,.67,1.92,.23,.62,.64,1.09,1.21,1.41,.13,.07,.26,.15,.39,.23,1.4,.84,2.9,1.31,4.55,1.27,.39-.01,.78-.03,1.17-.07,.99-.1,1.99-.15,2.96-.35,1.56-.32,3.11-.7,4.65-1.12,2.17-.59,4.27-1.38,6.27-2.43,1.21-.64,2.43-1.28,3.65-1.9,2.39-1.22,4.89-2.2,7.37-3.22,.14-.06,.26-.14,.39-.22,.27-.09,.54-.17,.8-.27,1.85-.74,3.68-1.51,5.36-2.6,1.29-.84,2.57-1.69,3.58-2.87,.64-.76,1.25-1.54,1.85-2.33,.09-.12,.14-.3,.15-.46,.05-.9-.1-1.77-.37-2.62-.17-.53-.3-1.07-.44-1.61-.03-.11-.07-.21-.13-.37-.27,.62-.48,1.19-.74,1.72-1.02,2.08-2.58,3.69-4.45,5.02-1.97,1.4-4.12,2.44-6.34,3.37-2.12,.9-4.26,1.75-6.4,2.62-2.42,.98-4.78,2.07-7.13,3.2-1.51,.73-3.04,1.4-4.66,1.85-1.64,.46-3.32,.72-5.02,.78-1.75,.06-3.49,0-5.22-.26-1.15-.17-2.28-.42-3.36-.84-.25-.1-.51-.17-.76-.25h0ZM32.71,3.23c-1.59,.08-3.1,.13-4.6,.23-1.22,.08-2.43,.21-3.64,.35-1.56,.18-3.1,.45-4.61,.9-1.71,.51-3.12,1.44-4.27,2.83-1.12,1.36-2.3,2.68-3.47,4-1.49,1.68-3.02,3.33-4.5,5.02-.98,1.12-1.93,2.29-2.68,3.59-.8,1.39-1.33,2.86-1.32,4.5,0,1.9,.82,3.33,2.42,4.32,.82,.51,1.72,.81,2.64,1.03,1.15,.27,2.31,.39,3.49,.47,1.74,.12,3.47,.06,5.19-.17,2.35-.3,4.58-1.02,6.74-1.99,2.53-1.14,5.04-2.31,7.58-3.42,2.36-1.02,4.76-1.96,7.14-2.96,1.92-.8,3.79-1.72,5.5-2.92,1.59-1.12,2.93-2.48,3.82-4.22,.46-.91,.82-1.88,1.17-2.84,.45-1.2,.27-2.38-.29-3.5-.61-1.22-1.59-2.07-2.79-2.68-2.94-1.47-6.08-2.19-9.34-2.41-1.41-.1-2.83-.1-4.17-.14Z"/><path class="cls-3" d="M32.71,3.23c1.34,.04,2.76,.04,4.17,.14,3.26,.22,6.4,.94,9.34,2.41,1.21,.6,2.18,1.46,2.79,2.68,.56,1.12,.74,2.3,.29,3.5-.36,.96-.71,1.93-1.17,2.84-.88,1.74-2.23,3.1-3.82,4.22-1.71,1.2-3.58,2.12-5.5,2.92-2.38,.99-4.78,1.93-7.14,2.96-2.54,1.1-5.05,2.28-7.58,3.42-2.15,.97-4.39,1.68-6.74,1.99-1.72,.22-3.45,.29-5.19,.17-1.18-.08-2.34-.2-3.49-.47-.93-.22-1.83-.52-2.64-1.03-1.6-1-2.42-2.43-2.42-4.32,0-1.63,.52-3.11,1.32-4.5,.75-1.3,1.69-2.46,2.68-3.59,1.48-1.69,3.01-3.34,4.5-5.02,1.17-1.32,2.35-2.64,3.47-4,1.14-1.39,2.56-2.31,4.27-2.83,1.51-.45,3.05-.72,4.61-.9,1.21-.14,2.43-.27,3.64-.35,1.5-.1,3.01-.16,4.6-.23Zm-14.78,15.82c1.13,.07,2.13-.32,3.13-.76,.84-.38,1.44-.93,1.49-1.92,0-.01,0-.03,0-.04,.1-.57,.37-1.04,.84-1.4,.58-.46,1.15-.92,1.72-1.4,.39-.33,.77-.68,1.12-1.05,.3-.31,.47-.71,.42-1.16-.06-.58-.13-1.16-.24-1.74-.15-.83-.35-1.65-.3-2.5,.02-.27,.06-.54,.06-.81-.02-.89-.66-1.37-1.53-1.15-.09,.02-.18,.04-.26,.06-1.92,.52-3.84,1.03-5.76,1.56-.7,.19-1.27,.61-1.71,1.2-.54,.72-1.1,1.43-1.63,2.17-1.29,1.82-2.81,3.42-4.5,4.88-1.07,.93-2.13,1.88-3.14,2.86-.57,.55-1.06,1.2-1.56,1.82-.19,.23-.34,.51-.44,.78-.24,.63,.04,1.16,.7,1.31,.32,.07,.66,.08,.98,.03,1-.15,1.95-.49,2.88-.89,1.03-.44,2.04-.91,3.06-1.34,1.02-.44,2.09-.68,3.21-.61,.48,.03,.96,.07,1.44,.1Zm8.16,3.31s.02,.07,.03,.1c-.53,.17-.96,.46-1.18,.98-.23,.55-.62,.95-1.1,1.29-.6,.44-1.18,.89-1.77,1.34-.44,.33-.8,.74-1.09,1.2-.07,.11-.14,.23-.19,.36-.1,.24-.09,.47,.09,.68,.18,.2,.42,.2,.63,.13,.25-.08,.49-.23,.73-.35,.36-.19,.7-.43,1.07-.58,1.29-.54,2.58-1.1,3.9-1.57,1.55-.55,3.08-1.13,4.55-1.88,1.43-.72,2.93-1.26,4.46-1.72,1.62-.48,3.19-1.11,4.72-1.81,.11-.05,.22-.11,.31-.18,.3-.25,.29-.66-.03-.89-.12-.08-.27-.12-.42-.16-.38-.09-.76-.18-1.15-.24-.47-.08-.95-.17-1.43-.19-1-.04-1.97-.2-2.95-.41-1.52-.33-3.06-.5-4.63-.41-.58,.03-1.13,.17-1.6,.54-.4,.32-.86,.51-1.37,.54-.57,.04-1.14,.05-1.71,.05-.37,0-.73,.04-1.03,.28-.53,.42-.92,.96-1.21,1.56-.24,.5,.02,1.03,.56,1.18,.27,.08,.56,.08,.85,.1,.31,.03,.63,.04,.94,.06Zm-11.99,7.56c.38-.04,1.13-.09,1.87-.22,.94-.16,1.84-.44,2.66-.96,.69-.44,1.15-1.01,1.23-1.85,0-.09,.04-.18,.06-.26,.1-.45,.34-.81,.73-1.04,.3-.18,.61-.33,.92-.48,.43-.22,.88-.4,1.29-.65,.8-.5,.9-1.16,.34-1.91-.14-.18-.29-.35-.41-.54-.22-.33-.23-.68-.02-1.02,.12-.19,.28-.35,.41-.54,.24-.35,.5-.69,.68-1.06,.25-.52,.06-.89-.45-1.13-.31-.15-.58-.06-.85,.11-.57,.37-1.12,.77-1.8,.92-1,.23-2,.42-3.04,.39-.54-.02-1.09-.01-1.63,.03-1.15,.09-2.18,.54-3.15,1.15-.55,.34-1.1,.69-1.66,1.02-1.25,.72-2.58,1.15-4.05,1.07-.21-.01-.42,.01-.63,.04-.54,.07-.86,.39-1,.91-.15,.54-.11,1.07,.07,1.6,.25,.73,.72,1.32,1.21,1.9,.73,.85,1.59,1.52,2.68,1.85,1.36,.42,2.75,.68,4.55,.69ZM29.56,4.27c-.28,.08-.6,.15-.91,.26-.21,.08-.39,.23-.6,.31-.83,.32-1.07,1-1.11,1.8-.03,.64,.16,1.25,.29,1.87,.16,.75,.32,1.5,.14,2.28-.08,.34-.16,.67-.24,1.01-.12,.54-.04,1.02,.41,1.39,.21,.17,.42,.35,.65,.49,.34,.22,.72,.39,1.05,.62,1.01,.69,1.97,.62,2.98-.02,1.65-1.04,3.4-1.87,5.19-2.64,1.59-.69,3.19-1.35,4.89-1.71,.99-.21,1.98-.38,2.97-.59,.35-.07,.7-.19,1.03-.33,.78-.35,.84-.93,.15-1.43-.19-.14-.4-.26-.62-.38-.87-.46-1.74-.9-2.61-1.36-1.34-.69-2.78-.99-4.27-1.02-1.34-.02-2.68,.04-4.02,.06-1.31,.03-2.62-.02-3.91-.34-.47-.12-.94-.18-1.47-.28Zm11.79,14.41c.14,0,.27,0,.41,0,1.03-.03,2-.26,2.78-.99,.75-.7,1.52-1.38,2.26-2.09,.65-.63,1.1-1.39,1.24-2.31,.1-.62,.22-1.24,.34-1.86,.09-.47,.09-.9-.32-1.24-.09-.07-.13-.2-.21-.29-.33-.43-.78-.55-1.29-.36-.15,.06-.29,.15-.45,.22-.47,.2-.93,.45-1.41,.58-.74,.2-1.5,.35-2.26,.46-2.36,.33-4.51,1.15-6.48,2.48-1.36,.92-2.78,1.75-4.36,2.25-.51,.16-.88,.5-1.14,.97-.11,.19-.2,.39-.07,.59,.13,.21,.33,.22,.55,.21,1.21-.04,2.41,.08,3.6,.26,1.06,.16,2.1,.41,3.14,.62,1.21,.24,2.42,.51,3.66,.5Zm-14.87-.1c.37-.04,.65-.04,.91-.1,1.04-.22,1.83-.75,2.18-1.81,.24-.72,.06-1.36-.56-1.79-.33-.23-.72-.36-1.07-.56-.22-.12-.45-.25-.62-.43-.64-.69-1.49-.75-2.18-.11-.14,.13-.27,.28-.4,.43-.43,.48-.86,.96-1.3,1.45-.1,.11-.21,.22-.29,.34-.44,.62-.36,1.27,.21,1.77,.32,.28,.7,.48,1.13,.54,.7,.11,1.4,.19,2,.27Z"/><path class="cls-4" d="M6.08,30.45c.26,.08,.51,.15,.76,.25,1.09,.42,2.21,.67,3.36,.84,1.73,.26,3.48,.32,5.22,.26,1.7-.06,3.38-.32,5.02-.78,1.62-.45,3.15-1.12,4.66-1.85,2.35-1.13,4.72-2.22,7.13-3.2,2.13-.87,4.28-1.72,6.4-2.62,2.21-.93,4.37-1.97,6.34-3.37,1.87-1.33,3.43-2.94,4.45-5.02,.26-.54,.48-1.1,.74-1.72,.06,.17,.1,.27,.13,.37,.15,.54,.27,1.08,.44,1.61,.27,.85,.42,1.72,.37,2.62,0,.16-.06,.34-.15,.46-.61,.79-1.21,1.57-1.85,2.33-1,1.19-2.29,2.03-3.58,2.87-1.68,1.09-3.51,1.87-5.36,2.6-.26,.1-.54,.18-.8,.27-.44,.11-.88,.19-1.31,.33-1.3,.44-2.59,.9-3.88,1.35-.5,.17-1,.32-1.5,.51-1.53,.59-3.05,1.21-4.58,1.8-1.17,.45-2.34,.87-3.51,1.31-2.32,.86-4.65,1.68-7.07,2.16-1.15,.23-2.31,.39-3.48,.49-.76,.06-1.53-.03-2.3-.06-1.01-.04-1.9-.42-2.74-.94-.96-.6-1.71-1.42-2.46-2.25-.14-.15-.3-.29-.45-.44h0c0-.06,0-.12,0-.18Zm42.23-10.85c-.14,.08-.29,.15-.42,.25-.36,.27-.7,.57-1.07,.83-.89,.62-1.77,1.26-2.69,1.82-1,.6-2.05,1.15-3.1,1.67-1.04,.52-2.11,.97-3.16,1.46-.09,.04-.17,.13-.34,.26,.21,0,.3,.03,.37,.01,.35-.09,.7-.17,1.04-.29,1.8-.61,3.54-1.34,5.22-2.24,1.32-.7,2.51-1.56,3.49-2.68,.27-.31,.59-.6,.64-1.09Z"/><path class="cls-4" d="M6.08,30.63c.15,.15,.31,.28,.45,.44,.75,.83,1.5,1.65,2.46,2.25,.84,.52,1.74,.91,2.74,.94,.77,.03,1.54,.12,2.3,.06,1.17-.1,2.33-.26,3.48-.49,2.43-.49,4.76-1.3,7.07-2.16,1.17-.43,2.35-.86,3.51-1.31,1.53-.59,3.05-1.21,4.58-1.8,.49-.19,1-.34,1.5-.51,1.29-.45,2.58-.91,3.88-1.35,.42-.14,.87-.22,1.31-.33-.13,.07-.25,.16-.39,.22-2.48,1.03-4.98,2.01-7.37,3.22-1.22,.62-2.44,1.26-3.65,1.9-2,1.05-4.09,1.85-6.27,2.43-1.54,.42-3.09,.8-4.65,1.12-.97,.2-1.97,.24-2.96,.35-.39,.04-.78,.06-1.17,.07-1.65,.05-3.15-.43-4.55-1.27-.13-.08-.26-.16-.39-.23-.57-.32-.98-.8-1.21-1.41-.24-.64-.45-1.28-.67-1.92-.02-.07,0-.15,0-.22Z"/><path class="cls-1" d="M6.08,30.45c0,.06,0,.12,0,.19-.12-.06-.22-.12-.1-.27,.03,.03,.07,.06,.1,.08h0Z"/><path class="cls-5" d="M6.08,30.45s-.07-.06-.1-.08c.03,.03,.07,.06,.1,.08Z"/><path class="cls-6" d="M17.94,19.05c-.48-.03-.96-.07-1.44-.1-1.12-.07-2.19,.17-3.21,.61-1.03,.44-2.04,.91-3.06,1.34-.93,.4-1.88,.74-2.88,.89-.32,.05-.67,.04-.98-.03-.66-.14-.93-.67-.7-1.31,.1-.28,.25-.55,.44-.78,.5-.62,.99-1.26,1.56-1.82,1.02-.99,2.07-1.93,3.14-2.86,1.68-1.46,3.21-3.06,4.5-4.88,.52-.74,1.08-1.45,1.63-2.17,.44-.59,1.01-1.01,1.71-1.2,1.92-.53,3.84-1.04,5.76-1.56,.09-.02,.18-.04,.26-.06,.87-.22,1.51,.25,1.53,1.15,0,.27-.04,.54-.06,.81-.05,.85,.15,1.67,.3,2.5,.11,.58,.18,1.16,.24,1.74,.05,.44-.12,.84-.42,1.16-.35,.37-.73,.72-1.12,1.05-.56,.48-1.14,.95-1.72,1.4-.46,.36-.74,.83-.84,1.4,0,.01,0,.03,0,.04-.05,.99-.65,1.54-1.49,1.92-1,.45-2.01,.84-3.13,.76Zm-11.54,1.78c.32,.16,.56,.12,.79,.07,.37-.08,.74-.15,1.09-.29,1.08-.43,2.14-.89,3.21-1.34,.89-.37,1.77-.77,2.67-1.1,.86-.31,1.77-.41,2.68-.29,1.37,.19,2.67,.01,3.92-.57,.5-.23,.82-.54,.92-1.11,.16-.91,.65-1.64,1.42-2.18,.24-.16,.47-.33,.7-.5,.55-.44,1.11-.88,1.65-1.34,.41-.35,.49-.81,.34-1.32-.06-.2-.12-.4-.18-.61-.24-.87-.43-1.76-.4-2.67,.01-.42,.07-.84,.08-1.26,0-.35-.24-.55-.59-.5-.16,.03-.33,.06-.48,.11-1.8,.56-3.59,1.12-5.39,1.69-.54,.17-1,.48-1.35,.94-.36,.47-.72,.93-1.08,1.39-.84,1.06-1.64,2.16-2.53,3.18-1.52,1.74-3.33,3.19-4.98,4.8-.74,.72-1.43,1.5-2.13,2.27-.14,.16-.22,.38-.35,.6Z"/><path class="cls-6" d="M26.1,22.36c-.31-.02-.63-.03-.94-.06-.28-.02-.58-.03-.85-.1-.53-.15-.8-.68-.56-1.18,.28-.6,.68-1.14,1.21-1.56,.3-.24,.66-.27,1.03-.28,.57,0,1.14-.01,1.71-.05,.51-.03,.97-.23,1.37-.54,.47-.37,1.02-.51,1.6-.54,1.56-.09,3.1,.08,4.63,.41,.98,.21,1.95,.37,2.95,.41,.48,.02,.96,.11,1.43,.19,.39,.06,.77,.15,1.15,.24,.14,.03,.3,.07,.42,.16,.32,.23,.33,.64,.03,.89-.09,.08-.2,.13-.31,.18-1.54,.71-3.1,1.33-4.72,1.81-1.53,.46-3.04,1-4.46,1.72-1.47,.74-3,1.33-4.55,1.88-1.32,.46-2.61,1.03-3.9,1.57-.37,.16-.71,.39-1.07,.58-.24,.13-.47,.27-.73,.35-.21,.07-.45,.07-.63-.13-.18-.2-.19-.44-.09-.68,.05-.12,.12-.24,.19-.36,.29-.46,.65-.87,1.09-1.2,.59-.45,1.17-.9,1.77-1.34,.47-.34,.87-.74,1.1-1.29,.22-.52,.65-.81,1.18-.98,0-.03-.02-.07-.03-.1Zm-.98,2.59c.46-.2,.86-.38,1.27-.55,.4-.17,.81-.33,1.21-.5,.42-.17,.84-.35,1.26-.5,.4-.15,.77-.38,1.21-.43-1.89,.95-3.71,2-5.44,3.2,.13,0,.24-.05,.35-.09,.61-.26,1.22-.53,1.83-.79,1.15-.49,2.33-.93,3.45-1.49,2.09-1.06,4.24-1.96,6.5-2.59,.84-.24,1.66-.54,2.49-.82,.16-.05,.33-.11,.46-.31-.62-.09-1.2-.17-1.78-.26-1.37-.22-2.7-.61-4.09-.73-.9-.08-1.8-.2-2.71-.12-.66,.06-1.31,.14-1.88,.55-.23,.16-.52,.24-.79,.33-.81,.27-1.65,.33-2.5,.36-.2,0-.45,.01-.6,.12-.32,.24-.51,.61-.66,1,.08,.04,.12,.06,.16,.07,.33,.03,.66,.05,.99,.08,.31,.03,.64,.03,.94,.12,.72,.21,.86,.88,.31,1.39-.21,.19-.48,.31-.71,.48-.17,.12-.36,.23-.49,.39-.27,.34-.5,.71-.79,1.12Z"/><path class="cls-6" d="M14.11,29.91c-1.8,0-3.19-.27-4.55-.69-1.09-.33-1.95-1-2.68-1.85-.49-.58-.96-1.17-1.21-1.9-.18-.53-.22-1.06-.07-1.6,.15-.51,.46-.84,1-.91,.21-.03,.42-.05,.63-.04,1.47,.08,2.8-.35,4.05-1.07,.56-.32,1.11-.67,1.66-1.02,.97-.6,2-1.06,3.15-1.15,.54-.04,1.09-.05,1.63-.03,1.04,.03,2.04-.16,3.04-.39,.68-.15,1.23-.55,1.8-.92,.27-.18,.53-.26,.85-.11,.52,.24,.7,.62,.45,1.13-.18,.38-.44,.71-.68,1.06-.13,.19-.29,.35-.41,.54-.21,.34-.2,.69,.02,1.02,.13,.19,.28,.36,.41,.54,.56,.75,.46,1.41-.34,1.91-.41,.25-.86,.43-1.29,.65-.31,.16-.62,.3-.92,.48-.39,.24-.63,.6-.73,1.04-.02,.09-.05,.17-.06,.26-.09,.83-.55,1.41-1.23,1.85-.82,.52-1.72,.8-2.66,.96-.74,.12-1.49,.17-1.87,.22Zm8.94-10.94c-.27,.14-.45,.23-.62,.33-.27,.16-.52,.37-.8,.5-.77,.36-1.58,.59-2.41,.76-.82,.16-1.65,.18-2.48,.17-1.2-.02-2.29,.28-3.28,.98-.37,.26-.75,.5-1.14,.73-1.03,.61-2.12,1.07-3.3,1.33-.7,.15-1.41,.13-2.12,.13-.45,0-.6,.14-.62,.58,0,.16,.02,.33,.05,.49,.12,.6,.49,1.06,.88,1.51,.62,.72,1.31,1.34,2.23,1.65,1.18,.4,2.39,.65,3.63,.68,.77,.02,1.54-.02,2.3-.1,.86-.09,1.69-.3,2.47-.69,.59-.3,.97-.72,1.04-1.42,.05-.51,.3-.94,.66-1.31,.41-.42,.93-.66,1.45-.91,.46-.22,.93-.44,1.38-.69,.3-.17,.31-.3,.1-.58-.17-.23-.36-.45-.51-.69-.39-.64-.4-1.29,.02-1.91,.17-.25,.38-.46,.58-.69,.19-.22,.39-.44,.5-.85Z"/><path class="cls-6" d="M29.56,4.27c.53,.1,1.01,.16,1.47,.28,1.29,.32,2.59,.37,3.91,.34,1.34-.03,2.68-.09,4.02-.06,1.49,.03,2.93,.32,4.27,1.02,.87,.45,1.74,.9,2.61,1.36,.21,.11,.42,.24,.62,.38,.69,.5,.64,1.08-.15,1.43-.33,.15-.68,.26-1.03,.33-.99,.21-1.98,.38-2.97,.59-1.7,.36-3.3,1.03-4.89,1.71-1.79,.77-3.54,1.61-5.19,2.64-1.02,.64-1.98,.71-2.98,.02-.33-.23-.71-.4-1.05-.62-.23-.15-.44-.32-.65-.49-.44-.37-.53-.85-.41-1.39,.08-.34,.16-.67,.24-1.01,.18-.77,.02-1.52-.14-2.28-.13-.62-.32-1.22-.29-1.87,.04-.8,.27-1.48,1.11-1.8,.21-.08,.39-.23,.6-.31,.31-.11,.63-.18,.91-.26Zm16.34,4.08s0-.09,.01-.13c-.15-.08-.3-.18-.46-.25-.83-.39-1.69-.74-2.5-1.16-1.63-.84-3.36-1.13-5.16-1.08-.78,.02-1.57,.06-2.35,.08-1.27,.03-2.53,.06-3.79-.18-.52-.1-1.03-.2-1.55-.33-.77-.18-1.39,.08-1.94,.6-.27,.26-.41,.59-.33,.99,.09,.43,.17,.85,.25,1.28,.1,.56,.21,1.12,.27,1.69,.07,.71-.1,1.41-.28,2.09-.11,.41-.08,.48,.25,.72,.11,.08,.23,.15,.35,.21,.54,.27,1.08,.53,1.63,.79,.36,.17,.73,.18,1.1,.02,.36-.16,.71-.33,1.05-.52,1.52-.84,3.07-1.62,4.66-2.3,2.2-.94,4.43-1.74,6.8-2.11,.67-.1,1.32-.27,1.98-.41Z"/><path class="cls-6" d="M41.34,18.67c-1.24,0-2.45-.26-3.66-.5-1.05-.21-2.09-.47-3.14-.62-1.19-.18-2.39-.29-3.6-.26-.22,0-.43,0-.55-.21-.13-.21-.04-.4,.07-.59,.26-.47,.63-.81,1.14-.97,1.58-.5,3-1.32,4.36-2.25,1.97-1.33,4.12-2.16,6.48-2.48,.76-.11,1.52-.26,2.26-.46,.49-.13,.94-.38,1.41-.58,.15-.07,.29-.16,.45-.22,.51-.19,.95-.07,1.29,.36,.07,.09,.12,.22,.21,.29,.41,.34,.41,.78,.32,1.24-.12,.62-.24,1.24-.34,1.86-.14,.92-.58,1.68-1.24,2.31-.74,.71-1.51,1.39-2.26,2.09-.79,.74-1.75,.96-2.78,.99-.14,0-.27,0-.41,0Zm-7.93-2.98s.02,.04,.03,.06c.32-.02,.64-.08,.94-.05,.81,.09,1.61,.2,2.41,.34,.64,.11,1.26,.28,1.89,.43,.15,.03,.32,.06,.4,.29-.94-.04-1.84-.08-2.75-.11-.89-.03-1.77-.11-2.66,.02,.08,.05,.16,.06,.25,.07,.48,.05,.96,.06,1.44,.14,1.17,.2,2.34,.43,3.51,.64,1.04,.19,2.08,.36,3.14,.3,.69-.04,1.35-.16,1.87-.67,.8-.78,1.61-1.55,2.41-2.32,.12-.12,.24-.23,.35-.35,.32-.34,.51-.75,.55-1.21,.06-.77,.09-1.53,.11-2.3,.01-.49-.24-.63-.69-.45-.66,.26-1.31,.54-1.99,.72-.9,.23-1.83,.37-2.74,.55-1.6,.3-3.13,.76-4.52,1.63-.88,.55-1.79,1.06-2.69,1.58-.41,.24-.83,.47-1.25,.7Z"/><path class="cls-6" d="M26.47,18.58c-.6-.08-1.3-.16-2-.27-.42-.07-.8-.26-1.13-.54-.57-.5-.65-1.15-.21-1.77,.09-.12,.19-.23,.29-.34,.43-.48,.86-.97,1.3-1.45,.13-.15,.26-.3,.4-.43,.7-.64,1.54-.58,2.18,.11,.17,.18,.4,.31,.62,.43,.35,.2,.75,.33,1.07,.56,.62,.43,.81,1.08,.56,1.79-.35,1.05-1.15,1.59-2.18,1.81-.26,.06-.54,.06-.91,.1Zm.17-.76s0-.03,0-.05c.12,0,.24,0,.36,0,.93-.02,1.45-.45,1.67-1.35,.09-.38,0-.66-.34-.85-.23-.13-.48-.24-.74-.34-.43-.16-.83-.38-1.12-.73-.14-.16-.3-.22-.48-.17-.2,.05-.43,.12-.55,.26-.53,.61-1.05,1.24-1.54,1.89-.2,.26-.16,.47,.11,.66,.25,.18,.54,.34,.84,.41,.58,.13,1.18,.18,1.78,.27Z"/><path class="cls-3" d="M48.31,19.6c-.05,.49-.37,.78-.64,1.09-.99,1.12-2.18,1.98-3.49,2.68-1.68,.89-3.42,1.62-5.22,2.24-.34,.12-.69,.2-1.04,.29-.08,.02-.17,0-.37-.01,.17-.13,.25-.22,.34-.26,1.05-.49,2.12-.94,3.16-1.46,1.05-.52,2.09-1.07,3.1-1.67,.93-.56,1.8-1.2,2.69-1.82,.37-.26,.71-.56,1.07-.83,.13-.1,.28-.17,.42-.25Z"/><path class="cls-1" d="M6.4,20.83c.13-.22,.21-.44,.35-.6,.7-.77,1.39-1.55,2.13-2.27,1.65-1.61,3.46-3.06,4.98-4.8,.89-1.02,1.69-2.12,2.53-3.18,.36-.46,.72-.93,1.08-1.39,.35-.46,.81-.77,1.35-.94,1.79-.57,3.59-1.13,5.39-1.69,.16-.05,.32-.09,.48-.11,.34-.05,.59,.15,.59,.5,0,.42-.07,.84-.08,1.26-.03,.91,.15,1.8,.4,2.67,.06,.2,.12,.4,.18,.61,.15,.51,.07,.97-.34,1.32-.54,.46-1.09,.9-1.65,1.34-.22,.18-.46,.34-.7,.5-.77,.54-1.26,1.26-1.42,2.18-.1,.58-.42,.88-.92,1.11-1.26,.58-2.55,.76-3.92,.57-.9-.13-1.82-.02-2.68,.29-.91,.32-1.78,.73-2.67,1.1-1.07,.45-2.13,.91-3.21,1.34-.35,.14-.72,.21-1.09,.29-.23,.05-.47,.09-.79-.07Z"/><path class="cls-1" d="M25.12,24.94c.29-.41,.52-.78,.79-1.12,.13-.16,.32-.27,.49-.39,.23-.16,.5-.29,.71-.48,.56-.5,.41-1.18-.31-1.39-.3-.09-.62-.09-.94-.12-.33-.03-.66-.05-.99-.08-.04,0-.08-.03-.16-.07,.15-.39,.33-.75,.66-1,.15-.11,.4-.12,.6-.12,.85-.03,1.69-.08,2.5-.36,.27-.09,.56-.17,.79-.33,.57-.41,1.22-.5,1.88-.55,.91-.08,1.8,.04,2.71,.12,1.39,.13,2.72,.51,4.09,.73,.57,.09,1.15,.17,1.78,.26-.13,.2-.3,.25-.46,.31-.83,.28-1.65,.59-2.49,.82-2.26,.63-4.41,1.54-6.5,2.59-1.11,.56-2.3,.99-3.45,1.49-.61,.26-1.22,.53-1.83,.79-.11,.05-.22,.09-.35,.09"/><path class="cls-1" d="M23.04,18.98c-.1,.41-.3,.63-.5,.85-.2,.23-.42,.44-.58,.69-.42,.63-.41,1.28-.02,1.91,.15,.24,.34,.46,.51,.69,.21,.29,.2,.41-.1,.58-.45,.25-.91,.46-1.38,.69-.52,.25-1.04,.49-1.45,.91-.36,.37-.61,.8-.66,1.31-.07,.7-.45,1.12-1.04,1.42-.78,.4-1.61,.6-2.47,.69-.76,.08-1.53,.11-2.3,.1-1.24-.03-2.45-.27-3.63-.68-.91-.31-1.61-.94-2.23-1.65-.38-.45-.76-.9-.88-1.51-.03-.16-.06-.33-.05-.49,.02-.44,.17-.58,.62-.58,.71,0,1.42,.02,2.12-.13,1.18-.26,2.27-.72,3.3-1.33,.39-.23,.77-.47,1.14-.73,.98-.7,2.08-1,3.28-.98,.83,.02,1.66,0,2.48-.17,.83-.16,1.64-.39,2.41-.76,.28-.13,.53-.34,.8-.5,.17-.1,.36-.19,.62-.33Z"/><path class="cls-1" d="M45.9,8.34c-.66,.14-1.32,.31-1.98,.41-2.37,.37-4.61,1.17-6.8,2.11-1.6,.68-3.14,1.46-4.66,2.3-.34,.19-.7,.36-1.05,.52-.36,.16-.73,.16-1.1-.02-.54-.26-1.09-.52-1.63-.79-.12-.06-.24-.13-.35-.21-.33-.24-.36-.31-.25-.72,.18-.69,.35-1.38,.28-2.09-.06-.57-.17-1.13-.27-1.69-.07-.43-.16-.86-.25-1.28-.08-.39,.06-.72,.33-.99,.54-.52,1.17-.78,1.94-.6,.51,.12,1.03,.23,1.55,.33,1.25,.24,2.52,.21,3.79,.18,.78-.02,1.57-.06,2.35-.08,1.81-.05,3.54,.25,5.16,1.08,.82,.42,1.67,.77,2.5,1.16,.16,.07,.31,.17,.46,.25,0,.04,0,.09-.01,.13Z"/><path class="cls-1" d="M33.41,15.69c.42-.23,.84-.46,1.25-.7,.9-.52,1.81-1.03,2.69-1.58,1.39-.87,2.93-1.33,4.52-1.63,.92-.17,1.84-.31,2.74-.55,.68-.17,1.34-.46,1.99-.72,.46-.18,.71-.04,.69,.45-.02,.77-.05,1.54-.11,2.3-.03,.46-.23,.87-.55,1.21-.11,.12-.23,.24-.35,.35-.8,.77-1.61,1.54-2.41,2.32-.52,.51-1.18,.63-1.87,.67-1.06,.06-2.1-.11-3.14-.3-1.17-.21-2.34-.44-3.51-.64-.47-.08-.96-.09-1.44-.14-.08,0-.16-.02-.25-.07-1.64,0-.27-.98-.27-.98Z"/><path class="cls-1" d="M26.65,17.81c-.59-.08-1.19-.14-1.78-.27-.3-.06-.59-.23-.84-.41-.27-.19-.31-.4-.11-.66,.49-.64,1-1.27,1.54-1.89,.12-.14,.36-.21,.55-.26,.18-.05,.34,0,.48,.17,.3,.35,.69,.57,1.12,.73,.25,.09,.5,.2,.74,.34,.33,.19,.43,.47,.34,.85-.21,.9-.74,1.33-1.67,1.35-.12,0-.24,0-.36,0,0,.02,0,.03,0,.05Zm-1.74-1.27l-.08,.06c.09,.11,.16,.24,.27,.33,.77,.62,1.94,.62,2.72,.01,.09-.07,.19-.16,.24-.26,.08-.15,.21-.34,.02-.49-.15-.13-.31-.02-.45,.07-.06,.04-.13,.08-.19,.12-.51,.3-1.05,.45-1.64,.38-.31-.03-.6-.14-.9-.22Z"/><path class="cls-3" d="M13.15,16.59s-.03,.02-.04,.04c.01-.01,.02-.03,.03-.04,0,0,0,0,0,0Z"/><path class="cls-6" d="M24.91,16.54c.3,.07,.6,.18,.9,.22,.58,.06,1.13-.08,1.64-.38,.06-.04,.13-.08,.19-.12,.14-.09,.3-.2,.45-.07,.18,.16,.05,.34-.02,.49-.05,.1-.15,.19-.24,.26-.78,.61-1.95,.61-2.72-.01-.11-.09-.18-.22-.27-.33l.08-.06Z"/></g></g></g></svg>