<?xml version="1.0" encoding="UTF-8"?><svg id="Layer_2" xmlns="http://www.w3.org/2000/svg" viewBox="0 0 39.51 44.51"><defs><style>.cls-1,.cls-2{fill:#fff;}.cls-3,.cls-4{fill:#66241c;}.cls-5{fill:#dd9b18;}.cls-5,.cls-4,.cls-6,.cls-2,.cls-7,.cls-8{fill-rule:evenodd;}.cls-6{fill:#e5bf6e;}.cls-7{fill:#f3d740;}.cls-8{fill:#f4e4a8;}</style></defs><g id="welcome_to_amazing_english"><g><path class="cls-1" d="M38.71,25.23c-.56-1.5-1.41-2.81-2.44-3.78-.62-.58-1.29-1.03-2-1.37,1.1-4.18,1.41-8.35,.89-12.16-.39-2.87-1.59-5.22-3.39-6.61C30.77,.53,29.61,.09,28.42,.01c-1.24-.08-2.46,.25-3.54,.95-1.23,.8-2.84,2.45-3.57,5.8-.01,.04-.02,.09-.03,.13-.42,2.28-.98,4.47-1.65,6.52-1.13-.47-2.39-.7-3.69-.66-1.62,.05-3.3,.5-4.86,1.32-3,1.56-5.22,4.22-5.93,7.1-.37,1.49-.4,2.74-.09,3.72,.29,.94,.88,1.68,1.7,2.12,.79,.43,1.7,.54,2.61,.3,.9-.23,1.78-.8,2.55-1.64,.12-.13,.23-.25,.34-.34,.32-.29,.79-.63,1.28-.67-1.25,1.45-2.63,2.88-4.14,4.27-2.34,2.16-4.96,4.22-7.57,5.95l-.23,.15c-.21,.14-.38,.32-.51,.53l-.14,.23c-.12,.2-.21,.36-.27,.48-.75,1.48-.88,3.02-.39,4.44,.44,1.28,1.37,2.38,2.68,3.17l.03,.02c.08,.05,.16,.1,.24,.14,.09,.05,.17,.1,.24,.13l.23,.12c.21,.11,.45,.17,.69,.18h.27c.57,.03,1.13,.04,1.67,.04,4.4,0,8.2-.74,11.51-2.23,.09,.16,.18,.31,.29,.45,.82,1.12,2.01,1.71,3.45,1.71h0c.84,0,1.74-.22,2.67-.65,1.09-.51,2.23-1.33,2.97-2.15,1.32-1.46,2.56-3.54,3.48-5.84,.04-.1,.08-.21,.12-.31,.1,.42,.25,.84,.49,1.23,.47,.78,1.17,1.3,2.01,1.5,.88,.21,1.78,.04,2.61-.48,.87-.55,1.64-1.5,2.37-2.91,1.42-2.76,1.57-6.44,.39-9.6Z"/><g><path class="cls-3" d="M25.52,23.91c2.23-1.96,4.28-2.66,6.05-2.51,1.28,.11,2.39,.66,3.29,1.51,.86,.81,1.54,1.89,1.99,3.1,.95,2.54,.94,5.69-.3,8.1-.61,1.18-1.21,1.88-1.74,2.22-.46,.29-.9,.36-1.31,.26-.4-.1-.72-.35-.94-.72-.28-.46-.42-1.14-.4-1.91,.01-.41-.01-.79-.06-1.14-.13-.87-.45-1.53-.95-1.96-.5-.44-1.19-.68-2.05-.7-.34,0-.7,.02-1.09,.07l-.78,.12-2.39-5.83,.69-.61h0Zm5.66-.19c-1.02-.09-2.24,.3-3.62,1.34l1.14,2.77c.23-.01,.45-.02,.66-.01,1.34,.04,2.46,.44,3.31,1.18,.86,.76,1.41,1.84,1.62,3.24,.06,.41,.09,.85,.09,1.31,.07-.12,.14-.26,.22-.42,.91-1.76,.89-4.15,.16-6.11-.34-.92-.84-1.73-1.47-2.32-.59-.56-1.3-.92-2.11-.99h0Z"/><path class="cls-7" d="M26.19,24.77c7.65-6.72,12.19,3.41,9.38,8.85-1.46,2.83-2.36,1.97-2.31,.25,.09-3.61-1.94-5.31-5.31-4.81-.59-1.43-1.18-2.87-1.77-4.3h0Z"/><path class="cls-5" d="M26.19,24.77c1.32-1.16,2.55-1.82,3.67-2.09,1.68,.61,3.19,1.58,4.28,2.99,2.54,3.27,.46,8.45-.53,9.64-.24-.25-.36-.78-.34-1.43,.09-3.61-1.94-5.31-5.31-4.81-.59-1.43-1.18-2.87-1.77-4.3h0Z"/><path class="cls-3" d="M21.01,21.55c-.45-1.79-1.25-2.95-2.21-3.61-.78-.54-1.71-.75-2.66-.73-1,.03-2.05,.34-3.02,.84-1.82,.95-3.32,2.57-3.76,4.35-.05,.21-.09,.39-.12,.55,.14-.15,.29-.29,.45-.43,1.32-1.2,2.75-1.76,4.22-1.71,1.44,.04,2.85,.68,4.16,1.87l.08,.07,2.87-1.2h0Zm-.86-5.6c1.63,1.12,2.91,3.08,3.42,6.13l.16,.94-6.19,2.58-.57-.63c-.16-.18-.34-.36-.53-.53-.87-.8-1.76-1.22-2.62-1.25-.83-.03-1.69,.33-2.52,1.09-.14,.13-.29,.28-.44,.45-.53,.58-1.13,.99-1.7,1.13-.48,.12-.94,.08-1.37-.15-.41-.22-.72-.59-.89-1.13-.19-.61-.19-1.52,.12-2.77,.61-2.47,2.6-4.66,4.99-5.91,1.27-.66,2.67-1.06,4.06-1.11,1.44-.04,2.85,.3,4.08,1.14h0Z"/><path class="cls-7" d="M22.38,22.28c-1.73-10.31-12.73-6.11-14.19-.16-.76,3.09,.61,3.1,1.78,1.82,2.47-2.7,5.39-2.5,7.88,.24,1.51-.63,3.02-1.26,4.53-1.89h0Z"/><path class="cls-5" d="M13,17.34c-2.24,.98-4.27,2.6-4.81,4.77-.76,3.09,.61,3.1,1.78,1.82,1.59-1.74,3.36-2.27,5.08-1.71-2.11-1.41-1.97-3.04-1.36-3.82,.81-1.03,1.32-1.93-.69-1.06h0Z"/><path class="cls-3" d="M22.89,7.68c.5-2.34,1.55-3.9,2.8-4.71,.78-.51,1.63-.73,2.48-.67,.83,.05,1.65,.37,2.39,.93,1.31,1.01,2.36,2.84,2.7,5.41,.8,5.96-.6,12.53-3.46,18.27-2.88,5.77-7.25,10.73-12.38,13.44-1.91,1.01-4.37,.92-6.37,.13-.97-.38-1.84-.93-2.51-1.6-.73-.72-1.23-1.6-1.39-2.58h0c-.19-1.18,.13-2.44,1.16-3.68l.08-.1,.11-.08c3.66-2.85,6.73-6.15,9.14-10.17,2.41-4.02,4.18-8.78,5.25-14.56v-.03h0Zm4.11-2.7c-.74,.48-1.4,1.52-1.75,3.18h0c-1.12,6.06-3,11.08-5.56,15.36-2.55,4.24-5.76,7.72-9.6,10.73-.49,.62-.65,1.18-.57,1.67h0c.07,.44,.33,.87,.72,1.25,.44,.44,1.04,.81,1.71,1.08,1.41,.56,3.1,.65,4.36-.01,4.67-2.47,8.69-7.05,11.35-12.4,2.66-5.34,3.97-11.4,3.23-16.87-.25-1.89-.95-3.18-1.79-3.83-.35-.27-.72-.42-1.08-.44-.34-.02-.69,.07-1.02,.29h0Z"/><path class="cls-8" d="M24.06,7.93c1.38-6.45,7.13-5.64,8.01,.87,1.54,11.45-5.43,25.32-15.21,30.49-4.01,2.12-11.12-1.71-7.63-5.9,7.55-5.88,12.64-13.61,14.83-25.45h0Z"/><path class="cls-2" d="M24.06,7.93c.71-3.32,2.57-4.71,4.34-4.4-4.58,1.5-2.8,8.31-7.57,15.17h0c1.4-3.17,2.49-6.73,3.24-10.76h0Z"/><path class="cls-6" d="M29.72,7.47c.28,6.47-1.18,14.45-6.96,15.47-4.99,.88-1.2,10.95-5.39,15.02,5.1-2.94,9-7.72,11.33-13.17,2.03-4.75,3.83-12.79,1.95-17.79-.69-1.83-.99-.84-.93,.48h0Z"/><path class="cls-3" d="M3.06,36.27c2.44-1.62,5.1-3.65,7.65-6.01,2.19-2.03,4.3-4.28,6.1-6.68l.24-.31,.38-.11c2.15-.65,4.21-.71,6.18-.14,1.95,.56,3.78,1.74,5.47,3.55l.58,.63-.4,.75c-2.61,4.98-5.54,8.77-9.4,11.28-3.88,2.52-8.63,3.71-14.85,3.46h-.27s-.23-.13-.23-.13c-.11-.05-.24-.13-.4-.22-.94-.56-1.61-1.33-1.92-2.24-.32-.94-.26-1.99,.3-3.09,.05-.09,.11-.21,.21-.37l.14-.23,.23-.15h0Zm9.28-4.24c-2.54,2.35-5.21,4.41-7.71,6.07-.24,.47-.28,.89-.17,1.22,.13,.36,.44,.7,.89,.97h.02c5.56,.2,9.77-.86,13.17-3.07,3.27-2.13,5.85-5.37,8.17-9.62-1.21-1.15-2.48-1.91-3.79-2.29-1.4-.4-2.89-.39-4.45,.03-1.85,2.42-3.96,4.67-6.14,6.69h0Z"/><path class="cls-7" d="M3.72,37.27c4.66-3.08,10.04-7.62,14.04-12.97,3.85-1.16,7.34-.23,10.43,3.09-5.04,9.62-11.22,14.58-23.14,14.1-1.71-.86-2.43-2.41-1.34-4.22h0Z"/><path class="cls-5" d="M16.78,25.57c.34-.42,.67-.84,.99-1.27,3.85-1.16,7.34-.23,10.43,3.09-3.59,6.86-7.77,11.35-14.18,13.19,3.82-4.78,6.43-13.52,2.76-15h0Z"/><path class="cls-3" d="M27.47,25.08c.28,.22,.55,.46,.81,.7,.27,.25,.53,.52,.79,.79l.58,.63-.4,.75c-2.61,4.98-5.54,8.77-9.4,11.28-3.88,2.52-8.63,3.71-14.85,3.46h-.27s-.23-.13-.23-.13c-.35-.18-.66-.44-.91-.72-.27-.31-.47-.68-.57-1.03l-.31-1.05,2.88-1.13,.13-.02c3.95-.55,7.48-2.02,10.63-4.1,3.61-2.39,6.72-5.61,9.38-9.21l.74-1.01,.97,.78h0Zm-8.92,12.15c2.92-1.9,5.29-4.68,7.41-8.29-2.41,2.91-5.15,5.51-8.26,7.57-2.37,1.57-4.94,2.82-7.73,3.64,3.39-.38,6.19-1.36,8.58-2.92h0Z"/><path class="cls-5" d="M26.72,26.01c.5,.4,.99,.86,1.47,1.38-5.04,9.62-11.22,14.58-23.14,14.1-.42-.21-.76-.65-.87-1.02l1.72-.67c8.83-1.24,15.68-6.84,20.81-13.78h0Z"/><path class="cls-3" d="M20.91,24.18c1,.65,1.66,1.49,2.06,2.47,.6,1.44,.6,3.1,.33,4.81-.25,1.54-.7,3.08-1.12,4.5-.52,1.74-.97,3.29-.82,4.01h0c.03,.13,.06,.21,.1,.27,.01,.02,.06,.02,.13,.02,.26,0,.58-.1,.92-.26,.65-.3,1.26-.76,1.61-1.15,1.04-1.15,1.98-2.83,2.66-4.54,.7-1.76,1.12-3.52,1.07-4.73-.08-1.93-.79-3.5-1.84-4.53-.47-.46-1-.81-1.56-1.04-.55-.23-1.14-.33-1.74-.31-.6,.02-1.21,.18-1.81,.49h0Zm-.15,3.39c-.36-.87-1.13-1.58-2.52-1.97l-1.95-.56,1.42-1.44c1.5-1.52,3.22-2.24,4.9-2.31,.95-.04,1.88,.13,2.74,.48,.86,.35,1.65,.87,2.34,1.55,1.45,1.44,2.45,3.56,2.55,6.14,.06,1.55-.42,3.68-1.24,5.73-.78,1.95-1.87,3.88-3.11,5.25-.53,.59-1.44,1.28-2.38,1.72-.63,.29-1.3,.48-1.93,.48-.82,0-1.54-.29-2.06-1-.23-.32-.41-.72-.51-1.2h0c-.27-1.31,.27-3.12,.88-5.18,.4-1.35,.84-2.83,1.05-4.19,.21-1.31,.23-2.54-.17-3.5h0Z"/><path class="cls-7" d="M18.57,24.45c3.59,1.02,4.03,3.81,3.55,6.82-.55,3.44-2.3,7.18-1.94,8.94,.52,2.5,3.71,.68,4.82-.56,2.32-2.57,4.15-7.42,4.04-10.13-.25-6.21-6.28-9.33-10.48-5.07h0Z"/><path class="cls-5" d="M23.03,31.6c-.57,3.1-2.69,6.76-2.32,8.51,.52,2.5,3.18,.77,4.3-.46,1.98-2.19,3.6-6.03,3.97-8.79-1.37,2.01-3.56,1.52-4.4,.23-1.34-2.08-1.12-1.81-1.54,.51h0Z"/><path class="cls-4" d="M3.83,36.87c-1.01,.94-1.09,4.27,.41,5.54,.9-.54,1.62-1.8,1.86-2.84-.18-1.16-1.59-2.05-2.27-2.7h0Z"/><path class="cls-2" d="M13.23,30.71c-1.13,1.22-2.32,2.26-3.78,3.26-.52,.36-.6,.52-.5,.68,.19,.32,2.23-.78,2.56-.97,.98-.57,1.93-1.29,2.84-2.06,.65-.55,.92-1.15,.47-1.54-.29-.24-.82-.21-1.59,.62h0Z"/></g></g></g></svg>