<svg width="55" height="58" viewBox="0 0 55 58" fill="none" xmlns="http://www.w3.org/2000/svg">
<path fill-rule="evenodd" clip-rule="evenodd" d="M1.22 0.960022H53.79C54.25 0.960022 54.63 1.33999 54.63 1.79999V55.44C54.63 55.9 54.25 56.28 53.79 56.28H1.22C0.760001 56.28 0.380005 55.9 0.380005 55.44V1.79999C0.380005 1.33999 0.760001 0.960022 1.22 0.960022Z" fill="#B6CAD5"/>
<path d="M4.54001 14.47H50.47C50.79 14.47 51.08 14.6 51.28 14.8C51.5 15.02 51.63 15.31 51.63 15.62V51.27C51.63 51.59 51.5 51.88 51.28 52.09C51.08 52.29 50.79 52.42 50.47 52.42H4.54001C4.22001 52.42 3.93001 52.29 3.73001 52.09C3.51001 51.87 3.38 51.58 3.38 51.27V15.62C3.38 15.3 3.51001 15.01 3.73001 14.8C3.93001 14.6 4.22001 14.47 4.54001 14.47Z" fill="#ABC2CF"/>
<path fill-rule="evenodd" clip-rule="evenodd" d="M54.63 54.28V55.44C54.63 55.9 54.25 56.28 53.79 56.28H1.22C0.760001 56.28 0.380005 55.9 0.380005 55.44V54.28H54.62H54.63Z" fill="#6B777E"/>
<path fill-rule="evenodd" clip-rule="evenodd" d="M1.22 0.960022H53.79C54.25 0.960022 54.63 1.33999 54.63 1.79999V11.99H0.390015V1.79999C0.390015 1.33999 0.770011 0.960022 1.23001 0.960022H1.22Z" fill="#40484C"/>
<path fill-rule="evenodd" clip-rule="evenodd" d="M36.77 3.82001H51.32C51.41 3.82001 51.49 3.90999 51.49 3.98999V8.96002C51.49 9.06002 51.4 9.15002 51.32 9.15002H36.77C36.67 9.15002 36.58 9.06002 36.58 8.96002V3.98999C36.58 3.89999 36.67 3.82001 36.77 3.82001Z" fill="#30302F"/>
<path d="M50.7701 4.53998H37.3V8.41998H50.7701V4.53998Z" fill="#80D7DE"/>
<path fill-rule="evenodd" clip-rule="evenodd" d="M40.35 4.53998H41.91L40.31 8.41998H38.75L40.35 4.53998ZM44.85 4.53998H45.64L44.04 8.41998H43.25L44.85 4.53998ZM48.75 4.53998H49.36L47.76 8.41998H47.15L48.75 4.53998Z" fill="#A4E2EA"/>
<path d="M53.53 56.27H1.47998V57.18H53.53V56.27Z" fill="#40484C"/>
<path fill-rule="evenodd" clip-rule="evenodd" d="M8.04001 16.12C9.18001 16.12 10.09 17.04 10.09 18.17C10.09 19.3 9.18001 20.22 8.04001 20.22C6.90001 20.22 5.98999 19.31 5.98999 18.17C5.98999 17.03 6.91001 16.12 8.04001 16.12ZM46.98 16.12C48.11 16.12 49.03 17.04 49.03 18.17C49.03 19.3 48.11 20.22 46.98 20.22C45.85 20.22 44.93 19.31 44.93 18.17C44.93 17.03 45.84 16.12 46.98 16.12Z" fill="#6B777E"/>
<path fill-rule="evenodd" clip-rule="evenodd" d="M7.98007 17.51H47.0301C47.3901 17.51 47.6901 17.81 47.6901 18.17C47.6901 18.55 47.3901 18.85 47.0301 18.85H7.98007C7.62007 18.85 7.32007 18.55 7.32007 18.17C7.32007 17.81 7.62007 17.51 7.98007 17.51Z" fill="#92A2AB"/>
<path fill-rule="evenodd" clip-rule="evenodd" d="M6.84003 22.43H48.18C48.48 22.43 48.74 22.68 48.74 22.98V50.31C48.74 50.63 48.48 50.87 48.18 50.87H6.84003C6.54003 50.87 6.28003 50.62 6.28003 50.31V22.98C6.28003 22.68 6.54003 22.43 6.84003 22.43Z" fill="#40484C"/>
<path fill-rule="evenodd" clip-rule="evenodd" d="M9.64005 23.64H45.37C45.63 23.64 45.85 23.86 45.85 24.13V47.75C45.85 48.01 45.63 48.23 45.37 48.23H9.64005C9.38005 48.23 9.16003 48.01 9.16003 47.75V24.13C9.16003 23.86 9.38005 23.64 9.64005 23.64Z" fill="#80D7DE"/>
<path fill-rule="evenodd" clip-rule="evenodd" d="M7.39005 3.62C9.24005 3.62 10.73 5.12002 10.73 6.96002C10.73 8.80002 9.24005 10.31 7.39005 10.31C5.54005 10.31 4.04004 8.81002 4.04004 6.96002C4.04004 5.11002 5.54005 3.62 7.39005 3.62Z" fill="#30302F"/>
<path fill-rule="evenodd" clip-rule="evenodd" d="M9.44998 4.34005C10.37 5.24005 10.61 6.68 9.93997 7.85C9.14997 9.24 7.37997 9.70005 5.99997 8.90005C4.62997 8.11005 4.14998 6.34 4.94998 4.97C5.62998 3.8 6.99996 3.28004 8.23996 3.64004L8.63998 2.93002C8.67998 2.84002 8.79998 2.81002 8.88998 2.87002L9.78998 3.38003C9.87998 3.44003 9.90995 3.55004 9.85995 3.64004L9.45996 4.33004L9.44998 4.34005Z" fill="#6B777E"/>
<path fill-rule="evenodd" clip-rule="evenodd" d="M8.23997 5.03C9.00997 5.46 9.26999 6.43999 8.81999 7.20999C8.38999 7.95999 7.41998 8.21995 6.64998 7.78995C5.87998 7.33995 5.61999 6.37996 6.06999 5.60996C6.49999 4.85996 7.46997 4.6 8.23997 5.03Z" fill="#92A2AB"/>
<path fill-rule="evenodd" clip-rule="evenodd" d="M18.5499 3.62C20.3999 3.62 21.89 5.12002 21.89 6.96002C21.89 8.80002 20.3999 10.31 18.5499 10.31C16.6999 10.31 15.2 8.81002 15.2 6.96002C15.2 5.11002 16.6999 3.62 18.5499 3.62Z" fill="#30302F"/>
<path fill-rule="evenodd" clip-rule="evenodd" d="M20.61 4.34005C21.53 5.24005 21.78 6.68 21.1 7.85C20.31 9.24 18.54 9.70005 17.16 8.90005C15.79 8.11005 15.31 6.34 16.11 4.97C16.79 3.8 18.16 3.28004 19.4 3.64004C19.53 3.41004 19.67 3.18002 19.8 2.93002C19.86 2.84002 19.96 2.81002 20.05 2.87002C20.35 3.04002 20.64 3.20003 20.95 3.38003C21.04 3.44003 21.07 3.55004 21.02 3.64004C20.88 3.87004 20.75 4.10004 20.62 4.33004L20.61 4.34005Z" fill="#6B777E"/>
<path fill-rule="evenodd" clip-rule="evenodd" d="M19.4 5.03C20.17 5.46 20.43 6.43999 19.99 7.20999C19.54 7.95999 18.58 8.21995 17.81 7.78995C17.04 7.33995 16.78 6.37996 17.23 5.60996C17.66 4.85996 18.64 4.6 19.4 5.03Z" fill="#92A2AB"/>
<path fill-rule="evenodd" clip-rule="evenodd" d="M29.71 3.62C31.56 3.62 33.05 5.12002 33.05 6.96002C33.05 8.80002 31.56 10.31 29.71 10.31C27.86 10.31 26.36 8.81002 26.36 6.96002C26.36 5.11002 27.86 3.62 29.71 3.62Z" fill="#30302F"/>
<path fill-rule="evenodd" clip-rule="evenodd" d="M31.77 4.34005C32.69 5.24005 32.94 6.68 32.26 7.85C31.47 9.24 29.7 9.70005 28.32 8.90005C26.95 8.11005 26.47 6.34 27.28 4.97C27.94 3.8 29.32 3.28004 30.56 3.64004L30.96 2.93002C31.02 2.84002 31.12 2.81002 31.22 2.87002L32.1 3.38003C32.19 3.44003 32.22 3.55004 32.17 3.64004L31.77 4.33004V4.34005Z" fill="#6B777E"/>
<path fill-rule="evenodd" clip-rule="evenodd" d="M30.56 5.03C31.33 5.46 31.59 6.43999 31.15 7.20999C30.7 7.95999 29.74 8.21995 28.97 7.78995C28.2 7.33995 27.9401 6.37996 28.3901 5.60996C28.8201 4.85996 29.8 4.6 30.56 5.03Z" fill="#92A2AB"/>
<path fill-rule="evenodd" clip-rule="evenodd" d="M16.58 23.64H21.19L16.47 48.23H11.85L16.59 23.64H16.58ZM29.91 23.64H32.21L27.49 48.23H25.18L29.92 23.64H29.91ZM41.4 23.64H43.16L38.42 48.23H36.66L41.4 23.64Z" fill="#A4E2EA"/>
</svg>
