<?xml version="1.0" encoding="UTF-8"?><svg id="Layer_2" xmlns="http://www.w3.org/2000/svg" viewBox="0 0 39.63 45.27"><defs><style>.cls-1{fill:#fff;}.cls-2{fill:#9fdd5d;}.cls-3{fill:#116038;}.cls-4{fill:#709b41;}.cls-5{fill:#456129;}.cls-6{fill:#61c84c;}.cls-7{opacity:.2;}.cls-8{opacity:.6;}</style></defs><g id="welcome_to_amazing_english"><g><path class="cls-1" d="M.46,36.33s0,0,0,0l8.46-14.57-.96-2.23c-1.87-.11-5.21-.7-7.36-3.45-.49-.62-.59-1.46-.27-2.18,.32-.72,1.01-1.2,1.8-1.25,.46-.03,3.61-.18,6.3,1.22,.4-1.28,1.06-2.36,1.95-3.18,.54-.5,1.32-.69,2.04-.48,.71,.21,1.27,.78,1.46,1.5,.02,.06,.12,.48,.21,1.14L20.45,1.89c1.34-2.31,5-2.53,8.51-.49,3.28,1.9,4.92,4.9,4.01,7.17,.99-1.03,2.3-1.96,3.99-2.4,.76-.2,1.57,.03,2.11,.61,.54,.58,.71,1.41,.44,2.15-.15,.43-1.26,3.39-3.61,5.31,1.02,.88,1.75,1.9,2.16,3.05,.25,.7,.11,1.49-.36,2.06-.47,.57-1.18,.86-1.95,.75-.51-.08-4.67-.79-7.02-4.11l-15.95,27.49c-.68,1.17-1.95,1.81-3.59,1.81-1.47,0-3.18-.52-4.82-1.48-3.62-2.1-5.22-5.17-3.89-7.47Z"/><g><path class="cls-4" d="M5.41,41.97c2.38,1.38,4.85,1.58,5.51,.44,.66-1.14-.74-3.18-3.12-4.56-2.38-1.38-4.85-1.58-5.51-.44-.66,1.14,.73,3.18,3.12,4.57Z"/><path class="cls-2" d="M6.12,40.76c.98,.57,2,.65,2.27,.18,.27-.47-.3-1.31-1.29-1.88-.98-.57-2-.65-2.27-.18-.27,.47,.3,1.31,1.29,1.88Z"/><path class="cls-6" d="M2.3,37.4c.66-1.14,3.13-.94,5.51,.44,2.38,1.38,3.78,3.43,3.12,4.56L30.91,7.97c.71-1.23-.64-3.34-3.02-4.73-2.38-1.38-4.89-1.51-5.6-.28L2.3,37.4Z"/><g class="cls-8"><path class="cls-1" d="M2.37,37.28c.38-.66,1.38-.87,2.62-.66L15.4,18.67s.1,.08,.16,.11c.58,.27,1.42-.33,1.89-1.34,.43-.92,.39-1.85-.05-2.22l6.07-10.47c1.13-1.47,4.61-.88,6.49-.19-.09-.06-1.91-1.4-2-1.46-2.38-1.38-4.89-1.51-5.6-.28L2.37,37.28Z"/></g><g class="cls-7"><path class="cls-5" d="M10.09,39.36L29.07,6.66c.57-.98-.18-2.53-1.71-3.81,.31,.14,.62,.29,.92,.47,2.38,1.38,3.73,3.5,3.02,4.73L11.31,42.49c.46-.79-.07-2-1.22-3.13Z"/></g><path class="cls-3" d="M10.68,42.82c-.23-.13-.31-.43-.17-.66,.45-.78-.65-2.57-2.94-3.91-2.3-1.33-4.4-1.39-4.85-.62h0c-.13,.23-.43,.31-.66,.17-.23-.13-.31-.43-.17-.66L21.87,2.72c.86-1.48,3.61-1.43,6.26,.1,2.65,1.54,4.05,3.9,3.2,5.38L11.34,42.65c-.09,.15-.25,.24-.42,.24-.08,0-.16-.02-.24-.06ZM22.7,3.2L3.55,36.21c1.21-.15,2.85,.26,4.5,1.22,1.65,.96,2.83,2.18,3.3,3.3L30.49,7.72c.5-.86-.55-2.74-2.85-4.07-1.26-.73-2.48-1.05-3.41-1.05-.76,0-1.32,.22-1.54,.6Z"/><path class="cls-3" d="M5.17,42.38s0,0,0,0c-2.7-1.56-4.11-3.81-3.29-5.22,.82-1.41,3.47-1.3,6.17,.27,2.69,1.56,4.11,3.81,3.29,5.22-.38,.66-1.17,.99-2.17,.99-1.14,0-2.56-.42-3.99-1.25Zm-2.46-4.74c-.45,.78,.65,2.58,2.94,3.91,2.3,1.33,4.4,1.39,4.85,.61,.45-.78-.65-2.57-2.94-3.91-1.34-.77-2.61-1.12-3.53-1.12-.66,0-1.14,.18-1.33,.5Zm2.7,4.32h0Z"/><path class="cls-3" d="M26.28,16.46c-.05-.11-.09-.19-.14-.28-.05-.09-.09-.17-.14-.25-.1-.16-.21-.32-.32-.47-.11-.15-.23-.3-.36-.44-.13-.14-.25-.28-.39-.41-.54-.53-1.17-.97-1.83-1.32-.66-.35-1.38-.6-2.1-.75-.73-.14-1.46-.2-2.18-.14-.04,0-.07,.04-.06,.07,0,.03,.03,.06,.06,.06,.7,.13,1.38,.31,2.03,.56,.65,.25,1.26,.56,1.82,.95,.56,.38,1.07,.83,1.54,1.31,.23,.24,.45,.49,.66,.76,.1,.13,.21,.26,.3,.4,.05,.07,.1,.13,.14,.2l.13,.19,.03,.04c.15,.22,.45,.28,.66,.13,.2-.13,.26-.39,.17-.6Z"/><path class="cls-3" d="M10.08,26.88s.05,0,.08,0h.09c.06,0,.13,.01,.19,.02,.13,0,.26,.03,.39,.04,.26,.04,.52,.08,.78,.15,.52,.13,1.03,.29,1.53,.52,.12,.06,.24,.13,.37,.19,.06,.03,.12,.06,.18,.09l.18,.11c.12,.07,.24,.14,.35,.22l.34,.24,.17,.12,.16,.14c.11,.09,.22,.18,.33,.27,.21,.19,.42,.39,.64,.58h0s.07,.03,.1,0c.02-.02,.02-.06,0-.08-.07-.13-.15-.25-.23-.38-.08-.13-.15-.26-.24-.37-.09-.12-.18-.24-.27-.36l-.14-.18-.15-.17-.31-.33c-.11-.11-.22-.2-.34-.3l-.17-.15c-.06-.05-.12-.09-.18-.14-.12-.09-.25-.18-.38-.27-.52-.33-1.08-.61-1.68-.78-.15-.05-.3-.08-.46-.11-.15-.04-.31-.05-.47-.07-.16-.01-.31-.03-.48-.02-.08,0-.16,0-.24,0-.04,0-.08,0-.12,.01-.04,0-.08,0-.14,.02-.26,.04-.43,.29-.39,.55,.03,.21,.2,.36,.39,.39l.1,.02Z"/><path class="cls-3" d="M27.58,14.18h4.5c.27,0,.48-.21,.48-.48,0-.27-.21-.48-.48-.48h-4.5c-.27,0-.48,.21-.48,.48,0,.27,.21,.48,.48,.48Z"/><path class="cls-2" d="M37.5,8.23s-1.71,4.82-5.21,5.47c0,0,1.4-4.47,5.21-5.47Z"/><path class="cls-3" d="M31.93,14.02c-.11-.13-.15-.3-.1-.46,.06-.19,1.53-4.73,5.55-5.79,.17-.05,.36,0,.48,.14,.12,.13,.16,.32,.1,.49-.07,.21-1.84,5.09-5.58,5.79-.03,0-.06,0-.09,0-.14,0-.27-.06-.36-.16Zm1.19-1.08c1.73-.78,2.89-2.68,3.48-3.86-1.86,.92-2.96,2.75-3.48,3.86Z"/><path class="cls-2" d="M29.83,13.7s5.02,.94,6.22,4.3c0,0-4.63-.69-6.22-4.3Z"/><path class="cls-3" d="M35.98,18.47c-.2-.03-4.91-.77-6.58-4.58-.07-.16-.05-.35,.06-.49,.11-.14,.29-.21,.46-.17,.22,.04,5.31,1.03,6.58,4.61,.06,.16,.03,.34-.08,.47-.09,.11-.23,.17-.37,.17-.02,0-.05,0-.07,0Zm-.81-1.18c-1.04-1.58-3.1-2.44-4.35-2.84,1.2,1.69,3.18,2.49,4.35,2.84Z"/><path class="cls-3" d="M11.21,22.2c.06,0,.13-.01,.19-.04,.24-.1,.36-.39,.25-.63l-1.77-4.14c-.1-.24-.39-.36-.63-.25-.24,.1-.36,.39-.25,.63l1.77,4.14c.08,.18,.26,.29,.44,.29Z"/><path class="cls-2" d="M2.27,14.77s5.1-.33,7.09,2.63c0,0-4.66,.47-7.09-2.63Z"/><path class="cls-3" d="M1.89,15.06c-.11-.14-.13-.33-.06-.49s.23-.27,.41-.28c.22-.01,5.4-.31,7.51,2.84,.09,.14,.11,.32,.04,.47-.07,.15-.22,.26-.39,.27-.05,0-.32,.03-.75,.03-1.48,0-4.78-.31-6.76-2.84Zm6.43,1.87c-1.4-1.28-3.6-1.6-4.92-1.68,1.58,1.34,3.7,1.63,4.92,1.68Z"/><path class="cls-2" d="M10.32,19.66s-1.12-4.99,1.5-7.41c0,0,1.19,4.53-1.5,7.41Z"/><path class="cls-3" d="M10.2,20.12c-.17-.05-.3-.18-.34-.36-.05-.21-1.15-5.29,1.64-7.86,.12-.11,.3-.16,.46-.11,.16,.05,.29,.18,.33,.34,.05,.2,1.22,4.82-1.61,7.86-.09,.1-.22,.15-.35,.15-.04,0-.08,0-.13-.02Zm.43-1.66c1.08-1.77,1.04-3.91,.89-5.12-1.04,1.58-1.02,3.81-.89,5.12Z"/></g></g></g></svg>