<svg width="63" height="63" viewBox="0 0 63 63" fill="none" xmlns="http://www.w3.org/2000/svg">
<mask id="mask0_30_792" style="mask-type:luminance" maskUnits="userSpaceOnUse" x="0" y="0" width="63" height="63">
<path d="M31.8 62.24C48.954 62.24 62.86 48.334 62.86 31.18C62.86 14.026 48.954 0.119995 31.8 0.119995C14.646 0.119995 0.73999 14.026 0.73999 31.18C0.73999 48.334 14.646 62.24 31.8 62.24Z" fill="white"/>
</mask>
<g mask="url(#mask0_30_792)">
<g style="mix-blend-mode:multiply">
<path opacity="0.73" d="M33.1699 22.59C33.1699 23.77 32.2099 24.73 31.0299 24.73C29.8499 24.73 28.8899 23.77 28.8899 22.59C28.8899 21.41 31.0299 17.73 31.0299 17.73C31.0299 17.73 33.1699 21.41 33.1699 22.59Z" fill="#6DC8FF"/>
<path opacity="0.93" d="M60.7599 0.820007C60.7599 1.60001 60.13 2.22 59.36 2.22C58.59 2.22 57.96 1.59001 57.96 0.820007C57.96 0.0500073 59.36 -2.37 59.36 -2.37C59.36 -2.37 60.7599 0.0500073 60.7599 0.820007Z" fill="#6DC8FF"/>
<path opacity="0.36" d="M8.60992 12.87C8.60992 13.13 8.39992 13.34 8.13992 13.34C7.87992 13.34 7.66992 13.13 7.66992 12.87C7.66992 12.61 8.13992 11.8 8.13992 11.8C8.13992 11.8 8.60992 12.61 8.60992 12.87Z" fill="#6DC8FF"/>
<path opacity="0.47" d="M6.65004 43.92C6.65004 44.3 6.34004 44.6 5.97004 44.6C5.60004 44.6 5.29004 44.29 5.29004 43.92C5.29004 43.55 5.97004 42.37 5.97004 42.37C5.97004 42.37 6.65004 43.55 6.65004 43.92Z" fill="#6DC8FF"/>
<path opacity="0.48" d="M39.0101 15.59C39.0101 16.39 38.3601 17.04 37.5601 17.04C36.7601 17.04 36.1101 16.39 36.1101 15.59C36.1101 14.79 37.5601 12.3 37.5601 12.3C37.5601 12.3 39.0101 14.79 39.0101 15.59Z" fill="#6DC8FF"/>
<path opacity="0.67" d="M49.1301 17.71C49.1301 18.53 48.47 19.19 47.65 19.19C46.83 19.19 46.17 18.53 46.17 17.71C46.17 16.89 47.65 14.36 47.65 14.36C47.65 14.36 49.1301 16.9 49.1301 17.71Z" fill="#6DC8FF"/>
<path opacity="0.52" d="M13.0699 35.29C13.0699 36.57 12.0299 37.61 10.7499 37.61C9.46993 37.61 8.42993 36.57 8.42993 35.29C8.42993 34.01 10.7499 30.02 10.7499 30.02C10.7499 30.02 13.0699 34.01 13.0699 35.29Z" fill="#6DC8FF"/>
<path opacity="0.35" d="M60.43 66.36C60.43 67.42 59.57 68.28 58.51 68.28C57.45 68.28 56.59 67.42 56.59 66.36C56.59 65.3 58.51 62.01 58.51 62.01C58.51 62.01 60.43 65.31 60.43 66.36Z" fill="#6DC8FF"/>
<path opacity="0.82" d="M39.59 27.55C39.59 28.19 39.07 28.71 38.43 28.71C37.79 28.71 37.27 28.19 37.27 27.55C37.27 26.91 38.43 24.92 38.43 24.92C38.43 24.92 39.59 26.91 39.59 27.55Z" fill="#6DC8FF"/>
<path opacity="0.45" d="M41.1899 38C41.1899 38.5 40.7899 38.9 40.2899 38.9C39.7899 38.9 39.3899 38.5 39.3899 38C39.3899 37.5 40.2899 35.95 40.2899 35.95C40.2899 35.95 41.1899 37.51 41.1899 38Z" fill="#6DC8FF"/>
<path opacity="0.71" d="M26.2 12.91C26.2 13.92 25.38 14.75 24.36 14.75C23.34 14.75 22.52 13.93 22.52 12.91C22.52 11.89 24.36 8.73999 24.36 8.73999C24.36 8.73999 26.2 11.9 26.2 12.91Z" fill="#6DC8FF"/>
<path opacity="0.61" d="M24.1899 24.37C24.1899 25.06 23.6299 25.62 22.9399 25.62C22.2499 25.62 21.6899 25.06 21.6899 24.37C21.6899 23.68 22.9399 21.54 22.9399 21.54C22.9399 21.54 24.1899 23.68 24.1899 24.37Z" fill="#6DC8FF"/>
<path opacity="0.93" d="M57.91 55.34C57.91 55.6 57.7 55.81 57.44 55.81C57.18 55.81 56.97 55.6 56.97 55.34C56.97 55.08 57.44 54.28 57.44 54.28C57.44 54.28 57.91 55.08 57.91 55.34Z" fill="#6DC8FF"/>
<path opacity="0.76" d="M55.9 23.8C55.9 24.05 55.69 24.26 55.44 24.26C55.19 24.26 54.98 24.05 54.98 23.8C54.98 23.55 55.44 22.75 55.44 22.75C55.44 22.75 55.9 23.54 55.9 23.8Z" fill="#6DC8FF"/>
<path opacity="0.6" d="M29.45 33.54C29.45 33.88 29.17 34.16 28.83 34.16C28.49 34.16 28.21 33.88 28.21 33.54C28.21 33.2 28.83 32.13 28.83 32.13C28.83 32.13 29.45 33.19 29.45 33.54Z" fill="#6DC8FF"/>
<path opacity="0.79" d="M42.06 6.91C42.06 7.54 41.55 8.04999 40.92 8.04999C40.29 8.04999 39.78 7.54 39.78 6.91C39.78 6.28 40.92 4.32001 40.92 4.32001C40.92 4.32001 42.06 6.28 42.06 6.91Z" fill="#6DC8FF"/>
<path opacity="0.76" d="M3.87995 54.01C3.87995 54.75 3.27996 55.35 2.53996 55.35C1.79996 55.35 1.19995 54.75 1.19995 54.01C1.19995 53.27 2.53996 50.96 2.53996 50.96C2.53996 50.96 3.87995 53.27 3.87995 54.01Z" fill="#6DC8FF"/>
<path opacity="0.98" d="M34.98 53.29C34.98 54.32 34.15 55.15 33.12 55.15C32.09 55.15 31.26 54.32 31.26 53.29C31.26 52.26 33.12 49.07 33.12 49.07C33.12 49.07 34.98 52.27 34.98 53.29Z" fill="#6DC8FF"/>
<path opacity="0.86" d="M16.3899 8.92001C16.3899 9.68001 15.7699 10.29 15.0199 10.29C14.2699 10.29 13.6499 9.67001 13.6499 8.92001C13.6499 8.17001 15.0199 5.79999 15.0199 5.79999C15.0199 5.79999 16.3899 8.16001 16.3899 8.92001Z" fill="#6DC8FF"/>
<path opacity="0.33" d="M3.91001 32.18C3.91001 32.98 3.26001 33.63 2.46001 33.63C1.66001 33.63 1.01001 32.98 1.01001 32.18C1.01001 31.38 2.46001 28.9 2.46001 28.9C2.46001 28.9 3.91001 31.39 3.91001 32.18Z" fill="#6DC8FF"/>
<path opacity="0.64" d="M42.2801 47.58C42.2801 48.47 41.5601 49.19 40.6701 49.19C39.7801 49.19 39.0601 48.47 39.0601 47.58C39.0601 46.69 40.6701 43.93 40.6701 43.93C40.6701 43.93 42.2801 46.7 42.2801 47.58Z" fill="#6DC8FF"/>
<path opacity="0.3" d="M53.68 44.26C53.68 44.8 53.24 45.24 52.7 45.24C52.16 45.24 51.72 44.8 51.72 44.26C51.72 43.72 52.7 42.04 52.7 42.04C52.7 42.04 53.68 43.72 53.68 44.26Z" fill="#6DC8FF"/>
<path opacity="0.7" d="M17.69 50.35C17.69 51.38 16.85 52.22 15.82 52.22C14.79 52.22 13.95 51.38 13.95 50.35C13.95 49.32 15.82 46.1 15.82 46.1C15.82 46.1 17.69 49.32 17.69 50.35Z" fill="#6DC8FF"/>
<path opacity="0.72" d="M27.4599 43.52C27.4599 44.16 26.9399 44.68 26.2999 44.68C25.6599 44.68 25.1399 44.16 25.1399 43.52C25.1399 42.88 26.2999 40.87 26.2999 40.87C26.2999 40.87 27.4599 42.87 27.4599 43.52Z" fill="#6DC8FF"/>
<path opacity="0.87" d="M11.2099 62.86C11.2099 63.35 10.8099 63.75 10.3199 63.75C9.82993 63.75 9.42993 63.35 9.42993 62.86C9.42993 62.37 10.3199 60.83 10.3199 60.83C10.3199 60.83 11.2099 62.36 11.2099 62.86Z" fill="#6DC8FF"/>
<path opacity="0.95" d="M20.0899 32.56C20.0899 33.16 19.6099 33.64 19.0099 33.64C18.4099 33.64 17.9299 33.16 17.9299 32.56C17.9299 31.96 19.0099 30.1 19.0099 30.1C19.0099 30.1 20.0899 31.96 20.0899 32.56Z" fill="#6DC8FF"/>
<path opacity="0.69" d="M51.65 3.57999C51.65 4.40999 50.98 5.09 50.14 5.09C49.3 5.09 48.63 4.41999 48.63 3.57999C48.63 2.73999 50.14 0.149994 50.14 0.149994C50.14 0.149994 51.65 2.73999 51.65 3.57999Z" fill="#6DC8FF"/>
<path opacity="0.7" d="M30.0799 4.67001C30.0799 5.13001 29.7099 5.5 29.2499 5.5C28.7899 5.5 28.4199 5.13001 28.4199 4.67001C28.4199 4.21001 29.2499 2.79001 29.2499 2.79001C29.2499 2.79001 30.0799 4.21001 30.0799 4.67001Z" fill="#6DC8FF"/>
<path opacity="0.6" d="M6.68997 22.17C6.68997 22.92 6.07997 23.53 5.32997 23.53C4.57997 23.53 3.96997 22.92 3.96997 22.17C3.96997 21.42 5.32997 19.08 5.32997 19.08C5.32997 19.08 6.68997 21.42 6.68997 22.17Z" fill="#6DC8FF"/>
<path opacity="0.84" d="M5.81 5.20001C5.81 5.91001 5.24 6.48001 4.53 6.48001C3.82 6.48001 3.25 5.91001 3.25 5.20001C3.25 4.49001 4.53 2.29999 4.53 2.29999C4.53 2.29999 5.81 4.50001 5.81 5.20001Z" fill="#6DC8FF"/>
<path opacity="0.79" d="M25.8899 58.26C25.8899 58.52 25.6799 58.74 25.4099 58.74C25.1399 58.74 24.9299 58.53 24.9299 58.26C24.9299 57.99 25.4099 57.17 25.4099 57.17C25.4099 57.17 25.8899 57.99 25.8899 58.26Z" fill="#6DC8FF"/>
<path opacity="0.91" d="M60.2101 33.5C60.2101 34.2 59.64 34.77 58.94 34.77C58.24 34.77 57.67 34.2 57.67 33.5C57.67 32.8 58.94 30.62 58.94 30.62C58.94 30.62 60.2101 32.8 60.2101 33.5Z" fill="#6DC8FF"/>
<path opacity="0.3" d="M49.67 31.55C49.67 32.27 49.09 32.86 48.36 32.86C47.63 32.86 47.05 32.28 47.05 31.55C47.05 30.82 48.36 28.58 48.36 28.58C48.36 28.58 49.67 30.83 49.67 31.55Z" fill="#6DC8FF"/>
<path opacity="0.63" d="M62.19 46.36C62.19 46.9 61.75 47.34 61.21 47.34C60.67 47.34 60.23 46.9 60.23 46.36C60.23 45.82 61.21 44.12 61.21 44.12C61.21 44.12 62.19 45.81 62.19 46.36Z" fill="#6DC8FF"/>
<path opacity="0.44" d="M17.3301 21C17.3301 22.18 16.3801 23.13 15.2001 23.13C14.0201 23.13 13.0701 22.18 13.0701 21C13.0701 19.82 15.2001 16.15 15.2001 16.15C15.2001 16.15 17.3301 19.82 17.3301 21Z" fill="#6DC8FF"/>
<path opacity="0.6" d="M58.26 8.09C58.26 8.58 57.86 8.97 57.38 8.97C56.9 8.97 56.5 8.57 56.5 8.09C56.5 7.61 57.38 6.07999 57.38 6.07999C57.38 6.07999 58.26 7.6 58.26 8.09Z" fill="#6DC8FF"/>
</g>
</g>
</svg>
