<svg width="34" height="51" viewBox="0 0 34 51" fill="none" xmlns="http://www.w3.org/2000/svg">
<path d="M9.1601 0.959991L9.13013 1L11.8101 6.85001L16.9201 1.07001V0.959991H9.1601Z" fill="#57B2CE"/>
<path d="M11.8101 6.85001H16.92V1.07001L11.8101 6.85001Z" fill="#63CBD6"/>
<path d="M16.92 6.85001H11.8101L16.92 20.28V6.85001Z" fill="#A6DAE7"/>
<path d="M9.07007 1.04999L3.31006 6.85001H8.05005L9.07007 1.04999Z" fill="#259CB7"/>
<path d="M11.8101 6.85001L9.13007 1L9.07007 1.04999L8.05005 6.85001H11.8101Z" fill="#63CBD6"/>
<path d="M16.92 20.41V20.28L11.8101 6.85001H8.05005L16.92 20.41Z" fill="#259CB7"/>
<path d="M8.05005 6.85001H3.31006L3.29004 6.88L16.92 20.53V20.41L8.05005 6.85001Z" fill="#57B2CE"/>
<path d="M24.6801 0.959991L24.72 1L22.0301 6.85001L16.92 1.07001V0.959991H24.6801Z" fill="#A6DAE7"/>
<path d="M22.0301 6.85001H16.92V1.07001L22.0301 6.85001Z" fill="#57B2CE"/>
<path d="M16.92 6.85001H22.0301L16.92 20.28V6.85001Z" fill="#63CBD6"/>
<path d="M24.77 1.04999L30.53 6.85001H25.8L24.77 1.04999Z" fill="#A6DAE7"/>
<path d="M22.03 6.85001L24.72 1L24.77 1.04999L25.8 6.85001H22.03Z" fill="#259CB7"/>
<path d="M16.92 20.41V20.28L22.0301 6.85001H25.8L16.92 20.41Z" fill="#57B2CE"/>
<path d="M25.8 6.85001H30.5301L30.55 6.88L16.92 20.53V20.41L25.8 6.85001Z" fill="#63CBD6"/>
<path d="M11.2001 16.41L12.72 18.68L16.92 18.14L21.1201 18.68L22.6401 16.41H11.2001Z" fill="#F09509"/>
<path d="M10.2801 15.01C9.70007 15.76 10.32 16.78 11.36 16.78H22.47C23.52 16.78 24.14 15.77 23.55 15.01L23.5 14.95H10.32L10.2701 15.01H10.2801Z" fill="#ECBB30"/>
<path d="M25.04 5.69C23.51 5.62 22.12 4.25 22.01 2.72C22.01 2.72 22 2.72 21.99 2.72C21.89 4.23 20.52 5.58999 19.02 5.67999C19.02 5.67999 19.02 5.68 19.02 5.69C20.56 5.79 21.96 7.21001 22 8.76001C22.04 7.19001 23.47 5.74999 25.03 5.67999L25.04 5.69Z" fill="white"/>
<path d="M20.61 9.39001C18.73 9.31001 17.02 7.62 16.89 5.75C16.89 5.75 16.88 5.75 16.87 5.75C16.74 7.6 15.07 9.27001 13.22 9.39001C13.22 9.39001 13.22 9.38999 13.22 9.39999C15.12 9.51999 16.83 11.27 16.88 13.17C16.93 11.24 18.68 9.47001 20.61 9.39001Z" fill="white"/>
<path d="M16.9201 20.33C9.3101 20.33 3.15015 26.5 3.15015 34.1C3.15015 41.7 9.32011 47.87 16.9201 47.87C24.5201 47.87 30.6901 41.7 30.6901 34.1C30.6901 26.5 24.5201 20.33 16.9201 20.33ZM16.9201 44.5C10.5301 44.5 5.34015 39.32 5.34015 32.92C5.34015 26.52 10.5201 21.34 16.9201 21.34C23.3201 21.34 28.5001 26.52 28.5001 32.92C28.5001 39.32 23.3201 44.5 16.9201 44.5Z" fill="#F09509"/>
<path d="M16.92 17.77C7.90004 17.77 0.590088 25.08 0.590088 34.1C0.590088 43.12 7.90004 50.43 16.92 50.43C25.94 50.43 33.2501 43.12 33.2501 34.1C33.2501 25.08 25.94 17.77 16.92 17.77ZM16.92 47.87C9.31004 47.87 3.15009 41.7 3.15009 34.1C3.15009 26.5 9.32004 20.33 16.92 20.33C24.52 20.33 30.6901 26.5 30.6901 34.1C30.6901 41.7 24.52 47.87 16.92 47.87Z" fill="#ECBB30"/>
</svg>
