<svg width="76" height="47" viewBox="0 0 76 47" fill="none" xmlns="http://www.w3.org/2000/svg">
<path d="M69.3199 46.06C47.4799 31.82 33.89 21.75 39.78 16.8C45.98 11.48 89.38 9.84999 70.59 4.85999C65.55 3.51999 60.3099 2.81997 60.3099 2.21997C60.3099 1.84997 61.5 1.23001 65.45 0.76001L64.27 0.570007C55.59 1.16001 51.0799 1.61003 51.0099 2.34003C50.8799 3.69003 60.3 5.17 61.28 6.38C61.3 6.41001 61.28 6.40002 61.28 6.40002C61.28 6.40002 61.2799 6.40002 61.2899 6.40002L61.28 6.40997C58.4 7.38997 47.4899 8.18998 37.0699 10.1C8.28995 15.4 1.38993 26.3 0.799927 46.02H69.34L69.3199 46.06Z" fill="#636363"/>
<path d="M25.5 30.59L24.18 30.95C25.69 34.91 27.37 37.68 29.93 41.74L31.48 41.04C28.89 37.17 27.13 34.49 25.49 30.58L25.5 30.59ZM26.72 18.05H25.9C24.17 19.61 23.16 21.79 23 23.51L24.09 23.35C24.18 21.68 25.1 19.55 26.73 18.05H26.72ZM40.81 11.94C38.74 12.4 34.5 13.43 32.56 14.26L33.08 14.36C33.54 14.17 36.3 13.15 41.15 12.07L40.82 11.94H40.81ZM56.13 9.37C51.83 10 50.79 10.16 48.81 10.47L49.09 10.59C51.12 10.27 51.76 10.16 56.42 9.47998L56.13 9.37ZM67.1 7.29999C65.78 7.82999 62.97 8.32001 62.51 8.39001L62.85 8.47998C64.19 8.23998 66.27 7.86999 67.53 7.35999L67.09 7.29999H67.1ZM64.49 4.91998L64.16 4.95001C65.05 5.20001 66.42 5.59002 67.19 6.02002H67.6C66.78 5.56002 65.39 5.15997 64.49 4.90997V4.91998ZM58.05 3.32001L57.75 3.34003C58.68 3.60003 59.64 3.83003 60.73 4.09003L61.03 4.06C60.13 3.84 59.15 3.62001 58.05 3.32001ZM55.75 1.97998C55.39 2.20998 55.48 2.40001 55.83 2.64001H56.14C55.79 2.41001 55.69 2.21999 56.04 1.98999H55.75V1.97998ZM60.31 1.09003C59.53 1.18003 58.34 1.32002 57.57 1.46002L57.81 1.47998C58.48 1.34998 59.81 1.18999 60.51 1.10999L60.32 1.08002L60.31 1.09003Z" fill="white"/>
<path d="M64.9199 0.690002C64.3699 0.730002 64.04 0.749998 63.34 0.809998C63.55 0.839998 64.81 0.720022 65.02 0.710022C64.92 0.690022 65.0199 0.710002 64.9199 0.690002Z" fill="white"/>
<path d="M5.02994 46.06C3.89994 26.28 9.30996 15.71 37.4 10.39C48.76 8.31001 59.8399 7.48002 62.1199 6.52002C62.1399 6.50002 62.1599 6.48999 62.1599 6.48999C62.1599 6.48999 62.1599 6.48998 62.1599 6.47998C62.1799 6.47998 62.1599 6.46001 62.1799 6.45001C62.1799 6.45001 62.1699 6.45 62.1699 6.44C61.7699 5.25 51.2099 3.72001 51.6199 2.32001C51.8299 1.63001 56.3399 1.21997 64.5599 0.659973C54.6999 1.11997 51.4799 1.74 51.2899 2.31C50.8199 3.74 61.5699 5.33002 61.7299 6.46002C61.7299 6.46002 61.71 6.47002 61.71 6.46002C61.7 6.46002 61.6999 6.46997 61.6999 6.46997C59.7399 7.22997 52.0699 7.95002 43.9099 9.15002C14.6699 13.47 2.41995 21.21 2.88995 46.05H5.04992L5.02994 46.06Z" fill="white"/>
<path d="M64.5499 46.06H66.9299C25.9599 18.44 33.0799 15.99 55.9599 11.99C67.7599 9.92999 82.3099 8.1 70.1899 4.87C65.2499 3.54999 59.7699 2.83 60.0199 2.19C60.1699 1.82 60.9099 1.44 65.3499 0.75H65.1399C60.9699 1.33 59.9099 1.81 59.7399 2.19C59.4599 2.82 64.4899 3.52998 69.1899 4.72998C76.8899 6.69998 75.2899 8.23999 67.5199 9.79999C58.8899 11.53 46.0399 12.83 39.4599 16.02C38.0999 16.81 36.4099 17.79 36.5399 20.09C36.9699 27.38 57.5799 41.2 64.5599 46.07L64.5499 46.06Z" fill="white"/>
</svg>
