<svg width="62" height="70" viewBox="0 0 62 70" fill="none" xmlns="http://www.w3.org/2000/svg">
<path d="M39.5102 43.73H33.6602L34.5901 66.97H38.3602L39.5102 43.73Z" fill="#274A5D"/>
<path d="M41.3601 30.26C41.3601 27.7 41.9001 23.59 41.9001 21.03C45.4001 36.45 56.1101 20.29 56.1101 20.29C56.9901 21.17 57.9301 22.04 58.8001 22.98C58.8001 22.98 51.7901 35.24 44.8601 32.95C43.5101 32.48 42.3701 31.4 41.3601 30.32" fill="#E15649"/>
<path d="M32.64 69.6C32.71 62.8 41.13 63.47 40.18 69.73L40.31 69.7999H32.5" fill="#E15649"/>
<path d="M58.1201 24.11C61.6501 24.51 63.3101 18.65 59.6701 16.9C57.3101 15.76 54.3501 18.45 54.9601 20.94C55.2301 22.35 56.7501 23.95 58.1301 24.11H58.1201Z" fill="#2EA2BC"/>
<path d="M23.1401 43.73H29.0001L28.0601 66.97H24.3001L23.1401 43.73Z" fill="#274A5D"/>
<path d="M21.2901 30.26C21.2901 27.7 20.7501 23.59 20.7501 21.03C17.2501 36.45 6.5401 20.29 6.5401 20.29C5.6601 21.17 4.7201 22.04 3.8501 22.98C3.8501 22.98 10.8601 35.24 17.7901 32.95C19.1401 32.48 20.2801 31.4 21.2901 30.32" fill="#E15649"/>
<path d="M33.4901 12.88H29.5601V19.55H33.4901V12.88Z" fill="#274A5D"/>
<path d="M40.31 44.34L42.7301 17.87H20.3L22.12 44.34H40.31Z" fill="#2EA2BC"/>
<path d="M37.5401 40.16L39.2001 22.04H23.8501L25.0901 40.16H37.5401Z" fill="#274A5D"/>
<path d="M30.0101 69.6C29.9401 62.8 21.5201 63.47 22.4701 69.73L22.3401 69.7999H30.1501" fill="#E15649"/>
<path d="M42.77 14.03C42.77 16.05 20.27 15.51 20.27 14.43C20.27 9.64998 23.6 0.48999 31.96 0.48999C39.84 0.48999 42.64 10.26 42.77 14.03Z" fill="#2EA2BC"/>
<path d="M29.4101 5.54999C29.2101 8.47999 25.6001 8.28999 25.4001 5.54999H29.4101Z" fill="#274A5D"/>
<path d="M37.6601 5.54999C37.4601 8.47999 33.8501 8.28999 33.6501 5.54999H37.6601Z" fill="#274A5D"/>
<path d="M36.1402 13.67H26.9102L27.8102 10.73H35.1702L36.1402 13.67Z" fill="#274A5D"/>
<path d="M38.5501 26.7C38.5501 26.7 34.2801 26.91 31.5201 26.92C28.7701 26.92 24.4901 26.7 24.4901 26.7C24.3401 26.69 24.3501 26.25 24.4901 26.23C24.4901 26.23 28.7601 26.02 31.5201 26.01C34.2701 26.01 38.5501 26.23 38.5501 26.23C38.7001 26.28 38.6901 26.67 38.5501 26.7Z" fill="#112A35"/>
<path d="M38.45 31.39C38.45 31.39 34.23 31.6 31.52 31.61C28.81 31.61 24.59 31.39 24.59 31.39C24.44 31.38 24.45 30.94 24.59 30.92C24.59 30.92 28.81 30.71 31.52 30.7C34.23 30.7 38.45 30.92 38.45 30.92C38.59 30.97 38.59 31.36 38.45 31.39Z" fill="#112A35"/>
<path d="M37.8301 35.98C37.8301 35.98 33.9901 36.19 31.5301 36.2C29.0601 36.2 25.2301 35.98 25.2301 35.98C25.1001 35.97 25.1001 35.53 25.2301 35.51C25.2301 35.51 29.0601 35.3 31.5301 35.29C34.0001 35.29 37.8301 35.51 37.8301 35.51C37.9601 35.56 37.9601 35.95 37.8301 35.98Z" fill="#112A35"/>
<path d="M4.54006 24.11C1.01006 24.51 -0.649935 18.65 2.99006 16.9C5.35006 15.76 8.31006 18.45 7.70006 20.94C7.43006 22.35 5.91006 23.95 4.53006 24.11H4.54006Z" fill="#2EA2BC"/>
<path d="M23.62 7.56999C23.62 7.56999 23.56 7.65999 23.45 7.81999C23.34 7.97999 23.19 8.18998 23.05 8.44998C22.73 8.95998 22.45 9.63998 22.24 10.18C22.06 10.73 21.83 11.43 21.76 12.03C21.7 12.32 21.68 12.59 21.67 12.78C21.65 12.97 21.64 13.08 21.64 13.08C21.64 13.14 21.41 13.14 21.41 13.08C21.41 13.08 21.41 12.96 21.41 12.77C21.41 12.58 21.4 12.3 21.43 11.99C21.45 11.37 21.64 10.61 21.83 10.03C22.06 9.45998 22.4 8.75999 22.78 8.26999C22.95 8.00999 23.13 7.80999 23.26 7.65999C23.39 7.50999 23.46 7.41998 23.46 7.41998C23.52 7.37998 23.67 7.50999 23.64 7.56999H23.62Z" fill="#F9F9F9"/>
<path d="M22.6802 11.5C22.6802 11.5 22.8502 10.9 23.0202 10.54C23.1902 10.18 23.5502 9.66999 23.5502 9.66999C23.5602 9.64999 23.7602 9.74999 23.7602 9.76999C23.7602 9.76999 23.5902 10.37 23.4202 10.73C23.2502 11.09 22.8902 11.6 22.8902 11.6C22.8602 11.6 22.6902 11.52 22.6802 11.5Z" fill="#F9F9F9"/>
<path d="M6.24001 19.87C6.24001 19.87 6.21001 19.79 6.17001 19.66C6.12001 19.53 6.05001 19.36 5.94001 19.17C5.74001 18.79 5.39001 18.4 5.07001 18.17C4.75001 17.94 4.27001 17.73 3.85001 17.71C3.64001 17.69 3.45001 17.7 3.32001 17.71C3.19001 17.72 3.10001 17.73 3.10001 17.73C3.05001 17.73 3.00001 17.52 3.05001 17.5C3.05001 17.5 3.14001 17.48 3.28001 17.44C3.42001 17.41 3.63001 17.37 3.86001 17.37C4.34001 17.34 4.94001 17.52 5.33001 17.81C5.72001 18.09 6.08001 18.59 6.25001 19.03C6.34001 19.25 6.39001 19.45 6.43001 19.59C6.46001 19.73 6.48001 19.82 6.48001 19.82C6.48001 19.87 6.28001 19.91 6.25001 19.88L6.24001 19.87Z" fill="#F9F9F9"/>
<path d="M4.88002 19.91C4.88002 19.91 4.86002 19.88 4.82002 19.83C4.78002 19.78 4.74002 19.71 4.68002 19.65C4.57002 19.5 4.40002 19.37 4.28002 19.26C4.15002 19.16 3.99002 19.02 3.82002 18.95C3.74002 18.9 3.67002 18.88 3.61002 18.86C3.56002 18.84 3.52002 18.82 3.52002 18.82C3.50002 18.82 3.53002 18.59 3.55002 18.59C3.55002 18.59 3.59002 18.59 3.65002 18.59C3.72002 18.59 3.81002 18.59 3.91002 18.62C4.12002 18.65 4.38002 18.77 4.55002 18.9C4.71002 19.04 4.88002 19.26 4.96002 19.46C5.01002 19.55 5.03002 19.64 5.05002 19.71C5.07002 19.77 5.08002 19.81 5.08002 19.81C5.07002 19.84 4.89002 19.91 4.87002 19.9L4.88002 19.91Z" fill="#F9F9F9"/>
<path d="M60.2301 19.29C60.2301 19.29 60.2501 19.38 60.3001 19.53C60.3401 19.68 60.3801 19.89 60.4001 20.14C60.4301 20.39 60.4001 20.67 60.3401 20.95C60.2701 21.23 60.1601 21.5 60.0001 21.7C59.7101 22.14 59.0501 22.44 58.5501 22.44C58.3001 22.46 58.0801 22.42 57.9301 22.39C57.7801 22.36 57.6901 22.34 57.6901 22.34C57.6401 22.33 57.6901 22.11 57.7401 22.11C57.7401 22.11 57.8301 22.11 57.9701 22.13C58.1101 22.13 58.3101 22.14 58.5201 22.1C58.9601 22.05 59.4201 21.77 59.6501 21.43C59.7801 21.28 59.8701 21.06 59.9501 20.84C60.0101 20.61 60.0701 20.37 60.0701 20.14C60.0801 19.92 60.0701 19.72 60.0501 19.58C60.0301 19.44 60.0201 19.35 60.0201 19.35C60.0301 19.3 60.2201 19.25 60.2501 19.3L60.2301 19.29Z" fill="#F9F9F9"/>
<path d="M59.0502 19.9C59.0502 19.9 59.0502 20.02 59.0402 20.18C59.0202 20.34 58.9602 20.55 58.8502 20.69C58.7502 20.83 58.5602 20.97 58.3902 21.01C58.2202 21.07 58.0902 21.05 58.1002 21.06C58.0802 21.06 58.0402 20.84 58.0502 20.83C58.0502 20.83 58.1502 20.79 58.2402 20.71C58.3402 20.64 58.4302 20.52 58.4902 20.43C58.5602 20.34 58.6502 20.21 58.7102 20.09C58.7702 19.97 58.8202 19.87 58.8202 19.87C58.8502 19.87 59.0402 19.89 59.0502 19.91V19.9Z" fill="#F9F9F9"/>
<path d="M24.2299 6.17996C24.2299 6.17996 24.2099 6.23997 24.1899 6.30997C24.1599 6.37997 24.1599 6.44997 24.1299 6.49997C24.1299 6.54997 24.0599 6.59997 24.0299 6.66997C23.9899 6.72997 23.9699 6.77997 23.9699 6.77997H23.7399C23.7399 6.77997 23.7199 6.71997 23.6999 6.62997C23.6699 6.53997 23.6999 6.41997 23.7199 6.32997C23.7699 6.24997 23.8399 6.14997 23.9199 6.10997C23.9999 6.05997 24.0599 6.02997 24.0599 6.02997C24.0799 6.02997 24.2199 6.17997 24.2299 6.18997V6.17996Z" fill="#F9F9F9"/>
<path d="M28.59 19.01C28.59 19.01 26.66 19.12 25.41 19.12C24.17 19.12 22.23 19.01 22.23 19.01C22.16 19.01 22.17 18.78 22.23 18.78C22.23 18.78 24.16 18.67 25.41 18.67C26.65 18.67 28.59 18.78 28.59 18.78C28.66 18.8 28.66 19 28.59 19.01Z" fill="#F9F9F9"/>
<path d="M30.3001 19.01C30.3001 19.01 30.0101 19.12 29.8201 19.12C29.6301 19.12 29.3401 19.01 29.3401 19.01C29.3301 19.01 29.3401 18.78 29.3401 18.78C29.3401 18.78 29.6301 18.67 29.8201 18.67C30.0101 18.67 30.3001 18.78 30.3001 18.78C30.3101 18.8 30.3001 19 30.3001 19.01Z" fill="#F9F9F9"/>
<path d="M26.2801 20.38C26.2801 20.38 25.5201 20.49 25.0301 20.49C24.5401 20.49 23.7801 20.38 23.7801 20.38C23.7501 20.38 23.7501 20.15 23.7801 20.15C23.7801 20.15 24.5401 20.04 25.0301 20.04C25.5201 20.04 26.2801 20.15 26.2801 20.15C26.3101 20.17 26.3101 20.37 26.2801 20.38Z" fill="#F9F9F9"/>
</svg>
