<svg width="9" height="66" viewBox="0 0 9 66" fill="none" xmlns="http://www.w3.org/2000/svg">
<path d="M3.61005 4.18999C3.61005 4.86999 4.16008 5.41 4.83008 5.41V65.16H0.810059V0.619995H4.83008V2.96999C4.15008 2.96999 3.61005 3.51999 3.61005 4.18999Z" fill="#0DB6D6"/>
<path d="M8.86005 0.619995H4.84009V2.96999C5.52009 2.96999 6.06006 3.51999 6.06006 4.18999C6.06006 4.85999 5.51009 5.41 4.84009 5.41V65.16H8.86005V0.619995Z" fill="#098299"/>
<path d="M3.89008 7.81997C3.89008 8.00997 3.74004 8.15997 3.54004 8.15997H0.810059V7.46997H3.54004C3.73004 7.46997 3.89008 7.61997 3.89008 7.81997Z" fill="#098299"/>
<path d="M3.89008 11.01C3.89008 11.2 3.74004 11.35 3.54004 11.35H0.810059V10.66H3.54004C3.73004 10.66 3.89008 10.81 3.89008 11.01Z" fill="#098299"/>
<path d="M3.89008 14.21C3.89008 14.4 3.74004 14.55 3.54004 14.55H0.810059V13.86H3.54004C3.73004 13.86 3.89008 14.01 3.89008 14.21Z" fill="#098299"/>
<path d="M3.89008 17.41C3.89008 17.6 3.74004 17.75 3.54004 17.75H0.810059V17.06H3.54004C3.73004 17.06 3.89008 17.21 3.89008 17.41Z" fill="#098299"/>
<path d="M3.89008 20.6C3.89008 20.79 3.74004 20.94 3.54004 20.94H0.810059V20.25H3.54004C3.73004 20.25 3.89008 20.4 3.89008 20.6Z" fill="#098299"/>
<path d="M3.89008 23.8C3.89008 23.99 3.74004 24.14 3.54004 24.14H0.810059V23.45H3.54004C3.73004 23.45 3.89008 23.6 3.89008 23.8Z" fill="#098299"/>
<path d="M3.89008 27C3.89008 27.19 3.74004 27.34 3.54004 27.34H0.810059V26.65H3.54004C3.73004 26.65 3.89008 26.8 3.89008 27Z" fill="#098299"/>
<path d="M3.89008 30.2C3.89008 30.39 3.74004 30.54 3.54004 30.54H0.810059V29.85H3.54004C3.73004 29.85 3.89008 30 3.89008 30.2Z" fill="#098299"/>
<path d="M3.89008 33.39C3.89008 33.58 3.74004 33.73 3.54004 33.73H0.810059V33.04H3.54004C3.73004 33.04 3.89008 33.19 3.89008 33.39Z" fill="#098299"/>
<path d="M3.89008 36.59C3.89008 36.78 3.74004 36.93 3.54004 36.93H0.810059V36.24H3.54004C3.73004 36.24 3.89008 36.39 3.89008 36.59Z" fill="#098299"/>
<path d="M3.89008 39.79C3.89008 39.98 3.74004 40.13 3.54004 40.13H0.810059V39.44H3.54004C3.73004 39.44 3.89008 39.59 3.89008 39.79Z" fill="#098299"/>
<path d="M3.89008 42.98C3.89008 43.17 3.74004 43.32 3.54004 43.32H0.810059V42.63H3.54004C3.73004 42.63 3.89008 42.78 3.89008 42.98Z" fill="#098299"/>
<path d="M3.89008 46.18C3.89008 46.37 3.74004 46.52 3.54004 46.52H0.810059V45.83H3.54004C3.73004 45.83 3.89008 45.98 3.89008 46.18Z" fill="#098299"/>
<path d="M3.89008 49.38C3.89008 49.57 3.74004 49.72 3.54004 49.72H0.810059V49.03H3.54004C3.73004 49.03 3.89008 49.18 3.89008 49.38Z" fill="#098299"/>
<path d="M3.89008 52.57C3.89008 52.76 3.74004 52.91 3.54004 52.91H0.810059V52.22H3.54004C3.73004 52.22 3.89008 52.37 3.89008 52.57Z" fill="#098299"/>
<path d="M3.89008 55.77C3.89008 55.96 3.74004 56.11 3.54004 56.11H0.810059V55.42H3.54004C3.73004 55.42 3.89008 55.57 3.89008 55.77Z" fill="#098299"/>
<path d="M3.89008 58.97C3.89008 59.16 3.74004 59.31 3.54004 59.31H0.810059V58.62H3.54004C3.73004 58.62 3.89008 58.77 3.89008 58.97Z" fill="#098299"/>
<path d="M3.89008 62.17C3.89008 62.36 3.74004 62.51 3.54004 62.51H0.810059V61.82H3.54004C3.73004 61.82 3.89008 61.97 3.89008 62.17Z" fill="#098299"/>
</svg>
