<svg width="43" height="70" viewBox="0 0 43 70" fill="none" xmlns="http://www.w3.org/2000/svg">
<path d="M21.04 67.12C21.04 67.12 21.04 67.16 21.04 67.17C21.04 67.68 21.26 68.2 21.1 68.69C20.97 69.08 20.59 69.35 20.2 69.47C19.81 69.59 19.38 69.57 18.97 69.53C18.53 69.49 18.08 69.43 17.73 69.17C17.13 68.72 17.04 67.85 17.21 67.12C17.25 66.95 17.3 66.79 17.35 66.63C17.53 66.08 17.77 65.55 17.87 64.99C17.93 64.64 17.94 64.28 18.05 63.94C18.23 63.42 18.68 63 19.21 62.87C20.77 62.47 21.67 64.16 21.42 65.49C21.32 66.04 21.04 66.57 21.03 67.13L21.04 67.12Z" fill="#FF4B4B"/>
<path d="M21.43 65.48C21.33 66.03 21.05 66.56 21.04 67.12C20.86 66.83 20.87 66.43 21 66.11C21.07 65.95 21.16 65.79 21.22 65.62C21.3 65.38 21.31 65.1 21.24 64.85C21.19 64.68 21.07 64.5 20.9 64.5C20.71 64.5 20.6 64.7 20.48 64.86C20.28 65.13 19.95 65.29 19.62 65.32C19.29 65.35 18.95 65.26 18.66 65.09C18.54 65.02 18.41 64.92 18.27 64.95C18.12 64.98 18.04 65.13 17.98 65.26C17.87 65.54 17.82 65.85 17.69 66.12C17.61 66.3 17.49 66.46 17.36 66.61C17.54 66.06 17.78 65.53 17.88 64.97C17.94 64.62 17.95 64.26 18.06 63.92C18.24 63.4 18.69 62.98 19.22 62.85C20.78 62.45 21.68 64.14 21.43 65.47V65.48Z" fill="#CB4F4E"/>
<path d="M18.33 64.33C18.04 63.36 17.44 54.72 17.14 50.22C17.03 48.6 16.97 47.52 16.97 47.52C16.97 47.52 21.6 46.45 21.24 47.9C21.16 48.22 21.09 49.23 21.04 50.6C20.84 55.37 20.77 64.54 20.77 64.54C20.74 65.56 18.73 65.64 18.33 64.32V64.33Z" fill="#FFB3A6"/>
<path d="M21.03 50.61C19.97 50.94 17.98 50.46 17.14 50.23C17.03 48.61 16.97 47.53 16.97 47.53C16.97 47.53 21.6 46.46 21.24 47.91C21.16 48.23 21.09 49.24 21.04 50.61H21.03Z" fill="#FD9288"/>
<path d="M18.36 65.83C18.36 65.83 18.28 65.78 18.26 65.73C18.23 65.64 18.28 65.55 18.36 65.52C18.41 65.5 19.52 65.15 20.55 65.77C20.63 65.82 20.65 65.92 20.61 65.99C20.56 66.07 20.46 66.09 20.39 66.05C19.49 65.51 18.47 65.83 18.46 65.83C18.42 65.84 18.39 65.84 18.36 65.83Z" fill="white"/>
<path d="M18.34 66.55C18.34 66.55 18.26 66.5 18.24 66.45C18.21 66.36 18.26 66.27 18.34 66.24C18.39 66.22 19.5 65.87 20.53 66.49C20.61 66.54 20.63 66.64 20.59 66.71C20.54 66.79 20.44 66.81 20.37 66.77C19.47 66.23 18.45 66.55 18.44 66.55C18.4 66.56 18.37 66.56 18.34 66.55Z" fill="white"/>
<path d="M18.37 67.34C18.37 67.34 18.29 67.29 18.27 67.24C18.24 67.15 18.29 67.06 18.37 67.03C18.42 67.01 19.53 66.66 20.56 67.28C20.64 67.33 20.66 67.43 20.62 67.5C20.57 67.58 20.47 67.6 20.4 67.56C19.5 67.02 18.48 67.34 18.47 67.34C18.43 67.35 18.4 67.35 18.37 67.34Z" fill="white"/>
<path d="M23.75 67.12C23.75 67.12 23.75 67.16 23.75 67.17C23.75 67.68 23.53 68.2 23.69 68.69C23.82 69.08 24.2001 69.35 24.5901 69.47C24.9801 69.59 25.41 69.57 25.82 69.53C26.26 69.49 26.71 69.43 27.06 69.17C27.66 68.72 27.75 67.85 27.58 67.12C27.54 66.95 27.49 66.79 27.44 66.63C27.26 66.08 27.02 65.55 26.92 64.99C26.86 64.64 26.85 64.28 26.74 63.94C26.56 63.42 26.11 63 25.58 62.87C24.02 62.47 23.12 64.16 23.37 65.49C23.47 66.04 23.75 66.57 23.76 67.13L23.75 67.12Z" fill="#FF4B4B"/>
<path d="M23.36 65.48C23.46 66.03 23.74 66.56 23.75 67.12C23.93 66.83 23.92 66.43 23.79 66.11C23.72 65.95 23.63 65.79 23.57 65.62C23.49 65.38 23.48 65.1 23.55 64.85C23.6 64.68 23.72 64.5 23.89 64.5C24.08 64.5 24.19 64.7 24.31 64.86C24.51 65.13 24.84 65.29 25.17 65.32C25.5 65.35 25.84 65.26 26.13 65.09C26.25 65.02 26.38 64.92 26.5201 64.95C26.6701 64.98 26.75 65.13 26.81 65.26C26.92 65.54 26.97 65.85 27.1 66.12C27.18 66.3 27.3 66.46 27.43 66.61C27.25 66.06 27.01 65.53 26.91 64.97C26.85 64.62 26.84 64.26 26.73 63.92C26.55 63.4 26.1 62.98 25.57 62.85C24.01 62.45 23.11 64.14 23.36 65.47V65.48Z" fill="#CB4F4E"/>
<path d="M26.46 64.33C26.75 63.36 27.35 54.72 27.65 50.22C27.76 48.6 27.82 47.52 27.82 47.52C27.82 47.52 23.19 46.45 23.55 47.9C23.63 48.22 23.7 49.23 23.75 50.6C23.95 55.37 24.02 64.54 24.02 64.54C24.05 65.56 26.06 65.64 26.46 64.32V64.33Z" fill="#FFB3A6"/>
<path d="M23.76 50.61C24.82 50.94 26.81 50.46 27.65 50.23C27.76 48.61 27.82 47.53 27.82 47.53C27.82 47.53 23.19 46.46 23.55 47.91C23.63 48.23 23.7 49.24 23.75 50.61H23.76Z" fill="#FD9288"/>
<path d="M26.4299 65.83C26.4299 65.83 26.5099 65.78 26.5299 65.73C26.5599 65.64 26.5099 65.55 26.4299 65.52C26.3799 65.5 25.2699 65.15 24.2399 65.77C24.1599 65.82 24.1399 65.92 24.1799 65.99C24.2299 66.07 24.3299 66.09 24.3999 66.05C25.2999 65.51 26.3199 65.83 26.3299 65.83C26.3699 65.84 26.3999 65.84 26.4299 65.83Z" fill="white"/>
<path d="M26.4499 66.55C26.4499 66.55 26.5299 66.5 26.5499 66.45C26.5799 66.36 26.5299 66.27 26.4499 66.24C26.3999 66.22 25.2899 65.87 24.2599 66.49C24.1799 66.54 24.1599 66.64 24.1999 66.71C24.2499 66.79 24.3499 66.81 24.4199 66.77C25.3199 66.23 26.3399 66.55 26.3499 66.55C26.3899 66.56 26.4199 66.56 26.4499 66.55Z" fill="white"/>
<path d="M26.4099 67.34C26.4099 67.34 26.4899 67.29 26.5099 67.24C26.5399 67.15 26.4899 67.06 26.4099 67.03C26.3599 67.01 25.2499 66.66 24.2199 67.28C24.1399 67.33 24.1199 67.43 24.1599 67.5C24.2099 67.58 24.3099 67.6 24.3799 67.56C25.2799 67.02 26.2999 67.34 26.3099 67.34C26.3499 67.35 26.3799 67.35 26.4099 67.34Z" fill="white"/>
<path d="M8.35999 22.61C8.35999 22.61 8.33001 22.61 8.31001 22.61C8.22001 22.58 8.18002 22.49 8.20002 22.41C8.61002 21.11 8.47001 19.54 8.31001 17.72C8.09001 15.27 7.85001 12.48 8.88001 9.51998C10.97 3.50998 16.8 1.74001 16.85 1.73001C16.94 1.70001 17.03 1.74999 17.05 1.83999C17.08 1.92999 17.03 2.02 16.94 2.04C16.88 2.06 11.22 3.78 9.18 9.63C8.17 12.53 8.41 15.28 8.62 17.7C8.78 19.55 8.92001 21.16 8.50001 22.51C8.48001 22.58 8.41003 22.62 8.34003 22.62L8.35999 22.61Z" fill="#B04512"/>
<path d="M30.3801 48.43C27.1901 49.71 23.11 48.98 23.11 48.98L22.5801 46.43L21.92 48.94C21.59 49.01 21.2701 49.07 20.9601 49.11C17.1601 49.61 15.16 47.75 15.16 47.75C15.16 47.75 15.9201 44.35 15.8801 42.78C15.8801 42.41 15.88 41.91 15.92 41.38C15.92 41.32 15.92 41.27 15.92 41.21C15.97 40.45 16.04 39.61 16.11 38.93C16.19 38.11 16.2601 37.51 16.2601 37.51L28.0001 37.89C28.1501 38.01 28.3 38.2 28.42 38.44C28.78 39.12 29.04 40.23 29.22 41.36C29.22 41.42 29.2401 41.48 29.2501 41.54C29.5001 43.21 29.5801 44.87 29.5801 45.2C29.5801 45.84 30.3901 48.43 30.3901 48.43H30.3801Z" fill="#0083BD"/>
<path d="M28.4201 38.43C27.0901 38.81 21.5501 40.23 16.1101 38.92C16.1901 38.1 16.2601 37.5 16.2601 37.5L28.0001 37.88C28.1501 38 28.3001 38.19 28.4201 38.43Z" fill="#156D90"/>
<path d="M18.05 40.07C17.58 40.7 16.87 41.14 15.92 41.37C15.92 41.31 15.92 41.26 15.92 41.2C16.8 40.97 17.47 40.56 17.91 39.97C18.65 38.99 18.48 37.84 18.47 37.83L18.6301 37.81C18.6301 37.81 18.81 39.03 18.04 40.07H18.05Z" fill="white"/>
<path d="M29.2501 41.54C25.8201 40.28 26.0501 37.86 26.0501 37.84L26.2101 37.86C26.2101 37.86 26.0001 40.14 29.2201 41.36C29.2201 41.42 29.2401 41.48 29.2501 41.54Z" fill="white"/>
<path d="M17.6901 1.37C10.8701 3.13 9.40005 10.72 9.36005 12.88C9.32005 15.04 9.48004 17.21 9.10004 19.33C8.72004 21.45 7.73004 23.58 5.92004 24.74C8.49004 25.63 11.4801 25.19 13.6801 23.6C13.4301 24.41 12.97 25.15 12.35 25.72C16.42 26.34 20.5001 26.95 24.6201 27.06C26.4701 27.11 28.4201 27.03 30.0201 26.1C30.8601 25.61 31.5501 24.92 32.2001 24.21C33.4101 22.88 34.5301 21.36 34.7701 19.58C34.3801 22.14 33.2601 24.58 31.5701 26.55C33.6001 26.06 34.8301 24.04 35.6901 22.14C36.1101 21.2 36.61 20.27 36.72 19.24C37.32 13.49 35.09 8.04002 33.92 6.23002C32.58 4.17002 30.0501 1.6 24.7101 0.959996C22.8001 0.729996 19.5601 0.910019 17.7001 1.39002L17.6901 1.37Z" fill="#B04512"/>
<path d="M12.5101 17.66C13.0401 18.94 13.1301 20.4 12.7501 21.73C13.3501 21.64 13.9001 21.31 14.2601 20.82C14.5401 22.11 14.5001 23.47 14.1301 24.73C15.3501 24.77 16.59 24.56 17.73 24.12C17.47 24.88 17.2201 25.64 16.9601 26.4C18.6301 27.11 20.3201 27.81 22.1201 28.07C23.9101 28.33 25.84 28.11 27.35 27.11C28.71 26.2 29.6001 24.75 30.3201 23.28C31.1501 21.59 31.8201 19.82 32.3201 18C32.3801 18.98 32.2201 19.97 31.8401 20.87C32.9401 19.46 33.5101 17.65 33.4001 15.87C33.3601 15.14 33.2 14.42 32.92 13.75C32.56 12.9 31.9801 12.16 31.3401 11.49C29.8201 9.9 27.9101 8.69001 25.8201 8.00001C23.4101 7.20001 20.7201 7.11001 18.3401 8.00001C16.6601 8.63001 15.1501 9.77001 14.1301 11.25C13.6001 12.01 13.4301 12.92 12.9601 13.69C12.5601 14.34 11.62 13.89 11.35 14.41C10.94 15.23 12.2001 16.94 12.5001 17.67L12.5101 17.66Z" fill="#813F2F"/>
<path d="M28.2301 35.56C28.2601 36.97 28.3201 38.03 28.4401 38.22C28.4401 38.22 28.1701 38.28 27.6801 38.37C26.2401 38.63 22.9201 39.09 19.3801 38.65C18.2101 38.5 17.0201 38.26 15.8601 37.89C15.8801 37.82 16.1301 36.84 16.2001 35.98C16.2201 35.75 16.2201 35.53 16.2001 35.34C16.1901 35.19 16.1601 35.06 16.1201 34.96C16.1201 34.96 16.0901 34.73 16.0501 34.34C16.0001 33.89 15.9201 33.22 15.8301 32.48C15.7701 31.96 15.7101 31.41 15.6601 30.88C14.5701 30.68 13.9301 24.68 14.1001 24.74C14.8701 25.03 16.1901 25.13 17.3201 25.16C17.5201 25.16 17.7101 25.16 17.9001 25.17C18.0201 25.17 18.1301 25.17 18.2401 25.17C18.9401 25.17 19.4301 25.15 19.4301 25.15C19.6601 25.1 19.9001 25.06 20.1501 25.04C21.8501 24.9 23.4701 24.98 24.8201 25.2C24.8901 25.21 24.9501 25.22 25.0101 25.23C25.1701 25.26 25.3301 25.29 25.4801 25.32C25.5701 25.32 25.6701 25.32 25.7901 25.32C26.0501 25.32 26.3701 25.32 26.7301 25.32C26.7601 25.32 26.7901 25.32 26.8301 25.32C27.0801 25.32 27.3401 25.32 27.6001 25.3C27.6101 25.3 27.6201 25.3 27.6401 25.3C28.0401 25.28 28.4601 25.25 28.8601 25.21C29.5601 25.14 28.6801 30.08 28.3501 32.2C28.2801 32.66 28.2301 32.98 28.2301 33.1C28.2301 33.97 28.2301 34.81 28.2501 35.55L28.2301 35.56Z" fill="#F6C900"/>
<path d="M25.0001 25.24C24.9501 25.52 24.6501 25.87 23.9801 26.29C21.5901 27.81 19.4101 26.8 18.1601 25.88C17.8901 25.68 17.7401 25.65 17.3801 25.16C17.5001 25.16 18.1101 25.17 18.2201 25.17C18.9201 25.17 19.4101 25.15 19.4101 25.15C19.6401 25.1 19.8801 25.06 20.1301 25.04C21.8301 24.9 23.4501 24.98 24.8001 25.2C24.8701 25.21 24.9301 25.22 24.9901 25.23L25.0001 25.24Z" fill="#E0AD00"/>
<path d="M23.9701 25.09C23.9701 25.77 23.9801 26.29 23.9801 26.29C22.1501 27.82 19.8501 26.29 19.8501 26.29C19.8901 26.16 19.9101 25.74 19.9101 25.2C19.9101 24.89 19.9101 24.55 19.9101 24.2C19.9001 23.14 19.8601 22.08 19.8601 22.08H23.9901C23.9701 22.25 23.9701 23.27 23.9701 24.27C23.9701 24.55 23.9701 24.83 23.9701 25.09Z" fill="#FD9288"/>
<path d="M32.5101 13.06C32.5101 17.21 29.9701 20.76 26.3601 22.24C25.9101 22.43 25.4501 22.58 24.9701 22.7C24.2101 22.89 23.4001 22.99 22.5801 22.99C21.0001 22.99 19.5101 22.62 18.1901 21.97C17.7501 21.75 17.3201 21.5 16.9201 21.22C14.3401 19.43 12.6501 16.44 12.6501 13.06C12.6501 7.58 17.0901 3.13 22.5801 3.13C28.0701 3.13 32.5101 7.57 32.5101 13.06Z" fill="#FFB3A6"/>
<path d="M12.25 13C12.25 13 14.36 15 22.46 9.82001C22.46 9.82001 22.33 10.31 22.04 10.78C22.04 10.78 24.99 11.25 27.03 9.38C27.03 9.38 26.8 11.57 26.18 12.02C26.18 12.02 29.8 12.89 31.41 10.97C33.02 9.05 26.88 5.75 26.88 5.75L21.76 6.41L16.81 8.85001L12.26 13.01L12.25 13Z" fill="#FD9288"/>
<path d="M20.67 16.85C20.67 16.85 20.5801 16.83 20.5501 16.8C20.5301 16.78 20.1601 16.37 20.2101 15.88C20.2401 15.61 20.3801 15.38 20.6401 15.19C20.9101 14.99 21.1901 14.91 21.4601 14.96C21.9001 15.04 22.16 15.43 22.17 15.44C22.22 15.52 22.2001 15.62 22.1201 15.67C22.0401 15.72 21.9401 15.7 21.8901 15.62C21.8901 15.62 21.6901 15.33 21.3901 15.28C21.2101 15.25 21.0201 15.3 20.8201 15.45C20.6401 15.58 20.5401 15.73 20.5201 15.9C20.4901 16.24 20.7701 16.56 20.7801 16.57C20.8401 16.64 20.8401 16.74 20.7701 16.8C20.7401 16.83 20.7 16.84 20.66 16.84L20.67 16.85Z" fill="#B84742"/>
<path d="M13.12 13.06C13.12 13.06 11.59 12.66 11.33 14.03C11.07 15.4 13.67 16.16 13.67 16.16L13.12 13.06Z" fill="#FFB3A6"/>
<path d="M32.11 13.2C32.11 13.2 33.6401 12.8 33.9001 14.17C34.1601 15.54 31.5601 16.3 31.5601 16.3L32.11 13.2Z" fill="#FFB3A6"/>
<path d="M14.4901 12.98C16.3101 12.37 18.1302 11.72 19.8302 10.82C21.5302 9.92001 23.1001 8.75 24.2901 7.24C24.2101 8.39 23.7701 9.52002 23.0401 10.42C24.5501 10.39 26.0601 9.90001 27.2901 9.03001C27.4301 9.91001 27.1701 10.84 26.6001 11.52C27.4201 11.67 28.2502 11.83 29.0902 11.79C29.9302 11.75 30.7801 11.51 31.4101 10.96C31.7201 12.31 31.8301 13.7 31.7401 15.09C32.5601 14.03 32.8401 12.63 32.7501 11.29C32.6601 9.95002 32.2301 8.66001 31.7501 7.41001C31.4101 6.50001 31.0301 5.59002 30.4301 4.82002C29.4901 3.61002 28.0401 2.87 26.5501 2.52C25.0601 2.17 23.5101 2.18002 21.9801 2.26002C20.6601 2.33002 19.3202 2.45002 18.0902 2.95002C16.6802 3.52002 15.5001 4.57001 14.5001 5.72001C13.6101 6.74001 12.8301 7.86001 12.3601 9.13001C11.9601 10.19 11.7701 11.43 12.0101 12.55C12.2501 13.68 13.6801 13.27 14.4901 13V12.98Z" fill="#B04512"/>
<path d="M23.9801 26.29C22.1501 27.82 19.8501 26.29 19.8501 26.29C19.8901 26.16 19.9101 25.74 19.9101 25.2C21.3101 25.38 22.9101 24.77 23.9601 24.26C23.9601 24.54 23.9601 24.82 23.9601 25.08C23.9601 25.76 23.9701 26.28 23.9701 26.28L23.9801 26.29Z" fill="#FFB3A6"/>
<path d="M22.5801 46.43L21.92 48.94C21.59 49.01 21.2701 49.07 20.9601 49.11C21.5501 47.78 22.2701 44.86 22.2701 44.86L22.5801 46.43Z" fill="#156D90"/>
<path d="M24.3901 31.65C24.2801 31.37 23.8601 31.51 23.9201 31.8C24.0301 32.37 24.3601 32.92 24.6701 33.42C24.5201 33.04 24.17 32.78 23.79 32.66C23.65 32.62 23.5201 32.58 23.3801 32.56C23.1001 32.52 22.9201 32.86 23.1301 33.06C23.5101 33.42 23.9201 33.75 24.3601 34.04C23.9801 33.9 23.5601 33.82 23.1801 33.92C23.0601 33.95 22.95 34 22.85 34.07C22.56 34.27 22.75 34.74 23.1 34.66C23.55 34.56 23.9901 34.4 24.4001 34.19C24.0501 34.39 23.7701 34.71 23.5901 35.07C23.4601 35.33 23.8001 35.59 24.0201 35.39C24.3701 35.08 24.6801 34.74 24.9601 34.37C24.7101 34.78 24.5101 35.27 24.5101 35.74C24.5101 36.07 24.9501 36.18 25.1201 35.89C25.2201 35.72 25.2701 35.52 25.3001 35.33C25.3501 34.92 25.3001 34.5 25.3401 34.08C25.3201 34.44 25.3801 34.8 25.5001 35.13C25.6101 35.43 26.0701 35.32 26.0301 35.01C25.9801 34.54 25.8501 34.07 25.6401 33.64C25.7301 34.02 26.0101 34.35 26.3801 34.49C26.5301 34.55 26.7101 34.53 26.8301 34.42C26.9901 34.27 26.94 34.08 26.85 33.92C26.59 33.45 26 33.2 25.48 33.34C25.82 33.32 26.1201 33.11 26.3101 32.83C26.4301 32.65 26.5201 32.46 26.5801 32.25C26.6501 32.03 26.44 31.83 26.22 31.91C26.05 31.97 25.9001 32.08 25.7801 32.22C25.5601 32.47 25.4601 32.8 25.3601 33.12C25.6201 32.67 25.7201 32.15 25.6801 31.64C25.6501 31.3 25.15 31.29 25.1 31.64C25.09 31.75 25.0801 31.86 25.0701 31.96C25.0501 32.31 25.0601 32.69 25.0001 33.03C24.7401 33 24.5101 31.93 24.4001 31.67L24.3901 31.65Z" fill="#FF7A81"/>
<path d="M19.4401 38.61C19.4401 38.61 19.4001 38.63 19.3701 38.64C18.2001 38.49 17.0101 38.25 15.8501 37.88C15.8701 37.81 16.1201 36.83 16.1901 35.97C16.2501 35.88 16.3101 35.78 16.3801 35.7C16.4301 35.64 16.4801 35.57 16.5501 35.54C16.6201 35.51 16.7201 35.54 16.7601 35.6C16.7801 35.64 16.7701 35.68 16.7601 35.71C16.7201 36.18 16.6501 36.65 16.5401 37.11C16.6701 36.82 16.8801 36.55 17.0801 36.3C17.3501 35.97 17.6201 35.64 17.8901 35.31C17.9201 35.27 17.9601 35.23 18.0101 35.23C18.1301 35.23 18.1501 35.4 18.1101 35.52C17.9901 35.93 17.8201 36.31 17.5901 36.67C17.7901 36.49 18.0302 36.35 18.2802 36.26C18.4502 36.2 18.7101 36.23 18.7101 36.4C18.7101 36.47 18.6601 36.53 18.6101 36.58C18.2801 36.93 17.9201 37.25 17.5401 37.54C18.0101 37.24 18.5901 37.13 19.1401 37.23C19.2201 37.25 19.3301 37.29 19.3201 37.38C19.3201 37.44 19.2501 37.47 19.1901 37.5C18.8401 37.65 18.4801 37.78 18.1201 37.9C18.5701 37.82 19.0401 37.9 19.3601 38.21C19.4701 38.32 19.5501 38.52 19.4301 38.62L19.4401 38.61Z" fill="#FF7A81"/>
<path d="M18.2201 4.85999C17.5801 5.44999 17.1301 6.21999 16.6801 6.95999C15.6501 8.62999 14.5201 10.24 13.2901 11.76C13.0801 12.02 12.8601 12.28 12.6201 12.51C13.6201 11.93 14.5001 10.84 15.2301 9.95999C16.0501 8.96999 16.7601 7.90001 17.3601 6.76001C17.5201 6.45001 17.6801 6.13 17.8201 5.81C17.9301 5.57 18.0401 5.01 18.2201 4.84V4.85999Z" fill="#813F2F"/>
<path d="M23.9 3.79999C23.78 4.43999 23.36 4.98 22.94 5.47C21.46 7.2 19.72 8.77001 17.63 9.70001C17 9.98001 16.38 10.29 15.75 10.57C18.14 9.16001 20.48 7.65 22.4 5.62C22.94 5.05 23.44 4.43999 23.89 3.79999H23.9Z" fill="#813F2F"/>
<path d="M32.5101 6.67001C32.4401 6.67001 32.3701 6.61998 32.3501 6.54998C32.0801 5.59998 32.0201 4.89 31.9801 4.32C31.9001 3.28 31.8601 2.76 30.6401 2C28.7101 0.809996 23.6001 1.17001 23.5501 1.17001C23.4601 1.17001 23.3801 1.10999 23.3801 1.01999C23.3801 0.929986 23.4402 0.850003 23.5302 0.850003C23.7402 0.830003 28.7901 0.479998 30.8101 1.72C32.1701 2.56 32.2301 3.25001 32.3101 4.29C32.3501 4.85001 32.4101 5.54001 32.6701 6.45001C32.7001 6.54001 32.6501 6.62999 32.5601 6.64999C32.5401 6.64999 32.5301 6.64999 32.5101 6.64999V6.67001Z" fill="#B04512"/>
<path d="M16.3401 33.14C16.2801 33.28 16.3101 33.44 16.3301 33.59C16.3701 33.89 16.4001 34.78 16.1901 35.34C16.1801 35.19 16.15 35.06 16.11 34.96C16.04 34.35 15.9401 33.53 15.8201 32.49C16.6601 32.27 17.1201 31.58 17.4601 30.78C17.8301 29.93 17.9101 29.41 17.9901 28.63C18.6601 30.75 16.4901 32.77 16.3301 33.15L16.3401 33.14Z" fill="#E0AD00"/>
<path d="M14.16 32.74C14.97 33.1 15.77 32.9 16.48 32.35C17.19 31.8 17.87 30.56 17.87 29.52C17.87 29.42 16.8 29.24 16.26 29.2C15.68 29.16 15.11 29.1 14.54 29C14.05 28.92 13.54 28.82 13.07 28.97C12.32 29.21 12 30.04 12.32 30.71C12.69 31.49 13.36 32.36 14.17 32.72L14.16 32.74Z" fill="#F6C900"/>
<path d="M19.2101 17.78C19.0201 18.18 18.8701 18.6 18.7501 19.03C18.5101 19.9 18.37 20.79 18.23 21.68C18.22 21.77 18.2001 21.86 18.1901 21.96C17.7501 21.74 17.32 21.49 16.92 21.21C17.14 19.79 17.5101 18.33 18.5001 17.29C18.6301 17.15 18.79 17.01 18.98 16.99C19.14 16.97 19.37 17.07 19.41 17.25C19.45 17.42 19.2801 17.63 19.2101 17.78Z" fill="#FD9288"/>
<path d="M19.5601 14.88C19.4801 14.88 19.4101 14.85 19.3501 14.8C17.2701 13.01 15.4401 14.71 15.3701 14.79C15.2401 14.91 15.0301 14.91 14.9101 14.79C14.7901 14.66 14.7901 14.46 14.9101 14.33C14.9301 14.31 17.2401 12.13 19.7701 14.32C19.9101 14.44 19.9201 14.64 19.8001 14.78C19.7401 14.85 19.6401 14.89 19.5501 14.89L19.5601 14.88Z" fill="#1E0E00"/>
<path d="M28.44 14.88C28.36 14.88 28.29 14.85 28.23 14.8C26.15 13.01 24.32 14.71 24.25 14.79C24.12 14.91 23.91 14.91 23.79 14.79C23.67 14.66 23.67 14.46 23.79 14.33C23.81 14.31 26.12 12.13 28.65 14.32C28.79 14.44 28.8 14.64 28.68 14.78C28.62 14.85 28.52 14.89 28.43 14.89L28.44 14.88Z" fill="#1E0E00"/>
<path d="M28.12 12.85C28.3 12.82 28.49 12.78 28.63 12.67C28.77 12.56 28.8601 12.35 28.7801 12.18C28.7101 12.03 28.54 11.96 28.38 11.94C28.04 11.88 27.6901 11.94 27.3401 11.98C26.8501 12.04 26.33 12.07 25.86 11.91C25.35 11.74 24.92 11.35 24.39 11.24C24.18 11.19 23.9301 11.2 23.7701 11.35C23.3801 11.69 23.83 11.9 24.08 12.04C24.49 12.27 24.9 12.48 25.35 12.63C26.24 12.92 27.19 13 28.12 12.86V12.85Z" fill="#813F2F"/>
<path d="M15.16 12.74C14.98 12.71 14.79 12.67 14.65 12.56C14.51 12.45 14.42 12.24 14.5 12.07C14.57 11.92 14.74 11.85 14.9 11.83C15.24 11.77 15.59 11.83 15.94 11.87C16.43 11.93 16.95 11.96 17.42 11.8C17.93 11.63 18.36 11.24 18.89 11.13C19.1 11.08 19.35 11.09 19.51 11.24C19.9 11.58 19.45 11.79 19.2 11.93C18.79 12.16 18.38 12.37 17.93 12.52C17.04 12.81 16.09 12.89 15.16 12.75V12.74Z" fill="#813F2F"/>
<path d="M18.1401 19.18C18.5101 18.91 18.8601 18.41 19.0901 18.02C19.6701 17.07 19.9801 16.03 20.3301 14.96C20.3701 14.83 20.3701 14.63 20.3801 14.49C20.4001 14.27 20.0501 14.2 19.8901 14.34C19.4901 14.71 19.17 15.17 18.99 15.69C19.29 14.87 19.5401 14.01 19.5101 13.13C19.5101 12.97 19.44 12.77 19.29 12.77C19.28 12.77 19.2601 12.77 19.2501 12.77C19.0601 12.82 18.92 12.98 18.86 13.17C18.6 13.94 18.3501 14.72 18.1401 15.51C18.2701 14.98 18.36 14.44 18.41 13.89C18.44 13.51 18.4401 13.09 18.3101 12.73C18.2101 12.47 17.8601 12.45 17.7501 12.69C17.7101 12.8 17.6701 12.91 17.6401 13.02C17.4201 13.85 17.2501 14.7 17.1501 15.56C17.2401 14.89 17.2401 14.2 17.1501 13.52C17.1301 13.38 17.1101 13.23 17.0201 13.12C16.9301 13.01 16.7601 12.95 16.6501 13.04C16.5801 13.1 16.5501 13.19 16.5301 13.28C16.2701 14.42 16.0901 15.59 16.0101 16.77C15.8001 16.31 15.5701 15.86 15.3201 15.42C15.2301 15.27 15.1101 15.1 14.9401 15.1C14.8001 15.1 14.7 15.22 14.66 15.36C14.63 15.49 14.66 15.63 14.68 15.77C14.89 16.76 15.0501 17.93 15.5601 18.81C16.0401 19.63 17.3901 19.75 18.1501 19.2L18.1401 19.18Z" fill="#FD9288"/>
<path d="M12.65 26.08C11.87 27.2 11.63 28.68 12.03 29.99C12.27 30.79 12.76 31.53 13.49 31.95C14.1 32.3 14.85 32.4 15.53 32.2C16.21 32.01 16.8 31.53 17.12 30.9C17.61 29.95 17.48 28.8 17.16 27.78C17.01 27.29 16.81 26.8 16.49 26.39C15.62 25.27 13.55 24.78 12.64 26.08H12.65Z" fill="#533F00"/>
<path d="M17.8501 19.12C18.2201 18.85 18.4801 18.47 18.7301 18.09C19.3301 17.14 19.8101 16.13 20.1801 15.08C20.2301 14.95 20.2701 14.81 20.2801 14.67C20.3001 14.46 20.0501 14.32 19.8901 14.47C19.4801 14.84 19.1701 15.3 18.9701 15.81C19.2801 15 19.5401 14.15 19.5201 13.28C19.5201 13.13 19.4601 12.93 19.3001 12.93C19.2901 12.93 19.2701 12.93 19.2601 12.93C19.0701 12.98 18.9301 13.14 18.8601 13.33C18.5901 14.09 18.3401 14.86 18.1101 15.64C18.2501 15.12 18.3501 14.58 18.4001 14.04C18.4401 13.66 18.4401 13.25 18.3101 12.9C18.2201 12.65 17.8601 12.63 17.7601 12.87C17.7101 12.98 17.6801 13.09 17.6501 13.2C17.4101 14.02 17.2401 14.86 17.1201 15.7C17.2201 15.04 17.2301 14.36 17.1501 13.69C17.1301 13.55 17.1101 13.41 17.0201 13.3C16.9301 13.19 16.7601 13.14 16.6501 13.22C16.5801 13.28 16.5501 13.37 16.5301 13.46C16.2501 14.59 16.0601 15.74 15.9601 16.9C15.7601 16.45 15.5401 16.01 15.2901 15.58C15.2101 15.43 15.0901 15.27 14.9201 15.27C14.7801 15.27 14.6801 15.4 14.6401 15.53C14.6101 15.66 14.6301 15.8 14.6601 15.93C14.8601 16.9 15.2101 17.83 15.7101 18.68C16.1701 19.48 17.0801 19.66 17.8401 19.11L17.8501 19.12Z" fill="#FFB3A6"/>
<path d="M28.2101 33.11C28.2101 33.97 28.2101 34.82 28.2301 35.56C28.1901 35.9 28.1001 36.23 27.9701 36.54C27.8101 34.65 27.7701 33.82 27.4201 33.22C26.9001 32.33 25.8901 32.12 25.3901 30.81C25.3001 30.56 25.0601 29.93 25.2201 29.69C25.3301 29.78 25.3701 30.05 25.4401 30.19C25.8701 31.19 26.4801 31.66 27.2901 31.98C27.6401 32.12 27.9601 32.2 28.3401 32.2C28.3101 32.38 28.2201 32.95 28.2201 33.1L28.2101 33.11Z" fill="#E0AD00"/>
<path d="M15.4501 17.73C15.4501 17.73 15.2401 19.55 14.6501 21.27C14.0501 22.99 11.7901 27.44 12.6801 29.31C13.5701 31.18 16.6701 31.44 16.8901 28.46C17.1101 25.48 17.8901 19.35 18.4101 18.56C18.9301 17.77 15.4501 17.73 15.4501 17.73Z" fill="#FFB3A6"/>
<path d="M26.36 22.24C25.91 22.43 25.45 22.58 24.97 22.7C24.95 22.53 24.94 22.37 24.93 22.2C24.86 21.2 24.73 20.2 24.55 19.21C24.47 18.77 24.3701 18.33 24.2001 17.91C24.1401 17.76 23.5701 16.83 24.2001 17.02C24.3501 17.07 24.4501 17.21 24.5301 17.35C25.4201 18.86 26.18 20.51 26.36 22.24Z" fill="#FD9288"/>
<path d="M28.8699 32.17C28.0599 32.53 27.0699 32.33 26.3599 31.79C25.6599 31.25 25.2299 30.4 25.0599 29.53C25.0399 29.43 25.0299 29.33 25.0599 29.24C25.0899 29.16 25.1599 29.09 25.2299 29.03C25.6599 28.7 26.24 28.67 26.77 28.64C27.35 28.6 27.9199 28.54 28.4899 28.44C28.9799 28.36 29.49 28.26 29.96 28.41C30.71 28.65 31.03 29.48 30.71 30.15C30.34 30.93 29.6699 31.8 28.8599 32.16L28.8699 32.17Z" fill="#F6C900"/>
<path d="M24.9001 18.62C24.5301 18.35 24.18 17.85 23.95 17.46C23.37 16.51 23.0601 15.47 22.7101 14.4C22.6701 14.27 22.67 14.07 22.66 13.93C22.64 13.71 22.9901 13.64 23.1501 13.78C23.5501 14.15 23.87 14.61 24.05 15.13C23.75 14.31 23.5001 13.45 23.5301 12.57C23.5301 12.41 23.6 12.21 23.75 12.21C23.76 12.21 23.78 12.21 23.79 12.21C23.98 12.26 24.12 12.42 24.18 12.61C24.44 13.38 24.6901 14.16 24.9001 14.95C24.7701 14.42 24.68 13.88 24.63 13.33C24.6 12.95 24.6 12.53 24.73 12.17C24.83 11.91 25.18 11.89 25.29 12.13C25.33 12.24 25.3701 12.35 25.4001 12.46C25.6201 13.29 25.79 14.14 25.89 15C25.8 14.33 25.8 13.64 25.89 12.96C25.91 12.82 25.93 12.67 26.02 12.56C26.11 12.45 26.28 12.39 26.39 12.48C26.46 12.54 26.49 12.63 26.51 12.72C26.77 13.86 26.9501 15.03 27.0301 16.21C27.2401 15.75 27.47 15.3 27.72 14.86C27.81 14.71 27.93 14.54 28.1 14.54C28.24 14.54 28.34 14.66 28.38 14.8C28.41 14.93 28.38 15.07 28.36 15.21C28.15 16.2 27.99 17.37 27.48 18.25C27 19.07 25.65 19.19 24.89 18.64L24.9001 18.62Z" fill="#FD9288"/>
<path d="M30.38 25.51C31.16 26.63 31.4 28.11 31 29.42C30.76 30.22 30.27 30.96 29.54 31.38C28.93 31.73 28.18 31.83 27.5 31.63C26.82 31.44 26.23 30.96 25.91 30.33C25.42 29.38 25.55 28.23 25.87 27.21C26.02 26.72 26.22 26.23 26.54 25.82C27.41 24.7 29.48 24.21 30.39 25.51H30.38Z" fill="#533F00"/>
<path d="M25.1899 18.55C24.8199 18.28 24.5599 17.9 24.3099 17.52C23.7099 16.57 23.2299 15.56 22.8599 14.51C22.8099 14.38 22.7699 14.24 22.7599 14.1C22.7399 13.89 22.9899 13.75 23.1499 13.9C23.5599 14.27 23.8699 14.73 24.0699 15.24C23.7599 14.43 23.4999 13.58 23.5199 12.71C23.5199 12.56 23.5799 12.36 23.7399 12.36C23.7499 12.36 23.7699 12.36 23.7799 12.36C23.9699 12.41 24.1099 12.57 24.1799 12.76C24.4499 13.52 24.6999 14.29 24.9299 15.07C24.7899 14.55 24.6899 14.01 24.6399 13.47C24.5999 13.09 24.5999 12.68 24.7299 12.33C24.8199 12.08 25.1799 12.06 25.2799 12.3C25.3299 12.41 25.3599 12.52 25.3899 12.63C25.6299 13.45 25.7999 14.29 25.9199 15.13C25.8199 14.47 25.8099 13.79 25.8899 13.12C25.9099 12.98 25.9299 12.84 26.0199 12.73C26.1099 12.62 26.2799 12.57 26.3899 12.65C26.4599 12.71 26.4899 12.8 26.5099 12.89C26.7899 14.02 26.9799 15.17 27.0799 16.33C27.2799 15.88 27.4999 15.44 27.7499 15.01C27.8299 14.86 27.9499 14.7 28.1199 14.7C28.2599 14.7 28.3599 14.83 28.3999 14.96C28.4299 15.09 28.4099 15.23 28.3799 15.36C28.1799 16.33 27.8299 17.26 27.3299 18.11C26.8699 18.91 25.9599 19.09 25.1999 18.54L25.1899 18.55Z" fill="#FFB3A6"/>
<path d="M27.59 17.16C27.59 17.16 27.8 18.98 28.39 20.7C28.99 22.42 31.25 26.87 30.36 28.74C29.47 30.61 26.37 30.87 26.15 27.89C25.93 24.91 25.15 18.78 24.63 17.99C24.11 17.2 27.59 17.16 27.59 17.16Z" fill="#FFB3A6"/>
<path d="M23.87 19.32C23.76 19.61 23.4699 19.79 23.1599 19.85C23.1199 19.85 23.09 19.86 23.05 19.87C22.7 19.91 22.36 19.82 22.02 19.76C21.68 19.7 21.31 19.68 20.99 19.81C20.91 19.84 20.84 19.89 20.77 19.94C20.54 20.1 20.35 20.33 20.12 20.5C19.82 20.72 19.37 20.84 19.11 20.58C18.47 19.94 19.48 19.21 19.95 18.92C20.61 18.51 21.36 18.26 22.13 18.15C22.55 18.09 23 18.08 23.38 18.27C23.76 18.46 24.03 18.92 23.88 19.32H23.87Z" fill="#B84742"/>
<path d="M23.37 19.48C23.31 19.61 23.24 19.73 23.16 19.85C23.12 19.85 23.09 19.86 23.05 19.87C22.7 19.91 22.36 19.82 22.02 19.76C21.68 19.7 21.31 19.68 20.99 19.81C20.91 19.84 20.84 19.89 20.77 19.94C20.96 19.5 21.64 19.2 22.05 19.27C22.13 19.28 22.2 19.31 22.28 19.29C22.36 19.28 22.43 19.22 22.5 19.17C22.69 19.05 22.9 18.98 23.12 18.96C23.19 18.96 23.26 18.96 23.32 18.99C23.47 19.08 23.44 19.3 23.37 19.46V19.48Z" fill="#F3574B"/>
<path d="M10.7501 12.99C10.7501 12.99 6.96015 12.14 6.57015 14.19C6.21015 16.12 8.64014 13.47 10.7501 12.99Z" fill="#84C5E6"/>
<path d="M3.09008 7.38C3.09008 7.38 1.28007 5.98999 0.510067 7.39999C-0.209933 8.72999 1.82008 7.3 3.09008 7.38Z" fill="#84C5E6"/>
<path d="M6.00006 19.42C6.00006 19.42 2.97006 20.34 3.94006 22.34C4.85006 24.22 4.89006 20.78 6.00006 19.42Z" fill="#84C5E6"/>
<path d="M15.1901 8.63C15.1901 8.63 14.3001 5.46001 12.3801 6.23001C10.5701 6.95001 13.8801 7.36 15.1901 8.63Z" fill="#84C5E6"/>
<path d="M31.1901 13.72C31.1901 13.72 34.9801 12.87 35.3701 14.92C35.7301 16.85 33.3001 14.2 31.1901 13.72Z" fill="#84C5E6"/>
<path d="M35.6801 3.54999C35.6801 3.54999 37.4901 2.16001 38.2601 3.57001C38.9801 4.90001 36.9501 3.46999 35.6801 3.54999Z" fill="#84C5E6"/>
<path d="M40.3601 23.88C40.3601 23.88 43.3901 24.8 42.4201 26.8C41.5101 28.68 41.4701 25.24 40.3601 23.88Z" fill="#84C5E6"/>
<path d="M30 9.23C30 9.23 30.89 6.05998 32.81 6.82998C34.62 7.54998 31.31 7.96 30 9.23Z" fill="#84C5E6"/>
</svg>
