<svg width="73" height="37" viewBox="0 0 73 37" fill="none" xmlns="http://www.w3.org/2000/svg">
<path d="M67.96 4.52002C65.13 6.36002 62.24 7.64998 59.39 8.34998C56.18 9.13998 52.94 9.17002 50.03 8.46002C49.91 8.43002 49.7799 8.39999 49.6599 8.35999C48.2099 9.80999 46.3199 10.76 44.4899 11.57C44.1699 11.71 43.85 11.85 43.53 11.99C41.95 12.68 40.3099 13.38 38.8799 14.39C37.0399 15.68 35.8099 17.34 35.4099 19.08C36.7099 19 37.9799 18.89 39.2399 18.74C39.3399 18.73 39.4399 18.71 39.5399 18.7C40.4999 16.77 42.4499 15.19 45.0399 14.26C46.8699 13.6 48.82 13.3 50.71 13.01C51.19 12.94 51.67 12.86 52.15 12.78C56.47 12.06 60.72 10.86 64.78 9.21002C66.7 8.43002 68.81 7.39999 69.95 5.62C69.83 4.71 69.7 3.81 69.53 2.94C69.53 2.94 69.53 2.95002 69.53 2.96002C69.23 3.68002 68.6299 4.11998 67.9799 4.53998L67.96 4.52002ZM38.95 17.41C38.85 17.58 38.6399 17.67 38.4399 17.67C38.3599 17.67 38.28 17.65 38.21 17.62C38.03 17.54 37.9599 17.42 37.9299 17.33C37.8899 17.21 37.9099 17.07 37.9799 16.94C38.0899 16.75 38.2699 16.64 38.4799 16.64C38.6899 16.64 38.8799 16.75 38.9699 16.92C39.0499 17.07 39.0399 17.24 38.9399 17.4L38.95 17.41ZM41.96 14.68C41.86 14.85 41.65 14.94 41.45 14.94C41.37 14.94 41.2899 14.92 41.2199 14.89C41.0399 14.81 40.9699 14.69 40.9399 14.6C40.8999 14.48 40.9199 14.34 40.9899 14.21C41.0999 14.02 41.2799 13.91 41.4899 13.91C41.6999 13.91 41.8899 14.02 41.9799 14.19C42.0599 14.34 42.05 14.51 41.95 14.67L41.96 14.68ZM46.0599 12.67C45.9599 12.84 45.7499 12.93 45.5499 12.93C45.4699 12.93 45.3899 12.91 45.3199 12.88C45.1399 12.8 45.0699 12.68 45.0399 12.59C44.9999 12.47 45.02 12.33 45.09 12.2C45.2 12.01 45.38 11.9 45.59 11.9C45.8 11.9 45.99 12.01 46.08 12.18C46.16 12.33 46.1499 12.5 46.0499 12.66L46.0599 12.67ZM50.6599 11.82C50.5599 11.99 50.35 12.08 50.15 12.08C50.07 12.08 49.9899 12.06 49.9199 12.03C49.7399 11.95 49.67 11.83 49.64 11.74C49.6 11.62 49.6199 11.48 49.6899 11.35C49.7999 11.16 49.9799 11.05 50.1899 11.05C50.3999 11.05 50.5899 11.16 50.6799 11.33C50.7599 11.48 50.75 11.65 50.65 11.81L50.6599 11.82ZM54.45 11.23C54.35 11.39 54.1399 11.49 53.9399 11.49C53.8599 11.49 53.78 11.47 53.7 11.44C53.52 11.36 53.4499 11.24 53.4199 11.15C53.3799 11.03 53.3999 10.89 53.4799 10.76C53.5899 10.57 53.7799 10.46 53.9899 10.46C54.1999 10.46 54.3899 10.57 54.4799 10.74C54.5599 10.89 54.5499 11.06 54.4399 11.22L54.45 11.23ZM58.78 10.3C58.67 10.44 58.4899 10.52 58.2999 10.52C58.1999 10.52 58.11 10.5 58.02 10.45C57.84 10.35 57.7799 10.23 57.7599 10.14C57.7299 10.02 57.76 9.88001 57.84 9.76001C57.97 9.57001 58.1599 9.48 58.3699 9.5C58.5799 9.52 58.76 9.64001 58.84 9.82001C58.91 9.98001 58.88 10.15 58.77 10.3H58.78ZM63.03 8.91998C62.92 9.05998 62.7399 9.14001 62.5499 9.14001C62.4499 9.14001 62.36 9.12001 62.27 9.07001C62.09 8.97001 62.0299 8.85001 62.0099 8.76001C61.9799 8.64001 62.01 8.5 62.09 8.38C62.22 8.19 62.4099 8.1 62.6199 8.12C62.8299 8.14 63.01 8.26 63.09 8.44C63.16 8.6 63.13 8.76998 63.02 8.91998H63.03ZM66.9399 7.08002C66.8399 7.27002 66.62 7.39001 66.4 7.39001C66.34 7.39001 66.2799 7.38999 66.2199 7.35999C66.0299 7.29999 65.9499 7.17998 65.9099 7.09998C65.8599 6.97998 65.8599 6.85002 65.9299 6.71002C66.0199 6.51002 66.1999 6.37999 66.4099 6.35999C66.6199 6.33999 66.8199 6.43003 66.9299 6.59003C67.0299 6.73003 67.0299 6.90001 66.9399 7.07001V7.08002Z" fill="#7D3A21"/>
<path d="M54 10.64C53.91 10.64 53.75 10.66 53.64 10.85C53.59 10.94 53.58 11.02 53.6 11.1C53.62 11.18 53.69 11.24 53.79 11.28C53.96 11.36 54.22 11.29 54.32 11.13C54.39 11.02 54.4 10.92 54.35 10.82C54.29 10.71 54.15 10.63 54.01 10.63L54 10.64Z" fill="#7A3821"/>
<path d="M48 7.59998C48.68 7.81998 49.39 8.04002 50.09 8.21002C52.96 8.92002 56.15 8.87998 59.32 8.09998C62.14 7.40998 65 6.12999 67.81 4.29999C68.42 3.89999 68.99 3.49003 69.26 2.84003C69.35 2.63003 69.38 2.41997 69.36 2.21997C69.25 0.889971 67.45 0.790029 66.9 0.780029C63.4 0.780029 59.95 2.06 56.62 3.31C53.21 4.58 49.69 5.89003 46.1 5.84003C46.33 6.33003 46.47 6.78 46.45 7.13C46.97 7.27 47.49 7.43998 47.99 7.59998H48Z" fill="#D4B4A3"/>
<path d="M58.37 9.67999C58.28 9.67999 58.12 9.68 58 9.87C57.94 9.95 57.92 10.04 57.94 10.11C57.96 10.19 58.02 10.25 58.11 10.31C58.28 10.4 58.53 10.35 58.64 10.2C58.72 10.1 58.73 9.99002 58.69 9.90002C58.64 9.78002 58.51 9.69999 58.36 9.67999H58.37Z" fill="#7A3821"/>
<path d="M41.4699 20.45C41.6499 20.53 41.8999 20.45 41.9899 20.3C42.0599 20.19 42.07 20.09 42.02 19.99C41.96 19.88 41.8199 19.8 41.6799 19.8C41.5899 19.8 41.43 19.83 41.33 20.02C41.28 20.11 41.2699 20.19 41.2899 20.27C41.3099 20.35 41.3799 20.41 41.4799 20.45H41.4699Z" fill="#7A3821"/>
<path d="M66.47 6.53998C66.47 6.53998 66.45 6.53998 66.43 6.53998C66.34 6.53998 66.19 6.58998 66.09 6.78998C66.05 6.87998 66.04 6.96998 66.08 7.03998C66.11 7.10998 66.18 7.17001 66.29 7.20001C66.47 7.26001 66.71 7.17 66.8 7C66.86 6.89 66.86 6.78 66.8 6.69C66.73 6.59 66.61 6.53003 66.48 6.53003L66.47 6.53998Z" fill="#7A3821"/>
<path d="M28.5499 16.2C32.1099 13.32 36.2399 10.97 40.2499 8.69001C41.1999 8.15001 42.19 7.59004 43.14 7.03004C43.59 6.77004 44.1199 6.65999 44.6199 6.72999C45.1499 6.80999 45.69 6.92001 46.21 7.06001C46.21 6.72001 46.0499 6.26003 45.7999 5.77003C45.7999 5.77003 45.7999 5.77002 45.7999 5.76002C45.3199 4.83002 44.5099 3.80003 43.8599 3.34003C43.3499 2.98003 42.4 2.32003 41.59 2.40003C41.1 2.45003 40.7099 2.82 40.3199 3.24C37.6299 6.08 34.93 9.10002 32.33 12.01C31.04 13.46 29.7999 14.84 28.5699 16.2H28.5499Z" fill="#7D3A21"/>
<path d="M49.95 21.61C50.06 21.55 50.13 21.47 50.13 21.36C50.13 21.23 50.06 21.1 49.93 21.02C49.89 20.99 49.82 20.96 49.73 20.96C49.67 20.96 49.59 20.98 49.51 21.02C49.42 21.07 49.37 21.14 49.35 21.21C49.33 21.29 49.35 21.37 49.42 21.46C49.53 21.62 49.78 21.68 49.95 21.6V21.61Z" fill="#7A3821"/>
<path d="M45.9799 20.3C46.1499 20.38 46.4099 20.3 46.4999 20.15C46.5699 20.04 46.58 19.94 46.53 19.84C46.47 19.73 46.3299 19.65 46.1899 19.65C46.0999 19.65 45.94 19.68 45.83 19.87C45.78 19.96 45.7699 20.04 45.7899 20.12C45.8099 20.2 45.8799 20.26 45.9799 20.3Z" fill="#7A3821"/>
<path d="M52.38 24.34C52.5 24.3 52.58 24.23 52.6 24.12C52.63 24 52.57 23.85 52.46 23.75C52.4 23.69 52.25 23.61 52.05 23.68C51.96 23.71 51.89 23.77 51.86 23.84C51.83 23.91 51.84 23.9999 51.88 24.0999C51.96 24.2699 52.2 24.38 52.38 24.33V24.34Z" fill="#7A3821"/>
<path d="M24.9599 17.61C25.3199 18.19 25.9599 18.64 26.7599 18.88C27.4799 19.1 28.24 19.1299 29.03 19.1599C31.13 19.2199 33.1999 19.19 35.2299 19.08C35.6299 17.29 36.88 15.57 38.78 14.24C40.22 13.23 41.87 12.51 43.46 11.83C43.78 11.69 44.0999 11.5499 44.4199 11.4099C46.2099 10.6199 48.0499 9.69997 49.4699 8.30997C48.9499 8.16997 48.4299 8 47.9299 7.84C46.8399 7.5 45.72 7.13995 44.58 6.97995C44.14 6.91995 43.67 7.00997 43.27 7.24997C42.32 7.79997 41.3299 8.35994 40.3799 8.90994C35.7699 11.5299 31 14.25 27.14 17.74C27.14 17.74 27.1199 17.74 27.1199 17.75C27.1199 17.75 27.1199 17.75 27.1099 17.75C27.0899 17.75 27.0799 17.75 27.0599 17.75C27.0399 17.75 27.0299 17.75 27.0099 17.74C27.0099 17.74 27.0099 17.74 26.9999 17.74C26.9999 17.74 26.9799 17.7399 26.9799 17.7199C26.9799 17.7199 26.9799 17.71 26.9799 17.7C26.9799 17.7 26.9699 17.69 26.9699 17.68V17.6599V17.64V17.62V17.5999C26.9699 17.5999 26.9699 17.59 26.9799 17.58C26.9799 17.58 26.9799 17.57 26.9899 17.56C28.6799 15.73 30.36 13.8399 32.14 11.8499C34.19 9.54995 36.2999 7.19994 38.4199 4.90994C38.3899 4.88994 38.3799 4.85999 38.3699 4.82999C38.3399 4.62999 38.2 4.50997 38.09 4.43997C37.87 4.30997 37.57 4.27 37.33 4.34C37.03 4.43 36.76 4.81995 36.53 5.16995C36.43 5.31995 36.3299 5.47 36.2299 5.59C35.1999 6.81 34.2899 7.97 33.4099 9.09C32.4999 10.26 31.6399 11.36 30.6599 12.51C29.1999 14.23 27.3799 15.85 24.9399 17.59C24.9599 17.59 24.9799 17.61 24.9899 17.63L24.9599 17.61Z" fill="#8E4226"/>
<path d="M62.63 8.29999C62.63 8.29999 62.61 8.29999 62.59 8.29999C62.5 8.29999 62.36 8.32999 62.25 8.48999C62.19 8.56999 62.17 8.65998 62.19 8.72998C62.21 8.80998 62.27 8.86999 62.36 8.92999C62.53 9.01999 62.78 8.97001 62.9 8.82001C62.98 8.72001 62.99 8.61002 62.95 8.52002C62.9 8.40002 62.77 8.31999 62.62 8.29999H62.63Z" fill="#7A3821"/>
<path d="M64.23 15.63C64.23 15.63 64.14 15.63 64.1 15.65C64.02 15.68 63.87 15.75 63.83 15.97C63.81 16.07 63.83 16.15 63.87 16.22C63.92 16.28 64 16.32 64.11 16.34C64.3 16.36 64.52 16.21 64.56 16.03C64.59 15.91 64.56 15.8 64.49 15.73C64.43 15.67 64.33 15.64 64.23 15.64V15.63Z" fill="#7A3821"/>
<path d="M62.2 18.12C62.2 18.12 62.1399 18.11 62.0999 18.11C62.0099 18.11 61.8999 18.14 61.7999 18.25C61.7299 18.32 61.7 18.4 61.7 18.48C61.7 18.56 61.75 18.63 61.84 18.7C61.99 18.82 62.2499 18.81 62.3799 18.68C62.4699 18.59 62.5099 18.49 62.4799 18.39C62.4499 18.27 62.3299 18.16 62.1899 18.12H62.2Z" fill="#7A3821"/>
<path d="M69.31 12.3C69.49 12.38 69.74 12.3 69.83 12.15C69.9 12.04 69.91 11.94 69.86 11.84C69.8 11.73 69.66 11.65 69.52 11.65C69.43 11.65 69.27 11.68 69.17 11.87C69.12 11.96 69.11 12.04 69.13 12.12C69.15 12.2 69.22 12.26 69.32 12.3H69.31Z" fill="#7A3821"/>
<path d="M67.82 15.14C67 15.66 66.16 16.19 65.44 16.84C63.68 18.42 62.66 20.77 62.69 23.13C65.42 22.37 68.11 21.44 70.19 19.58C71.95 18.01 71.44 15.18 70.94 12.64C70.11 13.68 68.95 14.42 67.82 15.14Z" fill="#7D3A21"/>
<path d="M61.16 21.39C61.07 21.39 60.91 21.42 60.81 21.61C60.76 21.7 60.75 21.78 60.77 21.86C60.79 21.94 60.86 22 60.96 22.04C61.14 22.12 61.39 22.04 61.48 21.89C61.55 21.78 61.56 21.68 61.51 21.58C61.45 21.47 61.31 21.39 61.17 21.39H61.16Z" fill="#7A3821"/>
<path d="M65.82 13.39C65.54 13.58 65.26 13.76 64.97 13.95C63.48 14.92 61.95 15.93 60.94 17.4C59.55 19.42 59.39 22 59.41 24.03C59.49 24.01 59.56 23.99 59.64 23.96C60.14 23.82 60.65 23.68 61.15 23.55C61.6 23.43 62.05 23.31 62.51 23.18C62.47 20.75 63.52 18.34 65.32 16.71C66.05 16.05 66.9 15.51 67.72 14.99C68.88 14.25 70.07 13.49 70.89 12.42C70.79 11.91 70.69 11.42 70.62 10.95C70.48 10.11 70.37 9.23001 70.26 8.32001C69.59 10.2 67.6 12.19 65.82 13.4V13.39ZM61.62 21.98C61.52 22.15 61.31 22.24 61.11 22.24C61.03 22.24 60.95 22.22 60.88 22.19C60.7 22.11 60.63 21.99 60.6 21.9C60.56 21.78 60.58 21.64 60.65 21.51C60.76 21.31 60.95 21.21 61.16 21.21C61.37 21.21 61.56 21.32 61.65 21.49C61.73 21.64 61.72 21.81 61.62 21.97V21.98ZM62.5 18.8C62.39 18.9 62.24 18.95 62.09 18.95C61.96 18.95 61.83 18.91 61.73 18.83C61.57 18.71 61.53 18.57 61.52 18.49C61.52 18.36 61.56 18.23 61.66 18.13C61.81 17.97 62.02 17.9 62.23 17.95C62.43 18 62.59 18.15 62.64 18.34C62.68 18.5 62.64 18.67 62.5 18.8ZM64.72 16.07C64.66 16.32 64.4 16.51 64.14 16.51C64.12 16.51 64.1 16.51 64.09 16.51C63.89 16.49 63.79 16.4 63.73 16.33C63.66 16.23 63.63 16.09 63.66 15.95C63.7 15.73 63.85 15.57 64.05 15.5C64.25 15.44 64.47 15.48 64.6 15.61C64.72 15.73 64.77 15.89 64.72 16.08V16.07ZM67.4 14.35C67.3 14.52 67.09 14.61 66.89 14.61C66.81 14.61 66.73 14.59 66.66 14.56C66.48 14.48 66.41 14.36 66.38 14.27C66.34 14.15 66.36 14.01 66.43 13.88C66.54 13.68 66.73 13.58 66.94 13.58C67.15 13.58 67.34 13.69 67.43 13.86C67.51 14.01 67.5 14.18 67.4 14.34V14.35ZM69.01 11.8C69.12 11.6 69.31 11.49 69.52 11.5C69.73 11.5 69.92 11.61 70.01 11.78C70.09 11.93 70.08 12.1 69.98 12.26C69.88 12.43 69.67 12.52 69.47 12.52C69.39 12.52 69.31 12.5 69.24 12.47C69.06 12.39 68.99 12.27 68.96 12.18C68.92 12.06 68.94 11.92 69.01 11.79V11.8Z" fill="#7D3A21"/>
<path d="M50.2 11.23C50.11 11.23 49.95 11.26 49.84 11.45C49.79 11.54 49.7799 11.62 49.7999 11.7C49.8199 11.78 49.8899 11.84 49.9899 11.88C50.1599 11.96 50.41 11.88 50.51 11.73C50.58 11.62 50.5899 11.52 50.5399 11.42C50.4799 11.31 50.34 11.23 50.2 11.23Z" fill="#7A3821"/>
<path d="M41.5 14.09C41.41 14.09 41.25 14.12 41.15 14.31C41.1 14.4 41.09 14.48 41.11 14.56C41.13 14.64 41.2 14.7 41.3 14.74C41.48 14.82 41.73 14.74 41.82 14.59C41.89 14.48 41.9 14.38 41.85 14.28C41.79 14.17 41.65 14.09 41.51 14.09H41.5Z" fill="#7A3821"/>
<path d="M45.61 12.08C45.52 12.08 45.36 12.11 45.26 12.3C45.21 12.39 45.2 12.47 45.22 12.55C45.24 12.63 45.31 12.69 45.41 12.73C45.59 12.81 45.84 12.73 45.93 12.58C46 12.47 46.01 12.37 45.96 12.27C45.9 12.16 45.76 12.08 45.62 12.08H45.61Z" fill="#7A3821"/>
<path d="M64.82 9.35999C60.75 11.01 56.49 12.21 52.16 12.94C51.68 13.02 51.2 13.09 50.72 13.17C48.84 13.46 46.9 13.76 45.08 14.41C42.58 15.31 40.69 16.81 39.73 18.66C40 18.63 40.26 18.59 40.53 18.56C42.19 18.34 43.9 18.12 45.6 18.16C48.05 18.23 50.14 18.89 51.64 20.08C53.18 21.3 54.46 23.63 54.03 25.77C55.66 25.16 57.41 24.59 59.24 24.07C59.22 22.01 59.38 19.37 60.8 17.3C61.82 15.81 63.37 14.79 64.87 13.81C65.15 13.62 65.44 13.44 65.72 13.25C67.6 11.98 69.7 9.84002 70.21 7.90002C70.2 7.78002 70.18 7.65998 70.17 7.53998C70.1 6.98998 70.03 6.43 69.96 5.87C68.77 7.59 66.71 8.59999 64.82 9.35999Z" fill="#8E4226"/>
<path d="M38.4899 16.82C38.3999 16.82 38.24 16.85 38.13 17.04C38.08 17.13 38.07 17.21 38.09 17.29C38.11 17.37 38.18 17.43 38.28 17.47C38.46 17.55 38.7099 17.47 38.7999 17.32C38.8699 17.21 38.88 17.11 38.83 17.01C38.77 16.9 38.6299 16.82 38.4899 16.82Z" fill="#7A3821"/>
<path d="M66.9399 13.75C66.8499 13.75 66.69 13.78 66.58 13.97C66.53 14.06 66.5199 14.14 66.5399 14.22C66.5599 14.3 66.6299 14.36 66.7299 14.4C66.8999 14.48 67.1499 14.4 67.2499 14.25C67.3199 14.14 67.33 14.04 67.28 13.94C67.22 13.83 67.0799 13.75 66.9399 13.75Z" fill="#7A3821"/>
<path d="M22.1199 27.76C22.2999 27.84 22.55 27.76 22.64 27.61C22.71 27.5 22.72 27.4 22.67 27.3C22.61 27.19 22.4699 27.11 22.3299 27.11C22.2399 27.11 22.08 27.14 21.97 27.33C21.92 27.42 21.9099 27.5 21.9299 27.58C21.9499 27.66 22.0199 27.72 22.1199 27.76Z" fill="#7A3821"/>
<path d="M20.4 25.16C20.58 25.24 20.83 25.16 20.92 25.01C20.99 24.9 21 24.8 20.95 24.7C20.89 24.59 20.75 24.51 20.61 24.51C20.52 24.51 20.36 24.54 20.25 24.73C20.2 24.82 20.19 24.9 20.21 24.98C20.23 25.06 20.3 25.12 20.4 25.16Z" fill="#7A3821"/>
<path d="M18.63 23.12C18.81 23.2 19.06 23.12 19.15 22.97C19.22 22.86 19.23 22.76 19.18 22.66C19.12 22.55 18.98 22.47 18.84 22.47C18.75 22.47 18.5899 22.5 18.4899 22.69C18.4399 22.78 18.43 22.86 18.45 22.94C18.47 23.02 18.54 23.08 18.64 23.12H18.63Z" fill="#7A3821"/>
<path d="M23.5599 26.3C24.8299 28.25 26.2599 30.82 26.1199 33.51C27.3199 33.51 28.5299 33.49 29.7599 33.43C35.3799 33.16 41.25 32.49 46.14 29.52C47.68 28.59 49.39 27.71 51.27 26.89C51.16 25.46 50.2799 24.01 48.9299 23.09C47.7399 22.28 46.22 21.81 44.4 21.71C42.93 21.63 41.4399 21.79 39.9899 21.94L39.58 21.98C35.25 22.43 30.6299 22.72 26.1599 21.75C24.7699 21.45 23.0299 20.63 22.2699 19.24C21.1699 19.83 20.0199 20.34 18.8099 20.77C20.6199 22.37 22.2199 24.23 23.5699 26.3H23.5599Z" fill="#8E4226"/>
<path d="M23.66 30.81C23.84 30.89 24.09 30.81 24.18 30.66C24.25 30.55 24.26 30.45 24.21 30.35C24.15 30.24 24.01 30.16 23.87 30.16C23.78 30.16 23.62 30.19 23.51 30.38C23.46 30.47 23.45 30.55 23.47 30.63C23.49 30.71 23.56 30.77 23.66 30.81Z" fill="#7A3821"/>
<path d="M52.52 31.2C52.96 31.29 53.4099 31.38 53.8499 31.49C53.8699 31 53.8799 30.51 53.8799 30.03C53.8799 29.56 53.8899 29.08 53.9099 28.59C52.4499 29.12 50.9999 29.75 49.5599 30.48C50.5199 30.78 51.4899 30.98 52.5099 31.2H52.52Z" fill="#4D2A1B"/>
<path d="M70.36 19.78C67.84 22.03 64.48 22.93 61.22 23.8C60.71 23.94 60.21 24.07 59.71 24.21C54.36 25.71 49.84 27.57 46.27 29.74C41.33 32.75 35.42 33.41 29.77 33.69C28.58 33.75 27.4 33.77 26.24 33.77C19.29 33.77 12.8 32.82 6.48002 31.9C5.63002 31.78 3.82001 31.29 3.06001 30.87C2.38001 30.49 1.65 29.74 1.65 28.77C1.65 28.74 1.65002 28.72 1.67002 28.7C1.67002 28.65 1.67002 28.6 1.67002 28.55C1.17002 29.07 0.960017 29.7 1.07002 30.37C1.26002 31.56 2.35001 32.6 3.28001 32.98C5.33001 33.81 7.62 34.19 9.83 34.56L10.38 34.65C16.2 35.62 21.55 36.1 26.73 36.11C29.53 36.12 32.31 35.99 35 35.72C37.48 35.47 40.05 35.21 42.41 34.25C43.32 33.88 44.19 33.42 45 32.87C47.91 30.91 50.94 29.37 54 28.28C54.04 28.27 54.09 28.28 54.12 28.3C54.15 28.33 54.17 28.37 54.17 28.41C54.15 28.95 54.14 29.5 54.13 30.03C54.13 30.5 54.12 30.99 54.1 31.47C62.06 28.96 70.8 25.64 71.16 25.26C71.53 24.82 71.61 24.19 71.68 23.67C71.86 22.37 72.18 18.67 71.57 17.45C71.42 18.35 71.05 19.15 70.35 19.77L70.36 19.78Z" fill="#59301F"/>
<path d="M26.1899 21.58C30.6299 22.54 35.2299 22.26 39.5499 21.81L39.9599 21.77C41.4099 21.62 42.9099 21.46 44.3999 21.54C46.2499 21.64 47.8099 22.12 49.0199 22.95C50.4099 23.91 51.2999 25.34 51.4299 26.82C52.2099 26.49 53.0099 26.16 53.8399 25.85C54.3199 23.74 53.0599 21.43 51.5399 20.22C50.0699 19.05 48.0199 18.4 45.5999 18.34C43.9099 18.29 42.2099 18.52 40.5499 18.74C40.2399 18.78 39.9299 18.82 39.6299 18.86C39.6099 18.88 39.5899 18.89 39.5699 18.89C39.5599 18.89 39.5399 18.89 39.5299 18.89C39.5299 18.89 39.5299 18.89 39.5199 18.89C39.4299 18.9 39.3399 18.91 39.2499 18.92C35.9699 19.32 32.5299 19.46 29.0199 19.36C28.2199 19.34 27.4399 19.3 26.7099 19.07C25.8699 18.82 25.1899 18.34 24.8099 17.73C24.8099 17.71 24.7999 17.7 24.7999 17.68C24.7599 17.71 24.7199 17.74 24.6699 17.77C23.9499 18.28 23.1899 18.75 22.4099 19.18C23.1499 20.52 24.8999 21.32 26.1899 21.6V21.58ZM51.6999 23.78C51.7499 23.66 51.8499 23.57 51.9899 23.52C52.1999 23.45 52.4099 23.48 52.5699 23.62C52.7299 23.76 52.7999 23.97 52.7599 24.15C52.7199 24.32 52.5999 24.44 52.4199 24.49C52.3699 24.5 52.3199 24.51 52.2699 24.51C52.0499 24.51 51.8199 24.37 51.7199 24.17C51.6399 23.99 51.6599 23.85 51.6899 23.77L51.6999 23.78ZM49.1899 21.17C49.2199 21.05 49.2999 20.94 49.4299 20.87C49.6299 20.76 49.8399 20.76 50.0199 20.87C50.1999 20.98 50.3099 21.17 50.2999 21.36C50.2999 21.53 50.1999 21.67 50.0299 21.76C49.9599 21.8 49.8699 21.82 49.7899 21.82C49.5999 21.82 49.3999 21.73 49.2899 21.57C49.1799 21.41 49.1799 21.27 49.1999 21.18L49.1899 21.17ZM45.6799 19.78C45.7899 19.59 45.9699 19.48 46.1799 19.48C46.3899 19.48 46.5799 19.59 46.6699 19.76C46.7499 19.91 46.7399 20.08 46.6399 20.24C46.5399 20.41 46.3299 20.5 46.1299 20.5C46.0499 20.5 45.9699 20.48 45.8999 20.45C45.7199 20.37 45.6499 20.25 45.6199 20.16C45.5799 20.04 45.5999 19.9 45.6699 19.77L45.6799 19.78ZM41.1699 19.93C41.2799 19.73 41.4699 19.63 41.6799 19.63C41.8899 19.63 42.0799 19.74 42.1699 19.91C42.2499 20.06 42.2399 20.23 42.1399 20.39C42.0399 20.56 41.8299 20.65 41.6299 20.65C41.5499 20.65 41.4699 20.63 41.3999 20.6C41.2199 20.52 41.1499 20.4 41.1199 20.31C41.0799 20.19 41.0999 20.05 41.1699 19.92V19.93ZM36.8699 20.21C36.9799 20.01 37.1699 19.9 37.3799 19.91C37.5899 19.91 37.7799 20.02 37.8699 20.19C37.9499 20.34 37.9399 20.51 37.8399 20.67C37.7399 20.84 37.5299 20.93 37.3299 20.93C37.2499 20.93 37.1699 20.91 37.0999 20.88C36.9199 20.8 36.8499 20.68 36.8199 20.59C36.7799 20.47 36.7999 20.33 36.8699 20.2V20.21ZM32.9599 20.49C33.0699 20.3 33.2499 20.19 33.4599 20.19C33.6699 20.19 33.8599 20.3 33.9499 20.47C34.0299 20.62 34.0199 20.79 33.9199 20.95C33.8199 21.12 33.6099 21.21 33.4099 21.21C33.3299 21.21 33.2499 21.19 33.1799 21.16C32.9999 21.08 32.9299 20.96 32.8999 20.87C32.8599 20.75 32.8799 20.61 32.9499 20.48L32.9599 20.49ZM29.1799 20.43C29.3199 20.25 29.5199 20.17 29.7299 20.2C29.9399 20.23 30.1099 20.37 30.1799 20.54C30.2399 20.7 30.2099 20.87 30.0799 21.01C29.9699 21.14 29.7999 21.21 29.6299 21.21C29.5199 21.21 29.4099 21.18 29.3199 21.12C29.1499 21.01 29.0999 20.89 29.0799 20.8C29.0599 20.68 29.0999 20.54 29.1899 20.42L29.1799 20.43ZM24.8699 19.79C24.9799 19.6 25.1599 19.49 25.3699 19.49C25.5799 19.49 25.7699 19.6 25.8599 19.77C25.9399 19.92 25.9299 20.09 25.8299 20.25C25.7299 20.42 25.5199 20.51 25.3199 20.51C25.2399 20.51 25.1599 20.49 25.0899 20.46C24.9099 20.38 24.8399 20.26 24.8099 20.17C24.7699 20.05 24.7899 19.91 24.8599 19.78L24.8699 19.79Z" fill="#7D3A21"/>
<path d="M20.34 26.73C21.93 28.92 22.83 31.25 22.93 33.44C23.92 33.48 24.92 33.5 25.94 33.51C26.09 30.87 24.67 28.32 23.41 26.39C22.05 24.31 20.43 22.44 18.61 20.83C17.93 21.06 17.24 21.27 16.53 21.45C16.21 21.53 15.9 21.61 15.58 21.7C17.32 23.28 18.99 24.86 20.34 26.73ZM23.36 30.3C23.47 30.11 23.65 30 23.86 30C24.07 30 24.26 30.11 24.35 30.28C24.43 30.43 24.42 30.6 24.32 30.76C24.22 30.93 24.01 31.02 23.81 31.02C23.73 31.02 23.65 31 23.58 30.97C23.4 30.89 23.33 30.77 23.3 30.68C23.26 30.56 23.28 30.42 23.35 30.29L23.36 30.3ZM21.82 27.24C21.93 27.04 22.11 26.93 22.33 26.94C22.54 26.94 22.73 27.05 22.82 27.22C22.9 27.37 22.89 27.54 22.79 27.7C22.69 27.87 22.48 27.96 22.28 27.96C22.2 27.96 22.12 27.94 22.05 27.91C21.87 27.83 21.8 27.71 21.77 27.62C21.73 27.5 21.75 27.36 21.82 27.23V27.24ZM20.1 24.65C20.21 24.45 20.4 24.34 20.61 24.35C20.82 24.35 21.01 24.46 21.1 24.63C21.18 24.78 21.17 24.95 21.07 25.11C20.97 25.28 20.76 25.37 20.56 25.37C20.48 25.37 20.4 25.35 20.33 25.32C20.15 25.24 20.08 25.12 20.05 25.03C20.01 24.91 20.03 24.77 20.1 24.64V24.65ZM18.33 22.61C18.44 22.42 18.62 22.31 18.83 22.31C19.04 22.31 19.23 22.42 19.32 22.59C19.4 22.74 19.39 22.91 19.29 23.07C19.19 23.24 18.98 23.33 18.78 23.33C18.7 23.33 18.62 23.31 18.55 23.28C18.37 23.2 18.3 23.08 18.27 22.99C18.23 22.87 18.25 22.73 18.32 22.6L18.33 22.61Z" fill="#8E4226"/>
<path d="M3.17994 30.65C3.89994 31.05 5.69996 31.53 6.50996 31.65C11.75 32.41 17.12 33.19 22.76 33.43C22.65 31.27 21.77 28.99 20.2 26.83C18.84 24.95 17.15 23.36 15.39 21.76C14.49 22.01 13.5899 22.27 12.7099 22.53C11.5899 22.86 10.42 23.2 9.25996 23.51C7.51996 23.97 5.67994 24.49 4.01994 25.43C2.51994 26.28 1.86994 27.39 1.92994 29.04C2.03994 29.67 2.50995 30.28 3.18995 30.66L3.17994 30.65Z" fill="#7D3A21"/>
<path d="M33.26 21.01C33.43 21.09 33.69 21.01 33.78 20.86C33.85 20.75 33.86 20.65 33.81 20.55C33.75 20.44 33.6099 20.36 33.4699 20.36C33.3899 20.36 33.2199 20.39 33.1099 20.58C33.0599 20.67 33.05 20.75 33.07 20.83C33.09 20.91 33.16 20.97 33.26 21.01Z" fill="#7A3821"/>
<path d="M25.17 20.3C25.35 20.38 25.6 20.3 25.69 20.15C25.76 20.04 25.77 19.94 25.72 19.84C25.66 19.73 25.52 19.65 25.38 19.65C25.3 19.65 25.13 19.68 25.02 19.87C24.97 19.96 24.96 20.04 24.98 20.12C25 20.2 25.07 20.26 25.17 20.3Z" fill="#8E4226"/>
<path d="M29.4 20.98C29.56 21.08 29.8199 21.05 29.9399 20.9C30.0199 20.8 30.05 20.7 30.01 20.6C29.96 20.48 29.84 20.39 29.7 20.36C29.61 20.35 29.45 20.36 29.32 20.53C29.26 20.61 29.2299 20.69 29.2499 20.77C29.2599 20.85 29.3199 20.92 29.4099 20.98H29.4Z" fill="#7A3821"/>
<path d="M37.18 20.73C37.35 20.81 37.61 20.73 37.7 20.58C37.77 20.47 37.78 20.37 37.73 20.27C37.67 20.16 37.53 20.08 37.39 20.08C37.3 20.08 37.14 20.11 37.03 20.3C36.98 20.39 36.97 20.47 36.99 20.55C37.01 20.63 37.08 20.69 37.18 20.73Z" fill="#7A3821"/>
<path d="M71.68 17.05C71.83 15.59 71.5 13.9 71.2 12.4C71.1 11.87 71 11.38 70.92 10.89C70.75 9.82001 70.61 8.68999 70.46 7.48999C70.24 5.70999 70.02 3.85998 69.66 2.16998C69.52 0.599983 67.51 0.469971 66.9 0.469971C66.88 0.469971 66.85 0.469971 66.83 0.469971C63.32 0.469971 59.89 1.74999 56.57 2.98999L56.51 3.01001C53.1 4.28001 49.57 5.60002 45.99 5.52002C45.47 4.53002 44.65 3.53001 44 3.07001C43.25 2.54001 42.38 1.99002 41.53 2.08002C40.94 2.14002 40.48 2.57001 40.07 3.01001C39.62 3.48001 39.15 3.98998 38.58 4.59998C38.51 4.41998 38.38 4.26002 38.2 4.15002C37.91 3.97002 37.52 3.92002 37.19 4.02002C36.79 4.14002 36.49 4.57997 36.23 4.96997C36.13 5.11997 36.04 5.25999 35.95 5.35999C34.92 6.57999 34.01 7.75 33.12 8.87C32.21 10.03 31.35 11.13 30.37 12.28C28.88 14.03 27.01 15.69 24.48 17.48C22.12 19.15 19.42 20.39 16.44 21.14C15.15 21.47 13.85 21.85 12.6 22.22H12.59C11.47 22.55 10.32 22.89 9.15998 23.2C7.39998 23.66 5.53998 24.19 3.83998 25.15C2.54998 25.88 1.83 26.85 1.64 28.12C0.919996 28.75 0.609981 29.54 0.749981 30.41C0.959981 31.72 2.12 32.83 3.14 33.25C5.22 34.1 7.52999 34.48 9.75999 34.84L10.31 34.93C16.15 35.9 21.51 36.38 26.71 36.4H26.97C29.69 36.4 32.4 36.27 35.01 36C37.51 35.75 40.1 35.49 42.5 34.51C43.43 34.13 44.32 33.66 45.15 33.1C46.47 32.21 47.84 31.4 49.22 30.68C50.28 31.03 51.32 31.25 52.43 31.48C52.91 31.58 53.41 31.68 53.91 31.8H53.92C53.92 31.8 53.97 31.8 53.99 31.8H54C61.42 29.47 70.98 25.92 71.38 25.44C71.8 24.94 71.9 24.25 71.97 23.7C71.97 23.65 72.69 18.28 71.66 17.04L71.68 17.05ZM53.84 30.02C53.84 30.45 53.83 30.94 53.81 31.43C53.36 31.33 52.91 31.23 52.53 31.15C51.59 30.96 50.62 30.75 49.68 30.47C51.06 29.77 52.47 29.16 53.87 28.65C53.85 29.11 53.85 29.57 53.84 30.02ZM38.04 4.46002C38.14 4.52002 38.27 4.64001 38.3 4.82001C38.3 4.85001 38.32 4.87002 38.33 4.90002C36.19 7.21002 34.01 9.65 32.08 11.81C30.3 13.8 28.61 15.69 26.93 17.52C26.93 17.52 26.92 17.54 26.91 17.55C26.91 17.55 26.9 17.56 26.9 17.58C26.9 17.58 26.9 17.6 26.9 17.62C26.9 17.62 26.9 17.64 26.9 17.65C26.9 17.66 26.9 17.67 26.9 17.69C26.9 17.69 26.9 17.71 26.9 17.72C26.9 17.73 26.91 17.74 26.92 17.75C26.92 17.75 26.92 17.76 26.93 17.77C26.93 17.77 26.95 17.79 26.96 17.8H26.98C26.98 17.8 27.07 17.83 27.11 17.8H27.13C27.13 17.8 27.15 17.78 27.16 17.77C31.01 14.28 35.78 11.57 40.39 8.95001C41.34 8.41001 42.32 7.84998 43.28 7.28998C43.67 7.05998 44.13 6.97003 44.56 7.03003C45.69 7.19003 46.81 7.54001 47.9 7.89001C48.35 8.03001 48.86 8.19003 49.37 8.34003C47.95 9.70003 46.14 10.61 44.39 11.38C44.07 11.52 43.75 11.66 43.43 11.8C41.84 12.49 40.19 13.2 38.74 14.22C36.85 15.55 35.59 17.26 35.18 19.05C33.15 19.17 31.08 19.19 29.01 19.13C28.23 19.11 27.46 19.07 26.75 18.85C25.96 18.61 25.33 18.17 24.97 17.6C24.97 17.6 24.97 17.59 24.96 17.58C27.37 15.84 29.18 14.24 30.63 12.52C31.61 11.37 32.47 10.27 33.39 9.09998C34.27 7.97998 35.18 6.80998 36.21 5.59998C36.31 5.47998 36.41 5.32999 36.52 5.17999C36.75 4.83999 37.01 4.46 37.3 4.37C37.53 4.3 37.82 4.33002 38.03 4.46002H38.04ZM66.9 0.830017C67.44 0.830017 69.21 0.939981 69.32 2.22998C69.34 2.42998 69.3 2.64002 69.22 2.83002C68.95 3.47002 68.39 3.88002 67.79 4.27002C64.98 6.10002 62.13 7.37 59.32 8.06C56.16 8.83 52.97 8.86998 50.11 8.16998C49.41 7.99998 48.71 7.78 48.02 7.56C47.58 7.42 47.04 7.24998 46.51 7.09998C46.51 6.77998 46.4 6.37001 46.18 5.89001C46.22 5.89001 46.26 5.89001 46.31 5.89001C49.86 5.89001 53.31 4.59998 56.65 3.34998C59.97 2.10998 63.41 0.830017 66.91 0.830017H66.9ZM70.16 19.55C68.22 21.28 65.78 22.21 62.73 23.07C62.73 20.74 63.74 18.42 65.47 16.87C66.18 16.23 67.03 15.69 67.84 15.18C68.89 14.52 70.07 13.76 70.92 12.74C71.38 15.09 71.92 17.99 70.17 19.55H70.16ZM67.7 14.96C66.88 15.48 66.02 16.02 65.3 16.68C63.5 18.3 62.45 20.72 62.48 23.15C62.04 23.27 61.6 23.39 61.16 23.51H61.14C60.65 23.65 60.14 23.78 59.65 23.92C59.6 23.93 59.56 23.95 59.51 23.96H59.47C59.46 21.96 59.62 19.42 60.99 17.42C61.99 15.96 63.52 14.96 65 13.99C65.28 13.8 65.57 13.62 65.85 13.43C67.41 12.38 69.47 10.47 70.25 8.5C70.35 9.3 70.46 10.15 70.59 10.96C70.67 11.44 70.76 11.93 70.86 12.41C70.04 13.48 68.86 14.23 67.71 14.96H67.7ZM65.7 13.21C65.42 13.4 65.14 13.58 64.86 13.76H64.85C63.35 14.75 61.79 15.77 60.77 17.27C59.35 19.34 59.18 21.97 59.2 24.04C57.4 24.55 55.68 25.12 54.09 25.71C54.48 23.57 53.18 21.25 51.67 20.05C50.17 18.85 48.07 18.18 45.61 18.12C45.46 18.12 45.32 18.12 45.17 18.12C43.6 18.12 42.04 18.33 40.53 18.52C40.34 18.54 40.15 18.57 39.96 18.59L39.81 18.61C40.77 16.81 42.65 15.33 45.1 14.45C46.91 13.8 48.85 13.5 50.73 13.21H50.76C51.22 13.13 51.7 13.06 52.17 12.98C56.5 12.25 60.77 11.05 64.84 9.40002C66.68 8.65002 68.73 7.65998 69.93 5.97998C70 6.49998 70.06 7.01998 70.12 7.53998L70.16 7.89001C69.65 9.83002 67.55 11.96 65.69 13.21H65.7ZM64.74 9.15997C60.68 10.8 56.44 12 52.12 12.72C51.64 12.8 51.15 12.88 50.68 12.95C48.79 13.24 46.84 13.55 45.01 14.2C42.42 15.13 40.47 16.7 39.5 18.64H39.39C39.33 18.66 39.28 18.67 39.22 18.68C38 18.83 36.73 18.94 35.45 19.02C35.86 17.32 37.08 15.68 38.89 14.42C40.31 13.42 41.95 12.71 43.53 12.03H43.55C43.86 11.89 44.18 11.75 44.49 11.61C46.31 10.8 48.2 9.85997 49.66 8.40997H49.68C49.79 8.44997 49.9 8.48 50.01 8.5C52.93 9.22 56.17 9.18001 59.39 8.39001C62.24 7.69001 65.13 6.39999 67.97 4.54999C68.59 4.14999 69.17 3.73001 69.48 3.07001C69.61 3.80001 69.74 4.60998 69.87 5.59998C68.73 7.35998 66.63 8.38997 64.73 9.15997H64.74ZM44.62 6.67999C44.11 6.60999 43.58 6.71998 43.12 6.97998C42.17 7.52998 41.19 8.09001 40.23 8.64001C36.38 10.83 32.4 13.09 28.94 15.83C30.07 14.58 31.22 13.29 32.34 12.04V12.02C34.96 9.11002 37.64 6.10002 40.33 3.27002C40.72 2.86002 41.1 2.49001 41.58 2.45001C41.63 2.45001 41.67 2.45001 41.72 2.45001C42.49 2.45001 43.35 3.05001 43.82 3.39001C44.44 3.83001 45.26 4.83998 45.75 5.78998C45.75 5.78998 45.75 5.79 45.75 5.81C46 6.29 46.14 6.71003 46.16 7.03003C45.59 6.88003 45.09 6.78002 44.62 6.71002V6.67999ZM29.02 19.37C32.53 19.48 35.98 19.33 39.26 18.93C39.31 18.93 39.36 18.92 39.41 18.91H39.51V18.9C39.55 18.92 39.61 18.92 39.65 18.88C39.95 18.84 40.26 18.8 40.56 18.76H40.58C42.22 18.54 43.92 18.32 45.6 18.36C48.01 18.42 50.05 19.07 51.51 20.23C53 21.42 54.27 23.71 53.8 25.8C52.99 26.1 52.21 26.42 51.47 26.74C51.32 25.27 50.42 23.84 49.05 22.89C47.83 22.05 46.27 21.58 44.41 21.47C44.13 21.45 43.85 21.45 43.57 21.45C42.36 21.45 41.15 21.58 39.97 21.7L39.56 21.74C35.25 22.19 30.65 22.47 26.21 21.51C24.95 21.24 23.23 20.45 22.48 19.15C23.25 18.72 24 18.26 24.7 17.76L24.78 17.71C25.17 18.33 25.85 18.81 26.7 19.07C27.44 19.29 28.22 19.33 29.02 19.36V19.37ZM39.58 22.02L39.99 21.98C41.43 21.83 42.92 21.67 44.39 21.75C46.2 21.85 47.72 22.31 48.9 23.12C50.22 24.02 51.1 25.45 51.22 26.86C49.35 27.67 47.64 28.55 46.12 29.48C41.23 32.45 35.37 33.11 29.76 33.39C28.64 33.44 27.5 33.47 26.26 33.47C26.23 33.47 26.2 33.47 26.17 33.47C26.3 30.78 24.87 28.21 23.6 26.28C22.27 24.23 20.68 22.39 18.89 20.79C20.06 20.37 21.19 19.87 22.25 19.3C23.03 20.68 24.78 21.49 26.15 21.79C30.62 22.76 35.24 22.48 39.58 22.02ZM25.91 33.47C24.95 33.47 23.97 33.44 22.99 33.4C22.87 31.21 21.98 28.89 20.39 26.7C19.04 24.83 17.39 23.28 15.68 21.72C15.99 21.64 16.28 21.56 16.55 21.49C17.24 21.31 17.93 21.11 18.61 20.88C20.43 22.48 22.03 24.34 23.38 26.41C24.62 28.32 26.03 30.84 25.9 33.46L25.91 33.47ZM6.52998 31.61C5.71998 31.49 3.92997 31.01 3.20997 30.61C2.54997 30.25 2.07998 29.64 1.96998 29.03C1.91998 27.4 2.54999 26.3 4.03999 25.46C5.69999 24.53 7.52997 24 9.26997 23.55C10.43 23.25 11.59 22.9 12.72 22.57C13.62 22.3 14.5 22.05 15.38 21.8C17.13 23.39 18.81 24.98 20.17 26.85C21.72 28.99 22.6 31.25 22.72 33.38C17.07 33.13 11.71 32.35 6.51997 31.6L6.52998 31.61ZM71.66 23.67C71.59 24.18 71.51 24.81 71.15 25.23C70.8 25.6 62.08 28.92 54.16 31.41C54.18 30.95 54.18 30.48 54.19 30.03C54.19 29.5 54.21 28.95 54.23 28.41C54.23 28.35 54.21 28.3 54.16 28.26C54.11 28.23 54.05 28.22 54 28.24C50.94 29.33 47.91 30.87 44.99 32.83C44.18 33.38 43.31 33.84 42.4 34.21C40.04 35.17 37.48 35.43 35 35.68C32.3 35.95 29.52 36.08 26.74 36.07C21.57 36.05 16.22 35.58 10.4 34.61L9.84999 34.52C7.63999 34.16 5.34998 33.78 3.30998 32.95C2.39998 32.58 1.31999 31.55 1.12999 30.38C1.02999 29.76 1.19999 29.17 1.62999 28.68C1.62999 28.68 1.62999 28.69 1.62999 28.7C1.60999 28.73 1.60997 28.75 1.60997 28.78C1.60997 29.78 2.35997 30.54 3.04997 30.92C3.80997 31.34 5.62997 31.83 6.48997 31.96C12.79 32.88 19.3 33.83 26.25 33.83C27.44 33.83 28.63 33.8 29.79 33.75C35.45 33.47 41.36 32.81 46.31 29.79C49.88 27.62 54.4 25.76 59.74 24.26C60.25 24.12 60.78 23.97 61.25 23.85C64.51 22.98 67.88 22.07 70.4 19.82C71.03 19.26 71.42 18.53 71.61 17.61C72.14 18.94 71.82 22.5 71.66 23.68V23.67Z" fill="#4A281A"/>
<path d="M18.8399 22.28C18.6199 22.28 18.4299 22.39 18.3199 22.59C18.2399 22.72 18.2199 22.87 18.2699 22.99C18.2999 23.08 18.3699 23.2 18.5599 23.29C18.6299 23.32 18.7099 23.34 18.7999 23.34C19.0099 23.34 19.2199 23.23 19.3299 23.07C19.4399 22.9 19.4499 22.72 19.3599 22.57C19.2699 22.4 19.0599 22.28 18.8499 22.28H18.8399ZM19.14 22.96C19.05 23.11 18.81 23.18 18.64 23.1C18.55 23.06 18.4899 23 18.4599 22.93C18.4399 22.86 18.4599 22.78 18.4999 22.7C18.5999 22.52 18.7499 22.49 18.8399 22.49C18.9799 22.49 19.1099 22.56 19.1599 22.67C19.2099 22.76 19.1999 22.86 19.1299 22.96H19.14Z" fill="#4A281A"/>
<path d="M20.6099 24.32C20.6099 24.32 20.61 24.32 20.6 24.32C20.39 24.32 20.1999 24.44 20.0799 24.63C19.9999 24.76 19.9799 24.91 20.0299 25.03C20.0599 25.12 20.13 25.24 20.32 25.33C20.39 25.36 20.4799 25.38 20.5599 25.38C20.7699 25.38 20.9799 25.27 21.0899 25.11C21.1999 24.94 21.2099 24.76 21.1199 24.61C21.0299 24.44 20.8199 24.32 20.6099 24.32ZM20.6099 24.53C20.7499 24.53 20.8799 24.6 20.9299 24.71C20.9799 24.8 20.9699 24.9 20.8999 25C20.8099 25.15 20.5699 25.22 20.3999 25.14C20.3099 25.1 20.25 25.04 20.22 24.97C20.2 24.9 20.22 24.82 20.26 24.74C20.37 24.55 20.52 24.53 20.6 24.53H20.6099Z" fill="#4A281A"/>
<path d="M46.1899 19.46C45.9699 19.46 45.7799 19.57 45.6699 19.77C45.5899 19.9 45.5699 20.05 45.6199 20.17C45.6499 20.26 45.7199 20.38 45.9099 20.47C45.9799 20.5 46.0699 20.52 46.1499 20.52C46.3599 20.52 46.5699 20.41 46.6799 20.25C46.7899 20.08 46.7999 19.9 46.7099 19.75C46.6199 19.58 46.4099 19.46 46.1999 19.46H46.1899ZM46.4899 20.14C46.3999 20.29 46.1599 20.36 45.9899 20.28C45.8999 20.24 45.8399 20.18 45.8099 20.11C45.7899 20.04 45.8099 19.96 45.8499 19.88C45.9499 19.7 46.0999 19.67 46.1899 19.67C46.3299 19.67 46.4599 19.74 46.5099 19.85C46.5599 19.94 46.5499 20.04 46.4799 20.14H46.4899Z" fill="#4A281A"/>
<path d="M50.2099 11.04C49.9899 11.04 49.7999 11.15 49.6899 11.35C49.6099 11.48 49.5899 11.63 49.6399 11.75C49.6699 11.84 49.7399 11.96 49.9299 12.05C49.9999 12.08 50.0899 12.1 50.1699 12.1C50.3799 12.1 50.5899 11.99 50.6999 11.83C50.8099 11.66 50.8199 11.48 50.7299 11.33C50.6399 11.16 50.4299 11.04 50.2199 11.04H50.2099ZM50.5099 11.72C50.4199 11.87 50.1799 11.94 50.0099 11.86C49.9199 11.82 49.8599 11.76 49.8299 11.69C49.8099 11.62 49.8299 11.54 49.8699 11.46C49.9799 11.27 50.1299 11.25 50.1899 11.25C50.1899 11.25 50.1999 11.25 50.2099 11.25C50.3499 11.25 50.4799 11.32 50.5299 11.43C50.5799 11.52 50.5699 11.62 50.4999 11.72H50.5099Z" fill="#4A281A"/>
<path d="M46.09 12.68C46.2 12.51 46.21 12.33 46.12 12.18C46.03 12.01 45.8199 11.89 45.6099 11.89C45.3899 11.89 45.2 12 45.09 12.2C45.01 12.33 44.9899 12.48 45.0399 12.6C45.0699 12.69 45.14 12.81 45.33 12.9C45.4 12.93 45.48 12.95 45.57 12.95C45.78 12.95 45.9899 12.84 46.0999 12.68H46.09ZM45.9099 12.57C45.8199 12.72 45.5799 12.79 45.4099 12.71C45.3199 12.67 45.2599 12.61 45.2299 12.54C45.2099 12.47 45.23 12.39 45.27 12.31C45.37 12.13 45.5199 12.1 45.6099 12.1C45.7499 12.1 45.88 12.17 45.93 12.28C45.98 12.37 45.97 12.47 45.9 12.57H45.9099Z" fill="#4A281A"/>
<path d="M66.9399 13.56C66.7199 13.56 66.5299 13.68 66.4099 13.87C66.3299 14 66.3099 14.15 66.3599 14.27C66.3899 14.36 66.4599 14.48 66.6499 14.57C66.7199 14.6 66.8099 14.62 66.8899 14.62C67.0999 14.62 67.3099 14.51 67.4199 14.35C67.5299 14.18 67.5399 14 67.4499 13.85C67.3599 13.68 67.1499 13.56 66.9399 13.56ZM66.9399 13.77C67.0799 13.77 67.2099 13.84 67.2599 13.95C67.3099 14.04 67.2999 14.14 67.2299 14.24C67.1399 14.39 66.8999 14.46 66.7299 14.38C66.6399 14.34 66.5799 14.28 66.5499 14.21C66.5299 14.14 66.5499 14.06 66.5899 13.98C66.6899 13.81 66.8299 13.77 66.9299 13.77H66.9399Z" fill="#4A281A"/>
<path d="M64.04 15.47C63.83 15.54 63.68 15.71 63.64 15.93C63.61 16.08 63.64 16.22 63.71 16.33C63.77 16.41 63.88 16.5 64.08 16.52C64.1 16.52 64.12 16.52 64.14 16.52C64.41 16.52 64.68 16.32 64.74 16.07C64.79 15.88 64.74 15.7 64.61 15.58C64.47 15.44 64.24 15.4 64.03 15.46L64.04 15.47ZM64.53 16.02C64.49 16.19 64.28 16.33 64.1 16.31C64 16.3 63.92 16.26 63.88 16.2C63.84 16.14 63.82 16.06 63.84 15.97C63.88 15.77 64.02 15.69 64.1 15.67C64.14 15.66 64.18 15.65 64.22 15.65C64.31 15.65 64.4 15.68 64.46 15.74C64.53 15.81 64.55 15.9 64.53 16.02Z" fill="#4A281A"/>
<path d="M70.0299 11.75C69.9399 11.58 69.7299 11.46 69.5199 11.46C69.5199 11.46 69.5199 11.46 69.5099 11.46C69.2999 11.46 69.1098 11.58 68.9898 11.77C68.9098 11.9 68.8899 12.05 68.9399 12.17C68.9699 12.26 69.0398 12.38 69.2298 12.47C69.2998 12.5 69.3798 12.52 69.4698 12.52C69.6798 12.52 69.8899 12.41 69.9999 12.25C70.1099 12.08 70.1199 11.9 70.0299 11.75ZM69.5199 11.67C69.6599 11.67 69.7899 11.74 69.8399 11.85C69.8899 11.94 69.8799 12.04 69.8099 12.14C69.7199 12.29 69.4799 12.36 69.3099 12.28C69.2199 12.24 69.1599 12.18 69.1299 12.11C69.1099 12.04 69.1298 11.96 69.1698 11.88C69.2698 11.7 69.4199 11.67 69.5099 11.67H69.5199Z" fill="#4A281A"/>
<path d="M62.24 17.93C62.03 17.88 61.8101 17.94 61.6501 18.11C61.5401 18.22 61.49 18.36 61.5 18.49C61.5 18.58 61.55 18.72 61.72 18.85C61.82 18.93 61.96 18.97 62.1 18.97C62.26 18.97 62.42 18.91 62.52 18.81C62.66 18.67 62.72 18.5 62.67 18.33C62.62 18.14 62.45 17.98 62.24 17.93ZM62.37 18.66C62.24 18.78 62 18.79 61.85 18.68C61.77 18.62 61.72 18.55 61.72 18.47C61.72 18.4 61.75 18.32 61.81 18.25C61.89 18.16 61.99 18.12 62.1 18.12C62.13 18.12 62.16 18.12 62.19 18.13C62.32 18.16 62.4301 18.26 62.4601 18.38C62.4901 18.48 62.46 18.57 62.37 18.65V18.66Z" fill="#4A281A"/>
<path d="M61.16 21.2C60.94 21.2 60.74 21.32 60.63 21.51C60.55 21.64 60.53 21.79 60.58 21.91C60.61 22 60.68 22.12 60.87 22.21C60.94 22.24 61.02 22.26 61.11 22.26C61.32 22.26 61.53 22.15 61.64 21.99C61.75 21.82 61.76 21.64 61.67 21.49C61.58 21.32 61.37 21.2 61.16 21.2ZM61.46 21.88C61.37 22.03 61.13 22.1 60.96 22.02C60.87 21.98 60.81 21.92 60.78 21.85C60.76 21.78 60.78 21.7 60.82 21.62C60.92 21.44 61.07 21.41 61.16 21.41C61.3 21.41 61.43 21.48 61.48 21.59C61.53 21.68 61.52 21.78 61.45 21.88H61.46Z" fill="#4A281A"/>
<path d="M50.0399 20.85C49.8499 20.74 49.63 20.73 49.43 20.85C49.3 20.93 49.21 21.04 49.18 21.17C49.16 21.26 49.16 21.41 49.28 21.58C49.39 21.74 49.5899 21.84 49.7999 21.84C49.8899 21.84 49.9799 21.82 50.0499 21.78C50.2299 21.69 50.33 21.54 50.34 21.36C50.34 21.16 50.2299 20.96 50.0499 20.85H50.0399ZM49.7399 20.98C49.8199 20.98 49.89 21.01 49.93 21.03C50.05 21.1 50.12 21.23 50.12 21.35C50.12 21.45 50.06 21.53 49.95 21.58C49.79 21.66 49.55 21.6 49.45 21.45C49.39 21.36 49.37 21.28 49.39 21.21C49.41 21.14 49.4599 21.08 49.5399 21.03C49.6099 20.99 49.68 20.97 49.75 20.97L49.7399 20.98Z" fill="#4A281A"/>
<path d="M53.9999 10.45C53.7799 10.45 53.5899 10.56 53.4699 10.76C53.3899 10.89 53.3699 11.04 53.4099 11.16C53.4399 11.25 53.5099 11.37 53.6999 11.46C53.7699 11.49 53.8599 11.51 53.9399 11.51C54.1499 11.51 54.3599 11.4 54.4599 11.24C54.5699 11.07 54.5799 10.89 54.4999 10.74C54.4099 10.56 54.2099 10.45 53.9899 10.45H53.9999ZM53.9999 10.66C54.1399 10.66 54.2699 10.74 54.3199 10.84C54.3699 10.93 54.3599 11.03 54.2899 11.13C54.1899 11.28 53.9599 11.34 53.7899 11.27C53.6999 11.23 53.6399 11.17 53.6099 11.1C53.5899 11.03 53.6099 10.95 53.6499 10.87C53.7499 10.7 53.8899 10.67 53.9899 10.67L53.9999 10.66Z" fill="#4A281A"/>
<path d="M58.39 9.49001C58.17 9.47001 57.97 9.57002 57.84 9.76002C57.75 9.89002 57.72 10.03 57.75 10.16C57.77 10.25 57.84 10.38 58.02 10.48C58.1 10.53 58.21 10.55 58.31 10.55C58.51 10.55 58.7 10.46 58.8 10.32C58.92 10.16 58.95 9.98002 58.87 9.82002C58.79 9.64002 58.6 9.51001 58.39 9.49001ZM58.63 10.19C58.52 10.33 58.28 10.38 58.12 10.29C58.03 10.24 57.97 10.18 57.96 10.11C57.94 10.04 57.96 9.96002 58.02 9.88002C58.12 9.73002 58.25 9.70003 58.34 9.70003C58.35 9.70003 58.36 9.70003 58.37 9.70003C58.51 9.71003 58.63 9.79999 58.68 9.90999C58.72 9.99999 58.7 10.1 58.63 10.19Z" fill="#4A281A"/>
<path d="M62.64 8.11C62.42 8.09 62.22 8.19002 62.09 8.38002C62 8.51002 61.97 8.65004 62 8.78004C62.02 8.87004 62.09 8.99999 62.27 9.09999C62.35 9.14999 62.46 9.17 62.56 9.17C62.76 9.17 62.95 9.08002 63.05 8.94002C63.17 8.78002 63.2 8.60002 63.12 8.44002C63.04 8.26002 62.85 8.13 62.63 8.11H62.64ZM62.88 8.81001C62.77 8.95001 62.53 8.99999 62.37 8.90999C62.28 8.85999 62.22 8.8 62.21 8.73C62.19 8.66 62.21 8.58001 62.27 8.50001C62.37 8.35001 62.5 8.32002 62.59 8.32002C62.6 8.32002 62.61 8.32002 62.63 8.32002C62.77 8.33002 62.89 8.42004 62.94 8.53004C62.98 8.62004 62.96 8.72001 62.89 8.81001H62.88Z" fill="#4A281A"/>
<path d="M66.9699 7.09C67.0599 6.91 67.0499 6.73 66.9499 6.59C66.8399 6.43 66.6299 6.32995 66.4099 6.34995C66.1899 6.36995 66.0099 6.49999 65.9199 6.70999C65.8599 6.84999 65.85 6.98997 65.9 7.11997C65.94 7.20997 66.0199 7.31999 66.2199 7.38999C66.2799 7.40999 66.34 7.41995 66.4 7.41995C66.64 7.41995 66.8599 7.29 66.9599 7.09H66.9699ZM66.2999 7.17996C66.1999 7.14996 66.1399 7.1 66.1099 7.03C66.0799 6.96 66.0899 6.87996 66.1199 6.79996C66.2099 6.60996 66.3599 6.56997 66.4399 6.55997C66.4499 6.55997 66.4599 6.55997 66.4699 6.55997C66.5999 6.55997 66.72 6.61999 66.78 6.70999C66.84 6.78999 66.84 6.88997 66.78 6.99997C66.7 7.15997 66.4699 7.24997 66.2999 7.18997V7.17996Z" fill="#4A281A"/>
<path d="M25.38 19.46C25.16 19.46 24.97 19.57 24.86 19.77C24.78 19.9 24.76 20.05 24.81 20.17C24.84 20.26 24.91 20.38 25.1 20.47C25.17 20.5 25.26 20.52 25.34 20.52C25.55 20.52 25.76 20.41 25.87 20.25C25.98 20.08 25.99 19.9 25.9 19.75C25.81 19.58 25.6 19.46 25.39 19.46H25.38ZM25.68 20.14C25.59 20.29 25.35 20.36 25.18 20.28C25.09 20.24 25.03 20.18 25 20.11C24.98 20.04 25 19.96 25.04 19.88C25.14 19.7 25.29 19.67 25.38 19.67C25.52 19.67 25.65 19.74 25.7 19.85C25.75 19.94 25.74 20.04 25.67 20.14H25.68Z" fill="#4A281A"/>
<path d="M33.4699 20.17C33.2499 20.17 33.0599 20.28 32.9499 20.48C32.8699 20.61 32.8499 20.76 32.8999 20.88C32.9299 20.97 32.9999 21.09 33.1899 21.18C33.2599 21.21 33.3499 21.23 33.4299 21.23C33.6399 21.23 33.8499 21.12 33.9599 20.96C34.0699 20.79 34.0799 20.61 33.9899 20.46C33.8999 20.29 33.6899 20.17 33.4799 20.17H33.4699ZM33.7699 20.85C33.6799 21 33.4399 21.07 33.2699 20.99C33.1799 20.95 33.1199 20.89 33.0899 20.82C33.0699 20.75 33.0899 20.67 33.1299 20.59C33.2399 20.39 33.4199 20.38 33.4699 20.38C33.6099 20.38 33.7399 20.45 33.7899 20.56C33.8399 20.65 33.8299 20.75 33.7599 20.85H33.7699Z" fill="#4A281A"/>
<path d="M29.73 20.18C29.51 20.15 29.31 20.23 29.16 20.42C29.07 20.54 29.03 20.68 29.05 20.81C29.07 20.9 29.12 21.04 29.3 21.15C29.39 21.21 29.5 21.24 29.62 21.24C29.81 21.24 29.98 21.16 30.09 21.04C30.22 20.89 30.25 20.71 30.19 20.55C30.12 20.36 29.94 20.22 29.72 20.19L29.73 20.18ZM29.93 20.89C29.82 21.02 29.57 21.06 29.42 20.96C29.33 20.9 29.28 20.84 29.27 20.77C29.26 20.7 29.28 20.62 29.34 20.55C29.47 20.38 29.62 20.38 29.7 20.39C29.84 20.41 29.95 20.5 30 20.61C30.03 20.7 30.01 20.8 29.94 20.89H29.93Z" fill="#4A281A"/>
<path d="M37.39 19.89C37.39 19.89 37.38 19.89 37.37 19.89C37.16 19.89 36.97 20.01 36.86 20.2C36.78 20.33 36.76 20.48 36.81 20.6C36.84 20.69 36.91 20.81 37.1 20.9C37.17 20.93 37.25 20.95 37.34 20.95C37.56 20.95 37.76 20.84 37.87 20.68C37.98 20.51 37.99 20.33 37.9 20.18C37.81 20.01 37.6 19.89 37.39 19.89ZM37.39 20.1C37.53 20.1 37.66 20.17 37.71 20.28C37.76 20.37 37.75 20.47 37.68 20.57C37.59 20.72 37.35 20.79 37.18 20.71C37.09 20.67 37.03 20.61 37 20.54C36.98 20.47 37 20.39 37.04 20.31C37.15 20.12 37.3 20.1 37.38 20.1H37.39Z" fill="#4A281A"/>
<path d="M22.3299 26.91C22.1099 26.91 21.9199 27.02 21.8099 27.22C21.7299 27.35 21.7099 27.5 21.7599 27.62C21.7899 27.71 21.8599 27.83 22.0499 27.92C22.1199 27.95 22.1999 27.97 22.2899 27.97C22.4999 27.97 22.7099 27.86 22.8199 27.7C22.9299 27.53 22.9399 27.35 22.8499 27.2C22.7599 27.03 22.5499 26.91 22.3399 26.91H22.3299ZM22.3299 27.12C22.4699 27.12 22.5999 27.19 22.6499 27.3C22.6999 27.39 22.6899 27.49 22.6199 27.59C22.5299 27.74 22.2899 27.81 22.1199 27.73C22.0299 27.69 21.9699 27.63 21.9399 27.56C21.9199 27.49 21.9399 27.41 21.9799 27.33C22.0599 27.2 22.1699 27.13 22.3199 27.12H22.3299Z" fill="#4A281A"/>
<path d="M41.68 19.61C41.46 19.61 41.27 19.72 41.15 19.92C41.07 20.05 41.05 20.2 41.1 20.32C41.13 20.41 41.2 20.53 41.39 20.62C41.46 20.65 41.54 20.67 41.63 20.67C41.84 20.67 42.05 20.56 42.16 20.4C42.27 20.23 42.28 20.05 42.19 19.9C42.1 19.73 41.89 19.61 41.68 19.61ZM41.68 19.82C41.82 19.82 41.95 19.89 42 20C42.05 20.09 42.04 20.19 41.97 20.29C41.88 20.44 41.64 20.51 41.47 20.43C41.38 20.39 41.32 20.33 41.29 20.26C41.27 20.19 41.29 20.11 41.33 20.03C41.43 19.85 41.58 19.82 41.67 19.82H41.68Z" fill="#4A281A"/>
<path d="M41.4599 14.97C41.6699 14.97 41.8798 14.86 41.9898 14.7C42.0998 14.53 42.1099 14.35 42.0199 14.2C41.9299 14.03 41.7199 13.91 41.5099 13.91C41.2899 13.91 41.0998 14.02 40.9898 14.22C40.9098 14.35 40.8899 14.5 40.9399 14.62C40.9699 14.71 41.0398 14.83 41.2298 14.92C41.2998 14.95 41.3798 14.97 41.4698 14.97H41.4599ZM41.1698 14.32C41.2698 14.14 41.4199 14.11 41.5099 14.11C41.6499 14.11 41.7799 14.18 41.8299 14.29C41.8799 14.38 41.8698 14.48 41.7998 14.58C41.7098 14.73 41.4698 14.8 41.2998 14.72C41.2098 14.68 41.1499 14.62 41.1199 14.55C41.0999 14.48 41.1198 14.4 41.1598 14.32H41.1698Z" fill="#4A281A"/>
<path d="M38.4898 16.63C38.2698 16.63 38.0798 16.74 37.9698 16.94C37.8898 17.07 37.8698 17.22 37.9198 17.34C37.9498 17.43 38.0199 17.55 38.2099 17.64C38.2799 17.67 38.3699 17.69 38.4499 17.69C38.6599 17.69 38.8698 17.58 38.9798 17.42C39.0898 17.25 39.0999 17.07 39.0099 16.92C38.9199 16.75 38.7099 16.63 38.4999 16.63H38.4898ZM38.7898 17.31C38.6998 17.46 38.4598 17.53 38.2898 17.45C38.1998 17.41 38.1398 17.35 38.1098 17.28C38.0898 17.21 38.1099 17.13 38.1499 17.05C38.2599 16.87 38.4098 16.84 38.4798 16.84C38.6198 16.84 38.7498 16.91 38.7998 17.02C38.8498 17.11 38.8399 17.21 38.7699 17.31H38.7898Z" fill="#4A281A"/>
<path d="M23.87 29.97C23.65 29.97 23.46 30.08 23.35 30.28C23.27 30.41 23.25 30.56 23.3 30.68C23.33 30.77 23.4 30.89 23.59 30.98C23.66 31.01 23.75 31.03 23.83 31.03C24.04 31.03 24.25 30.92 24.36 30.76C24.47 30.59 24.48 30.41 24.39 30.26C24.3 30.09 24.09 29.97 23.88 29.97H23.87ZM24.17 30.65C24.08 30.8 23.84 30.87 23.67 30.79C23.58 30.75 23.52 30.69 23.49 30.62C23.47 30.55 23.49 30.47 23.53 30.39C23.64 30.2 23.8 30.18 23.87 30.18C24.01 30.18 24.14 30.25 24.19 30.36C24.24 30.45 24.23 30.55 24.16 30.65H24.17Z" fill="#4A281A"/>
<path d="M51.99 23.5C51.84 23.55 51.74 23.65 51.69 23.77C51.65 23.86 51.6299 24 51.7199 24.19C51.8199 24.4 52.0499 24.54 52.2899 24.54C52.3399 24.54 52.4 24.54 52.45 24.52C52.64 24.46 52.77 24.33 52.8 24.16C52.84 23.97 52.7599 23.75 52.5999 23.61C52.4399 23.47 52.22 23.43 52 23.5H51.99ZM52.58 24.11C52.56 24.21 52.49 24.28 52.37 24.31C52.2 24.36 51.98 24.26 51.9 24.09C51.86 24 51.85 23.91 51.88 23.85C51.91 23.78 51.97 23.73 52.06 23.7C52.11 23.68 52.16 23.67 52.21 23.67C52.33 23.67 52.41 23.72 52.45 23.76C52.55 23.85 52.6 23.99 52.58 24.11Z" fill="#4A281A"/>
<path d="M68.04 2.72998C68.04 2.72998 67.97 2.73002 67.83 2.71002C67.76 2.70002 67.68 2.67997 67.58 2.65997C67.48 2.64997 67.37 2.62999 67.24 2.60999C66.72 2.53999 65.97 2.47001 65.03 2.51001C64.1 2.55001 62.99 2.7 61.79 3C60.59 3.3 59.3 3.74 57.97 4.25C56.64 4.76 55.37 5.28001 54.2 5.70001C53.03 6.12001 51.95 6.44002 51.03 6.64002C50.11 6.84001 49.35 6.92997 48.82 6.96997C48.56 6.98997 48.35 6.98999 48.21 6.98999C48.07 6.98999 48 6.98998 48 6.97998C48 6.95998 48.29 6.94001 48.81 6.88001C49.33 6.82001 50.08 6.69998 50.99 6.47998C51.9 6.25998 52.96 5.93 54.13 5.5C55.29 5.07 56.55 4.54998 57.89 4.03998C59.23 3.51998 60.53 3.07998 61.74 2.78998C62.95 2.49998 64.08 2.36003 65.02 2.34003C65.97 2.32003 66.73 2.41001 67.25 2.51001C67.38 2.54001 67.49 2.56002 67.59 2.58002C67.69 2.61002 67.77 2.63002 67.84 2.65002C67.97 2.69002 68.04 2.70997 68.04 2.71997V2.72998Z" fill="#4A281A"/>
<path d="M69.76 24.91C69.76 24.91 69.58 25.02 69.23 25.19C68.88 25.36 68.37 25.59 67.74 25.87C66.48 26.42 64.71 27.14 62.72 27.84C60.73 28.54 58.91 29.09 57.57 29.46C56.9 29.64 56.36 29.78 55.99 29.87C55.61 29.96 55.4 30 55.4 29.98C55.4 29.96 55.6 29.89 55.97 29.78C56.34 29.67 56.87 29.5 57.53 29.3C58.85 28.9 60.66 28.32 62.65 27.62C64.63 26.92 66.41 26.23 67.68 25.71C68.32 25.45 68.83 25.24 69.19 25.1C69.55 24.96 69.75 24.88 69.76 24.9V24.91Z" fill="#85472D"/>
<path d="M47.89 29.96C47.89 29.96 47.8599 29.99 47.7899 30.03C47.7199 30.07 47.6199 30.13 47.4799 30.22C47.3399 30.3 47.1699 30.4 46.9699 30.51C46.7699 30.62 46.53 30.75 46.27 30.89C45.2 31.44 43.63 32.19 41.58 32.88C39.55 33.58 37.0499 34.21 34.2199 34.55C33.8699 34.6 33.51 34.63 33.14 34.66C32.78 34.7 32.4099 34.72 32.0399 34.74C31.2899 34.79 30.53 34.79 29.76 34.8C28.21 34.81 26.61 34.8 24.97 34.75C18.41 34.56 12.49 34.04 8.24995 33.3C6.12995 32.93 4.43994 32.49 3.32994 32.01C2.77994 31.77 2.36997 31.52 2.13997 31.3C2.07997 31.25 2.02994 31.2 1.98994 31.15C1.94994 31.1 1.91995 31.07 1.89995 31.03C1.85995 30.96 1.82995 30.93 1.83995 30.92C1.84995 30.92 1.92997 31.06 2.16997 31.26C2.40997 31.46 2.80995 31.7 3.36995 31.92C4.47995 32.37 6.16996 32.78 8.28996 33.13C12.52 33.83 18.4499 34.32 24.9899 34.51C26.6299 34.56 28.23 34.58 29.77 34.57C30.54 34.57 31.2999 34.56 32.0399 34.51C32.4099 34.49 32.78 34.47 33.14 34.43C33.5 34.4 33.86 34.37 34.21 34.32C37.02 34 39.5099 33.38 41.5499 32.71C43.5899 32.04 45.17 31.32 46.25 30.79C46.52 30.66 46.76 30.54 46.96 30.43C47.16 30.32 47.3399 30.23 47.4799 30.15C47.6199 30.08 47.7299 30.02 47.7999 29.98C47.8699 29.94 47.9099 29.93 47.9099 29.93L47.89 29.96Z" fill="#85472D"/>
<path d="M70.99 20.42C70.99 20.42 70.91 20.51 70.73 20.66C70.64 20.74 70.53 20.83 70.4 20.93C70.27 21.03 70.11 21.1601 69.93 21.2801C69.57 21.5401 69.12 21.82 68.58 22.13C68.03 22.43 67.4 22.75 66.68 23.06C65.96 23.37 65.16 23.68 64.28 23.96C63.84 24.1 63.38 24.24 62.91 24.37C62.44 24.5 61.95 24.62 61.45 24.76C59.45 25.29 57.26 25.91 55.03 26.73C53.91 27.14 52.84 27.58 51.82 28.06C50.8 28.54 49.84 29.03 48.92 29.51C48.01 30 47.14 30.46 46.33 30.9C45.51 31.33 44.73 31.69 44.01 31.99C42.56 32.59 41.34 32.94 40.49 33.15C40.06 33.26 39.73 33.33 39.5 33.37C39.27 33.41 39.15 33.43 39.15 33.42C39.15 33.42 39.26 33.38 39.49 33.32C39.71 33.26 40.04 33.18 40.46 33.06C41.3 32.83 42.51 32.45 43.94 31.83C44.66 31.52 45.43 31.15 46.24 30.72C47.05 30.28 47.91 29.81 48.82 29.32C49.73 28.83 50.7 28.33 51.72 27.85C52.74 27.37 53.82 26.92 54.95 26.51C57.2 25.69 59.39 25.07 61.4 24.55C61.9 24.42 62.39 24.3 62.86 24.17C63.33 24.04 63.79 23.91 64.22 23.77C65.09 23.49 65.9 23.2 66.62 22.9C67.34 22.6 67.98 22.29 68.52 22C69.06 21.7 69.52 21.43 69.88 21.19C70.06 21.07 70.22 20.96 70.36 20.86C70.5 20.77 70.61 20.68 70.7 20.61C70.88 20.47 70.98 20.4 70.99 20.41V20.42Z" fill="#85472D"/>
<path d="M52.83 22.42C52.51 21.82 52.09 21.28 51.59 20.82C51.28 20.53 50.97 20.3 50.65 20.1C50.25 19.85 49.87 19.67 49.5 19.53C49.36 19.47 49.21 19.42 49.07 19.37C49 19.35 48.94 19.33 48.87 19.3C48.81 19.28 48.75 19.27 48.7 19.25C48.54 19.2 48.37 19.15 48.21 19.12C47.75 19.01 47.28 18.92 46.79 18.87C45.9 18.76 44.88 18.75 43.7 18.83C43.17 18.86 42.63 18.92 42.08 18.98L37.14 19.51C36.93 19.53 36.72 19.56 36.52 19.58C35.67 19.67 34.88 19.76 34.09 19.8C33.26 19.84 32.4 19.86 31.32 19.85C30.33 19.84 29.56 19.82 28.9 19.79C28.11 19.75 27.47 19.67 26.94 19.55C26.44 19.44 25.96 19.26 25.55 19.04C25.03 18.75 24.74 18.46 24.62 18.34C24.56 18.28 24.54 18.26 24.51 18.26H24.49L24.48 18.27C24.45 18.3 24.48 18.33 24.53 18.4L24.7 18.59L24.72 18.61C24.88 18.76 25.12 18.98 25.47 19.18C25.88 19.42 26.37 19.62 26.89 19.74C27.43 19.88 28.09 19.97 28.88 20.02C29.55 20.06 30.32 20.08 31.3 20.1C32.36 20.12 33.25 20.1 34.09 20.07C34.89 20.04 35.71 19.95 36.58 19.86C36.77 19.84 36.96 19.82 37.16 19.8L42.1 19.27C42.65 19.21 43.19 19.15 43.71 19.12C44.88 19.04 45.87 19.04 46.75 19.14C48.75 19.37 50.41 20.02 51.44 20.99C51.93 21.43 52.34 21.94 52.66 22.52C52.9 22.95 53.08 23.41 53.2 23.9C53.32 24.47 53.32 24.86 53.33 25.05C53.33 25.15 53.33 25.18 53.35 25.19H53.37L53.39 25.2H53.41L53.42 25.19C53.44 25.18 53.44 25.16 53.45 25.08V24.83C53.47 24.57 53.44 24.23 53.37 23.87C53.26 23.37 53.08 22.89 52.84 22.44L52.83 22.42Z" fill="#D16E4B"/>
<path d="M51.7399 25.94V25.92C51.6799 25.72 51.5999 25.41 51.4199 25.05C51.0899 24.35 50.4499 23.32 49.2599 22.4C48.6799 21.96 47.9699 21.6 47.1299 21.33C46.3499 21.07 45.4399 20.93 44.4299 20.91C42.5799 20.9 40.5699 21.06 38.4499 21.23L38.2399 21.25C36.0799 21.43 33.9799 21.59 32.0699 21.61C30.2199 21.63 28.4899 21.51 27.0499 21.27C26.3499 21.16 25.7299 21 25.1899 20.8C24.6999 20.62 24.2599 20.4 23.8999 20.15C23.4199 19.81 23.1699 19.52 23.0599 19.39C22.9999 19.32 22.9899 19.31 22.9599 19.31H22.9399L22.9099 19.33V19.35C22.9099 19.35 22.9099 19.38 22.9599 19.45L22.9799 19.48C22.9799 19.48 23.0499 19.58 23.1099 19.65C23.2499 19.81 23.4699 20.05 23.7999 20.29C24.1599 20.55 24.6099 20.8 25.1099 20.99C25.6599 21.2 26.2899 21.37 26.9999 21.49C28.4499 21.75 30.1999 21.88 32.0599 21.87C34.0199 21.87 36.1999 21.7 38.2499 21.53L38.6299 21.5C40.6899 21.33 42.6399 21.18 44.4199 21.18C45.4099 21.2 46.2899 21.33 47.0499 21.57C47.8599 21.83 48.5599 22.17 49.1199 22.58C50.2799 23.45 50.9299 24.45 51.2699 25.13C51.4299 25.45 51.5199 25.71 51.5899 25.91L51.6099 25.98C51.6899 26.28 51.6999 26.32 51.7299 26.32C51.7299 26.32 51.7399 26.32 51.7499 26.32H51.7699L51.7799 26.3C51.7899 26.28 51.7899 26.27 51.7799 26.19C51.7799 26.14 51.7599 26.06 51.7299 25.95L51.7399 25.94Z" fill="#D16E4B"/>
<path d="M23.2399 32.52C23.2399 32.46 23.2399 32.39 23.2299 32.32L23.1299 31.59L23.0299 31.16C22.8999 30.57 22.6699 29.88 22.3399 29.1C22.0399 28.39 21.6099 27.6 21.0699 26.76C19.9999 25.12 18.7799 23.86 17.9399 23.1C17.7799 22.95 17.6199 22.81 17.4799 22.69C17.4199 22.64 17.3699 22.6 17.3099 22.55C17.1099 22.38 16.9299 22.24 16.8199 22.16C16.3599 21.82 16.3499 21.82 16.3199 21.86C16.2899 21.9 16.2799 21.91 16.7199 22.28C16.8299 22.37 16.9999 22.52 17.1899 22.69C17.2499 22.75 17.3099 22.8 17.3799 22.86C17.5099 22.98 17.6499 23.1 17.7999 23.25C18.9999 24.4 20.0299 25.63 20.8499 26.9C21.3899 27.73 21.8099 28.5 22.1099 29.19C22.4399 29.95 22.6799 30.63 22.8199 31.2C23.0199 31.99 23.0899 32.58 23.1299 32.9C23.1599 33.14 23.1599 33.18 23.2099 33.18H23.2299L23.2399 33.17C23.2599 33.15 23.2699 33.14 23.2399 32.6C23.2399 32.57 23.2399 32.54 23.2399 32.51V32.52Z" fill="#D16E4B"/>
<path d="M25.61 32.16C25.6 32.09 25.58 32.01 25.57 31.93C25.54 31.74 25.49 31.53 25.43 31.32C25.41 31.24 25.39 31.16 25.37 31.08C25.34 30.95 25.29 30.81 25.24 30.67L25.21 30.5901C25.19 30.5301 25.17 30.48 25.15 30.42C25.11 30.31 25.07 30.19 25.03 30.07C24.99 29.97 24.94 29.87 24.9 29.76C24.79 29.5 24.68 29.23 24.54 28.95C24.19 28.21 23.73 27.4001 23.16 26.5301C22.04 24.8201 20.82 23.45 19.99 22.6C19.82 22.42 19.65 22.25 19.49 22.11L19.1 21.74L18.87 21.54C18.41 21.15 18.41 21.15 18.37 21.19C18.34 21.23 18.33 21.2301 18.76 21.6501L19.22 22.11C19.27 22.16 19.33 22.2201 19.38 22.2801C19.51 22.4201 19.67 22.57 19.82 22.74C21.01 24.03 22.05 25.35 22.92 26.67C23.49 27.53 23.95 28.33 24.3 29.05C24.44 29.31 24.55 29.57 24.66 29.81C24.71 29.92 24.76 30.03 24.8 30.13C24.84 30.24 24.88 30.35 24.92 30.45C24.94 30.51 24.97 30.57 24.99 30.63L25.02 30.72C25.07 30.85 25.12 30.98 25.15 31.1C25.18 31.19 25.2 31.28 25.23 31.36C25.29 31.56 25.35 31.75 25.38 31.93C25.4 32.02 25.42 32.1 25.44 32.18C25.47 32.32 25.5 32.45 25.51 32.56C25.58 33.12 25.59 33.1501 25.63 33.1501H25.65L25.66 33.14C25.68 33.12 25.69 33.11 25.66 32.55C25.66 32.42 25.63 32.28 25.61 32.12V32.16Z" fill="#D16E4B"/>
<path d="M63.4799 15.65C64.1199 15.16 64.77 14.74 65.4 14.33C65.74 14.11 66.0699 13.9 66.3799 13.68C67.3399 13.03 68.0899 12.41 68.6199 11.84C69.2099 11.22 69.57 10.64 69.78 10.27C69.88 10.11 69.9399 9.96996 69.9899 9.85996L70.02 9.78995C70.1 9.61995 70.1099 9.57997 70.0699 9.55997C70.0299 9.53997 70.0099 9.55996 69.9099 9.72996C69.8899 9.75996 69.87 9.79995 69.84 9.84995C69.79 9.93995 69.73 10.05 69.64 10.18C69.31 10.71 68.92 11.22 68.46 11.69C67.93 12.24 67.2099 12.8199 66.2399 13.4699C65.9499 13.6699 65.65 13.86 65.33 14.07C64.67 14.49 63.9899 14.93 63.3199 15.44C62.8799 15.78 62.37 16.2 61.96 16.69C61.63 17.09 61.3399 17.56 61.0499 18.15C60.8199 18.64 60.6299 19.13 60.4999 19.61C60.3799 20.06 60.2999 20.49 60.2299 20.86V20.93C60.0699 21.78 60.0099 22.45 59.9799 22.86C59.9599 23.12 59.96 23.29 59.96 23.39C59.96 23.58 59.9599 23.62 60.0099 23.62C60.0099 23.62 60.01 23.62 60.02 23.62C60.06 23.62 60.0599 23.59 60.0999 23.25C60.1099 23.15 60.12 23.02 60.14 22.87C60.21 22.22 60.3099 21.59 60.4299 20.96L60.45 20.86C60.52 20.49 60.6099 20.0799 60.7299 19.6599C60.8699 19.1999 61.05 18.72 61.28 18.25C61.57 17.67 61.8499 17.23 62.1699 16.84C62.5699 16.37 63.0899 15.95 63.4899 15.63L63.4799 15.65Z" fill="#D16E4B"/>
<path d="M70.5599 11.9C70.5599 11.9 70.5099 11.88 70.3299 12.12C70.2799 12.19 70.2199 12.27 70.1399 12.36C69.9199 12.62 69.5499 13.02 69.0299 13.45C68.4799 13.9 67.7599 14.38 67.1199 14.79L66.8599 14.96C66.1999 15.38 65.4599 15.86 64.7799 16.46C64.0699 17.07 63.4299 17.85 62.9499 18.71C62.5599 19.41 62.2799 20.15 62.1199 20.93C62.0099 21.46 61.9499 22 61.9599 22.52C61.9599 22.67 61.9599 22.79 61.9799 22.89V22.96C61.9999 23.1 61.9999 23.15 62.0499 23.15C62.0499 23.15 62.0999 23.13 62.1099 22.89C62.1099 22.8 62.1099 22.68 62.1199 22.53C62.1399 21.99 62.2199 21.48 62.3299 20.99C62.5099 20.24 62.7899 19.52 63.1699 18.85C63.6499 18.01 64.2499 17.28 64.9499 16.68C65.5999 16.11 66.2799 15.66 66.9399 15.22C67.0499 15.15 67.1499 15.08 67.2599 15.01C67.8499 14.62 68.5999 14.11 69.1699 13.62C69.7199 13.15 70.0699 12.73 70.2699 12.46C70.3499 12.35 70.4099 12.25 70.4599 12.17C70.4799 12.14 70.4899 12.12 70.5099 12.09C70.5799 11.97 70.6099 11.93 70.5699 11.9H70.5599Z" fill="#D16E4B"/>
<path d="M36.09 18.86H36.1C36.13 18.86 36.15 18.82 36.2 18.66L36.27 18.45L36.37 18.17C36.54 17.73 36.8 17.14 37.29 16.52C37.79 15.85 38.5 15.2 39.36 14.63C40.14 14.11 41.08 13.61 42.43 13.01C43.24 12.65 44.03 12.33 44.79 12.01C46.15 11.45 47.33 10.96 48.25 10.45C49.02 10.04 49.56 9.65005 49.88 9.40005C50.08 9.24005 50.21 9.13002 50.29 9.06002C50.43 8.93002 50.45 8.91002 50.42 8.87002C50.39 8.83002 50.38 8.84002 50.18 8.99002C50.09 9.06002 49.96 9.16005 49.79 9.28005C49.29 9.63005 48.74 9.96005 48.15 10.27C47.3 10.72 46.22 11.15 44.98 11.66C44.13 12.01 43.24 12.37 42.32 12.77C40.99 13.36 39.9999 13.89 39.2199 14.42C38.3399 15.01 37.62 15.69 37.12 16.39C36.74 16.91 36.45 17.47 36.23 18.12L36.2 18.22C36.18 18.29 36.16 18.36 36.14 18.42L36.09 18.64C36.05 18.82 36.04 18.86 36.09 18.87V18.86Z" fill="#D16E4B"/>
<path d="M65.7999 8.30998C66.5599 7.96998 67.1699 7.65001 67.6699 7.34001C68.1599 7.03001 68.5999 6.69999 68.9399 6.37999C69.2699 6.06999 69.4899 5.77999 69.6099 5.62999L69.7599 5.40996C69.8099 5.32996 69.8299 5.30001 69.7899 5.27001C69.7499 5.24001 69.7299 5.27001 69.6699 5.34001L69.5699 5.46996L69.4899 5.56999C69.3399 5.73999 69.1299 5.97999 68.8299 6.24999C68.4899 6.55999 68.0499 6.87997 67.5699 7.16997C67.0699 7.46997 66.4699 7.77997 65.7099 8.10997C64.0899 8.80997 62.3799 9.45001 60.6199 10.02C58.5099 10.7 56.3399 11.25 54.1799 11.67C53.0599 11.89 51.9599 12.05 50.8899 12.21C49.7299 12.38 48.6399 12.54 47.5999 12.77C47.0799 12.88 46.5899 13 46.1399 13.13C45.6599 13.26 45.2099 13.41 44.7899 13.57C43.9699 13.87 43.1999 14.25 42.4999 14.7C41.8699 15.1 41.3199 15.54 40.8399 16.01C40.4599 16.38 40.1299 16.79 39.8199 17.24L39.7699 17.32C39.6699 17.48 39.5799 17.61 39.5199 17.74L39.4899 17.79C39.4199 17.91 39.3599 18.02 39.3199 18.12L39.2199 18.36C39.1799 18.45 39.1699 18.48 39.2199 18.5C39.2199 18.5 39.2299 18.5 39.2399 18.5C39.2699 18.5 39.2899 18.47 39.3199 18.4L39.4399 18.17C39.4799 18.09 39.5299 17.99 39.5999 17.89L39.6499 17.81C39.7099 17.69 39.7999 17.57 39.8999 17.43L39.9599 17.34C40.2699 16.9 40.6099 16.52 40.9799 16.16C41.4499 15.71 41.9999 15.28 42.6199 14.9C43.3199 14.47 44.0799 14.1 44.8799 13.81C45.2899 13.66 45.7399 13.51 46.2199 13.39C46.6699 13.27 47.1599 13.15 47.6699 13.05C48.6799 12.84 49.7499 12.68 50.8799 12.52C51.9699 12.36 53.0999 12.19 54.2499 11.97C56.4299 11.55 58.5999 10.99 60.7199 10.3C62.4999 9.71997 64.2099 9.05996 65.8199 8.34996L65.7999 8.30998Z" fill="#D16E4B"/>
<path d="M48.95 25.92L48.56 26.16C48.47 26.21 48.38 26.27 48.28 26.32C48.22 26.36 48.15 26.39 48.08 26.43C47.98 26.49 47.88 26.55 47.77 26.61C47.51 26.76 47.22 26.92 46.91 27.08L46.22 27.44C46.07 27.52 45.91 27.59 45.75 27.67C45.65 27.71 45.56 27.76 45.46 27.81C45.04 28.02 44.59 28.21 44.12 28.41L43.76 28.56C42.4 29.1 41.04 29.55 39.72 29.91C38.39 30.26 36.98 30.54 35.54 30.74L35.15 30.79C34.64 30.85 34.15 30.91 33.69 30.94C33.58 30.94 33.48 30.96 33.37 30.96C33.19 30.97 33.01 30.99 32.84 31L32.06 31.03C31.71 31.05 31.38 31.05 31.08 31.05C30.96 31.05 30.83 31.05 30.72 31.05C30.64 31.05 30.57 31.05 30.49 31.05C30.38 31.05 30.27 31.05 30.17 31.05L29.71 31.03C28.76 31 28.76 31.01 28.75 31.11C28.75 31.21 28.74 31.23 29.69 31.32L30.16 31.36C30.28 31.36 30.4 31.37 30.53 31.38H30.72C30.81 31.39 30.91 31.39 31.01 31.4C31.25 31.4 31.51 31.42 31.79 31.42C31.88 31.42 31.98 31.42 32.07 31.42H32.86C33.04 31.41 33.22 31.4 33.42 31.38C33.52 31.38 33.62 31.37 33.72 31.36C34.22 31.34 34.74 31.29 35.29 31.23L35.61 31.2C37.07 31.01 38.5 30.74 39.86 30.38C41.22 30.02 42.59 29.55 43.95 28.99L44.24 28.86C44.75 28.64 45.23 28.43 45.67 28.2C45.76 28.15 45.85 28.11 45.94 28.07C46.11 27.99 46.28 27.91 46.44 27.82L47.13 27.44C47.47 27.26 47.78 27.07 48.05 26.9C48.13 26.85 48.22 26.8 48.3 26.75L48.45 26.65C48.56 26.58 48.67 26.51 48.77 26.45L49.15 26.18C49.93 25.63 49.92 25.62 49.86 25.54C49.8 25.46 49.8 25.45 48.99 25.94L48.95 25.92Z" fill="#D16E4B"/>
<path d="M19.91 31.05L18.04 30.96C15.93 30.85 13.86 30.7 11.89 30.51C11.53 30.47 11.18 30.44 10.84 30.4C8.82998 30.2 7.08999 30.02 5.84999 29.54C5.01999 29.23 4.49998 28.85 4.26998 28.65L4.04998 28.46C4.04998 28.46 3.97998 28.4 3.95998 28.37C3.93998 28.35 3.91999 28.33 3.90999 28.31C3.77999 28.18 3.72999 28.13 3.65999 28.19C3.58999 28.25 3.63999 28.32 3.74999 28.46L3.77999 28.5C3.77999 28.5 3.85 28.58 3.89 28.63L4.09999 28.84C4.32999 29.06 4.85 29.49 5.73 29.84C6.43 30.13 7.32998 30.34 8.45998 30.5C9.46998 30.64 10.61 30.77 11.85 30.89C14.64 31.16 16.92 31.25 18.03 31.27C18.7 31.29 19.25 31.29 19.64 31.29C19.74 31.29 19.83 31.29 19.9 31.29C20.67 31.29 20.67 31.27 20.67 31.17C20.67 31.07 20.67 31.06 19.9 31.03L19.91 31.05Z" fill="#D16E4B"/>
<path d="M70.4899 17.68L70.46 17.66C70.39 17.59 70.35 17.62 70.02 17.92C69.88 18.04 69.71 18.2 69.5 18.38C69.24 18.61 68.91 18.86 68.56 19.11C68.15 19.4 67.74 19.66 67.33 19.89C66.92 20.12 66.48 20.33 66.02 20.53C65.62 20.7 65.2299 20.84 64.9099 20.95C64.6499 21.04 64.42 21.1 64.25 21.16C63.82 21.29 63.7799 21.3 63.7999 21.4V21.44L63.84 21.46C63.86 21.47 63.8899 21.48 63.9299 21.48C64.1499 21.48 64.67 21.37 65 21.28C65.34 21.19 65.7499 21.06 66.1599 20.89C66.6299 20.7 67.09 20.48 67.51 20.25C67.94 20.01 68.36 19.73 68.77 19.43C69.13 19.16 69.45 18.89 69.71 18.64C70.01 18.36 70.4799 17.86 70.4799 17.74V17.7L70.4899 17.68Z" fill="#D16E4B"/>
<path d="M57.8701 22.93C57.5501 23.06 57.1101 23.23 56.6201 23.4C56.1301 23.58 55.6801 23.72 55.3501 23.82C54.7401 24.01 54.7001 24.03 54.7201 24.12V24.16L54.7701 24.18C54.7901 24.18 54.8201 24.19 54.8601 24.19C55.1501 24.19 55.9601 24 56.7401 23.73C57.6401 23.42 58.5101 22.97 58.5601 22.84V22.8V22.77C58.5101 22.68 58.4701 22.7 57.8801 22.93H57.8701Z" fill="#D16E4B"/>
<path d="M31.96 17.08C31.96 17.08 31.87 17.0601 31.84 17.0301C31.28 16.4901 30.57 16.08 29.88 15.68C29.5 15.46 29.1099 15.23 28.7399 14.98C28.4799 14.81 28.22 14.63 27.95 14.6C27.79 14.58 27.5499 14.6601 27.4099 14.8401C27.2599 15.0301 27.23 15.3 27.34 15.61C27.37 15.7 27.3199 15.8 27.2399 15.83C27.1499 15.86 27.05 15.81 27.02 15.73C26.87 15.31 26.91 14.92 27.14 14.63C27.38 14.33 27.7399 14.23 27.9899 14.26C28.3499 14.3 28.6599 14.51 28.9299 14.7C29.2899 14.94 29.6699 15.17 30.0499 15.39C30.7599 15.8 31.49 16.23 32.07 16.79C32.14 16.86 32.14 16.9601 32.07 17.0301C32.04 17.0601 31.99 17.08 31.95 17.08H31.96Z" fill="#4A281A"/>
<path d="M34.44 15.33C34.39 15.33 34.34 15.31 34.3 15.26C33.35 13.99 31.9899 13.04 30.4699 12.57L30.4199 12.55C30.1399 12.46 29.96 12.42 29.83 12.55C29.66 12.71 29.6099 12.99 29.7199 13.2C29.7599 13.28 29.72 13.39 29.65 13.43C29.56 13.47 29.4599 13.43 29.4199 13.36C29.2499 13.02 29.33 12.57 29.61 12.31C29.9 12.04 30.24 12.15 30.53 12.24H30.58C32.17 12.74 33.59 13.73 34.59 15.06C34.65 15.14 34.63 15.24 34.56 15.3C34.53 15.32 34.49 15.33 34.46 15.33H34.44Z" fill="#4A281A"/>
<path d="M37.3699 13.75C37.3699 13.75 37.2699 13.73 37.2399 13.69C36.4799 12.76 35.6199 11.97 34.6799 11.37C33.9599 10.9 33.2399 10.47 32.4499 10.24C32.0999 10.14 31.5999 10.18 31.4299 10.4C31.3299 10.52 31.3499 10.71 31.4699 10.95C31.5099 11.03 31.4799 11.14 31.3999 11.18C31.3199 11.22 31.2099 11.19 31.1699 11.11C30.9199 10.65 31.0299 10.35 31.1599 10.18C31.4399 9.83 32.0799 9.77003 32.5399 9.90003C33.3799 10.13 34.1499 10.6 34.8599 11.07C35.8299 11.7 36.7199 12.5 37.4999 13.47C37.5599 13.54 37.5499 13.65 37.4699 13.71C37.4399 13.74 37.3999 13.75 37.3599 13.75H37.3699Z" fill="#4A281A"/>
<path d="M39.9099 11.82C39.8499 11.82 39.8 11.79 39.76 11.74C39.13 10.75 38.33 9.85998 37.4 9.10998C36.93 8.72998 36.43 8.38997 35.9 8.09997C35.86 8.06997 35.8 8.04001 35.74 8.01001C35.3 7.75001 34.2799 7.14997 33.7999 7.34997C33.6899 7.39997 33.61 7.49001 33.57 7.64001C33.51 7.87001 33.56 8.12999 33.71 8.30999C33.77 8.37999 33.76 8.48998 33.69 8.54998C33.62 8.60998 33.51 8.60003 33.45 8.53003C33.23 8.26003 33.15 7.87998 33.25 7.54998C33.32 7.29998 33.47 7.12997 33.68 7.03997C34.31 6.77997 35.3599 7.39997 35.9199 7.71997C35.9799 7.75997 36.03 7.78999 36.08 7.80999C36.62 8.10999 37.14 8.45997 37.63 8.84997C38.6 9.61997 39.42 10.54 40.07 11.56C40.12 11.64 40.1 11.75 40.02 11.8C39.99 11.82 39.96 11.83 39.93 11.83L39.9099 11.82Z" fill="#4A281A"/>
<path d="M43.1299 9.23998C43.1299 9.23998 43.0299 9.21998 42.9999 9.17998C42.0399 8.02998 40.8799 7.06998 39.5599 6.30998C38.8999 5.92998 38.1999 5.60996 37.4899 5.34996C37.4299 5.32996 37.3499 5.28999 37.2499 5.24999C36.8599 5.08999 35.9299 4.71 35.6099 4.89C35.5699 4.91 35.5299 4.94996 35.5099 5.03996C35.4899 5.15996 35.7399 5.65999 35.8599 5.74999C35.9399 5.80999 35.9499 5.90998 35.8999 5.98998C35.8399 6.06998 35.7399 6.08002 35.6599 6.03002C35.4599 5.88002 35.1299 5.26998 35.1799 4.98998C35.2099 4.80998 35.2999 4.67001 35.4499 4.59001C35.8799 4.35001 36.6699 4.63998 37.3899 4.92998C37.4799 4.96998 37.5599 5.00001 37.6199 5.02001C38.3499 5.28001 39.0699 5.60999 39.7499 5.99999C41.1099 6.77999 42.2999 7.77 43.2899 8.95C43.3499 9.02 43.3399 9.12999 43.2699 9.18999C43.2399 9.21999 43.1999 9.22997 43.1599 9.22997L43.1299 9.23998Z" fill="#4A281A"/>
<path d="M31.4199 17.41C31.5799 17.55 31.8299 17.57 32.0399 17.5C32.2499 17.43 32.41 17.27 32.53 17.1C32.86 16.66 32.4999 16.1 31.9099 16.29C31.4999 16.42 31.0299 17.05 31.4199 17.4V17.41Z" fill="#4A281A"/>
<path d="M33.8999 15.94C34.0599 16.08 34.3099 16.1 34.5199 16.03C34.7299 15.96 34.8899 15.8 35.0099 15.63C35.3399 15.19 34.9799 14.63 34.3899 14.82C33.9799 14.95 33.5099 15.58 33.8999 15.93V15.94Z" fill="#4A281A"/>
<path d="M36.8199 14.2C36.9799 14.34 37.2299 14.36 37.4399 14.29C37.6499 14.22 37.8099 14.06 37.9299 13.89C38.2599 13.45 37.8999 12.89 37.3099 13.08C36.8999 13.21 36.4299 13.84 36.8199 14.19V14.2Z" fill="#4A281A"/>
<path d="M39.3699 12.13C39.5299 12.27 39.7799 12.29 39.9899 12.22C40.1999 12.15 40.3599 11.99 40.4799 11.82C40.8099 11.38 40.4499 10.82 39.8599 11.01C39.4499 11.14 38.9799 11.77 39.3699 12.12V12.13Z" fill="#4A281A"/>
<path d="M42.58 9.78999C42.74 9.92999 42.9899 9.95002 43.1999 9.88002C43.4099 9.81002 43.5699 9.64999 43.6899 9.47999C44.0199 9.03999 43.6599 8.47999 43.0699 8.66999C42.6599 8.79999 42.19 9.43004 42.58 9.78004V9.78999Z" fill="#4A281A"/>
</svg>
