<svg width="44" height="64" viewBox="0 0 44 64" fill="none" xmlns="http://www.w3.org/2000/svg">
<path d="M38.4799 51.97C34.1499 55.24 29.3499 57.88 24.2799 59.78C20.9299 61.04 17.1499 59.85 15.1699 56.86C9.22992 47.87 4.32992 38.52 0.599924 28.84C-0.670076 25.54 0.469918 21.82 3.35992 19.78C7.22992 17.05 11.3899 14.69 15.9199 12.74C19.1899 11.33 22.9899 12.36 25.1099 15.22C31.4299 23.71 36.7099 33.01 40.8499 42.92C42.1899 46.13 41.2499 49.87 38.4699 51.97H38.4799Z" fill="#00E4F3"/>
<path d="M35.8199 43.08C32.1199 34.94 27.7799 27.1 22.8499 19.64C21.4699 17.55 18.7799 16.71 16.4699 17.66C13.1399 19.03 10.1099 20.75 7.34986 22.77C5.34986 24.23 4.63986 26.89 5.62986 29.15C9.27986 37.5 13.4398 45.29 17.9298 52.57C19.3198 54.83 22.1599 55.72 24.5899 54.65C27.7799 53.25 30.8899 51.62 33.8699 49.7C36.0699 48.29 36.9099 45.46 35.8199 43.09V43.08Z" stroke="#00C9DD" stroke-width="0.67" stroke-linecap="round" stroke-linejoin="round"/>
<g style="mix-blend-mode:soft-light">
<path d="M15.3899 14.4C19.4399 12.94 23.1199 14.56 27.1299 18.01C26.4699 17.08 25.8099 16.15 25.1299 15.23C23.0099 12.37 19.2099 11.34 15.9399 12.75C11.4099 14.7 7.23994 17.06 3.37994 19.79C2.71994 20.25 2.15994 20.81 1.68994 21.42C5.05994 19.44 11.4499 15.83 15.3999 14.4H15.3899Z" fill="white"/>
</g>
<g style="mix-blend-mode:multiply" opacity="0.18">
<path d="M40.98 43.25C38.28 46.4 32.39 51.61 23.72 50.16C15.31 48.76 7.55002 40.69 3.52002 35.8C6.77002 43.01 10.67 50.04 15.17 56.85C17.14 59.84 20.93 61.03 24.28 59.77C29.36 57.87 34.16 55.23 38.48 51.96C41.16 49.93 42.13 46.38 40.98 43.24V43.25Z" fill="#2F6A99"/>
</g>
<path opacity="0.45" d="M35.5299 23.27C40.2078 23.27 43.9999 19.4778 43.9999 14.8C43.9999 10.1221 40.2078 6.32999 35.5299 6.32999C30.8521 6.32999 27.0599 10.1221 27.0599 14.8C27.0599 19.4778 30.8521 23.27 35.5299 23.27Z" fill="#A3FFFF"/>
<path opacity="0.75" d="M31.6199 1.57999C31.4399 0.629991 30.5199 0.0100163 29.5699 0.200016C28.6199 0.380016 27.9999 1.3 28.1899 2.25C28.3799 3.2 29.2899 3.82001 30.2399 3.63001C31.1899 3.45001 31.8099 2.52999 31.6199 1.57999Z" fill="#A3FFFF"/>
<path opacity="0.75" d="M22.7799 11.47C25.0388 11.47 26.8699 9.63885 26.8699 7.38C26.8699 5.12116 25.0388 3.29001 22.7799 3.29001C20.5211 3.29001 18.6899 5.12116 18.6899 7.38C18.6899 9.63885 20.5211 11.47 22.7799 11.47Z" fill="#A3FFFF"/>
<path opacity="0.75" d="M10.96 29.42C15.069 29.42 18.4 26.089 18.4 21.98C18.4 17.871 15.069 14.54 10.96 14.54C6.85102 14.54 3.52002 17.871 3.52002 21.98C3.52002 26.089 6.85102 29.42 10.96 29.42Z" fill="#A3FFFF"/>
<path opacity="0.45" d="M23.0699 24.47C24.7654 24.47 26.1399 23.0955 26.1399 21.4C26.1399 19.7045 24.7654 18.33 23.0699 18.33C21.3744 18.33 19.9999 19.7045 19.9999 21.4C19.9999 23.0955 21.3744 24.47 23.0699 24.47Z" fill="white"/>
<path opacity="0.45" d="M13.9214 11.556C15.1038 11.3012 15.8557 10.1362 15.6009 8.95379C15.3462 7.77142 14.1811 7.01945 12.9988 7.27423C11.8164 7.529 11.0644 8.69403 11.3192 9.8764C11.574 11.0588 12.739 11.8107 13.9214 11.556Z" fill="#A3FFFF"/>
<path opacity="0.45" d="M37.52 20.08C37.52 19.27 36.87 18.62 36.06 18.62C35.25 18.62 34.6 19.27 34.6 20.08C34.6 20.89 35.25 21.54 36.06 21.54C36.87 21.54 37.52 20.89 37.52 20.08Z" fill="white"/>
<path opacity="0.45" d="M15.9199 19.65C15.9199 19.17 15.5299 18.77 15.0399 18.77C14.5499 18.77 14.1599 19.16 14.1599 19.65C14.1599 20.14 14.5499 20.53 15.0399 20.53C15.5299 20.53 15.9199 20.14 15.9199 19.65Z" fill="white"/>
<path opacity="0.75" d="M26.7099 60.65C28.6705 60.65 30.2599 59.0606 30.2599 57.1C30.2599 55.1394 28.6705 53.55 26.7099 53.55C24.7493 53.55 23.1599 55.1394 23.1599 57.1C23.1599 59.0606 24.7493 60.65 26.7099 60.65Z" fill="#A3FFFF"/>
<path opacity="0.75" d="M25.0699 51.56C24.9899 51.16 24.6099 50.9 24.2099 50.98C23.8099 51.06 23.5499 51.44 23.6299 51.84C23.7099 52.24 24.0899 52.5 24.4899 52.42C24.8899 52.34 25.1499 51.96 25.0699 51.56Z" fill="white"/>
<path opacity="0.75" d="M21.3599 55.7C22.3043 55.7 23.0699 54.9344 23.0699 53.99C23.0699 53.0456 22.3043 52.28 21.3599 52.28C20.4155 52.28 19.6499 53.0456 19.6499 53.99C19.6499 54.9344 20.4155 55.7 21.3599 55.7Z" fill="white"/>
<path opacity="0.75" d="M16.41 63.23C18.1332 63.23 19.53 61.8331 19.53 60.11C19.53 58.3869 18.1332 56.99 16.41 56.99C14.6869 56.99 13.29 58.3869 13.29 60.11C13.29 61.8331 14.6869 63.23 16.41 63.23Z" fill="#A3FFFF"/>
<path opacity="0.75" d="M21.49 61.16C22.2024 61.16 22.78 60.5824 22.78 59.87C22.78 59.1575 22.2024 58.58 21.49 58.58C20.7775 58.58 20.2 59.1575 20.2 59.87C20.2 60.5824 20.7775 61.16 21.49 61.16Z" fill="#A3FFFF"/>
<path opacity="0.45" d="M17.45 55.77C17.9581 55.77 18.37 55.3581 18.37 54.85C18.37 54.3419 17.9581 53.93 17.45 53.93C16.9419 53.93 16.53 54.3419 16.53 54.85C16.53 55.3581 16.9419 55.77 17.45 55.77Z" fill="white"/>
<path opacity="0.45" d="M27.5399 59.32C27.5399 58.98 27.2699 58.71 26.9299 58.71C26.5899 58.71 26.3199 58.98 26.3199 59.32C26.3199 59.66 26.5899 59.93 26.9299 59.93C27.2699 59.93 27.5399 59.66 27.5399 59.32Z" fill="white"/>
<path opacity="0.45" d="M18.4899 59.13C18.4899 58.93 18.3299 58.76 18.1199 58.76C17.9099 58.76 17.7499 58.92 17.7499 59.13C17.7499 59.34 17.9099 59.5 18.1199 59.5C18.3299 59.5 18.4899 59.34 18.4899 59.13Z" fill="white"/>
</svg>
