<?xml version="1.0" encoding="UTF-8" standalone="no"?>
<!-- Created with Inkscape (http://www.inkscape.org/) -->

<svg
   version="1.1"
   id="svg9"
   width="91.667969"
   height="35.290131"
   viewBox="0 0 91.667972 35.290131"
   sodipodi:docname="3-6_years_abc_page_1024x720.ai"
   xmlns:inkscape="http://www.inkscape.org/namespaces/inkscape"
   xmlns:sodipodi="http://sodipodi.sourceforge.net/DTD/sodipodi-0.dtd"
   xmlns="http://www.w3.org/2000/svg"
   xmlns:svg="http://www.w3.org/2000/svg">
  <defs
     id="defs13">
    <clipPath
       clipPathUnits="userSpaceOnUse"
       id="clipPath6243">
      <path
         d="M 0,720 H 1024 V 0 H 0 Z"
         id="path6241" />
    </clipPath>
    <clipPath
       clipPathUnits="userSpaceOnUse"
       id="clipPath6267">
      <path
         d="m 790.158,352.582 h 3.278 v -3.279 h -3.278 z"
         id="path6265" />
    </clipPath>
    <clipPath
       clipPathUnits="userSpaceOnUse"
       id="clipPath6283">
      <path
         d="m 790.158,352.582 h 3.278 v -3.279 h -3.278 z"
         id="path6281" />
    </clipPath>
    <clipPath
       clipPathUnits="userSpaceOnUse"
       id="clipPath6303">
      <path
         d="m 800.693,352.582 h 3.278 v -3.279 h -3.278 z"
         id="path6301" />
    </clipPath>
    <clipPath
       clipPathUnits="userSpaceOnUse"
       id="clipPath6319">
      <path
         d="m 800.693,352.582 h 3.278 v -3.279 h -3.278 z"
         id="path6317" />
    </clipPath>
    <clipPath
       clipPathUnits="userSpaceOnUse"
       id="clipPath6339">
      <path
         d="m 817.843,352.582 h 3.279 v -3.279 h -3.279 z"
         id="path6337" />
    </clipPath>
    <clipPath
       clipPathUnits="userSpaceOnUse"
       id="clipPath6355">
      <path
         d="m 817.843,352.582 h 3.279 v -3.279 h -3.279 z"
         id="path6353" />
    </clipPath>
    <clipPath
       clipPathUnits="userSpaceOnUse"
       id="clipPath6375">
      <path
         d="m 828.378,352.582 h 3.279 v -3.279 h -3.279 z"
         id="path6373" />
    </clipPath>
    <clipPath
       clipPathUnits="userSpaceOnUse"
       id="clipPath6391">
      <path
         d="m 828.378,352.582 h 3.279 v -3.279 h -3.279 z"
         id="path6389" />
    </clipPath>
    <clipPath
       clipPathUnits="userSpaceOnUse"
       id="clipPath6411">
      <path
         d="m 810.169,348.045 h 1.476 v -3.056 h -1.476 z"
         id="path6409" />
    </clipPath>
    <clipPath
       clipPathUnits="userSpaceOnUse"
       id="clipPath6443">
      <path
         d="m 778.688,346.478 h 3.262 v -0.369 h -3.262 z"
         id="path6441" />
    </clipPath>
    <clipPath
       clipPathUnits="userSpaceOnUse"
       id="clipPath6469">
      <path
         d="m 839.865,346.478 h 3.262 v -0.369 h -3.262 z"
         id="path6467" />
    </clipPath>
    <clipPath
       clipPathUnits="userSpaceOnUse"
       id="clipPath6489">
      <path
         d="m 664.175,401.71 h 90.867 V 271.357 h -90.867 z"
         id="path6487" />
    </clipPath>
  </defs>
  <sodipodi:namedview
     id="namedview11"
     pagecolor="#ffffff"
     bordercolor="#000000"
     borderopacity="0.25"
     inkscape:showpageshadow="2"
     inkscape:pageopacity="0.0"
     inkscape:pagecheckerboard="0"
     inkscape:deskcolor="#d1d1d1"
     showgrid="false"
     inkscape:zoom="0.91259771"
     inkscape:cx="459.12892"
     inkscape:cy="493.64577"
     inkscape:window-width="2155"
     inkscape:window-height="1205"
     inkscape:window-x="0"
     inkscape:window-y="25"
     inkscape:window-maximized="0"
     inkscape:current-layer="g15" />
  <g
     id="g15"
     inkscape:groupmode="layer"
     inkscape:label="3-6_years_abc_page_1024x720"
     transform="matrix(1.3333333,0,0,-1.3333333,-707.73942,505.67395)">
    <g
       id="g6237"
       transform="translate(-245.72712,21.367576)">
      <g
         id="g6239"
         clip-path="url(#clipPath6243)">
        <g
           id="g6245"
           transform="translate(810.9072,339.6049)">
          <path
             d="m 0,0 h -27.685 v 14.229 c 0,2.239 1.815,4.054 4.053,4.054 H -4.054 C -1.815,18.283 0,16.468 0,14.229 Z"
             style="fill:#43a1ff;fill-opacity:1;fill-rule:nonzero;stroke:none"
             id="path6247" />
        </g>
        <g
           id="g6249"
           transform="translate(838.5926,339.6049)">
          <path
             d="m 0,0 h -27.685 v 14.229 c 0,2.239 1.815,4.054 4.053,4.054 H -4.054 C -1.815,18.283 0,16.468 0,14.229 Z"
             style="fill:#43a1ff;fill-opacity:1;fill-rule:nonzero;stroke:none"
             id="path6251" />
        </g>
        <g
           id="g6253"
           transform="translate(834.6796,357.8841)">
          <path
             d="m 0,0 v -7.152 c 0,-2.463 -1.997,-4.46 -4.46,-4.46 h -46.998 v -6.664 H 3.913 v 14.23 C 3.913,-1.855 2.173,-0.075 0,0"
             style="fill:#457eef;fill-opacity:1;fill-rule:nonzero;stroke:none"
             id="path6255" />
        </g>
        <g
           id="g6257"
           transform="translate(838.5926,335.1647)">
          <path
             d="m 0,0 h -55.371 v 4.22 c 0,2.238 1.815,4.053 4.054,4.053 H -4.054 C -1.815,8.273 0,6.458 0,4.22 Z"
             style="fill:#1d4ed8;fill-opacity:1;fill-rule:nonzero;stroke:none"
             id="path6259" />
        </g>
        <g
           id="g6261">
          <g
             id="g6263" />
          <g
             id="g6275">
            <g
               clip-path="url(#clipPath6267)"
               opacity="0.5"
               id="g6273">
              <g
                 transform="translate(793.3441,349.3035)"
                 id="g6271">
                <path
                   d="m 0,0 c -0.024,0 -0.047,0.009 -0.065,0.027 l -3.094,3.094 c -0.036,0.036 -0.036,0.095 0,0.131 0.036,0.036 0.094,0.036 0.13,0 L 0.065,0.157 C 0.101,0.121 0.101,0.063 0.065,0.027 0.047,0.009 0.024,0 0,0"
                   style="fill:#313960;fill-opacity:1;fill-rule:nonzero;stroke:none"
                   id="path6269" />
              </g>
            </g>
          </g>
        </g>
        <g
           id="g6277">
          <g
             id="g6279" />
          <g
             id="g6291">
            <g
               clip-path="url(#clipPath6283)"
               opacity="0.5"
               id="g6289">
              <g
                 transform="translate(790.2501,349.3035)"
                 id="g6287">
                <path
                   d="m 0,0 c -0.024,0 -0.047,0.009 -0.065,0.027 -0.036,0.036 -0.036,0.094 0,0.13 l 3.094,3.095 c 0.036,0.036 0.094,0.036 0.13,0 0.036,-0.036 0.036,-0.095 0,-0.131 L 0.065,0.027 C 0.047,0.009 0.024,0 0,0"
                   style="fill:#313960;fill-opacity:1;fill-rule:nonzero;stroke:none"
                   id="path6285" />
              </g>
            </g>
          </g>
        </g>
        <g
           id="g6293"
           transform="translate(792.3757,350.9428)">
          <path
             d="m 0,0 c 0,-0.32 -0.259,-0.579 -0.579,-0.579 -0.319,0 -0.578,0.259 -0.578,0.579 0,0.32 0.259,0.579 0.578,0.579 C -0.259,0.579 0,0.32 0,0"
             style="fill:#1d4ed8;fill-opacity:1;fill-rule:nonzero;stroke:none"
             id="path6295" />
        </g>
        <g
           id="g6297">
          <g
             id="g6299" />
          <g
             id="g6311">
            <g
               clip-path="url(#clipPath6303)"
               opacity="0.5"
               id="g6309">
              <g
                 transform="translate(803.8791,349.3035)"
                 id="g6307">
                <path
                   d="m 0,0 c -0.024,0 -0.047,0.009 -0.065,0.027 l -3.094,3.094 c -0.036,0.036 -0.036,0.095 0,0.131 0.036,0.036 0.094,0.036 0.13,0 L 0.065,0.157 C 0.101,0.121 0.101,0.063 0.065,0.027 0.047,0.009 0.024,0 0,0"
                   style="fill:#313960;fill-opacity:1;fill-rule:nonzero;stroke:none"
                   id="path6305" />
              </g>
            </g>
          </g>
        </g>
        <g
           id="g6313">
          <g
             id="g6315" />
          <g
             id="g6327">
            <g
               clip-path="url(#clipPath6319)"
               opacity="0.5"
               id="g6325">
              <g
                 transform="translate(800.7849,349.3035)"
                 id="g6323">
                <path
                   d="m 0,0 c -0.024,0 -0.047,0.009 -0.065,0.027 -0.036,0.036 -0.036,0.094 0,0.13 l 3.094,3.095 c 0.036,0.036 0.094,0.036 0.13,0 0.036,-0.036 0.036,-0.095 0,-0.131 L 0.065,0.027 C 0.047,0.009 0.024,0 0,0"
                   style="fill:#313960;fill-opacity:1;fill-rule:nonzero;stroke:none"
                   id="path6321" />
              </g>
            </g>
          </g>
        </g>
        <g
           id="g6329"
           transform="translate(802.9106,350.9428)">
          <path
             d="m 0,0 c 0,-0.32 -0.259,-0.579 -0.579,-0.579 -0.319,0 -0.578,0.259 -0.578,0.579 0,0.32 0.259,0.579 0.578,0.579 C -0.259,0.579 0,0.32 0,0"
             style="fill:#1d4ed8;fill-opacity:1;fill-rule:nonzero;stroke:none"
             id="path6331" />
        </g>
        <g
           id="g6333">
          <g
             id="g6335" />
          <g
             id="g6347">
            <g
               clip-path="url(#clipPath6339)"
               opacity="0.5"
               id="g6345">
              <g
                 transform="translate(821.0295,349.3035)"
                 id="g6343">
                <path
                   d="m 0,0 c -0.024,0 -0.047,0.009 -0.065,0.027 l -3.094,3.094 c -0.036,0.036 -0.036,0.095 0,0.131 0.036,0.036 0.094,0.036 0.13,0 L 0.065,0.157 C 0.101,0.121 0.101,0.063 0.065,0.027 0.047,0.009 0.024,0 0,0"
                   style="fill:#313960;fill-opacity:1;fill-rule:nonzero;stroke:none"
                   id="path6341" />
              </g>
            </g>
          </g>
        </g>
        <g
           id="g6349">
          <g
             id="g6351" />
          <g
             id="g6363">
            <g
               clip-path="url(#clipPath6355)"
               opacity="0.5"
               id="g6361">
              <g
                 transform="translate(817.9354,349.3035)"
                 id="g6359">
                <path
                   d="m 0,0 c -0.024,0 -0.047,0.009 -0.065,0.027 -0.036,0.036 -0.036,0.094 0,0.13 l 3.094,3.095 c 0.036,0.036 0.094,0.036 0.13,0 0.036,-0.036 0.036,-0.095 0,-0.131 L 0.065,0.027 C 0.047,0.009 0.024,0 0,0"
                   style="fill:#313960;fill-opacity:1;fill-rule:nonzero;stroke:none"
                   id="path6357" />
              </g>
            </g>
          </g>
        </g>
        <g
           id="g6365"
           transform="translate(820.061,350.9428)">
          <path
             d="m 0,0 c 0,-0.32 -0.259,-0.579 -0.578,-0.579 -0.32,0 -0.579,0.259 -0.579,0.579 0,0.32 0.259,0.579 0.579,0.579 C -0.259,0.579 0,0.32 0,0"
             style="fill:#1d4ed8;fill-opacity:1;fill-rule:nonzero;stroke:none"
             id="path6367" />
        </g>
        <g
           id="g6369">
          <g
             id="g6371" />
          <g
             id="g6383">
            <g
               clip-path="url(#clipPath6375)"
               opacity="0.5"
               id="g6381">
              <g
                 transform="translate(831.5645,349.3035)"
                 id="g6379">
                <path
                   d="m 0,0 c -0.024,0 -0.047,0.009 -0.065,0.027 l -3.094,3.094 c -0.036,0.036 -0.036,0.095 0,0.131 0.036,0.036 0.094,0.036 0.13,0 L 0.065,0.157 C 0.101,0.121 0.101,0.063 0.065,0.027 0.047,0.009 0.024,0 0,0"
                   style="fill:#313960;fill-opacity:1;fill-rule:nonzero;stroke:none"
                   id="path6377" />
              </g>
            </g>
          </g>
        </g>
        <g
           id="g6385">
          <g
             id="g6387" />
          <g
             id="g6399">
            <g
               clip-path="url(#clipPath6391)"
               opacity="0.5"
               id="g6397">
              <g
                 transform="translate(828.4704,349.3035)"
                 id="g6395">
                <path
                   d="m 0,0 c -0.024,0 -0.047,0.009 -0.065,0.027 -0.036,0.036 -0.036,0.094 0,0.13 l 3.094,3.095 c 0.036,0.036 0.094,0.036 0.13,0 0.036,-0.036 0.036,-0.095 0,-0.131 L 0.065,0.027 C 0.047,0.009 0.024,0 0,0"
                   style="fill:#313960;fill-opacity:1;fill-rule:nonzero;stroke:none"
                   id="path6393" />
              </g>
            </g>
          </g>
        </g>
        <g
           id="g6401"
           transform="translate(830.5959,350.9428)">
          <path
             d="m 0,0 c 0,-0.32 -0.259,-0.579 -0.579,-0.579 -0.319,0 -0.578,0.259 -0.578,0.579 0,0.32 0.259,0.579 0.578,0.579 C -0.259,0.579 0,0.32 0,0"
             style="fill:#1d4ed8;fill-opacity:1;fill-rule:nonzero;stroke:none"
             id="path6403" />
        </g>
        <g
           id="g6405">
          <g
             id="g6407" />
          <g
             id="g6419">
            <g
               clip-path="url(#clipPath6411)"
               opacity="0.5"
               id="g6417">
              <g
                 transform="translate(811.6454,345.7273)"
                 id="g6415">
                <path
                   d="M 0,0 -0.738,2.318 -1.476,0 -0.738,-0.738 Z"
                   style="fill:#313960;fill-opacity:1;fill-rule:nonzero;stroke:none"
                   id="path6413" />
              </g>
            </g>
          </g>
        </g>
        <path
           d="m 838.593,337.815 h -55.371 v -3.871 h 55.371 z"
           style="fill:#43a1ff;fill-opacity:1;fill-rule:nonzero;stroke:none"
           id="path6421" />
        <path
           d="m 777.416,347.409 h 5.806 v -15.988 h -5.806 z"
           style="fill:#4e5dc4;fill-opacity:1;fill-rule:nonzero;stroke:none"
           id="path6423" />
        <g
           id="g6425"
           transform="translate(777.4445,333.2063)">
          <path
             d="m 0,0 h 5.749 c 0.306,0 0.565,-0.225 0.608,-0.529 l 0.178,-1.257 h -7.321 l 0.178,1.257 C -0.566,-0.225 -0.306,0 0,0"
             style="fill:#1d4ed8;fill-opacity:1;fill-rule:nonzero;stroke:none"
             id="path6427" />
        </g>
        <g
           id="g6429"
           transform="translate(779.7431,343.8169)">
          <path
             d="m 0,0 h 1.151 c 0.565,0 1.023,-0.458 1.023,-1.023 v -6.759 c 0,-0.565 -0.458,-1.023 -1.023,-1.023 H 0 c -0.565,0 -1.023,0.458 -1.023,1.023 v 6.759 C -1.023,-0.458 -0.565,0 0,0"
             style="fill:#43a1ff;fill-opacity:1;fill-rule:nonzero;stroke:none"
             id="path6431" />
        </g>
        <g
           id="g6433"
           transform="translate(778.1147,350.5528)">
          <path
             d="m 0,0 h 4.408 c 0.874,0 1.583,-0.709 1.583,-1.583 v -1.094 c 0,-0.874 -0.709,-1.582 -1.583,-1.582 H 0 c -0.874,0 -1.583,0.708 -1.583,1.582 v 1.094 C -1.583,-0.709 -0.874,0 0,0"
             style="fill:#1d4ed8;fill-opacity:1;fill-rule:nonzero;stroke:none"
             id="path6435" />
        </g>
        <g
           id="g6437">
          <g
             id="g6439" />
          <g
             id="g6451">
            <g
               clip-path="url(#clipPath6443)"
               opacity="0.210007"
               id="g6449">
              <g
                 transform="translate(781.7651,346.109)"
                 id="g6447">
                <path
                   d="m 0,0 h -2.893 c -0.102,0 -0.184,0.083 -0.184,0.184 0,0.102 0.082,0.185 0.184,0.185 H 0 C 0.102,0.369 0.184,0.286 0.184,0.184 0.184,0.083 0.102,0 0,0"
                   style="fill:#313960;fill-opacity:1;fill-rule:nonzero;stroke:none"
                   id="path6445" />
              </g>
            </g>
          </g>
        </g>
        <path
           d="m 838.593,347.409 h 5.806 v -15.988 h -5.806 z"
           style="fill:#4e5dc4;fill-opacity:1;fill-rule:nonzero;stroke:none"
           id="path6453" />
        <g
           id="g6455"
           transform="translate(840.9202,343.8169)">
          <path
             d="m 0,0 h 1.151 c 0.565,0 1.023,-0.458 1.023,-1.023 v -6.759 c 0,-0.565 -0.458,-1.023 -1.023,-1.023 H 0 c -0.565,0 -1.023,0.458 -1.023,1.023 v 6.759 C -1.023,-0.458 -0.565,0 0,0"
             style="fill:#43a1ff;fill-opacity:1;fill-rule:nonzero;stroke:none"
             id="path6457" />
        </g>
        <g
           id="g6459"
           transform="translate(839.2917,350.5528)">
          <path
             d="m 0,0 h 4.408 c 0.874,0 1.583,-0.709 1.583,-1.583 v -1.094 c 0,-0.874 -0.709,-1.582 -1.583,-1.582 H 0 c -0.874,0 -1.583,0.708 -1.583,1.582 v 1.094 C -1.583,-0.709 -0.874,0 0,0"
             style="fill:#1d4ed8;fill-opacity:1;fill-rule:nonzero;stroke:none"
             id="path6461" />
        </g>
        <g
           id="g6463">
          <g
             id="g6465" />
          <g
             id="g6477">
            <g
               clip-path="url(#clipPath6469)"
               opacity="0.210007"
               id="g6475">
              <g
                 transform="translate(842.942,346.109)"
                 id="g6473">
                <path
                   d="m 0,0 h -2.893 c -0.102,0 -0.184,0.083 -0.184,0.184 0,0.102 0.082,0.185 0.184,0.185 H 0 C 0.102,0.369 0.185,0.286 0.185,0.184 0.185,0.083 0.102,0 0,0"
                   style="fill:#313960;fill-opacity:1;fill-rule:nonzero;stroke:none"
                   id="path6471" />
              </g>
            </g>
          </g>
        </g>
        <g
           id="g6479"
           transform="translate(838.6215,333.2063)">
          <path
             d="m 0,0 h 5.749 c 0.306,0 0.565,-0.225 0.608,-0.529 l 0.178,-1.257 h -7.321 l 0.178,1.257 C -0.566,-0.225 -0.306,0 0,0"
             style="fill:#1d4ed8;fill-opacity:1;fill-rule:nonzero;stroke:none"
             id="path6481" />
        </g>
        <g
           id="g6483"
           style="display:none">
          <g
             id="g6485" />
          <g
             id="g6501">
            <g
               clip-path="url(#clipPath6489)"
               opacity="0.5"
               id="g6499">
              <g
                 transform="translate(746.3694,271.7553)"
                 id="g6493">
                <path
                   d="m 0,0 h -73.522 c -4.551,0 -8.274,3.724 -8.274,8.275 v 113.007 c 0,4.551 3.723,8.274 8.274,8.274 H 0 c 4.551,0 8.275,-3.723 8.275,-8.274 V 8.275 C 8.275,3.724 4.551,0 0,0"
                   style="fill:#ffffff;fill-opacity:1;fill-rule:nonzero;stroke:none"
                   id="path6491" />
              </g>
              <g
                 transform="translate(746.3694,271.7553)"
                 id="g6497">
                <path
                   d="m 0,0 h -73.522 c -4.551,0 -8.274,3.724 -8.274,8.275 v 113.007 c 0,4.551 3.723,8.274 8.274,8.274 H 0 c 4.551,0 8.275,-3.723 8.275,-8.274 V 8.275 C 8.275,3.724 4.551,0 0,0 Z"
                   style="fill:none;stroke:#286fb5;stroke-width:0.796;stroke-linecap:butt;stroke-linejoin:miter;stroke-miterlimit:10;stroke-dasharray:none;stroke-opacity:1"
                   id="path6495" />
              </g>
            </g>
          </g>
        </g>
      </g>
    </g>
  </g>
</svg>
