<svg width="14" height="58" viewBox="0 0 14 58" fill="none" xmlns="http://www.w3.org/2000/svg">
<g style="mix-blend-mode:multiply">
<path d="M10.29 20.08C7.37005 21.83 7.80007 24.96 7.81007 27.19C7.82007 29.2 8.95007 48.92 9.31007 55.02C9.39007 56.47 8.2301 57.71 6.7801 57.69C6.7301 57.69 6.69008 57.69 6.64008 57.69C5.23008 57.63 4.15008 56.39 4.26008 54.98C4.67008 49.26 5.90008 31.82 6.01008 26.94C6.12008 21.92 4.51005 20.51 4.04005 20.21C3.93005 20.14 3.82004 20.06 3.72004 19.97C-1.54996 15.23 1.26007 8.50001 1.56007 7.25001C1.86007 5.98001 6.32008 -6.06998 11.7001 4.16002C17.0301 14.29 10.48 19.97 10.29 20.08Z" fill="#666666"/>
</g>
</svg>
