<?xml version="1.0" encoding="UTF-8" standalone="no"?>
<!-- Created with Inkscape (http://www.inkscape.org/) -->

<svg
   version="1.1"
   id="svg9"
   width="72.353821"
   height="71.628372"
   viewBox="0 0 72.353823 71.628372"
   sodipodi:docname="3-6_years_abc_page_1024x720.ai"
   xmlns:inkscape="http://www.inkscape.org/namespaces/inkscape"
   xmlns:sodipodi="http://sodipodi.sourceforge.net/DTD/sodipodi-0.dtd"
   xmlns="http://www.w3.org/2000/svg"
   xmlns:svg="http://www.w3.org/2000/svg">
  <defs
     id="defs13">
    <clipPath
       clipPathUnits="userSpaceOnUse"
       id="clipPath6569">
      <path
         d="M 0,720 H 1024 V 0 H 0 Z"
         id="path6567" />
    </clipPath>
  </defs>
  <sodipodi:namedview
     id="namedview11"
     pagecolor="#ffffff"
     bordercolor="#000000"
     borderopacity="0.25"
     inkscape:showpageshadow="2"
     inkscape:pageopacity="0.0"
     inkscape:pagecheckerboard="0"
     inkscape:deskcolor="#d1d1d1"
     showgrid="false"
     inkscape:zoom="0.91259771"
     inkscape:cx="459.12892"
     inkscape:cy="493.64577"
     inkscape:window-width="2155"
     inkscape:window-height="1205"
     inkscape:window-x="0"
     inkscape:window-y="25"
     inkscape:window-maximized="0"
     inkscape:current-layer="g15" />
  <g
     id="g15"
     inkscape:groupmode="layer"
     inkscape:label="3-6_years_abc_page_1024x720"
     transform="matrix(1.3333333,0,0,-1.3333333,-916.71542,718.15797)">
    <g
       id="g6563"
       style="display:inline"
       transform="translate(-96.975921,18.080255)">
      <g
         id="g6565"
         clip-path="url(#clipPath6569)"
         style="display:inline">
        <g
           id="g6571"
           transform="translate(791.2708,492.0566)">
          <path
             d="m 0,0 c -2.981,1.497 -7.155,4.058 -6.728,6.489 0.281,1.596 2.254,2.689 6.207,3.436 0.87,0.164 1.707,0.286 2.404,0.375 -1.828,2.772 -4.159,7.06 -2.584,8.948 0.361,0.431 0.877,0.713 1.54,0.838 2.088,0.394 5.724,-0.915 7.871,-1.809 -0.182,3.301 -0.038,8.164 2.263,9.01 0.112,0.042 0.227,0.074 0.346,0.096 2.295,0.434 5.419,-3.066 7.343,-5.599 1.275,2.471 3.551,6.249 5.708,6.657 0.272,0.051 0.542,0.054 0.804,0.009 2.439,-0.428 3.468,-5.264 3.887,-8.572 1.67,1.056 4.394,2.624 6.407,3.005 1.12,0.211 2,0.056 2.615,-0.462 1.885,-1.587 0.358,-6.243 -0.942,-9.307 3.338,0.179 8.262,0.029 9.104,-2.298 0.84,-2.323 -2.826,-5.578 -5.502,-7.576 2.984,-1.496 7.159,-4.056 6.734,-6.486 -0.281,-1.599 -2.257,-2.693 -6.221,-3.443 -0.865,-0.163 -1.699,-0.284 -2.393,-0.373 1.827,-2.773 4.158,-7.059 2.584,-8.948 -0.359,-0.431 -0.877,-0.714 -1.539,-0.839 -2.09,-0.394 -5.729,0.916 -7.875,1.811 0.18,-3.302 0.034,-8.165 -2.265,-9.011 -0.112,-0.041 -0.227,-0.073 -0.346,-0.096 -2.295,-0.432 -5.418,3.066 -7.342,5.598 -1.275,-2.469 -3.548,-6.244 -5.704,-6.652 -0.272,-0.051 -0.542,-0.054 -0.802,-0.009 -2.441,0.428 -3.471,5.264 -3.891,8.572 -1.67,-1.057 -4.394,-2.625 -6.407,-3.006 -1.121,-0.21 -2,-0.056 -2.616,0.463 -1.886,1.586 -0.358,6.24 0.941,9.303 -3.338,-0.18 -8.262,-0.03 -9.104,2.298 C -6.345,-5.257 -2.677,-1.999 0,0"
             style="fill:#ffc31a;fill-opacity:1;fill-rule:nonzero;stroke:none"
             id="path6573" />
        </g>
        <g
           id="g6575"
           transform="translate(793.4067,490.3651)">
          <path
             d="m 0,0 c 2.09,-9.918 11.825,-16.266 21.743,-14.176 9.92,2.091 16.265,11.828 14.174,21.745 C 33.828,17.489 24.094,23.834 14.175,21.745 4.255,19.654 -2.09,9.92 0,0"
             style="fill:#f39d00;fill-opacity:1;fill-rule:evenodd;stroke:none"
             id="path6577" />
        </g>
        <g
           id="g6579"
           transform="translate(794.2668,490.734)">
          <path
             d="M 0,0 C 1.993,-9.455 11.272,-15.506 20.725,-13.513 30.182,-11.52 36.229,-2.239 34.237,7.215 32.245,16.67 22.967,22.718 13.511,20.726 4.056,18.732 -1.994,9.454 0,0"
             style="fill:#ffed00;fill-opacity:1;fill-rule:evenodd;stroke:none"
             id="path6581" />
        </g>
        <g
           id="g6583"
           transform="translate(794.2668,490.734)"
           style="display:inline">
          <path
             d="M 0,0 C 1.993,-9.455 11.272,-15.506 20.725,-13.513 30.182,-11.52 36.229,-2.239 34.237,7.215 32.245,16.67 22.967,22.718 13.511,20.726 4.056,18.732 -1.994,9.454 0,0 Z"
             style="fill:none;stroke:#ffcf00;stroke-width:1.941;stroke-linecap:butt;stroke-linejoin:miter;stroke-miterlimit:10;stroke-dasharray:none;stroke-opacity:1"
             id="path6585" />
        </g>
        <g
           id="g6587"
           transform="translate(950.785,527.9737)"
           style="display:none">
          <path
             d="m 0,0 c -0.119,-0.14 -0.291,-0.225 -0.475,-0.233 -0.009,0 -0.018,0 -0.027,0 -0.174,0 -0.341,0.069 -0.465,0.192 l -0.086,0.087 c -0.242,0.241 -0.258,0.626 -0.039,0.887 1.06,1.261 1.644,2.862 1.644,4.508 0,1.713 -0.625,3.361 -1.76,4.642 -0.23,0.261 -0.218,0.654 0.027,0.9 l 0.086,0.086 c 0.128,0.129 0.294,0.199 0.485,0.193 0.18,-0.005 0.352,-0.085 0.472,-0.22 C 1.233,9.498 1.989,7.508 1.989,5.441 1.989,3.452 1.283,1.519 0,0 M -2.717,2.031 C -2.733,2.03 -2.748,2.029 -2.764,2.029 c -0.174,0 -0.341,0.069 -0.465,0.193 L -3.317,2.31 c -0.23,0.23 -0.257,0.594 -0.063,0.856 0.492,0.663 0.752,1.45 0.752,2.275 0,0.888 -0.295,1.72 -0.853,2.408 -0.213,0.261 -0.193,0.64 0.045,0.878 l 0.088,0.088 c 0.131,0.131 0.307,0.203 0.497,0.192 C -2.665,8.997 -2.492,8.91 -2.375,8.766 -1.6,7.819 -1.192,6.669 -1.192,5.441 -1.192,4.297 -1.553,3.208 -2.238,2.293 -2.352,2.14 -2.527,2.044 -2.717,2.031 M -5.242,1.004 C -5.242,0.749 -5.39,0.517 -5.62,0.409 -5.709,0.367 -5.805,0.347 -5.9,0.347 c -0.15,0 -0.299,0.051 -0.419,0.151 l -3.593,2.977 h -1.913 c -0.363,0 -0.657,0.294 -0.657,0.657 V 6.75 c 0,0.363 0.294,0.658 0.657,0.658 h 1.913 l 3.593,2.977 c 0.196,0.162 0.469,0.197 0.699,0.088 0.23,-0.108 0.378,-0.34 0.378,-0.594 z"
             style="fill:#00a864;fill-opacity:1;fill-rule:nonzero;stroke:none"
             id="path6589" />
        </g>
        <g
           id="g6591"
           transform="translate(888.1421,574.5571)"
           style="display:none">
          <path
             d="m 0,0 c -0.119,-0.14 -0.291,-0.225 -0.475,-0.233 -0.009,0 -0.018,0 -0.027,0 -0.174,0 -0.341,0.069 -0.465,0.192 l -0.086,0.087 c -0.242,0.241 -0.258,0.626 -0.039,0.887 1.06,1.261 1.644,2.862 1.644,4.508 0,1.713 -0.625,3.361 -1.76,4.642 -0.23,0.261 -0.218,0.654 0.027,0.9 l 0.086,0.086 c 0.128,0.129 0.294,0.199 0.485,0.193 0.18,-0.005 0.352,-0.085 0.472,-0.22 C 1.233,9.498 1.989,7.508 1.989,5.441 1.989,3.452 1.283,1.519 0,0 M -2.717,2.031 C -2.733,2.03 -2.748,2.029 -2.764,2.029 c -0.174,0 -0.341,0.069 -0.465,0.193 L -3.317,2.31 c -0.23,0.23 -0.257,0.594 -0.063,0.856 0.492,0.663 0.752,1.45 0.752,2.275 0,0.888 -0.295,1.72 -0.853,2.408 -0.213,0.261 -0.193,0.64 0.045,0.878 l 0.088,0.088 c 0.131,0.131 0.307,0.203 0.497,0.192 C -2.665,8.997 -2.492,8.91 -2.375,8.766 -1.6,7.819 -1.192,6.669 -1.192,5.441 -1.192,4.297 -1.553,3.208 -2.238,2.293 -2.352,2.14 -2.527,2.044 -2.717,2.031 M -5.242,1.004 C -5.242,0.749 -5.39,0.518 -5.62,0.409 -5.709,0.367 -5.805,0.347 -5.9,0.347 c -0.15,0 -0.299,0.051 -0.419,0.151 l -3.593,2.977 h -1.913 c -0.363,0 -0.657,0.294 -0.657,0.657 V 6.75 c 0,0.363 0.294,0.658 0.657,0.658 h 1.913 l 3.593,2.977 c 0.196,0.162 0.469,0.197 0.699,0.088 0.23,-0.108 0.378,-0.34 0.378,-0.594 z"
             style="fill:#00a864;fill-opacity:1;fill-rule:nonzero;stroke:none"
             id="path6593" />
        </g>
        <g
           id="g6595"
           transform="translate(849.8746,527.9737)"
           style="display:none">
          <path
             d="m 0,0 c -0.119,-0.14 -0.291,-0.225 -0.475,-0.233 -0.009,0 -0.018,0 -0.027,0 -0.174,0 -0.341,0.069 -0.465,0.192 l -0.086,0.087 c -0.242,0.241 -0.258,0.626 -0.039,0.887 1.06,1.261 1.644,2.862 1.644,4.508 0,1.713 -0.625,3.361 -1.76,4.642 -0.23,0.261 -0.218,0.654 0.027,0.9 l 0.086,0.086 c 0.128,0.129 0.294,0.199 0.485,0.193 0.18,-0.005 0.352,-0.085 0.472,-0.22 C 1.233,9.498 1.989,7.508 1.989,5.441 1.989,3.452 1.283,1.519 0,0 M -2.717,2.031 C -2.733,2.03 -2.748,2.029 -2.764,2.029 c -0.174,0 -0.341,0.069 -0.465,0.193 L -3.317,2.31 c -0.23,0.23 -0.257,0.594 -0.063,0.856 0.492,0.663 0.752,1.45 0.752,2.275 0,0.888 -0.295,1.72 -0.853,2.408 -0.213,0.261 -0.193,0.64 0.045,0.878 l 0.088,0.088 c 0.131,0.131 0.307,0.203 0.497,0.192 C -2.665,8.997 -2.492,8.91 -2.375,8.766 -1.6,7.819 -1.192,6.669 -1.192,5.441 -1.192,4.297 -1.553,3.208 -2.238,2.293 -2.352,2.14 -2.527,2.044 -2.717,2.031 M -5.242,1.004 C -5.242,0.749 -5.39,0.517 -5.62,0.409 -5.709,0.367 -5.805,0.347 -5.9,0.347 c -0.15,0 -0.299,0.051 -0.419,0.151 l -3.593,2.977 h -1.913 c -0.363,0 -0.657,0.294 -0.657,0.657 V 6.75 c 0,0.363 0.294,0.658 0.657,0.658 h 1.913 l 3.593,2.977 c 0.196,0.162 0.469,0.197 0.699,0.088 0.23,-0.108 0.378,-0.34 0.378,-0.594 z"
             style="fill:#00a864;fill-opacity:1;fill-rule:nonzero;stroke:none"
             id="path6597" />
        </g>
        <g
           id="g6599"
           transform="translate(748.9642,527.9737)"
           style="display:none">
          <path
             d="m 0,0 c -0.119,-0.14 -0.291,-0.225 -0.475,-0.233 -0.009,0 -0.018,0 -0.027,0 -0.174,0 -0.341,0.069 -0.465,0.192 l -0.086,0.087 c -0.242,0.241 -0.258,0.626 -0.039,0.887 1.06,1.261 1.644,2.862 1.644,4.508 0,1.713 -0.625,3.361 -1.76,4.642 -0.23,0.261 -0.218,0.654 0.027,0.9 l 0.086,0.086 c 0.128,0.129 0.294,0.199 0.485,0.193 0.18,-0.005 0.352,-0.085 0.472,-0.22 C 1.233,9.498 1.989,7.508 1.989,5.441 1.989,3.452 1.283,1.519 0,0 M -2.717,2.031 C -2.733,2.03 -2.748,2.029 -2.764,2.029 c -0.174,0 -0.341,0.069 -0.465,0.193 L -3.317,2.31 c -0.23,0.23 -0.257,0.594 -0.063,0.856 0.492,0.663 0.752,1.45 0.752,2.275 0,0.888 -0.295,1.72 -0.853,2.408 -0.213,0.261 -0.193,0.64 0.045,0.878 l 0.088,0.088 c 0.131,0.131 0.307,0.203 0.497,0.192 C -2.665,8.997 -2.492,8.91 -2.375,8.766 -1.6,7.819 -1.192,6.669 -1.192,5.441 -1.192,4.297 -1.553,3.208 -2.238,2.293 -2.352,2.14 -2.527,2.044 -2.717,2.031 M -5.242,1.004 C -5.242,0.749 -5.39,0.517 -5.62,0.409 -5.709,0.367 -5.805,0.347 -5.9,0.347 c -0.15,0 -0.299,0.051 -0.419,0.151 l -3.593,2.977 h -1.913 c -0.363,0 -0.657,0.294 -0.657,0.657 V 6.75 c 0,0.363 0.294,0.658 0.657,0.658 h 1.913 l 3.593,2.977 c 0.196,0.162 0.469,0.197 0.699,0.088 0.23,-0.108 0.378,-0.34 0.378,-0.594 z"
             style="fill:#00a864;fill-opacity:1;fill-rule:nonzero;stroke:none"
             id="path6601" />
        </g>
        <g
           id="g6603"
           transform="translate(647.5538,527.9737)"
           style="display:none">
          <path
             d="m 0,0 c -0.119,-0.14 -0.291,-0.225 -0.475,-0.233 -0.009,0 -0.018,0 -0.027,0 -0.174,0 -0.341,0.069 -0.465,0.192 l -0.086,0.087 c -0.242,0.241 -0.258,0.626 -0.039,0.887 1.06,1.261 1.644,2.862 1.644,4.508 0,1.713 -0.625,3.361 -1.76,4.642 -0.23,0.261 -0.218,0.654 0.027,0.9 l 0.086,0.086 c 0.128,0.129 0.294,0.199 0.485,0.193 0.18,-0.005 0.351,-0.085 0.472,-0.22 C 1.233,9.498 1.989,7.508 1.989,5.441 1.989,3.452 1.283,1.519 0,0 M -2.717,2.031 C -2.733,2.03 -2.748,2.029 -2.764,2.029 c -0.174,0 -0.341,0.069 -0.465,0.193 L -3.317,2.31 c -0.23,0.23 -0.257,0.594 -0.063,0.856 0.492,0.663 0.752,1.45 0.752,2.275 0,0.888 -0.295,1.72 -0.853,2.408 -0.213,0.261 -0.193,0.64 0.045,0.878 l 0.088,0.088 c 0.131,0.131 0.307,0.203 0.497,0.192 0.186,-0.01 0.359,-0.097 0.476,-0.241 0.774,-0.947 1.183,-2.097 1.183,-3.325 0,-1.144 -0.361,-2.233 -1.046,-3.148 C -2.352,2.14 -2.527,2.044 -2.717,2.031 M -5.242,1.004 C -5.242,0.749 -5.39,0.517 -5.62,0.409 -5.709,0.367 -5.805,0.347 -5.9,0.347 c -0.15,0 -0.299,0.051 -0.419,0.151 l -3.593,2.977 h -1.913 c -0.363,0 -0.657,0.294 -0.657,0.657 V 6.75 c 0,0.363 0.294,0.658 0.657,0.658 h 1.913 l 3.593,2.977 c 0.196,0.162 0.469,0.197 0.699,0.088 0.23,-0.108 0.378,-0.34 0.378,-0.594 z"
             style="fill:#00a864;fill-opacity:1;fill-rule:nonzero;stroke:none"
             id="path6605" />
        </g>
        <g
           id="g6607"
           transform="translate(546.6434,527.9737)"
           style="display:none">
          <path
             d="m 0,0 c -0.119,-0.14 -0.291,-0.225 -0.475,-0.233 -0.009,0 -0.018,0 -0.027,0 -0.174,0 -0.341,0.069 -0.465,0.192 l -0.086,0.087 c -0.242,0.241 -0.258,0.626 -0.039,0.887 1.06,1.261 1.644,2.862 1.644,4.508 0,1.713 -0.625,3.361 -1.76,4.642 -0.23,0.261 -0.218,0.654 0.027,0.9 l 0.086,0.086 c 0.128,0.129 0.294,0.199 0.485,0.193 0.18,-0.005 0.351,-0.085 0.472,-0.22 C 1.233,9.498 1.989,7.508 1.989,5.441 1.989,3.452 1.283,1.519 0,0 M -2.717,2.031 C -2.733,2.03 -2.748,2.029 -2.764,2.029 c -0.174,0 -0.341,0.069 -0.465,0.193 L -3.317,2.31 c -0.23,0.23 -0.257,0.594 -0.063,0.856 0.492,0.663 0.752,1.45 0.752,2.275 0,0.888 -0.295,1.72 -0.853,2.408 -0.213,0.261 -0.193,0.64 0.045,0.878 l 0.088,0.088 c 0.131,0.131 0.307,0.203 0.497,0.192 0.186,-0.01 0.359,-0.097 0.476,-0.241 0.774,-0.947 1.183,-2.097 1.183,-3.325 0,-1.144 -0.361,-2.233 -1.046,-3.148 C -2.352,2.14 -2.527,2.044 -2.717,2.031 M -5.242,1.004 C -5.242,0.749 -5.39,0.517 -5.62,0.409 -5.709,0.367 -5.805,0.347 -5.9,0.347 c -0.15,0 -0.299,0.051 -0.419,0.151 l -3.593,2.977 h -1.913 c -0.363,0 -0.657,0.294 -0.657,0.657 V 6.75 c 0,0.363 0.294,0.658 0.657,0.658 h 1.913 l 3.593,2.977 c 0.196,0.162 0.469,0.197 0.699,0.088 0.23,-0.108 0.378,-0.34 0.378,-0.594 z"
             style="fill:#00a864;fill-opacity:1;fill-rule:nonzero;stroke:none"
             id="path6609" />
        </g>
        <g
           id="g6611"
           transform="translate(950.785,384.6581)"
           style="display:none">
          <path
             d="m 0,0 c -0.119,-0.14 -0.291,-0.225 -0.475,-0.233 -0.009,0 -0.018,0 -0.027,0 -0.174,0 -0.341,0.069 -0.465,0.192 l -0.086,0.087 c -0.242,0.241 -0.258,0.626 -0.039,0.887 1.06,1.261 1.644,2.862 1.644,4.508 0,1.713 -0.625,3.361 -1.76,4.642 -0.23,0.261 -0.218,0.654 0.027,0.9 l 0.086,0.086 c 0.128,0.129 0.294,0.199 0.485,0.193 0.18,-0.005 0.352,-0.085 0.472,-0.22 C 1.233,9.498 1.989,7.509 1.989,5.441 1.989,3.452 1.283,1.519 0,0 M -2.717,2.031 C -2.733,2.03 -2.748,2.029 -2.764,2.029 c -0.174,0 -0.341,0.069 -0.465,0.193 L -3.317,2.31 c -0.23,0.23 -0.257,0.594 -0.063,0.856 0.492,0.663 0.752,1.45 0.752,2.275 0,0.888 -0.295,1.72 -0.853,2.408 -0.213,0.261 -0.193,0.64 0.045,0.878 l 0.088,0.088 c 0.131,0.131 0.307,0.203 0.497,0.192 C -2.665,8.997 -2.492,8.91 -2.375,8.766 -1.6,7.819 -1.192,6.669 -1.192,5.441 -1.192,4.297 -1.553,3.208 -2.238,2.293 -2.352,2.14 -2.527,2.044 -2.717,2.031 M -5.242,1.004 C -5.242,0.749 -5.39,0.517 -5.62,0.409 -5.709,0.367 -5.805,0.347 -5.9,0.347 c -0.15,0 -0.299,0.051 -0.419,0.151 l -3.593,2.977 h -1.913 c -0.363,0 -0.657,0.294 -0.657,0.657 V 6.75 c 0,0.363 0.294,0.658 0.657,0.658 h 1.913 l 3.593,2.977 c 0.196,0.162 0.469,0.197 0.699,0.088 0.23,-0.108 0.378,-0.34 0.378,-0.594 z"
             style="fill:#00a864;fill-opacity:1;fill-rule:nonzero;stroke:none"
             id="path6613" />
        </g>
        <g
           id="g6615"
           transform="translate(849.8746,384.6581)"
           style="display:none">
          <path
             d="m 0,0 c -0.119,-0.14 -0.291,-0.225 -0.475,-0.233 -0.009,0 -0.018,0 -0.027,0 -0.174,0 -0.341,0.069 -0.465,0.192 l -0.086,0.087 c -0.242,0.241 -0.258,0.626 -0.039,0.887 1.06,1.261 1.644,2.862 1.644,4.508 0,1.713 -0.625,3.361 -1.76,4.642 -0.23,0.261 -0.218,0.654 0.027,0.9 l 0.086,0.086 c 0.128,0.129 0.294,0.199 0.485,0.193 0.18,-0.005 0.352,-0.085 0.472,-0.22 C 1.233,9.498 1.989,7.509 1.989,5.441 1.989,3.452 1.283,1.519 0,0 M -2.717,2.031 C -2.733,2.03 -2.748,2.029 -2.764,2.029 c -0.174,0 -0.341,0.069 -0.465,0.193 L -3.317,2.31 c -0.23,0.23 -0.257,0.594 -0.063,0.856 0.492,0.663 0.752,1.45 0.752,2.275 0,0.888 -0.295,1.72 -0.853,2.408 -0.213,0.261 -0.193,0.64 0.045,0.878 l 0.088,0.088 c 0.131,0.131 0.307,0.203 0.497,0.192 C -2.665,8.997 -2.492,8.91 -2.375,8.766 -1.6,7.819 -1.192,6.669 -1.192,5.441 -1.192,4.297 -1.553,3.208 -2.238,2.293 -2.352,2.14 -2.527,2.044 -2.717,2.031 M -5.242,1.004 C -5.242,0.749 -5.39,0.517 -5.62,0.409 -5.709,0.367 -5.805,0.347 -5.9,0.347 c -0.15,0 -0.299,0.051 -0.419,0.151 l -3.593,2.977 h -1.913 c -0.363,0 -0.657,0.294 -0.657,0.657 V 6.75 c 0,0.363 0.294,0.658 0.657,0.658 h 1.913 l 3.593,2.977 c 0.196,0.162 0.469,0.197 0.699,0.088 0.23,-0.108 0.378,-0.34 0.378,-0.594 z"
             style="fill:#00a864;fill-opacity:1;fill-rule:nonzero;stroke:none"
             id="path6617" />
        </g>
        <g
           id="g6619"
           transform="translate(748.9642,384.6581)"
           style="display:none">
          <path
             d="m 0,0 c -0.119,-0.14 -0.291,-0.225 -0.475,-0.233 -0.009,0 -0.018,0 -0.027,0 -0.174,0 -0.341,0.069 -0.465,0.192 l -0.086,0.087 c -0.242,0.241 -0.258,0.626 -0.039,0.887 1.06,1.261 1.644,2.862 1.644,4.508 0,1.713 -0.625,3.361 -1.76,4.642 -0.23,0.261 -0.218,0.654 0.027,0.9 l 0.086,0.086 c 0.128,0.129 0.294,0.199 0.485,0.193 0.18,-0.005 0.352,-0.085 0.472,-0.22 C 1.233,9.498 1.989,7.509 1.989,5.441 1.989,3.452 1.283,1.519 0,0 M -2.717,2.031 C -2.733,2.03 -2.748,2.029 -2.764,2.029 c -0.174,0 -0.341,0.069 -0.465,0.193 L -3.317,2.31 c -0.23,0.23 -0.257,0.594 -0.063,0.856 0.492,0.663 0.752,1.45 0.752,2.275 0,0.888 -0.295,1.72 -0.853,2.408 -0.213,0.261 -0.193,0.64 0.045,0.878 l 0.088,0.088 c 0.131,0.131 0.307,0.203 0.497,0.192 C -2.665,8.997 -2.492,8.91 -2.375,8.766 -1.6,7.819 -1.192,6.669 -1.192,5.441 -1.192,4.297 -1.553,3.208 -2.238,2.293 -2.352,2.14 -2.527,2.044 -2.717,2.031 M -5.242,1.004 C -5.242,0.749 -5.39,0.517 -5.62,0.409 -5.709,0.367 -5.805,0.347 -5.9,0.347 c -0.15,0 -0.299,0.051 -0.419,0.151 l -3.593,2.977 h -1.913 c -0.363,0 -0.657,0.294 -0.657,0.657 V 6.75 c 0,0.363 0.294,0.658 0.657,0.658 h 1.913 l 3.593,2.977 c 0.196,0.162 0.469,0.197 0.699,0.088 0.23,-0.108 0.378,-0.34 0.378,-0.594 z"
             style="fill:#00a864;fill-opacity:1;fill-rule:nonzero;stroke:none"
             id="path6621" />
        </g>
        <g
           id="g6623"
           transform="translate(647.5538,384.6581)"
           style="display:none">
          <path
             d="m 0,0 c -0.119,-0.14 -0.291,-0.225 -0.475,-0.233 -0.009,0 -0.018,0 -0.027,0 -0.174,0 -0.341,0.069 -0.465,0.192 l -0.086,0.087 c -0.242,0.241 -0.258,0.626 -0.039,0.887 1.06,1.261 1.644,2.862 1.644,4.508 0,1.713 -0.625,3.361 -1.76,4.642 -0.23,0.261 -0.218,0.654 0.027,0.9 l 0.086,0.086 c 0.128,0.129 0.294,0.199 0.485,0.193 0.18,-0.005 0.351,-0.085 0.472,-0.22 C 1.233,9.498 1.989,7.509 1.989,5.441 1.989,3.452 1.283,1.519 0,0 M -2.717,2.031 C -2.733,2.03 -2.748,2.029 -2.764,2.029 c -0.174,0 -0.341,0.069 -0.465,0.193 L -3.317,2.31 c -0.23,0.23 -0.257,0.594 -0.063,0.856 0.492,0.663 0.752,1.45 0.752,2.275 0,0.888 -0.295,1.72 -0.853,2.408 -0.213,0.261 -0.193,0.64 0.045,0.878 l 0.088,0.088 c 0.131,0.131 0.307,0.203 0.497,0.192 0.186,-0.01 0.359,-0.097 0.476,-0.241 0.774,-0.947 1.183,-2.097 1.183,-3.325 0,-1.144 -0.361,-2.233 -1.046,-3.148 C -2.352,2.14 -2.527,2.044 -2.717,2.031 M -5.242,1.004 C -5.242,0.749 -5.39,0.517 -5.62,0.409 -5.709,0.367 -5.805,0.347 -5.9,0.347 c -0.15,0 -0.299,0.051 -0.419,0.151 l -3.593,2.977 h -1.913 c -0.363,0 -0.657,0.294 -0.657,0.657 V 6.75 c 0,0.363 0.294,0.658 0.657,0.658 h 1.913 l 3.593,2.977 c 0.196,0.162 0.469,0.197 0.699,0.088 0.23,-0.108 0.378,-0.34 0.378,-0.594 z"
             style="fill:#00a864;fill-opacity:1;fill-rule:nonzero;stroke:none"
             id="path6625" />
        </g>
        <g
           id="g6627"
           transform="translate(546.6434,384.6581)"
           style="display:none">
          <path
             d="m 0,0 c -0.119,-0.14 -0.291,-0.225 -0.475,-0.233 -0.009,0 -0.018,0 -0.027,0 -0.174,0 -0.341,0.069 -0.465,0.192 l -0.086,0.087 c -0.242,0.241 -0.258,0.626 -0.039,0.887 1.06,1.261 1.644,2.862 1.644,4.508 0,1.713 -0.625,3.361 -1.76,4.642 -0.23,0.261 -0.218,0.654 0.027,0.9 l 0.086,0.086 c 0.128,0.129 0.294,0.199 0.485,0.193 0.18,-0.005 0.351,-0.085 0.472,-0.22 C 1.233,9.498 1.989,7.509 1.989,5.441 1.989,3.452 1.283,1.519 0,0 M -2.717,2.031 C -2.733,2.03 -2.748,2.029 -2.764,2.029 c -0.174,0 -0.341,0.069 -0.465,0.193 L -3.317,2.31 c -0.23,0.23 -0.257,0.594 -0.063,0.856 0.492,0.663 0.752,1.45 0.752,2.275 0,0.888 -0.295,1.72 -0.853,2.408 -0.213,0.261 -0.193,0.64 0.045,0.878 l 0.088,0.088 c 0.131,0.131 0.307,0.203 0.497,0.192 0.186,-0.01 0.359,-0.097 0.476,-0.241 0.774,-0.947 1.183,-2.097 1.183,-3.325 0,-1.144 -0.361,-2.233 -1.046,-3.148 C -2.352,2.14 -2.527,2.044 -2.717,2.031 M -5.242,1.004 C -5.242,0.749 -5.39,0.517 -5.62,0.409 -5.709,0.367 -5.805,0.347 -5.9,0.347 c -0.15,0 -0.299,0.051 -0.419,0.151 l -3.593,2.977 h -1.913 c -0.363,0 -0.657,0.294 -0.657,0.657 V 6.75 c 0,0.363 0.294,0.658 0.657,0.658 h 1.913 l 3.593,2.977 c 0.196,0.162 0.469,0.197 0.699,0.088 0.23,-0.108 0.378,-0.34 0.378,-0.594 z"
             style="display:inline;fill:#00a864;fill-opacity:1;fill-rule:nonzero;stroke:none"
             id="path6629" />
        </g>
      </g>
    </g>
  </g>
</svg>
