<svg width="72" height="41" viewBox="0 0 72 41" fill="none" xmlns="http://www.w3.org/2000/svg">
<path d="M2.02994 28.87L22.8699 4.39C22.9399 4.31 22.9299 4.19999 22.8499 4.12999C22.7699 4.05999 22.6599 4.07001 22.5899 4.15001L1.74994 28.63C1.67994 28.71 1.68993 28.82 1.76993 28.89C1.84993 28.96 1.95994 28.95 2.02994 28.87Z" fill="#5D3211"/>
<path d="M31.12 36.4C31.12 36.4 45.59 21.93 48.75 0.22998C48.75 0.22998 54.97 24.25 66.58 32.73L31.12 36.4Z" fill="#69370E"/>
<path d="M63.92 30.43H36.05C33.25 34.27 31.13 36.4 31.13 36.4L66.59 32.73C65.67 32.06 64.78 31.28 63.92 30.43Z" fill="#4D2208"/>
<path d="M49.17 6.02002C49.17 6.02002 51.53 25.2 55.96 33.83L66.58 32.73C54.96 24.25 48.75 0.22998 48.75 0.22998C45.59 21.93 31.12 36.4 31.12 36.4L43.03 35.17C44.95 30.06 48.23 19.62 49.17 6.02002Z" fill="#B75B17"/>
<path d="M48.92 0.849976C48.81 0.439976 48.7499 0.219971 48.7499 0.219971C48.7299 0.329971 48.72 0.439988 48.7 0.549988C48.78 0.649988 48.85 0.749976 48.92 0.849976Z" fill="#B44718"/>
<path d="M49.83 3.87C49.86 4.24 49.92 4.81002 49.9 4.77002C49.95 5.01002 50 5.23998 50.05 5.47998C50.3 6.46998 50.6 7.45002 50.96 8.40002C51.14 8.89002 51.33 9.36998 51.53 9.84998C51.59 9.98998 51.73 10.33 51.78 10.45C52.26 11.56 52.74 12.67 53.2 13.78C54.33 16.5 55.49 19.2 55.74 22.17C55.94 24.58 55.34 27.21 54.14 29.31L54.12 29.34C54.69 31 55.3 32.52 55.96 33.81L66.58 32.71C57.77 26.28 52.07 10.91 49.83 3.85999V3.87Z" fill="#B44718"/>
<path d="M48.75 0.219971C48.75 0.219971 34.64 8.88001 22.72 4.07001C22.72 4.07001 17.22 19.74 6.37 28.68L31.13 36.4C31.13 36.4 45.78 22.1 48.76 0.22998L48.75 0.219971Z" fill="#DE6F0E"/>
<path d="M22.98 13.78C26.29 11.04 29.73 8.60002 33.83 7.21002C34.98 6.82002 36.14 6.51001 37.31 6.20001C32.87 7.01001 27.89 7.03997 23.22 5.15997C23.22 5.15997 20.59 12.65 15.38 20.49C17.83 18.15 20.38 15.93 22.98 13.79V13.78Z" fill="#ED7D2A"/>
<path d="M48.53 1.72998C48.61 1.22998 48.69 0.72998 48.75 0.22998C48.75 0.22998 48.43 0.43 47.84 0.75C48.09 1.07 48.32 1.39998 48.53 1.72998Z" fill="#ED7D2A"/>
<path d="M44.01 2.57001C43.36 6.84001 41.5 10.76 39.63 14.64C37.94 18.14 35.49 21.63 32.4 24.03C30.46 25.53 28.56 26.73 26.14 27.35C24.09 27.88 21.93 28.13 19.82 28.17C17.7 28.22 15.58 28.09 13.49 27.73C11.89 27.45 10.35 26.99 8.82001 26.46C8.03001 27.23 7.21999 27.98 6.35999 28.68L31.12 36.4C31.12 36.4 45.77 22.1 48.75 0.22998C48.75 0.22998 46.91 1.36001 44.01 2.57001Z" fill="#DC5E12"/>
<path d="M69.2899 32.27L48.7499 0.219971L26.1899 38.9L26.4999 39.08L48.7699 0.919983L68.9899 32.46L69.2899 32.27Z" fill="#5D3211"/>
<path d="M27.7001 40.53L25.27 38.19C25.05 37.86 25.2401 37.34 25.7001 37.03C26.1601 36.72 26.72 36.75 26.94 37.08L28.16 40.22C28.38 40.55 27.9301 40.85 27.7001 40.52V40.53Z" fill="#5D3211"/>
<path d="M2.92002 30.87L0.49 28.53C0.27 28.2 0.460023 27.68 0.920023 27.37C1.38002 27.06 1.94001 27.09 2.16001 27.42L3.38001 30.56C3.60001 30.89 3.15002 31.19 2.92002 30.86V30.87Z" fill="#5D3211"/>
<path d="M68.71 34.15L71.14 31.81C71.36 31.48 71.17 30.96 70.71 30.65C70.25 30.34 69.69 30.37 69.47 30.7L68.25 33.84C68.03 34.17 68.48 34.47 68.71 34.14V34.15Z" fill="#5D3211"/>
</svg>
