<svg width="39" height="51" viewBox="0 0 39 51" fill="none" xmlns="http://www.w3.org/2000/svg">
<path d="M34.05 26.67C35.24 27.69 36.21 28.97 36.98 30.51C37.75 32.05 38.13 33.76 38.13 35.63C38.13 40.21 36.5 43.8 33.23 46.4C29.96 49 25.13 50.3 18.72 50.3C15.68 50.3 12.65 49.96 9.60999 49.27C6.56999 48.58 3.87 47.74 1.5 46.74V33.45C4.08 34.57 6.75002 35.49 9.52002 36.2C12.29 36.91 14.92 37.26 17.41 37.26C19.16 37.26 20.44 36.99 21.25 36.45C22.06 35.91 22.47 35.01 22.47 33.77C22.47 31.36 21.01 30.15 18.1 30.15H13.61V19.92H17.1C19.85 19.92 21.22 18.76 21.22 16.43C21.22 14.1 19.85 13.06 17.1 13.06C15.1 13.06 13.02 13.53 10.86 14.46C8.69999 15.4 6.59 16.61 4.56 18.11L0.880005 4.82002C3.42 3.49002 6.30999 2.35001 9.54999 1.42001C12.8 0.480013 16.06 0.0200195 19.35 0.0200195C25.09 0.0200195 29.5 1.23001 32.58 3.64001C35.66 6.05001 37.2 9.47001 37.2 13.87C37.2 16.62 36.55 18.87 35.27 20.64C33.98 22.41 32.34 23.75 30.34 24.67C31.63 25 32.87 25.68 34.05 26.7V26.67Z" fill="#55C7A6"/>
</svg>
