<svg width="72" height="33" viewBox="0 0 72 33" fill="none" xmlns="http://www.w3.org/2000/svg">
<path d="M70.7399 21.2H70.1299V25.89H70.7399V21.2Z" fill="#D92843"/>
<path d="M2.30995 20.96H2.44995V23.69H2.30995C1.55995 23.69 0.949951 23.08 0.949951 22.33C0.949951 21.58 1.55995 20.97 2.30995 20.97V20.96Z" fill="#ED8835"/>
<path d="M2.44002 19.96H2.36002C1.89002 19.96 1.52002 19.58 1.52002 19.12C1.52002 18.65 1.90002 18.28 2.36002 18.28H2.44002V19.96Z" fill="#ED8835"/>
<path d="M67.9 18.95H9.95996V27.23H67.9V18.95Z" fill="#17172D"/>
<path d="M22.0299 31.92C24.7085 31.92 26.8799 29.7486 26.8799 27.07C26.8799 24.3914 24.7085 22.22 22.0299 22.22C19.3513 22.22 17.1799 24.3914 17.1799 27.07C17.1799 29.7486 19.3513 31.92 22.0299 31.92Z" fill="#2E2E52"/>
<path d="M22.0299 29.94C23.615 29.94 24.8999 28.6551 24.8999 27.07C24.8999 25.485 23.615 24.2 22.0299 24.2C20.4449 24.2 19.1599 25.485 19.1599 27.07C19.1599 28.6551 20.4449 29.94 22.0299 29.94Z" fill="#F3FFD5"/>
<path d="M62.4006 28.2523C63.0227 25.647 61.415 23.0306 58.8097 22.4085C56.2043 21.7864 53.5879 23.3941 52.9658 25.9994C52.3437 28.6048 53.9514 31.2211 56.5568 31.8433C59.1621 32.4654 61.7784 30.8576 62.4006 28.2523Z" fill="#2E2E52"/>
<path d="M60.4779 27.7181C60.8581 26.1794 59.919 24.6237 58.3802 24.2435C56.8414 23.8632 55.2858 24.8024 54.9055 26.3412C54.5253 27.88 55.4645 29.4356 57.0032 29.8159C58.542 30.1961 60.0977 29.2569 60.4779 27.7181Z" fill="#F3FFD5"/>
<path d="M70.3699 8.22998C70.3699 5.62998 68.2699 3.53003 65.6699 3.53003H19.8099C10.0499 3.53003 2.13989 11.44 2.13989 21.2V28.42H15.6699L16.3499 25.16C16.5999 23.93 17.6899 23.05 18.9399 23.05H24.6599C25.9099 23.05 26.9899 23.93 27.2499 25.16L27.9299 28.42H50.7599L51.4899 27.07C51.9099 26.29 52.7299 25.8 53.6199 25.8H61.6399C62.5299 25.8 63.3399 26.29 63.7699 27.07L64.4999 28.42H70.3999V8.22998H70.3699Z" fill="#FFBD47"/>
<path d="M16.9999 0.97998C14.8099 0.97998 13.0299 2.72997 12.9699 4.90997C9.00991 6.57997 5.77991 9.64 3.90991 13.5H70.3699V3.53998C70.3699 2.12998 69.2299 0.97998 67.8099 0.97998H16.9999Z" fill="#F3FFD5"/>
<path d="M15.7499 26.69H2.28992C1.80944 26.69 1.41992 27.0795 1.41992 27.56C1.41992 28.0405 1.80944 28.43 2.28992 28.43H15.7499C16.2304 28.43 16.6199 28.0405 16.6199 27.56C16.6199 27.0795 16.2304 26.69 15.7499 26.69Z" fill="#ED8835"/>
<path d="M70.3601 28.42H63.6901C63.2101 28.42 62.8201 28.03 62.8201 27.55C62.8201 27.07 63.2101 26.68 63.6901 26.68H70.3601C70.8401 26.68 71.2301 27.07 71.2301 27.55C71.2301 28.03 70.8401 28.42 70.3601 28.42Z" fill="#ED8835"/>
<path d="M50.68 26.67H28.16C27.6685 26.67 27.27 27.0685 27.27 27.56C27.27 28.0515 27.6685 28.45 28.16 28.45H50.68C51.1716 28.45 51.57 28.0515 51.57 27.56C51.57 27.0685 51.1716 26.67 50.68 26.67Z" fill="#ED8835"/>
<path d="M29.0099 6.56V22.17H16.5599C15.6699 22.17 14.9399 22.89 14.9399 23.79C14.9399 24.68 14.2199 25.41 13.3199 25.41H3.62988V19.49C3.62988 19.49 4.26988 10.55 13.3199 5.97998C14.9299 5.16998 16.7199 4.75 18.5299 4.75H27.1899C28.1899 4.75 29.0099 5.56001 29.0099 6.57001V6.56Z" stroke="#ED8835" stroke-width="0.2" stroke-miterlimit="10"/>
<path d="M40.7499 5.15002H31.2299C30.2248 5.15002 29.4099 5.96481 29.4099 6.96997V10.56C29.4099 11.5652 30.2248 12.38 31.2299 12.38H40.7499C41.7551 12.38 42.5699 11.5652 42.5699 10.56V6.96997C42.5699 5.96481 41.7551 5.15002 40.7499 5.15002Z" fill="#018BB2"/>
<path d="M63.7599 12.38C63.7599 8.38 60.5199 5.15002 56.5299 5.15002H45.1899C44.1899 5.15002 43.3699 5.95997 43.3699 6.96997V10.57C43.3699 11.57 44.1799 12.39 45.1899 12.39H63.7599V12.38Z" fill="#018BB2"/>
<path d="M27.7001 15.02C27.7001 15.61 27.2201 16.09 26.6301 16.09C26.0401 16.09 25.5601 15.61 25.5601 15.02C25.5601 14.43 26.0401 13.95 26.6301 13.95C27.2201 13.95 27.7001 14.43 27.7001 15.02Z" fill="#ED8835"/>
<path d="M7.69005 12.38H11.3201C12.2001 12.38 12.8501 11.95 13.1401 11.29L15.3701 6.14001C15.4901 5.86001 15.2101 5.57 14.9301 5.69C11.2401 7.21 8.82005 9.43999 7.26005 11.55C7.00005 11.9 7.26005 12.39 7.69005 12.39V12.38Z" fill="#018BB2"/>
<path d="M26.78 5.15002H17.8801C17.1601 5.15002 16.5 5.57999 16.21 6.23999L14.6501 9.84003C14.1301 11.04 15.0101 12.38 16.3201 12.38H26.78C27.78 12.38 28.6 11.57 28.6 10.56V6.96002C28.6 5.96002 27.79 5.14001 26.78 5.14001V5.15002Z" fill="#018BB2"/>
<path d="M30.0101 7.37C30.0101 6.48 30.7301 5.75 31.6301 5.75H41.1501C41.4901 5.75 41.8101 5.85998 42.0701 6.03998C41.7801 5.61998 41.2901 5.34998 40.7501 5.34998H31.2301C30.3401 5.34998 29.6101 6.06997 29.6101 6.96997V10.57C29.6101 11.12 29.8901 11.6 30.3001 11.89C30.1201 11.63 30.0101 11.31 30.0101 10.97V7.37Z" fill="#0269AF"/>
<path d="M43.9801 7.37C43.9801 6.48 44.7001 5.75 45.6001 5.75H56.9401C58.7801 5.75 60.4601 6.46 61.7101 7.62C60.4201 6.22 58.5801 5.34003 56.5401 5.34003H45.2001C44.3101 5.34003 43.5801 6.06002 43.5801 6.96002V10.56C43.5801 11.11 43.8601 11.59 44.2701 11.88C44.0901 11.62 43.9801 11.3 43.9801 10.96V7.35999V7.37Z" fill="#0269AF"/>
<path d="M15.0301 6.45001L15.2001 6.06C15.2201 6 15.2001 5.95999 15.1901 5.92999C15.1601 5.88999 15.1201 5.85999 15.0701 5.85999C15.0501 5.85999 15.0301 5.86 15.0201 5.87C11.8801 7.16 9.33015 9.10997 7.43015 11.66C7.36015 11.76 7.35015 11.89 7.40015 12C7.46015 12.11 7.57014 12.18 7.69014 12.18H7.78014C7.78014 12.18 7.81015 12.1 7.83015 12.07C9.65015 9.63001 12.0701 7.74001 15.0301 6.45001Z" fill="#0269AF"/>
<path d="M15.2402 10.33L16.8002 6.72998C17.0602 6.13998 17.6402 5.76001 18.2802 5.76001H27.1802C27.5202 5.76001 27.8402 5.86999 28.1002 6.04999C27.8102 5.62999 27.3202 5.35999 26.7802 5.35999H17.8802C17.2402 5.35999 16.6502 5.74002 16.4002 6.33002L14.8402 9.92999C14.6202 10.43 14.6702 11 14.9702 11.46C15.0902 11.64 15.2302 11.79 15.4002 11.9C15.4002 11.89 15.3802 11.87 15.3702 11.86C15.0702 11.4 15.0202 10.83 15.2402 10.33Z" fill="#0269AF"/>
<path d="M27.73 15.31H25.61C25.41 15.31 25.26 15.15 25.26 14.96C25.26 14.76 25.42 14.61 25.61 14.61H27.73C27.93 14.61 28.08 14.77 28.08 14.96C28.08 15.16 27.92 15.31 27.73 15.31Z" fill="#2E2E52"/>
<path d="M70.3701 18.95H31.5601C34.4201 16.6 38.0101 15.32 41.7101 15.32H70.3701V18.95Z" fill="#D92843"/>
<path d="M70.3701 19.96H31.3101V20.56H70.3701V19.96Z" fill="#D92843"/>
<path d="M67.6299 7.15002H63.6599C63.3599 7.15002 63.1199 6.90999 63.1199 6.60999H67.0899C67.3899 6.60999 67.6299 6.85002 67.6299 7.15002Z" fill="#2E2E52"/>
<path d="M68.0998 8.13H64.1298C63.8298 8.13 63.5898 7.89003 63.5898 7.59003H67.5598C67.8598 7.59003 68.0998 7.83 68.0998 8.13Z" fill="#2E2E52"/>
<path d="M68.5698 9.09998H64.5998C64.2998 9.09998 64.0598 8.86 64.0598 8.56H68.0298C68.3298 8.56 68.5698 8.79998 68.5698 9.09998Z" fill="#2E2E52"/>
<path d="M69.0498 10.08H65.0798C64.7798 10.08 64.5398 9.83998 64.5398 9.53998H68.5098C68.8098 9.53998 69.0498 9.78002 69.0498 10.08Z" fill="#2E2E52"/>
</svg>
