<?xml version="1.0" encoding="UTF-8" standalone="no"?>
<!-- Created with Inkscape (http://www.inkscape.org/) -->

<svg
   version="1.1"
   id="svg9"
   width="34.698669"
   height="68.520233"
   viewBox="0 0 34.698671 68.520233"
   sodipodi:docname="3-6_years_abc_page_1024x720.ai"
   xmlns:inkscape="http://www.inkscape.org/namespaces/inkscape"
   xmlns:sodipodi="http://sodipodi.sourceforge.net/DTD/sodipodi-0.dtd"
   xmlns="http://www.w3.org/2000/svg"
   xmlns:svg="http://www.w3.org/2000/svg">
  <defs
     id="defs13">
    <clipPath
       clipPathUnits="userSpaceOnUse"
       id="clipPath6517">
      <path
         d="M 0,720 H 1024 V 0 H 0 Z"
         id="path6515" />
    </clipPath>
    <clipPath
       clipPathUnits="userSpaceOnUse"
       id="clipPath6541">
      <path
         d="m 765.262,545.106 h 90.867 V 414.754 h -90.867 z"
         id="path6539" />
    </clipPath>
  </defs>
  <sodipodi:namedview
     id="namedview11"
     pagecolor="#ffffff"
     bordercolor="#000000"
     borderopacity="0.25"
     inkscape:showpageshadow="2"
     inkscape:pageopacity="0.0"
     inkscape:pagecheckerboard="0"
     inkscape:deskcolor="#d1d1d1"
     showgrid="false"
     inkscape:zoom="0.91259771"
     inkscape:cx="459.12892"
     inkscape:cy="493.64577"
     inkscape:window-width="2155"
     inkscape:window-height="1205"
     inkscape:window-x="0"
     inkscape:window-y="25"
     inkscape:window-maximized="0"
     inkscape:current-layer="g15" />
  <g
     id="g15"
     inkscape:groupmode="layer"
     inkscape:label="3-6_years_abc_page_1024x720"
     transform="matrix(1.3333333,0,0,-1.3333333,-625.2667,459.29727)">
    <g
       id="g6511"
       transform="translate(-227.64686,-31.229533)">
      <g
         id="g6513"
         clip-path="url(#clipPath6517)">
        <g
           id="g6519"
           transform="translate(717.4009,324.3123)">
          <path
             d="m 0,0 c 0.933,0 1.748,0.644 1.951,1.555 2.034,9.114 3.269,18.451 3.269,21.759 0,7.186 -5.826,13.012 -13.012,13.012 -7.187,0 -13.012,-5.826 -13.012,-13.012 0,-3.308 1.235,-12.645 3.268,-21.759 C -17.333,0.644 -16.518,0 -15.585,0 Z"
             style="fill:#f96155;fill-opacity:1;fill-rule:nonzero;stroke:none"
             id="path6521" />
        </g>
        <g
           id="g6523"
           transform="translate(709.6086,360.6383)">
          <path
             d="m 0,0 c -0.738,0 -1.458,-0.076 -2.162,-0.194 6.154,-1.032 10.849,-6.37 10.849,-12.818 0,-0.787 -0.035,-1.76 -0.115,-2.904 -0.687,-9.8 -8.765,-17.446 -18.587,-17.614 0.089,-0.412 0.179,-0.824 0.27,-1.236 0.204,-0.913 1.022,-1.56 1.958,-1.56 H 7.792 c 0.934,0 1.748,0.644 1.952,1.555 2.033,9.114 3.268,18.451 3.268,21.759 C 13.012,-5.826 7.186,0 0,0"
             style="fill:#e83e36;fill-opacity:1;fill-rule:nonzero;stroke:none"
             id="path6525" />
        </g>
        <g
           id="g6527"
           transform="translate(719.2499,375.7025)">
          <path
             d="m 0,0 h -19.283 l 3.46,-16.674 H -3.46 Z"
             style="fill:#ffa929;fill-opacity:1;fill-rule:nonzero;stroke:none"
             id="path6529" />
        </g>
        <g
           id="g6531"
           transform="translate(714.1003,375.7025)">
          <path
             d="M 0,0 -2.522,-16.674 H 1.69 L 5.15,0 Z"
             style="fill:#ff9100;fill-opacity:1;fill-rule:nonzero;stroke:none"
             id="path6533" />
        </g>
        <g
           id="g6535"
           style="display:none">
          <g
             id="g6537" />
          <g
             id="g6553">
            <g
               clip-path="url(#clipPath6541)"
               opacity="0.5"
               id="g6551">
              <g
                 transform="translate(847.4563,415.1517)"
                 id="g6545">
                <path
                   d="m 0,0 h -73.522 c -4.551,0 -8.274,3.724 -8.274,8.275 v 113.007 c 0,4.551 3.723,8.274 8.274,8.274 H 0 c 4.551,0 8.275,-3.723 8.275,-8.274 V 8.275 C 8.275,3.724 4.551,0 0,0"
                   style="fill:#ffffff;fill-opacity:1;fill-rule:nonzero;stroke:none"
                   id="path6543" />
              </g>
              <g
                 transform="translate(847.4563,415.1517)"
                 id="g6549">
                <path
                   d="m 0,0 h -73.522 c -4.551,0 -8.274,3.724 -8.274,8.275 v 113.007 c 0,4.551 3.723,8.274 8.274,8.274 H 0 c 4.551,0 8.275,-3.723 8.275,-8.274 V 8.275 C 8.275,3.724 4.551,0 0,0 Z"
                   style="fill:none;stroke:#286fb5;stroke-width:0.796;stroke-linecap:butt;stroke-linejoin:miter;stroke-miterlimit:10;stroke-dasharray:none;stroke-opacity:1"
                   id="path6547" />
              </g>
            </g>
          </g>
        </g>
      </g>
    </g>
  </g>
</svg>
