<svg width="73" height="65" viewBox="0 0 73 65" fill="none" xmlns="http://www.w3.org/2000/svg">
<path fill-rule="evenodd" clip-rule="evenodd" d="M72.8699 33.63V31.27H67.7C59.0499 25.54 54.7299 16.83 53.1899 6.15997C54.0899 4.66997 54.9399 3.18997 55.8399 1.65997C55.1299 1.29997 54.4499 0.900022 53.7699 0.460022C52.9099 1.95002 52.06 3.43998 51.2 4.91998C41.09 8.57998 31.2299 8.79998 21.6299 4.91998C20.7699 3.49998 19.9499 2.01998 19.0999 0.599976C18.4199 0.999976 17.7399 1.43999 17.0599 1.79999C17.9499 3.35999 18.8499 4.87997 19.7699 6.40997C17.8799 16.24 14.0199 25.06 5.37994 31.27H0.199951C0.199951 32.07 0.199951 32.83 0.199951 33.63H5.37994C12.4899 40.85 17.7399 49.01 19.8799 58.74C19.0199 60.23 18.1299 61.75 17.2699 63.24C17.9499 63.64 18.6299 64 19.3399 64.43C20.1999 62.94 21.0599 61.49 21.9099 59.97C31.7699 57.46 41.5899 57.5 51.4399 59.97C52.2999 61.42 53.16 62.87 54.0099 64.29C54.6899 63.89 55.3599 63.49 56.0499 63.09C55.1599 61.57 54.2299 60.01 53.3299 58.48C55.6899 48.9 60.6499 40.7 67.6899 33.62H72.8599L72.8699 33.63ZM49.7999 7.28998C48.6499 9.24998 47.5099 11.24 46.3699 13.21C39.8399 15.89 33.2299 16.07 26.5099 13.21C25.3599 11.25 24.1899 9.24998 23.0399 7.28998C32.1499 10.63 41.0499 10.16 49.7999 7.28998ZM34.4399 31.27H27.2599C29.7199 29.74 30.6099 27.57 30.7899 25.1C32.0099 27.17 33.2199 29.2 34.4399 31.27ZM32.8299 23.83C35.2199 25.21 37.6799 25.42 40.1799 23.83C38.9699 25.93 37.7499 28 36.5399 30.11C35.2899 28 34.0399 25.94 32.8299 23.83ZM34.4699 33.62C33.2499 35.69 32.0399 37.8 30.8599 39.86C30.9299 37.61 29.8299 35.54 27.2499 33.62H34.4599H34.4699ZM36.5399 34.78C37.7899 36.89 39.0099 38.95 40.2599 41.06C37.75 39.61 35.3299 39.72 32.8999 41.06C34.1199 38.96 35.3299 36.89 36.5399 34.78ZM38.6099 33.62H45.8199C43.9299 35.07 42.4999 36.89 42.2499 39.79C41.0399 37.72 39.8199 35.69 38.6099 33.62ZM38.6099 31.26C39.7899 29.19 40.9999 27.08 42.2199 25.02C42.5099 27.59 43.3999 29.85 45.8299 31.26H38.6199H38.6099ZM41.5299 21.46C38.2499 23.78 34.89 23.82 31.39 21.46C30.25 19.5 29.0699 17.51 27.9299 15.54C34.6499 17.97 40.0699 17.36 44.9599 15.54C43.8199 17.5 42.6799 19.5 41.5299 21.46ZM29.4299 22.73C29.3899 26.47 28.0699 29.48 24.4999 31.26H17.6799C22.8599 27.52 25.2199 22.55 25.9599 16.93C27.1099 18.85 28.2499 20.81 29.4299 22.73ZM24.4999 33.61C27.9999 35.97 29.7099 38.84 29.4599 42.21C28.3199 44.17 27.1699 46.13 26.0299 48.09C25.3499 42.25 22.53 37.42 17.67 33.61H24.4999ZM31.4999 43.41C34.9899 41.56 38.39 41.49 41.64 43.41C42.82 45.37 43.9599 47.36 45.1299 49.33C39.5599 47.3 33.8799 47.33 28.0599 49.33C29.2099 47.37 30.3499 45.37 31.4899 43.41H31.4999ZM43.64 42.14C43.99 37.97 45.9199 35.43 48.5699 33.61H55.3499C50.5299 37.06 47.5999 41.74 47.0999 47.94C45.9199 46.02 44.78 44.06 43.64 42.13V42.14ZM48.5699 31.26C45.0299 29.15 43.9899 26.03 43.6099 22.66C44.7099 20.7 45.8599 18.74 46.9999 16.78C47.4299 23.1 49.8199 28.18 55.3499 31.26H48.5699ZM21.14 8.76001C22.28 10.68 23.4199 12.64 24.5699 14.56C23.7799 21.71 20.8499 27.48 14.9299 31.25H8.09995C15.7799 25.91 19.14 17.79 21.14 8.75V8.76001ZM21.2399 56.33C19.0299 47.69 14.3799 40.26 8.08994 33.61H14.92C20.85 38.47 24.1 44.1 24.67 50.45C23.53 52.41 22.3899 54.37 21.2399 56.33ZM23.2799 57.6C24.4299 55.61 25.5699 53.65 26.7099 51.69C33.3499 49.44 39.9599 49.3 46.5299 51.69C47.7099 53.65 48.8499 55.61 50.0299 57.6C41.0999 54.95 32.1699 54.8 23.2799 57.6ZM51.9299 56.11C50.7799 54.19 49.6399 52.23 48.4599 50.31C49.3599 43.05 52.7099 37.61 58.0999 33.62H64.92C58.42 39.97 53.99 47.37 51.92 56.12L51.9299 56.11ZM58.1099 31.26C51.2499 27.52 48.6399 21.57 48.3999 14.42C49.5399 12.46 50.6799 10.5 51.8299 8.53998C53.4099 18.01 57.5499 25.74 64.9399 31.26H58.1199H58.1099Z" fill="#1A1A1A"/>
</svg>
