<svg width="22" height="58" viewBox="0 0 22 58" fill="none" xmlns="http://www.w3.org/2000/svg">
<path d="M20.48 51.25C18.46 45.13 18.4701 45.94 17.9001 41.86C17.3401 37.78 16.71 33.41 15.37 32.7C14.03 31.98 13.3 32.47 13.3 32.47C13.3 32.47 12.4301 32.34 11.5201 33.55C10.6101 34.76 11.8801 38.98 13.0801 42.93C14.2901 46.88 13.9501 46.13 14.6901 52.54C15.4301 58.94 18.86 57.68 18.86 57.68C18.86 57.68 22.5 57.38 20.48 51.26V51.25ZM18.29 55.08C17.49 55.26 16.62 54.4 16.35 53.17C16.08 51.94 16.51 50.8 17.3 50.62C18.1 50.44 18.97 51.3 19.24 52.53C19.51 53.76 19.08 54.9 18.29 55.08Z" fill="#6D6E71"/>
<path d="M17.3101 50.62C17.2501 50.63 17.2001 50.66 17.1501 50.68C17.9001 50.65 18.6601 51.46 18.9101 52.6C19.1601 53.74 18.8101 54.79 18.1201 55.08C18.1801 55.08 18.2401 55.08 18.3001 55.07C19.1001 54.89 19.5301 53.75 19.2501 52.52C18.9801 51.29 18.1101 50.43 17.3101 50.61V50.62Z" fill="#414042"/>
<g style="mix-blend-mode:multiply" opacity="0.4">
<path d="M18.86 57.67C18.86 57.67 22.5 57.37 20.48 51.25C18.46 45.13 18.47 45.94 17.9 41.86C17.34 37.78 16.71 33.41 15.37 32.7C14.03 31.98 13.3 32.47 13.3 32.47C13.3 32.47 12.43 32.34 11.52 33.55C11.27 33.89 11.19 34.47 11.22 35.2C11.26 35.23 12.7 36.18 13.92 35.56C15.17 34.94 15.74 35.97 16.14 39.34C16.54 42.72 16.52 46.3 17.83 48.56C19.14 50.81 23.53 58.16 16.45 57.08C17.6 58.13 18.85 57.67 18.85 57.67H18.86Z" fill="#6D6E71"/>
</g>
<path d="M16.04 32.55L15.34 32.7C14.83 32.65 14.14 32.7 13.39 32.86C12.64 33.03 11.99 33.27 11.55 33.53L10.85 33.68L10.97 34.2C10.97 34.2 10.97 34.22 10.97 34.23C11.07 34.67 12.31 34.78 13.74 34.46C15.17 34.14 16.25 33.53 16.15 33.09C16.15 33.09 16.15 33.07 16.14 33.06L16.03 32.54L16.04 32.55Z" fill="#6D6E71"/>
<path d="M16.0399 32.55C16.1399 32.99 15.06 33.61 13.63 33.92C12.2 34.24 10.9599 34.13 10.8599 33.69C10.7599 33.25 11.84 32.63 13.27 32.32C14.7 32.01 15.9399 32.11 16.0399 32.55Z" fill="#A0A0A0"/>
<path d="M13.05 1.57998C11.44 0.159982 9.33998 -0.300016 6.81998 0.229984C6.81998 0.229984 6.79996 0.229984 6.78996 0.229984L6.69999 0.24998C6.56999 0.27998 6.43998 0.309977 6.30998 0.339977H6.29997L6.18998 0.359981C6.18998 0.359981 6.13996 0.379978 6.10996 0.379978C6.05996 0.379978 6.01995 0.399979 5.96995 0.419979C3.52995 1.00998 1.84997 2.27998 0.989968 4.20998C-0.860032 8.39998 1.71997 14.81 4.04997 17.82C6.92997 21.55 12.23 32.4 12.41 32.95C12.45 33.14 12.63 33.27 12.84 33.28H13.25C13.25 33.28 13.29 33.31 13.31 33.32C13.44 33.37 13.5899 33.37 13.7199 33.31C13.7599 33.31 13.8 33.31 13.84 33.3C13.94 33.28 14.03 33.23 14.1 33.15C14.12 33.13 14.13 33.11 14.14 33.1L14.51 32.91C14.69 32.82 14.79 32.63 14.76 32.45C14.68 31.86 14.9299 19.78 15.9699 15.19C16.8099 11.49 16.47 4.59998 13.05 1.56998V1.57998ZM12.39 24.56C10.46 16.06 7.60997 3.80998 6.98997 1.14998C8.06997 1.46998 12.03 3.07998 12.11 8.60998C12.13 9.82998 12.12 11.54 12.11 13.52C12.11 16.96 12.3 20.97 12.38 24.56H12.39ZM6.07999 1.44998C6.75999 4.38998 9.87001 17.79 11.78 26.19C10.24 22.58 8.37995 18.26 6.71995 14.7C5.71995 12.55 4.99995 11 4.65995 10.24C2.51995 5.45998 5.05999 2.38998 6.07999 1.43998V1.44998ZM4.82999 17.31C2.91999 14.83 0.0799631 8.53998 1.85996 4.50998C2.38996 3.32998 3.28996 2.42998 4.53996 1.82998C3.27996 3.46998 1.79999 6.51998 3.63999 10.63C4.13999 11.75 4.85999 13.3 5.69999 15.1C8.11999 20.3 11.07 26.4 12.32 30.09C12.32 30.15 7.20999 20.38 4.82999 17.3V17.31ZM15.04 15.06C14.21 18.7 13.67 30.21 13.59 29.86C13.27 25.59 13.28 18.51 13.28 13.44C13.28 11.46 13.28 9.74998 13.28 8.51998C13.22 3.98998 10.5599 1.83998 8.71995 0.899982C10.1499 0.899982 11.38 1.33998 12.38 2.21998C15.67 5.12998 15.74 12.03 15.05 15.07L15.04 15.06Z" fill="#D1D3D4"/>
</svg>
