<svg width="186" height="145" viewBox="0 0 186 145" fill="none" xmlns="http://www.w3.org/2000/svg">
<circle cx="100.623" cy="75.8853" r="69.1148" fill="#F2A094" fill-opacity="0.75"/>
<circle cx="100.115" cy="76.3934" r="51.3607" stroke="#EE7968" stroke-width="4"/>
<path d="M113.495 90.5509C112.809 91.1472 112.213 91.5348 111.706 91.7137C111.199 91.8925 110.707 91.8627 110.23 91.6242C109.783 91.3857 109.276 90.9385 108.709 90.2826L87.6456 65.7306C86.8108 64.8362 86.3934 64.0312 86.3934 63.3156C86.3934 62.6001 86.8854 61.81 87.8692 60.9454C88.5251 60.3193 89.1065 59.9168 89.6134 59.7379C90.1202 59.559 90.6121 59.5889 91.0892 59.8274C91.5662 60.0659 92.0879 60.528 92.6544 61.2137L113.718 85.8104C114.553 86.7347 114.97 87.5397 114.97 88.2254C115 88.9111 114.508 89.6863 113.495 90.5509ZM87.8692 90.5509C86.8854 89.6863 86.3934 88.9111 86.3934 88.2254C86.3934 87.5397 86.8108 86.7347 87.6456 85.8104L108.709 61.2137C109.276 60.528 109.798 60.0659 110.275 59.8274C110.752 59.5889 111.244 59.559 111.75 59.7379C112.257 59.9168 112.839 60.3193 113.495 60.9454C114.508 61.81 115 62.6001 114.97 63.3156C114.97 64.0312 114.553 64.8362 113.718 65.7306L92.6544 90.2826C92.1178 90.9385 91.6109 91.3857 91.1339 91.6242C90.6569 91.8627 90.1649 91.8925 89.6581 91.7137C89.1512 91.5348 88.555 91.1472 87.8692 90.5509Z" fill="white"/>
<circle cx="31" cy="56.0656" r="10.6721" fill="#EE7968"/>
<circle cx="27.4426" cy="28.1148" r="4.06557" fill="#757C8B"/>
<circle cx="175.328" cy="108.918" r="2.54098" fill="#757C8B"/>
<circle cx="7.62295" cy="68.2624" r="6.87295" stroke="#F2A094" stroke-width="1.5"/>
<circle cx="58.9509" cy="9.81972" r="4.81557" stroke="#757C8B" stroke-width="1.5"/>
<circle cx="151.443" cy="5.75413" r="1.76639" stroke="#757C8B" stroke-width="1.5"/>
<circle cx="171.262" cy="65.2132" r="5.32377" stroke="#757C8B" stroke-width="1.5"/>
<circle cx="36.5902" cy="6.7705" r="4.33197" stroke="#F2A094" stroke-width="1.5"/>
<circle cx="180.918" cy="37.2623" r="4.33197" stroke="#F2A094" stroke-width="1.5"/>
<circle cx="152.967" cy="119.082" r="10.6721" fill="#EE7968"/>
<path d="M119.934 14.9017C119.934 16.6368 120.276 18.355 120.94 19.9581C121.604 21.5612 122.577 23.0178 123.804 24.2447C125.031 25.4717 126.488 26.445 128.091 27.109C129.694 27.773 131.412 28.1148 133.148 28.1148C134.883 28.1148 136.601 27.773 138.204 27.109C139.807 26.445 141.264 25.4717 142.491 24.2447C143.718 23.0178 144.691 21.5612 145.355 19.9581C146.019 18.355 146.361 16.6368 146.361 14.9017C146.361 13.1665 146.019 11.4483 145.355 9.84521C144.691 8.24212 143.718 6.78552 142.491 5.55857C141.264 4.33162 139.807 3.35835 138.204 2.69433C136.601 2.03031 134.883 1.68854 133.148 1.68854C131.412 1.68854 129.694 2.03031 128.091 2.69433C126.488 3.35835 125.031 4.33162 123.804 5.55857C122.577 6.78552 121.604 8.24212 120.94 9.84521C120.276 11.4483 119.934 13.1665 119.934 14.9017Z" stroke="#EE7968" stroke-width="2" stroke-linecap="round" stroke-linejoin="round"/>
<path d="M137.04 21.2079C136.533 20.69 135.927 20.2786 135.259 19.9977C134.59 19.7168 133.873 19.5722 133.148 19.5722C132.423 19.5722 131.705 19.7168 131.036 19.9977C130.368 20.2786 129.762 20.69 129.255 21.2079M130.033 10.6196C129.255 12.1767 126.141 12.1767 125.362 10.6196M140.933 10.6196C140.155 12.1767 137.04 12.1767 136.262 10.6196" stroke="#EE7968" stroke-width="2" stroke-linecap="round" stroke-linejoin="round"/>
</svg>
